<svg width="32" height="32" viewBox="0 0 32 32" fill="none" xmlns="http://www.w3.org/2000/svg">
<g clip-path="url(#clip0_4_1016)">
<path d="M26.1553 12.333V14.1636V15.9978V17.8319V19.6625V21.4966V23.3308H28.0001V21.4966V19.6625V17.8319V15.9978V14.1636V12.333H26.1553Z" fill="#110F23"/>
<path d="M24.3067 23.3308H22.4619V25.1614H24.3067H26.155V23.3308H24.3067Z" fill="#110F23"/>
<path d="M26.1551 8.66475V6.83415V5H24.3068H22.462H20.6172V6.83415H22.462H24.3068V8.66475V10.4989V12.333H26.1551V10.4989V8.66475Z" fill="#110F23"/>
<path d="M20.6139 25.1614H18.7691H16.9243H15.076H13.2312H11.3864H11.3829H9.53809V26.9956H11.3829H13.2312H15.076H16.9243H18.7691H20.6139H22.4623V25.1614H20.6175H20.6139Z" fill="#110F23"/>
<path d="M16.9246 6.83417H15.0763H13.2315H11.3867V8.66477H13.2315H15.0763H16.9246H18.7694H20.6178V6.83417H18.7694H16.9246Z" fill="#110F23"/>
<path d="M9.53821 5H7.69342H5.84863V6.83415V8.66475V10.4989V12.333H7.69342V10.4989V8.66475V6.83415H9.53821H11.3865V5H9.53821Z" fill="#110F23"/>
<path d="M9.53821 23.9552V23.3308H7.69342H5.84863V25.1614H7.69342H9.53821V23.9552Z" fill="#110F23"/>
<path d="M4 14.1636V15.9978V17.8319V19.6625V21.4966V23.3308H5.84479V21.4966V19.6625V17.8319V15.9978V14.1636V12.333H4V14.1636Z" fill="#110F23"/>
<path d="M13.2386 15.377H11.3867V17.2217H13.2386V15.377Z" fill="#110F23"/>
<path d="M15.101 17.2182H13.8203V18.4918H15.101V17.2182Z" fill="#110F23"/>
<path d="M10.1446 8.59024V7.4408H8.2998V8.09002V8.59024V9.24301H9.52375V8.59024H10.1446Z" fill="#110F23"/>
<path d="M21.3831 15.377H19.5312V17.2217H21.3831V15.377Z" fill="#110F23"/>
<path d="M18.9467 17.2182H17.666V18.4918H18.9467V17.2182Z" fill="#110F23"/>
<path d="M12.5391 22.788H13.8198V23.3308H15.104V23.9552V23.9801H15.7426V24.5903H16.3847H17.0269V23.9801H17.6654V23.9552V23.3308H18.9497V22.788H20.2304V18.4954H18.9497V20.9113H17.6654V20.3082H16.3847H15.104V20.9113H13.8198V18.4954H12.5391V22.788Z" fill="#110F23"/>
<path d="M23.6928 9.24301V8.59024V8.09002V7.4408H21.8516V8.59024H22.4724V9.24301H23.6928Z" fill="#110F23"/>
</g>
<defs>
<clipPath id="clip0_4_1016">
<rect width="24" height="21.9956" fill="white" transform="translate(4 5)"/>
</clipPath>
</defs>
</svg>
