<svg width="32" height="32" viewBox="0 0 32 32" fill="none" xmlns="http://www.w3.org/2000/svg">
<g clip-path="url(#clip0_13590_84)">
<path d="M28.8532 14.5312C28.7196 13.3347 28.4288 12.1811 27.9773 11.0656C27.8278 10.6962 27.6469 10.3416 27.4841 9.97847C27.4705 9.91878 27.4717 9.85052 27.3967 9.82659C27.0539 9.18949 26.657 8.58756 26.2161 8.0143C25.9913 7.72205 25.7513 7.44251 25.5087 7.16533C25.4591 7.06043 25.358 7.00576 25.28 6.92834C24.3205 5.94315 23.2346 5.1261 22.0233 4.47571C21.9447 4.40508 21.8596 4.34716 21.7515 4.33239C21.6398 4.28156 21.5275 4.23162 21.4164 4.17962C19.7888 3.41664 18.0731 3.02836 16.2803 2.97428C15.5758 2.953 14.8737 2.99349 14.1755 3.08952C13.1971 3.22427 12.2465 3.46628 11.3213 3.81379C10.73 4.036 10.1679 4.31791 9.60677 4.60336C9.54028 4.63734 9.45193 4.63764 9.41115 4.71683C9.32368 4.72452 9.25247 4.76145 9.20076 4.83355C8.69457 5.17338 8.19133 5.51556 7.71617 5.9003C6.44671 6.92864 5.42311 8.16411 4.60931 9.57335C4.27007 10.1608 3.98965 10.7808 3.75354 11.4187C3.59604 11.5969 3.56974 11.8221 3.52926 12.0422H3.53074C3.45923 12.1294 3.48346 12.2452 3.4412 12.3416C3.42879 12.3942 3.41815 12.4474 3.40367 12.4997C3.13063 13.4961 2.9752 14.5105 2.9421 15.5424C2.90369 16.7389 3.02218 17.9209 3.31236 19.0831C3.70744 20.6643 4.36522 22.1267 5.30934 23.4585C6.05163 24.5058 6.93015 25.4218 7.93543 26.2182C8.72205 26.8414 9.58786 27.3366 10.48 27.7882C10.7908 27.9457 11.125 28.0491 11.451 28.1705C12.7624 28.6599 14.1205 28.9152 15.5176 28.9631C16.3707 28.9923 17.2185 28.9323 18.061 28.7937C19.6573 28.5316 21.1516 27.9891 22.5431 27.1658C24.0921 26.2498 25.3932 25.0604 26.4537 23.6066C27.3774 22.3406 28.0473 20.9515 28.4637 19.4421C28.9081 17.8307 29.0387 16.194 28.8529 14.5303L28.8532 14.5312ZM12.1522 10.3818C12.2781 10.0464 12.4025 9.71016 12.5298 9.37536C12.7662 8.75452 13.0038 8.13456 13.242 7.51431C13.2984 7.36775 13.3428 7.21261 13.4624 7.1015C13.5777 6.99453 13.7151 6.9307 13.8758 6.93041C14.3879 6.92982 14.8997 6.93248 15.4118 6.92775C15.5241 6.92686 15.554 6.96912 15.5537 7.0755C15.5513 9.12832 15.5516 11.1814 15.5516 13.2343C15.5516 13.3723 15.5117 13.4857 15.3731 13.5448C15.2496 13.5977 15.1429 13.5729 15.0493 13.4807C14.1131 12.5588 13.1767 11.6371 12.2405 10.7152C12.1333 10.6247 12.0966 10.5154 12.1522 10.3818ZM10.5438 14.8125C10.9634 13.7357 11.3759 12.6563 11.7911 11.578C11.8136 11.5195 11.8198 11.4196 11.9205 11.5192C12.3437 11.9376 12.7958 12.3286 13.1923 12.7727C13.3117 12.9066 13.4887 13.0951 13.721 13.3093C14.0053 13.5859 14.2895 13.8622 14.5741 14.1388C14.848 14.3634 15.0723 14.637 15.3131 14.8938C15.4774 15.069 15.5492 15.2912 15.5498 15.5291C15.5531 16.72 15.5513 17.9108 15.5528 19.1017C15.5528 19.2252 15.5194 19.3274 15.3979 19.3774C15.2771 19.427 15.1695 19.4013 15.0732 19.31C14.4385 18.7072 13.8023 18.1059 13.1666 17.5039C12.3132 16.6957 11.461 15.8864 10.6047 15.0811C10.516 14.9978 10.4986 14.9292 10.5438 14.8131V14.8125ZM15.4142 22.9216C13.0966 22.9189 10.7787 22.9198 8.46112 22.9177C8.09678 22.9175 7.87486 22.7372 7.82167 22.4145C7.80778 22.3306 7.80896 22.2473 7.83969 22.1672C8.0164 21.7056 8.33376 20.8552 8.4954 20.4595C8.5415 20.3463 8.57991 20.247 8.61035 20.1661C8.62985 20.1108 8.6597 20.0272 8.69634 19.9255C9.18007 18.584 9.22144 18.5494 9.48059 17.8727C9.71611 17.2572 9.9525 16.642 10.1889 16.0267C10.2518 15.8624 10.2592 15.8621 10.3884 15.9874C10.6035 16.1963 10.8195 16.4044 11.0352 16.6127C11.0863 16.6618 11.1649 16.7371 11.2616 16.8284C11.6534 17.1996 11.8461 17.3828 12.1229 17.6283C12.3425 17.8234 12.5225 18.0583 12.755 18.2388C12.8295 18.31 12.9039 18.3813 12.9784 18.4522C13.502 18.9424 14.0262 19.4323 14.5493 19.9232C14.7789 20.1386 15.0097 20.3525 15.2336 20.5733C15.4429 20.7795 15.5478 21.0357 15.5504 21.3292C15.5546 21.8161 15.551 22.3034 15.5557 22.7904C15.5566 22.8971 15.5138 22.9213 15.4148 22.9213L15.4142 22.9216ZM16.3181 10.1496C16.3181 9.14517 16.3181 8.14077 16.3181 7.13637C16.3181 6.931 16.3187 6.93011 16.5164 6.92982C16.9892 6.92923 17.4617 6.92864 17.9345 6.92982C18.2548 6.93041 18.4442 7.05393 18.5589 7.35031C18.951 8.36446 19.3369 9.38098 19.7317 10.3942C19.7828 10.5257 19.758 10.6064 19.6602 10.7016C18.7261 11.6114 17.7956 12.5254 16.8657 13.4396C16.7599 13.5437 16.6506 13.6107 16.4981 13.5466C16.3441 13.4822 16.3181 13.3528 16.3184 13.2071C16.3187 12.1879 16.3184 11.1687 16.3184 10.1496H16.3181ZM16.7439 14.6668C17.7392 13.7 18.7226 12.7207 19.7107 11.7467C19.7527 11.7054 19.7985 11.6678 19.8428 11.6288C20.0257 11.5473 20.0358 11.5514 20.1363 11.7438C20.3062 12.177 20.4776 12.6093 20.6454 13.0431C20.8437 13.5549 21.0393 14.0676 21.2352 14.5803C21.2456 14.6075 21.2491 14.637 21.2559 14.6654C21.2822 14.8028 21.3626 14.9408 21.2503 15.0764C19.8159 16.4738 18.3432 17.831 16.897 19.216C16.7794 19.3286 16.6639 19.4589 16.4747 19.3786C16.2853 19.2982 16.3196 19.1238 16.3193 18.9699C16.3178 17.8771 16.3243 16.7841 16.3152 15.6913C16.3116 15.2815 16.4481 14.9544 16.7439 14.6668ZM24.0389 22.4733C23.9807 22.7153 23.7694 22.9062 23.4922 22.9163C23.2759 22.9242 23.059 22.9195 22.8427 22.9198C20.7311 22.921 18.6198 22.9204 16.5081 22.9254C16.3604 22.9257 16.3125 22.8808 16.3155 22.7316C16.3243 22.2641 16.3214 21.7966 16.319 21.3289C16.3175 21.0192 16.4387 20.763 16.658 20.5544C17.4921 19.7609 17.8987 19.3532 18.5675 18.75C18.9256 18.4271 19.23 18.1372 19.274 18.0952C19.6023 17.7823 19.6576 17.7173 20.0352 17.3559C20.7228 16.6981 20.6404 16.8178 20.7553 16.6795C20.9823 16.4059 21.2866 16.2058 21.5284 15.9455C21.539 15.9342 21.5742 15.8958 21.6073 15.9032C21.625 15.9073 21.6409 15.9257 21.6551 15.965C21.755 16.2421 21.8841 16.5084 21.9648 16.793L22.0806 17.0929C22.1191 17.1913 22.1575 17.2897 22.1956 17.3881C22.4819 18.1186 22.7686 18.8484 23.0316 19.5881C23.0729 19.7048 23.1164 19.8206 23.1613 19.9362C23.2833 20.2515 23.4083 20.5869 23.5702 20.9545C23.6051 21.0337 23.8737 21.6421 24.0227 22.1438C24.0392 22.1997 24.0747 22.3253 24.0389 22.473V22.4733Z" fill="#110F23"/>
</g>
<g clip-path="url(#clip1_13590_84)">
<path fill-rule="evenodd" clip-rule="evenodd" d="M16 29C23.1797 29 29 23.1797 29 16C29 8.8203 23.1797 3 16 3C8.82029 3 2.99999 8.8203 2.99999 16C2.99999 23.1797 8.82029 29 16 29ZM15.617 6.95898V13.3081C15.617 13.5698 15.3014 13.7026 15.1147 13.5188L12.1384 10.5945L13.3858 7.33752C13.4727 7.10978 13.6914 6.95898 13.9361 6.95898H15.616H15.617ZM15.617 19.1709V15.6044L15.618 15.6034C15.618 15.2918 15.4921 14.9921 15.2694 14.7734L11.9046 11.4675L10.5513 14.9991L15.1636 19.3667C15.3343 19.5285 15.617 19.4066 15.617 19.1709ZM15.617 21.3556V22.9546H8.46487C8.05139 22.9546 7.76674 22.5401 7.91456 22.1546L10.3166 15.8894L15.2894 20.5976C15.4981 20.7953 15.616 21.069 15.616 21.3566L15.617 21.3556ZM16.3801 13.3081V6.95898H16.3811H18.0611C18.3058 6.95898 18.5245 7.10978 18.6114 7.33752L19.8588 10.5945L16.8825 13.5188C16.6958 13.7026 16.3801 13.5698 16.3801 13.3081ZM16.3802 15.6044V19.1709C16.3802 19.4067 16.6629 19.5285 16.8336 19.3667L21.4459 14.9991L20.0926 11.4675L16.7278 14.7734C16.505 14.9921 16.3792 15.2918 16.3792 15.6034L16.3802 15.6044ZM16.3802 22.9546V21.3556L16.3812 21.3566C16.3812 21.069 16.4991 20.7953 16.7078 20.5975L21.6806 15.8894L24.0826 22.1546C24.2304 22.5401 23.9458 22.9546 23.5323 22.9546H16.3802Z" fill="#110F23"/>
</g>
<defs>
<clipPath id="clip0_13590_84">
<rect width="26" height="26.0021" fill="white" transform="translate(2.935 2.96875)"/>
</clipPath>
<clipPath id="clip1_13590_84">
<rect width="26" height="26" fill="white" transform="translate(3 3)"/>
</clipPath>
</defs>
</svg>
