<svg width="32" height="32" viewBox="0 0 32 32" fill="none" xmlns="http://www.w3.org/2000/svg">
<path d="M20.8927 18.47C20.9227 16.415 18.8052 14.97 16.0727 14.685C14.4677 14.5225 13.5952 14.065 13.5952 13.005C13.5952 11.9925 14.6252 11.24 15.7727 11.3025C17.8577 11.42 18.1602 12.71 18.1602 13.4975C18.1602 13.4975 20.4302 13.5225 20.4302 13.4975C20.4302 11.58 19.3252 9.8925 17.0677 9.395V7.125H14.8177V9.315C12.4852 9.685 11.1927 11.565 11.1702 13.165C11.1377 15.2825 12.9077 16.46 15.8452 16.885C17.6702 17.135 18.4827 17.8325 18.4652 18.7575C18.4502 19.7575 17.7977 20.715 15.9177 20.715C14.1327 20.715 13.4002 19.6125 13.4002 18.45H10.9502C10.9502 20.535 12.0652 22.065 14.8052 22.42V24.605H17.0552V22.4425C20.2352 22.04 20.8727 19.65 20.8927 18.47Z" fill="#110F23"/>
<path d="M5.10286 16C5.10291 13.7172 5.81988 11.492 7.15256 9.63854C8.48524 7.78507 10.3663 6.39693 12.5304 5.67002V3.27252C9.73839 4.03409 7.27431 5.69259 5.51773 7.99248C3.76116 10.2924 2.80957 13.1061 2.80957 16C2.80957 18.894 3.76116 21.7077 5.51773 24.0076C7.27431 26.3075 9.73839 27.966 12.5304 28.7275V26.33C10.3663 25.6031 8.48524 24.215 7.15256 22.3615C5.81988 20.508 5.10291 18.2829 5.10286 16V16Z" fill="#110F23"/>
<path d="M19.3428 3.23499V5.62499C21.537 6.33352 23.4501 7.71947 24.807 9.58364C26.164 11.4478 26.8951 13.6942 26.8951 16C26.8951 18.3058 26.164 20.5522 24.807 22.4163C23.4501 24.2805 21.537 25.6665 19.3428 26.375V28.765C22.1639 28.0244 24.6602 26.3702 26.4417 24.0607C28.2231 21.7512 29.1893 18.9167 29.1893 16C29.1893 13.0833 28.2231 10.2487 26.4417 7.93928C24.6602 5.62982 22.1639 3.97556 19.3428 3.23499V3.23499Z" fill="#110F23"/>
</svg>
