<svg width="32" height="32" viewBox="0 0 32 32" fill="none" xmlns="http://www.w3.org/2000/svg">
<path d="M6.91012 8.14621C7.05913 7.95951 7.21711 7.77819 7.37509 7.59867C7.38227 7.58969 7.39843 7.5879 7.40561 7.57892C7.41997 7.56097 7.44331 7.5502 7.45767 7.53224L7.47203 7.51429C7.58154 7.41196 7.70003 7.30245 7.83468 7.2055C8.31221 6.84287 8.80769 6.5664 9.3319 6.38508C11.0087 5.79624 12.8757 6.15888 14.3406 7.54122C16.3854 9.45853 16.2023 12.5446 14.5704 14.5965C12.5077 17.6556 8.96388 21.9229 13.8702 25.7467C14.7535 26.4343 15.407 27.0016 18.186 27.8041C16.3674 28.1398 14.6835 28.0357 12.8075 27.5564C11.4808 26.8078 9.39473 25.2046 8.68382 23.0377C7.61027 19.7525 10.5724 14.8425 12.0033 12.9521C13.969 10.3346 10.7878 7.50172 8.44685 10.6649C7.2225 12.313 5.08257 16.9788 5.8258 20.4382C6.26025 22.4004 6.84011 23.8312 9.13981 25.7952C8.71434 25.5439 8.29964 25.2584 7.89751 24.9389C2.55667 19.9625 3.17782 12.2699 6.91012 8.14621Z" fill="#110F23"/>
<path d="M25.0922 23.8538C24.9432 24.0405 24.7852 24.2218 24.6273 24.4013C24.6201 24.4103 24.6039 24.4121 24.5967 24.4211C24.5824 24.439 24.559 24.4498 24.5447 24.4678L24.5303 24.4857C24.4208 24.5881 24.3023 24.6976 24.1677 24.7945C23.6901 25.1572 23.1928 25.4336 22.6704 25.6149C20.9937 26.2038 19.1267 25.8411 17.6617 24.4588C15.617 22.5414 15.8001 19.4555 17.4319 17.4035C19.4947 14.3444 23.0385 10.0771 18.1303 6.25327C17.2488 5.5657 16.5936 4.9984 13.8146 4.19593C15.6331 3.86022 17.317 3.96434 19.1931 4.44367C20.5198 5.19229 22.6058 6.79723 23.3167 8.96229C24.3903 12.2476 21.4282 17.1575 19.9974 19.048C18.0316 21.6654 21.2128 24.4983 23.5537 21.3351C24.7781 19.6871 26.918 15.0212 26.1748 11.5618C25.7403 9.5996 25.1605 8.16879 22.8607 6.2048C23.2862 6.45614 23.7009 6.74158 24.103 7.06113C29.4439 12.0358 28.8246 19.7302 25.0922 23.8538Z" fill="#110F23"/>
</svg>
