<svg width="32" height="32" viewBox="0 0 32 32" fill="none" xmlns="http://www.w3.org/2000/svg">
<path d="M27.5949 9.53509L18.8115 24.7487C18.5459 25.2075 18.1644 25.5884 17.7051 25.8533C17.2458 26.118 16.725 26.2574 16.1949 26.2574C15.6648 26.2574 15.1439 26.118 14.6847 25.8533C14.2254 25.5884 13.8438 25.2075 13.5782 24.7487L12.0385 22.0838C12.0335 22.0771 12.0314 22.0688 12.0326 22.0607C12.0337 22.0525 12.0381 22.0451 12.0447 22.0401C12.0513 22.0352 12.0596 22.033 12.0678 22.0342C12.076 22.0354 12.0834 22.0397 12.0884 22.0463C12.363 22.3175 12.6961 22.5222 13.062 22.6449C13.428 22.7676 13.8171 22.8049 14.1997 22.7541C14.5824 22.7033 14.9483 22.5656 15.2695 22.3516C15.5907 22.1376 15.8587 21.8531 16.053 21.5196L23.4058 8.77145C23.5997 8.43488 23.7135 8.05821 23.7384 7.67061C23.7633 7.28301 23.6986 6.89487 23.5495 6.53626C23.4003 6.17764 23.1706 5.85817 22.8781 5.60258C22.5857 5.34699 22.2383 5.16214 21.863 5.06234C21.8547 5.06234 21.8468 5.05906 21.8409 5.05321C21.8351 5.04737 21.8318 5.03944 21.8318 5.03117C21.8318 5.0229 21.8351 5.01498 21.8409 5.00913C21.8468 5.00329 21.8547 5 21.863 5H24.9799C25.5103 5.00057 26.0313 5.14069 26.4904 5.40628C26.9496 5.67187 27.3308 6.05359 27.5957 6.51311C27.8607 6.97262 28.0001 7.49377 28 8.02421C27.9999 8.55465 27.8602 9.07572 27.5949 9.53509ZM17.1969 5H14.1517C14.1455 5.00205 14.1401 5.00602 14.1362 5.01133C14.1324 5.01665 14.1303 5.02305 14.1303 5.02961C14.1303 5.03618 14.1324 5.04257 14.1362 5.04789C14.1401 5.05321 14.1455 5.05717 14.1517 5.05922C14.3569 5.13844 14.5424 5.26102 14.6958 5.41856C14.8492 5.57611 14.9667 5.76491 15.0404 5.97207C15.1141 6.17922 15.1422 6.39985 15.1228 6.61886C15.1033 6.83787 15.0369 7.0501 14.9279 7.24106L10.4894 14.918C10.3747 15.1127 10.2184 15.2795 10.0316 15.4066C9.84475 15.5337 9.63211 15.6178 9.40893 15.653C9.18575 15.6881 8.95755 15.6734 8.74072 15.61C8.52389 15.5465 8.3238 15.4357 8.15483 15.2858C8.14987 15.2792 8.14249 15.2748 8.1343 15.2736C8.12612 15.2724 8.11781 15.2746 8.11119 15.2796C8.10458 15.2845 8.10021 15.2919 8.09904 15.3001C8.09787 15.3083 8.1 15.3166 8.10496 15.3232L9.66341 18.0286C9.83839 18.3322 10.0903 18.5844 10.3937 18.7597C10.6971 18.9351 11.0413 19.0274 11.3917 19.0274C11.7421 19.0274 12.0864 18.9351 12.3898 18.7597C12.6932 18.5844 12.9451 18.3322 13.1201 18.0286L18.9269 7.99223C19.102 7.68881 19.1942 7.3446 19.1941 6.99424C19.194 6.64388 19.1016 6.29972 18.9263 5.99641C18.7509 5.69309 18.4988 5.4413 18.1952 5.26639C17.8916 5.09147 17.5473 4.99959 17.1969 5ZM6.62755 5C6.10787 5 5.59986 5.1541 5.16776 5.44282C4.73566 5.73154 4.39888 6.14191 4.20001 6.62203C4.00114 7.10215 3.9491 7.63046 4.05049 8.14016C4.15187 8.64986 4.40212 9.11804 4.76959 9.48551C5.13706 9.85298 5.60525 10.1032 6.11494 10.2046C6.62464 10.306 7.15295 10.254 7.63307 10.0551C8.11319 9.85621 8.52355 9.51943 8.81228 9.08734C9.10099 8.65524 9.2551 8.14723 9.2551 7.62755C9.25551 7.28238 9.18782 6.94052 9.05592 6.62155C8.92402 6.30257 8.73049 6.01275 8.48642 5.76868C8.24235 5.52461 7.95253 5.33108 7.63355 5.19918C7.31458 5.06727 6.97272 4.99959 6.62755 5Z" fill="#110F23"/>
</svg>
