<svg width="32" height="32" viewBox="0 0 32 32" fill="none" xmlns="http://www.w3.org/2000/svg">
<path d="M15.8403 3.00024C8.66065 3.09118 2.91436 8.98036 3.00097 16.16C3.08757 23.3396 8.98109 29.0859 16.1607 28.9949C23.2754 28.9083 28.9957 23.1144 29 15.9954C28.9524 8.77684 23.0632 2.95694 15.8403 3.00024ZM8.50476 16.0344C8.5394 15.3849 8.38351 14.7396 8.05008 14.181H18.6593C19.0577 14.181 19.3824 14.5015 19.3868 14.9042V17.1733C19.3868 17.5717 19.062 17.8964 18.6593 17.8964H8.05008C8.38351 17.3378 8.54373 16.6926 8.50909 16.0431L8.50476 16.0344ZM21.4956 22.7334H10.8864C10.488 22.7334 10.1633 22.4129 10.1589 22.0102V19.7411C10.1589 19.3427 10.4837 19.018 10.8864 19.018H21.4956C21.1622 19.5766 21.0063 20.2218 21.0409 20.8713C21.0063 21.5209 21.1622 22.1661 21.4956 22.7247V22.7334ZM21.4956 13.0465H10.8864C10.488 13.0465 10.1633 12.7261 10.1589 12.3233V10.0543C10.1589 9.65589 10.4837 9.33112 10.8864 9.33112H21.4956C21.1622 9.88972 21.0063 10.5349 21.0409 11.1845C21.0063 11.834 21.1622 12.4792 21.4956 13.0378V13.0465Z" fill="#110F23"/>
</svg>
