<svg width="32" height="32" viewBox="0 0 32 32" fill="none" xmlns="http://www.w3.org/2000/svg">
<path d="M19.2857 15.6904L28.5444 4H23.0761C21.9465 4.01133 20.9685 4.54248 20.141 5.59345L15.5456 11.4298L10.9503 5.59345C10.1114 4.53115 9.13279 4 8.0151 4H4.40906C3.79358 4 3.48647 4.25739 3.48647 4.77155C3.48647 5.02895 3.60352 5.30271 3.83889 5.59345L11.8055 15.6904L3.35242 26.4751C3.11768 26.7766 3 27.051 3 27.297C3.06734 27.8005 3.38011 28.0516 3.93958 28.0516H7.51227C8.63059 28.0516 9.60289 27.5261 10.4305 26.4751L15.5463 19.9509L20.6621 26.4751C21.489 27.5261 22.4619 28.0516 23.5802 28.0516H29L19.2863 15.6904H19.2857Z" fill="#110F23"/>
<path d="M25.8005 9.61422L21.0006 15.7105L25.8005 21.8074V9.61422Z" fill="#110F23"/>
</svg>
