<svg width="32" height="32" viewBox="0 0 32 32" fill="none" xmlns="http://www.w3.org/2000/svg">
<path d="M8.29427 7.57589H14.2564V4.10509H6.04593C5.88537 4.10508 5.72637 4.1367 5.57803 4.19814C5.42968 4.25958 5.29489 4.34965 5.18136 4.46318C5.06782 4.57672 4.97776 4.71151 4.91631 4.85985C4.85487 5.0082 4.82325 5.16719 4.82326 5.32776V7.57589H4.82445L4.82406 14.5963H3V18.0671H4.82366L4.82326 27.4935C4.82324 27.654 4.85484 27.813 4.91628 27.9614C4.97772 28.1097 5.06778 28.2445 5.18132 28.3581C5.29486 28.4716 5.42965 28.5617 5.57801 28.6231C5.72636 28.6846 5.88536 28.7162 6.04593 28.7161H14.2564V25.2455H8.29347L8.29427 7.57589Z" fill="#110F23"/>
<path d="M29 18.0671V14.5963H27.1831L27.1835 5.22267C27.1835 5.0621 27.1519 4.9031 27.0905 4.75475C27.0291 4.60639 26.939 4.4716 26.8255 4.35806C26.7119 4.24451 26.5771 4.15445 26.4288 4.09302C26.2804 4.03158 26.1214 3.99997 25.9608 4H17.7508V7.4706H23.7133L23.7121 25.1402H17.7508V28.611H25.9608C26.1214 28.6111 26.2804 28.5794 26.4287 28.518C26.5771 28.4565 26.7119 28.3665 26.8254 28.253C26.9389 28.1394 27.029 28.0046 27.0905 27.8563C27.1519 27.7079 27.1835 27.5489 27.1835 27.3884V25.1402H27.1823L27.1827 18.0671H29Z" fill="#110F23"/>
<path d="M21.057 16.2267C21.057 15.2178 20.7579 14.2316 20.1974 13.3927C19.6369 12.5538 18.8402 11.8999 17.9081 11.5138C16.976 11.1277 15.9504 11.0267 14.9608 11.2235C13.9713 11.4203 13.0624 11.9062 12.349 12.6196C11.6356 13.333 11.1497 14.2419 10.9529 15.2314C10.7561 16.2209 10.8571 17.2466 11.2432 18.1787C11.6294 19.1108 12.2832 19.9075 13.1221 20.468C13.961 21.0285 14.9472 21.3276 15.9561 21.3276C17.3085 21.326 18.605 20.7881 19.5613 19.8318C20.5175 18.8756 21.0554 17.5791 21.057 16.2267ZM15.9561 18.0671C15.5922 18.0671 15.2363 17.9592 14.9337 17.7569C14.631 17.5547 14.3952 17.2673 14.2559 16.931C14.1166 16.5947 14.0801 16.2247 14.1511 15.8677C14.2221 15.5107 14.3974 15.1828 14.6548 14.9254C14.9122 14.668 15.2401 14.4927 15.5971 14.4217C15.9541 14.3507 16.3241 14.3872 16.6604 14.5264C16.9967 14.6657 17.2841 14.9016 17.4864 15.2043C17.6886 15.5069 17.7965 15.8627 17.7965 16.2267C17.7959 16.7146 17.6018 17.1824 17.2568 17.5274C16.9118 17.8724 16.4441 18.0665 15.9561 18.0671Z" fill="#110F23"/>
</svg>
