<svg width="32" height="32" viewBox="0 0 32 32" fill="none" xmlns="http://www.w3.org/2000/svg">
<path d="M18.0525 28V18.136C20.4045 18.388 22.0005 19.468 22.0005 19.468L23.5005 17.776C21.0405 16.024 17.3925 15.952 17.3925 15.952L16.7925 9.328C17.1885 9.064 17.4525 8.62 17.4525 8.104C17.4525 7.3 16.7925 6.64 15.9885 6.64C15.1845 6.64 14.5245 7.3 14.5245 8.104C14.5245 8.62 14.7885 9.076 15.1845 9.328L14.5845 15.952C14.5845 15.952 10.9365 16.012 8.47653 17.776L9.97653 19.468C9.97653 19.468 11.5725 18.388 13.9245 18.136V28C4.73253 21.184 3.97653 11.284 4.00053 7.996C4.00053 7.312 4.40853 6.688 5.03253 6.412C6.86853 5.596 11.0565 4 15.9765 4C20.8965 4 25.0845 5.596 26.9205 6.412C27.5445 6.688 27.9525 7.312 27.9525 7.996C27.9765 11.284 27.2205 21.184 18.0525 28Z" fill="#110F23"/>
</svg>
