<svg width="32" height="32" viewBox="0 0 32 32" fill="none" xmlns="http://www.w3.org/2000/svg">
<path d="M28.9844 17.846C28.9844 17.846 28.9844 17.8424 28.9858 17.8403C28.9879 17.8339 28.9879 17.8275 28.9894 17.8219C28.995 17.7992 28.9986 17.7757 29 17.753C29 17.7445 29 17.7353 29 17.7268C29 17.7041 28.9972 17.6821 28.9929 17.6608C28.9922 17.6558 28.9929 17.6509 28.9915 17.6452L28.0726 13.7921C28.0392 13.653 27.9307 13.5445 27.7916 13.5111L23.974 12.5922C23.9676 12.5908 23.9612 12.5915 23.9548 12.5901C23.9357 12.5865 23.9158 12.5844 23.8966 12.5837C23.8867 12.5837 23.8775 12.583 23.8676 12.5837C23.8448 12.5844 23.8221 12.5879 23.8001 12.5936C23.7945 12.595 23.7881 12.595 23.7824 12.5972C23.7803 12.5972 23.7781 12.5972 23.776 12.5986C23.7491 12.6064 23.7242 12.6178 23.7001 12.6312C23.6958 12.6334 23.693 12.6362 23.6887 12.639C23.6674 12.6518 23.6476 12.6667 23.6291 12.6837C23.6263 12.6866 23.6227 12.688 23.6199 12.6901L19.0012 17.1754C18.9593 17.1932 18.9189 17.2152 18.8855 17.2478C18.8501 17.2819 18.8245 17.323 18.8054 17.3663L17.1492 18.9749L16.2253 15.8024C16.2225 15.7924 16.2168 15.7839 16.2125 15.774C16.2083 15.7634 16.204 15.7534 16.1983 15.7428C16.1785 15.7023 16.1543 15.6654 16.1231 15.6349C16.1231 15.6349 16.1231 15.6349 16.1231 15.6342C16.1231 15.6342 16.1231 15.6342 16.1224 15.6342C16.0905 15.6037 16.0514 15.5817 16.0103 15.564C15.9996 15.5597 15.9897 15.5554 15.9784 15.5519C15.9684 15.5483 15.9592 15.5434 15.9493 15.5405L12.8633 14.7983L19.3893 8.30062L18.3931 3.94943L14.1845 3L3 14.1363L3.94517 18.3377L7.76985 19.329L8.70437 23.0231C8.74056 23.1651 8.85481 23.2736 8.99814 23.3027L12.5404 24.0109L13.5849 27.7341C13.5878 27.7433 13.5927 27.7504 13.5956 27.7589C13.5991 27.7696 13.6041 27.7788 13.6083 27.7894C13.6261 27.8285 13.6488 27.8647 13.6786 27.8952C13.68 27.8966 13.6807 27.8987 13.6821 27.9001C13.6821 27.9001 13.6828 27.9001 13.6836 27.9009C13.7148 27.9321 13.7531 27.9555 13.7935 27.9739C13.8042 27.9789 13.8148 27.9832 13.8255 27.9867C13.8361 27.9903 13.8453 27.9966 13.8567 27.9995L17.604 28.9539C17.6345 28.9617 17.6665 28.9659 17.697 28.9659C17.7296 28.9659 17.7608 28.9603 17.7921 28.9525C17.7956 28.9517 17.7999 28.9525 17.8034 28.951C17.8098 28.9496 17.8148 28.9461 17.8204 28.9439C17.8332 28.9397 17.846 28.9347 17.8581 28.929C17.8694 28.9241 17.8801 28.9184 17.89 28.912C17.9006 28.9056 17.9106 28.8992 17.9205 28.8914C17.9311 28.8836 17.9411 28.8758 17.9503 28.8673C17.9546 28.8631 17.9602 28.8602 17.9645 28.856L28.8879 18.0035C28.8879 18.0035 28.8929 17.9971 28.8957 17.9936C28.912 17.9758 28.9269 17.9567 28.9404 17.9361C28.9432 17.9311 28.9468 17.9276 28.9496 17.9226C28.9631 17.8992 28.9752 17.8737 28.9837 17.8467L28.9844 17.846ZM24.0215 21.7686L23.2878 18.833L25.0873 17.0335L27.9065 17.9091L24.0222 21.7686H24.0215ZM17.8836 27.8661L17.0626 25.0575L20.348 21.7721L23.109 22.6747L17.8843 27.8661H17.8836ZM13.3976 24.2521L15.9954 25.0504L14.1419 26.9039L13.3976 24.2521ZM18.9537 18.2803L19.7441 21.3017L16.6035 24.4423L13.5686 23.5099L18.9529 18.2803H18.9537ZM23.7008 13.6694L24.5509 16.4942L22.7805 18.2646L19.901 17.3592L23.7008 13.6687V13.6694ZM23.2786 21.9311L20.9504 21.1697L22.6605 19.4596L23.2786 21.9311ZM20.3672 20.6787L19.6895 18.0901L22.1745 18.8713L20.3664 20.6794L20.3672 20.6787ZM16.4495 25.6706L17.1463 28.0534L14.6919 27.4283L16.4495 25.6706ZM28.0974 17.1726L25.2867 16.2991L24.4402 13.4856L27.3878 14.1952L28.0981 17.1726H28.0974ZM13.0556 22.9486L12.3666 20.1195L13.4175 19.0182L16.265 19.8321L13.0556 22.9486ZM13.4728 17.8588L12.71 15.5405L15.129 16.1224L13.4728 17.8588ZM14.01 18.3973L15.6796 16.6468L16.3871 19.0764L14.01 18.3973ZM12.8782 18.4825L11.8266 19.5845L8.825 18.816L11.9607 15.6938L12.8782 18.4825ZM9.35861 8.87751L10.1612 11.5413L6.86016 14.8714L4.14031 14.0738L9.35861 8.87822V8.87751ZM14.8239 6.83887L13.0918 8.58587L10.2853 7.95434L14.1065 4.14953L14.8239 6.83887ZM14.4464 12.1459L13.7091 9.04285L15.3511 7.38667L18.2632 8.34532L14.4456 12.1466L14.4464 12.1459ZM10.77 10.9275L10.0959 8.69089L12.4602 9.22308L10.77 10.9282V10.9275ZM13.079 9.67793L13.6843 12.2253L11.3157 11.4562L13.079 9.67722V9.67793ZM6.77855 16.0323L7.5222 18.4797L5.00033 17.8254L6.77855 16.0316V16.0323ZM7.38667 15.4192L10.7161 12.0614L13.5927 12.9953L8.2623 18.3023L7.38596 15.4192H7.38667ZM18.4506 7.60593L15.5618 6.65509L14.8338 3.9253L17.7587 4.58309L18.4506 7.60593ZM3.92885 14.804L6.25133 15.4852L4.48375 17.2684L3.92956 14.804H3.92885ZM9.38274 22.6045L8.60858 19.5447L11.6328 20.3189L12.3332 23.1942L9.38274 22.6038V22.6045Z" fill="#100E21"/>
</svg>
