<svg width="32" height="32" viewBox="0 0 32 32" fill="none" xmlns="http://www.w3.org/2000/svg">
<path fill-rule="evenodd" clip-rule="evenodd" d="M27.1704 9.50001L16 3L4.82963 9.50001V22.5L16 29L27.1704 22.5V9.50001ZM25.7741 10.3125L16 4.625L6.22594 10.3125V21.6875L16 27.3751L25.7741 21.6875V10.3125Z" fill="#110F23"/>
<path fill-rule="evenodd" clip-rule="evenodd" d="M16.0029 7.46875L23.3335 11.7344V20.2656L16.0029 24.5312L8.67237 20.2656V11.7344L16.0029 7.46875ZM16.3895 11.8414L16.0061 12.36L15.6228 11.8414L16.0061 11.558L16.3895 11.8414ZM16.0061 13.199C15.767 13.4134 15.4492 13.7234 15.1327 14.1062C14.5183 14.8493 13.9706 15.7919 13.9148 16.7968C14.1616 16.6409 14.9519 16.2533 15.9997 16.8531C17.0727 17.4673 17.8756 17.0461 18.1014 16.8986C18.0786 15.8556 17.5147 14.8743 16.8796 14.1062C16.5631 13.7234 16.2453 13.4134 16.0061 13.199ZM15.6225 11.8416C15.6226 11.8415 15.6228 11.8414 16.0061 12.36C16.3895 11.8414 16.3896 11.8415 16.3898 11.8416L16.3902 11.8419L16.3912 11.8427L16.3939 11.8447C16.3961 11.8463 16.3989 11.8484 16.4024 11.851C16.4093 11.8562 16.4187 11.8634 16.4305 11.8725C16.4542 11.8907 16.4874 11.9167 16.5287 11.95C16.6114 12.0167 16.7271 12.1131 16.8648 12.2365C17.1393 12.4825 17.5058 12.8393 17.8736 13.2843C18.5957 14.1575 19.392 15.4532 19.392 16.9642C19.392 18.8412 17.8808 20.3716 16.0061 20.3716C14.1315 20.3716 12.6203 18.8412 12.6203 16.9642C12.6203 15.4532 13.4166 14.1575 14.1386 13.2843C14.5065 12.8393 14.873 12.4825 15.1475 12.2365C15.2852 12.1131 15.4009 12.0167 15.4836 11.95C15.5249 11.9167 15.5581 11.8907 15.5818 11.8725C15.5936 11.8634 15.603 11.8562 15.6099 11.851C15.6134 11.8484 15.6162 11.8463 15.6183 11.8447L15.6211 11.8427L15.6221 11.8419L15.6225 11.8416Z" fill="#110F23"/>
</svg>
