<svg width="32" height="32" viewBox="0 0 32 32" fill="none" xmlns="http://www.w3.org/2000/svg">
<path d="M23.2665 24.7774L25.6633 25.9505C26.3676 26.2952 27.2204 25.9889 27.493 25.2537C28.1931 23.3649 28.7405 21.1278 28.929 18.8264C29.1497 16.1333 28.877 13.3798 27.8094 10.9971L27.8079 10.9978C27.7605 10.8951 27.7123 10.7928 27.6633 10.6907C27.2959 9.98494 26.6079 9.11935 25.5947 8.54662C24.4527 7.90107 22.8662 7.60891 20.7842 8.38998C20.3426 8.55568 19.893 8.76981 19.442 9.02525C20.0084 9.99038 20.4142 11.292 20.4464 13.0083C20.4755 14.5595 20.2242 16.0284 19.8393 17.3372L23.487 18.6936C24.3496 19.0144 24.916 19.868 24.7437 20.7721C24.5367 21.8589 24.1896 22.9169 23.7131 23.9222C23.5781 24.2073 23.4295 24.4934 23.2665 24.7774Z" fill="#110F23"/>
<path d="M10.8965 23.749C11.2081 23.6551 11.5372 23.5192 11.8825 23.3302C13.345 22.5299 14.451 21.2232 15.2373 19.9412C15.747 19.1101 16.1303 18.2764 16.3939 17.5723C16.5127 17.2547 16.8638 17.082 17.1816 17.2002L23.0868 19.3961C23.6815 19.6173 24.0565 20.2158 23.9226 20.836C23.7461 21.6534 23.4491 22.6146 22.9909 23.5814C22.2398 25.1662 21.0694 26.7384 19.3182 27.7322C17.8711 28.5533 16.3911 28.9769 15.0077 29.0405C13.5003 28.7851 12.5114 28.1298 11.8814 27.2547C11.2144 26.3281 10.9178 25.1105 10.8965 23.749Z" fill="#110F23"/>
<path d="M14.5562 3.11658C18.2806 2.68006 21.0479 3.50535 23.1485 4.99088C24.2645 5.7802 25.2019 6.76268 25.9968 7.8582L25.9883 7.85335C24.6324 7.08696 22.7982 6.78322 20.5033 7.64417C17.4226 8.79997 14.1016 12.0569 12.3334 15.3783C11.1865 17.5326 10.0556 20.8361 10.0983 23.7517C10.1198 25.2131 10.4368 26.6139 11.2334 27.7204C11.5107 28.1057 11.8423 28.4499 12.2322 28.7461C9.39525 28.0392 5.82564 26.0711 3.90189 21.5345C2.22308 17.5756 3.02131 13.1932 5.19642 9.67093C7.37485 6.14327 10.8928 3.54596 14.5562 3.11658Z" fill="#110F23"/>
</svg>
