<svg width="32" height="32" viewBox="0 0 32 32" fill="none" xmlns="http://www.w3.org/2000/svg">
<g opacity="0.64">
<path opacity="0.64" d="M16.0004 28.81C13.4669 28.81 10.9902 28.0587 8.88358 26.6511C6.77699 25.2435 5.1351 23.2429 4.16554 20.9022C3.19598 18.5615 2.9423 15.9858 3.43658 13.5009C3.93085 11.016 5.15089 8.73347 6.9424 6.94196C8.73391 5.15045 11.0164 3.93042 13.5013 3.43614C15.9862 2.94186 18.5619 3.19554 20.9026 4.1651C23.2433 5.13466 25.244 6.77655 26.6516 8.88314C28.0591 10.9897 28.8104 13.4664 28.8104 16C28.8065 19.3962 27.4556 22.6522 25.0541 25.0537C22.6526 27.4551 19.3966 28.806 16.0004 28.81V28.81ZM16.0004 4.5C13.726 4.5 11.5025 5.17446 9.61138 6.4381C7.72021 7.70174 6.24623 9.49779 5.37582 11.5991C4.50541 13.7005 4.27767 16.0128 4.7214 18.2435C5.16513 20.4743 6.2604 22.5234 7.86871 24.1317C9.47701 25.74 11.5261 26.8353 13.7569 27.279C15.9877 27.7228 18.2999 27.495 20.4013 26.6246C22.5026 25.7542 24.2987 24.2802 25.5623 22.3891C26.826 20.4979 27.5004 18.2745 27.5004 16C27.5004 12.95 26.2888 10.0249 24.1322 7.86827C21.9755 5.7116 19.0504 4.5 16.0004 4.5Z" fill="#110F23"/>
</g>
<path d="M16.0004 28.81C13.4669 28.81 10.9902 28.0587 8.88358 26.6511C6.77699 25.2435 5.1351 23.2429 4.16554 20.9022C3.19598 18.5615 2.9423 15.9858 3.43658 13.5009C3.93085 11.016 5.15089 8.73347 6.9424 6.94196C8.73391 5.15045 11.0164 3.93042 13.5013 3.43614C15.9862 2.94186 18.5619 3.19554 20.9026 4.1651C23.2433 5.13466 25.244 6.77655 26.6516 8.88314C28.0591 10.9897 28.8104 13.4664 28.8104 16C28.8065 19.3962 27.4556 22.6522 25.0541 25.0537C22.6526 27.4551 19.3966 28.806 16.0004 28.81V28.81ZM16.0004 4.5C13.726 4.5 11.5025 5.17446 9.61138 6.4381C7.72021 7.70174 6.24623 9.49779 5.37582 11.5991C4.50541 13.7005 4.27767 16.0128 4.7214 18.2435C5.16513 20.4743 6.2604 22.5234 7.86871 24.1317C9.47701 25.74 11.5261 26.8353 13.7569 27.279C15.9877 27.7228 18.2999 27.495 20.4013 26.6246C22.5026 25.7542 24.2987 24.2802 25.5623 22.3891C26.826 20.4979 27.5004 18.2745 27.5004 16C27.5004 12.95 26.2888 10.0249 24.1322 7.86827C21.9755 5.7116 19.0504 4.5 16.0004 4.5Z" fill="#110F23"/>
<path d="M12.8775 23.1975C12.1664 22.5955 11.5951 21.8457 11.2035 21.0003C10.8118 20.1549 10.6093 19.2342 10.61 18.3025C10.5939 17.5232 10.7348 16.7487 11.0243 16.025C11.3138 15.3013 11.7459 14.6432 12.295 14.09C12.8672 13.509 13.5489 13.0472 14.3007 12.7313C15.0525 12.4155 15.8595 12.2519 16.675 12.25C17.2023 12.2407 17.728 12.3098 18.235 12.455L18.855 12.6725L19.355 11.455L18.66 11.205C18.011 11.0123 17.3369 10.918 16.66 10.925C15.6696 10.9278 14.6895 11.1268 13.7764 11.5104C12.8633 11.894 12.0352 12.4546 11.34 13.16C10.6678 13.8378 10.139 14.6439 9.78509 15.5305C9.43117 16.417 9.25938 17.3657 9.27997 18.32C9.30747 19.6875 9.69998 22.27 12.03 24.2C13.5675 25.48 15.6675 26.2525 18.3025 26.5175C19.4037 26.2761 20.46 25.8627 21.4325 25.2925C17.835 25.6875 14.83 24.835 12.8775 23.1975Z" fill="#110F23"/>
<path d="M8.34996 18.2225C8.34397 16.1651 9.10235 14.1787 10.478 12.6488C11.8536 11.1189 13.7485 10.1544 15.795 9.9425C16.03 9.9175 16.2725 9.9025 16.5125 9.9L16.5 8.5825C16.2225 8.5825 15.9425 8.605 15.67 8.635C13.2997 8.87979 11.1048 9.99624 9.51112 11.7678C7.91743 13.5393 7.03855 15.8396 7.04496 18.2225C7.05181 20.4791 7.83977 22.6636 9.27496 24.405C11.0583 25.8416 13.2546 26.6695 15.5425 26.7675C11.4425 25.91 8.34996 22.3775 8.34996 18.2225Z" fill="#110F23"/>
<path d="M14.527 21.69C14.0247 21.2798 13.6188 20.7642 13.338 20.1796C13.0571 19.5951 12.9083 18.956 12.902 18.3075C12.895 17.812 12.9872 17.3201 13.1731 16.8607C13.359 16.4013 13.6349 15.9837 13.9845 15.6325C14.3559 15.2548 14.8012 14.9579 15.2927 14.7603C15.7841 14.5627 16.3111 14.4687 16.8405 14.4841C17.37 14.4996 17.8905 14.6243 18.3696 14.8503C18.8486 15.0763 19.2759 15.3987 19.6245 15.7975C19.6745 15.855 19.7945 16.0025 19.842 16.0625L20.092 16.375L21.2895 15.7725L20.882 15.25C20.8245 15.1775 20.677 15 20.617 14.93C20.1497 14.3944 19.5767 13.9611 18.9341 13.6574C18.2914 13.3536 17.5929 13.1859 16.8824 13.1648C16.1719 13.1437 15.4647 13.2696 14.8051 13.5346C14.1455 13.7997 13.5479 14.1981 13.0495 14.705C12.5761 15.1801 12.2026 15.7451 11.951 16.3669C11.6994 16.9886 11.5748 17.6544 11.5845 18.325C11.5941 19.1637 11.7871 19.9901 12.1498 20.7463C12.5126 21.5025 13.0364 22.1702 13.6845 22.7025C15.312 24.0575 17.727 24.735 20.8995 24.735C21.372 24.735 21.8645 24.7175 22.372 24.6875C22.963 24.2549 23.5083 23.7632 23.9995 23.22C18.5295 23.865 15.837 22.7825 14.527 21.69Z" fill="#110F23"/>
</svg>
