<svg width="32" height="32" viewBox="0 0 32 32" fill="none" xmlns="http://www.w3.org/2000/svg">
<path d="M10.5269 14.4736V13.9014L11.4949 14.4736H13.2744L12.6623 14.1146V12.6482L13.9074 11.915L16.0292 13.1736L18.1638 11.915L19.4093 12.6482H19.4039L19.4109 14.1146L18.7988 14.4736H20.5704L21.5393 13.9006V14.4736H25.4734C25.4731 9.24137 21.2317 5 15.9998 5C10.7679 5 6.52617 9.24137 6.52617 14.4736H10.5269ZM16.0296 12.1285L14.7899 11.3953L16.0296 10.6621L17.2751 11.3953L16.0296 12.1285ZM21.5385 11.3953V12.8552L20.2926 13.5884V12.1285L19.053 11.3953L20.2926 10.6621L21.5385 11.3953ZM16.0296 8.15801L19.4039 10.1437L18.1642 10.8769L16.0296 9.61823L13.9012 10.8769L12.6615 10.1437L16.0296 8.15801ZM10.5261 11.3953L11.7658 10.6621L13.0113 11.3953L11.7658 12.1285V13.5884L10.5261 12.8552V11.3953Z" fill="#110F23"/>
<path d="M10.5269 17.8789L13.9012 19.8576V18.3912L11.7727 17.1387L11.7658 14.6338L11.4949 14.4736H10.5269L10.5269 17.8789Z" fill="#110F23"/>
<path d="M13.9012 15.8863L12.6615 15.1531V16.6195L13.9012 17.3461V15.8863Z" fill="#110F23"/>
<path d="M20.2996 14.6338L20.2926 17.1387L18.165 18.3904V19.8572L21.5393 17.8781L21.5393 14.4736H20.5704L20.2996 14.6338Z" fill="#110F23"/>
<path d="M17.2755 20.376V18.9166L16.0296 19.6498L14.7899 18.9166V20.376L16.0296 21.1096L17.2755 20.376Z" fill="#110F23"/>
<path d="M19.4039 15.1531L18.1642 15.8863V17.3461L19.4039 16.6195V15.1531Z" fill="#110F23"/>
<path d="M13.2744 14.4736L14.7969 15.367V17.8781L16.0366 18.6044L17.2762 17.8781V15.367L18.7988 14.4736H13.2744Z" fill="#110F23"/>
<path d="M25.4731 14.4736C25.4731 14.488 25.4719 14.5023 25.4719 14.5166C25.4711 14.6597 25.468 14.8025 25.4611 14.9453C25.4549 15.0683 25.4448 15.191 25.434 15.3136C25.4313 15.345 25.4301 15.3763 25.427 15.4073C25.2556 17.1569 24.6087 18.7665 23.617 20.1056C23.6143 20.1095 23.6116 20.1133 23.6085 20.1172C23.5269 20.2275 23.4417 20.335 23.3551 20.4418C23.3435 20.4561 23.3326 20.4712 23.321 20.4851C23.2386 20.5857 23.1527 20.6836 23.066 20.7808C23.0494 20.7993 23.0339 20.8187 23.0173 20.8369C22.9136 20.951 22.8076 21.0628 22.6981 21.1719C22.589 21.281 22.4776 21.3871 22.3638 21.4904C22.3406 21.5113 22.3162 21.531 22.293 21.5519C22.2005 21.6339 22.108 21.7155 22.0125 21.7937C21.9939 21.8088 21.9746 21.8231 21.9556 21.8382C21.8531 21.921 21.7501 22.0026 21.6445 22.0812C21.6368 22.087 21.6287 22.0924 21.6209 22.0982C20.2841 23.0852 18.6792 23.7294 16.935 23.9005C16.8932 23.9047 16.851 23.9063 16.8092 23.9101C16.6974 23.9198 16.5852 23.9295 16.473 23.9349C16.3155 23.9426 16.1581 23.9469 15.9998 23.9469C15.8416 23.9469 15.6841 23.9426 15.5266 23.9349C15.4144 23.9291 15.3022 23.9198 15.1904 23.9101C15.1486 23.9066 15.1064 23.9047 15.0646 23.9005C13.32 23.7294 11.7147 23.0848 10.3775 22.0974C10.3702 22.092 10.3624 22.087 10.3547 22.0812C10.2491 22.0026 10.1458 21.921 10.0432 21.8382C10.0247 21.8231 10.0053 21.8092 9.98675 21.7937C9.89273 21.7163 9.80103 21.6358 9.7101 21.555C9.68534 21.5329 9.6598 21.5124 9.63543 21.4904C9.52593 21.3913 9.41914 21.2892 9.31429 21.1847C9.31003 21.1804 9.30539 21.1766 9.30113 21.1723C9.29688 21.1681 9.29301 21.1638 9.28875 21.1595C9.18429 21.0547 9.08214 20.9475 8.9827 20.838C8.96142 20.8148 8.94169 20.79 8.92079 20.7664C8.83877 20.6744 8.75752 20.5815 8.67936 20.4863C8.66504 20.4689 8.65189 20.4507 8.63796 20.4337C8.554 20.33 8.4712 20.2255 8.39188 20.1184C8.38724 20.1118 8.3826 20.1052 8.37795 20.099C7.389 18.7614 6.74401 17.1546 6.57299 15.4084C6.56951 15.3724 6.56796 15.3365 6.56486 15.3009C6.55442 15.1829 6.54475 15.0648 6.53855 14.9464C6.53082 14.7894 6.52656 14.6319 6.52656 14.474H4C4 16.0499 4.31031 17.6104 4.91351 19.0663C5.51671 20.5223 6.40043 21.8452 7.51474 22.9595C8.62906 24.0738 9.95193 24.9575 11.4079 25.5607C12.8639 26.1639 14.4243 26.4742 15.9998 26.4742C17.5753 26.4742 19.1361 26.1639 20.5921 25.5607C22.0481 24.9579 23.3709 24.0738 24.4853 22.9595C25.5996 21.8452 26.4833 20.5223 27.0865 19.0663C27.6893 17.6104 28 16.0499 28 14.474H25.4738L25.4731 14.4736Z" fill="#110F23"/>
</svg>
