<svg width="32" height="32" viewBox="0 0 32 32" fill="none" xmlns="http://www.w3.org/2000/svg">
<path d="M23.3241 9C21.7959 9 20.1144 9.83539 18.3257 11.4834C17.5048 12.2362 16.7895 13.0457 16.2981 13.639C16.5569 13.9329 17.1682 14.6269 17.8438 15.3845C18.3432 14.7746 19.0426 13.9628 19.8508 13.2209C21.1949 11.9745 22.3611 11.3427 23.3154 11.3427C25.732 11.3427 27.6977 13.3561 27.6977 15.8301C27.6977 17.9032 26.2901 19.6636 24.3927 20.1705C24.5896 20.2042 24.7865 20.2255 24.9818 20.231C28.8258 20.3418 29.8095 17.4215 29.8166 17.3916L29.8245 17.3932C29.9405 16.8666 30 16.3456 30 15.845C29.9921 12.0712 26.9975 9 23.3233 9L23.3241 9Z" fill="#110F23"/>
<path d="M12.1492 18.4384C10.4574 19.9905 9.33085 20.3166 8.68462 20.3166C6.268 20.3166 4.3023 18.3032 4.3023 15.8293C4.3023 13.7239 5.75434 11.9415 7.69622 11.4661C7.46996 11.4229 7.2429 11.3954 7.01823 11.3883C3.36392 11.2987 2.31994 13.9086 2.21435 14.2017C2.21435 14.1986 2.21435 14.1962 2.21435 14.1939H2.19212C2.18736 14.2104 2.18498 14.2206 2.18498 14.2222C2.06272 14.7644 2 15.2996 2 15.8136C2 19.5881 4.99538 22.6585 8.67668 22.6585C10.2049 22.6585 11.8864 21.8231 13.6751 20.1752C14.4999 19.4184 15.2184 18.605 15.7098 18.0109C15.4502 17.7162 14.8389 17.0222 14.1641 16.2654C13.6647 16.8761 12.9621 17.6926 12.15 18.4384H12.1492Z" fill="#110F23"/>
<path d="M24.9683 20.7017C23.7576 20.6663 22.5143 20.1076 21.5521 19.5229C20.8146 19.0749 20.2414 18.6113 19.9747 18.3559C19.0871 17.4945 18.2281 16.5366 17.8597 16.1185C17.7422 15.9849 17.6747 15.9063 17.6716 15.9031C16.9555 15.1023 16.2791 14.3345 15.975 13.9895L15.9647 13.9997L15.7988 13.8048C15.7559 13.7546 15.7138 13.7058 15.6717 13.6563C12.9701 10.5246 10.6837 9 8.68463 9C7.1667 9.00707 5.7345 9.52497 4.54366 10.4963C4.00539 10.9356 3.53858 11.4567 3.15751 12.0343C3.11067 12.1058 3.06463 12.1773 3.02017 12.2496C3.86329 11.5062 5.15575 10.872 7.03094 10.9175C8.26228 10.9537 9.53569 11.5431 10.5114 12.1482C11.2203 12.5883 11.7713 13.0363 12.0333 13.2862C12.6541 13.885 13.2448 14.5184 13.6314 14.9444C14.0252 15.3782 14.226 15.6006 14.3221 15.7326C14.3253 15.7365 14.3285 15.7413 14.3308 15.7452H14.3316C14.3666 15.7829 14.4007 15.8214 14.4356 15.8607C14.438 15.8631 14.4404 15.8662 14.4428 15.8686C14.6833 16.1373 14.9167 16.4006 15.1311 16.6419C15.1422 16.6537 15.1525 16.6662 15.1628 16.678C15.1795 16.6969 15.1954 16.715 15.2121 16.733C15.2263 16.7487 15.2398 16.7645 15.2541 16.7802C15.2637 16.7912 15.274 16.8022 15.2835 16.8132C15.4756 17.0301 15.6479 17.225 15.7892 17.3861V17.3484L16.2092 17.8388C18.9767 21.0719 21.3068 22.6436 23.3313 22.6436C24.8579 22.6365 26.2957 22.1163 27.4873 21.141C28.0303 20.6962 28.5003 20.1673 28.8822 19.581C28.9298 19.5072 28.9775 19.4325 29.0227 19.3571C28.2137 20.0934 26.9379 20.7575 24.9683 20.7025V20.7017Z" fill="#110F23"/>
</svg>
