<svg width="32" height="32" viewBox="0 0 32 32" fill="none" xmlns="http://www.w3.org/2000/svg">
<path d="M7.08216 17.1739C7.03104 16.784 7.00532 16.3912 7.00516 15.998C7.00723 14.429 7.41915 12.8878 8.20013 11.5271C8.98111 10.1663 10.104 9.03314 11.4577 8.23988C12.8114 7.44663 14.3488 7.02078 15.9177 7.00452C17.4865 6.98826 19.0325 7.38216 20.4023 8.14719L22.4615 7.09777C20.82 5.90633 18.881 5.19195 16.8589 5.03358C14.8367 4.87522 12.8102 5.27903 11.0032 6.2004C9.1962 7.12176 7.67914 8.5248 6.61968 10.2544C5.56023 11.9841 4.99962 13.973 4.99983 16.0013C4.99983 16.2814 5.01046 16.5605 5.03173 16.8384C5.06152 17.232 4.97422 17.6256 4.78084 17.9697C4.58745 18.3138 4.29661 18.5931 3.94491 18.7723L3 19.2541V21.5014L29 8.25279V6.00656L7.08216 17.1739Z" fill="#110F23"/>
<path d="M29 10.5012L8.47588 20.9514L3 23.7432V25.9884L24.9233 14.8177C24.9745 15.2102 25.0002 15.6055 25.0003 16.0013C24.9994 17.5721 24.5876 19.1153 23.8058 20.4777C23.0241 21.8402 21.8996 22.9744 20.544 23.768C19.1884 24.5615 17.6488 24.9866 16.0781 25.0012C14.5073 25.0158 12.9601 24.6192 11.59 23.851L11.48 23.9093L9.5374 24.8993C11.1785 26.0908 13.1171 26.8054 15.1389 26.9642C17.1608 27.1229 19.1871 26.7196 20.9941 25.7989C22.8011 24.8782 24.3184 23.4758 25.3783 21.7468C26.4382 20.0177 26.9995 18.0294 27.0002 16.0013C27.0002 15.7186 26.9892 15.4359 26.9683 15.1565C26.9385 14.763 27.0257 14.3696 27.2189 14.0255C27.4121 13.6814 27.7026 13.4021 28.054 13.2227L29 12.7409V10.5012Z" fill="#110F23"/>
</svg>
