<svg width="32" height="32" viewBox="0 0 32 32" fill="none" xmlns="http://www.w3.org/2000/svg">
<g clip-path="url(#clip0_6908_4762)">
<path d="M5.49857 23.4458C6.58653 24.9736 7.98207 26.2519 9.59373 27.197C11.2053 28.1421 12.9967 28.7325 14.8502 28.9297C13.8966 27.481 12.5104 26.1481 10.7799 25.1334C9.04945 24.1187 7.21684 23.5644 5.49857 23.4458Z" fill="#110F23"/>
<path d="M13.1052 21.0932C9.77125 19.1379 6.16277 18.6395 3.58078 19.5198C3.83004 20.3515 4.15877 21.1567 4.56233 21.9242C6.80565 21.8717 9.25494 22.4868 11.534 23.8232C13.8131 25.1596 15.5562 27.004 16.623 28.9977C17.4837 28.971 18.3399 28.8603 19.1796 28.6672C18.6577 25.9672 16.4383 23.049 13.1052 21.0932Z" fill="#110F23"/>
<path d="M28.9928 13.156C28.5688 11.4154 27.8019 9.7789 26.7377 8.34414C25.6734 6.90943 24.3336 5.70592 22.7983 4.80549C21.2632 3.90507 19.5639 3.32619 17.8022 3.10343C16.0404 2.88067 14.2523 3.01859 12.5446 3.50895C15.3976 3.86144 18.5645 4.94268 21.6701 6.76415C24.7759 8.58563 27.2771 10.827 28.9928 13.156Z" fill="#110F23"/>
<path d="M24.8418 19.5396C23.3815 17.0912 20.8798 14.7466 17.7982 12.9393C14.7164 11.132 11.4606 10.0996 8.63287 10.0314C6.14513 9.97186 4.27803 10.7019 3.51164 12.0339C3.50728 12.0418 3.50117 12.0493 3.49637 12.0572C3.42741 12.3071 3.36805 12.5573 3.31393 12.8084C4.38409 12.382 5.62402 12.1445 7.00274 12.1181C10.0687 12.0599 13.5001 13.0499 16.6664 14.9071C19.8328 16.7643 22.3864 19.284 23.8546 22.0008C24.5128 23.2249 24.9235 24.4299 25.0862 25.5812C25.2757 25.4102 25.4616 25.2336 25.6419 25.0498C25.6466 25.0415 25.6497 25.0326 25.6545 25.0238C26.4209 23.6905 26.1246 21.692 24.8418 19.5396Z" fill="#110F23"/>
<path d="M15.4535 17.0131C10.7342 14.2451 5.51918 13.8116 3.01138 15.7432C3.01631 16.3478 3.06209 16.9514 3.14842 17.5497C3.88613 17.324 4.64644 17.1819 5.4153 17.1259C8.21769 16.913 11.3073 17.7013 14.1109 19.3465C16.9147 20.9917 19.1248 23.312 20.3302 25.8732C20.6634 26.5749 20.9176 27.312 21.0879 28.0709C21.6456 27.8502 22.1879 27.5916 22.711 27.2968C23.1309 24.1403 20.1741 19.7814 15.4535 17.0131Z" fill="#110F23"/>
<path d="M27.2692 15.4416C25.7923 12.9958 23.2687 10.6447 20.1652 8.82549C17.0617 7.0062 13.7932 5.95757 10.9563 5.87341C8.79372 5.8104 7.11867 6.33957 6.25014 7.33931C9.85647 6.72246 14.6132 7.7592 19.2238 10.4632C23.8343 13.1672 27.0841 16.826 28.3384 20.294C28.7684 19.0379 28.3944 17.3067 27.2692 15.4416Z" fill="#110F23"/>
</g>
<defs>
<clipPath id="clip0_6908_4762">
<rect width="26" height="26" fill="white" transform="translate(3 3)"/>
</clipPath>
</defs>
</svg>
