<svg width="32" height="32" viewBox="0 0 32 32" fill="none" xmlns="http://www.w3.org/2000/svg">
<g clip-path="url(#clip0_4_1339)">
<path fill-rule="evenodd" clip-rule="evenodd" d="M26.3776 23.5713C26.1822 23.1188 25.8363 22.7576 25.494 22.3983C25.4205 22.3212 25.347 22.2451 25.2754 22.1671C24.9115 21.7647 24.58 21.3346 24.2834 20.8803C23.3881 19.4967 22.7205 17.8209 22.2635 16.2518H22.2617C22.2312 16.1488 22.2017 16.0457 22.173 15.9418C22.0825 15.7007 21.9956 15.4588 21.9086 15.2186C21.6129 14.3986 21.3199 13.5877 20.922 12.8215C20.75 12.4872 20.5555 12.1646 20.3395 11.8564C19.8189 11.1188 19.2651 10.4011 18.5993 9.78901C17.4531 9.79259 16.2559 9.59993 15.1618 9.03896C14.444 8.66438 13.8059 8.15538 13.2808 7.53975C12.4187 7.52362 11.5594 7.65445 10.7412 7.92777C9.43645 8.3597 8.33422 9.11871 7.45244 10.0847C7.45244 10.0865 7.45334 10.0874 7.45423 10.0892C5.82688 11.9487 4.97019 14.5133 4.99976 17.0189C5.01769 18.5118 5.41019 19.9161 6.05539 21.2065C6.12798 21.3516 6.20325 21.495 6.28211 21.6366C6.27763 21.6411 6.27315 21.6456 6.26867 21.65C6.93538 22.8141 7.80641 23.8742 8.78587 24.8089C9.15417 25.1601 9.54309 25.4881 9.95082 25.7919L10.0637 25.8761C13.5577 28.4301 17.6798 28.8575 17.6798 28.8575C18.5347 28.9453 19.4981 29.017 20.4686 28.9982V29.0018C23.0557 28.9337 25.7637 28.1944 26.4555 25.3824C26.6025 24.7856 26.6204 24.1368 26.3776 23.5731V23.5713Z" fill="#110F23"/>
<path fill-rule="evenodd" clip-rule="evenodd" d="M13.1585 5.32363C16.6139 11.3823 23.1807 7.34438 23.7183 6.99847C23.7183 6.99847 23.7183 6.99847 23.7192 6.99847L23.7551 6.97518C19.1598 -0.864075 13.1504 5.3075 13.1504 5.3075L13.1594 5.32273C13.1594 5.32273 13.1594 5.32273 13.1585 5.32273V5.32363Z" fill="#110F23"/>
</g>
<defs>
<clipPath id="clip0_4_1339">
<rect width="21.5642" height="26" fill="white" transform="translate(5 3)"/>
</clipPath>
</defs>
</svg>
