<svg width="32" height="32" viewBox="0 0 32 32" fill="none" xmlns="http://www.w3.org/2000/svg">
<path fill-rule="evenodd" clip-rule="evenodd" d="M27.9157 16.3545C27.9157 16.4333 27.8045 16.4564 27.7721 16.3823C27.7582 16.3498 27.7443 16.3174 27.7304 16.285C27.7025 16.2247 27.7118 16.1599 27.7489 16.1043C27.7582 16.095 27.7721 16.0718 27.7906 16.0487C27.8416 15.9791 27.9157 15.9884 27.9157 16.0672C27.9157 16.1645 27.9157 16.2525 27.9111 16.3545M27.3318 14.779C27.2438 14.9412 27.0168 14.9458 26.9148 14.7929C26.9009 14.7697 26.8824 14.7466 26.8685 14.7234C26.5117 14.1766 26.1039 13.6391 25.6452 13.1201C25.534 12.9904 25.6266 12.7911 25.7934 12.7911C26.8638 12.7911 27.4199 13.0552 27.5913 13.375C27.735 13.6437 27.6886 14.1164 27.3226 14.779M27.0816 20.3673C27.026 20.511 26.9658 20.6592 26.9009 20.8029C26.8916 20.8214 26.8824 20.8446 26.8731 20.8631C26.4792 21.6184 25.8212 22.2162 24.9408 22.6286C24.7416 22.7213 24.5284 22.5405 24.584 22.332C24.876 21.2848 25.0984 20.1495 25.242 18.9587C25.2698 18.7362 25.3764 18.5323 25.5479 18.3841C25.9093 18.069 26.2475 17.7585 26.5626 17.448C26.7156 17.2905 26.975 17.3554 27.0399 17.5639C27.3457 18.588 27.3643 19.5379 27.0816 20.3719M24.686 24.1531C24.5979 24.2504 24.5053 24.3431 24.4126 24.4358C24.2504 24.5979 24.0836 24.7555 23.9121 24.9084C23.8056 25.0057 23.6434 24.8852 23.7036 24.7555C23.7222 24.7184 23.7361 24.6813 23.7546 24.6443C23.8241 24.4867 23.8936 24.3245 23.9631 24.1624C23.977 24.1253 24.0141 24.0929 24.0511 24.0836C24.218 24.0419 24.3848 23.9955 24.547 23.9399C24.6767 23.8982 24.7786 24.0558 24.686 24.1577M22.9251 23.2124C22.5683 23.2634 22.193 23.2958 21.8038 23.3097C20.8492 23.3422 19.8391 23.2588 18.8011 23.0688C18.676 23.0456 18.6482 22.8742 18.764 22.8186C18.9911 22.7027 19.2181 22.5869 19.4452 22.4664C21.0346 21.6231 22.5127 20.7056 23.8102 19.7603C23.9075 19.6908 24.0419 19.7742 24.0233 19.89C23.8426 20.9697 23.5924 21.9891 23.2819 22.9112C23.2263 23.0688 23.092 23.1846 22.9298 23.2078M22.5637 24.6489C21.7111 26.3217 20.6639 27.2623 19.6491 27.2438C18.5462 27.2253 17.4434 26.0761 16.6279 24.0882C16.5769 23.9585 16.6371 23.8148 16.7623 23.7592C16.7715 23.7592 16.7808 23.75 16.7901 23.75C16.8457 23.7268 16.9059 23.7222 16.9615 23.7407C18.486 24.167 19.992 24.394 21.4006 24.394C21.5536 24.394 21.7065 24.394 21.8547 24.3848C22.0308 24.3801 22.2069 24.3662 22.3737 24.357C22.5313 24.3431 22.6425 24.5099 22.5683 24.6535M17.5268 27.8369C17.0217 27.9018 16.5074 27.9342 15.9884 27.9342C13.6715 27.9342 11.452 27.2762 9.55213 26.0529C9.42238 25.9695 9.47799 25.7656 9.6309 25.7564C9.66334 25.7564 9.69114 25.7564 9.71894 25.7517C10.2009 25.7193 10.7337 25.6498 11.3083 25.5386C12.5316 25.3023 13.8893 24.8991 15.3119 24.357C15.4416 24.3106 15.5806 24.3709 15.6316 24.496C16.183 25.8398 16.8596 26.8546 17.6241 27.4987C17.7492 27.6052 17.689 27.8091 17.5222 27.8323M10.6272 19.4776C11.679 18.6204 12.907 17.7678 14.26 16.9615C14.2878 18.6899 14.4778 20.3488 14.8114 21.8455C14.311 21.6323 13.8106 21.396 13.3147 21.1412C12.3556 20.6407 11.452 20.0847 10.6225 19.4823M7.35573 24.1114C7.10551 23.6387 7.42987 22.5452 9.07485 20.877C9.2463 20.7009 9.2324 20.4183 9.03778 20.2654C8.97291 20.2144 8.90804 20.1634 8.84317 20.1078C8.68098 19.9734 8.44003 19.9873 8.29175 20.1356C8.25931 20.1681 8.23614 20.1912 8.22688 20.2005C7.40207 21.0438 6.82748 21.8269 6.50775 22.5313C6.41508 22.7305 6.14169 22.7537 6.02121 22.5683C4.74229 20.6361 4.0565 18.3748 4.0565 16.0116C4.0565 15.1636 4.14454 14.3342 4.31599 13.5233C4.34379 13.4028 4.51524 13.3935 4.55231 13.514C4.7979 14.3295 5.20103 15.1775 5.75708 16.0301C6.50775 17.1793 7.49474 18.2868 8.66245 19.3016C9.06095 19.6491 9.48262 19.9827 9.92283 20.3071C10.8171 20.9604 11.7856 21.5675 12.8143 22.1003C13.273 22.3367 13.7179 22.5637 14.172 22.7676C14.4268 22.8834 14.7141 22.8927 14.9736 22.7908C15.1868 22.7074 15.4046 22.6193 15.6223 22.5266C15.8587 22.4293 15.9884 22.1698 15.9235 21.9196C15.9143 21.8872 15.9096 21.864 15.905 21.8501C15.5482 20.3395 15.3443 18.6389 15.3212 16.8549C15.3212 16.8549 15.3212 16.8132 15.3212 16.7901C15.3212 16.6927 15.3212 16.5954 15.3212 16.4981C15.3212 16.4657 15.3212 16.4147 15.3212 16.3823C15.3212 16.3684 15.3212 16.3591 15.3212 16.3452C15.3212 16.234 15.3212 16.1228 15.3212 16.0116C15.3258 15.7058 15.3397 15.4046 15.3536 15.1034C15.4648 12.9533 15.8309 10.933 16.4101 9.2324C16.4657 9.07485 16.3777 8.9034 16.2247 8.85243C16.0718 8.80146 15.9189 8.75049 15.766 8.70415C15.6131 8.65782 15.4463 8.74122 15.3953 8.89414C14.7651 10.7384 14.3805 12.9301 14.2739 15.247C14.26 15.5389 14.1025 15.8077 13.8476 15.9606C12.476 16.7715 11.2156 17.638 10.1267 18.5045C9.89966 18.6853 9.5753 18.6806 9.35751 18.4906C8.26858 17.5454 7.34646 16.5167 6.65603 15.4509C5.29371 13.3564 4.96935 11.3825 5.74318 9.89503C5.74318 9.89503 5.74318 9.88576 5.74782 9.88576C5.84513 9.72358 5.9517 9.5614 6.05828 9.39922C6.94796 8.21761 8.60684 7.53645 10.8079 7.45767C10.9469 7.45304 11.0859 7.44841 11.2295 7.44841C12.578 7.44841 14.0283 7.67083 15.5019 8.09713C15.5343 8.1064 15.5667 8.11567 15.5992 8.12493C15.6223 8.1342 15.6502 8.13883 15.6733 8.1481C16.0116 8.25004 16.3545 8.36125 16.6974 8.48637C16.6974 8.48637 16.7113 8.491 16.7205 8.49563C16.8086 8.52807 16.8966 8.56051 16.9893 8.59294C17.0171 8.60221 17.0449 8.61611 17.0727 8.62538C17.1005 8.63465 17.1283 8.64391 17.1515 8.65781C17.8697 8.93584 18.588 9.2602 19.3016 9.6309C20.6778 10.3445 21.9335 11.1832 23.0271 12.1007C20.9373 12.578 18.5092 13.5001 16.0672 14.7466C15.956 14.8022 15.8818 14.918 15.8726 15.0431C15.8633 15.196 15.854 15.4972 15.8448 15.7382C15.8401 15.8911 16.0023 15.9884 16.1367 15.9189C18.5555 14.6493 20.9651 13.6993 23.0364 13.1989C23.4256 13.1062 23.6758 12.7355 23.6202 12.337C23.5831 12.0636 23.5414 11.7902 23.4905 11.5215C23.4302 11.1878 23.2495 10.8867 22.9761 10.6828C22.0077 9.946 20.9373 9.26484 19.7927 8.67172C19.0235 8.27321 18.2404 7.92105 17.4527 7.61985C17.2859 7.55498 17.2117 7.35573 17.2998 7.20282C18.106 5.75708 19.0699 4.94618 20.0059 4.94618C20.0151 4.94618 20.0244 4.94618 20.0337 4.94618C21.1365 4.96471 22.2394 6.11388 23.0549 8.10176C23.4673 9.10729 23.787 10.2657 24.0048 11.5261C24.0975 12.0636 24.1716 12.6197 24.2272 13.1896C24.2226 13.1896 24.218 13.1943 24.2133 13.1989C24.218 13.2035 24.2272 13.2128 24.2319 13.2174C24.3245 14.172 24.3616 15.1682 24.3431 16.1877C24.3338 16.8318 24.2967 17.4666 24.2411 18.0829C22.763 19.2784 20.9373 20.4646 18.9309 21.5304C18.2729 21.8779 17.6102 22.2069 16.9569 22.5035C16.9476 22.5081 16.9383 22.5127 16.9244 22.5174C16.8735 22.5405 16.8225 22.5637 16.7762 22.5869C16.234 22.8325 15.6965 23.0595 15.1729 23.2634C15.1451 23.2773 15.1126 23.2866 15.0848 23.2958C15.0478 23.3097 15.0107 23.3236 14.9736 23.3376C14.8856 23.37 14.7975 23.4071 14.7095 23.4395C14.6863 23.4488 14.6632 23.458 14.6354 23.4673C14.5288 23.509 14.4222 23.5461 14.3156 23.5831C14.3017 23.5878 14.2878 23.5924 14.2739 23.597C13.1433 24.0002 12.0683 24.3014 11.0859 24.4914C8.71342 24.9455 7.59669 24.5979 7.34646 24.116M9.07949 6.28997C11.0859 4.8535 13.4816 4.07966 16.0023 4.07966C16.6649 4.07966 17.3229 4.13527 17.967 4.24185C18.1385 4.26965 18.1987 4.49207 18.0597 4.59865C17.4388 5.08519 16.8596 5.80806 16.3452 6.74407C16.2201 6.97113 15.956 7.08234 15.7058 7.01283C14.0098 6.53556 12.3417 6.3085 10.7986 6.36411C10.2287 6.38264 9.69114 6.44288 9.18606 6.53556C9.04242 6.56336 8.96828 6.37801 9.08412 6.28997M25.4505 14.9783C25.4505 14.8439 25.622 14.7836 25.7008 14.8948C25.7981 15.0292 25.8907 15.1682 25.9834 15.3073C26.1039 15.4926 26.2151 15.6733 26.3171 15.854C26.3819 15.9652 26.368 16.1089 26.28 16.2062C26.141 16.3591 25.9881 16.5167 25.8259 16.6788C25.7656 16.7391 25.7054 16.7993 25.6405 16.8596C25.5618 16.9337 25.432 16.8781 25.4366 16.7715C25.4459 16.5769 25.4505 16.3777 25.4552 16.183C25.4644 15.7799 25.4598 15.3768 25.4552 14.9783M24.218 7.3511C24.2921 7.4206 24.3662 7.49474 24.4404 7.56888C25.5896 8.71805 26.4746 10.0618 27.0677 11.5215C27.128 11.6698 27.0029 11.8227 26.8453 11.7949C26.5024 11.7346 26.1178 11.7068 25.6915 11.7115C25.3949 11.7161 25.1401 11.5076 25.0891 11.2203C24.8574 9.9182 24.5238 8.71805 24.0929 7.67083C24.0697 7.61059 24.0419 7.55035 24.0187 7.49474C23.9631 7.365 24.1207 7.25842 24.2226 7.3511M28.7312 13.2962C28.2169 10.8542 27.0075 8.61148 25.205 6.80895C22.7352 4.35306 19.473 3 15.9977 3C12.5224 3 9.2602 4.35306 6.80895 6.80895C6.21119 7.4067 5.68294 8.05079 5.21957 8.73659C5.08056 8.92194 4.96008 9.11192 4.84887 9.31581C3.64409 11.313 3 13.6067 3 15.9977C3 19.4684 4.35306 22.7352 6.80895 25.1911C9.26484 27.6469 12.527 29 16.0023 29C19.4776 29 22.7398 27.6469 25.1957 25.1911C26.3541 24.0326 27.267 22.6935 27.9064 21.2385C27.9852 21.0763 28.0547 20.9141 28.1103 20.7426C28.6942 19.2506 29 17.6473 29 15.9977C29 15.0895 28.9073 14.1952 28.7266 13.3286C28.7266 13.3194 28.722 13.3055 28.7173 13.2962" fill="#110F23"/>
</svg>
