<svg width="32" height="32" viewBox="0 0 32 32" fill="none" xmlns="http://www.w3.org/2000/svg">
<path d="M25.845 20.32C25.67 18.29 23.595 16.9325 23.595 16.9325C23.595 16.9325 26.24 16.215 26.5125 13.08C26.685 11.08 25.425 8.9925 22.2625 8.0625L23.3525 3.945L20.7575 3.2575L19.67 7.365L17.5175 6.795L18.605 2.6875L16.005 2L14.9175 6.1075L10.7375 5L10.05 7.5925L12.595 8.265L9.275 20.8075L6.73 20.13L6 22.88L10.18 23.9875L9.0925 28.1025L11.7025 28.805L12.7925 24.69L14.945 25.26L13.845 29.38L16.4525 30.0625L17.5425 25.9475L18.145 26.105C23.225 27.38 26.145 23.82 25.845 20.32ZM16.8975 9.405C16.8975 9.405 17.9525 9.6775 19.4675 10.085C20.905 10.4725 22 11.7425 21.6625 13.175C21.325 14.6075 19.8275 15.52 18.255 15.13C16.8125 14.77 15.57 14.42 15.57 14.42L16.8975 9.405ZM17.015 22.8575C15.515 22.4925 13.5775 21.9475 13.5775 21.9475L14.9525 16.74C14.9525 16.74 16.7025 17.24 18.26 17.615C20.1225 18.075 21.26 19.2975 20.85 20.935C20.44 22.5725 19.0375 23.35 17.015 22.8575Z" fill="#110F23"/>
</svg>
