<svg width="32" height="32" viewBox="0 0 32 32" fill="none" xmlns="http://www.w3.org/2000/svg">
<path d="M11.2502 26.17H5.00019C4.7688 26.1701 4.54141 26.1095 4.34068 25.9944C4.13994 25.8793 3.97285 25.7136 3.85603 25.5139C3.73922 25.3141 3.67675 25.0873 3.67485 24.8559C3.67295 24.6245 3.73168 24.3966 3.84519 24.195L14.8652 4.6475C14.9806 4.44311 15.1483 4.27305 15.351 4.15472C15.5537 4.03639 15.7842 3.97403 16.0189 3.97403C16.2537 3.97403 16.4842 4.03639 16.6869 4.15472C16.8896 4.27305 17.0573 4.44311 17.1727 4.6475L20.4752 10.4775C20.592 10.6792 20.6534 10.9082 20.6534 11.1413C20.6534 11.3743 20.592 11.6033 20.4752 11.805L12.3977 25.5175C12.2803 25.7172 12.1126 25.8826 11.9112 25.9972C11.7098 26.1117 11.4819 26.1713 11.2502 26.17V26.17Z" fill="#110F23"/>
<path d="M18.3697 24.19L22.0822 17.5675C22.1979 17.3632 22.3658 17.1932 22.5688 17.0749C22.7717 16.9567 23.0023 16.8944 23.2372 16.8944C23.472 16.8944 23.7027 16.9567 23.9056 17.0749C24.1085 17.1932 24.2764 17.3632 24.3922 17.5675L28.1422 24.1875C28.2566 24.3893 28.3162 24.6175 28.315 24.8495C28.3138 25.0815 28.2518 25.3091 28.1352 25.5097C28.0186 25.7102 27.8515 25.8767 27.6505 25.9926C27.4495 26.1085 27.2217 26.1696 26.9897 26.17H19.5272C19.2951 26.1703 19.0671 26.1097 18.8657 25.9943C18.6644 25.8789 18.4968 25.7128 18.3797 25.5125C18.2626 25.3121 18.2 25.0846 18.1983 24.8526C18.1965 24.6205 18.2556 24.3921 18.3697 24.19V24.19Z" fill="#110F23"/>
</svg>
