<svg width="32" height="32" viewBox="0 0 32 32" fill="none" xmlns="http://www.w3.org/2000/svg">
<path d="M6.42416 16.4621C6.59412 16.6163 6.74827 16.7894 6.88158 16.9764C7.00162 17.1432 7.16463 17.2721 7.29351 17.3656C7.31689 17.3827 7.34153 17.3991 7.36617 17.4161C7.44388 17.4692 7.52412 17.5235 7.58729 17.5994C7.77999 17.8319 8.03966 17.9374 8.42884 17.9412C8.73652 17.9437 9.04737 17.9576 9.3481 17.9708C9.47193 17.9765 9.59513 17.9816 9.71833 17.9866C9.89207 17.9936 10.0633 17.9721 10.244 17.9494C10.4146 17.9279 10.5908 17.9064 10.7709 17.9096C10.8612 17.9115 10.951 17.9108 11.0413 17.9108C11.1841 17.9102 11.3313 17.9096 11.4785 17.9184C11.6731 17.9298 11.8652 17.902 12.0686 17.8723C12.1981 17.8533 12.3321 17.8338 12.4666 17.8255C12.9935 17.7933 13.5148 17.6657 14.0183 17.5425C14.1832 17.5021 14.3538 17.4604 14.5225 17.4225C14.8321 17.353 15.1511 17.3485 15.4601 17.3454L15.5788 17.3435C16.1778 17.334 16.8014 17.2051 17.485 16.9511C17.6126 16.9038 17.7415 16.8526 17.8666 16.8027C18.2065 16.6675 18.5577 16.5278 18.9267 16.447C19.1649 16.3945 19.3734 16.2865 19.5636 16.1153C19.6217 16.0628 19.6874 16.0237 19.7499 15.9851C19.7746 15.97 19.7992 15.9554 19.8232 15.9396C19.8965 15.8916 19.9597 15.8929 19.9995 15.9024C20.0387 15.9118 20.0949 15.9377 20.1379 16.0104C20.201 16.1172 20.1726 16.2315 20.0627 16.3162C19.6444 16.6384 19.2085 16.8519 18.7296 16.9688C18.4718 17.032 18.2159 17.1356 17.9689 17.2354C17.8482 17.2841 17.7238 17.3346 17.5993 17.3808C16.8374 17.6613 16.186 17.7895 15.5555 17.7819C15.0109 17.7763 14.4644 17.8546 13.9324 18.0157C13.5881 18.1193 13.2324 18.1654 12.8887 18.2097C12.7257 18.2305 12.5576 18.2526 12.394 18.2798C12.0098 18.3442 11.6219 18.3449 11.2466 18.3461C10.939 18.3468 10.6212 18.3474 10.3128 18.384C9.77582 18.4472 9.23564 18.4144 8.71315 18.3828C8.51729 18.3708 8.31449 18.3588 8.11547 18.3512C7.8438 18.3417 7.59424 18.2255 7.39333 18.0157C7.30488 17.9228 7.2019 17.8483 7.09323 17.7687C7.01742 17.7137 6.93908 17.6562 6.86516 17.5924C6.80956 17.684 6.7369 17.8521 6.8323 18.0037C7.22844 18.6342 7.68585 19.2565 8.53246 19.3336C8.74158 19.3526 8.98166 19.3406 9.2647 19.297C9.57175 19.2496 9.87628 19.2692 10.1707 19.2881C10.2509 19.2932 10.3305 19.2982 10.4108 19.302C11.1487 19.3368 12.0187 19.3583 12.8786 19.2528C13.0087 19.237 13.1401 19.2351 13.2671 19.2338C13.3227 19.2338 13.3789 19.2325 13.4345 19.2306L13.54 19.2275C13.818 19.2199 14.0802 19.2123 14.3424 19.1169C14.6324 19.0114 14.942 18.9817 15.2408 18.9527C15.3185 18.9451 15.3962 18.9375 15.474 18.9286C16.0767 18.8604 16.6181 18.5963 17.1141 18.3209C17.3093 18.2122 17.5134 18.1168 17.7105 18.0239C17.9259 17.9228 18.1483 17.8186 18.3568 17.6985C18.5445 17.5899 18.7277 17.4787 18.9141 17.365C19.0695 17.2702 19.2344 17.19 19.3936 17.1129C19.5914 17.0168 19.7954 16.9183 19.9761 16.7919C20.1802 16.6491 20.4177 16.4773 20.6338 16.2821C20.8088 16.1235 20.8271 15.9358 20.6932 15.6749C20.6603 15.6111 20.6155 15.5738 20.5011 15.5972C20.1195 15.6755 19.8276 15.7501 19.5553 15.8392C19.3974 15.8904 19.2375 15.946 19.0834 16.0003C18.6569 16.1488 18.2166 16.3029 17.7573 16.3832C17.2891 16.4653 16.8184 16.5803 16.3635 16.6915C15.9724 16.7875 15.5675 16.8861 15.1644 16.9644C14.8611 17.0232 14.5503 17.0649 14.2502 17.1053C13.9716 17.1426 13.6841 17.1811 13.4048 17.2329C13.094 17.2904 12.7787 17.3043 12.4742 17.3176C12.2979 17.3252 12.116 17.3334 11.9384 17.3498C11.7476 17.3675 11.5531 17.3896 11.3648 17.4111C10.8834 17.4654 10.3855 17.5223 9.89018 17.5128C9.77456 17.5103 9.65831 17.5096 9.54206 17.509C9.04484 17.5059 8.53119 17.5027 8.02702 17.3782C7.60435 17.274 7.27708 17.0775 7.02689 16.7774C6.6952 16.3794 6.42859 16.0584 6.23463 15.3476C6.11585 15.5056 6.05836 15.6654 6.06341 15.8234C6.07036 16.0376 6.19103 16.2524 6.4229 16.4621H6.42416Z" fill="#110F23"/>
<path d="M19.8984 10.3919C19.9471 10.4721 20.0589 10.5233 20.1025 10.5264C20.1606 10.4317 20.1037 10.3325 20.0633 10.2807C19.9003 10.0703 19.7013 9.88202 19.5086 9.70006C19.4587 9.65331 19.4094 9.60656 19.3601 9.55917C18.9179 9.13335 18.3448 8.9735 17.5557 9.05627C17.1646 9.09733 16.7824 9.07396 16.4273 9.04237C15.8429 8.99119 15.2756 9.08975 14.6413 9.35258C14.1984 9.53643 13.8263 9.80115 13.4706 10.1865C13.3808 10.2832 13.2873 10.3773 13.1926 10.469C13.3922 10.3331 13.6077 10.2333 13.8111 10.1493C14.0821 10.0381 14.3374 9.88834 14.5932 9.69122C15.0867 9.31025 15.6641 9.1226 16.3503 9.1226C16.4602 9.1226 16.5727 9.12766 16.6883 9.13714C16.778 9.14472 16.8683 9.15167 16.9587 9.15799C17.339 9.18705 17.7326 9.21674 18.1168 9.29445C18.7075 9.41449 19.4435 9.64826 19.8978 10.3906L19.8984 10.3919Z" fill="#110F23"/>
<path d="M18.8673 10.5182C19.007 10.5366 19.1409 10.5783 19.2666 10.6408C19.2736 10.6446 19.2812 10.6484 19.2887 10.6522C19.3178 10.668 19.3273 10.6718 19.338 10.6699C19.4663 10.644 19.4865 10.6193 19.4884 10.6168C19.4877 10.6168 19.4884 10.5852 19.4119 10.481C19.1959 10.1891 18.9052 9.9869 18.523 9.86433C18.0586 9.7146 17.5835 9.65963 17.0553 9.60719C16.783 9.58002 16.5044 9.58192 16.2353 9.58445H16.1146C15.7507 9.58761 15.4083 9.69311 15.0671 9.90792C14.954 9.97932 14.8422 10.0596 14.7341 10.1366C14.6046 10.2295 14.4726 10.3243 14.3317 10.4089H14.3412C14.5926 10.4292 14.8523 10.45 15.1025 10.4336C15.4746 10.4096 15.853 10.3988 16.2182 10.3881C16.3522 10.3843 16.4867 10.3805 16.6207 10.3755C16.723 10.3717 16.8254 10.3704 16.9277 10.3704C17.5968 10.3704 18.2526 10.4405 18.8667 10.5182H18.8673Z" fill="#110F23"/>
<path d="M12.8773 9.46693C12.7693 9.58824 12.6543 9.70449 12.5437 9.81758C12.4521 9.91045 12.358 10.0059 12.2689 10.1031C12.092 10.2958 12.0004 10.4854 11.9801 10.6996C11.9688 10.819 11.9726 10.9403 11.9783 11.0673C12.2891 10.6895 12.6366 10.342 13.0144 10.0318C13.1085 9.95404 13.1862 9.86307 13.2696 9.7664C13.312 9.71712 13.3556 9.66595 13.4017 9.61667C13.6203 9.38417 13.8755 9.20411 14.1769 9.07143C13.969 9.07522 13.7631 9.07901 13.5571 9.0847C13.3139 9.09102 13.1104 9.20537 12.8779 9.46693H12.8773Z" fill="#110F23"/>
<path d="M13.1559 6.65672C13.2646 6.69273 13.3764 6.71674 13.4952 6.74201C13.5388 6.75149 13.583 6.76097 13.6266 6.77108C13.6601 6.77866 13.6797 6.7736 13.7043 6.75149C13.9697 6.51331 14.2685 6.32503 14.5256 6.17277C14.5718 6.1456 14.5794 6.12791 14.5794 6.08748C14.5812 5.80759 14.6615 5.52771 14.8314 5.20676C14.8422 5.18591 14.8479 5.17327 14.8504 5.16632C14.8466 5.16316 14.8403 5.15937 14.8314 5.15432C14.5313 4.98437 14.2426 4.77398 13.9495 4.51115C13.7523 4.33488 13.5015 4.25275 13.1806 4.25844C12.7427 4.26728 12.3137 4.29255 11.9517 4.31656C11.7792 4.32793 11.6282 4.41449 11.4684 4.5061C11.4324 4.52695 11.3964 4.54717 11.3604 4.56675C11.3035 4.59771 11.2466 4.6274 11.1885 4.6571C10.9131 4.79925 10.6534 4.93382 10.4828 5.18338L10.4038 5.29837C10.1442 5.67744 9.87503 6.06979 9.66148 6.48424C9.6261 6.55311 9.5844 6.61945 9.54397 6.68326C9.49532 6.76097 9.44541 6.84057 9.40434 6.92839C9.83396 6.72369 10.2541 6.61881 10.6174 6.54363C11.5107 6.35852 12.3643 6.39642 13.1547 6.65672H13.1559Z" fill="#110F23"/>
<path d="M11.7502 22.7579C11.8797 22.7023 11.9157 22.5962 11.9233 22.5166C11.9359 22.3808 11.8734 22.2253 11.7805 22.1634C11.6826 22.0984 11.5872 22.0655 11.4968 22.0655C11.3679 22.0655 11.2492 22.1318 11.1506 22.2639C11.0975 22.3346 11.1095 22.3599 11.1506 22.3991C11.1891 22.4364 11.2289 22.4724 11.2688 22.5084C11.294 22.5311 11.3193 22.5539 11.3439 22.5766C11.4362 22.6625 11.4558 22.7731 11.3989 22.8635C11.5114 22.8451 11.6282 22.8098 11.7502 22.7579Z" fill="#110F23"/>
<path d="M8.583 10.342C8.16286 10.342 7.82549 10.3805 7.50959 10.4633C7.35354 10.5037 7.24866 10.5808 7.17032 10.7135C7.03132 10.9472 6.90117 11.157 6.72932 11.3408C6.76407 11.3257 6.79882 11.3105 6.83294 11.2953C7.06102 11.1961 7.27709 11.1026 7.47231 10.9655C7.73261 10.7823 8.04156 10.6825 8.4459 10.6515C8.78707 10.625 9.12824 10.6004 9.47889 10.5745L9.58755 10.5662C9.36074 10.4241 9.09792 10.3527 8.77633 10.3445C8.70999 10.3426 8.64492 10.342 8.58237 10.342H8.583Z" fill="#110F23"/>
<path d="M10.9074 23.4346C10.9213 23.3916 10.9472 23.3108 10.939 23.2899C10.9276 23.2811 10.8631 23.2678 10.8246 23.2602C10.7684 23.2489 10.7046 23.2356 10.6502 23.2091C10.4297 23.1004 10.232 22.9563 10.0405 22.8173C9.96347 22.7611 9.88386 22.703 9.80426 22.6487C9.74992 22.6114 9.69812 22.5703 9.64821 22.5305C9.51363 22.4231 9.38664 22.3214 9.21732 22.3081C9.2148 22.3081 9.21164 22.3081 9.20911 22.3075C9.37717 22.5728 9.61914 22.7845 9.85291 22.9892C9.90219 23.0321 9.95083 23.0751 9.99948 23.1187C10.0854 23.1958 10.1701 23.276 10.2516 23.3537C10.443 23.5357 10.6401 23.7227 10.8606 23.8724C10.8644 23.8358 10.8631 23.796 10.8619 23.7537C10.86 23.6981 10.8587 23.6412 10.8682 23.5812C10.8758 23.5325 10.8916 23.4832 10.9074 23.4352V23.4346Z" fill="#110F23"/>
<path d="M13.1104 23.0435C13.1831 22.974 13.2311 22.883 13.2823 22.7876L13.305 22.7447C13.3777 22.6114 13.3966 22.5021 13.3638 22.4105C13.3221 22.2948 13.1926 22.1944 12.9676 22.104C12.8463 22.0554 12.6998 22.0687 12.5854 22.1394C12.4603 22.2165 12.3839 22.3549 12.37 22.528C12.3352 22.945 12.0098 23.2356 11.5208 23.2855C11.3919 23.2988 11.3616 23.3392 11.342 23.446C11.337 23.4725 11.3307 23.4997 11.3237 23.5268C11.3111 23.5767 11.2997 23.6235 11.3029 23.662C11.3414 24.1005 11.1715 24.4726 10.769 24.8327C10.6009 24.9831 10.4278 25.1328 10.2604 25.2775C10.1157 25.4026 9.97168 25.5271 9.82889 25.6541C9.60145 25.8556 9.31651 25.951 8.93301 25.9548H8.92164C8.90774 25.9548 8.88752 25.9548 8.87615 25.9567C8.87615 25.9567 8.87615 25.9573 8.87615 25.958C8.79402 26.4457 8.39852 26.5386 8.06303 26.5658C8.0207 26.5689 7.97901 26.5733 7.93668 26.5778C7.74082 26.598 7.53928 26.6188 7.33521 26.5462C7.22401 26.7825 7.01426 26.948 6.75459 27.003C6.47029 27.063 6.17018 26.9808 5.95032 26.7825C5.7412 26.5936 5.5605 26.3781 5.3855 26.1696C5.23829 25.994 5.08603 25.812 4.91987 25.6516C4.83331 25.5682 4.82952 25.4551 4.90913 25.3641C4.96346 25.3028 5.02159 25.287 5.06139 25.2851C5.12078 25.282 5.18017 25.3053 5.23197 25.3533C5.45499 25.5574 5.6319 25.7539 5.77405 25.9542C5.87008 26.09 5.98696 26.2044 6.10953 26.325C6.15881 26.3737 6.20809 26.4217 6.25611 26.4716C6.3692 26.5891 6.67688 26.6245 6.84431 26.5399C6.88158 26.5209 6.92897 26.4482 6.94855 26.3453C6.96687 26.2486 6.94982 26.1759 6.92644 26.1494C6.8879 26.1058 6.84367 26.0666 6.79629 26.0249C6.75965 25.9927 6.72237 25.9599 6.68699 25.9239C6.55179 25.7874 6.41721 25.6509 6.28264 25.5138C6.14997 25.3786 6.01666 25.2434 5.88335 25.1082C5.8227 25.0469 5.79237 24.9831 5.79237 24.9174C5.79237 24.8776 5.80564 24.817 5.86503 24.7582C5.92063 24.7032 5.97749 24.6938 6.01476 24.695C6.07921 24.6969 6.14112 24.7317 6.20051 24.7974C6.35846 24.9736 6.53094 25.1436 6.69836 25.3079C6.9435 25.5492 7.19748 25.7988 7.41482 26.0786C7.4742 26.1551 7.5734 26.1564 7.64605 26.1437C7.73577 26.1286 7.82548 26.1222 7.91204 26.1166C8.02386 26.109 8.13 26.1014 8.23362 26.0761C8.31954 26.0553 8.38967 26.0022 8.42758 25.9308C8.46296 25.8638 8.46675 25.7855 8.43769 25.7103C8.33786 25.4494 8.17739 25.2162 8.03524 25.0185C7.83306 24.7373 7.64163 24.4928 7.34532 24.3456C7.24865 24.2976 7.1899 24.237 7.17221 24.1643C7.16147 24.1226 7.1602 24.0569 7.21391 23.9824C7.3251 23.8269 7.46852 23.9084 7.53738 23.9482C7.54686 23.9533 7.55634 23.959 7.56581 23.964C8.16981 24.2862 8.49076 24.8384 8.76748 25.3761C8.83193 25.5006 8.8989 25.5201 9.0082 25.5151C9.25144 25.5024 9.47067 25.4064 9.65957 25.2289C9.72781 25.1644 9.78277 25.1088 9.82826 25.0482L9.85985 25.0052C10.0627 24.7323 10.1176 24.659 9.87375 24.3235C9.69622 24.079 9.48457 23.8339 9.1415 23.6962C8.595 23.4769 8.13 23.12 7.67954 22.775C7.59614 22.7112 7.51211 22.6467 7.42808 22.5836C7.24613 22.4465 7.27645 22.3252 7.33395 22.2468C7.38196 22.1817 7.43756 22.1615 7.47547 22.1558C7.56518 22.1432 7.64479 22.1944 7.69723 22.2342C7.86907 22.3637 8.04155 22.4926 8.21403 22.6208C8.19318 22.5848 8.16918 22.5526 8.13506 22.5267C8.09336 22.4945 8.06935 22.4496 8.06682 22.3991C8.06367 22.3334 8.09841 22.2626 8.16538 22.2013C8.61775 21.7837 9.4018 21.7584 9.87817 22.1464C10.1056 22.3321 10.3634 22.5147 10.6888 22.7219C10.7848 22.7832 10.8846 22.8262 10.9889 22.8514C10.8998 22.7763 10.8082 22.6878 10.7374 22.5785C10.6325 22.4155 10.6344 22.2487 10.7425 22.0819C10.8297 21.9474 10.9446 21.8355 11.0994 21.7344C10.709 21.3629 10.3337 21.0155 9.88007 20.7627L9.86554 20.7545C9.59766 20.6048 9.3203 20.4506 9.00693 20.4506C9.00061 20.4506 8.9943 20.4506 8.98861 20.4506H8.96018C8.91027 20.4506 8.86352 20.4513 8.83698 20.4709L8.76432 20.5233C8.50403 20.7109 8.25826 20.8878 8.10473 21.1563C7.93036 21.4615 7.653 21.6352 7.38007 21.778C6.5859 22.1931 5.95601 22.7649 5.5068 23.4763C5.44868 23.5679 5.37665 23.6443 5.30716 23.7183C5.24271 23.7865 5.18206 23.8503 5.13404 23.9236C5.04117 24.0651 4.93629 24.2363 4.86364 24.4316C4.8112 24.5731 4.73349 24.7165 4.62608 24.8694C4.29502 25.3401 4.1276 25.8841 4.00693 26.3541C3.97028 26.4969 4.08843 26.5967 4.1415 26.6327C4.45487 26.8494 4.87564 27.1135 5.34822 27.2399C5.42088 27.2595 5.49353 27.2797 5.56619 27.2999C5.84797 27.3782 6.13923 27.4591 6.43175 27.4901C6.7666 27.5254 7.12293 27.5551 7.4761 27.5002C7.7345 27.4604 7.99986 27.4541 8.25573 27.4477L8.38398 27.4446C8.91659 27.4294 9.4454 27.3669 9.95588 27.2595C10.3514 27.1761 10.6831 26.9202 10.9762 26.6953C11.2479 26.4861 11.5385 26.3004 11.8197 26.121L11.9157 26.0597C11.9795 26.0186 12.0206 25.9725 12.0522 25.9062C12.1886 25.62 12.2354 25.3047 12.1969 24.9427C12.152 24.5263 12.2436 24.1694 12.4856 23.82C12.6783 23.5426 12.871 23.2747 13.1123 23.0429L13.1104 23.0435Z" fill="#110F23"/>
<path d="M9.36327 9.39806C9.53828 9.42017 9.70823 9.46061 9.87313 9.51937C9.86049 9.51115 9.84785 9.50294 9.83585 9.49725C9.61725 9.39048 9.38285 9.36458 9.13393 9.33678C9.08654 9.33172 9.03916 9.32604 8.99178 9.32035C8.81108 9.29824 8.62913 9.28687 8.44401 9.28687C8.11674 9.28687 7.78 9.32161 7.42556 9.39174C7.29984 9.41638 7.18611 9.46503 7.07871 9.52884C7.2733 9.47893 7.47358 9.45429 7.6688 9.43471C8.2709 9.37405 8.81361 9.3292 9.36327 9.39869V9.39806Z" fill="#110F23"/>
<path d="M27.9102 20.8146C27.8584 20.5056 27.8224 20.1954 27.7958 19.9604C27.7807 19.8271 27.7674 19.6931 27.7541 19.5598C27.7187 19.2073 27.6827 18.8427 27.6164 18.4889C27.5456 18.113 27.4818 17.7295 27.4199 17.3593C27.3807 17.1262 27.3422 16.893 27.3011 16.6599L27.2689 16.4729C27.1691 15.8948 27.0661 15.2965 26.8304 14.7443C26.7711 14.6053 26.7262 14.46 26.6832 14.3204C26.6295 14.1466 26.579 13.9817 26.5025 13.8257C26.452 13.7221 26.4015 13.6184 26.3515 13.5148C26.1361 13.0694 25.9131 12.6082 25.6604 12.1735C25.5119 11.9177 25.3723 11.6517 25.2377 11.3945C25.1429 11.2132 25.0444 11.0262 24.9439 10.8442C24.8485 10.6718 24.7474 10.4986 24.6495 10.3312C24.5219 10.1126 24.3892 9.88644 24.2685 9.65773C24.0436 9.23317 23.77 8.82692 23.506 8.43395C23.4194 8.3057 23.3335 8.17681 23.2482 8.04792C23.1149 7.84449 22.9386 7.66759 22.768 7.49637C22.7168 7.44519 22.6663 7.39402 22.6164 7.34221C22.5159 7.23797 22.4281 7.12298 22.3435 7.01242C22.2215 6.8532 22.1059 6.70221 21.9574 6.58217C21.6889 6.3642 21.5278 6.07673 21.3718 5.79874C21.282 5.63953 21.1898 5.47463 21.0799 5.32995C21.0375 5.27436 20.999 5.21686 20.9617 5.16126C20.9011 5.07092 20.8436 4.98563 20.7747 4.91171C20.3009 4.40564 19.7531 4.11249 19.1472 4.03983C18.5091 3.96339 17.8729 4.00572 17.1147 4.0929C16.5379 4.15924 16.0615 4.38669 15.6597 4.78788C15.3217 5.12525 15.112 5.53844 15.0355 6.01671C15.2263 6.00092 15.4196 5.97312 15.6073 5.94658C15.8057 5.91815 16.011 5.88909 16.2163 5.87329C16.9296 5.81833 17.5861 5.85118 18.2235 5.97438C18.7618 6.07863 19.175 6.37999 19.508 6.66114C19.6286 6.76286 19.7588 6.86963 19.9041 6.95935C19.9471 6.98588 20.026 7.03453 20.045 7.12235C20.0526 7.15773 20.0526 7.21269 20.009 7.27651C19.9559 7.35422 19.8536 7.42687 19.6697 7.334C19.4688 7.23291 19.3064 7.08634 19.1497 6.94481C19.1213 6.91954 19.0935 6.89427 19.0651 6.869C18.7612 6.60049 18.3979 6.44696 17.8489 6.35535C17.3175 6.2669 16.7565 6.26122 16.0849 6.33703C15.9826 6.3484 15.8808 6.36104 15.7791 6.37367C15.5751 6.39895 15.364 6.42422 15.1549 6.44254C14.9774 6.4577 14.8087 6.52025 14.6072 6.64408C13.8496 7.11098 13.2886 7.74403 12.8918 8.57926C12.8571 8.65318 12.8173 8.72394 12.7787 8.79281C12.725 8.88884 12.6732 8.98108 12.6353 9.07775C12.9038 8.79913 13.2387 8.65445 13.6563 8.63612C13.8515 8.62728 14.0493 8.62917 14.2401 8.63107C14.4865 8.6336 14.7417 8.63612 14.99 8.61527C15.5094 8.57168 16.0356 8.59127 16.5449 8.61022L16.6377 8.61338C17.0825 8.62981 17.526 8.61085 17.9007 8.59063C18.3872 8.56347 18.8282 8.72394 19.2369 8.89074C19.4044 8.95834 19.5288 9.0847 19.6489 9.20726C19.6798 9.23822 19.7101 9.26981 19.7411 9.29951C19.8795 9.43218 20.0153 9.57118 20.1467 9.70575C20.2187 9.77967 20.2908 9.85359 20.364 9.92687C20.5593 10.1227 20.5757 10.3761 20.5706 10.5498C20.5675 10.6787 20.5056 10.7975 20.402 10.8752C20.292 10.958 20.1505 10.9851 20.014 10.9497C19.9041 10.9207 19.8182 10.9327 19.6861 10.9946C19.5914 11.0395 19.4953 11.0881 19.4018 11.1349C19.151 11.2619 18.8913 11.3926 18.6108 11.4729C18.2678 11.5708 18.0106 11.7982 17.7844 12.0288C17.7017 12.1129 17.6031 12.183 17.4736 12.2481C17.2127 12.3808 16.934 12.4692 16.6649 12.5551C16.4918 12.6101 16.313 12.6676 16.1437 12.7346C15.5359 12.9765 14.8921 13.0669 14.2843 13.1389C13.8351 13.192 13.4169 13.1389 13.0416 12.9791L13.0024 12.9626C12.8318 12.8893 12.6713 12.8205 12.4938 12.8344C12.4433 12.8382 12.3706 12.8217 12.3232 12.7769C12.2986 12.7529 12.2834 12.7497 12.2828 12.7497C12.2803 12.7497 12.2664 12.7567 12.2455 12.7845C12.2013 12.8439 12.2158 12.8799 12.2518 12.9153C12.37 13.0309 12.5191 13.1301 12.7231 13.2274C13.0334 13.3752 13.3126 13.4131 13.602 13.3461C13.7429 13.3133 13.8882 13.3183 14.0291 13.3228L14.0834 13.3247C14.3715 13.3322 14.6628 13.2886 14.9445 13.2457C15.1638 13.2122 15.3906 13.1774 15.6187 13.1667C15.9402 13.1515 16.2852 13.1061 16.7041 13.0233C17.2285 12.9203 17.581 12.7466 17.8464 12.461C18.0011 12.2942 18.173 12.1413 18.3385 11.9935C18.391 11.9467 18.4428 11.9 18.4946 11.8532C18.5369 11.8147 18.5874 11.7881 18.6317 11.7654C18.6424 11.7597 18.6532 11.7547 18.6633 11.749C18.7612 11.6953 18.8635 11.7205 18.9368 11.8153C18.9747 11.864 18.9912 11.9214 18.983 11.977C18.9754 12.0295 18.9463 12.0762 18.9008 12.1085C18.7062 12.2468 18.5312 12.418 18.3619 12.5829C18.2141 12.7276 18.0612 12.8767 17.8931 13.0075C17.4888 13.3215 17.0061 13.4232 16.5057 13.5066C16.2347 13.5521 15.9592 13.5767 15.6926 13.6014C15.3621 13.6311 15.0203 13.662 14.6918 13.7328C14.5035 13.7732 14.3077 13.7675 14.1181 13.7625L14.0354 13.7606C13.9078 13.7574 13.777 13.7726 13.6392 13.789C13.578 13.796 13.516 13.8029 13.4516 13.8092C13.5243 13.8806 13.5906 13.952 13.655 14.0222C13.7511 14.1258 13.8414 14.2237 13.9438 14.3115C14.3184 14.635 14.7771 14.7797 15.2541 14.9117C15.3824 14.9471 15.5056 14.9983 15.6243 15.0469C15.685 15.0716 15.745 15.0968 15.8063 15.1196C15.9769 15.1834 16.138 15.2434 16.3136 15.2314C16.4204 15.2238 16.4975 15.2453 16.5505 15.2952C16.5815 15.3243 16.6175 15.378 16.6163 15.4677C16.6131 15.6743 16.4261 15.6819 16.3465 15.6857H16.3338C16.035 15.7008 15.7633 15.5839 15.546 15.4911C15.263 15.3698 15.0298 15.2902 14.8119 15.2402C14.2767 15.1183 13.8117 14.8441 13.4308 14.4265C13.1288 14.0961 12.7124 13.6816 12.1665 13.4112C11.9467 13.3019 11.8184 13.1484 11.7843 12.9551C11.7382 12.6865 11.8506 12.4724 12.109 12.3365C12.1394 12.3207 12.1457 12.3081 12.1697 12.2474C12.2209 12.1179 12.2657 11.9815 12.31 11.8501C12.4047 11.5657 12.502 11.2726 12.6663 11.0085C12.6909 10.9693 12.7162 10.9314 12.7434 10.8954C12.648 10.9864 12.5526 11.0786 12.4622 11.1734C12.2253 11.4211 12.1059 11.6681 12.0876 11.9505V11.965C12.0857 11.9865 12.0844 12.0105 12.0781 12.0358C12.0756 12.0465 12.0737 12.0566 12.0711 12.0674C12.0553 12.1451 12.0187 12.3264 11.8064 12.2879C11.663 12.262 11.6036 12.1546 11.6308 11.9682L11.6371 11.924C11.6535 11.8065 11.6706 11.6858 11.7066 11.5632C11.6782 11.5594 11.6491 11.5506 11.6226 11.5323C11.56 11.4899 11.5297 11.4135 11.531 11.3054C11.5322 11.2315 11.5297 11.1551 11.5272 11.0818C11.5208 10.9024 11.5145 10.7172 11.5569 10.5309C11.6125 10.287 11.7022 10.0109 11.9517 9.81126C12.0099 9.7645 12.0585 9.70069 12.1103 9.63309C12.1368 9.59897 12.1627 9.56423 12.1905 9.532C12.1918 9.53074 12.1931 9.52948 12.1937 9.52821C12.0484 9.21611 12.183 8.95076 12.3011 8.71699C12.3169 8.68603 12.3321 8.65508 12.3472 8.62475C12.4477 8.41752 12.5671 8.21788 12.6827 8.02455C12.72 7.96263 12.7566 7.90072 12.7933 7.83817C12.943 7.58229 13.113 7.35927 13.3095 7.16026C12.8988 7.0339 12.4654 6.91828 12.0212 6.89048C11.0691 6.83109 10.1985 7.01178 9.43341 7.42814C8.84521 7.74846 8.18119 8.14459 7.75094 8.79786C7.73515 8.82124 7.71935 8.84525 7.70293 8.86862C7.69535 8.87999 7.68776 8.89137 7.67955 8.90274C8.03272 8.85283 8.34672 8.83767 8.63924 8.85725C8.71064 8.86231 8.78266 8.8661 8.85468 8.86989C9.22555 8.88947 9.60841 8.90906 9.9698 9.07775C9.97106 9.07775 9.97359 9.07901 9.97612 9.07964C9.99002 9.08343 10.0115 9.08975 10.0323 9.10365C10.0481 9.11502 10.0696 9.12576 10.0917 9.13713C10.1682 9.17631 10.347 9.26855 10.2465 9.47135C10.2137 9.53769 10.1688 9.57876 10.1132 9.59455C10.0974 9.59897 10.0816 9.60087 10.0665 9.60087C10.4133 9.75882 10.7387 10.004 11.0502 10.3394C11.1077 10.4014 11.1178 10.4626 11.1152 10.5031C11.1133 10.5435 11.0975 10.6042 11.0331 10.661C10.9295 10.752 10.8196 10.7362 10.7065 10.6143C10.3874 10.2693 10.0109 10.0286 9.58693 9.90034C9.13204 9.76198 8.65062 9.79925 8.18435 9.83527L8.13128 9.83906C7.92595 9.85485 7.71619 9.88202 7.51339 9.90918C7.42304 9.92119 7.33333 9.93319 7.24298 9.94393C7.09388 9.96162 6.96436 10.0368 6.82726 10.1158C6.80578 10.1278 6.78493 10.1404 6.76345 10.1524C6.66489 10.208 6.65036 10.2984 6.6352 10.4412C6.63267 10.4658 6.63014 10.4898 6.62698 10.5132C6.61561 10.594 6.61751 10.6787 6.62256 10.7735C6.67121 10.7059 6.70975 10.6351 6.74639 10.5631C6.91382 10.2371 7.19686 10.0513 7.63659 9.97805C8.18625 9.88707 8.75739 9.88265 9.33548 9.96478C9.477 9.985 9.58567 10.0545 9.69055 10.1221C9.73035 10.1474 9.76762 10.172 9.80616 10.1929C10.2187 10.4178 10.5346 10.6945 10.7715 11.0382C10.8341 11.1285 10.9169 11.2069 11.0053 11.2903C11.0761 11.3573 11.1494 11.4261 11.2132 11.5038L11.2258 11.5196C11.4014 11.7332 11.5828 11.9537 11.6194 12.2702C11.6567 12.5924 11.5524 12.756 11.2479 12.8546C10.8663 12.9778 10.4455 13.0454 9.92368 13.0681C9.66843 13.0789 9.40877 13.0941 9.15795 13.1086C9.03159 13.1162 8.90523 13.1231 8.7795 13.1301C8.43833 13.1484 8.07568 13.1155 7.66944 13.0283C7.25814 12.9399 6.95299 12.6828 6.70785 12.4174C6.7306 12.4894 6.76219 12.5602 6.80262 12.6309C6.93024 12.8546 7.09704 13.1054 7.37187 13.2722C7.52918 13.3676 7.70419 13.3973 7.93985 13.3682C8.03651 13.3569 8.13381 13.3499 8.22984 13.3468C8.36062 13.3404 8.45792 13.427 8.46929 13.5597C8.47308 13.6033 8.47055 13.748 8.26901 13.7827C8.08327 13.8149 7.89562 13.8187 7.71177 13.8168C7.81981 13.9053 7.96449 13.9312 8.14708 13.9388C8.20331 13.9407 8.25954 13.9388 8.31956 13.9362C8.36062 13.9343 8.40169 13.9331 8.44276 13.9331H8.44465C8.57101 13.9331 8.66072 14.0158 8.66704 14.1397C8.67399 14.2654 8.59312 14.357 8.4655 14.3677C7.99418 14.4094 7.51592 14.3823 7.20318 13.9091C7.02059 14.1049 6.83548 14.321 6.71354 14.5699C6.59855 14.8043 6.59855 15.0633 6.71354 15.4089C6.85633 15.8398 7.10588 16.2322 7.47675 16.61C7.78253 16.9208 8.18688 16.996 8.57796 17.0301C9.17879 17.0832 9.76573 17.1255 10.3394 17.0668C10.7564 17.0238 11.1816 16.9935 11.5922 16.9638C12.1034 16.9271 12.6322 16.8892 13.1477 16.8273C14.5313 16.6612 15.7482 16.4299 16.8677 16.121C17.0762 16.0635 17.2916 16.0249 17.4989 15.9883C17.7396 15.9453 17.9885 15.9011 18.2235 15.8266C18.5331 15.728 18.8629 15.6225 19.1895 15.5069C19.58 15.3685 19.9843 15.2573 20.3912 15.1758C20.4203 15.1701 20.4474 15.1657 20.4746 15.1619C20.1909 15.1082 19.9155 15.1025 19.7184 15.1044C19.6356 15.1227 19.5705 15.1164 19.5193 15.0848C19.4745 15.057 19.4442 15.0134 19.4296 14.9547C19.4006 14.8346 19.4612 14.7298 19.5888 14.6817C19.6261 14.6678 19.6628 14.6672 19.6918 14.666H19.7051C20.105 14.6508 20.4683 14.6893 20.8139 14.7854C21.2163 14.8972 21.5158 15.1145 21.7028 15.4317L21.7148 15.4519C21.7515 15.5119 21.8488 15.6711 21.67 15.7861C21.627 15.8139 21.5847 15.8278 21.543 15.8278C21.5278 15.8278 21.5133 15.8259 21.4987 15.8228C21.4059 15.8 21.3547 15.7122 21.3275 15.6642C21.2511 15.5309 21.1456 15.4254 21.0053 15.3432C21.0432 15.3894 21.0792 15.4443 21.1146 15.5088C21.332 15.9137 21.2359 16.3819 20.8758 16.6738C20.3754 17.0788 19.8845 17.3896 19.3734 17.624C19.1801 17.7131 18.9912 17.8293 18.8092 17.9424C18.6424 18.0454 18.4706 18.1522 18.2899 18.2413C18.0877 18.3411 17.8862 18.4428 17.6846 18.5452C17.2999 18.7404 16.9018 18.9419 16.5013 19.1239C16.1096 19.3014 15.6856 19.3557 15.2756 19.4088C15.1713 19.4221 15.0671 19.4354 14.9635 19.4511C14.9319 19.4556 14.9009 19.46 14.8693 19.4644C14.7038 19.4872 14.5478 19.5093 14.4006 19.5687C14.2376 19.635 14.0613 19.6679 13.8654 19.666C13.463 19.6634 13.0485 19.695 12.6499 19.7247C12.1703 19.7601 11.675 19.7974 11.1828 19.779C10.7343 19.762 10.2731 19.7418 9.77268 19.7165C9.43088 19.6988 9.08466 19.7361 8.82183 19.7702C8.40611 19.8239 8.00429 19.7253 7.55635 19.4606C7.52097 19.4398 7.48749 19.4113 7.45526 19.3848C7.43442 19.3677 7.40346 19.3418 7.38198 19.3286C7.37503 19.3583 7.38514 19.4303 7.38893 19.4606C7.39272 19.4872 7.39588 19.5131 7.39777 19.5371C7.41736 19.8024 7.52539 20.0501 7.7282 20.2933C7.75473 20.3255 7.7838 20.3559 7.81223 20.3862C7.82676 20.402 7.84192 20.4172 7.85645 20.433C7.89373 20.4734 7.92342 20.5081 7.94806 20.5366C7.96575 20.5574 7.98534 20.5802 7.99924 20.5941C8.02072 20.5783 8.05673 20.5473 8.09148 20.517C8.11233 20.4987 8.13507 20.4791 8.16161 20.4563C8.18435 20.4367 8.2071 20.4165 8.22984 20.3963C8.25511 20.3736 8.28102 20.3508 8.30692 20.3287C8.70685 19.9869 9.14089 19.9364 9.67286 20.1701C10.3369 20.4614 10.8682 20.9314 11.3825 21.3857L11.4741 21.4666C11.5821 21.562 11.7085 21.6435 11.85 21.7092C11.953 21.7572 12.0686 21.8197 12.1741 21.9259C12.3043 21.797 12.4565 21.7092 12.6379 21.6599C12.888 21.5917 13.2583 21.6991 13.5179 21.9158C13.734 22.0958 13.8421 22.3201 13.8225 22.5476C13.7966 22.8464 13.6746 23.1048 13.4699 23.295C13.19 23.5546 12.9929 23.8642 12.7838 24.1915L12.7055 24.3141C12.6018 24.4752 12.6183 24.6647 12.636 24.8656C12.6372 24.8764 12.6404 24.889 12.6442 24.9004C12.6537 24.9326 12.6663 24.9762 12.653 25.0242C12.569 25.3249 12.7288 25.5176 12.9133 25.7413C12.9607 25.7981 13.0094 25.8569 13.0536 25.9182C13.1123 25.9997 13.2134 26.0306 13.3202 26.0635C13.3499 26.073 13.3796 26.0818 13.408 26.0919C13.4769 26.1159 13.5457 26.1412 13.614 26.1658C13.9198 26.277 14.2363 26.3927 14.5636 26.4306L14.5724 26.4318C14.6078 26.4362 14.6419 26.44 14.6716 26.4394C15.0785 26.4249 15.491 26.4299 15.8897 26.435C16.3004 26.44 16.7249 26.4451 17.1419 26.4287C17.248 26.4249 17.3542 26.423 17.4603 26.423C17.9904 26.423 18.5211 26.4691 19.0367 26.514L19.2761 26.5348C19.7146 26.5721 20.2307 26.5948 20.7387 26.4779C20.7943 26.4653 20.8474 26.4647 20.8998 26.4647C20.9169 26.4647 20.9333 26.4647 20.9504 26.464C21.7205 26.4343 22.4938 26.3383 23.2482 26.1797C23.9533 26.0313 24.5434 25.8474 25.0519 25.6174L25.124 25.5846C25.6161 25.3628 26.1247 25.1329 26.5638 24.805C27.0314 24.4562 27.3637 24.0266 27.5791 23.4915C27.775 23.0056 27.9095 22.4964 27.9797 21.9777C28.0346 21.5784 27.967 21.1772 27.9083 20.8228L27.9102 20.8146ZM11.3048 13.4125C11.2883 13.4744 11.2429 13.5275 11.1727 13.5673L11.1595 13.5748C11.1178 13.5989 11.0748 13.6235 11.0299 13.6456L11.0148 13.6532C10.8771 13.7208 10.7469 13.7846 10.6256 13.868C10.1878 14.17 9.82449 14.5788 9.44667 15.1929C9.37528 15.3091 9.29757 15.3458 9.22934 15.3458C9.19143 15.3458 9.15668 15.335 9.12636 15.3199C9.0815 15.2984 8.9425 15.2106 9.04106 14.9976C9.10803 14.8504 9.19712 14.7133 9.3121 14.5781C9.47953 14.3829 9.64695 14.1877 9.82701 13.9767C9.54018 14.0064 9.29947 13.9931 9.07644 13.9356C8.83952 13.8749 8.85721 13.7044 8.86795 13.6532C8.88501 13.5748 8.92734 13.5344 8.95956 13.5148C9.03095 13.4712 9.11372 13.4845 9.18448 13.5035C9.44036 13.5711 9.7114 13.5666 10.062 13.4883C10.3697 13.4201 10.6705 13.3164 10.9548 13.1806C11.1456 13.0896 11.2384 13.1838 11.277 13.2476C11.318 13.3158 11.3143 13.3752 11.3048 13.4131V13.4125ZM21.0559 14.364C21.0388 14.3943 20.9864 14.4695 20.8846 14.4695C20.8455 14.4695 20.7987 14.4581 20.7444 14.429C20.6389 14.3722 20.5195 14.3393 20.3786 14.3286C20.2946 14.3223 20.2112 14.3121 20.1303 14.302C20.0728 14.2951 20.0153 14.2881 19.9584 14.2825C19.8245 14.2692 19.7531 14.1826 19.7569 14.0386V14.031C19.7626 13.9842 19.7967 13.8314 20.033 13.8465C20.2844 13.8617 20.5694 13.8794 20.8373 13.9786C20.8815 13.9944 20.9251 14.0158 20.9655 14.0424C21.0862 14.122 21.1216 14.2477 21.0565 14.3646L21.0559 14.364Z" fill="#110F23"/>
<path d="M14.9205 12.6562L15.0172 12.7819C15.0172 12.7819 15.0203 12.7838 15.0216 12.7851C15.0475 12.8003 15.074 12.8142 15.1012 12.8268C15.4291 12.7655 15.7564 12.6828 16.0716 12.5577C16.2473 12.4875 16.4292 12.4294 16.6055 12.3732C16.8671 12.2898 17.1381 12.2032 17.3858 12.0775C17.4755 12.032 17.545 11.9859 17.6044 11.9334C17.6157 11.9132 17.6259 11.893 17.6353 11.8715C17.6511 11.8368 17.6732 11.7755 17.6935 11.7155L17.6732 11.5651C17.6347 11.2814 17.4628 11.0824 17.2803 10.8714C17.2563 10.8436 17.2322 10.8158 17.2082 10.7874L17.1482 10.7166C17.1154 10.6863 17.0838 10.6541 17.0528 10.6218C17.0351 10.6029 17.0124 10.5801 16.9915 10.5593C16.8702 10.5587 16.7483 10.5593 16.6257 10.5637C16.4912 10.5681 16.3566 10.5719 16.222 10.5764C15.8688 10.5865 15.5037 10.5978 15.1448 10.6199C15.1429 10.6206 15.141 10.6212 15.1391 10.6225C15.136 10.6237 15.1334 10.625 15.1303 10.6263C15.0835 10.6471 15.0368 10.6692 14.9906 10.6913L14.791 10.8474C14.422 11.1355 14.4903 12.099 14.9186 12.6556L14.9205 12.6562ZM16.7445 10.8171C16.826 10.8133 16.9006 10.8411 16.9555 10.8948C17.0124 10.9497 17.0433 11.0268 17.0421 11.1115C17.0414 11.1886 17.0143 11.2543 16.9637 11.301C16.9094 11.3516 16.8317 11.3775 16.7325 11.3775C16.7205 11.3775 16.7079 11.3775 16.6952 11.3762L16.6813 11.3743C16.5733 11.3509 16.4577 11.265 16.4583 11.0932C16.4583 10.9352 16.5739 10.824 16.7445 10.8171ZM16.4671 11.5506C16.4981 11.5209 16.5531 11.4874 16.6403 11.4943C16.8115 11.5089 16.922 11.6125 16.9277 11.7654C16.9302 11.8425 16.9075 11.9094 16.8614 11.9587C16.814 12.0099 16.7451 12.0383 16.6636 12.0409C16.6598 12.0409 16.6554 12.0409 16.6516 12.0409C16.4848 12.0409 16.3989 11.9221 16.3901 11.8096C16.385 11.6902 16.4115 11.6043 16.4678 11.5506H16.4671ZM15.376 11.1481C15.5195 11.1387 15.6768 11.1993 15.7974 11.3105C15.9048 11.4097 15.9674 11.5348 15.9687 11.6529C15.9718 11.8867 15.7779 12.0674 15.5176 12.0724C15.5112 12.0724 15.5049 12.0724 15.4986 12.0724C15.1574 12.0724 14.9515 11.8854 14.9325 11.5563C14.9174 11.2972 15.1518 11.1627 15.376 11.1481Z" fill="#110F23"/>
<path d="M10.45 11.0963C10.4481 11.0906 10.4462 11.0856 10.4443 11.0799C10.395 11.0205 10.3426 10.963 10.2888 10.9068C10.2434 10.8594 10.2092 10.8272 10.1606 10.7969C10.1113 10.7659 10.0658 10.745 10.0248 10.7299C10.0203 10.728 10.0153 10.7267 10.0109 10.7255L9.49342 10.7634C9.17942 10.7861 8.87363 10.8089 8.56785 10.8322C8.56216 10.8354 8.55647 10.8385 8.55079 10.8423C8.53436 10.8531 8.5192 10.8645 8.5034 10.8752C8.49645 10.8809 8.48887 10.8872 8.48192 10.8929C8.45286 10.9175 8.42506 10.9434 8.39852 10.9706C8.39852 10.9706 8.39789 10.9712 8.39726 10.9719H8.39852L8.31134 11.1045C7.92215 11.694 7.92784 12.1988 8.32903 12.6935L8.33977 12.7068L8.34103 12.7112C8.36694 12.7371 8.39473 12.7611 8.42506 12.7807C8.52678 12.8458 8.6424 12.8856 8.75991 12.9127C8.79213 12.9203 8.82435 12.926 8.85721 12.931C8.95387 12.926 9.05053 12.9203 9.14657 12.9146C9.39802 12.9001 9.65832 12.8849 9.91483 12.8742C10.0999 12.866 10.2712 12.8521 10.4323 12.8319C10.4342 12.8312 10.4361 12.8306 10.438 12.8293C10.4531 12.823 10.4512 12.8236 10.4329 12.8312C10.4417 12.8293 10.4531 12.8217 10.4607 12.818C10.4803 12.8085 10.4992 12.7977 10.5176 12.7864C10.5239 12.7826 10.534 12.7737 10.5416 12.7699C10.5428 12.7693 10.5435 12.768 10.5447 12.7674C10.5491 12.7636 10.5776 12.732 10.5852 12.7251C10.5858 12.7245 10.5864 12.7232 10.5871 12.7226C10.594 12.7131 10.601 12.7036 10.6073 12.6935C10.6155 12.6802 10.6231 12.6663 10.6306 12.6524C10.6079 12.6019 10.6243 12.5444 10.6344 12.5096C10.6913 12.3169 10.661 12.1198 10.6294 11.912L10.7229 11.8955L10.6294 11.9101C10.6186 11.8425 10.5921 11.7755 10.5637 11.7047C10.5245 11.6081 10.4803 11.4981 10.4759 11.3705L10.4702 11.2145L10.4828 11.2208C10.4733 11.1791 10.4626 11.138 10.45 11.097V11.0963ZM9.02274 12.1628C8.95387 12.2373 8.85026 12.279 8.72327 12.2835C8.71568 12.2835 8.7081 12.2835 8.70115 12.2835C8.5868 12.2835 8.49582 12.2525 8.43011 12.1912C8.35999 12.1255 8.32208 12.027 8.31766 11.9C8.31323 11.7603 8.34545 11.6567 8.41685 11.5828C8.49582 11.5007 8.6146 11.4621 8.79087 11.4609H8.79276C8.96777 11.4609 9.10866 11.6719 9.11814 11.8621C9.12382 11.9853 9.0916 12.0895 9.02337 12.1628H9.02274ZM10.0336 12.3744C10.002 12.4048 9.94578 12.4401 9.85291 12.4401C9.84849 12.4401 9.84343 12.4401 9.83901 12.4401C9.73477 12.4364 9.60967 12.3883 9.60651 12.1798C9.60272 12.1205 9.61788 12.068 9.65326 12.0282C9.7057 11.9695 9.78531 11.9581 9.84912 11.9543C9.94515 11.9486 10.0033 11.9834 10.0349 12.0131C10.0665 12.0427 10.1037 12.0971 10.1037 12.1906C10.1037 12.286 10.0658 12.3428 10.0336 12.3744ZM9.91735 11.7155C9.90472 11.7167 9.89271 11.718 9.88071 11.718C9.7493 11.718 9.64821 11.6264 9.61852 11.476C9.60335 11.3971 9.61788 11.3219 9.65895 11.265C9.70065 11.2075 9.76699 11.1709 9.84596 11.1614C9.98685 11.1443 10.0829 11.2246 10.1334 11.4002L10.1372 11.4198C10.1492 11.5815 10.0627 11.6978 9.91735 11.7161V11.7155Z" fill="#110F23"/>
</svg>
