<svg width="32" height="32" viewBox="0 0 32 32" fill="none" xmlns="http://www.w3.org/2000/svg">
<path d="M17.3076 14.376H14.7002V17.6199H17.3076V14.376Z" fill="#110F23"/>
<path d="M16 3C8.82024 3 3 8.82024 3 16C3 23.1798 8.82024 29 16 29C23.1798 29 29 23.1798 29 16C29 8.82024 23.1804 3 16 3ZM21.9826 14.376H19.386V17.6199H21.9826V19.6977H19.386V22.6979H17.3082V19.6977H14.7008V22.6979H12.623V19.6977H10.0186V17.6199H12.623V14.376H10.0186V12.2982H12.623V9.30207H14.7008V12.2982H17.3082V9.30207H19.386V12.2982H21.9826V14.376Z" fill="#110F23"/>
</svg>
