<svg width="32" height="32" viewBox="0 0 32 32" fill="none" xmlns="http://www.w3.org/2000/svg">
<path d="M23.8849 6.395L17.3324 2.915C16.9211 2.69592 16.4622 2.58133 15.9961 2.58133C15.5301 2.58133 15.0712 2.69592 14.6599 2.915L8.10738 6.395C7.90657 6.50134 7.73854 6.66042 7.62137 6.85511C7.5042 7.04981 7.44232 7.27276 7.44238 7.5V24.5C7.44232 24.7272 7.5042 24.9502 7.62137 25.1449C7.73854 25.3396 7.90657 25.4986 8.10738 25.605L14.6599 29.085C15.0709 29.3049 15.5299 29.42 15.9961 29.42C16.4623 29.42 16.9213 29.3049 17.3324 29.085L23.8849 25.605C24.0857 25.4986 24.2537 25.3396 24.3709 25.1449C24.4881 24.9502 24.5499 24.7272 24.5499 24.5V7.5C24.5499 7.27276 24.4881 7.04981 24.3709 6.85511C24.2537 6.66042 24.0857 6.50134 23.8849 6.395V6.395ZM14.5749 11.615L8.57488 14.7975V8.5325L14.5749 11.615ZM15.4274 12.45V19.2975C15.3473 19.2704 15.2696 19.237 15.1949 19.1975L8.95988 15.885L15.4274 12.45ZM16.5649 12.45L23.0324 15.885L16.7974 19.1975C16.7227 19.237 16.6449 19.2704 16.5649 19.2975V12.45ZM17.4174 11.615L23.4174 8.5325V14.7975L17.4174 11.615ZM15.1949 3.92C15.4415 3.78868 15.7167 3.72 15.9961 3.72C16.2756 3.72 16.5507 3.78868 16.7974 3.92L23.2499 7.3425L16.1524 10.985C16.0486 10.9627 15.9412 10.9627 15.8374 10.985L8.74988 7.3425L15.1949 3.92ZM23.3499 24.6L16.7974 28.08C16.5509 28.2117 16.2757 28.2807 15.9961 28.2807C15.7166 28.2807 15.4414 28.2117 15.1949 28.08L8.63988 24.6C8.62204 24.59 8.60712 24.5755 8.5966 24.558C8.58608 24.5404 8.58031 24.5204 8.57988 24.5V16.975L14.6599 20.205C15.0715 20.4232 15.5303 20.5373 15.9961 20.5373C16.462 20.5373 16.9208 20.4232 17.3324 20.205L23.4124 16.975V24.5C23.412 24.5208 23.4059 24.541 23.3949 24.5586C23.3839 24.5762 23.3684 24.5905 23.3499 24.6V24.6Z" fill="#110F23"/>
<path d="M6.47984 24.75V24.185H5.33984V24.75C5.33942 25.2928 5.487 25.8254 5.76672 26.2906C6.04644 26.7558 6.44771 27.1359 6.92734 27.39L7.62734 27.7625L8.16234 26.7625L7.46234 26.39C7.16441 26.2324 6.91532 25.9963 6.74211 25.7072C6.5689 25.4181 6.4782 25.087 6.47984 24.75V24.75Z" fill="#110F23"/>
<path d="M25.0729 4.605L24.3729 4.235L23.8379 5.235L24.5379 5.605C24.836 5.7636 25.0852 6.00068 25.2583 6.29061C25.4315 6.58054 25.5221 6.9123 25.5204 7.25V7.82H26.6604V7.25C26.6601 6.70669 26.5123 6.17367 26.2327 5.70782C25.9531 5.24198 25.5522 4.86081 25.0729 4.605V4.605Z" fill="#110F23"/>
</svg>
