<svg width="32" height="32" viewBox="0 0 32 32" fill="none" xmlns="http://www.w3.org/2000/svg">
<path d="M16 3C8.82019 3 3 8.82036 3 16C3 23.1796 8.82019 29 16 29C23.1798 29 29 23.1796 29 16C29 8.82036 23.1798 3 16 3ZM24.5712 15.788C24.3224 16.0045 23.8539 16.3475 23.8539 16.3475C23.8539 16.3475 23.8782 16.5054 23.9447 16.6304C24.0113 16.7554 24.1723 16.9424 24.1231 17.1128C24.0739 17.2832 23.7281 17.4163 23.8267 17.6045C23.9253 17.7928 24.1697 17.8507 24.0993 18.0205C24.029 18.1904 23.6866 18.4825 23.7208 18.609C23.7549 18.7355 24.0328 19.9009 23.3925 20.1042C22.9108 20.2569 21.5865 20.3437 20.9646 20.3767C20.6963 20.3912 20.4545 20.5432 20.3248 20.7786C20.2276 20.9551 20.1342 21.1986 20.086 21.524C19.9647 22.3497 19.15 24.2453 19.15 24.2453C19.15 24.2453 19.1112 24.3337 19.0718 24.4271C19.021 24.5486 18.9174 24.6401 18.7907 24.6757C16.9008 25.1964 14.8962 25.1222 13.05 24.463C12.8242 24.384 12.7051 24.1368 12.784 23.9109C12.7873 23.9016 12.7909 23.8922 12.7949 23.883C12.9609 23.5001 13.1007 23.1174 13.2041 22.8106C13.249 22.6773 13.2996 22.5465 13.3546 22.417C13.5142 22.0403 13.8413 21.2782 14.0606 20.8147C16.4006 21.3328 17.8233 20.0272 18.1928 19.6294C18.2298 19.5887 18.2266 19.5258 18.1859 19.4889C18.1753 19.4793 18.163 19.4722 18.1495 19.4679C16.9591 19.068 15.4252 19.3722 14.3753 20.1664C14.7095 19.4953 15.086 18.7936 15.4968 18.1011C17.928 18.4331 19.2185 16.9844 19.5429 16.5547C19.5752 16.511 19.566 16.4493 19.5221 16.417C19.5112 16.4091 19.4989 16.4033 19.4857 16.4002C18.3572 16.1264 16.9991 16.4829 16.0298 17.2404C16.3104 16.807 16.6039 16.3846 16.9084 15.9834C19.4429 14.8004 19.8118 12.4964 19.8653 11.8981C19.8702 11.8445 19.8308 11.7972 19.7775 11.7923C19.7634 11.7911 19.7492 11.7929 19.7359 11.7975C19.1616 11.9988 16.9766 12.9481 16.5391 15.8414C16.3775 16.0577 16.1303 16.4023 15.8258 16.8679C16.2458 15.1172 15.5675 13.9027 15.3179 13.5321C15.2876 13.4872 15.2268 13.4754 15.182 13.5057C15.1701 13.5137 15.1602 13.5243 15.1527 13.5366C14.8652 14.0162 13.9528 15.8352 15.1772 17.9103C14.8446 18.4717 14.4804 19.1294 14.106 19.8771C14.232 17.8455 13.1499 16.7202 12.7933 16.408C12.7531 16.3725 12.6916 16.3763 12.6561 16.4165C12.647 16.4267 12.6401 16.4389 12.6361 16.4521C12.4734 16.9741 12.0272 18.9234 13.724 20.6641C13.5123 21.1158 13.3 21.5957 13.0906 22.1017C13.0752 22.0961 13.062 22.0916 13.0533 22.089C12.7557 21.9992 12.4704 21.8729 12.204 21.7125C11.9854 21.5812 11.7528 21.4746 11.5107 21.3947C10.5681 21.0854 10.7064 20.6306 10.214 19.7204C10.1819 19.6611 9.79224 19.2545 9.70852 19.1807C9.68824 19.1633 9.43951 19.0181 9.31315 18.7517C9.19788 18.5074 9.13219 18.2805 9.10775 18.0594C9.0762 17.7631 8.95383 17.5683 8.66488 17.4683C7.27683 16.988 7.89805 15.1878 7.94624 14.9463C7.98767 14.7423 7.80861 14.2973 7.74275 14.0519C7.73685 14.0224 7.72905 13.986 7.71969 13.942C7.61899 13.4591 7.84415 13.0502 8.01055 12.8824C8.17695 12.7146 8.75311 12.446 8.87479 12.2874C8.99387 12.1328 9.08868 11.9558 9.21105 11.8045C9.37295 11.6031 9.86729 11.2087 10.5353 10.8511C10.9394 10.6353 11.0104 10.0699 11.1645 9.89693C11.4276 9.60001 11.8265 9.60001 12.1227 9.33273C12.2721 9.19788 12.4886 9.1308 12.6275 8.98849C13.3152 8.28372 14.2367 7.99807 15.1481 7.82837C15.762 7.7138 16.4458 7.89025 17.0877 7.99945C17.1792 8.01557 17.2698 8.03707 17.3588 8.06393C18.7993 8.11195 20.5337 8.41285 21.1601 9.02403C21.4699 9.32511 21.7015 9.69725 21.8346 10.1082C21.9393 10.428 22.0819 10.7341 22.2591 11.0203L22.6442 11.6474C22.8888 12.0438 22.9677 12.5205 22.864 12.9746C22.804 13.2333 22.7723 13.5043 22.8494 13.655C22.9699 13.8907 23.3391 14.2738 23.5601 14.4929C23.6676 14.5989 23.7863 14.6929 23.9142 14.7731C24.2103 14.9607 24.7724 15.3202 24.7731 15.351C24.7738 15.3933 24.8199 15.5715 24.5712 15.788Z" fill="#110F23"/>
</svg>
