<svg width="32" height="32" viewBox="0 0 32 32" fill="none" xmlns="http://www.w3.org/2000/svg">
<path d="M16.0004 3.21249C13.4713 3.21249 10.9989 3.96247 8.89604 5.36758C6.79315 6.77268 5.15414 8.76982 4.18629 11.1064C3.21843 13.443 2.9652 16.0142 3.4586 18.4947C3.95201 20.9752 5.1699 23.2538 6.95827 25.0421C8.74663 26.8305 11.0251 28.0484 13.5057 28.5418C15.9862 29.0352 18.5574 28.782 20.894 27.8141C23.2306 26.8462 25.2277 25.2072 26.6328 23.1043C28.0379 21.0015 28.7879 18.5291 28.7879 16C28.7839 12.6098 27.4354 9.35951 25.0381 6.96225C22.6409 4.56499 19.3906 3.21646 16.0004 3.21249V3.21249ZM16.0004 27.5325C13.7195 27.5325 11.4898 26.8561 9.59328 25.5889C7.69677 24.3217 6.21862 22.5206 5.34576 20.4133C4.47289 18.306 4.24451 15.9872 4.68949 13.7501C5.13447 11.513 6.23284 9.45813 7.84569 7.84528C9.45854 6.23244 11.5134 5.13407 13.7505 4.68909C15.9876 4.2441 18.3064 4.47249 20.4137 5.34535C22.521 6.21822 24.3221 7.69637 25.5893 9.59288C26.8565 11.4894 27.5329 13.7191 27.5329 16C27.5296 19.0576 26.3135 21.989 24.1515 24.151C21.9894 26.3131 19.058 27.5292 16.0004 27.5325V27.5325Z" fill="#110F23"/>
<path d="M22.0602 12.14C22.2163 12.126 22.3615 12.0541 22.4673 11.9384C22.5731 11.8228 22.6317 11.6717 22.6317 11.515C22.6317 11.3582 22.5731 11.2072 22.4673 11.0915C22.3615 10.9759 22.2163 10.904 22.0602 10.89H18.4452V7.74999C18.4529 7.66321 18.4426 7.57577 18.4147 7.49323C18.3868 7.41069 18.342 7.33486 18.2832 7.27056C18.2245 7.20627 18.1529 7.15493 18.0732 7.1198C17.9935 7.08467 17.9073 7.06653 17.8202 7.06653C17.7331 7.06653 17.6469 7.08467 17.5672 7.1198C17.4874 7.15493 17.4159 7.20627 17.3571 7.27056C17.2983 7.33486 17.2536 7.41069 17.2257 7.49323C17.1978 7.57577 17.1874 7.66321 17.1952 7.74999V10.885H14.6952V7.74999C14.7029 7.66321 14.6926 7.57577 14.6647 7.49323C14.6368 7.41069 14.592 7.33486 14.5332 7.27056C14.4745 7.20627 14.4029 7.15493 14.3232 7.1198C14.2435 7.08467 14.1573 7.06653 14.0702 7.06653C13.9831 7.06653 13.8969 7.08467 13.8172 7.1198C13.7374 7.15493 13.6659 7.20627 13.6071 7.27056C13.5483 7.33486 13.5036 7.41069 13.4757 7.49323C13.4478 7.57577 13.4374 7.66321 13.4452 7.74999V10.885H9.85018C9.68375 10.885 9.52415 10.9511 9.40647 11.0688C9.28879 11.1865 9.22268 11.3461 9.22268 11.5125V20.3675C9.22202 20.4503 9.23776 20.5324 9.269 20.6092C9.30024 20.6859 9.34636 20.7556 9.40469 20.8144C9.46302 20.8732 9.53242 20.9199 9.60888 20.9517C9.68534 20.9836 9.76735 21 9.85018 21H13.4277V24.2225C13.4417 24.3786 13.5135 24.5238 13.6292 24.6296C13.7449 24.7354 13.8959 24.794 14.0527 24.794C14.2094 24.794 14.3605 24.7354 14.4761 24.6296C14.5918 24.5238 14.6637 24.3786 14.6777 24.2225V21H17.1777V24.2225C17.1917 24.3786 17.2635 24.5238 17.3792 24.6296C17.4949 24.7354 17.6459 24.794 17.8027 24.794C17.9594 24.794 18.1105 24.7354 18.2261 24.6296C18.3418 24.5238 18.4137 24.3786 18.4277 24.2225V21H22.0602C22.2262 20.9993 22.3851 20.9329 22.5023 20.8153C22.6194 20.6977 22.6852 20.5385 22.6852 20.3725V15.775C22.6855 15.6927 22.6696 15.6112 22.6383 15.535C22.6071 15.4589 22.5611 15.3897 22.503 15.3314C22.4449 15.2731 22.3759 15.2269 22.2999 15.1953C22.2239 15.1637 22.1425 15.1475 22.0602 15.1475H14.0727C13.9166 15.1615 13.7713 15.2334 13.6656 15.349C13.5598 15.4647 13.5011 15.6157 13.5011 15.7725C13.5011 15.9292 13.5598 16.0803 13.6656 16.1959C13.7713 16.3116 13.9166 16.3835 14.0727 16.3975H21.4327V19.75H10.4752V12.14H22.0602Z" fill="#110F23"/>
</svg>
