<svg width="32" height="32" viewBox="0 0 32 32" fill="none" xmlns="http://www.w3.org/2000/svg">
<path d="M18.5901 13.5278L19.3645 15.0577H17.7945L19.5861 18.5913L24.2064 9.7042H20.5773L18.5901 13.5278Z" fill="#110F23"/>
<path d="M14.2196 15.0577H15.8415L14.6652 12.7369H13.0127L11.4368 9.7042H7.80775L15.9476 25.3591L16.0077 25.4711L16.0666 25.3591L17.8204 21.9858L14.2196 15.0577Z" fill="#110F23"/>
<path d="M16.0006 3C8.82021 3 3 8.82021 3 16.0006C3 23.181 8.82021 29 16.0006 29C23.181 29 29 23.1798 29 16.0006C29 8.82139 23.1798 3 16.0006 3ZM16.0006 27.806C9.49322 27.806 4.21873 22.5315 4.21873 16.0242C4.21873 9.5168 9.49322 4.24348 16.0006 4.24348C22.508 4.24348 27.7813 9.51797 27.7813 16.0242C27.7813 22.5304 22.5068 27.806 16.0006 27.806Z" fill="#110F23"/>
</svg>
