<svg width="32" height="32" viewBox="0 0 32 32" fill="none" xmlns="http://www.w3.org/2000/svg">
<g clip-path="url(#clip0_14366_332)">
<path d="M19.0444 8.46836C19.0444 8.46836 19.0537 8.48233 19.0584 8.49009L19.0646 8.47146C19.0646 8.47146 19.0491 8.47146 19.0429 8.47146C18.9917 8.20605 18.8364 7.98719 18.72 7.75127C18.675 7.56035 18.5664 7.39738 18.4841 7.22198C18.1271 6.45833 17.7624 5.69933 17.3992 4.93878C17.3076 4.74786 17.2129 4.5585 17.1011 4.33034C17.0484 5.21661 17.2346 6.00821 17.6056 6.75789C17.8167 7.18473 18.0681 7.58674 18.4174 7.9189C18.6114 8.11913 18.793 8.33332 19.0429 8.46836H19.0444ZM12.7055 10.3573C12.8327 10.2921 12.8576 10.1695 12.8684 10.0453C12.9197 9.39654 12.2165 8.934 11.6081 9.2227C11.1331 9.44776 10.8491 9.84822 10.6535 10.3216C10.4781 10.6848 10.3027 11.048 10.1258 11.4112C10.7622 10.9751 11.4312 10.6771 12.1933 10.5995C12.3842 10.5793 12.5782 10.5312 12.7055 10.3573ZM10.9748 21.1804C11.0804 22.5339 12.3531 23.7182 13.7314 23.7554C14.9204 23.7865 16.0224 23.4885 17.0468 22.8925C17.2564 22.7714 17.4659 22.6426 17.6522 22.4625C17.6196 22.4547 17.6087 22.4485 17.5994 22.4501C17.5575 22.461 17.5156 22.4718 17.4752 22.4858C16.4275 22.8505 15.4015 22.7869 14.4004 22.3166C13.8121 22.0403 13.3341 21.6228 12.9321 21.1152C12.9181 21.0873 12.9072 21.0563 12.8886 21.0314C12.4866 20.4711 12.2445 19.8518 12.17 19.1642C12.1451 18.9298 12.1638 18.6939 12.1374 18.4456C12.0986 18.4704 12.0753 18.4828 12.0567 18.4983C11.6112 18.8491 11.2977 19.2977 11.1114 19.8301C10.9577 20.2678 10.891 20.7179 10.9748 21.182V21.1804ZM19.7274 9.88081C19.687 9.67593 19.552 9.51295 19.4852 9.32049C19.4464 9.20873 19.3688 9.13578 19.2664 9.07369C18.3599 8.53355 17.6832 7.78231 17.23 6.82929C16.8078 5.94302 16.6557 5.01173 16.7566 4.03543C16.7705 3.89574 16.8419 3.75294 16.7581 3.60704C16.4399 3.05292 15.9619 2.75801 15.327 2.75491C14.6876 2.7518 14.194 3.03895 13.8758 3.60083C13.7516 3.82123 13.6569 4.05871 13.5452 4.28688C13.5172 4.34431 13.5172 4.39863 13.5328 4.45916C13.6011 4.72613 13.6787 4.98845 13.778 5.2461C14.1847 6.31243 14.8288 7.21578 15.6592 7.9903C16.6076 8.87657 17.7655 9.45707 18.8395 10.1602C18.956 10.2456 19.0708 10.3325 19.1872 10.4163C19.6373 10.7391 20.0564 11.0977 20.4802 11.4935C20.4584 11.3181 20.3684 11.1986 20.3079 11.0698C20.117 10.6724 19.9493 10.2626 19.7274 9.87926V9.88081ZM12.7334 17.6943C13.1044 17.5732 13.4846 17.491 13.8758 17.4972C14.4377 17.5065 14.9561 17.3528 15.4233 17.061C16.3111 16.5085 16.7954 15.6983 16.8373 14.649C16.8978 13.1543 15.847 11.8613 14.3771 11.6301C13.6119 11.509 12.8529 11.6084 12.1219 11.8474C9.89453 12.5753 8.51312 14.0964 7.94503 16.3626C7.84104 16.7801 7.7805 17.2085 7.80844 17.6431C7.79292 18.0016 7.83017 18.354 7.89226 18.7063C8.04126 19.5647 8.35945 20.3531 8.84993 21.0749C9.53288 22.0807 10.4409 22.8148 11.5522 23.3022C11.5755 23.3131 11.5941 23.3441 11.619 23.3193C11.6453 23.2914 11.6329 23.2588 11.6112 23.2324C11.5755 23.192 11.5351 23.1548 11.4979 23.116C10.8693 22.4672 10.5651 21.6787 10.5744 20.7862C10.5852 19.7509 10.9997 18.8879 11.8099 18.2314C12.0877 18.0063 12.3826 17.7983 12.7334 17.6959V17.6943Z" fill="#110F23"/>
<path d="M23.3455 17.0844C23.8251 18.8243 23.9167 20.5767 23.4945 22.3384C23.1142 23.9231 22.3381 25.2859 21.1569 26.4159C20.2225 27.3099 19.1329 27.9463 17.9098 28.3498C17.3138 28.547 16.7007 28.6727 16.0737 28.7255C16.0442 28.7286 16.0069 28.7161 15.9883 28.7534H14.5898C14.3368 28.6804 14.0729 28.6789 13.8153 28.6292C12.8824 28.4492 12.0039 28.1387 11.1704 27.6716C9.952 26.9871 8.96949 26.0635 8.20738 24.9025C7.45925 23.7633 7.01844 22.5122 6.8803 21.1541C6.74681 19.8518 6.90824 18.5884 7.35215 17.3591C7.38009 17.283 7.41268 17.2101 7.45304 17.1371C7.42665 17.5065 7.43597 17.8729 7.46701 18.2407C7.54772 19.2046 7.83021 20.1048 8.32069 20.9352C8.9757 22.045 9.87439 22.8972 11.0323 23.4668C12.1902 24.0364 13.4148 24.246 14.6907 24.0799C16.7721 23.8083 18.3677 22.759 19.4589 20.9709C20.1667 19.8115 20.4476 18.5387 20.3514 17.1837C20.4041 17.193 20.4554 17.2085 20.5097 17.2116C20.5563 17.2147 20.592 17.179 20.5578 17.1402C20.4988 17.0719 20.5268 17.0331 20.5858 17.0005C20.654 16.9633 20.6556 17.0487 20.6897 17.0626C20.7456 17.0844 20.7642 17.2241 20.8481 17.1371C20.9319 17.0518 21.0048 17.013 21.1352 16.9959C21.2377 16.9835 21.3153 16.8826 21.4208 17.0037C21.4425 17.0285 21.4938 16.94 21.5636 16.9788C21.6505 17.0254 21.7468 17.1278 21.8539 17.0021C21.8585 16.9959 21.8896 17.0021 21.8958 17.0099C21.9982 17.1558 22.1131 17.0626 22.1876 16.9974C22.3102 16.8903 22.3692 16.926 22.425 17.0518C22.4685 17.1496 22.498 17.1232 22.5337 17.044C22.574 16.9571 22.6656 16.909 22.7293 16.9804C22.8302 17.0921 23.0102 16.864 23.0661 17.0766C23.0816 17.0719 23.1018 17.0719 23.1111 17.0611C23.184 16.985 23.2616 17.0331 23.3377 17.0502C23.3424 17.0595 23.3455 17.0704 23.3501 17.0797L23.3455 17.0844Z" fill="#110F23"/>
<path d="M22.0665 28.755C21.9455 28.4213 21.7654 28.1139 21.6226 27.7896C21.5916 27.7197 21.5947 27.6747 21.6537 27.6235C22.5694 26.8381 23.302 25.9068 23.8856 24.8529C24.148 24.8017 24.418 24.7815 24.6803 24.8048C25.1367 24.8467 25.593 24.8048 26.0478 24.8141C26.3225 24.8203 26.5988 24.797 26.8704 24.856C27.1312 25.4008 27.4137 25.9378 27.6496 26.4935C28.0361 27.4046 27.4959 28.4523 26.5352 28.7038C26.487 28.7162 26.425 28.6976 26.3908 28.7534H22.0665V28.755Z" fill="#110F23"/>
<path d="M4.21835 28.755C4.05227 28.6805 3.87067 28.6526 3.70925 28.5626C2.92541 28.1218 2.6274 27.2029 3.01078 26.3865C3.2405 25.8975 3.47643 25.4102 3.70925 24.9228C3.80703 24.9228 3.88309 24.8436 3.98863 24.8529C4.23232 24.8747 4.47756 24.901 4.71969 24.8529C4.92768 24.811 5.13257 24.8793 5.34987 24.8405C5.57182 24.8002 5.81706 24.8545 6.05609 24.8467C6.28115 24.839 6.52794 24.8079 6.75611 24.8871C7.27453 25.8091 7.89849 26.6519 8.68232 27.3674C8.78011 27.4559 8.73199 27.5211 8.69319 27.6049C8.51159 27.9883 8.33309 28.3732 8.15304 28.7566H4.21835V28.755Z" fill="#110F23"/>
<path d="M7.81001 17.64C7.78207 17.2054 7.84106 16.7785 7.9466 16.3594C8.51469 14.0948 9.8961 12.5722 12.1234 11.8442C12.856 11.6052 13.6135 11.5074 14.3787 11.6269C15.8486 11.8582 16.8994 13.1527 16.8388 14.6459C16.7969 15.6967 16.3127 16.5069 15.4248 17.0579C14.9576 17.3481 14.4377 17.5018 13.8774 17.494C13.4862 17.4878 13.1059 17.5701 12.735 17.6912C12.7257 17.6229 12.6962 17.6043 12.6232 17.6229C12.527 17.6462 12.409 17.7548 12.3392 17.5779C12.3345 17.5686 12.2833 17.5639 12.2631 17.5748C12.0055 17.7051 11.7276 17.4723 11.4715 17.6213C11.4467 17.6353 11.4281 17.5965 11.4079 17.581C11.3132 17.5096 10.9422 17.5251 10.86 17.6105C10.8041 17.6679 10.77 17.6446 10.7094 17.6182C10.6008 17.5748 10.4828 17.4754 10.3711 17.5266C10.236 17.5887 10.115 17.5918 9.9706 17.5856C9.85109 17.581 9.72847 17.5499 9.61826 17.5623C9.40717 17.5872 9.20539 17.553 8.99896 17.5499C8.85771 17.5499 8.71181 17.5049 8.55815 17.5717C8.49606 17.598 8.38276 17.6757 8.29894 17.6167C8.20426 17.5515 8.12976 17.5748 8.04439 17.6213C7.96988 17.6617 7.88917 17.6508 7.81001 17.6368V17.64Z" fill="#110F23"/>
<path d="M23.333 17.0534C23.257 17.0363 23.1794 16.9882 23.1064 17.0643C23.0971 17.0751 23.0769 17.0751 23.0614 17.0798C23.0055 16.8671 22.8255 17.0953 22.7246 16.9835C22.661 16.9122 22.5694 16.9603 22.529 17.0472C22.4933 17.1263 22.4638 17.1527 22.4204 17.0549C22.3645 16.9292 22.3071 16.8935 22.1829 17.0006C22.1084 17.0658 21.9951 17.1589 21.8911 17.013C21.8849 17.0037 21.8538 16.9991 21.8492 17.0053C21.7421 17.131 21.6458 17.0286 21.5589 16.982C21.4891 16.9447 21.4394 17.0317 21.4161 17.0068C21.3106 16.8858 21.2314 16.9867 21.1305 16.9991C20.9986 17.0146 20.9272 17.0534 20.8434 17.1403C20.7596 17.2257 20.7409 17.0875 20.6851 17.0658C20.6509 17.0518 20.6509 16.9665 20.5811 17.0037C20.5221 17.0363 20.4926 17.0751 20.5531 17.1434C20.5873 17.1822 20.55 17.2164 20.505 17.2148C20.4522 17.2117 20.3995 17.1962 20.3467 17.1869C20.2349 16.1268 19.8997 15.1474 19.2974 14.2626C18.8737 13.6418 18.3568 13.1078 17.7857 12.622C16.918 11.8832 15.9743 11.2375 15.133 10.4676C14.3616 9.76297 13.6709 8.98844 13.2084 8.04319C12.735 7.07775 12.6294 6.09369 13.1463 5.10187C13.1727 5.05065 13.1789 4.98701 13.2425 4.93579C13.3558 5.20742 13.4614 5.47439 13.5778 5.73825C14.1521 7.02498 15.0415 8.05095 16.1652 8.886C16.9739 9.48668 17.8493 9.98492 18.6828 10.5468C19.136 10.8526 19.566 11.1894 19.9695 11.5572C20.9893 12.4839 21.8197 13.5564 22.4499 14.7826C22.8069 15.4764 23.094 16.1966 23.3113 16.9447C23.3222 16.9804 23.3237 17.0177 23.3315 17.0549L23.333 17.0534Z" fill="#110F23"/>
<path d="M18.8396 10.1617C17.7655 9.45863 16.6091 8.87812 15.6592 7.99185C14.8288 7.21578 14.1847 6.31398 13.778 5.24765C13.6802 4.99 13.6026 4.72613 13.5328 4.46072C13.5172 4.40018 13.5157 4.34741 13.5452 4.28843C13.6569 4.06026 13.7516 3.82278 13.8758 3.60238C14.1924 3.03895 14.6876 2.7518 15.3271 2.75491C15.9619 2.75801 16.4399 3.05292 16.7581 3.60704C16.8419 3.75294 16.7705 3.89574 16.7566 4.03543C16.6557 5.01173 16.8078 5.94302 17.23 6.82929C17.6832 7.78231 18.3599 8.53355 19.2664 9.07369C19.3688 9.13423 19.4464 9.20873 19.4853 9.32049C19.552 9.51295 19.687 9.67748 19.7274 9.88081C19.7134 10.005 19.6187 9.98946 19.5349 9.99877C19.4527 10.0065 19.3673 9.97394 19.2881 10.036C19.1577 10.1369 19.0181 10.2176 18.8411 10.1617H18.8396Z" fill="#110F23"/>
<path d="M7.81004 17.6399C7.8892 17.6539 7.96836 17.6647 8.04441 17.6244C8.12823 17.5778 8.20428 17.5545 8.29896 17.6197C8.38433 17.6787 8.49609 17.6027 8.55817 17.5747C8.71183 17.508 8.85618 17.5514 8.99898 17.553C9.20542 17.5545 9.4072 17.5887 9.61829 17.5654C9.72849 17.553 9.85111 17.584 9.97062 17.5887C10.115 17.5949 10.2345 17.5918 10.3711 17.5297C10.4828 17.4785 10.6008 17.5778 10.7094 17.6213C10.7715 17.6461 10.8057 17.6694 10.86 17.6135C10.9423 17.5281 11.3117 17.5126 11.4079 17.584C11.4281 17.5995 11.4467 17.6384 11.4716 17.6244C11.7277 17.4754 12.0055 17.7082 12.2631 17.5778C12.2833 17.567 12.3361 17.5701 12.3392 17.5809C12.409 17.7579 12.527 17.6492 12.6232 17.6259C12.6962 17.6089 12.7257 17.6259 12.735 17.6942C12.3827 17.7967 12.0878 18.0047 11.8115 18.2297C11.0028 18.8863 10.5868 19.7493 10.576 20.7846C10.5666 21.677 10.8709 22.464 11.4995 23.1143C11.5367 23.1531 11.5771 23.1904 11.6128 23.2307C11.6361 23.2556 11.6485 23.2897 11.6206 23.3177C11.5957 23.3425 11.5755 23.3114 11.5538 23.3006C10.4425 22.8132 9.53447 22.079 8.85153 21.0733C8.3626 20.3531 8.04441 19.563 7.89385 18.7047C7.83177 18.3523 7.79452 18 7.81004 17.6415V17.6399Z" fill="#110F23"/>
<path d="M12.9321 21.1153C13.3341 21.6229 13.8122 22.0404 14.4004 22.3167C15.4016 22.787 16.4275 22.8506 17.4752 22.4859C17.5156 22.4719 17.5575 22.461 17.5994 22.4502C17.6087 22.4486 17.6196 22.4548 17.6522 22.4626C17.4659 22.6426 17.2564 22.7715 17.0468 22.8925C16.0224 23.487 14.922 23.7866 13.7315 23.7555C12.3547 23.7198 11.0804 22.5355 10.9749 21.1805C11.1844 21.1308 11.3955 21.1696 11.605 21.1634C11.8829 21.1541 12.1607 21.1448 12.4401 21.1557C12.6015 21.1619 12.7722 21.179 12.9321 21.1138V21.1153Z" fill="#110F23"/>
<path d="M6.75609 24.8853C6.52793 24.8062 6.27958 24.8372 6.05607 24.845C5.81704 24.8527 5.5718 24.7984 5.34985 24.8388C5.13255 24.8791 4.92922 24.8093 4.71968 24.8512C4.47754 24.8993 4.2323 24.8729 3.98861 24.8512C3.88307 24.8419 3.80701 24.9195 3.70923 24.921C3.92187 24.4725 4.13452 24.0223 4.34716 23.5738C4.76003 22.7046 5.17445 21.8369 5.58888 20.9677C5.59353 20.9584 5.60129 20.9522 5.63079 20.9165C5.64476 21.185 5.67269 21.4272 5.70684 21.6693C5.83256 22.5851 6.09022 23.462 6.47826 24.3017C6.56828 24.4973 6.66296 24.6913 6.75454 24.8853H6.75609Z" fill="#110F23"/>
<path d="M26.8704 24.8574C26.5988 24.7985 26.3225 24.8202 26.0478 24.8155C25.5914 24.8062 25.1366 24.8481 24.6803 24.8062C24.418 24.7829 24.1495 24.8031 23.8856 24.8543C24.0703 24.4415 24.2752 24.0364 24.4304 23.6111C24.7129 22.835 24.8992 22.0372 24.9659 21.2146C24.9721 21.1292 24.9876 21.0454 25.0047 20.929C25.2096 21.3589 25.4036 21.7609 25.5961 22.1645C25.9034 22.8086 26.2107 23.4527 26.5165 24.0969C26.636 24.3499 26.7524 24.606 26.8704 24.8605V24.8574Z" fill="#110F23"/>
<path d="M12.9321 21.1152C12.7722 21.1804 12.6015 21.1634 12.4401 21.1572C12.1607 21.1463 11.8829 21.1572 11.605 21.1649C11.3955 21.1711 11.1844 21.1323 10.9749 21.182C10.891 20.7179 10.9578 20.2678 11.1114 19.8301C11.2977 19.2977 11.6112 18.8491 12.0567 18.4983C12.0769 18.4828 12.1002 18.4704 12.1374 18.4456C12.1654 18.6955 12.1452 18.9314 12.17 19.1642C12.2445 19.8518 12.4867 20.4711 12.8887 21.0314C12.9073 21.0563 12.9181 21.0873 12.9321 21.1152Z" fill="#110F23"/>
<path d="M10.6536 10.3217C10.8491 9.84825 11.1332 9.44935 11.6081 9.22274C12.2166 8.93404 12.9197 9.39658 12.8685 10.0454C12.8592 10.1695 12.8343 10.2922 12.7055 10.3574C12.6527 10.2984 12.5829 10.3232 12.5223 10.3232C11.8999 10.3217 11.276 10.3217 10.6536 10.3201V10.3217Z" fill="#110F23"/>
<path d="M18.4174 7.91888C18.0666 7.58828 17.8167 7.18472 17.6056 6.75788C17.2346 6.00974 17.0468 5.21815 17.1011 4.33032C17.2129 4.55694 17.3076 4.7463 17.3992 4.93876C17.7624 5.69932 18.1271 6.45831 18.4841 7.22197C18.5664 7.39581 18.6735 7.56034 18.72 7.75125C18.6393 7.84283 18.5089 7.84438 18.4189 7.91888H18.4174Z" fill="#110F23"/>
<path d="M10.6536 10.3217C11.276 10.3217 11.9 10.3217 12.5224 10.3248C12.5845 10.3248 12.6543 10.2999 12.7055 10.3589C12.5782 10.5312 12.3842 10.5809 12.1933 10.6011C11.4312 10.6787 10.7622 10.9767 10.1259 11.4128C10.3012 11.0496 10.4766 10.6864 10.6536 10.3232V10.3217Z" fill="#110F23"/>
<path d="M18.8396 10.1618C19.0165 10.2177 19.1562 10.137 19.2866 10.0361C19.3657 9.97399 19.4511 10.0081 19.5334 9.99882C19.6187 9.99106 19.7134 10.005 19.7258 9.88086C19.9478 10.2642 20.1154 10.6725 20.3063 11.0714C20.3684 11.2002 20.4585 11.3197 20.4786 11.4951C20.0549 11.0993 19.6358 10.7407 19.1857 10.4179C19.0693 10.3341 18.9529 10.2472 18.838 10.1618H18.8396Z" fill="#110F23"/>
<path d="M18.4174 7.91885C18.5074 7.84435 18.6378 7.8428 18.7185 7.75122C18.8333 7.9887 18.9885 8.20755 19.0413 8.47142L19.0444 8.46831C18.7945 8.33328 18.6114 8.11908 18.4189 7.91885H18.4174Z" fill="#110F23"/>
<path d="M19.0413 8.47137C19.0413 8.47137 19.0569 8.47137 19.0631 8.47137L19.0569 8.48999C19.0569 8.48999 19.0476 8.47602 19.0429 8.46826L19.0398 8.47137H19.0413Z" fill="#110F23"/>
<path d="M23.3454 17.0844C23.3408 17.0751 23.3377 17.0642 23.333 17.0549C23.347 17.0611 23.3578 17.0673 23.3454 17.0844Z" fill="#110F23"/>
</g>
<defs>
<clipPath id="clip0_14366_332">
<rect width="24.9306" height="26" fill="white" transform="translate(2.84473 2.75488)"/>
</clipPath>
</defs>
</svg>
