<svg width="32" height="32" viewBox="0 0 32 32" fill="none" xmlns="http://www.w3.org/2000/svg">
<g clip-path="url(#clip0_4_1182)">
<path d="M21.8598 19.4123L21.8961 19.37L21.9061 19.358L21.9101 19.3539V19.3519C22.4376 18.7218 22.3531 17.7836 21.7229 17.2561C21.0928 16.7287 20.1546 16.8132 19.6271 17.4434L19.6231 17.4474L19.6009 17.4736C19.5788 17.4977 19.5466 17.536 19.5003 17.5883C19.4097 17.689 19.2748 17.84 19.0976 18.0252C18.7453 18.3956 18.238 18.901 17.6239 19.4304C16.3616 20.5216 14.7893 21.5967 13.2672 21.9873C12.47 22.1906 11.9908 23.002 12.1942 23.7992C12.3975 24.5965 13.2089 25.0756 14.0041 24.8723C16.2026 24.3106 18.1977 22.8691 19.5687 21.6853C20.2714 21.0773 20.8492 20.5035 21.2538 20.0787C21.4551 19.8653 21.6162 19.6902 21.7269 19.5653C21.7833 19.5029 21.8256 19.4526 21.8558 19.4163L21.8598 19.4123Z" fill="#110F23"/>
<path d="M9.84469 12.1324C9.79033 12.1948 9.74604 12.2451 9.71584 12.2793L9.6796 12.3216L9.66954 12.3337L9.66551 12.3377V12.3397C9.13804 12.9699 9.21857 13.9081 9.84872 14.4375C10.4789 14.965 11.417 14.8845 11.9445 14.2543L11.9485 14.2503L11.9707 14.2241C11.9928 14.2 12.025 14.1597 12.0713 14.1094C12.1619 14.0067 12.2988 13.8577 12.474 13.6725C12.8263 13.3021 13.3357 12.7947 13.9497 12.2612C15.214 11.164 16.7884 10.0688 18.3144 9.65003C19.1077 9.4326 19.5727 8.6132 19.3553 7.81998C19.1379 7.02676 18.3185 6.5617 17.5253 6.77913C15.3489 7.37707 13.3659 8.82459 11.9969 10.0144C11.2962 10.6244 10.7184 11.1982 10.3158 11.621C10.1145 11.8324 9.95542 12.0075 9.84469 12.1324Z" fill="#110F23"/>
<path d="M25.9063 13.0866C23.2025 10.4312 18.8761 10.413 16.1501 13.0444L13.1987 15.8931C11.7572 17.2843 9.46813 17.2641 8.05281 15.8468C6.63145 14.4255 6.61736 12.1263 8.0206 10.6868L10.1265 8.52662C10.7002 7.93875 10.6882 6.99655 10.1003 6.42076C9.51242 5.84698 8.57022 5.85906 7.99443 6.44693L5.88856 8.60715C3.34784 11.2123 3.37401 15.3777 5.94695 17.9507C8.51183 20.5155 12.6571 20.5518 15.2663 18.0332L18.2177 15.1845C19.784 13.6725 22.2684 13.6846 23.8206 15.2086C25.5077 16.8655 25.405 19.6136 23.5992 21.1397L22.1134 22.3959C21.4852 22.9274 21.4067 23.8656 21.9382 24.4937C22.4697 25.1219 23.4079 25.2004 24.036 24.6689L25.5238 23.4126C28.6685 20.7551 28.8477 15.9696 25.9104 13.0846L25.9063 13.0866Z" fill="#110F23"/>
</g>
<defs>
<clipPath id="clip0_4_1182">
<rect width="24" height="19.0232" fill="white" transform="translate(4 6)"/>
</clipPath>
</defs>
</svg>
