<svg width="32" height="32" viewBox="0 0 32 32" fill="none" xmlns="http://www.w3.org/2000/svg">
<path d="M18.6315 3H16.2231H10.9144C10.0598 3 9.30883 3.6215 9.17932 4.47611L8.63553 7.97207V7.99803H6.04583C5.34667 7.99803 4.80279 8.56777 4.80279 9.24106C4.80279 9.94021 5.37254 10.4841 6.04583 10.51H8.24702L7.8586 12.9183L7.83274 13.0996H5.24303C4.54388 13.0996 4 13.6693 4 14.3426C4 15.0159 4.56974 15.5856 5.24303 15.5856H7.44423L6.25302 23.1215L5.8646 25.6335L5.65741 26.9801C5.50204 28.0418 6.30483 29 7.3925 29H9.04982H11.3287H13.1933C14.0478 29 14.7729 28.3785 14.9283 27.5239L16.0419 20.6096H16.6893H18.761C23.6554 20.6096 27.6435 16.5698 27.5658 11.6494C27.4881 6.80681 23.4482 3 18.6315 3ZM10.7849 10.51L18.6056 10.5358C19.3048 10.5358 19.9004 11.1056 19.9004 11.8307C19.9004 12.5299 19.3307 13.1255 18.6056 13.1255H10.3705L10.7849 10.51ZM18.6574 18.0717H17.3367H16.7152H15.3945C14.5399 18.0717 13.8148 18.6933 13.6594 19.5478L12.5459 26.4881H8.29884L9.98212 15.6116H18.6056C20.7032 15.6116 22.3865 13.9024 22.3865 11.8307C22.3865 9.75898 20.6774 8.04985 18.6056 8.04985L11.1992 8.02389L11.5877 5.53782H18.7869C22.3088 5.53782 25.1574 8.43826 25.0797 11.9602C24.9761 15.3785 22.1016 18.0717 18.6574 18.0717Z" fill="#110F23"/>
</svg>
