<svg width="32" height="32" viewBox="0 0 32 32" fill="none" xmlns="http://www.w3.org/2000/svg">
<path d="M12.2874 11.565L18.4524 18.9175L20.3499 16.6425L26.2074 23.6425C27.551 21.8479 28.3977 19.7308 28.662 17.5046C28.9264 15.2785 28.5991 13.0219 27.7132 10.9626C26.8273 8.90326 25.4141 7.1139 23.616 5.77497C21.818 4.43603 19.6987 3.59484 17.4718 3.33623C15.245 3.07761 12.9893 3.41071 10.9323 4.30193C8.87522 5.19316 7.08952 6.611 5.75523 8.41249C4.42093 10.214 3.58522 12.3354 3.33235 14.563C3.07948 16.7905 3.4184 19.0453 4.31493 21.1L12.2874 11.565ZM20.3549 8.35C20.985 8.3495 21.601 8.53588 22.1251 8.88555C22.6492 9.23522 23.0578 9.73248 23.2993 10.3144C23.5407 10.8964 23.6041 11.5368 23.4815 12.1548C23.3589 12.7728 23.0558 13.3406 22.6105 13.7862C22.1651 14.2319 21.5976 14.5355 20.9797 14.6586C20.3618 14.7817 19.7213 14.7188 19.1392 14.4778C18.557 14.2368 18.0595 13.8286 17.7094 13.3047C17.3593 12.7809 17.1724 12.165 17.1724 11.535C17.1724 10.6907 17.5076 9.88098 18.1044 9.28375C18.7012 8.68651 19.5106 8.35066 20.3549 8.35ZM12.2924 6.435C12.6075 6.435 12.9155 6.52846 13.1774 6.70356C13.4394 6.87865 13.6435 7.12752 13.7639 7.41865C13.8844 7.70979 13.9158 8.03012 13.8541 8.3391C13.7925 8.64808 13.6406 8.93183 13.4176 9.15445C13.1946 9.37706 12.9107 9.52854 12.6016 9.5897C12.2925 9.65087 11.9722 9.61897 11.6813 9.49806C11.3903 9.37714 11.1418 9.17264 10.9671 8.91042C10.7924 8.64821 10.6994 8.34007 10.6999 8.025C10.7006 7.60307 10.8687 7.19866 11.1672 6.90055C11.4658 6.60243 11.8705 6.435 12.2924 6.435Z" fill="#110F23"/>
<path d="M23.6349 26.2075C24.4488 25.5981 25.1881 24.8949 25.8374 24.1125H6.16243C6.81179 24.8949 7.55105 25.5981 8.36493 26.2075H23.6349Z" fill="#110F23"/>
<path d="M9.03493 26.675C11.1056 28.0289 13.5259 28.7499 15.9999 28.7499C18.4739 28.7499 20.8943 28.0289 22.9649 26.675H9.03493Z" fill="#110F23"/>
<path d="M25.5999 23.6425L20.3524 17.3675L20.3824 23.6425H25.5999Z" fill="#110F23"/>
<path d="M18.1474 19.2825L12.2874 12.2825V21.105H4.31743C4.70919 22.0056 5.20507 22.8572 5.79493 23.6425H14.5149L18.1474 19.2825Z" fill="#110F23"/>
</svg>
