<svg width="32" height="32" viewBox="0 0 32 32" fill="none" xmlns="http://www.w3.org/2000/svg">
<path d="M27.4151 4.93C27.4167 4.53466 27.2799 4.15123 27.0283 3.84625C26.7768 3.54126 26.4264 3.33397 26.0379 3.26032C25.6495 3.18667 25.2476 3.25133 24.9018 3.44306C24.5561 3.6348 24.2884 3.94151 24.1451 4.31H7.85515C7.74433 4.02726 7.55959 3.77949 7.32024 3.59259C7.08089 3.40569 6.79572 3.28652 6.49455 3.24755C6.19339 3.20858 5.88728 3.25123 5.60824 3.37105C5.3292 3.49087 5.08748 3.68346 4.90834 3.92868C4.72921 4.17389 4.61924 4.46273 4.58994 4.76499C4.56064 5.06726 4.61308 5.37184 4.74179 5.6469C4.87049 5.92195 5.07072 6.15738 5.32155 6.32856C5.57239 6.49975 5.8646 6.6004 6.16765 6.62L9.87265 15.1025C9.66799 15.344 9.53518 15.6381 9.48931 15.9514C9.44344 16.2646 9.48635 16.5845 9.61317 16.8746C9.73998 17.1646 9.94561 17.4133 10.2067 17.5924C10.4678 17.7715 10.7739 17.8737 11.0901 17.8875L14.9301 26.6775C14.6587 26.8985 14.4623 27.198 14.3679 27.5351C14.2735 27.8721 14.2858 28.2301 14.4031 28.5599C14.5203 28.8897 14.7368 29.1751 15.0228 29.3769C15.3087 29.5787 15.6501 29.6871 16.0001 29.6871C16.3502 29.6871 16.6916 29.5787 16.9775 29.3769C17.2635 29.1751 17.48 28.8897 17.5972 28.5599C17.7145 28.2301 17.7267 27.8721 17.6324 27.5351C17.538 27.198 17.3416 26.8985 17.0701 26.6775L20.9101 17.8875C21.2262 17.8733 21.532 17.7707 21.7927 17.5915C22.0534 17.4122 22.2587 17.1635 22.3852 16.8735C22.5117 16.5835 22.5544 16.2638 22.5085 15.9508C22.4625 15.6378 22.3297 15.3439 22.1251 15.1025L25.8326 6.62C26.2615 6.59147 26.6636 6.40105 26.9574 6.08729C27.2512 5.77352 27.4148 5.35985 27.4151 4.93V4.93ZM7.58515 6.8475L14.9851 12.485L12.0301 14.75C11.701 14.556 11.3162 14.4785 10.9376 14.53L7.58515 6.8475ZM7.86765 5.5175H24.1301L15.9826 11.7275L7.86015 5.54L7.86765 5.5175ZM12.7826 15.6825L15.9826 13.25L19.2101 15.71C19.1147 16.0284 19.115 16.3679 19.211 16.6862C19.307 17.0045 19.4945 17.2875 19.7501 17.5L16.0001 26.1L12.2501 17.5C12.5094 17.2842 12.6986 16.9961 12.7934 16.6724C12.8883 16.3487 12.8845 16.0041 12.7826 15.6825V15.6825ZM21.0626 14.5175C20.6761 14.4653 20.2834 14.5474 19.9501 14.75L16.9776 12.5L24.4351 6.805L21.0626 14.5175Z" fill="#110F23"/>
</svg>
