<svg width="32" height="32" viewBox="0 0 32 32" fill="none" xmlns="http://www.w3.org/2000/svg">
<path d="M15.9929 4C9.36849 4 3.99528 9.3732 4 16.0024C4 22.6268 9.36849 28 15.9976 28C22.6268 28 27.9953 22.6315 27.9953 16.0024C27.9953 9.3732 22.6221 4 15.9929 4ZM23.8403 20.0134C23.8403 20.3817 23.6372 20.7122 23.3492 20.8774L20.0299 22.8133C19.7041 22.9786 19.3358 22.9786 19.0478 22.8133L15.7285 20.8774C15.4027 20.6697 15.2375 20.3439 15.2375 20.0134V18.6536L16.7956 17.747V19.0643C16.7956 19.4326 16.9986 19.7631 17.2866 19.9284L19.0525 20.9577C19.3783 21.123 19.7466 21.123 20.0346 20.9577L21.7533 19.9284C22.0791 19.7206 22.2443 19.3948 22.2443 19.0643V17.0057C22.2443 16.6374 22.0413 16.3069 21.7533 16.1416L19.9921 15.1123C19.6663 14.9471 19.2981 14.9471 19.01 15.1123L16.7578 16.4297L15.1997 17.3362L12.9475 18.6536C12.6217 18.8188 12.2534 18.8188 11.9654 18.6536L8.64608 16.7177C8.32029 16.5099 8.15503 16.1841 8.15503 15.8536V11.9866C8.15503 11.6608 8.32029 11.3303 8.64608 11.1651L12.0032 9.1867C12.3289 9.02144 12.6972 9.02144 12.9852 9.1867L16.2621 11.1226C16.5878 11.3303 16.7531 11.6561 16.7531 11.9866V13.3842L15.195 14.2908V12.9309C15.195 12.5627 14.9919 12.2321 14.7039 12.0669L12.9428 10.9951C12.617 10.8298 12.2487 10.8298 11.9607 10.9951L10.1995 12.0244C9.8737 12.2321 9.70844 12.5579 9.70844 12.8885V14.9471C9.70844 15.3154 9.91147 15.6459 10.1995 15.8111L11.9607 16.8829C12.2864 17.0482 12.6547 17.0482 12.9428 16.8829L15.195 15.5278L16.7531 14.6638L19.0478 13.304C19.3736 13.1387 19.7419 13.1387 20.0299 13.304L23.3492 15.2398C23.675 15.4476 23.8403 15.7734 23.8403 16.1039V20.0134Z" fill="#100E21"/>
</svg>
