<svg width="32" height="32" viewBox="0 0 32 32" fill="none" xmlns="http://www.w3.org/2000/svg">
<path fill-rule="evenodd" clip-rule="evenodd" d="M4 27.9951L27.0574 8.79491C27.3399 8.54866 27.5687 8.24702 27.7297 7.90868C27.8908 7.57033 27.9806 7.20252 27.9936 6.82804C28.0066 6.45355 27.9425 6.08039 27.8053 5.73169C27.6681 5.38299 27.4608 5.0662 27.1961 4.80095C26.9308 4.53572 26.6137 4.32788 26.2647 4.19038C25.9156 4.05287 25.542 3.98864 25.1671 4.00164C24.7922 4.01465 24.4239 4.10462 24.0852 4.26599C23.7465 4.42735 23.4446 4.65665 23.1983 4.93962L4 27.9951ZM15.1221 7.54308L5.41465 14.8231L12.6952 5.11642C12.8442 4.91796 13.0339 4.75378 13.2518 4.63497C13.4696 4.51616 13.7105 4.44549 13.9579 4.42774C14.2054 4.41 14.4538 4.44558 14.6864 4.5321C14.9189 4.61861 15.1302 4.75404 15.3059 4.92923C15.4819 5.10471 15.6181 5.31598 15.7052 5.54872C15.7924 5.78145 15.8285 6.03022 15.811 6.27813C15.7936 6.52603 15.7231 6.76729 15.6042 6.98555C15.4854 7.20381 15.3209 7.39394 15.1221 7.54308ZM26.8762 19.2995L17.1687 26.5795L24.4493 16.8728C24.5983 16.6743 24.788 16.5101 25.0059 16.3913C25.2237 16.2725 25.4645 16.2018 25.712 16.1841C25.9594 16.1663 26.2078 16.2019 26.4404 16.2885C26.6729 16.375 26.8843 16.5104 27.06 16.6856C27.236 16.8611 27.3722 17.0724 27.4593 17.3051C27.5465 17.5378 27.5825 17.7866 27.5651 18.0345C27.5477 18.2824 27.4771 18.5236 27.3582 18.7419C27.2394 18.9602 27.075 19.1503 26.8762 19.2995Z" fill="#110F23"/>
</svg>
