<svg width="32" height="32" viewBox="0 0 32 32" fill="none" xmlns="http://www.w3.org/2000/svg">
<path fill-rule="evenodd" clip-rule="evenodd" d="M26.6928 14.467C26.7429 14.8897 26.7708 15.3207 26.7708 15.7586C26.7708 21.6997 21.9488 26.5173 15.9993 26.5173C11.6673 26.5173 7.93385 23.9632 6.22303 20.2801L7.94638 19.4139C9.3384 22.4685 12.4204 24.5916 15.9993 24.5916C20.8825 24.5916 24.8429 20.6374 24.8429 15.7586C24.8429 15.6683 24.8415 15.5779 24.8387 15.4875L26.6928 14.467ZM15.9993 5C20.5359 5 24.4183 7.80157 26.0052 11.7683L24.1621 12.355C22.8286 9.16691 19.6756 6.92564 15.9993 6.92564C11.116 6.92564 7.15571 10.8798 7.15571 15.7586C7.15571 15.8184 7.15708 15.8796 7.15848 15.9394L5.35441 17.4132C5.27089 16.8737 5.22774 16.3217 5.22774 15.7586C5.22913 9.81621 10.0511 5 15.9993 5Z" fill="#110F23"/>
<path fill-rule="evenodd" clip-rule="evenodd" d="M4 20.0603L14.5349 11.4539L14.0978 15.0327L20.2464 11.5526L19.9346 14.9507L28 12.3855L17.0614 18.403L17.8786 14.9785L11.5587 18.6783L11.9763 16.0519L4 20.0603Z" fill="#110F23"/>
</svg>
