<svg width="32" height="32" viewBox="0 0 32 32" fill="none" xmlns="http://www.w3.org/2000/svg">
<path d="M15.4487 29C14.2629 29 13.2977 28.0548 13.2657 26.8767L7.12072 23.3289C6.80114 23.502 6.45639 23.5872 6.11499 23.5921L6.08122 23.5923C5.32735 23.5914 4.59444 23.1998 4.19039 22.5C3.59746 21.473 3.93346 20.1646 4.93771 19.5478L4.93771 12.4522C3.93346 11.8354 3.59746 10.527 4.19039 9.5C4.58841 8.81061 5.30554 8.42032 6.04748 8.408L6.08122 8.4077C6.43362 8.4073 6.7906 8.49227 7.12072 8.67106L13.2657 5.12325C13.2975 3.95714 14.2433 3.01925 15.4126 3.00029L15.4487 3C16.6346 3 17.5997 3.94516 17.6318 5.12325L23.7767 8.67109C24.0963 8.49799 24.441 8.41282 24.7825 8.40792L24.8162 8.4077C25.5701 8.40856 26.303 8.80016 26.7071 9.5C27.3 10.527 26.964 11.8354 25.9597 12.4523L25.9597 19.5477C26.964 20.1646 27.3 21.473 26.7071 22.5C26.309 23.1894 25.5919 23.5797 24.85 23.592L24.8162 23.5923C24.4638 23.5927 24.1068 23.5077 23.7767 23.3289L17.6318 26.8767C17.6 28.0428 16.6541 28.9807 15.4848 28.9997L15.4487 29ZM15.4487 6.22382L15.4713 6.22357C15.4739 6.22352 15.4766 6.22345 15.4792 6.22338L15.4713 6.22357C15.4792 6.22341 15.487 6.22315 15.4949 6.22281L15.4792 6.22338C15.4858 6.22319 15.4924 6.22294 15.499 6.22262L15.4949 6.22281C15.5032 6.22244 15.5114 6.22198 15.5197 6.22143L15.499 6.22262C15.5063 6.22227 15.5136 6.22185 15.5209 6.22134L15.5197 6.22143C15.5273 6.22092 15.5348 6.22032 15.5424 6.21965L15.5209 6.22134C15.5292 6.22078 15.5373 6.22012 15.5455 6.21937L15.5424 6.21965C15.5502 6.21894 15.5581 6.21815 15.5659 6.21727L15.5455 6.21937C15.553 6.21868 15.5605 6.21791 15.5679 6.21706L15.5659 6.21727C15.5895 6.21463 15.6129 6.21119 15.636 6.20699C15.6384 6.20655 15.6409 6.2061 15.6433 6.20563L15.636 6.20699C15.6426 6.20578 15.6492 6.20452 15.6558 6.20319L15.6433 6.20563C15.6513 6.20413 15.6592 6.20253 15.6671 6.20085L15.6558 6.20319C15.6628 6.20178 15.6698 6.2003 15.6767 6.19875L15.6671 6.20085C15.6749 6.19918 15.6827 6.19742 15.6904 6.19558L15.6767 6.19875C15.6833 6.19728 15.6898 6.19575 15.6964 6.19416L15.6904 6.19558C15.6969 6.19403 15.7034 6.19243 15.7098 6.19077L15.6964 6.19416C15.7033 6.19246 15.7103 6.19068 15.7172 6.18884L15.7098 6.19077C16.1578 6.07495 16.4887 5.66805 16.4887 5.18387C16.4887 4.60953 16.0231 4.14393 15.4487 4.14393C14.8744 4.14393 14.4088 4.60953 14.4088 5.18387C14.4088 5.66559 14.7363 6.0708 15.1808 6.18898C15.183 6.18957 15.1852 6.19016 15.1875 6.19074L15.1808 6.18898C15.1879 6.19085 15.195 6.19266 15.2021 6.19439L15.1875 6.19074C15.1938 6.19237 15.2001 6.19394 15.2065 6.19545L15.2021 6.19439C15.2083 6.1959 15.2145 6.19735 15.2208 6.19875L15.2065 6.19545C15.2146 6.19738 15.2227 6.19922 15.2309 6.20096L15.2208 6.19875C15.2275 6.20025 15.2342 6.20169 15.2409 6.20306L15.2309 6.20096C15.2389 6.20266 15.2469 6.20427 15.255 6.20579L15.2409 6.20306C15.2478 6.20444 15.2546 6.20575 15.2615 6.207L15.255 6.20579C15.2869 6.21181 15.3194 6.21636 15.3521 6.21938C15.3531 6.21947 15.354 6.21956 15.3549 6.21964L15.3521 6.21938C15.3602 6.22012 15.3682 6.22077 15.3763 6.22133L15.3549 6.21964C15.3626 6.22033 15.3703 6.22093 15.378 6.22145L15.3763 6.22133C15.3835 6.22182 15.3908 6.22225 15.398 6.2226L15.378 6.22145C15.3862 6.222 15.3945 6.22246 15.4028 6.22282L15.398 6.2226C15.4047 6.22292 15.4113 6.22317 15.418 6.22337L15.4028 6.22282C15.4106 6.22316 15.4184 6.22341 15.4262 6.22357L15.4487 6.22382ZM18.8293 13.361L22.698 11.1275L22.6976 11.1258C22.6934 11.1093 22.6894 11.0928 22.6857 11.0762C22.6845 11.0709 22.6833 11.0656 22.6821 11.0603C22.6734 11.0208 22.6659 10.9811 22.6594 10.9413C22.6524 10.8981 22.6468 10.8548 22.6424 10.8115C22.6408 10.7953 22.6393 10.779 22.6381 10.7628C22.6373 10.7523 22.6365 10.7418 22.6359 10.7313C22.6356 10.7277 22.6354 10.7241 22.6352 10.7205C22.6348 10.7134 22.6344 10.7063 22.6341 10.6993C22.6339 10.6953 22.6337 10.6913 22.6335 10.6874C22.6332 10.6796 22.6329 10.6719 22.6327 10.6641C22.6325 10.6607 22.6324 10.6572 22.6323 10.6538C22.6322 10.6467 22.632 10.6397 22.6319 10.6327C22.6318 10.6305 22.6318 10.6284 22.6318 10.6262L22.6319 10.6327C22.6317 10.6222 22.6316 10.6118 22.6315 10.6013C22.6315 10.5938 22.6315 10.5864 22.6316 10.5789C22.6316 10.5767 22.6316 10.5745 22.6316 10.5723C22.6317 10.5639 22.6318 10.5556 22.632 10.5472C22.6321 10.545 22.6321 10.5428 22.6322 10.5406C22.6326 10.5219 22.6333 10.5032 22.6343 10.4846C22.6345 10.4794 22.6348 10.4742 22.6351 10.469C22.6355 10.4629 22.6358 10.4567 22.6362 10.4506C22.6364 10.4481 22.6366 10.4456 22.6367 10.4431C22.6372 10.4358 22.6378 10.4285 22.6384 10.4211C22.639 10.4134 22.6396 10.4057 22.6403 10.3979C22.6407 10.3942 22.641 10.3904 22.6414 10.3866C22.6421 10.3789 22.6429 10.3713 22.6437 10.3636C22.6439 10.3617 22.6441 10.3598 22.6443 10.3579L22.6437 10.3636C22.6447 10.3544 22.6457 10.3452 22.6468 10.336C22.6488 10.3192 22.651 10.3025 22.6534 10.2858C22.6561 10.2668 22.659 10.2479 22.6622 10.2289C22.6648 10.2138 22.6675 10.1988 22.6703 10.1837C22.674 10.1645 22.6779 10.1454 22.6821 10.1264C22.6882 10.0983 22.6949 10.0704 22.7021 10.0427C22.7029 10.0396 22.7037 10.0365 22.7045 10.0334C22.7058 10.0287 22.707 10.0241 22.7082 10.0195C22.7131 10.0017 22.7182 9.98389 22.7235 9.96617C22.7246 9.9624 22.7257 9.95861 22.7269 9.95483C22.7318 9.93869 22.7369 9.92262 22.7422 9.90661C22.7437 9.90203 22.7452 9.89748 22.7468 9.89292C22.7486 9.88757 22.7504 9.88223 22.7522 9.8769C22.754 9.87173 22.7558 9.86655 22.7577 9.86137C22.7601 9.85461 22.7625 9.84789 22.7649 9.84118C22.7671 9.83529 22.7693 9.82941 22.7715 9.82354C22.7722 9.82152 22.773 9.81949 22.7737 9.81747C22.7768 9.80932 22.78 9.80119 22.7832 9.79307C22.7838 9.79151 22.7844 9.78993 22.785 9.78835C22.7918 9.77125 22.7987 9.75426 22.8059 9.73734C22.8074 9.73381 22.8089 9.73034 22.8104 9.72688C22.8132 9.72038 22.816 9.71386 22.8189 9.70736C22.8212 9.70218 22.8235 9.69704 22.8258 9.69191C22.8283 9.68629 22.8309 9.68069 22.8335 9.67509C22.8396 9.6618 22.8459 9.64855 22.8523 9.63536C22.8549 9.62992 22.8576 9.62448 22.8603 9.61906L22.863 9.61354C22.8734 9.5928 22.8841 9.57222 22.8951 9.5518C22.9045 9.53447 22.9141 9.51729 22.9239 9.50022L17.3403 6.27598C17.3387 6.27877 17.3371 6.28156 17.3355 6.28434C17.3326 6.28919 17.3298 6.29401 17.3269 6.29883C17.3242 6.30347 17.3214 6.30812 17.3186 6.31277C17.3026 6.33922 17.286 6.36529 17.269 6.39098C17.2597 6.40487 17.2503 6.41867 17.2408 6.43235C17.2384 6.43578 17.236 6.43921 17.2336 6.44264C17.2293 6.44862 17.2251 6.45458 17.2208 6.46051C17.2186 6.46353 17.2164 6.46654 17.2142 6.46954C17.2109 6.47415 17.2075 6.47873 17.2041 6.4833C17.1876 6.50559 17.1706 6.52757 17.1533 6.54922C17.1507 6.55241 17.1481 6.55559 17.1456 6.55877C17.1421 6.56307 17.1386 6.56733 17.1351 6.57159C17.0805 6.6378 17.0222 6.70076 16.9603 6.76011C16.9576 6.76265 16.955 6.7652 16.9523 6.76774C16.9476 6.77217 16.9429 6.77659 16.9382 6.78099C16.9354 6.78361 16.9326 6.78622 16.9298 6.78882C16.9245 6.79366 16.9193 6.79848 16.914 6.80328C16.9108 6.80616 16.9076 6.80903 16.9044 6.81189C16.9006 6.81525 16.8969 6.81861 16.8931 6.82195C16.8885 6.82594 16.884 6.8299 16.8795 6.83384C16.8752 6.83754 16.8709 6.84123 16.8666 6.84491C16.8633 6.84774 16.86 6.85056 16.8567 6.85337C16.8525 6.85686 16.8484 6.86031 16.8443 6.86376C16.8321 6.8739 16.8198 6.88391 16.8074 6.89378C16.7988 6.90059 16.7906 6.90698 16.7824 6.91331C16.7705 6.92253 16.7585 6.93163 16.7463 6.94061C16.7408 6.94471 16.7352 6.94878 16.7297 6.95281C16.7272 6.95464 16.7246 6.95649 16.722 6.95833C16.7164 6.9624 16.7107 6.96644 16.705 6.97045C16.6998 6.97409 16.6947 6.97771 16.6895 6.98131C16.6873 6.98279 16.6852 6.98426 16.683 6.98573C16.6675 6.99637 16.6519 7.00682 16.6361 7.01707C16.6341 7.01833 16.6322 7.01959 16.6303 7.02083C16.6238 7.02498 16.6174 7.0291 16.6109 7.0332C16.6077 7.03519 16.6045 7.03718 16.6013 7.03916C16.5958 7.04264 16.5902 7.04608 16.5846 7.0495C16.5798 7.0524 16.575 7.0553 16.5702 7.05817C16.5664 7.06049 16.5625 7.06279 16.5586 7.06508C16.5448 7.07327 16.5308 7.08132 16.5167 7.08922C16.4989 7.09925 16.4809 7.10903 16.4627 7.11857C16.4484 7.12612 16.4339 7.13351 16.4193 7.14075C16.4143 7.14325 16.4092 7.14575 16.4041 7.14823C16.399 7.15074 16.3938 7.15323 16.3886 7.1557C16.3837 7.15804 16.3789 7.16034 16.374 7.16262C16.3693 7.16481 16.3647 7.16697 16.36 7.16913C16.3553 7.17127 16.3506 7.1734 16.346 7.17551C16.3401 7.17815 16.3342 7.18077 16.3284 7.18336C16.3247 7.18495 16.3212 7.18652 16.3176 7.18808C16.3123 7.19037 16.307 7.19266 16.3016 7.19492C16.2957 7.19744 16.2898 7.19993 16.2838 7.2024C16.2678 7.20902 16.2517 7.21546 16.2355 7.22172C16.2226 7.2267 16.2097 7.23156 16.1967 7.2363C16.1865 7.24002 16.1762 7.24367 16.166 7.24724C16.1638 7.24799 16.1616 7.24875 16.1594 7.2495C16.1417 7.2556 16.1238 7.26148 16.1059 7.26713C16.0986 7.26944 16.0913 7.27171 16.0839 7.27394C16.0803 7.27502 16.0768 7.27608 16.0733 7.27713C16.0659 7.27932 16.0585 7.28148 16.0511 7.28361C16.0492 7.28415 16.0473 7.28469 16.0455 7.28522C16.0421 7.28616 16.0388 7.2871 16.0355 7.28803V11.4938C17.2303 11.6415 18.2564 12.3534 18.8293 13.361ZM12.267 13.4497C12.8016 12.4458 13.7683 11.7346 14.8915 11.5275V7.29603C14.8911 7.29593 14.8908 7.29583 14.8904 7.29573L14.8804 7.29306C14.8541 7.28601 14.8281 7.27848 14.8023 7.27049C14.7946 7.26811 14.7869 7.26569 14.7793 7.26322C14.7621 7.25771 14.7451 7.252 14.7282 7.24608C14.7255 7.24515 14.7228 7.24422 14.7202 7.24328C14.7125 7.24057 14.7049 7.23782 14.6973 7.23503C14.6923 7.23322 14.6874 7.2314 14.6825 7.22956C14.6778 7.2278 14.6732 7.22604 14.6685 7.22426C14.6642 7.22261 14.6598 7.22092 14.6555 7.21923C14.6484 7.21645 14.6413 7.21364 14.6342 7.21081C14.6313 7.20961 14.6283 7.20841 14.6253 7.20719C14.619 7.20462 14.6127 7.20202 14.6064 7.19939C14.6024 7.1977 14.5984 7.19601 14.5944 7.19431C14.588 7.1916 14.5816 7.18885 14.5753 7.18608C14.5716 7.18446 14.5679 7.18282 14.5642 7.18118C14.5586 7.17871 14.5531 7.17622 14.5475 7.17371C14.5329 7.16711 14.5185 7.16034 14.5041 7.15343C14.4847 7.14413 14.4656 7.13458 14.4466 7.12475C14.4413 7.12204 14.4361 7.11931 14.4309 7.11657C14.4273 7.11463 14.4236 7.11268 14.4199 7.11072C14.4153 7.10827 14.4108 7.10581 14.4062 7.10333C14.4007 7.10032 14.3952 7.09728 14.3897 7.09423C14.3846 7.09142 14.3796 7.08859 14.3745 7.08573C14.3716 7.08405 14.3686 7.08236 14.3656 7.08066C14.3498 7.0716 14.3341 7.06237 14.3186 7.05295C14.3154 7.05104 14.3123 7.04913 14.3091 7.04721C14.3041 7.0441 14.299 7.04098 14.294 7.03784C14.2799 7.02901 14.2658 7.02003 14.2519 7.0109C14.2485 7.00866 14.2451 7.0064 14.2417 7.00414L14.2381 7.00174C14.2121 6.98437 14.1864 6.96646 14.1612 6.94802C14.1568 6.94481 14.1524 6.94157 14.148 6.93832C14.1441 6.93541 14.1402 6.9325 14.1363 6.92958C14.1323 6.92657 14.1283 6.92354 14.1244 6.92051C14.1191 6.91648 14.1138 6.91242 14.1086 6.90833C14.1057 6.90612 14.1029 6.90391 14.1001 6.90169C14.0942 6.89704 14.0883 6.89238 14.0825 6.88768C14.0803 6.88592 14.0781 6.88415 14.0759 6.88237C14.0703 6.87784 14.0647 6.87329 14.0592 6.86872C14.0548 6.86514 14.0505 6.86154 14.0462 6.85793C14.0441 6.85613 14.0419 6.85431 14.0398 6.85248C14.0339 6.84753 14.028 6.84255 14.0222 6.83755C14.0194 6.83505 14.0165 6.83255 14.0136 6.83005C14.0092 6.82621 14.0048 6.82235 14.0004 6.81847C13.9968 6.81518 13.9931 6.81192 13.9895 6.80864C13.9489 6.77222 13.9097 6.73426 13.872 6.6949C13.8692 6.69201 13.8665 6.68911 13.8637 6.6862C13.8588 6.68101 13.8539 6.67579 13.849 6.67054C13.8467 6.66802 13.8443 6.66551 13.842 6.66299C13.8381 6.65874 13.8342 6.65447 13.8303 6.65019C13.8262 6.64561 13.8221 6.64103 13.818 6.63643C13.8151 6.63329 13.8123 6.63013 13.8095 6.62696C13.7998 6.61593 13.7903 6.60484 13.7808 6.59364C13.7515 6.55908 13.7233 6.52355 13.6962 6.48715C13.6936 6.48365 13.691 6.48015 13.6884 6.47664C13.6785 6.46311 13.6686 6.44945 13.659 6.43567C13.6569 6.43268 13.6548 6.42965 13.6527 6.42662C13.6492 6.42152 13.6457 6.41645 13.6422 6.41136C13.6391 6.40675 13.636 6.4021 13.6328 6.39744C13.6303 6.39364 13.6277 6.38986 13.6252 6.38606C13.622 6.38111 13.6187 6.37613 13.6155 6.37114C13.6125 6.36665 13.6097 6.36217 13.6068 6.35768C13.6047 6.35438 13.6026 6.35104 13.6005 6.3477C13.5913 6.33311 13.5822 6.31842 13.5734 6.30361C13.5679 6.29443 13.5625 6.28523 13.5571 6.27598L7.97328 9.4998C7.97883 9.50944 7.98407 9.51869 7.98924 9.52798C7.9951 9.5385 8.00086 9.54907 8.00654 9.55969C8.01466 9.57487 8.02262 9.59016 8.03038 9.60555C8.03339 9.6115 8.03638 9.61748 8.03934 9.62349C8.04071 9.62626 8.04206 9.62901 8.04341 9.63176L8.03934 9.62349C8.04293 9.63075 8.04648 9.63804 8.04998 9.64534C8.05261 9.65081 8.05521 9.65632 8.05781 9.66185C8.06016 9.66687 8.06248 9.67186 8.06478 9.67685C8.06635 9.68025 8.06792 9.68368 8.06948 9.68711C8.07222 9.69314 8.07493 9.69917 8.0776 9.70522C8.08027 9.71124 8.08291 9.71726 8.08553 9.72331C8.08705 9.72682 8.08857 9.73036 8.09008 9.7339C8.09778 9.75197 8.10522 9.7701 8.11242 9.78833C8.11309 9.79004 8.11377 9.79177 8.11445 9.79351C8.11664 9.79909 8.1188 9.80465 8.12093 9.81022C8.12701 9.8261 8.13291 9.84206 8.13862 9.8581C8.14061 9.86367 8.14256 9.86926 8.14451 9.87485C8.14602 9.87921 8.14752 9.88357 8.149 9.88793C8.15141 9.895 8.15377 9.90209 8.15611 9.90919C8.15795 9.91479 8.15976 9.92035 8.16154 9.92592C8.16255 9.92908 8.16357 9.93229 8.16458 9.9355C8.16673 9.94232 8.16882 9.9491 8.17089 9.9559C8.17176 9.95877 8.17264 9.96165 8.1735 9.96453C8.17897 9.98277 8.1842 10.0011 8.18919 10.0195C8.19045 10.0241 8.19169 10.0287 8.19291 10.0334C8.1978 10.0519 8.20245 10.0704 8.20686 10.089C8.21244 10.1126 8.21765 10.1362 8.22245 10.16C8.22405 10.1679 8.22559 10.1758 8.2271 10.1837L8.22245 10.16C8.22735 10.1843 8.23185 10.2086 8.23594 10.2331C8.239 10.2514 8.24183 10.2698 8.24443 10.2882C8.24574 10.2975 8.24698 10.3068 8.24817 10.316C8.24968 10.3278 8.25111 10.3396 8.25242 10.3515C8.25344 10.3606 8.2544 10.3697 8.25531 10.3789C8.25554 10.3812 8.25576 10.3835 8.25598 10.3858C8.25649 10.3911 8.25697 10.3964 8.25744 10.4017C8.25791 10.407 8.25835 10.4123 8.25878 10.4175C8.25947 10.426 8.26011 10.4346 8.26071 10.4432C8.26319 10.4791 8.26479 10.5151 8.2655 10.5512C8.2656 10.5563 8.26568 10.5613 8.26574 10.5664C8.26583 10.573 8.26588 10.5796 8.2659 10.5862C8.26591 10.5879 8.26592 10.5897 8.26592 10.5915L8.26588 10.6067C8.26586 10.6102 8.26583 10.6137 8.2658 10.6173C8.26552 10.6434 8.26477 10.6696 8.26355 10.6958C8.26316 10.704 8.26272 10.7123 8.26224 10.7205C8.26203 10.7242 8.2618 10.7279 8.26157 10.7317C8.26126 10.7365 8.26095 10.7413 8.26061 10.7461C8.25936 10.7639 8.25789 10.7818 8.25619 10.7997C8.25449 10.8176 8.25256 10.8356 8.25041 10.8535C8.24983 10.8583 8.24924 10.8631 8.24863 10.8679C8.2461 10.8878 8.24329 10.9077 8.24021 10.9275C8.23138 10.9844 8.22027 11.0411 8.20683 11.0975L8.20513 11.1046L12.267 13.4497ZM25.3357 11.4926C25.8331 11.2054 26.0036 10.5694 25.7164 10.072C25.4292 9.57457 24.7932 9.40415 24.2958 9.69132C23.8848 9.92861 23.697 10.4041 23.8062 10.8427C23.8068 10.8449 23.8073 10.8471 23.8079 10.8493L23.8062 10.8427C23.8098 10.8571 23.8137 10.8715 23.8179 10.8858C23.8191 10.8898 23.8204 10.8939 23.8216 10.8979L23.8179 10.8858C23.8223 10.9006 23.8271 10.9155 23.8322 10.9302C23.837 10.9442 23.8421 10.9581 23.8476 10.9719C23.8491 10.9758 23.8507 10.9797 23.8523 10.9837L23.8476 10.9719C23.8509 10.9802 23.8543 10.9885 23.8578 10.9968L23.8523 10.9837C23.855 10.9904 23.8578 10.997 23.8607 11.0037L23.8578 10.9968C23.8606 11.0034 23.8634 11.0099 23.8663 11.0165L23.8607 11.0037C23.8641 11.0116 23.8676 11.0194 23.8713 11.0273L23.8663 11.0165C23.8697 11.0239 23.873 11.0312 23.8765 11.0385L23.8713 11.0273C23.8746 11.0345 23.878 11.0416 23.8815 11.0487L23.8765 11.0385C23.8806 11.047 23.8848 11.0556 23.8891 11.064L23.8815 11.0487C23.8849 11.0557 23.8884 11.0626 23.892 11.0696L23.8891 11.064C23.8973 11.0801 23.906 11.0961 23.9151 11.1119C23.9189 11.1185 23.9228 11.125 23.9267 11.1315C23.9341 11.1436 23.9417 11.1556 23.9494 11.1673C23.9505 11.1689 23.9515 11.1705 23.9526 11.172L23.9494 11.1673C23.9519 11.171 23.9544 11.1748 23.9569 11.1785L23.9526 11.172C23.9572 11.1788 23.9618 11.1855 23.9665 11.1922L23.9569 11.1785C23.9614 11.1849 23.9658 11.1913 23.9704 11.1977L23.9665 11.1922C23.9758 11.2053 23.9853 11.2182 23.9951 11.2309C23.9962 11.2323 23.9973 11.2337 23.9984 11.2351L23.9951 11.2309C23.9991 11.236 24.0031 11.2411 24.0072 11.2462L23.9984 11.2351C24.0039 11.2421 24.0095 11.249 24.0152 11.2559L24.0072 11.2462C24.0121 11.2522 24.017 11.2581 24.022 11.264L24.0152 11.2559C24.0198 11.2615 24.0245 11.267 24.0292 11.2725L24.022 11.264C24.039 11.2842 24.0566 11.3035 24.075 11.3222L24.0907 11.3378C24.4158 11.6542 24.9234 11.7306 25.3357 11.4926ZM6.74268 11.3951L6.75676 11.3834C6.75933 11.3812 6.7619 11.379 6.76445 11.3768L6.75676 11.3834C6.76221 11.3788 6.76756 11.374 6.77292 11.3693L6.76445 11.3768C6.7785 11.3646 6.79224 11.3519 6.80566 11.3389L6.82209 11.3225C6.82892 11.3156 6.83567 11.3086 6.84233 11.3014C6.84596 11.2975 6.84956 11.2936 6.85314 11.2896L6.84233 11.3014C6.84718 11.2962 6.85198 11.2909 6.85675 11.2856L6.85314 11.2896C6.85821 11.284 6.86323 11.2783 6.86819 11.2726L6.85675 11.2856C6.8628 11.2788 6.86878 11.272 6.87467 11.265L6.86819 11.2726C6.87354 11.2664 6.87883 11.2601 6.88405 11.2538L6.87467 11.265C6.87954 11.2593 6.88434 11.2535 6.8891 11.2476L6.88405 11.2538C6.88912 11.2476 6.89412 11.2414 6.89906 11.2351L6.8891 11.2476C6.89357 11.2421 6.89799 11.2365 6.90236 11.2309L6.89906 11.2351C6.90384 11.229 6.90855 11.2228 6.9132 11.2166L6.90236 11.2309C6.90765 11.224 6.91288 11.2171 6.91803 11.2102L6.9132 11.2166C6.91756 11.2108 6.92186 11.2049 6.92611 11.199L6.91803 11.2102C6.92256 11.204 6.92703 11.1978 6.93144 11.1915L6.92611 11.199C6.93098 11.1922 6.93578 11.1854 6.9405 11.1785L6.93144 11.1915C6.93597 11.1851 6.94044 11.1786 6.94485 11.172L6.9405 11.1785C6.94302 11.1748 6.94551 11.171 6.94799 11.1673L6.94485 11.172C6.94955 11.165 6.95418 11.1579 6.95874 11.1508L6.94799 11.1673C6.95993 11.1493 6.97138 11.1308 6.9823 11.1119L6.97567 11.1232C6.9779 11.1195 6.98011 11.1157 6.9823 11.1119C6.98824 11.1016 6.99398 11.0913 6.99953 11.0809C7.00154 11.0771 7.00351 11.0733 7.00547 11.0696L6.99953 11.0809C7.00252 11.0753 7.00545 11.0697 7.00832 11.064L7.00547 11.0696C7.01693 11.0474 7.02755 11.025 7.03732 11.0023C7.03813 11.0005 7.03892 10.9986 7.0397 10.9968L7.03732 11.0023C7.04452 10.9856 7.05127 10.9688 7.05755 10.9518L7.06529 10.9302C7.0655 10.9296 7.06571 10.9289 7.06593 10.9283C7.07083 10.914 7.07543 10.8996 7.0797 10.8851C7.08065 10.8819 7.08158 10.8786 7.0825 10.8754L7.0797 10.8851C7.08198 10.8774 7.08417 10.8696 7.08626 10.8619L7.0825 10.8754C7.0846 10.868 7.08662 10.8606 7.08854 10.8532L7.08626 10.8619C7.08816 10.8549 7.08996 10.8478 7.0917 10.8408L7.08854 10.8532C7.09068 10.845 7.09271 10.8368 7.09464 10.8285L7.0917 10.8408C7.09361 10.8331 7.09543 10.8254 7.09715 10.8176L7.09464 10.8285C7.09639 10.821 7.09805 10.8136 7.09963 10.8061L7.09715 10.8176C7.09888 10.8099 7.10053 10.8021 7.10207 10.7943L7.09963 10.8061C7.1898 10.3778 7.00123 9.92202 6.60165 9.69132C6.10426 9.40415 5.46824 9.57457 5.18107 10.072C4.8939 10.5694 5.06432 11.2054 5.56171 11.4926C5.94785 11.7155 6.41752 11.6626 6.74268 11.3951ZM7.60437 19.8418L10.0818 18.4115C9.66051 17.8929 9.40805 17.2316 9.40805 16.5114C9.40805 15.4275 9.97978 14.4772 10.8381 13.9456L7.65463 12.1077C7.65026 12.1122 7.64589 12.1167 7.6415 12.1212C7.63889 12.1238 7.6363 12.1265 7.63369 12.1291C7.63272 12.1301 7.63172 12.1311 7.63073 12.1321L7.613 12.1498C7.6117 12.151 7.61039 12.1523 7.60908 12.1536C7.6049 12.1577 7.60067 12.1618 7.59643 12.1659C7.59349 12.1687 7.59058 12.1715 7.58765 12.1743C7.57385 12.1874 7.55989 12.2004 7.54577 12.2131C7.54389 12.2149 7.54204 12.2165 7.54019 12.2182C7.53679 12.2212 7.53334 12.2243 7.52989 12.2274C7.52462 12.232 7.51934 12.2367 7.51405 12.2413C7.51152 12.2434 7.50901 12.2456 7.5065 12.2478C7.50141 12.2522 7.49629 12.2565 7.49115 12.2609C7.48764 12.2638 7.48413 12.2668 7.48061 12.2697C7.4755 12.274 7.47036 12.2782 7.46519 12.2824C7.46297 12.2843 7.46074 12.2861 7.45851 12.2879C7.45212 12.2931 7.44571 12.2982 7.43927 12.3033C7.43605 12.3059 7.43285 12.3084 7.42965 12.3109C7.4254 12.3142 7.42112 12.3176 7.41684 12.3209C7.41288 12.3239 7.40892 12.3269 7.40496 12.33C7.39978 12.3339 7.3946 12.3378 7.38939 12.3417C7.3874 12.3432 7.38537 12.3447 7.38334 12.3462C7.37676 12.3511 7.37017 12.3559 7.36356 12.3607C7.36033 12.363 7.35708 12.3654 7.35383 12.3677C7.34936 12.3709 7.34489 12.3741 7.3404 12.3772C7.33628 12.3801 7.33214 12.383 7.328 12.3859C7.32293 12.3894 7.31785 12.3929 7.31276 12.3964C7.30733 12.4001 7.30186 12.4038 7.29637 12.4074C7.29319 12.4095 7.29004 12.4116 7.28687 12.4137C7.28299 12.4163 7.27909 12.4188 7.27519 12.4214C7.27077 12.4243 7.26633 12.4271 7.26189 12.43C7.25567 12.434 7.24943 12.4379 7.24318 12.4418C7.24084 12.4433 7.2385 12.4448 7.23616 12.4462C7.23073 12.4496 7.22528 12.4529 7.21982 12.4563C7.21475 12.4594 7.20966 12.4624 7.20455 12.4655C7.20209 12.467 7.19961 12.4684 7.19714 12.4699C7.19082 12.4736 7.18448 12.4774 7.17812 12.481C7.17381 12.4835 7.16951 12.486 7.16521 12.4885C7.16123 12.4907 7.15723 12.493 7.15322 12.4953C7.14828 12.498 7.14334 12.5008 7.13839 12.5035C7.13402 12.5059 7.12964 12.5083 7.12524 12.5107C7.11957 12.5138 7.11388 12.5168 7.10817 12.5199C7.10511 12.5215 7.10206 12.5231 7.09901 12.5247C7.09203 12.5284 7.08501 12.532 7.07798 12.5356C7.07509 12.5371 7.07219 12.5386 7.0693 12.54C7.06435 12.5425 7.05941 12.545 7.05446 12.5475C7.0494 12.55 7.04433 12.5525 7.03925 12.5549C7.03497 12.557 7.03067 12.5591 7.02637 12.5611C7.0212 12.5636 7.01602 12.5661 7.01083 12.5685C7.00664 12.5705 7.00248 12.5724 6.99831 12.5743C6.99272 12.5769 6.98709 12.5795 6.98144 12.582C6.97734 12.5839 6.97325 12.5857 6.96915 12.5875C6.96452 12.5896 6.95988 12.5916 6.95525 12.5936C6.95023 12.5958 6.94519 12.598 6.94013 12.6002C6.93471 12.6025 6.92928 12.6048 6.92384 12.607C6.92016 12.6086 6.91649 12.6101 6.91281 12.6116C6.90643 12.6142 6.90004 12.6168 6.89364 12.6194C6.88954 12.621 6.8854 12.6226 6.88125 12.6243C6.87639 12.6262 6.87156 12.628 6.86673 12.6299C6.86214 12.6317 6.85751 12.6334 6.85288 12.6352C6.84704 12.6374 6.84123 12.6395 6.83542 12.6417C6.83186 12.643 6.82827 12.6443 6.82468 12.6456C6.8194 12.6475 6.81411 12.6494 6.80882 12.6512C6.80285 12.6534 6.7969 12.6554 6.79095 12.6575C6.78761 12.6586 6.78423 12.6598 6.78084 12.6609C6.77548 12.6627 6.77014 12.6645 6.76479 12.6662C6.75749 12.6686 6.75017 12.671 6.74284 12.6733C6.74052 12.6741 6.73821 12.6748 6.73589 12.6755C6.73116 12.677 6.72643 12.6785 6.72169 12.6799C6.70547 12.6849 6.68918 12.6897 6.67285 12.6943C6.6659 12.6962 6.6589 12.6982 6.65191 12.7001C6.65017 12.7005 6.64844 12.701 6.6467 12.7015C6.63903 12.7035 6.63136 12.7055 6.62367 12.7075C6.6203 12.7084 6.61694 12.7092 6.61357 12.7101C6.60876 12.7113 6.60394 12.7125 6.59911 12.7136C6.59212 12.7153 6.58514 12.717 6.57814 12.7186C6.57699 12.7189 6.5758 12.7192 6.57462 12.7195C6.56565 12.7215 6.55669 12.7236 6.54771 12.7255C6.54631 12.7258 6.5449 12.7261 6.5435 12.7264C6.53539 12.7282 6.52728 12.7299 6.51914 12.7316C6.51611 12.7322 6.5131 12.7328 6.5101 12.7334C6.50278 12.7349 6.49541 12.7363 6.48804 12.7377C6.48509 12.7383 6.48218 12.7388 6.47927 12.7394C6.47263 12.7406 6.46595 12.7418 6.45928 12.743C6.44205 12.746 6.42473 12.7488 6.40737 12.7515C6.40498 12.7518 6.40259 12.7522 6.40021 12.7525L6.39382 12.7535C6.3892 12.7542 6.38458 12.7548 6.37995 12.7554C6.37538 12.7561 6.37081 12.7567 6.36625 12.7573C6.36266 12.7578 6.35906 12.7582 6.35546 12.7587C6.33798 12.7609 6.32048 12.7629 6.30294 12.7647C6.29917 12.7651 6.29538 12.7655 6.2916 12.7659C6.28438 12.7666 6.27715 12.7672 6.26991 12.7679C6.26866 12.768 6.26742 12.7681 6.26618 12.7682C6.25767 12.7689 6.24916 12.7696 6.24065 12.7702C6.23661 12.7705 6.23251 12.7708 6.22842 12.7711C6.20875 12.7724 6.18909 12.7735 6.1694 12.7743C6.15662 12.7749 6.14384 12.7753 6.13105 12.7756C6.126 12.7757 6.12094 12.7758 6.11589 12.7759L6.08215 12.7762L6.08168 19.2238C6.13941 19.2239 6.1975 19.2262 6.25484 19.2309C6.35118 19.2386 6.44677 19.2527 6.54097 19.273C6.59924 19.2856 6.65701 19.3005 6.71408 19.3177C6.72495 19.321 6.73577 19.3244 6.74657 19.3278C6.7749 19.3369 6.80304 19.3465 6.83098 19.3567C6.8798 19.3745 6.92803 19.3941 6.97556 19.4153C7.0107 19.4311 7.04544 19.4477 7.07975 19.4653C7.09134 19.4712 7.10285 19.4773 7.1143 19.4834C7.12611 19.4897 7.13787 19.4962 7.14956 19.5027C7.15511 19.5058 7.16064 19.5089 7.16617 19.5121C7.18183 19.521 7.1974 19.5302 7.21286 19.5395C7.22588 19.5474 7.23882 19.5554 7.25168 19.5635C7.2798 19.5813 7.30754 19.5998 7.33489 19.6189C7.34358 19.625 7.35225 19.6312 7.36089 19.6374C7.36958 19.6437 7.37821 19.65 7.3868 19.6564C7.42969 19.6883 7.47155 19.7219 7.51224 19.7572C7.54365 19.7844 7.57438 19.8126 7.60437 19.8418ZM23.3101 19.8255C23.3131 19.8225 23.3162 19.8197 23.3192 19.8168C23.3395 19.7977 23.3601 19.7791 23.381 19.7608C23.3855 19.7569 23.3901 19.753 23.3946 19.7491C23.3983 19.7459 23.402 19.7428 23.4057 19.7396C23.4186 19.7287 23.4316 19.718 23.4447 19.7074C23.4483 19.7046 23.4518 19.7017 23.4554 19.6989C23.4615 19.694 23.4677 19.6891 23.474 19.6843C23.4751 19.6834 23.4762 19.6825 23.4773 19.6817C23.4831 19.6772 23.4888 19.6728 23.4946 19.6684C23.4987 19.6653 23.5028 19.6622 23.507 19.6591C23.511 19.6561 23.5151 19.653 23.5192 19.65C23.5228 19.6474 23.5264 19.6447 23.53 19.6421C23.5364 19.6375 23.5429 19.6328 23.5494 19.6282C23.5514 19.6267 23.5535 19.6253 23.5556 19.6238C23.5602 19.6205 23.5648 19.6173 23.5694 19.6141C23.5749 19.6103 23.5804 19.6066 23.5859 19.6028C23.5885 19.601 23.5912 19.5992 23.5938 19.5975C23.5993 19.5938 23.6048 19.5901 23.6104 19.5864C23.6149 19.5834 23.6195 19.5804 23.624 19.5774C23.6289 19.5743 23.6337 19.5712 23.6385 19.5681C23.641 19.5665 23.6435 19.5649 23.646 19.5634C23.6521 19.5595 23.6582 19.5557 23.6643 19.5519C23.6698 19.5485 23.6753 19.5451 23.6808 19.5418C23.6822 19.541 23.6835 19.5402 23.6848 19.5394C23.6919 19.5351 23.6991 19.5308 23.7063 19.5265C23.7101 19.5243 23.7138 19.5221 23.7176 19.52C23.722 19.5174 23.7265 19.5148 23.731 19.5122C23.7353 19.5098 23.7396 19.5073 23.7439 19.5049C23.7501 19.5015 23.7562 19.498 23.7624 19.4947C23.7655 19.493 23.7685 19.4913 23.7716 19.4896C23.7763 19.4871 23.781 19.4846 23.7856 19.4821C23.7905 19.4795 23.7954 19.4769 23.8003 19.4743C23.8061 19.4713 23.8119 19.4683 23.8178 19.4653C23.8205 19.4639 23.8232 19.4625 23.8259 19.4611C23.8319 19.4581 23.8379 19.4551 23.8439 19.4521C23.8483 19.4499 23.8528 19.4477 23.8572 19.4455C23.8626 19.4429 23.868 19.4403 23.8734 19.4377C23.876 19.4365 23.8786 19.4353 23.8813 19.434C23.8887 19.4305 23.8961 19.427 23.9036 19.4236C23.9064 19.4223 23.9093 19.421 23.9122 19.4197C23.9172 19.4174 23.9223 19.4151 23.9274 19.4129C23.9321 19.4108 23.9368 19.4087 23.9414 19.4067C23.9562 19.4002 23.9711 19.3939 23.9861 19.3878C23.992 19.3854 23.9979 19.383 24.0038 19.3807C24.0069 19.3794 24.01 19.3782 24.0131 19.3769C24.029 19.3707 24.045 19.3646 24.061 19.3587C24.0661 19.3568 24.0713 19.3549 24.0764 19.3531C24.0805 19.3516 24.0847 19.3501 24.0888 19.3487C24.0934 19.3471 24.098 19.3455 24.1026 19.3439C24.1087 19.3418 24.1148 19.3397 24.121 19.3376C24.125 19.3363 24.129 19.3349 24.1331 19.3336C24.1387 19.3318 24.1444 19.3299 24.1502 19.3281C24.1543 19.3268 24.1583 19.3255 24.1624 19.3242C24.1698 19.3219 24.1772 19.3196 24.1846 19.3174C24.1864 19.3168 24.1883 19.3163 24.1902 19.3157C24.1976 19.3135 24.205 19.3113 24.2125 19.3092C24.2159 19.3082 24.2193 19.3072 24.2228 19.3062C24.2284 19.3047 24.234 19.3031 24.2396 19.3016C24.2446 19.3002 24.2497 19.2988 24.2547 19.2975C24.261 19.2958 24.2673 19.2942 24.2737 19.2925C24.2765 19.2918 24.2794 19.2911 24.2822 19.2904C24.2992 19.2861 24.3162 19.282 24.3333 19.2781C24.3375 19.2772 24.3418 19.2762 24.3461 19.2753C24.3511 19.2742 24.356 19.2731 24.361 19.272C24.3666 19.2709 24.3721 19.2697 24.3777 19.2685C24.3837 19.2673 24.3897 19.2661 24.3958 19.2649C24.3987 19.2643 24.4017 19.2638 24.4047 19.2632C24.414 19.2614 24.4234 19.2597 24.4327 19.258C24.4335 19.2579 24.4343 19.2577 24.4352 19.2576C24.4414 19.2564 24.4477 19.2554 24.4539 19.2543C24.4596 19.2534 24.4653 19.2524 24.471 19.2515C24.4743 19.251 24.4775 19.2505 24.4807 19.25C24.4872 19.2489 24.4937 19.248 24.5002 19.247C24.507 19.246 24.5137 19.2451 24.5205 19.2441C24.5237 19.2437 24.5269 19.2433 24.5301 19.2428C24.5386 19.2417 24.5472 19.2406 24.5557 19.2396C24.5575 19.2394 24.5593 19.2392 24.5611 19.2389C24.5679 19.2381 24.5747 19.2374 24.5815 19.2366C24.5856 19.2362 24.5898 19.2358 24.5939 19.2353C24.5982 19.2349 24.6026 19.2344 24.6069 19.234C24.6135 19.2334 24.6201 19.2328 24.6268 19.2322C24.6325 19.2317 24.6382 19.2312 24.644 19.2308C24.6475 19.2305 24.6511 19.2302 24.6547 19.2299L24.659 19.2296C24.6742 19.2285 24.6895 19.2275 24.7047 19.2268C24.7276 19.2256 24.7507 19.2247 24.7737 19.2243C24.7877 19.224 24.8017 19.2238 24.8157 19.2238V12.7762C24.7702 12.7761 24.7244 12.7746 24.6792 12.7718C24.667 12.771 24.6548 12.7701 24.6426 12.7691C24.6104 12.7665 24.5782 12.7632 24.5462 12.7592C24.4425 12.7463 24.34 12.7259 24.2394 12.6984C24.2131 12.6912 24.1868 12.6835 24.1608 12.6753C24.1376 12.668 24.1146 12.6604 24.0918 12.6523C24.0845 12.6498 24.0773 12.6472 24.07 12.6446C24.0575 12.64 24.045 12.6354 24.0325 12.6306C24.015 12.6239 23.9976 12.6169 23.9802 12.6098C23.9705 12.6058 23.9608 12.6017 23.9511 12.5975C23.902 12.5764 23.8537 12.5534 23.8061 12.5287C23.7835 12.517 23.7611 12.5048 23.7389 12.4922C23.7251 12.4845 23.7117 12.4767 23.6983 12.4687C23.6612 12.4467 23.6248 12.4236 23.589 12.3993C23.5821 12.3946 23.5752 12.3899 23.5684 12.3851C23.5598 12.3792 23.5512 12.3731 23.5427 12.3671C23.5244 12.3539 23.5062 12.3404 23.4882 12.3267C23.4701 12.3129 23.4522 12.2988 23.4346 12.2843C23.4179 12.2708 23.4015 12.2569 23.3852 12.2428C23.3748 12.2338 23.3646 12.2248 23.3544 12.2156C23.3218 12.1862 23.29 12.1559 23.2591 12.1244L19.3182 14.3997C20.5729 14.5574 21.5466 15.6183 21.5675 16.9108L21.5679 16.9533C21.5679 17.5406 21.3712 18.0819 21.0402 18.515L23.3101 19.8255ZM15.3142 18.3833H18.994C19.7837 18.3833 20.4239 17.7431 20.4239 16.9533C20.4239 16.1636 19.7837 15.5234 18.994 15.5234L18.2062 15.5234L18.1639 14.9973C18.0558 13.6535 16.9296 12.6093 15.5725 12.6093C14.4884 12.6093 13.5298 13.2789 13.146 14.2735L13.0047 14.6395L12.4239 14.6395C11.39 14.6395 10.552 15.4775 10.552 16.5114C10.552 17.5452 11.39 18.3833 12.4239 18.3833H15.2197C15.2324 18.3833 15.2449 18.3831 15.257 18.3829L15.2693 18.3826L15.2979 18.3832L15.3142 18.3833ZM13.5571 25.724L13.5656 25.7095C13.5671 25.7069 13.5686 25.7044 13.5701 25.7018C13.573 25.6971 13.5758 25.6923 13.5787 25.6876C13.581 25.6836 13.5834 25.6797 13.5858 25.6758L13.5885 25.6715C13.6107 25.6355 13.634 25.6001 13.6582 25.5655C13.6671 25.5528 13.6761 25.5401 13.6853 25.5276C13.6883 25.5235 13.6914 25.5193 13.6945 25.5151C13.6972 25.5114 13.7 25.5078 13.7027 25.5042C13.7067 25.4988 13.7107 25.4935 13.7148 25.4882C13.7172 25.4851 13.7197 25.4819 13.7221 25.4788C13.726 25.4738 13.7298 25.4689 13.7337 25.4639C13.7365 25.4604 13.7393 25.4569 13.7421 25.4533C13.7457 25.4489 13.7492 25.4445 13.7528 25.4401C13.7551 25.4373 13.7573 25.4346 13.7595 25.4319L13.7658 25.4243C13.7668 25.423 13.7679 25.4218 13.7689 25.4205C13.7737 25.4148 13.7784 25.4091 13.7832 25.4035C13.7872 25.3988 13.7912 25.3941 13.7952 25.3894C13.8156 25.3658 13.8365 25.3427 13.8578 25.32C13.8757 25.301 13.894 25.2822 13.9126 25.2638C13.9168 25.2596 13.9211 25.2555 13.9253 25.2513C13.9283 25.2485 13.9312 25.2456 13.9342 25.2428C13.9384 25.2387 13.9426 25.2347 13.9469 25.2306C13.9506 25.2271 13.9542 25.2237 13.9579 25.2202C13.9618 25.2166 13.9658 25.2129 13.9697 25.2093C13.974 25.2053 13.9784 25.2014 13.9827 25.1974C13.9859 25.1946 13.989 25.1918 13.9921 25.189C14.0038 25.1785 14.0156 25.1682 14.0275 25.1579C14.036 25.1506 14.0446 25.1434 14.0532 25.1362C14.0818 25.1125 14.111 25.0894 14.1408 25.0671C14.1445 25.0643 14.1482 25.0615 14.152 25.0587C14.1565 25.0554 14.1611 25.052 14.1657 25.0487C14.1701 25.0455 14.1744 25.0424 14.1788 25.0392C14.1832 25.0361 14.1875 25.033 14.1919 25.0299C14.1968 25.0264 14.2018 25.023 14.2068 25.0195C14.2104 25.0171 14.214 25.0146 14.2176 25.0121C14.2215 25.0094 14.2254 25.0067 14.2294 25.0041C14.2355 25 14.2416 24.9959 14.2477 24.9919C14.2504 24.9901 14.2532 24.9883 14.256 24.9864C14.2618 24.9826 14.2676 24.9789 14.2735 24.9751C14.2767 24.973 14.28 24.971 14.2833 24.9689C14.2883 24.9657 14.2934 24.9625 14.2985 24.9594C14.3031 24.9565 14.3078 24.9536 14.3124 24.9508C14.3174 24.9478 14.3223 24.9448 14.3273 24.9418C14.3311 24.9395 14.3349 24.9372 14.3388 24.935C14.3446 24.9315 14.3504 24.9281 14.3562 24.9247C14.3597 24.9227 14.3632 24.9207 14.3666 24.9188C14.3925 24.904 14.4186 24.8897 14.4451 24.876C14.4531 24.8719 14.4611 24.8678 14.4691 24.8637C14.4725 24.862 14.476 24.8603 14.4794 24.8586C14.4839 24.8564 14.4884 24.8542 14.4929 24.852C14.4984 24.8493 14.504 24.8466 14.5096 24.8439C14.5133 24.8422 14.517 24.8404 14.5207 24.8386C14.526 24.8362 14.5313 24.8337 14.5366 24.8313C14.5416 24.829 14.5466 24.8267 14.5516 24.8244C14.558 24.8215 14.5645 24.8187 14.5709 24.8158C14.5736 24.8147 14.5763 24.8135 14.5789 24.8123C14.5849 24.8097 14.5909 24.8072 14.5969 24.8046C14.6019 24.8025 14.607 24.8004 14.6121 24.7983C14.6179 24.7958 14.6237 24.7934 14.6296 24.7911C14.6328 24.7898 14.636 24.7885 14.6392 24.7872C14.6475 24.7839 14.6558 24.7806 14.6641 24.7774C14.6663 24.7766 14.6684 24.7758 14.6705 24.775C14.686 24.7691 14.7016 24.7633 14.7173 24.7577C14.727 24.7543 14.7366 24.7509 14.7463 24.7477C14.7521 24.7457 14.7578 24.7438 14.7636 24.7419C14.7656 24.7412 14.7677 24.7405 14.7698 24.7399C14.7785 24.737 14.7872 24.7342 14.7959 24.7315C14.7987 24.7306 14.8015 24.7297 14.8043 24.7289C14.8104 24.727 14.8165 24.7252 14.8226 24.7233C14.829 24.7214 14.8355 24.7195 14.842 24.7176C14.8471 24.7162 14.8521 24.7147 14.8572 24.7133C14.8614 24.7121 14.8657 24.7109 14.87 24.7098C14.8754 24.7083 14.8808 24.7068 14.8863 24.7054C14.8881 24.7049 14.8898 24.7044 14.8916 24.704L14.8916 19.5272L12.4239 19.5272C11.9204 19.5272 11.4458 19.4038 11.0286 19.1857L8.18718 20.8262L8.18895 20.8327C8.18955 20.8349 8.19014 20.8371 8.19074 20.8393C8.19545 20.8567 8.19993 20.8741 8.20419 20.8916C8.22028 20.9575 8.23317 21.0239 8.24293 21.0905C8.2453 21.1066 8.24749 21.1228 8.24949 21.139C8.25007 21.1437 8.25063 21.1484 8.25118 21.1531L8.24949 21.139C8.25335 21.1702 8.25653 21.2015 8.25902 21.2327C8.25958 21.2397 8.26009 21.2466 8.26058 21.2535C8.26093 21.2586 8.26127 21.2636 8.26159 21.2686C8.26189 21.2735 8.26218 21.2784 8.26246 21.2832C8.26335 21.299 8.26406 21.3148 8.26461 21.3305C8.26525 21.349 8.26566 21.3675 8.26583 21.386C8.2659 21.3939 8.26593 21.4017 8.26591 21.4096C8.2659 21.4181 8.26585 21.4265 8.26573 21.435C8.26567 21.4401 8.26557 21.4452 8.26547 21.4503C8.26463 21.4918 8.26261 21.5332 8.25941 21.5745C8.2592 21.5773 8.25897 21.5801 8.25875 21.583C8.25828 21.5887 8.2578 21.5944 8.25729 21.6C8.25682 21.6053 8.25633 21.6106 8.25582 21.6159C8.25516 21.6227 8.25446 21.6296 8.25374 21.6364C8.25315 21.642 8.25254 21.6475 8.25191 21.6531C8.24994 21.6704 8.24777 21.6876 8.2454 21.7048C8.24361 21.7178 8.24169 21.7308 8.23967 21.7438C8.23632 21.7652 8.23266 21.7866 8.22868 21.8079C8.22742 21.8147 8.22613 21.8214 8.2248 21.8282C8.22182 21.8434 8.21867 21.8585 8.21537 21.8736C8.21139 21.8918 8.20719 21.91 8.20274 21.9281C8.19938 21.9418 8.19586 21.9555 8.19223 21.9692C8.19079 21.9746 8.18934 21.98 8.18787 21.9854C8.18073 22.0114 8.17311 22.0374 8.16501 22.0631C8.1593 22.0813 8.15333 22.0995 8.14714 22.1175C8.14634 22.1199 8.14554 22.1222 8.14474 22.1245C8.14196 22.1325 8.13913 22.1405 8.13626 22.1485C8.13092 22.1633 8.12542 22.1781 8.11976 22.1929C8.11794 22.1976 8.11611 22.2023 8.11426 22.207C8.11246 22.2116 8.11061 22.2162 8.10876 22.2209C8.10297 22.2353 8.09702 22.2498 8.09091 22.2641C8.08865 22.2694 8.08637 22.2748 8.08406 22.2801C8.08155 22.2859 8.07902 22.2916 8.07647 22.2973C8.07417 22.3025 8.07184 22.3077 8.06948 22.3129C8.06788 22.3164 8.06627 22.3199 8.06466 22.3234C8.06241 22.3283 8.06012 22.3332 8.05783 22.3381C8.05056 22.3536 8.04312 22.369 8.03548 22.3843C8.02667 22.402 8.01762 22.4195 8.00833 22.437C7.99709 22.4581 7.98548 22.479 7.97352 22.4998L13.5571 25.724ZM17.3403 25.724L22.9242 22.5002C22.917 22.4878 22.9102 22.4757 22.9036 22.4636C22.8943 22.4468 22.8852 22.4298 22.8764 22.4128C22.8697 22.3997 22.863 22.3866 22.8565 22.3733C22.8483 22.3566 22.8403 22.3398 22.8325 22.3229C22.8314 22.3203 22.8302 22.3178 22.829 22.3152C22.8212 22.298 22.8136 22.2807 22.8062 22.2633C22.8002 22.2492 22.7944 22.2351 22.7887 22.2209C22.7868 22.2162 22.785 22.2116 22.7832 22.207C22.7775 22.1926 22.772 22.1781 22.7667 22.1635C22.761 22.1483 22.7556 22.1329 22.7503 22.1175C22.7476 22.1095 22.7448 22.1015 22.7422 22.0934C22.7407 22.089 22.7393 22.0846 22.7379 22.0802C22.7372 22.0781 22.7365 22.0761 22.7359 22.0741L22.7379 22.0802C22.7343 22.0691 22.7308 22.0581 22.7274 22.047C22.7195 22.0211 22.7121 21.995 22.7051 21.9688C22.7048 21.9677 22.7045 21.9667 22.7043 21.9656C22.699 21.9455 22.6939 21.9254 22.6892 21.9051C22.6832 21.8796 22.6777 21.8539 22.6726 21.8282C22.6713 21.8214 22.67 21.8147 22.6688 21.8079C22.6648 21.7866 22.6611 21.7652 22.6578 21.7438C22.6536 21.7173 22.65 21.6907 22.6468 21.664C22.6449 21.648 22.6432 21.632 22.6416 21.6159C22.6414 21.6141 22.6413 21.6122 22.6411 21.6104L22.6416 21.6159C22.6405 21.6046 22.6395 21.5934 22.6386 21.5821C22.6384 21.5795 22.6382 21.577 22.638 21.5745C22.6374 21.5661 22.6368 21.5576 22.6362 21.5492C22.6359 21.5437 22.6355 21.5383 22.6352 21.5329C22.6349 21.528 22.6347 21.5231 22.6344 21.5183C22.6335 21.5 22.6328 21.4816 22.6323 21.4633C22.6322 21.4597 22.6321 21.4561 22.632 21.4525C22.6319 21.4467 22.6318 21.4408 22.6317 21.435C22.6317 21.4304 22.6316 21.4257 22.6316 21.4211C22.6315 21.4136 22.6315 21.4061 22.6315 21.3987C22.6316 21.3929 22.6316 21.3871 22.6317 21.3814C22.6317 21.3781 22.6317 21.3748 22.6318 21.3716C22.6319 21.3634 22.6321 21.3553 22.6323 21.3472C22.6324 21.3438 22.6325 21.3405 22.6326 21.3371C22.6328 21.3307 22.633 21.3243 22.6333 21.318C22.6335 21.3123 22.6338 21.3066 22.6341 21.3009C22.6343 21.2967 22.6345 21.2925 22.6347 21.2883C22.6351 21.2817 22.6354 21.2752 22.6359 21.2686C22.6363 21.2614 22.6368 21.2541 22.6373 21.2468C22.6376 21.2438 22.6378 21.2407 22.638 21.2377C22.6392 21.2222 22.6406 21.2067 22.6421 21.1912C22.6461 21.1513 22.6512 21.1115 22.6573 21.0717C22.6642 21.0276 22.6725 20.9836 22.6821 20.9397C22.6826 20.9374 22.6831 20.9351 22.6836 20.9329C22.6879 20.9136 22.6925 20.8944 22.6973 20.8753C22.699 20.8687 22.7006 20.8622 22.7023 20.8556C22.7037 20.8505 22.705 20.8454 22.7064 20.8403C22.708 20.8345 22.7096 20.8288 22.7112 20.823C22.7125 20.8183 22.7138 20.8135 22.7152 20.8088C22.7157 20.8071 22.7162 20.8054 22.7166 20.8037L20.0858 19.2848C19.7543 19.4403 19.3843 19.5272 18.994 19.5272L16.0354 19.5272V24.712C16.0385 24.7128 16.0415 24.7137 16.0445 24.7145C16.0484 24.7156 16.0523 24.7167 16.0561 24.7178C16.0769 24.7238 16.0976 24.7302 16.1182 24.7368C16.1353 24.7423 16.1523 24.748 16.1692 24.7539C16.1723 24.755 16.1753 24.756 16.1784 24.7571C16.1857 24.7597 16.193 24.7623 16.2003 24.765C16.2042 24.7664 16.208 24.7679 16.2119 24.7693C16.2183 24.7717 16.2247 24.7741 16.2311 24.7766C16.2344 24.7778 16.2376 24.7791 16.2408 24.7803C16.2483 24.7832 16.2558 24.7862 16.2632 24.7892C16.2664 24.7905 16.2695 24.7918 16.2727 24.793C16.2789 24.7956 16.285 24.7981 16.2911 24.8006C16.2951 24.8023 16.2992 24.804 16.3033 24.8058C16.3102 24.8087 16.3172 24.8117 16.3241 24.8148C16.3271 24.8161 16.33 24.8174 16.3329 24.8186C16.3395 24.8216 16.3462 24.8246 16.3528 24.8276C16.3563 24.8292 16.3597 24.8307 16.3631 24.8323C16.392 24.8457 16.4207 24.8597 16.449 24.8743C16.4549 24.8773 16.4608 24.8804 16.4667 24.8835C16.4704 24.8855 16.4742 24.8875 16.4779 24.8895C16.4833 24.8924 16.4887 24.8953 16.4941 24.8982C16.4986 24.9007 16.503 24.9031 16.5074 24.9056C16.5111 24.9076 16.5148 24.9097 16.5185 24.9117C16.5248 24.9153 16.5312 24.9189 16.5375 24.9226C16.541 24.9246 16.5445 24.9266 16.548 24.9287C16.5522 24.9312 16.5565 24.9336 16.5607 24.9361C16.5668 24.9397 16.5728 24.9434 16.5789 24.9471C16.582 24.949 16.5852 24.9509 16.5883 24.9528C16.5935 24.956 16.5987 24.9592 16.6038 24.9624C16.6086 24.9654 16.6134 24.9684 16.6182 24.9715C16.6227 24.9743 16.6272 24.9772 16.6317 24.9801C16.6364 24.9831 16.641 24.9861 16.6456 24.9891C16.6496 24.9918 16.6537 24.9945 16.6577 24.9971C16.6629 25.0006 16.6681 25.0041 16.6733 25.0076C16.6917 25.0201 16.7099 25.0328 16.7278 25.0459C16.7306 25.0479 16.7334 25.0499 16.7362 25.052C16.7387 25.0538 16.7412 25.0556 16.7437 25.0575C16.7583 25.0682 16.7726 25.0791 16.7869 25.0901C16.791 25.0933 16.7951 25.0965 16.7992 25.0997C16.804 25.1036 16.8088 25.1074 16.8137 25.1113C16.8175 25.1143 16.8213 25.1174 16.8251 25.1205C16.8282 25.123 16.8312 25.1255 16.8343 25.128C16.8472 25.1386 16.8599 25.1493 16.8726 25.1602C16.8942 25.1788 16.9155 25.1979 16.9364 25.2173C16.9515 25.2314 16.9665 25.2457 16.9813 25.2603C16.9846 25.2635 16.9879 25.2668 16.9912 25.2701C16.9936 25.2726 16.9961 25.2751 16.9986 25.2776C17.0184 25.2975 17.0378 25.3178 17.0568 25.3384C17.0675 25.3501 17.0781 25.3619 17.0886 25.3738C17.0923 25.3781 17.0961 25.3824 17.0998 25.3867C17.1097 25.398 17.1194 25.4095 17.1289 25.421C17.1496 25.4458 17.1696 25.4711 17.1892 25.4968C17.1993 25.5101 17.2093 25.5236 17.2191 25.5372C17.2284 25.55 17.2375 25.5629 17.2465 25.5759C17.2501 25.5811 17.2537 25.5864 17.2573 25.5917C17.2592 25.5945 17.2611 25.5973 17.263 25.6001C17.2665 25.6053 17.27 25.6106 17.2734 25.6158C17.276 25.6198 17.2786 25.6237 17.2812 25.6276C17.2841 25.6321 17.287 25.6367 17.2899 25.6412C17.3073 25.6684 17.3241 25.696 17.3403 25.724ZM6.60165 22.3087C6.98957 22.0847 7.1786 21.6486 7.1068 21.2315C7.10507 21.2211 7.10311 21.2106 7.10098 21.2003C7.09972 21.1943 7.09845 21.1883 7.09712 21.1824C7.09641 21.179 7.09564 21.1757 7.09486 21.1723L7.09712 21.1824C7.09548 21.175 7.09376 21.1676 7.09195 21.1603L7.09486 21.1723C7.09281 21.1636 7.09064 21.1548 7.08835 21.146L7.09195 21.1603C7.09029 21.1535 7.08857 21.1468 7.08677 21.1401L7.08835 21.146C7.08642 21.1386 7.08442 21.1313 7.08232 21.1239L7.08677 21.1401C7.0846 21.132 7.08232 21.1239 7.07994 21.1158L7.08232 21.1239C7.07799 21.1087 7.07329 21.0936 7.06825 21.0785C7.06758 21.0765 7.06689 21.0745 7.0662 21.0725L7.06825 21.0785C7.06237 21.061 7.056 21.0436 7.04915 21.0263C7.04823 21.024 7.04731 21.0216 7.04637 21.0193L7.04915 21.0263C7.04636 21.0193 7.0435 21.0123 7.04055 21.0053L7.04637 21.0193C7.04336 21.0119 7.04026 21.0044 7.03706 20.997L7.04055 21.0053C7.0309 20.9824 7.02039 20.9597 7.009 20.9373C7.00784 20.935 7.00666 20.9327 7.00547 20.9304L7.009 20.9373C7.00591 20.9312 7.00275 20.9252 6.99953 20.9191L7.00547 20.9304C7.00062 20.9211 6.99562 20.9118 6.99047 20.9025L6.9823 20.8881C6.9744 20.8744 6.96622 20.861 6.95778 20.8477C6.95673 20.8461 6.95567 20.8444 6.9546 20.8428L6.95778 20.8477C6.95347 20.841 6.94908 20.8343 6.94462 20.8276L6.9546 20.8428C6.95023 20.836 6.94579 20.8293 6.94128 20.8227L6.94462 20.8276C6.94032 20.8212 6.93595 20.8149 6.93152 20.8086L6.94128 20.8227C6.93662 20.8158 6.9319 20.8091 6.9271 20.8023L6.93152 20.8086C6.92721 20.8025 6.92284 20.7964 6.91842 20.7904L6.9271 20.8023C6.9224 20.7958 6.91764 20.7893 6.91281 20.7828L6.91842 20.7904C6.91364 20.7839 6.9088 20.7775 6.90388 20.7711L6.91281 20.7828C6.90816 20.7766 6.90345 20.7705 6.89869 20.7644L6.90388 20.7711C6.89015 20.7533 6.87589 20.7361 6.86115 20.7194C6.85498 20.7123 6.84871 20.7054 6.84236 20.6986C6.83853 20.6945 6.8347 20.6904 6.83084 20.6864C6.8255 20.6809 6.82009 20.6754 6.81463 20.67C6.80637 20.6617 6.79797 20.6536 6.78945 20.6457C6.78747 20.6439 6.78552 20.6421 6.78356 20.6403L6.78945 20.6457C6.7841 20.6407 6.77869 20.6358 6.77324 20.631L6.78356 20.6403C6.45782 20.3424 5.96435 20.275 5.56171 20.5074C5.06432 20.7946 4.8939 21.4306 5.18107 21.928C5.46824 22.4254 6.10426 22.5958 6.60165 22.3087ZM25.7164 21.928C26.0036 21.4306 25.8331 20.7946 25.3357 20.5074C24.9132 20.2635 24.3908 20.3497 24.067 20.6861C24.0591 20.6942 24.0513 20.7026 24.0437 20.711C24.0422 20.7127 24.0407 20.7143 24.0392 20.716L24.0437 20.711C24.0383 20.717 24.033 20.723 24.0278 20.7291L24.0392 20.716C24.0341 20.7218 24.029 20.7276 24.024 20.7335L24.0278 20.7291C24.0227 20.735 24.0177 20.741 24.0128 20.747L24.024 20.7335C24.019 20.7394 24.0141 20.7453 24.0092 20.7514L24.0128 20.747C24.0081 20.7528 24.0034 20.7586 23.9988 20.7644L24.0092 20.7514C24.0039 20.7579 23.9987 20.7644 23.9936 20.7711L23.9988 20.7644C23.994 20.7705 23.9893 20.7767 23.9846 20.7829L23.9936 20.7711C23.9888 20.7772 23.9841 20.7834 23.9795 20.7897L23.9846 20.7829C23.9798 20.7893 23.975 20.7958 23.9703 20.8024L23.9795 20.7897C23.975 20.7958 23.9706 20.8019 23.9663 20.8081L23.9703 20.8024C23.9655 20.8091 23.9608 20.8159 23.9562 20.8227L23.9663 20.8081C23.9617 20.8146 23.9572 20.8211 23.9528 20.8276L23.9562 20.8227C23.9517 20.8293 23.9472 20.836 23.9428 20.8428L23.9528 20.8276C23.9483 20.8343 23.9439 20.8411 23.9395 20.848L23.9428 20.8428C23.9333 20.8576 23.924 20.8727 23.9151 20.8881C23.9071 20.9021 23.8993 20.9162 23.892 20.9304C23.8906 20.9331 23.8892 20.9359 23.8878 20.9386L23.892 20.9304C23.8882 20.9377 23.8845 20.945 23.8809 20.9524L23.8878 20.9386C23.8839 20.9462 23.8802 20.9538 23.8766 20.9614L23.8809 20.9524C23.8775 20.9593 23.8742 20.9663 23.871 20.9734L23.8766 20.9614C23.8732 20.9684 23.87 20.9755 23.8668 20.9825L23.871 20.9734C23.8675 20.9808 23.8642 20.9883 23.8609 20.9958L23.8668 20.9825C23.8633 20.9902 23.86 20.9979 23.8567 21.0056L23.8609 20.9958C23.8584 21.0016 23.856 21.0073 23.8536 21.0131L23.8567 21.0056C23.8535 21.0133 23.8504 21.021 23.8473 21.0287L23.8399 21.0482C23.8369 21.0563 23.834 21.0644 23.8313 21.0725C23.8275 21.0835 23.8239 21.0946 23.8205 21.1057C23.8196 21.1087 23.8187 21.1118 23.8177 21.1149L23.8205 21.1057C23.816 21.1204 23.8119 21.1352 23.8081 21.1501C23.8073 21.1531 23.8065 21.1562 23.8057 21.1593L23.8081 21.1501C23.695 21.5907 23.8825 22.0701 24.2958 22.3087C24.7932 22.5958 25.4292 22.4254 25.7164 21.928ZM15.4487 27.8561C16.0231 27.8561 16.4887 27.3905 16.4887 26.8161C16.4887 26.3762 16.2155 26.0001 15.8296 25.8481C15.827 25.847 15.8244 25.846 15.8218 25.845L15.8296 25.8481C15.8233 25.8457 15.817 25.8433 15.8107 25.8409L15.8218 25.845C15.8149 25.8424 15.8079 25.8398 15.801 25.8373L15.8107 25.8409C15.8041 25.8385 15.7975 25.8361 15.7909 25.8338L15.801 25.8373C15.7953 25.8353 15.7896 25.8333 15.7839 25.8313L15.7909 25.8338C15.775 25.8282 15.7589 25.8231 15.7426 25.8183C15.738 25.8169 15.7333 25.8156 15.7287 25.8143L15.7426 25.8183C15.7367 25.8166 15.7308 25.8149 15.7248 25.8132L15.7287 25.8143C15.7222 25.8125 15.7156 25.8107 15.7091 25.809L15.7248 25.8132C15.7162 25.8109 15.7076 25.8086 15.6989 25.8065L15.7091 25.809C15.7012 25.807 15.6932 25.8051 15.6852 25.8032L15.6989 25.8065C15.6929 25.805 15.6869 25.8036 15.681 25.8022L15.6852 25.8032C15.6786 25.8017 15.6719 25.8002 15.6652 25.7988L15.681 25.8022C15.6729 25.8004 15.6647 25.7986 15.6566 25.797L15.6652 25.7988C15.6567 25.797 15.6481 25.7953 15.6395 25.7937L15.6566 25.797C15.6498 25.7956 15.6431 25.7943 15.6363 25.7931L15.6395 25.7937C15.634 25.7926 15.6285 25.7917 15.623 25.7907L15.6363 25.7931C15.6258 25.7912 15.6153 25.7894 15.6047 25.7878C15.6004 25.7872 15.596 25.7865 15.5917 25.7859L15.6047 25.7878C15.5973 25.7867 15.5899 25.7857 15.5824 25.7847L15.5917 25.7859C15.5849 25.785 15.5782 25.7842 15.5714 25.7834L15.5824 25.7847C15.5754 25.7838 15.5683 25.783 15.5612 25.7822L15.5714 25.7834C15.5633 25.7824 15.5552 25.7815 15.547 25.7808L15.5612 25.7822C15.5537 25.7814 15.5461 25.7807 15.5385 25.78L15.547 25.7808C15.5397 25.7801 15.5322 25.7795 15.5248 25.7789L15.5385 25.78C15.5316 25.7794 15.5248 25.7789 15.5179 25.7784L15.5248 25.7789C15.5162 25.7783 15.5076 25.7778 15.499 25.7774L15.5179 25.7784C15.5103 25.778 15.5028 25.7775 15.4952 25.7772L15.499 25.7774C15.4916 25.777 15.4841 25.7768 15.4767 25.7766L15.4952 25.7772C15.4873 25.7769 15.4794 25.7766 15.4716 25.7764L15.4487 25.7762L15.4259 25.7764C15.4241 25.7765 15.4223 25.7765 15.4205 25.7766L15.4259 25.7764C15.418 25.7766 15.4102 25.7769 15.4024 25.7772L15.4205 25.7766C15.413 25.7768 15.4055 25.777 15.398 25.7774L15.4024 25.7772C15.3949 25.7775 15.3873 25.7779 15.3798 25.7784L15.398 25.7774C15.3895 25.7778 15.381 25.7783 15.3725 25.7789L15.3798 25.7784C15.3727 25.7789 15.3657 25.7794 15.3586 25.78L15.3725 25.7789C15.3651 25.7795 15.3578 25.7801 15.3505 25.7808L15.3586 25.78C15.351 25.7807 15.3435 25.7814 15.3359 25.7822L15.3505 25.7808C15.3425 25.7815 15.3345 25.7824 15.3265 25.7833L15.3359 25.7822C15.3283 25.7831 15.3208 25.784 15.3132 25.7849L15.3265 25.7833C15.3196 25.7841 15.3127 25.785 15.3058 25.7859L15.3132 25.7849C15.3064 25.7858 15.2995 25.7868 15.2927 25.7878L15.3058 25.7859C15.2953 25.7874 15.285 25.789 15.2747 25.7907C15.2701 25.7915 15.2656 25.7923 15.2611 25.7931L15.2747 25.7907C15.2691 25.7916 15.2637 25.7926 15.2582 25.7936L15.2611 25.7931C15.2541 25.7943 15.2472 25.7957 15.2403 25.7971L15.2582 25.7936C15.2497 25.7952 15.2412 25.7969 15.2328 25.7986L15.2403 25.7971C15.2324 25.7987 15.2244 25.8004 15.2165 25.8022L15.2328 25.7986C15.2258 25.8001 15.2189 25.8016 15.212 25.8032L15.2165 25.8022C15.2107 25.8035 15.205 25.8049 15.1992 25.8063L15.212 25.8032C15.204 25.8051 15.1961 25.807 15.1882 25.8091L15.1992 25.8063C15.191 25.8083 15.1828 25.8104 15.1747 25.8126L15.1882 25.8091C15.1814 25.8108 15.1746 25.8127 15.1678 25.8146L15.1747 25.8126C15.1689 25.8142 15.1631 25.8159 15.1573 25.8176L15.1678 25.8146C15.1495 25.8197 15.1314 25.8253 15.1135 25.8314C15.1112 25.8321 15.109 25.8329 15.1067 25.8337L15.1135 25.8314C15.1069 25.8336 15.1004 25.8359 15.0939 25.8383L15.1067 25.8337C15.1006 25.8358 15.0945 25.838 15.0885 25.8402L15.0939 25.8383C15.087 25.8408 15.0803 25.8433 15.0735 25.8459L15.0885 25.8402C15.0822 25.8425 15.0758 25.8449 15.0696 25.8474L15.0735 25.8459C14.6846 25.9965 14.4088 26.3741 14.4088 26.8161C14.4088 27.3905 14.8744 27.8561 15.4487 27.8561Z" fill="#110F23"/>
</svg>
