<svg width="32" height="32" viewBox="0 0 32 32" fill="none" xmlns="http://www.w3.org/2000/svg">
<path fill-rule="evenodd" clip-rule="evenodd" d="M16 3C23.1797 3 29 8.8203 29 16C29 23.1797 23.1797 29 16 29C8.8203 29 3 23.1797 3 16C3 8.8203 8.8203 3 16 3ZM16.3014 23.8949C16.2663 23.8977 16.2308 23.9002 16.1951 23.9025L16.3861 23.8911C16.3579 23.8925 16.3297 23.8938 16.3014 23.8949ZM19.156 21.6125C19.1358 22.8885 18.1812 23.7463 16.3014 23.8949C16.1944 23.8991 16.0865 23.9015 15.9786 23.9015C11.603 23.9015 8.05557 20.3541 8.05557 15.9785C8.05557 14.8292 8.30082 13.7374 8.74066 12.7513L8.72664 12.7822C8.73208 12.7701 8.73753 12.758 8.743 12.7461C8.75589 12.7172 8.76895 12.6884 8.78217 12.6598L8.74818 12.7347C9.69496 10.6675 11.1027 10.1917 11.7818 10.655C12.4418 11.105 12.322 12.1638 12.1894 13.3352C12.104 14.0899 12.0133 14.8913 12.1225 15.6067C12.2835 16.6618 12.8755 17.8967 14.052 17.6802C15.1513 17.4778 15.3875 16.1404 15.1042 15.1116C14.951 14.556 14.5276 13.8999 14.086 13.2153C13.4615 12.2476 12.8005 11.223 12.8143 10.3454C12.8349 9.04561 13.8251 8.1797 15.7753 8.05546V8.05829C15.8431 8.0564 15.9108 8.05546 15.9795 8.05546C20.3552 8.05546 23.9026 11.6029 23.9026 15.9785C23.9026 17.1446 23.6503 18.2515 23.1985 19.2482L23.2399 19.1531C22.2922 21.2614 20.8719 21.7697 20.1876 21.3028C19.2307 20.6491 19.2613 17.7195 19.2817 15.7704C19.2844 15.5111 19.2869 15.2692 19.2869 15.0524C19.2869 13.8353 18.5339 12.7624 17.3574 12.9789C16.2581 13.1812 16.0219 14.5187 16.3052 15.5474C16.4549 16.0906 16.9543 16.9422 17.4942 17.8629C18.2883 19.217 19.1701 20.7206 19.156 21.6125Z" fill="#E6DAFE"/>
</svg>
