<svg width="32" height="32" viewBox="0 0 32 32" fill="none" xmlns="http://www.w3.org/2000/svg">
<path d="M15.9667 19.7309L19.6512 25.3445L23.0547 23.4298L18.2159 16.026L15.9667 19.7309Z" fill="#110F23"/>
<path d="M26.1538 21.1782L26.1514 19.644L20.8641 11.6497L18.9025 14.8808L24.0066 22.8944L25.8522 21.8562C26.0331 21.7136 26.1426 21.5042 26.1542 21.2782L26.1538 21.1782Z" fill="#110F23"/>
<path d="M3.99813 22.6245L6.60423 24.0824L15.2767 10.5808L13.8048 10.5431C12.5507 10.5259 11.1998 10.8424 10.5797 11.825L5.65488 19.235L3.99805 21.7064L3.99813 22.6245Z" fill="#110F23"/>
<path d="M20.2817 10.5815L16.4026 10.5952L7.62624 24.6544L10.6938 26.3691L11.528 24.9955L20.2817 10.5815Z" fill="#110F23"/>
<path d="M27.7888 10.5619C27.7564 9.77431 27.3173 9.05331 26.6292 8.6336L16.9854 3.24987C16.3048 2.91713 15.4545 2.91673 14.7728 3.24963C14.6922 3.28906 5.39435 8.52384 5.39435 8.52384C5.2657 8.58371 5.14178 8.65508 5.02515 8.73602C4.41093 9.1634 4.03651 9.82742 3.99805 10.557V21.7064L5.65488 19.235L5.64037 10.6324C5.64236 10.601 5.64642 10.5701 5.65214 10.5395C5.68953 10.337 5.80599 10.1565 5.9813 10.0345C6.02507 10.004 15.4816 4.69025 15.5117 4.67561C15.7341 4.56722 16.0165 4.56609 16.239 4.67231L25.758 9.98771C25.9832 10.1269 26.1244 10.363 26.137 10.6211V21.2782C26.1253 21.5042 26.0333 21.7135 25.8522 21.8562L24.0066 22.8944L23.0547 23.4298L19.6512 25.3445L16.1996 27.2867C16.0136 27.352 15.7963 27.3484 15.612 27.2755L11.528 24.9955L10.6938 26.3691L14.3639 28.42C14.4853 28.4869 14.5935 28.5464 14.6822 28.5947C14.8196 28.6696 14.9132 28.7196 14.9463 28.7351C15.2071 28.858 15.5824 28.9296 15.9206 28.9296C16.2307 28.9296 16.533 28.8744 16.8191 28.7656L26.8444 23.1295C27.4198 22.6965 27.7583 22.044 27.7888 21.3369V10.5619Z" fill="#110F23"/>
</svg>
