<svg width="32" height="32" viewBox="0 0 32 32" fill="none" xmlns="http://www.w3.org/2000/svg">
<path d="M6.99505 13.5188C7.25199 14.0681 7.88794 15.1537 7.88794 15.1537L15.2399 3L8.06459 8.0105C7.63705 8.29572 7.28627 8.68179 7.04322 9.13465C6.71643 9.81783 6.5428 10.5641 6.53447 11.3214C6.52615 12.0787 6.68334 12.8286 6.99505 13.5188Z" fill="#110F23"/>
<path d="M4.08188 17.5208C4.1629 18.6834 4.49136 19.8152 5.04529 20.8405C5.59921 21.8658 6.36581 22.761 7.29374 23.466L15.2302 29C15.2302 29 10.2647 21.844 6.07645 14.7233C5.65243 13.971 5.36738 13.1485 5.23494 12.2951C5.17631 11.9087 5.17631 11.5157 5.23494 11.1292C5.12574 11.3316 4.91375 11.7459 4.91375 11.7459C4.48908 12.612 4.19986 13.5382 4.05619 14.492C3.97349 15.5003 3.98209 16.5141 4.08188 17.5208Z" fill="#110F23"/>
<path d="M24.3294 18.4811C24.0725 17.9319 23.4365 16.8463 23.4365 16.8463L16.0846 29L23.2599 23.9927C23.6874 23.7075 24.0382 23.3214 24.2812 22.8685C24.6085 22.1849 24.7824 21.438 24.7907 20.6802C24.7991 19.9223 24.6416 19.1718 24.3294 18.4811Z" fill="#110F23"/>
<path d="M27.2426 14.4792C27.1616 13.3166 26.8331 12.1848 26.2792 11.1595C25.7253 10.1342 24.9587 9.23904 24.0307 8.53403L16.0942 3C16.0942 3 21.0566 10.156 25.248 17.2767C25.6709 18.0292 25.9549 18.8517 26.0863 19.7049C26.145 20.0913 26.145 20.4843 26.0863 20.8708C26.1955 20.6684 26.4075 20.2541 26.4075 20.2541C26.8322 19.388 27.1214 18.4618 27.2651 17.508C27.3488 16.4997 27.3413 15.486 27.2426 14.4792Z" fill="#110F23"/>
<path d="M7.04322 9.13465C7.28627 8.68179 7.63705 8.29572 8.06459 8.0105L15.2399 3L7.88793 15.1569C7.88793 15.1569 7.24556 14.0713 6.99504 13.522C6.68284 12.8314 6.5254 12.0809 6.53372 11.323C6.54204 10.5651 6.71594 9.81826 7.04322 9.13465ZM4.08188 17.5208C4.1629 18.6834 4.49136 19.8152 5.04529 20.8405C5.59921 21.8658 6.36581 22.761 7.29374 23.466L15.2302 29C15.2302 29 10.2647 21.844 6.07645 14.7233C5.65243 13.971 5.36738 13.1485 5.23494 12.2951C5.17631 11.9087 5.17631 11.5157 5.23494 11.1292C5.12574 11.3316 4.91375 11.7459 4.91375 11.7459C4.48908 12.612 4.19986 13.5382 4.05619 14.492C3.97349 15.5003 3.98209 16.5141 4.08188 17.5208ZM24.3166 18.4844C24.0596 17.9351 23.4237 16.8495 23.4237 16.8495L16.0846 29L23.2599 23.9927C23.6874 23.7075 24.0382 23.3214 24.2812 22.8685C24.6085 22.1849 24.7824 21.438 24.7907 20.6802C24.7991 19.9223 24.6416 19.1718 24.3294 18.4811L24.3166 18.4844ZM27.2297 14.4824C27.1487 13.3198 26.8203 12.188 26.2663 11.1627C25.7124 10.1374 24.9458 9.24225 24.0179 8.53724L16.0942 3C16.0942 3 21.0566 10.156 25.248 17.2767C25.6709 18.0292 25.9549 18.8517 26.0863 19.7049C26.145 20.0913 26.145 20.4843 26.0863 20.8708C26.1955 20.6684 26.4075 20.2541 26.4075 20.2541C26.8322 19.388 27.1214 18.4618 27.2651 17.508C27.3488 16.4997 27.3413 15.486 27.2426 14.4792L27.2297 14.4824Z" fill="#110F23" style="mix-blend-mode:color"/>
</svg>
