<svg width="32" height="32" viewBox="0 0 32 32" fill="none" xmlns="http://www.w3.org/2000/svg">
<path d="M15.8778 10.6191V16.6899L10.2243 13.4064L15.8778 10.6191Z" fill="#110F23"/>
<path d="M21.53 13.4075L15.8765 10.6202V3L21.53 13.4075Z" fill="#110F23"/>
<path d="M15.8776 19.0343V25.5052L21.6392 15.6878L15.8776 19.0353V19.0343Z" fill="#110F23"/>
<path d="M22.59 17.1702L23.8953 21.0641L26.7538 15.9879L22.59 17.1702Z" fill="#110F23"/>
<path d="M26.7527 20.1633L22.5889 27.5594L19.426 28.999L23.8941 21.064L26.7527 20.1633Z" fill="#110F23"/>
<path d="M15.8773 29L9.16452 17.1711L7.8593 21.065L12.3274 29H15.8773Z" fill="#110F23"/>
<path d="M7.85856 21.064L5 20.1633V15.9867L7.85856 21.0629V21.064Z" fill="#110F23"/>
<path d="M10.2243 13.4075L15.8778 10.6202V3L10.2243 13.4075Z" fill="#110F23" fill-opacity="0.5"/>
<path d="M15.8776 10.6191V16.6899L21.5311 13.4064L15.8776 10.6191Z" fill="#110F23" fill-opacity="0.5"/>
<path d="M15.8771 19.0343V25.5052L10.1154 15.6878L15.8771 19.0353V19.0343Z" fill="#110F23" fill-opacity="0.5"/>
<path d="M23.8958 21.064L26.7544 20.1633V15.9867L23.8958 21.0629V21.064Z" fill="#110F23" fill-opacity="0.5"/>
<path d="M5 20.1644L9.16378 27.5605L12.3266 29L7.85856 21.065L5 20.1644Z" fill="#110F23" fill-opacity="0.5"/>
<path d="M9.16378 17.1702L7.85856 21.0641L5 15.9879L9.16378 17.1702Z" fill="#110F23" fill-opacity="0.5"/>
<path d="M15.8776 29L22.5903 17.1711L23.8955 21.065L19.4274 29H15.8776Z" fill="#110F23" fill-opacity="0.5"/>
</svg>
