<svg width="32" height="32" viewBox="0 0 32 32" fill="none" xmlns="http://www.w3.org/2000/svg">
<path d="M12.7953 5.33018C13.5159 4.9973 14.3394 4.96666 15.1226 5.02171C15.7512 5.06897 16.3883 5.16867 16.9606 5.43716C17.5062 5.68436 17.9677 6.078 18.29 6.57135C18.7381 7.25633 18.9207 8.06906 19.0021 8.86724C19.0331 9.3554 19.0642 9.8446 19.0326 10.3338C19.1761 10.233 19.3158 10.1261 19.4609 10.0279C20.4187 9.38293 21.5281 8.93735 22.6872 8.79194C22.8189 8.77585 22.9501 8.76027 23.0823 8.75092H23.5176C23.7237 8.75455 23.9298 8.77013 24.1338 8.79818C24.7474 8.88646 25.3336 9.10249 25.853 9.43174C26.4574 9.81448 26.9484 10.3494 27.3231 10.945C27.662 11.4872 27.9474 12.0839 27.9881 12.7258C28.0374 13.4237 27.8692 14.1201 27.5062 14.7246C27.0019 15.5903 26.2213 16.2732 25.3818 16.8242C26.4215 17.5803 27.3017 18.5899 27.7284 19.7957C27.9822 20.5129 28.0593 21.2773 27.9549 22.0288C27.8452 22.8021 27.5523 23.5436 27.1518 24.2182C26.8113 24.7895 26.3113 25.2865 25.6929 25.5757C24.9144 25.9533 24.0064 26.0047 23.1589 25.8634C21.9178 25.6593 20.7619 25.1073 19.742 24.4047C19.3415 24.1263 18.9619 23.8204 18.6059 23.4896C18.5052 23.3982 18.4196 23.2897 18.3007 23.2196C17.8655 24.4805 17.0592 25.6084 16.0521 26.5032C15.469 27.0132 14.8057 27.4468 14.0711 27.7174C13.3794 27.9713 12.6181 28.0721 11.8862 27.9448C11.1158 27.8197 10.4032 27.4614 9.79817 26.9914C9.34898 26.6367 8.92495 26.2384 8.62031 25.7554C8.192 25.085 8.00461 24.2816 8.04423 23.4964C8.08117 22.558 8.39491 21.6487 8.82965 20.8162C8.96189 20.5565 9.11822 20.3114 9.26974 20.0637C8.45808 20.0886 7.63251 20.0237 6.86048 19.7641C6.24049 19.5646 5.68101 19.2188 5.23289 18.7576C4.69214 18.1936 4.34949 17.4676 4.1878 16.7177C4.06198 16.2498 3.99988 15.7679 4.00363 15.2844C3.98275 14.3112 4.0411 13.3012 4.46995 12.4048C4.66002 12.0024 4.94163 11.6471 5.29392 11.3662C5.60231 11.1502 5.95299 10.998 6.32455 10.9196C7.03448 10.7747 7.77439 10.864 8.46612 11.0515C9.47105 11.3241 10.4037 11.7998 11.2748 12.3498C11.097 11.4576 10.9428 10.5571 10.9214 9.64674C10.8963 8.67718 10.975 7.67749 11.3861 6.78167C11.6667 6.16472 12.156 5.621 12.7953 5.33018ZM14.3019 6.9868C14.3629 7.33786 14.4727 7.67853 14.5487 8.02543C14.9647 9.79111 15.2854 11.5843 15.3181 13.3972C14.5203 13.4793 13.7799 13.8371 13.2327 14.4058C12.7032 14.9521 12.3772 15.6542 12.307 16.401C12.307 16.3438 12.3118 16.2872 12.3134 16.2306C11.2373 15.7217 10.1328 15.218 8.94047 15.0362C8.09295 14.922 7.20099 14.9796 6.41717 15.3358C6.11361 15.4475 5.83467 15.7549 5.92247 16.0878C6.09112 16.0193 6.24638 15.9248 6.40807 15.8437C6.78231 15.6693 7.18278 15.5524 7.59396 15.4974C8.39223 15.3997 9.20014 15.5264 9.96468 15.757C10.7678 15.9917 11.5269 16.3501 12.2915 16.6824C12.2861 17.3794 12.5924 18.0441 13.0057 18.6008C13.4463 19.1835 14.046 19.6727 14.7548 19.9126L14.7072 19.9095C14.5466 20.0445 14.4695 20.2481 14.3511 20.4163C13.5191 21.7032 12.7482 23.0487 11.6629 24.1554C11.3744 24.4332 11.0633 24.6877 10.7324 24.9172C10.9803 24.9344 11.2287 24.8856 11.4504 24.777C11.9023 24.5496 12.2476 24.1736 12.5613 23.7903C13.4683 22.6286 14.0867 21.2898 14.9031 20.072C14.9256 20.0372 14.9486 19.9972 14.9192 19.9593C15.4225 20.1078 15.9653 20.086 16.4718 19.9692C17.2358 19.7796 17.9088 19.3398 18.3762 18.7233L18.3409 18.7727C20.4792 19.5844 22.5496 20.6303 24.3121 22.0719C24.6815 22.3617 24.9963 22.7091 25.3465 23.0191C25.3861 22.9495 25.4616 22.8846 25.4455 22.7969C25.4209 22.6198 25.3679 22.424 25.2062 22.3175C23.1632 20.7767 20.9729 19.3699 18.5368 18.4871C19.1391 17.5414 19.2061 16.3002 18.7221 15.2943C18.8645 15.1385 18.9898 14.9682 19.1242 14.8082C19.9567 13.8376 20.9461 12.9589 22.1368 12.4142C22.8703 12.0688 23.6659 11.8642 24.4797 11.8107C24.7179 11.7926 24.9615 11.8331 25.1955 11.7775C24.1172 11.495 22.9469 11.643 21.9414 12.1052C21.2909 12.4079 20.6896 12.8016 20.1575 13.2742C19.6033 13.7696 19.0969 14.3128 18.6439 14.897C18.6161 14.9417 18.5727 14.9889 18.5904 15.0461C17.9907 14.0074 16.7759 13.3173 15.5386 13.3843C15.5536 13.1578 15.5258 12.9319 15.5151 12.7055C15.4744 11.911 15.4342 11.1159 15.3545 10.3234C15.2704 9.57403 15.1542 8.82155 14.9015 8.10645C14.7543 7.71384 14.5798 7.31501 14.3019 6.9868Z" fill="#110F23"/>
</svg>
