<svg width="32" height="32" viewBox="0 0 32 32" fill="none" xmlns="http://www.w3.org/2000/svg">
<path d="M28.4249 6.93652C27.6581 5.72782 26.2934 5.013 24.7598 5.013H16.3249C16.2209 5.013 16.104 5 16 5C15.896 5 15.7791 5 15.6751 5.013H7.24019C5.70657 5.013 4.34191 5.72782 3.57511 6.93652C2.8083 8.13222 2.8083 9.57486 3.57511 10.7706L12.3349 24.5211C13.1017 25.7168 14.4664 26.4446 16 26.4446C17.5336 26.4446 18.8983 25.7298 19.6651 24.5211L28.4249 10.7706C29.1917 9.57486 29.1917 8.13222 28.4249 6.93652ZM17.6376 23.4684C17.2997 24.0013 16.6888 24.3262 16 24.3262C15.3112 24.3262 14.7003 24.0013 14.3624 23.4684L9.43664 15.7223L14.3624 7.97626C14.6743 7.49538 15.1812 7.19645 15.7791 7.13147H16.2209C16.8188 7.19645 17.3387 7.49538 17.6376 7.97626L22.5634 15.7223L17.6376 23.4684Z" fill="#110F23"/>
</svg>
