<svg width="32" height="32" viewBox="0 0 32 32" fill="none" xmlns="http://www.w3.org/2000/svg">
<path fill-rule="evenodd" clip-rule="evenodd" d="M7.82983 4H24.2978C24.8805 4 25.4628 4.08551 26.0711 4.36922C26.8004 4.70908 27.1872 5.24511 27.4581 5.64131C27.4792 5.67214 27.499 5.70389 27.5172 5.73637C27.8357 6.3036 28 6.91579 28 7.57441C28 8.20036 27.851 8.8821 27.5172 9.47631C27.514 9.48199 27.5107 9.48768 27.5074 9.49337L17.1031 27.3656C16.8738 27.7598 16.4515 28.0016 15.9955 28C15.5395 27.9983 15.1188 27.7535 14.8922 27.3579L4.67896 9.52365C4.67602 9.51888 4.67309 9.51393 4.67015 9.50915C4.43642 9.12397 4.07496 8.52829 4.01172 7.75957C3.95362 7.05287 4.11248 6.34452 4.46767 5.7305C4.82283 5.11629 5.35758 4.6254 6.0006 4.32481C6.69023 4.00257 7.38904 4 7.82983 4ZM14.7234 6.55318H7.82983C7.37693 6.55318 7.20296 6.58107 7.08147 6.63796C6.91338 6.71632 6.77226 6.84532 6.67794 7.00865C6.58343 7.17197 6.54085 7.36117 6.55627 7.55037C6.56526 7.65901 6.60949 7.78324 6.87044 8.21357C6.87594 8.22257 6.88126 8.23174 6.88659 8.24092L14.7234 21.9254V6.55318ZM17.2766 6.55318V21.993L25.2948 8.21926C25.3853 8.05484 25.4468 7.81719 25.4468 7.57441C25.4468 7.37769 25.4059 7.20665 25.3147 7.03048C25.2191 6.89285 25.1607 6.82 25.1119 6.77008C25.07 6.72733 25.0379 6.70457 24.9924 6.68328C24.8029 6.59502 24.6087 6.55318 24.2978 6.55318H17.2766Z" fill="#110F23"/>
</svg>
