<svg width="32" height="32" viewBox="0 0 32 32" fill="none" xmlns="http://www.w3.org/2000/svg">
<g clip-path="url(#clip0_14572_84)">
<path d="M16.7614 13.2493V20.9574L24.3074 16.3841L16.7614 13.2493Z" fill="#110F23"/>
<path d="M16.7614 12.3792L24.2389 15.4866L22.4515 12.5724L26.2519 8.77189L23.9809 6.49958L20.7251 9.75659L16.7614 3.29492V12.3792Z" fill="#110F23"/>
<path d="M15.9586 20.9574V13.2493L8.41248 16.3841L15.9586 20.9574Z" fill="#110F23"/>
<path d="M8.48106 15.4866L15.9586 12.3792V3.29492L11.9961 9.75659L8.73908 6.49958L6.46802 8.77189L10.2685 12.5711L8.48106 15.4866Z" fill="#110F23"/>
<path d="M24.2227 18.7834L16.7614 23.3056V29.2949L19.8314 24.9684L23.0361 28.1731L25.3071 25.902L21.7173 22.3122L24.2227 18.7834Z" fill="#110F23"/>
<path d="M15.9586 23.3056L8.49727 18.7834L11.0027 22.3122L7.41284 25.902L9.6839 28.1731L12.8886 24.9697L15.9586 29.2936V23.3056Z" fill="#110F23"/>
</g>
<defs>
<clipPath id="clip0_14572_84">
<rect width="26" height="26" fill="white" transform="translate(3 3)"/>
</clipPath>
</defs>
</svg>
