<svg width="32" height="32" viewBox="0 0 32 32" fill="none" xmlns="http://www.w3.org/2000/svg">
<g clip-path="url(#clip0_4_1212)">
<path d="M15.9995 21.9175C19.2677 21.9175 21.917 19.2682 21.917 16C21.917 12.7319 19.2677 10.0825 15.9995 10.0825C12.7314 10.0825 10.082 12.7319 10.082 16C10.082 19.2682 12.7314 21.9175 15.9995 21.9175Z" fill="#110F23"/>
<path d="M15.9999 3.07251V4.00001C18.3732 4.00001 20.6933 4.7038 22.6667 6.02237C24.6401 7.34095 26.1782 9.2151 27.0864 11.4078C27.9947 13.6005 28.2323 16.0133 27.7693 18.3411C27.3063 20.6689 26.1634 22.8071 24.4852 24.4853C22.8069 26.1635 20.6687 27.3064 18.341 27.7694C16.0132 28.2325 13.6004 27.9948 11.4077 27.0866C9.21496 26.1783 7.34081 24.6402 6.02224 22.6669C4.70366 20.6935 3.99987 18.3734 3.99987 16C3.99121 13.4286 4.81764 10.9239 6.35487 8.86251C6.84483 9.13521 7.41846 9.2167 7.96498 9.09124C8.5115 8.96578 8.99215 8.64226 9.31411 8.18317C9.63607 7.72407 9.7765 7.16197 9.70829 6.6054C9.64008 6.04882 9.36806 5.53726 8.94477 5.16951C8.52147 4.80175 7.97692 4.60388 7.41628 4.6141C6.85563 4.62433 6.31866 4.84193 5.90906 5.22488C5.49946 5.60783 5.24628 6.12897 5.19841 6.68766C5.15054 7.24635 5.31138 7.80296 5.64987 8.25001C3.96631 10.482 3.0609 13.2043 3.07237 16C3.07237 18.5568 3.83056 21.0562 5.25105 23.1821C6.67154 25.3081 8.69054 26.965 11.0527 27.9435C13.4149 28.9219 16.0142 29.1779 18.5219 28.6791C21.0296 28.1803 23.3331 26.9491 25.141 25.1411C26.9489 23.3332 28.1802 21.0297 28.679 18.522C29.1778 16.0143 28.9218 13.4151 27.9433 11.0529C26.9649 8.69068 25.3079 6.67168 23.182 5.25119C21.0561 3.83069 18.5567 3.07251 15.9999 3.07251V3.07251ZM7.42737 5.55751C7.68954 5.55702 7.94596 5.6343 8.16418 5.7796C8.38241 5.92489 8.55262 6.13165 8.65329 6.37372C8.75396 6.61579 8.78056 6.88228 8.72972 7.13947C8.67888 7.39666 8.55288 7.63298 8.36767 7.81854C8.18247 8.00409 7.94638 8.13054 7.68929 8.18186C7.4322 8.23319 7.16565 8.2071 6.9234 8.10689C6.68114 8.00667 6.47405 7.83685 6.32835 7.6189C6.18265 7.40095 6.10487 7.14468 6.10487 6.88251C6.10553 6.53173 6.245 6.19547 6.4928 5.9472C6.7406 5.69893 7.0766 5.55883 7.42737 5.55751V5.55751Z" fill="#110F23"/>
</g>
<defs>
<clipPath id="clip0_4_1212">
<rect width="32" height="32" fill="white"/>
</clipPath>
</defs>
</svg>
