<svg width="32" height="32" viewBox="0 0 32 32" fill="none" xmlns="http://www.w3.org/2000/svg">
<path d="M16 28.5C22.9036 28.5 28.5 22.9036 28.5 16C28.5 9.09644 22.9036 3.5 16 3.5C9.09644 3.5 3.5 9.09644 3.5 16C3.5 22.9036 9.09644 28.5 16 28.5Z" stroke="#110F23"/>
<path d="M18.9103 14.3478C19.0662 14.731 19.223 15.1133 19.367 15.465C19.0662 15.5493 18.8762 15.6276 18.6794 15.6515C18.4783 15.6753 18.2099 15.7238 18.0779 15.6225C17.7379 15.3628 17.4551 15.333 17.127 15.6991C16.9992 15.2845 17.185 15.0733 17.4406 14.8723C17.5224 14.8085 17.6135 14.6697 17.5965 14.5871C17.576 14.4883 17.4031 14.3257 17.3664 14.3427C17.2046 14.4168 17.0094 14.5147 16.9336 14.6603C16.7325 15.0469 16.6005 15.4675 16.4164 15.8626C16.2921 16.1292 16.1259 16.3752 15.9785 16.6315C16.1796 16.583 16.304 16.48 16.4207 16.3684C17.0009 15.815 17.421 15.809 17.9841 16.3599C18.1716 16.543 18.3232 16.5157 18.4775 16.3207C18.9035 15.7834 19.3073 15.7383 19.8168 16.1998C20.0724 16.4323 20.288 16.7082 20.5214 16.9645L20.5922 16.9372C20.0775 16.0534 19.5629 15.1695 19.0475 14.2856C19.0014 14.3061 18.9563 14.3273 18.9103 14.3478Z" fill="#110F23"/>
<path d="M19.0917 17.2073C18.969 17.1894 18.8259 17.2114 18.7109 17.26C18.4127 17.3851 18.14 17.45 17.9449 17.1375C17.3877 17.3222 16.8433 17.5027 16.2988 17.6833C16.3065 17.7241 16.3142 17.7642 16.321 17.805C17.5777 17.5538 18.8327 17.2473 20.1031 17.7029L20.144 17.6014C20.011 17.5231 19.8858 17.4235 19.7435 17.3724C19.5331 17.2966 19.3124 17.2405 19.0917 17.2073Z" fill="#110F23"/>
<path d="M17.8457 17.9358C17.4461 17.9392 17.205 18.1691 17.1445 18.6545C17.8219 18.244 18.5103 18.1265 19.2916 18.5029C19.2124 18.2253 19.1638 18.055 19.1297 17.935C18.6603 17.935 18.253 17.9332 17.8457 17.9358Z" fill="#110F23"/>
<path d="M13.8969 15.7438C14.023 15.8452 14.253 15.8171 14.4354 15.8486C14.4558 15.8 14.4763 15.7515 14.4967 15.703C14.1414 15.3283 13.7861 14.9528 13.4309 14.5781C13.4053 15.0328 13.5356 15.4535 13.8969 15.7438Z" fill="#110F23"/>
<path d="M16.506 12.554C17.2038 12.8691 17.8522 12.3122 17.7576 11.4905C17.5676 12.1198 17.4995 12.164 16.84 12.0908C16.7565 12.0814 16.6585 12.0448 16.5912 12.0746C16.4754 12.1257 16.3782 12.2185 16.2734 12.2943C16.3501 12.3829 16.4098 12.5106 16.506 12.554Z" fill="#110F23"/>
<path d="M18.5195 12.6286C18.7802 12.6447 18.989 12.4583 19.2429 12.4395C19.3102 12.4344 19.3715 12.3791 19.3681 12.2948C19.3647 12.2122 19.3068 12.1679 19.2361 12.1534C19.1406 12.1347 19.0427 12.1296 18.9455 12.1185C18.9132 12.0649 18.8816 12.0121 18.8493 11.9593C18.6882 11.9031 18.6823 11.7651 18.6737 11.6289C18.5025 11.863 18.6311 12.1321 18.5885 12.3808C18.5655 12.4634 18.5425 12.546 18.5195 12.6286Z" fill="#110F23"/>
<path d="M15.7261 13.5807C15.3972 13.6105 15.1356 13.4368 14.857 13.3108C14.8085 13.3712 14.805 13.4342 14.8502 13.4981C15.0487 13.8379 15.4091 13.7561 15.7099 13.8251C15.7874 13.843 15.8948 13.8183 15.9016 13.711C15.9093 13.6011 15.8062 13.5739 15.7261 13.5807Z" fill="#110F23"/>
<path d="M20.2204 12.23C20.0245 12.4011 20.1437 12.5561 20.2451 12.7128C20.3925 12.8235 20.4837 13.0244 20.712 13.0023C20.7717 13.0014 20.8313 13.0006 20.8918 12.9989C20.9472 12.9376 21.0034 12.8763 21.0588 12.815C20.8552 12.511 20.603 12.276 20.2204 12.23Z" fill="#110F23"/>
<path d="M18.7742 13.0884C18.8534 13.0246 18.9327 12.9599 19.0119 12.896C18.8611 12.7649 18.712 12.6806 18.5723 12.9088C18.5748 12.9948 18.5774 13.0808 18.5799 13.1659C18.5867 13.2153 18.5944 13.2647 18.6012 13.3141C18.8219 13.3643 18.6498 13.1123 18.7742 13.0884Z" fill="#110F23"/>
<path d="M20.5284 13.5781C20.1671 13.5065 19.8825 13.4418 19.5332 13.5372C19.8672 13.8156 20.1552 13.8029 20.5284 13.5781Z" fill="#110F23"/>
<path d="M15.1494 12.6594C15.3308 12.6875 15.4348 12.5836 15.537 12.4661C15.0054 12.2498 14.5495 12.6134 14.207 12.9182C14.4073 12.9293 14.6194 12.7556 14.8017 12.9012C14.8273 12.9012 14.8529 12.9012 14.8784 12.8995C14.8946 12.7352 14.9747 12.6321 15.1494 12.6594Z" fill="#110F23"/>
<path d="M22.1143 16.9614C21.8485 16.9614 21.7266 16.8813 21.759 16.5833C21.7974 16.2325 21.7999 15.8757 21.7871 15.5223C21.7752 15.2243 21.8885 15.1264 22.1825 15.1306C23.2032 15.1434 24.2247 15.1358 25.2454 15.1358C26.2662 15.1358 27.2877 15.1434 28.3093 15.1306C28.4652 15.1281 28.5777 15.1536 28.6492 15.22C28.6211 14.6427 28.5529 14.0756 28.4499 13.5204H22.3205C22.4338 12.9755 22.5309 12.4475 22.6647 11.929C22.6877 11.8413 22.87 11.7382 22.9799 11.7374C24.5536 11.7255 26.1281 11.7246 27.7026 11.7382C27.8074 11.7399 27.9642 11.8149 28.0349 11.9009C27.8168 11.2367 27.545 10.5964 27.2247 9.98585C27.2519 10.1331 27.1292 10.1893 26.9111 10.1893C26.2031 10.1885 25.4951 10.1893 24.7862 10.1893C24.1063 10.1902 23.4255 10.2081 22.7473 10.1783C22.5718 10.1706 22.4023 10.0173 22.2302 9.9305C22.3418 9.81725 22.4517 9.70144 22.565 9.5916C22.6153 9.54306 22.7099 9.51326 22.7235 9.45876C22.8291 9.0577 23.2304 8.96063 23.469 8.70433C23.8013 8.34584 24.1847 8.30923 24.6192 8.32626C25.029 8.34244 25.4431 8.30241 25.8504 8.34244C26.0361 8.36032 26.2679 8.4642 26.3761 8.6064C26.5678 8.85845 26.7339 9.12923 26.8983 9.40171C26.273 8.34925 25.5002 7.39556 24.6073 6.56789C24.5613 6.6556 24.5502 6.69562 24.5366 6.69732C23.2117 6.83697 21.9592 6.73564 20.8354 5.87647C20.3242 5.48562 19.6869 5.25997 19.0292 4.91852C20.1325 4.91852 21.1686 4.89383 22.2004 4.9364C22.4517 4.94662 22.7099 5.15439 22.9356 5.31362C23.469 5.68999 23.9879 6.08764 24.5033 6.47252C22.2549 4.43571 19.272 3.19507 15.9994 3.19507C14.545 3.19507 13.1486 3.4403 11.8484 3.8916L11.9924 4.21858L12.3937 4.25945L12.0929 4.52853L12.1781 4.92278L11.8297 4.72012L11.4812 4.92278L11.5664 4.52853L11.2656 4.25945L11.6669 4.21858L11.8041 3.90693C8.76158 4.97472 6.24985 7.16991 4.77247 9.99096L4.81166 10.0795L5.21296 10.1204L4.9122 10.3894L4.9974 10.7837L4.64893 10.581L4.424 10.7122C4.03718 11.5816 3.74494 12.502 3.56176 13.4608L3.64952 13.6601L4.05081 13.701L3.75005 13.97L3.83526 14.3643L3.48678 14.1616L3.44418 14.1863C3.39903 14.5303 3.3675 14.8786 3.34961 15.2303C3.40499 15.1817 3.48764 15.1562 3.60692 15.1562C5.46515 15.1621 7.32254 15.157 9.18077 15.1664C9.28387 15.1664 9.46279 15.249 9.47812 15.3205C9.58633 15.8382 9.66131 16.3636 9.75503 16.929C9.61104 16.9418 9.50028 16.9597 9.38952 16.9597C7.50316 16.9614 5.61681 16.9554 3.73046 16.9665C3.56943 16.9665 3.45355 16.9409 3.37602 16.8779C3.42203 17.4544 3.50723 18.0207 3.62822 18.5733C3.69979 18.5307 3.83611 18.5265 4.06871 18.5265C5.30157 18.5248 6.53443 18.5265 7.76814 18.5256C8.70279 18.5256 9.6383 18.5239 10.5738 18.5265C10.7059 18.5265 10.8388 18.5443 10.9708 18.5537C10.9904 18.6048 11.01 18.655 11.0296 18.7053C10.7246 18.8977 10.4349 19.12 10.1129 19.2758C9.48238 19.5798 8.84423 19.8727 8.18988 20.1188C7.81415 20.261 7.40263 20.3589 7.00218 20.3785C6.18255 20.4177 5.3578 20.3632 4.53731 20.4006C4.37373 20.4083 4.24848 20.3819 4.14965 20.3291C5.82726 24.7663 9.92799 28.0131 14.839 28.4602C14.7768 28.358 14.7231 28.2124 14.6515 28.0029C14.0185 26.1679 13.3837 24.3329 12.7277 22.5064C12.3332 21.4105 11.891 20.3334 11.4838 19.2426C11.3082 18.7717 11.5144 18.3596 11.7002 17.9074C12.0486 18.4609 12.3741 18.9463 12.6672 19.4495C13.135 20.2559 13.8668 20.7123 14.6814 21.1065C15.4609 21.4846 16.1988 21.9461 16.9775 22.3829C16.0446 23.3332 15.1653 24.229 14.2869 25.1248C14.3175 25.1589 14.3491 25.1938 14.3797 25.2278C14.9012 24.8762 15.4218 24.5245 15.9764 24.1507C16.2346 24.4845 16.549 24.7765 16.7091 25.1367C16.8105 25.3649 16.7015 25.6987 16.6538 25.9789C16.5285 26.7154 16.3666 27.4469 16.255 28.1851C16.2346 28.318 16.2056 28.4269 16.1587 28.5121C17.3763 28.4976 18.5512 28.3111 19.6631 27.9756C19.491 27.6189 19.3206 27.2655 19.1476 26.9147C18.9729 26.5604 18.8434 26.1705 18.604 25.8665C18.1925 25.3445 18.282 24.8455 18.5716 24.2358C19.1638 24.6803 19.7449 25.1163 20.3259 25.5523C20.354 25.5242 20.3822 25.4952 20.4094 25.4663C19.5216 24.4913 18.633 23.5163 17.7154 22.5098C17.8176 22.4196 17.9326 22.3233 18.0408 22.2212C18.4166 21.8652 18.7804 21.4974 19.1672 21.1551C19.393 20.955 19.6469 20.7847 19.905 20.6288C19.9425 20.6058 20.13 20.7182 20.1504 20.794C20.5696 22.4017 21.074 23.9923 21.1405 25.6732C21.1609 26.1951 21.2146 26.7163 21.2742 27.2348C21.2802 27.2842 21.2785 27.3277 21.2734 27.3677C24.3099 25.9763 26.7007 23.4209 27.8739 20.2721C27.7938 20.3317 27.7026 20.3742 27.6285 20.3751C26.1809 20.3964 24.7266 20.4594 23.2858 20.3538C22.548 20.3002 21.8323 19.9306 21.1089 19.6981C21.0663 19.6845 21.0024 19.5994 21.0135 19.573C21.1277 19.2749 21.2265 18.9633 21.3935 18.6959C21.4608 18.5886 21.6857 18.5358 21.8391 18.5341C22.8615 18.5205 23.8839 18.5273 24.9072 18.5273C25.9151 18.5265 26.9231 18.5256 27.9318 18.5273C28.1636 18.5273 28.3008 18.5324 28.3732 18.5741C28.4933 18.0249 28.5785 17.4621 28.6245 16.8882C28.5564 16.9409 28.4584 16.9648 28.3272 16.9648C26.2568 16.9597 24.1864 16.9605 22.116 16.9648L22.1143 16.9614ZM4.99655 13.196L4.64807 12.9934L4.2996 13.196L4.3848 12.8018L4.08404 12.5327L4.48534 12.4918L4.64807 12.1231L4.81081 12.4918L5.21211 12.5327L4.91135 12.8018L4.99655 13.196ZM18.1422 23.5904C18.184 23.5997 18.2266 23.6083 18.2683 23.6168C18.1848 24.0178 18.1013 24.4189 18.0178 24.82C17.9744 24.8157 17.9318 24.8123 17.8892 24.808C17.9735 24.4019 18.0579 23.9965 18.1422 23.5904ZM22.0027 24.9434C22.2012 24.9085 22.4057 24.8736 22.6638 24.8293C22.6008 24.3806 22.8538 24.2307 23.1895 24.3295C23.6343 24.4589 23.4111 24.8515 23.4571 25.1461C23.0754 25.2108 22.7303 25.2781 22.3818 25.3241C22.1262 25.3581 21.9115 25.3155 22.0027 24.9434ZM14.476 4.21858L14.6388 3.84988L14.8015 4.21858L15.2028 4.25945L14.902 4.52853L14.9872 4.92278L14.6388 4.72012L14.2903 4.92278L14.3755 4.52853L14.0747 4.25945L14.476 4.21858ZM10.2569 5.29148L10.4196 4.92278L10.5823 5.29148L10.9836 5.33235L10.6829 5.60143L10.7681 5.99568L10.4196 5.79302L10.0711 5.99568L10.1563 5.60143L9.85557 5.33235L10.2569 5.29148ZM8.91154 6.53724L9.07427 6.16853L9.23701 6.53724L9.6383 6.57811L9.33754 6.84719L9.42274 7.24144L9.07427 7.03878L8.7258 7.24144L8.811 6.84719L8.51024 6.57811L8.91154 6.53724ZM8.91154 8.83461L9.07427 8.4659L9.23701 8.83461L9.6383 8.87548L9.33754 9.14456L9.42274 9.53881L9.07427 9.33615L8.7258 9.53881L8.811 9.14456L8.51024 8.87548L8.91154 8.83461ZM6.47223 14.3634L6.12376 14.1608L5.77528 14.3634L5.86049 13.9692L5.55973 13.7001L5.96102 13.6592L6.12376 13.2905L6.28649 13.6592L6.68779 13.7001L6.38703 13.9692L6.47223 14.3634ZM6.38703 11.6343L6.47223 12.0286L6.12376 11.8259L5.77528 12.0286L5.86049 11.6343L5.55973 11.3653L5.96102 11.3244L6.12376 10.9557L6.28649 11.3244L6.68779 11.3653L6.38703 11.6343ZM6.38703 9.14371L6.47223 9.53795L6.12376 9.33529L5.77528 9.53795L5.86049 9.14371L5.55973 8.87463L5.96102 8.83376L6.12376 8.46505L6.28649 8.83376L6.68779 8.87463L6.38703 9.14371ZM7.94791 13.196L7.59944 12.9934L7.25097 13.196L7.33617 12.8018L7.03541 12.5327L7.43671 12.4918L7.59944 12.1231L7.76217 12.4918L8.16347 12.5327L7.86271 12.8018L7.94791 13.196ZM7.86271 10.3894L7.94791 10.7837L7.59944 10.581L7.25097 10.7837L7.33617 10.3894L7.03541 10.1204L7.43671 10.0795L7.59944 9.71081L7.76217 10.0795L8.16347 10.1204L7.86271 10.3894ZM7.86271 7.92009L7.94791 8.31434L7.59944 8.11168L7.25097 8.31434L7.33617 7.92009L7.03541 7.65101L7.43671 7.61014L7.59944 7.24144L7.76217 7.61014L8.16347 7.65101L7.86271 7.92009ZM9.78485 15.794C9.72606 15.1375 9.63319 14.4835 9.54373 13.7853L9.33839 13.9692L9.4236 14.3634L9.07512 14.1608L8.72665 14.3634L8.81185 13.9692L8.51109 13.7001L8.91239 13.6592L9.07512 13.2905L9.23786 13.6592L9.5318 13.689C9.52498 13.6345 9.51817 13.58 9.51135 13.5247C9.67835 13.4438 9.7661 13.523 9.76696 13.7836C9.77036 15.0012 10.3097 16.0017 11.0382 16.9333C11.1941 17.1334 11.2656 17.3999 11.4105 17.7082C10.4375 17.5634 9.84534 16.4641 9.78485 15.794ZM21.6397 12.6638C21.6074 12.6655 21.575 12.6664 21.5426 12.6681V14.5073C21.5417 15.2601 21.598 16.0171 21.5256 16.7621C21.454 17.4978 21.2998 18.2344 21.0893 18.9437C20.9956 19.2579 20.6761 19.504 20.3992 19.8574C20.3174 19.6096 20.2816 19.5006 20.2433 19.3839C20.1785 19.4086 20.1266 19.4112 20.1036 19.4384C19.3444 20.3317 18.3092 20.3087 17.2851 20.2533C17.0269 20.2388 16.7492 20.0754 16.5328 19.9119C16.0633 19.5559 15.5879 19.4844 15.0179 19.6402C14.8083 19.6973 14.5127 19.5466 14.2903 19.4265C14.0381 19.2911 13.8242 19.0833 13.5652 18.8858C13.7842 19.6683 14.8313 20.2474 15.5734 20.0864C15.7915 20.0396 16.0923 20.106 16.2806 20.232C17.4547 21.0137 18.61 20.8281 19.7738 20.2295C19.8215 20.2056 19.8752 20.1946 19.9723 20.2533C19.7781 20.3853 19.5958 20.5394 19.3887 20.6442C19.1484 20.7651 18.9636 20.8366 18.8332 21.1593C18.662 21.5825 18.2445 21.8848 17.7103 21.9495C17.0866 22.0245 16.583 21.7528 16.0727 21.4778C15.5044 21.1712 14.9608 20.8094 14.3695 20.5565C13.4178 20.1477 12.8546 19.3763 12.4474 18.5103C12.1117 17.7967 11.9524 17.0006 11.7172 16.2461C11.0876 16.4982 11.0543 16.4794 10.4503 15.4278C10.5823 15.4755 10.6675 15.507 10.8788 15.5836C10.3387 14.9731 10.2407 14.3515 10.3438 13.689C10.3608 13.5775 10.4068 13.408 10.4792 13.3833C10.5653 13.3544 10.734 13.4234 10.7953 13.5043C10.8626 13.5937 10.8635 13.7435 10.8635 13.867C10.8626 13.9258 10.7834 13.9811 10.7536 14.0441C10.5806 14.4094 10.6905 14.7296 11.0484 14.9399C11.166 15.0089 11.2716 15.0991 11.4505 15.1358C11.4113 15.0463 11.373 14.9569 11.3321 14.8684C11.2742 14.7424 11.177 14.6206 11.1625 14.4903C11.1378 14.2672 11.206 14.0296 11.1583 13.8151C11.1114 13.6047 10.9683 13.4157 10.8925 13.2667C11.655 12.5846 12.3886 11.9298 13.1222 11.2742C13.0924 11.2333 13.0625 11.1924 13.0327 11.1515C11.9064 12.0729 10.6939 12.8358 9.23871 13.2352C9.28387 12.8409 9.32987 12.4228 9.38014 12.0031L9.07512 11.8259L8.72665 12.0286L8.81185 11.6343L8.51109 11.3653L8.91239 11.3244L9.07512 10.9557L9.23786 11.3244L9.45342 11.3465C9.50198 10.8842 9.5514 10.4218 9.64171 9.96711C9.81893 9.07048 10.0038 8.16873 10.2867 7.30189C10.5022 6.64282 10.976 6.18897 11.7044 5.97098C12.3562 5.77514 12.9364 5.33831 13.5891 5.15268C14.1463 4.99345 14.7606 5.01729 15.351 5.00026C15.8035 4.98749 16.2601 5.07945 16.7108 5.05221C18.3271 4.95599 19.7508 5.45582 21.0979 6.31585C21.6457 6.66582 22.2881 6.86507 22.8888 7.13159C22.9399 7.15373 23.0123 7.14436 23.049 7.17842C23.2875 7.39641 23.7093 7.62547 23.705 7.84345C23.6999 8.11934 23.3855 8.4361 23.1307 8.64728C22.9067 8.8329 22.5821 8.89762 22.2762 9.02705C22.329 9.09602 22.3989 9.18628 22.4875 9.29953C20.2612 9.70485 18.0851 9.40682 15.9031 9.27824C16.3002 9.35488 16.6981 9.43152 17.096 9.50815C17.0934 9.52007 17.0917 9.53284 17.0891 9.54477C16.5047 9.54477 15.9185 9.57116 15.3366 9.53881C14.5442 9.49538 13.7535 9.41959 12.9654 9.33274C12.6024 9.29272 12.2472 9.18543 11.8859 9.12157C11.0083 8.96744 10.0609 9.56094 9.93395 10.4363C10.6914 9.33444 11.6252 9.37276 12.6144 9.80959C12.4755 10.0838 12.3383 10.3562 12.2012 10.6279C12.2429 10.6517 12.2846 10.6764 12.3255 10.7002C12.3937 10.6211 12.4695 10.547 12.5283 10.4618C12.7098 10.1979 12.9603 10.1365 13.2679 10.1527C13.8404 10.1825 14.4155 10.2055 14.9889 10.191C15.7975 10.1706 16.6078 10.1425 17.4129 10.065C18.6781 9.94412 19.94 9.77723 21.2035 9.63588C21.4259 9.61033 21.6517 9.61203 21.8672 9.60182C22.513 11.4726 22.6349 12.6042 22.0223 13.2173C21.9763 13.156 21.9311 13.0955 21.8451 12.9814C21.8169 13.2292 21.7956 13.4183 21.7743 13.6073C21.7539 13.6107 21.7335 13.6133 21.7139 13.6158C21.6891 13.2982 21.6644 12.9806 21.6397 12.6638Z" fill="#110F23"/>
<path d="M9.39437 11.8937C9.408 11.7813 9.41993 11.6681 9.43271 11.5557L9.33984 11.6391L9.39522 11.8946L9.39437 11.8937Z" fill="#110F23"/>
<path d="M16.0017 3C8.75194 3 2.98894 8.76812 3.00002 16.0111C3.01024 23.2353 8.76302 28.9182 15.9983 29C23.2523 28.9191 28.9889 23.2165 29 16.0145C29.0119 8.76727 23.2446 3.00085 16.0017 3ZM4.73641 10.0028C4.71937 10.0309 4.70233 10.059 4.68529 10.088C4.69637 10.0565 4.70745 10.0249 4.71852 9.99344C4.72449 9.99685 4.73045 9.9994 4.73641 10.0028ZM28.7401 16.5662C28.7435 16.7238 28.7043 16.8268 28.6234 16.8881C28.5774 17.462 28.4922 18.0249 28.372 18.5741C28.4734 18.6328 28.4453 18.7648 28.3635 19.0697C28.2715 19.4077 28.194 19.7551 28.05 20.071C28.0185 20.14 27.9503 20.2141 27.8728 20.272C26.6996 23.4209 24.3088 25.9763 21.2722 27.3676C21.2501 27.5439 21.1334 27.6418 20.9587 27.7125C20.5813 27.8632 20.2038 28.0131 19.765 28.1885C19.7301 28.117 19.6969 28.0471 19.6619 27.9756C18.5509 28.3102 17.3751 28.4967 16.1576 28.5121C16.0699 28.6721 15.9174 28.7471 15.637 28.73C15.1463 28.7019 14.9725 28.6832 14.8379 28.4601C9.92686 28.0139 5.82699 24.7663 4.14853 20.3291C3.98068 20.2379 3.89037 20.0676 3.82817 19.8437C3.75745 19.5874 3.69866 19.326 3.63306 19.068C3.55553 18.7648 3.52826 18.632 3.6271 18.5732C3.50611 18.0206 3.42091 17.4552 3.3749 16.8779C3.28374 16.8047 3.24625 16.682 3.25477 16.4939C3.27096 16.1686 3.26244 15.8425 3.25647 15.5163C3.25392 15.3835 3.28118 15.289 3.34849 15.2302C3.36553 14.8785 3.39705 14.5303 3.44306 14.1863C3.47544 13.9419 3.51463 13.7009 3.56064 13.4608C3.74467 12.502 4.03606 11.5807 4.42287 10.7121C4.53193 10.4677 4.64781 10.2276 4.77135 9.99174C6.25044 7.17239 8.76217 4.9772 11.8047 3.90941C11.8192 3.9043 11.8337 3.89919 11.849 3.89408C13.1492 3.44364 14.5456 3.19755 16 3.19755C19.2726 3.19755 22.2555 4.4382 24.5031 6.47416C24.5397 6.5014 24.5772 6.5295 24.6138 6.55675C24.6113 6.56186 24.6096 6.56527 24.607 6.56952C25.4999 7.39634 26.2735 8.35088 26.8981 9.40334C26.9799 9.53873 27.0608 9.67412 27.1452 9.80781C27.1895 9.87849 27.215 9.93809 27.2244 9.98748C27.5447 10.598 27.8165 11.2383 28.0347 11.9025C28.0483 11.9196 28.0594 11.9357 28.0653 11.9528C28.24 12.4483 28.3703 12.9601 28.5322 13.5221H28.4496C28.5527 14.0764 28.6208 14.6444 28.649 15.2217C28.7188 15.2864 28.7495 15.3895 28.7435 15.5453C28.7299 15.885 28.7324 16.2256 28.7393 16.5654L28.7401 16.5662Z" fill="#110F23"/>
</svg>
