<svg width="32" height="32" viewBox="0 0 32 32" fill="none" xmlns="http://www.w3.org/2000/svg">
<path d="M22.0157 15.1556C23.4152 14.195 24.3759 13.1137 24.3759 11.0747C24.3759 7.83521 21.1538 6.31649 19.1933 6.1232C19.0334 6.10576 18.5873 6.09849 18.5873 6.09849V3H15.3899L15.3972 6.09849H13.2608V3.01163H10.0112V6.08396C9.43857 6.09704 6 6.09413 6 6.09413V8.83656H7.11761C8.19452 8.83656 8.67993 9.51671 8.67993 9.9905V21.9877C8.66685 22.3903 8.35439 22.7187 7.95327 22.7536C7.46495 22.7754 6.73829 22.7536 6.73829 22.7536L6.11191 25.8623H10.0199V28.9942H13.271V25.8797H15.4074V29H18.5858V25.8913H18.8198C22.4967 25.8913 25.7027 23.7113 25.7507 20.1899C25.7943 17.2978 23.3236 15.6236 22.0157 15.1556ZM13.2695 13.7561V9.0531H16.275C16.3666 9.0531 16.4392 9.06909 16.5264 9.07345C17.8344 9.13594 18.6454 9.65478 19.0828 10.2797C19.3517 10.6547 19.5014 11.1023 19.5116 11.563C19.5058 11.8827 19.4505 12.1996 19.3488 12.5018C19.2587 12.7664 19.1235 13.012 18.9477 13.2285C18.8082 13.4116 18.6396 13.57 18.4492 13.6979C17.9623 14.0395 17.2778 14.3083 16.2939 14.3563C16.2808 14.3563 13.3175 14.365 13.2695 14.3563V13.7561ZM20.4679 20.732C20.369 21.0169 20.2222 21.2814 20.0319 21.5154C19.8807 21.713 19.6991 21.8845 19.4927 22.0226C18.9666 22.3932 18.2268 22.6838 17.1674 22.7347C17.1543 22.7347 13.3219 22.7434 13.271 22.742V17.0057C13.7433 17.0057 16.1108 17.013 17.1485 17.013C17.2458 17.013 17.3258 17.0304 17.4188 17.0348C18.8314 17.1031 19.7107 17.6641 20.1801 18.3428C20.4708 18.7482 20.6335 19.2322 20.6437 19.7307C20.635 20.0737 20.574 20.4138 20.462 20.7393L20.4679 20.732Z" fill="#110F23"/>
</svg>
