<svg width="32" height="32" viewBox="0 0 32 32" fill="none" xmlns="http://www.w3.org/2000/svg">
<path d="M9.85907 7C6.63381 7 4 9.63381 4 12.8036C4 15.9734 6.63381 18.5518 9.84983 18.5518C13.0751 18.5518 15.7089 15.9642 15.7551 12.8036C15.7551 9.5876 13.0658 7 9.84983 7H9.85907ZM13.2969 12.8036C13.2969 14.6981 11.7351 16.2322 9.80362 16.2322C7.87216 16.2322 6.31036 14.6981 6.31036 12.8036C6.31036 10.9091 7.86292 9.37505 9.80362 9.37505C11.7443 9.37505 13.2969 10.8999 13.2969 12.8036Z" fill="#110F23"/>
<path d="M19.8953 13.1733C19.6827 12.8036 19.5718 12.3785 19.5718 11.9626C19.5718 10.5395 20.7547 9.37505 22.2056 9.37505C23.6565 9.37505 24.8394 10.5395 24.8394 11.9626C24.8394 12.3878 24.7285 12.8036 24.516 13.1733C25.2645 13.432 25.9669 13.8571 26.6138 14.3285C26.9927 13.5891 27.2052 12.8036 27.2052 11.9534C27.2052 9.2087 24.9503 7 22.1594 7C19.3685 7 17.1136 9.21794 17.2152 11.9534C17.2152 12.7944 17.3724 13.5891 17.8067 14.3285C18.3982 13.8017 19.1467 13.432 19.9045 13.1733H19.8953Z" fill="#110F23"/>
<path d="M22.1502 13.9588C18.8695 13.9588 16.2449 16.5464 16.2449 19.7624C16.2449 22.9784 18.9342 25.5106 22.1502 25.5106C25.3754 25.5106 28 22.923 28 19.7624C28 16.6018 25.3662 13.9588 22.1502 13.9588ZM22.1502 23.0801C20.2187 23.0801 18.6569 21.5553 18.6569 19.707C18.6569 17.8587 20.2187 16.2784 22.1502 16.2784C24.0816 16.3338 25.6434 17.8587 25.6434 19.707C25.6434 21.5553 24.0909 23.0801 22.1502 23.0801Z" fill="#110F23"/>
<path d="M9.85907 23.1355C8.40816 23.1355 7.22526 21.9711 7.22526 20.5479H4.804C4.804 23.2926 7.05891 25.5013 9.84983 25.5013C12.6407 25.5013 14.8956 23.2834 14.8956 20.5479H12.4836C12.4836 21.9711 11.3007 23.1355 9.84983 23.1355H9.85907Z" fill="#110F23"/>
</svg>
