<svg width="32" height="32" viewBox="0 0 32 32" fill="none" xmlns="http://www.w3.org/2000/svg">
<g clip-path="url(#clip0_12259_143)">
<path d="M16 3C8.81996 3 3 8.81996 3 16C3 23.18 8.81996 29 16 29C23.18 29 29 23.18 29 16C29 8.81996 23.18 3 16 3ZM23.447 20.6727C22.2705 22.8755 18.9955 24.8906 16.5465 24.8071C14.594 24.7404 12.6332 24.878 11.3858 22.8713C11.2064 22.5793 10.4846 22.6252 9.46245 22.888C9.21213 21.5988 9.27888 20.122 8.65308 19.0539C7.34307 16.8177 7.32221 15.0321 9.50834 13.4509C8.92426 10.4679 11.1813 10.301 13.1088 9.55841C13.7763 9.29974 14.0475 8.02311 14.5106 7.19288C16.947 8.59884 19.7214 10.2009 22.5375 11.8238C22.2038 13.501 21.82 14.3562 19.6714 13.6094C18.0067 13.0337 15.7038 12.9586 14.1685 13.6845C12.0867 14.665 11.7529 17.5019 12.8084 19.4252C14.0558 21.699 17.0931 22.8963 19.5712 21.8784C21.2484 21.19 22.9047 20.439 22.5584 17.9066C22.3915 16.6759 23.18 15.3158 23.5597 13.939C24.3524 16.2545 24.6444 18.4365 23.447 20.6768V20.6727Z" fill="#110F23"/>
</g>
<defs>
<clipPath id="clip0_12259_143">
<rect width="26" height="26" fill="white" transform="translate(3 3)"/>
</clipPath>
</defs>
</svg>
