<svg width="32" height="32" viewBox="0 0 32 32" fill="none" xmlns="http://www.w3.org/2000/svg">
<path d="M25.6725 12.6689C24.0587 12.6689 22.7117 13.8158 22.405 15.3362H9.60169C9.56835 15.1829 9.515 15.0362 9.46166 14.8895L14.6963 10.2216C15.1831 10.495 15.7366 10.6684 16.3368 10.6684C18.1772 10.6684 19.6709 9.17466 19.6709 7.33419C19.6709 5.49372 18.1772 4 16.3368 4C14.4963 4 13.0026 5.49372 13.0026 7.33419C13.0026 7.84765 13.1293 8.32778 13.336 8.76122L8.25468 13.289C7.70787 12.9023 7.0477 12.6756 6.33419 12.6756C4.49372 12.6756 3 14.1693 3 16.0097C3 17.8502 4.49372 19.3439 6.33419 19.3439C7.70121 19.3439 8.87484 18.5171 9.3883 17.3434H22.6184C22.7251 17.5835 22.8651 17.8035 23.0185 18.0103L18.4706 22.138C17.8905 21.6512 17.1503 21.3444 16.3301 21.3444C14.4896 21.3444 12.9959 22.8382 12.9959 24.6786C12.9959 26.5191 14.4896 28.0128 16.3301 28.0128C18.1706 28.0128 19.6643 26.5191 19.6643 24.6786C19.6643 24.3919 19.6176 24.1252 19.5509 23.8584L24.6922 19.1839C24.999 19.2773 25.3257 19.3439 25.6658 19.3439C27.5063 19.3439 29 17.8502 29 16.0097C29 14.1693 27.5063 12.6756 25.6658 12.6756L25.6725 12.6689Z" fill="#110F23"/>
</svg>
