<svg width="32" height="32" viewBox="0 0 32 32" fill="none" xmlns="http://www.w3.org/2000/svg">
<path d="M20.6799 15.32V11.368L18.9119 12.44L20.6799 15.32Z" fill="#110F23"/>
<path d="M13.0559 12.456L11.3039 11.408V15.32L13.0559 12.456Z" fill="#110F23"/>
<path d="M15.3921 8.64805L11.4881 11.04L13.2721 12.112L15.3921 8.64805Z" fill="#110F23"/>
<path d="M11.3039 17.792V20.6L12.7199 19.744L11.3039 17.792Z" fill="#110F23"/>
<path d="M15.992 18.4081L20.552 15.8961L15.992 8.46406L11.432 15.8961L15.992 18.4081Z" fill="#110F23"/>
<path d="M16.096 20.176C16.032 20.216 15.952 20.216 15.888 20.176L11.84 17.824L15.992 23.544L20.112 17.848L16.096 20.176Z" fill="#110F23"/>
<path d="M11.4961 20.9681L15.3121 23.3121L12.9681 20.0801C12.5761 20.3201 11.4961 20.9681 11.4961 20.9681Z" fill="#110F23"/>
<path d="M16 4C9.376 4 4 9.376 4 16C4 22.624 9.376 28 16 28C22.624 28 28 22.624 28 16C28 9.376 22.624 4 16 4ZM10.888 11.112C10.888 11.112 10.888 11.088 10.888 11.08C10.888 11.072 10.888 11.056 10.888 11.048C10.888 10.976 10.928 10.912 10.984 10.872L15.904 7.856C15.968 7.816 16.056 7.816 16.12 7.856L21 10.832C21.064 10.872 21.096 10.936 21.096 11.008C21.096 11.008 21.096 11.008 21.096 11.016C21.096 11.024 21.096 11.016 21.096 11.024V15.952C21.096 16.04 21.04 16.112 20.968 16.144L16.096 18.824C16.032 18.856 15.96 18.856 15.896 18.824L11.096 16.184C10.984 16.184 10.896 16.088 10.896 15.976V11.112H10.888ZM21.096 20.928C21.096 21 21.056 21.064 21 21.104L16.08 24.136C16.016 24.176 15.928 24.176 15.864 24.136L10.984 21.144C10.92 21.104 10.888 21.04 10.888 20.968V17.192C10.888 17.192 10.888 17.184 10.888 17.176C10.888 17.12 10.904 17.064 10.944 17.024C11.008 16.952 11.12 16.936 11.2 16.984L15.992 19.768L20.744 17.016C20.744 17.016 20.76 17.008 20.768 17C20.8 16.976 20.848 16.96 20.896 16.96C21.008 16.96 21.104 17.056 21.104 17.168V20.88C21.104 20.88 21.104 20.896 21.104 20.912C21.104 20.92 21.104 20.928 21.104 20.936L21.096 20.928Z" fill="#110F23"/>
<path d="M19.2721 19.712L20.6801 20.56V17.76L19.2721 19.712Z" fill="#110F23"/>
<path d="M16.7039 23.264L20.4959 20.928L19.0319 20.048L16.7039 23.264Z" fill="#110F23"/>
<path d="M20.488 11L16.552 8.6L18.688 12.088C19.144 11.816 20.48 11 20.48 11H20.488Z" fill="#110F23"/>
</svg>
