<svg width="32" height="32" viewBox="0 0 32 32" fill="none" xmlns="http://www.w3.org/2000/svg">
<path d="M9.84239 8.08631C9.84239 8.08631 10.6601 10.375 8.69805 14.56C6.73604 18.7451 9.09032 24.5324 12.3272 25.7748C12.3272 25.7748 7.31339 21.8349 10.1545 16.9302C12.9957 12.0255 16.7823 7.72167 13.4943 4.07113C13.4943 4.07113 17.6283 7.64294 17.6283 12.0262C17.6283 16.4095 12.0496 18.8003 15.0882 24.2299C15.0882 24.2299 14.5903 20.2948 17.8776 16.808C21.1649 13.3211 16.5827 7.47236 16.3838 3C16.3838 3 16.6055 5.70579 19.9418 9.22304C23.2781 12.7403 26.2228 20.1063 19.3417 23.6843C19.3417 23.6843 23.814 24.0586 24.9155 18.5041C26.0164 12.9502 23.1952 10.1975 23.1952 10.1975C23.1952 10.1975 27.6676 14.0165 26.7042 21.5856C25.7408 29.1546 13.6994 30.7375 12.7015 21.31C12.7015 21.31 12.4259 26.4322 17.2429 28.9115C16.3134 29.0275 12.3769 29.4136 8.93217 26.7651C8.22154 26.2188 5.52403 24.1436 5.06133 20.6436C5.01713 20.31 4.72915 17.895 5.93909 15.5352C6.27472 14.8812 7.16284 13.3777 8.29336 11.9033C8.62278 11.4737 9.17457 10.7838 9.53023 9.70854C9.74708 9.05384 9.81752 8.47926 9.8417 8.08631H9.84239Z" fill="#110F23"/>
</svg>
