<svg width="32" height="32" viewBox="0 0 32 32" fill="none" xmlns="http://www.w3.org/2000/svg">
<path d="M3 5V27.829H24.1359V25.2702H5.53118V7.55883H24.1359V5H3Z" fill="#110F23"/>
<path d="M26.2356 13.7731C26.2356 13.2307 26.0256 12.759 25.6056 12.3582C25.1858 11.9572 24.6026 11.7567 23.8443 11.7567C23.2028 11.7567 22.7012 11.8864 22.328 12.1577C21.9547 12.4288 21.7681 12.7826 21.7681 13.2307C21.7681 13.4665 21.8148 13.6788 21.908 13.8674C22.0013 14.0561 22.153 14.2212 22.3746 14.3745C22.5962 14.5278 22.8878 14.6576 23.2611 14.7754C23.6227 14.8933 24.0893 14.9995 24.6492 15.1056C26.0606 15.3651 27.1337 15.8013 27.8803 16.4027C28.6267 17.0159 29 17.9121 29 19.103V19.3389C29 19.9756 28.8834 20.5416 28.6617 21.0605C28.4401 21.5675 28.1136 22.0039 27.6936 22.3694C27.2736 22.7349 26.7604 23.0061 26.1539 23.2066C25.5473 23.3953 24.8708 23.5014 24.1126 23.5014C23.2261 23.5014 22.4563 23.3717 21.7797 23.1241C21.1032 22.8764 20.5433 22.5227 20.1 22.0745C19.6568 21.6265 19.3069 21.1076 19.0853 20.5062C18.852 19.9049 18.7353 19.2446 18.7353 18.5371V18.4191H21.2665C21.2665 19.2327 21.4998 19.8813 21.9664 20.3766C22.433 20.86 23.1561 21.1076 24.1476 21.1076C24.9175 21.1076 25.489 20.9426 25.8623 20.6006C26.2356 20.2586 26.4222 19.8578 26.4222 19.3979C26.4222 19.1738 26.3872 18.9733 26.3055 18.7611C26.2238 18.5606 26.0956 18.3838 25.8973 18.2187C25.7107 18.0536 25.4424 17.9121 25.1041 17.7823C24.7658 17.6526 24.3459 17.5465 23.8327 17.4522C23.1561 17.3343 22.5379 17.181 21.9664 16.9923C21.4065 16.8036 20.9166 16.556 20.4967 16.2494C20.0767 15.9428 19.7618 15.5536 19.5285 15.082C19.2952 14.6103 19.1786 14.0444 19.1786 13.3722V13.2543C19.1786 12.7 19.2952 12.1812 19.5168 11.7095C19.7385 11.2378 20.0534 10.8252 20.4617 10.4714C20.8699 10.1177 21.3482 9.84643 21.9197 9.65776C22.4913 9.46909 23.1211 9.36297 23.8327 9.36297C24.6259 9.36297 25.3257 9.48089 25.944 9.70494C26.5622 9.92898 27.0754 10.2356 27.4953 10.6247C27.9152 11.0138 28.1952 11.4737 28.4401 11.969C28.7434 12.5704 28.7551 13.7967 28.7551 13.7967L26.2356 13.7731Z" fill="#110F23"/>
</svg>
