<svg width="32" height="32" viewBox="0 0 32 32" fill="none" xmlns="http://www.w3.org/2000/svg">
<path d="M26.1377 14.5725C24.9202 12.94 22.4402 12.88 22.4402 12.88C22.4402 12.88 24.3102 10.88 22.8877 8.07C21.9752 6.27 19.8102 5.17 16.6377 6.0425L15.3877 1.97L12.8202 2.75L14.0702 6.8125L11.9402 7.465L10.6902 3.4L8.11766 4.1925L9.36766 8.2575L5.22266 9.5225L6.00016 12.085L8.51516 11.315L12.3152 23.725L9.80016 24.5L10.6327 27.23L14.7702 25.98L16.0202 30.05L18.5877 29.25L17.3377 25.18L19.4677 24.53L20.7177 28.6L23.2902 27.815L22.0402 23.7425L22.6352 23.56C27.6302 21.945 28.2502 17.3875 26.1377 14.5725ZM12.7802 10.015C12.7802 10.015 13.8302 9.6875 15.3227 9.2375C16.7477 8.81 18.3502 9.3125 18.8227 10.7075C19.2952 12.1025 18.5002 13.6675 16.9527 14.1625C15.5352 14.6175 14.2977 14.975 14.2977 14.975L12.7802 10.015ZM19.9727 21.3825C18.5127 21.8625 16.5727 22.4225 16.5727 22.4225L15.0002 17.2725C15.0002 17.2725 16.7502 16.7725 18.2702 16.2725C20.0952 15.68 21.7052 16.12 22.2202 17.7275C22.7352 19.335 21.9502 20.735 19.9727 21.3825Z" fill="#110F23"/>
</svg>
