<svg width="32" height="32" viewBox="0 0 32 32" fill="none" xmlns="http://www.w3.org/2000/svg">
<path d="M27.5754 27.0203L21.0244 15.672L17.9517 10.352L14.473 4.32737C14.4155 4.22784 14.3327 4.14519 14.233 4.08772C14.1334 4.03025 14.0203 4 13.9052 4C13.7901 4 13.677 4.03025 13.5773 4.08772C13.4777 4.14519 13.3949 4.22784 13.3374 4.32737L6.77112 15.6636L4.08805 20.2958C4.03042 20.3954 4.00005 20.5083 4 20.6233C3.99995 20.7383 4.03022 20.8513 4.08776 20.9509C4.14531 21.0505 4.22811 21.1332 4.32783 21.1907C4.42755 21.2483 4.54068 21.2786 4.65586 21.2786L9.72435 21.2818C9.83944 21.2818 9.95252 21.2516 10.0523 21.1943C10.152 21.1369 10.2349 21.0544 10.2927 20.9551L12.9266 16.4062L13.3294 15.7105C13.3453 15.6837 13.363 15.658 13.3823 15.6335C13.4487 15.5494 13.5346 15.4828 13.6327 15.4396C13.7308 15.3963 13.838 15.3777 13.945 15.3855C14.0519 15.3932 14.1553 15.4269 14.2462 15.4838C14.337 15.5406 14.4126 15.6189 14.4661 15.7116L17.1994 20.4452L17.7054 21.3198C17.7329 21.3682 17.7546 21.4198 17.7699 21.4734C17.7966 21.5707 17.8004 21.6729 17.781 21.772C17.7617 21.871 17.7197 21.9643 17.6582 22.0445C17.5968 22.1246 17.5177 22.1895 17.427 22.2341C17.3363 22.2787 17.2365 22.3018 17.1354 22.3016L11.1729 22.2979C11.0579 22.2979 10.9448 22.328 10.845 22.3854C10.7453 22.4427 10.6624 22.5252 10.6046 22.6246L8.06693 27.0056C8.00928 27.105 7.97888 27.2179 7.97879 27.3329C7.9787 27.4478 8.00893 27.5607 8.06643 27.6603C8.12393 27.7598 8.20667 27.8425 8.30634 27.9C8.40601 27.9575 8.51909 27.9878 8.6342 27.9879L13.8888 27.9916L20.4408 27.9958L27.006 28C27.1209 28.0001 27.2338 27.97 27.3334 27.9128C27.433 27.8556 27.5158 27.7732 27.5734 27.674C27.6311 27.5748 27.6616 27.4621 27.662 27.3474C27.6623 27.2327 27.6324 27.1199 27.5754 27.0203Z" fill="#110F23"/>
</svg>
