<svg width="32" height="32" viewBox="0 0 32 32" fill="none" xmlns="http://www.w3.org/2000/svg">
<path d="M15.81 28.62C13.2764 28.62 10.7997 27.8687 8.69315 26.4611C6.58656 25.0535 4.94467 23.0529 3.97511 20.7122C3.00555 18.3715 2.75187 15.7958 3.24615 13.3109C3.74042 10.826 4.96046 8.54348 6.75197 6.75197C8.54348 4.96046 10.826 3.74042 13.3109 3.24615C15.7958 2.75187 18.3715 3.00555 20.7122 3.97511C23.0529 4.94467 25.0535 6.58656 26.4611 8.69315C27.8687 10.7997 28.62 13.2764 28.62 15.81C28.616 19.2062 27.2651 22.4622 24.8637 24.8637C22.4622 27.2651 19.2062 28.616 15.81 28.62ZM15.81 4.31001C13.5355 4.31001 11.3121 4.98447 9.42095 6.24811C7.52978 7.51174 6.0558 9.3078 5.18539 11.4091C4.31498 13.5105 4.08724 15.8228 4.53097 18.0535C4.97471 20.2843 6.06997 22.3334 7.67828 23.9417C9.28658 25.55 11.3357 26.6453 13.5665 27.089C15.7972 27.5328 18.1095 27.305 20.2109 26.4346C22.3122 25.5642 24.1083 24.0902 25.3719 22.1991C26.6355 20.3079 27.31 18.0845 27.31 15.81C27.31 12.76 26.0984 9.83495 23.9417 7.67828C21.7851 5.52161 18.86 4.31001 15.81 4.31001Z" fill="#110F23"/>
<path d="M10 16.2896L16.3001 6L22.6002 16.2896L16.3001 19.9599L10 16.2896Z" fill="#110F23"/>
<path d="M16.2437 21.1159L22.342 17.3299L16.2437 26.0002L10.0015 17.3299L16.2437 21.1159Z" fill="#110F23"/>
</svg>
