<svg width="32" height="32" viewBox="0 0 32 32" fill="none" xmlns="http://www.w3.org/2000/svg">
<path d="M25.6885 11.0042C23.8617 11.0042 22.3811 12.4848 22.3811 14.3115V17.6522V17.7023C22.3811 18.5531 21.693 19.2413 20.8422 19.2413C19.9913 19.2413 19.3032 18.5531 19.3032 17.7023V14.3616V14.3073C19.3032 12.4806 17.8226 11 15.9958 11C14.1691 11 12.6885 12.4806 12.6885 14.3073V14.3616V17.7023C12.6885 18.5531 12.0003 19.2413 11.1495 19.2413C10.2987 19.2413 9.61052 18.5531 9.61052 17.7023V17.6564C9.61052 17.6564 9.61052 17.6564 9.61052 17.6522V14.3115C9.61469 12.4848 8.1341 11.0042 6.30735 11.0042C4.48059 11.0042 3 12.4848 3 14.3115V19.9169C3 20.4049 3.39621 20.8011 3.88418 20.8011C4.37215 20.8011 4.76837 20.4049 4.76837 19.9169V14.3115C4.76837 13.4607 5.45653 12.7725 6.30735 12.7725C7.15816 12.7725 7.84633 13.4607 7.84633 14.3115V14.3657V17.7064C7.84633 19.5332 9.32692 21.0138 11.1537 21.0138C12.9804 21.0138 14.461 19.5332 14.461 17.7064V17.6564C14.461 17.6564 14.461 17.6564 14.461 17.6522V14.3115C14.461 13.4607 15.1492 12.7725 16 12.7725C16.8508 12.7725 17.539 13.4607 17.539 14.3115V17.6522V17.7064C17.539 19.5332 19.0196 21.0138 20.8463 21.0138C22.6731 21.0138 24.1537 19.5332 24.1537 17.7064V14.3657V14.3115C24.1537 13.4607 24.8418 12.7725 25.6927 12.7725C26.5435 12.7725 27.2316 13.4607 27.2316 14.3115V19.9169C27.2316 20.4049 27.6278 20.8011 28.1158 20.8011C28.6038 20.8011 29 20.4049 29 19.9169V14.3115C29 12.4848 27.5194 11.0042 25.6927 11.0042H25.6885Z" fill="#110F23"/>
<path d="M15.3078 16.5555C15.7958 16.5555 16.192 16.1593 16.192 15.6713C16.192 15.1833 15.7958 14.7871 15.3078 14.7871H14.457V16.5555H15.3078Z" fill="#110F23" fill-opacity="0.5"/>
</svg>
