<svg width="32" height="32" viewBox="0 0 32 32" fill="none" xmlns="http://www.w3.org/2000/svg">
<g clip-path="url(#clip0_14366_201)">
<path fill-rule="evenodd" clip-rule="evenodd" d="M15.2417 3H16.7583C16.8856 3.01625 17.0129 3.03182 17.1402 3.0474C17.5221 3.09411 17.904 3.14083 18.2858 3.20583C23.605 4.12667 27.8517 8.3625 28.7833 13.66C28.8652 14.1512 28.9277 14.652 28.9892 15.1443L29 15.2308V16.7475C28.9842 16.871 28.9691 16.9945 28.954 17.1178V17.1178C28.9068 17.503 28.8598 17.8867 28.7942 18.2642C27.8625 23.5942 23.6483 27.83 18.34 28.7725C17.9312 28.8492 17.5156 28.899 17.1039 28.9484H17.1039C16.992 28.9619 16.8803 28.9753 16.7692 28.9892H15.2525C15.1207 28.9718 14.9889 28.9556 14.8574 28.9394C14.5783 28.905 14.3008 28.8709 14.0283 28.8267C8.57917 28.025 4.18083 23.7458 3.21667 18.3292C3.16509 18.0197 3.12502 17.7064 3.08505 17.3938C3.05785 17.1812 3.0307 16.9689 3 16.7583V15.2417C3.01576 15.1182 3.03089 14.9947 3.046 14.8714L3.04601 14.8713C3.09319 14.4861 3.14019 14.1025 3.20583 13.725C4.14833 8.37333 8.33 4.18083 13.6925 3.21667C14.0136 3.15518 14.339 3.11523 14.6661 3.07509C14.8576 3.05158 15.0496 3.02801 15.2417 3ZM19.965 16.0975L19.9474 16.1079L19.9542 16.1192L19.5834 16.3403L19.5828 16.3406L19.5823 16.341C19.2048 16.5662 18.8351 16.7869 18.4592 17.0075C18.1755 17.176 17.8903 17.343 17.6047 17.5102L17.604 17.5107L17.6033 17.5111L17.6032 17.5111L17.6031 17.5112C17.1366 17.7843 16.6692 18.058 16.2058 18.34C16.0433 18.4267 15.9242 18.4375 15.7617 18.34C14.5917 17.625 13.4109 16.9317 12.23 16.2384L12.23 16.2383C12.2008 16.2189 12.1738 16.2016 12.1441 16.1826L12.144 16.1825L12.144 16.1825L12.1438 16.1824C12.1074 16.1591 12.0669 16.1332 12.0133 16.0975L12.0258 16.0769L12.0241 16.0758C13.3458 13.8875 14.6566 11.71 16 9.47831L15.9891 9.49998L15.9892 9.5C17.3325 11.7208 18.6433 13.8983 19.965 16.0975ZM21.5467 26.0967L26.0967 21.5467L26.0966 21.5466L26.0967 21.5466L23.9734 19.4232C23.0417 21.5141 21.5142 23.0307 19.4234 23.9732L19.4234 23.9733L19.4233 23.9733L21.5467 26.0967ZM24.2008 13.1508L24.1979 13.1429L24.19 13.1508C23.41 11.0274 22.0017 9.38076 19.9759 8.29743L21.8284 6.44493H21.8392L21.8393 6.445H21.85L26.3783 10.9733L24.2008 13.1508ZM8.30129 19.9937L8.2975 19.9867L6.55333 21.7308L11.0817 26.2592L11.0871 26.2537L11.0925 26.2591C11.3192 26.0324 11.5459 25.8045 11.7734 25.5758C12.2308 25.116 12.6914 24.653 13.1617 24.19L13.1617 24.1899H13.1725C12.8933 24.0903 12.6229 23.9798 12.3615 23.8584C11.4198 23.4174 10.5907 22.8381 9.87857 22.1261C9.26793 21.5118 8.7443 20.7974 8.30838 19.9866L8.30129 19.9937ZM12.5767 8.02667L12.5691 8.03009L12.5767 8.03756C10.4967 8.96923 8.96922 10.4859 8.03755 12.5767V12.5659C7.73964 12.2734 7.44714 11.9809 7.1587 11.6925C6.87026 11.404 6.58589 11.1196 6.30422 10.8434L6.30964 10.838L6.30417 10.8325L10.8325 6.30417C11.1223 6.58849 11.4121 6.87558 11.7047 7.16543C11.9918 7.44985 12.2816 7.73693 12.5767 8.02667ZM19.5317 17.1808C19.6161 17.128 19.7109 17.0753 19.8661 16.9924C19.8613 16.9991 19.8566 17.0058 19.8519 17.0125C19.8562 17.01 19.8605 17.0074 19.8649 17.0048C18.5373 18.8722 17.2632 20.6646 15.9783 22.4893C15.1726 21.3506 14.371 20.2243 13.571 19.1001C13.0694 18.3954 12.5684 17.6915 12.0675 16.986C12.0675 16.9835 12.0681 16.9805 12.069 16.9772L12.069 16.9771L12.0688 16.9769L12.0687 16.9767L12.0675 16.975C12.0688 16.9737 12.0701 16.9723 12.0714 16.9707C12.0747 16.9626 12.0798 16.9537 12.0853 16.9469C12.0877 16.9411 12.0892 16.9356 12.0892 16.9317C12.105 16.9396 12.1214 16.9475 12.1382 16.9555L12.1383 16.9556L12.1385 16.9557L12.1386 16.9557C12.1907 16.9807 12.2459 17.0073 12.295 17.04C12.8746 17.3867 13.4568 17.7306 14.0391 18.0745C14.6214 18.4185 15.2037 18.7625 15.7833 19.1092C15.9675 19.2283 16.0975 19.2175 16.2708 19.1092C17.0613 18.6349 17.8576 18.1663 18.6512 17.6994C18.9452 17.5264 19.2388 17.3536 19.5317 17.1808ZM19.8649 17.0048C19.8694 17.0022 19.8738 16.9995 19.8783 16.9968V16.986C19.8739 16.9922 19.8694 16.9985 19.8649 17.0048Z" fill="#110F23"/>
</g>
<defs>
<clipPath id="clip0_14366_201">
<rect width="26" height="26" fill="white" transform="translate(3 3)"/>
</clipPath>
</defs>
</svg>
