<svg width="32" height="32" viewBox="0 0 32 32" fill="none" xmlns="http://www.w3.org/2000/svg">
<g clip-path="url(#clip0_14572_122)">
<path d="M29 16C29 14.9769 28.6022 14.0149 27.8781 13.2921C27.1709 12.5849 26.2349 12.191 25.2378 12.1741C25.9034 11.4851 26.3155 10.5491 26.3155 9.5169C26.3155 7.4044 24.5969 5.6858 22.4844 5.6858C21.4535 5.6858 20.5175 6.0979 19.8272 6.7635C19.8103 5.7664 19.4164 4.8304 18.7092 4.1232C17.9851 3.3978 17.0231 3 16 3C14.9769 3 14.0149 3.3978 13.2908 4.1219C12.5836 4.8291 12.1897 5.7651 12.1715 6.7622C11.4825 6.0966 10.5465 5.6858 9.5156 5.6858C7.4031 5.6858 5.6845 7.4044 5.6845 9.5169C5.6845 10.5478 6.0966 11.4838 6.7622 12.1741C5.7651 12.191 4.8291 12.5849 4.1219 13.2921C3.3978 14.0149 3 14.9769 3 16C3 17.0231 3.3978 17.9851 4.1219 18.7092C4.8291 19.4164 5.7651 19.8103 6.7622 19.8285C6.0966 20.5175 5.6858 21.4535 5.6858 22.4844C5.6858 24.5969 7.4044 26.3155 9.5169 26.3155C10.5478 26.3155 11.4838 25.9034 12.1728 25.2391C12.1897 26.2362 12.5836 27.1722 13.2921 27.8794C14.0006 28.5866 14.9782 29.0013 16.0013 29.0013C17.0244 29.0013 17.9864 28.6022 18.7092 27.8794C19.4164 27.1722 19.8103 26.2362 19.8272 25.2378C20.5162 25.9034 21.4522 26.3155 22.4844 26.3155C24.5969 26.3155 26.3155 24.5969 26.3155 22.4844C26.3155 21.4535 25.9034 20.5175 25.2391 19.8285C26.2362 19.8116 27.1722 19.4177 27.8794 18.7092C28.6035 17.9851 29.0013 17.0231 29.0013 16H29ZM18.6533 18.6533V22.4064L16 19.7531L13.3467 22.4064V18.6533H9.5949L12.2482 16L9.5949 13.3467H13.3467V9.5949L16 12.2482L18.6533 9.5949V13.3467H22.4051L19.7518 16L22.4051 18.6533H18.6533ZM20.0222 9.5169C20.0222 8.1597 21.1272 7.0547 22.4844 7.0547C23.8416 7.0547 24.9466 8.1597 24.9466 9.5169C24.9466 10.8741 23.8416 11.9791 22.4844 11.9791H20.0222V9.5169ZM14.2593 5.0891C14.739 4.6094 15.3695 4.3689 16 4.3689C16.6305 4.3689 17.261 4.6094 17.7407 5.0891C18.7001 6.0498 18.7001 7.6111 17.7407 8.5718L16 10.3125L14.2593 8.5718C13.7939 8.1064 13.5378 7.4889 13.5378 6.8311C13.5378 6.1733 13.7939 5.5558 14.2593 5.0904V5.0891ZM9.5169 7.0534C10.8741 7.0534 11.9791 8.1584 11.9791 9.5156V11.9778H9.5169C8.1597 11.9778 7.0547 10.8728 7.0547 9.5156C7.0547 8.1584 8.1597 7.0534 9.5169 7.0534ZM5.0891 14.2593C5.5688 13.7796 6.1993 13.5391 6.8298 13.5391C7.4603 13.5391 8.0908 13.7796 8.5705 14.2593L10.3112 16L8.5705 17.7407C8.1051 18.2061 7.4876 18.4622 6.8298 18.4622C6.172 18.4622 5.5545 18.2061 5.0891 17.7407C4.1297 16.78 4.1297 15.2187 5.0891 14.258V14.2593ZM11.9778 22.4844C11.9778 23.8416 10.8728 24.9466 9.5156 24.9466C8.1584 24.9466 7.0534 23.8416 7.0534 22.4844C7.0534 21.1272 8.1584 20.0222 9.5156 20.0222H11.9778V22.4844ZM17.7407 26.9109C16.78 27.8716 15.2187 27.8703 14.258 26.9109C13.2986 25.9502 13.2986 24.3889 14.258 23.4282L15.9987 21.6875L17.7394 23.4282C18.2048 23.8936 18.4609 24.5111 18.4609 25.1689C18.4609 25.8267 18.2048 26.4455 17.7394 26.9096L17.7407 26.9109ZM24.2238 24.2251C23.7584 24.6892 23.1409 24.9466 22.4831 24.9466C21.1259 24.9466 20.0209 23.8416 20.0209 22.4844V20.0222H22.4831C23.1409 20.0222 23.7584 20.2783 24.2238 20.7437C24.6892 21.2091 24.9453 21.8266 24.9453 22.4844C24.9453 23.1422 24.6892 23.761 24.2238 24.2251ZM26.9096 17.742C26.4442 18.2074 25.8267 18.4635 25.1689 18.4635C24.5111 18.4635 23.8923 18.2074 23.4282 17.742L21.6875 16.0013L23.4282 14.2606C24.3889 13.2999 25.9502 13.3012 26.9109 14.2606C27.8703 15.2213 27.8703 16.7826 26.9109 17.7433L26.9096 17.742Z" fill="#110F23"/>
</g>
<defs>
<clipPath id="clip0_14572_122">
<rect width="26" height="26" fill="white" transform="translate(3 3)"/>
</clipPath>
</defs>
</svg>
