<svg width="32" height="32" viewBox="0 0 32 32" fill="none" xmlns="http://www.w3.org/2000/svg">
<path d="M27.9912 18.1625C27.9912 19.2657 27.9912 20.3691 27.9912 21.4723C27.8207 21.6181 27.6091 21.609 27.4033 21.609C22.1001 21.6117 16.7968 21.6128 11.4936 21.6083C10.782 21.6076 10.6501 21.4762 10.6489 20.7753C10.6436 17.9048 10.6438 15.0345 10.6488 12.164C10.65 11.4471 10.7805 11.3223 11.5295 11.3215C15.5624 11.3171 19.5951 11.32 23.6279 11.3195C24.4764 11.3193 24.4771 11.3188 24.4771 10.5015C24.477 9.96421 24.4725 9.42678 24.4779 8.88957C24.4809 8.58684 24.3511 8.44435 24.0306 8.45738C23.8686 8.46395 23.7057 8.45645 23.5433 8.45645C17.339 8.45634 11.1346 8.45669 4.93035 8.45611C4.01 8.456 3.99952 8.45461 4.01301 7.58759C4.02638 6.72783 3.95424 5.86668 4.05299 5.00819C11.9142 5.00819 19.7753 5.01038 27.6365 5C27.9401 4.99966 28.0011 5.05683 28 5.34769C27.9859 8.4877 27.9912 11.6278 27.9912 14.7679C27.7628 14.9499 27.4872 14.9028 27.2262 14.9031C23.2553 14.9061 19.2847 14.9049 15.3139 14.9053C14.3925 14.9054 14.3921 14.906 14.3924 15.787C14.3925 16.3663 14.3843 16.9457 14.3955 17.5249C14.4039 17.9544 14.4615 18.0046 14.9154 18.0218C15.1956 18.0324 15.4762 18.0252 15.7567 18.0252C19.5799 18.0255 23.403 18.0242 27.2262 18.0274C27.4872 18.0275 27.7628 17.9804 27.9912 18.1625Z" fill="#110F23"/>
<path d="M27.9917 27.8372C20.1751 27.8372 12.3586 27.8349 4.54209 27.8446C4.17959 27.8451 4.04868 27.798 4.05 27.3997C4.06771 22.223 4.0653 17.0464 4.05349 11.8697C4.05277 11.5382 4.1378 11.4469 4.48453 11.4575C5.32587 11.4832 6.16915 11.4814 7.01073 11.4588C7.39504 11.4486 7.51295 11.5613 7.51174 11.9387C7.49801 16.0687 7.50584 20.1988 7.49693 24.3288C7.49633 24.6041 7.53438 24.7135 7.86701 24.713C14.531 24.7024 21.1952 24.7049 27.8592 24.7046C27.9034 24.7046 27.9476 24.6999 27.9918 24.6973C27.9917 25.7439 27.9917 26.7906 27.9917 27.8372Z" fill="#110F23"/>
</svg>
