<svg width="32" height="32" viewBox="0 0 32 32" fill="none" xmlns="http://www.w3.org/2000/svg">
<path d="M11.4023 21.3505C11.2824 21.322 11.0888 21.3505 11.0888 21.3505C11.1 21.4018 11.2768 21.664 11.2768 21.664C11.26 21.5842 11.4023 21.3505 11.4023 21.3505Z" fill="#110F23"/>
<path d="M15.2256 21.6203C14.8298 21.759 14.9878 22.5302 14.9878 22.5302C16.1747 22.1939 17.2132 20.4359 17.2132 20.4359C16.2834 21.4069 15.6209 21.4821 15.2256 21.6203Z" fill="#110F23"/>
<path d="M12.5633 24.0006C12.0008 22.2071 12.9834 20.6595 12.9834 20.6595C12.7081 20.4369 12.6969 20.2388 12.1349 20.8012C11.5725 21.3637 11.3047 22.6217 11.3022 23.5189C11.3002 24.4157 12.1482 25.1788 13.179 25.286C14.2099 25.3932 14.8389 24.6164 14.6515 24.0006C14.464 23.3848 14.7719 21.5512 14.7719 21.5512C14.4909 21.5105 13.2593 20.8815 13.2593 20.8815C12.5231 21.7518 12.5633 24.0006 12.5633 24.0006Z" fill="#110F23"/>
<path d="M12.6212 18.9925C12.9052 18.9559 13.2095 18.7644 13.3625 18.6556C13.4112 18.6211 13.4107 18.5489 13.3625 18.5134C13.1831 18.3823 12.8346 18.0622 12.9245 17.6059C13.0449 16.9988 13.4692 17.2569 13.4631 17.6405C13.4631 17.6405 13.2171 17.5948 13.2055 17.4515C13.2055 17.4515 13.1938 18.2304 13.7039 18.2649C14.2135 18.2995 14.2079 17.1593 13.7039 16.9759C13.1999 16.7925 11.9109 16.5466 11.5385 17.0445C11.166 17.5429 11.2956 18.0932 11.5085 18.0241C11.7219 17.9555 11.6589 17.5658 11.6589 17.5658C11.6589 17.5658 11.5268 17.7091 11.51 17.6176C11.4927 17.5257 11.6701 16.9703 11.9109 17.3829C12.107 17.7187 11.8118 18.1806 11.6965 18.3401C11.6716 18.3741 11.6746 18.4209 11.7036 18.4514C11.8509 18.6063 12.2919 19.0346 12.6212 18.9925Z" fill="#110F23"/>
<path d="M24.0773 13.8568C24.0773 13.8568 24.1108 12.3793 24.6931 12.0659C24.6931 12.0659 24.2795 11.8306 23.5072 12.7589C23.5301 12.7137 24.2785 11.2255 24.2455 10.4431L23.7643 10.8236C23.7643 10.8236 22.3539 6.17876 20.8317 4.19776C19.3095 2.21626 19.0519 2.50739 17.1268 6.48055C17.1268 6.48055 17.7086 6.68226 17.8874 7.00641C17.8528 6.9932 16.6777 6.52679 15.8063 6.59284C14.9223 6.65991 14.3959 6.95103 13.9706 6.70462C13.552 6.46176 12.044 6.90277 11.9978 6.91598C12.0282 6.886 12.6329 6.31136 13.429 6.26767C13.429 6.26767 12.6344 4.04127 11.3144 3.24715C9.9944 2.45302 8.03678 7.15122 7.06381 10.6082C7.06381 10.6082 6.67056 10.4923 6.60908 10.3389C6.60908 10.3501 6.6101 11.8723 7.16594 12.6857C7.16594 12.6857 6.5537 12.1273 6.15943 12.2228C6.15943 12.2228 6.77929 13.7354 6.64871 14.3227C6.64871 14.3227 5.18494 16.2621 5 18.238L5.64627 17.6654C5.64627 17.6654 4.63774 19.7287 5.16716 21.6873C5.69657 23.646 7.70856 25.9404 7.72635 26.4343C7.72635 26.4343 8.00782 26.2402 7.88537 25.4476C7.91383 25.5065 8.85326 27.3966 12.2208 28.3828C12.2208 28.3828 11.2463 28.4498 10.6722 28.1562C10.7443 28.1988 14.5945 30.4471 20.161 27.424C20.161 27.424 20.628 28.1963 21.4897 28.2141C21.4897 28.2141 21.2422 27.4068 22.7365 25.9486C24.2302 24.4899 25.849 23.4224 26.1513 20.8612C26.1513 20.8612 25.5883 22.8442 24.5031 23.8517C23.4173 24.8587 21.2123 26.7168 21.1228 27.7578C21.1228 27.7578 20.4064 27.2874 20.4176 26.795C20.4176 26.795 18.1902 28.7201 15.4481 28.4178C15.4481 28.4178 19.5112 27.7802 20.9658 25.5863C20.9658 25.5863 20.5853 26.7391 20.9658 27.1085C20.9658 27.1085 21.0334 26.4257 22.5327 25.0828C24.0326 23.7395 25.8124 22.8107 25.7341 19.4416C25.7341 19.4416 26.383 20.4156 26.4165 20.5944C26.4165 20.5944 27.1329 17.3712 24.0773 13.8568ZM15.47 14.2313C15.5909 13.8197 16.1005 13.6074 16.6075 13.7567C16.6446 13.7679 16.6812 13.7801 16.7163 13.7948C16.5862 13.8416 16.4932 13.9666 16.4932 14.1129C16.4932 14.3004 16.6457 14.4528 16.8331 14.4528C17.0206 14.4528 17.1598 14.3131 17.172 14.1368C17.3143 14.3263 17.3707 14.5549 17.3072 14.7719C17.1862 15.1829 16.6766 15.3953 16.1696 15.2459C15.662 15.0965 15.349 14.6423 15.47 14.2313ZM8.09927 10.6656C7.55919 10.9699 7.642 10.6656 7.65623 9.94564C7.66995 9.2257 9.02652 5.72352 10.0508 4.24196C11.0756 2.76092 11.5324 5.52943 11.6152 6.36014C11.6985 7.19085 10.8957 8.02155 10.8957 8.02155C10.6463 7.96617 10.4801 7.42609 10.4801 7.42609C10.1341 7.67555 9.87094 8.71356 9.87094 8.71356C9.82979 8.51998 9.3588 8.50575 9.3588 8.50575C9.69108 9.76579 8.63885 10.3613 8.09927 10.6656ZM9.70734 14.1972C9.73732 14.3431 9.86586 14.4528 10.0208 14.4528C10.1976 14.4528 10.3409 14.3095 10.3409 14.1327C10.3409 14.0118 10.2738 13.9061 10.1748 13.8517C10.2205 13.836 10.2683 13.8233 10.3175 13.8136C10.7845 13.7237 11.2224 13.9574 11.2956 14.3365C11.3688 14.715 11.0492 15.095 10.5817 15.1849C10.1143 15.2754 9.67635 15.0412 9.60369 14.6626C9.57219 14.5001 9.61335 14.337 9.70734 14.1972ZM17.9763 20.0244C17.9763 20.0244 18.0439 19.4274 17.9763 19.1678C17.9763 19.1678 17.4276 22.1334 14.9431 22.923C14.9431 22.923 15.25 24.8023 14.6245 25.1656C13.9991 25.5294 12.7848 26.1259 11.6939 25.0056C10.6031 23.8858 11.1264 22.0313 11.1264 22.0313C11.1264 22.0313 10.8429 21.7696 10.821 21.5293C10.7992 21.2895 10.0284 20.722 9.97713 20.5767C9.92632 20.4314 9.08291 18.7903 9.5981 17.5124C10.1133 16.2351 11.9876 14.6489 13.995 15.8393C13.9351 15.8277 11.6634 15.3851 10.5426 16.6558C9.33187 18.0281 9.91667 19.4386 9.91667 19.4386C9.91667 19.4386 10.0843 20.2657 10.6209 20.7575C11.1569 21.2494 11.2687 20.9029 11.7046 20.6234C12.1405 20.344 12.4647 20.2434 12.4647 19.9639C12.4647 19.6845 12.4322 19.2897 12.4322 19.2897C12.4322 19.2897 10.9831 18.8975 10.913 17.7147C10.8429 16.5313 12.2919 16.4267 12.7609 16.4267C13.2298 16.4267 14.5392 16.6995 14.406 17.6237C14.2729 18.5474 13.8858 19.0306 12.6933 19.3105L12.7822 20.1158C12.7822 20.1158 14.406 21.2499 15.0361 21.2499C15.6661 21.2499 17.1415 20.379 17.6019 18.7806C17.6328 18.6729 17.6019 18.5571 17.5226 18.4783C17.2665 18.2227 16.7097 17.6186 16.7244 17.2035C16.7244 17.2035 17.7451 18.3701 17.9763 18.4941C18.2075 18.6185 18.554 19.3796 17.9763 20.0244ZM22.5521 10.6656C21.9292 10.3613 20.8769 9.76579 20.9597 9.25364C21.0431 8.7415 21.0705 8.32589 20.8769 8.40922C20.6828 8.49203 20.4476 8.64446 20.4476 8.64446C20.4476 8.64446 20.4755 8.08405 19.8938 7.29856C19.8938 7.29856 19.5061 8.06271 19.3263 7.82747C19.1464 7.59223 18.5789 6.94138 18.648 6.42924C18.7171 5.9171 19.091 2.44388 20.1433 3.81365C21.195 5.18343 22.5932 7.77209 22.801 9.0184C23.0088 10.2642 23.175 10.9699 22.5521 10.6656Z" fill="#110F23"/>
</svg>
