<svg width="32" height="32" viewBox="0 0 32 32" fill="none" xmlns="http://www.w3.org/2000/svg">
<path d="M18.6325 23.35C16.6576 23.35 14.7271 22.7644 13.0851 21.6672C11.4431 20.5701 10.1633 19.0106 9.40753 17.1861C8.65179 15.3616 8.45405 13.3539 8.83932 11.417C9.2246 9.48012 10.1756 7.70097 11.572 6.30454C12.9684 4.90811 14.7476 3.95713 16.6845 3.57186C18.6214 3.18659 20.629 3.38432 22.4536 4.14006C24.2781 4.8958 25.8375 6.17561 26.9347 7.81763C28.0319 9.45966 28.6175 11.3902 28.6175 13.365C28.6135 16.012 27.5602 18.5494 25.6885 20.4211C23.8169 22.2928 21.2794 23.346 18.6325 23.35V23.35ZM18.6325 6.015C17.1782 6.015 15.7565 6.44628 14.5474 7.25429C13.3382 8.06231 12.3958 9.21076 11.8394 10.5544C11.283 11.898 11.1375 13.3765 11.4214 14.8028C11.7053 16.2291 12.4058 17.5392 13.4343 18.5674C14.4629 19.5956 15.7732 20.2956 17.1996 20.579C18.626 20.8624 20.1044 20.7165 21.4479 20.1596C22.7913 19.6027 23.9395 18.66 24.7471 17.4505C25.5547 16.2411 25.9855 14.8193 25.985 13.365C25.983 11.4158 25.2076 9.54711 23.8291 8.16908C22.4506 6.79104 20.5816 6.01632 18.6325 6.015V6.015Z" fill="#110F23"/>
<path d="M13.3649 28.6175C11.39 28.6175 9.45954 28.0319 7.81752 26.9347C6.17549 25.8376 4.89569 24.2781 4.13995 22.4536C3.38421 20.6291 3.18647 18.6214 3.57175 16.6845C3.95702 14.7476 4.908 12.9685 6.30443 11.572C7.70085 10.1756 9.48001 9.22463 11.4169 8.83936C13.3538 8.45409 15.3615 8.65182 17.186 9.40756C19.0105 10.1633 20.5699 11.4431 21.6671 13.0851C22.7643 14.7272 23.3499 16.6577 23.3499 18.6325C23.3459 21.2795 22.2927 23.8169 20.421 25.6886C18.5493 27.5603 16.0119 28.6135 13.3649 28.6175V28.6175ZM13.3649 11.2825C11.9106 11.2825 10.489 11.7138 9.2798 12.5218C8.07063 13.3298 7.12824 14.4783 6.57182 15.8219C6.0154 17.1655 5.86995 18.644 6.15385 20.0703C6.43775 21.4966 7.13825 22.8067 8.16677 23.8349C9.19528 24.8631 10.5056 25.5631 11.932 25.8465C13.3584 26.1299 14.8368 25.984 16.1803 25.4271C17.5237 24.8702 18.6719 23.9275 19.4795 22.718C20.2871 21.5086 20.7179 20.0868 20.7174 18.6325C20.7154 16.6833 19.94 14.8146 18.5615 13.4366C17.183 12.0585 15.3141 11.2838 13.3649 11.2825V11.2825Z" fill="#110F23"/>
</svg>
