<svg width="32" height="32" viewBox="0 0 32 32" fill="none" xmlns="http://www.w3.org/2000/svg">
<path fill-rule="evenodd" clip-rule="evenodd" d="M18.2126 14.2C18.2126 15.6385 15.9688 15.464 15.2571 15.464V12.9298C15.9701 12.9298 18.2126 12.7042 18.2126 14.2ZM18.7984 18.134C18.7984 19.7059 16.1109 19.5264 15.2546 19.5264V16.7429C16.1109 16.7429 18.7984 16.4936 18.7984 18.1403M20.5685 13.6391C20.4252 12.1308 19.1338 11.6322 17.4996 11.4751V9.40714H16.2443V11.434C15.9115 11.434 15.5724 11.434 15.2346 11.4464V9.40714H13.9731V11.4876H11.414V12.8413C11.414 12.8413 12.3464 12.8251 12.3327 12.8413C12.501 12.8228 12.6699 12.8704 12.8036 12.9742C12.9374 13.0779 13.0256 13.2297 13.0495 13.3973V19.0951C13.046 19.1538 13.0309 19.2111 13.0052 19.264C12.9795 19.3168 12.9436 19.364 12.8996 19.4029C12.8556 19.4418 12.8043 19.4717 12.7488 19.4907C12.6932 19.5098 12.6344 19.5177 12.5758 19.514C12.592 19.5289 11.6571 19.514 11.6571 19.514L11.4078 21.026H13.9569V23.1451H15.2197V21.0571H16.2281V23.1314H17.4908V21.0409C19.6236 20.9163 21.1058 20.384 21.2977 18.3834C21.4485 16.7716 20.6932 16.0536 19.4853 15.7657C20.2195 15.3917 20.6807 14.7323 20.571 13.6353" fill="#110F23"/>
<path d="M9.14787 8.39745C10.4278 7.23962 11.9816 6.42696 13.6627 6.03613C15.3437 5.6453 17.0967 5.6892 18.7561 6.16368L18.9007 6.20481C18.973 6.226 19.044 6.24844 19.1151 6.27213C19.2173 6.30453 19.3195 6.33944 19.4192 6.37559L19.5189 6.41174C19.6548 6.4616 19.7907 6.5152 19.9241 6.57129L19.9403 6.57877C21.0035 7.0359 21.9915 7.65115 22.8708 8.40368L23.4268 7.80286C23.352 7.72806 23.2747 7.65951 23.1987 7.58845C21.2739 5.92103 18.8311 4.97141 16.2855 4.90095C16.1496 4.90095 16.0137 4.90095 15.8779 4.90095H15.8492C15.0235 4.91238 14.2015 5.01268 13.3973 5.20011L13.2327 5.24L13.0956 5.27615C12.2943 5.491 11.5198 5.79585 10.787 6.18487C9.98466 6.61565 9.25418 7.16866 8.62183 7.82405L9.14787 8.39745Z" fill="#110F23"/>
<path d="M8.44359 9.09675L7.83279 8.56199C3.68935 12.9049 4.29266 19.9714 7.83279 23.3395L8.45605 22.8521C6.7329 20.9768 5.77574 18.5234 5.77366 15.9766C5.77158 13.4298 6.72474 10.9749 8.44483 9.09675H8.44359Z" fill="#110F23"/>
<path d="M24.4277 8.83249C24.3318 8.73277 24.2345 8.63429 24.1336 8.5408L23.5988 9.12667C26.74 12.6955 27.4032 18.3609 23.6973 22.7225L24.2183 23.352C25.9987 21.3644 27.0009 18.8004 27.0403 16.1323C27.0797 13.4642 26.1537 10.8718 24.4327 8.83249H24.4277Z" fill="#110F23"/>
<path d="M22.9107 23.5564C22.5492 23.8269 22.1902 24.075 21.83 24.3043C20.5227 25.2283 19.0153 25.8297 17.431 26.0594C16.6204 26.1887 15.7961 26.208 14.9803 26.1168C12.9257 25.9175 10.9807 25.0965 9.40464 23.7634C9.32237 23.7035 9.24135 23.6449 9.15534 23.5826L8.58069 24.0974C10.5913 26.0831 13.3474 27.038 16.0598 27.0367C16.1197 27.0367 16.1845 27.0367 16.2393 27.0367H16.268C18.7911 26.9709 21.2152 26.0412 23.1351 24.4028C23.2224 24.3205 23.3109 24.2395 23.3944 24.1535L22.9107 23.5564Z" fill="#110F23"/>
<path d="M15.995 3.87257C18.394 3.87158 20.7394 4.58213 22.7345 5.91433C24.7296 7.24653 26.2848 9.14053 27.2033 11.3567C28.1218 13.5729 28.3624 16.0118 27.8947 18.3647C27.4269 20.7177 26.2717 22.879 24.5754 24.5754C22.879 26.2717 20.7177 27.4269 18.3647 27.8946C16.0118 28.3624 13.5729 28.1218 11.3567 27.2033C9.14053 26.2848 7.24653 24.7296 5.91433 22.7345C4.58213 20.7394 3.87159 18.394 3.87257 15.995C3.87752 12.7815 5.15629 9.70094 7.42862 7.42861C9.70094 5.15628 12.7815 3.87751 15.995 3.87257ZM15.995 3C13.4239 3.00099 10.9107 3.76439 8.77345 5.19367C6.63616 6.62294 4.97069 8.65391 3.98766 11.0297C3.00464 13.4055 2.7482 16.0195 3.25077 18.5411C3.75335 21.0626 4.99236 23.3785 6.81114 25.1959C8.62992 27.0133 10.9468 28.2505 13.4687 28.7512C15.9907 29.2518 18.6044 28.9934 20.9795 28.0085C23.3546 27.0237 25.3842 25.3567 26.8119 23.2183C28.2395 21.0799 29.001 18.5662 29 15.995C28.9993 14.2878 28.6624 12.5975 28.0085 11.0205C27.3546 9.44353 26.3965 8.01078 25.1889 6.80409C23.9812 5.59739 22.5478 4.64036 20.9703 3.98766C19.3928 3.33495 17.7022 2.99935 15.995 3Z" fill="#110F23"/>
</svg>
