<svg width="32" height="32" viewBox="0 0 32 32" fill="none" xmlns="http://www.w3.org/2000/svg">
<path fill-rule="evenodd" clip-rule="evenodd" d="M9.9587 6.26454C8.56483 7.25726 7.40178 8.53928 6.54909 10.023C5.6964 11.5066 5.1742 13.1569 5.01816 14.8611C5.14283 14.4685 5.29286 14.0844 5.4673 13.7113C5.7271 13.1179 6.06059 12.5595 6.4599 12.0495C7.07627 11.2352 7.82836 10.5333 8.68315 9.97444C9.00285 9.76565 9.33593 9.5781 9.68024 9.41301C11.337 8.63252 13.1488 8.23639 14.9801 8.25422C15.7793 8.23296 16.579 8.26448 17.374 8.34856C17.773 8.4007 18.1756 8.42022 18.5777 8.40693C19.7454 8.23626 20.7111 7.45476 20.7111 6.27802C20.7111 5.10127 19.6691 4.27036 18.7214 4.11316C18.1861 4.03423 17.6456 3.9967 17.1045 4.00087C14.5415 3.97006 12.0354 4.75666 9.94971 6.24657L9.9587 6.26454ZM5.34137 14.4434C5.98877 12.6633 7.19391 11.1399 8.77729 10.1002L8.78178 10.1047C10.9197 8.69894 13.6055 8.40699 15.4919 8.40699H15.9052C13.9142 8.58615 12.0728 9.53898 10.7767 11.0608C9.48053 12.5827 8.83286 14.5521 8.97283 16.5462C9.11278 18.5403 10.0292 20.4 11.5252 21.7259C13.0213 23.0518 14.9776 23.738 16.9741 23.6373C17.3182 23.6364 17.6618 23.6134 18.0029 23.5684C17.3646 22.7156 17.05 21.6634 17.1158 20.5996C17.1823 19.5257 17.632 18.5114 18.3832 17.7412C19.1344 16.9709 20.1372 16.4959 21.209 16.4026C22.2809 16.3093 23.3506 16.6038 24.2236 17.2326V17.3314H24.2146C23.9097 20.1197 21.4354 22.5124 18.1818 23.5428L18.2092 23.5385C17.056 23.904 15.8528 24.0874 14.6431 24.082C10.1022 24.0685 7.7802 23.0265 6.95828 22.5459C5.67704 20.5975 4.99612 18.3158 5.00002 15.984V15.7369C5.07977 15.2975 5.19391 14.865 5.34137 14.4434ZM13.206 18.0679C13.2065 19.0158 13.3944 19.9541 13.759 20.8291C14.1236 21.7039 14.6577 22.4981 15.3305 23.1657C15.7981 23.2706 16.2751 23.3278 16.7542 23.3363C15.973 22.3052 15.5952 21.0243 15.6917 19.7342C15.7883 18.4442 16.3525 17.2338 17.2785 16.3304C18.2045 15.427 19.4285 14.8929 20.7206 14.8282C22.0126 14.7636 23.2838 15.173 24.2953 15.9795C24.3061 14.5773 23.986 13.1924 23.3611 11.9372C23.2613 11.7432 23.1519 11.5543 23.0332 11.3713C21.9423 10.9402 20.7625 10.7827 19.5968 10.9126C18.431 11.0424 17.3148 11.4556 16.3455 12.1162C15.3762 12.7767 14.5834 13.6644 14.0361 14.7019C13.4888 15.7393 13.2038 16.895 13.206 18.0679ZM21.5245 22.5639C23.4288 21.194 24.5966 19.357 24.8167 17.3943L24.7988 17.4078C25.0593 15.5092 24.7677 13.5757 23.9588 11.8384C24.9624 12.4378 25.8176 13.2562 26.4606 14.2323C28.7781 17.7312 27.8125 25.6675 19.445 27.7066C14.9491 28.8069 10.0939 26.678 7.67304 23.5655C8.95758 24.0865 11.1628 24.6793 14.6167 24.6793H14.6751C17.1224 24.7013 19.5159 23.9621 21.5245 22.5639Z" fill="#110F23"/>
</svg>
