<svg width="32" height="32" viewBox="0 0 32 32" fill="none" xmlns="http://www.w3.org/2000/svg">
<path d="M16.0063 3.23524H16.0068C23.0601 3.23524 28.7779 8.95304 28.7779 16.0063V16.0068C28.7779 23.0601 23.0601 28.7779 16.0068 28.7779H16.0063C8.95304 28.7779 3.23524 23.0601 3.23524 16.0068V16.0063C3.23524 8.95304 8.95304 3.23524 16.0063 3.23524Z" stroke="#110F23" stroke-width="0.470471"/>
<path fill-rule="evenodd" clip-rule="evenodd" d="M13.9198 5.30396C8.89931 6.271 5.10693 10.688 5.10693 15.9908C5.10693 21.2936 8.89931 25.7106 13.9198 26.6777V25.6577C9.45512 24.7059 6.10645 20.7394 6.10645 15.9908C6.10645 11.2422 9.45512 7.27571 13.9198 6.32398V5.30396ZM18.0799 6.32798V5.30757C23.0912 6.28195 26.8741 10.6946 26.8741 15.9908C26.8741 21.287 23.0912 25.6997 18.0799 26.6741V25.6537C22.5353 24.6949 25.8746 20.7328 25.8746 15.9908C25.8746 11.2488 22.5353 7.28678 18.0799 6.32798Z" fill="#110F23"/>
<path d="M17.5412 15.627C18.3716 15.7853 19.0157 16.0905 19.4735 16.5427C19.9313 16.9836 20.1602 17.5488 20.1602 18.2384V19.3236C20.1602 20.1488 19.8621 20.8158 19.2659 21.3245C18.6697 21.8219 17.8872 22.0706 16.9184 22.0706H16.583V23.8002H15.4332V22.0706H15.0819C14.4431 22.0706 13.8789 21.9293 13.3891 21.6467C12.8994 21.3528 12.5161 20.9458 12.2393 20.4258C11.9732 19.8945 11.8401 19.284 11.8401 18.5945H12.9899C12.9899 19.2953 13.1815 19.8662 13.5648 20.3071C13.9587 20.7367 14.4751 20.9515 15.1138 20.9515H16.8865C17.5146 20.9515 18.0203 20.8045 18.4036 20.5106C18.7868 20.2054 18.9785 19.8097 18.9785 19.3236V18.2384C18.9785 17.854 18.8347 17.5262 18.5473 17.2549C18.2705 16.9836 17.8872 16.8084 17.3975 16.7292L14.523 16.2205C13.7138 16.0736 13.0857 15.7683 12.6386 15.3048C12.1914 14.8414 11.9678 14.2592 11.9678 13.5583V12.6426C11.9678 11.8174 12.2553 11.1617 12.8302 10.6756C13.4157 10.1782 14.1876 9.92955 15.1458 9.92955H15.4332V8.19995H16.583V9.92955H16.9503C17.8553 9.92955 18.5846 10.2235 19.1382 10.8113C19.6918 11.3878 19.9686 12.1509 19.9686 13.1005H18.8188C18.8188 12.4787 18.6484 11.9813 18.3078 11.6083C17.9671 11.2352 17.5146 11.0487 16.9503 11.0487H15.1458C14.5389 11.0487 14.0545 11.1957 13.6926 11.4896C13.3306 11.7722 13.1496 12.1565 13.1496 12.6426V13.5583C13.1496 13.954 13.2827 14.2874 13.5488 14.5587C13.8256 14.8301 14.2036 15.0109 14.6827 15.1014L17.5412 15.627Z" fill="#110F23"/>
</svg>
