<svg width="32" height="32" viewBox="0 0 32 32" fill="none" xmlns="http://www.w3.org/2000/svg">
<path d="M6.71216 21.5296C6.65575 21.4154 6.59645 21.2642 6.55197 21.1218C6.54293 21.0932 6.51256 21.0773 6.48399 21.0863C6.45542 21.0954 6.43951 21.1257 6.44819 21.1543C6.47387 21.2364 6.53642 21.4248 6.61562 21.581C6.55523 21.7108 6.48978 21.8508 6.42216 21.9947C6.3784 22.0883 6.33284 22.1852 6.28692 22.2836C6.25835 22.3013 6.23015 22.3259 6.20266 22.3581C6.18314 22.3809 6.18567 22.4149 6.20845 22.4347C6.21026 22.4365 6.21243 22.4376 6.2146 22.4391C6.07647 22.7352 5.93797 23.0339 5.82587 23.2849C5.65954 23.3265 5.5073 23.4754 5.49971 23.483C5.47837 23.504 5.47837 23.5384 5.49971 23.5597C5.5102 23.5702 5.5243 23.5756 5.53804 23.5756C5.55178 23.5756 5.56588 23.5702 5.57637 23.5597C5.60855 23.5275 5.68268 23.4657 5.76404 23.4241C5.70112 23.5673 5.6505 23.6881 5.61831 23.7738C5.53442 23.9972 5.38508 24.2912 5.2267 24.6025C5.03469 24.9801 4.83653 25.3702 4.72552 25.687C4.69767 25.7665 4.67092 25.845 4.64379 25.9231C4.46589 26.4406 4.29774 26.9295 3.99616 27.4259C3.73039 27.8635 3.45195 28.6435 3.34709 28.9996H10.0707C10.0906 28.689 10.1369 27.9503 10.1738 27.2162C10.2204 26.2797 9.55762 23.9311 8.87672 22.9808C8.35384 22.2514 7.18116 21.7206 6.71252 21.53L6.71216 21.5296Z" fill="#100E21"/>
<path d="M23.0324 13.5393C23.0096 13.5715 22.9861 13.604 22.9619 13.6373C22.6162 14.1096 21.0436 14.7872 20.7648 14.8624C20.6689 14.8881 20.3963 14.9926 20.0506 15.1253C19.5454 15.3188 18.8465 15.5863 18.1739 15.8098C17.9497 15.8843 17.7284 15.9541 17.5179 16.0141C17.0507 16.1479 16.6212 16.2025 16.2426 16.2025C15.6532 16.2025 15.1867 16.0705 14.8902 15.9006C14.8829 15.8966 14.8757 15.8923 14.8685 15.8879C14.9647 16.0532 15.0753 16.2343 15.1936 16.422C15.6242 16.7569 16.1702 16.7532 16.4603 16.7207C16.9853 16.6618 17.4124 16.439 17.5646 16.2484C17.5649 16.2477 17.5657 16.2466 17.5664 16.2459C17.7132 16.0593 17.9399 15.9425 18.1909 15.8583C18.388 15.7921 18.6002 15.7465 18.8013 15.7031C19.0356 15.6525 19.2782 15.6004 19.3787 15.5307C19.5603 15.4041 19.9508 15.3054 20.4455 15.1806C20.5258 15.1604 20.6082 15.1398 20.691 15.1184C21.1213 15.0078 21.5755 14.8816 21.9356 14.7196C22.6306 14.4068 22.9546 13.8586 23.0215 13.7346C23.0255 13.6662 23.0291 13.6011 23.0324 13.5393Z" fill="#100E21"/>
<path d="M21.2504 20.6629L21.2844 20.4893C21.4193 19.8008 21.8445 18.5833 22.5847 16.7666C22.7897 16.2633 22.9105 15.2204 22.9789 14.3511C22.7775 14.576 22.4813 14.831 22.0694 15.0161C21.7914 15.1416 21.4674 15.2446 21.1416 15.3354C21.2135 15.4016 21.2801 15.4858 21.3242 15.5907C21.4153 15.8069 21.3907 16.0532 21.2511 16.3222C21.2189 16.3844 21.1835 16.452 21.1455 16.524C20.9445 16.9076 20.6693 17.4327 20.4787 17.8926C20.1793 18.6155 20.2632 18.7699 20.2737 18.7851C20.3016 18.8252 20.3359 18.8711 20.3753 18.9247C20.6205 19.2544 21.0269 19.8016 21.2424 20.7041C21.245 20.69 21.2479 20.6763 21.2504 20.6629Z" fill="#100E21"/>
<path d="M20.1981 23.9661C20.2585 23.9484 20.4806 23.8045 20.7944 22.6933C20.8906 22.3534 20.9763 21.9907 21.0508 21.6472C20.9691 20.2691 20.4133 19.5213 20.1142 19.1188C20.0727 19.0632 20.0369 19.0147 20.0061 18.9702C19.7617 18.6173 20.1168 17.7853 20.8573 16.3728C20.8949 16.3012 20.93 16.234 20.9622 16.1721C21.0548 15.9939 21.0758 15.8413 21.0248 15.7183C20.9604 15.5636 20.7955 15.4786 20.7203 15.4468C20.6545 15.4638 20.589 15.48 20.525 15.4963C20.0994 15.6037 19.6973 15.7053 19.5646 15.7975C19.4106 15.9046 19.16 15.9588 18.8696 16.0214C18.5134 16.098 18.0763 16.1928 17.8647 16.4003C17.8962 16.618 18.0278 17.3043 18.4646 17.6558C18.8374 17.9563 19.3936 18.5475 18.9282 19.1351C18.8114 19.2823 18.6306 19.7755 18.5254 20.3996C18.4021 21.1294 18.4125 21.833 18.555 22.383C19.148 23.7177 19.779 24.0876 20.1981 23.9661Z" fill="#100E21"/>
<path d="M18.2603 17.9096C17.8394 17.5705 17.6575 17.0111 17.5819 16.6654C17.3086 16.8552 16.9104 16.9977 16.4968 17.044C16.3977 17.0552 16.3004 17.0606 16.205 17.0606C15.9699 17.0606 15.7457 17.0273 15.5403 16.9622C15.7989 17.3586 16.0592 17.7455 16.2581 18.0405C16.4375 18.307 16.5796 18.5175 16.6519 18.6328C16.6957 18.7019 16.747 18.7804 16.8067 18.8708C17.1191 19.3448 17.613 20.0944 18.1171 21.2917C18.1345 20.263 18.4223 19.2494 18.6729 18.933C18.8949 18.6527 18.7561 18.3085 18.2603 17.9096Z" fill="#100E21"/>
<path d="M28.3762 15.4128C28.5483 15.2714 28.5848 15.049 28.5866 15.0374C28.5909 15.0078 28.5707 14.9803 28.5414 14.9756C28.5125 14.9713 28.4843 14.9911 28.4796 15.0208C28.4792 15.0233 28.4427 15.2385 28.2771 15.3509C27.9057 15.1177 27.3911 14.7821 27.1915 14.5927C27.0939 14.5005 26.9594 14.4068 26.8169 14.3077C26.7902 14.2893 26.763 14.2701 26.7359 14.2513C26.8498 14.2245 27.0053 14.2292 27.1066 14.2441C27.1366 14.2484 27.1637 14.2278 27.168 14.1982C27.1724 14.1685 27.1518 14.141 27.1221 14.1367C27.0849 14.1313 26.8043 14.094 26.6267 14.1736C26.4173 14.0221 26.2033 13.8478 26.0275 13.6181C26.0366 13.4721 26.3396 13.3415 26.4495 13.3061C26.4781 13.297 26.4936 13.2663 26.4846 13.2377C26.4756 13.2092 26.4452 13.1936 26.4163 13.2027C26.3725 13.2168 26.0529 13.3249 25.9498 13.5086C25.9455 13.5021 25.9408 13.4956 25.9364 13.4887C25.6949 13.1112 25.2382 12.6194 23.8883 12.0401C24.0029 11.881 24.0514 11.6214 24.0579 11.5841C24.063 11.5545 24.0434 11.5266 24.0138 11.5216C23.9845 11.5165 23.9563 11.536 23.9509 11.5657C23.9281 11.6951 23.8673 11.8969 23.7852 11.9967C23.7227 11.9707 23.659 11.9443 23.5929 11.9179C23.6182 11.9667 23.6384 12.0137 23.6518 12.0571C23.7155 12.2621 23.6247 12.5785 23.3821 13.0016C23.3784 13.1101 23.368 13.399 23.3452 13.778C23.2891 14.7192 23.16 16.217 22.8859 16.8896C22.6169 17.5502 21.7979 19.5604 21.6033 20.5522L21.5697 20.7251C21.5176 20.993 21.4522 21.33 21.3748 21.6895C21.3741 21.6906 21.3741 21.6916 21.3737 21.6931C21.2971 22.0489 21.2077 22.4268 21.1076 22.7819C20.8396 23.7307 20.5869 24.1921 20.2885 24.2789C20.2094 24.3021 20.128 24.3133 20.0452 24.3133C19.7523 24.3133 19.4431 24.1701 19.1535 23.8949C18.8266 23.585 18.5239 23.1178 18.2516 22.5027C18.2498 22.4987 18.248 22.494 18.2462 22.4897C18.18 22.34 18.1157 22.182 18.0535 22.0149C17.4832 20.4897 16.8895 19.5886 16.5347 19.0501C16.474 18.9583 16.4216 18.8787 16.3764 18.8068C16.3062 18.6954 16.1659 18.4868 15.9876 18.2224C15.6127 17.6656 15.2391 17.1062 14.9314 16.618C14.5897 16.0767 14.3293 15.6232 14.2375 15.3585C14.0531 15.1766 13.89 14.9973 13.8086 14.8913C13.3111 14.7782 12.9426 14.627 12.7068 14.4397C12.6515 14.588 12.5459 14.7518 12.3477 14.8823C12.104 15.0421 11.554 15.4334 10.9686 15.893C10.931 15.7545 10.9751 15.5386 11.0004 15.4536C11.0091 15.4251 10.9928 15.3947 10.9643 15.386C10.9357 15.3773 10.9053 15.3936 10.8966 15.4222C10.884 15.4641 10.7976 15.7682 10.8782 15.9646C10.7625 16.0564 10.646 16.1504 10.5307 16.2455C10.3918 16.2141 10.1778 16.1718 10.0284 16.1718C9.77385 16.1718 9.61475 16.3963 9.60824 16.4057C9.59125 16.4303 9.59703 16.464 9.62198 16.4813C9.63138 16.4878 9.64223 16.4911 9.65272 16.4911C9.66971 16.4911 9.68671 16.4831 9.69719 16.4679C9.69864 16.4661 9.8299 16.2803 10.0284 16.2803C10.1409 16.2803 10.2978 16.307 10.4247 16.3334C9.86932 16.7984 9.35837 17.2805 9.12767 17.6374C9.10814 17.6674 9.08934 17.6963 9.0709 17.7245C8.91722 17.488 9.04269 17.091 9.0445 17.0859C9.0539 17.0573 9.03835 17.027 9.00979 17.0176C8.98122 17.0085 8.95085 17.0237 8.94144 17.0523C8.8778 17.2472 8.83333 17.6026 9.00653 17.8207C8.72991 18.2253 8.53536 18.4253 8.38819 18.5768C8.26344 18.7052 8.17919 18.7923 8.09349 18.9471C7.93113 18.989 7.79336 19.168 7.77636 19.1908C7.75864 19.2147 7.76334 19.2487 7.78757 19.2667C7.79733 19.274 7.80854 19.2776 7.82011 19.2776C7.83675 19.2776 7.85302 19.27 7.86351 19.2559C7.88665 19.2248 7.93691 19.1677 7.99585 19.121C7.90943 19.2693 7.79444 19.4573 7.66679 19.6659C7.60098 19.773 7.53192 19.8862 7.46177 20.0012C7.35328 19.9462 7.23287 19.897 7.16127 19.8695C7.13343 19.8587 7.10197 19.8728 7.09112 19.9006C7.08027 19.9285 7.09438 19.9599 7.12222 19.9708C7.21805 20.0077 7.32038 20.0529 7.40499 20.0948C7.16814 20.4868 6.93093 20.895 6.79569 21.1923C6.79316 21.1981 6.79063 21.2038 6.78774 21.2096C7.25023 21.3922 8.5444 21.9592 9.14105 22.7916C9.87366 23.8139 10.5484 26.2374 10.4989 27.2328C10.4627 27.9528 10.4175 28.6778 10.3965 29H28.6134V15.5592C28.557 15.5249 28.4741 15.4742 28.3765 15.4135L28.3762 15.4128Z" fill="#100E21"/>
<path d="M4.43587 7.38953C4.301 7.05831 4.02328 6.78276 3.88985 6.66344C3.60346 6.80265 3.31274 6.98092 3.24041 7.10423C3.18581 7.19788 3.15797 7.28105 3.14351 7.34072C3.33009 7.38013 3.80994 7.40544 4.43587 7.38953Z" fill="#100E21"/>
<path d="M11.7001 9.42283C12.1792 9.81227 12.88 9.94896 13.3299 9.74068C13.7594 9.54179 13.8784 9.32411 13.7634 8.90935H13.1599C13.1946 9.00554 13.2105 9.11004 13.1964 9.20876C13.178 9.33821 13.0688 9.43874 12.935 9.43331C12.8088 9.42789 12.705 9.33676 12.6605 9.22214C12.6236 9.12703 12.6247 9.00843 12.6613 8.90935H11.3591C11.4 9.0652 11.4936 9.25468 11.7001 9.42283Z" fill="#100E21"/>
<path d="M7.65161 3.76627C7.55651 3.8093 7.47153 3.8498 7.39704 3.88777C7.61581 3.86391 7.90581 3.84185 8.29164 3.82051C8.96133 3.78363 9.39489 3.95684 10.2255 4.59326C10.9154 5.12192 11.9312 5.01344 12.6034 4.94148C12.6602 4.93533 12.7148 4.92955 12.7665 4.92449C13.0366 4.89737 13.3798 4.76321 13.7432 4.62074C14.2465 4.42367 14.8164 4.19947 15.3498 4.20707C16.2274 4.21828 16.6555 4.47031 17.433 4.92774L17.5516 4.99717C18.5304 5.57176 18.636 6.47721 18.61 7.2872C18.5962 7.71751 18.7506 8.26931 19.5643 8.45409C20.0347 8.56113 20.2958 9.03989 20.4863 9.38992C20.5305 9.47056 20.572 9.54722 20.6096 9.60616C20.678 9.71355 21.0833 9.74465 21.4887 9.71572C21.4663 9.68282 21.4453 9.65136 21.4258 9.62135C21.4677 9.62279 21.5256 9.63039 21.5693 9.63617C21.642 9.64557 21.719 9.6557 21.7892 9.6557C21.8778 9.6557 21.9555 9.63979 22.0007 9.58627C22.0904 9.4796 22.2629 9.51829 22.2658 9.51901C22.2947 9.52588 22.324 9.50816 22.3312 9.47887C22.3381 9.44958 22.3204 9.42029 22.2911 9.41342C22.2813 9.41089 22.0514 9.35774 21.9179 9.51612C21.8753 9.56674 21.6999 9.5436 21.5838 9.52841C21.4948 9.51684 21.4164 9.50636 21.3611 9.51684C21.3314 9.46658 21.3093 9.42391 21.2971 9.39137C21.2721 9.327 21.2453 9.25902 21.2168 9.19068C21.2764 8.89525 21.5965 8.8891 21.6102 8.8891C21.6402 8.8891 21.6644 8.86487 21.6644 8.83486C21.6644 8.80485 21.6402 8.78062 21.6102 8.78062C21.4844 8.78062 21.2569 8.83992 21.1531 9.04423C21.0996 8.92707 21.0414 8.81642 20.9799 8.72782C21.1795 8.68479 21.2942 8.50001 21.3303 8.39117C21.3397 8.36261 21.3242 8.33223 21.296 8.32283C21.2674 8.31343 21.237 8.32861 21.2273 8.35718C21.2233 8.36875 21.1347 8.62296 20.9004 8.62838C20.8158 8.53762 20.64 8.3467 20.4798 8.11635C20.695 8.1847 20.9438 8.19374 20.9575 8.1941C20.9582 8.1941 20.9586 8.1941 20.9593 8.1941C20.9882 8.1941 21.0125 8.17096 21.0136 8.14167C21.0146 8.11165 20.9911 8.0867 20.9611 8.08562C20.9571 8.08562 20.5749 8.07115 20.3746 7.95436C20.3652 7.93881 20.3562 7.92362 20.3471 7.90771C20.2853 7.79923 20.2325 7.68677 20.1978 7.57576C20.1663 7.47632 20.1182 7.39206 20.0625 7.31107C20.1316 7.28467 20.2426 7.26478 20.3193 7.25755C20.3493 7.25465 20.371 7.22826 20.3681 7.19861C20.3652 7.16859 20.3388 7.14654 20.3092 7.14979C20.2705 7.15341 20.1048 7.17149 19.9978 7.22103C19.9902 7.21054 19.9823 7.20041 19.9747 7.18957C19.9197 7.11616 19.864 7.04167 19.8177 6.95959C19.8864 6.88799 20.0774 6.71225 20.3222 6.67573C20.6614 6.6251 21.3263 6.25952 21.3545 6.24398C21.3809 6.22951 21.3903 6.19661 21.3759 6.17021C21.3614 6.14417 21.3285 6.13441 21.3021 6.14887C21.2952 6.15249 20.6259 6.5206 20.3063 6.56833C20.0549 6.60594 19.8604 6.76504 19.7667 6.85617C19.7317 6.77228 19.7078 6.67971 19.7046 6.57267C19.7017 6.48082 19.6763 6.34088 19.625 6.17382C19.8282 6.04799 19.8029 5.84332 19.8015 5.83428C19.7971 5.80463 19.7696 5.78365 19.7404 5.78799C19.7107 5.79197 19.6901 5.81945 19.6941 5.8491C19.6941 5.85055 19.7096 5.97675 19.5896 6.06643C19.5867 6.05811 19.5841 6.04979 19.5809 6.04148C19.386 5.50631 18.9423 4.76972 18.1139 4.35966C16.7871 3.70263 15.2706 3.35549 13.728 3.35549C13.4904 3.35549 13.2167 3.35332 12.927 3.35115C11.8513 3.34284 10.424 3.33199 9.31173 3.4195C9.37935 3.32367 9.45817 3.18554 9.46215 3.05608C9.46324 3.02607 9.43973 3.00112 9.40972 3.00004C9.38007 2.99895 9.35476 3.02246 9.35367 3.05247C9.34897 3.19277 9.2253 3.35911 9.16564 3.43179C8.75377 3.46831 8.39181 3.52002 8.11591 3.59198C8.07938 3.4524 7.76045 3.4025 7.61906 3.38731C7.58905 3.38406 7.56265 3.40575 7.5594 3.43541C7.55614 3.46506 7.57784 3.49182 7.60749 3.49507C7.84073 3.52002 8.01068 3.58619 8.0114 3.61838C8.0114 3.61946 8.0114 3.62018 8.01176 3.62127C7.95318 3.63935 7.89894 3.65851 7.85049 3.67876C7.77998 3.70842 7.71344 3.73734 7.65161 3.76519V3.76627Z" fill="#100E21"/>
<path d="M4.19758 6.17636C4.21168 6.17057 4.5411 6.04112 4.76385 6.31087L4.75915 6.31196C4.75517 6.31377 4.43623 6.43346 4.21385 6.52096C4.41924 6.72419 4.72118 7.08253 4.81158 7.50452C4.8123 7.50669 4.81303 7.50959 4.81339 7.51212C4.81447 7.51573 4.81519 7.51935 4.81556 7.52297C4.81556 7.57576 4.83653 7.63542 4.84376 7.68786C4.85461 7.76416 4.86256 7.84045 4.86763 7.91711C4.90343 8.47073 4.77614 9.00265 4.3838 9.40909C4.38199 9.41089 4.38019 9.41306 4.37982 9.4156C4.37982 9.41849 4.38127 9.42102 4.38308 9.42319C4.4102 9.45899 4.43804 9.49587 4.46299 9.5342C4.45178 9.5841 4.41092 9.70343 4.33824 9.72477C4.30967 9.73344 4.29304 9.76346 4.30172 9.79202C4.30859 9.81553 4.33029 9.83072 4.35379 9.83072C4.35885 9.83072 4.36391 9.82999 4.36934 9.82855C4.44889 9.80504 4.49915 9.73598 4.52953 9.67161C4.54544 9.72802 4.54725 9.78805 4.5241 9.85241C4.51072 9.89002 4.54291 9.97933 4.62897 10.0719C4.63837 10.0817 4.64669 10.0925 4.65537 10.103C4.54218 10.1721 4.34583 10.2495 4.07355 10.2021C4.04426 10.197 4.01605 10.2165 4.01063 10.2462C4.00557 10.2758 4.02509 10.3037 4.05474 10.3091C4.11983 10.3203 4.18094 10.3254 4.23844 10.3254C4.45323 10.3254 4.61414 10.256 4.71648 10.1927C4.76782 10.2813 4.80218 10.3818 4.81809 10.4802C4.82062 10.4964 4.82279 10.5127 4.8246 10.5293C4.77036 10.5608 4.69116 10.5901 4.58377 10.5876C4.55376 10.5876 4.52917 10.6111 4.52844 10.6407C4.52808 10.6707 4.55195 10.6953 4.5816 10.696C4.58558 10.696 4.58955 10.696 4.59353 10.696C4.6861 10.696 4.76132 10.6769 4.8217 10.6508C4.81917 10.6664 4.81592 10.6816 4.81122 10.6964C4.78482 10.781 4.71684 10.849 4.7342 10.9448C4.74143 10.9846 4.76276 11.0211 4.76529 11.0612C4.77325 11.1947 4.59136 11.195 4.57654 11.3086C4.57256 11.3382 4.58775 11.3664 4.60402 11.3918C4.69044 11.5259 4.81736 11.6196 4.92982 11.7291C5.04626 11.8427 5.12436 11.9783 5.19198 12.1247C5.19415 12.1298 5.19669 12.1348 5.19886 12.1399C5.10773 12.2806 5.0506 12.5037 5.20175 12.8288C5.21079 12.8487 5.23068 12.8602 5.25093 12.8602C5.25852 12.8602 5.26647 12.8588 5.27371 12.8552C5.30083 12.8425 5.31276 12.8103 5.3001 12.7832C5.19018 12.5464 5.20464 12.376 5.25599 12.2589C5.29974 12.3439 5.34711 12.4202 5.40063 12.4541C5.53117 12.538 5.86493 12.601 6.16506 12.6306C6.29126 12.6429 6.41167 12.6498 6.50894 12.6498C6.5357 12.6498 6.55993 12.6501 6.58379 12.6509C6.58235 12.7445 6.55378 12.866 6.41818 12.8978C5.79984 13.0421 5.67617 13.1423 5.63676 13.2052C5.62085 13.2305 5.62844 13.2641 5.65411 13.28C5.66315 13.2855 5.67292 13.2884 5.68268 13.2884C5.70076 13.2884 5.71848 13.2793 5.7286 13.2627C5.74885 13.2301 5.8595 13.1397 6.44241 13.0034C6.63153 12.9593 6.68721 12.7973 6.69155 12.6566C6.8738 12.6736 6.94974 12.7246 7.05894 12.844C7.06726 12.853 7.0763 12.8628 7.08606 12.8732C7.18984 12.9839 7.4285 13.1354 7.79661 13.2446C7.78359 13.2587 7.77057 13.2692 7.7572 13.2743C7.72935 13.2851 7.71525 13.3166 7.7261 13.3444C7.73441 13.3661 7.75503 13.3791 7.77672 13.3791C7.78323 13.3791 7.78974 13.378 7.79625 13.3755C7.84109 13.3582 7.87869 13.3202 7.90979 13.2753C7.99802 13.2963 8.11808 13.314 8.25838 13.3281C8.24825 13.3976 8.2327 13.4496 8.21607 13.4608C8.19112 13.4775 8.18425 13.5111 8.20088 13.5361C8.21137 13.5516 8.22836 13.5603 8.24608 13.5603C8.25657 13.5603 8.26669 13.5574 8.2761 13.5512C8.32817 13.5165 8.35384 13.4276 8.36686 13.3383C8.49703 13.3491 8.63987 13.3574 8.78776 13.3629C8.83694 13.5281 8.94398 13.6764 8.94976 13.6843C8.96025 13.6988 8.97688 13.7067 8.99352 13.7067C9.00473 13.7067 9.01593 13.7035 9.02534 13.6962C9.04956 13.6785 9.05499 13.6445 9.03727 13.6203C9.03618 13.6185 8.95048 13.4995 8.90275 13.3665C8.99858 13.369 9.09513 13.3708 9.19095 13.3708C9.33776 13.3712 9.48204 13.369 9.61692 13.3639V13.5523C9.61692 13.5823 9.64115 13.6066 9.67116 13.6066C9.70117 13.6066 9.7254 13.5823 9.7254 13.5523V13.3589C9.84437 13.3527 9.95357 13.344 10.0469 13.3328C10.07 13.454 10.112 13.6341 10.1662 13.6901C10.1767 13.701 10.1911 13.7067 10.2052 13.7067C10.2193 13.7067 10.2324 13.7017 10.2429 13.6915C10.2642 13.6706 10.2649 13.6362 10.2439 13.6149C10.2172 13.5874 10.1807 13.4536 10.1543 13.318C10.1854 13.313 10.2139 13.3072 10.2392 13.3014C10.3108 13.2844 10.3748 13.2681 10.4331 13.2533C10.4728 13.2432 10.5104 13.2338 10.547 13.2251C10.5766 13.3173 10.6616 13.5563 10.7632 13.6022C10.7704 13.6055 10.778 13.6069 10.7853 13.6069C10.8059 13.6069 10.8258 13.595 10.8348 13.5751C10.8471 13.5476 10.8348 13.5158 10.8077 13.5035C10.7679 13.4854 10.6981 13.3372 10.6533 13.2016C10.7303 13.186 10.8012 13.1759 10.8695 13.1759C10.982 13.1759 11.0872 13.203 11.2015 13.2743C11.2134 13.3014 11.2141 13.3307 11.2029 13.3636C11.1675 13.4677 11.081 13.5842 11.0116 13.6774C10.9342 13.7816 10.8937 13.838 10.8937 13.8872C10.8937 13.9172 10.918 13.9421 10.948 13.9421C10.978 13.9421 11.0022 13.9186 11.0022 13.8886C11.0058 13.8666 11.0597 13.7942 11.0988 13.7418C11.1729 13.6424 11.2647 13.5187 11.306 13.3983C11.3114 13.382 11.3154 13.3661 11.3175 13.3506C11.3201 13.352 11.3226 13.3535 11.3251 13.3549C11.3515 13.4388 11.4199 13.5201 11.5298 13.5972C11.7251 13.7342 11.8936 13.8528 11.9004 13.9212C11.9019 13.936 11.8979 13.962 11.8462 14.017C11.8256 14.0387 11.8267 14.073 11.8484 14.0937C11.8589 14.1034 11.8722 14.1085 11.8856 14.1085C11.9001 14.1085 11.9145 14.1027 11.925 14.0915C11.9677 14.0463 12.0158 13.9848 12.0082 13.9103C11.9966 13.7971 11.8722 13.7053 11.592 13.5086C11.5584 13.4851 11.5302 13.4612 11.5063 13.4373C11.7345 13.5198 12.0436 13.5704 12.377 13.5758C12.5181 13.578 12.641 13.616 12.7495 13.6727C12.7643 13.7599 12.777 13.9761 12.5734 14.0962C12.5477 14.1114 12.539 14.1446 12.5542 14.1703C12.5643 14.1873 12.5824 14.1971 12.6009 14.1971C12.6103 14.1971 12.6197 14.1945 12.6283 14.1895C12.8204 14.0763 12.8692 13.889 12.8656 13.7433C13.0022 13.8391 13.1129 13.9599 13.2062 14.0615C13.2839 14.1464 13.3718 14.243 13.4246 14.2614C13.6032 14.3236 13.9171 14.4563 14.0379 14.6527C14.0411 14.657 14.0437 14.6617 14.0462 14.6661C14.0802 14.7214 14.266 14.9308 14.4826 15.1441C14.4834 15.1445 14.4841 15.1448 14.4845 15.1456C14.491 15.151 14.4971 15.1571 14.5029 15.1636C14.6913 15.3481 14.8992 15.5307 15.0507 15.6174C15.199 15.7024 16.0104 16.1063 17.4272 15.7006C18.2545 15.4638 19.2645 15.0765 19.9327 14.8205C20.3008 14.6794 20.5666 14.5775 20.6787 14.5475C21.007 14.4589 22.4408 13.7953 22.6983 13.4442C22.8566 13.2276 22.981 13.0385 23.0765 12.8761C23.0783 12.8722 23.0805 12.8685 23.083 12.8649C23.0841 12.8631 23.0852 12.8613 23.0866 12.8595C23.3083 12.478 23.369 12.2459 23.3401 12.1518C23.305 12.039 23.1817 11.8593 23.0432 11.6839C22.9293 11.5404 22.8057 11.3993 22.7113 11.3003L22.7037 11.2912C22.6885 11.2728 22.6596 11.2374 22.6205 11.1893C22.7178 11.1835 22.8693 11.1914 23.0252 11.2659C23.1087 11.3057 23.1832 11.3212 23.2472 11.3212C23.3792 11.3212 23.4681 11.2562 23.5046 11.2066C23.5224 11.1827 23.5169 11.1491 23.4931 11.1314C23.4692 11.1137 23.4352 11.1184 23.4175 11.1419C23.4132 11.1477 23.3076 11.2804 23.0718 11.1679C22.8472 11.0609 22.6339 11.0739 22.5384 11.0884C22.4827 11.0193 22.4166 10.9372 22.3443 10.8468C22.4498 10.8555 22.5815 10.8479 22.6664 10.7767C22.6809 10.7647 22.695 10.7604 22.7131 10.7626C22.7807 10.7716 22.8715 10.8696 22.9131 10.9289C22.9235 10.9441 22.9405 10.952 22.9575 10.952C22.968 10.952 22.9789 10.9488 22.9883 10.9423C23.0129 10.9253 23.019 10.8913 23.002 10.8667C22.9883 10.8468 22.8642 10.6729 22.7276 10.6544C22.6795 10.6479 22.6339 10.6613 22.5967 10.6928C22.5171 10.7597 22.3424 10.742 22.2459 10.7224C22.1978 10.6617 22.1475 10.598 22.0973 10.5333C22.2774 10.5123 22.5091 10.512 22.5178 10.512C22.5478 10.512 22.5721 10.4877 22.5721 10.4577C22.5721 10.4277 22.5478 10.4035 22.5178 10.4035C22.5052 10.4035 22.2141 10.4035 22.0199 10.4346C21.9125 10.2961 21.8047 10.1547 21.7057 10.0209C21.5784 10.0365 21.3965 10.0527 21.2048 10.0527C20.8544 10.0527 20.4722 9.99778 20.3334 9.77973C20.29 9.71139 20.2459 9.63039 20.1992 9.54433C20.0293 9.23262 19.8177 8.84462 19.4905 8.7705C19.0251 8.66455 18.2495 8.3297 18.2835 7.27563C18.324 6.00604 17.8759 5.56453 17.3852 5.27669L17.2666 5.2069C16.4899 4.7502 16.1352 4.54155 15.344 4.53143C14.8768 4.52636 14.3593 4.72741 13.8603 4.92268C13.4756 5.07347 13.1118 5.21594 12.7972 5.2474C12.7462 5.25246 12.6927 5.25825 12.6367 5.26403C11.9131 5.34142 10.8192 5.45821 10.0259 4.85036C9.26038 4.2642 8.89118 4.11233 8.30828 4.14451C7.62268 4.18212 7.27879 4.22226 7.1074 4.2548C7.1074 4.2548 7.10667 4.2548 7.10631 4.2548C7.02603 4.26167 6.85789 4.07255 6.76966 3.94129C6.75302 3.91634 6.7194 3.90983 6.69444 3.92646C6.66949 3.9431 6.66299 3.97673 6.67962 4.00168C6.70999 4.04688 6.83185 4.22081 6.96239 4.31013C6.96167 4.31157 6.96131 4.31266 6.96058 4.3141C6.93455 4.3716 6.89983 4.44826 6.85391 4.52926C6.84342 4.52275 6.83258 4.51624 6.82101 4.51045C6.69734 4.44898 6.52268 4.45007 6.42324 4.51298C6.33537 4.56831 6.18495 4.52853 6.13432 4.50828C6.10648 4.49707 6.07502 4.51081 6.06381 4.53866C6.0526 4.5665 6.06634 4.59796 6.09418 4.60917C6.10359 4.61315 6.3285 4.70102 6.48146 4.60483C6.54221 4.5665 6.67383 4.55855 6.77291 4.60772C6.78159 4.61206 6.78991 4.61676 6.7975 4.62183C6.73241 4.72054 6.65033 4.81782 6.54691 4.88869C6.44349 4.9592 6.38527 5.17508 6.35056 5.30417C6.34767 5.3143 6.34514 5.32406 6.34261 5.33346C6.19724 5.10421 5.83564 5.01453 5.81647 5.01019C5.78718 5.00332 5.75825 5.02104 5.75102 5.05033C5.74415 5.07962 5.76187 5.10854 5.79116 5.11578C5.79586 5.11686 6.23774 5.22679 6.28873 5.4857C6.28692 5.48895 6.28547 5.49184 6.28366 5.4951C6.25727 5.53777 6.18748 5.65131 5.79369 5.7041C5.4715 5.63215 5.51092 5.2756 5.51309 5.26006C5.5167 5.2304 5.49573 5.20328 5.46608 5.19967C5.43643 5.19569 5.40931 5.21703 5.40533 5.24668C5.38906 5.3736 5.41546 5.5949 5.58143 5.72399C5.53551 5.72689 5.48669 5.72905 5.43426 5.73014C5.38327 5.73159 5.33446 5.73195 5.28781 5.73267C5.1193 5.73448 5.01733 5.73954 4.95514 5.75473C4.87052 5.72689 4.78193 5.67988 4.72949 5.64552C4.70454 5.62925 4.67092 5.63612 4.65428 5.66107C4.63801 5.68602 4.64488 5.71965 4.66983 5.73629C4.68683 5.7475 4.76385 5.79631 4.85895 5.83537C4.85895 5.83645 4.85823 5.83754 4.85786 5.83862C4.8217 5.98326 4.83653 6.05739 4.84231 6.078L4.98768 6.24976L4.87233 6.2805C4.87052 6.27435 4.86799 6.26857 4.86365 6.26314C4.58992 5.90082 4.15889 6.0733 4.15455 6.07511C4.12706 6.08668 4.11369 6.11814 4.12526 6.14562C4.13647 6.17346 4.16829 6.18648 4.19613 6.17527L4.19758 6.17636ZM20.401 12.2205L20.5218 12.0849C20.5417 12.0625 20.576 12.0607 20.5984 12.0806C20.6209 12.1005 20.6227 12.1348 20.6028 12.1573L20.482 12.2929C20.4715 12.3048 20.4563 12.3109 20.4415 12.3109C20.4288 12.3109 20.4158 12.3066 20.4053 12.2972C20.3829 12.2773 20.3811 12.243 20.401 12.2205ZM19.1263 11.6145C19.2106 11.6145 19.2797 11.6836 19.2797 11.7678C19.2797 11.8521 19.2106 11.9211 19.1263 11.9211C19.0421 11.9211 18.973 11.8524 18.973 11.7678C18.973 11.6832 19.0417 11.6145 19.1263 11.6145ZM19.0895 13.0396C19.1741 13.0396 19.2428 13.1086 19.2428 13.1929C19.2428 13.2772 19.1741 13.3462 19.0895 13.3462C19.0049 13.3462 18.9361 13.2775 18.9361 13.1929C18.9361 13.1083 19.0052 13.0396 19.0895 13.0396ZM18.1808 13.0898C18.201 13.0674 18.235 13.0656 18.2574 13.0855L18.372 13.1871C18.3945 13.207 18.3963 13.2414 18.3764 13.2638C18.3659 13.2761 18.3507 13.2822 18.3359 13.2822C18.3232 13.2822 18.3102 13.2775 18.2997 13.2685L18.1855 13.1665C18.163 13.1466 18.1609 13.1123 18.1808 13.0898ZM17.932 13.6926C17.9454 13.6659 17.9779 13.655 18.0047 13.6684C18.0195 13.6756 18.15 13.7443 18.1587 13.8564C18.1609 13.8865 18.1388 13.9125 18.1088 13.915H18.1045C18.0766 13.915 18.0528 13.8933 18.0506 13.8651C18.0473 13.8243 17.9855 13.7801 17.9558 13.7653C17.9294 13.7519 17.9186 13.7194 17.932 13.6926ZM16.2849 12.0669C16.3894 12.0669 16.4747 12.1522 16.4747 12.2567C16.4747 12.3612 16.3894 12.4469 16.2849 12.4469C16.1804 12.4469 16.0947 12.3616 16.0947 12.2567C16.0947 12.1518 16.18 12.0669 16.2849 12.0669ZM11.2054 8.40166C11.2915 8.41757 11.349 8.49821 11.3367 8.58391H13.7222C13.6972 8.29173 13.5425 7.88204 13.4745 7.72655C13.4383 7.6441 13.4759 7.54828 13.5584 7.51212C13.6405 7.47632 13.7367 7.51356 13.7725 7.59601C13.8046 7.66942 14.0777 8.30656 14.0484 8.7271C14.2545 9.35955 14.0795 9.75225 13.4669 10.0357C13.2814 10.1218 13.067 10.163 12.8424 10.163C12.3843 10.163 11.8827 9.99091 11.4947 9.67523C11.1158 9.36714 11.0236 8.99758 11.0076 8.76363C10.9986 8.63092 11.0142 8.54196 11.016 8.5322C11.0322 8.44361 11.1172 8.38539 11.2054 8.40166ZM10.9476 6.773C10.9476 6.74299 10.9718 6.71876 11.0019 6.71876C11.0319 6.71876 11.0561 6.74299 11.0561 6.773V6.93355C11.0561 6.96321 11.0319 6.98779 11.0019 6.98779C10.9718 6.98779 10.9476 6.96321 10.9476 6.93355V6.773ZM8.57984 7.00334C8.71942 6.98129 8.86623 6.75998 8.91107 6.67645C8.92553 6.65006 8.95808 6.64029 8.98448 6.6544C9.01087 6.6685 9.021 6.7014 9.00689 6.7278C8.98773 6.76324 8.81416 7.07566 8.59684 7.11074C8.59394 7.1111 8.59105 7.11146 8.58816 7.11146C8.56212 7.11146 8.53898 7.0923 8.53464 7.06554C8.52994 7.03589 8.55019 7.00841 8.57984 7.00334ZM9.00979 8.1489L8.93891 8.33802C8.9306 8.35972 8.90999 8.37309 8.88793 8.37309C8.88178 8.37309 8.87527 8.37201 8.86912 8.36984C8.84092 8.35935 8.82682 8.32789 8.8373 8.30005L8.90818 8.11057C8.91866 8.08273 8.95012 8.06826 8.97797 8.07875C9.00617 8.0896 9.02027 8.1207 9.00979 8.1489ZM7.46357 6.58967C7.48202 6.61317 7.47804 6.64716 7.45453 6.66597C7.44477 6.67356 7.43284 6.67754 7.4209 6.67754C7.40499 6.67754 7.38908 6.67031 7.3786 6.65693C7.37607 6.65403 7.24625 6.49384 7.11571 6.5188C7.08606 6.52422 7.05786 6.50505 7.05207 6.47576C7.04665 6.44611 7.06581 6.41791 7.09546 6.41212C7.29073 6.37488 7.4567 6.58099 7.46357 6.58967ZM6.4717 7.56527C6.48255 7.53743 6.51437 7.52405 6.54221 7.53526L6.73133 7.61084C6.75917 7.62205 6.77255 7.6535 6.7617 7.68135C6.75302 7.70268 6.73277 7.71534 6.71108 7.71534C6.70457 7.71534 6.6977 7.71425 6.69119 7.71172L6.50171 7.63579C6.47387 7.62458 6.46049 7.59312 6.4717 7.56527ZM6.00921 11.4091C6.08695 11.3491 6.19326 11.267 6.33465 11.2478C6.64563 11.2059 6.71144 11.4377 6.75049 11.5758C6.75519 11.5917 6.75989 11.608 6.76496 11.625C6.79389 11.6413 6.90634 11.6279 6.98337 11.5548C7.17104 11.3769 7.47044 11.3281 7.63136 11.3021L7.66788 11.2963C7.84543 11.2663 8.21535 11.2041 8.36216 11.4738C8.40917 11.5595 8.57984 11.5675 8.71147 11.5263C8.97941 11.4417 9.06981 11.5147 9.23398 11.6753C9.30847 11.7483 9.46975 11.7555 9.52037 11.7523C9.61041 11.7465 9.68743 11.8141 9.69358 11.9034C9.69973 11.9927 9.63283 12.0701 9.54351 12.077C9.53664 12.0774 9.52001 12.0784 9.49614 12.0784C9.39489 12.0784 9.16238 12.0604 9.00617 11.9078C8.96893 11.8712 8.91794 11.8213 8.90094 11.8145C8.89841 11.8145 8.87889 11.8145 8.80946 11.8365C8.55489 11.9168 8.21679 11.8864 8.07649 11.6297C8.06022 11.5993 7.98537 11.5729 7.72176 11.617L7.68343 11.6235C7.56627 11.6423 7.32219 11.6821 7.2072 11.791C7.06726 11.924 6.85391 11.9862 6.68866 11.9421C6.57222 11.911 6.48652 11.83 6.45326 11.7197C6.44783 11.7006 6.44241 11.6825 6.43771 11.6648C6.4283 11.6322 6.41601 11.5896 6.40661 11.5682C6.40046 11.5682 6.39142 11.5686 6.3784 11.5704C6.32344 11.578 6.26486 11.6232 6.20809 11.6669C6.12456 11.7313 6.02946 11.8043 5.90398 11.7873C5.81503 11.7754 5.75247 11.6933 5.7644 11.6044C5.77597 11.5205 5.84938 11.4605 5.93219 11.4637C5.95027 11.4547 5.98534 11.4276 6.00921 11.4091Z" fill="#100E21"/>
<path d="M3.4487 9.23805C3.45593 9.26155 3.47726 9.27638 3.50041 9.27638C3.50583 9.27638 3.51089 9.27565 3.51632 9.27384C3.54488 9.26517 3.56116 9.23479 3.55212 9.20623C3.53801 9.16066 3.58249 9.02759 3.6436 8.8938C3.66204 8.90429 3.68012 8.91441 3.69893 8.92418C3.77306 8.96214 3.83814 8.99758 3.89636 9.03085C3.84465 9.09774 3.81355 9.18344 3.86201 9.27059C3.91733 9.37075 3.81283 9.50129 3.81175 9.50238C3.79258 9.52552 3.79584 9.55951 3.81898 9.57868C3.8291 9.58699 3.8414 9.59097 3.85333 9.59097C3.86888 9.59097 3.88443 9.5841 3.89528 9.57108C3.90142 9.56349 4.04751 9.38269 3.95675 9.2178C3.93216 9.17332 3.95856 9.1245 3.9911 9.0869C4.05004 9.12342 4.09994 9.15705 4.14153 9.18815C4.60727 8.76977 4.57184 8.06356 4.51832 7.71172C4.40622 7.71498 4.23735 7.71823 4.05257 7.71823C3.99074 7.71823 3.92746 7.71787 3.86346 7.71678C3.57707 7.71281 3.37493 7.70051 3.23029 7.68315C3.23174 7.72365 3.22631 7.76451 3.21221 7.80248C3.1775 7.89795 3.09794 7.97461 3.00176 8.00643C2.99778 8.0679 3.00031 8.12322 3.01188 8.16589C3.06576 8.36441 3.27404 8.6461 3.55067 8.83522C3.49137 8.9625 3.41977 9.14511 3.44834 9.23768L3.4487 9.23805Z" fill="#100E21"/>
</svg>
