<svg width="32" height="32" viewBox="0 0 32 32" fill="none" xmlns="http://www.w3.org/2000/svg">
<path d="M24.4852 7.51481C22.2189 5.24809 19.2052 4 16 4C12.7948 4 9.78107 5.24809 7.51481 7.51481C5.24809 9.78107 4 12.7948 4 16C4 19.2052 5.24809 22.2189 7.51481 24.4852C9.78107 26.7519 12.7948 28 16 28C19.2052 28 22.2189 26.7519 24.4852 24.4852C26.7519 22.2185 28 19.2052 28 16C28 12.7948 26.7519 9.78107 24.4852 7.51481ZM27.4504 16C27.4504 19.0586 26.2595 21.934 24.0968 24.0968C21.934 26.2595 19.0586 27.4504 16 27.4504C12.9414 27.4504 10.066 26.2595 7.90321 24.0968C5.74046 21.934 4.54962 19.0586 4.54962 16C4.54962 12.9414 5.74046 10.066 7.90321 7.90321C10.066 5.74046 12.9414 4.54962 16 4.54962C19.0586 4.54962 21.934 5.74046 24.0968 7.90321C26.2595 10.066 27.4504 12.9414 27.4504 16Z" fill="#100E21"/>
<path d="M24.0084 11.3631C23.9402 11.075 23.6882 10.851 23.26 10.6971C22.933 10.5798 22.5725 10.5285 22.3866 10.5084C21.8933 10.4548 21.3643 10.5093 20.8142 10.6701C19.7154 10.9911 18.6368 11.6598 17.4198 12.7756C17.3759 12.8159 17.2779 12.9258 17.0594 13.1708C16.8267 13.4324 16.4063 13.9046 16.1873 14.1194C16.0715 14.031 15.8873 13.9 15.5649 13.676C15.2063 13.4269 14.7931 13.1475 14.7308 13.1122C13.42 12.3597 12.2008 12.0423 11.1075 12.1678C10.4173 12.247 9.74947 12.5342 9.17695 12.9982C9.13298 13.0339 8.73863 13.3559 8.39603 13.7328C7.96962 14.2018 7.8116 14.5463 7.89954 14.8169C7.93069 14.9136 7.99206 14.9841 8.0287 15.0258C8.73679 15.8397 9.48473 16.4063 10.2524 16.7099C10.7182 16.894 11.216 16.9875 11.7313 16.9875C12.5223 16.9875 13.3554 16.7612 14.1405 16.3334C14.8426 15.951 15.5328 15.4192 16.2496 14.7089C16.6499 14.8197 17.1221 14.9461 17.6227 15.0597C17.6901 15.0936 17.7615 15.1243 17.8357 15.1499C18.1014 15.2429 18.4206 15.2869 18.755 15.2763C18.7994 15.2832 18.8438 15.2896 18.8882 15.296L19.4227 15.4298C19.4282 15.4311 19.4337 15.4316 19.4392 15.4316H21.2511C21.2585 15.4316 21.2658 15.4302 21.2727 15.4279L22.5638 14.9974C22.5702 14.9951 22.5766 14.9919 22.5826 14.9878L22.8602 14.7867C22.9463 14.7313 23.0301 14.6708 23.1061 14.609L23.5078 14.3182C23.5179 14.3108 23.5261 14.3008 23.5307 14.2893L23.6452 14.0173C23.724 13.8982 23.794 13.7713 23.8536 13.6389C23.9337 13.4621 23.9974 13.2707 24.0427 13.0705L24.2237 12.6395C24.2342 12.6148 24.2292 12.5864 24.2108 12.5667L24.1215 12.4692C24.1362 12.1119 24.0986 11.7395 24.0093 11.3626L24.0084 11.3631ZM19.3696 14.2847C19.3192 14.2701 19.2711 14.2412 19.2322 14.2064C19.0563 14.0479 19.0687 13.7644 19.2789 13.6408C19.3582 13.594 19.4823 13.5679 19.5675 13.6169C19.6769 13.6069 19.7479 13.6957 19.7319 13.8047C19.7264 13.8437 19.7205 13.8826 19.715 13.9211C19.7699 13.9202 19.8295 13.9495 19.8519 13.9962C19.8867 14.069 19.9082 14.1455 19.9156 14.2224C19.9289 14.3608 19.8959 14.5005 19.8093 14.6195C19.7672 14.6777 19.6944 14.6947 19.633 14.68C19.5652 14.6786 19.5006 14.6443 19.458 14.5856C19.4328 14.5508 19.414 14.505 19.404 14.4569C19.3925 14.402 19.3925 14.3438 19.409 14.2953C19.393 14.2916 19.376 14.2861 19.3701 14.2843L19.3696 14.2847ZM23.6296 12.1188C22.8427 11.7157 21.1559 11.3713 18.1518 12.9762C17.9809 13.0398 17.8256 13.115 17.6878 13.202C17.7189 13.1681 17.7414 13.1438 17.7501 13.136C18.9102 12.073 19.9275 11.4386 20.9516 11.1395C21.3208 11.0319 21.6762 10.9774 22.0133 10.9774C22.1223 10.9774 22.2295 10.9829 22.3344 10.9943C23.0992 11.0772 23.4922 11.3021 23.5334 11.4762C23.5847 11.6928 23.6173 11.909 23.6301 12.1192L23.6296 12.1188ZM20.2747 14.8366C20.3168 14.8096 20.3566 14.7817 20.3951 14.7533C20.7849 14.4611 20.9681 14.096 20.9108 13.726C20.8536 13.3559 20.5682 13.0637 20.1084 12.9029C20.0992 12.8997 20.0901 12.8969 20.0805 12.8942C20.075 12.8928 20.0695 12.891 20.0644 12.8892C20.0466 12.8832 20.0264 12.885 20.0099 12.8947C19.9934 12.9038 19.9811 12.9198 19.9765 12.9382L19.9252 13.1447C19.9197 13.1672 19.9087 13.1827 19.8922 13.1914C19.8579 13.2093 19.8043 13.1956 19.7795 13.1621C19.7663 13.1438 19.7626 13.1227 19.7685 13.0976L19.8176 12.8992C19.8208 12.886 19.8198 12.8722 19.8157 12.8594C19.8258 12.8502 19.8327 12.8383 19.8363 12.825L19.846 12.7866C19.8528 12.7582 19.8679 12.7412 19.8918 12.7343C19.922 12.7256 19.9609 12.7366 19.9843 12.7595C20.0031 12.7779 20.0305 12.7843 20.0553 12.7756C20.8371 12.4989 21.5493 12.367 22.1736 12.3835C22.8835 12.4023 23.3154 12.6093 23.5302 12.7508L23.0383 13.9224L22.2986 14.4579L21.165 14.8357H20.2747V14.8366ZM17.1446 14.3576C17.1318 14.369 17.1153 14.3754 17.0988 14.3754C17.0933 14.3754 17.0878 14.375 17.0823 14.3736L16.9774 14.3475C16.9508 14.3411 16.9307 14.3191 16.9261 14.2921C16.9215 14.265 16.9334 14.238 16.9563 14.2234C16.9834 14.2055 17.0108 14.1881 17.0379 14.1702L17.0539 14.1597C17.075 14.1464 17.1015 14.145 17.1231 14.1565C17.145 14.1679 17.1592 14.1904 17.1597 14.2156C17.1606 14.2435 17.1629 14.271 17.1666 14.2971C17.1698 14.3195 17.1615 14.3424 17.1446 14.3576ZM15.8104 14.456C15.6936 14.5692 15.5763 14.6791 15.4595 14.7835C15.4522 14.5769 15.3794 14.3786 15.2452 14.1982C15.4797 14.2934 15.6721 14.385 15.8108 14.4556L15.8104 14.456ZM14.4803 13.5313C14.2238 13.4626 13.9673 13.409 13.7136 13.3705C12.8507 13.2395 12.0285 13.2872 11.2705 13.513C10.3408 13.7896 9.50855 14.3342 8.79634 15.1321C8.65985 14.9974 8.52565 14.854 8.39603 14.7052C8.38916 14.6974 8.37038 14.6754 8.36305 14.6644C8.35893 14.6209 8.42122 14.4295 8.75649 14.0612C9.07572 13.7104 9.4426 13.4108 9.48382 13.3779C9.98443 12.9725 10.5652 12.722 11.1629 12.6533C12.1467 12.5401 13.2675 12.8374 14.4798 13.5318L14.4803 13.5313ZM11.3768 13.8863C11.6402 13.8075 11.9145 13.7521 12.1962 13.72C11.6965 13.976 11.3919 14.3795 11.3919 14.8169C11.3919 15.5118 12.1568 16.0879 13.1466 16.18C12.5658 16.3792 11.9979 16.4576 11.4537 16.4131C10.2235 16.3128 9.4284 15.5947 9.15908 15.3102C9.80489 14.6118 10.5505 14.1327 11.3768 13.8858V13.8863ZM13.8432 14.3305C13.8482 14.2527 13.9087 14.1762 13.9934 14.1803C14.1679 14.1885 14.3424 14.1968 14.5174 14.2055C14.7102 14.2147 14.7111 14.5156 14.5174 14.5064C14.3896 14.5005 14.2614 14.494 14.1336 14.4881C14.1221 14.6557 14.1111 14.8234 14.0997 14.991C14.0869 15.1834 13.786 15.1843 13.7988 14.991L13.8432 14.3314V14.3305ZM14.5348 14.6951C14.576 14.6736 14.6214 14.6644 14.6663 14.6672C14.6782 14.6658 14.6905 14.6653 14.7024 14.6658C14.8014 14.6708 14.876 14.7441 14.8911 14.8343C14.9182 14.9118 14.9058 14.9997 14.8467 15.0643C14.7908 15.1261 14.7052 15.1531 14.6255 15.1366C14.5289 15.1348 14.4363 15.0684 14.4102 14.9695C14.3814 14.86 14.435 14.7469 14.5344 14.6951H14.5348Z" fill="#100E21"/>
<path d="M22.2024 15.3409C21.826 15.4202 21.4563 15.629 21.073 15.9789C21.0258 16.022 20.9786 16.0664 20.9305 16.1122C20.7414 16.2918 20.5632 16.4612 20.3562 16.545C20.3392 16.5519 20.3223 16.5579 20.3053 16.5638C20.134 16.6202 19.9307 16.6169 19.7342 16.6142L17.1116 16.5753C16.7182 16.5693 16.3119 16.5634 15.9061 16.6554C15.2951 16.7937 14.7757 17.1345 14.2733 17.4638C14.1611 17.5376 14.0447 17.6136 13.9307 17.685C13.0513 18.2374 12.3194 18.2319 11.3814 18.1632C11.2082 18.1504 11.0292 18.1376 10.8798 18.0803C10.802 18.0505 10.7241 18.0056 10.6398 17.9576C10.5739 17.9195 10.5052 17.8806 10.4314 17.8453C9.96427 17.6246 9.39313 17.642 8.94061 17.8911C8.48809 18.1403 8.16748 18.6139 8.10473 19.1264C8.05298 19.5492 8.16885 19.9788 8.44 20.3699C8.68275 20.7194 9.03496 21.0116 9.4316 21.1921C10.0536 21.4747 10.7104 21.5108 11.2128 21.5108C11.4569 21.5108 11.7015 21.5012 11.9374 21.4921L12.0716 21.487C12.2608 21.4797 12.4751 21.4719 12.684 21.4037C12.8324 21.3551 12.9597 21.2832 13.0824 21.2136C13.4241 21.0208 13.7768 20.8307 14.118 20.6466C14.5453 20.4166 14.9873 20.1785 15.4147 19.9307C15.5814 19.834 15.7522 19.7269 15.9029 19.6325C16.3971 19.3234 16.9078 19.0037 17.4707 18.8864C17.8128 18.8154 18.1664 18.8191 18.5443 18.8237C18.706 18.8255 18.8892 18.8278 19.0673 18.8218C19.1626 18.8186 19.2592 18.8136 19.3527 18.8085C19.7264 18.7879 20.0795 18.7687 20.3942 18.8809C20.4327 18.8947 20.4721 18.9107 20.5151 18.9285C20.6511 18.9844 20.805 19.0476 20.9887 19.049C21.1573 19.049 21.3079 18.9931 21.4362 18.9405C21.8905 18.7545 22.3229 18.5159 22.7223 18.231C23.0182 18.0198 23.4368 17.6837 23.6585 17.2032C23.8925 16.6962 23.8366 16.1063 23.5197 15.7353C23.2243 15.3895 22.7067 15.2347 22.2015 15.3409H22.2024ZM17.1052 17.0635L19.7273 17.1024C19.9527 17.1056 20.2082 17.1098 20.4579 17.0278C20.4853 17.0186 20.5128 17.0085 20.5394 16.998C20.8321 16.8794 21.0528 16.6701 21.2676 16.4663C21.3116 16.4241 21.3574 16.3811 21.4023 16.3403C21.7197 16.0504 22.0142 15.8805 22.3032 15.8195C22.6362 15.7495 22.9687 15.8415 23.1496 16.0536C23.3122 16.2437 23.3956 16.6101 23.216 16.9994C23.0434 17.3745 22.6902 17.6553 22.4397 17.8339C22.071 18.0973 21.6711 18.3176 21.2521 18.4889C21.1627 18.5255 21.0693 18.5608 20.9878 18.5608C20.9035 18.5603 20.8055 18.52 20.7015 18.4769C20.6562 18.4582 20.609 18.4389 20.5595 18.4211C20.1524 18.2759 19.7328 18.2988 19.327 18.3208C19.2414 18.3253 19.1443 18.3308 19.0527 18.334C18.8878 18.3395 18.7165 18.3373 18.5493 18.3354C18.1646 18.3313 17.767 18.3267 17.3722 18.4082C16.7237 18.5429 16.175 18.8864 15.6437 19.2189C15.4884 19.316 15.3281 19.4163 15.1705 19.5079C14.7487 19.7525 14.3108 19.9884 13.8844 20.2179C13.5418 20.4024 13.1878 20.593 12.8424 20.7881C12.7357 20.8485 12.6345 20.9053 12.5328 20.9388C12.389 20.986 12.2186 20.9924 12.0533 20.9983L11.9177 21.0034C11.1395 21.0336 10.3344 21.0647 9.63405 20.7464C9.05237 20.4817 8.50641 19.8606 8.58977 19.185C8.6342 18.825 8.85863 18.493 9.17649 18.318C9.34321 18.2264 9.53557 18.1779 9.73252 18.1779C9.90382 18.1779 10.0737 18.2154 10.2231 18.286C10.2798 18.313 10.3371 18.3455 10.3989 18.3808C10.4942 18.4353 10.5927 18.4916 10.7063 18.5351C10.9224 18.618 11.1482 18.6345 11.347 18.6492C12.345 18.7224 13.1882 18.7279 14.1918 18.0973C14.3099 18.0231 14.4281 17.9456 14.5421 17.8705C15.0084 17.565 15.4902 17.249 16.0151 17.1299C16.3637 17.0511 16.7406 17.0566 17.1052 17.0617V17.0635Z" fill="#100E21"/>
<path d="M13.9788 18.7133C13.4118 19.0032 12.826 19.3032 12.2076 19.4846C11.6603 19.6453 11.194 19.6911 10.7818 19.6247C10.3289 19.5515 9.85344 19.2652 9.81313 18.7902C9.80076 18.6487 9.67527 18.5745 9.56076 18.5841C9.44168 18.5942 9.36519 18.684 9.37573 18.8021C9.41557 19.267 9.72336 19.6861 10.1791 19.8963C10.4571 20.0246 10.775 20.0882 11.1418 20.0882C11.3053 20.0882 11.4789 20.0754 11.6631 20.0502C12.5589 19.927 13.3747 19.5116 14.1634 19.1099L14.249 19.0664C15.0473 18.6602 15.8722 18.2402 16.769 18.1586C17.0947 18.1293 17.4295 18.1321 17.7533 18.1353C17.9956 18.1376 18.2461 18.1398 18.4925 18.1284C19.0678 18.1023 19.6513 18.0363 20.2266 17.9324C20.9745 17.7973 22.7264 17.4817 22.8231 16.0678C22.8322 15.9345 22.7333 15.8576 22.6307 15.8502C22.5189 15.8424 22.3948 15.913 22.3847 16.0582C22.3595 16.4273 22.1049 16.7901 21.7041 17.0282C21.2731 17.2843 20.7492 17.386 20.2875 17.4757C19.7589 17.5783 19.2176 17.647 18.6785 17.6795C18.3716 17.6983 18.0592 17.6969 17.7569 17.6965C17.5243 17.696 17.2834 17.6951 17.0456 17.7034C16.0811 17.7363 15.2282 18.094 14.5215 18.4398C14.3402 18.5287 14.1565 18.6221 13.9797 18.7128L13.9788 18.7133Z" fill="#100E21"/>
</svg>
