<svg width="32" height="32" viewBox="0 0 32 32" fill="none" xmlns="http://www.w3.org/2000/svg">
<path d="M28.8756 22.5008C28.1256 21.9887 27.4402 21.6578 26.838 21.4453C27.4921 19.9746 27.8563 18.3463 27.8563 16.6318C27.8563 13.5494 26.6803 10.7432 24.7524 8.63509C24.2795 7.16049 23.6793 5.73191 22.9233 4.60198C22.6972 4.26319 22.3339 4.0468 21.9276 4.00665C21.5232 3.96749 21.1256 4.10946 20.8397 4.39733C20.6928 4.54518 20.3991 4.8732 20.0025 5.4695C18.7522 5.02105 17.4058 4.77626 16.0008 4.77626C14.5957 4.77626 13.3169 5.0093 12.093 5.43621C11.7082 4.86047 11.4223 4.54225 11.2783 4.39733C10.9924 4.10946 10.5959 3.96651 10.1905 4.00665C9.78415 4.04582 9.42088 4.26319 9.1947 4.60198C8.47111 5.68394 7.89145 7.0381 7.42831 8.44416C5.3956 10.5728 4.14621 13.4564 4.14621 16.6318C4.14621 18.3453 4.51045 19.9746 5.16452 21.4453C4.56234 21.6568 3.87694 21.9877 3.12691 22.4998C2.99375 22.5899 2.96046 22.7711 3.05054 22.9042C3.10733 22.9865 3.19839 23.0315 3.29043 23.0315C3.34722 23.0315 3.40401 23.0149 3.45395 22.9806C4.18341 22.4822 4.84434 22.1708 5.41616 21.978C5.63647 22.4127 5.88224 22.8318 6.1515 23.2342C5.60612 23.6053 5.04409 24.1203 4.58584 24.8302C4.4987 24.9653 4.53787 25.1455 4.67201 25.2326C4.72097 25.264 4.7758 25.2796 4.82965 25.2796C4.92463 25.2796 5.01863 25.2326 5.07444 25.1465C5.48372 24.512 5.99484 24.0489 6.49029 23.714C8.65127 26.6123 12.1067 28.4893 15.9998 28.4893C19.8929 28.4893 23.3493 26.6113 25.5103 23.713C26.0047 24.0479 26.5149 24.511 26.9251 25.1475C26.9809 25.2336 27.074 25.2806 27.1699 25.2806C27.2238 25.2806 27.2786 25.2659 27.3276 25.2336C27.4627 25.1465 27.5019 24.9663 27.4137 24.8312C26.9555 24.1213 26.3935 23.6063 25.8481 23.2352C26.1183 22.8337 26.3631 22.4137 26.5834 21.9799C27.1552 22.1728 27.8171 22.4852 28.5456 22.9826C28.5956 23.0168 28.6523 23.0335 28.7091 23.0335C28.8022 23.0335 28.8932 22.9894 28.949 22.9062C29.0401 22.774 29.0058 22.5929 28.8727 22.5018L28.8756 22.5008ZM8.44369 7.4983C8.80793 6.56419 9.23191 5.69079 9.72344 4.95545C9.9741 4.58043 10.5097 4.52658 10.8269 4.84676C11.0179 5.03868 11.2392 5.31186 11.4839 5.66827C11.8991 6.27338 12.3799 7.11741 12.889 8.20916C12.8313 8.96311 12.7588 9.84924 12.8176 10.6952C12.0646 8.66838 11.2441 6.80898 10.7897 6.35269C10.5831 6.14511 10.2365 6.18036 10.074 6.42319C8.38005 8.95625 7.91985 14.0361 7.91887 14.0498C11.2793 11.8545 12.5199 11.3043 12.8665 11.175C13.0222 12.2961 13.4716 13.2841 14.5839 13.7051L16.224 13.5054C14.0023 12.5938 13.0183 10.048 12.8969 8.22874C12.8949 8.20231 12.8939 8.17587 12.892 8.15041C12.8802 7.92325 12.8802 7.70784 12.8949 7.50907C13.2024 8.21406 13.5911 9.38414 14.3333 9.99121C14.4586 10.094 14.5947 10.1802 14.7426 10.2458C14.8522 10.2947 14.9687 10.332 15.0921 10.3555C15.2547 10.3868 15.4289 10.3946 15.6179 10.3721C15.568 10.3134 15.522 10.2536 15.4779 10.1929C14.8248 9.30189 14.7768 8.30512 14.7856 7.25155C14.7876 6.98522 14.7935 6.71596 14.7945 6.44375C14.8493 8.25616 16.5608 8.80742 17.9111 9.65732C18.0991 9.7758 18.2792 9.89917 18.4467 10.0333C19.2261 8.04956 19.9879 6.61511 20.6067 5.7045C20.8613 5.33046 21.0914 5.04357 21.2882 4.84578C21.6064 4.5256 22.141 4.57945 22.3917 4.95447C22.9087 5.72702 23.3503 6.65329 23.7272 7.64125C25.2606 11.6616 25.7169 16.7209 25.7169 16.7209L25.6836 16.6954C25.9127 17.3681 26.038 18.076 26.038 18.8065C26.038 19.6192 25.8853 20.4025 25.6043 21.1408C24.7514 21.0252 24.2393 21.1633 24.1992 21.1751C24.0455 21.2191 23.9564 21.3787 23.9994 21.5324C24.0425 21.6862 24.2031 21.7763 24.3568 21.7341C24.3647 21.7322 24.7289 21.6392 25.3605 21.7028C25.1999 22.0328 25.0129 22.353 24.8014 22.6594C24.2197 22.4107 23.7919 22.3305 23.7517 22.3236C23.595 22.2962 23.4433 22.4009 23.4149 22.5596C23.3875 22.7172 23.4922 22.868 23.6509 22.8964C23.6587 22.8974 23.9808 22.9581 24.441 23.1431C23.5275 24.2731 22.2673 25.2072 20.781 25.8476C19.3749 26.4536 17.7671 26.7983 16.0566 26.7983C14.346 26.7983 12.7353 26.4527 11.3273 25.8456C9.82821 25.1984 8.56021 24.2535 7.64471 23.1089C8.05399 22.9512 8.33501 22.8974 8.34578 22.8954C8.50342 22.867 8.60917 22.7162 8.58175 22.5586C8.55434 22.4 8.40257 22.2952 8.24492 22.3226C8.20674 22.3295 7.81997 22.4009 7.28536 22.6213C7.08267 22.3226 6.90251 22.0122 6.74683 21.692C7.30886 21.649 7.631 21.7312 7.63981 21.7341C7.79452 21.7772 7.95412 21.6881 7.99818 21.5344C8.04224 21.3797 7.95314 21.2191 7.79843 21.1751C7.76025 21.1643 7.29025 21.038 6.504 21.1271C6.22592 20.3927 6.07513 19.6133 6.07513 18.8065C6.07513 18.0751 6.20046 17.3681 6.42958 16.6945L6.39629 16.7199C6.39629 16.7199 6.86334 11.5383 8.44173 7.49536L8.44369 7.4983Z" fill="#100E21"/>
<path d="M10.8113 21.0125C12.4611 21.0125 13.83 19.6701 13.8623 18.0193V17.7823L8.18029 16.3949L8.07552 16.6054C7.86403 17.0323 7.7573 17.4866 7.7573 17.9576C7.7573 19.6417 9.12713 21.0115 10.8113 21.0115V21.0125ZM8.50831 17.0803L9.28771 17.2702C9.17413 17.5072 9.09482 17.7784 9.09482 18.0388C9.09482 19.0317 9.89968 19.8366 10.8925 19.8366C11.8854 19.8366 12.654 19.065 12.6863 18.1005L13.2601 18.2405C13.1191 19.4645 12.0656 20.425 10.8122 20.425C9.45221 20.425 8.34577 19.3186 8.34577 17.9586C8.34577 17.656 8.4006 17.3623 8.50929 17.0803H8.50831Z" fill="#100E21"/>
<path d="M20.9983 21.0125C22.6825 21.0125 24.0523 19.6427 24.0523 17.9586C24.0523 17.4876 23.9456 17.0323 23.7341 16.6064L23.6293 16.3958L17.9473 17.7833V18.0202C17.9796 19.6701 19.3485 21.0135 20.9983 21.0135V21.0125ZM19.1233 18.0996C19.1556 19.064 19.9458 19.8356 20.9171 19.8356C21.8884 19.8356 22.7148 19.0307 22.7148 18.0379C22.7148 17.7764 22.6433 17.5042 22.5346 17.2663L23.3013 17.0793C23.41 17.3613 23.4648 17.655 23.4648 17.9576C23.4648 19.3176 22.3584 20.4241 20.9983 20.4241C19.745 20.4241 18.6915 19.4635 18.5505 18.2396L19.1233 18.0996Z" fill="#100E21"/>
<path d="M13.8094 22.7955C14.1668 23.1265 15.0079 23.5446 15.7834 22.9405C16.0703 23.1637 16.366 23.2469 16.6431 23.2469C17.115 23.2469 17.5331 23.0041 17.7583 22.7955C17.8758 22.6869 17.8827 22.5038 17.775 22.3863C17.6663 22.2678 17.4832 22.2599 17.3647 22.3677C17.2923 22.4333 16.6392 22.9914 16.0233 22.3765C15.9685 22.3216 15.895 22.2913 15.8177 22.2913H15.7511C15.6737 22.2913 15.6003 22.3216 15.5455 22.3765C14.9296 22.9923 14.2765 22.4333 14.205 22.3686C14.0875 22.259 13.9034 22.2668 13.7938 22.3843C13.6851 22.5018 13.6919 22.6859 13.8094 22.7955Z" fill="#100E21"/>
<path d="M15.7619 22.211C16.2307 22.211 16.6108 22.0299 16.6108 21.8066C16.6108 21.5833 16.2307 21.4022 15.7619 21.4022C15.293 21.4022 14.9129 21.5833 14.9129 21.8066C14.9129 22.0299 15.293 22.211 15.7619 22.211Z" fill="#100E21"/>
<path d="M24.2941 14.0508C24.2941 14.0508 23.8477 9.09921 22.2076 6.52992C22.1851 6.49467 22.1616 6.45845 22.139 6.42418C22.0343 6.26751 21.8522 6.19799 21.6808 6.22345C21.5868 6.23814 21.4967 6.28024 21.4233 6.35368C20.9494 6.82954 20.0319 8.83288 19.2506 10.9606C19.2878 11.0301 19.3201 11.1035 19.3504 11.1779C19.8214 11.3101 21.3332 11.8653 24.2941 14.0508Z" fill="#100E21"/>
</svg>
