<svg width="32" height="32" viewBox="0 0 32 32" fill="none" xmlns="http://www.w3.org/2000/svg">
<g clip-path="url(#clip0_14366_314)">
<path d="M10.8719 16.0013C10.9086 15.8227 11.0918 15.6886 11.0329 15.4797C11.1952 15.4469 11.275 15.3352 11.3588 15.1972C12.1584 13.8583 12.9633 12.5221 13.7747 11.1897C14.6161 9.80881 15.4655 8.43444 16.3606 6.97729C17.1328 8.23735 17.8447 9.41989 18.5776 10.588C19.5748 12.1791 20.4765 13.8307 21.5588 15.3694C21.5614 15.5967 21.763 15.6978 21.8677 15.8608C21.5588 16.1341 21.2905 15.8818 21.0353 15.7688C19.6324 15.1486 18.2347 14.5166 16.8436 13.8702C16.5465 13.7322 16.307 13.7217 15.9955 13.8662C14.6057 14.514 13.1988 15.1276 11.7972 15.7504C11.5027 15.8818 11.2161 16.0473 10.8733 16.0013H10.8719Z" fill="#110F23"/>
<path d="M28.7043 13.2184C28.5355 12.4511 27.779 9.34103 25.0883 6.72237C22.3401 4.04853 18.1417 2.44291 13.857 3.17871C8.54763 4.09189 3.75386 8.47646 3.08511 14.4404C2.46086 19.9983 5.33346 25.2842 10.2804 27.6821C15.2652 30.0985 21.1871 29.1393 25.1263 25.2422C26.0908 24.287 26.8813 23.2332 27.4924 22.0809C27.8327 21.4384 28.4334 20.1744 28.7632 18.4636C28.9804 17.3323 29.1911 15.4324 28.7056 13.2171L28.7043 13.2184ZM9.55141 15.5309C10.2476 14.3852 10.9478 13.2408 11.6532 12.1003C12.9305 10.0348 14.2156 7.97454 15.4903 5.90773C16.2938 4.60563 16.3213 4.59118 17.0922 5.84335C18.9924 8.93108 20.8782 12.0267 22.7601 15.1249C22.8609 15.2905 23.1318 15.4863 22.9342 15.6794C22.7719 15.8384 22.539 15.6163 22.3374 15.5625C22.0783 15.4928 21.8728 15.209 21.5575 15.3667C21.5601 15.594 21.7616 15.6952 21.8663 15.8581C22.2236 15.9199 22.7955 15.9133 22.8452 16.184C22.8858 16.4073 22.323 16.6741 22.0508 16.8015C20.3417 17.5991 17.1825 18.9498 16.1865 19.3742C16.0831 19.3006 15.9313 19.1942 15.7442 19.0693C14.6907 18.3651 12.0235 16.9066 11.1886 16.4205C11.025 16.3259 10.8313 16.2654 10.7345 16.0788C10.7279 16.0657 10.741 16.0289 10.7515 16.025C10.7894 16.0118 10.83 16.0079 10.8693 16C10.9059 15.8213 11.0891 15.6873 11.0302 15.4784C10.6481 15.6742 10.2738 15.891 9.83932 15.954C9.69406 15.975 9.51084 16.0539 9.43886 15.8818C9.40222 15.7937 9.48467 15.6347 9.54748 15.5296L9.55141 15.5309ZM22.5272 19.0391C20.6126 21.6998 18.6888 24.354 16.7925 27.0278C16.4653 27.489 16.3096 27.4851 15.9811 27.0252C13.8898 24.0886 11.771 21.1729 9.66788 18.2455C9.57628 18.1181 9.414 18.009 9.44802 17.7856C10.3864 18.1378 11.1048 18.9025 12.0955 19.1153L10.9818 17.5097C10.9295 17.4585 10.8771 17.4059 10.8261 17.3547C10.9269 17.2916 11.008 17.3034 11.0643 17.4151C12.636 18.3165 14.2169 19.2021 15.773 20.1284C16.2284 20.399 16.5726 20.4371 17.049 20.1402C18.3878 19.3059 19.7645 18.5346 21.1282 17.7423C21.3232 17.6293 21.5313 17.5373 21.81 17.398C21.5038 18.0852 20.9437 18.4794 20.75 19.1061C21.335 19.0838 21.721 18.6476 22.1987 18.4006C22.2301 18.3835 22.2628 18.369 22.2956 18.3533C22.6293 18.2048 22.9342 17.9906 23.3491 17.8829C23.0755 18.2679 22.8033 18.6541 22.5272 19.0378V19.0391Z" fill="#110F23"/>
<path d="M20.7512 19.1074L20.797 19.1048C20.7852 19.093 20.7735 19.0852 20.7617 19.0786C20.7591 19.0878 20.7551 19.0969 20.7512 19.1074Z" fill="#110F23"/>
<path d="M21.1282 17.7437C19.7645 18.536 18.3864 19.3073 17.0489 20.1416C16.5739 20.4386 16.2284 20.4005 15.7729 20.1298C14.2169 19.2035 12.636 18.3179 11.0642 17.4165C11.008 17.3049 10.9268 17.2917 10.826 17.3561C10.8784 17.4073 10.9307 17.4599 10.9818 17.5111L12.0955 19.1168C13.3676 20.8866 14.6396 22.6565 15.9104 24.4263C16.3527 25.0426 16.3488 25.0413 16.7964 24.4263C18.0802 22.6565 19.368 20.8892 20.6531 19.1194C20.6858 19.0734 20.7212 19.0589 20.7604 19.0787C20.9633 18.469 21.509 18.0748 21.81 17.3995C21.5312 17.54 21.3232 17.6307 21.1282 17.7437Z" fill="#110F23"/>
<path d="M20.6531 19.1191C20.695 19.0589 20.7421 19.0511 20.7957 19.1034C20.7643 19.2683 20.7041 19.1558 20.6531 19.1191Z" fill="#110F23"/>
</g>
<defs>
<clipPath id="clip0_14366_314">
<rect width="26" height="26" fill="white" transform="translate(3 3)"/>
</clipPath>
</defs>
</svg>
