<svg width="32" height="32" viewBox="0 0 32 32" fill="none" xmlns="http://www.w3.org/2000/svg">
<path d="M10.4322 10.5733C10.1362 11.0894 10.0152 11.6873 10.0866 12.2764C10.1945 13.1031 10.6539 13.8322 11.2677 14.4607C13.4404 14.3892 15.7705 14.1793 18.2187 13.8337C19.7629 13.6164 21.2823 13.3044 22.7536 13.004C23.0204 12.95 23.2843 12.8946 23.5482 12.8421C24.6885 12.6117 25.5532 12.4863 26.2094 12.4309C25.6844 10.1869 24.4756 8.10316 22.6588 6.51087C22.6121 6.4715 22.5625 6.4365 22.5115 6.40296C19.3911 3.85996 15.107 3.28545 11.4281 4.91857C11.3202 4.91857 11.1948 4.91857 11.0607 4.89233C10.5153 4.90253 9.98166 5.04689 9.50484 5.30936C9.19572 5.49308 8.89971 5.68993 8.60809 5.90136C8.14002 6.24257 7.69966 6.61877 7.28992 7.02705C6.88456 7.43825 6.50836 7.87715 6.16423 8.34084C5.82157 8.81328 5.51682 9.31051 5.24998 9.82961L5.1552 10.0177C5.60285 10.1519 7.25347 9.7392 8.88076 8.97805C9.25259 9.63422 9.78773 10.1825 10.4322 10.5747V10.5733ZM12.0639 6.63189C12.0639 6.63189 12.5524 5.87366 12.2651 5.36331C13.3864 4.93753 14.5763 4.72026 15.7763 4.72172C17.4284 4.72464 19.0542 5.13875 20.5066 5.92761H20.368C17.8221 5.99906 12.7638 7.55927 10.8405 9.96667C10.301 9.64442 9.85188 9.19386 9.53109 8.65288C10.5212 8.18628 11.3888 7.49366 12.0639 6.63044V6.63189Z" fill="#110F23"/>
<path d="M7.23599 14.2361C6.47338 13.1964 5.5008 12.1699 4.69007 11.0982C4.64924 11.2104 4.60987 11.3227 4.57342 11.435C4.38386 11.9993 4.24096 12.5782 4.14764 13.1658C3.95079 14.3761 3.95079 15.6097 4.14764 16.8199C4.24825 17.4076 4.39844 17.9865 4.59529 18.5508C4.77464 19.0961 4.99336 19.6283 5.25 20.1431C5.511 20.6563 5.81138 21.1492 6.14676 21.6187C6.49088 22.0824 6.86562 22.5213 7.27244 22.9325C7.74343 23.4035 8.25523 23.8307 8.80058 24.2098V16.5895C8.37043 15.9042 7.74197 14.9287 7.23599 14.239V14.2361Z" fill="#110F23"/>
<path d="M23.5935 13.0667C21.7825 13.4341 20.0196 13.7403 18.3515 13.978V14.6692C20.005 14.4329 21.7518 14.1282 23.5468 13.7651C26.466 13.1731 27.583 13.2723 27.9956 13.4837V12.8494C27.9679 12.7925 27.5946 12.2559 23.592 13.0681L23.5935 13.0667Z" fill="#110F23"/>
<path d="M23.5935 24.8777C18.159 25.9786 13.261 26.5093 9.0295 26.4554V26.6333C9.0295 26.8272 9.10678 27.0065 9.24822 27.1407C9.38966 27.2734 9.57339 27.3419 9.76732 27.3288C10.4818 27.288 11.6031 27.2165 12.8878 27.1188C14.2847 27.0124 15.9703 26.8637 17.5553 26.6741C17.8192 26.642 18.0802 26.6099 18.3368 26.5764C18.5074 26.5531 18.6766 26.5312 18.8428 26.5064C19.0091 26.4816 19.1724 26.4583 19.3328 26.4335C19.8941 26.3475 20.4176 26.2541 20.8784 26.1564C21.0096 26.1287 21.1394 26.101 21.2677 26.0733C21.3115 26.0646 21.3537 26.0558 21.3975 26.0456C21.4821 26.0281 21.5666 26.0106 21.6483 25.9931C21.6979 25.9829 21.746 25.9727 21.7941 25.9625C21.8685 25.9479 21.9428 25.9319 22.0157 25.9173C22.0682 25.9071 22.1193 25.8969 22.1718 25.8867C22.2403 25.8736 22.3074 25.859 22.3744 25.8459C22.4269 25.8357 22.478 25.8255 22.5305 25.8152C22.5946 25.8021 22.6588 25.7905 22.7215 25.7773C22.774 25.7671 22.825 25.7569 22.8775 25.7482C22.9373 25.7365 22.9985 25.7248 23.0569 25.7146C23.1079 25.7044 23.1589 25.6957 23.21 25.6855C23.2683 25.6753 23.3252 25.6636 23.382 25.6534C23.4331 25.6446 23.4826 25.6359 23.5322 25.6257C23.5876 25.6155 23.6416 25.6067 23.6955 25.5965C23.7451 25.5878 23.7947 25.579 23.8443 25.5703C23.8968 25.5615 23.9478 25.5528 24.0003 25.544C24.0484 25.5353 24.0965 25.528 24.1432 25.5192C24.1928 25.5105 24.2438 25.5032 24.2919 25.4945C24.3386 25.4872 24.3852 25.4799 24.4319 25.4711C24.48 25.4638 24.5267 25.4565 24.5733 25.4493C24.6185 25.442 24.6652 25.4347 24.7089 25.4288C24.7541 25.4215 24.7993 25.4157 24.8446 25.4084C24.8883 25.4026 24.932 25.3953 24.9758 25.3895C25.0195 25.3836 25.0618 25.3778 25.1041 25.372C25.1464 25.3661 25.1901 25.3603 25.231 25.3545C25.2718 25.3486 25.3126 25.3443 25.3534 25.3384C25.3943 25.3326 25.4366 25.3282 25.4759 25.3224C25.5153 25.318 25.5547 25.3122 25.5926 25.3078C25.6319 25.3034 25.6713 25.2976 25.7092 25.2932C25.7471 25.2889 25.7836 25.2845 25.8215 25.2816C25.8594 25.2772 25.8973 25.2728 25.9338 25.2699C25.9702 25.2655 26.0052 25.2626 26.0402 25.2597C26.0752 25.2568 26.1117 25.2524 26.1467 25.2495C26.1831 25.2466 26.2167 25.2437 26.2517 25.2407C26.2837 25.2378 26.3173 25.2349 26.3494 25.232C26.4135 25.2276 26.4762 25.2232 26.536 25.2189C26.5652 25.2174 26.5914 25.2159 26.6191 25.2145C26.6512 25.213 26.6847 25.2101 26.7168 25.2101C26.7445 25.2101 26.7708 25.2087 26.7985 25.2072C26.8276 25.2072 26.8582 25.2043 26.8874 25.2043C26.9137 25.2043 26.9384 25.2043 26.9647 25.2043C26.9924 25.2043 27.0216 25.2043 27.0478 25.2043C27.0726 25.2043 27.0959 25.2043 27.1193 25.2043C27.1455 25.2043 27.1717 25.2043 27.1965 25.2043C27.2199 25.2043 27.2417 25.2057 27.2636 25.2072C27.2884 25.2072 27.3117 25.2087 27.3351 25.2101C27.3569 25.2101 27.3773 25.213 27.3978 25.2145C27.4196 25.2159 27.443 25.2174 27.4648 25.2203C27.4838 25.2218 27.5028 25.2247 27.5217 25.2262C27.5421 25.2291 27.564 25.2305 27.5829 25.2334C27.6004 25.2364 27.6179 25.2378 27.6354 25.2407C27.6544 25.2437 27.6734 25.2466 27.6923 25.2495C27.7083 25.2524 27.7244 25.2553 27.739 25.2582C27.7565 25.2626 27.774 25.2655 27.79 25.2699C27.8046 25.2728 27.8177 25.2772 27.8323 25.2801C27.8483 25.2845 27.8629 25.2889 27.8775 25.2932C27.8906 25.2976 27.9023 25.302 27.9139 25.3049C27.9285 25.3093 27.9416 25.3151 27.9548 25.3209C27.965 25.3253 27.9766 25.3297 27.9869 25.3355C27.9912 25.337 27.9956 25.3399 28 25.3413V24.6604C27.9708 24.6079 27.5538 24.0742 23.5964 24.8762L23.5935 24.8777Z" fill="#110F23"/>
<path d="M23.5935 22.8552C18.159 23.9561 13.261 24.4869 9.0295 24.4315V25.213C13.245 25.2684 18.1283 24.7391 23.5483 23.6412C26.4675 23.0491 27.5844 23.1483 27.9971 23.3597V22.638C27.9679 22.5855 27.5509 22.0532 23.5935 22.8552Z" fill="#110F23"/>
<path d="M23.5949 20.9115C18.1604 22.0124 13.261 22.5432 9.0295 22.4878V23.192C13.245 23.2474 18.1283 22.7181 23.5483 21.6202C26.4675 21.0281 27.5844 21.1273 27.9971 21.3387V20.6899C27.9533 20.6169 27.5027 20.1197 23.5949 20.9115Z" fill="#110F23"/>
<path d="M23.5935 18.9664C21.7825 19.3338 20.0196 19.64 18.3515 19.8777V20.5791C20.0181 20.3414 21.7664 20.0366 23.5483 19.6765C26.4412 19.0903 27.5728 19.1763 27.9956 19.3907V18.7505C27.9665 18.6981 27.5494 18.1658 23.592 18.9678L23.5935 18.9664Z" fill="#110F23"/>
<path d="M23.5935 16.9439C21.7883 17.3099 20.0254 17.6161 18.3515 17.8538V18.6339C20.005 18.3977 21.7533 18.0929 23.5468 17.7298C26.466 17.1378 27.583 17.237 27.9956 17.4484V16.7281C27.9665 16.6756 27.5494 16.1434 23.592 16.9453L23.5935 16.9439Z" fill="#110F23"/>
<path d="M23.5935 15.0002C21.7825 15.3676 20.0196 15.6738 18.3515 15.9101V16.6129C20.005 16.3767 21.7518 16.0719 23.5468 15.7088C26.466 15.1168 27.583 15.216 27.9956 15.4259V14.7829C27.9665 14.7304 27.5494 14.1982 23.592 15.0002H23.5935Z" fill="#110F23"/>
<path d="M27.949 25.5805C27.6909 25.372 26.4354 25.1985 20.9251 26.3781C20.8653 26.3912 20.804 26.4029 20.7428 26.416C20.7253 26.4189 20.7078 26.4233 20.6903 26.4262C20.6422 26.4364 20.5941 26.4452 20.5445 26.4554C20.5285 26.4583 20.5124 26.4612 20.4949 26.4656C20.4308 26.4773 20.3651 26.4904 20.2995 26.5021C20.2922 26.5021 20.2849 26.505 20.2777 26.5064C20.2179 26.5166 20.1581 26.5283 20.0983 26.5385C20.0794 26.5414 20.0604 26.5458 20.0414 26.5487C19.986 26.5589 19.9306 26.5677 19.8752 26.5764C19.8606 26.5793 19.846 26.5808 19.8315 26.5837C19.7615 26.5954 19.69 26.607 19.6186 26.6187C19.6055 26.6202 19.5938 26.6231 19.5807 26.6245C19.5209 26.6347 19.4611 26.6435 19.3999 26.6522C19.3809 26.6552 19.3605 26.6581 19.3401 26.661C19.2774 26.6712 19.2132 26.6799 19.1491 26.6902C19.1388 26.6916 19.1286 26.6931 19.1184 26.6945C19.0441 26.7062 18.9682 26.7164 18.8924 26.7281C18.8764 26.731 18.8589 26.7324 18.8428 26.7354C18.7816 26.7441 18.7204 26.7529 18.6591 26.7616C18.6387 26.7645 18.6183 26.7674 18.5979 26.7704C18.5264 26.7806 18.455 26.7893 18.3835 26.7995C18.3777 26.7995 18.3719 26.801 18.366 26.8024C18.2887 26.8126 18.21 26.8228 18.1313 26.833C18.1109 26.836 18.0919 26.8374 18.0715 26.8403C18.0102 26.8476 17.949 26.8564 17.8878 26.8637C17.8659 26.8666 17.8455 26.8695 17.8236 26.871C17.7449 26.8812 17.6647 26.8899 17.5859 26.9001C17.583 26.9001 17.5801 26.9001 17.5772 26.9001C17.5013 26.9089 17.4241 26.9176 17.3482 26.9278C17.3249 26.9307 17.3016 26.9337 17.2783 26.9366C17.217 26.9439 17.1572 26.9512 17.096 26.957C17.0741 26.9599 17.0537 26.9614 17.0318 26.9643C16.9531 26.973 16.8729 26.9818 16.7941 26.9905C16.7781 26.992 16.7621 26.9934 16.746 26.9964C16.6819 27.0037 16.6177 27.0109 16.5536 27.0168C16.5273 27.0197 16.4996 27.0226 16.4734 27.0255C16.415 27.0314 16.3552 27.0386 16.2969 27.0445C16.275 27.0474 16.2517 27.0489 16.2298 27.0518C16.1526 27.0605 16.0738 27.0678 15.9965 27.0751C15.9732 27.078 15.9513 27.0795 15.928 27.0824C15.8697 27.0882 15.8114 27.0941 15.753 27.0999C15.7253 27.1028 15.6976 27.1057 15.6699 27.1086C15.6101 27.1145 15.5518 27.1203 15.4935 27.1261C15.4716 27.1276 15.4512 27.1305 15.4293 27.132C15.3535 27.1393 15.2777 27.1466 15.2033 27.1538C15.1756 27.1568 15.1494 27.1582 15.1217 27.1611C15.091 27.164 15.0619 27.167 15.0313 27.1699C19.0353 27.2413 22.1674 27.1553 24.3648 26.9132C26.7125 26.6552 27.5538 26.2629 27.8454 25.9786C27.949 25.878 28 25.7774 28 25.6724C28 25.649 27.9942 25.6184 27.9504 25.582L27.949 25.5805Z" fill="#110F23"/>
<path d="M17.0099 20.8284H17.0216C17.5597 20.7511 17.9286 20.7045 18.121 20.6797V14.0786C15.0968 14.5001 12.2505 14.7159 9.66088 14.7173C9.42757 14.7173 9.25114 14.8106 9.13594 14.9958C9.06595 15.1081 9.02804 15.2452 9.02804 15.3924V21.3183C11.4792 21.3504 14.1622 21.1857 17.0099 20.8299V20.8284ZM10.1246 17.0226L9.90439 16.8797L9.7017 17.046L9.76878 16.7908L9.5486 16.6479L9.80961 16.6333L9.87668 16.3781L9.97146 16.6246L10.2325 16.61L10.0298 16.7762L10.1246 17.0226ZM9.87814 17.864L9.94521 17.6088L10.04 17.8552L10.301 17.8407L10.0983 18.0069L10.1931 18.2533L9.97292 18.1104L9.77024 18.2767L9.83731 18.0215L9.61713 17.8786L9.87814 17.864ZM13.8151 18.6864L13.595 18.5435L13.3923 18.7097L13.4593 18.4545L13.2392 18.3116L13.5002 18.2971L13.5672 18.0419L13.662 18.2883L13.923 18.2737L13.7204 18.44L13.8151 18.6864ZM13.7481 17.4543L13.5279 17.3114L13.3252 17.4776L13.3923 17.2224L13.1721 17.0795L13.4331 17.0649L13.5002 16.8098L13.595 17.0562L13.856 17.0416L13.6533 17.2078L13.7481 17.4543ZM13.1794 17.6817L12.9767 17.848L13.0715 18.0944L12.8513 17.9515L12.6486 18.1177L12.7157 17.8625L12.4955 17.7196L12.7565 17.7051L12.8236 17.4499L12.9184 17.6963L13.1794 17.6817ZM13.0029 16.8637L12.7828 16.7208L12.5801 16.887L12.6472 16.6319L12.427 16.489L12.688 16.4744L12.7551 16.2192L12.8498 16.4656L13.1108 16.4511L12.9082 16.6173L13.0029 16.8637ZM12.4838 18.3525L12.2812 18.5187L12.3759 18.7651L12.1558 18.6222L11.9531 18.7885L12.0202 18.5333L11.8 18.3904L12.061 18.3758L12.1281 18.1206L12.2228 18.3671L12.4838 18.3525ZM12.3074 17.5345L12.0872 17.3916L11.8845 17.5578L11.9516 17.3026L11.7314 17.1597L11.9925 17.1451L12.0595 16.89L12.1543 17.1364L12.4153 17.1218L12.2126 17.288L12.3074 17.5345ZM11.7869 18.9941L11.5842 19.1603L11.6789 19.4067L11.4588 19.2638L11.2561 19.43L11.3232 19.1749L11.103 19.032L11.364 19.0174L11.4311 18.7622L11.5258 19.0086L11.7869 18.9941ZM11.6104 18.176L11.3902 18.0331L11.1876 18.1994L11.2546 17.9442L11.0344 17.8013L11.2955 17.7867L11.3625 17.5315L11.4573 17.778L11.7183 17.7634L11.5156 17.9296L11.6104 18.176ZM11.0432 18.4327L10.8405 18.5989L10.9353 18.8453L10.7151 18.7024L10.5124 18.8687L10.5795 18.6135L10.3593 18.4706L10.6203 18.456L10.6874 18.2008L10.7822 18.4473L11.0432 18.4327ZM10.8668 17.6147L10.6466 17.4718L10.4439 17.638L10.511 17.3828L10.2908 17.2399L10.5518 17.2253L10.6189 16.9702L10.7137 17.2166L10.9747 17.202L10.772 17.3682L10.8668 17.6147ZM9.94376 19.0961L10.0108 18.841L10.1056 19.0874L10.3666 19.0728L10.1639 19.239L10.2587 19.4855L10.0385 19.3426L9.83585 19.5088L9.90293 19.2536L9.68275 19.1107L9.94376 19.0961ZM10.3258 20.7176L10.1056 20.5747L9.90293 20.7409L9.97 20.4857L9.74982 20.3428L10.0108 20.3283L10.0779 20.0731L10.1727 20.3195L10.4337 20.3049L10.231 20.4712L10.3258 20.7176ZM11.0024 20.0775L10.7822 19.9346L10.5795 20.1008L10.6466 19.8456L10.4264 19.7027L10.6874 19.6881L10.7545 19.433L10.8493 19.6794L11.1103 19.6648L10.9076 19.831L11.0024 20.0775ZM11.746 20.6403L11.5258 20.4974L11.3232 20.6636L11.3902 20.4085L11.1701 20.2656L11.4311 20.251L11.4981 19.9958L11.5929 20.2422L11.8539 20.2277L11.6512 20.3939L11.746 20.6403ZM12.443 19.9987L12.2228 19.8558L12.0202 20.0221L12.0872 19.7669L11.867 19.624L12.1281 19.6094L12.1951 19.3542L12.2899 19.6006L12.5509 19.5861L12.3482 19.7523L12.443 19.9987ZM12.8236 18.9386L12.8907 18.6835L12.9854 18.9299L13.2465 18.9153L13.0438 19.0815L13.1386 19.328L12.9184 19.1851L12.7157 19.3513L12.7828 19.0961L12.5626 18.9532L12.8236 18.9386ZM13.2056 20.5601L12.9854 20.4172L12.7828 20.5834L12.8498 20.3283L12.6297 20.1854L12.8907 20.1708L12.9577 19.9156L13.0525 20.162L13.3135 20.1475L13.1108 20.3137L13.2056 20.5601ZM13.8822 19.92L13.662 19.7771L13.4593 19.9433L13.5264 19.6881L13.3062 19.5452L13.5672 19.5307L13.6343 19.2755L13.7291 19.5219L13.9901 19.5073L13.7874 19.6736L13.8822 19.92ZM14.499 18.0186L14.2788 17.8757L14.0761 18.0419L14.1432 17.7867L13.923 17.6438L14.184 17.6292L14.2511 17.3741L14.3459 17.6205L14.6069 17.6059L14.4042 17.7721L14.499 18.0186ZM14.2526 18.8599L14.3197 18.6047L14.4144 18.8512L14.6754 18.8366L14.4728 19.0028L14.5675 19.2492L14.3474 19.1063L14.1447 19.2726L14.2117 19.0174L13.9916 18.8745L14.2526 18.8599ZM16.6921 18.5304L16.4719 18.3875L16.2692 18.5537L16.3363 18.2985L16.1161 18.1556L16.3771 18.141L16.4442 17.8859L16.5389 18.1323L16.8 18.1177L16.5973 18.2839L16.6921 18.5304ZM16.625 17.2982L16.4048 17.1553L16.2021 17.3216L16.2692 17.0664L16.049 16.9235L16.31 16.9089L16.3771 16.6537L16.4719 16.9002L16.7329 16.8856L16.5302 17.0518L16.625 17.2982ZM16.1044 18.7578L15.9017 18.9241L15.9965 19.1705L15.7763 19.0276L15.5737 19.1938L15.6407 18.9386L15.4206 18.7958L15.6816 18.7812L15.7486 18.526L15.8434 18.7724L16.1044 18.7578ZM15.928 17.9398L15.7078 17.7969L15.5051 17.9632L15.5722 17.708L15.352 17.5651L15.613 17.5505L15.6801 17.2953L15.7749 17.5417L16.0359 17.5272L15.8332 17.6934L15.928 17.9398ZM15.3608 18.1965L15.1581 18.3627L15.2529 18.6091L15.0327 18.4662L14.83 18.6324L14.8971 18.3773L14.6769 18.2344L14.9379 18.2198L15.005 17.9646L15.0998 18.211L15.3608 18.1965ZM15.1843 17.3784L14.9642 17.2355L14.7615 17.4018L14.8285 17.1466L14.6084 17.0037L14.8694 16.9891L14.9364 16.7339L15.0312 16.9804L15.2922 16.9658L15.0896 17.132L15.1843 17.3784ZM14.6332 20.4828L14.413 20.3399L14.2103 20.5062L14.2774 20.251L14.0572 20.1081L14.3182 20.0935L14.3853 19.8383L14.48 20.0848L14.7411 20.0702L14.5384 20.2364L14.6332 20.4828ZM15.3199 19.8427L15.0998 19.6998L14.8971 19.866L14.9642 19.6109L14.744 19.468L15.005 19.4534L15.0721 19.1982L15.1668 19.4446L15.4278 19.43L15.2252 19.5963L15.3199 19.8427ZM16.0636 20.4055L15.8434 20.2626L15.6407 20.4289L15.7078 20.1737L15.4876 20.0308L15.7486 20.0162L15.8157 19.761L15.9105 20.0075L16.1715 19.9929L15.9688 20.1591L16.0636 20.4055ZM16.7606 19.764L16.5404 19.6211L16.3377 19.7873L16.4048 19.5321L16.1846 19.3892L16.4456 19.3746L16.5127 19.1195L16.6075 19.3659L16.8685 19.3513L16.6658 19.5175L16.7606 19.764ZM17.5232 20.3253L17.303 20.1824L17.1003 20.3487L17.1674 20.0935L16.9472 19.9506L17.2082 19.936L17.2753 19.6808L17.3701 19.9273L17.6311 19.9127L17.4284 20.0789L17.5232 20.3253ZM17.4561 19.0932L17.2359 18.9503L17.0333 19.1165L17.1003 18.8614L16.8802 18.7185L17.1412 18.7039L17.2082 18.4487L17.303 18.6951L17.564 18.6806L17.3613 18.8468L17.4561 19.0932ZM17.389 17.8611L17.1689 17.7182L16.9662 17.8844L17.0333 17.6292L16.8131 17.4863L17.0741 17.4718L17.1412 17.2166L17.2359 17.463L17.497 17.4484L17.2943 17.6147L17.389 17.8611ZM17.322 16.6289L17.1018 16.486L16.8991 16.6523L16.9662 16.3971L16.746 16.2542L17.007 16.2396L17.0741 15.9844L17.1689 16.2309L17.4299 16.2163L17.2272 16.3825L17.322 16.6289ZM16.9399 15.0075L17.007 14.7523L17.1018 14.9987L17.3628 14.9842L17.1601 15.1504L17.2549 15.3968L17.0347 15.2539L16.832 15.4201L16.8991 15.165L16.6789 15.0221L16.9399 15.0075ZM16.2459 15.6782L16.3129 15.4231L16.4077 15.6695L16.6687 15.6549L16.466 15.8211L16.5608 16.0676L16.3406 15.9247L16.138 16.0909L16.205 15.8357L15.9849 15.6928L16.2459 15.6782ZM15.8638 16.7091L15.6436 16.5662L15.441 16.7325L15.508 16.4773L15.2879 16.3344L15.5489 16.3198L15.6159 16.0646L15.7107 16.3111L15.9717 16.2965L15.769 16.4627L15.8638 16.7091ZM15.4818 15.0877L15.5489 14.8325L15.6436 15.0789L15.9047 15.0644L15.702 15.2306L15.7968 15.477L15.5766 15.3341L15.3739 15.5003L15.441 15.2452L15.2208 15.1023L15.4818 15.0877ZM14.8067 15.757L14.8737 15.5018L14.9685 15.7482L15.2295 15.7336L15.0269 15.8999L15.1216 16.1463L14.9015 16.0034L14.6988 16.1696L14.7658 15.9145L14.5457 15.7716L14.8067 15.757ZM14.4334 16.7879L14.2132 16.645L14.0105 16.8112L14.0776 16.556L13.8574 16.4131L14.1184 16.3986L14.1855 16.1434L14.2803 16.3898L14.5413 16.3752L14.3386 16.5415L14.4334 16.7879ZM14.0514 15.1664L14.1184 14.9113L14.2132 15.1577L14.4742 15.1431L14.2715 15.3093L14.3663 15.5558L14.1461 15.4129L13.9434 15.5791L14.0105 15.3239L13.7903 15.181L14.0514 15.1664ZM13.366 15.8357L13.4331 15.5805L13.5279 15.827L13.7889 15.8124L13.5862 15.9786L13.681 16.225L13.4608 16.0821L13.2581 16.2484L13.3252 15.9932L13.105 15.8503L13.366 15.8357ZM12.6209 15.2437L12.688 14.9885L12.7828 15.235L13.0438 15.2204L12.8411 15.3866L12.9359 15.633L12.7157 15.4901L12.513 15.6564L12.5801 15.4012L12.3599 15.2583L12.6209 15.2437ZM11.9268 15.9145L11.9939 15.6593L12.0887 15.9057L12.3497 15.8911L12.147 16.0574L12.2418 16.3038L12.0216 16.1609L11.8189 16.3271L11.886 16.0719L11.6658 15.929L11.9268 15.9145ZM11.5448 16.9454L11.3246 16.8025L11.1219 16.9687L11.189 16.7135L10.9688 16.5706L11.2298 16.556L11.2969 16.3009L11.3917 16.5473L11.6527 16.5327L11.45 16.6989L11.5448 16.9454ZM11.1628 15.3239L11.2298 15.0687L11.3246 15.3152L11.5856 15.3006L11.3829 15.4668L11.4777 15.7132L11.2575 15.5703L11.0549 15.7366L11.1219 15.4814L10.9018 15.3385L11.1628 15.3239ZM10.4876 15.9932L10.5547 15.738L10.6495 15.9844L10.9105 15.9699L10.7078 16.1361L10.8026 16.3825L10.5824 16.2396L10.3797 16.4059L10.4468 16.1507L10.2266 16.0078L10.4876 15.9932ZM9.74253 15.4012L9.80961 15.146L9.90439 15.3924L10.1654 15.3779L9.96271 15.5441L10.0575 15.7905L9.83731 15.6476L9.63463 15.8138L9.7017 15.5587L9.48152 15.4158L9.74253 15.4012Z" fill="#110F23"/>
</svg>
