<svg width="32" height="32" viewBox="0 0 32 32" fill="none" xmlns="http://www.w3.org/2000/svg">
<path d="M18.7502 12.445V9.31751H25.8652V4.38251H6.11516V9.31751H13.2502V12.445C7.27266 12.7325 2.78516 13.9325 2.78516 15.37C2.78516 16.8075 7.26766 18 13.2502 18.295V28.6175H18.7502V18.295C24.7277 18.01 29.2152 16.81 29.2152 15.37C29.2152 13.93 24.7327 12.7325 18.7502 12.445ZM16.0002 17.36C9.52766 17.36 4.28016 16.36 4.28016 15.155C4.28016 14.1175 8.10266 13.2475 13.2452 13.015V16.5475C14.1302 16.5875 15.0502 16.61 15.9952 16.61C16.9402 16.61 17.8652 16.5875 18.7452 16.5475V13.015C23.8877 13.2475 27.7102 14.1175 27.7102 15.155C27.7202 16.3725 22.4727 17.36 16.0002 17.36Z" fill="#110F23"/>
</svg>
