<svg width="32" height="32" viewBox="0 0 32 32" fill="none" xmlns="http://www.w3.org/2000/svg">
<path d="M16 3C8.82055 3 3 8.82055 3 16C3 23.1795 8.82055 29 16 29C23.1795 29 29 23.1795 29 16C29 8.82055 23.1795 3 16 3ZM24.9507 11.415L21.9551 12.9521C22.1146 13.2639 22.2491 13.5869 22.3578 13.9195L25.558 12.8729C25.7216 13.3721 25.8465 13.8885 25.9287 14.408L22.5498 14.9463C22.5137 14.7198 22.4639 14.4938 22.4045 14.2714L19.1555 15.1469C19.0819 14.8727 18.9717 14.6086 18.8285 14.3618L21.7378 12.6713H21.7373C21.622 12.4717 21.4961 12.2772 21.3605 12.0914L24.1235 10.0733C24.4338 10.4979 24.712 10.9488 24.9512 11.4155L24.9507 11.415ZM23.0972 8.87793L18.306 13.6854C18.1029 13.4828 17.8748 13.3086 17.6275 13.1659L19.3363 10.2013C19.5379 10.3171 19.7334 10.444 19.9213 10.5806L21.8972 7.8557C22.3218 8.16344 22.726 8.50723 23.0972 8.87793ZM19.09 6.42926C19.5902 6.59074 20.0813 6.79336 20.5505 7.03152L19.0002 10.0814C18.6909 9.92453 18.3679 9.79098 18.0389 9.68535L19.09 6.42875V6.42926ZM11.4205 7.04676L12.9557 10.0429C13.2675 9.88391 13.5904 9.74934 13.923 9.64066L12.8785 6.43992C13.3777 6.27691 13.8941 6.1525 14.4136 6.06973L14.9504 9.44871C14.7234 9.48477 14.4974 9.53453 14.2745 9.59395L15.1484 12.8429C14.8742 12.9166 14.6101 13.0273 14.3633 13.17L12.6743 10.2602H12.6738C12.4748 10.376 12.2803 10.5014 12.0944 10.637L10.0774 7.87348C10.5019 7.56371 10.9534 7.28543 11.42 7.04625L11.4205 7.04676ZM8.88148 8.89926L13.6874 13.692C13.4848 13.8951 13.3101 14.1231 13.1674 14.3704L10.2033 12.6606H10.2028C10.3196 12.4595 10.4461 12.2645 10.5827 12.0761L7.85824 10.0987C8.16648 9.67418 8.51027 9.27098 8.88098 8.89977L8.88148 8.89926ZM7.03457 11.4439L10.084 12.9963C9.92707 13.3045 9.79352 13.6275 9.68738 13.9571L6.4318 12.9039C6.59328 12.4037 6.79641 11.9126 7.03508 11.4439H7.03457ZM6.06617 14.4405L9.39285 14.9585C9.4284 14.7295 9.47613 14.5014 9.53555 14.277L12.8424 15.157H12.8419C12.7698 15.4297 12.7327 15.7136 12.7327 16.0005H5.94531C5.94531 15.4785 5.98645 14.9534 6.06617 14.4405ZM7.04879 20.585L10.0444 19.0479C9.88492 18.7361 9.75035 18.4131 9.64168 18.0805L6.44145 19.1266C6.27793 18.6274 6.15301 18.111 6.07074 17.5915L9.45023 17.0532C9.48629 17.2797 9.53605 17.5057 9.59547 17.7281L12.8445 16.8526C12.9181 17.1268 13.0283 17.3909 13.1715 17.6377L10.2622 19.3282C10.3775 19.5278 10.5034 19.7223 10.639 19.9081L7.87602 21.9262C7.56574 21.5021 7.28746 21.0507 7.04828 20.584L7.04879 20.585ZM8.90332 23.1221L13.694 18.3146C13.8971 18.5172 14.1252 18.6914 14.3725 18.8341L12.6642 21.7987H12.6637C12.4621 21.6824 12.2671 21.556 12.0792 21.4194L10.1033 24.1443C9.67875 23.8366 9.27453 23.4928 8.90332 23.1221ZM12.91 25.5707C12.4098 25.4093 11.9187 25.2066 11.4495 24.9685L12.9998 21.9186C13.3091 22.0755 13.6321 22.209 13.9611 22.3146L12.91 25.5713V25.5707ZM16.0076 26.0547H15.9995C15.4785 26.0547 14.9559 26.0146 14.4451 25.9354L14.962 22.6087C14.733 22.5726 14.505 22.5254 14.2805 22.466L15.1586 19.1591C15.4312 19.2317 15.7136 19.2683 16 19.2683H16.0081V26.0552L16.0076 26.0547ZM16 12.7322H15.9919V5.94531H16C16.521 5.94531 17.0436 5.98543 17.5544 6.06465L17.0375 9.39133H17.038C17.267 9.42738 17.495 9.47461 17.7195 9.53402L16.8414 12.8414C16.5688 12.7693 16.2859 12.7322 15.9995 12.7322H16ZM20.5795 24.9543L19.0443 21.9582C18.7325 22.1171 18.4096 22.2517 18.077 22.3604L19.1215 25.5611C18.6223 25.7241 18.1059 25.8485 17.5864 25.9313L17.0496 22.5518C17.2766 22.5157 17.5026 22.466 17.7255 22.4066L16.8516 19.1576C17.1258 19.0839 17.3899 18.9732 17.6367 18.8305L19.3257 21.7403H19.3262C19.5252 21.625 19.7197 21.4996 19.9056 21.364L21.9226 24.1275C21.4981 24.4373 21.0466 24.7156 20.58 24.9548L20.5795 24.9543ZM23.1185 23.1012L18.3131 18.308C18.5157 18.1049 18.6904 17.8769 18.8331 17.6296L21.7972 19.3394C21.6804 19.541 21.5539 19.7365 21.4173 19.9244L24.1418 21.9018C23.8335 22.3258 23.4897 22.7295 23.119 23.1007L23.1185 23.1012ZM24.9654 20.5561L21.916 19.0037C22.0729 18.6955 22.2065 18.3725 22.3126 18.0429L25.5682 19.0961C25.4067 19.5963 25.2036 20.0874 24.9649 20.5561H24.9654ZM22.6077 17.0415C22.5721 17.2711 22.5244 17.4986 22.465 17.723L19.1586 16.843C19.2307 16.5703 19.2678 16.2869 19.2678 16.0005H26.0547C26.0547 16.5225 26.0141 17.0476 25.9338 17.5605L22.6077 17.0415Z" fill="#110F23"/>
</svg>
