<svg width="32" height="32" viewBox="0 0 32 32" fill="none" xmlns="http://www.w3.org/2000/svg">
<path d="M19.9422 8.89498H19.5139V11.1457H19.9422V8.89498Z" fill="#110F23"/>
<path d="M18.6088 11.1952C18.978 11.1952 19.2784 10.9603 19.2784 10.671V9.8139H18.8549V10.5874C18.8517 10.6444 18.8326 10.6918 18.8043 10.727C18.7995 10.7328 18.7942 10.7392 18.7889 10.7445C18.7425 10.793 18.676 10.817 18.6099 10.817C18.4922 10.817 18.3744 10.7403 18.3643 10.5869V9.81337H17.9381V10.6705C17.9381 10.9598 18.2386 11.1947 18.6083 11.1947L18.6088 11.1952Z" fill="#110F23"/>
<path d="M12.4097 9.63224C12.4081 9.46284 12.3394 9.30037 12.2174 9.18104C12.2024 9.16612 12.187 9.1528 12.171 9.13949C12.154 9.1267 12.138 9.11445 12.1204 9.10326C12.1028 9.09208 12.0853 9.08089 12.0671 9.07183C12.0496 9.06331 12.032 9.05425 12.0139 9.0468C12.0112 9.04626 12.008 9.04466 12.0043 9.0436C11.9968 9.0404 11.9894 9.03774 11.9814 9.03508C11.9409 9.02123 11.8988 9.01004 11.8551 9.00471C11.8391 9.00205 11.8221 9.00045 11.8056 8.99992C11.7933 8.99938 11.7805 8.99832 11.7688 8.99832H10.9783V11.1451H11.4348V9.36642H11.6708C11.6868 9.36589 11.7033 9.36642 11.7187 9.36855C11.7187 9.36909 11.7193 9.36855 11.7193 9.36909C11.7353 9.37122 11.7507 9.37441 11.7656 9.37921C11.8098 9.39199 11.8498 9.41703 11.8818 9.44846C11.9329 9.4996 11.9659 9.56885 11.967 9.64716C11.9643 9.71641 11.9372 9.77874 11.8951 9.82722C11.8892 9.83414 11.8828 9.84053 11.8764 9.84693C11.8434 9.87836 11.8029 9.90286 11.7587 9.91565C11.7518 9.91778 11.7454 9.91991 11.7379 9.92097C11.7171 9.92577 11.6958 9.92843 11.674 9.92843H11.5589V10.442L12.0128 11.1451H12.5471L11.9164 10.2486C12.2035 10.182 12.407 9.92683 12.4091 9.63224H12.4097ZM11.6708 9.36642C11.674 9.36589 11.6777 9.36589 11.6809 9.36589C11.6937 9.36589 11.7065 9.36749 11.7187 9.36855C11.7033 9.36642 11.6873 9.36589 11.6708 9.36642Z" fill="#110F23"/>
<path d="M14.1016 10.4803C14.1016 10.8671 14.3892 11.184 14.743 11.184C14.907 11.1824 15.0631 11.1153 15.1766 10.9986V11.1499L15.6033 11.1451V8.89498H15.1744V9.95986C15.0604 9.8448 14.9049 9.78034 14.743 9.77928C14.3903 9.77928 14.1016 10.0941 14.1016 10.4809V10.4803ZM15.1798 10.4702C15.1798 10.6609 15.0386 10.8165 14.8644 10.8165C14.6902 10.8165 14.5496 10.662 14.5496 10.4723C14.5496 10.2827 14.6907 10.1255 14.8644 10.1255C15.0381 10.1255 15.1798 10.28 15.1798 10.4702Z" fill="#110F23"/>
<path d="M13.2066 9.75796C12.8183 9.76862 12.5082 10.0872 12.5082 10.4761C12.5082 10.8649 12.8183 11.183 13.2066 11.1942C13.5055 11.1942 13.7388 11.0588 13.8592 10.8474L13.5108 10.6865C13.5049 10.6987 13.4975 10.7105 13.49 10.7222C13.482 10.7334 13.474 10.7435 13.4644 10.7536C13.4463 10.7738 13.4255 10.7904 13.4026 10.8047C13.3915 10.8117 13.3797 10.8181 13.367 10.8234C13.3547 10.8287 13.3419 10.8335 13.3291 10.8372C13.3036 10.8447 13.2759 10.8484 13.2487 10.8484H13.229C13.1081 10.8484 13.0031 10.7706 12.9648 10.6604C12.9626 10.6534 12.9605 10.6476 12.9589 10.6407C12.9557 10.6273 12.9536 10.614 12.9514 10.5996C12.9509 10.5927 12.9498 10.5863 12.9498 10.5789V10.564H13.8943C13.897 10.5357 13.8986 10.507 13.8986 10.4777C13.9055 10.0121 13.5981 9.7569 13.2061 9.7569L13.2066 9.75796ZM12.9482 10.3205C12.9413 10.1713 13.0612 10.0467 13.2103 10.0467C13.3595 10.0467 13.4783 10.1708 13.4724 10.3205H12.9482Z" fill="#110F23"/>
<path d="M20.6699 8.89498H20.2411V11.1457H20.6699V8.89498Z" fill="#110F23"/>
<path d="M17.4145 9.97425C17.5333 9.86824 17.602 9.71642 17.6041 9.5566C17.6041 9.52091 17.6004 9.48522 17.5935 9.45059C17.5866 9.4165 17.577 9.38187 17.5636 9.34885C17.5567 9.33286 17.5493 9.31688 17.5413 9.30143C17.5354 9.28918 17.5285 9.278 17.5221 9.26628C17.512 9.2487 17.5003 9.23271 17.4885 9.21673C17.4827 9.20928 17.4758 9.20128 17.4694 9.19383C17.4667 9.1901 17.4635 9.18584 17.4592 9.18211C17.4566 9.17838 17.4534 9.17465 17.4496 9.17092H17.4491C17.4422 9.16293 17.4363 9.15654 17.4289 9.15014C17.3255 9.05053 17.1503 8.99566 16.9212 8.99566H16.1882V11.1451H17.1348C17.4971 11.1398 17.7901 10.8655 17.7901 10.5293C17.7901 10.2848 17.7032 10.1106 17.4145 9.97425ZM17.0554 10.7722V10.7706H16.6453V9.36643H16.9308C17.0592 9.37229 17.1599 9.47883 17.1588 9.60721C17.1588 9.73293 17.057 9.83521 16.9319 9.83521H16.7827V10.2209H17.0554C17.4235 10.2209 17.4235 10.7722 17.0554 10.7722Z" fill="#110F23"/>
<path d="M15.8243 3L7 8.37079V23.6297L15.8243 29L24.6487 23.6297V8.37079L15.8243 3ZM16.6511 27.0327V12.535H23.3334V16.4009H21.5281V14.3467H18.4565V23.805L21.4876 21.9293V19.9327H19.9726V18.1274H23.3334V22.9745L23.3238 22.9804L16.6511 27.0327ZM19.3797 8.7602H20.8047V11.2794H20.1068L20.0764 11.2789L19.3797 11.2794L18.9173 11.2789C18.8224 11.3108 18.7186 11.3295 18.6094 11.3295C18.2476 11.3295 17.9413 11.1334 17.8401 10.8644C17.7096 11.1063 17.4427 11.2751 17.1348 11.2799H16.0539V8.86141H16.9212C17.2019 8.86141 17.4188 8.93706 17.5477 9.08036C17.6707 9.20927 17.7378 9.37868 17.7389 9.55926C17.7384 9.59975 17.7341 9.6397 17.7261 9.67966H19.3797V8.7602ZM14.9177 27.0322L14.8884 27.0146L8.23536 23.0081V12.5345H14.9177V27.0322ZM15.738 11.2783L15.0423 11.2863V11.2538C14.9491 11.2954 14.8468 11.3183 14.7435 11.3188C14.426 11.3188 14.1527 11.1116 14.0328 10.8154L13.9769 10.9134C13.8262 11.1771 13.5459 11.3284 13.2071 11.3284H13.2039C13.1118 11.3257 13.0239 11.3098 12.9419 11.2799H10.8446V8.86408H11.7694C11.9739 8.86408 12.1668 8.94292 12.3117 9.08515C12.4576 9.22845 12.5423 9.42715 12.5445 9.63278C12.5439 9.73133 12.4901 9.91352 12.4901 9.91352C12.4896 9.91405 12.5476 9.95773 12.5514 9.954C12.7011 9.75796 12.936 9.63065 13.2039 9.62319H13.2071C13.4453 9.62319 13.6583 9.70629 13.807 9.85705C13.9039 9.9556 13.971 10.0787 14.0057 10.2209C14.1074 9.88688 14.3993 9.64397 14.7435 9.64397C14.8458 9.6445 14.947 9.66687 15.0397 9.70736V8.7602H15.7375V11.2783H15.738ZM15.8201 8.37239C15.3082 8.37239 14.8538 8.12574 14.5688 7.74539C14.5608 7.75817 14.5528 7.77095 14.5442 7.78427L14.541 7.7896L14.5368 7.79386C14.499 7.82902 14.4484 7.8482 14.3967 7.84767H14.3578C14.2635 7.89348 14.1655 7.9313 14.0648 7.96007C13.9929 7.98244 13.9146 7.96806 13.8555 7.92065C13.8246 7.89401 13.7995 7.86152 13.7814 7.82476C13.7803 7.8221 13.7787 7.81943 13.7771 7.81677H13.7526C13.7153 7.81943 13.6802 7.80132 13.6605 7.76936L13.6504 7.75178C13.6269 7.71289 13.6051 7.67667 13.5827 7.63618C13.5657 7.60635 13.5635 7.57066 13.5774 7.53923C13.5902 7.51046 13.6168 7.49022 13.6477 7.48542C13.6898 7.47637 13.7319 7.46997 13.775 7.46624C13.8091 7.46092 13.8443 7.46411 13.8768 7.47477C13.8959 7.45506 13.922 7.4444 13.9492 7.4444H13.9529C13.9439 7.43641 13.9295 7.4167 13.922 7.40871C13.8885 7.42523 13.8517 7.43375 13.8144 7.43375H13.7494C13.7047 7.43162 13.6903 7.42949 13.6514 7.42523C13.612 7.42096 13.5603 7.4167 13.5241 7.4167H13.4996C13.4772 7.4183 13.4549 7.42096 13.433 7.42523C13.3947 7.43215 13.3563 7.43588 13.3174 7.43695H13.2998C13.2945 7.4508 13.2743 7.50034 13.2604 7.52751C13.2322 7.59143 13.1864 7.6463 13.1283 7.68519C13.1187 7.69105 13.1065 7.69744 13.0921 7.70437L13.0878 7.70703C13.0622 7.72035 13.0303 7.73739 12.9983 7.75497C12.9339 7.78907 12.8587 7.79706 12.7879 7.77841C12.7517 7.77042 12.7144 7.76563 12.6771 7.76456C12.6595 7.76403 12.6425 7.76669 12.626 7.77255C12.6121 7.78267 12.5988 7.79386 12.586 7.80611C12.5737 7.81783 12.5604 7.83062 12.546 7.84181C12.4928 7.88709 12.4246 7.91266 12.3543 7.91266C12.3372 7.91106 12.3202 7.90839 12.3037 7.90307H12.2951C12.2898 7.91053 12.284 7.92011 12.2786 7.92917C12.2579 7.97179 12.2243 8.00748 12.1822 8.03039C12.1529 8.04583 12.1199 8.05382 12.0869 8.05329C12.0565 8.05329 12.0261 8.0485 11.9963 8.04104C11.9819 8.03784 11.967 8.03465 11.9521 8.03305H11.9281C11.9228 8.03625 11.9169 8.03838 11.9111 8.03997H11.8871C11.8343 8.03305 11.7837 8.01494 11.7379 7.98617C11.7028 7.94835 11.7028 7.88975 11.7379 7.85193L11.7427 7.8466C11.7454 7.83595 11.7496 7.80079 11.7496 7.78214C11.7598 7.72621 11.7971 7.67933 11.8498 7.65749C11.8562 7.65482 11.8626 7.65323 11.8695 7.65216C11.8754 7.62659 11.8892 7.60368 11.9089 7.5861C11.9345 7.56533 11.9611 7.54562 11.9888 7.52804L11.9931 7.52538L12.0107 7.51419C12.048 7.48755 12.098 7.48755 12.1359 7.51419C12.1556 7.52857 12.1716 7.54668 12.1843 7.56799C12.1939 7.56053 12.203 7.55148 12.2099 7.54136C12.2179 7.52378 12.2259 7.50353 12.2339 7.48382C12.2456 7.44494 12.2653 7.40818 12.2914 7.37622C12.3095 7.35864 12.333 7.34745 12.358 7.34479H12.3846C12.4022 7.34372 12.4257 7.34266 12.4464 7.33999C12.4757 7.33094 12.5034 7.31815 12.5295 7.30217V7.29897C12.5114 7.25689 12.497 7.21374 12.4864 7.16952C12.4827 7.14822 12.4811 7.11253 12.4784 7.05872C12.4432 7.06618 12.407 7.06991 12.3708 7.07044C12.3489 7.07044 12.3276 7.06884 12.3058 7.06565C12.1625 7.04753 12.04 6.95538 11.9835 6.82273C11.934 6.69541 11.9537 6.55158 12.0373 6.44344C12.0837 6.38751 12.1348 6.33583 12.1913 6.28895C12.1678 6.28736 12.1449 6.28203 12.1236 6.27351L12.113 6.26924C12.0101 6.22023 11.9366 6.12541 11.9159 6.01408V6.00981C11.9111 5.95654 11.9238 5.90327 11.9531 5.85799L11.9915 5.79939L12.0533 5.83189C12.0751 5.84467 12.0964 5.85799 12.1172 5.87291C12.1417 5.89209 12.1689 5.90753 12.1977 5.91819C12.2104 5.92138 12.2243 5.92405 12.2392 5.92671L12.2642 5.93097H12.2685L12.2824 5.93364H12.2887C12.3719 5.94749 12.4496 5.98478 12.5125 6.04124C12.5833 6.12435 12.5892 6.24474 12.5269 6.33477C12.4821 6.38964 12.4315 6.43971 12.3761 6.48286C12.3442 6.51269 12.3106 6.53826 12.2829 6.5665C12.2413 6.60379 12.2238 6.66185 12.2371 6.71672C12.2547 6.75987 12.2946 6.7897 12.341 6.79343H12.3447C12.4294 6.78597 12.5104 6.75561 12.5791 6.70553L12.5999 6.69275C12.6084 6.68689 12.6297 6.67144 12.6622 6.64587C12.7362 6.57875 12.8236 6.52814 12.9179 6.49618C12.9573 6.48606 12.9978 6.47966 13.0388 6.47753H13.042C13.0718 6.4754 13.1011 6.47061 13.1299 6.46262C13.1933 6.43438 13.2508 6.3939 13.2993 6.34382L13.3025 6.34116C13.3883 6.26818 13.498 6.22982 13.6109 6.23355H13.6248C13.6317 6.22876 13.6482 6.21331 13.6663 6.1968L13.7116 6.15418C13.7819 6.09665 13.864 6.05616 13.9524 6.03538C13.9886 6.02526 14.0243 6.01248 14.06 5.99809L14.0669 5.99543C14.1074 5.97892 14.1458 5.95867 14.1815 5.93364C14.2097 5.91712 14.2347 5.90008 14.2635 5.88463L14.2688 5.88196C14.361 5.84521 14.4633 5.84148 14.5581 5.87131C14.5618 5.87237 14.565 5.87397 14.5688 5.87557C14.8538 5.49468 15.3082 5.24804 15.8201 5.24804C16.332 5.24804 16.8168 5.51173 17.0991 5.91393C17.1039 5.90966 17.1098 5.90594 17.1146 5.90167C17.1583 5.85852 17.2153 5.83029 17.276 5.82177C17.2856 5.82123 17.2952 5.82123 17.3053 5.82177C17.4049 5.8255 17.5003 5.86438 17.5738 5.93204C17.5951 5.94962 17.6143 5.96933 17.6297 5.9917C17.6377 6.00236 17.6468 6.01195 17.6574 6.02047C17.7517 6.03698 17.8439 6.06628 17.9307 6.10623C17.9824 6.13394 18.0314 6.1659 18.0777 6.20212L18.1118 6.22663C18.1283 6.23515 18.147 6.24048 18.1656 6.24048C18.1901 6.24314 18.2141 6.24847 18.2375 6.25539C18.3015 6.27617 18.3611 6.30866 18.4133 6.35128L18.4634 6.38697L18.4687 6.3907C18.514 6.41947 18.5651 6.43811 18.6184 6.44451C18.668 6.45303 18.7159 6.46635 18.7628 6.48499C18.864 6.52175 18.9594 6.57289 19.0467 6.63628C19.0995 6.67304 19.1543 6.7066 19.2108 6.73696C19.2475 6.75561 19.2886 6.76573 19.3301 6.76626C19.3541 6.76733 19.3775 6.762 19.3994 6.75135C19.4441 6.71725 19.4377 6.69328 19.4377 6.67996C19.4244 6.60698 19.361 6.54572 19.2934 6.48126C19.2438 6.43758 19.1996 6.38804 19.1612 6.33423L19.1586 6.32997C19.1266 6.2751 19.1181 6.21011 19.1357 6.14938C19.1666 6.05669 19.2454 5.9917 19.3701 5.94909C19.3967 5.94056 19.4233 5.93364 19.451 5.92831C19.4809 5.92405 19.5102 5.91499 19.5379 5.90274C19.5469 5.89581 19.5555 5.88889 19.5634 5.8809L19.5736 5.87131C19.6258 5.82177 19.7121 5.8532 19.7195 5.92511V5.9347C19.744 6.07853 19.7004 6.19999 19.6002 6.26765C19.5672 6.28895 19.5309 6.3044 19.4926 6.31399C19.6322 6.43865 19.7062 6.56437 19.719 6.69754V6.7018C19.7174 6.84457 19.6338 6.97349 19.5038 7.03368H19.5006C19.4431 7.05819 19.3807 7.07097 19.3179 7.07097C19.2987 7.07097 19.2795 7.06938 19.2609 7.06671C19.2705 7.1317 19.2657 7.19776 19.247 7.26115C19.2433 7.2766 19.238 7.29205 19.2316 7.30696C19.2284 7.31495 19.2257 7.32028 19.2257 7.32348C19.2428 7.33094 19.2609 7.33413 19.2795 7.3336C19.2992 7.3336 19.3189 7.33573 19.3386 7.33839C19.393 7.35065 19.4356 7.3922 19.45 7.446C19.45 7.44867 19.4441 7.43641 19.45 7.45239C19.4558 7.46891 19.4628 7.49608 19.467 7.50993C19.4713 7.52378 19.4787 7.55148 19.483 7.56373C19.5086 7.52964 19.548 7.50886 19.5906 7.50513C19.6146 7.50513 19.638 7.51312 19.6572 7.52857L19.6652 7.53443C19.6716 7.53976 19.6785 7.54455 19.6854 7.54881C19.7217 7.57012 19.7536 7.59836 19.7797 7.63192C19.7872 7.64257 19.7925 7.65482 19.7946 7.66761C19.8367 7.6756 19.8724 7.70383 19.89 7.74272C19.8991 7.76669 19.9044 7.79226 19.907 7.8173C19.9081 7.82742 19.9092 7.84181 19.9108 7.84553C19.9124 7.84873 19.9166 7.85406 19.9166 7.85779C19.939 7.89348 19.9422 7.93823 19.9262 7.97711C19.9156 8.00109 19.8948 8.0192 19.8698 8.02719L19.7808 8.05596C19.7728 8.05862 19.7643 8.05968 19.7563 8.05968C19.7382 8.05968 19.7206 8.05329 19.7057 8.04264C19.6982 8.04477 19.6908 8.04583 19.6828 8.04637H19.5869C19.5352 8.04903 19.4846 8.03145 19.4462 7.99736C19.4265 7.97818 19.4079 7.95687 19.3924 7.93396L19.3839 7.92171C19.3573 7.93876 19.3259 7.94728 19.2944 7.94675C19.271 7.94675 19.2481 7.94142 19.2262 7.93343C19.1985 7.92171 19.1724 7.90573 19.1506 7.88495C19.1426 7.8775 19.1341 7.8711 19.125 7.86524L19.1176 7.86045C19.0366 7.79972 18.9338 7.77575 18.8342 7.79493C18.8086 7.80025 18.7825 7.80132 18.7564 7.79812C18.7005 7.79013 18.6482 7.76776 18.604 7.7326L18.5875 7.72195C18.5081 7.67081 18.4549 7.58824 18.4421 7.49448L18.4384 7.4769C18.4341 7.45719 18.4314 7.44067 18.4288 7.42736C18.4032 7.43588 18.3771 7.44014 18.3505 7.44121H18.3201C18.2913 7.44121 18.2631 7.44067 18.2381 7.43641C18.213 7.43215 18.1896 7.43215 18.1672 7.43215H18.1475C18.0937 7.42895 18.0399 7.43055 17.9861 7.43641C17.9232 7.44973 17.8598 7.45719 17.7959 7.45825H17.7373L17.7069 7.45506H17.7032C17.7149 7.46092 17.7235 7.48329 17.732 7.49395V7.49661C17.7442 7.49288 17.7565 7.49022 17.7687 7.48968H17.9227C17.9776 7.49022 18.0212 7.53496 18.0218 7.58983C18.0218 7.61381 18.0143 7.63671 18.001 7.65642C17.9967 7.66335 17.9925 7.67027 17.9882 7.6772C17.9882 7.67773 17.9318 7.78321 17.8748 7.80185C17.8668 7.80452 17.8582 7.80718 17.8497 7.80824C17.8391 7.85512 17.8119 7.89667 17.7746 7.92597C17.7426 7.95474 17.7011 7.97019 17.6585 7.96966C17.6244 7.96912 17.5913 7.96273 17.5599 7.95101H17.5557C17.5157 7.9361 17.4752 7.92384 17.4337 7.91372C17.3996 7.9052 17.3655 7.89614 17.3314 7.88495C17.3026 7.87537 17.2776 7.85725 17.2584 7.83435L17.2541 7.83009H17.2504C17.2387 7.83222 17.227 7.83328 17.2153 7.83328C17.179 7.83382 17.1449 7.8189 17.1215 7.79173C17.1071 7.77149 17.0954 7.74965 17.0863 7.72621C16.8024 8.11775 16.3416 8.37292 15.8206 8.37292L15.8201 8.37239Z" fill="#110F23"/>
<path d="M10.0402 14.3467V21.9959L13.1054 23.8055V14.3467H10.0402Z" fill="#110F23"/>
<path d="M11.8823 7.72994H11.878C11.8525 7.74059 11.8327 7.76243 11.8242 7.7896C11.8178 7.87164 11.8157 7.87963 11.7933 7.90467C11.7869 7.91159 11.7827 7.92757 11.7896 7.9345C11.82 7.94835 11.8519 7.959 11.885 7.96646C11.8919 7.96646 11.8977 7.94622 11.9137 7.88975C11.9222 7.85939 11.9329 7.82529 11.9436 7.79386C11.9436 7.79386 11.9436 7.78907 11.9372 7.77895C11.9308 7.76883 11.8993 7.73047 11.8823 7.73047V7.72994Z" fill="#110F23"/>
<path d="M13.9663 7.59036H13.9689C13.9785 7.60528 13.9865 7.62126 13.9934 7.63777C14.0057 7.66548 14.0163 7.68891 14.0291 7.69158C14.035 7.69264 14.0408 7.69264 14.0467 7.69158C14.0819 7.68945 14.1154 7.67613 14.1431 7.65376C14.1591 7.64044 14.1538 7.63191 14.1468 7.61913C14.1442 7.61487 14.1415 7.61007 14.1394 7.60528C14.1325 7.59143 14.1277 7.57651 14.1239 7.56213C14.1159 7.53443 14.109 7.50833 14.0797 7.51525C14.0371 7.52111 13.9945 7.52377 13.9513 7.52377C13.9513 7.52377 13.9364 7.52377 13.9322 7.53443C13.9279 7.54455 13.9386 7.55627 13.9503 7.56746C13.9572 7.57438 13.9625 7.58237 13.9668 7.59036H13.9663Z" fill="#110F23"/>
<path d="M11.9713 7.72993C11.9792 7.73739 11.9899 7.74165 12.0006 7.74165C12.0096 7.74165 12.0181 7.73899 12.0261 7.73473C12.0661 7.70543 12.098 7.66707 12.1204 7.62286C12.1252 7.60954 12.1098 7.59676 12.0895 7.58131C12.0789 7.57438 12.065 7.57438 12.0544 7.58131L12.0325 7.59569C12.0069 7.61167 11.9824 7.63032 11.9595 7.6495C11.9505 7.65855 11.9446 7.67027 11.9441 7.68359C11.943 7.69051 11.9446 7.69797 11.9489 7.70383C11.9563 7.71236 11.9638 7.72035 11.9718 7.72834V7.7294L11.9713 7.72993Z" fill="#110F23"/>
<path d="M17.602 7.54882H17.5583C17.5498 7.54775 17.5413 7.54775 17.5327 7.54882C17.5157 7.57652 17.5061 7.60742 17.5045 7.63938C17.5088 7.67613 17.5466 7.68359 17.5748 7.68945C17.586 7.69212 17.5972 7.69318 17.6089 7.69371C17.6254 7.69585 17.6414 7.68785 17.6499 7.67347C17.6643 7.63725 17.675 7.59889 17.6808 7.56C17.6824 7.55681 17.6824 7.55255 17.6808 7.54935C17.6755 7.54402 17.6681 7.54189 17.6611 7.54242L17.6499 7.54562C17.634 7.54775 17.618 7.54882 17.602 7.54882Z" fill="#110F23"/>
<path d="M19.7062 7.81037C19.7206 7.85512 19.7328 7.9004 19.7419 7.94621C19.7419 7.95367 19.7483 7.97871 19.76 7.97871H19.7627L19.8506 7.94941C19.8548 7.94781 19.858 7.94515 19.8602 7.94142C19.865 7.9281 19.8559 7.90786 19.8468 7.88868C19.8426 7.88016 19.8389 7.8711 19.8362 7.86258C19.8335 7.85033 19.8319 7.83701 19.8303 7.82422C19.8287 7.80558 19.825 7.788 19.8191 7.77042C19.8096 7.75178 19.7904 7.73952 19.7696 7.73899C19.7627 7.73899 19.7557 7.74059 19.7494 7.74325C19.719 7.7587 19.7003 7.77468 19.7062 7.80984V7.81037Z" fill="#110F23"/>
<path d="M19.5911 7.71662C19.6034 7.73313 19.6215 7.74432 19.6423 7.74698C19.6604 7.74698 19.6774 7.73952 19.6902 7.72674C19.703 7.71395 19.7281 7.68732 19.7169 7.67134V7.67347C19.6966 7.64843 19.6716 7.62712 19.6439 7.61061C19.6338 7.60475 19.6242 7.59782 19.6151 7.5909L19.6103 7.58717C19.6045 7.58237 19.5975 7.57971 19.5901 7.57971C19.5634 7.58291 19.5411 7.60049 19.5309 7.62499C19.5309 7.64204 19.5539 7.67187 19.5848 7.70916L19.5911 7.71715V7.71662Z" fill="#110F23"/>
<path d="M16.9974 7.65909C17.0043 7.63778 17.0043 7.61381 16.9974 7.5925C16.9942 7.57971 16.9926 7.56693 16.9931 7.55414C17.0022 7.55148 17.0118 7.55148 17.0208 7.55414C17.0299 7.55521 17.0395 7.55521 17.0485 7.55414C17.0613 7.55095 17.0693 7.53816 17.0672 7.52485C17.0581 7.49075 17.0421 7.45932 17.0198 7.43215C17.0022 7.40871 16.9883 7.38261 16.9782 7.35544C16.9622 7.32028 16.9398 7.28832 16.9116 7.26115C16.8802 7.23292 16.8567 7.1967 16.844 7.15621C16.844 7.15621 16.8413 7.14769 16.844 7.14449C16.8466 7.14129 16.8551 7.14449 16.8551 7.14449C16.869 7.15461 16.8839 7.16686 16.8972 7.17699C16.9377 7.21694 16.9883 7.24517 17.0432 7.25956C17.0981 7.26648 17.1524 7.26861 17.2078 7.26648C17.2211 7.26435 17.2296 7.25156 17.2259 7.23878C17.2014 7.1903 17.1817 7.13916 17.1673 7.08642C17.1428 7.01131 17.1391 6.93087 17.1556 6.85363C17.1572 6.84724 17.1625 6.84298 17.1684 6.84298C17.1774 6.8467 17.1838 6.8547 17.1849 6.86428V6.87494C17.1929 6.98681 17.1998 7.09282 17.2685 7.18284C17.2829 7.20362 17.3021 7.2196 17.3234 7.23239C17.3287 7.23558 17.333 7.23985 17.3383 7.24251C17.357 7.25103 17.374 7.26328 17.3884 7.2782C17.4028 7.29844 17.4054 7.32455 17.3953 7.34692L17.3117 7.47051C17.2909 7.49714 17.2749 7.52804 17.2653 7.56054C17.2611 7.59037 17.2611 7.62127 17.2653 7.6511V7.65802C17.2653 7.65802 17.2605 7.65429 17.2595 7.65163C17.228 7.60688 17.2195 7.55042 17.2355 7.49874C17.2472 7.47317 17.3149 7.37569 17.3351 7.34372C17.3415 7.3336 17.3474 7.32348 17.3415 7.31656C17.3298 7.30856 17.317 7.30217 17.3042 7.29685C17.293 7.29258 17.2818 7.28885 17.2701 7.28619C17.2584 7.29099 17.2493 7.29951 17.2435 7.3107C17.2435 7.3107 17.2408 7.31442 17.2387 7.31709L17.1348 7.5062V7.51313C17.1274 7.53124 17.1252 7.55095 17.129 7.57013C17.1332 7.5925 17.1396 7.61647 17.1455 7.63618C17.1471 7.64151 17.1487 7.6463 17.1497 7.65057L17.1551 7.66921C17.1604 7.69798 17.1716 7.72514 17.187 7.74965C17.1961 7.75977 17.2094 7.76563 17.2232 7.7651C17.2312 7.7651 17.2392 7.76403 17.2472 7.76243C17.2595 7.75977 17.2723 7.75977 17.285 7.76243C17.3 7.76776 17.3127 7.77735 17.3223 7.79067C17.333 7.80452 17.3468 7.81464 17.3628 7.8205C17.3953 7.83115 17.4289 7.83968 17.4614 7.8482C17.5056 7.85885 17.5493 7.87217 17.5919 7.88815C17.6159 7.89668 17.6409 7.902 17.6665 7.90307C17.692 7.90307 17.7165 7.89348 17.7352 7.87537C17.7645 7.85246 17.7837 7.8189 17.789 7.78161C17.7954 7.74592 17.8071 7.74379 17.8337 7.74272C17.8428 7.74272 17.8518 7.74113 17.8598 7.73846C17.8891 7.71449 17.9131 7.68466 17.9296 7.65057C17.9344 7.64151 17.9403 7.63192 17.9461 7.6234C17.9515 7.61647 17.9547 7.60848 17.9541 7.59942C17.9541 7.58557 17.9429 7.57439 17.9291 7.57492H17.781C17.7357 7.57492 17.716 7.62127 17.7 7.65962C17.6947 7.674 17.6883 7.68785 17.6808 7.70117C17.6675 7.72408 17.6425 7.73686 17.6164 7.73473C17.6036 7.73313 17.5919 7.731 17.5796 7.72728C17.52 7.71289 17.4582 7.69744 17.4331 7.63831C17.4283 7.62127 17.4315 7.60315 17.4422 7.58984C17.4773 7.54669 17.5162 7.50727 17.5594 7.47211C17.6233 7.45666 17.6782 7.41564 17.7117 7.35917C17.7181 7.34958 17.7229 7.33893 17.7256 7.32774C17.7293 7.3107 17.7384 7.29525 17.7517 7.28459C17.7613 7.2798 17.7693 7.28193 17.7709 7.28992C17.7741 7.32135 17.7677 7.35278 17.7533 7.38048C17.7512 7.38687 17.749 7.39327 17.7458 7.39966V7.40445H17.7512C17.7677 7.40445 17.7847 7.40712 17.8018 7.40712C17.8609 7.40552 17.9206 7.39859 17.9786 7.38634C18.0362 7.37409 18.0942 7.36716 18.1534 7.3661H18.1731C18.1992 7.3661 18.2269 7.3661 18.2503 7.37089C18.2743 7.37569 18.3004 7.37515 18.326 7.37515H18.3515C18.416 7.37942 18.4762 7.34159 18.5012 7.2814C18.5177 7.20149 18.5156 7.11839 18.4964 7.03901V7.02942C18.4964 7.02463 18.4986 7.02037 18.5028 7.01824C18.5097 7.01451 18.5172 7.01824 18.5209 7.02729C18.5465 7.1056 18.5646 7.18604 18.5747 7.26755C18.5859 7.3352 18.6104 7.40019 18.6477 7.45772C18.7031 7.54029 18.7969 7.58877 18.896 7.58664C18.9199 7.58557 18.9439 7.58344 18.9679 7.57918C18.9796 7.57812 18.9908 7.57812 19.002 7.57918C19.1314 7.57758 19.2534 7.63778 19.3317 7.74059C19.3322 7.74219 19.3322 7.74432 19.3317 7.74592C19.3306 7.75125 19.3248 7.75444 19.3195 7.75231L19.3083 7.74379C19.2396 7.67933 19.1543 7.63458 19.0616 7.61541C19.0441 7.61221 19.0259 7.61114 19.0078 7.61114C18.9807 7.61168 18.954 7.61381 18.9269 7.61754C18.9018 7.62073 18.8762 7.62286 18.8507 7.6234C18.8208 7.62393 18.7915 7.6186 18.7638 7.60795C18.6536 7.57172 18.5641 7.44654 18.5348 7.3661C18.5326 7.36184 18.5284 7.35917 18.5236 7.35917C18.5204 7.35811 18.5167 7.35811 18.514 7.35917C18.5018 7.36716 18.4996 7.37142 18.497 7.37942C18.5002 7.40871 18.5044 7.43748 18.5108 7.46625C18.5183 7.54296 18.5598 7.61221 18.6243 7.65483C18.6653 7.68999 18.7154 7.71342 18.7686 7.72142C18.7846 7.72355 18.8011 7.72355 18.8176 7.72142C18.8459 7.71502 18.8741 7.71183 18.9029 7.71183C18.9972 7.71289 19.0877 7.74379 19.1634 7.79972C19.1767 7.80825 19.1889 7.8173 19.2007 7.82742C19.2161 7.84287 19.2342 7.85513 19.2545 7.86365C19.2678 7.86898 19.2816 7.87164 19.296 7.87164C19.3205 7.87164 19.3445 7.86365 19.3647 7.84873C19.3738 7.84394 19.3839 7.84128 19.3946 7.84128C19.4228 7.84128 19.4377 7.86365 19.458 7.89135C19.4708 7.91053 19.4857 7.92864 19.5022 7.94515C19.5267 7.9654 19.5586 7.97552 19.5911 7.97339H19.678C19.6822 7.97339 19.687 7.97339 19.6918 7.97339V7.97019C19.6865 7.91266 19.6711 7.85672 19.6471 7.80452L19.6444 7.80399C19.5933 7.80718 19.5613 7.76616 19.5315 7.72621C19.5214 7.71289 19.5118 7.70011 19.5016 7.68945C19.4867 7.67241 19.4702 7.65696 19.4526 7.64204C19.4372 7.63032 19.4239 7.61647 19.4132 7.60049C19.4042 7.57705 19.3962 7.55308 19.3903 7.52857C19.385 7.50886 19.3802 7.48969 19.3754 7.47477L19.3722 7.46678C19.3631 7.44228 19.352 7.41298 19.3184 7.40658C19.3019 7.40392 19.2854 7.40285 19.2689 7.40232C19.2257 7.40605 19.1831 7.39007 19.1527 7.35917C19.1357 7.332 19.1357 7.29738 19.1527 7.27021C19.1581 7.25849 19.1623 7.24571 19.165 7.23345C19.1826 7.17752 19.1858 7.11839 19.1746 7.06085C19.1724 7.05286 19.1703 7.04541 19.1676 7.03795C19.1596 7.01877 19.1565 6.99799 19.1586 6.97775C19.1618 6.97029 19.1698 6.96603 19.1778 6.9671C19.1868 6.96763 19.1959 6.96923 19.2039 6.97189C19.2097 6.97189 19.2145 6.97189 19.2204 6.97615C19.2491 6.98361 19.279 6.98734 19.3093 6.98787C19.3615 6.98787 19.4138 6.97722 19.4617 6.95644C19.564 6.9101 19.6311 6.80942 19.6332 6.69701C19.622 6.57502 19.5469 6.45783 19.4036 6.33743L19.393 6.32838C19.3743 6.31346 19.352 6.29375 19.3514 6.27457C19.3514 6.25486 19.3956 6.24687 19.4239 6.24048L19.4409 6.23622H19.4484C19.4846 6.22876 19.5192 6.21544 19.5512 6.19573C19.6529 6.12701 19.6492 6.00609 19.6375 5.9395V5.93311C19.6375 5.92458 19.6332 5.91393 19.6252 5.91393C19.6226 5.91393 19.6199 5.91553 19.6178 5.91712L19.6082 5.92618C19.5959 5.93843 19.5832 5.94909 19.5682 5.95814C19.5347 5.97572 19.4985 5.98744 19.4606 5.9933C19.4361 5.9981 19.4122 6.00449 19.3887 6.01195C19.2875 6.04711 19.2241 6.09825 19.2017 6.1643C19.1905 6.20532 19.1969 6.24847 19.2188 6.2847C19.2555 6.33743 19.2987 6.38538 19.3466 6.42799C19.4196 6.49778 19.4958 6.57023 19.5128 6.66931C19.5219 6.72844 19.4937 6.78704 19.442 6.81634C19.4079 6.83552 19.3695 6.84511 19.3306 6.84404C19.2768 6.84351 19.2236 6.83019 19.1756 6.80462C19.116 6.77266 19.0584 6.73643 19.003 6.69701C18.921 6.63735 18.832 6.58834 18.7372 6.55265C18.6946 6.5356 18.6509 6.52282 18.6051 6.51589C18.5401 6.5079 18.4778 6.48499 18.4234 6.44877C18.4059 6.43652 18.3878 6.42373 18.3696 6.41148C18.3244 6.37526 18.2732 6.34702 18.2178 6.32944C18.1981 6.32305 18.1773 6.31932 18.1566 6.31666C18.1262 6.31506 18.0969 6.30547 18.0713 6.28896L18.0346 6.26285C17.9903 6.22929 17.944 6.19946 17.8955 6.17389C17.8135 6.13607 17.7272 6.10943 17.6382 6.09345C17.6105 6.08386 17.586 6.06469 17.57 6.03965C17.5573 6.0226 17.5429 6.00822 17.5264 5.9949C17.4662 5.9379 17.3879 5.90381 17.3048 5.89901H17.2813C17.2366 5.907 17.1961 5.92884 17.1646 5.96081C17.1572 5.9672 17.1492 5.97306 17.1417 5.97945C17.064 6.04551 16.9819 6.10624 16.9015 6.16377C16.7635 6.25699 16.6357 6.36407 16.5201 6.48286C16.4061 6.60006 16.3645 6.74709 16.3251 6.88879L16.3075 6.95165C16.2969 6.99054 16.2867 7.02996 16.2766 7.06884C16.2228 7.2782 16.169 7.48702 15.9618 7.62286C15.949 7.63032 15.9511 7.6495 15.9655 7.65376C16.031 7.67294 16.1019 7.65216 16.1461 7.59996C16.1999 7.53603 16.2281 7.47424 16.2915 7.40658C16.2915 7.40658 16.3006 7.39753 16.3065 7.39966C16.3123 7.40179 16.3128 7.40339 16.3107 7.41085C16.3017 7.43801 16.2878 7.46305 16.2697 7.48489C16.2526 7.5078 16.2393 7.53284 16.2297 7.56C16.201 7.6202 16.1578 7.67241 16.104 7.71129C16.0992 7.71396 16.0955 7.71769 16.0918 7.72195C16.087 7.72781 16.0875 7.73047 16.0875 7.73047C16.0875 7.74326 16.0966 7.75125 16.1179 7.75231C16.2351 7.75231 16.3182 7.66921 16.3986 7.5909C16.4023 7.58771 16.4071 7.58557 16.4119 7.58611C16.4162 7.58504 16.4205 7.58504 16.4247 7.58611C16.4343 7.59303 16.4434 7.60102 16.4519 7.60955C16.4759 7.63512 16.5068 7.65376 16.5408 7.66335C16.5808 7.65642 16.6208 7.6527 16.6612 7.65163H16.6937C16.7363 7.66442 16.779 7.68093 16.82 7.69638C16.8498 7.70757 16.8796 7.71875 16.91 7.72887C16.9494 7.72887 16.9771 7.69105 16.9979 7.65909H16.9974ZM17.0794 6.44291C17.1135 6.36247 17.1694 6.29322 17.2408 6.24314C17.2493 6.23782 17.2589 6.23515 17.2685 6.23515C17.2696 6.23515 17.2707 6.23515 17.2717 6.23515C17.2834 6.23515 17.2941 6.24208 17.2989 6.25273C17.3069 6.26658 17.3042 6.28363 17.2946 6.29588C17.2925 6.29801 17.2909 6.30068 17.2888 6.30281L17.2499 6.33903C17.2019 6.37899 17.1593 6.4248 17.1231 6.47541C17.1087 6.49671 17.0965 6.51909 17.0863 6.54253C17.0863 6.54253 17.0826 6.54999 17.0773 6.54999C17.0746 6.54999 17.072 6.54839 17.0704 6.54626C17.064 6.51163 17.0677 6.47594 17.0805 6.44291H17.0794ZM16.7076 7.54242C16.7001 7.55308 16.6873 7.55841 16.674 7.55681C16.6607 7.55681 16.6474 7.55361 16.6362 7.54669C16.6138 7.52911 16.601 7.50247 16.601 7.47424C16.5989 7.46518 16.6026 7.45613 16.6101 7.4508C16.6144 7.44814 16.6192 7.44707 16.6239 7.4476C16.6506 7.4492 16.6756 7.46145 16.6932 7.4817C16.6932 7.4817 16.7209 7.51632 16.7071 7.54029V7.54242H16.7076ZM16.7369 7.0763V7.08003C16.7305 7.09069 16.7182 7.09548 16.7065 7.09175C16.6959 7.08536 16.6868 7.07577 16.6815 7.06405C16.6746 7.05127 16.6687 7.03955 16.6511 7.04114C16.6367 7.04381 16.6234 7.04967 16.6122 7.05926C16.6064 7.06352 16.5824 7.08216 16.576 7.08696C16.5403 7.10827 16.5131 7.14076 16.4982 7.17965C16.4961 7.18657 16.4945 7.1935 16.4934 7.20042C16.4934 7.21374 16.487 7.22653 16.4769 7.23558H16.4711C16.4663 7.23558 16.4609 7.23345 16.4572 7.23026C16.4529 7.22706 16.4503 7.22227 16.4503 7.21694C16.4434 7.15355 16.4668 7.09122 16.5137 7.04807C16.543 7.0225 16.5691 6.9932 16.592 6.96177C16.6032 6.94685 16.6154 6.93194 16.6277 6.91809C16.6394 6.90424 16.6522 6.91809 16.6772 6.94366C16.7007 6.97615 16.7204 7.01131 16.7358 7.0486C16.7395 7.05766 16.7395 7.06778 16.7358 7.07684L16.7369 7.0763Z" fill="#110F23"/>
<path d="M15.7359 7.59889L15.7338 7.59996L15.6843 7.57545C15.631 7.53869 15.5878 7.48809 15.5596 7.42949C15.5468 7.40818 15.5335 7.38581 15.5191 7.36556C15.5069 7.35065 15.4941 7.3368 15.4792 7.32455C15.469 7.31656 15.46 7.3075 15.4531 7.29684C15.3875 7.13437 15.3454 6.96337 15.3273 6.78917C15.3199 6.74176 15.3039 6.69595 15.2805 6.65493C15.1979 6.534 15.1084 6.4184 15.012 6.30867C15.0056 6.30174 14.9987 6.29535 14.9928 6.28949L14.988 6.28469L14.6614 6.01301C14.6215 5.98212 14.5773 5.95814 14.5299 5.94216C14.5277 5.94163 14.5251 5.9411 14.5229 5.94056C14.492 5.93044 14.4595 5.92511 14.4271 5.92565C14.3823 5.92565 14.3381 5.93417 14.2965 5.95069C14.271 5.96454 14.2427 5.98105 14.2209 5.9965C14.1799 6.02526 14.1357 6.0487 14.0888 6.06628C14.0515 6.08226 14.0137 6.09558 13.9748 6.10677C13.8975 6.12488 13.8251 6.15951 13.7633 6.20958L13.7185 6.25113C13.6647 6.30494 13.6568 6.3092 13.6109 6.3092C13.5156 6.30547 13.4224 6.33743 13.3504 6.39976C13.2945 6.45729 13.2279 6.50257 13.1549 6.534C13.1198 6.54412 13.0841 6.55052 13.0473 6.55265C13.009 6.55478 12.9706 6.56064 12.9328 6.57023C12.8481 6.60006 12.7703 6.64587 12.7037 6.70554C12.6803 6.72312 12.6499 6.74709 12.6361 6.75614L12.6121 6.77106C12.5322 6.82859 12.4379 6.86269 12.3394 6.86961H12.3319C12.2536 6.86322 12.1865 6.81208 12.1593 6.73856C12.138 6.65759 12.1625 6.57076 12.2238 6.51269C12.2541 6.48233 12.2882 6.45356 12.3218 6.42586C12.3751 6.38591 12.4241 6.3401 12.4677 6.28949C12.5082 6.22876 12.5045 6.14885 12.4582 6.09185C12.4044 6.0487 12.3404 6.0194 12.2722 6.00769H12.2658L12.2515 6.00502C12.2275 6.00023 12.2041 5.99703 12.1801 5.99117C12.1231 5.96667 12.0693 5.93524 12.0187 5.89848C11.9984 5.92938 11.9894 5.96667 11.9936 6.00342C12.0101 6.08972 12.0666 6.16324 12.1455 6.20106L12.1545 6.20479C12.1774 6.21331 12.2019 6.21757 12.227 6.21651H12.2568C12.2728 6.21598 12.2888 6.21757 12.3047 6.22077C12.3212 6.2261 12.334 6.23995 12.3362 6.25753C12.3362 6.26818 12.333 6.27617 12.3186 6.28683L12.2808 6.31879C12.2131 6.37099 12.1513 6.42959 12.0954 6.49405C12.0299 6.58088 12.0133 6.69541 12.0538 6.79716C12.1002 6.9037 12.2003 6.97828 12.3159 6.99107C12.3335 6.99373 12.3516 6.99533 12.3697 6.99533C12.4267 6.9932 12.4827 6.98361 12.5375 6.9671H12.5429C12.5429 6.9671 12.5498 6.9671 12.5508 6.97935C12.5508 7.00332 12.5535 7.03315 12.5546 7.05712C12.5546 7.09974 12.5583 7.14023 12.5615 7.15781C12.5711 7.19723 12.5839 7.23558 12.6004 7.27341C12.6057 7.28619 12.61 7.29631 12.6121 7.30111C12.6169 7.31815 12.6126 7.33573 12.6004 7.34852C12.5594 7.38101 12.512 7.40445 12.4614 7.41777C12.4368 7.42097 12.4075 7.42203 12.3916 7.4231H12.3703C12.3612 7.42363 12.3532 7.42789 12.3468 7.43375C12.3298 7.45879 12.3165 7.48649 12.3074 7.51526C12.2983 7.53816 12.2893 7.56213 12.2797 7.58131C12.2509 7.6218 12.212 7.65376 12.1673 7.67454L12.1359 7.69265C12.1204 7.71982 12.1012 7.74485 12.0783 7.76616C12.0608 7.78001 12.04 7.788 12.0176 7.78907C11.9883 7.82956 11.9697 7.87697 11.9638 7.92598L11.959 7.94835V7.95527H11.9633C11.9814 7.95741 11.9995 7.9606 12.0171 7.96486C12.0416 7.97019 12.0661 7.97392 12.0911 7.97498C12.1124 7.97498 12.1332 7.97072 12.1524 7.9606C12.1811 7.94409 12.2035 7.91905 12.2168 7.88922C12.227 7.86951 12.2392 7.85193 12.2541 7.83541C12.2627 7.82583 12.2749 7.8205 12.2882 7.82103C12.3015 7.8221 12.3143 7.82423 12.3271 7.82796C12.3388 7.83169 12.3511 7.83382 12.3633 7.83488C12.415 7.83382 12.4645 7.81464 12.5034 7.78108C12.5152 7.77149 12.5269 7.76084 12.5386 7.75018C12.5551 7.73313 12.5732 7.71822 12.5924 7.70437C12.6201 7.69212 12.6499 7.68679 12.6798 7.68785C12.7229 7.68945 12.7655 7.69425 12.8076 7.7033C12.8273 7.70863 12.8476 7.71129 12.8683 7.71129C12.9019 7.71183 12.9344 7.70384 12.9637 7.68785C12.9962 7.66974 13.0287 7.65216 13.0553 7.63831L13.0942 7.61754C13.1384 7.58504 13.1731 7.54189 13.1954 7.49182C13.2093 7.46518 13.2327 7.40552 13.2327 7.40498V7.40232L13.1789 7.3613V7.36503C13.1608 7.39486 13.1411 7.42363 13.1198 7.45133C13.0239 7.58238 12.8678 7.59836 12.7437 7.59836H12.7176C12.577 7.59197 12.4411 7.64897 12.3468 7.75338C12.3426 7.75764 12.3362 7.75764 12.3319 7.75338C12.3303 7.74965 12.3303 7.74592 12.3319 7.74219C12.334 7.73313 12.3372 7.72408 12.342 7.71662C12.439 7.57865 12.6047 7.55841 12.7389 7.55521C12.8193 7.55361 12.8982 7.5355 12.9717 7.50141C13.0484 7.45559 13.1059 7.38368 13.1331 7.29844C13.147 7.25103 13.1571 7.20255 13.1635 7.15301C13.1683 7.11413 13.1757 7.0763 13.1848 7.03848C13.1864 7.03369 13.1906 7.03102 13.1954 7.03102H13.1992C13.2045 7.03102 13.2141 7.03582 13.2141 7.04327C13.1906 7.13117 13.1917 7.2244 13.2167 7.31176C13.237 7.35118 13.2807 7.37249 13.3243 7.36556C13.359 7.3645 13.3936 7.36077 13.4277 7.35438C13.4522 7.34958 13.4772 7.34639 13.5023 7.34532C13.5119 7.34479 13.5214 7.34479 13.531 7.34532C13.5731 7.34692 13.6157 7.35225 13.6568 7.36184C13.6924 7.36983 13.7281 7.37569 13.7644 7.37888H13.8262C13.8512 7.38101 13.8757 7.37409 13.8965 7.3597C13.9077 7.35012 13.9039 7.33573 13.8965 7.31815V7.31496C13.8965 7.31496 13.8965 7.30856 13.8933 7.30537C13.8864 7.2814 13.8752 7.24624 13.8933 7.23026C13.8965 7.22812 13.8997 7.22706 13.9034 7.22706C13.9071 7.22653 13.9109 7.22866 13.9119 7.23239C13.9119 7.23931 13.9162 7.2457 13.9178 7.25263C13.9247 7.28193 13.9364 7.31016 13.9529 7.3352C13.9998 7.39113 14.0579 7.43641 14.1229 7.46891C14.1815 7.50354 14.2209 7.56267 14.2305 7.63032C14.2305 7.66441 14.1969 7.68892 14.1724 7.70384C14.1298 7.72674 14.0824 7.74059 14.0339 7.74485C14.0169 7.74326 14.0004 7.73686 13.9865 7.72674C13.9487 7.69105 13.9524 7.67933 13.9279 7.63725C13.9146 7.61434 13.8997 7.5925 13.8832 7.57172C13.8592 7.54562 13.824 7.53284 13.7889 7.53923C13.7489 7.54296 13.7095 7.54935 13.6711 7.55841C13.6626 7.56 13.6557 7.56533 13.652 7.57279C13.6477 7.58184 13.6477 7.5925 13.652 7.60155C13.6749 7.64098 13.6962 7.6772 13.7185 7.71556L13.7287 7.73207C13.7351 7.74059 13.7452 7.74432 13.7553 7.74326H13.7915C13.8064 7.74113 13.8214 7.74645 13.832 7.75764C13.8389 7.76829 13.8453 7.77948 13.8512 7.79013C13.864 7.81837 13.8821 7.84341 13.905 7.86418C13.9311 7.88602 13.9641 7.89774 13.9977 7.89668C14.0131 7.89668 14.0281 7.89455 14.0424 7.88975C14.1447 7.86099 14.2443 7.82263 14.3397 7.77469H14.3919C14.4249 7.77682 14.4574 7.76616 14.4825 7.74432C14.4968 7.72355 14.5107 7.7017 14.5235 7.67986C14.5368 7.65696 14.5496 7.63298 14.5613 7.60901C14.5815 7.57332 14.5815 7.52964 14.5613 7.49395C14.5213 7.43588 14.4894 7.37249 14.4659 7.3059L14.4446 7.29844C14.4297 7.29152 14.4132 7.28726 14.3967 7.28672C14.3807 7.28459 14.3647 7.29205 14.3557 7.30537L14.4633 7.52058C14.4729 7.53869 14.4766 7.55894 14.4739 7.57971C14.4723 7.58398 14.4702 7.5877 14.4686 7.59197C14.4516 7.63192 14.4287 7.66868 14.3999 7.70011C14.3972 7.70224 14.3935 7.70384 14.3903 7.70437C14.3903 7.70437 14.3834 7.70437 14.3871 7.69052C14.3999 7.64364 14.4063 7.59516 14.4073 7.54615C14.3786 7.48063 14.345 7.41724 14.3072 7.35704C14.2907 7.3352 14.2811 7.3091 14.28 7.28193C14.2816 7.27021 14.2896 7.26062 14.3003 7.25689C14.3077 7.25423 14.3157 7.25316 14.3232 7.25103C14.3317 7.2489 14.3397 7.24624 14.3482 7.24464C14.3871 7.23612 14.4276 7.22706 14.4414 7.20575C14.4862 7.1333 14.5144 7.05286 14.5251 6.96869C14.5251 6.96443 14.5288 6.95644 14.5347 6.95644C14.5405 6.95644 14.5416 6.95644 14.5432 6.9655C14.5592 7.05766 14.5379 7.15301 14.483 7.22919C14.4793 7.23558 14.4782 7.24304 14.4793 7.24997C14.4814 7.25529 14.4846 7.26009 14.4894 7.26382C14.5416 7.27554 14.5965 7.26701 14.6433 7.24038C14.6844 7.24038 14.7254 7.23558 14.7648 7.22653L14.8015 7.22013C14.8047 7.22173 14.8079 7.22493 14.809 7.22866C14.7765 7.26541 14.7547 7.3107 14.7461 7.35864C14.7371 7.3677 14.7275 7.37728 14.7168 7.38581C14.6774 7.41351 14.6508 7.45453 14.6412 7.50194C14.6407 7.51153 14.6481 7.52005 14.6577 7.52005C14.6646 7.52005 14.671 7.51792 14.6764 7.51472C14.6822 7.51153 14.6886 7.50993 14.6955 7.51046C14.7014 7.51099 14.7051 7.51579 14.7057 7.52218L14.6652 7.58184C14.6535 7.60582 14.6524 7.63405 14.6625 7.65909C14.6668 7.67294 14.6625 7.68466 14.6689 7.69691C14.6828 7.72568 14.7126 7.74272 14.744 7.74112C14.7952 7.73633 14.8452 7.72408 14.8921 7.70437L14.9177 7.69584C14.9816 7.67241 15.0519 7.66761 15.1185 7.68253C15.1808 7.67187 15.2373 7.63991 15.2799 7.5925C15.305 7.5957 15.3279 7.60848 15.3433 7.62872C15.411 7.7033 15.5085 7.74485 15.6091 7.74166H15.632C15.6432 7.74166 15.6464 7.73367 15.647 7.72674C15.647 7.71982 15.6411 7.71023 15.6294 7.70437L15.5687 7.67241C15.518 7.6479 15.4776 7.60688 15.4531 7.55627C15.4365 7.50673 15.4142 7.45985 15.387 7.41617L15.3731 7.39593C15.3641 7.38368 15.3561 7.37089 15.3492 7.35757C15.4152 7.38155 15.452 7.43056 15.4962 7.51099C15.5383 7.58344 15.6134 7.62979 15.697 7.63671C15.7072 7.63671 15.7178 7.63565 15.7279 7.63298C15.7381 7.63405 15.7471 7.62659 15.7471 7.61594C15.7476 7.60901 15.7434 7.60315 15.737 7.60155L15.7359 7.59889ZM14.5634 6.62563C14.5634 6.63202 14.5576 6.63575 14.5533 6.63575C14.549 6.63575 14.5469 6.63575 14.5453 6.62669C14.5373 6.5681 14.5213 6.51056 14.4979 6.45623C14.4915 6.44451 14.4846 6.43332 14.4761 6.42267C14.4617 6.40296 14.4484 6.38591 14.4633 6.36194C14.4697 6.35395 14.4787 6.34969 14.4888 6.35075C14.4942 6.35075 14.4995 6.35182 14.5043 6.35395C14.5272 6.36886 14.5448 6.3907 14.5544 6.41627C14.5783 6.4834 14.5815 6.55638 14.5629 6.62563H14.5634ZM15.1121 7.49608C15.1116 7.50886 15.1063 7.52112 15.0983 7.5307C15.0748 7.54296 15.0493 7.54828 15.0232 7.54615C15.0013 7.54615 14.9939 7.54242 14.9891 7.5355C14.9843 7.52857 14.9923 7.51312 14.9923 7.51312C15.0082 7.47903 15.037 7.45293 15.0722 7.44068C15.0823 7.43695 15.094 7.43695 15.1041 7.44068C15.1174 7.45186 15.1105 7.48915 15.1089 7.49555H15.1116L15.1121 7.49608ZM15.2586 7.15248H15.2613C15.2602 7.16473 15.257 7.17592 15.2512 7.18711C15.2474 7.19616 15.2384 7.20255 15.2283 7.20255C15.2123 7.20255 15.2133 7.18338 15.2128 7.18018C15.2128 7.15461 15.2085 7.12851 15.2011 7.104C15.1899 7.0795 15.1356 7.01025 15.1047 7.01291C15.0871 7.01877 15.0722 7.03049 15.061 7.04541C15.0429 7.06938 15.0429 7.07204 15.0365 7.07577C15.0306 7.0795 15.0237 7.07577 15.0216 7.06352C15.0162 7.04594 15.0162 7.02729 15.0216 7.00971C15.0264 6.99107 15.0333 6.97296 15.0423 6.95591C15.0423 6.95591 15.0583 6.91809 15.0642 6.90903C15.0722 6.89465 15.0871 6.88559 15.1036 6.88506C15.1222 6.88453 15.1398 6.89358 15.1499 6.90903C15.1601 6.92075 15.1686 6.93354 15.175 6.94685C15.1846 6.9623 15.1958 6.97669 15.2085 6.99C15.2309 7.01611 15.2469 7.047 15.2565 7.0795C15.2618 7.10347 15.2623 7.12798 15.2575 7.15141L15.2586 7.15248Z" fill="#110F23"/>
</svg>
