<svg width="32" height="32" viewBox="0 0 32 32" fill="none" xmlns="http://www.w3.org/2000/svg">
<g clip-path="url(#clip0_14362_8452)">
<path fill-rule="evenodd" clip-rule="evenodd" d="M29 16C29 23.1797 23.1797 29 16 29C8.8203 29 3 23.1797 3 16C3 8.8203 8.8203 3 16 3C23.1797 3 29 8.8203 29 16ZM9.17816 19.4177H11.0282C11.1603 21.5697 13.3689 23.0988 15.5588 23.0988C17.3144 23.0988 18.0128 22.1549 18.0128 21.0222C18.0128 19.4197 16.3364 18.6718 14.4584 17.8339C12.0667 16.7668 9.34804 15.5539 9.34804 12.2442C9.34804 9.14827 12.1797 6.95846 15.9363 6.95846C19.5608 6.95846 22.4113 8.99722 22.6001 11.9233H20.769C20.6179 10.111 18.4848 8.69519 16.6725 8.69519C15.0491 8.69519 14.3506 9.79011 14.3506 10.7151C14.3506 12.1508 15.9684 12.9061 17.806 13.7641C20.221 14.8917 23.0154 16.1964 23.0154 19.4554C23.0154 22.4758 20.297 24.8167 16.0307 24.8167C11.7455 24.8167 9.32915 22.3059 9.17816 19.4177ZM16.766 15.1905C14.6541 14.2674 12.5761 13.3592 12.5761 11.1493C12.5761 10.3564 12.9159 9.62018 13.3878 9.05388C12.1608 9.43141 11.1791 10.6584 11.1791 12.1876C11.1791 14.4767 13.3584 15.4611 15.5239 16.4392C17.6623 17.4052 19.7873 18.3651 19.7873 20.5692C19.7873 21.362 19.4853 22.1927 19.0889 22.5702C20.2215 22.2493 21.1654 20.9845 21.1654 19.5498C21.1654 17.1134 18.9476 16.144 16.766 15.1905Z" fill="#110F23"/>
</g>
<defs>
<clipPath id="clip0_14362_8452">
<rect width="26" height="26" fill="white" transform="translate(3 3)"/>
</clipPath>
</defs>
</svg>
