<svg width="32" height="32" viewBox="0 0 32 32" fill="none" xmlns="http://www.w3.org/2000/svg">
<path fill-rule="evenodd" clip-rule="evenodd" d="M29 16C29 23.1797 23.1797 29 16 29C8.8203 29 3 23.1797 3 16C3 8.8203 8.8203 3 16 3C23.1797 3 29 8.8203 29 16ZM16.4662 8.15693L19.8767 13.2855L18.8334 13.8671V13.8714L19.8767 13.2923V14.2144L16.4662 16.1073V15.1867L16.4662 15.1867L14.1463 13.8865L14.1426 13.8921L16.4662 15.1949V16.1169L13.0558 14.2048V13.2827L14.0991 13.8677V13.86L13.0558 13.2753L16.4662 8.15693ZM17.0501 14.8612L18.7884 13.8964L18.7864 13.8933L17.0501 14.8612ZM16.4662 14.3596L18.3855 13.2901L16.4662 10.4031V9.48253L16.4662 9.48252L14.0991 13.0335L14.0991 13.0335L16.4662 9.48593V10.4097L14.5478 13.2849L16.4662 14.3596ZM12.4318 14.5739L12.3235 14.7359V14.7374L12.3234 14.7375C11.807 15.5042 11.5546 16.3709 11.5544 17.2331L11.5544 17.2382L11.5544 17.2414V17.2448V18.166V18.1673C11.5542 19.3702 12.0421 20.5643 12.9858 21.4669V21.4456L12.9859 21.4456V21.4592C14.8958 23.2693 17.9943 23.2778 19.9073 21.4783V21.4703C19.9097 21.4681 19.9121 21.4659 19.9144 21.4636V21.456C20.2669 21.1202 20.5555 20.7434 20.7787 20.3404C20.8097 20.2849 20.8394 20.2289 20.8678 20.1725L20.8686 20.1719V20.1695C21.1813 19.5433 21.3408 18.8606 21.3409 18.1742V18.1476L21.341 18.1693V17.2465C21.3412 16.3807 21.0881 15.5088 20.5697 14.736L20.5697 14.7604L20.5697 14.7604V14.7362L20.4614 14.5735V14.5846L16.4466 16.7934V16.8045L12.4318 14.5735V14.5739ZM19.8803 20.5778L19.8683 20.5793C19.2735 21.1292 18.5675 21.5064 17.8199 21.711C18.5722 21.5071 19.2826 21.1295 19.8803 20.5778Z" fill="#110F23"/>
<path fill-rule="evenodd" clip-rule="evenodd" d="M20.8685 19.2588C20.0932 19.8529 18.8641 20.0039 16.6343 18.4719C14.5263 17.0235 12.8772 17.0206 11.5712 17.5199C11.6436 18.6171 12.1259 19.6876 12.993 20.5131C14.9029 22.3285 18.0014 22.3369 19.9144 20.532C20.3155 20.1531 20.6343 19.7215 20.8685 19.2588Z" fill="#110F23"/>
</svg>
