<svg width="32" height="32" viewBox="0 0 32 32" fill="none" xmlns="http://www.w3.org/2000/svg">
<path d="M7.64267 16.9653H4.04267C4.064 17.2427 4.09067 17.5147 4.13333 17.7813H7.776C7.71733 17.5147 7.67467 17.2427 7.64267 16.9653Z" fill="#110F23"/>
<path d="M7.58933 16.0373C7.58933 15.8027 7.60533 15.5733 7.62667 15.3387H4.02133C4.01067 15.5573 4 15.776 4 15.9947C4 16.176 4.00533 16.3573 4.016 16.5387H7.616C7.60533 16.368 7.58933 16.2027 7.58933 16.032V16.0373Z" fill="#110F23"/>
<path d="M5.456 10.2667C5.248 10.6453 5.06133 11.04 4.896 11.4453L7.38667 12.1973L5.456 10.2667Z" fill="#110F23"/>
<path d="M8.79467 11.728L6.176 9.10933C6 9.36 5.82933 9.62133 5.67467 9.88267L8.27733 12.4853L8.06933 12.8373L4.74667 11.8347C4.69867 11.9627 4.656 12.096 4.61333 12.2293L7.696 13.8827L7.59467 14.2773H4.12267C4.09067 14.4907 4.06933 14.704 4.048 14.9227H7.66933C7.824 13.7653 8.21333 12.688 8.79467 11.7333V11.728Z" fill="#110F23"/>
<path d="M4.48 12.64C4.36267 13.04 4.26667 13.4453 4.192 13.856H6.74667L4.47467 12.64H4.48Z" fill="#110F23"/>
<path d="M4.53333 19.5413C4.61333 19.7973 4.704 20.048 4.8 20.2987L6.21333 19.5413H4.53333Z" fill="#110F23"/>
<path d="M10.624 22.4853L8.09067 25.0187C8.29867 25.2 8.50667 25.376 8.72533 25.5413L11.2853 22.9813C11.056 22.8267 10.8373 22.6613 10.624 22.4853Z" fill="#110F23"/>
<path d="M9.47733 21.328L6.93867 23.8613C7.2 24.1653 7.48267 24.4533 7.77067 24.7307L10.304 22.1973C10.0053 21.9253 9.728 21.6373 9.472 21.328H9.47733Z" fill="#110F23"/>
<path d="M10.432 26.6293C10.6453 26.7413 10.8587 26.8427 11.0773 26.944L11.4933 25.568L10.432 26.6293Z" fill="#110F23"/>
<path d="M9.51467 10.6987L6.944 8.128C6.76267 8.336 6.592 8.544 6.42667 8.76267L9.01867 11.3547C9.17333 11.1253 9.33867 10.9067 9.51467 10.6933V10.6987Z" fill="#110F23"/>
<path d="M4.208 18.208C4.26667 18.5173 4.336 18.8213 4.416 19.12H7.05067L7.152 19.5147L4.96 20.6933C5.04 20.88 5.12533 21.0667 5.216 21.2533L7.69067 20.5067L7.89867 20.8587L6.05333 22.704C6.25067 22.992 6.45867 23.2747 6.67733 23.5467L9.232 20.992C8.624 20.1653 8.16533 19.2267 7.89333 18.208H4.208Z" fill="#110F23"/>
<path d="M5.40267 21.632C5.53067 21.872 5.66933 22.1067 5.81333 22.3413L7.00267 21.152L5.40267 21.632Z" fill="#110F23"/>
<path d="M23.5093 6.64C23.2747 6.45333 23.04 6.27733 22.7947 6.10667L20.3147 8.58667L19.9627 8.37867L20.96 5.072C20.7733 4.98667 20.5813 4.90667 20.3893 4.832L18.816 7.76533L18.4213 7.664V4.24533C18.144 4.18667 17.8667 4.144 17.584 4.10667V7.824C18.7947 8.064 19.9147 8.57067 20.8747 9.27467L23.5093 6.64Z" fill="#110F23"/>
<path d="M10.672 9.552L8.096 6.976C7.792 7.24267 7.504 7.52 7.232 7.81333L9.80267 10.384C10.0747 10.0853 10.3627 9.808 10.672 9.552Z" fill="#110F23"/>
<path d="M24.1493 11.4133L24.528 11.552L26.2773 9.80267C26.1173 9.536 25.9467 9.28 25.7653 9.02933L23.9413 10.8533L24.1493 11.4133Z" fill="#110F23"/>
<path d="M21.8293 10.0747L24.4373 7.46667C24.2453 7.27467 24.0427 7.09333 23.8347 6.912L21.2213 9.52533C21.4347 9.696 21.6373 9.87733 21.8347 10.0693L21.8293 10.0747Z" fill="#110F23"/>
<path d="M22.432 5.872C22.08 5.648 21.7173 5.44533 21.344 5.25867L20.608 7.70133L22.432 5.87733V5.872Z" fill="#110F23"/>
<path d="M27.7493 13.5467C27.6747 13.1787 27.5787 12.8107 27.4667 12.4533L25.4347 13.5467H27.7493Z" fill="#110F23"/>
<path d="M25.0613 11.7493L26.9813 11.168C26.832 10.832 26.672 10.5013 26.4907 10.1813L24.96 11.712L25.056 11.7493H25.0613Z" fill="#110F23"/>
<path d="M25.9893 12.0907L24.1547 12.768L23.9147 13.4187C24.0693 13.888 24.1813 14.3733 24.2507 14.8747H27.952C27.9253 14.5653 27.8827 14.2613 27.8293 13.9627H24.5973L24.496 13.568L27.3333 12.048C27.2747 11.8827 27.216 11.7173 27.152 11.5573L25.7227 11.9893L25.9893 12.0907Z" fill="#110F23"/>
<path d="M22.8427 11.2747L23.472 9.57333L23.7867 10.416L25.5147 8.688C25.2693 8.368 25.008 8.064 24.7307 7.77067L22.1173 10.384C22.3787 10.6667 22.624 10.9653 22.8427 11.28V11.2747Z" fill="#110F23"/>
<path d="M13.0027 4.37867C12.5973 4.48533 12.1973 4.608 11.808 4.75733L13.0027 6.98667V4.37867Z" fill="#110F23"/>
<path d="M10.6187 5.27467C10.2133 5.47733 9.81867 5.70667 9.44533 5.952L11.424 7.93067L10.624 5.27467H10.6187Z" fill="#110F23"/>
<path d="M14.2987 7.82933V4.12267C14.0053 4.16533 13.712 4.21867 13.424 4.28267V7.824L13.0293 7.92533L11.4133 4.912C11.2747 4.97067 11.136 5.02933 11.0027 5.09333L12.064 8.61333L11.712 8.82133L9.08267 6.192C8.85333 6.352 8.62933 6.52267 8.41067 6.69867L11.008 9.296C11.968 8.58667 13.0827 8.07467 14.2933 7.82933H14.2987Z" fill="#110F23"/>
<path d="M15.536 4.01067C15.2587 4.02133 14.9867 4.03733 14.72 4.06933V7.76533C14.9867 7.72267 15.2587 7.696 15.536 7.68533V4.01067Z" fill="#110F23"/>
<path d="M17.1627 7.76V4.05867C16.7787 4.02133 16.3947 4 16 4C15.984 4 15.9733 4 15.9573 4V7.664C16.368 7.664 16.7627 7.70133 17.1573 7.76H17.1627Z" fill="#110F23"/>
<path d="M18.8427 4.34133V6.82667L19.9947 4.68267C19.6213 4.54933 19.2373 4.43733 18.8427 4.34133Z" fill="#110F23"/>
<path d="M21.0987 26.864C21.312 26.7627 21.5253 26.656 21.7387 26.544L20.688 25.4933L21.104 26.864H21.0987Z" fill="#110F23"/>
<path d="M18.9973 27.6213C19.2213 27.5627 19.44 27.4987 19.6533 27.4293L18.9973 26.2027V27.6213Z" fill="#110F23"/>
<path d="M14.7627 24.3147V27.936C15.1573 27.9787 15.5627 28 15.968 28V24.416C15.5573 24.416 15.1627 24.3787 14.768 24.32L14.7627 24.3147Z" fill="#110F23"/>
<path d="M20.6773 22.9547L23.2693 25.5467C23.5893 25.3013 23.8987 25.04 24.192 24.768L21.6213 22.1973C21.3227 22.4693 21.0133 22.7307 20.6773 22.9547Z" fill="#110F23"/>
<path d="M16.3893 27.9893C16.6667 27.9787 16.9387 27.968 17.2053 27.9413V24.3093C16.9387 24.352 16.6667 24.3787 16.3893 24.3893V27.9893Z" fill="#110F23"/>
<path d="M17.6267 24.2453V27.888C17.9467 27.8453 18.2667 27.7867 18.576 27.7227V25.3707L18.9707 25.2693L20.0587 27.296C20.2773 27.216 20.496 27.1307 20.7093 27.04L20.0373 24.8107L20.3893 24.6027L22.1173 26.3307C22.3947 26.1653 22.6667 25.9893 22.928 25.8027L20.3147 23.1893C19.4987 23.6853 18.5973 24.0587 17.632 24.2507L17.6267 24.2453Z" fill="#110F23"/>
<path d="M22.7253 20.9547L25.3227 23.552C25.5467 23.2747 25.7653 22.9867 25.9627 22.6827L24.1333 20.8533L24.3413 20.5013L26.7947 21.2427C26.8907 21.0453 26.9813 20.848 27.0613 20.6507L24.8 19.44L24.9013 19.0453H27.6107C27.6853 18.7573 27.7493 18.464 27.8027 18.1653H24.0533C23.7867 19.184 23.3333 20.128 22.7307 20.9547H22.7253Z" fill="#110F23"/>
<path d="M21.9253 21.904L24.496 24.4747C24.688 24.2827 24.8747 24.08 25.0507 23.872L22.4693 21.2907C22.2987 21.504 22.1173 21.7067 21.9253 21.904Z" fill="#110F23"/>
<path d="M26.1973 22.32C26.3413 22.0907 26.4747 21.8613 26.5973 21.6213L25.024 21.1467L26.1973 22.32Z" fill="#110F23"/>
<path d="M27.2213 20.256C27.3227 19.9947 27.408 19.7333 27.4933 19.4613H25.744L27.2213 20.256Z" fill="#110F23"/>
<path d="M13.0027 27.6213V26.2827L12.3787 27.44C12.5813 27.504 12.7893 27.5627 13.0027 27.6213Z" fill="#110F23"/>
<path d="M24.16 17.744H27.872C27.9307 17.3493 27.968 16.944 27.984 16.5387H24.3093C24.2827 16.9493 24.24 17.3547 24.16 17.744Z" fill="#110F23"/>
<path d="M27.9787 15.3013H24.2987C24.32 15.5467 24.336 15.792 24.336 16.0427C24.336 16.0693 24.336 16.096 24.336 16.1227H28C28 16.0853 28 16.0427 28 16.0053C28 15.7707 27.9893 15.536 27.9787 15.3067V15.3013Z" fill="#110F23"/>
<path d="M9.06667 25.792C9.38133 26.016 9.712 26.224 10.048 26.4213L11.792 24.6773L12.144 24.8853L11.472 27.1093C11.6373 27.1787 11.808 27.2427 11.9787 27.3013L13.0293 25.3387L13.424 25.44V27.7173C13.7227 27.7813 14.032 27.84 14.336 27.8827V24.2507C13.3707 24.0587 12.464 23.696 11.648 23.2053L9.06133 25.792H9.06667Z" fill="#110F23"/>
<path d="M11.2693 9.55733C11.152 9.64267 11.04 9.72267 10.928 9.81333C10.6133 10.0693 10.3253 10.3467 10.0533 10.6453C9.95733 10.7467 9.86133 10.848 9.77067 10.96C9.59467 11.1733 9.43467 11.3973 9.28 11.6267C9.2 11.7493 9.13067 11.872 9.056 11.9947C8.688 12.6187 8.40533 13.296 8.21867 14.016C8.656 13.1893 9.76533 12.848 10.1973 12.7147C11.5253 12.304 13.392 12.0747 15.5573 11.808C15.6693 11.792 15.7813 11.7813 15.8933 11.7707L16.3573 8.048C16.224 8.04267 16.096 8.02667 15.9627 8.02667C15.8187 8.02667 15.68 8.04267 15.5413 8.048C15.264 8.064 14.992 8.09067 14.7253 8.13333C14.5867 8.15467 14.4427 8.176 14.304 8.20267C13.1893 8.43733 12.1653 8.912 11.2747 9.55733H11.2693Z" fill="#110F23"/>
<path d="M19.2427 18C19.2373 17.9147 19.1627 17.8507 19.0827 17.8613L16.3253 18.0853L16.4267 16.192H15.344L15.3813 15.904C14.8267 16.9333 13.6267 17.8827 11.1147 18.192C11.024 18.2027 10.928 18.208 10.8373 18.208C10.1333 18.208 9.48267 17.8773 8.97067 17.2533C8.90133 17.168 8.83733 17.0613 8.77333 16.9653C8.68267 16.832 8.60267 16.6933 8.528 16.544C8.34133 16.176 8.20267 15.7653 8.11733 15.3387C8.096 15.2213 8.064 15.104 8.048 14.9867C8.048 14.9653 8.048 14.944 8.048 14.9173C8.048 14.9013 8.048 14.8853 8.048 14.8693C8.048 14.8853 8.04267 14.9013 8.04267 14.9173C8.02133 15.056 8.00533 15.1947 7.98933 15.3387C7.968 15.568 7.952 15.8027 7.952 16.0373C7.952 16.208 7.968 16.3787 7.97867 16.544C7.98933 16.6827 7.99467 16.8267 8.01067 16.9653C8.04267 17.2427 8.09067 17.5147 8.14933 17.7813C8.18133 17.9253 8.21867 18.064 8.256 18.2027C8.51733 19.12 8.93333 19.9733 9.48267 20.7253C9.568 20.8427 9.648 20.9547 9.73867 21.0667C9.99467 21.3813 10.272 21.6693 10.5707 21.9413C10.672 22.0373 10.7733 22.1333 10.8853 22.224C11.0987 22.4 11.3227 22.56 11.552 22.7147C11.6747 22.7947 11.7973 22.864 11.92 22.9387C12.6613 23.376 13.4773 23.7013 14.3467 23.8827C14.4853 23.9093 14.6293 23.9253 14.768 23.9467C15.1627 24.0053 15.5573 24.048 15.968 24.048C15.984 24.048 15.9947 24.048 16.0107 24.048L16.0373 23.584L16.1547 21.3867C17.04 21.3013 17.8453 20.9173 18.4267 20.288C19.024 19.6427 19.3173 18.832 19.248 17.9947L19.2427 18ZM16.1653 21.0827C16.1333 21.0827 16.1067 21.0933 16.0747 21.0987C15.2427 21.168 14.4373 20.9333 13.808 20.448C13.2213 19.9947 12.8533 19.3707 12.7573 18.6827L18.9493 18.1813C18.96 18.592 18.8587 18.9973 18.6827 19.3707H16.9227C16.8587 19.3707 16.8 19.424 16.8 19.4933C16.8 19.5627 16.8533 19.616 16.9227 19.616H18.56C18.4587 19.7867 18.3413 19.952 18.2027 20.1013C17.68 20.6613 16.96 21.008 16.1653 21.0933V21.0827Z" fill="#110F23"/>
<path d="M22.7893 12.768L22.2293 12.56L22.112 12.5173L21.9253 12.448L21.792 12.4H21.776C21.776 12.4 21.7387 12.3893 21.7173 12.384C21.0987 12.2933 20.2613 12.2507 19.168 12.2507C16.9387 12.2507 15.8667 12.352 15.8187 13.1947C15.8187 13.216 15.808 13.232 15.808 13.2533C15.8453 13.4773 15.9413 13.7867 16.096 14.1173C16.112 14.1493 16.1227 14.1867 16.144 14.2187C16.4587 14.832 17.008 15.4987 17.8773 15.8293C18.5707 16.0907 19.3173 16.2293 20.0053 16.288C20.256 16.3093 20.5013 16.32 20.7307 16.32C21.3173 16.32 21.7973 16.256 22.096 16.1653C22.1653 16.144 22.2293 16.1227 22.2773 16.1013C22.6347 15.9253 22.9173 15.1947 23.0453 14.4107C23.088 14.1653 23.1093 13.92 23.12 13.68L23.0933 13.6053L23.0667 13.5253L22.784 12.7627L22.7893 12.768Z" fill="#110F23"/>
<path d="M13.9093 12.6827C13.376 12.7093 12.6827 12.816 11.8187 12.9493C11.04 13.072 10.3253 13.296 9.776 13.568C9.35467 13.776 9.024 14.016 8.85867 14.2667C8.74133 14.4373 8.69867 14.608 8.736 14.7627C8.736 14.816 8.752 14.8693 8.75733 14.9173C8.77333 15.056 8.80533 15.2 8.84267 15.3387C9.104 16.2773 9.78133 17.1627 10.224 17.3387C10.3787 17.4027 10.624 17.44 10.9333 17.44C11.6907 17.44 12.8213 17.2107 13.8187 16.5547C14.3253 16.2187 14.7147 15.744 14.9653 15.2213C15.28 14.5707 15.376 13.8347 15.1787 13.1627C15.168 13.1147 15.136 13.0827 15.1147 13.0453C14.9493 12.736 14.5493 12.6453 13.9093 12.6773V12.6827Z" fill="#110F23"/>
</svg>
