<svg width="32" height="32" viewBox="0 0 32 32" fill="none" xmlns="http://www.w3.org/2000/svg">
<path d="M19.2568 22.1277L15.9259 29L12.4802 22.1277H19.2568ZM16.6645 3C17.0437 3 17.1506 3.23631 17.323 3.55717L25.7489 22.8738C25.9885 23.4237 25.7162 23.5591 25.2222 23.5591L21.7763 23.5575C21.3969 23.5575 21.3075 23.2507 21.1353 22.8725L15.9186 11.0748L10.7018 22.8725C10.5295 23.2507 10.4399 23.5575 10.0607 23.5575L6.61502 23.5591C6.12082 23.5591 5.8485 23.4237 6.08847 22.8738L14.5142 3.55717C14.6864 3.23631 14.7935 3 15.1727 3H16.6645Z" fill="#110F23"/>
</svg>
