<svg width="32" height="32" viewBox="0 0 32 32" fill="none" xmlns="http://www.w3.org/2000/svg">
<path d="M28.4834 19.6333C27.8101 21.9558 26.5015 24.0442 24.7052 25.663C22.9089 27.2819 20.6962 28.3669 18.3164 28.7959V25.0959C19.1938 24.7617 19.9834 24.2317 20.6251 23.5462C20.9818 23.1638 21.2867 22.7362 21.532 22.2744C21.9987 21.3946 22.2402 20.413 22.235 19.4171C22.235 16.1454 19.8734 14.8387 17.6598 13.8684L16.5391 13.3727C15.3405 12.8347 14.4262 12.3569 14.4262 11.5385C14.4342 11.2974 14.4906 11.0602 14.592 10.8413C14.6934 10.6223 14.8377 10.4259 15.0164 10.2638C15.1951 10.1017 15.4046 9.97709 15.6324 9.89747C15.8602 9.81785 16.1017 9.78479 16.3425 9.80027C16.8006 9.78258 17.253 9.90722 17.6375 10.1571C18.0219 10.4069 18.3196 10.7697 18.4895 11.1956L18.9494 11.9936L21.9115 10.0928L21.5247 9.37607C20.8453 8.08074 19.6981 7.09278 18.3164 6.61308V3.21784C18.6049 3.26741 18.8852 3.32999 19.177 3.40394L19.268 3.42507C19.3002 3.4311 19.3319 3.43925 19.3631 3.44945C19.3728 3.45059 19.3824 3.45305 19.3915 3.45676C19.4728 3.47789 19.55 3.49577 19.6304 3.52015C22.9408 4.48341 25.7331 6.722 27.3933 9.74364C29.0534 12.7653 29.4455 16.3226 28.4834 19.6333Z" fill="#110F23"/>
<path d="M18.5987 19.5942C18.5704 20.2557 18.2828 20.8795 17.7981 21.3305C17.3134 21.7816 16.6707 22.0237 16.0088 22.0045C15.3719 21.9829 14.7649 21.7291 14.3021 21.291C13.8393 20.8529 13.5527 20.2607 13.4961 19.6259L13.3555 18.6312L9.77178 19.6422L9.93431 20.4434C10.1337 21.6185 10.6745 22.709 11.4894 23.5788C12.3043 24.4486 13.3572 25.0593 14.5168 25.3348V28.9153C13.8809 28.841 13.2513 28.7201 12.6331 28.5536C12.5453 28.5325 12.4608 28.5081 12.3731 28.4838C9.67143 27.6972 7.29763 26.056 5.6077 23.8062C3.91776 21.5564 3.00278 18.8194 3 16.0056V3.51278C3.00021 3.37685 3.05431 3.24655 3.15043 3.15043C3.24655 3.05431 3.37685 3.00021 3.51278 3H14.5152V6.57564C13.2289 6.94974 12.1335 7.79968 11.4515 8.95263C11.0133 9.71954 10.7854 10.5886 10.7908 11.4718V11.5417C10.8258 14.4583 12.9695 15.6781 14.9938 16.5947L16.0023 17.0352L16.0836 17.0742C17.6918 17.8064 18.5987 18.2891 18.5987 19.5942Z" fill="#110F23"/>
</svg>
