<svg width="32" height="32" viewBox="0 0 32 32" fill="none" xmlns="http://www.w3.org/2000/svg">
<path d="M28.8084 16.4963C28.924 16.416 29.0148 16.2847 28.998 16.1431C28.9737 15.9333 28.9338 15.7257 28.861 15.5269C28.7893 15.3315 28.7026 15.158 28.5731 14.9956C28.524 14.9343 28.4725 14.8875 28.4135 14.8401C28.413 14.8389 28.4107 14.8372 28.4055 14.832C28.3962 14.8233 28.3893 14.8123 28.3858 14.8071C28.3818 14.7967 28.3777 14.7857 28.376 14.7817C28.3673 14.7528 28.3609 14.7233 28.3546 14.6938C28.3407 14.6285 28.332 14.562 28.3222 14.4961C28.2985 14.34 28.2632 14.1949 28.1921 14.0527C28.1436 13.9562 28.0736 13.8689 27.9904 13.7972C27.9921 13.6839 27.9557 13.57 27.8667 13.4983C27.6383 13.3133 27.4291 13.1023 27.2261 12.8902C27.1256 12.7844 27.0267 12.6774 26.929 12.5682C26.8989 12.5346 26.8689 12.5 26.8388 12.4659C26.8342 12.4607 26.8313 12.4572 26.8278 12.4531C26.781 12.3907 26.7377 12.3248 26.6972 12.2577C26.6157 12.1242 26.544 11.9843 26.4769 11.8427C26.4607 11.8086 26.4446 11.7669 26.4214 11.7334C26.4243 11.7363 26.4272 11.7392 26.4301 11.7421C26.4191 11.7178 26.4081 11.6935 26.3977 11.6692C26.3868 11.6444 26.3763 11.6201 26.3654 11.5952C26.3561 11.5733 26.3509 11.5611 26.3498 11.5588C26.3457 11.549 26.3417 11.5392 26.3376 11.5293C26.1023 10.9622 25.9017 10.3778 25.6214 9.83033C25.3473 9.29501 24.9716 8.82676 24.4027 8.5961C24.2276 8.52499 24.031 8.48222 23.8345 8.47586C23.6842 8.19028 23.4876 7.91973 23.2512 7.70873C23.1546 7.62259 23.0477 7.55206 22.935 7.49252C22.9338 7.41968 22.9159 7.34453 22.8835 7.27111C22.7875 7.05375 22.6159 6.87627 22.4343 6.72423C22.4494 6.63174 22.454 6.53924 22.4297 6.44559C22.3262 6.04555 21.8915 5.97849 21.5418 5.9652C21.3978 5.96 21.2544 5.96346 21.1105 5.96924C21.0995 5.93456 21.0839 5.8993 21.0625 5.86288C20.9087 5.60331 20.5995 5.62181 20.3393 5.62586C20.0537 5.63048 19.7699 5.63048 19.4918 5.69696C19.5664 5.58712 19.6103 5.47324 19.5687 5.32005C19.4866 5.01828 19.1669 4.94139 18.9149 5.06279C18.7293 5.15182 18.538 5.2501 18.3628 5.35762C18.2767 5.41023 18.1975 5.46977 18.1229 5.53336C18.09 5.3715 17.9784 5.2316 17.8021 5.18419C17.6298 5.13795 17.4685 5.20501 17.328 5.29923C17.1552 5.41543 16.991 5.54781 16.8459 5.69754C16.7985 5.7461 16.7523 5.79697 16.7077 5.849C16.6696 5.79466 16.6303 5.74148 16.5875 5.68887C16.4482 5.51602 16.269 5.33045 16.0499 5.26513C15.8522 5.20616 15.6666 5.27495 15.5516 5.40734C15.5105 5.3952 15.47 5.3819 15.4296 5.36687C15.3972 5.35473 15.3648 5.34201 15.3325 5.3293C15.3197 5.32409 15.307 5.31889 15.2949 5.31369C15.1735 5.25992 15.0503 5.19865 14.9243 5.15702C14.7815 5.1102 14.6295 5.13563 14.5139 5.21252C14.4121 5.1709 14.3034 5.15413 14.1919 5.18535C14.0179 5.23449 13.9086 5.37323 13.8762 5.53394C13.7092 5.4004 13.5242 5.29634 13.3317 5.19402C13.1132 5.07782 12.8831 4.9096 12.6299 5.05875C12.4125 5.18651 12.3582 5.46457 12.4859 5.67326C12.4917 5.68251 12.4981 5.69234 12.505 5.70159C12.4061 5.67615 12.305 5.65592 12.1998 5.64378C11.9414 5.61372 11.661 5.61025 11.4008 5.62644C11.2546 5.63511 11.1164 5.66401 11.0077 5.77154C10.9511 5.82761 10.9124 5.8964 10.8921 5.96924C10.8615 5.96809 10.8308 5.96635 10.8008 5.96578C10.4539 5.95595 9.98394 5.923 9.71801 6.18776C9.57002 6.33518 9.53823 6.52421 9.56597 6.72019C9.53534 6.74447 9.50527 6.76875 9.47637 6.79534C9.39486 6.87049 9.32607 6.95663 9.25901 7.04508C9.20524 7.1156 9.15206 7.1896 9.11622 7.27169C9.08442 7.34453 9.06592 7.41968 9.06477 7.4931C8.95204 7.55264 8.84509 7.62317 8.74855 7.7093C8.51211 7.92031 8.31556 8.19086 8.16525 8.47586C7.86638 8.48568 7.56462 8.58165 7.31661 8.7308C6.6281 9.14471 6.30495 9.93728 6.0159 10.6478C5.93613 10.8443 5.85924 11.042 5.78062 11.2397C5.73958 11.3432 5.69795 11.4467 5.65517 11.5496C5.65517 11.5507 5.64997 11.5623 5.64535 11.5721C5.63899 11.5866 5.62858 11.6114 5.62685 11.6149C5.60315 11.6698 5.57829 11.7247 5.55343 11.7791C5.55343 11.7802 5.55227 11.7814 5.5517 11.7825C5.48232 11.8854 5.43954 12.0184 5.37885 12.1277C5.31988 12.2346 5.25571 12.3393 5.18345 12.4381C5.17825 12.4445 5.15512 12.4734 5.14876 12.4809C5.12333 12.5104 5.09731 12.5393 5.0713 12.5688C5.02043 12.626 4.9684 12.6826 4.91637 12.7387C4.83139 12.8306 4.74468 12.922 4.65681 13.011C4.48974 13.1804 4.31862 13.348 4.13363 13.4983C4.04981 13.5665 4.00819 13.6851 4.00761 13.8013C3.95211 13.8504 3.90355 13.9047 3.85904 13.9683C3.6885 14.2134 3.70353 14.4955 3.62722 14.7696C3.62433 14.7794 3.6226 14.7869 3.62029 14.7933C3.62433 14.7817 3.62954 14.7713 3.633 14.7719C3.63416 14.7719 3.62664 14.7852 3.61797 14.7996C3.61624 14.806 3.61508 14.81 3.61393 14.8129C3.61393 14.8129 3.61393 14.8135 3.61335 14.8141C3.6145 14.8112 3.61566 14.8066 3.6174 14.8014C3.61277 14.8089 3.60872 14.8164 3.6041 14.8233C3.60121 14.8262 3.5989 14.8285 3.59601 14.8308C3.56537 14.8551 3.51796 14.8938 3.50178 14.9095C3.37806 15.0297 3.28326 15.1829 3.21504 15.3401C3.10289 15.5991 3.03468 15.8622 3.00173 16.1425C2.9867 16.2726 3.07168 16.4131 3.1844 16.4957C3.12948 16.6322 3.08728 16.7726 3.06474 16.9166C3.03063 17.1357 3.03352 17.3548 3.16012 17.5467C3.20059 17.6086 3.25088 17.6652 3.30233 17.7196C3.30407 17.7236 3.30638 17.7271 3.30754 17.73C3.30985 17.7398 3.31274 17.749 3.31563 17.7583C3.31447 17.8132 3.31679 17.8681 3.31216 17.9231C3.30927 17.9566 3.30523 17.9901 3.30118 18.0231C3.29887 18.0369 3.29366 18.0722 3.29135 18.0872C3.2821 18.1433 3.27227 18.1988 3.26071 18.2543C3.21735 18.4688 3.11561 18.7017 3.23528 18.9099C3.31043 19.0417 3.45842 19.1255 3.60988 19.1243C3.66827 19.1243 3.71856 19.1133 3.76365 19.0948C3.7862 19.1035 3.80932 19.1099 3.83302 19.1145C3.80065 19.1006 3.79545 19.0816 3.80817 19.0844C3.80874 19.0862 3.81106 19.0885 3.81568 19.0925C3.81973 19.096 3.82898 19.1029 3.83823 19.1093C3.84054 19.1116 3.84285 19.1139 3.84516 19.1168C3.84748 19.1168 3.84979 19.118 3.8521 19.118C3.8573 19.1209 3.86135 19.1232 3.86424 19.1238C3.8573 19.1226 3.85268 19.1209 3.8469 19.1191C3.86193 19.1353 3.87696 19.1521 3.89199 19.1677C3.8943 19.1712 3.89604 19.1752 3.89893 19.1798C3.91858 19.2128 3.94113 19.2446 3.9602 19.2781C4.00934 19.3625 4.05154 19.451 4.09143 19.5406C4.17294 19.7244 4.27064 19.8828 4.40013 20.0383C4.68224 20.3776 5.11119 20.6511 5.53956 20.7661C5.56499 20.7731 5.59158 20.7765 5.61875 20.7783C5.70142 20.8933 5.79334 21.002 5.89855 21.0922C6.14424 21.3032 6.4593 21.4564 6.76511 21.5593C6.92004 21.6119 7.07902 21.6396 7.24031 21.624C7.36402 21.7292 7.50218 21.8188 7.64266 21.8992C7.71723 21.942 7.79701 21.983 7.8791 22.0079C7.88893 22.0108 7.89875 22.0125 7.90858 22.0148C7.91841 22.0171 7.93228 22.0206 7.94731 22.0235C7.95425 22.0269 7.96119 22.0304 7.96813 22.0339C8.07796 22.0963 8.17971 22.1709 8.28839 22.2351C8.65259 22.4489 9.06361 22.5669 9.47926 22.6386C9.48215 22.6559 9.48504 22.6732 9.48851 22.69C9.49024 22.6987 9.4914 22.7079 9.49313 22.7166C9.49776 22.7397 9.50354 22.7629 9.50874 22.786C9.51221 22.8022 9.51568 22.8183 9.51973 22.8345C9.52724 22.8663 9.53534 22.8975 9.54401 22.9293C9.54979 22.9507 9.55615 22.9727 9.56251 22.9941C9.56713 23.0103 9.57118 23.0265 9.57638 23.0421C9.57927 23.0507 9.58216 23.0588 9.58505 23.0675C9.59488 23.0976 9.60471 23.1276 9.61569 23.1577C9.62032 23.171 9.62494 23.1843 9.62956 23.1976C9.64344 23.2352 9.65789 23.2722 9.67292 23.3091C9.67697 23.3184 9.68044 23.3282 9.68448 23.3375C9.69836 23.371 9.71397 23.404 9.729 23.4369C9.73536 23.4508 9.74171 23.4647 9.74807 23.4785C9.75964 23.5028 9.77235 23.5265 9.78507 23.5508C9.7949 23.5699 9.80415 23.5889 9.81455 23.608C9.8978 23.7601 10.0019 23.9242 10.1331 24.0399C10.1435 24.0491 10.1545 24.0572 10.1655 24.0659C10.1741 24.0977 10.1828 24.1295 10.1932 24.1607C10.2707 24.3919 10.3799 24.6104 10.5071 24.8185C10.6216 25.0087 10.7522 25.1885 10.8904 25.362C10.8915 25.3631 10.8921 25.3643 10.8933 25.366C10.895 25.3683 10.8973 25.3706 10.8991 25.3729C10.928 25.4088 10.9563 25.4446 10.9858 25.4799C11.0667 25.5776 11.1511 25.6724 11.232 25.7695C11.2424 25.7822 11.2528 25.795 11.2633 25.8077C11.2667 25.8117 11.2702 25.8158 11.2737 25.8198C11.2974 25.8562 11.3234 25.8915 11.3453 25.9291C11.3471 25.932 11.3482 25.9354 11.35 25.9389C11.3477 25.9765 11.3534 25.9909 11.3575 25.9903C11.3558 25.9753 11.354 25.9603 11.3529 25.9447C11.3534 25.9458 11.354 25.947 11.3546 25.9481C11.3546 25.9487 11.3546 25.9493 11.3552 25.9505C11.3563 25.9539 11.3563 25.9568 11.3575 25.9603C11.3581 25.9701 11.3586 25.9794 11.3592 25.9892C11.3592 25.9903 11.3581 25.9903 11.3575 25.9909C11.3575 25.9944 11.3586 25.9984 11.3586 26.0019C11.3604 26.0204 11.3621 26.0389 11.3644 26.0568C11.3673 26.0892 11.3714 26.121 11.3795 26.1534C11.4193 26.3164 11.5367 26.4534 11.702 26.4979C11.8333 26.5332 11.9541 26.5066 12.0512 26.4413C12.0541 26.4389 12.0576 26.4366 12.0604 26.4349C12.0703 26.4285 12.0789 26.421 12.0882 26.4135C12.2807 26.2615 12.3206 25.9695 12.3137 25.7007C12.4009 25.7458 12.4998 25.7666 12.6119 25.7504C12.6154 25.7504 12.6189 25.7499 12.6224 25.7493C12.6368 25.747 12.6507 25.7441 12.6651 25.7406C12.6669 25.7406 12.6692 25.74 12.6709 25.7395C12.6738 25.7389 12.6767 25.7377 12.6796 25.7366C12.7715 25.7111 12.8547 25.6464 12.9126 25.5631C12.9334 25.5337 12.9507 25.5019 12.964 25.4683C13.116 25.6302 13.2825 25.7788 13.4589 25.9094C13.5641 25.9875 13.6941 26.0747 13.8236 26.1019C13.9543 26.1291 14.0705 26.1042 14.1612 26.047C14.2375 26.0782 14.3289 26.0817 14.4156 26.062C14.463 26.0932 14.5098 26.1256 14.559 26.1539C14.7052 26.2389 14.874 26.3095 15.0451 26.262C15.1255 26.3141 15.218 26.3447 15.3215 26.3384C15.3885 26.3343 15.4521 26.3222 15.5122 26.295C15.6036 26.3152 15.6926 26.3112 15.7724 26.2858C15.8441 26.3222 15.921 26.3436 16.0019 26.3401C16.0765 26.3366 16.1464 26.3181 16.2112 26.2886C16.258 26.3048 16.3089 26.3135 16.3644 26.3123C16.4106 26.3112 16.4516 26.3048 16.491 26.295C16.6557 26.3702 16.813 26.3424 16.9476 26.2586C16.9511 26.2597 16.9546 26.2615 16.9586 26.2626C17.1286 26.3123 17.3009 26.2389 17.4454 26.1551C17.4893 26.1297 17.5321 26.1008 17.5743 26.073C17.5795 26.0695 17.5853 26.0661 17.5905 26.0632C17.676 26.0823 17.7662 26.0788 17.842 26.0482C17.9327 26.106 18.0495 26.1314 18.1813 26.1037C18.2859 26.0811 18.3981 26.014 18.4865 25.9533C18.6906 25.8134 18.8715 25.6452 19.0398 25.4654C19.0438 25.4753 19.0479 25.4857 19.0525 25.4955C19.0594 25.5117 19.0669 25.5273 19.0756 25.5412C19.0918 25.5666 19.1109 25.5897 19.1311 25.6123C19.134 25.6152 19.1363 25.6181 19.1392 25.6209C19.1531 25.6354 19.1675 25.6487 19.1831 25.6614C19.186 25.6637 19.1883 25.666 19.1912 25.6683C19.2097 25.6822 19.2282 25.6955 19.249 25.7065C19.2762 25.7215 19.3051 25.7331 19.3346 25.7406C19.3519 25.7447 19.3687 25.7481 19.3855 25.7504C19.3907 25.751 19.3959 25.7522 19.4017 25.7527C19.5098 25.7666 19.6057 25.7464 19.6907 25.7025C19.6878 25.8637 19.7028 26.0227 19.7526 26.1701C19.7554 26.1782 19.7583 26.1857 19.7612 26.1938C19.7635 26.1996 19.7653 26.2048 19.7676 26.2106C19.7751 26.2291 19.7844 26.247 19.7936 26.2644C19.8341 26.3418 19.8901 26.41 19.9693 26.4551C20.0983 26.5286 20.2468 26.5291 20.3717 26.4707C20.3763 26.4684 20.3809 26.4667 20.3856 26.4644C20.3983 26.458 20.4104 26.4511 20.422 26.4436C20.522 26.3817 20.5943 26.2817 20.6261 26.1591C20.6382 26.1123 20.6428 26.0649 20.6457 26.0175C20.6457 26.0169 20.6457 26.0164 20.6457 26.0158C20.6474 25.9973 20.6538 25.9666 20.655 25.9424C20.6665 25.9216 20.6787 25.9013 20.6914 25.8811C20.6983 25.8707 20.7053 25.8609 20.7122 25.851C20.7197 25.8406 20.7266 25.8302 20.7347 25.8198C20.7388 25.8152 20.7423 25.8106 20.7463 25.8054C20.7469 25.8048 20.7475 25.8036 20.7486 25.803C20.7902 25.7527 20.8324 25.703 20.8752 25.6539C20.8804 25.6475 20.8862 25.6412 20.8914 25.6348C20.9249 25.5961 20.9585 25.5568 20.9914 25.5169C21.0059 25.4995 21.0209 25.4828 21.0348 25.466C21.0585 25.4371 21.0816 25.4082 21.1053 25.3787C21.1145 25.3666 21.1244 25.355 21.1342 25.3429C21.1371 25.3388 21.1406 25.3348 21.1434 25.3307C21.2683 25.1735 21.3862 25.0105 21.4903 24.8388C21.6342 24.6006 21.7684 24.3416 21.8389 24.0693C21.851 24.0607 21.8626 24.0526 21.8742 24.0422C21.8898 24.0283 21.9048 24.0138 21.9198 23.9988C21.9239 23.9948 21.9279 23.9901 21.932 23.9861C21.9401 23.9774 21.9482 23.9688 21.9562 23.9595C21.9742 23.9393 21.9915 23.9179 22.0083 23.8965C22.0782 23.8075 22.1383 23.7086 22.191 23.6138C22.191 23.6126 22.1921 23.6115 22.1927 23.6109C22.1938 23.6086 22.195 23.6063 22.1962 23.604C22.3499 23.3276 22.4534 23.0178 22.5153 22.7097C22.5199 22.6865 22.5245 22.6634 22.5291 22.6403C22.8806 22.5779 23.2228 22.4813 23.55 22.327C23.7327 22.2408 23.8998 22.1241 24.0738 22.0212C24.0761 22.0212 24.0778 22.0206 24.0802 22.02C24.0842 22.02 24.0883 22.0188 24.0923 22.0183C24.1565 22.0032 24.2143 21.9784 24.2756 21.9489C24.4548 21.8622 24.6149 21.7529 24.7588 21.6252C24.8958 21.6402 25.0277 21.6234 25.1641 21.5853C25.4433 21.5084 25.7416 21.3696 25.9752 21.1985C26.1353 21.0812 26.2694 20.9384 26.3856 20.7811C26.4128 20.7794 26.4399 20.7754 26.4677 20.7684C26.8961 20.6534 27.325 20.38 27.6071 20.0406C27.7366 19.8851 27.8337 19.7267 27.9152 19.5429C27.9545 19.4533 27.9973 19.3654 28.0465 19.2804C28.0632 19.2515 28.0811 19.2226 28.0996 19.1949C28.1066 19.1845 28.1141 19.174 28.121 19.1636C28.1343 19.1498 28.147 19.1359 28.1598 19.122C28.1546 19.1238 28.1494 19.1255 28.143 19.1266C28.1453 19.1266 28.1499 19.1238 28.1557 19.1209C28.158 19.1209 28.1598 19.1197 28.1621 19.1197C28.1638 19.118 28.1655 19.1157 28.1679 19.1139C28.1783 19.107 28.1887 19.0995 28.1921 19.096C28.1945 19.0937 28.1956 19.092 28.1962 19.0908C28.2101 19.085 28.2031 19.1041 28.1725 19.118C28.1968 19.1133 28.2205 19.1064 28.2436 19.0977C28.2887 19.1157 28.3396 19.1266 28.3979 19.1272C28.5494 19.1284 28.6968 19.044 28.7725 18.9128C28.8916 18.7052 28.7899 18.4711 28.7471 18.2572C28.7332 18.1896 28.7222 18.1213 28.7107 18.0531C28.7095 18.0456 28.7084 18.0404 28.7078 18.0358C28.7078 18.034 28.7078 18.0317 28.7072 18.0288C28.7043 18.0011 28.7003 17.9728 28.698 17.945C28.6922 17.8832 28.6933 17.8225 28.6928 17.7606C28.6962 17.7502 28.6991 17.7398 28.702 17.7288C28.7032 17.7271 28.7043 17.7253 28.7055 17.7236C28.7072 17.7213 28.709 17.7196 28.7113 17.7173C28.7708 17.6514 28.8315 17.5843 28.8754 17.5068C29.0194 17.2519 28.9679 16.9455 28.8858 16.6802C28.8656 16.6183 28.8425 16.5582 28.8176 16.4986L28.8084 16.4963ZM22.4118 6.83638C22.4129 6.83176 22.4135 6.82713 22.4147 6.82251C22.4072 6.92483 22.4043 6.87107 22.4118 6.83638ZM22.417 6.81153C22.417 6.81153 22.4181 6.8069 22.4181 6.80517C22.4251 6.84448 22.4181 6.83523 22.417 6.81153ZM20.5821 5.98254C20.5775 5.98254 20.5734 5.98254 20.5688 5.98196C20.5492 5.97445 20.5486 5.96809 20.5821 5.98254ZM16.2938 5.64725C16.2909 5.64204 16.2886 5.63742 16.2857 5.63222C16.2794 5.60447 16.2886 5.59233 16.2938 5.64725ZM13.2276 5.22639C13.2276 5.22639 13.2259 5.22408 13.2247 5.22235C13.2189 5.21252 13.2213 5.21425 13.2276 5.22639ZM12.5715 5.78599C12.5778 5.79408 12.5836 5.80275 12.59 5.81085C12.594 5.81663 12.5987 5.82299 12.6039 5.82992C12.6079 5.83744 12.5992 5.82992 12.5628 5.77501C12.5657 5.77847 12.5692 5.78252 12.5721 5.78599H12.5715ZM11.4789 5.97849C11.4546 5.97503 11.4234 5.98254 11.3985 5.98312C11.3974 5.98312 11.3962 5.98312 11.3956 5.98312C11.3997 5.97792 11.4257 5.9704 11.4795 5.97849H11.4789ZM9.57407 6.7884C9.5758 6.79996 9.57811 6.81095 9.58043 6.82251C9.58043 6.82367 9.58043 6.82482 9.58043 6.82598C9.58043 6.8254 9.58043 6.82482 9.58043 6.82367C9.58332 6.83985 9.58621 6.85604 9.59141 6.87049C9.57291 6.8121 9.57176 6.78956 9.57407 6.78782V6.7884ZM9.03644 8.03015C9.10466 7.9654 9.18732 7.91048 9.27924 7.86481C9.44515 7.78214 9.64228 7.72665 9.83826 7.68907C9.85097 7.68676 9.86311 7.68445 9.87583 7.68213C10.0568 7.64918 10.2348 7.63126 10.3863 7.61854C10.7875 7.58559 10.9991 7.59426 10.5603 7.49021C10.499 7.47576 10.4418 7.46362 10.3874 7.45263C10.2759 7.43066 10.1776 7.41563 10.0909 7.40696C9.76599 7.37343 9.60702 7.42084 9.53707 7.45668C9.50643 7.47229 9.49256 7.48558 9.48909 7.48963C9.49082 7.48558 9.49949 7.46708 9.51452 7.43934C9.5336 7.40407 9.56424 7.35378 9.60702 7.29597C9.67581 7.2029 9.77582 7.09132 9.91341 6.9942C9.92786 6.9838 9.94 6.97339 9.95041 6.96299C10.1666 6.75256 9.71281 6.46814 10.2944 6.4086C10.5106 6.38663 10.769 6.39588 10.9973 6.4057C11.0638 6.4086 11.128 6.41149 11.1875 6.41322C11.5026 6.4242 11.6991 6.41553 11.5165 6.27621C11.2239 6.05307 11.1858 6.05018 11.7269 6.05943C11.7824 6.06058 11.8442 6.06116 11.9125 6.06232C11.9448 6.06232 11.9778 6.06347 12.013 6.06347C12.3177 6.06694 12.5732 6.16002 12.7686 6.24442C12.7703 6.245 12.7721 6.24615 12.7738 6.24673C12.775 6.24673 12.7755 6.24731 12.7767 6.24789C12.779 6.24904 12.7813 6.24962 12.7836 6.25078C13.1103 6.39356 13.2623 6.50282 13.1837 6.09758C13.1837 6.09469 13.1825 6.09238 13.1819 6.08949C13.1715 6.03862 13.1582 5.99006 13.1432 5.94496C13.1432 5.94439 13.1432 5.94381 13.1426 5.94323C13.1426 5.9415 13.1415 5.94034 13.1409 5.93861C13.1409 5.93745 13.1403 5.93687 13.1397 5.93572C13.1218 5.88311 13.1016 5.83397 13.0796 5.78888C12.89 5.39693 12.6125 5.30906 13.2097 5.62008C13.2421 5.63684 13.2762 5.65476 13.3143 5.67384C13.4057 5.72066 13.4878 5.77501 13.5629 5.83397C13.7901 6.01376 13.9462 6.23806 14.0606 6.42998C14.0757 6.45484 14.0896 6.47912 14.1028 6.50225C14.2844 6.81962 14.3514 7.00808 14.4572 6.65602C14.4786 6.58549 14.4884 6.51439 14.4913 6.44386C14.4931 6.39588 14.4913 6.34847 14.4873 6.30165C14.4855 6.28488 14.4838 6.2687 14.4815 6.25193C14.4682 6.15423 14.4439 6.06174 14.4168 5.97849C14.341 5.74437 14.2468 5.58423 14.3243 5.60158C14.3566 5.60909 14.4202 5.64782 14.5277 5.72587C14.5757 5.76055 14.6208 5.79697 14.6648 5.83397C14.7255 5.88484 14.7815 5.93745 14.8341 5.99121C14.8509 6.00855 14.8677 6.02532 14.8839 6.04266C14.8995 6.05943 14.9151 6.07561 14.9301 6.09238C15.0885 6.27043 15.2041 6.44559 15.2781 6.5722C15.3197 6.64272 15.3481 6.6988 15.3637 6.73117C15.3648 6.7225 15.3735 6.65718 15.3706 6.56063C15.3677 6.47334 15.355 6.36119 15.318 6.24153C15.2758 6.10336 15.2012 5.95537 15.0735 5.82703C15.0365 5.79004 14.9948 5.75419 14.948 5.72124C14.5624 5.44607 14.8284 5.58423 15.1399 5.71488C15.1596 5.72298 15.1793 5.73107 15.1989 5.73916C15.2833 5.77385 15.3689 5.80564 15.4429 5.82703H15.444C15.5267 5.85131 15.5874 5.86519 15.6354 5.87791C15.755 5.9097 15.7886 5.93109 15.84 6.06405C15.8446 6.07561 15.8493 6.08775 15.8539 6.10105C15.8643 6.13053 15.8759 6.16348 15.8897 6.20279C15.8961 6.22187 15.903 6.2421 15.9105 6.26349C15.9736 6.44791 16.0296 6.48086 16.0504 6.41842C16.0684 6.36466 16.0603 6.24037 16.0077 6.08082C16.0019 6.06232 15.9949 6.04382 15.988 6.02416C15.9672 5.96924 15.9418 5.91086 15.9105 5.85074C15.7724 5.58423 15.9591 5.63337 16.1996 5.8993C16.2227 5.92473 16.2458 5.9519 16.2695 5.98081C16.3239 6.04787 16.3794 6.12475 16.4343 6.21031C16.4534 6.23979 16.4719 6.27043 16.4904 6.30223C16.5239 6.36061 16.5569 6.42305 16.5881 6.48779C16.6158 6.5456 16.6418 6.60515 16.6661 6.66816C16.6887 6.62654 16.7193 6.5722 16.7575 6.51034C16.8066 6.43114 16.8684 6.33922 16.9436 6.2421C16.9951 6.17562 17.0534 6.10683 17.1176 6.03804C17.1824 5.96867 17.254 5.89987 17.3321 5.83397C17.376 5.79697 17.4211 5.76055 17.4691 5.72587C17.8408 5.45705 17.6818 5.65303 17.5737 5.99931C17.5494 6.07677 17.5281 6.16233 17.5159 6.25135C17.5136 6.2687 17.5113 6.28604 17.5096 6.30338C17.5049 6.34963 17.5038 6.39703 17.5055 6.44444C17.5084 6.51439 17.5182 6.58491 17.5396 6.65544C17.646 7.00866 17.713 6.81731 17.8963 6.49704C17.9096 6.47392 17.9235 6.45022 17.9379 6.42594C18.0524 6.23459 18.2079 6.01145 18.4333 5.83281C18.5085 5.77327 18.5906 5.71835 18.6825 5.6721C18.7201 5.65303 18.7542 5.63511 18.7871 5.61834C19.3843 5.30733 19.1068 5.3952 18.9172 5.78715C18.8952 5.83224 18.8744 5.88195 18.8565 5.93514C18.8565 5.93572 18.8565 5.93629 18.8559 5.93687C18.8559 5.93861 18.8548 5.93976 18.8542 5.9415C18.8542 5.94265 18.853 5.94439 18.853 5.94554C18.838 5.99063 18.8253 6.03746 18.8149 6.08775C18.8149 6.09064 18.8137 6.09296 18.8137 6.09527C18.7345 6.50109 18.8866 6.39125 19.2138 6.24904C19.2155 6.24846 19.2167 6.24789 19.2184 6.24731C19.2207 6.24615 19.223 6.24557 19.2248 6.24442C19.2259 6.24442 19.2276 6.24326 19.2288 6.24268C19.4242 6.15828 19.6797 6.06521 19.9844 6.06174C20.0202 6.06174 20.0543 6.06116 20.0873 6.06058C20.1925 6.05885 20.2827 6.05711 20.3584 6.05596C20.5185 6.05365 20.6151 6.05365 20.6602 6.06521C20.6972 6.07446 20.6995 6.09064 20.674 6.11839C20.644 6.15134 20.5758 6.20106 20.4804 6.2739C20.4567 6.29182 20.4399 6.30801 20.4283 6.32188C20.3977 6.35888 20.4075 6.382 20.448 6.39588C20.5023 6.41495 20.6128 6.41669 20.7521 6.41322C20.8232 6.41149 20.9024 6.40802 20.9856 6.40397C21.218 6.39414 21.4822 6.38432 21.703 6.40628C22.2852 6.46583 21.8308 6.75025 22.0476 6.96067C22.0586 6.97108 22.0701 6.98149 22.0846 6.99131C22.2216 7.08843 22.3222 7.2 22.391 7.29308C22.4338 7.35089 22.4644 7.40118 22.484 7.43645C22.4997 7.46419 22.5077 7.48269 22.5095 7.48674C22.506 7.48269 22.4916 7.4694 22.4615 7.45379C22.391 7.41795 22.2326 7.37054 21.9088 7.40407C21.8221 7.41274 21.7233 7.42777 21.6117 7.44974C21.5574 7.46072 21.5001 7.47286 21.4389 7.48732C20.9995 7.59137 21.2111 7.5827 21.6129 7.61565C21.7643 7.62837 21.9424 7.64629 22.1233 7.67924C22.136 7.68156 22.1488 7.68387 22.1609 7.68618C22.3569 7.72376 22.5534 7.77868 22.7199 7.86192C22.8118 7.90759 22.8945 7.96251 22.9627 8.02726C23.276 8.32671 23.4651 8.66663 23.5749 8.92619C23.6628 9.13546 23.6998 9.29155 23.709 9.33606C23.709 9.33779 23.7096 9.33953 23.7102 9.34068C23.7102 9.34068 23.7102 9.34126 23.7102 9.34184C23.7102 9.34184 23.7102 9.343 23.7102 9.34357C23.7102 9.343 23.7096 9.34184 23.709 9.34068C23.709 9.33953 23.7079 9.33779 23.7073 9.33606C23.6824 9.26553 23.5362 8.91983 23.0043 8.76779C22.9627 8.75623 22.9199 8.74525 22.8737 8.736C22.7962 8.72039 22.7471 8.71172 22.7216 8.71056C22.6309 8.70594 22.8442 8.79496 23.1228 8.9892C23.2587 9.08401 23.4102 9.20425 23.5489 9.35051C23.5489 9.35051 23.5489 9.35051 23.5495 9.35051C23.7686 9.58175 23.9576 9.87831 24.0079 10.2466C24.1732 11.4634 23.6183 11.0258 23.9252 11.6282C24.2328 12.2306 24.1854 12.467 24.1854 12.467C24.1854 12.467 24.1854 12.4664 24.1854 12.4659V12.4664C24.1854 12.4664 24.1501 12.319 23.583 12.0265C23.4946 11.9808 23.4419 11.9571 23.4177 11.9519C23.2876 11.9248 23.9582 12.4248 24.0674 12.8324C24.0917 12.9231 24.1015 12.9908 24.1033 13.0445C24.1073 13.1977 24.0426 13.2445 24.0455 13.4255C24.0472 13.5209 24.0674 13.6538 24.1276 13.8602C24.2449 14.2655 24.157 14.6031 24.0547 14.8239C23.9721 15.0031 23.8796 15.106 23.8796 15.106C23.8796 15.106 23.8796 15.1043 23.8796 15.102C23.8796 15.0222 23.8657 13.7365 22.7228 12.7983C22.7563 12.8405 23.7472 14.0787 23.7142 15.2297C23.7096 15.3945 23.6842 15.5575 23.6316 15.7147C23.2061 16.99 23.017 16.1396 22.8876 16.742C22.8876 16.742 22.8575 16.0691 22.539 15.7061C22.4592 15.6153 22.4303 15.6257 22.4314 15.7009C22.4349 15.9182 22.687 16.6732 22.6904 17.1039C22.6904 17.1224 22.6904 17.1409 22.6893 17.1582C22.6696 17.5629 22.4141 17.4681 22.1516 17.6988C22.1025 17.5912 22.0476 17.4872 21.9799 17.3912C21.8366 17.1866 21.6695 17.0345 21.4591 16.9004C21.4591 16.9004 21.4597 16.9016 21.4602 16.9021C21.455 16.8987 21.4498 16.8952 21.4446 16.8917C21.6522 15.6107 21.1238 14.3678 21.1585 14.3423C21.1637 14.3371 21.1828 14.3632 21.2221 14.4262C21.5406 14.9332 21.6579 15.7581 21.6585 15.761C21.8244 15.3118 21.7944 14.4204 21.3336 12.8792C20.8729 11.338 19.3849 10.8241 18.3576 11.0368C17.8761 11.1362 17.5853 11.3918 17.4489 11.6201C17.2939 11.8791 17.3373 12.1028 17.5252 12.0259C17.6801 11.9629 17.6049 12.1045 17.5049 12.2618C17.465 12.3242 17.4217 12.3895 17.387 12.445C17.3101 12.5688 17.2783 12.6456 17.4367 12.5427C17.6153 12.4265 17.6645 12.3982 17.6263 12.4641C17.5778 12.5485 17.3847 12.7873 17.1355 13.1931C17.1003 13.2503 17.0685 13.3145 17.0401 13.3844C16.891 13.7515 16.8314 14.2701 16.8112 14.7279C16.7661 14.7123 16.7181 14.7048 16.6684 14.7065C16.4493 14.7146 16.2967 14.8563 16.151 15.0037C16.0996 15.0557 16.0504 15.1095 16.003 15.1656C15.9712 15.1274 15.9383 15.0904 15.903 15.054C15.7787 14.9256 15.6417 14.7719 15.4631 14.7239C15.3718 14.6996 15.2781 14.7048 15.1926 14.7331C15.1683 14.1874 15.0885 13.5527 14.8677 13.1931C14.4954 12.5878 14.2485 12.3531 14.4208 12.4514C14.4538 12.4699 14.5012 12.5005 14.5665 12.5433C14.6174 12.5763 14.6486 12.5913 14.6648 12.5913C14.7758 12.5936 14.2104 11.9485 14.448 12.0161C14.4566 12.0184 14.4665 12.0219 14.478 12.0265C14.489 12.0311 14.4994 12.0346 14.5098 12.0369C14.8214 12.1138 14.6411 11.2432 13.6456 11.0374C13.612 11.0305 13.5779 11.0241 13.5433 11.0189C12.5218 10.8599 11.1153 11.3889 10.6696 12.8798C10.2337 14.3377 10.184 15.2135 10.3198 15.6847C10.3273 15.7118 10.336 15.7373 10.3447 15.7616C10.3447 15.761 10.4551 14.9852 10.7516 14.4753C10.7615 14.4591 10.7707 14.4424 10.7811 14.4267C11.0644 13.9758 10.3181 15.4095 10.5586 16.8935C10.5539 16.8969 10.5487 16.8998 10.5441 16.9033L10.5453 16.9016C10.3383 17.0334 10.1736 17.1825 10.0313 17.3825C9.96081 17.4814 9.90242 17.5889 9.85213 17.6999C9.5891 17.4687 9.33358 17.5635 9.31393 17.1588C9.2908 16.6703 9.66714 15.6477 9.54921 15.6413C9.53245 15.6407 9.50527 15.661 9.46539 15.7061C9.14628 16.0691 9.1168 16.742 9.1168 16.742C9.1168 16.742 9.1168 16.7414 9.1168 16.7409V16.742C8.9873 16.1396 8.79769 16.99 8.37279 15.7147C7.95483 14.4609 9.23762 12.8538 9.28097 12.7988C8.10166 13.7677 8.12479 15.106 8.12479 15.106C8.12479 15.106 7.66405 14.5927 7.87679 13.8602C8.08952 13.1284 7.80626 13.3174 7.93633 12.8329C8.04443 12.4283 8.70519 11.9334 8.589 11.9525C8.56587 11.9566 8.51384 11.9797 8.42077 12.0277C7.85366 12.3202 7.8184 12.4676 7.8184 12.4676C7.8184 12.4676 7.771 12.2311 8.07854 11.6288C8.38551 11.0264 7.83054 11.4634 7.9953 10.2471C8.04501 9.88062 8.23174 9.58522 8.44968 9.35514C8.58726 9.20946 8.73641 9.09037 8.87168 8.99556C9.14397 8.80421 9.3567 8.71287 9.2908 8.71056C9.26883 8.70998 9.21796 8.71866 9.12951 8.736C9.08327 8.74525 9.03991 8.75623 8.99829 8.76837C8.46529 8.92099 8.31961 9.26727 8.29475 9.33722C8.29475 9.33837 8.29359 9.34011 8.29359 9.34126V9.34242C8.29359 9.34242 8.29359 9.34357 8.29301 9.34415C8.29301 9.34415 8.29301 9.34415 8.29301 9.34473C8.29301 9.34473 8.29301 9.34473 8.29301 9.34415C8.29301 9.34357 8.29301 9.34184 8.29359 9.34068C8.29359 9.33953 8.29417 9.33779 8.29417 9.33664C8.30342 9.2927 8.34042 9.13604 8.42829 8.92677C8.53812 8.66663 8.72716 8.32729 9.04049 8.02783L9.03644 8.03015ZM20.5694 13.814C20.463 14.1597 20.2682 14.2129 20.4006 14.2481C20.5336 14.2834 20.1087 14.4869 20.2503 14.4869C20.3919 14.4869 20.1971 14.5846 19.4976 14.5846C18.7981 14.5846 18.364 14.3545 18.0975 14.11C17.8327 13.8648 17.7171 13.8053 17.8142 13.6637C17.9119 13.522 17.8847 13.4949 18.116 12.9017C18.3455 12.3086 18.7536 11.9982 19.1519 12.0334C19.5502 12.0687 19.878 12.3439 20.1618 12.7335C20.4451 13.1231 20.6839 13.2735 20.6839 13.2735C20.8145 13.3758 20.6752 13.4683 20.5688 13.8134L20.5694 13.814ZM13.8999 14.11C13.6334 14.3545 13.1999 14.5846 12.4998 14.5846C11.7997 14.5846 11.6055 14.4869 11.7471 14.4869C11.8888 14.4869 11.4639 14.2834 11.5968 14.2481C11.7292 14.2129 11.5344 14.1597 11.428 13.814C11.3216 13.4688 11.1829 13.3758 11.313 13.274C11.313 13.274 11.5517 13.1237 11.835 12.7341C12.1183 12.3445 12.4466 12.0693 12.8449 12.034C13.2432 11.9988 13.6514 12.3092 13.8809 12.9023C14.1121 13.4954 14.0849 13.5226 14.1826 13.6642C14.2797 13.8059 14.1641 13.8654 13.8994 14.1105L13.8999 14.11ZM8.28897 9.34646C8.28897 9.34646 8.28897 9.34646 8.28897 9.34704C8.28897 9.34704 8.28897 9.34704 8.28897 9.34646ZM4.36603 13.6047C4.35735 13.6047 4.3429 13.6087 4.32672 13.6157C4.33134 13.6099 4.34868 13.6007 4.36718 13.6041C4.36718 13.6041 4.3666 13.6041 4.36603 13.6041V13.6047ZM3.27863 18.4069C3.23412 18.4763 3.21273 18.4694 3.27863 18.4069ZM7.92477 22.0188C7.92881 22.02 7.93286 22.0206 7.93633 22.0212C7.93691 22.0212 7.93749 22.0217 7.93806 22.0223C7.93344 22.0212 7.92939 22.0206 7.92477 22.0194V22.0188ZM8.42424 21.8125C7.8184 21.4107 8.25139 21.7888 7.63688 21.387C7.62185 21.3772 7.60682 21.3662 7.59179 21.3552C7.39234 21.2089 7.23395 20.9846 7.11197 20.7771C7.11023 20.7742 7.1085 20.7713 7.10677 20.7684C7.10561 20.7667 7.10503 20.765 7.10388 20.7632C7.10214 20.7603 7.10041 20.7574 7.09867 20.7546C7.03797 20.6499 6.9871 20.5505 6.94432 20.4696C6.82986 20.2493 6.78014 20.1603 6.78592 20.4534C6.78592 20.4742 6.78824 20.4927 6.78939 20.5123C6.79228 20.558 6.79633 20.6014 6.80269 20.6412C6.84778 20.9228 6.97612 21.0667 7.07208 21.1367C7.13683 21.1835 7.18712 21.198 7.18712 21.198C7.18712 21.198 7.1507 21.2049 7.07208 21.1922C7.01196 21.1829 6.9264 21.1621 6.81367 21.1188C6.71135 21.08 6.58648 21.0228 6.43618 20.939C6.39687 20.917 6.35582 20.8933 6.31304 20.8673C6.20552 20.802 6.10609 20.7025 6.01417 20.5858C5.89161 20.4291 5.78351 20.2406 5.69217 20.0591C5.66038 19.9955 5.63032 19.9325 5.60257 19.8724C5.60257 19.8724 5.60257 19.8718 5.60257 19.8712C5.58291 19.8296 5.56499 19.7891 5.54765 19.7504C5.40659 19.4348 5.33491 19.2423 5.34589 19.4862C5.34994 19.5816 5.36266 19.6701 5.38058 19.7516C5.38231 19.7585 5.38347 19.7654 5.3852 19.7724C5.4355 19.9892 5.52163 20.1533 5.58233 20.2499C5.6228 20.3146 5.65286 20.3493 5.65286 20.3493C5.65286 20.3493 5.61239 20.3383 5.54534 20.314C5.4777 20.2892 5.38347 20.2499 5.2771 20.1926C5.18981 20.1458 5.09442 20.0874 4.99962 20.0152C4.80133 19.8643 4.60478 19.6544 4.48396 19.3683C4.32845 18.9989 4.18682 18.8295 4.08276 18.752C4.06831 18.7411 4.05443 18.7324 4.04114 18.7249C4.04114 18.7249 4.03998 18.7243 4.0394 18.7237C3.95558 18.6763 3.90529 18.6919 3.90529 18.6919C3.90529 18.6919 3.93939 18.5913 3.97581 18.4699C3.97639 18.4676 3.97755 18.4653 3.97813 18.4624C3.9972 18.3982 4.01686 18.3289 4.03189 18.2659C4.08218 18.0578 4.08449 17.9184 3.87349 18.2578C3.86829 18.2659 3.86366 18.2734 3.85788 18.2826C3.84979 18.2953 3.84285 18.3075 3.83534 18.3202C3.82435 18.3381 3.81395 18.3555 3.80412 18.3717C3.79949 18.3797 3.79429 18.3878 3.78967 18.3954C3.51796 18.8492 3.60583 18.7538 3.68908 18.3058C3.68966 18.3023 3.69024 18.2988 3.69081 18.2953C3.70816 18.2 3.7255 18.089 3.73937 17.9641C3.7492 17.871 3.75036 17.7947 3.74458 17.7311C3.70469 17.2704 3.32083 17.4797 3.53877 16.7946C3.56826 16.7027 3.60757 16.609 3.65324 16.5154C3.71509 16.3894 3.78793 16.2639 3.86424 16.1443C3.86424 16.1437 3.8654 16.1425 3.86598 16.1419C3.86598 16.1419 3.86655 16.1408 3.86713 16.1402C3.86887 16.1379 3.8706 16.135 3.87176 16.1327C3.97003 15.9795 4.07178 15.8367 4.15849 15.7147C4.35967 15.4332 4.48107 15.2656 4.28972 15.3511C4.27353 15.3581 4.25619 15.3667 4.23538 15.3771C4.15271 15.4205 4.07698 15.4696 4.00645 15.5211C3.75672 15.7043 3.58444 15.9211 3.49773 16.0448C3.45495 16.1055 3.43241 16.1448 3.43241 16.1448C3.43241 16.1448 3.43761 16.1015 3.45033 16.0321C3.4538 16.0119 3.45842 15.9888 3.46362 15.9645C3.51218 15.7332 3.62722 15.3419 3.86887 15.165C3.92436 15.1245 3.96425 15.0731 3.99373 15.0152C4.1186 14.7707 4.06253 14.4042 4.23364 14.1851C4.28105 14.1244 4.34521 14.0753 4.43598 14.0429C4.50303 14.0192 4.57472 13.9862 4.64871 13.9487C4.80827 13.8672 4.97476 13.7608 5.1135 13.6625C5.38636 13.4694 5.55054 13.3076 5.33375 13.4295C5.24415 13.4804 5.14587 13.5278 5.04933 13.5717C4.85278 13.6602 4.66028 13.7307 4.54466 13.7706C4.48511 13.7914 4.44522 13.8041 4.43771 13.8065C4.44349 13.8018 4.47297 13.7781 4.52385 13.7342C4.62212 13.6492 4.80017 13.4873 5.04297 13.2347C5.11639 13.1584 5.19617 13.0734 5.28057 12.9809C5.33202 12.9249 5.38463 12.8659 5.44012 12.8035C5.54476 12.6855 5.64014 12.5422 5.73033 12.3832C5.78987 12.2786 5.84652 12.1664 5.90144 12.0491C5.90896 12.0323 5.91705 12.0167 5.92457 11.9999C5.93786 11.9878 5.95174 11.9739 5.96561 11.9612C6.04423 11.886 6.12863 11.7999 6.21939 11.6999C6.22171 11.697 6.22402 11.6947 6.22633 11.6918C6.42173 11.4773 6.59747 11.2889 6.74488 11.138C6.74488 11.138 6.74488 11.1374 6.74488 11.1368C7.01254 10.8634 7.18596 10.7148 7.2062 10.7634C7.22643 10.8073 7.1137 11.0235 6.82061 11.4692C6.67898 11.6849 6.52983 11.8664 6.38531 12.019C6.37606 12.0288 6.36738 12.0381 6.35814 12.0479C6.31651 12.0913 6.27547 12.1317 6.23558 12.1704C6.20841 12.1965 6.18124 12.2219 6.15522 12.2456C6.07834 12.3156 6.00608 12.3763 5.94017 12.4289C5.73206 12.5965 5.5939 12.6809 5.61066 12.7063C5.62453 12.7277 5.75056 12.7063 6.04134 12.656C6.05348 12.6537 6.06446 12.6526 6.07545 12.6508C6.24425 12.6266 6.32461 12.6508 6.34715 12.7063C6.42866 12.9035 5.78524 13.4931 5.8419 13.6567C5.85924 13.7053 5.93902 13.7157 6.11996 13.666C6.27142 13.6244 6.33443 13.6203 6.33906 13.6434C6.36045 13.7388 5.3378 14.3106 5.4037 14.5597C5.42278 14.6308 5.53031 14.6753 5.776 14.6753C6.18586 14.6753 6.36045 14.6892 6.38646 14.7453C6.44543 14.8678 5.78467 15.1933 5.33375 16.0223C5.04702 16.5489 5.00771 16.7472 5.04239 16.8357C5.07477 16.9178 5.17073 16.9062 5.19154 16.9756C5.19964 17.0022 5.19675 17.0415 5.1742 17.1027C5.14298 17.1877 5.14703 17.2461 5.16958 17.2889C5.22565 17.3929 5.39445 17.4068 5.45284 17.5016C5.48059 17.5461 5.48406 17.608 5.43955 17.7057C5.37249 17.8537 5.34936 18.0554 5.41873 18.2659C5.53204 18.6098 5.89219 18.9781 6.70904 19.1758C7.69816 19.4151 8.27394 19.185 8.31903 19.2509C8.33464 19.2723 8.29186 19.3267 8.18549 19.4417C8.08085 19.555 8.04675 19.5978 8.05195 19.6047C8.06814 19.6186 8.3092 19.4307 8.34446 19.5359C8.35429 19.5637 8.34909 19.6117 8.32192 19.6897C8.21439 19.9996 8.26064 20.3996 8.41846 20.7661C8.51327 20.9858 8.64796 21.1939 8.81388 21.3633C9.25727 21.8154 9.05321 21.5506 9.05321 21.2043C9.05321 20.9471 9.04742 21.3477 9.37694 21.6778C9.38388 21.6997 9.39139 21.7217 9.39948 21.7431C9.40931 21.7697 9.42145 21.7945 9.43359 21.8194C9.41914 21.9217 9.40816 22.0246 9.41047 22.1275C9.41047 22.1489 9.41278 22.1703 9.41394 22.1917C9.10234 22.1264 8.7208 22.0119 8.42308 21.8148L8.42424 21.8125ZM15.3914 26.2528C15.3914 26.2528 15.2879 26.2141 15.3469 26.2337C15.3619 26.2389 15.3781 26.2459 15.3943 26.2534C15.3932 26.2534 15.392 26.2534 15.3908 26.2528H15.3914ZM20.5908 25.3117C20.4752 25.4458 20.3757 25.5597 20.3075 25.6649C20.3023 25.6736 20.2971 25.6816 20.2919 25.6903C20.2439 25.7701 20.215 25.8458 20.2121 25.9227C20.2029 26.2424 20.122 26.0291 20.1254 25.6689C20.1254 25.6666 20.1254 25.6637 20.1254 25.6614C20.1266 25.5845 20.1312 25.5013 20.1416 25.4151C20.1526 25.3226 20.1682 25.2249 20.1838 25.1226C20.1838 25.1197 20.1844 25.1168 20.185 25.1145C20.196 25.044 20.2064 24.9712 20.2162 24.896C20.2162 24.8937 20.2162 24.8914 20.2168 24.8891C20.2653 24.5075 20.2798 24.0641 20.0902 23.5618C20.0896 23.5595 20.0884 23.5577 20.0878 23.5554C20.078 23.53 20.0694 23.5051 20.0589 23.4797C19.8503 22.9808 19.9231 23.1531 19.9497 23.5739C19.9497 23.5826 19.9508 23.5913 19.9514 23.5999C19.9543 23.6514 19.9566 23.7063 19.9572 23.7641C19.9572 23.7647 19.9572 23.7653 19.9572 23.7664C19.9601 23.9809 19.9445 24.2329 19.882 24.4844C19.8526 24.6012 19.8237 24.7018 19.7953 24.7885C19.7953 24.7885 19.7953 24.7891 19.7953 24.7896C19.7514 24.9226 19.7092 25.0226 19.6705 25.0978C19.5404 25.3481 19.4456 25.3221 19.4456 25.3221C19.4456 25.3221 19.5074 25.1602 19.5514 24.9053C19.5514 24.9047 19.5514 24.9035 19.5514 24.903C19.5635 24.8324 19.5745 24.755 19.582 24.6723C19.6051 24.4214 19.6011 24.1196 19.5236 23.8052C19.5236 23.804 19.5236 23.8034 19.5231 23.8023C19.504 23.7254 19.4809 23.6485 19.4525 23.571C19.4485 23.5595 19.4439 23.5479 19.4392 23.5363C19.4323 23.5178 19.4248 23.4988 19.4173 23.4803C19.4115 23.4647 19.4045 23.4485 19.3976 23.4329C19.3681 23.3658 19.3421 23.3068 19.3184 23.2531C19.2901 23.1889 19.2658 23.1334 19.2456 23.0866C19.2369 23.0675 19.2294 23.0502 19.2224 23.0334C19.1664 22.9056 19.1438 22.86 19.1346 22.8698C19.1265 22.8779 19.1288 22.9282 19.1265 22.9999C19.1253 23.0502 19.1219 23.1103 19.112 23.1762C19.1062 23.2149 19.0982 23.2548 19.0872 23.2953C19.0843 23.3057 19.0814 23.3161 19.0785 23.3259C19.0623 23.3779 19.0513 23.4074 19.0432 23.4173C19.0299 23.4334 19.023 23.3988 19.0114 23.3288C19.0091 23.3132 19.0062 23.297 19.0028 23.2779C18.9906 23.2057 18.9727 23.1097 18.9415 23.0004C18.9085 22.8831 18.8606 22.7501 18.7895 22.6125C18.7889 22.6114 18.7883 22.6102 18.7871 22.6085C18.7183 22.4767 18.6276 22.3403 18.5068 22.2102C18.4605 22.1599 18.4091 22.1113 18.3536 22.0634C18.3391 22.0512 18.3252 22.0385 18.3102 22.0264C18.3102 22.0264 18.3102 22.0264 18.3102 22.0269C18.3114 22.0287 18.32 22.0466 18.3299 22.0807C18.3501 22.1472 18.3755 22.2767 18.3617 22.4773C18.357 22.5414 18.3484 22.6131 18.3345 22.6917C18.3304 22.7137 18.327 22.7351 18.3218 22.7582C18.3015 22.8536 18.2882 22.8958 18.2755 22.8987C18.2472 22.9056 18.2247 22.7126 18.1489 22.4854C18.1455 22.475 18.142 22.4646 18.1379 22.4536C18.1345 22.4432 18.1304 22.4328 18.1264 22.4218C18.109 22.3755 18.0894 22.3287 18.0674 22.2825C18.0506 22.2483 18.0327 22.2142 18.0131 22.1807C17.9784 22.1223 17.9385 22.0668 17.8917 22.0165C17.8882 22.0131 17.8847 22.0096 17.8813 22.0056C17.8466 21.9691 17.8084 21.9356 17.7656 21.9067C17.7656 21.9079 17.7847 21.9772 17.7766 22.1038C17.7749 22.1275 17.7732 22.1524 17.7691 22.1796C17.7691 22.1796 17.7691 22.1796 17.7691 22.179C17.7691 22.1576 17.768 22.135 17.7656 22.1119C17.7593 22.0431 17.7425 21.9703 17.7096 21.8998C17.6922 21.8622 17.6703 21.8258 17.6425 21.7911C17.6425 21.7911 17.6419 21.7899 17.6414 21.7899C17.6136 21.7558 17.5818 21.7229 17.5425 21.6934C17.5049 21.6651 17.4726 21.6414 17.4448 21.6211C17.3974 21.5864 17.3639 21.5639 17.3396 21.5512C17.3182 21.5402 17.3043 21.5367 17.2962 21.5413C17.2639 21.5581 17.3084 21.6859 17.276 21.8743C17.2708 21.9038 17.2639 21.9344 17.2546 21.9662C17.2523 21.9738 17.25 21.9818 17.2477 21.9894C17.2477 21.9894 17.2454 21.9801 17.2413 21.9645C17.2361 21.9443 17.2274 21.9131 17.2153 21.8743C17.1876 21.7841 17.1419 21.6546 17.0795 21.5344C17.0367 21.4523 16.9864 21.3754 16.928 21.3182C16.9234 21.3141 16.9193 21.3101 16.9147 21.3061C16.9078 21.2997 16.9008 21.2928 16.8933 21.2864C16.8355 21.2407 16.8054 21.2234 16.7927 21.228C16.7788 21.2332 16.7887 21.2679 16.8083 21.3205C16.8234 21.361 16.8442 21.4124 16.8644 21.4708C16.8829 21.524 16.9008 21.5824 16.9141 21.6431C16.917 21.6558 16.9199 21.6691 16.9222 21.6824C16.9286 21.7205 16.9291 21.7379 16.9234 21.7379C16.9153 21.7379 16.895 21.7049 16.8632 21.6518C16.8592 21.6448 16.8546 21.6379 16.8505 21.6298C16.8118 21.565 16.7592 21.4783 16.6933 21.387C16.6118 21.2748 16.51 21.1569 16.3898 21.0685C16.2747 20.9835 16.1429 20.9257 15.9955 20.9257C15.877 20.9257 15.7683 20.9632 15.6706 21.0216C15.6469 21.0361 15.6238 21.0517 15.6018 21.0685C15.4816 21.1569 15.3799 21.2748 15.2983 21.387C15.2324 21.4783 15.1793 21.565 15.1405 21.6298C15.1359 21.6373 15.1319 21.6442 15.1278 21.6512C15.1018 21.6951 15.0827 21.7258 15.0729 21.7344C15.0619 21.7437 15.0607 21.7292 15.0688 21.6818C15.0712 21.6685 15.074 21.6558 15.0769 21.6425C15.0902 21.5818 15.1082 21.5228 15.1267 21.4697C15.1469 21.4113 15.1677 21.3598 15.1827 21.3194C15.2191 21.2205 15.2215 21.1875 15.0977 21.2852C15.0902 21.291 15.0833 21.298 15.0764 21.3043C15.0723 21.3084 15.0677 21.3118 15.0636 21.3159C15.0053 21.3731 14.9544 21.45 14.9116 21.5327C14.8492 21.6529 14.8035 21.7824 14.7758 21.8726C14.7636 21.9113 14.7549 21.9425 14.7497 21.9628C14.7457 21.9784 14.7434 21.9882 14.7434 21.9882C14.7411 21.9801 14.7388 21.9726 14.7364 21.9651C14.7272 21.9333 14.7203 21.9026 14.7151 21.8732C14.6746 21.6396 14.7526 21.4997 14.6561 21.5477C14.6318 21.5598 14.5965 21.5835 14.5462 21.62C14.5185 21.6402 14.4861 21.6639 14.4485 21.6922C14.4092 21.7217 14.3774 21.7547 14.3497 21.7888C14.3497 21.7888 14.3485 21.7899 14.3485 21.7905C14.3208 21.8252 14.2988 21.8616 14.2815 21.8992C14.2485 21.9697 14.2312 22.042 14.2254 22.1113C14.2231 22.1345 14.2219 22.157 14.2219 22.179C14.2219 22.179 14.2219 22.1784 14.2219 22.1778C14.2185 22.1507 14.2162 22.1264 14.2144 22.1032C14.2057 21.9749 14.2254 21.9055 14.2254 21.9055C14.2092 21.9165 14.1936 21.9281 14.1786 21.9408C14.1543 21.9605 14.1318 21.9818 14.1104 22.0044C14.1069 22.0079 14.1034 22.0113 14.1 22.0154C14.0537 22.0657 14.0132 22.1212 13.9786 22.1796C13.9589 22.2125 13.941 22.2466 13.9242 22.2813C13.9017 22.3287 13.8814 22.3761 13.8641 22.4235C13.8606 22.4333 13.8572 22.4432 13.8537 22.453C13.8502 22.4634 13.8468 22.4738 13.8433 22.4842C13.7733 22.6946 13.7485 22.8762 13.7225 22.8958C13.708 22.9068 13.6936 22.8675 13.6704 22.7571C13.6658 22.7339 13.6618 22.7126 13.6577 22.6906C13.6433 22.6114 13.6346 22.5403 13.6305 22.4761C13.6167 22.2755 13.6421 22.146 13.6623 22.0795C13.6733 22.0431 13.6826 22.0252 13.6826 22.0252C13.6675 22.0373 13.6537 22.0495 13.6398 22.0616C13.5843 22.1096 13.5328 22.1587 13.4866 22.2085C13.3669 22.338 13.2768 22.4726 13.208 22.6039C13.208 22.605 13.2068 22.6062 13.2062 22.6068C13.134 22.7455 13.0854 22.8796 13.0525 22.9981C13.0218 23.1074 13.0039 23.2034 12.9912 23.2756C12.9877 23.2947 12.9854 23.3115 12.9825 23.3271C12.9744 23.3756 12.9686 23.4074 12.9617 23.4161C12.9524 23.4277 12.9397 23.4011 12.9154 23.3236C12.912 23.3132 12.9091 23.3028 12.9068 23.293C12.8952 23.2508 12.8871 23.2086 12.8813 23.1681C12.8721 23.1045 12.8692 23.0461 12.868 22.9976C12.8657 22.9062 12.8692 22.8507 12.8513 22.8698C12.8386 22.8831 12.8154 22.9328 12.7721 23.0311C12.7651 23.0467 12.7582 23.0635 12.7501 23.0814C12.7293 23.1288 12.705 23.1849 12.6761 23.2508C12.6524 23.3045 12.6264 23.3635 12.5969 23.4305C12.59 23.4462 12.583 23.4623 12.5773 23.478C12.5657 23.5063 12.5547 23.534 12.5443 23.5624C12.5148 23.6427 12.4911 23.7225 12.4715 23.8017C12.4715 23.8028 12.4715 23.804 12.4709 23.8046C12.4709 23.8046 12.4709 23.8057 12.4709 23.8063C12.3923 24.1283 12.39 24.4364 12.4154 24.6902C12.4229 24.7654 12.4327 24.8359 12.4437 24.9001C12.4877 25.1573 12.5501 25.3198 12.5501 25.3198C12.5501 25.3198 12.4553 25.3458 12.3252 25.0949C12.2865 25.0203 12.2443 24.9203 12.2009 24.7885C12.2009 24.7885 12.2009 24.7879 12.2009 24.7873C12.1726 24.7 12.1431 24.5995 12.1136 24.4815C12.0506 24.2289 12.035 23.9757 12.0385 23.7606C12.0385 23.7595 12.0385 23.7589 12.0385 23.7578C12.0391 23.7011 12.0414 23.6479 12.0443 23.597C12.0443 23.5884 12.0454 23.5797 12.046 23.571C12.0726 23.1508 12.1454 22.9779 11.9367 23.4768C11.9258 23.5022 11.9171 23.5277 11.9078 23.5531C11.9073 23.5554 11.9061 23.5572 11.9055 23.5595C11.7159 24.063 11.7304 24.5075 11.7795 24.8897C11.7795 24.892 11.7795 24.8943 11.7801 24.8966C11.7899 24.9741 11.8015 25.0486 11.8124 25.1209C11.8281 25.2238 11.8437 25.3209 11.8546 25.4134C11.8651 25.4995 11.8697 25.5828 11.8708 25.6597C11.8708 25.662 11.8708 25.6649 11.8708 25.6672C11.8743 26.0279 11.7934 26.2412 11.7841 25.921C11.7818 25.8441 11.7529 25.7684 11.7043 25.6886C11.6991 25.6805 11.6945 25.6718 11.6887 25.6631C11.6211 25.5579 11.5222 25.4452 11.4072 25.3117C11.4072 25.3111 11.406 25.3105 11.4055 25.3099C11.1708 25.0371 10.8713 24.6792 10.6395 24.1312C10.6378 24.1272 10.636 24.1225 10.6343 24.1179C10.5632 23.9445 10.5325 23.7497 10.5291 23.5496C10.5268 23.4201 10.536 23.2883 10.5522 23.1583C10.5522 23.1571 10.5522 23.1554 10.5522 23.1542C10.595 22.823 10.6857 22.5033 10.7638 22.264C10.7667 22.2547 10.7701 22.2449 10.773 22.2356C10.8973 21.8593 10.9806 21.698 10.762 22.0408C10.7297 22.0917 10.7002 22.1426 10.6736 22.1946C10.6701 22.2009 10.6672 22.2079 10.6638 22.2142C10.5441 22.4501 10.477 22.6912 10.4424 22.9097C10.4424 22.9097 10.4424 22.9103 10.4424 22.9108C10.3944 23.212 10.4059 23.4704 10.4198 23.6138C10.4273 23.6895 10.4354 23.7329 10.4354 23.7329C10.4354 23.7329 10.4054 23.7063 10.3585 23.6496C10.2955 23.5728 10.2019 23.4398 10.1105 23.2392C10.11 23.2375 10.1088 23.2357 10.1082 23.234C10.0718 23.1536 10.036 23.0629 10.0024 22.96C10.0007 22.9554 9.99897 22.9507 9.99781 22.9455C9.93711 22.7565 9.88508 22.5287 9.85502 22.2588C9.85387 22.2483 9.85271 22.2379 9.85155 22.2275C9.84924 22.2061 9.84751 22.1848 9.84635 22.1634C9.84519 22.135 9.84462 22.1067 9.84519 22.0778C9.84577 22.0397 9.84751 22.0009 9.85155 21.961C9.8556 21.9171 9.86196 21.8726 9.8689 21.8281C9.89896 21.6425 9.95561 21.4488 10.0256 21.2587C10.0602 21.1638 10.0984 21.0702 10.1383 20.9783C10.2574 20.7048 10.3909 20.4511 10.4961 20.2551C10.6175 20.0296 10.7008 19.8805 10.68 19.866C10.6661 19.8562 10.606 19.9059 10.4805 20.0314C10.4418 20.0701 10.4065 20.1106 10.3724 20.1522C10.2759 20.2718 10.199 20.4013 10.1383 20.5331C10.0256 20.7765 9.96602 21.0257 9.9296 21.2269C9.88046 21.5003 9.87468 21.6847 9.83768 21.6437C9.82554 21.6304 9.81051 21.5934 9.7897 21.528C9.76195 21.4425 9.74229 21.3425 9.72784 21.2338C9.71397 21.1297 9.7053 21.0182 9.70183 20.9002C9.6972 20.7494 9.70183 20.5904 9.71165 20.4297C9.73709 20.04 9.80126 19.6446 9.88682 19.3492C9.89664 19.3163 9.90821 19.2833 9.9215 19.2509C9.99145 19.0798 10.1094 18.9156 10.2325 18.7717C10.2909 18.7035 10.351 18.6399 10.4071 18.5827C10.436 18.5532 10.4638 18.526 10.4898 18.5C10.6175 18.3751 10.7094 18.2925 10.6944 18.2757C10.6892 18.2693 10.669 18.2722 10.6302 18.2855C10.5984 18.2965 10.5667 18.3115 10.5349 18.3283C10.4586 18.3693 10.3846 18.4248 10.3163 18.485C10.2192 18.5699 10.1354 18.6624 10.0787 18.7295C10.0308 18.7867 10.0013 18.826 10.0013 18.826C10.0013 18.8243 10.0036 18.7821 10.0123 18.7122C10.0244 18.6121 10.0493 18.4566 10.0972 18.2803C10.1088 18.2375 10.1221 18.193 10.1366 18.1479C10.1475 18.1144 10.1597 18.0803 10.1724 18.0462C10.2395 17.8658 10.3325 17.6814 10.462 17.5247C10.5135 17.4617 10.5811 17.4022 10.6597 17.3455C10.6909 17.323 10.7251 17.301 10.7597 17.2791C10.7661 17.2744 10.773 17.2704 10.7794 17.2663C10.9973 17.1334 11.2673 17.0224 11.5182 16.9351C11.6026 16.9056 11.6847 16.8796 11.7622 16.8559C11.9668 16.7935 12.1368 16.7513 12.2206 16.7316C12.257 16.7229 12.2772 16.7183 12.2772 16.7183C12.2772 16.7183 12.2767 16.7183 12.2761 16.7183C12.257 16.716 12.2373 16.7137 12.2177 16.7125C12.1269 16.7067 12.0339 16.7125 11.9414 16.727C11.787 16.7501 11.635 16.7946 11.5032 16.8391C11.2922 16.9108 11.1326 16.9825 11.0956 16.9686C11.0777 16.9617 11.0881 16.9351 11.1349 16.8784C11.195 16.805 11.2696 16.7218 11.3569 16.6374C11.4176 16.5796 11.4847 16.5212 11.5581 16.4651C11.6303 16.4102 11.709 16.3576 11.7939 16.3108C11.9512 16.2235 12.1292 16.1547 12.3304 16.1211C12.4096 16.1078 12.4917 16.0997 12.5778 16.0992C12.6206 16.0992 12.6599 16.0986 12.6969 16.0992C12.7079 16.0992 12.7177 16.0992 12.7281 16.0992C12.801 16.0997 12.8605 16.1021 12.9085 16.1044C12.923 16.105 12.9368 16.1061 12.949 16.1067C13.0247 16.1113 13.064 16.1165 13.0762 16.1165C13.0912 16.1165 13.0634 16.1084 13.0131 16.0824C12.9975 16.0743 12.9796 16.0645 12.96 16.0523C12.9253 16.031 12.8854 16.0032 12.8438 15.9668C12.8102 15.9373 12.779 15.9136 12.7513 15.8939C12.568 15.7616 12.5403 15.8072 12.8877 15.6708C12.8998 15.6662 12.9102 15.6621 12.923 15.6569C12.9548 15.6442 12.9842 15.6321 13.0114 15.6199C13.0316 15.6113 13.0507 15.6026 13.0686 15.5939C13.3224 15.4748 13.356 15.4055 13.6629 15.3696C13.7057 15.3644 13.7537 15.3604 13.8092 15.3563C13.9514 15.3465 14.0867 15.3748 14.2063 15.413C14.2214 15.4176 14.2358 15.4228 14.2503 15.4274C14.3243 15.4534 14.3907 15.4823 14.4485 15.5066C14.5341 15.543 14.5994 15.5696 14.6364 15.5639C14.6526 15.561 14.663 15.5523 14.6676 15.5355C14.674 15.5153 14.6717 15.4829 14.6596 15.4355C14.622 15.287 14.5873 15.1829 14.5902 15.1366C14.5913 15.1228 14.5954 15.1135 14.6046 15.1106C14.6075 15.1095 14.6116 15.1106 14.6156 15.1106C14.6156 15.1106 14.6156 15.1106 14.6168 15.1106C14.6266 15.1118 14.6405 15.1176 14.6572 15.1268C14.6601 15.1286 14.663 15.1297 14.6659 15.1314C14.67 15.1338 14.6734 15.1361 14.6775 15.1384C14.7203 15.1656 14.781 15.2124 14.8642 15.28C14.87 15.2846 14.8746 15.2881 14.8804 15.2927C14.9006 15.3095 14.9191 15.3268 14.9382 15.3448C14.9868 15.3893 15.0307 15.4355 15.0706 15.4818C15.081 15.4939 15.0908 15.506 15.1006 15.5176C15.1319 15.5558 15.1613 15.5939 15.1868 15.628C15.2596 15.7269 15.3076 15.8009 15.3313 15.8072C15.3452 15.8107 15.351 15.791 15.3486 15.7408C15.3469 15.7038 15.3417 15.6511 15.3319 15.5772C15.3319 15.5772 15.3319 15.5766 15.3319 15.576C15.3215 15.4991 15.3134 15.4338 15.307 15.3783C15.2891 15.2182 15.2914 15.1436 15.3307 15.1436C15.3377 15.1436 15.3469 15.1471 15.3567 15.1517C15.4036 15.1748 15.4799 15.2505 15.5984 15.3719C15.6088 15.3823 15.618 15.3933 15.6279 15.4043C15.6712 15.4517 15.7099 15.4991 15.7435 15.5465C15.7504 15.5563 15.7574 15.5662 15.7643 15.576C15.873 15.735 15.9337 15.8853 15.9655 15.9836C15.9874 16.0512 15.9955 16.094 15.9967 16.098V16.0992C15.9967 16.0992 16.0048 16.0547 16.0279 15.9841C16.0597 15.8859 16.1204 15.7356 16.2285 15.5772C16.2349 15.5679 16.2418 15.5587 16.2482 15.5488C16.2823 15.5008 16.3216 15.4523 16.3655 15.4043C16.3753 15.3933 16.3846 15.3829 16.395 15.3719C16.5135 15.2505 16.5904 15.1748 16.6366 15.1517C16.6465 15.1471 16.6551 15.1436 16.6621 15.1436C16.702 15.1436 16.7037 15.2182 16.6858 15.3783C16.6794 15.4338 16.6713 15.4985 16.6609 15.576C16.6609 15.576 16.6609 15.5766 16.6609 15.5772C16.6511 15.6511 16.6459 15.7043 16.6441 15.7413C16.6424 15.7806 16.6453 15.8015 16.6534 15.8072C16.6736 15.8205 16.7239 15.7402 16.806 15.6286C16.8314 15.5939 16.8609 15.5563 16.8927 15.5176C16.9026 15.5055 16.9124 15.4939 16.9222 15.4818C16.9615 15.4355 17.006 15.3893 17.0546 15.3448C17.0737 15.3274 17.0922 15.3095 17.1124 15.2927C17.1182 15.2881 17.1228 15.2846 17.128 15.28C17.2118 15.2124 17.2725 15.1656 17.3153 15.1384C17.3194 15.1361 17.3228 15.1338 17.3269 15.1314C17.3298 15.1297 17.3327 15.128 17.3355 15.1262C17.3402 15.1239 17.3454 15.1205 17.3488 15.1187C17.3598 15.1135 17.3685 15.1112 17.376 15.1101C17.376 15.1101 17.3766 15.1101 17.3772 15.1101C17.3934 15.1083 17.4014 15.117 17.4026 15.1355C17.4055 15.1817 17.3714 15.2858 17.3332 15.4344C17.3211 15.4823 17.3188 15.5141 17.3251 15.5344C17.3419 15.5899 17.4223 15.5575 17.5442 15.506C17.602 15.4818 17.6691 15.4529 17.7431 15.4268C17.7576 15.4216 17.772 15.417 17.787 15.4124C17.9067 15.3737 18.042 15.3459 18.1842 15.3557C18.6322 15.387 18.6351 15.4581 18.9247 15.5933C18.9426 15.6014 18.9617 15.6101 18.982 15.6194C19.0091 15.6315 19.038 15.6436 19.0704 15.6564C19.0831 15.6616 19.0941 15.6656 19.1062 15.6708C19.4525 15.8072 19.4248 15.7616 19.2421 15.8939C19.2144 15.9136 19.1837 15.9379 19.1496 15.9674C19.108 16.0038 19.0681 16.0315 19.0334 16.0529C19.0138 16.0651 18.9958 16.0749 18.9802 16.083C18.8895 16.1304 18.8733 16.1182 19.0444 16.1078C19.0571 16.1073 19.0704 16.1061 19.0849 16.1055C19.1398 16.1026 19.2091 16.1003 19.2964 16.1003C19.3329 16.1003 19.3727 16.1003 19.4155 16.1003C19.5005 16.1015 19.5826 16.109 19.6606 16.1223C19.8624 16.1558 20.0416 16.2246 20.1994 16.3125C20.2844 16.3599 20.363 16.4119 20.4353 16.4668C20.5087 16.5229 20.5763 16.5807 20.6365 16.6391C20.7243 16.7235 20.7983 16.8068 20.8584 16.8802C20.9053 16.9368 20.9151 16.9634 20.8972 16.9704C20.859 16.9842 20.7 16.9125 20.4902 16.8409C20.3584 16.7964 20.2069 16.7518 20.0526 16.7287C19.9601 16.7148 19.867 16.7085 19.7763 16.7143C19.7757 16.7143 19.7751 16.7143 19.7739 16.7143C19.7549 16.7154 19.7358 16.7172 19.7167 16.72C19.7167 16.72 19.7375 16.7247 19.7734 16.7333C19.8572 16.753 20.0271 16.7952 20.2324 16.8582C20.3093 16.8819 20.3913 16.9079 20.4752 16.9374C20.7255 17.0241 20.9949 17.1351 21.2122 17.2675C21.2192 17.2721 21.2267 17.2762 21.2336 17.2808C21.2683 17.3033 21.3018 17.3253 21.3331 17.3479C21.4117 17.4045 21.4793 17.464 21.5308 17.5271C21.6591 17.6826 21.7516 17.8664 21.8187 18.0456C21.832 18.0809 21.8441 18.1156 21.8557 18.1502C21.8557 18.1502 21.8557 18.1502 21.8557 18.1508C21.8701 18.1953 21.8834 18.2393 21.895 18.2821C21.943 18.4584 21.9678 18.615 21.9799 18.715C21.9886 18.7867 21.9909 18.8295 21.9909 18.8295C21.9909 18.8295 21.9909 18.8295 21.9909 18.8289C21.9898 18.8272 21.9614 18.789 21.914 18.733C21.8574 18.6659 21.7736 18.5734 21.6764 18.4884C21.6082 18.4283 21.5342 18.3728 21.4579 18.3318C21.4261 18.315 21.3943 18.2994 21.3625 18.289C21.3336 18.2792 21.3151 18.2751 21.3053 18.2763C21.2677 18.2809 21.3643 18.3665 21.5036 18.5029C21.5302 18.5289 21.5574 18.5561 21.5863 18.5855C21.6423 18.6428 21.7025 18.7064 21.7609 18.7746C21.8129 18.8353 21.8643 18.8995 21.9112 18.9665C21.9759 19.059 22.0326 19.1567 22.073 19.2567C22.0857 19.2885 22.0973 19.3203 22.1065 19.3521H22.1054C22.1343 19.4521 22.1603 19.5637 22.184 19.6822C22.1898 19.7123 22.1956 19.7423 22.2014 19.7735C22.2014 19.7735 22.2014 19.7747 22.2014 19.7753C22.2378 19.9799 22.2649 20.2025 22.28 20.4233C22.291 20.5863 22.295 20.7488 22.2904 20.902C22.2869 21.0205 22.2782 21.1326 22.2644 21.2373C22.2499 21.3459 22.2297 21.4465 22.2025 21.5315C22.1765 21.613 22.1592 21.65 22.1464 21.6523C22.117 21.6575 22.1083 21.4812 22.0632 21.2303C22.0274 21.0292 21.9672 20.7806 21.8551 20.5372C21.7944 20.4054 21.7175 20.2759 21.621 20.1562C21.5874 20.1146 21.5516 20.0741 21.5128 20.0354C21.388 19.9105 21.3279 19.8608 21.3134 19.8701C21.2914 19.8839 21.3747 20.0331 21.4967 20.2591C21.6019 20.4551 21.736 20.7089 21.8545 20.9823C21.8944 21.0737 21.932 21.1679 21.9672 21.2621C22.0372 21.4529 22.0938 21.6466 22.1239 21.8327C22.1308 21.8772 22.1372 21.9217 22.1412 21.9651C22.1453 22.0061 22.147 22.046 22.1476 22.0853C22.1482 22.1356 22.1464 22.1848 22.1412 22.2322C22.1401 22.2426 22.1389 22.253 22.1378 22.2634C22.1314 22.3218 22.1233 22.3778 22.1152 22.4322C22.1008 22.5253 22.084 22.6125 22.0649 22.6946C22.0441 22.7854 22.021 22.8704 21.9961 22.9478C21.9944 22.9525 21.9932 22.9565 21.9915 22.9611C21.9574 23.0669 21.9204 23.1606 21.8828 23.2427C21.8823 23.2444 21.8811 23.2461 21.8805 23.2479C21.7898 23.4462 21.6973 23.5774 21.6342 23.6537C21.5874 23.7103 21.5574 23.7369 21.5574 23.7369C21.5574 23.7369 21.5655 23.6936 21.573 23.6179C21.5868 23.4745 21.5984 23.2161 21.5504 22.9137C21.5504 22.9114 21.5498 22.9091 21.5493 22.9068C21.514 22.69 21.4475 22.4524 21.329 22.2189C21.3255 22.2125 21.3227 22.2056 21.3192 22.1992C21.2926 22.1478 21.2631 22.0963 21.2307 22.046C21.0128 21.7032 21.096 21.8639 21.2198 22.2403C21.2226 22.2495 21.2261 22.2593 21.229 22.2686C21.307 22.5085 21.3978 22.8276 21.4406 23.1594C21.4406 23.16 21.4406 23.1606 21.4406 23.1612C21.4574 23.2918 21.4666 23.4242 21.4643 23.5548C21.4608 23.7543 21.4302 23.9479 21.3597 24.1208C21.3573 24.126 21.3556 24.1312 21.3533 24.1358C21.1215 24.6833 20.822 25.0411 20.5879 25.314L20.5908 25.3117ZM23.9842 22.0304C23.9882 22.0304 23.9929 22.0293 23.9992 22.0287C23.9934 22.0293 23.9882 22.0298 23.9842 22.0304ZM24.0333 22.024C24.0212 22.0258 24.0102 22.0269 24.0015 22.0281C24.0102 22.0269 24.0206 22.0252 24.0333 22.024ZM28.2072 18.3942C28.2025 18.3867 28.1973 18.3786 28.1927 18.3705C28.1829 18.3537 28.1725 18.337 28.1615 18.319C28.154 18.3069 28.1465 18.2948 28.139 18.2815C28.1337 18.2728 28.1285 18.2653 28.1233 18.2572C27.9123 17.9173 27.9152 18.0566 27.9649 18.2653C27.98 18.3283 27.9996 18.3977 28.0187 18.4618C28.0193 18.4641 28.0204 18.4665 28.021 18.4694C28.0574 18.5908 28.0915 18.6913 28.0915 18.6913C28.0915 18.6913 28.0401 18.6757 27.9557 18.7243C27.943 18.7318 27.9291 18.7405 27.9147 18.7515C27.8106 18.8289 27.669 18.9983 27.5129 19.3677C27.3909 19.6579 27.1903 19.8695 26.9897 20.0204C26.8972 20.0897 26.8053 20.1464 26.7203 20.1921C26.6139 20.2493 26.5191 20.2886 26.4515 20.3135C26.3844 20.3383 26.344 20.3487 26.344 20.3487C26.344 20.3487 26.3735 20.314 26.4145 20.2493C26.474 20.1557 26.5561 19.9978 26.607 19.7897C26.6099 19.777 26.6134 19.7643 26.6163 19.751C26.6342 19.6695 26.6469 19.581 26.6509 19.4856C26.6619 19.2417 26.5902 19.4342 26.4492 19.7498C26.4318 19.7886 26.4133 19.829 26.3943 19.8707C26.3943 19.8707 26.3943 19.8712 26.3943 19.8718C26.3665 19.9319 26.3365 19.9949 26.3047 20.0585C26.2139 20.2395 26.1058 20.4274 25.9838 20.584C25.8919 20.7014 25.7919 20.8014 25.6844 20.8667C25.6439 20.891 25.6057 20.9135 25.5688 20.9343C25.4144 21.0211 25.2872 21.0789 25.1832 21.1188C25.0704 21.1615 24.9855 21.1823 24.9253 21.1916C24.8461 21.2037 24.8103 21.1974 24.8103 21.1974C24.8103 21.1974 24.8606 21.1829 24.9253 21.1361C25.0045 21.0789 25.1045 20.9719 25.1635 20.78C25.1762 20.7384 25.1866 20.6921 25.1953 20.6418C25.2046 20.5846 25.2109 20.5222 25.2126 20.4528C25.2196 20.0736 25.1346 20.3337 24.9352 20.6915C24.9236 20.7124 24.9115 20.7332 24.8993 20.7546C24.897 20.7586 24.8947 20.7621 24.8924 20.7661C24.8918 20.7673 24.8912 20.7684 24.8906 20.7696C24.8901 20.7707 24.8895 20.7719 24.8889 20.7725C24.7675 20.98 24.6091 21.2049 24.4108 21.3517C24.3946 21.3633 24.379 21.3749 24.3623 21.3858C23.7478 21.7876 24.1807 21.4095 23.5749 21.8107C23.2772 22.0079 22.8956 22.1223 22.5835 22.1876C22.5875 22.1061 22.5869 22.0246 22.5789 21.9443C22.5742 21.8986 22.569 21.8535 22.5627 21.8084C22.5731 21.7865 22.5829 21.7645 22.5916 21.7419C22.5997 21.7223 22.606 21.702 22.613 21.6824C22.9367 21.3644 22.9448 20.9748 22.9448 21.1719C22.9448 21.1806 22.9448 21.1899 22.9448 21.2008C22.9448 21.2286 22.9436 21.2558 22.9413 21.2824C22.9309 21.4101 22.8997 21.5176 22.898 21.5679C22.8968 21.5963 22.9055 21.6067 22.9321 21.5922C22.9702 21.5714 23.0454 21.5003 23.1841 21.3592C23.5159 21.0205 23.7235 20.5274 23.7339 20.0926C23.7374 19.9475 23.7189 19.8094 23.6761 19.6857C23.6599 19.6388 23.6518 19.603 23.6495 19.5758C23.6495 19.5747 23.6495 19.5741 23.6495 19.5729C23.6495 19.5654 23.6495 19.5579 23.6495 19.5515C23.6628 19.4064 23.9299 19.6157 23.946 19.6007C23.9518 19.5943 23.9183 19.5521 23.8125 19.4377C23.7061 19.3226 23.6628 19.2683 23.6784 19.2469C23.7246 19.1816 24.3004 19.4111 25.2884 19.1723C26.3642 18.9116 26.648 18.356 26.6191 17.9485C26.6128 17.8572 26.5908 17.7733 26.5584 17.7022C26.5249 17.6288 26.5186 17.5756 26.5295 17.5352C26.5683 17.386 26.8348 17.4045 26.8463 17.2218C26.8486 17.1889 26.8423 17.149 26.8244 17.0998C26.8024 17.0386 26.7989 16.9998 26.807 16.9732C26.8278 16.9039 26.9238 16.9154 26.9562 16.8333C26.9909 16.7443 26.9515 16.546 26.6648 16.0194C26.2041 15.1725 25.5242 14.8511 25.6167 14.7349C25.6555 14.6857 25.8324 14.673 26.222 14.673C26.4677 14.673 26.5752 14.6285 26.5943 14.5574C26.6602 14.3082 25.6381 13.7365 25.6589 13.6411C25.6636 13.618 25.7266 13.622 25.878 13.6637C26.059 13.7134 26.1388 13.703 26.1561 13.6544C26.2127 13.4914 25.5699 12.9017 25.6508 12.704C25.6734 12.648 25.7543 12.6237 25.9237 12.6485C25.9347 12.6503 25.9451 12.6514 25.9567 12.6537C26.2451 12.7035 26.3717 12.7254 26.3873 12.7046C26.4168 12.6653 26.0387 12.4693 25.6115 12.0155C25.6115 12.0155 25.6115 12.0161 25.6115 12.0167C25.4676 11.8641 25.3179 11.6825 25.1768 11.4669C24.8843 11.0212 24.7716 10.8056 24.7918 10.7611C24.8126 10.7131 24.9855 10.8611 25.2525 11.1339C25.4023 11.2865 25.5809 11.4785 25.7798 11.697C25.8867 11.8143 25.9844 11.9138 26.074 11.997C26.2191 12.3132 26.3758 12.5936 26.5584 12.8006C26.6122 12.8618 26.6642 12.9191 26.714 12.974C26.8001 13.0688 26.881 13.1549 26.9556 13.2318C27.199 13.4845 27.377 13.6463 27.4753 13.7313C27.5256 13.7752 27.5557 13.7989 27.5614 13.8036C27.5533 13.8013 27.514 13.7885 27.4545 13.7677C27.3389 13.7278 27.1464 13.6573 26.9498 13.5689C26.8527 13.5255 26.755 13.4775 26.6648 13.4266C26.448 13.3047 26.6122 13.4665 26.8851 13.6596C27.0238 13.7579 27.1909 13.8643 27.3499 13.9458C27.4233 13.9833 27.4955 14.0163 27.562 14.04C27.6534 14.073 27.7187 14.1227 27.7661 14.1839C27.9326 14.4002 27.8811 14.758 27.9991 15.0014C28.0291 15.0638 28.0702 15.1187 28.1291 15.1621C28.3794 15.3453 28.4939 15.7587 28.5396 15.9853C28.5425 16.0009 28.5454 16.0153 28.5482 16.0292C28.561 16.0986 28.5662 16.1419 28.5662 16.1419C28.5662 16.1419 28.5436 16.1032 28.5008 16.0419C28.3927 15.887 28.1505 15.5864 27.7904 15.3899C27.7811 15.3846 27.7724 15.3794 27.7632 15.3742C27.7453 15.365 27.7291 15.3569 27.7146 15.3505C27.5585 15.2794 27.5984 15.3661 27.721 15.543C27.8222 15.6899 27.98 15.8986 28.128 16.1304C28.1303 16.1339 28.1326 16.1373 28.1349 16.1414C28.1875 16.2246 28.239 16.3108 28.2864 16.3975C28.3072 16.4356 28.3268 16.4738 28.3459 16.5125C28.3916 16.6062 28.4309 16.6998 28.4604 16.7917C28.5297 17.0091 28.5378 17.1363 28.5164 17.2236C28.4696 17.4109 28.2829 17.4138 28.2552 17.7253C28.2494 17.7895 28.2499 17.8664 28.2604 17.9612C28.2736 18.0867 28.291 18.1971 28.3089 18.293C28.3095 18.2965 28.3101 18.3 28.3106 18.3034C28.3939 18.7515 28.4818 18.8468 28.2101 18.393L28.2072 18.3942ZM28.7205 18.4098C28.7812 18.4694 28.7639 18.4792 28.7205 18.4098Z" fill="#110F23"/>
<path d="M3.61798 14.7938C3.61798 14.7938 3.61566 14.7996 3.61508 14.8025C3.61508 14.8019 3.61566 14.8014 3.61624 14.8008C3.61624 14.799 3.6174 14.7962 3.61798 14.7938Z" fill="#110F23"/>
<path d="M3.83071 19.1151C3.83476 19.1168 3.83996 19.1186 3.84459 19.1203C3.84401 19.1197 3.84343 19.1186 3.84227 19.118C3.83823 19.1174 3.83418 19.1162 3.83013 19.1151H3.83071Z" fill="#110F23"/>
<path d="M28.1522 19.1203C28.1569 19.1185 28.1615 19.1174 28.165 19.1157C28.1615 19.1162 28.158 19.1174 28.1546 19.118C28.154 19.1185 28.1528 19.1197 28.1522 19.1203Z" fill="#110F23"/>
<path d="M13.7768 13.2509C13.7745 13.2428 13.7716 13.2353 13.7699 13.2272C13.7641 13.211 13.7595 13.1931 13.7531 13.1758C13.7502 13.1665 13.7473 13.1573 13.7439 13.1474C13.7439 13.1463 13.7433 13.1445 13.7427 13.1422C13.7364 13.1226 13.7288 13.1018 13.7207 13.0804C13.7207 13.0792 13.7202 13.0781 13.7196 13.0775C13.7126 13.0567 13.704 13.0359 13.6953 13.0145C13.6785 12.9728 13.66 12.9289 13.6387 12.8856C13.6323 12.8723 13.6259 12.8584 13.619 12.8451C13.6184 12.8428 13.6178 12.8416 13.6167 12.8399C13.5988 12.8046 13.5791 12.7682 13.5583 12.7335C13.5415 12.7046 13.5236 12.6763 13.504 12.6485C13.4953 12.6358 13.4872 12.6237 13.4779 12.611C13.4693 12.5988 13.46 12.5867 13.4502 12.5751C13.4409 12.5641 13.4311 12.552 13.4213 12.5404C13.3901 12.5046 13.356 12.4705 13.3201 12.4398C13.3126 12.4329 13.3039 12.4265 13.2958 12.4202C13.2889 12.4144 13.2808 12.4086 13.2733 12.404C13.2652 12.3982 13.2577 12.3924 13.2496 12.3878C13.2415 12.3832 13.234 12.378 13.2259 12.3739C13.2051 12.3612 13.1843 12.3508 13.1623 12.3404C13.1548 12.3369 13.1467 12.3335 13.138 12.3306C13.1259 12.326 13.1137 12.3213 13.1022 12.3179C13.0322 12.2959 12.9611 12.2855 12.8894 12.2855C12.8756 12.2855 12.8611 12.2861 12.8467 12.2866C12.8091 12.289 12.7721 12.2936 12.7357 12.3017C12.7258 12.3028 12.716 12.3057 12.7062 12.308C12.5686 12.3427 12.4328 12.4144 12.3056 12.5185C12.2957 12.526 12.2859 12.5346 12.2761 12.5433C12.1778 12.63 12.0853 12.7364 12.0027 12.8595C11.9928 12.8728 11.9836 12.8873 11.9749 12.9012C11.9691 12.9098 11.9645 12.9173 11.9593 12.926C11.95 12.9405 11.9414 12.9549 11.9333 12.97C11.9281 12.9786 11.9235 12.9867 11.9182 12.996C11.909 13.0116 11.9003 13.0278 11.8922 13.0439C11.8662 13.0925 11.8414 13.144 11.8188 13.1971H11.8182C11.8061 13.2266 11.794 13.2567 11.7824 13.2873C11.7703 13.318 11.7587 13.3492 11.7483 13.381C11.7483 13.381 12.0674 14.0539 12.5102 14.0984C12.953 14.1429 13.8121 14.0984 13.8121 13.381C13.8121 13.381 13.8086 13.3631 13.8005 13.333C13.7947 13.3116 13.7878 13.285 13.7786 13.2521L13.7768 13.2509ZM13.1536 13.1752C13.0189 13.1752 12.9103 13.0659 12.9103 12.9318C12.9103 12.7977 13.0195 12.6884 13.1536 12.6884C13.2878 12.6884 13.397 12.7977 13.397 12.9318C13.397 13.0659 13.2878 13.1752 13.1536 13.1752Z" fill="#110F23"/>
<path d="M20.1803 13.1971H20.1798C20.1763 13.2081 20.1723 13.2197 20.1682 13.2313C20.1717 13.2197 20.1763 13.2087 20.1798 13.1966C20.1572 13.1434 20.1324 13.0925 20.1064 13.0434C20.0977 13.0272 20.0896 13.011 20.0803 12.9954C20.0751 12.9861 20.0705 12.9775 20.0653 12.9694C20.0566 12.9543 20.0485 12.9393 20.0393 12.9254C20.0341 12.9168 20.0295 12.9093 20.0237 12.9006C20.015 12.8867 20.0058 12.8723 19.9959 12.859C19.9127 12.7358 19.8208 12.6295 19.7225 12.5427C19.7127 12.5346 19.7028 12.526 19.693 12.5179C19.5658 12.4138 19.43 12.3421 19.2924 12.3075C19.2826 12.3051 19.2727 12.3023 19.2629 12.3011C19.2259 12.293 19.1895 12.2884 19.1513 12.2861C19.1375 12.2855 19.123 12.2849 19.1091 12.2849C19.0375 12.2849 18.9669 12.2953 18.8964 12.3173C18.8843 12.3208 18.8727 12.3248 18.8606 12.33C18.8519 12.3329 18.8444 12.3364 18.8363 12.3398C18.8143 12.3497 18.7929 12.3606 18.7727 12.3734C18.7646 12.3774 18.7571 12.3826 18.749 12.3872C18.7409 12.3924 18.7334 12.3982 18.7253 12.4034C18.7178 12.4086 18.7097 12.4144 18.7027 12.4196C18.6947 12.426 18.6866 12.4323 18.6785 12.4393C18.642 12.4699 18.6085 12.504 18.5773 12.5399C18.5675 12.5508 18.5576 12.563 18.5484 12.5745C18.5386 12.5867 18.5293 12.5988 18.5206 12.6104C18.5114 12.6231 18.5027 12.6352 18.4946 12.648C18.475 12.6757 18.4571 12.704 18.4403 12.7329C18.4195 12.7676 18.3998 12.8035 18.3819 12.8393C18.3813 12.8405 18.3807 12.8422 18.3796 12.8445C18.3721 12.8578 18.3663 12.8717 18.3599 12.885C18.3385 12.9283 18.32 12.9723 18.3033 13.0139C18.2946 13.0353 18.2859 13.0567 18.279 13.0769C18.2784 13.0775 18.2773 13.0781 18.2773 13.0798C18.2692 13.1012 18.2617 13.1214 18.2553 13.1416C18.2547 13.144 18.2536 13.1451 18.2536 13.1468C18.2501 13.1567 18.2472 13.1659 18.2443 13.1752C18.238 13.1931 18.2328 13.2104 18.2276 13.2266C18.2252 13.2347 18.2223 13.2422 18.2206 13.2503V13.2515C18.2114 13.2839 18.2044 13.3105 18.1986 13.3318C18.1906 13.3625 18.1871 13.3798 18.1871 13.3798C18.1871 14.0972 19.0456 14.1417 19.4889 14.0972C19.9318 14.0533 20.2509 13.3798 20.2509 13.3798C20.2405 13.348 20.2289 13.3168 20.2168 13.2862C20.2046 13.2555 20.1925 13.226 20.1803 13.1971ZM19.5913 13.1752C19.4566 13.1752 19.3479 13.0659 19.3479 12.9318C19.3479 12.7977 19.4572 12.6884 19.5913 12.6884C19.7254 12.6884 19.8346 12.7977 19.8346 12.9318C19.8346 13.0659 19.7254 13.1752 19.5913 13.1752Z" fill="#110F23"/>
<path d="M16.3141 17.6375C16.2135 17.6259 16.1088 17.6196 15.9996 17.6196C15.1261 17.6196 14.5289 18.0156 14.2578 18.3815C13.9855 18.748 14.2283 18.996 14.8128 19.2561C15.3972 19.5157 15.2966 19.6105 15.4978 20.0181C15.6354 20.2979 15.821 20.3464 15.9233 20.3493C15.9695 20.3505 15.9984 20.343 15.999 20.3424C15.999 20.3424 16.0181 20.3476 16.0493 20.3487C16.1435 20.3528 16.3505 20.3233 16.5008 20.0175C16.639 19.7383 16.6349 19.6059 16.8072 19.4666C16.8864 19.403 17.002 19.3377 17.1858 19.2561C17.3379 19.1885 17.4662 19.1214 17.5691 19.0532C17.861 18.859 17.942 18.6526 17.7408 18.3815C17.5032 18.0618 17.017 17.7184 16.3135 17.6375H16.3141Z" fill="#110F23"/>
</svg>
