<svg width="32" height="32" viewBox="0 0 32 32" fill="none" xmlns="http://www.w3.org/2000/svg">
<path d="M22.1946 12.41C23.2721 9.5975 23.4446 7.305 22.6946 5.925C22.4849 5.53949 22.1885 5.2079 21.8289 4.9563C21.4693 4.7047 21.0562 4.53994 20.6221 4.475C20.1961 4.38391 19.7546 4.39534 19.3338 4.50835C18.9131 4.62136 18.5252 4.83271 18.2021 5.125C16.6621 6.5 16.4121 9.3925 16.3571 11.17C16.0871 11.17 15.8571 11.17 15.6071 11.17C15.4996 9.3925 15.2971 6.5 13.7496 5.1275C13.4263 4.83401 13.0377 4.62175 12.616 4.50828C12.1943 4.39481 11.7516 4.38341 11.3246 4.475C10.8898 4.5415 10.4763 4.70766 10.1163 4.9605C9.75633 5.21335 9.45972 5.54601 9.24965 5.9325C8.49965 7.3225 8.67465 9.625 9.74965 12.445C6.69465 13.885 4.95215 16.395 4.95215 19.3875C4.95215 24.365 9.28465 27.58 15.9896 27.58C22.6946 27.58 27.0271 24.365 27.0271 19.3875C27.0371 16.3675 25.2796 13.845 22.1946 12.41ZM10.5396 13.12L10.9646 12.94L10.7896 12.5125C9.68215 9.8025 9.41965 7.5675 10.0646 6.3775C10.21 6.1124 10.4156 5.88514 10.6648 5.71405C10.9141 5.54296 11.2 5.43282 11.4996 5.3925C11.6389 5.36525 11.7803 5.35102 11.9221 5.35C12.3682 5.35429 12.7971 5.52247 13.1271 5.8225C14.8771 7.2925 14.7121 12.155 14.7121 12.155L15.1321 12.125C15.6959 12.0963 16.2608 12.0963 16.8246 12.125L17.2346 12.15C17.2346 12.15 17.0946 7.2975 18.8296 5.8325C19.0468 5.63672 19.3075 5.49558 19.5901 5.42079C19.8727 5.346 20.1691 5.33973 20.4546 5.4025C20.7529 5.44205 21.0376 5.55141 21.2857 5.7217C21.5337 5.89198 21.7381 6.11838 21.8821 6.3825C22.5246 7.5625 22.2646 9.7875 21.1646 12.49L20.9996 12.9075L21.4271 13.0875C24.0546 14.185 25.8821 16.0875 26.0421 18.4325C26.2646 21.88 21.5871 24.605 15.9996 24.605C10.4121 24.605 5.74965 21.92 5.96215 18.5C6.10215 16.135 7.91965 14.2275 10.5396 13.12Z" fill="#110F23"/>
<path d="M19.8529 19.915C20.5045 19.915 21.0329 19.1259 21.0329 18.1525C21.0329 17.1791 20.5045 16.39 19.8529 16.39C19.2012 16.39 18.6729 17.1791 18.6729 18.1525C18.6729 19.1259 19.2012 19.915 19.8529 19.915Z" fill="#110F23"/>
<path d="M12.1321 19.915C12.7838 19.915 13.3121 19.1259 13.3121 18.1525C13.3121 17.1791 12.7838 16.39 12.1321 16.39C11.4805 16.39 10.9521 17.1791 10.9521 18.1525C10.9521 19.1259 11.4805 19.915 12.1321 19.915Z" fill="#110F23"/>
</svg>
