<svg width="32" height="32" viewBox="0 0 32 32" fill="none" xmlns="http://www.w3.org/2000/svg">
<path d="M8.13054 25.0969C8.09517 25.0472 8.0598 24.9963 8.02553 24.9455C7.99568 24.9024 7.96584 24.8593 7.93709 24.8162C7.8763 24.7244 7.81771 24.6315 7.75912 24.5376C7.74365 24.5133 7.72928 24.4878 7.71491 24.4635C7.66848 24.3861 7.62205 24.3077 7.57784 24.2292C7.55904 24.1949 7.54025 24.1618 7.52146 24.1275C7.48056 24.0534 7.44077 23.9794 7.40097 23.9042C7.38439 23.8721 7.3667 23.839 7.35012 23.8069C7.30591 23.7196 7.2628 23.6323 7.22079 23.5438C7.21084 23.5228 7.20089 23.5029 7.19094 23.4819C7.1412 23.3758 7.09367 23.2697 7.04724 23.1614C7.02845 23.137 7.00966 23.1116 6.99087 23.0873C6.96544 23.0541 6.93891 23.0199 6.91459 22.9867C6.89359 22.9591 6.87369 22.9303 6.85379 22.9016C6.82837 22.8662 6.80295 22.8319 6.77863 22.7966C6.75983 22.7689 6.74104 22.7402 6.72225 22.7126C6.69793 22.6761 6.67251 22.6385 6.64929 22.602C6.63161 22.5755 6.61503 22.5479 6.59845 22.5202C6.57413 22.4815 6.54981 22.4428 6.52659 22.403C6.51112 22.3765 6.49564 22.35 6.48017 22.3235C6.45695 22.2826 6.43263 22.2417 6.40942 22.1997C6.39505 22.1742 6.38179 22.1477 6.36741 22.1223C6.3442 22.0792 6.32099 22.0361 6.29888 21.9929C6.28672 21.9686 6.27456 21.9432 6.2624 21.9189C6.23919 21.8736 6.21708 21.8282 6.19497 21.7818C6.18392 21.7586 6.17397 21.7354 6.16291 21.7133C6.14081 21.6646 6.11759 21.616 6.09659 21.5674C6.08775 21.5464 6.0789 21.5242 6.07006 21.5032C6.04795 21.4524 6.02584 21.4004 6.00484 21.3485C5.9971 21.3286 5.98937 21.3087 5.98163 21.2888C5.96062 21.2346 5.93962 21.1805 5.91862 21.1263C5.91199 21.1086 5.90646 21.0909 5.89983 21.0732C5.87882 21.0158 5.85893 20.9583 5.83903 20.8997C5.8335 20.8842 5.82908 20.8698 5.82466 20.8544C5.80476 20.7936 5.78486 20.7328 5.76607 20.6709C5.76165 20.6576 5.75833 20.6454 5.75502 20.6322C5.73623 20.5681 5.71743 20.504 5.69864 20.4387C5.69643 20.4288 5.69312 20.4188 5.6909 20.4089C5.67211 20.3404 5.65443 20.2729 5.63785 20.2033C5.63563 20.1955 5.63453 20.1878 5.63232 20.1801C5.61463 20.1082 5.59805 20.0364 5.58257 19.9645C5.58257 19.9601 5.58036 19.9557 5.58036 19.9513C5.56378 19.875 5.54831 19.7998 5.53394 19.7224C5.53394 19.7224 5.53394 19.7213 5.53394 19.7202C4.80768 15.8513 6.39947 10.9156 9.95999 6.89196C9.96662 6.88532 9.97215 6.87869 9.97768 6.87206C10.0318 6.81016 10.0849 6.75046 10.138 6.69188C10.1556 6.67309 10.1722 6.65319 10.1899 6.6344C10.2386 6.58134 10.285 6.52828 10.3325 6.47743C10.3436 6.46637 10.3535 6.45421 10.3646 6.44206C10.4198 6.38126 10.4751 6.32267 10.5282 6.26519C10.5414 6.25082 10.5558 6.23645 10.5691 6.22208C10.6122 6.17676 10.6542 6.13254 10.6951 6.08832C10.7084 6.07395 10.7216 6.06069 10.7349 6.04632C10.7857 5.99326 10.8366 5.94131 10.8863 5.89046C10.8963 5.8794 10.9073 5.86945 10.9173 5.85951C10.9427 5.83408 10.9681 5.80755 10.9935 5.78213C6.46801 5.80866 6.00595 8.20408 5.37476 11.475C5.09177 12.9419 4.77121 14.6033 4.0339 16.2647C2.86438 18.9011 2.68641 21.0025 3.5033 22.5103C4.24724 23.881 5.85008 24.8173 8.27424 25.297C8.25987 25.2782 8.24661 25.2594 8.23334 25.2406C8.19908 25.1942 8.16481 25.1478 8.13165 25.1002L8.13054 25.0969Z" fill="#110F23"/>
<path d="M28.0732 14.2628C27.8798 14.7569 27.6532 15.2588 27.3956 15.764C27.379 15.796 27.3613 15.8292 27.3448 15.8612C27.2961 15.9563 27.2464 16.0503 27.1955 16.1453C27.1701 16.1918 27.1447 16.2382 27.1193 16.2846C27.075 16.3653 27.0308 16.4471 26.9844 16.5278C26.9534 16.582 26.9225 16.6361 26.8915 16.6903C26.8495 16.7633 26.8064 16.8373 26.7633 16.9103C26.7279 16.97 26.6915 17.0297 26.6561 17.0893C26.6152 17.1579 26.5732 17.2253 26.5312 17.2938C26.4925 17.3569 26.4527 17.4199 26.4118 17.484C26.3709 17.5481 26.33 17.6133 26.288 17.6774C26.2449 17.7438 26.2018 17.809 26.1587 17.8753C26.1178 17.9372 26.0769 17.998 26.0349 18.0599C25.9884 18.1284 25.942 18.1959 25.8956 18.2644C25.8547 18.3241 25.8127 18.3838 25.7707 18.4435C25.722 18.5131 25.6734 18.5816 25.6236 18.6513C25.5816 18.7099 25.5385 18.7685 25.4965 18.8259C25.4457 18.8956 25.3937 18.9663 25.3418 19.036C25.2986 19.0946 25.2533 19.1531 25.2091 19.2106C25.1561 19.2803 25.1041 19.3488 25.051 19.4184C25.0035 19.4803 24.9538 19.5411 24.9051 19.603C24.8532 19.6683 24.8023 19.7335 24.7504 19.7987C24.6774 19.8893 24.6033 19.9789 24.5293 20.0684C24.5005 20.1038 24.4729 20.1381 24.4431 20.1734C23.8229 20.9174 23.1652 21.5994 22.4776 22.2162C21.6375 22.9701 20.7499 23.6267 19.8236 24.1794C17.8615 25.4496 15.4893 26.1239 12.9711 26.1239C12.7799 26.1239 12.592 26.1216 12.4063 26.1194C12.3797 26.1194 12.3532 26.1183 12.3267 26.1183C12.1763 26.1161 12.0271 26.1117 11.879 26.1073C11.8293 26.1062 11.7806 26.104 11.7309 26.1017C11.6082 26.0973 11.4866 26.0918 11.3661 26.0863C11.3086 26.0841 11.25 26.0807 11.1936 26.0774C11.0831 26.0719 10.9737 26.0653 10.8653 26.0575C10.8056 26.0531 10.7448 26.0498 10.6863 26.0454C10.5746 26.0376 10.4652 26.0288 10.3557 26.0188C10.254 26.01 10.1535 26.0012 10.054 25.9912C9.96 25.9824 9.86605 25.9735 9.7743 25.9636C9.6925 25.9547 9.61291 25.9448 9.53221 25.9348C9.48468 25.9293 9.43494 25.9238 9.3874 25.9182C10.0683 26.6202 10.8421 27.1817 11.6933 27.5929C15.7557 29.5572 17.3784 28.0804 19.8357 25.8442C21.3512 24.4646 23.069 22.9005 25.7817 21.7321C27.3779 21.0445 28.3938 20.0607 28.7995 18.8083C29.1013 17.8797 29.2018 16.3565 28.0743 14.2595L28.0732 14.2628Z" fill="#110F23"/>
<path d="M12.6583 5.41292C12.676 5.41403 12.6937 5.41624 12.7114 5.41734C12.8816 5.43171 13.0507 5.44719 13.2176 5.46377C13.2486 5.46709 13.2784 5.4704 13.3083 5.47372C13.4619 5.4903 13.6156 5.50688 13.7659 5.52457C13.8079 5.5301 13.8499 5.53562 13.8919 5.54115C14.0301 5.55884 14.1683 5.57652 14.3042 5.59642C14.3573 5.60416 14.4082 5.613 14.4601 5.62074C14.5839 5.63953 14.7088 5.65832 14.8304 5.67822C14.8912 5.68817 14.9509 5.70033 15.0117 5.71028C15.1234 5.73017 15.235 5.74897 15.3444 5.76997C15.4152 5.78323 15.4837 5.7976 15.5523 5.81197C15.6506 5.83187 15.7501 5.85066 15.8463 5.87167C15.927 5.88935 16.0044 5.90814 16.084 5.92583C16.168 5.94462 16.2531 5.96342 16.3371 5.98331C16.4322 6.00653 16.525 6.03085 16.619 6.05516C16.6842 6.07175 16.7505 6.08833 16.8146 6.10601C16.9395 6.14028 17.0622 6.17565 17.1849 6.21213C17.2159 6.22098 17.2479 6.22982 17.2789 6.23866C17.5862 6.33152 17.8847 6.4299 18.1732 6.53602C18.1986 6.54597 18.224 6.55591 18.2495 6.56476C18.3666 6.60897 18.4838 6.65319 18.5988 6.69851C18.6386 6.71509 18.6772 6.73167 18.717 6.74826C18.8154 6.78916 18.9149 6.83006 19.0111 6.87206C19.0564 6.89196 19.1006 6.91407 19.1459 6.93396C19.2344 6.97376 19.3217 7.01355 19.4079 7.05556C19.4577 7.07877 19.5052 7.1042 19.5538 7.12852C19.6279 7.16499 19.7031 7.20147 19.7749 7.24016C19.8633 7.25674 19.9496 7.27553 20.0358 7.29433C20.069 7.30096 20.1021 7.30759 20.1353 7.31422C20.2292 7.33523 20.321 7.35844 20.4138 7.38165C20.447 7.3905 20.4802 7.39713 20.5133 7.40597C20.6007 7.42919 20.6869 7.45461 20.7742 7.48004C20.8107 7.49109 20.8472 7.49993 20.8836 7.51099C20.9632 7.53531 21.0417 7.56294 21.1202 7.58947C21.1611 7.60384 21.2031 7.616 21.244 7.63037C21.3159 7.6558 21.3866 7.68343 21.4573 7.71107C21.5027 7.72875 21.5491 7.74533 21.5944 7.76302C21.6674 7.79287 21.7381 7.82382 21.81 7.85477C21.852 7.87246 21.894 7.89014 21.9349 7.90893C22.1593 8.01063 22.377 8.12117 22.5882 8.24056C22.7286 8.32015 22.869 8.40305 23.0071 8.48706C23.0348 8.50364 23.0624 8.52133 23.0889 8.53902C23.1973 8.60645 23.3067 8.67388 23.4139 8.74462C23.4603 8.77557 23.5068 8.80763 23.5543 8.83858C23.6416 8.89717 23.729 8.95576 23.8163 9.01655C23.8693 9.05414 23.9224 9.09172 23.9755 9.13041C24.0551 9.18679 24.1335 9.24427 24.212 9.30175C24.2673 9.34265 24.3226 9.38465 24.3767 9.42666C24.4519 9.48414 24.526 9.54052 24.6 9.5991C24.6553 9.64332 24.7106 9.68754 24.7647 9.73175C24.8366 9.79034 24.9084 9.84893 24.9803 9.90862C25.0344 9.95394 25.0886 10.0004 25.1417 10.0468C25.2124 10.1076 25.2821 10.1684 25.3517 10.2303C25.4037 10.2767 25.4556 10.3231 25.5076 10.3707C25.5772 10.4337 25.6457 10.4978 25.7143 10.563C25.764 10.6094 25.8127 10.657 25.8624 10.7034C25.932 10.7708 25.9995 10.8383 26.068 10.9057C26.1144 10.9521 26.1598 10.9974 26.2051 11.0439C26.2747 11.1146 26.3421 11.1865 26.4107 11.2594C26.4527 11.3036 26.4947 11.3479 26.5356 11.3932C26.6063 11.4695 26.6749 11.5479 26.7434 11.6253C26.7799 11.6662 26.8164 11.7071 26.8517 11.748C26.9247 11.8331 26.9965 11.9194 27.0673 12.0045C27.096 12.0398 27.1259 12.0741 27.1535 12.1095C27.2342 12.2101 27.3138 12.3107 27.3912 12.4124C27.4078 12.4334 27.4243 12.4544 27.4409 12.4754C27.6277 12.7219 27.8035 12.9717 27.9671 13.2226C28.5651 11.3258 28.5651 9.72291 27.9605 8.67719C27.5559 7.97747 26.8915 7.53862 25.984 7.37171C25.5297 7.2888 25.0897 7.21474 24.6641 7.14178C22.377 6.75489 20.4017 6.42105 18.5136 5.1023C16.2896 3.55031 14.1815 3.63543 12.0846 5.36871C12.0879 5.36871 12.0912 5.36871 12.0945 5.36871C12.2825 5.38087 12.4693 5.39413 12.6539 5.4085L12.6583 5.41292Z" fill="#110F23"/>
<path d="M10.8454 6.56918C10.8145 6.60344 10.7813 6.63771 10.7493 6.67309C10.7227 6.70293 10.6951 6.73057 10.6675 6.76152C10.6299 6.80242 10.5912 6.84553 10.5525 6.88864C10.5293 6.91406 10.5072 6.93838 10.484 6.96491C10.4209 7.03455 10.3568 7.10751 10.2905 7.18157C8.05427 9.70854 6.53433 12.7141 6.01148 15.6424C5.98274 15.8038 5.95842 15.964 5.9352 16.1232C5.92857 16.1663 5.92304 16.2094 5.91752 16.2526C5.89983 16.3852 5.88435 16.5179 5.87109 16.6494C5.86777 16.677 5.86446 16.7058 5.86225 16.7334C5.84788 16.8882 5.83682 17.0418 5.82908 17.1944C5.82687 17.2319 5.82577 17.2706 5.82356 17.3082C5.81803 17.4309 5.81471 17.5525 5.81361 17.6741C5.81361 17.7117 5.8125 17.7493 5.8125 17.7869C5.8125 17.9361 5.81471 18.0831 5.82024 18.2301C5.82024 18.2578 5.82356 18.2843 5.82466 18.3108C5.83019 18.4335 5.83793 18.5551 5.84788 18.6756C5.85119 18.7154 5.85451 18.7552 5.85782 18.795C5.87109 18.9376 5.88657 19.0791 5.90646 19.2195C5.90646 19.2217 5.90646 19.225 5.90757 19.2272C5.92747 19.3665 5.95068 19.5025 5.9761 19.6384C5.98274 19.676 5.99047 19.7147 5.99821 19.7523C6.02143 19.8661 6.04574 19.9789 6.07227 20.0894C6.0778 20.1137 6.08333 20.1392 6.08996 20.1635C6.12312 20.295 6.1596 20.4244 6.19829 20.5526C6.20824 20.5846 6.21819 20.6167 6.22924 20.6488C6.2613 20.7516 6.29667 20.8522 6.33315 20.9527C6.3442 20.9837 6.35526 21.0147 6.36742 21.0456C6.37405 21.0622 6.37958 21.0799 6.38621 21.0976C6.38621 21.0942 6.3851 21.0898 6.384 21.0865C6.37295 21.0345 6.36189 20.9826 6.35194 20.9317C6.33757 20.8632 6.32431 20.7958 6.31215 20.7272C6.29999 20.6631 6.28783 20.599 6.27677 20.5338C6.26793 20.4841 6.26019 20.4332 6.25246 20.3824C6.24472 20.3304 6.23587 20.2784 6.22814 20.2265C6.2204 20.1745 6.21377 20.1215 6.20713 20.0695C6.2005 20.0187 6.19387 19.9678 6.18834 19.917C6.18171 19.865 6.17618 19.812 6.17066 19.76C6.16513 19.7058 6.16071 19.6506 6.15518 19.5964C6.14855 19.519 6.14191 19.4406 6.13639 19.3621C6.13197 19.2968 6.12754 19.2316 6.12312 19.1664C6.11981 19.1156 6.1187 19.0636 6.11649 19.0128C6.11428 18.9608 6.11207 18.9088 6.11096 18.8558C6.10986 18.8038 6.10875 18.7508 6.10765 18.6988C6.10765 18.6469 6.10654 18.5938 6.10654 18.5419C6.10654 18.491 6.10654 18.4391 6.10654 18.3882C6.10654 18.3318 6.10875 18.2743 6.10986 18.218C6.11096 18.1715 6.11207 18.1251 6.11317 18.0787C6.11649 17.9825 6.12091 17.8875 6.12754 17.7913C6.13086 17.7449 6.13418 17.6995 6.13749 17.6531C6.14191 17.5956 6.14634 17.537 6.15076 17.4796C6.15518 17.432 6.1596 17.3834 6.16402 17.3359C6.16955 17.2795 6.17618 17.2231 6.18171 17.1667C6.18724 17.1203 6.19276 17.0739 6.19829 17.0274C6.20603 16.9644 6.21487 16.9025 6.22371 16.8395C6.22924 16.7997 6.23477 16.7599 6.2403 16.7201C6.25467 16.6229 6.27125 16.5256 6.28783 16.4283C6.29446 16.3929 6.30109 16.3576 6.30773 16.3222C6.31989 16.2559 6.33315 16.1884 6.34642 16.1221C6.35526 16.0812 6.3641 16.0392 6.37295 15.9983C6.38621 15.9364 6.39947 15.8756 6.41385 15.8148C6.42379 15.7739 6.43264 15.733 6.44259 15.6921C6.45917 15.6258 6.47575 15.5606 6.49343 15.4942C6.50228 15.46 6.51112 15.4257 6.51996 15.3914C6.54649 15.2942 6.57413 15.198 6.60398 15.1007C6.61171 15.0753 6.61945 15.051 6.62719 15.0256C6.6504 14.9515 6.67362 14.8774 6.69793 14.8045C6.71009 14.768 6.72225 14.7326 6.73552 14.6961C6.75652 14.6331 6.77863 14.5712 6.80184 14.5093C6.81511 14.4717 6.82948 14.4342 6.84274 14.3977C6.86706 14.3336 6.89138 14.2695 6.91681 14.2053C6.93007 14.1733 6.94223 14.1401 6.9555 14.1081C6.99308 14.0152 7.03287 13.9224 7.07377 13.8295C7.08262 13.8107 7.09146 13.7908 7.1003 13.772C7.13347 13.698 7.16773 13.6239 7.202 13.5498C7.21858 13.5145 7.23627 13.4791 7.25396 13.4437C7.28159 13.3862 7.31033 13.3299 7.33907 13.2724C7.35897 13.2348 7.37776 13.1961 7.39766 13.1585C7.4264 13.1032 7.45625 13.0491 7.48609 12.9949C7.50599 12.9584 7.52589 12.922 7.54689 12.8855C7.58337 12.8203 7.62206 12.755 7.66075 12.6909C7.67401 12.6699 7.68506 12.6478 7.69833 12.6257C8.92865 10.5862 10.7946 8.99555 13.096 8.02721C13.0994 8.02611 13.1027 8.025 13.106 8.02389C13.2243 7.97415 13.3437 7.92662 13.463 7.88019C13.5017 7.86582 13.5404 7.85145 13.5791 7.83708C13.6664 7.80502 13.7538 7.77297 13.8422 7.74202C13.8842 7.72764 13.9262 7.71327 13.9682 7.6989C14.0611 7.66795 14.155 7.63811 14.249 7.60826C14.281 7.59831 14.3142 7.58726 14.3463 7.57841C14.4734 7.54083 14.6005 7.50435 14.7287 7.47008C14.7453 7.46566 14.763 7.46124 14.7796 7.45682C14.8901 7.42808 15.0018 7.40044 15.1134 7.37502C15.1499 7.36618 15.1875 7.35844 15.2239 7.3507C15.319 7.3297 15.4152 7.3098 15.5114 7.29101C15.5478 7.28438 15.5843 7.27664 15.6197 7.27001C15.7324 7.249 15.8452 7.22911 15.9579 7.21142C15.9745 7.20921 15.99 7.20589 16.0066 7.20368C16.1392 7.18268 16.273 7.16499 16.4056 7.14952C16.4255 7.14731 16.4465 7.14509 16.4664 7.14288C16.577 7.13072 16.6875 7.11857 16.7981 7.10972C16.8312 7.10641 16.8644 7.10419 16.8975 7.10198C17.0003 7.09425 17.1031 7.08761 17.2059 7.08209C17.2358 7.08098 17.2656 7.07877 17.2944 7.07766C17.5564 7.06551 17.8183 7.06329 18.0781 7.06993C18.1057 7.06993 18.1345 7.07214 18.1621 7.07324C18.224 7.07545 18.287 7.07656 18.3489 7.07988C18.3489 7.07988 18.3511 7.07988 18.3523 7.07988C18.2483 7.03898 18.1444 6.99918 18.0383 6.96049C18.0217 6.95386 18.0052 6.94833 17.9875 6.9417C17.8681 6.89859 17.7476 6.85658 17.626 6.81568C17.5807 6.80021 17.5343 6.78584 17.4889 6.77147C17.3983 6.74273 17.3076 6.71399 17.2159 6.68524C17.165 6.66977 17.1153 6.65429 17.0633 6.63992C16.9694 6.61229 16.8732 6.58465 16.777 6.55812C16.7317 6.54596 16.6864 6.5327 16.64 6.52054C16.4985 6.48296 16.3548 6.44537 16.2089 6.4111C16.0618 6.37573 15.9137 6.34257 15.7634 6.30941C15.7203 6.30056 15.6761 6.29172 15.6329 6.28177C15.5213 6.25856 15.4097 6.23534 15.2969 6.21434C15.2494 6.2055 15.2029 6.19665 15.1554 6.18781C15.0349 6.1657 14.9133 6.14359 14.7906 6.1237C14.7542 6.11817 14.7188 6.11154 14.6823 6.10491C14.354 6.05185 14.0179 6.00431 13.6731 5.96231C13.651 5.9601 13.6277 5.95678 13.6056 5.95457C13.4531 5.93688 13.2983 5.9203 13.1425 5.90372C13.1159 5.90151 13.0894 5.89819 13.064 5.89598C12.8926 5.8794 12.7202 5.86393 12.5455 5.85066C12.5433 5.85066 12.54 5.85066 12.5378 5.85066C12.3488 5.83629 12.1587 5.82192 11.9652 5.81087C11.9221 5.80866 11.8801 5.80755 11.837 5.80534C11.7828 5.80313 11.7286 5.79981 11.6756 5.7976C11.6557 5.7976 11.6358 5.79539 11.6159 5.79539C11.6015 5.80866 11.5861 5.82413 11.5717 5.8374C11.5474 5.86061 11.523 5.88382 11.4976 5.90814C11.4722 5.93357 11.4457 5.95899 11.4191 5.98442C11.3937 6.00984 11.3683 6.03416 11.3418 6.06069C11.3152 6.08722 11.2887 6.11375 11.2611 6.14138C11.2345 6.16791 11.208 6.19444 11.1815 6.22208C11.1538 6.24971 11.1262 6.27956 11.0975 6.3083C11.0709 6.33594 11.0433 6.36357 11.0157 6.39231C10.9869 6.42216 10.9571 6.45421 10.9272 6.48517C10.8996 6.51391 10.872 6.54265 10.8443 6.57249L10.8454 6.56918Z" fill="#110F23"/>
<path d="M24.6498 15.8756C24.6476 15.9254 24.6443 15.9751 24.642 16.0237C24.6387 16.0956 24.6343 16.1663 24.6288 16.2382C24.6255 16.2879 24.621 16.3388 24.6166 16.3885C24.61 16.4593 24.6034 16.5311 24.5956 16.6019C24.5901 16.6494 24.5846 16.6969 24.579 16.7445C24.5702 16.8207 24.5591 16.8959 24.5481 16.9711C24.5426 17.012 24.5359 17.054 24.5304 17.0949C24.5149 17.1899 24.4983 17.2839 24.4807 17.379C24.4762 17.4 24.4729 17.421 24.4696 17.442C24.4464 17.5603 24.4221 17.6774 24.3944 17.7946C24.39 17.8134 24.3856 17.8322 24.3812 17.851C24.358 17.9471 24.3347 18.0444 24.3082 18.1395C24.2994 18.1715 24.2905 18.2025 24.2817 18.2346C24.2585 18.3175 24.2341 18.4015 24.2087 18.4833C24.1988 18.5164 24.1877 18.5496 24.1778 18.5828C24.1512 18.6657 24.1236 18.7486 24.0949 18.8315C24.0849 18.8613 24.075 18.8901 24.0639 18.9199C24.0296 19.0139 23.9954 19.1078 23.9578 19.2018C23.9512 19.2173 23.9456 19.2338 23.939 19.2493C23.8495 19.4737 23.7522 19.6948 23.6472 19.9126C23.6394 19.928 23.6317 19.9435 23.624 19.9601C23.5797 20.0507 23.5333 20.1403 23.4869 20.2298C23.4747 20.2541 23.4615 20.2773 23.4482 20.3006C23.404 20.3835 23.3576 20.4653 23.3111 20.546C23.2979 20.5692 23.2835 20.5935 23.2702 20.6167C23.2205 20.7018 23.1685 20.7869 23.1155 20.871C23.1044 20.8875 23.0945 20.9041 23.0845 20.9218C23.0215 21.0213 22.9574 21.1197 22.89 21.2169C22.89 21.218 22.8878 21.2203 22.8867 21.2214C22.9154 21.1926 22.9441 21.1617 22.974 21.1329C23.0248 21.0821 23.0757 21.0301 23.1254 20.9782C23.1719 20.9306 23.2183 20.882 23.2636 20.8334C23.3144 20.7792 23.3664 20.7239 23.4173 20.6698C23.4615 20.6222 23.5057 20.5747 23.5488 20.5272C23.6041 20.4664 23.6582 20.4056 23.7124 20.3437C23.7511 20.2995 23.7898 20.2563 23.8285 20.2121C23.9103 20.1182 23.991 20.0242 24.0705 19.928C24.0805 19.9159 24.0915 19.9048 24.1015 19.8927C24.4243 19.5058 24.7316 19.1156 25.0223 18.7242C25.0234 18.722 25.0245 18.7209 25.0267 18.7187C25.1218 18.5916 25.2146 18.4634 25.3053 18.3362C25.3186 18.3186 25.3307 18.2998 25.344 18.2821C25.4236 18.1704 25.5009 18.0588 25.5783 17.9483C25.5993 17.9173 25.6203 17.8863 25.6413 17.8543C25.7077 17.7559 25.774 17.6575 25.8392 17.5603C25.8679 17.5171 25.8956 17.4729 25.9232 17.4298C25.9785 17.3447 26.0338 17.2585 26.0879 17.1734C26.1222 17.1192 26.1553 17.0639 26.1885 17.0098C26.2338 16.9357 26.2803 16.8616 26.3245 16.7865C26.3632 16.7224 26.3996 16.6582 26.4372 16.5941C26.4748 16.53 26.5124 16.4659 26.55 16.4018C26.592 16.3288 26.6318 16.2559 26.6716 16.1829C26.7025 16.1276 26.7335 16.0724 26.7633 16.0171C26.8064 15.9364 26.8484 15.8568 26.8904 15.7772C26.9159 15.7297 26.9413 15.6822 26.9656 15.6346C27.0098 15.5484 27.0529 15.4622 27.0949 15.376C27.1148 15.3351 27.1358 15.2942 27.1557 15.2533C27.2 15.1626 27.242 15.0709 27.284 14.9802C27.3006 14.9449 27.3171 14.9095 27.3337 14.873C27.3768 14.7779 27.4177 14.684 27.4586 14.59C27.4719 14.558 27.4863 14.527 27.4995 14.495C27.5404 14.3988 27.5802 14.3015 27.6178 14.2053C27.6289 14.1766 27.641 14.1479 27.6532 14.1191C27.6919 14.0218 27.7283 13.9246 27.7637 13.8273C27.7715 13.8074 27.7792 13.7864 27.7869 13.7665C27.7869 13.7665 27.7869 13.7665 27.7869 13.7654C27.767 13.7322 27.7438 13.698 27.7228 13.6648C27.6731 13.5841 27.6222 13.5034 27.5692 13.4227C27.5404 13.3796 27.5106 13.3365 27.4818 13.2934C27.4277 13.2127 27.3735 13.1331 27.316 13.0524C27.2851 13.0093 27.253 12.9662 27.2221 12.9231C27.1646 12.8435 27.106 12.765 27.0463 12.6865C27.0131 12.6423 26.9778 12.5992 26.9435 12.555C26.8827 12.4776 26.823 12.4002 26.76 12.3239C26.7235 12.2797 26.6848 12.2355 26.6484 12.1902C26.5854 12.115 26.5234 12.0409 26.4582 11.9669C26.4184 11.9205 26.3764 11.8762 26.3355 11.8298C26.2714 11.758 26.2073 11.6861 26.1421 11.6154C26.0979 11.5678 26.0525 11.5214 26.0072 11.4739C25.942 11.4064 25.8779 11.3379 25.8116 11.2716C25.7629 11.2229 25.7132 11.1743 25.6645 11.1268C25.5993 11.0627 25.5352 10.9985 25.4689 10.9355C25.4169 10.8858 25.3628 10.8372 25.3097 10.7885C25.2445 10.7277 25.1804 10.6669 25.1141 10.6083C25.0577 10.5586 25.0013 10.51 24.9438 10.4602C24.8786 10.4027 24.8134 10.3453 24.7471 10.29C24.6885 10.2402 24.6277 10.1916 24.568 10.143C24.5017 10.0888 24.4364 10.0346 24.3701 9.98157C24.3104 9.93404 24.2485 9.88761 24.1888 9.84119C24.1214 9.78923 24.0529 9.73507 23.9843 9.68422C23.9257 9.64111 23.8672 9.5991 23.8086 9.55599C23.7356 9.50293 23.6638 9.44987 23.5908 9.39792C23.5411 9.36365 23.4913 9.33049 23.4416 9.29733C23.3576 9.23984 23.2735 9.18126 23.1884 9.12599C23.1663 9.11162 23.1442 9.09835 23.1221 9.08398C22.8756 8.9248 22.6258 8.77226 22.3737 8.62855C22.1715 8.5147 21.9625 8.40858 21.7481 8.3113C21.7315 8.30356 21.7138 8.29693 21.6972 8.28919C21.6066 8.24829 21.5148 8.2085 21.422 8.17202C21.3888 8.15875 21.3557 8.1477 21.3225 8.13444C21.244 8.10348 21.1655 8.07364 21.0848 8.0449C21.0848 8.0449 21.0837 8.0449 21.0826 8.0449C21.1036 8.05927 21.1224 8.07474 21.1434 8.09022C21.1821 8.11896 21.2208 8.1466 21.2584 8.17534C21.3004 8.20739 21.3424 8.23945 21.3833 8.27261C21.4198 8.30135 21.4563 8.32899 21.4916 8.35773C21.5358 8.3931 21.579 8.42958 21.6221 8.46606C21.653 8.49259 21.6851 8.51801 21.716 8.54454C21.7868 8.60534 21.8564 8.66724 21.9238 8.72915C21.9504 8.75346 21.9769 8.77889 22.0034 8.80431C22.0465 8.84521 22.0908 8.88611 22.1328 8.92812C22.1637 8.95796 22.1925 8.98892 22.2234 9.01876C22.261 9.05635 22.2975 9.09393 22.334 9.13262C22.3638 9.16468 22.3936 9.19673 22.4235 9.22879C22.4589 9.26637 22.4931 9.30506 22.5274 9.34375C22.5561 9.37581 22.5849 9.40897 22.6136 9.44213C22.6479 9.48193 22.681 9.52172 22.7142 9.56152C22.7407 9.59468 22.7684 9.62674 22.7949 9.6599C22.8303 9.70301 22.8634 9.74723 22.8977 9.79144C22.9209 9.82129 22.9441 9.85113 22.9673 9.88209C23.0215 9.95394 23.0735 10.0269 23.1254 10.101C23.1442 10.1275 23.1619 10.1551 23.1796 10.1817C23.2139 10.2325 23.2481 10.2822 23.2813 10.3342C23.3034 10.3685 23.3244 10.4027 23.3465 10.4381C23.3741 10.4834 23.4018 10.5276 23.4294 10.573C23.4515 10.6094 23.4725 10.647 23.4935 10.6835C23.5189 10.7277 23.5444 10.773 23.5687 10.8173C23.5897 10.8548 23.6096 10.8924 23.6295 10.9311C23.6538 10.9764 23.677 11.0229 23.7002 11.0693C23.719 11.1069 23.7378 11.1445 23.7566 11.182C23.7809 11.2318 23.8041 11.2826 23.8274 11.3335C23.8428 11.3678 23.8594 11.4031 23.8749 11.4374C23.9114 11.5203 23.9467 11.6032 23.981 11.6872C23.9921 11.7149 24.002 11.7425 24.0131 11.7701C24.0374 11.832 24.0617 11.895 24.0849 11.958C24.0982 11.9956 24.1114 12.0332 24.1236 12.0697C24.1424 12.1227 24.1612 12.1769 24.1789 12.2311C24.1921 12.2709 24.2043 12.3107 24.2165 12.3505C24.233 12.4035 24.2496 12.4577 24.2651 12.5107C24.2773 12.5505 24.2883 12.5914 24.2994 12.6323C24.3148 12.6876 24.3292 12.744 24.3436 12.8004C24.3535 12.8391 24.3635 12.8788 24.3734 12.9175C24.3889 12.9805 24.4022 13.0436 24.4165 13.1077C24.4243 13.1408 24.432 13.174 24.4386 13.2072C24.4585 13.3044 24.4773 13.4017 24.495 13.5012C24.4961 13.5089 24.4972 13.5178 24.4994 13.5255C24.5149 13.6173 24.5304 13.7101 24.5437 13.803C24.5481 13.8339 24.5525 13.866 24.5558 13.8969C24.5658 13.9688 24.5746 14.0406 24.5835 14.1125C24.5879 14.1479 24.5912 14.1832 24.5945 14.2197C24.6022 14.2905 24.6089 14.3612 24.6144 14.4319C24.6177 14.4673 24.6199 14.5027 24.6233 14.5381C24.6288 14.6132 24.6343 14.6884 24.6376 14.7647C24.6398 14.7956 24.6409 14.8266 24.6431 14.8586C24.6476 14.9482 24.6509 15.0388 24.6531 15.1295C24.6531 15.1471 24.6542 15.1648 24.6542 15.1825C24.6564 15.2953 24.6575 15.408 24.6575 15.523C24.6575 15.5584 24.6553 15.5937 24.6553 15.628C24.6542 15.7109 24.6531 15.7938 24.6498 15.8767V15.8756Z" fill="#110F23"/>
<path d="M9.78645 25.5236C9.90915 25.5369 10.0352 25.549 10.1623 25.5612C10.201 25.5645 10.2386 25.5689 10.2784 25.5723C10.3933 25.5822 10.5116 25.591 10.6299 25.5999C10.6829 25.6043 10.7349 25.6087 10.7891 25.612C10.8863 25.6187 10.9858 25.6242 11.0853 25.6297C11.1627 25.6342 11.239 25.6397 11.3174 25.643C11.3816 25.6463 11.4468 25.6485 11.5109 25.6507C11.9796 25.6706 12.4649 25.6817 12.97 25.6817C15.403 25.6817 17.6923 25.0328 19.5881 23.8036C19.9175 23.5903 20.2304 23.3614 20.5277 23.1205C22.4876 21.5331 23.7378 19.3731 24.1037 16.9567C24.1744 16.4858 24.2131 16.0049 24.2165 15.5175C24.2198 14.9824 24.1866 14.4684 24.1203 13.9754C24.117 13.9522 24.1148 13.9279 24.1114 13.9047C24.1037 13.8494 24.0949 13.7963 24.086 13.7422C24.0783 13.6935 24.0716 13.6449 24.0628 13.5974C24.0562 13.562 24.0495 13.5266 24.0429 13.4912C24.0307 13.426 24.0186 13.3597 24.0053 13.2956C24.0009 13.2735 23.9954 13.2514 23.9898 13.2293C23.9733 13.1519 23.9567 13.0756 23.9379 12.9993C23.9346 12.9861 23.9302 12.9717 23.9268 12.9584C23.9058 12.8744 23.8848 12.7915 23.8616 12.7097C23.8594 12.702 23.8572 12.6942 23.855 12.6876C23.8296 12.5992 23.8041 12.513 23.7765 12.4256C23.7754 12.4201 23.7732 12.4157 23.771 12.4102C23.7422 12.3217 23.7124 12.2333 23.6814 12.1471C23.6814 12.1449 23.6792 12.1415 23.6781 12.1393C23.6461 12.0509 23.6129 11.9625 23.5775 11.8751C23.5775 11.8729 23.5753 11.8707 23.5742 11.8685C23.5388 11.7812 23.5024 11.695 23.4648 11.6087C23.4637 11.6054 23.4626 11.6032 23.4604 11.5999C23.4228 11.5148 23.383 11.4308 23.3421 11.3479C23.341 11.3445 23.3388 11.3423 23.3377 11.339C23.2968 11.2561 23.2548 11.1732 23.2116 11.0925C23.2094 11.0881 23.2072 11.0837 23.2039 11.0792C23.1608 10.9997 23.1166 10.9212 23.0713 10.8427C23.0679 10.8372 23.0646 10.8316 23.0613 10.8261C23.016 10.7498 22.9707 10.6736 22.922 10.5995C22.9176 10.5929 22.9132 10.5873 22.9099 10.5807C22.8623 10.5066 22.8148 10.4337 22.7651 10.3618C22.7595 10.3541 22.7529 10.3453 22.7474 10.3375C22.6987 10.2679 22.649 10.1982 22.5981 10.1308C22.5904 10.1209 22.5838 10.112 22.576 10.1021C22.5263 10.0357 22.4754 9.96941 22.4224 9.9053C22.4135 9.89425 22.4036 9.88319 22.3947 9.87214C22.3428 9.80913 22.2908 9.74612 22.2378 9.68532C22.2267 9.67316 22.2157 9.66101 22.2046 9.64885C22.1516 9.58915 22.0985 9.52946 22.0443 9.47087C22.0322 9.45761 22.0189 9.44545 22.0067 9.43219C21.9526 9.3747 21.8973 9.31833 21.8409 9.26195C21.8266 9.24758 21.8122 9.23432 21.7978 9.22105C21.7426 9.16689 21.6862 9.11272 21.6287 9.05966C21.6132 9.04529 21.5966 9.03203 21.5812 9.01766C21.5237 8.9657 21.4662 8.91375 21.4076 8.8629C21.391 8.84853 21.3722 8.83416 21.3557 8.81979C21.2971 8.77005 21.2385 8.7203 21.1777 8.67277C21.1589 8.6584 21.1401 8.64403 21.1213 8.62855C21.0605 8.58102 21.0008 8.53349 20.9389 8.48706C20.9201 8.47269 20.9002 8.45943 20.8803 8.44506C20.8173 8.39863 20.7554 8.35331 20.6902 8.30799C20.6703 8.29362 20.6493 8.28035 20.6294 8.26709C20.5642 8.22287 20.499 8.17755 20.4326 8.13444C20.4127 8.12117 20.3928 8.10901 20.3729 8.09685C20.3044 8.05264 20.237 8.00953 20.1662 7.96752C20.1463 7.95536 20.1264 7.94431 20.1065 7.93215C20.0347 7.88904 19.9639 7.84703 19.891 7.80502C19.8722 7.79508 19.8534 7.78402 19.8346 7.77407C19.7683 7.73649 19.7009 7.69891 19.6323 7.66243C19.6323 7.66243 19.6323 7.66243 19.6312 7.66243C19.6312 7.66243 19.6301 7.66243 19.629 7.66243C19.5737 7.65248 19.5185 7.64474 19.4621 7.6359C19.3936 7.62484 19.325 7.61268 19.2565 7.60384C19.2012 7.5961 19.1448 7.59058 19.0896 7.58394C19.0144 7.5751 18.9381 7.56515 18.8619 7.55741C18.8121 7.55299 18.7624 7.54968 18.7126 7.54525C18.6297 7.53862 18.5468 7.53088 18.4639 7.52536C18.4208 7.52315 18.3777 7.52204 18.3346 7.51983C18.2439 7.51541 18.1544 7.51099 18.0638 7.50878C18.0273 7.50878 17.9908 7.50878 17.9543 7.50878C17.857 7.50767 17.7598 7.50656 17.6614 7.50767C17.6315 7.50767 17.6006 7.50988 17.5707 7.50988C17.4668 7.51209 17.3618 7.5143 17.2568 7.51983C17.2325 7.52093 17.2082 7.52315 17.1827 7.52425C17.0722 7.53088 16.9617 7.53752 16.8522 7.54636C16.8323 7.54857 16.8124 7.55078 16.7914 7.55299C16.6765 7.56294 16.5615 7.5751 16.4465 7.58836C16.4311 7.59058 16.4156 7.59279 16.4001 7.595C16.2807 7.60937 16.1613 7.62595 16.042 7.64474C16.0287 7.64695 16.0154 7.64916 16.0022 7.65137C15.8806 7.67127 15.759 7.69117 15.6374 7.71549C15.6263 7.7177 15.6153 7.71991 15.6031 7.72212C15.4804 7.74644 15.3577 7.77186 15.235 7.7995C15.2206 7.80281 15.2063 7.80613 15.193 7.80945C15.0736 7.83708 14.9542 7.86582 14.8349 7.89788C14.8183 7.9023 14.8006 7.90783 14.784 7.91225C14.6679 7.9432 14.5519 7.97636 14.4369 8.01063C14.406 8.01947 14.3761 8.03053 14.3463 8.03937C14.2446 8.07143 14.1429 8.10238 14.0423 8.13665C13.9572 8.16539 13.872 8.19744 13.7869 8.2284C13.7416 8.24498 13.6963 8.26045 13.651 8.27703C13.5205 8.32678 13.3912 8.37873 13.263 8.4329C11.0488 9.36476 9.25475 10.8935 8.07307 12.8523C6.37738 15.6656 6.07449 19.2991 7.24291 22.4594C7.30481 22.6263 7.37003 22.7933 7.43967 22.958C7.52037 23.1481 7.60769 23.3327 7.69834 23.5151C7.71713 23.5538 7.73592 23.5925 7.75471 23.63C7.78235 23.6842 7.8122 23.7373 7.83983 23.7903C7.86968 23.8467 7.89952 23.9031 7.93047 23.9584C7.95258 23.9982 7.9769 24.0379 8.00012 24.0777C8.0388 24.1452 8.07749 24.2126 8.11729 24.2789C8.13608 24.3088 8.15487 24.3386 8.17366 24.3685C8.22009 24.4425 8.26652 24.5166 8.31516 24.5895C8.33063 24.6139 8.34721 24.6371 8.36379 24.6603C8.41575 24.7377 8.46881 24.8139 8.52297 24.8891C8.53845 24.9112 8.55503 24.9322 8.57051 24.9532C8.62578 25.0284 8.68105 25.1036 8.73853 25.1776C8.75732 25.2008 8.77611 25.224 8.7938 25.2473C8.83691 25.3014 8.88002 25.3567 8.92424 25.4098C8.92424 25.4098 8.92424 25.4098 8.92534 25.4109C8.92534 25.4109 8.92645 25.4109 8.92755 25.4109C9.02151 25.4252 9.11768 25.4385 9.21385 25.4518C9.24812 25.4562 9.28018 25.4617 9.31445 25.4661C9.43715 25.4827 9.56206 25.4971 9.68807 25.5126C9.72013 25.5159 9.75108 25.5203 9.78314 25.5236H9.78645ZM8.51081 14.8111C8.91981 13.0004 10.0109 11.3888 11.5827 10.2712C13.4 8.98007 15.5755 8.54233 17.5542 9.07293C19.3328 9.54936 20.7377 10.7388 21.5082 12.4212C22.3306 14.2197 22.6103 16.1509 22.2941 17.8609C21.9493 19.7257 20.9334 21.2468 19.356 22.2604C18.1588 23.0298 16.8146 23.3968 15.4859 23.3968C13.1314 23.3968 10.8233 22.245 9.45594 20.1314C8.42901 18.5463 8.09407 16.6571 8.51081 14.8111Z" fill="#110F23"/>
</svg>
