<svg width="32" height="32" viewBox="0 0 32 32" fill="none" xmlns="http://www.w3.org/2000/svg">
<path d="M5.74996 16.1H26.25C26.6087 16.1 26.9527 15.9575 27.2063 15.7039C27.46 15.4502 27.6025 15.1062 27.6025 14.7475C27.6025 14.3888 27.46 14.0448 27.2063 13.7911C26.9527 13.5375 26.6087 13.395 26.25 13.395H22L19.72 6.89501C19.4497 6.12546 18.9471 5.45885 18.2816 4.98726C17.6161 4.51567 16.8206 4.26237 16.005 4.26237C15.1893 4.26237 14.3938 4.51567 13.7283 4.98726C13.0629 5.45885 12.5603 6.12546 12.29 6.89501L9.99996 13.395H5.74996C5.39126 13.395 5.04724 13.5375 4.7936 13.7911C4.53996 14.0448 4.39746 14.3888 4.39746 14.7475C4.39746 15.1062 4.53996 15.4502 4.7936 15.7039C5.04724 15.9575 5.39126 16.1 5.74996 16.1ZM14.835 7.78001C14.9198 7.53879 15.0775 7.32986 15.2862 7.18206C15.4948 7.03426 15.7442 6.95488 16 6.95488C16.2557 6.95488 16.5051 7.03426 16.7138 7.18206C16.9224 7.32986 17.0801 7.53879 17.165 7.78001L19.1325 13.395H12.8675L14.835 7.78001Z" fill="#110F23"/>
<path d="M26.2498 18.55H5.7498C5.40596 18.5709 5.08306 18.7223 4.847 18.9732C4.61093 19.224 4.47949 19.5555 4.47949 19.9C4.47949 20.2445 4.61093 20.576 4.847 20.8268C5.08306 21.0777 5.40596 21.2291 5.7498 21.25H7.2498L5.6048 25.95C5.49028 26.2874 5.51357 26.6564 5.66959 26.9768C5.82561 27.2972 6.10176 27.543 6.43804 27.6609C6.77431 27.7789 7.14352 27.7593 7.46545 27.6065C7.78738 27.4537 8.036 27.1801 8.1573 26.845L10.1148 21.25H21.8848L23.8423 26.84C23.9353 27.1041 24.1078 27.3329 24.3361 27.4949C24.5644 27.657 24.8373 27.7444 25.1173 27.745C25.2698 27.7451 25.4212 27.7188 25.5648 27.6675C25.9032 27.549 26.1807 27.3011 26.3364 26.9781C26.492 26.6551 26.513 26.2835 26.3948 25.945L24.7498 21.25H26.2498C26.6085 21.25 26.9525 21.1075 27.2062 20.8539C27.4598 20.6002 27.6023 20.2562 27.6023 19.8975C27.6023 19.5388 27.4598 19.1948 27.2062 18.9411C26.9525 18.6875 26.6085 18.545 26.2498 18.545V18.55Z" fill="#110F23"/>
</svg>
