<svg width="32" height="32" viewBox="0 0 32 32" fill="none" xmlns="http://www.w3.org/2000/svg">
<path d="M5.71162 14.2867H3V21.8494H5.71162V14.2867Z" fill="#110F23"/>
<path d="M3 10.1506V12.514L5.61572 14.3425L5.71162 14.2867V10.1506H3Z" fill="#110F23"/>
<path d="M21.5047 10.1501L5.71161 10.1506L9.65602 12.9078H21.5047C21.9653 12.9078 22.3425 13.2916 22.3425 13.7599V15.8178L25.0542 17.7139V13.7599C25.0542 11.7749 23.4575 10.1501 21.5047 10.1501Z" fill="#110F23"/>
<path d="M13.2066 21.85H29L25.0554 19.0922H13.2066C12.7471 19.0922 12.3688 18.7074 12.3688 18.2401V16.1822L9.6572 14.2862V18.239C9.65616 20.2283 11.2507 21.85 13.2066 21.85Z" fill="#110F23"/>
</svg>
