<svg width="32" height="32" viewBox="0 0 32 32" fill="none" xmlns="http://www.w3.org/2000/svg">
<path d="M9.4428 4.53974L16.0482 12.2794L20.4801 9.67141C20.4801 9.67141 15.1286 2.52078 13.707 3.02552C12.3693 3.53026 9.4428 4.53974 9.4428 4.53974Z" fill="#110F23"/>
<path d="M20.6469 9.67142C20.6469 9.67142 21.6504 7.90482 22.1523 5.54923C22.1523 5.54923 27.1693 7.56819 25.2458 12.6156L20.6469 9.67142Z" fill="#110F23"/>
<path d="M25.2454 12.616L25.6634 17.9162L27.5865 17.6634C27.5865 17.6634 28.088 17.4953 28.005 16.5701C27.9211 15.5606 27.7538 13.4574 27.7538 13.4574C27.7538 13.4574 27.8377 12.9526 26.6669 12.7845C25.2454 12.5318 25.2454 12.616 25.2454 12.616Z" fill="#110F23"/>
<path d="M25.6642 17.9162L21.8177 21.0289L23.5739 24.4782C23.5739 24.4782 23.9919 25.824 25.2462 24.3097C26.4165 22.7955 26.9185 22.5431 26.835 21.6175C26.7512 20.6923 26.5004 18.5048 25.6642 17.9162Z" fill="#110F23"/>
<path d="M21.7342 21.0285L16.4661 18.6733L11.8673 28.0114C11.8673 28.0114 11.5331 28.6843 12.7034 28.7685C13.8742 28.9371 15.7973 29.3575 16.8007 28.3477C17.8038 27.4224 21.7342 21.0285 21.7342 21.0285Z" fill="#110F23"/>
<path d="M16.4661 18.5891L15.9645 12.3636L4.5926 13.1208C4.5926 13.1208 3.92375 13.205 4.00721 14.4669C4.09066 16.1492 4.25797 18.0001 4.25797 18.0001C4.25797 18.0001 4.17452 18.7572 5.67951 18.8414C7.18451 18.9257 16.2987 18.9257 16.4661 18.5891Z" fill="#110F23"/>
</svg>
