<svg width="32" height="32" viewBox="0 0 32 32" fill="none" xmlns="http://www.w3.org/2000/svg">
<path d="M27.1735 20.2413C23.8281 22.1738 20.4843 24.1095 17.1358 26.0374C16.9767 26.1287 16.9342 26.2358 16.9358 26.4075C16.9437 27.1698 16.9389 27.9306 16.9405 28.6929C16.9405 28.7811 16.95 28.8677 16.9578 28.9874C17.076 28.9244 17.1657 28.8819 17.2524 28.8315C17.9737 28.4157 18.6935 27.9999 19.4149 27.5825C21.7097 26.2563 24.0045 24.927 26.3025 23.604C26.9026 23.259 27.3089 22.766 27.364 22.0715C27.4144 21.4493 27.3751 20.8193 27.3751 20.1421C27.2806 20.1877 27.2254 20.2098 27.1735 20.2397V20.2413Z" fill="#110F23"/>
<path d="M14.2 25.9933C11.8123 24.6214 9.43082 23.237 7.0415 21.8683C6.65877 21.6494 6.48394 21.369 6.48709 20.9248C6.50127 19.3199 6.49969 17.7134 6.48709 16.1084C6.48394 15.6769 6.65562 15.4012 7.02733 15.1886C9.29222 13.8908 11.5492 12.5804 13.8094 11.2731C13.9212 11.2085 14.033 11.1408 14.1779 11.0542C13.4109 10.6116 12.6785 10.1973 11.9572 9.76263C11.7697 9.64923 11.6374 9.66655 11.4563 9.77208C9.36939 10.9864 7.28091 12.2008 5.18297 13.3962C4.37813 13.8561 4.00328 14.5208 4.00958 15.4422C4.0206 17.4803 4.02375 19.5183 4.008 21.5564C4.00013 22.514 4.38286 23.196 5.22077 23.6764C8.21017 25.3837 11.1854 27.1147 14.1669 28.8378C14.2583 28.8897 14.3528 28.9354 14.4772 29C14.4772 28.1196 14.4662 27.2958 14.4835 26.4737C14.4882 26.2311 14.4032 26.1114 14.2 25.9948V25.9933Z" fill="#110F23"/>
<path d="M14.211 21.3847C13.1368 20.7815 12.0769 20.1499 11.0027 19.5435C10.6294 19.3325 10.4656 19.0443 10.4751 18.6159C10.4908 17.8646 10.4798 17.1133 10.4798 16.362V14.976C10.3869 15.0201 10.3333 15.0421 10.2829 15.0705C9.58831 15.4705 8.89845 15.8785 8.19914 16.2691C8.03376 16.362 8.00699 16.477 8.00856 16.6439C8.01329 17.8787 8.01801 19.1136 8.00541 20.3484C8.00226 20.5878 8.07944 20.7122 8.28419 20.8303C10.1837 21.9171 12.0769 23.0149 13.9716 24.1095C14.1212 24.1962 14.2709 24.2812 14.4788 24.3993C14.4788 23.5126 14.4693 22.6904 14.4835 21.8699C14.4882 21.6368 14.4236 21.5045 14.2126 21.3863L14.211 21.3847Z" fill="#110F23"/>
<path d="M16.9405 24.0828C16.9405 24.1694 16.95 24.2576 16.9579 24.3867C17.4713 24.0906 17.9501 23.8166 18.4274 23.541C21.0435 22.0289 23.6564 20.5153 26.2757 19.008C26.9514 18.619 27.3751 18.0662 27.3814 17.2755C27.3971 15.0327 27.3924 12.7883 27.383 10.5454C27.3814 9.94533 27.1357 9.424 26.6506 9.07907C26.1182 8.70106 25.537 8.39393 24.9149 8.0175V8.47111C24.9149 11.0652 24.9054 13.6577 24.9228 16.2517C24.9259 16.7494 24.7401 17.0456 24.3164 17.2881C21.9334 18.6474 19.563 20.0302 17.1847 21.3973C17.0004 21.5029 16.9295 21.6179 16.9327 21.8305C16.9453 22.5818 16.9374 23.3331 16.939 24.0843L16.9405 24.0828Z" fill="#110F23"/>
<path d="M4.3655 12.1189C6.62409 10.8132 8.8874 9.5122 11.1397 8.1939C11.5413 7.95923 11.8847 7.95608 12.2879 8.1939C13.9165 9.1531 15.5576 10.0918 17.1941 11.0384C17.9123 11.4542 18.6321 11.8684 19.4102 12.3189C19.4102 11.3707 19.4165 10.4871 19.4007 9.60513C19.3991 9.51535 19.2857 9.3988 19.1944 9.34525C17.0539 8.10098 14.9103 6.86143 12.7651 5.62504C12.0753 5.22813 11.3728 5.21868 10.6829 5.61401C8.79448 6.69763 6.90917 7.7907 5.02544 8.88219C4.63011 9.11057 4.33085 9.43503 4.17177 9.86343C3.87882 10.6462 4.0631 11.4574 4.00325 12.3173C4.17177 12.2244 4.271 12.174 4.3655 12.1189Z" fill="#110F23"/>
<path d="M20.3331 8.22856C20.7741 8.47899 20.9458 8.8003 20.9442 9.298C20.9301 11.8905 20.9379 14.483 20.9379 17.0771V17.474C21.7585 17.0015 22.5145 16.5699 23.2643 16.1226C23.3383 16.0785 23.3997 15.943 23.3997 15.8485C23.406 13.3285 23.4107 10.8069 23.3997 8.28684C23.3966 7.56862 23.0784 6.98114 22.4578 6.61731C20.5269 5.48329 18.5864 4.36502 16.6413 3.25463C16.0806 2.9349 15.471 2.916 14.8914 3.1995C14.3402 3.47041 13.8188 3.79959 13.2408 4.12877C13.3873 4.21854 13.4833 4.27839 13.5794 4.33352C15.8286 5.63449 18.0745 6.94334 20.3331 8.22856Z" fill="#110F23"/>
</svg>
