<svg width="32" height="32" viewBox="0 0 32 32" fill="none" xmlns="http://www.w3.org/2000/svg">
<path d="M8.35101 12.117L4.40846 10.1096C4.10007 10.7155 3.83744 11.3508 3.62845 11.9978L7.83824 13.359C7.97581 12.9335 8.14794 12.5155 8.35101 12.117Z" fill="#110F23"/>
<path d="M11.7005 8.57924L13.8843 12.3418C14.2032 12.1568 14.5445 12.0146 14.8996 11.9191L13.7694 7.71793C14.057 7.64059 14.3493 7.57674 14.6433 7.53034L13.9488 3.16059C13.277 3.26722 12.6096 3.42816 11.9645 3.63847L13.3149 7.77718C12.8854 7.91739 12.4671 8.09149 12.0642 8.29752L10.0793 4.4231C9.47569 4.73247 8.89183 5.09187 8.34318 5.49242L10.9514 9.06605C11.1917 8.89093 11.4431 8.729 11.7005 8.57924Z" fill="#110F23"/>
<path d="M23.4178 11.6966L19.6566 13.8823C19.8419 14.2009 19.984 14.5425 20.0799 14.897L24.2807 13.7648C24.3581 14.0525 24.422 14.3444 24.4687 14.638L28.8378 13.9422C28.7308 13.2708 28.5695 12.603 28.3586 11.9577L24.2205 13.3106C24.08 12.8812 23.9059 12.4632 23.6995 12.0603L27.5726 10.0728C27.2632 9.46982 26.9032 8.88595 26.5027 8.33762L22.93 10.9476C23.1054 11.1878 23.2681 11.4389 23.4178 11.6966Z" fill="#110F23"/>
<path d="M21.8846 4.40539C21.278 4.09734 20.6428 3.83502 19.9964 3.62636L18.6374 7.83682C19.0626 7.97406 19.4807 8.14652 19.8799 8.34926L21.8846 4.40539Z" fill="#110F23"/>
<path d="M20.3136 8.50215L18.1049 12.3354C18.4249 12.5197 18.7197 12.7456 18.982 13.0068L25.1768 6.79104C24.6963 6.31217 24.1742 5.86753 23.6253 5.46929L21.0703 8.99287C20.8268 8.81646 20.5743 8.65256 20.3136 8.50215Z" fill="#110F23"/>
<path d="M8.50434 11.6827L12.3366 13.8938C12.5209 13.5742 12.7474 13.279 13.009 13.0163L6.79588 6.81934C6.31668 7.29985 5.8717 7.82151 5.47346 8.37015L8.99572 10.9268C8.81932 11.17 8.65475 11.4221 8.50434 11.6827Z" fill="#110F23"/>
<path d="M17.3415 7.45598L18.01 3.15469C17.3494 3.052 16.6734 3 16.0004 3H15.9902V11.7757H16.0004C16.3703 11.7757 16.7363 11.8231 17.0885 11.9166L18.2232 7.64029C17.9329 7.56328 17.6387 7.50239 17.3415 7.45598Z" fill="#110F23"/>
<path d="M11.9169 14.9096L7.64128 13.7719C7.56393 14.0622 7.50272 14.3564 7.45631 14.6536L3.15567 13.9831C3.05233 14.646 3 15.3247 3 15.9997H11.7757C11.7757 15.6291 11.8232 15.2622 11.9169 14.9096Z" fill="#110F23"/>
<path d="M23.6501 19.8838L27.5926 21.8911C27.901 21.2851 28.1636 20.6499 28.3726 20.0029L24.1628 18.6416C24.0252 19.0672 23.8532 19.4852 23.6501 19.8838Z" fill="#110F23"/>
<path d="M20.3002 23.4205L18.1164 19.658C17.7975 19.8429 17.4562 19.9851 17.1011 20.0805L18.2313 24.2818C17.9433 24.3592 17.6514 24.423 17.3575 24.4694L18.0516 28.8388C18.7234 28.7322 19.3908 28.5712 20.0359 28.3609L18.6855 24.2222C19.1153 24.082 19.5333 23.9079 19.9362 23.7019L21.9211 27.5763C22.5247 27.2669 23.1085 26.9075 23.6572 26.507L21.0489 22.9334C20.8086 23.1085 20.5576 23.2707 20.3002 23.4205Z" fill="#110F23"/>
<path d="M8.58265 20.3042L12.3442 18.1186C12.1589 17.7999 12.0167 17.4583 11.9209 17.1039L7.72002 18.236C7.64268 17.9484 7.57883 17.6564 7.5321 17.3629L3.16267 18.0586C3.26964 18.7301 3.43091 19.3979 3.64187 20.0432L7.77993 18.6902C7.92046 19.1197 8.09456 19.5377 8.30093 19.9406L4.42782 21.9281C4.73719 22.5311 5.09725 23.115 5.49779 23.6632L9.07041 21.0533C8.89499 20.8131 8.7324 20.5619 8.58265 20.3042Z" fill="#110F23"/>
<path d="M10.1159 27.595C10.7224 27.9031 11.3576 28.1653 12.0041 28.3741L13.363 24.1636C12.9378 24.0263 12.5198 23.8538 12.1205 23.6511L10.1159 27.595Z" fill="#110F23"/>
<path d="M11.6866 23.4987L13.8954 19.6654C13.5755 19.4811 13.2805 19.2553 13.0182 18.9941L6.82351 25.2098C7.30402 25.6887 7.82602 26.1333 8.37499 26.5316L10.9299 23.008C11.1735 23.1844 11.4259 23.3483 11.6866 23.4987Z" fill="#110F23"/>
<path d="M23.4953 20.318L19.663 18.107C19.4787 18.4266 19.2522 18.7218 18.9906 18.9844L25.2034 25.1818C25.6827 24.7013 26.1276 24.1796 26.5259 23.631L23.0035 21.0744C23.18 20.8311 23.3449 20.5787 23.4953 20.318Z" fill="#110F23"/>
<path d="M14.9129 20.0834L13.7781 24.3598C14.0684 24.4367 14.3626 24.4976 14.6598 24.5441L13.9918 28.8453C14.6523 28.948 15.3283 29 16.0014 29H16.0115V20.2243H16.0014C15.6314 20.2243 15.2651 20.1769 14.9129 20.0834Z" fill="#110F23"/>
<path d="M20.2249 16.0006C20.2249 16.3712 20.1773 16.7378 20.0834 17.0906L24.359 18.2284C24.4364 17.9381 24.4976 17.6439 24.544 17.3467L28.845 18.0175C28.9483 17.3546 29.0006 16.676 29.0006 16.0009L20.2249 16.0006Z" fill="#110F23"/>
</svg>
