<svg width="32" height="32" viewBox="0 0 32 32" fill="none" xmlns="http://www.w3.org/2000/svg">
<path d="M17.1961 10.4189C16.8133 10.4168 16.4344 10.4952 16.0842 10.649C15.7352 10.8018 15.421 11.0237 15.1608 11.3012C14.8706 11.6097 14.6328 11.9633 14.4569 12.348C14.2534 12.7957 14.1044 13.2661 14.0131 13.749H17.7682V14.9339H13.8894C13.8894 15.0213 13.8894 15.1041 13.8813 15.1846C13.8733 15.2651 13.8721 15.3261 13.8721 15.4009V15.9381C13.8721 16.0531 13.8779 16.1739 13.8894 16.3004H17.2412V17.4864H14.0501C14.2473 18.4948 14.6126 19.2644 15.1458 19.7951C15.679 20.3257 16.3797 20.5911 17.2481 20.5911C17.6636 20.5932 18.0778 20.5469 18.4825 20.453C18.8608 20.3658 19.2303 20.2441 19.5862 20.0895V21.4906C19.2366 21.6551 18.8695 21.7797 18.4917 21.8622C18.0434 21.9614 17.5848 22.0073 17.1256 21.999C16.5144 22.009 15.9068 21.9032 15.3353 21.6873C14.8175 21.4822 14.346 21.1764 13.9484 20.7878C13.546 20.3747 13.2194 19.8947 12.9833 19.3694C12.715 18.7675 12.5251 18.1339 12.4181 17.4841H11V16.3004H12.2864C12.2748 16.1685 12.269 16.0592 12.269 15.9726V15.5918C12.269 15.4653 12.269 15.3353 12.2771 15.203C12.2852 15.0707 12.2864 14.981 12.2864 14.9339H11V13.749H12.3869C12.4779 13.0762 12.659 12.4185 12.9255 11.7935C13.1595 11.2441 13.4858 10.7384 13.8906 10.2981C14.2808 9.88547 14.7531 9.55834 15.2775 9.33761C15.8475 9.10552 16.4589 8.99086 17.0747 9.00057C17.5937 8.99517 18.1111 9.059 18.6131 9.19037C19.1032 9.32239 19.5707 9.52673 20 9.79658L19.3065 11.0619C18.9996 10.8776 18.6738 10.7264 18.3345 10.611C17.9698 10.4791 17.5841 10.414 17.1961 10.4189V10.4189Z" fill="#110F23"/>
<path d="M25.9712 9.32194C27.2531 11.2313 28 13.5284 28 15.9996C28 22.6067 22.6067 28 16.0006 28C13.039 28 10.3263 26.9267 8.23364 25.1477C8.00822 24.956 8.01242 24.6069 8.24457 24.4235L9.09663 23.7515C9.26906 23.6152 9.51214 23.6194 9.68205 23.7582C11.4047 25.1637 13.6042 26.0065 16.0006 26.0065C21.5259 26.0065 26.0057 21.5275 26.0057 16.0013C26.0057 13.9868 25.4102 12.112 24.3857 10.5416C24.2562 10.3431 24.2907 10.079 24.4707 9.92419L25.2756 9.23194C25.4884 9.04941 25.8148 9.08979 25.9704 9.32278L25.9712 9.32194Z" fill="#110F23"/>
<path d="M23.6396 7.45883L22.8364 8.15949C22.6639 8.31005 22.4099 8.31341 22.2307 8.17126C20.5224 6.81032 18.3591 5.99611 16.0056 5.99443C10.5728 5.99106 6.0913 10.3868 5.99541 15.8196C5.96008 17.8156 6.50933 19.6821 7.48419 21.2575C7.60195 21.4476 7.57083 21.6941 7.40681 21.8471L6.61616 22.5823C6.40167 22.7816 6.06186 22.7354 5.90289 22.4898C4.68578 20.5955 3.98429 18.338 4.00027 15.9164C4.04569 9.36903 9.39943 4.02955 15.9459 4.00011C18.8637 3.9875 21.541 5.01535 23.627 6.7363C23.8533 6.92303 23.86 7.26621 23.6388 7.45883H23.6396Z" fill="#110F23"/>
</svg>
