<svg width="32" height="32" viewBox="0 0 32 32" fill="none" xmlns="http://www.w3.org/2000/svg">
<path d="M16 5C9.38327 5 4 10.3833 4 17C4 20.2367 5.26906 23.2705 7.57401 25.5435C7.89439 25.8594 8.31267 26.0178 8.73005 26.0178C9.14743 26.0178 9.57995 25.8541 9.90211 25.5274C10.5402 24.8805 10.5331 23.8374 9.88609 23.1993C8.21388 21.5503 7.29279 19.3486 7.29279 17C7.29279 12.1988 11.1988 8.29279 16 8.29279C20.8012 8.29279 24.7072 12.1988 24.7072 17C24.7072 19.3486 23.7861 21.5503 22.1139 23.1993C21.4669 23.8374 21.4598 24.8805 22.0979 25.5274C22.4201 25.8541 22.8446 26.0178 23.27 26.0178C23.6953 26.0178 24.1056 25.8603 24.426 25.5435C26.7301 23.2705 28 20.2367 28 17C27.9991 10.3833 22.6158 5 16 5Z" fill="#110F23"/>
<path d="M17.6953 19.0273C17.6953 18.0905 16.9361 17.3311 15.9996 17.3311C15.063 17.3311 14.3038 18.0905 14.3038 19.0273V25.2827C14.3038 26.2195 15.063 26.9789 15.9996 26.9789C16.9361 26.9789 17.6953 26.2195 17.6953 25.2827V19.0273Z" fill="#110F23"/>
<path d="M17.1998 15.3482C17.8622 14.6857 17.8622 13.6117 17.1998 12.9493C16.5373 12.2869 15.4634 12.2869 14.8009 12.9493C14.1385 13.6117 14.1385 14.6857 14.8009 15.3482C15.4634 16.0106 16.5373 16.0106 17.1998 15.3482Z" fill="#110F23"/>
</svg>
