<svg width="32" height="32" viewBox="0 0 32 32" fill="none" xmlns="http://www.w3.org/2000/svg">
<path fill-rule="evenodd" clip-rule="evenodd" d="M28.5367 19.452C27.0245 24.9562 21.9845 29 16 29C10.0155 29 4.97546 24.9562 3.46329 19.452H10.9104C12.0126 21.1328 13.9134 22.2429 16.0734 22.2429C18.2335 22.2429 20.1343 21.1328 21.2365 19.452H28.5367ZM28.8713 17.8362H21.9875C22.1537 17.2776 22.2429 16.686 22.2429 16.0734C22.2429 15.1846 22.055 14.3397 21.7167 13.5763H28.7745C28.9225 14.3615 29 15.1717 29 16C29 16.6233 28.9561 17.2363 28.8713 17.8362ZM10.1594 17.8362C9.99322 17.2776 9.90395 16.686 9.90395 16.0734C9.90395 15.1846 10.0919 14.3397 10.4302 13.5763H3.22554C3.07746 14.3615 3 15.1717 3 16C3 16.6233 3.04386 17.2363 3.12867 17.8362H10.1594ZM5.99359 7.70056C4.95965 8.94577 4.15372 10.3871 3.63984 11.9605H11.4749C12.6046 10.6983 14.2462 9.90395 16.0734 9.90395C17.9006 9.90395 19.5423 10.6983 20.672 11.9605H28.3602C27.8463 10.3871 27.0403 8.94577 26.0064 7.70056H5.99359ZM24.5781 6.23164C22.289 4.21989 19.287 3 16 3C12.713 3 9.711 4.21989 7.42192 6.23164H24.5781Z" fill="#110F23"/>
</svg>
