<svg width="32" height="32" viewBox="0 0 32 32" fill="none" xmlns="http://www.w3.org/2000/svg">
<g clip-path="url(#clip0_108_533)">
<path fill-rule="evenodd" clip-rule="evenodd" d="M28 11.2156V17.78H7.14327C8.05499 21.7569 11.6671 24.7352 15.9913 24.7352C19.5601 24.7352 22.6512 22.7033 24.1274 19.7511H28V25.2648C28 26.5673 26.9233 27.6266 25.6035 27.6266H6.39653C5.06802 27.6266 4 26.5673 4 25.2648V11.2156H28ZM21.8263 19.7424C20.5499 21.5745 18.4139 22.7728 15.9913 22.7728C13.5687 22.7728 11.424 21.5745 10.1563 19.7424H21.8263ZM10.8683 12.7873C8.98408 12.7873 7.42981 14.1592 7.16932 15.9392H9.21852C9.44428 15.2533 10.0955 14.7583 10.8683 14.7583C11.6411 14.7583 12.2923 15.2533 12.5181 15.9392H14.5673C14.3068 14.1592 12.7525 12.7873 10.8683 12.7873ZM21.1317 12.7873C19.2475 12.7873 17.6932 14.1592 17.4327 15.9392H19.4819C19.7077 15.2533 20.3589 14.7583 21.1317 14.7583C21.9045 14.7583 22.5557 15.2533 22.7815 15.9392H24.8307C24.5702 14.1592 23.0159 12.7873 21.1317 12.7873ZM25.5948 4C26.9233 4 27.9913 5.05933 27.9913 6.36179V9.24457H4V6.36179C4 5.05933 5.0767 4 6.39653 4H25.5948Z" fill="#110F23"/>
</g>
<defs>
<clipPath id="clip0_108_533">
<rect width="24" height="23.6179" fill="white" transform="translate(4 4)"/>
</clipPath>
</defs>
</svg>
