<svg width="32" height="32" viewBox="0 0 32 32" fill="none" xmlns="http://www.w3.org/2000/svg">
<g clip-path="url(#clip0_14366_309)">
<path d="M28.898 14.359C28.5345 11.4721 27.308 9.49223 26.8969 8.86604C26.2058 7.81241 25.3429 6.85624 24.2989 6.00444C21.237 3.50735 17.7286 2.5412 13.8152 3.20269C10.655 3.7368 8.01643 5.23014 5.99378 7.72033C3.48175 10.8121 2.53524 14.3498 3.21253 18.2888C3.62826 20.7031 4.65147 22.8464 6.29215 24.6666C7.31997 25.807 8.47665 26.7332 9.76756 27.4346C10.2746 27.7101 11.4665 28.311 13.1225 28.6809C14.3306 28.9502 16.2789 29.2065 18.5876 28.7469C20.4569 28.3739 21.7992 27.684 22.3829 27.3571C23.6462 26.6496 24.7822 25.7233 25.79 24.5845C26.3262 23.9783 26.7925 23.3375 27.1922 22.6637C27.5626 22.0391 28.4294 20.4598 28.8121 18.2213C29.0967 16.5545 29.0016 15.1755 28.8988 14.359H28.898ZM6.74086 23.4795C6.7516 23.4979 6.76387 23.5148 6.77845 23.5301C6.76464 23.5148 6.75237 23.4979 6.74086 23.4795ZM8.13379 24.9329C8.13379 24.9329 8.13762 24.9375 8.13916 24.9391C8.13686 24.9368 8.13532 24.9345 8.13379 24.9329ZM27.8434 16.5653C27.7943 17.3994 27.7406 18.2267 27.5151 19.0324C27.0403 20.7276 26.2342 22.2478 25.1227 23.6161C23.7643 25.289 22.0646 26.4715 20.0511 27.2021C18.369 27.8122 16.6378 28.0217 14.8461 27.849C12.9722 27.6687 11.2548 27.0693 9.66785 26.0832C9.20226 25.7939 8.69218 25.5415 8.38 25.0511C8.82795 24.6367 9.27666 24.2239 9.72384 23.8087C10.563 23.0298 11.4013 22.2494 12.2412 21.4705C12.3793 21.3423 12.4476 21.2164 12.2942 21.0476C12.1576 20.898 12.0426 20.9225 11.9068 21.0507C10.6151 22.2685 9.32115 23.4826 8.02794 24.6981C7.81624 24.7042 7.6751 24.6191 7.63905 24.3973C7.53857 24.3205 7.41738 24.2599 7.36522 24.1456C7.41661 24.2599 7.53781 24.3205 7.63905 24.3973C8.25728 23.8333 8.88011 23.2746 9.49296 22.7037C10.4794 21.7851 11.4589 20.8596 12.4399 19.9364C12.5618 19.8221 12.6976 19.7116 12.535 19.5228C12.367 19.3279 12.229 19.4154 12.0863 19.5504C12.0311 19.6026 11.9697 19.6487 11.9145 19.7008C10.3896 21.1366 8.86477 22.5732 7.33991 24.0098C7.09906 23.9814 6.99705 23.8402 7.01162 23.6046C7.83004 22.8449 8.64846 22.0851 9.46765 21.3262C9.91483 20.911 10.362 20.4966 10.8092 20.0822C10.9411 19.9602 10.9772 19.8313 10.8414 19.6878C10.7072 19.5458 10.5645 19.5159 10.4111 19.6579C10.3367 19.7269 10.2661 19.8006 10.1925 19.8704C9.01434 20.9977 7.83618 22.1243 6.65802 23.2508C6.29752 23.0643 6.15025 22.6975 5.95005 22.3852C5.01811 20.9294 4.43594 19.334 4.20736 17.6266C3.90362 15.3605 4.22117 13.1742 5.17075 11.0823C5.78284 9.73396 6.59589 8.52379 7.659 7.50085C9.47456 5.7535 11.6161 4.60088 14.1297 4.26399C16.0089 4.01229 17.8705 4.13891 19.7029 4.71062C21.566 5.29153 23.1576 6.29298 24.5152 7.66738C25.6811 8.84763 26.5701 10.2243 27.1408 11.789C27.509 12.7974 27.746 13.851 27.8342 14.9123C27.8787 15.448 27.8756 16.0097 27.8434 16.5637V16.5653Z" fill="#110F23"/>
<path d="M21.4633 11.4369C21.3812 12.657 20.7745 13.8864 19.9438 15.0245C19.3409 15.8502 18.659 16.6037 17.869 17.2545C17.6833 17.4072 17.5967 17.5975 17.5836 17.8124C17.5223 18.7885 17.0828 19.5183 16.2827 20.09C15.7389 20.4791 15.7734 20.5274 15.564 19.9058C15.5357 19.8214 15.505 19.7378 15.4766 19.6534C15.2608 19.0128 14.8226 18.6754 14.1619 18.6412C13.8935 18.6266 13.826 18.8814 13.6549 18.9965C13.513 19.0916 13.447 19.3863 13.1793 19.1269C12.749 18.7095 12.7122 18.6911 13.0175 18.3856C13.2829 18.1201 13.2584 17.8899 13.2131 17.5323C13.1456 16.9982 12.8672 16.8539 12.4415 16.7495C12.1462 16.6774 11.8616 16.5585 11.5694 16.471C11.3661 16.4104 11.3692 16.3313 11.5011 16.1863C11.8524 15.8011 12.1945 15.4074 12.5381 15.0145C12.6332 14.9055 12.736 14.828 12.8909 14.8173C13.0152 14.808 13.1356 14.7559 13.2607 14.7344C13.9763 14.6124 14.5424 14.3161 15.0632 13.7444C16.3403 12.3432 17.8797 11.2926 19.7559 10.8199C20.1401 10.7232 20.529 10.6772 20.9263 10.6825C21.4755 10.691 21.4755 10.6864 21.4633 11.4369ZM18.1842 15.2232C18.4258 14.8579 18.4212 14.4213 18.1727 14.056C17.9495 13.7283 17.4924 13.5334 17.105 13.6293C16.6747 13.7352 16.3472 13.9639 16.2766 14.4443C16.1117 14.8917 16.3556 15.4204 16.8243 15.6322C17.3643 15.8755 17.9395 15.7028 18.185 15.224L18.1842 15.2232Z" fill="#110F23"/>
</g>
<defs>
<clipPath id="clip0_14366_309">
<rect width="26" height="26" fill="white" transform="translate(3 3)"/>
</clipPath>
</defs>
</svg>
