<svg width="32" height="32" viewBox="0 0 32 32" fill="none" xmlns="http://www.w3.org/2000/svg">
<path d="M25.0321 6.81084C22.6101 4.37539 19.3293 3.00671 15.9076 3C13.3513 3 10.8555 3.76485 8.7354 5.19392C6.61528 6.62298 4.9581 8.65588 3.97855 11.0309C3.00572 13.406 2.75077 16.0159 3.24725 18.5386C3.74373 21.0612 4.97152 23.3759 6.78301 25.1941C8.58779 27.0123 10.8891 28.2535 13.3916 28.75C15.8941 29.2532 18.4906 28.9915 20.8523 28.012C23.2139 27.0257 25.2267 25.3619 26.649 23.2216C28.0714 21.0814 28.8228 18.5721 28.8228 15.9958C28.8228 12.5472 27.4609 9.24629 25.0388 6.80413L25.0321 6.81084ZM10.4261 14.3721C10.8018 14.7546 11.3117 14.976 11.8485 14.976H19.9666C21.0401 14.976 22.0733 15.4121 22.8315 16.1769C23.5896 16.9418 24.019 17.9817 24.0257 19.0619C24.0257 20.1421 23.5963 21.182 22.8315 21.9469C22.0733 22.7117 21.0401 23.1478 19.9666 23.1478H16.9207V26.2005H14.8945V23.1478H11.8485C10.775 23.1478 9.74178 22.7117 8.98364 21.9469C8.2255 21.182 7.79611 20.1421 7.7894 19.0619H9.81558C9.81558 19.6053 10.0303 20.122 10.4127 20.5044C10.7951 20.8868 11.305 21.1015 11.8485 21.1015H19.9666C20.5034 21.1015 21.02 20.8868 21.4024 20.5044C21.7848 20.122 21.9995 19.5986 21.9995 19.0619C21.9995 18.5252 21.7848 18.0018 21.4024 17.6194C21.02 17.237 20.5034 17.0223 19.9666 17.0223H11.8485C10.775 17.0156 9.7552 16.5795 8.99706 15.8146C8.24562 15.0498 7.82294 14.0166 7.82294 12.9364C7.82294 11.8562 8.24562 10.823 8.99706 10.0581C9.74849 9.29326 10.775 8.85716 11.8485 8.85045H14.8945V5.79775H16.9207V8.85045H19.9666C21.0401 8.85045 22.0733 9.28655 22.8315 10.0514C23.5896 10.8163 24.019 11.8562 24.0257 12.9364H21.9995C21.9995 12.3929 21.7848 11.8763 21.4024 11.4939C21.02 11.1115 20.5101 10.8968 19.9666 10.8968H11.8485C11.3117 10.8968 10.8018 11.1182 10.4261 11.5006C10.0504 11.883 9.84242 12.3996 9.84242 12.9364C9.84242 13.4731 10.0504 13.9897 10.4261 14.3721Z" fill="#110F23"/>
</svg>
