<svg width="32" height="32" viewBox="0 0 32 32" fill="none" xmlns="http://www.w3.org/2000/svg">
<path d="M27.1984 9.04975C27.1411 9.0068 27.08 8.96775 27.0162 8.93261L18.1586 4.0616C17.8338 3.88264 17.4362 4.11821 17.4362 4.4885V7.99355C17.4362 8.17121 17.5332 8.3352 17.6887 8.42045L22.8181 11.2415C22.8278 11.2467 22.8376 11.2526 22.8474 11.2585C23.3361 11.5402 23.6374 12.0615 23.6374 12.627V17.8885C23.6374 18.0701 23.7396 18.2367 23.9016 18.3187L27.1346 19.9592C27.4555 20.1219 27.8355 19.889 27.8355 19.5291V10.3181C27.8355 9.8144 27.596 9.3452 27.1984 9.04975Z" fill="#110F23"/>
<path d="M26.3784 21.8608L23.0758 20.1851C22.9326 20.1122 22.7621 20.1154 22.6215 20.1929L17.1798 23.1864C16.7054 23.4474 16.1301 23.4474 15.6557 23.1864L10.214 20.1929C10.0727 20.1154 9.9029 20.1128 9.75973 20.1851L6.45707 21.8608C6.10891 22.0372 6.10045 22.5317 6.4421 22.7205L15.6557 27.8043C16.1301 28.0652 16.7054 28.0652 17.1798 27.8043L26.3934 22.7205C26.7351 22.5317 26.7266 22.0378 26.3784 21.8608Z" fill="#110F23"/>
<path d="M12.4383 12.5014L12.3739 12.5366C11.8682 12.8144 11.5545 13.3455 11.5545 13.9227V17.403C11.5545 17.9796 11.8682 18.5106 12.3732 18.7885L12.4389 18.8243L15.6557 20.5937C16.1301 20.8547 16.7054 20.8547 17.1798 20.5937L20.3966 18.8243L20.4623 18.7885C20.9673 18.5106 21.2816 17.9796 21.2816 17.403V13.9227C21.2816 13.3461 20.9679 12.8151 20.4623 12.5372L17.1798 10.732C16.7054 10.471 16.1301 10.471 15.6557 10.732L12.4383 12.5014ZM16.0924 12.3615C16.2948 12.2502 16.5407 12.2502 16.7438 12.3615L19.2317 13.7301C19.4477 13.8492 19.5818 14.0756 19.5818 14.3223V17.0034C19.5818 17.2501 19.4477 17.4772 19.2317 17.5956L16.7438 18.9642C16.5407 19.0755 16.2948 19.0755 16.0924 18.9642L13.6038 17.5956C13.3878 17.4772 13.2537 17.2501 13.2537 17.0034V14.3223C13.2537 14.0756 13.3878 13.8492 13.6038 13.7301L16.0924 12.3615Z" fill="#110F23"/>
<path d="M9.19811 17.8891V12.627C9.19811 12.0615 9.50007 11.5402 9.98815 11.2578C9.99791 11.2526 10.0077 11.2467 10.0174 11.2415L15.1475 8.42045C15.303 8.3352 15.3993 8.17185 15.3993 7.99419V4.4872C15.3993 4.11691 15.0023 3.88263 14.6782 4.06094L5.81932 8.93261C5.75554 8.96775 5.69437 9.00679 5.6371 9.04974C5.23948 9.34519 5 9.8144 5 10.3181V19.5304C5 19.8896 5.3794 20.1226 5.69958 19.9599L8.93455 18.318C9.09659 18.236 9.19811 18.0701 9.19811 17.8885V17.8891Z" fill="#110F23"/>
</svg>
