<svg width="32" height="32" viewBox="0 0 32 32" fill="none" xmlns="http://www.w3.org/2000/svg">
<path d="M11.4747 17.915C12.5544 17.915 13.4297 17.0397 13.4297 15.96C13.4297 14.8803 12.5544 14.005 11.4747 14.005C10.395 14.005 9.51973 14.8803 9.51973 15.96C9.51973 17.0397 10.395 17.915 11.4747 17.915Z" fill="#110F23"/>
<path d="M20.5247 17.915C21.6044 17.915 22.4797 17.0397 22.4797 15.96C22.4797 14.8803 21.6044 14.005 20.5247 14.005C19.445 14.005 18.5697 14.8803 18.5697 15.96C18.5697 17.0397 19.445 17.915 20.5247 17.915Z" fill="#110F23"/>
<path d="M13.7372 21.8325C14.8169 21.8325 15.6922 20.9572 15.6922 19.8775C15.6922 18.7978 14.8169 17.9225 13.7372 17.9225C12.6575 17.9225 11.7822 18.7978 11.7822 19.8775C11.7822 20.9572 12.6575 21.8325 13.7372 21.8325Z" fill="#110F23"/>
<path d="M18.2622 13.9975C19.3419 13.9975 20.2172 13.1222 20.2172 12.0425C20.2172 10.9628 19.3419 10.0875 18.2622 10.0875C17.1825 10.0875 16.3072 10.9628 16.3072 12.0425C16.3072 13.1222 17.1825 13.9975 18.2622 13.9975Z" fill="#110F23"/>
<path d="M18.2622 21.8325C19.3419 21.8325 20.2172 20.9572 20.2172 19.8775C20.2172 18.7978 19.3419 17.9225 18.2622 17.9225C17.1825 17.9225 16.3072 18.7978 16.3072 19.8775C16.3072 20.9572 17.1825 21.8325 18.2622 21.8325Z" fill="#110F23"/>
<path d="M13.7372 13.9975C14.8169 13.9975 15.6922 13.1222 15.6922 12.0425C15.6922 10.9628 14.8169 10.0875 13.7372 10.0875C12.6575 10.0875 11.7822 10.9628 11.7822 12.0425C11.7822 13.1222 12.6575 13.9975 13.7372 13.9975Z" fill="#110F23"/>
<path d="M25.9947 17.025C26.5608 17.025 27.0197 16.5661 27.0197 16C27.0197 15.4339 26.5608 14.975 25.9947 14.975C25.4286 14.975 24.9697 15.4339 24.9697 16C24.9697 16.5661 25.4286 17.025 25.9947 17.025Z" fill="#110F23"/>
<path d="M6.00473 17.025C6.57082 17.025 7.02973 16.5661 7.02973 16C7.02973 15.4339 6.57082 14.975 6.00473 14.975C5.43863 14.975 4.97973 15.4339 4.97973 16C4.97973 16.5661 5.43863 17.025 6.00473 17.025Z" fill="#110F23"/>
<path d="M2.36973 16.65C2.72871 16.65 3.01973 16.359 3.01973 16C3.01973 15.641 2.72871 15.35 2.36973 15.35C2.01074 15.35 1.71973 15.641 1.71973 16C1.71973 16.359 2.01074 16.65 2.36973 16.65Z" fill="#110F23"/>
<path d="M29.6297 16.65C29.9887 16.65 30.2797 16.359 30.2797 16C30.2797 15.641 29.9887 15.35 29.6297 15.35C29.2707 15.35 28.9797 15.641 28.9797 16C28.9797 16.359 29.2707 16.65 29.6297 16.65Z" fill="#110F23"/>
<path d="M20.9972 8.3675C21.5633 8.3675 22.0222 7.90859 22.0222 7.3425C22.0222 6.77641 21.5633 6.3175 20.9972 6.3175C20.4311 6.3175 19.9722 6.77641 19.9722 7.3425C19.9722 7.90859 20.4311 8.3675 20.9972 8.3675Z" fill="#110F23"/>
<path d="M11.0022 25.6825C11.5683 25.6825 12.0272 25.2236 12.0272 24.6575C12.0272 24.0914 11.5683 23.6325 11.0022 23.6325C10.4361 23.6325 9.97723 24.0914 9.97723 24.6575C9.97723 25.2236 10.4361 25.6825 11.0022 25.6825Z" fill="#110F23"/>
<path d="M9.18473 28.4525C9.54371 28.4525 9.83473 28.1615 9.83473 27.8025C9.83473 27.4435 9.54371 27.1525 9.18473 27.1525C8.82574 27.1525 8.53473 27.4435 8.53473 27.8025C8.53473 28.1615 8.82574 28.4525 9.18473 28.4525Z" fill="#110F23"/>
<path d="M22.8147 4.8475C23.1737 4.8475 23.4647 4.55649 23.4647 4.1975C23.4647 3.83852 23.1737 3.5475 22.8147 3.5475C22.4557 3.5475 22.1647 3.83852 22.1647 4.1975C22.1647 4.55649 22.4557 4.8475 22.8147 4.8475Z" fill="#110F23"/>
<path d="M11.0022 8.3675C11.5683 8.3675 12.0272 7.90859 12.0272 7.3425C12.0272 6.77641 11.5683 6.3175 11.0022 6.3175C10.4361 6.3175 9.97723 6.77641 9.97723 7.3425C9.97723 7.90859 10.4361 8.3675 11.0022 8.3675Z" fill="#110F23"/>
<path d="M20.9972 25.6825C21.5633 25.6825 22.0222 25.2236 22.0222 24.6575C22.0222 24.0914 21.5633 23.6325 20.9972 23.6325C20.4311 23.6325 19.9722 24.0914 19.9722 24.6575C19.9722 25.2236 20.4311 25.6825 20.9972 25.6825Z" fill="#110F23"/>
<path d="M22.8147 28.4525C23.1737 28.4525 23.4647 28.1615 23.4647 27.8025C23.4647 27.4435 23.1737 27.1525 22.8147 27.1525C22.4557 27.1525 22.1647 27.4435 22.1647 27.8025C22.1647 28.1615 22.4557 28.4525 22.8147 28.4525Z" fill="#110F23"/>
<path d="M9.18473 4.8475C9.54371 4.8475 9.83473 4.55649 9.83473 4.1975C9.83473 3.83852 9.54371 3.5475 9.18473 3.5475C8.82574 3.5475 8.53473 3.83852 8.53473 4.1975C8.53473 4.55649 8.82574 4.8475 9.18473 4.8475Z" fill="#110F23"/>
<path d="M15.9997 9.3575C16.6514 9.3575 17.1797 8.8292 17.1797 8.1775C17.1797 7.52581 16.6514 6.9975 15.9997 6.9975C15.348 6.9975 14.8197 7.52581 14.8197 8.1775C14.8197 8.8292 15.348 9.3575 15.9997 9.3575Z" fill="#110F23"/>
<path d="M15.9997 4.32C16.4457 4.32 16.8072 3.95847 16.8072 3.5125C16.8072 3.06653 16.4457 2.705 15.9997 2.705C15.5538 2.705 15.1922 3.06653 15.1922 3.5125C15.1922 3.95847 15.5538 4.32 15.9997 4.32Z" fill="#110F23"/>
<path d="M15.9997 25.0025C16.6514 25.0025 17.1797 24.4742 17.1797 23.8225C17.1797 23.1708 16.6514 22.6425 15.9997 22.6425C15.348 22.6425 14.8197 23.1708 14.8197 23.8225C14.8197 24.4742 15.348 25.0025 15.9997 25.0025Z" fill="#110F23"/>
<path d="M15.9997 29.295C16.4457 29.295 16.8072 28.9335 16.8072 28.4875C16.8072 28.0415 16.4457 27.68 15.9997 27.68C15.5538 27.68 15.1922 28.0415 15.1922 28.4875C15.1922 28.9335 15.5538 29.295 15.9997 29.295Z" fill="#110F23"/>
<path d="M9.22473 13.27C9.87642 13.27 10.4047 12.7417 10.4047 12.09C10.4047 11.4383 9.87642 10.91 9.22473 10.91C8.57303 10.91 8.04473 11.4383 8.04473 12.09C8.04473 12.7417 8.57303 13.27 9.22473 13.27Z" fill="#110F23"/>
<path d="M5.18473 10.5625C5.6307 10.5625 5.99223 10.201 5.99223 9.755C5.99223 9.30903 5.6307 8.9475 5.18473 8.9475C4.73876 8.9475 4.37723 9.30903 4.37723 9.755C4.37723 10.201 4.73876 10.5625 5.18473 10.5625Z" fill="#110F23"/>
<path d="M22.7747 21.09C23.4264 21.09 23.9547 20.5617 23.9547 19.91C23.9547 19.2583 23.4264 18.73 22.7747 18.73C22.123 18.73 21.5947 19.2583 21.5947 19.91C21.5947 20.5617 22.123 21.09 22.7747 21.09Z" fill="#110F23"/>
<path d="M26.8147 23.0525C27.2607 23.0525 27.6222 22.691 27.6222 22.245C27.6222 21.799 27.2607 21.4375 26.8147 21.4375C26.3688 21.4375 26.0072 21.799 26.0072 22.245C26.0072 22.691 26.3688 23.0525 26.8147 23.0525Z" fill="#110F23"/>
<path d="M9.22473 21.09C9.87642 21.09 10.4047 20.5617 10.4047 19.91C10.4047 19.2583 9.87642 18.73 9.22473 18.73C8.57303 18.73 8.04473 19.2583 8.04473 19.91C8.04473 20.5617 8.57303 21.09 9.22473 21.09Z" fill="#110F23"/>
<path d="M5.18473 23.0525C5.6307 23.0525 5.99223 22.691 5.99223 22.245C5.99223 21.799 5.6307 21.4375 5.18473 21.4375C4.73876 21.4375 4.37723 21.799 4.37723 22.245C4.37723 22.691 4.73876 23.0525 5.18473 23.0525Z" fill="#110F23"/>
<path d="M22.7747 13.27C23.4264 13.27 23.9547 12.7417 23.9547 12.09C23.9547 11.4383 23.4264 10.91 22.7747 10.91C22.123 10.91 21.5947 11.4383 21.5947 12.09C21.5947 12.7417 22.123 13.27 22.7747 13.27Z" fill="#110F23"/>
<path d="M26.8147 10.5625C27.2607 10.5625 27.6222 10.201 27.6222 9.755C27.6222 9.30903 27.2607 8.9475 26.8147 8.9475C26.3688 8.9475 26.0072 9.30903 26.0072 9.755C26.0072 10.201 26.3688 10.5625 26.8147 10.5625Z" fill="#110F23"/>
</svg>
