<svg width="32" height="32" viewBox="0 0 32 32" fill="none" xmlns="http://www.w3.org/2000/svg">
<path d="M20.7619 3.89975C20.7619 3.89975 20.9256 4.9342 20.4595 6.36311C24.0954 8.04779 26.6168 11.7292 26.6168 16C26.6168 17.0731 26.4576 18.1087 26.1615 19.0852C25.8995 15.7738 24.3001 13.8231 22.7274 12.6932H22.7268C21.0705 11.5035 19.445 11.2239 19.445 11.2239C19.445 11.2239 21.5042 11.2984 23.036 12.1947C23.036 12.1947 22.8569 11.6974 22.762 11.6201C22.8047 11.636 24.1904 12.1577 25.7091 13.4974C22.9945 9.90753 18.3991 9.50284 18.3275 9.49659C17.1765 10.4123 16.0006 10.7629 16.0006 10.7629C16.5223 10.2179 16.79 9.41361 16.79 9.41361C19.0874 8.3621 19.8138 6.90818 19.8138 6.90818C19.5933 6.98605 19.1005 7.11621 19.1005 7.11621C19.4012 6.82918 19.657 6.47622 19.8712 6.11132C20.4771 5.08027 20.7511 3.94863 20.7619 3.90145C20.7619 3.90031 20.7619 3.89975 20.7619 3.89975C19.2869 3.31886 17.6807 3 16 3C8.82022 3 3 8.82022 3 16C3 23.1798 8.82022 29 16 29C23.1798 29 29 23.1798 29 16C29 10.5009 25.5857 5.79984 20.7619 3.89975ZM23.4412 19.2187C23.4412 19.2187 24.1125 22.2863 21.8265 24.557C22.1186 24.1852 22.5551 23.5003 22.8223 22.6734C23.1639 21.6167 23.107 20.7431 23.0678 20.2191C23.0326 19.7524 22.9092 18.7117 22.3409 17.5386C21.4104 15.618 19.9116 14.6308 19.3586 14.3011C17.9575 13.4667 16.6218 13.2752 15.8869 13.2263C15.6186 13.0007 15.2622 12.7557 14.7945 12.5192C14.7945 12.5192 22.2522 11.9196 23.4412 19.2187ZM17.4693 24.179C16.0335 25.1617 14.6285 25.347 14.0306 25.4186C13.6492 25.4641 13.2939 25.4789 12.9756 25.4743C20.5419 23.9897 19.1517 19.3199 19.1517 19.3199C19.4182 19.0238 19.6609 18.6475 19.7684 18.1945C19.969 18.6771 20.2793 19.6189 20.0815 20.7403C19.7502 22.6182 18.2326 23.6567 17.4693 24.179ZM8.85148 13.6662C8.85148 13.6662 8.85148 13.6657 8.85148 13.6651V13.664C8.86285 13.6134 9.05382 12.8091 9.56366 12.7273C10.0718 12.6454 9.80863 13.4349 9.79101 13.4878C9.79044 13.4883 9.79044 13.4889 9.79044 13.4895V13.4906C9.64266 12.8915 8.85091 13.6662 8.85091 13.6662H8.85148ZM16.0722 13.9669C16.0955 13.9902 16.5979 14.4853 16.7304 14.9627C16.7304 14.9627 12.5721 13.1246 8.95208 15.0394C10.136 14.2551 12.5732 13.1348 16.0716 13.9669H16.0722ZM13.7623 10.0974C14.1101 9.9422 14.4978 9.79328 14.8433 9.64892C15.2054 9.49829 15.5214 9.35336 15.6953 9.21354C15.6953 9.21354 15.5476 11.0477 13.1672 10.9795C13.1672 10.9795 13.0501 10.4157 13.7623 10.0974ZM5.38322 16C5.38322 10.1366 10.1366 5.38322 16 5.38322C17.2197 5.38322 18.3912 5.58897 19.4819 5.96751C18.8885 6.69959 18.0638 7.51521 16.9554 8.2166C16.9554 8.2166 16.765 7.23728 16.4712 6.96275C16.3586 7.15373 16.1796 7.42086 15.913 7.69767C15.4617 8.16544 15.0008 8.40985 14.6205 8.60821C13.9101 8.97766 13.3377 9.16636 13.3377 9.16636C13.0944 9.2465 12.9091 9.29311 12.6716 9.44998C12.5295 9.54433 12.2379 9.7427 12.0844 10.1161C12.0316 10.244 11.944 10.4554 12.006 10.7135C12.0651 10.9602 12.226 11.1074 12.2896 11.1637C12.5204 11.3683 12.7818 11.4012 12.8773 11.4086C12.808 11.441 12.5789 11.5382 12.2998 11.4672C12.1117 11.4194 11.9872 11.3182 11.9276 11.262C11.9276 11.262 11.2614 12.0941 10.3804 12.3288C9.49886 12.5641 9.67506 11.6826 9.74384 11.3398C9.74384 11.3398 7.26967 12.5977 8.13191 15.6857C8.13191 15.6857 8.30981 15.5021 8.65709 15.2463C8.65709 15.2463 9.6222 16.515 11.2745 16.5564C11.1972 16.4848 10.9926 16.2768 10.9988 16C11.0125 15.4049 11.653 15.1935 12.1418 15.1076C13.4696 14.8746 15.306 14.8882 16.4149 15.8249C18.1724 16.6872 18.415 18.1172 18.3417 19.0874C18.319 19.1125 17.837 19.6405 17.4374 19.7314C17.4374 19.7314 18.4099 17.1305 16.4149 15.8249C16.5371 15.9278 16.6508 16.0426 16.7537 16.1694C17.4443 17.0197 17.3624 18.2445 16.8134 19.1443C15.5174 21.2666 12.5698 21.7844 10.3332 21.1598C9.75463 20.9983 9.19705 20.763 8.67755 20.4612C7.19181 19.599 6.18748 18.2167 5.40766 16.7235C5.39118 16.4843 5.38322 16.2433 5.38322 16Z" fill="#110F23"/>
</svg>
