<svg width="32" height="32" viewBox="0 0 32 32" fill="none" xmlns="http://www.w3.org/2000/svg">
<path d="M27.9343 11.3839L25.8645 10.2561V6.80574L19.0929 3.06511L17.0018 4.21378V14.4253L18.0906 15.0278V7.16722L22.9559 9.84498L23.6216 9.47893V8.96851L18.0906 5.92448V4.8579L19.0916 4.30807L24.7757 7.44835V10.2674L22.0653 11.7565C21.8815 11.6328 21.6603 11.5607 21.4223 11.5607C20.7849 11.5607 20.2682 12.0774 20.2682 12.7148C20.2682 13.3522 20.7849 13.8689 21.4223 13.8689C22.0596 13.8689 22.5746 13.3539 22.5764 12.7181L25.3304 11.2051L26.7878 11.9993L27.9114 12.6114V18.8486L25.338 20.2766L14.9984 14.5348V4.14627L12.8823 3L6.1357 6.76393V10.2282L3 11.9675V19.5132L5.19935 20.7198L6.1357 21.2335V24.6943L12.8864 28.4369L14.9984 27.2636V17.0312L13.9096 16.4287V24.3008L9.00553 21.5949L8.35683 21.9564V22.4806L13.9096 25.5442V26.6227L12.886 27.1915L7.22449 24.053V21.2317L9.94036 19.7229C10.1185 19.8355 10.3297 19.901 10.5562 19.901C11.1936 19.901 11.7103 19.3843 11.7103 18.7469C11.7103 18.1095 11.1936 17.5928 10.5562 17.5928C9.9188 17.5928 9.40206 18.1095 9.40206 18.7469C9.40206 18.7567 9.4025 18.7663 9.40272 18.7761L6.67836 20.2897L6.13157 19.9899L4.08857 18.8691V12.609L6.68206 11.1705L16.9112 16.8581L16.9177 16.8465L17.0016 16.8931V27.2677L19.1169 28.4136L25.8643 24.6729V21.2302L29 19.4903V11.9653L27.9341 11.3845L27.9343 11.3839ZM18.0906 17.4972L24.2161 20.899L18.0906 24.298V17.4972ZM7.22449 7.40327L12.8901 4.24252L13.9096 4.79476V5.91642L7.22449 9.62439V7.40349V7.40327ZM13.9096 13.9427L7.80394 10.5479L13.9096 7.16134V13.9427ZM24.7757 24.031L19.111 27.1715L18.0906 26.6188V25.5433L24.7757 21.8338V24.0312V24.031Z" fill="#110F23"/>
</svg>
