<svg width="32" height="32" viewBox="0 0 32 32" fill="none" xmlns="http://www.w3.org/2000/svg">
<path d="M23.1402 11.6973H20.8397C20.5739 11.6973 20.3189 11.5838 20.1398 11.3839L19.2066 10.3359C19.0655 10.1793 18.8702 10.0874 18.6586 10.0874C18.447 10.0874 18.2517 10.1793 18.1106 10.3359L17.3076 11.2381C17.0472 11.5298 16.6674 11.7027 16.2767 11.7027H3.68364C3.32554 12.7128 3.09224 13.7878 3 14.9061H14.8877C15.0993 14.9061 15.2947 14.8196 15.4412 14.6684L16.548 13.5177C16.6836 13.3719 16.879 13.2909 17.0743 13.2909H17.1177C17.3293 13.2909 17.5246 13.3827 17.6657 13.5393L18.5989 14.5873C18.778 14.7872 19.033 14.9007 19.2988 14.9007H29C28.9078 13.7878 28.6745 12.7074 28.3164 11.6918L23.1402 11.6973Z" fill="#110F23"/>
<path d="M10.1945 21.6478C10.4061 21.6478 10.6014 21.5613 10.7479 21.4101L11.8548 20.2594C11.9958 20.1136 12.1857 20.0326 12.3865 20.0326H12.4299C12.6415 20.0326 12.8422 20.1244 12.9779 20.2757L13.9111 21.3237C14.0902 21.5235 14.3452 21.637 14.611 21.637H27.7629C28.2567 20.6214 28.6148 19.5356 28.8318 18.3957H16.2062C15.9403 18.3957 15.6853 18.2823 15.5063 18.0824L14.573 17.0452C14.432 16.8886 14.2366 16.8021 14.025 16.8021C13.8134 16.8021 13.6127 16.894 13.477 17.0452L12.674 17.9474C12.4136 18.2445 12.0338 18.412 11.6377 18.412H3.17905C3.39608 19.5518 3.75418 20.6376 4.24791 21.6532L10.1945 21.6478Z" fill="#110F23"/>
<path d="M19.5213 8.19135C19.7329 8.19135 19.9282 8.10492 20.0747 7.95366L21.1816 6.80303C21.3172 6.65718 21.5125 6.57615 21.7133 6.57615H21.7567C21.9683 6.57615 22.1636 6.66798 22.3047 6.82464L23.2379 7.87804C23.4169 8.07791 23.672 8.19135 23.9378 8.19135H26.4391C24.0572 5.03657 20.27 3 16.0054 3C11.7408 3 7.94825 5.03657 5.56636 8.19135H19.5213Z" fill="#110F23"/>
<path d="M11.0843 24.862C10.8184 24.862 10.5634 24.7486 10.3844 24.5487L9.45117 23.5007C9.3101 23.3441 9.11477 23.2576 8.90317 23.2576C8.69157 23.2576 8.49082 23.3495 8.35517 23.5007L7.55217 24.4029C7.29173 24.7 6.91194 24.8674 6.51586 24.8674H6.4616C8.84349 27.4064 12.2346 29 16.0054 29C19.7763 29 23.1619 27.4064 25.5492 24.8674L11.0843 24.862Z" fill="#110F23"/>
</svg>
