<svg width="32" height="32" viewBox="0 0 32 32" fill="none" xmlns="http://www.w3.org/2000/svg">
<path d="M26.1548 25.1798C26.1357 25.1936 26.1158 25.2066 26.0942 25.2127C26.0302 25.2309 25.954 25.2274 25.8882 25.2084C25.4599 25.0898 25.0349 24.9565 24.604 24.8466C24.4231 24.8007 24.2319 24.7878 24.0441 24.7817C23.4253 24.7644 22.8065 24.7506 22.1886 24.7506C21.9455 24.7506 21.7135 24.7133 21.4807 24.6484C21.3189 24.6034 21.1467 24.5801 20.9779 24.5706C20.7728 24.5602 20.6266 24.4849 20.5435 24.2902C20.4985 24.1846 20.4198 24.0911 20.3886 23.9829C20.3514 23.8531 20.3384 23.7138 20.3332 23.5771C20.3246 23.3659 20.3116 23.3451 20.1021 23.3443C19.801 23.3443 19.5007 23.333 19.2004 23.3477C18.9183 23.3616 18.6621 23.2932 18.4155 23.166C18.3705 23.1435 18.322 23.1262 18.2727 23.1149C17.8763 23.0293 17.5457 22.8155 17.2039 22.6113C16.8413 22.3941 16.5973 22.0617 16.2952 21.7883C16.0633 21.578 15.834 21.3625 15.5951 21.1591C15.4818 21.0622 15.3433 20.9964 15.2247 20.9038C15.0093 20.7377 14.7886 20.575 14.5913 20.3881C14.2027 20.0185 13.8254 19.6378 13.4515 19.2527C13.3347 19.1324 13.2438 18.9852 13.1478 18.8459C13.0266 18.672 12.9219 18.4876 12.793 18.3206C12.664 18.1545 12.5749 17.9866 12.5853 17.7659C12.5922 17.6118 12.5671 17.4543 12.5463 17.3003C12.5394 17.2484 12.5108 17.1904 12.4728 17.154C12.2547 16.9429 12.2166 16.6737 12.2157 16.3908C12.2157 16.2108 12.2071 16.029 12.2192 15.8499C12.227 15.7287 12.2642 15.6102 12.2858 15.4899C12.2953 15.4362 12.3023 15.3808 12.3083 15.3272C12.3153 15.2683 12.3101 15.2034 12.3326 15.1506C12.349 15.1117 12.4018 15.0641 12.4364 15.0658C12.4702 15.0676 12.5281 15.1255 12.529 15.161C12.5359 15.3289 12.5757 15.5037 12.4779 15.6621C12.4598 15.6924 12.4442 15.7313 12.4451 15.7659C12.4477 15.8767 12.4433 15.9884 12.4407 16.0991C12.4676 16.0749 12.5039 16.0593 12.5506 16.0593C12.7739 16.0593 12.7731 16.4055 12.5506 16.4055C12.5048 16.4055 12.4693 16.3908 12.4425 16.3674C12.4494 16.5024 12.4693 16.6365 12.5178 16.7672C12.5446 16.839 12.5809 16.9135 12.6329 16.9671C12.767 17.1065 12.8172 17.2726 12.8198 17.4578C12.8215 17.5504 12.825 17.643 12.8198 17.7356C12.8094 17.9147 12.8899 18.0523 12.9989 18.1856C13.1071 18.3172 13.2239 18.4487 13.2958 18.5993C13.4178 18.8554 13.5857 19.064 13.7899 19.257C14.072 19.5235 14.3368 19.8091 14.6172 20.0774C14.7635 20.2167 14.9383 20.3258 15.0819 20.4677C15.3476 20.729 15.6938 20.8796 15.9499 21.1617C16.2909 21.5382 16.6604 21.8878 17.0559 22.2071C17.4307 22.51 17.8417 22.7731 18.3272 22.8865C18.4691 22.9194 18.5998 22.999 18.7417 23.0336C18.9053 23.0743 19.0749 23.1089 19.2428 23.1115C19.788 23.121 20.3341 23.1149 20.8793 23.1158C21.0861 23.1158 21.2713 23.0596 21.4643 22.9782C21.5396 22.9471 21.6131 22.9124 21.6858 22.8761C21.6296 22.774 21.678 22.6121 21.8312 22.6121C21.91 22.6121 21.9602 22.6554 21.9835 22.7108C22.0683 22.6589 22.1523 22.6044 22.2336 22.5455C22.2665 22.5221 22.3089 22.5022 22.3479 22.4979C22.604 22.4728 22.7425 22.2971 22.8308 22.0894C22.9519 21.8082 23.1743 21.6282 23.3915 21.4343C23.5508 21.2915 23.6944 21.128 23.8312 20.9618C23.8762 20.9073 23.8866 20.8182 23.8978 20.7429C23.9497 20.3933 23.9774 20.0393 24.0544 19.6957C24.0856 19.5599 24.2085 19.4353 24.3132 19.3279C24.4396 19.1981 24.5105 19.0493 24.5806 18.8849C24.6663 18.6798 24.8056 18.4963 24.9173 18.3024C24.9553 18.2367 24.9804 18.1648 25.0142 18.0982C25.0947 17.9355 25.1561 17.7564 25.2643 17.6144C25.369 17.476 25.4382 17.3366 25.4573 17.167C25.4754 17.0121 25.53 16.8754 25.6407 16.7586C25.7861 16.6054 25.7861 16.3986 25.7896 16.209C25.7956 15.798 25.7956 15.386 25.7584 14.9776C25.729 14.6452 25.6528 14.3181 25.3993 14.0585C25.3318 13.9893 25.3024 13.8569 25.2998 13.753C25.2937 13.4761 25.2998 13.1974 25.3283 12.9231C25.3465 12.7517 25.4088 12.5847 25.4581 12.4186C25.5204 12.21 25.4841 12.0205 25.3802 11.8336C25.35 11.7782 25.35 11.6985 25.3526 11.631C25.3681 11.3048 25.2989 10.9967 25.2288 10.6782C25.1578 10.3572 25.0055 10.101 24.835 9.8362C24.752 9.70639 24.6767 9.53591 24.6862 9.38879C24.7147 8.91801 24.5598 8.4905 24.4318 8.05434C24.2812 7.54202 24.0207 7.07989 23.7498 6.62642C23.4781 6.16949 23.0783 5.83285 22.6525 5.52563C22.4846 5.40447 22.3124 5.28851 22.1506 5.15956C21.8096 4.88869 21.4851 4.59359 21.1328 4.3383C20.7356 4.05012 20.322 3.79396 19.8529 3.61309C19.3579 3.42443 18.8447 3.32404 18.3419 3.17952C17.5501 2.95452 16.7401 3.00298 15.9335 3.00731C15.4947 3.0099 15.056 3.01769 14.619 3.04884C14.4121 3.06356 14.2105 3.13365 14.008 3.18731C13.8444 3.23058 13.6748 3.26693 13.5234 3.33962C13.2456 3.47289 12.9807 3.63126 12.7099 3.77751C12.4927 3.89607 12.2884 4.03021 12.0375 4.09079C11.8081 4.14618 11.5961 4.27252 11.3754 4.36426C11.2058 4.43435 11.0379 4.51138 10.8631 4.5659C10.6805 4.62215 10.5628 4.74157 10.4789 4.90167C10.2885 5.26428 10.1189 5.639 9.74674 5.86573C9.62991 5.93669 9.58231 6.05352 9.58318 6.19718C9.58318 6.29584 9.54596 6.39536 9.52952 6.49401C9.51135 6.59786 9.51135 6.70604 9.48192 6.80729C9.44731 6.92931 9.4075 7.05393 9.34259 7.16124C9.18249 7.42086 9.01114 7.67183 8.96874 7.9851C8.94364 8.17117 8.89431 8.3555 8.89085 8.54156C8.88393 8.88339 8.75671 9.18542 8.63037 9.49264C8.59835 9.57139 8.57411 9.65793 8.56806 9.74274C8.55767 9.88553 8.57412 10.0301 8.56286 10.172C8.54123 10.455 8.50921 10.7371 8.48152 11.0192C8.47719 11.0694 8.47373 11.1205 8.47113 11.1707C8.46075 11.3965 8.43998 11.6224 8.44344 11.8474C8.4469 12.0352 8.47806 12.223 8.49969 12.4099C8.50921 12.4921 8.54642 12.5752 8.5395 12.6548C8.50834 12.9785 8.64421 13.2459 8.79047 13.5168C8.85191 13.6301 8.86922 13.7669 8.90297 13.8941C8.91595 13.9425 8.91076 13.9962 8.9272 14.0429C9.04663 14.39 9.16778 14.737 9.29326 15.0814C9.32615 15.1714 9.37115 15.258 9.42134 15.3393C9.6827 15.7616 9.94838 16.1805 10.2089 16.6028C10.2392 16.653 10.2556 16.7127 10.2738 16.7698C10.3378 16.981 10.4036 17.193 10.4616 17.4059C10.4841 17.4898 10.5022 17.5781 10.5031 17.6638C10.5066 18.4868 10.5187 19.3106 10.497 20.1328C10.4901 20.369 10.4105 20.6148 10.3162 20.8346C10.1656 21.1877 10.0566 21.5382 10.0566 21.9276C10.0566 22.0773 10.0003 22.2374 9.93193 22.3742C9.73981 22.7567 9.54337 23.1392 9.31836 23.5026C9.18942 23.7103 9.01114 23.8912 8.8346 24.0634C8.71518 24.1794 8.5594 24.259 8.42353 24.3577C8.38978 24.3828 8.36901 24.4243 8.34219 24.4589C8.38113 24.4754 8.41834 24.4996 8.45815 24.5056C8.51181 24.5143 8.57325 24.4961 8.62258 24.5134C8.67277 24.5316 8.71171 24.5792 8.75671 24.6138C8.71431 24.6545 8.6771 24.7211 8.62777 24.7315C8.49796 24.7592 8.3595 24.7869 8.23055 24.7705C7.75891 24.7064 7.34524 24.9037 6.91687 25.037C6.80696 25.0708 6.691 25.0915 6.58801 25.1409C6.45215 25.2058 6.32666 25.2897 6.19858 25.3676C5.95541 25.5173 5.72348 25.6861 5.41193 25.6636C5.2752 25.654 5.1376 25.6566 5 25.6592C22.7814 35.6996 26.1591 25.1772 26.1591 25.1772C26.1591 25.1772 26.1582 25.1772 26.1574 25.1772L26.1548 25.1798ZM13.5 17.9364C13.2767 17.9364 13.2767 17.5902 13.5 17.5902C13.5017 17.5902 13.5035 17.5902 13.5052 17.5902C13.7215 17.5963 13.7207 17.9294 13.5052 17.9355C13.5035 17.9355 13.5017 17.9355 13.5 17.9355V17.9364ZM13.8271 18.993C13.6038 18.993 13.6038 18.6469 13.8271 18.6469C14.0504 18.6469 14.0495 18.993 13.8271 18.993ZM14.3005 17.9918C14.5238 17.9918 14.5229 18.3379 14.3005 18.3379C14.0781 18.3379 14.0772 17.9918 14.3005 17.9918ZM14.5186 19.4301C14.2953 19.4301 14.2953 19.0839 14.5186 19.0839C14.7418 19.0839 14.741 19.4301 14.5186 19.4301ZM14.8466 20.1942C14.6233 20.1942 14.6233 19.848 14.8466 19.848C15.0698 19.848 15.069 20.1942 14.8466 20.1942ZM14.9677 11.0028C14.9677 11.0028 14.9617 11.0062 14.9591 11.0088C14.9426 11.0201 14.9167 11.0365 14.882 11.0391C14.8734 11.0391 14.8656 11.0391 14.8578 11.0391C14.8267 11.0391 14.799 11.0356 14.7713 11.0331L14.6051 11.0166L14.6743 10.8989C14.6795 10.8903 14.6839 10.8807 14.6882 10.8712C14.7046 10.8366 14.7245 10.7925 14.7687 10.7656C15.0759 10.577 15.4169 10.455 15.7821 10.403C15.9032 10.3857 16.0261 10.3554 16.1447 10.3269C16.2234 10.3078 16.303 10.2879 16.3826 10.2715C16.5151 10.2447 16.6656 10.2135 16.8136 10.2049C16.9417 10.1971 17.0706 10.1988 17.1953 10.2005C17.2498 10.2005 17.3043 10.2023 17.3588 10.2023H17.3597C17.4229 10.2023 17.486 10.2023 17.5492 10.2014C17.7058 10.2005 17.8677 10.1988 18.0278 10.2057C18.1299 10.2101 18.2268 10.249 18.3125 10.2827C18.3722 10.3052 18.3878 10.3632 18.3973 10.4013C18.3999 10.41 18.4016 10.4178 18.4042 10.4247L18.438 10.5121L18.3488 10.5389C18.3419 10.5415 18.3341 10.5441 18.3263 10.5476C18.2943 10.5614 18.2511 10.5804 18.2026 10.5657C17.8556 10.461 17.5077 10.4775 17.139 10.4956C16.9867 10.5034 16.8301 10.5104 16.6743 10.5086C16.5661 10.506 16.4536 10.5441 16.335 10.5822C16.2701 10.6029 16.2035 10.6254 16.1351 10.641C16.0685 10.6566 16.001 10.6687 15.9344 10.68C15.8314 10.6981 15.7353 10.7146 15.6427 10.7449C15.4818 10.7968 15.3208 10.8617 15.165 10.9249C15.0993 10.9517 15.0343 10.9777 14.9686 11.0036L14.9677 11.0028ZM18.4285 17.3972C18.5297 17.7512 18.6621 18.0091 19.1017 17.9952C19.1294 17.9952 19.1641 17.9918 19.1822 18.0065C19.2212 18.0368 19.2515 18.0792 19.2852 18.1172C19.2506 18.1484 19.2194 18.1943 19.1788 18.2072C19.1182 18.2254 19.0515 18.2194 18.9866 18.2246C18.5323 18.2548 18.2493 17.7953 18.1965 17.4578C18.1836 17.3773 18.1913 17.2916 18.1948 17.2094C18.2026 17.0415 18.3281 16.9221 18.4934 16.9014C18.637 16.884 18.7789 16.8477 18.9217 16.8226C18.9624 16.8157 19.01 16.8036 19.0438 16.8174C19.0853 16.8347 19.132 16.8737 19.1424 16.9135C19.1493 16.9403 19.1061 17.0026 19.0741 17.0139C18.9313 17.0606 18.7867 17.1108 18.6396 17.129C18.4562 17.1515 18.3783 17.219 18.4293 17.3981L18.4285 17.3972ZM18.1939 19.4292C17.9707 19.4292 17.9707 19.083 18.1939 19.083C18.4172 19.083 18.4163 19.4292 18.1939 19.4292ZM19.0308 11.8786C19.0273 11.8915 19.0239 11.9054 19.0204 11.9184L19.0048 11.9859H18.8923V11.9244L18.8188 11.9461C18.8153 11.9409 18.8118 11.9365 18.8084 11.9322C18.7937 11.9132 18.7746 11.8881 18.7668 11.8526C18.7262 11.6492 18.5868 11.5159 18.4215 11.3749C18.3904 11.3481 18.3722 11.3152 18.3575 11.2875C18.3532 11.2788 18.348 11.2702 18.3428 11.2624L18.2761 11.1577L18.3982 11.1317C18.4086 11.1291 18.4189 11.1257 18.4293 11.1222C18.4657 11.1101 18.5107 11.0945 18.5609 11.1075C18.7253 11.1516 19.0524 11.58 19.0533 11.7522C19.0533 11.7989 19.0412 11.8422 19.0308 11.8803V11.8786ZM16.1499 14.1087C15.8842 14.081 15.3978 14.0594 15.4255 13.6751H15.4264C15.4376 13.5202 15.6799 13.5194 15.6687 13.6751C15.6592 13.8179 15.8539 13.8318 15.9569 13.8447C16.0997 13.8629 16.2425 13.8768 16.3852 13.8872C16.6708 13.9088 16.9703 13.9174 17.2446 13.914C17.5189 13.9097 17.8132 13.9166 18.0806 13.8491C18.2865 13.7972 18.5401 13.6301 18.4787 13.3818C18.4414 13.2303 18.6751 13.1663 18.7114 13.3169C18.785 13.6189 18.5868 13.9001 18.3177 14.0213C18.0044 14.1615 17.6193 14.1485 17.2827 14.1546C16.9045 14.1615 16.5263 14.1459 16.1499 14.1078V14.1087ZM19.3224 22.8519C19.0991 22.8519 19.0991 22.5057 19.3224 22.5057C19.5457 22.5057 19.5448 22.8519 19.3224 22.8519ZM19.7222 22.9609C19.499 22.9609 19.499 22.6147 19.7222 22.6147C19.9455 22.6147 19.9446 22.9609 19.7222 22.9609ZM19.9048 22.5239C19.6816 22.5239 19.6816 22.1777 19.9048 22.1777C20.1281 22.1777 20.1272 22.5239 19.9048 22.5239ZM20.232 22.0315C20.4552 22.0315 20.4544 22.3776 20.232 22.3776C20.0096 22.3776 20.0087 22.0315 20.232 22.0315ZM20.3047 22.8873C20.0814 22.8873 20.0814 22.5412 20.3047 22.5412C20.5279 22.5412 20.5271 22.8873 20.3047 22.8873ZM20.7408 22.2132C20.9641 22.2132 20.9632 22.5594 20.7408 22.5594C20.5184 22.5594 20.5175 22.2132 20.7408 22.2132ZM20.8507 22.9964C20.6274 22.9964 20.6274 22.6502 20.8507 22.6502C21.074 22.6502 21.0731 22.9964 20.8507 22.9964ZM22.321 20.3526C22.315 20.3941 22.276 20.4478 22.238 20.4651C22.2129 20.4772 22.1566 20.4434 22.1246 20.4175C22.0943 20.3924 22.0753 20.3508 22.0554 20.3154C22.0008 20.2184 21.9256 20.1882 21.8122 20.2063C21.6581 20.2314 21.5006 20.2487 21.3449 20.2496C20.6846 20.2548 20.0243 20.2686 19.364 20.2435C19.1268 20.234 18.8949 20.1198 18.6587 20.054C18.5565 20.0255 18.4536 20.0004 18.3523 19.9701C18.2017 19.9251 18.0546 19.9104 17.9135 20.0038C17.8807 20.0255 17.8331 20.0436 17.7967 20.0358C17.7534 20.0272 17.6989 19.9986 17.679 19.9623C17.6626 19.9337 17.679 19.8584 17.7041 19.842C17.8261 19.7641 17.9568 19.7001 18.0589 19.6447C18.3722 19.7269 18.6474 19.7875 18.9157 19.8723C19.2515 19.9787 19.5855 20.0583 19.9438 20.0367C20.2519 20.0185 20.5634 20.0454 20.8715 20.0298C21.2064 20.0125 21.5404 19.9761 21.8728 19.9346C22.0683 19.9104 22.347 20.1535 22.321 20.3517V20.3526ZM19.5042 18.9731C19.7274 18.9731 19.7266 19.3193 19.5042 19.3193C19.2817 19.3193 19.2809 18.9731 19.5042 18.9731ZM20.3748 17.7711C20.4137 17.7849 20.4578 17.8325 20.4648 17.8715C20.4699 17.8983 20.4215 17.9589 20.3877 17.9658C20.2363 17.9987 20.0831 18.0238 19.9291 18.0402C19.8962 18.0437 19.8391 18.0021 19.827 17.9693C19.8148 17.9381 19.8347 17.8663 19.8616 17.8542C19.9646 17.804 20.0753 17.7702 20.1835 17.7295L20.1956 17.7581H20.1965C20.2562 17.7616 20.3194 17.752 20.3739 17.7719L20.3748 17.7711ZM19.9775 19.4102C20.2008 19.4102 20.1999 19.7563 19.9775 19.7563C19.7551 19.7563 19.7543 19.4102 19.9775 19.4102ZM20.669 19.4647C20.4457 19.4647 20.4457 19.1185 20.669 19.1185C20.8923 19.1185 20.8914 19.4647 20.669 19.4647ZM20.8516 18.5716C21.0749 18.5716 21.074 18.9177 20.8516 18.9177C20.6292 18.9177 20.6283 18.5716 20.8516 18.5716ZM21.434 19.3002C21.6573 19.3002 21.6564 19.6464 21.434 19.6464C21.2116 19.6464 21.2107 19.3002 21.434 19.3002ZM22.1255 18.9359C22.3487 18.9359 22.3479 19.2821 22.1255 19.2821C21.9031 19.2821 21.9022 18.9359 22.1255 18.9359ZM22.2665 17.6828C22.1999 17.7849 22.1592 17.8767 22.1523 17.997C22.1462 18.0878 22.1185 18.1899 22.0657 18.2618C21.9316 18.4461 21.8442 18.4504 21.6426 18.3379C21.5552 18.2886 21.4591 18.2548 21.3648 18.2211C21.2973 18.1969 21.1934 18.1986 21.2185 18.0991C21.2306 18.0523 21.3258 18.0264 21.3847 17.9935C21.3951 17.9874 21.4124 17.9926 21.4254 17.9926L21.4357 17.9701C21.5301 18.0134 21.6244 18.0575 21.7187 18.0999C21.8356 18.1536 21.9221 18.125 21.9143 18.0056C21.8927 17.6716 22.1601 17.4725 22.2631 17.1982C22.2821 17.1471 22.3228 17.1047 22.3453 17.0545C22.4413 16.8399 22.4275 16.8001 22.2613 16.6322C22.0052 16.3735 21.7256 16.1285 21.511 15.8369C21.3475 15.6145 21.2428 15.3367 21.2211 15.0459C21.2142 14.9455 21.2073 14.8408 21.2246 14.7413C21.2341 14.6851 21.2912 14.6357 21.3267 14.5838C21.3656 14.6323 21.4279 14.6755 21.4392 14.7301C21.4686 14.8737 21.4522 15.0286 21.4946 15.1671C21.5863 15.4639 21.6919 15.753 21.9455 15.9684C22.1696 16.1588 22.3617 16.3864 22.5763 16.5889C22.7312 16.7352 22.656 16.9048 22.6058 17.0389C22.5218 17.2648 22.3972 17.4794 22.2648 17.6819L22.2665 17.6828ZM21.5448 12.1719C21.5517 11.9253 21.5664 11.6795 21.582 11.451C21.5846 11.4095 21.6054 11.3775 21.6209 11.3541C21.6244 11.3481 21.6287 11.3429 21.6313 11.3368L21.6555 11.2909H21.7672L21.8044 11.3749L21.8529 11.3706C21.8555 11.4 21.8589 11.4303 21.8624 11.4597C21.871 11.5307 21.8788 11.6042 21.8771 11.6795C21.8736 11.831 21.8615 11.9962 21.8399 12.1823C21.8338 12.2316 21.8079 12.2706 21.7862 12.3026C21.7793 12.313 21.7715 12.3234 21.7663 12.3346L21.6131 12.3329C21.608 12.3225 21.601 12.3121 21.5941 12.3026C21.5716 12.268 21.543 12.2256 21.5439 12.1711L21.5448 12.1719ZM22.8169 20.1189C22.5936 20.1189 22.5936 19.7728 22.8169 19.7728C23.0402 19.7728 23.0393 20.1189 22.8169 20.1189ZM24.327 13.9616C24.2795 14.2091 24.0155 14.2835 23.7966 14.2705C23.5153 14.2532 23.234 14.2195 22.9537 14.1944L22.5201 14.1546C22.4084 14.1442 22.2899 14.1416 22.1834 14.1026C21.9991 14.0351 21.8451 13.8058 21.9827 13.6215V13.6232C22.0761 13.4995 22.2856 13.6206 22.1921 13.7452C22.0908 13.8811 22.4162 13.9045 22.482 13.9097L23.0731 13.9624C23.2764 13.9806 23.4807 13.9988 23.6832 14.0178C23.813 14.0291 24.0605 14.0732 24.0943 13.8958C24.1237 13.7435 24.3565 13.8075 24.327 13.9607V13.9616ZM23.8087 10.6878C23.9238 10.7821 24.0397 10.8764 24.1531 10.9733C24.1877 11.0028 24.2033 11.0426 24.2163 11.0746C24.2197 11.0832 24.2232 11.0928 24.2275 11.1006L24.2846 11.2157L24.1566 11.226C24.1462 11.226 24.1358 11.2295 24.1245 11.2312C24.1038 11.2356 24.0804 11.2408 24.0553 11.2408C24.0293 11.2408 24.0017 11.2356 23.9774 11.2182L23.9229 11.1819C23.8087 11.1049 23.6901 11.0253 23.5932 10.9223C23.3647 10.6808 23.0878 10.5666 22.7425 10.5701L22.6741 10.5718C22.5945 10.5744 22.5114 10.5761 22.4292 10.5683C22.1133 10.5398 21.8719 10.5986 21.6677 10.7544C21.6452 10.7717 21.614 10.7951 21.5733 10.7916C21.5474 10.7907 21.5179 10.7873 21.4877 10.7838L21.3241 10.7674L21.3778 10.6557C21.3821 10.6471 21.3855 10.6367 21.389 10.6263C21.4011 10.59 21.4184 10.5406 21.4634 10.5121L21.4963 10.4913C21.7101 10.3572 21.9307 10.2178 22.225 10.2628C22.2726 10.2698 22.3236 10.268 22.3782 10.2654C22.4059 10.2646 22.4335 10.2637 22.4612 10.2637L22.463 10.3269L22.4708 10.2455L22.5106 10.2499C22.7165 10.2706 22.9216 10.2905 23.1276 10.3096C23.3543 10.3303 23.5196 10.4532 23.6832 10.5882L23.8087 10.6904V10.6878ZM14.8777 8.05261C14.8864 8.04828 14.8942 8.04222 14.9019 8.03616C14.9296 8.01712 14.9643 7.99289 15.0093 7.9877C15.1486 7.97126 15.2888 7.95655 15.429 7.94183C15.6194 7.92193 15.8158 7.90116 16.0079 7.87606C16.1628 7.85616 16.3169 7.82673 16.4536 7.79991C16.5116 7.78866 16.567 7.77827 16.6189 7.76875L16.7202 7.75058V7.76616L17.0533 7.75664C17.5743 7.74193 18.0693 7.72808 18.5643 7.71856C18.6517 7.71683 18.7504 7.73241 18.849 7.76356C19.0472 7.82587 19.2454 7.89164 19.4436 7.95741C19.5604 7.99635 19.6781 8.0353 19.7949 8.07337C19.8131 8.07943 19.8321 8.08289 19.8495 8.08289C20.1099 8.0803 20.3704 8.0777 20.6309 8.07424C20.8966 8.07078 21.1623 8.06818 21.4279 8.06559C21.5015 8.06559 21.5759 8.06386 21.6495 8.06212C21.8641 8.05866 22.0865 8.05434 22.3055 8.06732C22.437 8.07424 22.5651 8.1452 22.6629 8.20665C22.8342 8.31396 23.0012 8.43425 23.1622 8.54935L23.2462 8.60992C23.2825 8.63502 23.2964 8.6757 23.305 8.70252C23.3076 8.70858 23.3093 8.7155 23.3119 8.72156L23.363 8.82628L23.2479 8.84445C23.2384 8.84618 23.228 8.84878 23.2167 8.85224C23.1934 8.85916 23.1648 8.86695 23.1354 8.86695C23.1129 8.86695 23.0887 8.86176 23.067 8.84791C22.9407 8.77176 22.8074 8.68262 22.6482 8.56839C22.4232 8.40655 22.2241 8.33905 22.0008 8.34771C21.7352 8.35896 21.466 8.36242 21.2047 8.36588C20.9035 8.36934 20.5911 8.37367 20.2865 8.38925C19.8321 8.41261 19.3804 8.32348 18.9044 8.11664C18.6388 8.00155 18.3713 8.01107 18.0875 8.02058C18.046 8.02232 18.0035 8.02318 17.962 8.02405C17.9153 8.02491 17.8685 8.0301 17.8218 8.03443C17.7777 8.03876 17.7327 8.04309 17.6885 8.04568C17.5457 8.0526 17.403 8.05866 17.2593 8.06472C16.9659 8.07684 16.663 8.08895 16.3671 8.11491C16.1888 8.13049 16.0079 8.16511 15.8331 8.19799C15.7154 8.22049 15.5943 8.24299 15.4731 8.2603C15.3173 8.2828 15.1572 8.28367 15.0188 8.2828C14.9625 8.2828 14.9218 8.24559 14.8924 8.2179C14.8846 8.21011 14.8768 8.20318 14.8682 8.19713L14.7574 8.11751L14.876 8.05087L14.8777 8.05261ZM13.706 9.55235C13.7371 9.52639 13.7752 9.49437 13.8271 9.48744C13.9898 9.46754 14.1534 9.45283 14.297 9.43985L14.4234 9.4286L14.426 9.45283L14.4441 9.42687C14.786 9.47879 15.075 9.39658 15.3814 9.30917C15.4272 9.29619 15.4731 9.28321 15.519 9.27023C15.8807 9.17157 16.2485 9.07638 16.6051 8.98464C16.8084 8.93185 17.0127 8.87907 17.216 8.82628C17.2835 8.8081 17.351 8.78906 17.4185 8.76916C17.5016 8.74493 17.5847 8.7207 17.6686 8.69993C17.9577 8.62723 18.2389 8.67223 18.5107 8.7155C18.5557 8.72243 18.6015 8.73022 18.6474 8.73714C18.8715 8.77002 19.0741 8.85397 19.2705 8.93532C19.4289 9.00109 19.5786 9.06253 19.7378 9.09974C19.8122 9.11705 19.8979 9.13609 19.9775 9.13869C20.09 9.14128 20.2034 9.14042 20.3168 9.13955C20.4466 9.13869 20.5799 9.13782 20.7123 9.14215C21.1952 9.15859 21.7966 9.17849 22.373 9.21744C22.476 9.22436 22.5677 9.28667 22.6482 9.34033C22.6698 9.35504 22.6914 9.36888 22.7122 9.38186C22.7641 9.41215 22.7659 9.47273 22.7667 9.51254C22.7667 9.52119 22.7667 9.52985 22.7676 9.53764L22.7823 9.63716H22.6819C22.6759 9.63716 22.6689 9.63802 22.6629 9.63889C22.63 9.64322 22.5798 9.64927 22.5391 9.61466C22.4145 9.50908 22.2683 9.50821 22.0986 9.50821C22.0657 9.50821 22.032 9.50821 21.9991 9.50735C21.8451 9.50302 21.6902 9.49956 21.5361 9.4961C20.9745 9.48312 20.3947 9.46927 19.8244 9.43119C19.6037 9.41648 19.3501 9.33513 19.1095 9.20186C18.9468 9.11186 18.7729 9.07811 18.5894 9.04263C18.5237 9.02965 18.4579 9.01753 18.393 9.00195C18.1083 8.93532 17.8036 8.96214 17.4367 9.08676C17.242 9.15253 17.0386 9.19321 16.8422 9.23301C16.7383 9.25378 16.631 9.27542 16.5272 9.29965C16.4692 9.3135 16.4129 9.3334 16.3524 9.35417C16.3022 9.37148 16.2528 9.38879 16.2018 9.40263C15.7985 9.51514 15.3944 9.62591 14.9902 9.73495C14.953 9.74533 14.9149 9.74533 14.8829 9.74533L14.7462 9.74966C14.4519 9.76005 14.1577 9.76957 13.8643 9.77649H13.8609C13.8115 9.77649 13.7691 9.75658 13.7345 9.74101C13.7233 9.73581 13.7111 9.72976 13.6999 9.72543L13.68 9.57312C13.6886 9.56706 13.6982 9.55927 13.7068 9.55235H13.706ZM13.3927 16.3856C13.616 16.3856 13.6151 16.7317 13.3927 16.7317C13.1703 16.7317 13.1694 16.3856 13.3927 16.3856ZM13.1383 16.9316C13.3615 16.9316 13.3607 17.2778 13.1383 17.2778C12.9158 17.2778 12.915 16.9316 13.1383 16.9316ZM13.1019 17.842C13.3252 17.842 13.3243 18.1882 13.1019 18.1882C12.8795 18.1882 12.8786 17.842 13.1019 17.842ZM12.9107 23.1193C12.8553 23.1565 12.7878 23.1833 12.7229 23.1998C12.2971 23.3062 11.9847 23.5459 11.8202 23.9604C11.7069 24.2478 11.4836 24.4537 11.282 24.6727C11.2162 24.7445 11.0933 24.7644 10.9955 24.8085L10.9817 24.7834H10.9834C10.9289 24.7774 10.8683 24.7834 10.8207 24.7627C10.7774 24.7436 10.7463 24.6926 10.7099 24.6562C10.7497 24.6233 10.7844 24.5792 10.8302 24.5602C10.87 24.5429 10.9228 24.5602 10.9661 24.5506C11.0223 24.5368 11.095 24.5247 11.1271 24.484C11.2785 24.3005 11.4481 24.1223 11.5563 23.9146C11.6939 23.6472 11.8419 23.3806 12.0877 23.2214C12.3092 23.0786 12.5844 23.0163 12.8397 22.9297C12.87 22.9194 12.9366 22.9722 12.9643 23.0111C12.9764 23.0284 12.9418 23.0994 12.9107 23.1201V23.1193ZM13.0335 19.945C13.018 20.2453 13.0102 20.5447 12.9833 20.8424C12.9669 21.0293 12.8881 21.1989 12.7436 21.327C12.7185 21.3495 12.6718 21.3478 12.6355 21.3582C12.6355 21.3201 12.6277 21.2794 12.6389 21.2448C12.6493 21.2119 12.6848 21.1868 12.7012 21.1548C12.7497 21.0613 12.8293 20.9679 12.8345 20.871C12.8579 20.4209 12.8682 19.9701 12.8648 19.5201C12.8648 19.4058 12.7886 19.2942 12.7635 19.1782C12.754 19.1358 12.786 19.0839 12.7999 19.0363C12.8319 19.0683 12.8786 19.0951 12.8951 19.135C13.0041 19.3937 13.0586 19.6637 13.0335 19.9458V19.945ZM18.4916 25.9552C18.444 25.9699 18.3973 25.9941 18.3488 25.9967C18.2519 26.0028 18.1541 26.0063 18.0581 25.9967C17.6946 25.9639 17.4713 26.1516 17.3432 26.4667C17.287 26.6051 17.2108 26.6605 17.0637 26.6527C16.8699 26.6432 16.676 26.651 16.4813 26.6501C16.303 26.6501 16.2 26.5774 16.1689 26.4026C16.1438 26.2598 16.0633 26.1871 15.9387 26.1361C15.8496 26.0997 15.7647 26.0547 15.6851 26.0019C15.4515 25.8436 15.2014 25.7882 14.9244 25.8531C14.8907 25.8609 14.8509 25.8418 14.8137 25.8358C14.8414 25.7986 14.8613 25.7397 14.8976 25.7276C15.1036 25.6592 15.313 25.6887 15.5086 25.7596C15.6341 25.8055 15.7431 25.8998 15.8608 25.969C15.911 25.9993 15.9629 26.0331 16.0192 26.0435C16.168 26.0729 16.2554 26.1525 16.2823 26.304C16.31 26.458 16.3679 26.5047 16.5272 26.5073C16.6933 26.5099 16.8603 26.5056 17.0265 26.5091C17.1156 26.5108 17.1728 26.4779 17.2143 26.3966C17.2584 26.3109 17.3086 26.2269 17.3675 26.1508C17.4739 26.0115 17.6037 25.8981 17.7881 25.8868C17.9854 25.8756 18.1844 25.8738 18.3835 25.873C18.4189 25.873 18.4544 25.8981 18.4899 25.9119L18.4916 25.9543L18.4899 25.9526L18.4916 25.9552ZM18.8854 24.6216C18.6076 24.5706 18.4406 24.4009 18.3203 24.188C18.2459 24.0582 18.2104 23.9059 18.1628 23.7623C18.155 23.738 18.1723 23.706 18.1784 23.6766C18.2069 23.6826 18.2519 23.6792 18.264 23.6965C18.3012 23.7527 18.3376 23.8142 18.354 23.8791C18.4319 24.1681 18.579 24.3897 18.8811 24.484C18.9148 24.4944 18.9365 24.5446 18.9633 24.5766L18.8863 24.6207L18.8854 24.6216Z" fill="#110F23"/>
</svg>
