<svg width="32" height="32" viewBox="0 0 32 32" fill="none" xmlns="http://www.w3.org/2000/svg">
<path d="M25.6167 16.9076V17.6641C25.6167 17.7432 25.6034 17.8201 25.5785 17.8924C25.5509 17.9721 25.509 18.0462 25.4551 18.1107C25.3842 18.1967 25.2921 18.2667 25.184 18.3114L24.6342 18.5388C24.6996 18.5932 24.7723 18.6466 24.8543 18.6995L24.8787 18.7147C24.9878 18.7838 25.102 18.8464 25.213 18.9021C25.2862 18.9394 25.358 18.9739 25.4252 19.0052C25.5044 19.0425 25.5845 19.0789 25.6637 19.1148C25.7143 19.1378 25.7659 19.1613 25.817 19.1852C25.9326 19.2386 26.0477 19.2934 26.1563 19.3501C26.3317 19.4417 26.5164 19.5315 26.695 19.618C26.8064 19.6719 26.9211 19.7276 27.0343 19.7842C27.0504 19.7037 27.0656 19.6231 27.079 19.5421C27.9887 19.9665 28.5707 20.6065 28.5974 20.6364C28.2452 20.0471 27.6858 19.6539 27.1029 19.3924C27.148 19.0973 27.178 18.7999 27.1922 18.5006C27.9685 18.856 28.4432 19.3289 28.4662 19.3524C28.1596 18.8943 27.6794 18.5743 27.1978 18.3537C27.2061 18.0927 27.2028 17.8303 27.1876 17.5683C27.5426 17.7566 27.7608 17.926 27.7608 17.926C27.6084 17.7212 27.4026 17.5554 27.1784 17.4223C27.1761 17.386 27.1734 17.3496 27.1701 17.3132C27.0661 16.0812 26.7493 14.8703 26.2585 13.7317V14.1691C26.2585 14.3629 26.1582 14.4523 26.0979 14.4886C26.0371 14.5255 25.9685 14.5393 25.9008 14.5393C25.7954 14.5393 25.6918 14.5066 25.6172 14.4757V16.9076H25.6167Z" fill="#110F23"/>
<path d="M25.7405 12.9421C25.7111 12.9338 25.6752 12.9265 25.6328 12.92L25.5458 12.9067C25.4574 12.8933 25.3363 12.8754 25.2576 12.8698V13.9596C25.5218 14.0052 25.6715 14.0558 25.7447 14.1295C25.7967 14.1516 25.8543 14.1677 25.8897 14.1705V13.0121C25.8741 12.996 25.8312 12.9661 25.7424 12.9421H25.7405Z" fill="#110F23"/>
<path d="M6.33814 12.5522C6.35748 12.5494 6.37636 12.5462 6.39524 12.5434C6.45371 12.5347 6.50665 12.5268 6.55546 12.5204C6.86899 12.0462 7.24653 11.6129 7.68391 11.2501C8.0108 10.9794 8.39248 10.7607 8.78658 10.5918C9.15951 10.4325 9.65491 10.2046 10.0684 10.3012C10.2341 10.3399 10.4463 10.4909 10.3962 10.6875C10.3478 10.8763 10.0071 11.0034 9.85841 11.0982C9.63465 11.2409 9.41458 11.3906 9.19957 11.5462C8.85565 11.7948 8.52461 12.06 8.20601 12.3395C9.43207 12.1848 11.4841 11.9629 13.1485 11.9629H13.5836L13.4643 12.0858C14.5163 12.0351 15.9998 12.0559 15.9998 12.0559C15.9998 12.0559 17.4832 12.0351 18.5357 12.0858L18.4164 11.9629H18.8511C20.5154 11.9629 22.5675 12.1848 23.7935 12.3395C23.4749 12.06 23.1439 11.7948 22.8004 11.5462C22.585 11.3906 22.3649 11.2409 22.1411 11.0982C21.9929 11.0034 21.6517 10.8763 21.6038 10.6875C21.5536 10.4909 21.7654 10.3399 21.9312 10.3012C22.3446 10.2046 22.84 10.4325 23.2129 10.5918C23.6075 10.7607 23.9892 10.9794 24.3156 11.2501C24.7535 11.6129 25.1301 12.0466 25.4436 12.5204C25.456 12.5393 25.4676 12.5586 25.48 12.5775H25.4804C25.4993 12.6074 25.5214 12.642 25.5389 12.6705C25.5504 12.6889 25.5624 12.7069 25.5734 12.7253C25.6011 12.7294 25.6301 12.734 25.6605 12.7386C25.7097 12.746 25.753 12.7548 25.7908 12.7653C25.753 12.6944 25.7139 12.6245 25.6743 12.5545C25.5348 12.3063 25.3865 12.0628 25.2295 11.8252C25.6766 9.16082 25.5808 5.38733 25.5062 3.68015C25.4851 3.20777 25.0177 2.88779 24.5688 3.03696C21.2212 4.14562 17.7355 6.80262 17.7355 6.80262C17.1664 6.7064 16.5863 6.65667 15.9998 6.65667C15.4132 6.65667 14.8331 6.7064 14.264 6.80262C14.264 6.80262 10.7788 4.14562 7.43069 3.03696C6.98179 2.88779 6.51448 3.20777 6.49376 3.68015C6.41872 5.38733 6.32295 9.16082 6.77001 11.8252C6.61347 12.0628 6.46522 12.3063 6.32571 12.5545L6.33861 12.5526L6.33814 12.5522ZM24.5292 3.59037C24.7613 3.50888 25.0062 3.67232 25.0182 3.91772C25.0817 5.23862 25.2001 8.99139 24.6278 10.9882C24.375 10.6654 24.1061 10.3556 23.8234 10.0605C22.3874 8.56275 20.5762 7.49093 18.5978 6.98448C18.5978 6.98448 22.0187 4.47527 24.5292 3.59037ZM6.98087 3.91772C6.99238 3.67232 7.23778 3.50888 7.46936 3.59037C9.98042 4.47527 13.4012 6.98448 13.4012 6.98448C11.4229 7.49093 9.61117 8.56275 8.17517 10.0605C7.89248 10.3556 7.6236 10.6654 7.37084 10.9882C6.79855 8.99139 6.91734 5.23862 6.98087 3.91772Z" fill="#110F23"/>
<path d="M15.9997 26.5112C13.5702 26.5112 10.3335 24.1747 9.58397 23.6079C9.42237 24.2723 9.10837 24.8712 8.67145 25.3459C8.67973 25.3519 8.68756 25.3588 8.69585 25.3648C9.7953 26.2032 11.0066 26.8607 12.2331 27.491C13.4021 28.0913 14.6024 28.8224 15.9565 28.845C15.9707 28.845 15.9855 28.845 15.9997 28.8455C16.0145 28.845 16.0287 28.845 16.043 28.845C17.3971 28.8224 18.5978 28.0913 19.7663 27.491C20.9928 26.8607 22.2042 26.2032 23.3036 25.3648C23.3119 25.3584 23.3197 25.3519 23.328 25.3459C22.8915 24.8722 22.5771 24.2732 22.4155 23.6079C21.6659 24.1747 18.4293 26.5112 15.9997 26.5112Z" fill="#110F23"/>
<path d="M22.258 19.5227L20.8635 20.1001C19.8276 20.5287 18.6351 20.1111 18.0932 19.1295L17.8566 18.7004L17.9961 18.6079L17.1982 17.1484L17.6517 16.9311C17.6517 16.9311 17.2304 15.4808 15.9997 15.4808C14.7691 15.4808 14.3483 16.9311 14.3483 16.9311L14.8013 17.1484L14.0039 18.6079L14.1434 18.7004L13.9063 19.1295C13.3648 20.1111 12.1719 20.5287 11.136 20.1001L9.74145 19.5232C9.65719 19.8533 9.6199 20.2087 9.62404 20.6576C13.0071 21.8556 15.9569 21.6682 15.9869 21.6664L15.9997 21.6654L16.0126 21.6664C16.0426 21.6682 18.9924 21.8556 22.3754 20.6576C22.3801 20.2101 22.3428 19.8547 22.2585 19.5227H22.258ZM15.9997 19.3165C15.9997 19.3165 14.817 19.4099 14.3418 18.3404L15.276 16.6489C15.5904 16.0789 16.409 16.0789 16.724 16.6489L17.6577 18.3404C17.183 19.4099 15.9997 19.3165 15.9997 19.3165Z" fill="#110F23"/>
<path d="M21.3046 23.6213C21.3184 23.6282 21.3318 23.6263 21.3437 23.6162C21.8861 23.1737 22.2222 22.7566 22.2926 22.4394C22.2926 22.3993 22.294 22.3593 22.2949 22.3192C22.2958 22.2847 22.2958 22.2502 22.2968 22.2152C22.2981 22.1696 22.3005 22.124 22.3023 22.0784C22.3037 22.0467 22.3046 22.0154 22.3064 21.9836C22.3092 21.9293 22.3124 21.8754 22.3156 21.8211C22.317 21.7985 22.3179 21.7755 22.3193 21.7529C22.3225 21.6995 22.3262 21.647 22.3295 21.5941C22.3308 21.5711 22.3322 21.5476 22.3341 21.525C22.3341 21.5227 22.3341 21.5204 22.3341 21.5181C22.3382 21.4518 22.3428 21.3846 22.347 21.3174C22.3483 21.2971 22.3493 21.2769 22.3506 21.2566C22.3539 21.2032 22.3571 21.1493 22.3598 21.0959C22.3608 21.0812 22.3612 21.0665 22.3621 21.0522C19.0748 22.1852 16.2148 22.0467 15.9989 22.0342C15.7829 22.0467 12.9234 22.1852 9.6356 21.0522C9.63652 21.0674 9.63698 21.0826 9.6379 21.0978C9.64067 21.1493 9.64343 21.2004 9.64665 21.252C9.64803 21.275 9.64941 21.2985 9.6508 21.3215C9.65494 21.3897 9.65954 21.4583 9.66415 21.5255C9.66921 21.6005 9.67428 21.6765 9.67888 21.7525C9.68072 21.7796 9.6821 21.8073 9.68348 21.8344C9.68625 21.8837 9.68947 21.9334 9.69177 21.9831C9.69361 22.0163 9.69453 22.049 9.69591 22.0821C9.69776 22.1263 9.70006 22.171 9.70144 22.2152C9.70236 22.2502 9.70282 22.2847 9.70328 22.3197C9.7042 22.3597 9.70558 22.3998 9.70558 22.4394C9.77649 22.7571 10.1126 23.1742 10.6549 23.6162C10.6669 23.6263 10.6803 23.6277 10.6941 23.6213C10.7079 23.6148 10.7148 23.6038 10.7148 23.5881V23.0338C10.7148 22.8201 10.799 22.6309 10.9583 22.4868C11.2641 22.2096 11.8515 22.0982 12.6121 22.1737C13.5491 22.2663 15.8667 22.3413 15.9993 22.3455C16.1319 22.3413 18.4492 22.2663 19.3865 22.1737C19.5417 22.1585 19.6899 22.1507 19.8299 22.1507C20.3755 22.1507 20.7972 22.2663 21.0408 22.4868C21.2001 22.6309 21.2843 22.8201 21.2843 23.0338V23.5881C21.2843 23.5936 21.2843 23.6111 21.3051 23.6213H21.3046Z" fill="#110F23"/>
<path d="M16.5279 18.7782C16.5578 18.8929 16.6517 18.984 16.7696 18.9965C17.0403 19.0255 17.276 18.6691 17.3308 18.3791C17.3985 18.0186 17.154 17.9371 16.7392 18.1479C16.4496 18.2953 16.4818 18.6051 16.5279 18.7782Z" fill="#110F23"/>
<path d="M15.2604 18.1479C14.8456 17.9371 14.6011 18.0186 14.6692 18.3791C14.724 18.6691 14.9593 19.0255 15.23 18.9965C15.3479 18.984 15.4418 18.8929 15.4722 18.7782C15.5178 18.6051 15.55 18.2953 15.2604 18.1479Z" fill="#110F23"/>
<path d="M25.0734 13.6958V12.781C25.0734 12.7455 25.0854 12.7211 25.1107 12.7064C25.1107 12.7064 25.0384 12.6953 24.9081 12.676C24.7235 12.6488 24.4215 12.606 24.0361 12.5558C23.7184 12.5144 23.345 12.4679 22.9362 12.4219C22.7829 12.4044 22.6245 12.3873 22.4624 12.3703C22.3542 12.3588 22.2442 12.3477 22.1333 12.3367C22.0775 12.3312 22.0214 12.3256 21.9652 12.3206C21.7962 12.3045 21.6245 12.2888 21.4509 12.2741C21.2774 12.2593 21.1019 12.2455 20.9261 12.2326C20.8676 12.2285 20.8087 12.2244 20.7497 12.2202C20.5734 12.2082 20.3966 12.1972 20.2212 12.1875C20.1627 12.1843 20.1042 12.1815 20.0458 12.1783C19.9288 12.1728 19.8128 12.1677 19.6972 12.1631C19.5817 12.159 19.467 12.1553 19.3533 12.1525C19.183 12.1484 19.0149 12.1465 18.851 12.1465C18.88 12.1765 18.8975 12.217 18.8975 12.2616V12.8786C18.8975 12.9702 18.8229 13.0434 18.7336 13.0434C18.7286 13.0434 18.7235 13.0434 18.7184 13.043C18.3372 13.0098 17.3671 12.9389 15.9997 12.9389C14.6323 12.9389 13.6622 13.0098 13.281 13.043C13.276 13.0434 13.2709 13.0434 13.2658 13.0434C13.1765 13.0434 13.1019 12.9702 13.1019 12.8786V12.2616C13.1019 12.217 13.1194 12.1765 13.1484 12.1465C12.7654 12.1465 12.3625 12.1581 11.9537 12.1783C11.6618 12.1926 11.3667 12.211 11.0734 12.2326C11.0149 12.2368 10.956 12.2414 10.8975 12.246C10.7806 12.2552 10.6641 12.2644 10.5485 12.2745C10.433 12.2842 10.3179 12.2948 10.2041 12.3049C9.35054 12.3837 8.55864 12.4785 7.96288 12.5563C7.57798 12.6065 7.27549 12.6493 7.09087 12.6765C7.1033 12.7087 7.10975 12.7437 7.10975 12.7814V13.647C8.4394 13.3183 11.1788 13.1907 13.2681 13.1419C14.8119 13.106 15.9997 13.1129 15.9997 13.1129C15.9997 13.1129 17.1876 13.106 18.7313 13.1419C20.8206 13.1912 23.5601 13.3183 24.8897 13.647C24.9542 13.6631 25.0163 13.6792 25.0739 13.6963L25.0734 13.6958Z" fill="#110F23"/>
<path d="M28.2991 21.107C27.9151 20.6723 27.4054 20.3832 26.9123 20.135C26.7871 20.072 26.6587 20.0098 26.5343 19.9495C26.3534 19.8616 26.166 19.7709 25.9855 19.6765C25.8378 19.5991 25.6789 19.5269 25.5109 19.4504C25.4303 19.4141 25.3493 19.3768 25.2687 19.339C25.1034 19.2612 24.9119 19.1673 24.7273 19.0545H24.7263L24.6808 19.0259C24.5799 18.9619 24.4906 18.8979 24.4096 18.8312L22.6458 19.5614C22.7079 19.8496 22.7397 20.1641 22.7429 20.5246C22.7438 20.6097 22.7434 20.6963 22.7411 20.787C22.7411 20.7888 22.7411 20.7907 22.7411 20.7925C22.7383 20.903 22.7332 21.014 22.7277 21.1249C22.7203 21.2676 22.7111 21.4099 22.7019 21.5494C22.6982 21.6019 22.695 21.6553 22.6918 21.7087C22.6757 21.9578 22.6619 22.2115 22.6614 22.4592C22.6605 22.8395 22.69 23.1525 22.7549 23.4449C22.8976 24.0849 23.1927 24.6595 23.6085 25.107C23.724 25.2313 23.8479 25.3445 23.9777 25.444C24.7029 26.0029 25.695 26.1857 26.7705 25.9587C27.8037 25.7405 28.6683 24.8473 28.922 23.7359C29.1375 22.7916 28.899 21.7842 28.2991 21.1065V21.107Z" fill="#110F23"/>
<path d="M9.33813 22.4592C9.33767 22.2336 9.32616 22.0029 9.31189 21.7755C9.30728 21.6995 9.30222 21.624 9.29715 21.5494C9.28104 21.3017 9.264 21.0457 9.25802 20.7925C9.25572 20.6995 9.25526 20.6111 9.25618 20.5246C9.2594 20.1604 9.29071 19.851 9.35378 19.5618L7.58997 18.8312C7.5094 18.8975 7.41962 18.9615 7.31833 19.0259L7.27229 19.0545C7.08951 19.1668 6.89706 19.2607 6.73131 19.339C6.65028 19.3768 6.56925 19.4141 6.48914 19.4504C6.32063 19.5273 6.16179 19.5996 6.014 19.6769C5.83398 19.7713 5.64705 19.862 5.46611 19.9495C5.34134 20.0098 5.21289 20.0724 5.08766 20.1355C4.59457 20.3832 4.08536 20.6728 3.70092 21.1074C3.10101 21.7856 2.86252 22.793 3.07799 23.7368C3.33213 24.8478 4.19677 25.7414 5.22993 25.9596C6.30497 26.1866 7.29715 26.0038 8.02229 25.4454C8.15212 25.3455 8.27643 25.2322 8.39153 25.1084C8.80774 24.6599 9.10332 24.0853 9.24513 23.4458C9.31004 23.1535 9.33997 22.8404 9.33905 22.4601L9.33813 22.4592Z" fill="#110F23"/>
<path d="M6.74104 12.8708C6.66415 12.8758 6.54582 12.8933 6.45236 12.9071C6.43533 12.9099 6.41461 12.9131 6.39343 12.9163L6.36719 12.9205C6.32391 12.9269 6.288 12.9343 6.25853 12.9426C6.16829 12.967 6.12501 12.9965 6.10936 13.0126V14.1714C6.14481 14.1682 6.2019 14.1521 6.25393 14.1304C6.32667 14.0568 6.47676 14.0061 6.74104 13.9605V12.8708Z" fill="#110F23"/>
<path d="M3.40169 20.6369C3.42839 20.607 4.01034 19.967 4.92011 19.5425C4.93346 19.6235 4.94865 19.7041 4.96476 19.7847C5.07802 19.7281 5.19313 19.6724 5.30454 19.618C5.48318 19.5315 5.66734 19.4421 5.84276 19.3505C5.95141 19.2939 6.06652 19.2391 6.18208 19.1857C6.23364 19.1618 6.28475 19.1383 6.33585 19.1153C6.41504 19.0793 6.49469 19.043 6.57388 19.0057C6.6411 18.9739 6.71293 18.9394 6.78613 18.9026C6.89755 18.8464 7.01219 18.7838 7.11993 18.7152L7.15814 18.6908C7.23503 18.6406 7.30317 18.5904 7.36486 18.5393L6.81468 18.3119C6.70648 18.2672 6.6144 18.1972 6.5435 18.1111C6.48963 18.0467 6.44773 17.973 6.42011 17.8933C6.39525 17.8211 6.38189 17.7442 6.38189 17.6645V14.4762C6.30731 14.5071 6.20372 14.5397 6.09874 14.5397C6.03107 14.5397 5.96246 14.5259 5.90169 14.4896C5.84184 14.4532 5.74101 14.3639 5.74101 14.17V13.7327C5.25022 14.8712 4.93346 16.0821 4.82941 17.3142C4.82618 17.3505 4.82342 17.3869 4.82066 17.4233C4.59644 17.5563 4.39064 17.7221 4.23824 17.927C4.23824 17.927 4.45648 17.7575 4.81145 17.5692C4.79672 17.8312 4.79349 18.0932 4.80178 18.3547C4.3202 18.5752 3.83953 18.8952 3.5329 19.3533C3.55592 19.3298 4.0306 18.857 4.80731 18.5015C4.82158 18.8008 4.85104 19.0987 4.8957 19.3933C4.31283 19.6549 3.75344 20.048 3.40169 20.6374V20.6369Z" fill="#110F23"/>
</svg>
