<svg width="32" height="32" viewBox="0 0 32 32" fill="none" xmlns="http://www.w3.org/2000/svg">
<g clip-path="url(#clip0_4_1928)">
<path d="M24.7772 21.145L17.5272 24.925V21.29C18.8336 20.9228 19.9628 20.0952 20.7064 18.9601C21.4499 17.825 21.7574 16.4591 21.5721 15.1149C21.3868 13.7706 20.7211 12.5389 19.6982 11.6473C18.6753 10.7557 17.3642 10.2646 16.0072 10.2646C14.6503 10.2646 13.3392 10.7557 12.3163 11.6473C11.2933 12.5389 10.6277 13.7706 10.4424 15.1149C10.257 16.4591 10.5646 17.825 11.3081 18.9601C12.0516 20.0952 13.1809 20.9228 14.4872 21.29V24.925L7.23724 21.145C7.19159 21.1215 7.15352 21.0855 7.12743 21.0413C7.10133 20.997 7.08827 20.9463 7.08974 20.895V18.7975H4.03224V21.235C4.03096 21.7407 4.16913 22.2369 4.43156 22.6691C4.69399 23.1014 5.07051 23.4529 5.51974 23.685L14.7222 28.4825C15.117 28.687 15.5551 28.7937 15.9997 28.7937C16.4443 28.7937 16.8825 28.687 17.2772 28.4825L26.4797 23.685C26.9313 23.4546 27.3104 23.1038 27.5751 22.6714C27.8398 22.2391 27.9798 21.742 27.9797 21.235V18.7975H24.9247V20.9C24.9253 20.9505 24.9118 21.0001 24.8857 21.0434C24.8597 21.0867 24.8221 21.1218 24.7772 21.145ZM13.4222 15.895C13.4203 15.3848 13.5697 14.8855 13.8518 14.4603C14.1338 14.0351 14.5356 13.7032 15.0064 13.5066C15.4772 13.31 15.9958 13.2575 16.4964 13.3558C16.9971 13.4541 17.4573 13.6988 17.8187 14.0589C18.1802 14.419 18.4267 14.8782 18.527 15.3785C18.6272 15.8787 18.5768 16.3975 18.382 16.869C18.1872 17.3406 17.8568 17.7438 17.4328 18.0274C17.0087 18.3111 16.5099 18.4625 15.9997 18.4625C15.3163 18.4618 14.6611 18.1901 14.1779 17.7068C13.6947 17.2236 13.4229 16.5684 13.4222 15.885V15.895Z" fill="#110F23"/>
<path d="M14.7222 3.5175L5.51974 8.315C5.07051 8.54714 4.69399 8.89865 4.43156 9.33088C4.16913 9.76311 4.03096 10.2593 4.03224 10.765V13.2025H7.07474V11.1C7.07326 11.0487 7.08633 10.998 7.11243 10.9537C7.13852 10.9095 7.17659 10.8735 7.22224 10.85L15.8722 6.35C15.9108 6.32984 15.9537 6.31932 15.9972 6.31932C16.0408 6.31932 16.0837 6.32984 16.1222 6.35L24.7722 10.85C24.8179 10.8735 24.8559 10.9095 24.882 10.9537C24.9081 10.998 24.9212 11.0487 24.9197 11.1V13.2025H27.9622V10.765C27.9623 10.258 27.8223 9.76092 27.5576 9.32856C27.2929 8.8962 26.9138 8.54543 26.4622 8.315L17.2772 3.5175C16.8825 3.313 16.4443 3.20627 15.9997 3.20627C15.5551 3.20627 15.117 3.313 14.7222 3.5175V3.5175Z" fill="#110F23"/>
</g>
<defs>
<clipPath id="clip0_4_1928">
<rect width="32" height="32" fill="white"/>
</clipPath>
</defs>
</svg>
