<svg width="32" height="32" viewBox="0 0 32 32" fill="none" xmlns="http://www.w3.org/2000/svg">
<path d="M28.6921 11.4503L28.4217 11.2148L28.3367 11.141C28.3158 11.1253 28.2972 11.1129 28.282 11.1039C28.139 11.0177 28.0043 11.0076 27.9536 11.0031C27.9086 10.9997 27.7892 10.9901 27.6484 11.0391C27.5053 11.0892 27.4169 11.172 27.3842 11.203C27.3369 11.2475 27.3025 11.2909 27.2761 11.3297C27.2547 11.2965 27.2271 11.2588 27.1905 11.2216C27.1516 11.1816 27.0423 11.0836 26.8694 11.0363C26.7123 10.9935 26.5743 11.0126 26.4864 11.0363C26.2628 11.096 26.1389 11.2402 26.0916 11.2948C25.9468 11.4638 25.9006 11.6474 25.8871 11.7696V11.7781C25.8646 11.9932 25.9389 12.2123 26.0893 12.3796L27.3696 13.8024C27.4636 13.9066 27.6258 13.9094 27.7233 13.8086L28.7478 12.7491C29.1049 12.3802 29.0796 11.7871 28.6921 11.4503ZM28.3333 12.2304L27.1995 13.4025L26.1941 12.2856C26.073 12.1509 26.0082 11.9724 26.0262 11.7922C26.0268 11.7905 26.0268 11.7888 26.0268 11.7871C26.0685 11.4041 26.4368 11.0644 26.8322 11.172C26.9989 11.2176 27.124 11.3292 27.1995 11.4818C27.2349 11.5545 27.2524 11.6204 27.2614 11.6677C27.2783 11.6176 27.3059 11.5483 27.3521 11.4722C27.467 11.2824 27.6557 11.1416 27.8844 11.1399C28.1085 11.1382 28.3271 11.2644 28.4285 11.466C28.5496 11.7077 28.5253 12.0315 28.3333 12.2304Z" fill="#110F23"/>
<path d="M26.6734 14.9863C26.5624 14.8275 26.4582 14.7013 26.3754 14.6073C26.1496 14.3504 25.9947 14.1781 25.7209 14.0468C25.481 13.9314 25.2597 13.9009 25.1064 13.8795C24.978 13.8615 24.7398 13.8305 24.4356 13.8795C24.2965 13.9021 24.1129 13.933 23.9022 14.0468C23.7952 14.1043 23.7085 14.1685 23.642 14.2265C23.5992 14.2631 23.5344 14.2535 23.5051 14.2057L23.3942 14.0237C23.3885 14.0147 23.3784 14.0091 23.3671 14.0091H21.0376C20.8872 14.0091 20.7644 14.1285 20.7604 14.2789L20.583 20.6357C20.5813 20.6875 20.5965 20.7387 20.6264 20.7815L21.1936 21.5937C21.233 21.6506 21.2978 21.6844 21.3665 21.6844H23.5767C23.7321 21.6844 23.8594 21.5611 23.8639 21.4056L23.9805 17.7671C23.9805 17.7637 23.9816 17.7597 23.9828 17.7564L24.0712 17.5457L24.0087 20.6988C24.0087 20.7055 24.0104 20.7117 24.0143 20.7173L24.6192 21.5988C24.6553 21.6523 24.7161 21.6833 24.7809 21.6822L27.0311 21.6433C27.1617 21.6411 27.2665 21.5363 27.2693 21.4056L27.3515 17.0641C27.3611 16.5431 27.2457 16.0278 27.0142 15.5608C26.9026 15.3367 26.7844 15.1452 26.6734 14.9863ZM26.5219 20.6131H24.1816L24.2706 16.9008V16.8873C24.2706 16.5972 24.0352 16.3601 23.7428 16.3601C23.4505 16.3601 23.223 16.5876 23.2151 16.8732L23.1081 20.6317C22.328 20.6452 21.5479 20.6593 20.7678 20.6728L20.9525 14.2383L23.2776 14.209L23.2421 14.9745C23.3103 14.8421 23.433 14.6456 23.6431 14.4625C23.7873 14.3375 23.9315 14.2535 24.0492 14.1995C24.1484 14.1533 24.2283 14.1274 24.2734 14.1139C24.5134 14.0429 24.7071 14.0451 24.826 14.0474C25.0084 14.0508 25.321 14.0603 25.6562 14.2389C26.0206 14.4321 26.2065 14.716 26.2915 14.8483C26.554 15.2589 26.5906 15.6662 26.5945 15.865L26.6188 17.179L26.5219 20.6131Z" fill="#110F23"/>
<path d="M19.2954 15.5845C19.0166 15.1559 18.6809 14.7588 18.267 14.4591C17.3004 13.7596 15.9588 13.7889 14.9517 14.3955C14.3648 14.7492 14.0466 15.188 13.9564 15.3175C13.6912 15.7011 13.5813 16.0458 13.5019 16.3026C13.338 16.8321 13.3211 17.2613 13.3127 17.5271C13.3042 17.7969 13.2952 18.1399 13.3859 18.5736C13.4968 19.1031 13.6928 19.4692 13.8759 19.8105C14.0291 20.0955 14.2127 20.4329 14.5495 20.8058C14.7602 21.0395 15.0165 21.3234 15.4496 21.5521C15.8957 21.7875 16.2928 21.8388 16.5834 21.8737C17.1236 21.9385 17.5483 21.8737 17.7178 21.8427C18.0186 21.7875 18.6449 21.6349 19.2763 21.164C19.4875 21.0063 19.6548 20.8463 19.7827 20.7083C19.8536 20.6312 19.8649 20.5168 19.8091 20.4284L19.0437 19.2214C19.033 19.205 19.0448 19.1836 19.064 19.1836L19.7849 19.1763C19.8976 19.1752 19.9916 19.0901 20.004 18.9786C20.0141 18.8919 20.0243 18.7933 20.0327 18.6851C20.0772 18.1371 20.0891 17.5936 19.9556 17.0562C19.8249 16.5319 19.59 16.0362 19.2954 15.5845ZM19.269 18.1157L15.8016 18.1732C15.8045 18.23 15.8163 18.3173 15.8585 18.4131C15.9267 18.568 16.0337 18.6547 16.0759 18.688C16.2596 18.8327 16.4668 18.8474 16.6826 18.8598C17.0802 18.8823 17.3866 18.7888 17.4835 18.7567C17.8361 18.6401 18.0873 18.4553 18.2388 18.3219L19.1203 19.7294C18.9693 19.8826 18.7536 20.0775 18.4675 20.2673C18.2872 20.3867 17.9504 20.6058 17.461 20.7478C17.2768 20.8013 16.7428 20.9387 16.0534 20.8508C15.7532 20.8125 15.3026 20.7545 14.8171 20.4504C14.7191 20.3884 14.215 20.0628 13.8675 19.4089C13.6129 18.929 13.5689 18.51 13.5273 18.1157C13.449 17.3711 13.574 16.8056 13.6044 16.6738C13.6878 16.3161 13.8134 15.7743 14.2567 15.2319C14.7056 14.6822 15.235 14.4326 15.4811 14.3335C16.1283 14.0739 16.6978 14.1026 16.9687 14.1336C17.2165 14.1645 17.7246 14.2631 18.2275 14.6371C18.7564 15.0303 18.9851 15.509 19.0741 15.7011C19.3061 16.2024 19.3298 16.6355 19.349 16.9943C19.3743 17.4623 19.3214 17.8504 19.269 18.1157Z" fill="#110F23"/>
<path d="M16.5203 15.9309C16.1514 15.9309 15.8523 16.2638 15.8518 16.6744L17.1883 16.6575C17.1799 16.2547 16.8836 15.9309 16.5203 15.9309Z" fill="#110F23"/>
<path d="M12.6266 14.191C12.5934 14.1426 12.5388 14.1139 12.4802 14.1139H10.1889C10.0723 14.1139 9.97093 14.195 9.94614 14.3093L9.65044 15.6566L9.54286 15.0866L8.90696 14.1533H6.92715C6.80549 14.1533 6.70016 14.2383 6.67538 14.3577L6.39657 15.6729L6.28055 15.1198L5.61986 14.1865L4.90116 14.1967H3.27338C3.14778 14.1967 3.04583 14.28 3.01203 14.3898C2.99795 14.4349 2.9957 14.485 3.00809 14.5352L4.51702 20.719C4.52942 20.7703 4.54744 20.8204 4.57053 20.8683C4.58461 20.897 4.59982 20.9246 4.61728 20.9516L5.1242 21.7402C5.16532 21.8038 5.23629 21.8427 5.31176 21.8427H7.50729C7.60417 21.8427 7.68866 21.7768 7.71288 21.6827L8.05589 20.3388C8.05815 20.3298 8.0711 20.3304 8.07223 20.3394L8.16122 20.83C8.16685 20.8621 8.17924 20.8925 8.19839 20.9195L8.75544 21.7272C8.79093 21.7796 8.85007 21.8106 8.91315 21.8106H11.0952C11.2129 21.8106 11.3165 21.7329 11.3492 21.6197L13.2096 15.2105C13.2304 15.1373 13.218 15.0584 13.1752 14.9953L12.6266 14.191ZM10.582 20.7759L8.3409 20.8018L7.7264 17.7175L6.97052 20.8176L4.70571 20.8435L4.70402 20.8367L3.17537 14.4236V14.4084L5.52354 14.3915L6.09073 17.7175L6.87871 14.3814L8.79262 14.3679L9.3491 17.7175L10.1174 14.3583L12.4531 14.3414L10.582 20.7759Z" fill="#110F23"/>
</svg>
