<svg width="32" height="32" viewBox="0 0 32 32" fill="none" xmlns="http://www.w3.org/2000/svg">
<path d="M11.5 16.738C11.17 16.999 11.005 17.371 11.005 17.857C11.005 18.343 11.164 18.715 11.482 18.976C11.8 19.237 12.19 19.366 12.652 19.366C12.985 19.366 13.318 19.315 13.639 19.219C13.963 19.12 14.242 18.958 14.47 18.724C14.803 18.391 15.01 18.046 15.076 17.701C15.145 17.353 15.181 16.978 15.181 16.573V16.33L12.673 16.348C12.223 16.348 11.833 16.477 11.503 16.738H11.5Z" fill="#110F23"/>
<path d="M20.419 13.297C20.254 13.09 20.047 12.919 19.795 12.787C19.54 12.655 19.219 12.589 18.826 12.589C18.493 12.589 18.202 12.646 17.959 12.763C17.716 12.88 17.503 13.033 17.317 13.234C17.074 13.489 16.891 13.789 16.771 14.134C16.651 14.482 16.588 14.857 16.588 15.262H20.992V15.256C20.98 14.854 20.932 14.485 20.845 14.155C20.761 13.825 20.617 13.54 20.419 13.297Z" fill="#110F23"/>
<path d="M16 4C9.373 4 4 9.373 4 16C4 22.627 9.373 28 16 28C22.627 28 28 22.627 28 16C28 9.373 22.627 4 16 4ZM22.492 16.396L16.561 16.414V16.483C16.561 16.855 16.603 17.215 16.681 17.566C16.762 17.92 16.894 18.232 17.08 18.502C17.266 18.772 17.506 18.994 17.809 19.162C18.112 19.33 18.481 19.414 18.922 19.414C19.363 19.414 19.753 19.288 20.134 19.033C20.515 18.778 20.77 18.373 20.896 17.821L22.3 18.073C22.234 18.409 22.129 18.712 21.985 18.982C21.805 19.315 21.55 19.621 21.214 19.903C20.893 20.167 20.56 20.359 20.218 20.476C19.879 20.593 19.447 20.65 18.925 20.65C18.232 20.65 17.608 20.509 17.053 20.224C16.498 19.939 16.09 19.522 15.823 18.967C15.532 19.474 15.13 19.882 14.611 20.179C14.092 20.479 13.444 20.629 12.67 20.629C12.163 20.629 11.707 20.551 11.299 20.395C10.897 20.242 10.549 20.017 10.258 19.726C10.027 19.495 9.844 19.225 9.712 18.919C9.58 18.613 9.511 18.265 9.511 17.869C9.511 17.473 9.586 17.119 9.739 16.795C9.889 16.471 10.096 16.195 10.357 15.973C10.615 15.745 10.918 15.571 11.257 15.445C11.596 15.319 11.953 15.253 12.325 15.253C12.799 15.241 13.267 15.235 13.729 15.229C14.191 15.223 14.662 15.22 15.133 15.22V14.284C15.133 13.696 14.962 13.264 14.62 12.991C14.278 12.721 13.831 12.583 13.279 12.583C12.727 12.583 12.265 12.706 11.899 12.955C11.536 13.204 11.338 13.603 11.299 14.161L9.88 13.906C9.925 13.516 10.03 13.174 10.198 12.88C10.399 12.52 10.66 12.232 10.975 12.004C11.293 11.779 11.656 11.614 12.058 11.509C12.463 11.404 12.874 11.356 13.291 11.356C13.546 11.356 13.804 11.38 14.071 11.434C14.338 11.488 14.596 11.563 14.851 11.668C15.103 11.773 15.34 11.908 15.553 12.076C15.766 12.244 15.946 12.439 16.099 12.655C16.39 12.253 16.75 11.941 17.188 11.719C17.626 11.497 18.175 11.389 18.835 11.389C19.588 11.389 20.191 11.524 20.647 11.797C21.103 12.067 21.487 12.445 21.799 12.931C22.063 13.336 22.243 13.78 22.339 14.257C22.429 14.737 22.477 15.301 22.477 15.949V16.399L22.492 16.396Z" fill="#110F23"/>
</svg>
