<svg width="32" height="32" viewBox="0 0 32 32" fill="none" xmlns="http://www.w3.org/2000/svg">
<path d="M21.9492 7.06758C18.4705 7.68243 16.0044 10.0221 13.5341 12.3641C12.7474 13.1097 11.9607 13.8554 11.1421 14.5461C10.808 14.3935 10.348 14.3297 9.97266 14.2775C9.79774 14.2534 9.64178 14.2313 9.5247 14.2049C7.70555 14.0547 5.63465 14.5206 4.35601 15.8955C2.32306 18.1774 2.3661 21.7028 5.93221 22.203C6.76738 22.3521 7.62466 22.3231 8.44783 22.1179C8.47522 22.228 8.51319 22.3351 8.56121 22.4379C8.58944 22.503 8.61721 22.5682 8.63988 22.6348C8.77671 22.9815 8.89519 23.3352 8.99483 23.6944C9.15032 24.2158 9.30535 24.7373 9.57005 25.2079C9.60783 25.2593 9.65641 25.3017 9.71238 25.3323C9.76834 25.3629 9.83033 25.3809 9.89399 25.385C9.93328 25.4287 9.98107 25.464 10.0345 25.4887C10.0878 25.5135 10.1457 25.5271 10.2045 25.5287C12.9016 24.3526 15.734 23.5141 18.6371 23.0324C20.2642 22.7245 21.8936 22.5733 23.5332 22.4212C24.4657 22.3348 25.4019 22.2479 26.3427 22.1314C26.8217 22.142 26.9989 21.7213 26.8832 21.4153C26.9351 21.3173 26.9514 21.2044 26.9295 21.0958C26.8471 20.7519 26.7444 20.413 26.644 20.0746L26.5926 19.9036C26.5667 19.8145 26.5405 19.725 26.5139 19.635C26.4006 19.249 26.2867 18.862 26.1974 18.4686C26.6139 18.2402 27.0447 17.716 27.3391 17.3591C27.4191 17.262 27.4885 17.1774 27.5455 17.1141C28.0868 16.4151 28.4791 15.6127 28.6982 14.7564C30.0393 10.0105 26.7537 6.46106 21.9492 7.06758ZM26.6481 16.6416C26.3737 16.9971 26.0555 17.3164 25.7009 17.5921C25.5587 17.5558 25.4133 17.5335 25.2668 17.5255C25.2112 17.5209 25.1566 17.5158 25.1053 17.5098C25.5495 16.766 25.7786 15.5936 25.7532 15.0953C25.8059 14.4513 24.8392 14.3556 24.7707 14.9977C24.7549 15.3894 24.6997 15.7784 24.6059 16.159C24.497 16.547 24.3101 16.9088 24.0566 17.2223C23.9719 17.2545 23.8974 17.309 23.841 17.3799C23.8235 17.4018 23.808 17.4251 23.7947 17.4497C23.4152 17.4429 23.0361 17.4448 22.6572 17.4553C22.9469 16.7997 23.107 16.0254 23.0353 15.6986C22.9942 15.2944 22.9117 14.8955 22.7891 14.5082C22.5859 13.8919 21.6609 14.1878 21.8437 14.8068C22.1676 15.6939 22.075 16.7702 21.4577 17.5158C20.721 17.5713 19.9875 17.6587 19.2572 17.778C18.3516 17.9647 17.4599 18.2134 16.5884 18.5222C16.5261 18.5416 16.4683 18.5729 16.4181 18.6146C16.368 18.6562 16.3265 18.7073 16.2961 18.765C16.2657 18.8226 16.247 18.8857 16.241 18.9506C16.2351 19.0155 16.2419 19.0809 16.2613 19.1431C16.2806 19.2053 16.312 19.2631 16.3537 19.3132C16.3954 19.3633 16.4465 19.4048 16.5042 19.4351C16.6208 19.4964 16.757 19.5089 16.8828 19.4699C17.0743 19.4122 17.2655 19.3521 17.4566 19.2924C17.9291 19.1445 18.4006 18.9966 18.8819 18.8787C19.7899 18.6651 20.6701 18.5726 21.5896 18.5172C21.6514 18.526 21.7143 18.5223 21.7747 18.5065C21.9955 18.4945 22.2185 18.4839 22.4453 18.4746C23.3625 18.3993 24.2792 18.4501 25.1913 18.5102C25.2006 18.7446 25.2839 19.0104 25.3598 19.2499C25.4026 19.3774 25.4389 19.507 25.4685 19.6382C25.5472 19.8985 25.6185 20.1611 25.6898 20.4241C25.7564 20.6687 25.823 20.9132 25.8952 21.1555C25.0761 21.2507 24.2542 21.3316 23.4324 21.412C21.3443 21.6168 19.254 21.8216 17.2021 22.2724C15.6949 22.5769 14.2084 22.9756 12.7511 23.466H12.747C11.9168 23.7313 11.0782 23.9995 10.316 24.4234C10.1985 24.1053 10.0948 23.7817 9.9921 23.4577C9.81208 22.8964 9.63253 22.3348 9.38309 21.8045C9.956 21.6067 10.6224 21.3288 10.4086 20.7676C10.351 20.6473 10.2484 20.5543 10.1229 20.5088C9.99738 20.4634 9.859 20.469 9.73758 20.5244C8.14241 21.3792 5.8938 21.7065 4.43052 20.4394C3.44667 19.2101 4.31298 17.3494 5.29868 16.3772C6.6222 15.2492 8.47606 15.0158 10.1578 15.332C9.88875 15.5338 9.61494 15.7274 9.33635 15.9126C8.78427 16.2824 9.32525 17.0952 9.87872 16.7577C11.4239 15.7869 12.7373 14.5239 14.0515 13.26C14.8785 12.4644 15.7064 11.6683 16.5921 10.9448C18.5978 9.24821 21.2027 7.67504 23.9289 8.07862C25.2881 8.35599 26.7495 8.97176 27.3928 10.2814C28.4738 12.2633 28.0152 14.9048 26.6481 16.6416Z" fill="#110F23"/>
<path d="M15.059 20.4717C14.0315 20.6947 13.0251 21.0056 12.051 21.4009L11.9256 21.4504C11.4808 21.6233 10.8279 21.8771 11.1388 22.4337C11.4327 22.8165 11.8274 22.6089 12.2115 22.4064C12.3925 22.3117 12.5707 22.2173 12.7349 22.1873C13.1863 22.009 13.6468 21.8547 14.1145 21.725C14.412 21.6469 14.7119 21.5734 15.0104 21.5003L15.3542 21.4157C15.9702 21.2211 15.6805 20.2831 15.059 20.4717Z" fill="#110F23"/>
</svg>
