<svg width="32" height="32" viewBox="0 0 32 32" fill="none" xmlns="http://www.w3.org/2000/svg">
<path fill-rule="evenodd" clip-rule="evenodd" d="M16 27.5C22.3513 27.5 27.5 22.3513 27.5 16C27.5 9.64873 22.3513 4.5 16 4.5C9.64873 4.5 4.5 9.64873 4.5 16C4.5 22.3513 9.64873 27.5 16 27.5ZM16 29C23.1797 29 29 23.1797 29 16C29 8.8203 23.1797 3 16 3C8.8203 3 3 8.8203 3 16C3 23.1797 8.8203 29 16 29ZM25.1 15.9999C25.1 21.0257 21.0258 25.0999 16 25.0999C10.9742 25.0999 6.9 21.0257 6.9 15.9999C6.9 10.9741 10.9742 6.8999 16 6.8999C21.0258 6.8999 25.1 10.9741 25.1 15.9999ZM18.8594 16.2854C18.8594 16.2854 19.7745 16.8841 19.8517 17.7793C19.984 19.3228 18.6962 20.8928 16.456 20.3305L16.1903 20.261L15.7096 22.0758L14.5597 21.7748L15.0448 19.9578L14.0955 19.7065L13.6148 21.5212L12.4638 21.2114L12.9434 19.3967L11.1 18.9083L11.4219 17.6955L12.5443 17.9943L14.0084 12.4631L12.886 12.1665L13.1892 11.0232L15.0326 11.5116L15.5122 9.7002L16.6588 10.0034L16.1792 11.8148L17.1285 12.0662L17.6081 10.2548L18.7525 10.5579L18.2718 12.3738C19.6664 12.7839 20.2221 13.7045 20.146 14.5865C20.0259 15.969 18.8594 16.2854 18.8594 16.2854ZM17.0392 13.2657C16.3711 13.086 15.9058 12.9658 15.9058 12.9658L15.3204 15.1774C15.3204 15.1774 15.8683 15.3318 16.5045 15.4905C17.1979 15.6625 17.8583 15.2601 18.0072 14.6284C18.156 13.9966 17.6731 13.4366 17.0392 13.2657ZM14.4417 18.497C14.4417 18.497 15.2961 18.7374 15.9576 18.8983C16.8496 19.1155 17.4681 18.7727 17.6489 18.0505C17.8297 17.3284 17.328 16.7893 16.5067 16.5864C15.8198 16.421 15.0481 16.2005 15.0481 16.2005L14.4417 18.497Z" fill="#110F23"/>
<path d="M28 16L23 16" stroke="#110F23" stroke-width="1.5"/>
</svg>
