<svg width="32" height="32" viewBox="0 0 32 32" fill="none" xmlns="http://www.w3.org/2000/svg">
<path d="M16.0005 29C15.1963 29 14.3931 28.7953 13.6754 28.3858L6.32512 24.1853C4.89062 23.3653 4 21.8389 4 20.2V11.8C4 10.1611 4.89062 8.63466 6.32512 7.81474L13.6754 3.61422C15.1089 2.79526 16.8911 2.79526 18.3246 3.61422L25.6749 7.81474C27.1084 8.6337 28 10.1611 28 11.8V20.2C28 21.8389 27.1094 23.3653 25.6749 24.1853L18.3246 28.3858C17.6079 28.7953 16.8037 29 15.9995 29H16.0005ZM16.0005 4.82632C15.5158 4.82632 15.0312 4.95031 14.598 5.19735L7.24778 9.39787C6.38339 9.89194 5.84533 10.8128 5.84533 11.8009V20.201C5.84533 21.1891 6.38242 22.11 7.24778 22.6041L14.598 26.8046C15.4624 27.2986 16.5376 27.2986 17.402 26.8046L24.7522 22.6041C25.6166 22.11 26.1547 21.1891 26.1547 20.201V11.8009C26.1547 10.8128 25.6176 9.89194 24.7522 9.39787L17.402 5.19735C16.9698 4.95031 16.4851 4.82632 15.9995 4.82632H16.0005Z" fill="#110F23"/>
</svg>
