<svg width="32" height="32" viewBox="0 0 32 32" fill="none" xmlns="http://www.w3.org/2000/svg">
<path d="M15.7068 3.00026H16.7254C16.7372 3.0195 16.7568 3.01144 16.7727 3.01209C17.1184 3.02561 17.4622 3.06267 17.8048 3.1083C18.5418 3.20633 19.266 3.36299 19.9754 3.58648C21.099 3.9405 22.1582 4.43039 23.1466 5.07044C24.1907 5.7465 25.1248 6.54958 25.9386 7.48774C26.987 8.69633 27.7968 10.0468 28.3431 11.5505C28.6476 12.3885 28.8613 13.2495 28.9933 14.1306C29.0079 14.2281 29.0062 14.2285 28.9083 14.2285C28.1967 14.2285 27.4852 14.2285 26.7736 14.2285C26.6083 14.2285 26.4428 14.2302 26.2774 14.2274C26.2274 14.2266 26.2069 14.2361 26.2191 14.2911C26.2345 14.3607 26.2424 14.4318 26.2535 14.5021C26.2098 14.4769 26.2179 14.4292 26.2121 14.3919C26.1366 13.9032 26.0124 13.4262 25.8584 12.9572C25.6773 12.4056 25.456 11.8703 25.1786 11.3582C25.0982 11.2096 25.021 11.0589 24.9349 10.9136C24.4932 10.167 23.955 9.49512 23.3439 8.87939C23.1141 8.64797 22.8713 8.43124 22.6199 8.22413C22.2863 7.94929 21.9283 7.70785 21.5697 7.46694C21.3257 7.30313 21.0651 7.16882 20.8064 7.03296C20.5687 6.90802 20.3212 6.79985 20.0712 6.69818C19.6722 6.53593 19.2689 6.38915 18.8528 6.27512C18.2141 6.10026 17.5642 5.98741 16.9058 5.92812C16.4901 5.89068 16.0723 5.88392 15.6546 5.90927C15.3163 5.92981 14.9792 5.95621 14.6422 5.99716C14.1791 6.05345 13.7277 6.15798 13.2805 6.28267C12.7418 6.43283 12.22 6.62902 11.713 6.86616C11.0689 7.16739 10.4586 7.52337 9.89335 7.9541C9.53248 8.22907 9.18062 8.51549 8.8541 8.83037C8.55854 9.11536 8.29223 9.42765 8.03454 9.7467C7.41964 10.508 6.93064 11.3439 6.55828 12.2466C6.37673 12.6867 6.22262 13.1373 6.10651 13.5997C6.02749 13.9145 5.95761 14.2308 5.90903 14.5522C5.87402 14.7835 5.84333 15.015 5.82243 15.2478C5.78469 15.6691 5.79174 16.0917 5.79474 16.5141C5.79618 16.722 5.8112 16.9295 5.83628 17.1354C5.87233 17.4314 5.89296 17.7297 5.9631 18.0213C6.01612 18.2418 6.05217 18.4665 6.11055 18.6854C6.16894 18.9043 6.24586 19.1183 6.31443 19.3347C6.63063 20.3325 7.10774 21.2501 7.71677 22.1001C8.27081 22.8735 8.92071 23.558 9.66792 24.15C10.1949 24.5676 10.7571 24.9304 11.3564 25.2366C11.4817 25.3005 11.6089 25.3605 11.7317 25.4303C11.8387 25.4911 11.9602 25.527 12.0753 25.5741C12.4987 25.7468 12.9283 25.9003 13.3703 26.0217C13.6444 26.097 13.9213 26.159 14.199 26.2157C14.3275 26.2418 14.4597 26.2599 14.5903 26.2802C14.969 26.3387 15.3497 26.3761 15.7326 26.3844C16.2703 26.3963 16.8067 26.3801 17.3415 26.3116C17.9187 26.2378 18.4879 26.1256 19.0432 25.9554C20.1216 25.6249 21.1293 25.1491 22.046 24.4874C22.7685 23.9659 23.4254 23.3745 23.9935 22.6899C24.9016 21.5953 25.5561 20.3646 25.959 19.0021C25.9662 18.978 25.9671 18.9496 25.9956 18.9368C26.0237 18.9387 26.0516 18.9419 26.0797 18.942C26.9631 18.9423 27.8466 18.9427 28.7301 18.9411C28.7795 18.9411 28.7982 18.9506 28.779 19C28.775 19.01 28.774 19.021 28.7715 19.0315C28.6358 19.6197 28.4505 20.1925 28.2298 20.7541C27.5655 22.4447 26.5743 23.9224 25.292 25.2082C24.7082 25.7935 24.0694 26.3141 23.3819 26.7756C22.2413 27.5411 21.018 28.13 19.6895 28.4949C19.2012 28.6291 18.7041 28.7202 18.2034 28.7932C17.7195 28.8636 17.2336 28.9174 16.747 28.9645C16.6441 28.9745 16.5393 28.9723 16.4382 29H15.3804C15.3729 28.985 15.3584 28.9886 15.3461 28.9882C15.0872 28.9793 14.8299 28.9509 14.5728 28.9225C13.9976 28.8593 13.4286 28.7596 12.8681 28.6172C11.4369 28.2539 10.1006 27.6754 8.86925 26.8597C7.66139 26.0597 6.60739 25.0948 5.72082 23.9511C5.00104 23.0226 4.40808 22.0195 3.96389 20.9323C3.42983 19.6254 3.11311 18.2678 3.02168 16.8589C3.01685 16.785 3.02769 16.7088 3 16.6371V15.3501C3.0158 15.3432 3.01175 15.3286 3.01215 15.3165C3.0209 15.0566 3.04859 14.7984 3.07719 14.5401C3.14719 13.9071 3.26095 13.282 3.4267 12.6669C4.05453 10.3359 5.24489 8.33399 6.97962 6.65021C7.52164 6.12405 8.10781 5.65302 8.73394 5.23035C9.7391 4.55195 10.8139 4.01409 11.9699 3.64044C12.6334 3.42592 13.3086 3.26028 13.9985 3.15367C14.4499 3.08386 14.9025 3.02964 15.3593 3.01209C15.4754 3.01703 15.591 3.00546 15.7068 3V3.00026Z" fill="#110F23"/>
<path d="M15.5463 23.5291C15.279 23.5446 14.9792 23.5259 14.6806 23.4953C14.4137 23.468 14.1463 23.439 13.8868 23.3623C13.5655 23.2673 13.249 23.1596 12.9429 23.0236C12.8502 22.9825 12.7527 22.9429 12.6702 22.8901C12.5118 22.789 12.3465 22.6986 12.1918 22.5915C11.8488 22.3539 11.5415 22.0774 11.2585 21.7732C11.0083 21.5043 10.7884 21.2117 10.5883 20.9043C10.5408 20.8314 10.4954 20.756 10.4501 20.6816C10.3168 20.4632 10.2001 20.2371 10.0941 20.005C10.0771 19.968 10.0708 19.9258 10.0523 19.8898C9.93214 19.6553 9.86566 19.4015 9.79591 19.1507C9.73831 18.9432 9.68881 18.7325 9.65668 18.5178C9.63579 18.3784 9.63056 18.2384 9.61267 18.0992C9.60287 18.0229 9.61567 17.9437 9.61606 17.8658C9.61711 17.6363 9.60901 17.4065 9.63095 17.1775C9.64493 17.0314 9.66543 16.8859 9.6845 16.7403C9.71728 16.4898 9.76626 16.242 9.81916 15.9952C9.84489 15.8749 9.86618 15.7521 9.90301 15.6357C9.95839 15.4602 9.99496 15.2808 10.0331 15.1024C10.1048 14.7662 10.192 14.4334 10.249 14.0936C10.2824 13.8942 10.2981 13.6944 10.3101 13.4935C10.3156 13.4035 10.292 13.3309 10.222 13.2677C10.1476 13.2007 10.0933 13.1149 10.0396 13.0311C9.84267 12.7244 9.67928 12.4025 9.56996 12.0529C9.45659 11.6906 9.39142 11.324 9.41049 10.9436C9.4229 10.6974 9.47318 10.4583 9.55768 10.2283C9.68685 9.87698 9.86344 9.55208 10.1271 9.27944C10.3324 9.06726 10.5594 8.88603 10.8264 8.75407C10.9799 8.67814 11.1342 8.60533 11.2983 8.55697C11.6124 8.46427 11.9324 8.44191 12.2597 8.46778C12.5237 8.48871 12.7678 8.56477 12.9972 8.68711C13.1725 8.78059 13.3211 8.91281 13.4775 9.03515C13.6407 9.16295 13.7459 9.32092 13.8474 9.48798C14.1056 9.91299 14.2617 10.3725 14.3268 10.8665C14.3818 11.2833 14.3787 11.6947 14.2867 12.1052C14.2628 12.2122 14.2943 12.2393 14.3997 12.2039C14.6497 12.1202 14.9092 12.0782 15.1678 12.0348C15.4763 11.9828 15.7864 11.9395 16.0962 11.8954C16.1886 11.8823 16.2836 11.8859 16.3754 11.8698C16.6407 11.8234 16.9088 11.7997 17.1759 11.7688C17.3076 11.7534 17.4403 11.7467 17.5726 11.7377C17.6033 11.7356 17.6228 11.7338 17.629 11.6942C17.664 11.4698 17.7521 11.2629 17.8462 11.058C17.9215 10.8934 18.0113 10.7352 18.11 10.5855C18.3968 10.1513 18.7471 9.77466 19.2105 9.52166C19.431 9.40126 19.6624 9.31078 19.9221 9.28555C20.1496 9.26345 20.3727 9.26033 20.5973 9.29075C20.6844 9.30259 20.7624 9.34536 20.8436 9.3763C21.2232 9.52114 21.4886 9.78337 21.6433 10.1557C21.7939 10.5179 21.8137 10.8938 21.7251 11.2711C21.6811 11.4584 21.6052 11.638 21.4961 11.8027C21.4453 11.8794 21.4086 11.9685 21.362 12.0486C21.2963 12.1613 21.2477 12.28 21.1968 12.3986C21.131 12.552 21.1082 12.7149 21.0923 12.8788C21.0864 12.9389 21.1085 12.9927 21.1422 13.0433C21.2168 13.1554 21.3035 13.2607 21.3389 13.395C21.3513 13.4423 21.3968 13.455 21.4352 13.4757C21.8099 13.6783 22.0711 14.0289 22.0687 14.4267C22.0685 14.4613 22.0683 14.496 22.0686 14.5306C22.069 14.5769 22.0877 14.6129 22.1255 14.6414C22.3956 14.8449 22.5906 15.1006 22.6749 15.4321C22.7407 15.6908 22.7113 15.9411 22.5863 16.1749C22.503 16.3306 22.4019 16.4773 22.2572 16.5868C22.2253 16.6108 22.2116 16.6425 22.2074 16.681C22.1875 16.8665 22.0993 17.0192 21.9736 17.1528C21.9499 17.178 21.9465 17.2059 21.9496 17.2367C21.9674 17.4097 21.9742 17.5824 21.9278 17.7527C21.9193 17.7836 21.9371 17.7881 21.9627 17.7909C22.1581 17.8125 22.3164 17.9057 22.4564 18.039C22.6012 18.1767 22.6122 18.3518 22.5825 18.527C22.5682 18.6118 22.4876 18.6779 22.4235 18.741C22.3674 18.7962 22.2994 18.8376 22.227 18.8675C22.0353 18.9469 21.8493 19.0461 21.6356 19.0575C21.5897 19.06 21.5992 19.0808 21.6142 19.1072C21.6591 19.1862 21.7156 19.2604 21.7366 19.3501C21.7877 19.5682 21.7926 19.7863 21.7246 20.0027C21.72 20.0171 21.716 20.0317 21.7124 20.0464C21.6397 20.3456 21.4786 20.5896 21.2425 20.7856C21.0758 20.9239 20.8874 21.0291 20.6893 21.1122C20.6145 21.1435 20.5863 21.1886 20.5564 21.2529C20.3998 21.5886 20.1935 21.8917 19.9426 22.165C19.772 22.3509 19.5803 22.5146 19.393 22.683C19.3256 22.7436 19.2562 22.7978 19.1551 22.8055C19.0922 22.8103 19.0482 22.8759 18.9877 22.9028C18.7982 22.9874 18.6145 23.0819 18.415 23.1474C18.1905 23.2212 17.9631 23.2843 17.7349 23.3414C17.5033 23.3992 17.263 23.4151 17.0249 23.4362C16.7368 23.4616 16.4485 23.4849 16.1602 23.5075C15.967 23.5227 15.7736 23.5315 15.5464 23.5292L15.5463 23.5291ZM20.7587 19.1043C20.8973 19.2546 20.9733 19.4124 20.9737 19.5982C20.9741 19.7768 20.9484 19.9466 20.8227 20.0924C20.7233 20.2077 20.6145 20.3116 20.4907 20.3962C20.4065 20.4539 20.3054 20.4887 20.2097 20.5283C20.0511 20.594 19.8897 20.6526 19.7237 20.6976C19.4864 20.7618 19.2434 20.7965 19.0015 20.839C18.7094 20.8904 18.4147 20.9095 18.1205 20.9301C17.7034 20.9592 17.2851 20.9441 16.8673 20.9428C16.6977 20.9423 16.5264 20.9442 16.3591 20.9213C15.9592 20.8667 15.5535 20.8639 15.1564 20.7847C15.0736 20.7682 14.987 20.7712 14.904 20.7553C14.5883 20.6953 14.2782 20.6105 13.9675 20.5297C13.6389 20.4443 13.3215 20.3251 13.0219 20.1639C12.9082 20.1027 12.7971 20.0364 12.6869 19.969C12.6161 19.9257 12.5532 19.8714 12.5034 19.8047C12.4389 19.7181 12.3597 19.6444 12.2973 19.5549C12.2417 19.4751 12.1978 19.3842 12.1838 19.3001C12.1534 19.1179 12.1869 18.9392 12.337 18.8018C12.3706 18.7711 12.4113 18.7698 12.4462 18.7494C12.552 18.6873 12.6665 18.6455 12.7857 18.6196C13.0605 18.5601 13.3397 18.5348 13.6204 18.5313C14.0904 18.5255 14.5607 18.5302 15.03 18.5588C15.4358 18.5835 15.8415 18.6117 16.247 18.6413C16.5807 18.6656 16.9138 18.7 17.2483 18.7183C17.682 18.742 18.1143 18.7933 18.5475 18.8295C18.9938 18.8668 19.4408 18.8976 19.8869 18.9361C20.2969 18.9714 20.7071 18.9961 21.1187 18.9846C21.3602 18.9778 21.6005 18.9592 21.8321 18.8816C22.005 18.8236 22.1807 18.7693 22.3251 18.6537C22.4272 18.5719 22.5037 18.4718 22.4804 18.3267C22.47 18.2617 22.4353 18.2101 22.3967 18.1605C22.2996 18.0364 22.1705 17.9642 22.0157 17.9385C21.9734 17.9315 21.9294 17.9361 21.8861 17.9345C21.7111 17.9277 21.5345 17.9092 21.3657 17.9816C21.2838 18.0167 21.1955 18.0313 21.109 18.0525C20.9268 18.0971 20.7425 18.1289 20.5562 18.1344C19.9448 18.1522 19.3331 18.1394 18.7216 18.1351C17.9296 18.1295 17.1379 18.1124 16.3463 18.0844C16.3224 18.0834 16.2968 18.0884 16.2748 18.0815C16.144 18.0407 16.008 18.0542 15.8745 18.0434C15.671 18.0269 15.4669 18.0193 15.263 18.0088C14.992 17.9948 14.723 17.9568 14.4516 17.9484C14.1798 17.9398 13.9081 17.9287 13.6364 17.9195C13.3774 17.9107 13.1178 17.91 12.8601 17.933C12.6561 17.9512 12.4504 17.9629 12.2499 18.0164C12.0408 18.072 11.816 18.0827 11.653 18.2543C11.5889 18.3218 11.5057 18.3743 11.4531 18.4489C11.3935 18.5335 11.3919 18.6409 11.4026 18.7438C11.4224 18.9337 11.4902 19.1073 11.5769 19.2771C11.7079 19.5336 11.8664 19.7714 12.0582 19.9847C12.3245 20.2812 12.6492 20.5035 12.9996 20.6924C13.2441 20.8242 13.5048 20.9159 13.7623 21.0151C14.0443 21.1236 14.336 21.2005 14.6343 21.254C14.9826 21.3166 15.3305 21.3803 15.6829 21.4153C15.9448 21.4411 16.2077 21.4588 16.4709 21.4613C17.0197 21.4663 17.5681 21.4852 18.1165 21.4218C18.381 21.3912 18.6485 21.3851 18.9127 21.3421C19.1362 21.3055 19.3683 21.3278 19.5848 21.2419C19.6338 21.2226 19.6876 21.2421 19.7399 21.2292C19.8314 21.2067 19.9252 21.1937 20.0177 21.1733C20.3993 21.0894 20.7608 20.9649 21.0807 20.733C21.3147 20.563 21.4793 20.344 21.5843 20.078C21.5984 20.0422 21.5978 19.9972 21.6198 19.9689C21.6576 19.9205 21.6676 19.8679 21.6692 19.8116C21.6713 19.7402 21.6735 19.6684 21.6692 19.5972C21.6595 19.4366 21.6133 19.2872 21.5237 19.1519C21.492 19.1039 21.4525 19.0801 21.3931 19.0858C21.2196 19.1023 21.0453 19.0991 20.8714 19.1048C20.8392 19.1059 20.8069 19.1049 20.7586 19.1049L20.7587 19.1043ZM20.3827 17.0488C20.5721 17.0517 20.7615 17.051 20.9486 17.0186C21.2217 16.9715 21.4899 16.9064 21.7396 16.782C21.8208 16.7415 21.9063 16.7044 21.9776 16.6499C22.1581 16.512 22.3318 16.3695 22.4476 16.1633C22.5106 16.0512 22.5571 15.9394 22.5742 15.8166C22.6233 15.464 22.4778 15.1755 22.2594 14.9138C22.2371 14.887 22.2089 14.8666 22.177 14.8512C22.1643 14.8452 22.1538 14.8364 22.1427 14.8265C21.9995 14.6985 21.8609 14.5622 21.6757 14.4942C21.5887 14.4624 21.5053 14.4197 21.4229 14.3818C21.2748 14.3136 21.118 14.282 20.9661 14.2328C20.8381 14.1913 20.7031 14.1783 20.5692 14.1614C20.0847 14.1003 19.6085 14.1307 19.1415 14.2785C19.01 14.3201 18.8892 14.3844 18.7663 14.4458C18.4643 14.5972 18.2161 14.8078 18.0878 15.1209C17.9488 15.4599 17.9966 15.7878 18.2099 16.0947C18.4338 16.4168 18.7358 16.6365 19.09 16.7893C19.2698 16.8668 19.454 16.9351 19.6499 16.9689C19.8199 16.9982 19.9838 17.0618 20.1611 17.0493C20.2347 17.0441 20.3089 17.0484 20.3828 17.0484L20.3827 17.0488ZM14.4452 14.0502C14.1727 14.029 13.8799 14.0799 13.5936 14.1479C13.3103 14.2151 13.0402 14.3227 12.7945 14.4915C12.6011 14.6244 12.4324 14.7689 12.3378 14.9873C12.2304 15.2353 12.2315 15.4793 12.3437 15.7279C12.4248 15.9076 12.5576 16.0455 12.6951 16.1758C12.8707 16.3418 13.0794 16.4645 13.3052 16.5558C13.3896 16.5899 13.4817 16.6083 13.5616 16.6464C13.6581 16.6925 13.7593 16.7277 13.8591 16.746C14.0933 16.7892 14.327 16.8405 14.5669 16.8521C14.8371 16.8652 15.106 16.8563 15.3735 16.8188C15.5219 16.7981 15.6658 16.7549 15.8097 16.7135C16.0145 16.6546 16.2061 16.5696 16.3891 16.4588C16.5052 16.3885 16.619 16.3172 16.7116 16.2193C16.8712 16.0506 16.9944 15.863 17.0137 15.621C17.0372 15.3263 16.9276 15.0825 16.732 14.8733C16.5543 14.6832 16.3484 14.5318 16.1122 14.4141C15.9227 14.3197 15.7284 14.2404 15.5265 14.1861C15.1822 14.0934 14.8306 14.0379 14.4454 14.0505L14.4452 14.0502ZM13.8569 18.6806C13.8798 18.6996 13.8958 18.7135 13.9124 18.7266C14.0791 18.8578 14.246 18.989 14.4284 19.0978C14.499 19.1398 14.5598 19.1947 14.6332 19.2335C14.7113 19.2747 14.7928 19.3085 14.8695 19.3542C14.9884 19.4249 15.1152 19.4843 15.2432 19.5375C15.449 19.623 15.659 19.6985 15.8664 19.7804C16.1903 19.9083 16.5273 19.9957 16.8651 20.0734C17.2396 20.1597 17.6213 20.218 18.0088 20.1983C18.287 20.1843 18.5583 20.1336 18.7913 19.97C18.9353 19.8689 19.041 19.7325 19.0936 19.56C19.1687 19.3139 18.9991 18.9098 18.6398 18.9391C18.4765 18.9523 18.3108 18.916 18.1462 18.9037C17.9912 18.892 17.8369 18.8675 17.6807 18.8636C17.5959 18.8614 17.511 18.8564 17.4268 18.8471C17.1436 18.8163 16.8592 18.8019 16.5752 18.7813C16.3976 18.7686 16.2176 18.7745 16.042 18.7494C15.7503 18.7079 15.457 18.7091 15.1645 18.692C14.7561 18.6681 14.3468 18.6649 13.9376 18.6697C13.9145 18.6699 13.8905 18.6639 13.8566 18.6805L13.8569 18.6806ZM10.6015 11.0471C10.5989 11.1949 10.6062 11.3414 10.6489 11.4838C10.6838 11.6002 10.732 11.7113 10.7892 11.8179C10.8247 11.8841 10.867 11.8932 10.9142 11.845C11.0473 11.7088 11.2006 11.6013 11.3635 11.5042C11.4521 11.4513 11.5463 11.4086 11.6332 11.3511C11.6901 11.3133 11.7667 11.3023 11.8297 11.2677C12.0237 11.1615 12.2346 11.0951 12.4376 11.0102C12.5769 10.9519 12.7176 10.8967 12.8554 10.8352C12.9338 10.8002 13.0078 10.7552 13.0837 10.7146C13.1298 10.6899 13.1427 10.6533 13.1208 10.606C13.11 10.5824 13.0989 10.5584 13.0837 10.5376C12.829 10.1878 12.5243 9.90363 12.0981 9.7692C11.9529 9.7233 11.8083 9.69535 11.6569 9.70523C11.3437 9.72551 11.0759 9.84655 10.8879 10.0984C10.6799 10.3773 10.579 10.6963 10.6015 11.0471Z" fill="#110F23"/>
<path d="M20.0681 16.495C19.8359 16.4954 19.6329 16.4753 19.4426 16.3917C19.3096 16.3332 19.1839 16.2586 19.0796 16.1569C18.8375 15.9205 18.7995 15.5703 18.9482 15.2825C19.1103 14.9688 19.3821 14.8059 19.6949 14.6868C20.0845 14.5386 20.4816 14.5423 20.8599 14.696C21.1314 14.8063 21.3734 14.9872 21.4317 15.3064C21.4789 15.5642 21.3958 15.7938 21.2247 15.9909C21.1158 16.1164 20.9877 16.2158 20.8367 16.2911C20.5853 16.4163 20.3275 16.5072 20.0681 16.4951V16.495ZM20.6358 15.5619C20.7577 15.5724 20.8573 15.5252 20.9373 15.4385C21.0283 15.3396 21.0056 15.2183 20.8892 15.1553C20.7688 15.0902 20.5774 15.1079 20.4714 15.1964C20.4005 15.2556 20.3591 15.3286 20.3832 15.4243C20.3993 15.4876 20.4997 15.5534 20.5838 15.5593C20.6012 15.5604 20.6185 15.5611 20.6358 15.562V15.5619Z" fill="#110F23"/>
<path d="M14.5743 16.524C14.281 16.5185 14.0176 16.4616 13.7704 16.3187C13.6401 16.2433 13.5194 16.1638 13.4307 16.0431C13.3124 15.882 13.2197 15.7085 13.2143 15.5029C13.208 15.2614 13.2848 15.0448 13.4531 14.8731C13.7431 14.5771 14.1048 14.44 14.519 14.4373C14.787 14.4355 15.036 14.5074 15.2778 14.6184C15.4606 14.7024 15.6115 14.8301 15.7254 14.9852C15.9618 15.3073 15.9392 15.7173 15.7006 16.0159C15.5927 16.1508 15.4555 16.2485 15.3065 16.3377C15.0742 16.4767 14.823 16.5144 14.5745 16.5241L14.5743 16.524ZM14.9391 15.493C15.0089 15.4971 15.0624 15.4659 15.1209 15.4308C15.2095 15.3778 15.2611 15.2792 15.2291 15.1804C15.1614 14.9715 14.8657 14.888 14.697 15.03C14.6075 15.1053 14.5815 15.2378 14.6378 15.3277C14.7076 15.439 14.8113 15.488 14.9391 15.493Z" fill="#110F23"/>
</svg>
