<svg width="32" height="32" viewBox="0 0 32 32" fill="none" xmlns="http://www.w3.org/2000/svg">
<path d="M20.2084 12.5037C20.228 12.5122 20.2481 12.5163 20.2682 12.5163C20.3264 12.5163 20.3822 12.4821 20.4068 12.4254C20.4886 12.2355 20.7659 12.0859 20.8658 12.0442C20.9426 12.0126 20.9793 11.9247 20.9476 11.8478C20.916 11.771 20.8276 11.7343 20.7508 11.766C20.7026 11.7861 20.2752 11.9699 20.1301 12.3058C20.0969 12.3822 20.1321 12.4711 20.2089 12.5037H20.2084Z" fill="#100E21"/>
<path d="M14.5522 19.763C14.5803 19.7866 14.6144 19.7976 14.6486 19.7976C14.6918 19.7976 14.735 19.779 14.7646 19.7434C14.8178 19.6796 14.8093 19.5842 14.745 19.5314C14.6144 19.4225 14.5135 19.2347 14.511 19.2296C14.4723 19.1558 14.3814 19.1277 14.3076 19.1664C14.2338 19.205 14.2057 19.2959 14.2443 19.3697C14.2493 19.3798 14.3739 19.6143 14.5527 19.763H14.5522Z" fill="#100E21"/>
<path d="M13.7331 25.1335C13.2098 25.0722 12.463 24.7653 12.456 24.7623C12.3792 24.7307 12.2908 24.7674 12.2591 24.8442C12.2275 24.921 12.2637 25.0094 12.341 25.0411C12.3731 25.0541 13.133 25.3665 13.6984 25.4333C13.7045 25.4338 13.7105 25.4343 13.716 25.4343C13.7913 25.4343 13.8566 25.378 13.8657 25.3012C13.8752 25.2183 13.8164 25.1435 13.7336 25.134L13.7331 25.1335Z" fill="#100E21"/>
<path d="M18.6807 17.0868C18.638 17.1259 18.6185 17.1832 18.628 17.2399C18.6657 17.4734 18.8148 17.607 19.0378 17.607C19.0403 17.607 19.0433 17.607 19.0458 17.607C19.0965 17.607 19.1422 17.5804 19.1689 17.5367C19.1955 17.493 19.1975 17.4398 19.1749 17.3941C19.1066 17.259 18.9916 17.0888 18.8329 17.0481C18.7792 17.034 18.7224 17.0481 18.6812 17.0863L18.6807 17.0868Z" fill="#100E21"/>
<path d="M19.9608 17.6492C20.0377 17.6492 20.1401 17.6121 20.2672 17.4905C20.35 17.4117 20.3746 17.2927 20.3289 17.1942C20.3028 17.1385 20.2601 17.0993 20.2054 17.0802C20.0798 17.0365 19.8679 17.1681 19.783 17.3062C19.7203 17.4077 19.7283 17.5121 19.8036 17.5854C19.8308 17.6121 19.883 17.6492 19.9603 17.6492H19.9608Z" fill="#100E21"/>
<path d="M20.8452 18.8078C20.8598 18.8791 20.9225 18.9283 20.9928 18.9283C21.0029 18.9283 21.0129 18.9273 21.0235 18.9253C21.1048 18.9087 21.1576 18.8289 21.1405 18.7475C21.1013 18.5562 20.9492 18.4201 20.9316 18.405C20.8688 18.3508 20.7744 18.3578 20.7201 18.4201C20.6654 18.4824 20.6719 18.5773 20.7342 18.6325C20.7598 18.6551 20.8296 18.7309 20.8457 18.8083L20.8452 18.8078Z" fill="#100E21"/>
<path d="M17.6522 18.3769C17.6281 18.3854 17.5051 18.4331 17.4458 18.5567C17.4097 18.6315 17.4413 18.7219 17.5166 18.7576C17.5377 18.7676 17.5598 18.7726 17.5814 18.7726C17.6377 18.7726 17.6914 18.741 17.7175 18.6873C17.7215 18.6787 17.7406 18.6662 17.7537 18.6606C17.831 18.6325 17.8712 18.5471 17.8441 18.4693C17.8169 18.391 17.7306 18.3493 17.6522 18.3769Z" fill="#100E21"/>
<path d="M14.5577 23.4154C14.5999 23.4195 14.6411 23.421 14.6802 23.421C14.858 23.421 14.9931 23.3878 14.9996 23.3858C15.08 23.3657 15.1292 23.2839 15.1091 23.2035C15.089 23.1232 15.0072 23.0734 14.9268 23.0935C14.9253 23.0935 14.7671 23.1322 14.5853 23.1151C14.5024 23.1071 14.4291 23.1684 14.4216 23.2512C14.4141 23.3341 14.4748 23.4074 14.5577 23.4149V23.4154Z" fill="#100E21"/>
<path d="M12.5635 22.4939C12.5851 22.505 12.6082 22.51 12.6308 22.51C12.6855 22.51 12.7387 22.4799 12.7653 22.4271C12.803 22.3533 12.7734 22.2624 12.6991 22.2247C12.6986 22.2247 12.6348 22.1921 12.5725 22.1404C12.5082 22.0876 12.4133 22.0967 12.3606 22.161C12.3078 22.2252 12.3169 22.3202 12.3812 22.3729C12.4691 22.4452 12.5539 22.4889 12.5635 22.4939Z" fill="#100E21"/>
<path d="M12.9748 10.4763C13.0019 10.4964 13.0335 10.5065 13.0652 10.5065C13.1109 10.5065 13.1561 10.4859 13.1857 10.4462C13.2821 10.3181 13.487 10.2067 13.5583 10.1745C13.6342 10.1404 13.6683 10.0515 13.6341 9.97564C13.6 9.89981 13.5111 9.86566 13.4348 9.89981C13.4016 9.91488 13.1048 10.052 12.9446 10.2659C12.8944 10.3327 12.908 10.4271 12.9748 10.4768V10.4763Z" fill="#100E21"/>
<path d="M14.6034 9.54827C14.6255 9.54827 14.6476 9.54375 14.6687 9.53371C14.6878 9.52467 14.7525 9.51814 14.8018 9.52015C14.8856 9.52366 14.9549 9.45938 14.9589 9.37652C14.9625 9.29316 14.8982 9.22285 14.8153 9.21933C14.7741 9.21783 14.633 9.21532 14.5351 9.26403C14.4613 9.30069 14.4316 9.38958 14.4678 9.46441C14.4939 9.51764 14.5476 9.54877 14.6039 9.54877L14.6034 9.54827Z" fill="#100E21"/>
<path d="M8.37062 13.2791C8.3897 13.2871 8.40979 13.2911 8.42938 13.2911C8.48813 13.2911 8.54388 13.2565 8.56798 13.1992C8.60012 13.1239 8.76183 13.0195 8.86076 12.9723C8.93609 12.9371 8.96823 12.8472 8.93308 12.7719C8.89793 12.6965 8.80803 12.6639 8.7327 12.6996C8.67445 12.7272 8.37815 12.8743 8.29027 13.0817C8.25763 13.1586 8.29378 13.247 8.37012 13.2791H8.37062Z" fill="#100E21"/>
<path d="M8.09291 13.8139C8.11149 13.8139 8.13007 13.8104 8.14815 13.8034L8.36409 13.7185C8.44143 13.6879 8.4796 13.6005 8.44896 13.5232C8.41833 13.4458 8.33095 13.4077 8.25361 13.4383L8.03766 13.5232C7.96033 13.5538 7.92216 13.6412 7.95279 13.7185C7.97589 13.7778 8.03314 13.8139 8.09291 13.8139Z" fill="#100E21"/>
<path d="M7.82925 14.3729C7.85085 14.3834 7.87395 14.3885 7.89604 14.3885C7.95129 14.3885 8.00452 14.3578 8.03114 14.3051C8.0447 14.2775 8.09341 14.2418 8.12304 14.2262C8.19686 14.1886 8.22699 14.0987 8.18983 14.0244C8.15267 13.95 8.06227 13.9199 7.98795 13.9571C7.96133 13.9706 7.82524 14.0434 7.76196 14.171C7.7248 14.2453 7.75543 14.3357 7.82975 14.3729H7.82925Z" fill="#100E21"/>
<path d="M24.4851 7.51438C22.2187 5.24796 19.2055 4 16 4C13.0094 4 10.1444 5.10684 7.93321 7.11613C5.76623 9.08475 4.40025 11.7569 4.07633 14.6511C4.07181 14.6903 4.06679 14.7294 4.06277 14.7691C4.05625 14.8319 4.05122 14.8957 4.0457 14.9589C4.01607 15.3055 4 15.6545 4 16C4 19.2055 5.24796 22.2187 7.51438 24.4851C9.78079 26.7515 12.794 28 15.9995 28C18.0324 28 20.0377 27.4827 21.8044 26.5045C21.8295 26.4904 21.8546 26.4768 21.8797 26.4628C21.9063 26.4477 21.9325 26.4331 21.9576 26.4186C21.9591 26.4176 21.9606 26.4171 21.9616 26.4161C21.9827 26.404 22.0028 26.3915 22.0234 26.3794C22.0515 26.3628 22.0796 26.3458 22.1077 26.3292C23.8448 25.2997 25.3037 23.8428 26.3332 22.1037C27.423 20.2621 27.9995 18.1519 27.9995 16C27.9995 12.795 26.751 9.78129 24.4846 7.51488L24.4851 7.51438ZM11.7062 16.796C11.7494 16.4706 12.0708 16.0934 12.2873 15.882C12.5715 16.3078 12.9055 16.6619 13.2841 16.9386C12.9783 17.1405 12.4188 17.5749 12.1863 18.1725C11.997 17.7517 11.8383 17.2977 11.7062 16.796ZM13.5593 17.1214C13.7813 17.255 14.0173 17.364 14.2629 17.4453C14.2785 17.4503 14.2945 17.4529 14.3101 17.4529C14.3734 17.4529 14.4321 17.4127 14.4532 17.3494C14.4793 17.2706 14.4367 17.1852 14.3578 17.1591C14.1067 17.0757 13.8662 16.9612 13.6427 16.8186C13.1751 16.5208 12.7724 16.1014 12.446 15.5706C12.1507 15.093 12.0296 14.6978 12.0281 14.6938C12.004 14.6139 11.9202 14.5687 11.8408 14.5928C11.761 14.6169 11.7158 14.7008 11.7399 14.7807C11.7449 14.7967 11.8549 15.1583 12.125 15.6208C11.993 15.7449 11.7534 15.9905 11.5857 16.2782C11.4893 15.7579 11.4069 14.7294 12.011 13.266C12.0598 13.148 12.0804 13.0988 12.0839 13.0546C12.0869 13.0164 12.0798 12.9758 12.0693 12.9135C12.0206 12.6318 11.9056 11.9724 12.7915 11.6213C12.8331 11.6048 12.8798 11.5882 12.9306 11.5726C12.9426 11.5756 12.9547 11.5772 12.9667 11.5772C12.9979 11.5772 13.03 11.5676 13.0566 11.547C13.0626 11.5425 13.0677 11.5375 13.0727 11.5325C14.3573 11.2005 16.9758 11.3381 17.0024 11.3396C17.0842 11.3436 17.1566 11.2804 17.1611 11.1975C17.1656 11.1146 17.1018 11.0433 17.019 11.0388C16.9095 11.0328 14.4236 10.9027 13.0742 11.2221C13.0787 11.209 13.0842 11.195 13.0933 11.1794C13.2726 10.859 14.1805 10.4126 15.2527 10.4126C15.4742 10.4126 15.6937 10.4236 15.9051 10.4457C16.7553 10.5346 17.2173 10.7746 17.2254 10.7792C17.2987 10.8183 17.3901 10.7912 17.4293 10.7179C17.4689 10.6446 17.4413 10.5532 17.368 10.514C17.3509 10.505 16.9999 10.3202 16.346 10.2041C16.4901 10.173 16.7011 10.1489 17.0109 10.1489C17.6367 10.1489 18.2102 10.6019 18.6285 10.9323C18.9052 11.1508 19.1051 11.309 19.2869 11.3341C19.315 11.3381 19.3411 11.3396 19.3667 11.3396C19.5792 11.3396 19.7027 11.21 19.8132 11.094C19.9397 10.961 20.0834 10.8103 20.4163 10.739C20.7523 10.6667 20.9984 10.7646 21.153 10.8691C20.7136 10.981 20.4982 11.1628 20.4876 11.1724C20.4249 11.2266 20.4183 11.3205 20.4721 11.3838C20.5258 11.4466 20.6207 11.4541 20.684 11.4009C20.6865 11.3989 20.9461 11.1849 21.4905 11.1096C21.8863 11.0549 22.3312 11.0845 22.8128 11.198C23.548 11.3712 23.7615 11.6063 23.8232 11.7308C23.8353 11.7549 23.8428 11.7775 23.8473 11.7986C22.9434 11.537 22.2162 11.6635 22.1841 11.6696C22.1022 11.6846 22.048 11.763 22.0625 11.8448C22.0776 11.9267 22.1564 11.9809 22.2378 11.9664C22.2453 11.9648 23.0172 11.8303 23.9297 12.1406C23.9598 12.1507 23.99 12.1617 24.0196 12.1723C24.1371 12.2159 24.2456 12.2601 24.341 12.3038C24.7839 12.5062 25.0561 12.7362 25.1279 12.9687C25.1726 13.1134 25.144 13.2665 25.0411 13.4368L24.9863 13.5297L25.0551 13.6121C25.0782 13.6397 25.609 14.2986 25.0114 15.4797C24.7694 15.9573 24.4675 16.348 24.115 16.6413C23.6434 17.033 23.2347 17.1254 23.0508 17.1465C22.9148 16.9979 22.7696 16.8588 22.6159 16.7312C23.6264 16.5258 24.4038 15.5782 24.801 14.9861C25.1325 14.4914 25.0707 14.0239 25.0044 13.7883C24.9697 13.6668 24.8763 13.5729 24.7548 13.5367C24.6714 13.5121 24.3636 13.4222 23.9001 13.3077C23.8996 13.3077 23.8991 13.3077 23.8981 13.3077C23.1588 13.1264 21.8119 12.8336 21.1003 12.912C21.0702 12.9155 21.0416 12.9195 21.0139 12.9235H20.9602L20.9502 12.9346C20.3877 13.037 20.0527 13.3323 19.8714 13.5608C19.6033 12.7834 19.3728 12.222 19.3702 12.2159C19.3386 12.1391 19.2507 12.1024 19.1734 12.1341C19.0965 12.1657 19.0599 12.2536 19.0915 12.3309C19.0945 12.338 19.3823 13.0385 19.6876 13.9571C19.9307 14.6888 20.118 15.3537 20.2446 15.9317C20.3686 16.5007 20.4329 16.9838 20.4349 17.37C20.4359 17.4197 20.4349 17.4694 20.4334 17.5101C20.4289 17.6336 20.3325 17.7376 20.2079 17.7512C19.8458 17.7928 19.1623 17.8401 18.6471 17.6919C18.5853 17.6738 18.5451 17.6181 18.5492 17.5553L18.5823 17.037C18.5823 17.037 18.5823 17.037 18.5823 17.0365C18.6124 16.5504 18.6551 15.8227 18.6878 15.1156C18.7309 14.1755 18.745 13.5402 18.7304 13.1832C18.7711 13.1686 18.8058 13.1375 18.8218 13.0938C18.8505 13.0159 18.8108 12.9291 18.7325 12.9004C18.7325 12.9004 18.6958 12.8869 18.6265 12.8653C18.4261 12.8025 17.8762 12.6468 17.0933 12.5564C16.0352 12.4339 14.9615 12.4726 13.9023 12.6714C13.3976 12.7664 12.8924 12.8989 12.4018 13.0667C12.114 13.1656 11.9438 13.4624 12.0065 13.7577C12.1712 14.5396 12.7493 16.3907 14.5456 16.6825C14.9082 16.7417 15.2663 16.7709 15.6118 16.7709C16.2546 16.7709 16.8537 16.6699 17.3589 16.4711C17.7813 16.3048 18.1193 16.0773 18.3508 15.8107C18.3292 16.2149 18.3071 16.5956 18.288 16.9004C18.0891 16.9401 17.6768 17.0411 17.2766 17.2525C17.1756 17.2826 16.2752 17.5453 15.7117 17.4247C15.6304 17.4077 15.5505 17.4589 15.533 17.5402C15.5154 17.6216 15.5671 17.7014 15.6485 17.719C15.7735 17.7456 15.9106 17.7567 16.0507 17.7567C16.2606 17.7567 16.4786 17.7321 16.6755 17.6994C16.337 18.0655 16.2119 18.5175 16.3129 19.0338C16.4329 19.65 17.0802 20.0623 18.1343 20.1949C18.2272 20.2064 18.3232 20.2149 18.4201 20.222C18.397 20.463 18.3965 20.7041 18.5441 20.8221C18.5823 20.8527 18.6395 20.8819 18.7194 20.8819C18.7591 20.8819 18.8043 20.8748 18.8555 20.8567C19.1146 20.7653 19.1593 20.4886 19.1744 20.233C20.4163 20.1828 21.7125 19.8197 21.9777 19.2608C22.1464 18.9057 22.1464 18.5406 21.9782 18.2046C21.7391 17.7271 21.1927 17.3765 20.7322 17.248C20.7212 16.9185 20.6714 16.5308 20.5841 16.0894C21.1591 16.2114 21.6804 16.4314 22.1353 16.7453C22.4055 16.9316 22.6546 17.1525 22.8756 17.4026C23.3748 17.9666 23.5972 18.5286 23.6565 18.6973C23.2743 19.4983 22.7566 20.007 22.7515 20.0121L22.743 20.0211C22.737 20.0281 22.1288 20.7106 20.9381 21.1395C20.8989 21.1294 20.8552 21.1345 20.8186 21.1581C20.7935 21.1741 20.7684 21.1897 20.7428 21.2058C20.1587 21.3916 19.5315 21.4865 18.8776 21.4865C17.5483 21.4865 16.6338 21.0913 16.1004 20.7598C15.5234 20.4008 15.2552 20.0367 15.2522 20.0321C15.2035 19.9648 15.1096 19.9493 15.0423 19.998C14.9745 20.0467 14.9594 20.1406 15.0077 20.2084C15.0539 20.2727 16.1723 21.7878 18.8776 21.7878C19.1051 21.7878 19.3291 21.7758 19.5495 21.7542C19.4451 21.7868 19.3401 21.8169 19.2341 21.8431C19.1935 21.8531 19.1528 21.8621 19.1116 21.8712H19.0915L19.0775 21.8787C17.8069 22.1459 16.4645 21.9309 15.0875 21.2389C13.8968 20.6403 13.0139 19.7735 12.3887 18.5903C12.4746 17.8385 13.3042 17.2776 13.5578 17.1229L13.5593 17.1214ZM24.0663 17.0531C24.0578 17.4679 23.9769 17.8863 23.8232 18.3041C23.7168 18.0721 23.543 17.7512 23.2768 17.4112C23.4812 17.3635 23.7569 17.2625 24.0668 17.0526L24.0663 17.0531ZM24.1502 11.7745C24.1733 11.8202 24.1938 11.8689 24.2099 11.9217C24.1918 11.9146 24.1733 11.9076 24.1547 11.9006C24.1577 11.8634 24.1572 11.8207 24.1502 11.7745ZM21.7095 18.3392C21.8365 18.5928 21.835 18.8595 21.706 19.1312C21.5915 19.3723 21.0933 19.6188 20.4058 19.774C20.0211 19.8609 19.6028 19.9141 19.193 19.9317C19.198 19.889 19.2045 19.8524 19.2141 19.8333C19.3888 19.772 19.4747 19.6625 19.5159 19.5802C19.5661 19.4802 19.5782 19.3632 19.549 19.2643C19.5571 19.2497 19.5802 19.2256 19.6003 19.2116C19.6434 19.1819 19.666 19.1337 19.6655 19.0855L19.9588 19.0815C20.2787 19.0815 20.6227 19.0162 20.5861 18.7912C20.5489 18.5657 20.0005 18.3859 19.3421 18.3859C18.6837 18.3859 18.392 18.4161 18.1032 18.7053C17.944 18.8645 18.0208 18.9695 18.1223 19.0318C18.163 19.0569 18.2072 19.0745 18.2529 19.086C18.2147 19.2608 18.2875 19.4325 18.3583 19.5992C18.4075 19.7148 18.4578 19.8338 18.4527 19.9217C18.4527 19.9222 18.4527 19.9227 18.4527 19.9232C18.3573 19.9161 18.2634 19.9076 18.173 19.896C17.6432 19.8293 16.7352 19.6208 16.6097 18.976C16.4901 18.3618 16.7568 17.8742 17.4021 17.5267C17.4031 17.5262 17.4041 17.5262 17.4051 17.5252C17.7271 17.3529 18.0665 17.2585 18.2689 17.2123L18.2483 17.5352C18.2343 17.7401 18.3638 17.9234 18.5632 17.9812C18.8595 18.0665 19.2015 18.0937 19.5144 18.0937C19.7981 18.0937 20.0588 18.0716 20.2411 18.0505C20.4982 18.0218 20.7016 17.8154 20.7307 17.5618C21.1003 17.6859 21.5252 17.9711 21.7095 18.3392ZM19.2598 19.3487C19.2663 19.3692 19.2653 19.4079 19.2467 19.4451C19.2226 19.4928 19.1744 19.5299 19.1071 19.552C18.9494 19.6038 18.9057 19.7605 18.8891 19.9387C18.8841 19.9945 18.8816 20.0517 18.8791 20.109C18.8771 20.1512 18.8751 20.1954 18.8721 20.239C18.8615 20.3937 18.8374 20.5439 18.7556 20.5725C18.7435 20.5765 18.735 20.5785 18.7289 20.5795C18.7013 20.5238 18.7104 20.3636 18.7219 20.2365C18.7269 20.1853 18.732 20.1391 18.7355 20.1075C18.7425 20.0462 18.749 19.9884 18.752 19.9402C18.752 19.9392 18.752 19.9377 18.752 19.9367C18.7606 19.779 18.6968 19.6279 18.6345 19.4812C18.5808 19.3547 18.5256 19.2241 18.5476 19.1427C18.5517 19.1287 18.5527 19.1146 18.5522 19.1011L19.3014 19.0905C19.2527 19.1638 19.2271 19.2532 19.2588 19.3487H19.2598ZM14.5436 13.705C14.5577 13.6798 14.5773 13.6683 14.5969 13.6643C14.6431 13.6552 14.6868 13.6914 14.6928 13.7386C14.7068 13.8451 14.7385 14.0876 14.7616 14.2724C14.7922 14.5155 14.8073 14.5512 14.5592 14.6928C14.3111 14.8344 14.1996 14.4798 14.174 14.1911C14.1484 13.9023 14.4984 13.7858 14.5436 13.705ZM15.3175 15.3014C15.5078 15.2407 15.6424 15.2844 15.7258 15.3371C15.8016 15.3848 15.7976 15.4968 15.7183 15.5375C15.667 15.5636 15.5937 15.5842 15.4908 15.5842C15.3582 15.5842 15.2899 15.5289 15.2547 15.4717C15.2161 15.4084 15.2467 15.324 15.3175 15.3014ZM17.0611 14.5055C16.9497 14.8449 16.5343 14.7234 16.4886 14.5055C16.4429 14.2875 16.4736 14.161 16.4228 13.7813C16.3721 13.4016 16.3872 13.1837 16.6408 13.133C16.8939 13.0822 17.0611 13.5282 17.0611 13.5282C17.1676 13.8069 17.1726 14.1665 17.0611 14.506V14.5055ZM13.4925 14.2649C13.5076 14.3322 13.5222 14.4015 13.5367 14.4728C13.6583 15.0609 13.8094 15.7921 14.6099 16.1567C14.9685 16.3199 15.4049 16.4093 15.8303 16.4093C16.4409 16.4093 17.03 16.2255 17.3358 15.8147C17.8175 15.1669 17.9636 14.51 17.824 13.6191C17.7753 13.3077 17.6793 13.0857 17.5729 12.9286C17.9581 12.9943 18.2493 13.0687 18.4256 13.1189C18.4452 13.4398 18.4321 14.1022 18.3869 15.0905C18.1901 16.2019 16.2697 16.6569 14.5943 16.3847C12.9813 16.1225 12.4535 14.4166 12.3013 13.6949C12.2702 13.5483 12.3556 13.4006 12.4997 13.3514C12.8839 13.2203 13.2771 13.1114 13.6718 13.0255C13.5493 13.3313 13.3956 13.836 13.4925 14.2649ZM20.5158 15.7685C20.3917 15.2191 20.2159 14.5984 19.992 13.9199C20.0562 13.7994 20.2637 13.479 20.7181 13.3087C20.6529 13.4955 20.5991 13.7718 20.5991 14.1755C20.5991 15.1166 21.0134 15.8026 21.7667 16.107C22.0128 16.2064 22.2519 16.2556 22.4788 16.2556C23.0046 16.2556 23.4632 15.992 23.7906 15.4837C24.1733 14.8896 24.2898 14.2142 24.121 13.6748C24.4128 13.7507 24.6056 13.8069 24.6684 13.8255C24.6905 13.832 24.7076 13.8491 24.7136 13.8707C24.7659 14.0555 24.8136 14.4241 24.5499 14.8178C24.1416 15.4265 23.3065 16.4409 22.2649 16.4691C21.7517 16.124 21.1641 15.8885 20.5153 15.7685H20.5158ZM21.1701 14.2232C21.1701 14.0138 21.3002 13.94 21.3454 13.8722C21.3584 13.8526 21.376 13.8411 21.3946 13.8345C21.4503 13.8144 21.5116 13.8451 21.5372 13.8978C21.6121 14.0525 21.6126 14.3402 21.6176 14.4663C21.6231 14.6134 21.595 14.6476 21.4308 14.6812C21.2665 14.7154 21.1701 14.4321 21.1701 14.2227V14.2232ZM22.0736 15.2452C22.1539 15.1583 22.3628 15.2105 22.4286 15.3567C22.4698 15.4481 22.3819 15.4717 22.3101 15.4762C22.2589 15.4797 22.2067 15.4727 22.1569 15.4586C21.9686 15.4069 22.0013 15.323 22.0731 15.2452H22.0736ZM22.9318 13.7125C22.9278 13.6904 22.9233 13.6698 22.9193 13.6517C22.8967 13.5498 22.9645 13.5101 23.1965 13.5101C23.4285 13.5101 23.542 13.8667 23.542 14.178C23.542 14.4894 23.429 14.744 23.1684 14.744C22.9815 14.744 22.961 14.3312 22.964 14.0972C22.9655 13.9681 22.9559 13.839 22.9318 13.712V13.7125ZM7.22009 13.6075C7.23917 13.5694 7.26177 13.5287 7.28889 13.482C7.28889 13.482 7.28939 13.4815 7.28939 13.481C7.63089 12.903 8.30082 12.3008 8.74375 11.9026C8.9823 11.6881 9.15505 11.533 9.23139 11.428L9.23992 11.4159C9.32061 11.3051 9.52049 11.1558 9.83955 10.968C10.0711 10.8314 10.4211 10.6255 10.9424 10.3076C11.547 9.93898 12.1823 9.64269 12.7453 9.41519C12.5434 9.56384 12.3571 9.72254 12.1868 9.89077C12.1291 9.94752 12.0492 10.0178 11.9568 10.0997C11.3331 10.6491 10.1715 11.6721 10.1635 13.3494L10.1625 13.5945L10.3819 13.485C10.3819 13.485 10.3975 13.477 10.4191 13.4649C10.1901 14.1233 9.92844 15.2427 10.1665 16.5193L10.2157 16.7819L10.3864 16.6298C10.3307 17.4046 10.3774 18.4301 10.9926 18.5351C11.0011 18.5366 11.0097 18.5371 11.0182 18.5371C11.09 18.5371 11.1538 18.4854 11.1664 18.4116C11.1804 18.3297 11.1252 18.2519 11.0433 18.2378C10.6431 18.1695 10.6079 17.0868 10.745 16.1095C10.7561 16.0301 10.7053 15.9553 10.6275 15.9362C10.5492 15.9166 10.4698 15.9593 10.4427 16.0336C10.4326 16.0603 10.4216 16.0859 10.4095 16.11C10.2378 14.6325 10.7325 13.4348 10.8972 13.0858C10.9333 13.0129 10.9097 12.9245 10.8419 12.8798C10.7736 12.8352 10.6827 12.8487 10.632 12.909C10.5823 12.9657 10.5301 13.0149 10.4809 13.0561C10.6144 11.6846 11.6073 10.8103 12.1572 10.3262C12.2531 10.2413 12.3365 10.1685 12.3997 10.1057C12.9296 9.58242 13.6286 9.15405 14.4763 8.83264C14.4773 8.83264 14.4788 8.83214 14.4798 8.83164C14.4804 8.83164 14.4814 8.83114 14.4819 8.83063C14.7063 8.74526 14.9524 8.66441 15.2136 8.59058C16.4972 8.228 17.5548 8.52379 17.9028 8.62072C18.0208 8.65386 18.061 8.66491 18.1097 8.65336C18.162 8.64131 18.2057 8.60916 18.2333 8.56246C18.2453 8.54187 18.2534 8.51927 18.2589 8.49567C18.7606 8.60314 19.0513 8.86328 19.2698 9.06014C19.2708 9.06114 19.2718 9.06215 19.2728 9.06315L19.2773 9.06767C19.3768 9.15706 19.4621 9.2344 19.5515 9.28362C19.8051 9.42373 20.2004 9.82247 20.2044 9.82649C20.234 9.85612 20.2727 9.87119 20.3114 9.87119C20.35 9.87119 20.3882 9.85662 20.4173 9.8275C20.4766 9.76874 20.4771 9.67382 20.4183 9.61456C20.4038 9.5995 20.103 9.29718 19.8343 9.10785C20.4595 9.13497 21.5684 9.2565 22.1077 9.76522L22.1298 9.78581L22.1579 9.79636C22.3252 9.85913 22.5014 9.96208 22.5471 10.0208L22.4688 10.1384L22.6154 10.2167C23.079 10.4643 23.5129 10.7937 23.5254 10.9072C23.5289 11.0087 23.5736 11.094 23.6399 11.1764C23.4421 11.0689 23.1895 10.9785 22.8811 10.9062C22.396 10.7922 21.943 10.7586 21.5327 10.8033C21.3901 10.6481 20.9933 10.3076 20.352 10.4457C19.9287 10.5366 19.7353 10.7395 19.5942 10.8876C19.4752 11.0127 19.433 11.0513 19.3276 11.0368C19.2266 11.0227 19.0172 10.8575 18.8143 10.6973C18.3608 10.3392 17.7401 9.84859 17.0099 9.84859C16.2124 9.84859 15.9252 10.0058 15.8242 10.1368C15.6374 10.1208 15.4456 10.1122 15.2517 10.1122C14.2177 10.1122 13.1083 10.5341 12.8296 11.0333C12.7779 11.1262 12.7568 11.2206 12.7653 11.311C12.7352 11.3215 12.7066 11.3321 12.6795 11.3426C11.5661 11.7841 11.7208 12.6739 11.7715 12.9667C11.775 12.9878 11.7795 13.0134 11.7815 13.0285C11.773 13.0536 11.7514 13.1058 11.7318 13.153C11.5425 13.6116 10.966 15.0072 11.3471 16.6062C11.3657 16.6855 11.3858 16.7659 11.4069 16.8452C11.5867 17.5342 11.8137 18.1384 12.1014 18.6908C12.1024 18.6923 12.1035 18.6938 12.104 18.6958C12.7513 19.9377 13.71 20.8839 14.9534 21.5086C15.9915 22.0304 17.0129 22.292 18.0043 22.292C18.0625 22.292 18.1203 22.291 18.178 22.289C17.4986 22.5707 16.5379 22.9112 15.7012 22.9921C15.6183 23.0001 15.5576 23.0739 15.5656 23.1563C15.5731 23.2341 15.6389 23.2924 15.7153 23.2924C15.7203 23.2924 15.7248 23.2924 15.7298 23.2919C16.9522 23.1739 18.4181 22.5286 18.969 22.2679C18.85 22.6034 18.7681 23.0448 18.7154 23.4089C18.7104 23.4446 18.7063 23.4762 18.7028 23.5028C17.3645 24.0045 15.1859 24.0387 13.2399 23.5832C10.7962 23.0112 8.92706 21.7712 7.97589 20.0909C5.84206 16.3214 6.72693 14.5793 7.20251 13.6432L7.21959 13.6095L7.22009 13.6075ZM16 27.6982C12.8753 27.6982 9.93748 26.4814 7.72831 24.2717C5.51864 22.062 4.30182 19.1242 4.30182 15.9995C4.30182 15.6399 4.3194 15.2758 4.35254 14.9153C4.67244 14.864 4.99887 14.7962 5.22837 14.746C5.09479 15.0865 5.02649 15.5134 5.02649 16.0201C5.02649 16.7628 5.485 18.6521 6.50446 20.5253C7.39485 22.1615 8.98581 24.2742 11.5089 25.0461C11.5234 25.0506 11.5385 25.0526 11.553 25.0526C11.6173 25.0526 11.6771 25.0109 11.6972 24.9461C11.7213 24.8668 11.6766 24.7824 11.5972 24.7578C9.17163 24.0161 7.63289 21.9681 6.76962 20.3812C5.78632 18.5743 5.32831 16.7106 5.32831 16.0201C5.32831 15.4104 5.43026 14.9348 5.63164 14.6074C5.79435 14.3422 5.97363 14.2554 6.06654 14.2272C6.23528 14.1755 6.514 14.0128 6.7646 13.8526C6.55217 14.3101 6.32718 14.9313 6.31262 15.779C6.29102 17.0556 6.76259 18.5562 7.71475 20.238C8.7076 21.9922 10.6456 23.2839 13.1721 23.8755C14.1223 24.0979 15.1086 24.2079 16.0341 24.2079C17.1284 24.2079 18.1374 24.0537 18.8982 23.7494L18.9815 23.7163L18.9871 23.6665C19.1061 23.7464 19.2407 23.8719 19.2407 24.0286C19.2407 24.0844 19.2422 24.1396 19.2437 24.1938C19.2472 24.3199 19.2507 24.4389 19.2321 24.5409C19.204 24.693 19.1282 24.7935 18.979 24.8773C18.6069 25.0868 15.9468 25.6281 14.2554 25.2876C14.174 25.2711 14.0942 25.3238 14.0781 25.4056C14.0615 25.487 14.1148 25.5669 14.1961 25.5829C14.6019 25.6643 15.0599 25.6979 15.5304 25.6979C17.0928 25.6979 18.7887 25.3303 19.1267 25.1395C19.2753 25.0561 19.3823 24.9497 19.4516 24.8186C19.8192 25.1134 20.7342 25.832 21.5076 26.3232C19.8222 27.2236 17.9244 27.6987 16.0005 27.6987L16 27.6982Z" fill="#100E21"/>
</svg>
