<svg width="32" height="32" viewBox="0 0 32 32" fill="none" xmlns="http://www.w3.org/2000/svg">
<path d="M21.3082 12.5157L20.3254 11.9787C20.2918 11.9599 20.2693 11.9262 20.2649 11.8881L20.0962 10.2889C20.0549 9.90002 19.727 9.6053 19.3363 9.6053H19.3318C18.9102 9.6053 18.5679 9.94712 18.5679 10.3692L18.4912 10.3351C18.3135 10.2562 18.1054 10.2948 17.9677 10.4325C17.8784 10.5217 17.8304 10.642 17.8304 10.7649C17.8304 10.8147 17.8381 10.8645 17.8542 10.9134L17.9336 11.1516C17.9484 11.196 17.9363 11.2444 17.9018 11.2758C17.7447 11.4189 17.3186 11.8509 17.3186 12.3313V14.4544C17.3186 14.7927 17.0441 15.0672 16.7054 15.0672L9.75199 15.0667C9.16301 15.0667 8.80639 15.7244 9.13385 16.2137C9.52322 16.7956 10.1947 17.4348 11.3287 17.7048C11.4252 17.7272 11.492 17.8143 11.4875 17.913C11.4584 18.5118 11.6279 20.4995 15.1147 20.7861L14.1647 21.9856C13.9812 22.2171 14.0377 22.5566 14.2862 22.7163C14.3692 22.7697 14.463 22.7957 14.5558 22.7957C14.702 22.7957 14.8465 22.7311 14.9447 22.6096L16.1348 21.1355L17.3249 22.6096C17.4231 22.7311 17.5676 22.7957 17.7138 22.7957C17.8067 22.7957 17.9004 22.7697 17.9838 22.7163C18.2324 22.5566 18.2889 22.2171 18.1054 21.9856L17.1365 20.7628C21.0476 20.3389 20.9288 17.6793 20.7883 16.4165C20.6627 15.2856 20.5026 13.9139 20.4497 13.4622C20.4394 13.3716 20.4882 13.2845 20.5717 13.2469L21.293 12.9207C21.463 12.844 21.472 12.6054 21.3082 12.5157Z" fill="#110F23"/>
<path d="M11.8711 5.4591C12.033 5.39451 12.1985 5.39137 12.3708 5.44564C12.4744 5.47884 12.5224 5.51293 12.5466 5.57259C12.5794 5.65468 12.5395 5.74709 12.4556 5.78028C12.4134 5.79688 12.3762 5.79553 12.3246 5.77669L12.2806 5.7592C12.1909 5.72556 12.0824 5.7269 11.9904 5.76324C11.7805 5.84667 11.6795 6.08846 11.763 6.29839C11.8464 6.50832 12.0891 6.6115 12.299 6.52761C12.3829 6.49442 12.4695 6.4204 12.5027 6.35177L12.5368 6.28045C12.5592 6.232 12.5897 6.20374 12.6319 6.18714C12.7139 6.1544 12.809 6.19567 12.8413 6.27776C12.8597 6.32396 12.8535 6.3724 12.8234 6.44238C12.7498 6.61284 12.596 6.76222 12.4201 6.8322C12.042 6.98247 11.606 6.79452 11.4561 6.41816C11.3059 6.04001 11.4934 5.60848 11.8715 5.4582L11.8711 5.4591Z" fill="#110F23"/>
<path d="M14.0041 5.07692C14.17 5.17605 14.2876 5.34158 14.332 5.53671C14.4217 5.93146 14.17 6.3289 13.7735 6.41906C13.3725 6.51057 12.9759 6.26295 12.8853 5.86417C12.7942 5.46538 13.0419 5.06884 13.4406 4.97778C13.6255 4.93561 13.8305 4.97285 14.0041 5.07692ZM13.2042 5.79374C13.2545 6.01399 13.4783 6.15305 13.7008 6.10236C13.9233 6.05167 14.061 5.83232 14.0103 5.60983C13.9596 5.38733 13.7376 5.24603 13.5169 5.29627C13.2967 5.34651 13.154 5.57349 13.2042 5.79374Z" fill="#110F23"/>
<path d="M16.0473 5.83232L16.0765 5.8543C16.1263 5.89422 16.1505 5.93415 16.1532 5.98349C16.1586 6.07365 16.0899 6.1535 15.9998 6.15888C15.9634 6.16113 15.9168 6.14453 15.8787 6.11447L15.775 6.03642C15.6387 6.13511 15.5059 6.184 15.3552 6.19342C14.9425 6.21809 14.5872 5.90723 14.5625 5.49902C14.5383 5.09261 14.8514 4.74183 15.2596 4.71715C15.6701 4.69248 16.0258 5.00738 16.0505 5.41783C16.0581 5.54254 16.0366 5.6493 15.9796 5.77804L16.0478 5.83232H16.0473ZM14.8936 5.47884C14.9075 5.70896 15.1058 5.88256 15.3354 5.86865C15.5611 5.8552 15.7329 5.66141 15.719 5.43353C15.7055 5.2079 15.5068 5.02981 15.2834 5.04327C15.0555 5.05718 14.8797 5.2532 14.8931 5.47884H14.8936Z" fill="#110F23"/>
<path d="M17.2724 6.02924L17.2684 6.06558C17.2558 6.17683 17.1831 6.24232 17.0849 6.2311C16.9867 6.21989 16.9288 6.13735 16.9409 6.02835L16.9449 5.99201L17.0602 4.97554L17.0643 4.9392C17.0791 4.82795 17.1513 4.7647 17.2495 4.77592C17.3478 4.78713 17.4038 4.86698 17.3913 4.97643L17.3872 5.01277L17.2719 6.02924H17.2724Z" fill="#110F23"/>
<path d="M18.7365 5.2698L18.7446 5.23392C18.772 5.12536 18.8505 5.07064 18.9451 5.09217C19.0416 5.11415 19.0905 5.20072 19.0658 5.30748L19.0577 5.34337L18.8263 6.35088C18.8083 6.42848 18.798 6.45495 18.7702 6.47962C18.7276 6.52089 18.6661 6.53748 18.6078 6.52403C18.549 6.51057 18.5217 6.48455 18.48 6.38856L18.0771 5.52504L17.9367 6.13556L17.9287 6.17144C17.9035 6.28045 17.8241 6.33742 17.7277 6.31544C17.6313 6.29346 17.5828 6.20509 17.6075 6.09788L17.6156 6.06199L17.8506 5.03789C17.8645 4.97688 17.8771 4.95131 17.9049 4.92664C17.9471 4.88762 17.9964 4.87461 18.0466 4.88627C18.1054 4.89973 18.1381 4.92933 18.1767 5.01322L18.5944 5.88884L18.7365 5.2698Z" fill="#110F23"/>
<path d="M19.4852 5.47974L19.4987 5.44565C19.54 5.34158 19.6261 5.29896 19.718 5.3353C19.81 5.37163 19.8454 5.46404 19.8051 5.56631L19.5458 6.22348C19.492 6.35985 19.5525 6.50608 19.6844 6.55812C19.7607 6.58817 19.8495 6.5792 19.9163 6.5339C19.963 6.50384 19.9908 6.4684 20.0177 6.40022L20.2738 5.75113C20.3169 5.64796 20.403 5.60534 20.4932 5.64078C20.5851 5.67711 20.6206 5.76952 20.5802 5.8718L20.3241 6.52089C20.2016 6.8313 19.8755 6.97799 19.5709 6.85777C19.2663 6.73755 19.121 6.40246 19.2394 6.10236L19.4852 5.47929V5.47974Z" fill="#110F23"/>
<path d="M7.34313 22.9397L7.31128 22.9644C7.21304 23.0398 7.10583 23.0321 7.039 22.9456C6.97261 22.859 6.99369 22.7495 7.08968 22.676L7.12198 22.6513L8.01824 21.9641L8.05009 21.9394C8.14967 21.8663 8.25509 21.8748 8.32193 21.9618C8.38832 22.0484 8.36768 22.1543 8.27169 22.2283L8.23939 22.2529L7.34313 22.9402V22.9397Z" fill="#110F23"/>
<path d="M9.12353 23.2308L9.15269 23.2026C9.24285 23.1183 9.34916 23.1147 9.42363 23.1914C9.49988 23.2699 9.49316 23.3789 9.40613 23.4637L8.55832 24.2868C8.49507 24.3483 8.46995 24.3662 8.42913 24.3725C8.36498 24.385 8.29815 24.364 8.25194 24.316C8.20574 24.2684 8.19587 24.2276 8.21471 24.1136L8.3596 23.0716L7.83387 23.5821C7.74505 23.6682 7.63739 23.6731 7.56113 23.5951C7.48487 23.5166 7.4934 23.4058 7.58042 23.3215L8.44214 22.4849C8.49148 22.4369 8.51885 22.4203 8.55922 22.4144C8.62157 22.4037 8.67495 22.4212 8.71487 22.462C8.76108 22.5095 8.77409 22.5571 8.75928 22.6576L8.62112 23.7198L9.12442 23.2313L9.12353 23.2308Z" fill="#110F23"/>
<path d="M10.8044 24.2388C10.9649 24.3447 11.0726 24.4927 11.1323 24.6829C11.1677 24.7973 11.1673 24.8628 11.1282 24.9224C11.0744 25.0036 10.9658 25.0261 10.8824 24.9709C10.8407 24.9435 10.8183 24.9085 10.8026 24.8498L10.7904 24.7991C10.7644 24.6963 10.6945 24.599 10.6034 24.5389C10.3948 24.4016 10.1126 24.4626 9.97493 24.6712C9.83722 24.8798 9.89733 25.1642 10.1059 25.3015C10.1894 25.3567 10.3109 25.3881 10.3939 25.3746L10.48 25.3602C10.5379 25.3499 10.5828 25.3598 10.6245 25.3872C10.7057 25.441 10.729 25.5527 10.6752 25.6343C10.6451 25.6801 10.5971 25.7052 10.5146 25.7222C10.3136 25.7635 10.0812 25.7182 9.90675 25.6029C9.53174 25.3553 9.42632 24.8417 9.67259 24.4685C9.92021 24.0935 10.4293 23.9907 10.8044 24.2383V24.2388Z" fill="#110F23"/>
<path d="M12.5359 25.4056C12.6166 25.6034 12.6103 25.8272 12.5197 26.0286C12.3371 26.4364 11.8509 26.6199 11.4409 26.4364C11.0264 26.2507 10.8411 25.7689 11.0255 25.3567C11.2099 24.9444 11.6916 24.7592 12.1039 24.9435C12.295 25.0292 12.4511 25.1979 12.5354 25.4051L12.5359 25.4056ZM11.3548 25.5069C11.2525 25.7348 11.3579 26.0057 11.588 26.1089C11.8181 26.2121 12.085 26.1103 12.1882 25.8801C12.2914 25.65 12.1891 25.3777 11.9612 25.2759C11.7334 25.1741 11.457 25.2795 11.3548 25.5069Z" fill="#110F23"/>
<path d="M14.1454 26.9321L14.1691 26.9648C14.2082 27.0236 14.2203 27.0734 14.2068 27.1263C14.1826 27.2232 14.0839 27.2842 13.987 27.2595C13.948 27.2497 13.9045 27.2165 13.874 27.1721L13.8502 27.1393L13.7905 27.0554C13.6138 27.1137 13.4577 27.1209 13.2962 27.0805C12.8535 26.9688 12.5834 26.5234 12.6938 26.0851C12.8037 25.6496 13.2504 25.3845 13.6883 25.4948C14.1288 25.6056 14.3975 26.056 14.2867 26.4965C14.253 26.6302 14.1947 26.7356 14.0915 26.8518L14.1449 26.9316L14.1454 26.9321ZM13.049 26.1753C12.9867 26.422 13.1374 26.671 13.3841 26.7329C13.6264 26.7939 13.8717 26.6472 13.9332 26.4032C13.9942 26.161 13.8448 25.908 13.6048 25.8474C13.3603 25.7859 13.11 25.9335 13.049 26.1758V26.1753Z" fill="#110F23"/>
<path d="M16.765 25.9784C16.8009 25.842 16.8525 25.7891 16.9521 25.7877C17.0521 25.7859 17.1365 25.8631 17.1378 25.9609C17.1378 25.9869 17.1338 26.0156 17.1248 26.0421L17.1136 26.0802L16.7547 27.2703C16.7251 27.3658 16.6691 27.4143 16.5834 27.4156C16.5049 27.417 16.4398 27.3703 16.4102 27.2923L16.1021 26.4624L15.8253 27.3017C15.8006 27.3806 15.7347 27.4291 15.6539 27.4304C15.5638 27.4318 15.5131 27.3923 15.4781 27.2905L15.0739 26.1201L15.0614 26.0825C15.0515 26.0542 15.0483 26.0255 15.0483 25.9995C15.047 25.9066 15.1264 25.8272 15.2237 25.8254C15.3211 25.8236 15.3718 25.8707 15.4144 26.0053L15.6548 26.7481L15.9083 25.938C15.9307 25.8618 16.0011 25.8106 16.0895 25.8093C16.1702 25.8079 16.2398 25.8496 16.2649 25.916L16.5587 26.7342L16.7655 25.9797L16.765 25.9784Z" fill="#110F23"/>
<path d="M17.7353 26.3224L18.1014 26.2619L18.1341 26.2565C18.2355 26.2421 18.3104 26.2875 18.3252 26.3767C18.34 26.466 18.2821 26.5382 18.1835 26.5544L18.1507 26.5597L17.7847 26.6203L17.8376 26.9392L18.3512 26.854C18.462 26.8379 18.545 26.8894 18.5616 26.9877C18.5778 27.0864 18.5136 27.1644 18.4059 27.1824L17.7842 27.2855L17.7421 27.2927C17.6057 27.3129 17.5209 27.2523 17.4989 27.1187L17.4917 27.0765L17.3155 26.0143L17.3083 25.9721C17.2881 25.8357 17.3486 25.751 17.4823 25.7285L17.5245 25.7213L18.1341 25.62C18.2449 25.6038 18.3256 25.6554 18.3418 25.7541C18.3579 25.8528 18.2965 25.9304 18.1884 25.9483L17.6864 26.0318L17.7349 26.3224H17.7353Z" fill="#110F23"/>
<path d="M20.1141 26.44L20.128 26.4781C20.1684 26.5952 20.1289 26.6957 20.0262 26.7329C19.9257 26.7697 19.8279 26.7167 19.7862 26.6028L19.4206 25.602L19.1771 25.6908L19.1434 25.703C19.0353 25.7397 18.9465 25.7043 18.9119 25.6101C18.8783 25.5186 18.9241 25.4284 19.029 25.3903L19.0627 25.3782L19.8889 25.0763L19.9248 25.0633C20.0307 25.0274 20.1218 25.0624 20.1563 25.1561C20.1904 25.2499 20.1419 25.3387 20.0392 25.3759L20.0033 25.389L19.762 25.4769L20.1137 26.4395L20.1141 26.44Z" fill="#110F23"/>
<path d="M21.1382 25.986L21.1571 26.0219C21.2145 26.1313 21.1889 26.2363 21.092 26.287C20.9951 26.3377 20.8911 26.2982 20.835 26.191L20.8162 26.1551L20.3043 25.1777L20.2846 25.1395C20.2227 25.0162 20.2536 24.9166 20.3739 24.8538L20.6286 24.7206C20.7928 24.6344 20.9095 24.6057 21.0288 24.6183C21.2239 24.6371 21.4002 24.7538 21.4886 24.9224C21.5913 25.1185 21.5536 25.3284 21.3867 25.5074L21.7182 25.5563C21.8003 25.5697 21.8551 25.6025 21.8851 25.6594C21.9327 25.7501 21.9017 25.86 21.8133 25.9066C21.7775 25.9255 21.7308 25.9286 21.6774 25.9187L21.0337 25.7864L21.1387 25.9865L21.1382 25.986ZM21.0099 25.4441C21.1046 25.3943 21.1468 25.3616 21.1723 25.3185C21.2136 25.2485 21.2163 25.1615 21.1777 25.0875C21.136 25.0077 21.0508 24.9579 20.9583 24.961C20.9086 24.9628 20.8843 24.9731 20.783 25.0261L20.6672 25.0866L20.8879 25.5078L21.0099 25.4437V25.4441Z" fill="#110F23"/>
<path d="M21.4567 24.5326L21.4329 24.4999C21.3607 24.3994 21.3728 24.2944 21.4612 24.2303C21.55 24.1666 21.6568 24.189 21.7281 24.2872L21.7519 24.32L22.1843 24.9197C22.279 25.0507 22.4508 25.0821 22.5782 24.9906C22.6513 24.9377 22.6966 24.8498 22.6939 24.7609C22.6939 24.6995 22.6773 24.6528 22.6302 24.5869L22.2036 23.9948L22.1798 23.962C22.1094 23.8602 22.1215 23.7548 22.2081 23.6924C22.2969 23.6287 22.4037 23.6512 22.475 23.7494L22.4988 23.7821L22.9254 24.3743C23.1407 24.673 23.0824 25.0642 22.7894 25.2755C22.4961 25.4867 22.0977 25.4221 21.8896 25.1328L21.4572 24.5331L21.4567 24.5326Z" fill="#110F23"/>
<path d="M23.4381 22.9711C23.5018 23.0384 23.5027 23.1425 23.439 23.203C23.4166 23.2246 23.3843 23.2385 23.3524 23.243C23.3475 23.2443 23.3071 23.247 23.2497 23.2524C23.1703 23.2587 23.1061 23.2842 23.0631 23.325C22.9922 23.3923 22.9796 23.496 23.0339 23.5529C23.0882 23.6099 23.1488 23.6045 23.2784 23.5305C23.4013 23.4596 23.4964 23.4148 23.5794 23.3883C23.7539 23.3304 23.9194 23.3735 24.0455 23.5058C24.2585 23.7297 24.2339 24.0455 23.9858 24.2814C23.762 24.4945 23.439 24.5519 23.2981 24.4039C23.2344 24.3366 23.2335 24.2258 23.2972 24.1652C23.3457 24.1195 23.3982 24.102 23.5022 24.0979C23.6283 24.0962 23.7081 24.0697 23.7669 24.0136C23.8445 23.94 23.8521 23.8306 23.7848 23.7602C23.7274 23.7001 23.6503 23.7014 23.5309 23.7624L23.3861 23.8378C23.2788 23.8938 23.182 23.9302 23.1093 23.94C22.9962 23.9589 22.8796 23.9122 22.7845 23.8127C22.5961 23.6144 22.6271 23.3192 22.863 23.0949C23.0631 22.9047 23.3215 22.8491 23.4381 22.9716V22.9711Z" fill="#110F23"/>
<path d="M24.8839 22.9263L24.9153 22.9518C25.0095 23.0321 25.0269 23.1384 24.9579 23.2228C24.8901 23.3058 24.7789 23.3102 24.6851 23.2335L24.6537 23.208L23.8602 22.5593L23.696 22.7598L23.6736 22.7876C23.5996 22.8747 23.5049 22.889 23.4273 22.8258C23.352 22.7639 23.3452 22.6634 23.4157 22.5768L23.4381 22.549L24.019 21.838C24.0917 21.7528 24.1877 21.7366 24.2653 21.7999C24.3424 21.8631 24.346 21.9641 24.2769 22.0488L24.0903 22.2772L24.8839 22.9258V22.9263Z" fill="#110F23"/>
<path d="M16.0002 25.3863C10.8245 25.3863 6.61419 21.1759 6.61419 16.0002C6.61419 10.8245 10.8245 6.61419 16.0002 6.61419C21.1759 6.61419 25.3863 10.8245 25.3863 16.0002C25.3863 21.1759 21.1755 25.3863 16.0002 25.3863ZM16.0002 7.01791C11.0475 7.01791 7.01791 11.0475 7.01791 16.0002C7.01791 20.953 11.0475 24.9825 16.0002 24.9825C20.953 24.9825 24.9825 20.953 24.9825 16.0002C24.9825 11.0475 20.953 7.01791 16.0002 7.01791Z" fill="#110F23"/>
<path d="M16.0002 28.293C12.7166 28.293 9.62953 27.0141 7.30769 24.6923C4.98585 22.3705 3.70696 19.2834 3.70696 15.9998C3.70696 12.7162 4.98585 9.62908 7.30769 7.30724C9.62953 4.98585 12.7166 3.70696 16.0002 3.70696C19.2838 3.70696 22.3709 4.98585 24.6928 7.30769C27.0146 9.62953 28.2935 12.7166 28.2935 16.0002C28.2935 19.2838 27.0146 22.3709 24.6928 24.6928C22.3709 27.0146 19.2838 28.2935 16.0002 28.2935V28.293ZM16.0002 4.11068C12.8243 4.11068 9.83901 5.34741 7.59343 7.59299C5.34786 9.83856 4.11113 12.8243 4.11113 15.9998C4.11113 19.1753 5.34786 22.161 7.59343 24.4066C9.83901 26.6521 12.8247 27.8889 16.0002 27.8889C19.1757 27.8889 22.1614 26.6521 24.407 24.4066C26.6526 22.161 27.8893 19.1753 27.8893 15.9998C27.8893 12.8243 26.6526 9.83856 24.407 7.59299C22.1614 5.34741 19.1757 4.11068 16.0002 4.11068Z" fill="#110F23"/>
<path d="M16.0002 29C12.5278 29 9.26304 27.6475 6.80797 25.1925C4.35291 22.7374 3 19.4727 3 16.0002C3 12.5278 4.35246 9.26304 6.80753 6.80753C9.26304 4.35246 12.5278 3 16.0002 3C19.4727 3 22.7374 4.35246 25.1925 6.80753C27.648 9.26304 29 12.5273 29 15.9998C29 19.4722 27.6475 22.737 25.1925 25.192C22.7374 27.6471 19.4727 28.9996 16.0002 28.9996V29ZM16.0002 3.40372C12.6354 3.40372 9.47253 4.71401 7.09327 7.09327C4.71401 9.47208 3.40372 12.6354 3.40372 16.0002C3.40372 19.365 4.71401 22.5279 7.09327 24.9072C9.47253 27.2864 12.6354 28.5967 16.0002 28.5967C19.365 28.5967 22.5279 27.2864 24.9072 24.9072C27.2864 22.5279 28.5967 19.365 28.5967 16.0002C28.5967 12.6354 27.2864 9.47253 24.9072 7.09327C22.5279 4.71401 19.365 3.40372 16.0002 3.40372Z" fill="#110F23"/>
</svg>
