<svg width="32" height="32" viewBox="0 0 32 32" fill="none" xmlns="http://www.w3.org/2000/svg">
<g clip-path="url(#clip0_4_1877)">
<path d="M21.4301 5.0766C22.2488 5.00069 22.6988 4.89767 24.32 5.42902V3.21146C23.2085 2.93494 21.8747 2.97289 20.7632 3.07591C19.5487 3.14639 16.7944 4.42597 16.7944 7.4026V8.75266H15.1841V10.7696H16.7944V18.382C16.7944 18.382 15.7534 17.3898 13.6117 17.3898C10.6351 17.3898 8 19.6833 8 22.969C8 26.2546 10.4453 28.6132 13.6822 28.6132C16.9191 28.6132 19.1746 25.848 19.2397 22.969C19.3101 20.0953 19.2397 16.8259 19.2397 16.8259V10.7696H23.4579V8.75266H19.0878V7.52189C19.0878 6.17183 20.4921 5.16335 21.4301 5.0766ZM13.7039 26.1679C11.8875 26.1679 10.4182 24.6985 10.4182 22.8822C10.4182 21.0659 11.8875 19.5965 13.7039 19.5965C15.5202 19.5965 16.9896 21.0659 16.9896 22.8822C16.9896 24.6985 15.5202 26.1679 13.7039 26.1679Z" fill="#110F23"/>
</g>
<defs>
<clipPath id="clip0_4_1877">
<rect width="16.32" height="25.6132" fill="white" transform="translate(8 3)"/>
</clipPath>
</defs>
</svg>
