<svg width="32" height="32" viewBox="0 0 32 32" fill="none" xmlns="http://www.w3.org/2000/svg">
<path d="M17.3932 25.1534C17.3102 25.0212 17.2682 24.8536 17.2718 24.6604C17.274 24.5388 17.3486 24.4318 17.4612 24.388C17.5743 24.3442 17.7006 24.3725 17.7841 24.4601C17.8172 24.4946 17.8578 24.5326 17.9051 24.5693C17.8856 24.3336 17.9068 24.0918 17.9347 23.9025C17.9603 23.7305 18.0429 23.5705 18.1736 23.4387C18.2107 23.4016 18.2385 23.3582 18.2566 23.3105C18.3312 23.1102 18.56 22.9532 18.7 22.8727V21.8102L19.0157 22.2157C19.1058 22.3311 19.2101 22.4584 19.2979 22.5593C19.3077 22.462 19.3161 22.351 19.3214 22.2506L19.3421 21.8637L19.623 22.1352L19.7462 21.5582L20.0924 22.3877C20.156 22.3802 20.2231 22.3762 20.2885 22.3749L23.2112 18.1682L15.9805 22.3116V28.5757L17.8008 25.9554C17.6595 25.9378 17.5531 25.8913 17.4771 25.8157C17.2749 25.6141 17.2974 25.3546 17.3932 25.1534Z" fill="#110F23" fill-opacity="0.5"/>
<path d="M20.4581 11.878C20.4581 11.878 20.372 11.5827 20.4276 11.347C20.4833 11.1118 20.5146 10.6157 20.3782 10.5847L20.3256 10.6373V10.9057C20.3256 10.9716 20.2722 11.0247 20.2064 11.0247C20.1732 11.0247 20.1437 11.0114 20.122 10.9897C20.1004 10.9681 20.0871 10.9384 20.0871 10.9053C20.088 10.579 20.096 9.68627 20.1618 9.52488C20.2421 9.32679 19.982 9.09732 19.914 9.37632C19.846 9.65532 20.0434 10.7872 19.7312 10.6674L16.7697 5.73694C16.7697 5.73694 16.7091 5.55963 16.8438 5.44158C16.9282 5.36774 16.9662 5.20989 16.983 5.102C16.9905 5.05248 16.9516 5.01048 16.9043 5.01048C16.8995 5.01048 16.8942 5.01092 16.8889 5.0118C16.824 5.02463 16.7639 4.97511 16.7639 4.90922V3C16.4309 3 16.3762 3.65793 16.3762 3.92764C16.3762 4.19736 16.6456 4.43347 16.4605 4.61873C16.2755 4.80399 16.0979 4.61873 16.0979 4.61873L15.9805 4.4233V14.4836L23.2112 16.4614L20.4581 11.878Z" fill="#110F23" fill-opacity="0.5"/>
<path d="M11.8643 16.6635C12.0268 16.6635 12.1788 16.7267 12.2931 16.8417C12.4066 16.9544 12.4698 17.1069 12.4698 17.2697V17.9815C12.4844 17.9798 12.4989 17.9793 12.514 17.9793C12.6244 17.9793 12.7281 18.0226 12.8063 18.1009C12.8845 18.1792 12.9278 18.2831 12.9278 18.3936V19.0184L15.9807 20.8869L15.9805 14.4836L8.75 16.4614L11.2589 17.997V17.2697C11.2589 16.9354 11.5305 16.6635 11.8643 16.6635Z" fill="#110F23" fill-opacity="0.5"/>
<path d="M22.9278 24.9087C22.9278 24.9087 22.9269 24.9087 22.926 24.91C22.9022 24.9339 22.6072 24.8061 22.6072 24.8061C22.6072 24.8061 22.7428 23.8563 22.1925 23.2899L22.416 22.7708L21.7942 22.9787C21.7942 22.9787 21.7703 22.7868 21.818 22.6192C21.818 22.6192 21.5627 22.7549 21.4192 22.7072C21.2761 22.6594 21.3397 22.2204 21.3397 22.2204C21.3397 22.2204 21.1167 22.3481 21.0686 22.4357L21.0368 22.0767C21.0368 22.0767 20.7497 22.3561 20.6464 22.5635C20.6464 22.5635 20.2078 22.5237 19.9844 22.5873L19.8011 22.1483L19.7296 22.4839L19.4982 22.2602C19.4982 22.2602 19.4664 22.8588 19.4107 22.8986C19.3551 22.9384 18.8768 22.3243 18.8768 22.3243V22.9787C18.8768 22.9787 18.5019 23.1595 18.4224 23.3722C18.3914 23.4549 18.3446 23.5176 18.2991 23.5632C18.1998 23.6631 18.1304 23.7887 18.1097 23.928C18.0713 24.1871 18.0412 24.585 18.1468 24.8835C18.1534 24.8852 18.1592 24.8874 18.1658 24.8888C18.2157 24.8998 18.2669 24.9056 18.3186 24.9056C18.4515 24.9056 18.5601 24.9502 18.6414 25.0378C18.8092 25.2186 18.8044 25.5233 18.8017 25.5869C18.8565 25.7006 19.4306 26.8541 20.1911 27.1305C20.2591 27.1415 20.3289 27.1517 20.4017 27.1597C20.4017 27.1597 20.2158 27.8145 19.889 27.9423C19.889 27.9423 20.4711 28.2544 20.6384 27.9984C20.6548 27.9737 20.6702 27.9476 20.6835 27.9211C20.6835 27.9211 20.8354 28.0037 20.9758 27.9211C20.9387 28.3385 20.8557 28.8102 20.6698 28.9716C20.6698 28.9716 21.7937 29.187 21.8653 28.4291C21.8798 28.2757 21.8838 28.1315 21.8812 27.9984C22.0481 27.9909 22.4235 27.7265 22.4235 27.7265C21.9527 27.6372 21.8176 27.3485 21.8025 27.3127C21.8021 27.3118 21.8017 27.3104 21.8017 27.31C21.7761 27.1933 21.754 27.1283 21.754 27.1283C21.754 27.1283 22.6783 26.4655 22.7185 25.3884L22.9256 25.2367L22.7344 25.1408C22.7344 25.1408 22.9278 24.9122 22.9278 24.9087ZM18.8326 23.7042C18.7792 23.8369 18.6803 23.9218 18.6118 23.8944C18.5434 23.8665 18.5314 23.737 18.5849 23.6043C18.6383 23.4717 18.7372 23.3868 18.8057 23.4142C18.8741 23.442 18.8861 23.572 18.8326 23.7042Z" fill="#110F23"/>
<path d="M19.1349 26.3149C18.9247 26.0199 18.782 25.744 18.7348 25.6494C18.6725 25.6675 18.5378 25.7051 18.3828 25.7365C18.4349 25.9262 18.7109 26.7044 19.8031 27.0431C19.8212 27.0484 19.8388 27.0533 19.8574 27.0586C19.6141 26.8972 19.3725 26.6482 19.1349 26.3149Z" fill="#110F23"/>
<path d="M18.5773 25.098C18.5133 25.029 18.4263 24.9941 18.3194 24.9941C18.2616 24.9941 18.2037 24.9879 18.1476 24.9755C17.9025 24.9224 17.7113 24.7655 17.5938 24.6434C17.5859 24.635 17.5775 24.6328 17.5704 24.6328C17.5651 24.6328 17.5607 24.6341 17.558 24.635C17.5519 24.6372 17.5377 24.6452 17.5373 24.6651C17.5346 24.8008 17.5598 24.987 17.6936 25.0997L17.7267 25.1276L17.6989 25.1612C17.6897 25.1722 17.475 25.4393 17.664 25.6285C17.7466 25.7112 17.9794 25.7218 18.3198 25.6582C18.4947 25.6254 18.6506 25.5812 18.7138 25.5627C18.7147 25.4787 18.7067 25.2372 18.5773 25.098Z" fill="#110F23"/>
<path d="M23.2112 16.4614L15.9805 20.8869V14.4836L23.2112 16.4614Z" fill="#110F23"/>
<path d="M13.5001 8.55307C13.5001 8.55307 13.2784 8.72639 13.2895 8.5115C13.3009 8.29706 13.4873 7.77664 13.2104 7.77664C12.9335 7.77664 13.1879 8.4664 12.9679 8.40981C12.7476 8.35321 12.9397 7.57325 12.7476 7.56175C12.5555 7.55026 12.2786 7.93493 12.4989 8.43811C12.7193 8.94128 13.0267 9.34099 12.8156 9.6925L8.75 16.4614L15.9805 14.4836L15.9807 4.42334L13.5001 8.55307Z" fill="#110F23"/>
<path d="M13.2489 7.43166C13.3235 7.43166 13.3844 7.35561 13.3844 7.26187C13.3844 7.16814 13.3235 7.09253 13.2489 7.09253C13.1742 7.09253 13.1133 7.16814 13.1133 7.26187C13.1133 7.35561 13.1738 7.43166 13.2489 7.43166Z" fill="#110F23"/>
<path d="M13.6582 20.9303C13.6471 20.9241 13.6361 20.9175 13.6241 20.9104C12.9268 20.4961 12.82 19.9522 12.8041 19.7944C12.8721 19.7944 12.9361 19.7679 12.9847 19.7197C13.0328 19.6719 13.0598 19.6078 13.0598 19.5388C13.0598 19.4698 13.0333 19.4057 12.9851 19.3575C12.937 19.3093 12.8725 19.2828 12.8041 19.2828C12.7506 19.2828 12.7073 19.2395 12.7073 19.186V18.3941C12.7073 18.3428 12.687 18.2942 12.6508 18.2575C12.6142 18.2208 12.566 18.2009 12.5143 18.2009C12.4084 18.2009 12.3218 18.2875 12.3218 18.3941V18.8588C12.3218 18.8782 12.305 18.895 12.2856 18.895C12.2662 18.895 12.2494 18.8782 12.2494 18.8588V17.2701C12.2494 17.1667 12.2092 17.0703 12.1368 16.9982C12.0643 16.9252 11.9681 16.885 11.8647 16.885C11.6527 16.885 11.4801 17.0579 11.4801 17.2701V19.1037C11.4801 19.3098 11.4381 19.4446 11.3586 19.4942C11.2805 19.5428 11.174 19.5026 11.1171 19.4747L11.1131 19.4729C11.0914 19.4619 11.0755 19.4517 11.0654 19.4455L8.60156 18.0337L16.0244 28.7184V22.2873L13.6582 20.9303Z" fill="#110F23"/>
<path d="M9.82799 11.3323L9.99714 11.0038H9.64119C9.53476 10.8539 9.40624 10.7213 9.2583 10.6129V10.1708C9.2583 10.1708 9.07105 10.3596 9.00039 10.3357C8.92973 10.3123 8.95314 10.1708 8.95314 10.1708H8.66432L8.7023 9.87231C8.7023 9.87231 8.42142 10.2437 8.27569 10.2437C8.27127 10.2437 8.26685 10.2433 8.26244 10.2424C8.12112 10.2181 8.08181 9.91122 8.08181 9.91122L7.88882 10.1867C7.88882 10.1867 7.79167 10.1 7.77577 9.9351C7.77577 9.9351 7.67905 10.0434 7.62385 10.2039L7.35976 10.0293L7.37389 10.203H7.12437C7.12437 10.203 7.18576 10.5064 7.17781 10.677C6.95479 10.6806 6.73972 10.5439 6.73972 10.5439C6.73972 10.5439 6.8647 10.9998 6.7406 11.2501C6.74016 11.2505 6.74016 11.2514 6.73972 11.2518H6.05697C6.05697 11.2518 6.54055 11.5105 6.54099 11.6882C6.48667 11.8448 6.44692 12.007 6.42131 12.1715C6.42131 12.1715 6.14485 12.3395 6 12.4505C6 12.4505 6.3586 12.5133 6.38686 12.6L6.09627 12.856L6.39923 12.8847C6.40453 12.9409 6.41203 12.997 6.42087 13.0527C6.42087 13.0527 6.27425 13.2955 6.14883 13.3101L6.39525 13.3737L6.20977 13.6527L6.58074 13.62C6.65669 13.8 6.75694 13.9605 6.88722 14.0936C6.8965 14.0489 6.90842 14.0034 6.92255 13.9574C6.97246 13.7779 7.06255 13.5992 7.18797 13.4325C7.19901 13.418 7.21093 13.4034 7.22286 13.3888C7.26569 13.3353 7.31206 13.2827 7.36329 13.2305C7.46928 13.1226 7.59338 13.0174 7.73735 12.913C7.8164 12.856 7.90428 12.795 7.99835 12.7348C8.33796 12.5177 8.76501 12.3095 9.19691 12.3285C9.2031 12.3285 9.20972 12.3294 9.21635 12.3298C9.46498 12.3444 9.66989 12.4293 9.80371 12.5677C9.85052 12.6106 9.89115 12.6592 9.92383 12.7136C9.96181 12.5642 9.98565 12.4112 9.9936 12.2573C10.0051 12.0194 9.97859 11.7802 9.90925 11.5534C9.88629 11.4778 9.85979 11.4035 9.82799 11.3323ZM8.90633 10.7969C8.90633 10.8791 8.85201 10.9459 8.78532 10.9459C8.71864 10.9459 8.66432 10.8791 8.66432 10.7969C8.66432 10.7146 8.71864 10.6479 8.78532 10.6479C8.85201 10.6479 8.90633 10.7146 8.90633 10.7969ZM7.53111 12.9621C7.51035 13.0664 7.35269 13.1743 7.12437 13.1743C7.06166 13.1743 7.00867 13.1491 6.97113 13.1009C6.82981 12.9196 6.94022 12.4527 6.95347 12.4001C6.95921 12.3762 6.9835 12.3621 7.0069 12.3678C7.03075 12.3736 7.04488 12.3979 7.03914 12.4213C7.00646 12.5527 6.94331 12.9214 7.04091 13.0465C7.06166 13.0735 7.0886 13.0859 7.12437 13.0859C7.31251 13.0859 7.40878 13.0098 7.43572 12.9652C7.44588 12.9479 7.44499 12.9387 7.44455 12.9373C7.44455 12.9373 7.44367 12.936 7.44058 12.9347C7.40127 12.9183 7.35358 12.8688 7.33591 12.6265C7.32708 12.5027 7.32973 12.386 7.32973 12.3811C7.33017 12.3568 7.35137 12.3369 7.37477 12.3382C7.39906 12.3387 7.4185 12.359 7.41761 12.3833C7.41187 12.6097 7.43881 12.829 7.47458 12.8529C7.5183 12.871 7.54083 12.9135 7.53111 12.9621ZM7.88882 10.8871C7.88882 10.7893 7.95683 10.7098 8.04074 10.7098C8.12465 10.7098 8.19266 10.7893 8.19266 10.8871C8.19266 10.9848 8.12465 11.0644 8.04074 11.0644C7.95683 11.0644 7.88882 10.9848 7.88882 10.8871ZM8.91074 11.2899C8.84097 11.4199 8.70848 11.6476 8.61265 11.6882C8.5124 11.7311 8.28452 11.5812 8.17235 11.5003C8.1326 11.4716 8.12465 11.4163 8.15247 11.3765C8.35076 11.0944 8.68728 11.1289 8.85554 11.1683C8.90942 11.1811 8.9368 11.2408 8.91074 11.2899ZM9.74674 12.0818L9.54491 12.2418C9.5193 12.2622 9.48839 12.2728 9.45703 12.2728C9.44555 12.2728 9.43362 12.2714 9.42214 12.2684C9.37886 12.2573 9.34398 12.2277 9.32631 12.1866C9.23357 11.9712 9.19426 11.9248 9.18411 11.916C9.166 11.8996 9.16512 11.8713 9.18146 11.8536C9.1978 11.8355 9.22606 11.8346 9.24373 11.851C9.25742 11.8638 9.29981 11.9027 9.40713 12.1521C9.41375 12.1675 9.427 12.179 9.44334 12.183C9.45968 12.187 9.47646 12.1835 9.48971 12.1728L9.69153 12.0128C9.70478 12.0022 9.71229 11.9867 9.71185 11.9699C9.71185 11.9531 9.70346 11.9376 9.69021 11.9275L9.41728 11.7241C9.39785 11.7095 9.39344 11.6816 9.40801 11.6622C9.42258 11.6427 9.45041 11.6387 9.46984 11.6529L9.74276 11.8563C9.77853 11.8828 9.79929 11.9235 9.80017 11.9681C9.80106 12.0128 9.78162 12.0543 9.74674 12.0818Z" fill="#110F23"/>
<path d="M9.19856 12.4171C9.19856 12.4171 9.19503 12.4171 9.1937 12.4171C8.92387 12.4052 8.65271 12.4892 8.40452 12.6082C8.17222 12.7196 7.96025 12.862 7.78978 12.9849C7.65155 13.0848 7.53364 13.1847 7.43206 13.2873C7.36759 13.3523 7.30973 13.4186 7.25895 13.4863C7.15207 13.6278 7.06507 13.8015 7.0112 13.9722C6.99706 14.0213 6.98602 14.0704 6.97852 14.1194C7.07744 14.2065 7.19138 14.2764 7.31724 14.3268C7.33093 14.3321 7.3455 14.3379 7.36008 14.3427C7.47623 14.3838 7.59856 14.4095 7.72442 14.4197C7.73678 14.4205 7.75003 14.4214 7.76284 14.4219C8.08876 14.4338 8.42792 14.3467 8.77239 14.1628L8.77902 14.1592C9.10979 13.9647 9.40789 13.6715 9.61633 13.3359C9.71747 13.1728 9.7974 12.995 9.85481 12.8067C9.83229 12.7457 9.80049 12.6939 9.7634 12.6506C9.61633 12.5038 9.39199 12.4273 9.19944 12.418L9.19856 12.4171Z" fill="#110F23"/>
<path d="M7.82281 14.511C7.80162 14.511 7.78042 14.511 7.75922 14.5097C7.74553 14.5093 7.7314 14.5084 7.71727 14.5075C7.70048 14.5062 7.68414 14.5039 7.6678 14.5017C7.55166 14.4889 7.43816 14.4637 7.33084 14.4257C7.32069 14.4222 7.31053 14.4182 7.30081 14.4146C7.28227 14.6211 6.99609 14.8254 6.99609 14.8254C6.99609 14.8254 7.48188 14.8984 7.40371 15.0562C7.37147 15.1212 7.39046 15.2976 7.43242 15.4723C7.49204 15.7234 7.59935 15.971 7.67001 15.8817C7.79013 15.73 8.26002 15.7194 8.33333 15.6253C8.36689 15.5824 8.37749 15.3197 8.37882 15.0474C8.37882 15.0474 8.385 15.0712 8.52632 14.9717C8.6672 14.8723 8.79483 14.9978 8.79483 14.9978V14.2493C8.65262 14.324 8.5113 14.3819 8.37087 14.4248C8.18539 14.4814 8.00255 14.511 7.82281 14.511Z" fill="#110F23"/>
<path d="M21.3978 10.7408L21.3943 10.6935C21.3912 10.6387 21.3903 10.5843 21.3903 10.5317C21.3903 10.3407 21.4093 10.151 21.4473 9.96704C21.3139 10.0789 21.0768 10.2642 20.8776 10.3433C20.8581 10.3513 20.8436 10.3667 20.8374 10.3871C20.8308 10.4083 20.8339 10.4309 20.8462 10.4494C20.9235 10.5662 21.0242 10.7306 21.0657 10.8505C21.0772 10.8841 21.1081 10.9049 21.1417 10.9018C21.2644 10.8894 21.3567 10.8558 21.404 10.8063C21.4018 10.7846 21.3996 10.7629 21.3978 10.7408Z" fill="#110F23"/>
<path d="M24.2976 12.7233C24.2901 12.7273 24.2826 12.7308 24.2746 12.7348C24.0865 12.833 23.8869 12.8971 23.6807 12.9249C23.6771 12.9254 23.6732 12.9258 23.6696 12.9262C23.6427 13.1327 23.5014 14.002 23.0059 14.22C23.0059 14.22 23.9368 14.3235 24.2857 14.2041C24.3347 14.1873 24.3674 14.1413 24.3674 14.0896V13.5926C24.5003 13.5789 24.6235 13.547 24.6787 13.4422C24.7803 13.2499 24.6513 12.6813 24.6103 12.5142C24.5109 12.5951 24.4058 12.6658 24.2976 12.7233Z" fill="#110F23"/>
<path d="M23.1012 13.5579C23.2579 13.5079 23.2297 13.0693 23.216 12.9265C23.2124 12.926 23.2085 12.926 23.2049 12.9251C23.0548 12.9048 22.9077 12.8646 22.7673 12.8066C22.7461 13.1312 22.418 13.4553 22.418 13.4553C22.5805 13.4425 22.913 13.6176 23.1012 13.5579Z" fill="#110F23"/>
<path d="M24.7106 11.8732C24.5507 11.5402 24.5697 10.7589 24.7998 10.4711C24.8779 10.3734 24.9764 10.3349 25.0842 10.3597L25.1142 10.3667L25.1182 10.3972C25.1191 10.403 25.1756 10.8164 25.3867 11.1405C25.4304 10.946 25.4547 10.7421 25.4547 10.5317C25.4547 10.2924 25.4247 10.0616 25.3686 9.84454L25.6283 9.63187L25.3355 9.48773L25.4547 9.2945L25.1968 9.24675C25.1968 9.24675 25.135 9.1592 25.3068 9.0301L25.1138 8.97217V8.75021H24.8704L24.8347 8.49951H24.5843C24.5843 8.49951 24.5631 8.25632 24.749 8.20592L24.5414 8.16612C24.5414 8.16612 24.4646 7.88491 24.6487 7.74829C24.6298 7.75669 24.3246 7.89508 24.2482 8.0127C24.1696 8.13473 24.1126 7.99147 24.0124 7.94107C23.9121 7.8911 23.6476 7.95566 23.6476 7.95566L23.6979 7.53296L23.376 7.86944L23.0973 7.64792L23.0465 8.03436H22.6968V8.33547C22.6968 8.33547 22.4393 8.1847 22.3108 8.19884V8.5791C22.2847 8.59988 22.2591 8.62154 22.2339 8.64409L22.0728 8.49951L22.0246 8.85854C21.9968 8.89126 21.9699 8.92486 21.9434 8.95979L21.6386 8.813L21.723 9.31175C21.723 9.31175 21.4956 9.47314 21.3379 9.46606C21.3379 9.46606 21.4995 9.66238 21.5406 9.77513C21.5384 9.78353 21.5362 9.79193 21.534 9.80033C21.53 9.81492 21.526 9.82995 21.522 9.84454C21.5159 9.86886 21.5097 9.89362 21.5044 9.91838C21.5035 9.92236 21.5026 9.92634 21.5017 9.93077C21.4969 9.95332 21.492 9.97586 21.4876 9.99841C21.4863 10.0055 21.485 10.0121 21.4836 10.0192C21.4797 10.04 21.4761 10.0608 21.4726 10.082C21.4713 10.0913 21.4695 10.1006 21.4682 10.1098C21.4651 10.1293 21.4624 10.1483 21.4598 10.1678C21.4585 10.1793 21.4567 10.1912 21.4554 10.2031C21.4532 10.2208 21.4514 10.2385 21.4496 10.2562C21.4483 10.2708 21.447 10.2854 21.4456 10.3C21.4443 10.3154 21.443 10.3309 21.4421 10.3464C21.4408 10.365 21.4399 10.3831 21.439 10.4017C21.4386 10.414 21.4377 10.426 21.4373 10.4384C21.4364 10.4693 21.4355 10.5007 21.4355 10.5321C21.4355 10.5511 21.4364 10.5697 21.4364 10.5887C21.4474 10.5582 21.462 10.525 21.4801 10.4896C21.5309 10.3924 21.6121 10.2823 21.7433 10.1916C22.0449 9.98338 22.4914 9.95464 23.0704 10.1072C24.4774 10.4773 24.6691 12.1181 24.6911 12.3869C24.8002 12.2852 24.9005 12.1712 24.9892 12.0451C24.9685 12.0474 24.9482 12.0491 24.9274 12.0491C24.8669 12.0491 24.7799 12.0182 24.7106 11.8732ZM22.7038 8.87711C22.6636 8.99738 22.5621 9.07166 22.4773 9.04336C22.3925 9.01506 22.3563 8.89435 22.3965 8.77409C22.4367 8.65382 22.5382 8.57954 22.623 8.60784C22.7078 8.63614 22.744 8.75684 22.7038 8.87711ZM22.0723 9.42273C22.0723 9.42273 22.2247 9.47623 22.3355 9.41875C22.4468 9.36127 22.7471 9.33209 22.7966 9.53415C22.846 9.73622 22.9816 9.88832 22.9816 9.88832C22.2984 9.80608 22.0723 9.42273 22.0723 9.42273ZM23.2753 9.24675C23.1556 9.24675 23.0589 9.14948 23.0589 9.0301C23.0589 8.91071 23.1561 8.81344 23.2753 8.81344C23.3945 8.81344 23.4917 8.91071 23.4917 9.0301C23.4917 9.14948 23.3945 9.24675 23.2753 9.24675Z" fill="#110F23"/>
<path d="M25.3572 11.2563C25.1325 10.9565 25.0538 10.559 25.0349 10.4414C25.03 10.4414 25.0256 10.4409 25.0212 10.4409C24.9646 10.4409 24.9143 10.4692 24.8684 10.5263C24.6595 10.7876 24.6431 11.5295 24.7898 11.8346C24.8171 11.8916 24.8631 11.9597 24.9267 11.9597C24.9699 11.9597 25.0137 11.9526 25.0574 11.9416C25.321 11.8739 25.5745 11.629 25.6695 11.5286C25.5427 11.4636 25.4398 11.3668 25.3572 11.2563Z" fill="#110F23"/>
<path d="M23.2177 12.8375C23.3652 12.8578 23.5224 12.8582 23.6708 12.8375C23.8748 12.81 24.0722 12.7455 24.2577 12.6456C24.3668 12.5876 24.4723 12.516 24.5721 12.4333C24.5832 12.4245 24.5938 12.4152 24.6044 12.4064C24.5894 12.2007 24.426 10.5546 23.0485 10.1925C22.4965 10.0475 22.0748 10.0709 21.7957 10.2632C21.5342 10.4432 21.4914 10.716 21.4883 10.7408C21.4896 10.7607 21.4918 10.7801 21.4936 10.7996C21.494 10.8057 21.4945 10.8124 21.4953 10.8186L21.4962 10.827C21.5894 11.6892 22.0893 12.4254 22.7875 12.7185C22.9258 12.7773 23.0697 12.8176 23.2177 12.8375Z" fill="#110F23"/>
</svg>
