<svg width="32" height="32" viewBox="0 0 32 32" fill="none" xmlns="http://www.w3.org/2000/svg">
<path d="M16 3C8.82036 3 3 8.82036 3 16C3 23.1796 8.82036 29 16 29C23.1796 29 29 23.1796 29 16C29 8.82036 23.1796 3 16 3ZM15.4623 7.732C18.5256 7.732 21.0086 10.0242 21.0086 12.8519V12.8618C21.0086 12.868 21.0086 12.8738 21.0086 12.88V12.8519H16.6724C16.6313 12.3148 16.183 11.892 15.6355 11.892C15.0614 11.892 14.5955 12.3574 14.5955 12.932C14.5955 13.4473 14.9704 13.8753 15.4618 13.9574V17.9718C12.3985 17.9718 9.91548 15.6797 9.91548 12.8519C9.91548 10.0242 12.399 7.732 15.4618 7.732H15.4623ZM16.5548 24.308C13.4915 24.308 11.0085 22.0159 11.0085 19.1881C11.0085 19.1793 11.0085 19.1699 11.0085 19.1611V19.1881H15.3448C15.3854 19.7253 15.8341 20.148 16.3817 20.148C16.9563 20.148 17.4217 19.6826 17.4217 19.108C17.4217 18.5927 17.0468 18.1648 16.5554 18.0826V14.0682C19.6187 14.0682 22.1017 16.3604 22.1017 19.1881C22.1017 22.0159 19.6182 24.308 16.5548 24.308Z" fill="#110F23"/>
</svg>
