<svg width="32" height="32" viewBox="0 0 32 32" fill="none" xmlns="http://www.w3.org/2000/svg">
<g clip-path="url(#clip0_14366_151)">
<path d="M28.5683 17.3615L27.616 13.6492C27.5887 13.5401 27.5007 13.4552 27.3915 13.4278L23.7126 12.521C23.6853 12.5149 23.655 12.5119 23.6277 12.5119C23.5397 12.5028 23.4487 12.5301 23.382 12.5968L17.1736 18.8052L16.3517 15.5964C16.3244 15.4872 16.2365 15.4023 16.1273 15.375L12.967 14.5955L19.1723 8.39016C19.2087 8.35376 19.2299 8.30828 19.2451 8.26276C19.2724 8.20212 19.2815 8.13237 19.2633 8.06565L18.311 4.35335C18.2837 4.24416 18.1957 4.15924 18.0865 4.13195L14.4076 3.2251C14.3348 3.20691 14.262 3.21904 14.1984 3.24937H14.1953C14.1771 3.25846 14.162 3.2706 14.1438 3.28273C14.1286 3.29486 14.1074 3.30093 14.0952 3.31609L3.50429 13.901C3.50429 13.901 3.48609 13.9313 3.47396 13.9465C3.40723 14.0253 3.38297 14.1285 3.4133 14.2285L4.44146 17.8165C4.47179 17.9196 4.55064 17.9984 4.65073 18.0258L8.09611 19.0145L9.08484 22.4568C9.11516 22.56 9.19404 22.6388 9.29412 22.6661L12.7516 23.6578L13.7434 27.1154C13.7737 27.2185 13.8526 27.2974 13.9527 27.3247L17.5558 28.3589C17.5831 28.368 17.6134 28.371 17.6407 28.371C17.6468 28.371 17.6528 28.368 17.6619 28.368C17.6619 28.368 17.665 28.368 17.668 28.368C17.7469 28.368 17.8257 28.3377 17.8864 28.277L28.4804 17.683C28.5168 17.6466 28.5379 17.6011 28.5532 17.5556C28.5804 17.495 28.5895 17.4252 28.5714 17.3585L28.5683 17.3615ZM23.8188 21.4772L23.0454 18.4595L24.759 16.7489L27.7039 17.5951L23.8218 21.4802L23.8188 21.4772ZM17.8105 27.4854L17.0372 24.4677L20.1368 21.368L23.0818 22.2142L17.8105 27.4854ZM20.2005 20.4369L19.4605 17.8589L22.1203 18.514L20.2005 20.4339V20.4369ZM22.5419 18.9629L23.2213 21.6107L20.6342 20.8676L22.5419 18.9599V18.9629ZM22.6299 18.0076L19.6151 17.2645L23.4882 13.3914L24.3253 16.3122L22.6299 18.0076ZM18.866 18.0106L19.7031 20.9313L16.6186 24.0158L13.6039 23.2727L18.866 18.0106ZM27.067 13.9738L27.8404 16.9915L24.9167 16.1514L24.0796 13.2368L27.067 13.9738ZM13.1489 22.8238L12.3756 19.8061L13.4917 18.6899L16.4367 19.5361L13.1489 22.8238ZM13.5554 17.7588L12.8154 15.1809L15.4752 15.836L13.5554 17.7558V17.7588ZM16.5761 18.9356L13.9891 18.1925L15.8968 16.2848L16.5761 18.9326V18.9356ZM13.061 18.2562L11.9601 19.3572L8.94533 18.6141L12.2239 15.3355L13.061 18.2562ZM9.59135 8.68131L10.4285 11.602L7.31666 14.7138L4.30195 13.9707L9.59135 8.68131ZM14.1862 4.08645L15.0233 7.00715L13.3552 8.67527L10.3405 7.93221L14.1862 4.08645ZM14.5441 12.1449L13.7707 9.13018L15.457 7.44389L18.402 8.28704L14.5441 12.1449ZM10.9258 11.1076L10.1858 8.52967L12.8457 9.18478L10.9258 11.1046V11.1076ZM13.2673 9.63364L13.9466 12.2814L11.3626 11.5383L13.2703 9.6306L13.2673 9.63364ZM10.8652 12.0358L13.8101 12.8789L8.51162 18.1774L7.73824 15.1627L10.8652 12.0358ZM17.7651 4.67484L18.5384 7.69259L15.6147 6.85247L14.7776 3.93784L17.7651 4.67484ZM4.1503 14.5682L6.81017 15.2233L4.89033 17.1432L4.1503 14.5652V14.5682ZM5.32404 17.5799L7.23174 15.6722L7.91111 18.3199L5.32707 17.5769L5.32404 17.5799ZM9.62775 22.1263L8.79065 19.2116L11.7781 19.9486L12.5515 22.9663L9.62775 22.1263ZM13.4523 23.8702L16.1121 24.5253L14.1923 26.4451L13.4523 23.8671V23.8702ZM14.626 26.8818L16.5337 24.9741L17.2131 27.6219L14.626 26.8788V26.8818Z" fill="#110F23"/>
</g>
<defs>
<clipPath id="clip0_14366_151">
<rect width="26" height="25.5094" fill="white" transform="translate(3 3)"/>
</clipPath>
</defs>
</svg>
