<svg width="32" height="32" viewBox="0 0 32 32" fill="none" xmlns="http://www.w3.org/2000/svg">
<path fill-rule="evenodd" clip-rule="evenodd" d="M5.36645 16.8807L5.58773 17.268C6.30689 18.5219 7.91116 18.946 9.16507 18.2268L20.229 11.8282L20.8929 12.8977L21.3354 13.6537L21.4092 13.9857V25.3815C21.4092 26.8198 22.5893 28 24.0277 28H24.4702C25.9085 28 27.0887 26.8198 27.0887 25.3815V7.42104C27.0887 6.07492 26.2589 4.91321 25.0787 4.41533C23.9908 3.84369 22.7 3.86213 21.6305 4.47065L6.34377 13.3034C5.08985 14.0225 4.66573 15.6268 5.38489 16.8807H5.36645Z" fill="#110F23"/>
<path fill-rule="evenodd" clip-rule="evenodd" d="M13.6644 11.5516C14.8077 11.3856 17.334 11.6069 18.385 11.8466C19.4361 12.0863 20.3766 12.8424 20.3766 12.8424C20.3766 12.8424 20.3397 12.8239 20.2844 12.8055C21.0773 13.1559 21.4092 13.9672 21.4092 13.9672C21.0588 10.0948 18.3297 7.19976 13.8488 8.95155L6.62036 13.119C6.58348 13.1374 7.50548 12.4367 13.6829 11.5331L13.6644 11.5516ZM18.717 12.7686C18.5326 12.8239 18.3297 12.9161 18.1084 13.0268C18.3113 12.9161 18.5141 12.8239 18.717 12.7686Z" fill="#110F23"/>
<path fill-rule="evenodd" clip-rule="evenodd" d="M10.5112 23.5007L14.568 21.1957L14.8261 21.0481C14.8261 21.0481 15.2687 20.8084 15.6375 21.0481C16.0063 21.2879 15.9878 21.6013 15.9878 21.6013L16.0432 26.7461C16.0432 26.7461 15.8956 27.1702 15.6375 27.3177C15.3793 27.4652 15.2134 27.5021 14.8077 27.373C13.4247 26.912 10.9722 25.9163 10.2162 24.5702C10.0871 24.3489 10.124 24.0907 10.1793 23.9617C10.253 23.6851 10.419 23.556 10.5112 23.5007Z" fill="#110F23"/>
<path fill-rule="evenodd" clip-rule="evenodd" d="M5.01609 15.6452C5.01609 15.6452 4.79481 14.4651 5.99341 13.5062C6.14093 13.3956 6.30689 13.2849 6.49129 13.1927C8.22464 12.1785 12.5211 11.7175 13.6644 11.5516C14.8077 11.3856 17.334 11.6069 18.385 11.8466C19.4361 12.0863 20.3766 12.8424 20.3766 12.8424C20.3766 12.8424 19.2886 12.3629 18.1269 13.0268C16.9652 13.6906 9.16508 18.2084 9.16508 18.2084C9.16508 18.2084 8.27996 18.6694 7.67144 18.5588C7.04448 18.4297 6.36221 18.3559 5.77213 17.5446C5.66149 17.3602 5.58773 17.268 5.44021 17.0098L5.20049 16.5119L5.07141 16.0509L5.03453 15.6452H5.01609Z" fill="#110F23"/>
</svg>
