<svg width="32" height="32" viewBox="0 0 32 32" fill="none" xmlns="http://www.w3.org/2000/svg">
<path d="M26.5415 8.44285L24.4271 11.7321C25.3255 13.5071 25.6404 15.5204 25.3269 17.4848C25.0134 19.4493 24.0875 21.2646 22.6812 22.6717C21.275 24.0788 19.4603 25.0059 17.496 25.3207C15.5318 25.6354 13.5182 25.3218 11.7428 24.4245L8.45547 26.5569C10.9544 28.3559 14.0121 29.2068 17.0811 28.9574C20.1502 28.7079 23.0303 27.3743 25.2059 25.1954C27.3815 23.0164 28.7106 20.1342 28.9554 17.0648C29.2001 13.9954 28.3444 10.939 26.5415 8.44285Z" fill="#110F23"/>
<path d="M16.0016 22.4936C17.5242 22.4934 18.9987 21.96 20.1691 20.986C21.3394 20.012 22.1318 18.659 22.4086 17.1618C20.3769 16.7249 18.2764 16.7177 16.2417 17.1405C14.2071 17.5634 12.2833 18.407 10.5939 19.6173C11.1902 20.5035 11.9954 21.2295 12.9384 21.7311C13.8815 22.2327 14.9334 22.4946 16.0016 22.4936Z" fill="#110F23"/>
<path d="M19.2131 15.6438C20.3244 15.6438 21.4325 15.7628 22.5184 15.9988C22.4885 14.29 21.7887 12.6612 20.5696 11.4633C19.3505 10.2654 17.7098 9.59414 16.0007 9.59414C14.2915 9.59414 12.6508 10.2654 11.4317 11.4633C10.2126 12.6612 9.51282 14.29 9.48292 15.9988C9.48324 16.2905 9.5039 16.5818 9.54476 16.8705C8.64395 17.5278 7.82319 18.2883 7.09924 19.1365C6.47375 17.3605 6.39361 15.4381 6.86912 13.6161C7.34463 11.7942 8.35406 10.1562 9.7677 8.91235C11.1813 7.66855 12.9346 6.87587 14.8022 6.63616C16.6698 6.39646 18.5665 6.72069 20.2484 7.56718L23.5377 5.44082C21.0259 3.63372 17.9506 2.78451 14.8674 3.04662C11.7842 3.30872 8.89641 4.66485 6.72569 6.87002C4.55496 9.07518 3.24446 11.984 3.03093 15.0709C2.81739 18.1578 3.7149 21.2194 5.56131 23.7024C6.1755 22.5968 6.92094 21.5694 7.78143 20.6425C7.78143 20.6425 9.06004 19.3061 10.0414 18.6359C12.7032 16.6895 15.9157 15.6415 19.2131 15.6438Z" fill="#110F23"/>
</svg>
