<svg width="32" height="32" viewBox="0 0 32 32" fill="none" xmlns="http://www.w3.org/2000/svg">
<path d="M28.4799 12.3521C27.5763 9.41843 25.8762 7.07001 23.3792 5.30669C21.0526 3.72226 18.4778 2.95401 15.6549 3.00213C13.5301 3.06331 11.535 3.60526 9.66965 4.62798C7.15703 6.05124 5.30179 8.07895 4.10393 10.711C3.05155 13.1488 2.75157 15.6778 3.20411 18.2983C3.77999 21.3495 5.23082 23.887 7.55659 25.911C9.70544 27.7245 12.1892 28.7443 15.0079 28.9702C17.8436 29.1522 20.469 28.5005 22.8838 27.0151C25.3776 25.4212 27.152 23.2382 28.2069 20.4661C29.1638 17.7914 29.2548 15.0867 28.4799 12.3521ZM26.9532 20.4661C25.8506 23.0836 24.0593 25.0809 21.5796 26.458C19.1654 27.7399 16.6109 28.1451 13.916 27.6736C11.2483 27.169 9.00206 25.9214 7.17746 23.9306C5.18451 21.6652 4.17177 19.0129 4.13931 15.9735C4.18066 12.9195 5.21353 10.2639 7.23812 8.00632C9.1708 5.9312 11.545 4.67681 14.3608 4.24304C14.7319 4.19493 15.1026 4.15947 15.473 4.13668C18.3009 4.03842 20.8453 4.83028 23.1062 6.51215C25.2924 8.21185 26.7399 10.4084 27.4486 13.1017C28.0681 15.6107 27.9029 18.0654 26.9532 20.4661Z" fill="#110F23"/>
<path d="M11.7524 13.1776C12.2027 13.4654 12.6897 13.6663 13.2133 13.7804C14.158 13.9678 15.0259 13.7905 15.8167 13.2486C16.4336 12.7725 17.0268 12.266 17.5961 11.7291C18.3372 11.0169 19.0752 10.3011 19.8103 9.58152C19.9489 9.45145 20.0871 9.32138 20.2248 9.19152C20.124 9.10724 20.0195 9.02792 19.9114 8.95346C19.5561 8.71713 19.1651 8.60064 18.7386 8.60398C18.6654 8.61239 18.5913 8.62424 18.5161 8.63944C18.1842 8.72797 17.8944 8.89005 17.6467 9.12567C17.047 9.73661 16.4438 10.3444 15.8369 10.9491C15.6718 11.101 15.5066 11.253 15.3415 11.4049C15.1504 11.569 14.9381 11.7007 14.7046 11.8C13.8531 12.1205 13.0711 11.9989 12.359 11.4353C12.1301 11.233 11.9228 11.0119 11.7372 10.7718C11.4984 10.4532 11.254 10.1392 11.0042 9.8297C10.5304 10.3297 10.062 10.8345 9.59887 11.3441C10.0131 11.7152 10.4242 12.09 10.8323 12.4686C11.1246 12.7243 11.4313 12.9607 11.7524 13.1776Z" fill="#110F23"/>
<path d="M22.8383 17.65C22.717 17.5217 22.5957 17.3934 22.4743 17.2651C21.8949 16.6947 21.3186 16.1207 20.7455 15.543C20.5774 15.3548 20.4291 15.1522 20.3006 14.9352C19.9688 14.3537 19.9081 13.7459 20.1186 13.1118C20.3011 12.66 20.5725 12.27 20.9325 11.9418C21.2842 11.6265 21.6448 11.3226 22.0143 11.0301C21.6147 10.6195 21.2186 10.2059 20.8264 9.78918C20.7883 9.74593 20.7462 9.70875 20.7 9.67775C20.5976 9.78544 20.4931 9.8918 20.3866 9.99685C19.9807 10.3663 19.5915 10.7529 19.2188 11.1567C18.4806 12.0048 18.1401 12.9942 18.1977 14.1248C18.2481 14.9861 18.5514 15.7424 19.1076 16.3939C19.6305 16.9583 20.168 17.5104 20.7202 18.0501C21.4395 18.7422 22.1574 19.4361 22.8737 20.1318C23.0601 19.9477 23.2067 19.735 23.3135 19.4937C23.5015 19.04 23.478 18.5977 23.2427 18.1666C23.1272 17.9799 22.9924 17.8077 22.8383 17.65Z" fill="#110F23"/>
<path d="M12.3236 21.5399C12.5046 21.3494 12.6832 21.1569 12.8594 20.9625C13.489 20.2576 13.8395 19.4304 13.9109 18.4807C13.9708 17.5059 13.6843 16.6516 13.0515 15.9178C12.6216 15.406 12.1768 14.9062 11.717 14.4186C10.9011 13.5859 10.0839 12.7552 9.26523 11.9266C9.11105 12.0861 8.97789 12.2618 8.86587 12.4534C8.53011 13.0529 8.56721 13.627 8.97708 14.1754C9.09163 14.3038 9.20628 14.432 9.32083 14.5604C9.97436 15.2388 10.6382 15.9074 11.3126 16.5661C11.4662 16.7335 11.6043 16.9125 11.7271 17.103C12.212 17.8784 12.2187 18.6584 11.7473 19.443C11.4784 19.8509 11.1498 20.2038 10.7616 20.5016C10.503 20.6868 10.2503 20.8792 10.0033 21.079C10.4599 21.55 10.9098 22.0278 11.353 22.5124C11.6698 22.1814 11.9933 21.8573 12.3236 21.5399Z" fill="#110F23"/>
<path d="M17.8792 18.2375C16.8418 18.3319 15.9487 18.7388 15.2 19.4582C14.5074 20.1656 13.8081 20.8663 13.1021 21.5602C12.676 22.0039 12.2463 22.4445 11.813 22.8821C11.9407 22.9867 12.0756 23.0812 12.2174 23.1658C12.9841 23.5745 13.6885 23.4868 14.3305 22.9024C14.9775 22.2608 15.6179 21.6124 16.2514 20.9574C16.4492 20.7693 16.6615 20.6005 16.8884 20.4509C17.5868 19.9916 18.3182 19.9309 19.0823 20.2686C19.4263 20.4412 19.7397 20.6573 20.0226 20.9169C20.2218 21.1131 20.424 21.3056 20.6292 21.4943C20.7207 21.5691 20.815 21.64 20.9123 21.7071C21.1085 21.8295 21.2972 21.8194 21.4785 21.6767C21.5608 21.6043 21.6399 21.5284 21.7161 21.4487C21.8778 21.2529 22.0396 21.057 22.2014 20.8612C22.2139 20.8262 22.2257 20.7907 22.2367 20.7548C21.8375 20.2906 21.4196 19.8415 20.9831 19.4076C20.1099 18.5975 19.0754 18.2075 17.8792 18.2375Z" fill="#110F23"/>
</svg>
