<svg width="32" height="32" viewBox="0 0 32 32" fill="none" xmlns="http://www.w3.org/2000/svg">
<path d="M16.7588 28.5077C16.942 28.5077 17.1185 28.4721 17.288 28.401C17.4576 28.3299 17.6135 28.2314 17.7393 28.0974L28.5907 17.2419C28.7179 17.1147 28.8232 16.9588 28.8943 16.7893C28.9654 16.6197 28.9996 16.4433 28.9996 16.26C28.9996 16.0768 28.964 15.9004 28.8943 15.7308C28.8232 15.5612 28.7247 15.4053 28.5907 15.2781L17.7407 4.42403C17.6135 4.29685 17.4576 4.19155 17.2894 4.12044C17.1198 4.04933 16.9434 4.01514 16.7602 4.01514V28.5077H16.7588Z" fill="#110F23"/>
<path opacity="0.5" d="M15.2415 23.9373C14.8887 23.9373 14.529 23.8525 14.2596 23.6829L3.40821 16.8822C2.86393 16.543 2.86393 15.9919 3.40821 15.6528L14.2596 8.84518C14.5276 8.67561 14.8887 8.59082 15.2415 8.59082V23.9373Z" fill="#110F23"/>
<path opacity="0.5" d="M15.2415 19.3465C14.8887 19.3465 14.529 19.2617 14.2596 19.0921L3.40821 12.2914C2.86393 11.9522 2.86393 11.4011 3.40821 11.0619L14.261 4.25436C14.529 4.08479 14.89 4 15.2428 4V19.3465H15.2415Z" fill="#110F23"/>
<path opacity="0.5" d="M15.2415 28.528C14.8887 28.528 14.529 28.4432 14.2596 28.2736L3.40821 21.4661C2.86393 21.1269 2.86393 20.5758 3.40821 20.2367L14.2596 13.4277C14.5276 13.2581 14.8887 13.1733 15.2415 13.1733V28.528Z" fill="#110F23"/>
</svg>
