<svg width="32" height="32" viewBox="0 0 32 32" fill="none" xmlns="http://www.w3.org/2000/svg">
<path d="M23.0632 20.4977C24.0016 21.7586 24.9693 23.0489 25.937 24.3391C24.0016 26.6264 21.597 28.0926 18.6939 28.7084C15.4682 29.3829 12.4185 28.8844 9.45675 27.2422C12.0959 25.2775 14.6765 23.3421 17.2863 21.4067C17.8728 21.9639 18.43 22.521 18.9871 23.0489C19.6029 23.6353 19.3683 23.6647 20.1601 23.2248C21.2451 22.609 22.1541 21.7586 22.8579 20.7322C22.8872 20.6736 22.9459 20.6149 22.9752 20.5563C22.9459 20.5563 22.9752 20.5563 23.0632 20.4977ZM11.5388 23.0782C10.8057 23.6353 10.1312 24.1339 9.45675 24.6617C8.95823 25.0429 8.45972 25.3948 7.96121 25.776C7.75594 25.952 7.60932 25.952 7.37472 25.7467C5.14608 23.7526 3.73852 21.2894 3.21068 18.357C2.68285 15.3952 3.15203 12.5801 4.5596 9.9116C4.58892 9.85295 4.64757 9.76498 4.67689 9.70633C4.67689 9.67701 4.70622 9.67701 4.76487 9.64768C6.70027 12.1989 8.66499 14.7501 10.6004 17.3013C10.5417 17.3893 10.5124 17.4479 10.4538 17.5066C9.86728 18.1224 9.2808 18.7382 8.66499 19.3247C8.48905 19.5006 8.45972 19.6472 8.57702 19.8525C9.19283 21.0255 10.0432 21.9932 11.0989 22.7849C11.2455 22.8729 11.3628 22.9609 11.5388 23.0782ZM22.4767 4.86783C21.5383 5.54229 20.6 6.21675 19.6616 6.86188C18.0487 8.00553 16.4359 9.1785 14.8524 10.3221C14.6471 10.4688 14.5005 10.4981 14.3246 10.2928C13.7967 9.73566 13.2396 9.23715 12.7117 8.67998C12.5651 8.53336 12.4185 8.50404 12.2132 8.59201C10.9523 9.23715 9.95526 10.1462 9.13418 11.2898C9.07553 11.3485 9.01688 11.4365 8.95823 11.5244C8.48905 10.9086 8.04918 10.3515 7.60932 9.76498C7.14013 9.14917 6.70027 8.53336 6.2604 7.94688C6.11378 7.74161 6.08446 7.59499 6.28973 7.38972C8.54769 4.89716 11.3335 3.43095 14.6765 3.07906C17.3156 2.78581 19.8375 3.31365 22.1835 4.57459C22.2714 4.63324 22.3594 4.66256 22.4474 4.72121C22.4474 4.80919 22.4474 4.83851 22.4767 4.86783ZM27.2566 22.4624C26.6407 21.6706 26.0836 20.9375 25.5264 20.2044C24.2362 18.5036 22.9459 16.7735 21.6263 15.0727C21.4504 14.8381 21.4504 14.6915 21.6556 14.4862C22.2128 13.929 22.7406 13.3719 23.2978 12.8147C23.4444 12.6681 23.5031 12.5215 23.3858 12.3162C22.7406 11.0846 21.8609 10.0582 20.7173 9.23714C20.6293 9.1785 20.5413 9.09052 20.424 9.03188C20.512 8.9439 20.6 8.88525 20.6586 8.82661C21.7729 7.9762 22.8872 7.15512 24.0016 6.30472C24.1775 6.1581 24.3241 6.09945 24.5294 6.30472C27.3152 8.82661 28.8107 11.9643 28.9574 15.7471C29.016 17.9464 28.5175 20.0285 27.5205 21.9932C27.4325 22.1105 27.3445 22.2571 27.2566 22.4624Z" fill="#110F23"/>
</svg>
