<svg width="32" height="32" viewBox="0 0 32 32" fill="none" xmlns="http://www.w3.org/2000/svg">
<path d="M24.4567 8.8567C22.5 5.37217 18.7608 3 14.4722 3C8.15979 3 3.0268 8.11959 3.0268 14.4454C3.0268 14.6866 3.05361 14.9278 3.06701 15.1691L3 15.2361L3.08041 15.3165C3.32165 18.466 4.82268 21.2536 7.08763 23.1701C7.14124 23.2639 7.18144 23.3845 7.24845 23.4784C5.17113 24.0546 3.85773 24.9124 3.85773 25.8773C3.85773 26.3062 4.12577 26.7217 4.59485 27.0969C5.90825 28.1289 8.8165 28.8794 12.301 28.9866C12.6227 28.9866 12.9443 29 13.266 29C14.0567 29 14.834 28.9732 15.5711 28.9062C16.0536 28.9732 16.5495 29 17.0454 29C23.3711 29 28.4907 23.8804 28.4907 17.5546C28.4907 14.0701 26.9227 10.9474 24.4567 8.8433V8.8567ZM14.4722 4.34021C17.0588 4.34021 19.4041 5.31856 21.1866 6.9134C19.9 6.41753 18.5062 6.12268 17.0454 6.12268C12.2742 6.12268 8.1866 9.04433 6.47113 13.1856L4.80928 11.5237C6.05567 7.36907 9.91546 4.34021 14.4856 4.34021H14.4722ZM4.36701 14.4454C4.36701 13.9897 4.40722 13.534 4.46082 13.0918L5.97526 14.6062C5.85464 15.0753 5.76082 15.5577 5.69381 16.0402L4.38041 14.7268C4.38041 14.633 4.36701 14.5392 4.36701 14.4454ZM4.68866 16.9381L5.6 17.8495C5.6134 18.4526 5.68041 19.0289 5.78763 19.6052C5.30515 18.7876 4.9299 17.8897 4.68866 16.9381ZM17.0454 27.7402C14.3918 27.7402 11.966 26.7082 10.1567 25.033C9.27217 24.2155 8.53505 23.2639 7.98557 22.1918C7.27526 20.7979 6.8732 19.2433 6.8732 17.568C6.8732 11.9526 11.4299 7.39588 17.0454 7.39588C19.4175 7.39588 21.6021 8.2134 23.3309 9.58041C24.2691 10.3175 25.0732 11.2289 25.7031 12.2474C26.6546 13.8021 27.2175 15.6113 27.2175 17.568C27.2175 23.1835 22.6608 27.7402 17.0454 27.7402Z" fill="#110F23"/>
<path d="M13.0651 18.198H13.0517L12.6764 15.4103H11.363L11.0146 18.198H10.9878L10.6661 15.4103H9.16508L10.0496 20.1815H11.497L11.9661 17.5278H11.9929L12.4754 20.1815H13.9094L14.8073 15.4103H13.3867L13.0651 18.198Z" fill="#110F23"/>
<path d="M16.5764 18.3722H17.6218V17.1794H16.5764V16.6969H17.7424V15.4103H15.1826V20.1815H17.8228V18.8681H16.5764V18.3722Z" fill="#110F23"/>
<path d="M17.9834 16.6433H18.8277V20.1815H20.2752V16.6433H21.1195V15.4103H17.9834V16.6433Z" fill="#110F23"/>
<path d="M23.5722 15.4103V17.0454H22.9155V15.4103H21.4681V20.1815H22.9155V18.3588H23.5722V20.1815H25.0196V15.4103H23.5722Z" fill="#110F23"/>
</svg>
