<svg width="32" height="32" viewBox="0 0 32 32" fill="none" xmlns="http://www.w3.org/2000/svg">
<path d="M23.9995 17.345C23.627 17.1675 23.1795 16.965 22.737 16.7825C22.447 17.2425 21.592 18.6625 21.4195 19.1625C21.3299 19.4237 21.2876 19.6989 21.2945 19.975C21.296 20.0914 21.2868 20.2078 21.267 20.3225C21.2252 20.5434 21.1233 20.7485 20.9724 20.9152C20.8216 21.0819 20.6277 21.2038 20.412 21.2675C20.2145 21.3275 19.812 21.3975 19.3495 21.48C18.8621 21.5487 18.3801 21.6515 17.907 21.7875C17.7538 22.0205 17.5578 22.2224 17.3295 22.3825C17.2392 22.4466 17.1386 22.4947 17.032 22.525C17.032 22.92 16.8845 23.475 16.4045 23.5775C16.2875 23.5971 16.1676 23.5895 16.054 23.5552C15.9404 23.521 15.8362 23.461 15.7495 23.38C15.7056 23.5263 15.63 23.661 15.528 23.7747C15.426 23.8883 15.3002 23.9781 15.1595 24.0375C15.0468 24.0705 14.9287 24.0808 14.812 24.0679C14.6953 24.0551 14.5823 24.0192 14.4795 23.9625C14.347 24.2725 14.0845 24.6925 13.6345 24.7125C13.5052 24.7062 13.379 24.6705 13.2655 24.6081C13.152 24.5457 13.0542 24.4583 12.9795 24.3525C12.8518 24.5611 12.6745 24.7348 12.4634 24.8583C12.2523 24.9817 12.0139 25.051 11.7695 25.06H11.682C11.4659 25.0556 11.2597 24.9683 11.1062 24.8161C10.9526 24.664 10.8634 24.4586 10.857 24.2425C10.804 24.2721 10.7466 24.2932 10.687 24.305C10.5709 24.316 10.4538 24.2971 10.347 24.25C10.3724 24.3644 10.3724 24.4831 10.347 24.5975C10.217 24.995 9.19203 24.9425 8.53453 24.81C8.31597 24.7738 8.10793 24.6904 7.92487 24.5656C7.74181 24.4409 7.58813 24.2777 7.47453 24.0875C7.16453 24.3575 7.02953 24.3575 6.97453 24.3575C6.86953 24.3575 6.69703 24.3575 6.28453 23.5675C6.04703 23.585 5.61953 23.61 5.45703 23.6C5.3555 23.5841 5.2608 23.5389 5.18446 23.4701C5.10811 23.4013 5.05342 23.3118 5.02703 23.2125C4.88288 23.2222 4.73809 23.2112 4.59703 23.18C4.54841 23.1694 4.50135 23.1526 4.45703 23.13C4.78953 23.9475 5.20703 24.7075 5.38203 25.1025C5.58316 25.5308 5.87308 25.9115 6.23255 26.2193C6.59201 26.527 7.01282 26.7548 7.46703 26.8875C8.81953 27.2475 12.467 27.33 13.717 27.29C14.4068 27.2687 15.0859 27.1142 15.717 26.835C16.2199 26.6488 16.747 26.536 17.282 26.5C17.9445 26.45 19.712 26.4525 20.112 26.4375C21.0145 26.4025 21.932 25.015 22.532 23.92C22.9451 23.2561 23.1336 22.4768 23.0695 21.6975C23.0295 21.065 22.9795 18.925 23.1945 18.49C23.4228 18.0817 23.6925 17.698 23.9995 17.345V17.345Z" fill="#110F23"/>
<path d="M4.6021 21.17C4.52837 21.5926 4.49405 22.0211 4.4996 22.45C4.5121 22.505 4.5621 22.7 4.6996 22.7325C4.78183 22.7493 4.86569 22.7569 4.9496 22.755C4.88507 22.2693 4.87501 21.7779 4.9196 21.29C4.7996 21.25 4.6996 21.2125 4.6021 21.17Z" fill="#110F23"/>
<path d="M4.00026 20.8375C3.96938 21.253 4.00997 21.6707 4.12026 22.0725C4.13959 21.7125 4.18302 21.3542 4.25026 21L4.00026 20.8375Z" fill="#110F23"/>
<path d="M11.0225 20.89C10.7838 20.8909 10.552 20.9699 10.3625 21.115C10.0975 22.01 10.4525 23.46 10.525 23.7425C10.7516 23.4775 10.9556 23.194 11.135 22.895C11.3761 22.3773 11.5572 21.8338 11.675 21.275L11.6175 21.225C11.4646 21.047 11.254 20.9284 11.0225 20.89V20.89Z" fill="#110F23"/>
<path d="M12.7277 22.5725C12.7664 22.5332 12.7932 22.4838 12.8052 22.43L13.0327 21.27C12.9577 20.995 12.2627 21.1075 12.1802 21.15C12.0852 21.6261 11.9591 22.0954 11.8027 22.555C12.1083 22.6086 12.4204 22.6145 12.7277 22.5725V22.5725Z" fill="#110F23"/>
<path d="M11.517 23.165C11.4235 23.3777 11.3563 23.601 11.317 23.83C11.297 24.3125 11.352 24.5525 11.722 24.58C12.737 24.6425 12.817 23.035 12.817 23.035C12.6818 23.0658 12.5433 23.0801 12.4045 23.0775C12.1396 23.0716 11.8755 23.0457 11.6145 23C11.5855 23.057 11.5529 23.1121 11.517 23.165Z" fill="#110F23"/>
<path d="M9.91715 20.75C9.54965 20.895 7.82715 23.7675 7.82715 23.7675C7.90106 23.9219 8.01176 24.0557 8.1495 24.1573C8.28725 24.2588 8.44784 24.325 8.61715 24.35C9.03361 24.4535 9.46721 24.4679 9.88965 24.3925C10.1846 23.3325 9.59215 22.5325 9.91715 20.75Z" fill="#110F23"/>
<path d="M6.46501 21.795C6.43404 22.2866 6.49336 22.7797 6.64001 23.25C6.73052 23.4709 6.85171 23.6779 7.00001 23.865C7.51751 23.59 8.36001 22.1 8.36001 22.1C7.7414 22.097 7.12656 22.0035 6.53501 21.8225L6.46501 21.795Z" fill="#110F23"/>
<path d="M5.84493 21.6L5.34493 21.45C5.32114 21.9419 5.34458 22.435 5.41493 22.9225C5.42803 23.0005 5.45604 23.0751 5.49743 23.1425C5.61243 23.1425 5.87493 23.1425 6.11743 23.12C5.99778 22.6398 5.96059 22.1427 6.00743 21.65L5.84493 21.6Z" fill="#110F23"/>
<path d="M4.19531 20.405C4.37045 20.5202 4.55631 20.6181 4.75031 20.6975C4.75031 20.6975 5.20281 19.9725 5.45031 19.5625C5.42521 19.5288 5.39579 19.4985 5.36281 19.4725C5.1428 19.3435 4.89011 19.2809 4.63531 19.2925C4.42829 19.6365 4.27962 20.0124 4.19531 20.405V20.405Z" fill="#110F23"/>
<path d="M5.8723 19.75C5.6673 20.0925 5.2873 20.7025 5.1748 20.8825C5.3423 20.9425 5.5123 20.9975 5.6748 21.05C5.89451 20.5694 6.17881 20.1211 6.5198 19.7175C6.49588 19.6961 6.46779 19.68 6.4373 19.67C6.24525 19.6492 6.05104 19.6767 5.8723 19.75Z" fill="#110F23"/>
<path d="M7.49977 19.925C7.39546 19.8928 7.28485 19.8867 7.17763 19.9072C7.07041 19.9277 6.96985 19.9741 6.88477 20.0425C6.57825 20.3868 6.32541 20.7753 6.13477 21.195C6.34477 21.2575 6.83227 21.425 6.88477 21.445L7.76477 20.15C7.80977 20.0875 7.54727 19.94 7.49977 19.925Z" fill="#110F23"/>
<path d="M8.55227 20.0475C8.34227 20.14 7.38477 21.5475 7.38477 21.5475C7.80978 21.6061 8.23824 21.6361 8.66727 21.6375L9.16727 20.8875C9.26977 20.7425 9.11727 20.295 9.04977 20.235C8.90348 20.1295 8.73179 20.0648 8.55227 20.0475V20.0475Z" fill="#110F23"/>
<path d="M15.8447 20.96L15.8622 21.795C16.0822 21.755 16.2897 21.7225 16.4672 21.705C16.4972 21.4 16.5222 21.075 16.5197 20.9175C16.2939 20.9097 16.0678 20.9239 15.8447 20.96V20.96Z" fill="#110F23"/>
<path d="M19.2774 21.0175C19.7099 20.9425 20.1174 20.87 20.2774 20.8175C20.4126 20.7775 20.5338 20.7003 20.6271 20.5946C20.7204 20.4889 20.782 20.3591 20.8049 20.22C20.8183 20.1374 20.8242 20.0537 20.8224 19.97C20.8231 19.6386 20.8832 19.3101 20.9999 19C21.1849 18.4625 21.9849 17.135 22.3174 16.5975C21.9332 16.4209 21.5229 16.3078 21.1024 16.2625C20.5811 16.3187 20.0945 16.5506 19.7224 16.92C19.7072 16.9565 19.6947 16.9941 19.6849 17.0325C19.6016 17.3405 19.4446 17.6237 19.2274 17.8575C19.053 18.0321 18.8621 18.1895 18.6574 18.3275C18.2399 18.6275 17.9824 18.8275 17.9824 19.225C17.9824 19.4175 17.9974 19.8075 18.0099 20.21C18.0274 20.71 18.0374 21.0375 18.0399 21.255C18.2924 21.195 18.6899 21.1225 19.2774 21.0175Z" fill="#110F23"/>
<path d="M13.1924 23.825C13.2149 23.855 13.3249 24.2175 13.6299 24.23C14.3174 24.2925 14.1299 22.62 14.1299 22.62C13.9974 22.62 13.6774 22.6525 13.3349 22.68L13.1924 23.825Z" fill="#110F23"/>
<path d="M9.00011 13.775C8.91261 13.82 8.78261 14.0925 8.65761 15.145C8.60175 15.5444 8.48542 15.9331 8.31261 16.2975C8.24994 16.4318 8.19729 16.5705 8.15511 16.7125C8.10888 16.8782 8.12417 17.055 8.19815 17.2104C8.27214 17.3657 8.39981 17.489 8.55761 17.5575C8.6951 17.627 8.85273 17.6456 9.00261 17.61C8.70761 17.4625 8.76761 17.15 8.84261 16.79C8.86261 16.69 8.88761 16.5725 8.91261 16.435C8.94379 16.2149 9.01858 16.0033 9.13261 15.8125C9.19511 15.7025 9.22011 15.6575 9.18511 15.405C9.14585 14.8933 9.27395 14.3826 9.55011 13.95C9.58011 13.89 9.61011 13.835 9.63761 13.7775C9.66064 13.7349 9.69016 13.6961 9.72511 13.6625C9.47771 13.6331 9.22698 13.672 9.00011 13.775V13.775Z" fill="#110F23"/>
<path d="M28.52 9.4825C28.5192 9.30467 28.4786 9.12928 28.4012 8.96921C28.3238 8.80913 28.2114 8.66845 28.0725 8.5575C27.8375 8.385 26.305 7.075 26.0375 6.605C25.395 5.4825 23.995 4.855 22.7875 4.7225C21.5386 4.6544 20.2861 4.73835 19.0575 4.9725C18.3688 5.24046 17.7081 5.5754 17.085 5.9725L17.0225 6.005C17.9325 6.005 18.81 6.1125 19.435 6.475C20.2475 6.945 21.0275 7.68 21.2425 9.86C21.3021 10.6559 21.2938 11.4555 21.2175 12.25C21.155 13.185 21.105 13.925 21.4125 14.305C21.5225 14.44 21.9125 14.575 22.3575 14.73C23.4578 15.0732 24.4978 15.586 25.44 16.25C25.585 16.2 25.74 16.1575 25.94 16.11C26.54 15.9575 27.34 14.73 27.57 13.985C27.665 13.665 27.75 12.735 27.8575 12.3425C27.99 11.8725 28.2575 11.205 28.32 10.9975C28.452 10.5033 28.5192 9.99403 28.52 9.4825V9.4825Z" fill="#110F23"/>
<path d="M22.205 15.1775C21.625 14.9775 21.2425 14.845 21.05 14.605C20.625 14.0825 20.68 13.2625 20.75 12.2225C20.8215 11.4519 20.8274 10.6766 20.7675 9.905C20.585 8.045 20.0175 7.35 19.1925 6.88C18.325 6.38 16.8375 6.4275 15.535 6.5575C15.0833 6.70313 14.6173 6.80034 14.145 6.8475C13.6275 6.8475 12.82 6.46 12.53 6.275C12.2518 6.07265 11.9271 5.94367 11.5858 5.89997C11.2445 5.85628 10.8978 5.89928 10.5775 6.025C10.2475 6.1375 9.80504 6.3375 9.66004 6.625C9.34277 7.36467 9.10072 8.13438 8.93754 8.9225C8.90058 9.32425 8.81667 9.72028 8.68754 10.1025C8.58004 10.395 8.12754 11.7925 8.00254 12.0125C7.87754 12.2325 7.50004 12.725 7.05254 13.4075C6.87319 13.6963 6.77396 14.0277 6.76504 14.3675C6.79254 14.67 7.31504 15.255 7.24754 16.0625C7.19754 16.6275 6.52254 17.0625 5.77004 17.8125C5.45173 18.1277 5.16534 18.4735 4.91504 18.845C5.1836 18.8746 5.44097 18.969 5.66504 19.12C5.72648 19.171 5.78184 19.2289 5.83004 19.2925C6.07606 19.2036 6.34243 19.1871 6.59754 19.245C6.75682 19.2936 6.89174 19.4008 6.97504 19.545C7.16126 19.4965 7.35263 19.4705 7.54504 19.4675C7.76414 19.5184 7.95967 19.6417 8.10004 19.8175C8.20303 19.7194 8.32576 19.6444 8.46004 19.5975C8.67754 19.5475 9.11254 19.7475 9.29004 19.8475C9.34504 19.8725 9.48754 19.945 9.61504 20.425C9.67873 20.352 9.76071 20.2974 9.85254 20.2666C9.94438 20.2358 10.0428 20.2301 10.1375 20.25C10.1875 20.27 10.315 20.3175 10.3725 20.5925C10.5864 20.4832 10.8251 20.4315 11.065 20.4425C11.3665 20.4742 11.648 20.6083 11.8625 20.8225C12.1408 20.6699 12.4603 20.6095 12.775 20.65C12.9829 20.6713 13.1784 20.7589 13.3325 20.9C13.4749 20.7444 13.6701 20.6473 13.88 20.6275C13.9698 20.6191 14.0602 20.6351 14.1416 20.6738C14.223 20.7125 14.2924 20.7725 14.3425 20.8475C14.3903 20.7782 14.4456 20.7145 14.5075 20.6575C14.65 20.53 14.89 20.5325 15.1975 20.54C15.3258 20.5479 15.4543 20.5479 15.5825 20.54C16.47 20.4175 16.87 20.415 16.9675 20.71C17.0275 20.8875 16.7975 21.69 16.9875 22.0725C17.2274 21.931 17.4271 21.7305 17.5675 21.49C17.5675 21.4075 17.5525 20.74 17.535 20.24C17.535 19.83 17.51 19.435 17.51 19.24C17.51 18.5875 17.9725 18.255 18.38 17.9625C18.5596 17.8423 18.727 17.705 18.88 17.5525C19.049 17.3705 19.1709 17.1499 19.235 16.91C19.2549 16.8337 19.2834 16.7599 19.32 16.69C19.7707 16.1854 20.3962 15.8708 21.07 15.81C21.755 15.7525 24 16.81 24.3625 16.99C24.4325 16.9225 24.5 16.8575 24.5675 16.8025C24.6976 16.6897 24.8355 16.5861 24.98 16.4925C24.1222 15.9246 23.1878 15.4818 22.205 15.1775V15.1775ZM10.345 17.4L10.255 17.4575C9.59754 17.8725 9.23254 18.1025 8.85004 18.1025C8.68231 18.1014 8.51652 18.0665 8.36254 18C8.10268 17.887 7.89182 17.6847 7.76803 17.4298C7.64424 17.1749 7.61569 16.8841 7.68754 16.61C7.73547 16.4389 7.79648 16.2717 7.87004 16.11C8.02509 15.787 8.12965 15.4422 8.18004 15.0875C8.29504 14.0875 8.43004 13.53 8.77754 13.355C9.14754 13.1675 9.79754 13.0375 10.7775 13.4725C11.675 13.8675 12.07 14.2225 12.1375 14.69C12.205 15.1575 11.8475 16.45 10.345 17.4ZM13.315 8.53L13.29 8.78C13.1725 9.8725 13.04 11.23 12.4275 11.635C11.815 12.04 10.8925 12.135 10.3475 12.135H10.25C9.48004 12.1125 9.07754 11.5875 9.07754 11.08C9.07754 10.7525 9.29004 10.4175 9.53754 10.03C9.69477 9.78915 9.83672 9.53866 9.96254 9.28C10.0698 9.0457 10.1584 8.80327 10.2275 8.555C10.3091 8.23233 10.4407 7.92442 10.6175 7.6425C10.905 7.175 11.705 6.81 12.3 7.035L12.415 7.0775C12.815 7.2175 13.4375 7.44 13.315 8.53ZM19.315 10.55C19.0875 11.1725 18.385 12.55 17.6675 12.89C17.3044 13.0453 16.9124 13.1212 16.5175 13.1125C15.8174 13.1214 15.1291 12.9315 14.5325 12.565C14.0925 12.26 14.0925 11.525 14.095 10.815V10.565C14.128 10.1288 14.2257 9.69992 14.385 9.2925C14.4103 9.2364 14.4555 9.19161 14.5117 9.1667C14.568 9.14179 14.6315 9.13852 14.69 9.1575C14.7188 9.16881 14.745 9.18568 14.7672 9.20713C14.7894 9.22859 14.8072 9.25421 14.8195 9.28254C14.8318 9.31086 14.8384 9.34134 14.8389 9.37222C14.8395 9.4031 14.8339 9.43378 14.8225 9.4625C14.6868 9.81525 14.6026 10.1857 14.5725 10.5625V10.8125C14.5725 11.3125 14.5725 12.01 14.8225 12.175C15.0087 12.2961 15.2106 12.3911 15.4225 12.4575C15.2915 11.8197 15.2469 11.1672 15.29 10.5175C15.3525 10.0175 16.305 8.3625 16.8825 7.7675C16.4548 7.8398 16.0499 8.01102 15.7 8.2675C15.6504 8.30065 15.59 8.31365 15.5311 8.30387C15.4722 8.29409 15.4192 8.26226 15.3829 8.21484C15.3467 8.16742 15.3298 8.10798 15.3358 8.04857C15.3417 7.98917 15.3701 7.93426 15.415 7.895C15.725 7.66 16.415 7.2875 16.9575 7.2875C17.3208 7.29616 17.6771 7.38813 17.9992 7.55631C18.3212 7.72449 18.6004 7.96439 18.815 8.2575C19.3875 9.04 19.575 9.8525 19.3175 10.55H19.315Z" fill="#110F23"/>
<path d="M10.9997 7.8825C10.8449 8.12838 10.731 8.3977 10.6622 8.68C10.5875 8.95169 10.4905 9.21675 10.3722 9.4725C10.2377 9.74535 10.0857 10.0092 9.91723 10.2625C9.73261 10.4982 9.60127 10.7712 9.53223 11.0625C9.53223 11.395 9.82723 11.6375 10.2497 11.6475H10.3472C10.2813 11.2622 10.3184 10.8663 10.4547 10.5C10.5921 10.1279 10.7752 9.7744 10.9997 9.4475C11.1934 9.1528 11.3607 8.84159 11.4997 8.5175C11.5831 8.2686 11.6385 8.01118 11.6647 7.75C11.6797 7.6325 11.6922 7.5375 11.7072 7.4525C11.4261 7.5028 11.1738 7.65612 10.9997 7.8825V7.8825Z" fill="#110F23"/>
<path d="M14.1423 21.3025C14.1423 21.205 13.9623 21.0975 13.8923 21.0925C13.8223 21.0875 13.5123 21.22 13.4898 21.3425L13.3848 22.205L14.1348 22.15L14.1423 21.3025Z" fill="#110F23"/>
<path d="M14.5879 23.47C14.6465 23.5249 14.7179 23.5644 14.7956 23.5849C14.8732 23.6054 14.9548 23.6063 15.0329 23.5875C15.2129 23.535 15.3629 23.135 15.4129 22.87V22.37C15.1479 22.425 14.8929 22.4825 14.6879 22.5275L14.6079 22.545L14.5879 23.47Z" fill="#110F23"/>
<path d="M15.3773 21C15.3773 20.9475 14.9773 20.93 14.7873 21.015C14.7396 21.0388 14.6986 21.0741 14.6681 21.1178C14.6375 21.1615 14.6184 21.2121 14.6123 21.265V22.0475L15.4048 21.8775L15.3773 21Z" fill="#110F23"/>
<path d="M16.5151 22.17C16.3301 22.19 16.1051 22.225 15.8701 22.27L15.8826 22.8225C15.9626 22.945 16.1326 23.155 16.3176 23.1175C16.5576 23.0675 16.7501 22.44 16.5151 22.17Z" fill="#110F23"/>
</svg>
