<svg width="32" height="32" viewBox="0 0 32 32" fill="none" xmlns="http://www.w3.org/2000/svg">
<path d="M12.9735 25.9948C12.7631 25.9948 12.5432 25.947 12.352 25.8514C12.1607 25.7558 11.9982 25.6124 11.8739 25.4402L6.49982 18.0677H3V15.3807H7.19787C7.40824 15.3807 7.62817 15.4285 7.80986 15.5241C8.0011 15.6197 8.16366 15.7631 8.28797 15.9353L12.6771 21.9595L19.3803 6.80324C19.4855 6.56418 19.6576 6.36337 19.8775 6.21993C20.0975 6.0765 20.3556 6 20.6234 6H29V8.68702H21.5031L14.2071 25.1916C14.1114 25.4115 13.9584 25.5932 13.7672 25.7367C13.5759 25.8801 13.3465 25.9662 13.1074 25.9853C13.0596 25.9853 13.0118 25.9853 12.964 25.9853" fill="#110F23"/>
</svg>
