<svg width="32" height="32" viewBox="0 0 32 32" fill="none" xmlns="http://www.w3.org/2000/svg">
<path d="M16 4C9.37245 4 4 9.37245 4 16C4 22.6276 9.37245 28 16 28C22.6276 28 28 22.6276 28 16C28 9.37245 22.6268 4 16 4ZM16 23.9995C11.5819 23.9995 8.0005 20.4181 8.0005 16C8.0005 11.5819 11.5819 8.0005 16 8.0005C20.4181 8.0005 23.9995 11.5819 23.9995 16C23.9995 20.4181 20.4181 23.9995 16 23.9995Z" fill="#100E21"/>
<path d="M15.9789 10.5703V14.7027L19.4713 16.2631L15.9789 10.5703Z" fill="#100E21"/>
<path d="M15.9774 10.5703L12.4842 16.2631L15.9774 14.7027V10.5703Z" fill="#100E21" fill-opacity="0.5"/>
<path d="M15.9789 18.9414V21.7494L19.4736 16.9136L15.9789 18.9414Z" fill="#100E21"/>
<path d="M15.9774 21.7494V18.9414L12.4842 16.9144L15.9774 21.7494Z" fill="#100E21" fill-opacity="0.5"/>
<path d="M15.9789 18.2908L19.4713 16.2631L15.9789 14.7027V18.2908Z" fill="#100E21" fill-opacity="0.5"/>
<path d="M12.4842 16.2631L15.9774 18.2901V14.7027L12.4842 16.2631Z" fill="#100E21"/>
</svg>
