<svg width="32" height="32" viewBox="0 0 32 32" fill="none" xmlns="http://www.w3.org/2000/svg">
<path fill-rule="evenodd" clip-rule="evenodd" d="M16 29C23.1801 29 29 23.1801 29 16C29 8.81994 23.1801 3 16 3C8.81994 3 3 8.81994 3 16C3 23.1801 8.81994 29 16 29ZM17.5908 27.405C19.5002 27.2262 21.0854 25.8726 21.7874 24.0941C21.8562 23.9202 21.9229 23.7455 21.9873 23.57C20.6905 24.285 19.1931 24.6912 17.5981 24.6912C12.6606 24.6912 8.65901 20.7888 8.65901 15.9764C8.65901 11.1631 12.6614 7.26068 17.5981 7.26068C19.1327 7.25728 20.6431 7.64305 21.9881 8.38193C22.8772 10.8151 23.331 13.3858 23.3287 15.9764C23.3309 18.5664 22.8771 21.1365 21.9881 23.5692C24.7034 22.0734 26.5373 19.2329 26.5373 15.9756C26.5373 12.7174 24.7034 9.87612 21.9873 8.38112C21.9228 8.20561 21.8562 8.03091 21.7874 7.85706C21.0854 6.0785 19.5002 4.72406 17.5908 4.54612C17.2069 4.52352 16.8221 4.52 16.4379 4.53556C10.3344 4.78337 5.46182 9.81031 5.46182 15.9756C5.46182 22.1571 10.3612 27.1946 16.4883 27.4172C16.856 27.4306 17.2234 27.4265 17.5908 27.405ZM14.3677 19.6846C14.7816 19.8411 15.2154 19.9387 15.6564 19.9747H15.6572L15.5459 21.269H17.0165L16.9084 19.9804C17.3683 19.9422 17.7827 19.8577 18.1515 19.7277C18.5212 19.5977 18.8381 19.4238 19.0981 19.2061C19.3581 18.9851 19.558 18.7226 19.6961 18.4163C19.8367 18.1108 19.9074 17.7623 19.9074 17.3723C19.9074 17.1293 19.8805 16.9108 19.8277 16.7182C19.7793 16.5356 19.7034 16.3613 19.6027 16.2015C19.5068 16.0503 19.3947 15.9187 19.263 15.805C19.1322 15.6904 18.9884 15.5913 18.8324 15.5068C18.6772 15.4231 18.5115 15.3508 18.3368 15.2915C18.1637 15.2321 17.9874 15.1818 17.8062 15.1395C17.6259 15.0981 17.4455 15.0623 17.2651 15.0331C17.0847 15.003 16.9084 14.9746 16.737 14.9502L16.4039 14.9015C16.1057 14.8576 15.8416 14.8145 15.6117 14.7723C15.3834 14.73 15.1916 14.6764 15.0356 14.6114C14.882 14.5464 14.765 14.4635 14.6846 14.3611C14.6074 14.2588 14.5684 14.1255 14.5684 13.963C14.565 13.8023 14.6128 13.6446 14.7049 13.5129C14.802 13.3789 14.9274 13.2679 15.0722 13.1879C15.2265 13.1018 15.402 13.0384 15.6003 12.9961C15.7977 12.9523 16.0017 12.9295 16.2129 12.9295C16.4478 12.9271 16.6818 12.9572 16.9084 13.0189C17.1013 13.0703 17.2831 13.1568 17.4447 13.274C17.591 13.3824 17.7094 13.524 17.7902 13.6872C17.871 13.8504 17.9119 14.0304 17.9094 14.2125H19.6327C19.6327 13.8298 19.5702 13.4828 19.445 13.1708C19.3207 12.8588 19.142 12.5875 18.9064 12.3567C18.6707 12.1227 18.3847 11.9334 18.0475 11.788C17.6833 11.6334 17.2984 11.5327 16.9052 11.489L17.0157 10.189H15.545L15.6588 11.4808C15.2653 11.516 14.8782 11.6028 14.5075 11.7392C14.1749 11.8581 13.8659 12.035 13.595 12.2616C13.3407 12.4778 13.1409 12.737 12.9962 13.0392C12.854 13.339 12.7825 13.6819 12.7825 14.0662C12.7762 14.3415 12.8228 14.6154 12.9199 14.873C13.0065 15.0887 13.1343 15.2854 13.296 15.4523C13.455 15.6138 13.6398 15.7475 13.8429 15.848C14.0553 15.9528 14.2766 16.0385 14.5042 16.104C14.7376 16.1713 14.9747 16.225 15.2144 16.2648C15.4573 16.303 15.6913 16.338 15.9155 16.3705L16.3462 16.4338C16.6249 16.4736 16.8751 16.5135 17.0961 16.5541C17.2878 16.5841 17.4752 16.637 17.6543 16.7117C17.7916 16.7673 17.9116 16.8585 18.002 16.9758C18.0817 17.0846 18.1223 17.2293 18.1223 17.4096C18.1259 17.584 18.076 17.7553 17.9793 17.9004C17.8842 18.0401 17.755 18.1563 17.5917 18.2498C17.4284 18.344 17.2359 18.4139 17.0132 18.4594C16.793 18.5057 16.555 18.5285 16.3007 18.5285C16.0033 18.5285 15.7368 18.4976 15.4995 18.4366C15.2623 18.3733 15.0592 18.2839 14.8918 18.1669C14.7323 18.0568 14.6014 17.9103 14.5099 17.7395C14.423 17.5713 14.3791 17.3804 14.3791 17.1683H12.6517C12.6465 17.5421 12.7133 17.9134 12.8484 18.262C12.9768 18.5829 13.1743 18.8717 13.4269 19.1078C13.7015 19.3574 14.0207 19.5531 14.3677 19.6846Z" fill="#110F23"/>
</svg>
