<svg width="32" height="32" viewBox="0 0 32 32" fill="none" xmlns="http://www.w3.org/2000/svg">
<path d="M24.3345 5.9943C22.1062 4.11416 19.3904 3.06963 16.4657 3L9.85044 20.3391L24.3345 5.9943ZM26.0057 7.59589L17.6495 15.8824L26.0057 24.0993C27.9555 21.8014 29 18.8767 29 15.8824C29 12.8185 27.9555 9.96348 26.0057 7.59589ZM13.1929 4.94977L3.02624 15.0468C2.81733 18.3196 3.86185 21.4532 5.95089 24.0297L13.1929 4.94977ZM16.0479 17.484L7.69176 25.7009C10.0593 27.6507 12.984 28.6952 16.0479 28.6952C19.1119 28.6952 22.0365 27.6507 24.4041 25.7009L16.0479 17.484Z" fill="#110F23"/>
</svg>
