<svg width="32" height="32" viewBox="0 0 32 32" fill="none" xmlns="http://www.w3.org/2000/svg">
<path d="M20.0302 5H10.5628L9.77822 9.38546L18.3214 9.39576C22.5288 9.39576 23.773 10.9232 23.7375 13.459C23.7192 14.7581 23.1561 16.954 22.9129 17.6659C22.2645 19.5636 20.9327 21.7292 15.9389 21.7206L7.63442 21.7172L6.84809 26.1044H16.2943C19.6262 26.1044 21.0443 25.7169 22.5437 25.0233C25.8705 23.4873 27.85 20.204 28.6426 15.9193C29.8238 9.53884 28.353 5 20.0302 5Z" fill="#110F23"/>
<path d="M6.47781 13.3491C3.99807 13.3491 3.64268 14.9653 3.40804 15.9416C3.10072 17.2207 3 17.7386 3 17.7386H12.6935C15.1732 17.7386 15.5286 16.1225 15.7632 15.1461C16.0705 13.8671 16.1713 13.3491 16.1713 13.3491H6.47781Z" fill="#110F23"/>
</svg>
