<svg width="32" height="32" viewBox="0 0 32 32" fill="none" xmlns="http://www.w3.org/2000/svg">
<path d="M13.77 24.5225C13.5925 24.5225 13.4125 24.5225 13.2275 24.5C13.1612 24.494 13.1 24.462 13.0573 24.4109C13.0147 24.3598 12.9941 24.2938 13 24.2275C13.006 24.1612 13.0381 24.1 13.0892 24.0573C13.1403 24.0147 13.2062 23.994 13.2725 24C14.1659 24.0617 15.0628 23.9522 15.915 23.6775C15.9768 23.6571 16.0442 23.6616 16.1027 23.6901C16.1612 23.7185 16.2063 23.7687 16.2285 23.8299C16.2506 23.8911 16.248 23.9585 16.2212 24.0178C16.1944 24.0771 16.1456 24.1237 16.085 24.1475C15.3374 24.3915 14.5564 24.518 13.77 24.5225V24.5225Z" fill="#110F23"/>
<path d="M15.9996 26.0625C15.7279 26.0693 15.4562 26.0458 15.1896 25.9925C15.1567 25.9857 15.1254 25.9723 15.0978 25.9531C15.0701 25.934 15.0467 25.9094 15.0287 25.8809C15.0108 25.8525 14.9988 25.8207 14.9934 25.7875C14.9881 25.7543 14.9895 25.7203 14.9976 25.6876C15.0056 25.655 15.0202 25.6243 15.0404 25.5974C15.0607 25.5705 15.0861 25.548 15.1153 25.5312C15.1444 25.5143 15.1766 25.5036 15.21 25.4995C15.2434 25.4954 15.2773 25.4982 15.3096 25.5075C15.5371 25.5501 15.7683 25.5685 15.9996 25.5625C16.2309 25.5677 16.4621 25.5493 16.6896 25.5075C16.722 25.4982 16.7558 25.4954 16.7892 25.4995C16.8226 25.5036 16.8549 25.5143 16.884 25.5312C16.9131 25.548 16.9386 25.5705 16.9588 25.5974C16.979 25.6243 16.9936 25.655 17.0017 25.6876C17.0098 25.7203 17.0112 25.7543 17.0058 25.7875C17.0005 25.8207 16.9885 25.8525 16.9706 25.8809C16.9526 25.9094 16.9291 25.934 16.9015 25.9531C16.8738 25.9723 16.8426 25.9857 16.8096 25.9925C16.5431 26.0458 16.2714 26.0693 15.9996 26.0625V26.0625Z" fill="#110F23"/>
<path d="M16 24.1625C15.9337 24.1625 15.8701 24.1362 15.8232 24.0893C15.7763 24.0424 15.75 23.9788 15.75 23.9125V22.5C15.75 22.4337 15.7763 22.3701 15.8232 22.3232C15.8701 22.2763 15.9337 22.25 16 22.25C16.0663 22.25 16.1299 22.2763 16.1768 22.3232C16.2237 22.3701 16.25 22.4337 16.25 22.5V23.9125C16.25 23.9788 16.2237 24.0424 16.1768 24.0893C16.1299 24.1362 16.0663 24.1625 16 24.1625Z" fill="#110F23"/>
<path d="M15.9803 20.28C15.2928 20.28 14.5878 20.4975 14.5703 21.015C14.5378 21.94 15.3653 22.875 15.9803 22.8525C16.6128 22.875 17.4628 21.94 17.4303 21.015C17.4103 20.5 16.6878 20.28 15.9803 20.28Z" fill="#110F23"/>
<path d="M18.2298 24.5225C17.4434 24.5179 16.6624 24.3914 15.9148 24.1475C15.8831 24.137 15.8538 24.1203 15.8286 24.0983C15.8034 24.0763 15.7829 24.0495 15.7683 24.0194C15.7537 23.9893 15.7453 23.9566 15.7435 23.9233C15.7418 23.8899 15.7467 23.8565 15.7581 23.8251C15.7694 23.7936 15.787 23.7648 15.8097 23.7403C15.8324 23.7157 15.8598 23.696 15.8903 23.6823C15.9207 23.6685 15.9536 23.661 15.9871 23.6602C16.0205 23.6594 16.0537 23.6652 16.0848 23.6775C16.9376 23.95 17.834 24.0594 18.7273 24C18.7936 23.994 18.8596 24.0146 18.9107 24.0573C18.9618 24.1 18.9938 24.1612 18.9998 24.2275C19.0058 24.2938 18.9852 24.3598 18.9425 24.4109C18.8998 24.462 18.8386 24.494 18.7723 24.5C18.5873 24.515 18.4073 24.5225 18.2298 24.5225Z" fill="#110F23"/>
<path d="M18.5901 24.2525L17.6426 24.2675L17.5801 26.1425L18.5901 24.2525Z" fill="#110F23"/>
<path d="M13.4102 24.2525L14.4202 26.1425L14.3577 24.2675L13.4102 24.2525Z" fill="#110F23"/>
<path d="M24.902 14.3375C24.902 14.3375 26.747 8.70501 26.3295 6.67751C26.102 5.57751 25.522 5.11251 24.277 5.59501C22.227 6.39001 20.3145 9.39751 20.3145 9.39751C18.9006 9.05585 17.4538 8.86809 15.9995 8.83751V8.83751C14.5452 8.86809 13.0985 9.05585 11.6845 9.39751C11.6845 9.39751 9.77204 6.39751 7.72204 5.59501C6.47204 5.11251 5.89704 5.57751 5.66954 6.67751C5.24954 8.70501 7.09704 14.3375 7.09704 14.3375C6.62707 15.4369 6.2173 16.5611 5.86954 17.705C5.60454 18.705 5.64704 20.375 5.64704 20.375V20.56C5.63099 21.7864 6.03602 22.9812 6.79454 23.945C8.72704 26.5 13.3295 28.5 15.9995 28.5C18.6695 28.5 23.272 26.5 25.202 23.945C25.9604 22.9811 26.3654 21.7864 26.3495 20.56V20.375C26.3495 20.375 26.392 18.6975 26.127 17.705C25.7801 16.5611 25.3711 15.437 24.902 14.3375V14.3375ZM19.7495 14.73C19.827 14.2925 20.212 13.7 20.7795 13.7C21.2795 13.7 21.8945 14.3425 21.907 14.77C21.9195 15.1975 21.407 15.4025 20.8095 15.3775C20.212 15.3525 19.677 15.17 19.7495 14.73ZM20.0295 16.955C20.972 16.4075 22.132 15.9675 22.4395 16.2475C22.747 16.5275 22.732 17.7475 21.112 18.39C19.682 18.9525 18.552 18.73 18.4195 18.4675C18.197 18.015 19.4995 17.27 20.0345 16.955H20.0295ZM11.2095 13.705C11.777 13.705 12.162 14.2975 12.2395 14.735C12.317 15.1725 11.7745 15.355 11.1795 15.3825C10.5845 15.41 10.0695 15.2 10.082 14.775C10.0945 14.35 10.7045 13.7 11.2145 13.7L11.2095 13.705ZM9.55454 16.25C9.86204 15.97 11.022 16.41 11.9645 16.9575C12.5045 17.2725 13.802 18.0175 13.5745 18.47C13.442 18.72 12.3245 18.955 10.882 18.3925C9.26204 17.75 9.24954 16.525 9.55454 16.25ZM24.8045 23.6475C22.9995 26.055 18.4995 28 15.9995 28C13.4995 28 9.01204 26.0575 7.19704 23.6475C6.52841 22.8098 6.16042 21.7718 6.15204 20.7C7.13488 20.6578 8.1189 20.7495 9.07704 20.9725C10.0295 21.2375 11.357 22.53 11.372 22.5425L11.6695 22.835L11.787 22.435C11.787 22.4175 12.302 20.685 13.1995 19.935C13.932 19.3175 14.797 19.04 15.9995 19.04C17.202 19.04 18.067 19.3175 18.7995 19.935C19.697 20.685 20.207 22.4175 20.212 22.435L20.3295 22.835L20.627 22.5425C20.642 22.5425 21.9695 21.2375 22.922 20.9725C23.8804 20.7508 24.8642 20.6591 25.847 20.7C25.8381 21.771 25.4701 22.8079 24.802 23.645L24.8045 23.6475Z" fill="#110F23"/>
</svg>
