<svg width="32" height="32" viewBox="0 0 32 32" fill="none" xmlns="http://www.w3.org/2000/svg">
<g clip-path="url(#clip0_4_1460)">
<path d="M16 4C22.6277 4 28 9.37294 28 16C28 22.6271 22.6277 28 16 28C9.37229 28 4 22.6277 4 16C4 9.37229 9.37229 4 16 4ZM26.3326 15.8394C26.3326 10.1329 21.7065 5.50743 16 5.50743C10.2935 5.50743 5.66803 10.1329 5.66803 15.8394C5.66803 21.5459 10.2935 26.172 16 26.172C21.7065 26.172 26.3326 21.5459 26.3326 15.8394Z" fill="#110F23"/>
<path d="M11.9513 18.4763C12.025 18.4025 12.1236 18.3614 12.2274 18.3614H21.8034C21.9784 18.3614 22.0652 18.5729 21.9411 18.695L20.0492 20.5869C19.9754 20.6607 19.8768 20.7018 19.773 20.7018H10.1971C10.0221 20.7018 9.93527 20.4903 10.0593 20.3682L11.9513 18.4763Z" fill="#110F23"/>
<path d="M11.9513 11.4131C12.025 11.3393 12.1236 11.2982 12.2274 11.2982H21.8034C21.9784 11.2982 22.0652 11.5097 21.9411 11.6318L20.0492 13.5218C19.9754 13.5956 19.8768 13.6367 19.773 13.6367H10.1971C10.0221 13.6367 9.93527 13.4252 10.0593 13.3031L11.9513 11.4131Z" fill="#110F23"/>
<path d="M20.0492 14.9215C19.9754 14.8477 19.8768 14.8066 19.773 14.8066H10.1971C10.0221 14.8066 9.93527 15.0181 10.0593 15.1402L11.9513 17.0302C12.025 17.104 12.1236 17.1451 12.2274 17.1451H21.8034C21.9784 17.1451 22.0652 16.9336 21.9411 16.8115L20.0492 14.9215Z" fill="#110F23"/>
</g>
<defs>
<clipPath id="clip0_4_1460">
<rect width="24" height="24" fill="white" transform="translate(4 4)"/>
</clipPath>
</defs>
</svg>
