<svg width="32" height="32" viewBox="0 0 32 32" fill="none" xmlns="http://www.w3.org/2000/svg">
<path fill-rule="evenodd" clip-rule="evenodd" d="M10.5725 8.0118C10.6929 8.0118 10.8482 8.03546 10.9485 8.17591C11.0187 8.25615 11.0039 8.35286 11.0239 8.44316C11.0741 8.65381 11.365 8.90461 11.5556 9.07514C11.7663 9.26572 11.8565 9.3861 12.0572 9.3861C12.0772 9.3861 12.1675 9.3861 12.2277 9.35602C12.3581 9.30586 12.4484 9.15539 12.5788 9.05507C12.6891 8.95476 12.8195 8.90461 12.9299 8.90461C13.6672 8.90461 13.422 10.2463 13.5318 10.7404C13.612 11.0313 13.9832 11.2419 14.2039 11.2419C14.4747 11.2419 14.7456 10.8407 14.9663 10.8407C15.207 10.8407 15.2672 11.1717 15.2973 11.2921C15.3475 11.4827 15.3575 11.7034 15.3876 11.914C15.4058 12.078 15.4457 12.536 15.6584 12.536C15.839 12.536 15.9976 12.309 16.1185 12.1881C16.1185 12.1881 16.1185 12.1881 16.2097 12.0821C16.2097 12.0821 16.2627 12.0291 16.3157 11.9761C16.5464 11.7454 16.3157 11.9761 16.4748 11.817C16.8989 11.3929 16.6338 11.658 16.6868 11.605C16.8459 11.4459 17.5652 10.7972 17.9464 10.4762C18.8192 9.71379 20.7614 8 20.7614 8C23.0571 8 25.3525 8 27.6482 8C24.8081 10.3248 21.9631 12.6436 19.1193 14.9636C19.0591 15.0037 19.019 15.0739 19.019 15.1241C19.019 15.1542 19.029 15.2043 19.0491 15.2344C21.9238 17.9267 25.1011 20.8139 28 23.4802H20.7876C20.7876 23.4802 17.2312 20.2988 15.4979 18.7153C15.4678 18.6953 15.4277 18.6652 15.3876 18.6551C15.3675 18.6451 15.3374 18.6551 15.3174 18.6551C15.2672 18.6551 15.2371 18.6351 15.1769 18.6852C14.866 18.9059 14.5249 19.3072 14.234 19.5981C13.923 19.889 13.612 20.21 13.3111 20.5009C12.3079 21.4439 11.1844 22.4469 10.1412 23.1793C9.98067 23.2896 9.80009 23.3499 9.62956 23.3499C9.55934 23.3499 9.39884 23.3298 9.39884 23.2093C9.39884 23.069 9.61954 22.9486 9.72987 22.8482C9.82016 22.7579 9.9305 22.6777 10.0408 22.5975C10.6427 22.116 11.3449 21.5642 11.9267 20.9624C12.0973 20.7918 12.2578 20.5711 12.3982 20.3805C12.5688 20.1298 12.7895 19.8589 12.8095 19.6081C12.8296 19.5479 12.8597 19.4376 12.8597 19.4175C12.8597 19.3072 12.7895 19.2169 12.6992 19.2169C12.5989 19.2169 12.3681 19.3473 12.3079 19.3874C11.5255 19.9392 10.723 20.7116 9.98067 21.4439C9.81012 21.6144 8.62641 22.768 8.24523 22.768C8.21515 22.768 8.18505 22.7379 8.15495 22.7178V22.4269C8.1449 22.3567 8.01452 22.3066 7.95432 22.3066C7.38254 22.3066 5.7775 23.4802 5.37625 23.4802H5.04421C5.04421 23.4802 5.02514 23.4602 5.02514 23.4301C5.02514 23.3198 5.37625 23.069 5.43643 23.0188C5.68722 22.8181 5.938 22.6075 6.19883 22.4269C6.38941 22.2765 6.61011 22.1461 6.81074 21.9956C6.84083 21.9755 6.91104 21.8852 6.91104 21.8351C6.91104 21.7548 6.83081 21.7548 6.80071 21.7548C6.56998 21.7548 5.0753 22.4972 4.60382 22.4972C4.53361 22.4972 4.49347 22.477 4.49347 22.4169C4.49347 22.2464 5.60697 21.3536 5.75743 21.2332C6.27908 20.8119 6.82076 20.3605 7.36247 19.9291C7.74365 19.6181 8.15495 19.2971 8.5562 18.9761C8.88723 18.7053 9.25839 18.4144 9.60949 18.1335C9.65965 18.0934 11.271 16.6197 11.6522 16.6197C11.6923 16.6197 11.7401 16.6775 11.7401 16.7076C11.7401 16.9283 11.1744 17.642 11.0942 17.7423C11.044 17.7924 10.2615 18.8056 10.2615 18.936C10.2615 18.9862 10.3518 19.0163 10.3719 19.0163C10.402 19.0163 10.5725 18.9561 10.6628 18.9059C11.0942 18.6852 11.5155 18.2238 11.9568 17.8526C12.2979 17.5517 12.7393 17.1705 13.0703 16.8194C13.1606 16.7291 13.1807 16.6087 13.2208 16.5184C13.2409 16.4382 13.271 16.3479 13.281 16.2676V16.067C13.2308 15.746 13.0503 15.6156 12.8095 15.6156C12.5387 15.6156 12.2979 15.7661 12.0471 15.7661C12.017 15.7661 11.7863 15.7159 11.7863 15.7159C11.623 15.6809 11.375 15.4657 11.375 15.2846V14.5523C11.2948 14.1711 11.034 13.9404 10.7431 13.9404C10.713 13.9404 10.2214 14.0206 10.1913 14.0206C9.82016 14.0206 9.49571 13.8422 9.36531 13.5412C9.23491 13.2403 9.28849 12.8871 9.21828 12.5962C9.18818 12.4657 9.13803 12.3554 9.05776 12.235C9.02767 12.1748 8.87721 12.0244 8.79696 12.0244H8.46593C8.13488 11.9541 8.19507 11.5629 7.9142 11.4124C7.84397 11.3723 7.76372 11.3523 7.6935 11.3322C7.59317 11.3021 7.55307 11.1918 7.51294 11.1215C7.5029 11.1015 7.5029 11.0714 7.49287 11.0413C7.48284 11.0012 7.45274 10.941 7.43269 10.9109C7.30227 10.64 6.99129 10.4795 6.77061 10.3291C6.67029 10.2588 6.55994 10.1987 6.46966 10.1184C5.88785 9.59677 4 8 4 8L10.5725 8.0118Z" fill="#110F23"/>
</svg>
