<svg width="32" height="32" viewBox="0 0 32 32" fill="none" xmlns="http://www.w3.org/2000/svg">
<g clip-path="url(#clip0_12260_165)">
<path d="M16.0021 3C8.8222 3 3 8.8222 3 16.0021C3 23.182 8.8222 29.0042 16.0021 29.0042C23.182 29.0042 29.0042 23.182 29.0042 16.0021C29.0042 8.8222 23.182 3 16.0021 3ZM12.3205 24.9769H8.81804V20.3666H12.2664V21.2204H9.83005V22.2074H12.0665V22.9946H9.83005V24.1232H12.3164V24.9769H12.3205ZM8.85135 14.4112L12.458 10.8087L16.0021 7.26045L19.5462 10.8046L23.1528 14.4112L19.6045 17.9553L16.0021 14.3529L12.3955 17.9553L8.85135 14.4112ZM17.6305 23.2361C17.6305 23.8608 17.4555 24.3231 17.1057 24.6271C16.7559 24.9311 16.2728 25.081 15.6606 25.081C15.0484 25.081 14.5528 24.9311 14.2113 24.6271C13.8698 24.3272 13.699 23.8608 13.699 23.2319V20.3625H14.711V23.2319C14.711 23.3569 14.7235 23.4818 14.7444 23.5984C14.7652 23.7192 14.811 23.8275 14.8818 23.9191C14.9526 24.0107 15.0484 24.0857 15.1691 24.144C15.2941 24.2023 15.4565 24.2315 15.6647 24.2315C16.0271 24.2315 16.2769 24.1523 16.4144 23.9899C16.5518 23.8275 16.6226 23.5776 16.6226 23.2319V20.3625H17.6388V23.2319L17.6305 23.2361ZM22.1699 24.9769C22.1158 24.8312 22.0783 24.6563 22.0658 24.4522C22.0533 24.2481 22.0325 24.0565 22.0075 23.8691C21.9742 23.6276 21.8992 23.4527 21.7868 23.3402C21.6744 23.2278 21.4911 23.1736 21.2371 23.1736H20.2209V24.9769H19.2047V20.3666H21.691C21.8992 20.3666 22.0825 20.4 22.2491 20.4666C22.4157 20.5332 22.5573 20.6249 22.6739 20.7415C22.7905 20.8581 22.8821 20.9913 22.9446 21.1454C23.007 21.2995 23.0404 21.462 23.0404 21.641C23.0404 21.9117 22.9821 22.1491 22.8696 22.3449C22.7572 22.5406 22.5698 22.6947 22.3115 22.7988V22.8113C22.4365 22.8446 22.5406 22.8988 22.6197 22.9696C22.703 23.0404 22.7697 23.1237 22.8196 23.2194C22.8696 23.3152 22.9071 23.4235 22.9321 23.5401C22.9571 23.6567 22.9737 23.7733 22.9821 23.89C22.9862 23.9649 22.9904 24.0482 22.9946 24.1482C22.9987 24.2481 23.007 24.3481 23.0154 24.4522C23.0279 24.5563 23.0445 24.6521 23.0654 24.7479C23.0903 24.8395 23.1237 24.9186 23.1736 24.9853H22.1575L22.1699 24.9769ZM21.8618 21.3079C21.9784 21.4078 22.0367 21.5702 22.0367 21.7951C22.0367 22.02 21.9784 22.1949 21.8618 22.2991C21.7452 22.4032 21.5702 22.4531 21.337 22.4531H20.2251V21.1538H21.337C21.5702 21.1538 21.7452 21.2037 21.8618 21.3037V21.3079Z" fill="#110F23"/>
</g>
<defs>
<clipPath id="clip0_12260_165">
<rect width="26" height="26" fill="white" transform="translate(3 3)"/>
</clipPath>
</defs>
</svg>
