<svg width="32" height="32" viewBox="0 0 32 32" fill="none" xmlns="http://www.w3.org/2000/svg">
<g clip-path="url(#clip0_14369_1122)">
<path fill-rule="evenodd" clip-rule="evenodd" d="M29 16C29 8.8203 23.1797 3 16 3C8.8203 3 3 8.8203 3 16C3 23.1797 8.8203 29 16 29C23.1797 29 29 23.1797 29 16ZM20.7993 14.5281L20.9303 14.7275C22.4077 16.9766 22.0778 19.9222 20.1371 21.8093C18.9953 22.9195 17.499 23.4747 16.0026 23.4748L20.7993 14.5281ZM20.7988 14.5281L16.0021 17.2472V23.4748L20.7988 14.5281ZM11.1999 14.5293L11.0697 14.7275C9.59228 16.9766 9.92222 19.9222 11.863 21.8093C13.0043 22.9192 14.5001 23.4744 15.996 23.4748H15.9974L15.996 23.4722V17.2472L11.2013 14.5293L11.2007 14.5281L11.2003 14.5287L11.1992 14.5281L11.1999 14.5293ZM16.0038 11.1729V15.8626L20.1357 13.5193L16.0038 11.1729ZM11.8677 13.5192L11.8693 13.5183L16.0026 7.22876V11.1678L12.8114 12.9837L16.0026 11.1729V15.8626L11.869 13.52L11.8677 13.5207L11.8684 13.5196L11.8677 13.5192ZM20.1389 13.5202L16.0038 11.1672V7.2251L20.1389 13.5202Z" fill="#110F23"/>
</g>
<defs>
<clipPath id="clip0_14369_1122">
<rect width="26" height="26" fill="white" transform="translate(3 3)"/>
</clipPath>
</defs>
</svg>
