<svg width="32" height="32" viewBox="0 0 32 32" fill="none" xmlns="http://www.w3.org/2000/svg">
<path fill-rule="evenodd" clip-rule="evenodd" d="M13.572 15.756V15.359C14.161 14.831 14.532 14.065 14.532 13.212V9.726C14.5321 9.23683 14.4359 8.75242 14.2488 8.30043C14.0618 7.84844 13.7875 7.43773 13.4417 7.09174C13.0959 6.74574 12.6853 6.47125 12.2334 6.28393C11.7815 6.09661 11.2972 6.00013 10.808 6H3V26.19H12.13C13.1498 26.19 14.1277 25.7849 14.8488 25.0638C15.5699 24.3427 15.975 23.3648 15.975 22.345V18.98C15.9749 18.2555 15.741 17.5505 15.308 16.9696C14.8751 16.3887 14.2662 15.9631 13.572 15.756ZM5.884 8.886H10.209C11.005 8.886 11.651 9.531 11.651 10.327V13.212C11.651 14.008 11.005 14.654 10.209 14.654H5.884V8.886ZM13.093 21.866C13.093 22.662 12.447 23.308 11.651 23.308H5.884V17.538H11.651C12.447 17.538 13.093 18.184 13.093 18.981V21.866ZM28.949 14.654V11.77H26.066V6H23.183V11.77H17.416V26.192H20.299V14.654H23.184V26.192H28.95V23.308H26.067V14.654H28.949Z" fill="#110F23"/>
</svg>
