<svg width="32" height="32" viewBox="0 0 32 32" fill="none" xmlns="http://www.w3.org/2000/svg">
<path d="M7.80686 8.65932C7.75861 8.50792 7.55896 8.47386 7.46434 8.6016C4.28224 12.886 3.21113 22.1418 3.00202 24.2689C2.97836 24.5064 3.16571 24.7117 3.4051 24.7108C5.66749 24.7032 6.83984 24.567 7.44352 24.4392C7.81254 24.3607 8.09735 24.0674 8.1598 23.6946L9.58573 15.1986C9.65859 14.7652 9.62642 14.3214 9.49206 13.9032L7.80686 8.65932Z" fill="#110F23"/>
<path d="M23.4855 8.00359C22.9528 7.9648 21.1976 8.18526 19.2976 12.2436C17.0182 17.1137 16.2593 17.5111 15.9991 17.5111C15.7389 17.5111 14.981 17.1137 12.7006 12.2436C10.8016 8.18526 9.04638 7.96385 8.51366 8.00359C8.43418 8.00927 8.38687 8.09632 8.42377 8.16729C8.73508 8.76529 9.9888 11.3787 11.4233 17.1477C12.4206 21.1578 13.8739 22.843 14.8741 23.5488C15.5497 24.0267 16.4486 24.0267 17.1251 23.5488C18.1252 22.843 19.5786 21.1578 20.5759 17.1477C22.0104 11.3787 23.265 8.76529 23.5754 8.16729C23.6123 8.09632 23.565 8.01022 23.4855 8.00359Z" fill="#110F23"/>
<path d="M24.5349 8.6016C24.4402 8.47386 24.2406 8.50887 24.1923 8.65932L22.5071 13.9032C22.3728 14.3214 22.3406 14.7661 22.4135 15.1986L23.8403 23.6965C23.9028 24.0674 24.1857 24.3607 24.5538 24.4383C25.1565 24.567 26.3289 24.7023 28.596 24.7108C28.8344 24.7108 29.0208 24.5064 28.9981 24.2689C28.789 22.1418 27.7179 12.8851 24.5358 8.60065L24.5349 8.6016Z" fill="#110F23"/>
</svg>
