<svg width="32" height="32" viewBox="0 0 32 32" fill="none" xmlns="http://www.w3.org/2000/svg">
<path fill-rule="evenodd" clip-rule="evenodd" d="M20.4067 9.36619C21.4687 9.1712 25.441 8.44187 25.6178 9.68488C25.7992 10.9579 24.1622 12.7135 22.4495 13.5025C22.3592 13.5441 22.279 13.6014 22.1987 13.6587C22.132 13.7064 22.0653 13.7542 21.9925 13.7931C21.723 13.9373 21.5622 14.2975 21.6018 14.6223V19.1706C20.2513 18.2362 18.2661 17.6547 16.016 17.6547C13.7661 17.6547 11.7809 18.2362 10.4303 19.1706V14.6223C10.4699 14.2975 10.3091 13.9373 10.0395 13.7931C9.96689 13.7542 9.90021 13.7066 9.83362 13.659C9.75328 13.6015 9.67294 13.5442 9.58256 13.5025C7.86982 12.7135 6.23293 10.9579 6.41416 9.68488C6.59109 8.44174 10.5643 9.17135 11.6257 9.36625C11.7101 9.38176 11.7762 9.39388 11.8204 9.40135C11.8511 9.40653 11.8799 9.3807 11.8738 9.35064C11.8125 9.04993 11.7685 8.23683 12.3541 8.06079C12.7285 7.94814 12.9753 8.15598 13.1217 8.36562C13.1874 8.45969 13.3836 8.8663 13.5056 9.14855C13.5713 9.301 13.7245 9.52374 13.8927 9.51971C14.5984 9.30365 15.3074 9.19559 16.016 9.19559C16.7249 9.19559 17.4337 9.30365 18.1393 9.51971C18.3076 9.52374 18.4607 9.301 18.5265 9.14855C18.6484 8.8663 18.8447 8.45969 18.9102 8.36562C19.0567 8.15597 19.3037 7.94814 19.678 8.06079C20.2636 8.23683 20.2195 9.04993 20.1584 9.35064C20.1522 9.3807 20.1809 9.40653 20.2116 9.40135C20.2559 9.39387 20.3221 9.38172 20.4067 9.36619ZM15.1727 14.4018C15.1921 14.2867 15.004 13.9946 14.4165 13.5984C14.0041 13.3235 13.5472 13.1124 13.0694 12.9736C12.9572 12.9409 12.8404 12.9198 12.7234 12.9239C12.51 12.9317 12.3055 13.0034 12.1262 13.1302C11.8868 13.2938 11.7211 13.512 11.671 13.7943C11.6198 14.0763 11.6998 14.3373 11.8678 14.5716C11.9921 14.7511 12.1594 14.8872 12.3573 14.9663C12.4657 15.0098 12.5828 15.029 12.6998 15.0361C13.1969 15.0663 13.6996 15.0218 14.1827 14.9023C14.8727 14.7274 15.1509 14.5164 15.1727 14.4018ZM19.6748 14.9663C19.8727 14.8872 20.0399 14.7511 20.1642 14.5716C20.3323 14.3373 20.4122 14.0765 20.361 13.7945C20.3111 13.5121 20.1452 13.2938 19.9059 13.1302C19.7267 13.0034 19.5221 12.9317 19.3087 12.9239C19.1917 12.9198 19.0749 12.9409 18.9627 12.9736C18.4848 13.1124 18.028 13.3235 17.6156 13.5984C17.028 13.9946 16.8399 14.2865 16.8593 14.4017C16.8811 14.5163 17.1594 14.7274 17.8494 14.9023C18.3324 15.0218 18.8352 15.0663 19.3324 15.0361C19.4493 15.029 19.5664 15.0098 19.6748 14.9663Z" fill="#110F23"/>
<path fill-rule="evenodd" clip-rule="evenodd" d="M9.36196 22.1804C9.36196 20.0988 12.3411 18.4114 16.0163 18.4114C19.6914 18.4114 22.6708 20.0989 22.6708 22.1804C22.6708 24.2619 19.6915 25.9492 16.0163 25.9492C12.3411 25.9492 9.36196 24.2619 9.36196 22.1804ZM11.6654 21.9457C11.767 22.5655 12.2972 22.8388 12.8667 22.5655C13.4222 22.3084 13.7883 21.7713 13.8194 21.1684C13.817 20.8489 13.645 20.9716 13.4327 21.123C13.1487 21.3256 12.7927 21.5797 12.673 20.8971C12.4637 19.7037 11.5539 21.2818 11.6654 21.9457ZM19.1658 22.5655C19.7351 22.8388 20.2653 22.5655 20.3671 21.9457C20.4784 21.2818 19.5688 19.7037 19.3595 20.8971C19.2397 21.5798 18.8836 21.3255 18.5997 21.123C18.3875 20.9716 18.2156 20.8489 18.2132 21.1684C18.2442 21.7713 18.6103 22.3084 19.1658 22.5655Z" fill="#110F23"/>
</svg>
