<svg width="32" height="32" viewBox="0 0 32 32" fill="none" xmlns="http://www.w3.org/2000/svg">
<g clip-path="url(#clip0_14573_272)">
<path d="M15.5415 2.99467C15.5588 2.9946 15.5761 2.99453 15.5939 2.99445C15.6859 2.99406 15.7779 2.99382 15.8699 2.99371C15.9439 2.9936 16.0178 2.99324 16.0918 2.99264C16.7927 2.98711 17.4839 3.03168 18.1759 3.14946C18.1956 3.15273 18.2154 3.156 18.2357 3.15938C19.359 3.34675 20.4533 3.69142 21.4861 4.16996C21.513 4.18236 21.54 4.19476 21.5678 4.20753C22.3405 4.56426 23.0844 4.98988 23.7564 5.51421C23.8237 5.56622 23.8924 5.61622 23.9609 5.66658C24.1012 5.77171 24.2346 5.88367 24.3676 5.99778C24.4442 6.06339 24.5225 6.1267 24.6012 6.18983C24.7058 6.27488 24.8015 6.36443 24.8953 6.4611C24.9418 6.50767 24.9898 6.5503 25.0399 6.59283C25.2494 6.77331 25.4468 6.97335 25.6255 7.18423C25.673 7.23907 25.7223 7.292 25.7719 7.34493C25.9123 7.49533 26.0416 7.65175 26.1669 7.81487C26.2159 7.87819 26.2656 7.94077 26.3163 8.00266C26.5066 8.23505 26.6786 8.47565 26.8437 8.72646C26.8561 8.7452 26.8685 8.76394 26.8813 8.78325C27.0698 9.06819 27.2525 9.35471 27.4141 9.65596C27.4263 9.67862 27.4385 9.70129 27.4511 9.72464C27.5452 9.89987 27.6363 10.0765 27.7261 10.254C27.7381 10.2777 27.7502 10.3014 27.7626 10.3258C28.3502 11.4885 28.7273 12.764 28.9221 14.05C28.9252 14.0701 28.9283 14.0903 28.9315 14.1111C28.9908 14.5011 29.012 14.882 29.0113 15.2761C29.0114 15.3346 29.0116 15.3931 29.0117 15.4516C29.012 15.5733 29.0119 15.6949 29.0117 15.8166C29.0114 15.9396 29.0116 16.0626 29.0122 16.1856C29.0154 16.8512 29.0155 17.5014 28.8961 18.158C28.8894 18.1986 28.8827 18.2393 28.8762 18.2799C28.8609 18.374 28.8432 18.4675 28.8246 18.561C28.8147 18.6105 28.8147 18.6105 28.8047 18.661C28.618 19.5842 28.3277 20.4999 27.9341 21.356C27.9202 21.3861 27.9063 21.4163 27.892 21.4474C27.5123 22.2684 27.0718 23.0672 26.513 23.7811C26.4786 23.8252 26.4448 23.8697 26.4111 23.9144C26.2584 24.1165 26.0974 24.3102 25.9321 24.502C25.9155 24.5212 25.8989 24.5404 25.8818 24.5603C25.8382 24.6104 25.7941 24.6602 25.7501 24.71C25.7346 24.7276 25.7191 24.7453 25.7031 24.7635C25.5416 24.946 25.3713 25.1187 25.1988 25.2906C25.1503 25.3389 25.102 25.3874 25.0537 25.4359C24.9003 25.5894 24.7466 25.7405 24.5801 25.88C24.5526 25.9037 24.5251 25.9274 24.4977 25.9512C22.7224 27.4646 20.5434 28.4887 17.8201 28.948C17.7727 28.9549 17.7727 28.9549 17.7243 28.962C17.4059 29.0041 17.0905 29.0089 16.7697 29.0096C16.7113 29.0098 16.6529 29.0101 16.5945 29.0103C16.4724 29.0107 16.3504 29.0109 16.2283 29.011C16.1051 29.0111 15.982 29.0117 15.8588 29.0126C15.1401 29.0181 14.4455 29.0047 13.7381 28.87C13.7036 28.8635 13.6692 28.8571 13.6348 28.8507C12.3934 28.6187 11.2269 28.2109 10.0981 27.648C10.0595 27.6287 10.0595 27.6287 10.0201 27.6091C8.98577 27.0905 7.93021 26.3942 7.12227 25.5563C7.07929 25.5132 7.03419 25.4741 6.9878 25.4347C6.7774 25.253 6.57894 25.0521 6.39904 24.8403C6.34325 24.7754 6.28526 24.7128 6.2273 24.6498C6.09945 24.5093 5.97826 24.3646 5.86005 24.216C5.84719 24.1999 5.83434 24.1839 5.82109 24.1674C5.43133 23.6803 5.07908 23.1708 4.76805 22.63C4.75786 22.6124 4.74767 22.5948 4.73716 22.5768C4.66762 22.4568 4.60037 22.3357 4.53405 22.214C4.52254 22.193 4.51103 22.172 4.49917 22.1504C3.49591 20.3135 2.9793 18.2074 2.98988 16.1174C2.99033 16.0289 2.99006 15.9405 2.98961 15.852C2.98688 15.2121 3.03368 14.5782 3.13655 13.946C3.14199 13.9121 3.14742 13.8782 3.15302 13.8433C3.43997 12.0962 4.10112 10.3786 5.08005 8.90196C5.09359 8.88149 5.10712 8.86102 5.12107 8.83994C5.38911 8.43678 5.67837 8.05048 5.99005 7.67996C6.00167 7.66613 6.01328 7.65231 6.02524 7.63807C6.30539 7.30551 6.59962 6.99012 6.90655 6.68221C6.91882 6.66987 6.93109 6.65753 6.94373 6.64482C7.08926 6.49866 7.23703 6.35766 7.39405 6.22396C7.42222 6.19928 7.45035 6.17457 7.47845 6.14981C7.69419 5.96165 7.91754 5.78545 8.14669 5.61393C8.19588 5.57708 8.24485 5.53994 8.29379 5.50276C10.1526 4.10254 12.4385 3.25515 15.5415 2.99467ZM14.1557 3.80921C14.1383 3.8119 14.1209 3.81459 14.1029 3.81736C13.4027 3.92659 12.7193 4.09938 12.0481 4.32596C12.0225 4.33453 11.997 4.3431 11.9707 4.35193C11.5791 4.48491 11.202 4.6482 10.8261 4.81996C10.8022 4.83075 10.7784 4.84154 10.7538 4.85266C10.2246 5.09326 9.7221 5.37934 9.24005 5.70396C9.21431 5.72112 9.21431 5.72112 9.18804 5.73864C8.80845 5.99213 8.44546 6.26827 8.09605 6.56196C8.07594 6.57875 8.07594 6.57875 8.05543 6.59589C7.64699 6.93774 7.23904 7.29989 6.89294 7.70585C6.8424 7.76452 6.78999 7.82123 6.73755 7.87821C6.60694 8.02313 6.48763 8.17566 6.36845 8.32997C6.32533 8.38546 6.28174 8.44055 6.23807 8.4956C6.04754 8.73657 5.86946 8.98118 5.70405 9.23995C5.67866 9.27916 5.65327 9.31836 5.62788 9.35756C5.46278 9.61411 5.30814 9.87479 5.1636 10.1434C5.13209 10.2019 5.10014 10.2601 5.06817 10.3182C4.56627 11.241 4.2143 12.246 3.98805 13.27C3.98142 13.2993 3.97478 13.3287 3.96794 13.3589C3.88673 13.72 3.81925 14.0811 3.77193 14.4481C3.76571 14.4961 3.76571 14.4961 3.75937 14.5451C3.5214 16.4958 3.73236 18.6497 4.50005 20.4693C4.53302 20.5475 4.56529 20.626 4.59743 20.7045C5.11848 21.9673 5.83613 23.1716 6.76497 24.1794C6.79586 24.2133 6.82657 24.2473 6.85618 24.2823C7.00322 24.4552 7.16383 24.6146 7.32422 24.7749C7.37421 24.825 7.424 24.8753 7.47378 24.9255C7.65602 25.1086 7.84136 25.2776 8.04405 25.438C8.07464 25.4641 8.10503 25.4905 8.13515 25.5172C8.66523 25.9866 9.27435 26.3899 9.89005 26.738C9.91059 26.7496 9.93113 26.7612 9.95228 26.7732C10.8855 27.2989 11.8703 27.7087 12.9102 27.9676C12.9576 27.9794 13.0049 27.9913 13.0522 28.0033C13.6973 28.1678 14.3488 28.2692 15.0121 28.324C15.0557 28.3277 15.0557 28.3277 15.1003 28.3315C16.6818 28.453 18.3111 28.2789 19.8158 27.7712C19.8965 27.7445 19.9778 27.7207 20.0593 27.6967C20.1616 27.6654 20.2598 27.6296 20.3583 27.5878C20.4636 27.5434 20.5691 27.4995 20.675 27.4564C21.5024 27.1164 22.2838 26.7014 23.0201 26.192C23.0364 26.1807 23.0527 26.1694 23.0696 26.1578C23.4243 25.9115 23.7589 25.6415 24.0861 25.36C24.1047 25.344 24.1233 25.328 24.1424 25.3116C24.1934 25.2675 24.2438 25.2228 24.2941 25.178C24.326 25.1496 24.326 25.1496 24.3586 25.1207C24.5311 24.9654 24.6968 24.8039 24.8612 24.6401C24.882 24.6194 24.9028 24.5987 24.9242 24.5774C25.0489 24.4524 25.1673 24.324 25.2821 24.19C25.3067 24.1618 25.3314 24.1337 25.3562 24.1056C25.559 23.873 25.7479 23.6315 25.9321 23.384C25.9462 23.365 25.9603 23.3461 25.9748 23.3266C26.7007 22.3506 27.2801 21.2535 27.6749 20.1031C27.6984 20.0346 27.7243 19.9675 27.7504 19.9C27.8366 19.6625 27.8966 19.4162 27.9601 19.172C27.9666 19.1472 27.9731 19.1225 27.9798 19.097C28.4837 17.1658 28.5022 15.0907 28.0275 13.152C28.0129 13.0915 27.9993 13.0309 27.986 12.9701C27.8296 12.279 27.5783 11.5992 27.2841 10.956C27.2658 10.9157 27.2658 10.9157 27.2471 10.8747C26.7858 9.86768 26.189 8.8973 25.453 8.06598C25.4233 8.03113 25.3945 7.99552 25.3662 7.95947C25.1926 7.73911 24.9971 7.54311 24.7984 7.34555C24.7394 7.28682 24.6807 7.22782 24.622 7.16879C24.4447 6.99131 24.268 6.81889 24.0707 6.66371C24.0077 6.61367 23.9482 6.56115 23.8886 6.50711C23.7731 6.40342 23.6517 6.30976 23.5271 6.21746C23.4929 6.19211 23.4929 6.19211 23.4581 6.16625C23.3902 6.116 23.3221 6.06597 23.2541 6.01596C23.2358 6.00241 23.2176 5.98886 23.1988 5.9749C22.3251 5.32699 21.2978 4.77046 20.2641 4.42996C20.2293 4.41717 20.1946 4.4042 20.1601 4.39096C20.1254 4.37791 20.0907 4.36492 20.0561 4.35196C20.0317 4.34278 20.0073 4.33361 19.9822 4.32416C19.7381 4.23453 19.4916 4.16138 19.2403 4.09521C19.2192 4.08964 19.1981 4.08408 19.1764 4.07834C18.6775 3.94795 18.1742 3.8535 17.6641 3.77996C17.6464 3.77737 17.6288 3.77479 17.6107 3.77213C17.0806 3.69551 16.5492 3.69484 16.0147 3.69383C15.9817 3.69373 15.9487 3.69363 15.9147 3.69353C15.3252 3.69264 14.7388 3.7179 14.1557 3.80921Z" fill="#110F23"/>
<path fill-rule="evenodd" clip-rule="evenodd" d="M10.5996 8.72138C10.5405 8.66205 10.4866 8.62459 10.4101 8.59009C10.2185 8.78115 10.0269 8.97226 9.83545 9.16346L9.54211 9.45628L9.25514 9.74261L9.14563 9.852L8.98864 10.0086L8.94016 10.0571C8.82626 10.1702 8.71901 10.2868 8.61609 10.4101C8.84334 10.6362 9.07049 10.8625 9.29747 11.0889L9.32434 11.1157C9.43106 11.2222 9.53778 11.3287 9.64462 11.4351C9.75814 11.548 9.87162 11.661 9.98495 11.7741L10.1141 11.9031C10.1764 11.9649 10.2386 12.0267 10.3007 12.0888L10.3576 12.1457L10.4115 12.199L10.4608 12.2485C10.5197 12.3073 10.5615 12.3601 10.5921 12.4381L10.5683 12.4907C9.8334 13.5008 9.52633 14.7807 9.51986 16.0131L9.51959 16.0732C9.51767 16.3321 9.52743 16.5842 9.56383 16.8407L9.57809 16.9361C9.7043 17.7948 9.97411 18.6236 10.4395 19.3618C10.4914 19.4439 10.5313 19.5235 10.5661 19.6141C10.3388 19.8402 10.1117 20.0665 9.88471 20.2929L9.85876 20.3188C9.75173 20.4256 9.6447 20.5324 9.53755 20.6391C9.42404 20.752 9.31055 20.865 9.19723 20.9781L9.06804 21.1071C9.0058 21.1689 8.94356 21.2307 8.8815 21.2928L8.82461 21.3497L8.77066 21.403L8.72138 21.4525C8.66205 21.5117 8.62459 21.5656 8.59009 21.6421C8.78115 21.8337 8.97226 22.0253 9.16346 22.2167L9.45628 22.5101L9.74261 22.797L9.852 22.9065L10.0086 23.0635L10.0571 23.112C10.1702 23.2259 10.2868 23.3332 10.4101 23.4361C10.6362 23.2088 10.8625 22.9817 11.0889 22.7547L11.1157 22.7278C11.2222 22.6211 11.3287 22.5144 11.4351 22.4076C11.548 22.294 11.661 22.1806 11.7741 22.0672L11.9031 21.938C11.9649 21.8758 12.0267 21.8136 12.0888 21.7515L12.1457 21.6946L12.199 21.6407L12.2485 21.5914C12.2936 21.5462 12.3332 21.5126 12.3882 21.4799C12.4382 21.4536 12.4382 21.4536 12.4898 21.4791L12.5446 21.515L12.607 21.5546C13.3358 22.0312 14.1867 22.3412 15.0495 22.4588L15.1681 22.4741C16.5775 22.6773 17.9775 22.3638 19.2176 21.6843L19.2918 21.643L19.3618 21.6041C19.4442 21.5579 19.5262 21.5206 19.6141 21.4861C19.8402 21.7133 20.0665 21.9405 20.2929 22.1675L20.3188 22.1934C20.4256 22.3004 20.5324 22.4075 20.6391 22.5146C20.752 22.6281 20.865 22.7416 20.9781 22.8549L21.1071 22.9841C21.1689 23.0464 21.2307 23.1086 21.2928 23.1707L21.3497 23.2276L21.403 23.2815L21.4525 23.3308C21.5117 23.3901 21.5656 23.4276 21.6421 23.4621C21.8483 23.2576 22.0543 23.0529 22.26 22.8479L22.2835 22.8246C22.3805 22.7279 22.4775 22.6312 22.5748 22.5348C22.6778 22.4326 22.7807 22.3304 22.8834 22.228L23.0005 22.1113C23.057 22.0554 23.1135 21.9995 23.1697 21.9433L23.2212 21.8918L23.2703 21.8436L23.3148 21.7987C23.358 21.7558 23.3821 21.7248 23.4058 21.6685C23.408 21.6418 23.4091 21.6287 23.406 21.6166C23.4031 21.605 23.3964 21.5944 23.3833 21.5735L23.3403 21.5312L23.2915 21.4822L23.2368 21.4293C23.1772 21.37 23.1174 21.3108 23.0573 21.252C23.0142 21.2098 22.9712 21.1675 22.9284 21.1251C22.8163 21.0138 22.704 20.9027 22.5915 20.7919C22.4073 20.6108 22.2234 20.4295 22.0399 20.2477C21.9754 20.1837 21.9108 20.1198 21.8459 20.0562C21.8049 20.016 21.7639 19.9757 21.7231 19.9353L21.6661 19.8789L21.6117 19.826L21.5624 19.7769C21.5151 19.7304 21.4892 19.7007 21.4667 19.6379C21.4611 19.613 21.4582 19.6001 21.4601 19.5879C21.4622 19.5749 21.4699 19.5627 21.4858 19.5375C21.7734 19.1535 21.9784 18.6909 22.1416 18.2414L22.1621 18.1841C22.2042 18.0671 22.2425 17.9494 22.2756 17.8295C22.7358 16.1128 22.5561 14.3374 21.6681 12.7891L21.6227 12.7114L21.5803 12.6388L21.5798 12.6379C21.5357 12.5633 21.4975 12.4987 21.4861 12.4121C21.5204 12.368 21.535 12.3493 21.5509 12.3318C21.5626 12.319 21.575 12.3068 21.5966 12.2857L21.6477 12.2361C21.7035 12.1804 21.7594 12.1248 21.8156 12.0696C21.856 12.03 21.8963 11.9902 21.9365 11.9503C22.0418 11.8455 22.1473 11.7409 22.2531 11.6367C22.4049 11.4871 22.5562 11.3372 22.7074 11.1872L22.7216 11.1731C22.7982 11.0971 22.8749 11.021 22.9517 10.9452L23.0669 10.8315L23.1209 10.7782C23.2411 10.6601 23.3539 10.5394 23.4621 10.4101C23.2575 10.2044 23.0528 9.99882 22.8479 9.7934L22.8235 9.76892C22.7272 9.67239 22.6309 9.57585 22.5348 9.47918C22.4326 9.37644 22.3304 9.27373 22.228 9.17117L22.1113 9.05423C22.0554 8.99789 21.9995 8.94156 21.9433 8.88541L21.8918 8.8339L21.8436 8.78511L21.7987 8.74047C21.7423 8.68379 21.689 8.64934 21.6161 8.61609C21.4035 8.82926 21.1908 9.04238 20.978 9.25542L20.6523 9.58169L20.3336 9.90098L20.212 10.0227L20.0377 10.1974L19.9838 10.2513C19.8649 10.3709 19.7434 10.4837 19.6141 10.5921C19.3277 10.3956 19.0188 10.2293 18.7016 10.0883C17.1434 9.42495 15.3419 9.28808 13.743 9.91924L13.6861 9.94209C13.3881 10.0609 13.1005 10.1889 12.8238 10.3519C12.767 10.3855 12.7097 10.418 12.6518 10.4499L12.5749 10.4917L12.4381 10.5661C12.2119 10.3388 11.9857 10.1117 11.7592 9.88471L11.7324 9.85778C11.6259 9.75108 11.5195 9.64438 11.4131 9.53755C11.3002 9.42404 11.1872 9.31055 11.0741 9.19723L10.9451 9.06804C10.8833 9.0058 10.8214 8.94356 10.7594 8.8815L10.7025 8.82461L10.6491 8.77066L10.5996 8.72138ZM19.6141 14.414C19.3798 13.8787 19.0291 13.4284 18.5892 13.0452C17.668 12.2579 16.3926 11.8852 15.195 12.165L15.1421 12.178C14.3958 12.3598 13.7038 12.7412 13.1794 13.3052L13.1401 13.348C12.6611 13.8705 12.3389 14.4786 12.1715 15.168C11.9471 16.1822 12.1422 17.2587 12.6981 18.132C13.2678 19.0058 14.1385 19.6346 15.1591 19.8609L15.2201 19.874C15.6833 19.9756 16.1895 20.0064 16.6573 19.9164L16.7281 19.9C16.8057 19.8826 16.8827 19.8642 16.9596 19.8439L17.0401 19.822C17.7413 19.6427 18.4342 19.2408 18.9105 18.6892L18.9641 18.626C19.3106 18.2248 19.5779 17.7905 19.7495 17.287L19.7701 17.222C19.7912 17.1561 19.8103 17.0904 19.8275 17.0233L19.8481 16.936C19.9677 16.4469 20.0069 15.9353 19.9178 15.4366L19.9001 15.35C19.8433 15.0432 19.7625 14.7572 19.6387 14.4702L19.6141 14.414Z" fill="#110F23"/>
<path d="M17.2351 13.9167C17.5217 14.1677 17.7361 14.4707 17.7941 14.8559C17.7941 14.9417 17.7941 15.0275 17.7941 15.1159C17.4766 15.1159 17.1591 15.1159 16.8321 15.1159C16.8063 15.013 16.8063 15.013 16.7801 14.9079C16.6798 14.7281 16.5657 14.6473 16.3739 14.5859C16.0677 14.5069 15.7205 14.5044 15.4382 14.6591C15.3451 14.7187 15.282 14.763 15.2201 14.8559C15.2128 14.9127 15.2128 14.9127 15.2152 14.9729C15.2154 15.0031 15.2154 15.0031 15.2157 15.0339C15.2182 15.0947 15.2182 15.0947 15.2461 15.1679C15.2928 15.1963 15.2928 15.1963 15.3501 15.2199C15.3695 15.2306 15.389 15.2414 15.409 15.2524C15.6883 15.4014 15.9887 15.4925 16.2882 15.5922C16.8328 15.7742 17.4265 15.9787 17.7112 16.5199C17.8469 16.8149 17.8783 17.1713 17.7681 17.4819C17.6068 17.8855 17.3093 18.1624 16.9148 18.3334C16.4355 18.5216 15.8156 18.5569 15.3241 18.3919C15.2974 18.3831 15.2708 18.3742 15.2433 18.3651C14.8531 18.2187 14.5428 17.9409 14.3677 17.5621C14.2819 17.3449 14.2581 17.172 14.2581 16.9359C14.5755 16.9359 14.893 16.9359 15.2201 16.9359C15.2458 17.0303 15.2715 17.1247 15.2981 17.2219C15.4507 17.3933 15.6078 17.4643 15.8361 17.4897C15.9077 17.4933 15.9787 17.4941 16.0504 17.4933C16.0755 17.4931 16.1006 17.4929 16.1264 17.4928C16.3843 17.4869 16.596 17.4367 16.7801 17.2479C16.8401 17.1633 16.8464 17.0901 16.8321 16.9879C16.7439 16.863 16.6539 16.7934 16.5152 16.7279C16.4972 16.7192 16.4793 16.7105 16.4608 16.7015C16.2063 16.5817 15.9372 16.4977 15.6653 16.4273C15.1877 16.3015 14.6778 16.0487 14.3881 15.6359C14.2225 15.3093 14.1741 14.9588 14.2547 14.5988C14.3205 14.4167 14.4144 14.2707 14.5441 14.1279C14.5589 14.1104 14.5738 14.0928 14.5892 14.0747C15.215 13.3846 16.5198 13.3679 17.2351 13.9167Z" fill="#110F23"/>
</g>
<defs>
<clipPath id="clip0_14573_272">
<rect width="26" height="26" fill="white" transform="translate(3 3)"/>
</clipPath>
</defs>
</svg>
