<svg width="32" height="32" viewBox="0 0 32 32" fill="none" xmlns="http://www.w3.org/2000/svg">
<path d="M19.9922 3C15.4185 3 11.5339 6.51709 11.0458 11.0446C6.51591 11.5339 3 15.4185 3 19.991C3.00125 22.3797 3.95065 24.6703 5.63964 26.3595C7.32863 28.0487 9.61907 28.9984 12.0078 29C16.5815 29 20.4815 25.4829 20.9542 20.9554C25.4829 20.4661 29 16.5815 29 12.009C28.9987 9.62025 28.0493 7.32969 26.3604 5.64048C24.6714 3.95127 22.3809 3.00157 19.9922 3ZM26.8893 13.0171C26.6644 14.4944 25.9731 15.8612 24.9164 16.9179C23.8598 17.9746 22.493 18.6658 21.0156 18.8907V13.0171H26.8893ZM5.11073 18.9829C5.33262 17.5028 6.02253 16.1325 7.07946 15.0729C8.13639 14.0132 9.50481 13.3197 10.9844 13.0939V18.9675H5.11073V18.9829ZM18.9061 21.0156C18.6621 22.6704 17.8309 24.1821 16.5643 25.2746C15.2978 26.3671 13.6805 26.9675 12.0078 26.9661C10.3355 26.9675 8.71846 26.3673 7.45214 25.275C6.18582 24.1827 5.35474 22.6712 5.11073 21.0168H18.9061V21.0156ZM18.9829 13.0171V18.9675H13.0171V13.0171H18.9829ZM26.8893 10.9844H13.0939C13.3379 9.32962 14.1691 7.81789 15.4357 6.72537C16.7022 5.63285 18.3195 5.03247 19.9922 5.03391C21.6645 5.03247 23.2815 5.63273 24.5479 6.72503C25.8142 7.81732 26.6453 9.32993 26.8893 10.9844Z" fill="#110F23"/>
</svg>
