<svg width="32" height="32" viewBox="0 0 32 32" fill="none" xmlns="http://www.w3.org/2000/svg">
<path d="M28.4047 5.47748L24.5522 5.52998L18.3747 11.7075C17.7444 12.3365 16.8902 12.6897 15.9997 12.6897C15.1092 12.6897 14.2551 12.3365 13.6247 11.7075L7.44723 5.52998L3.59473 5.47748L11.2497 13.1325C12.5102 14.391 14.2185 15.0979 15.9997 15.0979C17.7809 15.0979 19.4893 14.391 20.7497 13.1325L28.4047 5.47748Z" fill="#110F23"/>
<path d="M3.59473 26.5225L7.44723 26.47L13.6247 20.2925C14.2551 19.6635 15.1092 19.3103 15.9997 19.3103C16.8902 19.3103 17.7444 19.6635 18.3747 20.2925L24.5522 26.47L28.4047 26.5225L20.7497 18.8675C19.4893 17.6089 17.7809 16.902 15.9997 16.902C14.2185 16.902 12.5102 17.6089 11.2497 18.8675L3.59473 26.5225Z" fill="#110F23"/>
</svg>
