<svg width="32" height="32" viewBox="0 0 32 32" fill="none" xmlns="http://www.w3.org/2000/svg">
<path d="M16.1456 12.9543V20.6624L23.5834 16.0891L16.1456 12.9543Z" fill="#110F23"/>
<path d="M16.1456 12.0842L23.5158 15.1917L21.7541 12.2774L25.5 8.47696L23.2615 6.20466L20.0525 9.46167L16.1456 3V12.0842Z" fill="#110F23"/>
<path d="M15.3544 20.6624V12.9543L7.91659 16.0891L15.3544 20.6624Z" fill="#110F23"/>
<path d="M7.98415 15.1917L15.3544 12.0842V3L11.4487 9.46167L8.23847 6.20466L6 8.47696L9.74593 12.2762L7.98415 15.1917Z" fill="#110F23"/>
<path d="M23.4999 18.4886L16.1456 23.0107V29L19.1716 24.6735L22.3303 27.8782L24.5687 25.6071L21.0304 22.0173L23.4999 18.4886Z" fill="#110F23"/>
<path d="M15.3544 23.0107L8.00013 18.4886L10.4696 22.0173L6.93127 25.6071L9.16974 27.8782L12.3284 24.6748L15.3544 28.9988V23.0107Z" fill="#110F23"/>
</svg>
