<svg width="32" height="32" viewBox="0 0 32 32" fill="none" xmlns="http://www.w3.org/2000/svg">
<path d="M15.9954 7.53333C16.8398 7.53333 17.6065 8.01111 17.9843 8.76667L24.2287 21.2667C24.7732 22.3667 24.3287 23.7 23.2287 24.2444C22.9176 24.4 22.5843 24.4778 22.2398 24.4778H9.75094C8.52872 24.4778 7.52872 23.4778 7.52872 22.2556C7.52872 21.9111 7.6065 21.5667 7.76205 21.2667L14.0065 8.76667C14.3843 8 15.1509 7.52222 15.9954 7.53333ZM15.9954 6C14.5732 6 13.2732 6.8 12.6398 8.07778L6.39539 20.5778C5.47316 22.4333 6.21761 24.6778 8.07316 25.6111C8.59539 25.8667 9.17316 26.0111 9.75094 26.0111H22.2509C24.3176 26.0111 26.0065 24.3333 26.0065 22.2667C26.0065 21.6889 25.8732 21.1111 25.6065 20.5889L19.3509 8.07778C18.7176 6.8 17.4176 6 15.9954 6Z" fill="#110F23"/>
</svg>
