<svg width="32" height="32" viewBox="0 0 32 32" fill="none" xmlns="http://www.w3.org/2000/svg">
<path d="M25.5479 11.0975C22.9304 8.4675 17.2979 6.3275 14.8704 5.82C12.6854 5.3625 10.5529 5.1475 8.81288 6.7225C5.91038 9.355 5.67538 13.4 5.78538 15.75C5.92288 18.64 6.95788 21.9125 7.57288 23.425C8.63788 26.0425 10.3854 28.1225 12.7704 27.3425C14.4054 26.8075 15.2704 24.385 15.5979 23.27C16.2204 21.12 16.2754 18.77 15.6154 16.095C15.3179 14.895 14.8654 13.695 14.4879 12.475C14.2979 11.8675 14.0929 11.2625 13.9204 10.6375C13.829 10.3216 13.7539 10.0011 13.6954 9.6775C13.665 9.50678 13.655 9.33308 13.6654 9.16C13.6734 8.9711 13.7418 8.78974 13.8604 8.6425C13.8793 8.62368 13.9043 8.6122 13.9309 8.6101C13.9575 8.60801 13.984 8.61543 14.0056 8.63105C14.0272 8.64668 14.0426 8.66948 14.049 8.69539C14.0553 8.7213 14.0523 8.74863 14.0404 8.7725C13.9079 9 13.9879 9.3025 14.0729 9.5875C14.1723 9.88264 14.2874 10.1722 14.4179 10.455L15.2154 12.205C15.7029 13.3075 16.1954 14.4075 16.6029 15.58C17.1679 15.545 17.7429 15.5025 18.3079 15.445C18.9879 15.38 19.662 15.2917 20.3304 15.18C20.9979 15.07 23.5804 14.6 23.5979 13.9725C23.6129 13.5825 22.5129 12.875 22.2179 12.705C21.619 12.3694 20.9994 12.0721 20.3629 11.815C19.7229 11.565 19.0729 11.315 18.4179 11.105C18.0904 11 17.7579 10.9075 17.4179 10.825C17.0905 10.7366 16.7558 10.678 16.4179 10.65C16.402 10.65 16.3867 10.6437 16.3755 10.6324C16.3642 10.6212 16.3579 10.6059 16.3579 10.59C16.3579 10.5741 16.3642 10.5588 16.3755 10.5476C16.3867 10.5363 16.402 10.53 16.4179 10.53V10.53C17.1102 10.6148 17.7931 10.7637 18.4579 10.975C19.1254 11.1675 19.7829 11.3875 20.4354 11.6225C21.093 11.8582 21.7381 12.1277 22.3679 12.43C23.0729 12.7675 24.2304 13.43 24.1829 14.18C24.1054 15.3375 21.2054 15.9525 20.5179 16.115C19.3394 16.3791 18.1453 16.5678 16.9429 16.68C17.2102 17.6706 17.3595 18.6893 17.3879 19.715C17.4085 20.3855 17.3548 21.0563 17.2279 21.715C17.1722 22.0042 17.0962 22.289 17.0004 22.5675C18.6329 22.0525 23.8154 20.845 25.1529 20.335C26.9029 19.67 27.1929 18.4425 27.4254 17.1675C27.6347 16.0793 27.5729 14.9564 27.2455 13.8978C26.918 12.8392 26.335 11.8774 25.5479 11.0975V11.0975ZM12.9604 25.1325C12.1004 26.175 11.1354 25.8225 10.8279 25.6325C10.8149 25.6252 10.8036 25.6153 10.7946 25.6035C10.7857 25.5916 10.7793 25.578 10.7759 25.5635C10.7724 25.549 10.7721 25.534 10.7747 25.5194C10.7774 25.5048 10.7831 25.4909 10.7914 25.4785C10.7998 25.4662 10.8105 25.4558 10.8231 25.4478C10.8357 25.4399 10.8498 25.4347 10.8645 25.4324C10.8792 25.4302 10.8942 25.4311 10.9085 25.435C10.9229 25.4389 10.9363 25.4457 10.9479 25.455C11.7754 25.975 12.5304 25.36 12.8229 24.5225C13.7854 21.7725 13.1604 18.6925 10.5979 15.425C10.5604 15.375 10.5304 15.3225 10.5629 15.27C10.5795 15.2471 10.6038 15.2309 10.6313 15.2245C10.6589 15.2181 10.6879 15.2218 10.7129 15.235C14.0154 16.69 15.3379 22.25 12.9604 25.1325Z" fill="#110F23"/>
</svg>
