<svg width="32" height="32" viewBox="0 0 32 32" fill="none" xmlns="http://www.w3.org/2000/svg">
<g clip-path="url(#clip0_4_1969)">
<path d="M22.1624 6.83385C20.6715 4.47823 18.6023 3.01608 16.2845 3C11.6486 3.02389 8 8.86056 8 16.0037C8 19.5711 8.91398 22.8183 10.4058 25.173C11.8976 27.5277 13.9663 28.9913 16.2841 29C18.6018 28.9913 20.671 27.5282 22.1624 25.173C23.6546 22.8183 24.5686 19.5706 24.5686 16.0037C24.5686 12.4367 23.6546 9.18855 22.1624 6.83385ZM21.934 25.0288C21.1966 26.179 20.3303 27.1097 19.3759 27.7514C18.4216 28.3854 17.3833 28.7368 16.2841 28.7368C15.1848 28.7368 14.147 28.3854 13.1922 27.7514C12.2379 27.1097 11.3716 26.179 10.6342 25.0288C9.17492 22.7283 8.26782 19.5284 8.26782 16.0078C8.26782 14.2397 8.49253 12.5575 8.9016 11.032C9.31067 9.49816 9.90455 8.12099 10.6342 6.97166C11.3716 5.82049 12.2379 4.88982 13.1922 4.24809C14.1466 3.61509 15.1848 3.26322 16.2841 3.26322C17.3833 3.26322 18.4216 3.61555 19.3759 4.24809C20.3303 4.88982 21.1966 5.82049 21.934 6.97166C22.6641 8.12099 23.2575 9.49816 23.6666 11.032C24.0756 12.5575 24.3003 14.2397 24.3003 16.0078C24.3003 19.5288 23.3932 22.7283 21.934 25.0288Z" fill="#110F23"/>
<path d="M16.2842 3.9982C12.1862 4.02117 8.98242 9.42007 8.98242 16.0078C8.98242 22.5956 12.1862 27.9857 16.2842 28.0101C20.3822 27.9857 23.5864 22.5882 23.5864 16.0078C23.5864 9.42742 20.3822 4.02117 16.2842 3.9982ZM18.2773 17.0097V22.3144C17.7636 22.4633 17.2193 22.5648 16.6579 22.5965V17.0101H18.2773V17.0097ZM16.6579 14.7799V9.41272C17.2193 9.44442 17.7558 9.54594 18.2773 9.69431V14.7799H16.6579ZM15.3982 9.45177V22.557C14.9575 22.4945 14.5402 22.4003 14.1311 22.2671V9.74163C14.5406 9.60841 14.9575 9.50643 15.3982 9.45131V9.45177ZM12.864 10.3048V21.7048C12.4072 21.438 11.9904 21.1329 11.6051 20.7728V11.2359C11.9904 10.8753 12.4072 10.563 12.864 10.3048ZM17.5949 5.78604L17.2491 6.09703C17.0418 5.877 16.7437 5.73689 16.4121 5.73689C15.7839 5.73689 15.2744 6.23392 15.2744 6.85039C15.2744 7.46686 15.7839 7.95929 16.4121 7.95929C16.7437 7.95929 17.0413 7.82011 17.2491 7.59961L17.5953 7.90877C17.3032 8.22159 16.8804 8.41728 16.4121 8.41728C15.5248 8.41728 14.8052 7.71445 14.8052 6.84993C14.8052 5.98541 15.5248 5.27799 16.4121 5.27799C16.8804 5.27799 17.3004 5.47414 17.5944 5.78558L17.5949 5.78604ZM14.071 5.9776L14.8607 8.53993C14.7121 8.56887 14.5635 8.60103 14.4191 8.63915L14.2416 8.06357L12.8456 8.60516L12.3962 9.50643C12.1454 9.66445 11.9018 9.83672 11.673 10.0214L13.4936 6.33958L14.0715 5.97668L14.071 5.9776ZM20.2057 9.52389L19.6961 7.83619L19.21 9.00251C19.1284 8.96576 19.0491 8.93361 18.9674 8.89961L18.6244 7.14852L18.1594 8.64007C18.0117 8.60195 17.8631 8.56933 17.7132 8.54039L18.5139 5.97806L18.8973 6.22749L19.2288 7.76636L19.6274 6.80491L19.9034 7.0176L20.7872 9.93318C20.601 9.78802 20.4056 9.64975 20.2061 9.52435L20.2057 9.52389ZM10.3371 12.8309V19.176C9.81569 18.2298 9.51118 17.1502 9.51118 16.0078C9.51118 14.8654 9.81569 13.7785 10.3371 12.8309ZM20.9866 24.0595C20.3776 25.0839 19.6636 25.9213 18.862 26.4923C18.0681 27.0711 17.1982 27.3844 16.2837 27.3844C15.3693 27.3844 14.4993 27.0711 13.7055 26.4923C12.9034 25.9213 12.1898 25.0839 11.5808 24.0595C10.8186 22.7678 10.2491 21.1637 9.92851 19.3727C11.1557 21.5712 13.5331 23.065 16.2837 23.065C19.0344 23.065 21.4122 21.5712 22.639 19.3727C22.3184 21.1637 21.7488 22.7678 20.9866 24.0595ZM20.8027 20.9294V17.0097H22.9765C22.7357 18.5587 21.9414 19.9354 20.8027 20.9294ZM20.8027 14.7799V11.0862C20.8 11.0839 20.7977 11.0816 20.7949 11.0793H20.8027V11.0862C21.8979 12.032 22.6642 13.3201 22.9444 14.7799H20.8027Z" fill="#110F23"/>
<path d="M13.8083 6.66527L13.1406 8.01075L14.1087 7.63544L13.8083 6.66527Z" fill="#110F23"/>
<path d="M18.6867 23.1252C18.2386 23.2754 17.9878 23.6167 18.1643 24.1165C18.2831 24.456 18.6394 24.6645 19.0788 24.5184C19.232 24.4656 19.3989 24.3733 19.4525 24.1996L19.4617 24.2042C19.6089 24.6328 19.4617 24.8083 19.2847 24.897C19.1095 24.9796 18.9485 24.9374 18.844 24.8143L18.8426 24.8124L18.5477 25.0113C18.7188 25.2612 19.0393 25.3375 19.3925 25.2185C19.8061 25.0798 20.1345 24.6852 19.8584 23.9011C19.7589 23.6144 19.4801 22.8597 18.6871 23.1252H18.6867ZM19.0623 24.167C18.8912 24.2235 18.6615 24.2244 18.5551 23.9203C18.4533 23.6305 18.683 23.4931 18.7977 23.4578C19.0311 23.3806 19.1925 23.484 19.2751 23.7132C19.3594 23.9557 19.2196 24.1133 19.0623 24.167Z" fill="#110F23"/>
<path d="M16.8839 23.4711C16.4124 23.5111 16.0846 23.7807 16.129 24.3071C16.1607 24.6613 16.4542 24.9516 16.9164 24.9121C17.0792 24.9002 17.2618 24.8496 17.3585 24.6976L17.3654 24.7022C17.3998 25.1533 17.2113 25.2893 17.0192 25.3274C16.8289 25.3696 16.6839 25.2916 16.6142 25.1469V25.1436L16.2785 25.2681C16.3794 25.5456 16.6734 25.6958 17.0444 25.6669C17.4782 25.6315 17.896 25.3278 17.8258 24.5024C17.8025 24.1992 17.7199 23.4045 16.8843 23.4711H16.8839ZM16.9898 24.5676C16.8087 24.5837 16.5849 24.5322 16.5569 24.2107C16.5326 23.902 16.7885 23.8271 16.9109 23.8193C17.1535 23.7991 17.2865 23.936 17.3076 24.1803C17.3301 24.4367 17.1535 24.5566 16.9894 24.5676H16.9898Z" fill="#110F23"/>
<path d="M15.081 23.3939C14.6646 23.3204 14.3 23.4849 14.2363 23.8496C14.2 24.0458 14.2762 24.1974 14.4491 24.3154C14.0602 24.4004 14.0102 24.6834 13.9905 24.7904C13.9373 25.0825 14.0854 25.4762 14.6995 25.5851C15.3296 25.6921 15.5983 25.3049 15.6478 25.0361C15.6964 24.7605 15.5933 24.6043 15.3832 24.461C15.591 24.4077 15.702 24.263 15.7354 24.0798C15.7868 23.7853 15.5726 23.4794 15.081 23.3939ZM15.1824 24.9755C15.1558 25.123 15.0072 25.2925 14.7627 25.2484C14.5486 25.2121 14.4055 25.049 14.4431 24.8409C14.4839 24.6122 14.7008 24.5469 14.8728 24.5795C15.1342 24.6204 15.2113 24.8248 15.1824 24.9755ZM15.2952 24.0504C15.2677 24.2015 15.1241 24.2938 14.9388 24.2621C14.7366 24.2249 14.6398 24.0669 14.6614 23.9433C14.6898 23.7844 14.8389 23.6989 15.0503 23.7343C15.2002 23.7614 15.3241 23.8877 15.2952 24.0508V24.0504Z" fill="#110F23"/>
<path d="M12.8159 23.1854L12.7517 23.1638L12.6609 23.4183L12.6641 23.4192L12.6191 23.5423L12.7067 23.574C12.9379 23.6548 13.0956 23.6548 13.2011 23.6121L12.7251 24.9755L13.1791 25.1257L13.8798 23.1229L13.4671 22.9823C13.435 23.0751 13.1594 23.2984 12.8154 23.1854H12.8159Z" fill="#110F23"/>
</g>
<defs>
<clipPath id="clip0_4_1969">
<rect width="16.5686" height="26" fill="white" transform="translate(8 3)"/>
</clipPath>
</defs>
</svg>
