<svg width="32" height="32" viewBox="0 0 32 32" fill="none" xmlns="http://www.w3.org/2000/svg">
<g clip-path="url(#clip0_4_1236)">
<path d="M18.1154 15.9237C17.6608 15.1266 17.2959 14.2601 17.0312 13.3232C17.2959 14.2601 17.6608 15.1266 18.1144 15.9237H18.1154Z" fill="#110F23"/>
<path d="M12.8214 7.11591L12.7744 8.29398C13.0423 8.18407 13.3165 8.08803 13.5982 8.00586L12.8224 7.11591H12.8214Z" fill="#110F23"/>
<path d="M10.6994 8.38573C10.5137 8.21606 10.2256 8.22993 10.0559 8.4156L9.30469 9.2394L9.97696 9.85298L10.7282 9.02812C10.8979 8.84244 10.884 8.55433 10.6983 8.38573H10.6994Z" fill="#110F23"/>
<path d="M18.8039 23.9429C18.7708 23.8308 18.6769 23.8287 18.5958 23.8543L18.1572 23.9856L18.2447 24.2758L18.6833 24.1446C18.79 24.1126 18.8338 24.0389 18.805 23.944L18.8039 23.9429Z" fill="#110F23"/>
<path d="M15.9905 17.9949C14.5585 17.9949 13.3975 19.0972 13.3975 20.4578C13.3975 20.9369 13.5415 21.384 13.7912 21.7618C14.4742 22.0243 15.2147 22.1705 15.9905 22.1705C16.7663 22.1705 17.5068 22.0253 18.1898 21.7618C18.4395 21.383 18.5835 20.9369 18.5835 20.4578C18.5835 19.0983 17.4225 17.9949 15.9905 17.9949ZM15.966 18.7921C15.9745 18.7846 15.983 18.7814 15.9905 18.7814C16.0897 18.7814 16.4173 19.5625 16.4173 19.8133C16.4173 20 16.0417 20.4909 16.0396 20.7587C16.0396 20.7587 16.0396 20.7587 16.0396 20.7598C16.0396 20.7875 16.0172 20.8099 15.9894 20.8099C15.9617 20.8099 15.9393 20.7875 15.9393 20.7598C15.9393 20.4919 15.5615 20 15.5615 19.8133C15.5615 19.5806 15.8443 18.8892 15.9638 18.7921H15.966ZM15.681 20.7843C15.681 20.7843 15.681 20.7833 15.681 20.7822C15.681 20.7822 15.681 20.7822 15.681 20.7811C15.5466 20.4877 15.2937 20.3511 15.1518 20.3511C15.0717 20.3511 15.0066 20.4162 15.0066 20.4962C15.0066 20.5762 15.0717 20.6413 15.1518 20.6413C15.1592 20.6413 15.171 20.6413 15.1774 20.6392C15.1838 20.6392 15.1987 20.6349 15.2062 20.652C15.2126 20.6659 15.2243 20.7352 15.1624 20.8067C15.1262 20.8483 15.0504 20.8825 14.9789 20.8825C14.7388 20.8825 14.5446 20.6883 14.5446 20.4482C14.5446 20.2081 14.7388 20.0139 14.9789 20.0139C15.2958 20.0139 15.601 20.27 15.7781 20.7363C15.7813 20.7438 15.7835 20.7512 15.7835 20.7587C15.7835 20.7886 15.76 20.8131 15.7301 20.8131C15.7099 20.8131 15.6906 20.8014 15.6821 20.7843H15.681ZM16.2167 21.2122C16.173 21.2987 16.1004 21.4054 16.0097 21.4779C15.9969 21.4875 15.9926 21.4886 15.9894 21.4886C15.9873 21.4886 15.982 21.4886 15.9692 21.4779C15.8795 21.4054 15.8059 21.2987 15.7621 21.2122C15.7568 21.2026 15.7579 21.1962 15.7707 21.1887C15.8422 21.145 15.8966 21.0746 15.9158 20.9913C15.9243 20.9593 15.9542 20.9358 15.9884 20.9358C16.0225 20.9358 16.0524 20.9593 16.0609 20.9913C16.0801 21.0746 16.1346 21.145 16.2061 21.1887C16.2189 21.1962 16.2199 21.2026 16.2146 21.2122H16.2167ZM16.9882 20.8825C16.9167 20.8825 16.842 20.8483 16.8047 20.8067C16.7417 20.7352 16.7545 20.6659 16.7599 20.6509C16.7673 20.6339 16.7833 20.6371 16.7898 20.6381C16.7962 20.6392 16.8079 20.6403 16.8154 20.6403C16.8954 20.6403 16.9605 20.5752 16.9605 20.4951C16.9605 20.4151 16.8954 20.35 16.8154 20.35C16.6724 20.35 16.4205 20.4877 16.285 20.78V20.7811C16.285 20.7822 16.285 20.7822 16.285 20.7843C16.2754 20.8014 16.2573 20.8131 16.2359 20.8131C16.2061 20.8131 16.1826 20.7886 16.1826 20.7587C16.1826 20.7512 16.1847 20.7427 16.1879 20.7363C16.365 20.27 16.6702 20.0139 16.9872 20.0139C17.2273 20.0139 17.4215 20.2081 17.4215 20.4482C17.4215 20.6883 17.2273 20.8825 16.9872 20.8825H16.9882Z" fill="#110F23"/>
<path d="M12.7638 21.2517C12.7457 21.1471 12.735 21.0394 12.7275 20.9316C12.7339 21.0394 12.7446 21.1461 12.7628 21.2506L12.7638 21.2517Z" fill="#110F23"/>
<path d="M10.5404 22.7222L10.6492 22.3444L10.2949 22.513L10.5404 22.7222Z" fill="#110F23"/>
<path d="M16.8564 9.97253C17.1254 13.9112 18.7665 16.7667 21.4674 18.7931C21.8846 17.9651 22.1204 17.0303 22.1204 16.04C22.1204 12.9487 19.8315 10.393 16.8564 9.97253Z" fill="#110F23"/>
<path d="M15.983 5.30292C10.0735 5.30292 5.28223 10.0931 5.28223 16.0037C5.28223 21.9144 10.0735 26.7045 15.983 26.7045C21.8926 26.7045 26.6839 21.9133 26.6839 16.0037C26.6839 10.0942 21.8926 5.30292 15.983 5.30292ZM19.5279 6.67947C19.7061 6.74669 19.8822 6.81926 20.0561 6.89716L18.9976 9.44431C18.8247 9.36428 18.6497 9.29065 18.4704 9.22449L19.529 6.67947H19.5279ZM15.3887 6.05202H16.9701C17.4898 6.05202 17.9817 6.47565 17.9817 6.99533C17.9817 7.4275 17.6402 7.79245 17.2262 7.90236L17.9476 9.05375C17.7181 8.98759 17.4834 8.93317 17.2443 8.88942L16.6425 7.93757H15.9446V8.77204C15.7568 8.77204 15.5711 8.78058 15.3876 8.79551V6.05308L15.3887 6.05202ZM12.3592 6.71575C12.5502 6.64105 12.7433 6.57276 12.9386 6.5098L15.0504 8.82859C14.8338 8.85527 14.6193 8.89262 14.408 8.93744L13.9278 8.38682C13.5223 8.49353 13.1296 8.63118 12.7529 8.79658L12.7231 9.52434C12.5278 9.62144 12.3368 9.72602 12.1522 9.8402L12.3581 6.71575H12.3592ZM9.71813 8.06029C10.0681 7.67613 10.6935 7.62811 11.0776 7.97812C11.4618 8.32813 11.4618 8.94597 11.1118 9.32906L10.3381 10.1806L10.9624 10.7494C10.8279 10.8774 10.6956 11.0076 10.5707 11.1453L8.56994 9.32266L9.7192 8.05922L9.71813 8.06029ZM9.52926 22.3156C9.49191 22.3156 9.4535 22.3092 9.41401 22.2964C9.2913 22.2569 9.16111 22.1513 9.04693 21.9987C8.93809 21.8535 8.87406 21.6999 8.84952 21.6049V21.6028L8.85165 21.6006L8.95943 21.4993L8.96156 21.5057C9.08535 21.8855 9.33718 22.1502 9.48551 22.1502C9.51005 22.1502 9.53246 22.1449 9.55167 22.132C9.58688 22.1096 9.60822 22.0787 9.61463 22.0413C9.6317 21.9474 9.5506 21.829 9.46523 21.7159L9.35532 21.5697C9.27956 21.4683 9.24221 21.3531 9.25608 21.2602C9.26462 21.2015 9.29343 21.1535 9.34145 21.1183C9.38307 21.0874 9.43002 21.0724 9.48444 21.0724C9.72454 21.0724 10.0425 21.3797 10.1268 21.6935V21.6967L10.1247 21.6988C10.098 21.7137 10.0564 21.7383 10.0191 21.7596L10.0137 21.7628V21.7575C9.94756 21.5302 9.69679 21.2378 9.52072 21.2378C9.51539 21.2378 9.50898 21.2378 9.50365 21.2378C9.46843 21.2421 9.43856 21.2656 9.42362 21.2986C9.40761 21.3371 9.40441 21.4043 9.48124 21.5067L9.57834 21.6358C9.72347 21.829 9.7875 21.9901 9.76935 22.1107C9.75975 22.1758 9.72454 22.2313 9.66478 22.275C9.6285 22.3006 9.58155 22.3145 9.52819 22.3145L9.52926 22.3156ZM10.384 23.2461L10.496 22.879L10.146 22.5824L9.79817 22.7478L9.67972 22.64L10.7063 22.1555L10.8322 22.2622L10.5153 23.3464L10.384 23.2472V23.2461ZM10.8311 23.5716L11.4073 22.6987L11.5311 22.7798L10.9549 23.6527L10.8311 23.5716ZM12.1789 24.3313L12.0497 24.2726L11.8705 23.2856H11.8683L11.4991 23.9856L11.3721 23.912L11.8523 22.9975L11.9836 23.0658L12.1618 24.0411H12.1639L12.5267 23.3517L12.658 23.42L12.1799 24.3303L12.1789 24.3313ZM13.7101 23.9664L13.3697 23.8479L13.0773 24.6867L12.9376 24.6376L13.2299 23.7988L12.8895 23.6804L12.9386 23.5406L13.7592 23.8266L13.7101 23.9664ZM14.6449 24.6376L14.2789 24.5576L14.312 24.4092L14.678 24.4914L14.6449 24.6376ZM16.4846 24.8745C16.4814 25.0591 16.2765 25.1797 16.0193 25.1754C15.7461 25.1711 15.4623 24.9791 15.4687 24.629C15.473 24.3356 15.7109 24.0987 16.0407 24.104C16.2861 24.1072 16.4131 24.2385 16.4718 24.2972L16.3672 24.4007C16.317 24.3505 16.2391 24.2556 16.0535 24.2524C15.7803 24.2481 15.6202 24.4231 15.617 24.6387C15.6138 24.8403 15.7696 25.0239 16.03 25.0281C16.2082 25.0313 16.3373 24.9502 16.3384 24.8627L16.3405 24.7475L16.0172 24.7422L16.0193 24.5938L16.4899 24.6013L16.4856 24.8745H16.4846ZM16.9317 25.1092L16.7855 24.0912L17.6189 23.9717L17.6402 24.1179L16.953 24.2161L16.9914 24.4829L17.3372 24.4327L17.3585 24.5789L17.0128 24.629L17.0576 24.9396L17.7694 24.8371L17.7896 24.9833L16.9317 25.1071V25.1092ZM18.972 24.6589L18.6529 24.3089L18.2869 24.4188L18.4107 24.8318L18.2698 24.8723L17.9732 23.8885L18.5526 23.7135C18.7095 23.6655 18.8845 23.7007 18.9453 23.9013C19.0093 24.1147 18.8866 24.2246 18.8066 24.2566L19.1278 24.6024L18.972 24.6579V24.6589ZM20.4435 24.0005L20.0935 23.3613H20.0913L20.0689 24.0838L19.4714 23.6793H19.4692L19.7808 24.3377L19.6464 24.3975L19.1971 23.4734L19.3284 23.4062L19.9313 23.8159L19.9537 23.0871L20.0849 23.0199L20.5715 23.929L20.4435 24.0016V24.0005ZM15.9905 22.6133C12.3677 22.6133 9.42041 19.666 9.42041 16.0432C9.42041 12.4204 12.3677 9.47205 15.9905 9.47205C19.6133 9.47205 22.5617 12.4204 22.5617 16.0432C22.5617 19.666 19.6133 22.6133 15.9905 22.6133ZM21.6098 23.2248L21.2918 23.0305L20.9173 23.2962L20.9898 23.6687L20.8586 23.753L20.642 22.6475L20.7754 22.5525L21.7389 23.1223L21.6098 23.2248ZM22.0089 22.894L21.3089 22.1417L21.4177 22.0413L22.1199 22.7968L22.0089 22.895V22.894ZM23.0098 21.8695L22.01 21.8012L22.0078 21.8034L22.5958 22.3327L22.4923 22.4383L21.7261 21.7479L21.8254 21.638L22.8146 21.7063V21.7041L22.2351 21.1823L22.3344 21.0724L23.0984 21.7596L23.0098 21.8695ZM22.7249 9.60757C22.5798 9.0975 21.8222 8.34413 21.4092 8.44124C21.2929 8.46898 21.1712 8.64826 21.47 8.96305L21.7389 9.24583C22.3877 9.92983 22.5382 10.4879 22.1252 10.871C21.9598 11.0247 21.708 11.0631 21.4562 11.0129C21.135 10.95 20.7775 10.7248 20.4488 10.378C20.1586 10.0728 19.943 9.71215 19.847 9.46245L20.2471 9.16046C20.6953 10.107 21.4391 10.6587 21.7059 10.4388C21.9556 10.2329 21.6845 9.90743 21.3729 9.57983L21.0677 9.25863C20.754 8.92783 20.5502 8.40496 20.9098 8.06456C21.5159 7.49259 22.7922 8.40603 23.1134 9.31839C23.1134 9.31839 22.8455 9.51474 22.7249 9.60757Z" fill="#110F23"/>
<path d="M16.5488 9.93732C16.5542 10.2137 16.567 10.4858 16.5862 10.7526C16.567 10.4858 16.5531 10.2137 16.5488 9.93732Z" fill="#110F23"/>
<path d="M15.9995 4C9.38242 4 4 9.38349 4 15.9995C4 22.6154 9.38242 28 15.9995 28C22.6165 28 27.9989 22.6165 27.9989 15.9995C27.9989 9.38242 22.6165 4 15.9995 4ZM23.8618 23.8821C21.7575 25.9864 18.9596 27.1453 15.9835 27.1453C13.0073 27.1453 10.2094 25.9864 8.10511 23.8821C6.0008 21.7767 4.84194 18.9799 4.84194 16.0037C4.84194 13.0276 6.0008 10.2297 8.10511 8.12538C10.2094 6.02108 13.0073 4.86221 15.9835 4.86221C18.9596 4.86221 21.7575 6.02108 23.8618 8.12538C25.9661 10.2297 27.125 13.0276 27.125 16.0037C27.125 18.9799 25.9661 21.7778 23.8618 23.8821Z" fill="#110F23"/>
<path d="M21.1528 22.9463L20.8135 22.7488L20.8892 23.1341L21.1528 22.9463Z" fill="#110F23"/>
<path d="M17.4263 6.99425C17.4263 6.74349 17.2224 6.53967 16.9717 6.53967H15.9473V7.4499H16.9717C17.2224 7.4499 17.4263 7.24609 17.4263 6.99532V6.99425Z" fill="#110F23"/>
<path d="M15.1265 9.97253C12.1503 10.393 9.86035 12.9487 9.86035 16.04C9.86035 17.0303 10.0972 17.9651 10.5134 18.7931C13.2153 16.7667 14.8565 13.9112 15.1254 9.97253H15.1265Z" fill="#110F23"/>
<path d="M15.4297 9.93731C15.4606 9.93411 15.4916 9.93304 15.5215 9.93091C15.4905 9.93304 15.4596 9.93411 15.4297 9.93731Z" fill="#110F23"/>
<path d="M13.8623 15.9237H18.1157C17.6612 15.1266 17.2962 14.2601 17.0326 13.3232C16.8064 12.5197 16.6538 11.6639 16.5866 10.7526C16.5674 10.4858 16.5535 10.2137 16.5492 9.93732C16.3646 9.92025 16.18 9.91064 15.9912 9.91064C15.8332 9.91064 15.6774 9.91918 15.5227 9.93092C15.4918 9.93305 15.4608 9.93519 15.4309 9.93732C15.4064 11.3064 15.1972 12.557 14.8344 13.6988C14.5826 14.4927 14.2561 15.2344 13.8634 15.9237H13.8623Z" fill="#110F23"/>
<path d="M18.2559 16.1627H13.7218C13.3825 16.7251 12.9962 17.2522 12.5726 17.7463C12.0582 18.3471 11.4873 18.8987 10.8652 19.4013C11.355 20.1472 12.0028 20.78 12.7625 21.2517C12.7444 21.1471 12.7337 21.0404 12.7273 20.9326C12.7241 20.8739 12.7198 20.8152 12.7198 20.7555C12.7198 19.0663 14.1839 17.6972 15.9905 17.6972C17.7971 17.6972 19.2611 19.0663 19.2611 20.7555C19.2611 20.9252 19.2462 21.0906 19.2174 21.2528C19.2505 21.2325 19.2814 21.2101 19.3145 21.1887C19.8854 20.8195 20.3901 20.3575 20.8084 19.825C20.9151 19.6895 21.0186 19.5497 21.1136 19.4045C19.9782 18.489 19.0072 17.4123 18.2549 16.1649L18.2559 16.1627Z" fill="#110F23"/>
</g>
<defs>
<clipPath id="clip0_4_1236">
<rect width="23.9989" height="24" fill="white" transform="translate(4 4)"/>
</clipPath>
</defs>
</svg>
