<svg width="32" height="32" viewBox="0 0 32 32" fill="none" xmlns="http://www.w3.org/2000/svg">
<path d="M13.9132 28.5637C14.1002 28.652 14.2924 28.7299 14.4898 28.7922L14.5729 28.8182C14.7599 28.8753 14.9521 28.9221 15.1443 28.9533H15.2326C15.6325 29.0156 16.0429 29.0156 16.4481 28.9533H16.5415C16.7337 28.9221 16.9207 28.8805 17.1077 28.8234L17.2116 28.7922C17.3986 28.7351 17.5804 28.6624 17.7622 28.5793L17.8401 28.5429C18.0219 28.4546 18.1933 28.3559 18.3647 28.252L18.4063 28.2261C18.5829 28.1118 18.7595 27.9871 18.9257 27.8573L19.0244 27.7793C19.1854 27.6443 19.3413 27.4989 19.4867 27.3482L19.5906 27.2443C19.7464 27.0885 19.8971 26.9223 20.0581 26.7457L20.1204 26.6626C20.2607 26.4912 20.3957 26.3146 20.5256 26.1276L20.5723 26.0652C19.0712 25.9821 17.5908 25.7016 16.1624 25.2393C15.965 25.177 15.752 25.177 15.5598 25.2393C14.1314 25.7068 12.6458 25.9873 11.1447 26.0756C11.8355 27.1352 12.7913 27.9975 13.9184 28.5793L13.9132 28.5637Z" fill="#110F23"/>
<path d="M4.00774 20.658C4.02851 20.8554 4.05448 21.0528 4.09604 21.245L4.11682 21.354C4.16356 21.541 4.21551 21.728 4.28303 21.9098L4.31939 21.9981C4.46483 22.3773 4.6726 22.7305 4.92193 23.0474L4.98426 23.1201C5.10373 23.2707 5.23359 23.4058 5.37383 23.5356L5.45694 23.6136C5.60238 23.7434 5.75821 23.8629 5.91923 23.9772L5.99195 24.0291C6.15298 24.1382 6.31919 24.2369 6.48541 24.3252L6.54774 24.3563C6.72954 24.4498 6.92173 24.5329 7.11392 24.6109L7.24378 24.6628C7.43597 24.7355 7.63335 24.7978 7.83593 24.855L7.99176 24.8913C8.19953 24.9485 8.41249 24.9952 8.63585 25.0316H8.74493C8.9475 25.068 9.16047 25.0939 9.37344 25.1095H9.47732C9.3111 24.7875 9.15528 24.4446 9.01503 24.0914C8.93192 23.9096 8.96828 23.6915 9.11892 23.5512C9.26436 23.411 9.48771 23.385 9.66432 23.4837C9.75781 23.5304 9.83573 23.6136 9.87728 23.7122C10.0019 24.0083 10.1318 24.2888 10.272 24.5641C10.459 24.9277 10.8382 25.1407 11.2434 25.1147C12.0589 25.0576 12.8744 24.9381 13.6691 24.7563C13.773 24.7303 13.8457 24.6472 13.8561 24.5433C13.8665 24.4394 13.8146 24.3408 13.7263 24.294C13.0354 23.9823 12.355 23.6395 11.6849 23.2448C8.92673 21.7228 6.55813 19.5724 4.77649 16.9753L4.75052 17.0376C4.64663 17.2609 4.55314 17.4791 4.47522 17.6973V17.744C4.39211 17.9674 4.32459 18.2063 4.26226 18.4141L4.23109 18.5231C4.17395 18.7361 4.1272 18.9491 4.09604 19.162V19.2711C4.06487 19.4841 4.0441 19.6971 4.03371 19.91V19.9568C4.02332 20.1593 4.02332 20.3619 4.03371 20.5593C4.01293 20.5905 4.01293 20.6164 4.01293 20.658H4.00774Z" fill="#110F23"/>
<path d="M15.9183 7.86966H15.8559C14.5678 8.32156 13.3211 8.89813 12.1368 9.57858C9.45659 11.0641 7.1659 13.1678 5.46218 15.7182C5.3531 15.8896 5.3531 16.113 5.46218 16.2844C6.09588 17.2973 6.84386 18.2323 7.69053 19.0789C7.56067 18.0609 7.49314 17.0324 7.49314 16.0039V15.1417C7.49314 15.0326 7.53989 14.9287 7.61261 14.8508C7.74766 14.7105 7.95024 14.669 8.12685 14.7417C8.30345 14.8144 8.41773 14.991 8.41253 15.178V16.0091C8.41253 17.2713 8.51642 18.5283 8.73458 19.7698C8.77094 19.9775 8.88521 20.1697 9.04624 20.3048C10.0176 21.1047 11.0512 21.8267 12.142 22.45C14.682 23.972 17.5389 24.8913 20.4893 25.1407C20.8892 25.1563 21.2632 24.9329 21.445 24.5745C21.819 23.8109 22.1307 23.0214 22.3748 22.2111C22.4059 22.1176 22.3696 22.0137 22.2865 21.9566C22.2034 21.8994 22.0943 21.9046 22.0164 21.967C21.3827 22.4292 20.7282 22.8656 20.0477 23.2603C19.84 23.3798 19.627 23.4941 19.4088 23.6032C19.305 23.6603 19.1803 23.6707 19.066 23.6395C18.8894 23.5824 18.7699 23.4266 18.7492 23.2396C18.7284 23.0578 18.8219 22.8812 18.9829 22.7928C19.1855 22.6838 19.3933 22.5695 19.5906 22.45C20.6918 21.8163 21.7359 21.0839 22.7124 20.2684C22.8579 20.149 22.9513 19.9827 22.9929 19.8061C23.2059 18.5491 23.3046 17.2765 23.2994 16.0039V14.991C23.2994 14.8144 23.3929 14.6586 23.5487 14.5755C23.7045 14.4924 23.8863 14.508 24.0318 14.6067C24.1305 14.6898 24.1928 14.8092 24.198 14.9391C24.198 15.2819 24.2239 15.6247 24.2239 15.9779C24.2811 19.1309 23.5954 22.2526 22.2345 25.0939H22.3384C22.5514 25.0731 22.7644 25.0472 22.9669 25.016H23.076C23.2994 24.9796 23.5123 24.9277 23.7253 24.8706L23.8759 24.8342C24.0785 24.7771 24.2811 24.7147 24.4733 24.6368L24.6031 24.5849C24.8005 24.507 24.9875 24.4239 25.1693 24.3304L25.2264 24.2992C25.3979 24.2057 25.5641 24.107 25.7251 23.9979L25.7978 23.9512C25.9588 23.8369 26.1147 23.7174 26.2653 23.5824L26.3484 23.5045C26.4887 23.3746 26.6185 23.2344 26.738 23.0837L26.8003 23.011C27.0548 22.6942 27.2574 22.3409 27.4029 21.9618L27.4392 21.8735C27.5067 21.6917 27.5639 21.5099 27.6054 21.3177L27.6262 21.2138C27.6678 21.0268 27.6989 20.8398 27.7145 20.6476V20.5697C27.7249 20.3671 27.7249 20.1645 27.7145 19.9672V19.9204C27.7093 19.6971 27.6937 19.4737 27.6626 19.2555V19.1465C27.6262 18.9335 27.5847 18.7257 27.5275 18.5076L27.486 18.4037C27.4236 18.1855 27.3561 17.9622 27.273 17.7388V17.6817C27.1951 17.4635 27.1016 17.2453 26.9977 17.0272L26.9717 16.9649C26.6601 17.4479 26.3224 17.9154 25.964 18.3621C25.8653 18.4764 25.7095 18.5179 25.5693 18.4712C25.429 18.4245 25.3303 18.2946 25.3199 18.144V17.8323C25.3148 17.744 25.3407 17.6557 25.3979 17.583C26.1251 16.6324 26.1043 15.3079 25.3459 14.3833C23.7409 12.425 21.7878 10.7888 19.5854 9.55261C18.9985 9.22017 18.4167 8.91371 17.8298 8.62283C18.2194 8.48258 18.6505 8.34234 19.1284 8.21768C19.44 8.3787 19.7517 8.55011 20.0581 8.72672C20.9412 9.23576 21.793 9.80193 22.5981 10.4201C22.3125 9.33964 21.9125 8.29039 21.4086 7.29309C21.258 6.99702 20.9515 6.81002 20.6191 6.82561C19.0245 6.92949 17.4454 7.25154 15.9391 7.79174L15.9183 7.86446V7.86966ZM12.142 12.0251L13.6743 12.5497C13.7367 12.5757 13.7886 12.6276 13.8042 12.6952C13.8198 12.7627 13.8042 12.8302 13.7523 12.8821L12.7498 13.8846C12.703 13.9314 12.6303 13.9522 12.5628 13.9418C12.4952 13.9262 12.4433 13.8794 12.4173 13.8119L11.8823 12.2796C11.8563 12.2069 11.8719 12.1186 11.9291 12.0666C11.9862 12.0095 12.0745 11.9939 12.1472 12.0251H12.142ZM10.4071 16.1909C10.3396 16.1597 10.2981 16.087 10.2981 16.0143C10.2981 15.9416 10.3448 15.8689 10.4071 15.8377L11.8563 15.1261C11.9187 15.0949 11.9914 15.1001 12.0485 15.1365C12.1057 15.1728 12.142 15.2352 12.142 15.3027V16.7259C12.142 16.7934 12.1057 16.8558 12.0485 16.8921C11.9914 16.9285 11.9187 16.9337 11.8563 16.9025L10.4071 16.1961V16.1909ZM13.664 19.4737L12.142 19.9931C12.0693 20.0139 11.9914 19.9931 11.9395 19.9412C11.8875 19.8892 11.8667 19.8113 11.8927 19.7386L12.4173 18.2063C12.4381 18.144 12.4952 18.092 12.5628 18.0764C12.6303 18.0609 12.703 18.0816 12.7498 18.1336L13.7523 19.1361C13.799 19.188 13.8198 19.2555 13.799 19.3283C13.7782 19.3958 13.7263 19.4477 13.6588 19.4685L13.664 19.4737ZM16.7598 20.0191L16.0481 21.4683C16.0118 21.5358 15.9443 21.5774 15.8715 21.5774C15.7988 21.5774 15.7261 21.5358 15.6897 21.4683L14.9781 20.0191C14.9469 19.9568 14.9521 19.884 14.9885 19.8269C15.0249 19.7698 15.0872 19.7334 15.1547 19.7334H16.578C16.6455 19.7334 16.7078 19.7698 16.7442 19.8269C16.7805 19.884 16.7805 19.9568 16.7546 20.0191H16.7598ZM19.601 20.0191L18.0687 19.4945C18.0064 19.4737 17.9544 19.4166 17.9389 19.349C17.9233 19.2815 17.9389 19.2088 17.9908 19.162L18.9933 18.1595C19.04 18.1128 19.1128 18.092 19.1803 18.1024C19.2478 18.118 19.2998 18.1647 19.3257 18.2323L19.8452 19.7282C19.8815 19.8009 19.8659 19.8944 19.8088 19.9568C19.7465 20.0191 19.6582 20.0347 19.5803 19.9983L19.5958 20.0191H19.601ZM21.3255 15.8533C21.3931 15.8896 21.4346 15.9572 21.4346 16.0299C21.4346 16.1026 21.3931 16.1753 21.3255 16.2117L19.8763 16.9233C19.814 16.9545 19.7413 16.9493 19.6841 16.9129C19.627 16.8766 19.5906 16.8142 19.5906 16.7467V15.2975C19.5906 15.23 19.627 15.1676 19.6841 15.1313C19.7413 15.0949 19.814 15.0897 19.8763 15.1209L21.3255 15.8533ZM18.0687 12.5705L19.5854 12.0251C19.6582 12.0043 19.7361 12.0251 19.788 12.0718C19.84 12.129 19.8607 12.2017 19.8348 12.2744L19.3102 13.8067C19.2894 13.8691 19.2322 13.921 19.1647 13.9366C19.0972 13.9522 19.0245 13.9314 18.9777 13.8794L17.9752 12.877C17.9285 12.825 17.9129 12.7575 17.9285 12.69C17.9492 12.6224 17.996 12.5705 18.0635 12.5497V12.5705H18.0687ZM18.6557 16.0039C18.6557 17.5414 17.4038 18.7932 15.8663 18.7932C14.3288 18.7932 13.0718 17.5414 13.0718 16.0039C13.0718 14.4664 14.3236 13.2094 15.8663 13.2094C17.409 13.2094 18.6557 14.4612 18.6557 16.0039ZM16.0429 10.5603L16.7546 12.0095C16.7857 12.0718 16.7805 12.1446 16.7442 12.2017C16.7078 12.2588 16.6455 12.2952 16.578 12.2952H15.1547C15.0872 12.2952 15.0249 12.2588 14.9885 12.2017C14.9521 12.1446 14.9521 12.0718 14.9781 12.0095L15.6897 10.5603C15.7261 10.4928 15.7936 10.4512 15.8663 10.4512C15.9391 10.4512 16.0066 10.4928 16.0429 10.5603Z" fill="#110F23"/>
<path d="M4.05454 12.8562C4.0909 13.0691 4.13245 13.2769 4.18959 13.4951L4.22076 13.6041C4.27789 13.8275 4.35061 14.0664 4.43372 14.2742V14.3209C4.51683 14.5391 4.61033 14.7573 4.70902 14.9806L4.73499 15.043C5.6336 13.6924 6.71921 12.4718 7.95545 11.4173C8.26191 9.84347 8.78134 8.32154 9.49296 6.88792C8.00739 6.94505 6.58935 7.49046 5.44142 8.43062L5.38428 8.48256C5.23884 8.62281 5.10379 8.76825 4.97393 8.91888L4.92199 8.98122C4.66747 9.29807 4.46489 9.65128 4.31945 10.0305L4.28309 10.1188C4.21556 10.3006 4.15843 10.4824 4.11687 10.6746L4.09609 10.7784C4.05454 10.9654 4.02337 11.1524 4.00779 11.3446V11.4173C3.9974 11.6199 3.9974 11.8225 4.00779 12.0251V12.0718C4.00779 12.2952 4.02857 12.5185 4.05454 12.7419V12.8562Z" fill="#110F23"/>
<path d="M11.6796 8.75268C12.3497 8.3683 13.025 8.02028 13.7158 7.71382C13.7989 7.65668 13.8457 7.56318 13.8353 7.46449C13.8249 7.3658 13.7574 7.28269 13.6587 7.25153C13.2691 7.16842 12.8899 7.0957 12.5107 7.03337C12.3549 7.0022 12.2251 6.89312 12.1679 6.74768C12.1108 6.60224 12.1316 6.43602 12.2199 6.30617C12.3237 6.16592 12.49 6.0932 12.6614 6.11917C13.6587 6.26981 14.6404 6.50355 15.6013 6.81521C15.7676 6.86715 15.9545 6.86715 16.1208 6.81521C17.5648 6.34253 19.0607 6.05684 20.5827 5.97373L20.5567 5.93737C20.4164 5.73479 20.2658 5.53741 20.1152 5.35561L20.0736 5.29847C19.9178 5.11667 19.7672 4.94526 19.6061 4.78424L19.5178 4.69594C19.362 4.54011 19.201 4.39467 19.0555 4.25962L18.9672 4.18689C18.7958 4.04145 18.614 3.9064 18.427 3.77655H18.3959C18.2245 3.65708 18.0478 3.548 17.866 3.44931L17.7933 3.41295C17.6167 3.32984 17.4297 3.25712 17.2479 3.19998L17.1388 3.16881C16.9519 3.11168 16.7649 3.07012 16.5779 3.03896H16.4844C16.1208 2.98701 15.752 2.98701 15.3884 3.03896H15.2585C15.1183 3.03896 14.9832 3.08571 14.843 3.11687H14.7703C14.6144 3.15843 14.4586 3.21037 14.308 3.2727L14.1989 3.31945C14.069 3.37139 13.9444 3.42853 13.8197 3.49086L13.721 3.53761C13.5704 3.62072 13.4145 3.70902 13.2587 3.80252L13.186 3.84927C13.0613 3.93757 12.9315 4.03107 12.8068 4.12976L12.7185 4.19728C12.4224 4.4518 12.1419 4.7323 11.8822 5.02837L11.8199 5.10109C11.5394 5.42314 11.2745 5.77115 11.0408 6.12956L11.0096 6.17631C10.1681 7.49566 9.5448 8.93448 9.15003 10.446C9.96553 9.82789 10.8174 9.26691 11.7056 8.75787L11.6796 8.75268Z" fill="#110F23"/>
<path d="M23.9123 11.5368C25.0758 12.5653 26.0939 13.7392 26.951 15.0378C27.1743 14.5651 27.3509 14.0716 27.4912 13.573V13.5055C27.5483 13.2769 27.5951 13.0536 27.6366 12.8354V12.7575C27.673 12.5341 27.6937 12.316 27.7041 12.0926C27.7145 11.8796 27.7145 11.6719 27.7041 11.4589V11.3966C27.6886 11.1992 27.6574 11.0018 27.6158 10.8044V10.7005C27.5691 10.5135 27.5119 10.3266 27.4496 10.1448L27.4133 10.0616C27.2626 9.68246 27.06 9.32925 26.8107 9.0124L26.7536 8.93968C26.6341 8.78904 26.4991 8.65399 26.3588 8.52413L26.2757 8.44622C26.1251 8.31636 25.9744 8.1917 25.8134 8.07742L25.7407 8.02548C25.5797 7.9164 25.4135 7.81771 25.242 7.72421L25.1797 7.67227C24.9979 7.57877 24.8057 7.49566 24.6083 7.41775L24.4837 7.36581C24.2915 7.29309 24.0941 7.23076 23.8811 7.16842L23.7305 7.13206C23.5175 7.07493 23.3046 7.02818 23.0812 6.98662H22.9721C22.7644 6.95026 22.5514 6.92429 22.3332 6.90352H22.2397C22.9306 8.2852 23.4396 9.74999 23.7461 11.2667C23.7772 11.3706 23.8396 11.4641 23.9279 11.5368H23.9123Z" fill="#110F23"/>
</svg>
