<svg width="32" height="32" viewBox="0 0 32 32" fill="none" xmlns="http://www.w3.org/2000/svg">
<path fill-rule="evenodd" clip-rule="evenodd" d="M22.9858 20.7564C23.501 21.2691 23.5478 22.0716 23.1264 22.6371L22.9858 22.799L17.1821 28.577C16.6154 29.141 15.6969 29.141 15.1303 28.577C14.6151 28.064 14.5683 27.2618 14.9898 26.6963L15.1303 26.5343L20.9341 20.7564C21.5007 20.1922 22.4192 20.1922 22.9858 20.7564ZM14.7054 3C19.5132 3 23.4107 6.88021 23.4107 11.6667C23.4107 16.4531 19.5132 20.3333 14.7054 20.3333C9.89754 20.3333 6 16.4531 6 11.6667C6 6.88021 9.89754 3 14.7054 3ZM14.7054 5.88888C11.5002 5.88888 8.90179 8.47557 8.90179 11.6667C8.90179 14.8577 11.5002 17.4444 14.7054 17.4444C17.9107 17.4444 20.509 14.8577 20.509 11.6667C20.509 8.47557 17.9107 5.88888 14.7054 5.88888ZM24.8617 3C25.6631 3 26.3125 3.64658 26.3125 4.44445C26.3125 5.2423 25.6631 5.88888 24.8617 5.88888C24.0604 5.88888 23.4109 5.2423 23.4109 4.44445C23.4109 3.64658 24.0604 3 24.8617 3Z" fill="#110F23"/>
</svg>
