<svg width="32" height="32" viewBox="0 0 32 32" fill="none" xmlns="http://www.w3.org/2000/svg">
<path d="M7.05207 20.3996C7.26785 22.3199 8.15699 24.1235 9.55579 25.4762L9.56249 25.4836C10.9963 27.0022 13.0595 27.9077 15.2701 28L8.32216 14.9271C7.28943 16.5551 6.83779 18.4985 7.05207 20.3996Z" fill="#110F23"/>
<path d="M15.4226 27.3304V18.7522L8.90252 14.9777L15.4226 27.3304Z" fill="#110F23"/>
<path d="M22.9687 14.9271L16.0208 28C18.1748 27.9077 20.1912 27.0208 21.7329 25.4792C23.1339 24.1235 24.0231 22.3199 24.2388 20.3996C24.4524 18.4993 24.0015 16.5573 22.9687 14.9271Z" fill="#110F23"/>
<path d="M15.869 18.7522V27.3304L22.3884 14.9777L15.869 18.7522Z" fill="#110F23"/>
<path d="M15.869 9.68973V16.1287L21.535 12.9516L15.869 9.68973Z" fill="#110F23"/>
<path d="M9.75594 12.9516L15.4226 16.1287V9.68973L9.75594 12.9516Z" fill="#110F23"/>
<path d="M10.0015 12.2954L15.4226 9.17411V4L10.0015 12.2954Z" fill="#110F23"/>
<path d="M21.2894 12.2954L15.869 4V9.17411L21.2894 12.2954Z" fill="#110F23"/>
</svg>
