<svg width="32" height="32" viewBox="0 0 32 32" fill="none" xmlns="http://www.w3.org/2000/svg">
<g clip-path="url(#clip0_4_1283)">
<path d="M26.9127 8.24239C26.6687 7.30174 25.8839 6.3611 24.4716 5.31338C23.3385 4.47981 22.1363 4 21.1767 4C20.9855 4 20.8107 4.01762 20.6358 4.05286C20.1994 4.14096 19.8172 4.46083 19.5719 4.94064C19.275 5.50856 19.2059 6.27164 19.397 6.73383C19.4661 6.87615 19.5542 7.05235 19.6573 7.21229C19.538 7.28412 19.4268 7.35054 19.3225 7.41153C19.168 7.49963 19.0283 7.57418 18.9023 7.63788C17.7841 7.215 16.5764 6.98187 15.3159 6.98187C9.61919 6.98187 5 11.6865 5 17.4916C5 23.2968 9.61919 28 15.32 28C21.0208 28 25.64 23.2954 25.64 17.4916C25.64 15.365 25.0165 13.3888 23.9484 11.7339C24.0338 11.349 24.1531 10.945 24.2981 10.533C24.5421 10.6035 24.7861 10.6401 25.03 10.6401C25.6752 10.6401 26.2323 10.3744 26.582 9.89462C26.9303 9.41481 27.0699 8.77642 26.9127 8.24374V8.24239ZM19.5353 7.88592C19.5353 7.88592 19.5366 7.88592 19.538 7.88592C20.0964 7.58367 20.8974 7.06997 21.8218 6.32315C22.1702 6.46547 22.6242 6.7135 23.1813 7.08624C23.8441 7.52945 24.4188 8.02688 24.7847 8.41724C24.1748 9.23318 23.7749 10.35 23.5296 11.1307C22.486 9.73604 21.1075 8.61648 19.519 7.8927C19.5244 7.88999 19.5298 7.88592 19.5339 7.88321L19.5353 7.88592ZM20.8107 6.21878C20.8636 6.16592 21.0018 6.13068 21.2295 6.16592C21.0547 6.30824 20.8812 6.43158 20.7063 6.55628C20.6887 6.43158 20.7063 6.30824 20.8107 6.21878ZM25.1168 8.86316C25.1696 8.95126 25.1859 9.04072 25.1859 9.09358C25.1859 9.25352 25.1331 9.30638 25.0992 9.34162C25.03 9.39448 24.8904 9.42972 24.7685 9.42972C24.8728 9.21692 24.9948 9.03936 25.1168 8.86181V8.86316ZM25.0639 17.4903C25.0639 22.9755 20.6887 27.4131 15.32 27.4131C9.95126 27.4131 5.57469 22.9769 5.57469 17.4916C5.57469 12.0063 9.93364 7.5674 15.32 7.5674C16.6632 7.5674 17.9427 7.8439 19.107 8.34269C21.0831 9.2508 22.7272 10.781 23.8102 12.6976L23.8156 12.6271C24.6099 14.0638 25.0653 15.7228 25.0653 17.4903H25.0639ZM24.473 10.0342C24.4906 9.99221 24.5069 9.95154 24.5245 9.90953C24.5936 9.92715 24.6817 9.92715 24.7685 9.92715C24.9772 9.92715 25.2212 9.89191 25.4136 9.73197C25.5532 9.62489 25.7105 9.42972 25.6928 9.0746C25.6928 8.73711 25.4312 8.31151 24.8904 7.79646C24.5069 7.42373 23.9837 7.01576 23.4605 6.64302C21.9614 5.63054 20.9151 5.34726 20.4447 5.82707C20.1316 6.14695 20.1655 6.5373 20.2699 6.82058C20.213 6.85853 20.1574 6.89513 20.1032 6.93037C19.9975 6.77856 19.9175 6.64302 19.8701 6.53595C19.6613 6.03852 19.9053 4.74276 20.7416 4.5652C21.5778 4.38764 22.8858 4.778 24.1761 5.73626C25.4665 6.69453 26.1984 7.54707 26.4247 8.38064C26.6308 9.20201 26.0073 10.4192 24.473 10.0315V10.0342Z" fill="#110F23"/>
<path d="M18.3537 13.0174C19.2198 13.0174 19.9233 12.3018 19.9233 11.4194C19.9233 10.5371 19.2212 9.82141 18.3537 9.82141C17.4863 9.82141 16.7842 10.5371 16.7842 11.4194C16.7842 12.3018 17.4863 13.0174 18.3537 13.0174Z" fill="#110F23"/>
<path d="M20.9147 14.2075C21.2807 14.2075 21.5775 13.9053 21.5775 13.5325C21.5775 13.1598 21.2807 12.8575 20.9147 12.8575C20.5488 12.8575 20.252 13.1598 20.252 13.5325C20.252 13.9053 20.5488 14.2075 20.9147 14.2075Z" fill="#110F23"/>
<path d="M21.3242 19.4203C20.8973 19.5667 20.4811 19.7321 20.042 19.9083C18.8289 20.3921 17.4532 20.9411 15.3428 21.2488C14.5391 21.364 13.7787 21.4168 13.0644 21.4168C10.0785 21.4168 7.90036 20.5046 6.75098 19.5084C6.72794 19.4881 6.70626 19.4691 6.68457 19.4488C7.59811 23.4391 11.1221 26.4209 15.3198 26.4209C19.7913 26.4209 23.4969 23.0243 24.0865 18.6301C23.7178 18.7887 23.2638 18.9012 22.7826 19.0178C22.3394 19.1262 21.8365 19.2482 21.3242 19.4203ZM12.6009 24.7159C12.1577 24.7159 11.7985 24.3499 11.7985 23.8999C11.7985 23.4499 12.1577 23.084 12.6009 23.084C13.0441 23.084 13.4033 23.4499 13.4033 23.8999C13.4033 24.3499 13.0441 24.7159 12.6009 24.7159ZM14.676 24.8934C14.4063 24.8934 14.188 24.6711 14.188 24.396C14.188 24.1208 14.4063 23.8986 14.676 23.8986C14.9457 23.8986 15.1639 24.1208 15.1639 24.396C15.1639 24.6711 14.9457 24.8934 14.676 24.8934ZM15.965 25.7988C15.763 25.7988 15.599 25.6321 15.599 25.4261C15.599 25.2201 15.763 25.0533 15.965 25.0533C16.1669 25.0533 16.3309 25.2201 16.3309 25.4261C16.3309 25.6321 16.1669 25.7988 15.965 25.7988ZM17.2214 24.6454C16.9517 24.6454 16.7335 24.4231 16.7335 24.1479C16.7335 23.8728 16.9517 23.6505 17.2214 23.6505C17.4911 23.6505 17.7094 23.8728 17.7094 24.1479C17.7094 24.4231 17.4911 24.6454 17.2214 24.6454ZM18.2136 25.5332C18.0116 25.5332 17.8476 25.3664 17.8476 25.1604C17.8476 24.9544 18.0116 24.7877 18.2136 24.7877C18.4155 24.7877 18.5795 24.9544 18.5795 25.1604C18.5795 25.3664 18.4155 25.5332 18.2136 25.5332ZM19.7655 22.7112C19.3223 22.7112 18.9631 22.3453 18.9631 21.8953C18.9631 21.4453 19.3223 21.0793 19.7655 21.0793C20.2087 21.0793 20.5679 21.4453 20.5679 21.8953C20.5679 22.3453 20.2087 22.7112 19.7655 22.7112Z" fill="#110F23"/>
<path d="M14.7437 16.6364C14.1284 16.8207 13.5347 16.9318 12.9736 16.9955C11.9895 17.1067 11.1085 17.066 10.4037 16.9955C10.2709 16.982 10.1435 16.9684 10.0242 16.9535C9.24757 16.8627 8.47093 16.7827 7.84338 16.7827C7.31613 16.7827 6.89732 16.841 6.66961 16.9955C6.64928 17.0091 6.62895 17.0227 6.61268 17.0376C6.55169 17.0918 6.47443 17.1867 6.45817 17.4022C6.45546 17.4293 6.4541 17.4591 6.4541 17.4903C6.4541 17.5933 6.47172 17.7003 6.5029 17.8088C6.60591 18.1625 6.87427 18.538 7.28496 18.8945C8.57394 20.0113 11.3376 21.0048 15.2289 20.4437C17.2431 20.1509 18.5144 19.644 19.7424 19.1533C20.191 18.9744 20.6153 18.805 21.0639 18.6505C21.6115 18.4661 22.132 18.3401 22.5914 18.2276C23.2515 18.0677 23.6839 17.9484 23.9238 17.8088C24.0783 17.718 24.1542 17.6177 24.1542 17.4903C24.1542 17.4604 24.1502 17.4306 24.1447 17.4022C24.119 17.2612 24.0309 17.1243 23.8886 16.9955C23.3505 16.513 22.0276 16.1349 20.2209 15.979C18.3992 15.8326 16.6589 16.0427 14.7464 16.6364H14.7437Z" fill="#110F23"/>
</g>
<defs>
<clipPath id="clip0_4_1283">
<rect width="21.9764" height="24" fill="white" transform="translate(5 4)"/>
</clipPath>
</defs>
</svg>
