<svg width="32" height="32" viewBox="0 0 32 32" fill="none" xmlns="http://www.w3.org/2000/svg">
<path d="M9.55281 17.8375C9.81929 17.8375 10.0353 17.6215 10.0353 17.355C10.0353 17.0885 9.81929 16.8725 9.55281 16.8725C9.28634 16.8725 9.07031 17.0885 9.07031 17.355C9.07031 17.6215 9.28634 17.8375 9.55281 17.8375Z" fill="#110F23"/>
<path d="M11.5376 17.59C11.8593 17.59 12.1201 17.3292 12.1201 17.0075C12.1201 16.6858 11.8593 16.425 11.5376 16.425C11.2159 16.425 10.9551 16.6858 10.9551 17.0075C10.9551 17.3292 11.2159 17.59 11.5376 17.59Z" fill="#110F23"/>
<path d="M13.7071 16.765C14.0771 16.765 14.3771 16.465 14.3771 16.095C14.3771 15.725 14.0771 15.425 13.7071 15.425C13.3371 15.425 13.0371 15.725 13.0371 16.095C13.0371 16.465 13.3371 16.765 13.7071 16.765Z" fill="#110F23"/>
<path d="M9.25289 19.48C9.58564 19.48 9.85539 19.2102 9.85539 18.8775C9.85539 18.5447 9.58564 18.275 9.25289 18.275C8.92014 18.275 8.65039 18.5447 8.65039 18.8775C8.65039 19.2102 8.92014 19.48 9.25289 19.48Z" fill="#110F23"/>
<path d="M11.59 19.4875C11.9628 19.4875 12.265 19.1853 12.265 18.8125C12.265 18.4397 11.9628 18.1375 11.59 18.1375C11.2172 18.1375 10.915 18.4397 10.915 18.8125C10.915 19.1853 11.2172 19.4875 11.59 19.4875Z" fill="#110F23"/>
<path d="M14.2504 18.9725C14.6978 18.9725 15.0604 18.6099 15.0604 18.1625C15.0604 17.7152 14.6978 17.3525 14.2504 17.3525C13.8031 17.3525 13.4404 17.7152 13.4404 18.1625C13.4404 18.6099 13.8031 18.9725 14.2504 18.9725Z" fill="#110F23"/>
<path d="M9.27039 21.37C9.64733 21.37 9.95289 21.0644 9.95289 20.6875C9.95289 20.3106 9.64733 20.005 9.27039 20.005C8.89346 20.005 8.58789 20.3106 8.58789 20.6875C8.58789 21.0644 8.89346 21.37 9.27039 21.37Z" fill="#110F23"/>
<path d="M12.0876 21.7125C12.5405 21.7125 12.9076 21.3454 12.9076 20.8925C12.9076 20.4396 12.5405 20.0725 12.0876 20.0725C11.6347 20.0725 11.2676 20.4396 11.2676 20.8925C11.2676 21.3454 11.6347 21.7125 12.0876 21.7125Z" fill="#110F23"/>
<path d="M15.365 21.38C15.8993 21.38 16.3325 20.9468 16.3325 20.4125C16.3325 19.8782 15.8993 19.445 15.365 19.445C14.8306 19.445 14.3975 19.8782 14.3975 20.4125C14.3975 20.9468 14.8306 21.38 15.365 21.38Z" fill="#110F23"/>
<path d="M13.2448 24.105C13.7792 24.105 14.2123 23.6718 14.2123 23.1375C14.2123 22.6032 13.7792 22.17 13.2448 22.17C12.7105 22.17 12.2773 22.6032 12.2773 23.1375C12.2773 23.6718 12.7105 24.105 13.2448 24.105Z" fill="#110F23"/>
<path d="M9.80223 23.595C10.262 23.595 10.6347 23.2223 10.6347 22.7625C10.6347 22.3027 10.262 21.93 9.80223 21.93C9.34245 21.93 8.96973 22.3027 8.96973 22.7625C8.96973 23.2223 9.34245 23.595 9.80223 23.595Z" fill="#110F23"/>
<path d="M17.2972 23.7825C17.9144 23.7825 18.4147 23.2822 18.4147 22.665C18.4147 22.0478 17.9144 21.5475 17.2972 21.5475C16.68 21.5475 16.1797 22.0478 16.1797 22.665C16.1797 23.2822 16.68 23.7825 17.2972 23.7825Z" fill="#110F23"/>
<path d="M15.1472 26.515C15.763 26.515 16.2622 26.0158 16.2622 25.4C16.2622 24.7842 15.763 24.285 15.1472 24.285C14.5314 24.285 14.0322 24.7842 14.0322 25.4C14.0322 26.0158 14.5314 26.515 15.1472 26.515Z" fill="#110F23"/>
<path d="M10.9597 25.9825C11.5065 25.9825 11.9497 25.5393 11.9497 24.9925C11.9497 24.4457 11.5065 24.0025 10.9597 24.0025C10.413 24.0025 9.96973 24.4457 9.96973 24.9925C9.96973 25.5393 10.413 25.9825 10.9597 25.9825Z" fill="#110F23"/>
<path d="M12.8621 28.385C13.4779 28.385 13.9771 27.8858 13.9771 27.27C13.9771 26.6542 13.4779 26.155 12.8621 26.155C12.2463 26.155 11.7471 26.6542 11.7471 27.27C11.7471 27.8858 12.2463 28.385 12.8621 28.385Z" fill="#110F23"/>
<path d="M17.935 28.84C18.6585 28.84 19.245 28.2535 19.245 27.53C19.245 26.8065 18.6585 26.22 17.935 26.22C17.2115 26.22 16.625 26.8065 16.625 27.53C16.625 28.2535 17.2115 28.84 17.935 28.84Z" fill="#110F23"/>
<path d="M20.0471 26.07C20.765 26.07 21.3471 25.488 21.3471 24.77C21.3471 24.052 20.765 23.47 20.0471 23.47C19.3291 23.47 18.7471 24.052 18.7471 24.77C18.7471 25.488 19.3291 26.07 20.0471 26.07Z" fill="#110F23"/>
<path d="M23.8171 27.9775C24.6746 27.9775 25.3696 27.2824 25.3696 26.425C25.3696 25.5676 24.6746 24.8725 23.8171 24.8725C22.9597 24.8725 22.2646 25.5676 22.2646 26.425C22.2646 27.2824 22.9597 27.9775 23.8171 27.9775Z" fill="#110F23"/>
<path d="M21.3272 22.0875C21.5937 22.0875 21.8097 21.8715 21.8097 21.605C21.8097 21.3385 21.5937 21.1225 21.3272 21.1225C21.0607 21.1225 20.8447 21.3385 20.8447 21.605C20.8447 21.8715 21.0607 22.0875 21.3272 22.0875Z" fill="#110F23"/>
<path d="M20.0395 20.6375C20.3612 20.6375 20.622 20.3767 20.622 20.055C20.622 19.7333 20.3612 19.4725 20.0395 19.4725C19.7178 19.4725 19.457 19.7333 19.457 20.055C19.457 20.3767 19.7178 20.6375 20.0395 20.6375Z" fill="#110F23"/>
<path d="M18.1671 19.2975C18.5371 19.2975 18.8371 18.9975 18.8371 18.6275C18.8371 18.2575 18.5371 17.9575 18.1671 17.9575C17.797 17.9575 17.4971 18.2575 17.4971 18.6275C17.4971 18.9975 17.797 19.2975 18.1671 19.2975Z" fill="#110F23"/>
<path d="M22.7998 21.7075C23.1325 21.7075 23.4023 21.4378 23.4023 21.105C23.4023 20.7722 23.1325 20.5025 22.7998 20.5025C22.467 20.5025 22.1973 20.7722 22.1973 21.105C22.1973 21.4378 22.467 21.7075 22.7998 21.7075Z" fill="#110F23"/>
<path d="M21.5773 19.7875C21.9501 19.7875 22.2523 19.4853 22.2523 19.1125C22.2523 18.7397 21.9501 18.4375 21.5773 18.4375C21.2046 18.4375 20.9023 18.7397 20.9023 19.1125C20.9023 19.4853 21.2046 19.7875 21.5773 19.7875Z" fill="#110F23"/>
<path d="M19.6899 17.9375C20.1372 17.9375 20.4999 17.5749 20.4999 17.1275C20.4999 16.6802 20.1372 16.3175 19.6899 16.3175C19.2425 16.3175 18.8799 16.6802 18.8799 17.1275C18.8799 17.5749 19.2425 17.9375 19.6899 17.9375Z" fill="#110F23"/>
<path d="M24.3573 20.8725C24.7342 20.8725 25.0398 20.5669 25.0398 20.19C25.0398 19.8131 24.7342 19.5075 24.3573 19.5075C23.9804 19.5075 23.6748 19.8131 23.6748 20.19C23.6748 20.5669 23.9804 20.8725 24.3573 20.8725Z" fill="#110F23"/>
<path d="M23.1354 18.465C23.5883 18.465 23.9554 18.0979 23.9554 17.645C23.9554 17.1921 23.5883 16.825 23.1354 16.825C22.6826 16.825 22.3154 17.1921 22.3154 17.645C22.3154 18.0979 22.6826 18.465 23.1354 18.465Z" fill="#110F23"/>
<path d="M21.0876 16.01C21.622 16.01 22.0551 15.5768 22.0551 15.0425C22.0551 14.5082 21.622 14.075 21.0876 14.075C20.5533 14.075 20.1201 14.5082 20.1201 15.0425C20.1201 15.5768 20.5533 16.01 21.0876 16.01Z" fill="#110F23"/>
<path d="M24.5046 16.49C25.0389 16.49 25.4721 16.0568 25.4721 15.5225C25.4721 14.9882 25.0389 14.555 24.5046 14.555C23.9703 14.555 23.5371 14.9882 23.5371 15.5225C23.5371 16.0568 23.9703 16.49 24.5046 16.49Z" fill="#110F23"/>
<path d="M25.895 19.5275C26.3548 19.5275 26.7275 19.1548 26.7275 18.695C26.7275 18.2352 26.3548 17.8625 25.895 17.8625C25.4352 17.8625 25.0625 18.2352 25.0625 18.695C25.0625 19.1548 25.4352 19.5275 25.895 19.5275Z" fill="#110F23"/>
<path d="M22.0775 13.3625C22.6946 13.3625 23.195 12.8622 23.195 12.245C23.195 11.6278 22.6946 11.1275 22.0775 11.1275C21.4603 11.1275 20.96 11.6278 20.96 12.245C20.96 12.8622 21.4603 13.3625 22.0775 13.3625Z" fill="#110F23"/>
<path d="M25.5203 13.8625C26.1361 13.8625 26.6353 13.3633 26.6353 12.7475C26.6353 12.1317 26.1361 11.6325 25.5203 11.6325C24.9045 11.6325 24.4053 12.1317 24.4053 12.7475C24.4053 13.3633 24.9045 13.8625 25.5203 13.8625Z" fill="#110F23"/>
<path d="M27.2527 17.5725C27.7995 17.5725 28.2427 17.1293 28.2427 16.5825C28.2427 16.0357 27.7995 15.5925 27.2527 15.5925C26.7059 15.5925 26.2627 16.0357 26.2627 16.5825C26.2627 17.1293 26.7059 17.5725 27.2527 17.5725Z" fill="#110F23"/>
<path d="M28.28 14.9125C28.8958 14.9125 29.395 14.4133 29.395 13.7975C29.395 13.1817 28.8958 12.6825 28.28 12.6825C27.6642 12.6825 27.165 13.1817 27.165 13.7975C27.165 14.4133 27.6642 14.9125 28.28 14.9125Z" fill="#110F23"/>
<path d="M25.978 10.5775C26.7015 10.5775 27.288 9.99098 27.288 9.26749C27.288 8.544 26.7015 7.95749 25.978 7.95749C25.2545 7.95749 24.668 8.544 24.668 9.26749C24.668 9.99098 25.2545 10.5775 25.978 10.5775Z" fill="#110F23"/>
<path d="M22.5324 10.11C23.2504 10.11 23.8324 9.52798 23.8324 8.81001C23.8324 8.09204 23.2504 7.51001 22.5324 7.51001C21.8145 7.51001 21.2324 8.09204 21.2324 8.81001C21.2324 9.52798 21.8145 10.11 22.5324 10.11Z" fill="#110F23"/>
<path d="M22.0925 6.26751C22.95 6.26751 23.645 5.57243 23.645 4.71501C23.645 3.85758 22.95 3.16251 22.0925 3.16251C21.2351 3.16251 20.54 3.85758 20.54 4.71501C20.54 5.57243 21.2351 6.26751 22.0925 6.26751Z" fill="#110F23"/>
<path d="M19.1573 9.745C19.4238 9.745 19.6398 9.52898 19.6398 9.2625C19.6398 8.99602 19.4238 8.78 19.1573 8.78C18.8908 8.78 18.6748 8.99602 18.6748 9.2625C18.6748 9.52898 18.8908 9.745 19.1573 9.745Z" fill="#110F23"/>
<path d="M18.4624 11.735C18.7841 11.735 19.0449 11.4742 19.0449 11.1525C19.0449 10.8308 18.7841 10.57 18.4624 10.57C18.1407 10.57 17.8799 10.8308 17.8799 11.1525C17.8799 11.4742 18.1407 11.735 18.4624 11.735Z" fill="#110F23"/>
<path d="M18.1651 14.16C18.5351 14.16 18.8351 13.86 18.8351 13.49C18.8351 13.12 18.5351 12.82 18.1651 12.82C17.7951 12.82 17.4951 13.12 17.4951 13.49C17.4951 13.86 17.7951 14.16 18.1651 14.16Z" fill="#110F23"/>
<path d="M17.9873 8.84251C18.32 8.84251 18.5898 8.57276 18.5898 8.24001C18.5898 7.90726 18.32 7.63751 17.9873 7.63751C17.6545 7.63751 17.3848 7.90726 17.3848 8.24001C17.3848 8.57276 17.6545 8.84251 17.9873 8.84251Z" fill="#110F23"/>
<path d="M16.8752 10.97C17.248 10.97 17.5502 10.6678 17.5502 10.295C17.5502 9.9222 17.248 9.62 16.8752 9.62C16.5024 9.62 16.2002 9.9222 16.2002 10.295C16.2002 10.6678 16.5024 10.97 16.8752 10.97Z" fill="#110F23"/>
<path d="M16.1049 13.7325C16.5523 13.7325 16.9149 13.3698 16.9149 12.9225C16.9149 12.4751 16.5523 12.1125 16.1049 12.1125C15.6576 12.1125 15.2949 12.4751 15.2949 12.9225C15.2949 13.3698 15.6576 13.7325 16.1049 13.7325Z" fill="#110F23"/>
<path d="M16.4149 8.03251C16.7919 8.03251 17.0974 7.72695 17.0974 7.35001C17.0974 6.97308 16.7919 6.66751 16.4149 6.66751C16.038 6.66751 15.7324 6.97308 15.7324 7.35001C15.7324 7.72695 16.038 8.03251 16.4149 8.03251Z" fill="#110F23"/>
<path d="M14.8249 10.5025C15.2778 10.5025 15.6449 10.1354 15.6449 9.68249C15.6449 9.22961 15.2778 8.86249 14.8249 8.86249C14.372 8.86249 14.0049 9.22961 14.0049 9.68249C14.0049 10.1354 14.372 10.5025 14.8249 10.5025Z" fill="#110F23"/>
<path d="M13.6003 13.7275C14.1346 13.7275 14.5678 13.2943 14.5678 12.76C14.5678 12.2257 14.1346 11.7925 13.6003 11.7925C13.066 11.7925 12.6328 12.2257 12.6328 12.76C12.6328 13.2943 13.066 13.7275 13.6003 13.7275Z" fill="#110F23"/>
<path d="M12.3025 10.53C12.8368 10.53 13.27 10.0968 13.27 9.5625C13.27 9.02817 12.8368 8.595 12.3025 8.595C11.7681 8.595 11.335 9.02817 11.335 9.5625C11.335 10.0968 11.7681 10.53 12.3025 10.53Z" fill="#110F23"/>
<path d="M14.352 7.6025C14.8118 7.6025 15.1845 7.22978 15.1845 6.77C15.1845 6.31022 14.8118 5.9375 14.352 5.9375C13.8923 5.9375 13.5195 6.31022 13.5195 6.77C13.5195 7.22978 13.8923 7.6025 14.352 7.6025Z" fill="#110F23"/>
<path d="M10.6829 14.4225C11.3001 14.4225 11.8004 13.9222 11.8004 13.305C11.8004 12.6878 11.3001 12.1875 10.6829 12.1875C10.0658 12.1875 9.56543 12.6878 9.56543 13.305C9.56543 13.9222 10.0658 14.4225 10.6829 14.4225Z" fill="#110F23"/>
<path d="M9.39039 11.19C10.0062 11.19 10.5054 10.6908 10.5054 10.075C10.5054 9.45919 10.0062 8.95999 9.39039 8.95999C8.77459 8.95999 8.27539 9.45919 8.27539 10.075C8.27539 10.6908 8.77459 11.19 9.39039 11.19Z" fill="#110F23"/>
<path d="M11.8425 7.64501C12.3893 7.64501 12.8325 7.20177 12.8325 6.65501C12.8325 6.10825 12.3893 5.66501 11.8425 5.66501C11.2958 5.66501 10.8525 6.10825 10.8525 6.65501C10.8525 7.20177 11.2958 7.64501 11.8425 7.64501Z" fill="#110F23"/>
<path d="M8.91773 8.27501C9.53353 8.27501 10.0327 7.77581 10.0327 7.16001C10.0327 6.54422 9.53353 6.04501 8.91773 6.04501C8.30194 6.04501 7.80273 6.54422 7.80273 7.16001C7.80273 7.77581 8.30194 8.27501 8.91773 8.27501Z" fill="#110F23"/>
<path d="M6.15277 12.7325C6.87627 12.7325 7.46277 12.146 7.46277 11.4225C7.46277 10.699 6.87627 10.1125 6.15277 10.1125C5.42928 10.1125 4.84277 10.699 4.84277 11.4225C4.84277 12.146 5.42928 12.7325 6.15277 12.7325Z" fill="#110F23"/>
<path d="M7.48262 15.9325C8.20059 15.9325 8.78262 15.3505 8.78262 14.6325C8.78262 13.9145 8.20059 13.3325 7.48262 13.3325C6.76465 13.3325 6.18262 13.9145 6.18262 14.6325C6.18262 15.3505 6.76465 15.9325 7.48262 15.9325Z" fill="#110F23"/>
<path d="M4.15992 18.62C5.01734 18.62 5.71242 17.9249 5.71242 17.0675C5.71242 16.2101 5.01734 15.515 4.15992 15.515C3.3025 15.515 2.60742 16.2101 2.60742 17.0675C2.60742 17.9249 3.3025 18.62 4.15992 18.62Z" fill="#110F23"/>
</svg>
