<svg width="32" height="32" viewBox="0 0 32 32" fill="none" xmlns="http://www.w3.org/2000/svg">
<path fill-rule="evenodd" clip-rule="evenodd" d="M7.04482 23.2634C6.39651 22.8675 6 22.1621 6 21.4048V17.1761C6 17.0142 6.04341 16.8581 6.12445 16.7194C6.37625 16.2859 6.93484 16.1384 7.36898 16.3928L16.9258 21.957C17.4843 22.2836 17.8288 22.879 17.8288 23.5264V27.9084C17.8288 28.1079 17.7738 28.3073 17.6696 28.4778C17.3541 28.9923 16.6826 29.1542 16.1675 28.8391L7.04482 23.2634ZM21.2903 15.2337C21.8489 15.5603 22.1933 16.1558 22.1933 16.8033V25.6943C22.1933 25.9573 22.0515 26.2001 21.8228 26.3273L19.7303 27.5037C19.7043 27.5182 19.6753 27.5297 19.6464 27.5384V22.6015C19.6464 21.9627 19.3107 21.3701 18.7607 21.0406L10.3674 16.0257V10.4529C10.3674 10.291 10.4108 10.135 10.4919 9.99621C10.7437 9.56263 11.3023 9.41522 11.7364 9.66959L21.2903 15.2337ZM25.4725 8.6666C26.034 8.99033 26.3784 9.59154 26.3784 10.239V23.2258C26.3784 23.4917 26.2307 23.7375 25.9963 23.8647L24.0138 24.9341V15.8928C24.0138 15.2539 23.678 14.6643 23.1311 14.3348L14.5525 9.19555V3.9089C14.5525 3.74703 14.5959 3.59095 14.674 3.4522C14.9259 3.01863 15.4845 2.87122 15.9186 3.12269L25.4725 8.6666Z" fill="#110F23"/>
</svg>
