<svg width="32" height="32" viewBox="0 0 32 32" fill="none" xmlns="http://www.w3.org/2000/svg">
<path d="M16 4C9.40852 4 4 9.40336 4 16C4 22.5966 9.40336 28 16 28C22.5966 28 28 22.5966 28 16C28 9.40336 22.5915 4 16 4ZM16 26.2746C10.3435 26.2746 5.72536 21.6513 5.72536 16C5.72536 10.3487 10.3435 5.72536 16 5.72536C21.6565 5.72536 26.2746 10.3435 26.2746 16C26.2746 21.6565 21.6565 26.2746 16 26.2746Z" fill="#110F23"/>
<path d="M12.353 8.22557C13.4585 7.709 14.6931 7.41455 15.9948 7.41455C17.2966 7.41455 18.526 7.70383 19.6263 8.2204L18.8825 9.84244C18.2626 9.55316 17.5962 9.35687 16.8885 9.26388L16.873 22.7413C17.5497 22.6535 18.1954 22.4727 18.7947 22.204L18.9496 24.0637C18.0301 24.3995 17.0331 24.5854 15.9948 24.5854C14.9565 24.5854 13.9647 24.3995 13.04 24.0637L13.195 22.204C13.7891 22.4727 14.4348 22.6535 15.1063 22.7413V9.25872C14.3986 9.3517 13.7219 9.548 13.102 9.83728L12.353 8.22557ZM22.1937 21.9406C23.6711 20.396 24.5803 18.3039 24.5803 16C24.5803 13.8149 23.7641 11.8209 22.421 10.3074L21.5687 12.0895C22.3435 13.195 22.7929 14.5381 22.7929 16C22.7929 17.2139 22.483 18.3452 21.9303 19.3319L22.1937 21.9406ZM21.2174 20.3702L21.4034 22.6741C20.9023 23.0822 20.3495 23.4335 19.7658 23.7228L19.0633 15.5712L17.6737 18.5467L17.6685 14.409L20.3857 8.62333C20.8971 8.92811 21.3724 9.28455 21.8114 9.68231L20.5149 12.4408L21.2174 20.3702ZM12.9471 15.5712L12.2445 23.7228C11.6401 23.4283 11.0771 23.0667 10.5605 22.6431L10.7723 20.365L11.4748 12.4408L10.1885 9.68231C10.6276 9.27938 11.108 8.92294 11.6246 8.61817L12.3892 10.235L14.3108 14.3573L14.3056 18.5002L12.9471 15.5712Z" fill="#110F23"/>
<path d="M9.56866 10.3125C8.22557 11.8261 7.41455 13.8201 7.41455 16C7.41455 18.3194 8.33405 20.4219 9.82695 21.9664L10.0594 19.3164C9.517 18.3401 9.20706 17.2088 9.20706 16C9.20706 14.5433 9.65648 13.2002 10.421 12.0999L9.56866 10.3125Z" fill="#110F23"/>
</svg>
