<svg width="32" height="32" viewBox="0 0 32 32" fill="none" xmlns="http://www.w3.org/2000/svg">
<path d="M15.9996 8.69749C18.5112 8.69749 20.5471 7.50097 20.5471 6.02499C20.5471 4.54901 18.5112 3.35249 15.9996 3.35249C13.4881 3.35249 11.4521 4.54901 11.4521 6.02499C11.4521 7.50097 13.4881 8.69749 15.9996 8.69749Z" fill="#110F23"/>
<path d="M15.9996 28.6475C18.5112 28.6475 20.5471 27.451 20.5471 25.975C20.5471 24.499 18.5112 23.3025 15.9996 23.3025C13.4881 23.3025 11.4521 24.499 11.4521 25.975C11.4521 27.451 13.4881 28.6475 15.9996 28.6475Z" fill="#110F23"/>
<path d="M9.63637 24.9252C10.9146 24.1872 10.9328 21.8257 9.67707 19.6507C8.42131 17.4757 6.3671 16.3107 5.08887 17.0487C3.81063 17.7867 3.79241 20.1482 5.04816 22.3232C6.30392 24.4982 8.35813 25.6632 9.63637 24.9252Z" fill="#110F23"/>
<path d="M26.9118 14.9516C28.19 14.2136 28.2082 11.8521 26.9525 9.6771C25.6967 7.50206 23.6425 6.33711 22.3643 7.0751C21.086 7.81309 21.0678 10.1746 22.3236 12.3496C23.5793 14.5246 25.6335 15.6896 26.9118 14.9516Z" fill="#110F23"/>
<path d="M27.045 22.2254C28.3008 20.0404 28.2778 17.6708 26.9937 16.9328C25.7096 16.1948 23.6506 17.3679 22.3948 19.5529C21.1391 21.7379 21.1621 24.1075 22.4462 24.8455C23.7303 25.5834 25.7892 24.4104 27.045 22.2254Z" fill="#110F23"/>
<path d="M9.67512 12.3489C10.9309 10.1739 10.9127 7.81238 9.63441 7.07439C8.35618 6.3364 6.30197 7.50135 5.04621 9.67639C3.79045 11.8514 3.80868 14.2129 5.08691 14.9509C6.36515 15.6889 8.41936 14.5239 9.67512 12.3489Z" fill="#110F23"/>
</svg>
