<svg width="32" height="32" viewBox="0 0 32 32" fill="none" xmlns="http://www.w3.org/2000/svg">
<path fill-rule="evenodd" clip-rule="evenodd" d="M22.2956 8.07721L13.0887 3L11.2646 4.03196L20.4244 9.08342C22.705 10.341 24.1099 12.6651 24.1099 15.1802V23.6881C24.1099 24.5362 23.7938 25.2804 23.2867 25.8506C23.2805 25.8577 23.2769 25.8657 23.2751 25.8746C23.2671 25.911 23.3 25.9429 23.3364 25.9341C24.7991 25.5735 25.9829 24.3239 25.9829 22.6828V14.1748C25.9829 11.6598 24.578 9.33564 22.2974 8.0781L22.2956 8.07721Z" fill="#100E21"/>
<path fill-rule="evenodd" clip-rule="evenodd" d="M23.4075 15.6269C23.4075 13.1118 22.0025 10.7877 19.7219 9.53013L10.5151 4.45292L8.69091 5.48488L17.8507 10.5363C20.1313 11.7939 21.5363 14.118 21.5363 16.6331V25.141C21.5363 25.9891 21.2201 26.7333 20.713 27.3035C20.7068 27.3106 20.7032 27.3186 20.7015 27.3275C20.6935 27.3639 20.7263 27.3959 20.7627 27.387C22.2254 27.0264 23.4084 25.7769 23.4084 24.1357V15.6278L23.4075 15.6269Z" fill="#100E21"/>
<path fill-rule="evenodd" clip-rule="evenodd" d="M20.7405 25.6845V17.1348C20.7405 14.6198 19.3356 12.2956 17.055 11.0381L7.84812 5.96089L6 7.00617V23.3364L7.13054 23.9438L15.4759 28.5459C17.8027 29.8292 20.7086 28.2404 20.7405 25.6845ZM17.816 27.7715L7.8721 22.2876V8.03902L8.80814 8.555V21.7236L8.85255 21.7476L8.80814 21.7725L18.8578 27.3141C18.7734 27.7564 18.2459 28.0086 17.816 27.7715ZM18.8684 25.6081L10.3401 20.9057L10.3277 20.9128V9.39336L11.2637 9.90934V20.4607L11.3623 20.5131L18.8684 24.6525V25.6081ZM18.8684 23.1064L12.6678 19.6872V10.6838L15.1829 12.071C17.4635 13.3285 18.8675 15.6526 18.8675 18.1677V23.1064H18.8684Z" fill="#100E21"/>
</svg>
