<svg width="32" height="32" viewBox="0 0 32 32" fill="none" xmlns="http://www.w3.org/2000/svg">
<path fill-rule="evenodd" clip-rule="evenodd" d="M12.2881 17.4634C10.9409 19.6702 9.43642 21.9918 7.78878 24.3378C7.44249 24.685 6.91617 25.5869 7.58098 26.4196C7.99646 26.9747 9.07687 27.9186 10.0742 27.2524C11.5293 25.89 13.599 23.9053 15.8435 21.6774C18.2104 24.3731 20.4672 26.6906 22.1245 27.8768C22.4111 28.0819 22.9556 28.0852 23.7867 27.4606C23.8011 27.4498 23.8161 27.4385 23.8314 27.427C24.2532 27.1115 24.9386 26.5989 24.6178 25.795C23.5194 23.9917 21.7522 20.966 19.9335 17.5325C22.4671 14.9049 24.8954 12.2556 26.6289 10.0938C27.1534 9.43972 27.0729 8.49817 26.4381 7.95039C25.0383 6.7425 22.9939 5.16073 21.0739 4.16039C20.2888 3.75133 19.3666 4.16217 19.0011 4.96848C18.38 6.33847 17.4971 8.15819 16.3749 10.2822C15.685 8.73097 15.0625 7.20595 14.5561 5.77151C14.2441 4.88756 13.2872 4.39018 12.4153 4.73457C10.5662 5.46498 8.14783 6.58463 6.52316 7.81619C5.88979 8.29631 5.84333 9.18634 6.31978 9.8225C7.89963 11.9316 10.0324 14.6991 12.2881 17.4634Z" fill="#110F23"/>
</svg>
