<svg width="32" height="32" viewBox="0 0 32 32" fill="none" xmlns="http://www.w3.org/2000/svg">
<path d="M11.6733 4.39594C12.7182 3.91261 13.8267 3.61228 14.9732 3.50018C14.6953 3.21081 14.0999 2.85418 12.9148 3.06221C11.4152 3.32552 11.1233 4.23326 11.0748 4.69991C11.1259 4.67176 11.1764 4.64308 11.2291 4.61544C11.3766 4.53776 11.5263 4.46424 11.6733 4.39594Z" fill="#110F23"/>
<path d="M23.5507 17.5074C23.5423 17.4934 23.5345 17.4788 23.5257 17.4647C22.9349 16.4965 22.0147 15.6664 20.7904 14.998C20.3681 14.767 19.9291 14.5689 19.4786 14.4015C18.3618 13.987 17.1719 13.7701 15.9733 13.7701C14.7746 13.7701 13.5848 13.987 12.4679 14.4015C12.0174 14.5689 11.5784 14.767 11.1561 14.998C9.9376 15.6638 9.02047 16.4886 8.42921 17.4506C8.42087 17.4647 8.41252 17.4788 8.40418 17.4928C8.36143 17.5643 8.32024 17.6362 8.28113 17.7092C8.24151 17.7822 8.20344 17.8562 8.16747 17.9308C8.19093 18.1811 8.23577 18.4908 8.32076 18.8161C8.58511 19.8276 9.11901 20.5274 9.86513 20.8386C10.8912 21.2672 11.2327 22.1468 11.3386 22.81C11.36 22.9435 11.459 23.0472 11.5909 23.0749C11.6134 23.0796 11.6358 23.0817 11.6582 23.0817C11.7661 23.0817 11.8673 23.0274 11.9278 22.9336C12.5008 22.041 13.7881 20.5425 15.9727 20.5378H15.9826C18.1673 20.5425 19.4551 22.041 20.0281 22.9336C20.0886 23.028 20.1898 23.0817 20.2977 23.0817C20.3201 23.0817 20.3425 23.0796 20.365 23.0749C20.4969 23.0472 20.5959 22.9435 20.6173 22.81C20.7232 22.1473 21.0647 21.2672 22.0908 20.8386C22.815 20.5362 23.3411 19.8652 23.6122 18.899C23.7107 18.5481 23.7613 18.2139 23.7869 17.9459C23.7509 17.8708 23.7128 17.7963 23.6732 17.7228C23.6341 17.6503 23.5934 17.5778 23.5507 17.5069V17.5074ZM13.3517 18.4903C13.1734 18.7181 12.8433 18.9892 12.2854 18.9892C11.3287 18.9892 10.6284 18.4407 10.411 17.5226C10.4058 17.4996 10.4162 17.4756 10.4371 17.4647C10.4517 17.4569 10.801 17.2728 11.2599 17.1623C11.8741 17.0142 12.3866 17.0747 12.7422 17.3364L13.2385 17.7024C13.3616 17.7932 13.4408 17.9266 13.4617 18.0784C13.482 18.227 13.4424 18.3735 13.3506 18.4908L13.3517 18.4903ZM21.646 17.5226C21.4291 18.4407 20.7284 18.9892 19.7716 18.9892C19.2137 18.9892 18.8842 18.7181 18.7054 18.4903C18.6136 18.373 18.574 18.227 18.5943 18.0778C18.6152 17.9261 18.6944 17.7926 18.8175 17.7019L19.3138 17.3359C19.6694 17.0742 20.182 17.0137 20.7962 17.1618C21.255 17.2723 21.6043 17.4563 21.6189 17.4642C21.6398 17.4751 21.6507 17.4991 21.645 17.522L21.646 17.5226Z" fill="#110F23"/>
<path d="M9.64093 11.0062C11.4778 9.99154 13.6082 9.47693 15.9733 9.47693C18.3383 9.47693 20.4625 9.98998 22.2967 11.0015C23.5877 11.7132 24.5429 12.5709 25.2228 13.3405C25.1274 13.0276 25.0278 12.6741 24.9193 12.2893C24.351 10.2747 23.5726 7.51544 22.1403 6.08265C21.622 5.56438 20.9416 5.10869 20.1189 4.72755C18.6871 4.06485 17.1016 3.75619 15.5207 3.82814C15.4519 3.83127 15.383 3.83388 15.3142 3.83857C15.2782 3.84118 15.2423 3.84431 15.2063 3.84691C15.1036 3.85473 15.0009 3.86412 14.8987 3.87507C13.8324 3.99082 12.8011 4.27706 11.8266 4.72755C11.8078 4.73641 11.7891 4.7458 11.7703 4.75466C11.6467 4.81306 11.5221 4.87406 11.3991 4.93871C10.7661 5.2724 10.2296 5.65771 9.80465 6.08265C8.37238 7.51492 7.59446 10.2741 7.02614 12.2893C6.91717 12.6752 6.81758 13.0292 6.72217 13.3425C7.40154 12.5735 8.35413 11.7174 9.64197 11.0062H9.64093Z" fill="#110F23"/>
<path d="M25.6795 14.512C25.6748 14.5047 25.6701 14.4974 25.6649 14.4906C25.6639 14.4891 25.6623 14.4875 25.6613 14.4854C25.642 14.4578 25.6222 14.4296 25.6018 14.4015C24.9647 13.5078 23.8573 12.2789 22.1205 11.3211C20.3405 10.3398 18.2721 9.8419 15.9733 9.8419C13.6744 9.8419 11.5993 10.3409 9.81768 11.3258C8.08717 12.282 6.98234 13.5073 6.34468 14.4015C6.32069 14.4349 6.29775 14.4677 6.27481 14.5006C6.27377 14.5021 6.27272 14.5042 6.27116 14.5058C5.49897 15.6195 5 16.8692 5 17.6899C5 19.0773 6.28419 19.7828 7.0058 20.0696C7.0204 20.1373 7.03657 20.2093 7.05429 20.2854C7.06993 20.3532 7.08714 20.4241 7.10487 20.4971C7.29205 21.2589 7.58455 22.2599 7.83169 22.7881C8.46518 24.1437 9.27491 24.8951 10.7447 26.259C11.6963 27.1423 12.518 27.9051 13.8663 28.4645C14.394 28.684 14.9508 28.8498 15.5212 28.9578C15.6709 28.9859 15.8215 29 15.9722 29C16.1229 29 16.2736 28.9859 16.4232 28.9578C16.9936 28.8498 17.5505 28.684 18.0781 28.4645C19.4275 27.9051 20.2487 27.1423 21.2002 26.259C22.67 24.8951 23.4798 24.1437 24.1133 22.7881C24.3703 22.238 24.6962 21.2255 24.886 20.482C24.9047 20.4079 24.9225 20.3365 24.9386 20.2682C24.9569 20.191 24.973 20.1186 24.9871 20.0513C25.7155 19.7531 26.9465 19.0487 26.9465 17.6899C26.9465 16.8703 26.4496 15.6257 25.6795 14.512ZM24.5299 20.4012C24.5142 20.4617 24.4981 20.5237 24.4808 20.5873C24.2921 21.2834 24.0064 22.1551 23.7827 22.6333C23.1794 23.9242 22.388 24.6584 20.9521 25.9916C20.0266 26.8508 19.2273 27.5928 17.9384 28.1272C17.4342 28.3368 16.9013 28.4953 16.3554 28.5985C16.1015 28.6465 15.8434 28.6465 15.589 28.5985C15.0436 28.4953 14.5107 28.3368 14.006 28.1272C12.7177 27.5928 11.9184 26.8508 10.9929 25.9916C9.55646 24.6589 8.76551 23.9247 8.16226 22.6333C7.94796 22.175 7.68518 21.298 7.50165 20.5779C7.48027 20.495 7.46046 20.4142 7.44169 20.336C7.37651 20.0664 7.32646 19.8328 7.29935 19.6712C7.39685 18.7968 7.6711 17.9882 8.11898 17.2592C8.74361 16.2425 9.70662 15.3739 10.9814 14.6773C11.1603 14.5798 11.3417 14.488 11.5258 14.401C12.9101 13.7482 14.4351 13.4046 15.9738 13.4046C17.5124 13.4046 19.037 13.7477 20.4213 14.401C20.6053 14.4875 20.7873 14.5798 20.9656 14.6773C22.2472 15.377 23.2133 16.2509 23.8374 17.2744C24.3025 18.0351 24.5789 18.8834 24.6623 19.8031C24.6378 19.9554 24.5914 20.1634 24.5304 20.4012H24.5299Z" fill="#110F23"/>
<path d="M18.9478 26.2272C18.9223 26.2069 18.3102 25.7345 17.4092 25.7345C16.5082 25.7345 16.1657 25.5087 16.1657 25.4185V24.7824C16.1657 24.7824 16.1657 24.7793 16.1657 24.7778C17.9488 24.6881 18.0187 23.3392 18.0187 22.5071C18.0187 22.0373 17.4107 21.785 16.8581 21.6525C16.2788 21.5138 15.6693 21.5138 15.0895 21.6525C14.5368 21.785 13.9294 22.0373 13.9294 22.5071C13.9294 23.3408 13.9987 24.6933 15.7918 24.7783C15.7918 24.7798 15.7918 24.7809 15.7918 24.7824V25.4185C15.7918 25.5082 15.4222 25.7345 14.5483 25.7345C13.6744 25.7345 13.0352 26.2074 13.0097 26.2272C12.9304 26.2893 12.9169 26.404 12.9789 26.4832C13.0149 26.5291 13.0686 26.5531 13.1223 26.5531C13.1619 26.5531 13.2015 26.5406 13.2349 26.514C13.2401 26.5098 13.7719 26.099 14.5483 26.099C15.2188 26.099 15.7266 25.9733 15.979 25.7606C16.2314 25.9733 16.7392 26.099 17.4097 26.099C18.1777 26.099 18.7153 26.5077 18.7236 26.514C18.757 26.5401 18.7966 26.5526 18.8357 26.5526C18.8899 26.5526 18.9431 26.5286 18.9791 26.4827C19.0411 26.4035 19.0276 26.2888 18.9483 26.2267L18.9478 26.2272ZM14.712 22.5759C14.712 22.5759 15.0853 22.0112 15.9733 22.0112C16.8612 22.0112 17.2538 22.5759 17.2538 22.5759C16.0416 21.9977 14.712 22.5759 14.712 22.5759Z" fill="#110F23"/>
</svg>
