<svg width="32" height="32" viewBox="0 0 32 32" fill="none" xmlns="http://www.w3.org/2000/svg">
<path d="M14.5216 4C13.7911 4 13.0906 4.29017 12.5741 4.80668L4.46093 12.92C4.15364 13.2273 4 13.63 4 14.0328C4 14.4356 4.15365 14.8383 4.46094 15.1456L9.77774 20.4624V11.0497C9.77774 10.3473 10.3427 9.77783 11.0452 9.77783C14.0129 9.77783 21.2368 9.77783 22.2221 9.77783L27.9998 4.00008L14.5216 4Z" fill="#110F23"/>
<path d="M9.77789 22.2222H20.9503C21.6528 22.2222 22.2222 21.6527 22.2222 20.9503V11.5375L27.5391 16.8544C27.8463 17.1617 28 17.5644 28 17.9672C28 18.37 27.8463 18.7727 27.5391 19.08L19.4259 27.1933C18.9094 27.7098 18.2089 28 17.4784 28L4.00015 27.9999L9.77789 22.2222Z" fill="#110F23"/>
</svg>
