<svg width="32" height="32" viewBox="0 0 32 32" fill="none" xmlns="http://www.w3.org/2000/svg">
<path d="M21.3393 10.0013L21.4134 10.133L23.0438 12.9999L19.5628 19.1287C18.7635 20.5349 17.4623 21.5533 15.9655 22.0028H17.6371C19.7459 22.0028 21.6942 20.86 22.7476 19.0042V19.0022L27.8632 10.0023H21.3404L21.3393 10.0013Z" fill="#110F23"/>
<path d="M7.25884 9.73897L7.40491 9.47872V9.48078L8.96027 6.74347L15.9295 6.74142C17.5209 6.74142 19.0392 7.37611 20.1708 8.46342L19.3386 7.00064C19.0752 6.53774 18.7553 6.11804 18.3922 5.74978C18.3459 5.70348 18.2996 5.65822 18.2533 5.61399C18.1597 5.52552 18.064 5.44117 17.9663 5.35785C17.9159 5.3167 17.8655 5.27658 17.8141 5.23544C17.561 5.03999 17.2946 4.86409 17.0148 4.71081C17.0148 4.71287 17.0117 4.71081 17.0117 4.71081C16.8512 4.62441 16.6866 4.54211 16.5179 4.47113C16.4511 4.4413 16.3842 4.41456 16.3163 4.38884C16.199 4.34255 16.0797 4.30243 15.9594 4.26437C15.8256 4.22219 15.6888 4.18516 15.552 4.1543C15.4985 4.14093 15.4461 4.12961 15.3926 4.11933C15.266 4.09155 15.1385 4.07098 15.0089 4.05349C14.7527 4.01954 14.4925 4.00206 14.2291 4.00206L7.40697 4L4 4.00309L7.25884 9.73897Z" fill="#110F23"/>
<path d="M10.6668 22.26L7.18375 16.1291C6.38961 14.7311 6.17256 13.0811 6.53157 11.5443L5.70246 13.004V13.006C5.66954 13.0636 5.63765 13.1223 5.60679 13.1809C5.54507 13.2982 5.48746 13.4175 5.43397 13.5389C5.40826 13.5986 5.38048 13.6593 5.35682 13.7199C5.30642 13.8424 5.26218 13.9648 5.22104 14.0892C5.01324 14.7147 4.91038 15.3658 4.91141 16.018C4.91141 16.0787 4.91243 16.1373 4.91552 16.196V16.198C4.91655 16.2587 4.91963 16.3204 4.92478 16.3811C4.92478 16.3904 4.92478 16.3996 4.92684 16.4079C4.93095 16.4665 4.93507 16.5262 4.94021 16.5848C4.94638 16.6414 4.95152 16.6959 4.95872 16.7525C4.99267 17.022 5.0441 17.2905 5.11303 17.5548C5.13154 17.6227 5.15109 17.6917 5.17166 17.7595C5.18606 17.812 5.20355 17.8655 5.22104 17.918C5.28276 18.1042 5.35374 18.2883 5.43397 18.4683C5.51524 18.6483 5.6037 18.8263 5.70246 19.0001V19.0022L10.8181 28.0021L14.081 22.2621H10.6689L10.6668 22.26Z" fill="#110F23"/>
<path d="M19.1153 18.8746L22.4524 13.0009L21.0431 10.5218L14.6766 21.7271C16.5138 21.5759 18.1864 20.5123 19.1164 18.8746H19.1153Z" fill="#110F23"/>
<path d="M15.9295 7.25678L9.26064 7.25884L7.8493 9.74412H20.5833C19.5392 8.20214 17.7884 7.25678 15.9295 7.25678Z" fill="#110F23"/>
<path d="M7.63019 15.875L10.9662 21.7457H13.7847L7.41726 10.5413C6.63032 12.2325 6.70233 14.2415 7.63019 15.875Z" fill="#110F23"/>
</svg>
