<svg width="32" height="32" viewBox="0 0 32 32" fill="none" xmlns="http://www.w3.org/2000/svg">
<path d="M15.8505 12.3634C14.639 10.3498 12.4374 9 9.92036 9C6.09784 9 3 12.0978 3 15.9204C3 19.7429 6.09784 22.8407 9.92036 22.8407C11.7569 22.8407 13.5105 22.1105 14.8105 20.8161L21.5428 14.0838H19.0756L13.5714 19.588C12.6033 20.5561 11.2867 21.1037 9.91482 21.1037C7.06039 21.1037 4.74254 18.7803 4.74254 15.9259C4.74254 13.0714 7.06592 10.7425 9.92036 10.7425C11.9616 10.7425 13.7207 11.9264 14.5671 13.6523L15.856 12.3634H15.8505Z" fill="#100E21"/>
<path d="M22.0796 9C20.2486 9 18.4895 9.72467 17.1895 11.0247L10.4572 17.7569H12.9244L18.4286 12.2527C19.3967 11.2847 20.7133 10.737 22.0852 10.7425C24.9396 10.7425 27.2575 13.0659 27.2575 15.9148C27.2575 18.7637 24.9341 21.0871 22.0852 21.0871C20.0439 21.0871 18.2848 19.8978 17.4384 18.1774L16.1495 19.4663C17.361 21.4799 19.5571 22.8352 22.0796 22.8352C25.8966 22.8352 29 19.7373 29 15.9148C29 12.0923 25.9077 9 22.0796 9Z" fill="#100E21"/>
</svg>
