<svg width="32" height="32" viewBox="0 0 32 32" fill="none" xmlns="http://www.w3.org/2000/svg">
<path fill-rule="evenodd" clip-rule="evenodd" d="M28 19.1182C27.6566 19.4971 27.2878 19.8001 26.8836 20.0425C25.7859 20.7026 24.4051 20.9164 22.4435 20.9367H21.9451H21.9468H11.116L4 25.5149H21.1218C23.9017 25.5048 26.3768 23.6728 27.3164 21.0563C27.5484 20.4117 27.7763 19.7657 28 19.1182ZM10.9888 13.4439H24.3008C24.6998 13.4422 25.0934 13.536 25.4488 13.7177C25.8041 13.8993 26.1107 14.1633 26.3431 14.4878C26.5748 14.8125 26.7255 15.188 26.7827 15.5828C26.8398 15.9776 26.8017 16.3804 26.6715 16.7575C26.3449 17.7055 25.4541 18.3992 24.4506 18.4026H8.69744C8.38669 18.3926 8.08237 18.3115 7.80785 18.1655C7.53333 18.0196 7.2959 17.8127 7.11379 17.5607C6.92432 17.2989 6.79999 16.9956 6.75114 16.6761C6.70229 16.3567 6.73031 16.0301 6.83289 15.7236L8.2195 11.5782C8.90819 12.8595 10.2949 13.4287 10.9887 13.4438L10.9888 13.4439ZM22.7752 10.9737L27.3636 7H12.5866C11.9266 7.00169 11.3393 7.47647 11.1234 8.1011C11.0105 8.42789 10.9775 8.77697 11.0271 9.11914C11.0768 9.46131 11.2076 9.78661 11.4088 10.0679C11.6099 10.3491 11.8754 10.5781 12.1832 10.7357C12.4909 10.8932 12.8319 10.9748 13.1777 10.9736C17.2676 10.9585 19.2679 10.972 22.7752 10.9737Z" fill="#110F23"/>
</svg>
