<svg width="32" height="32" viewBox="0 0 32 32" fill="none" xmlns="http://www.w3.org/2000/svg">
<path d="M26.649 25.6647L18.435 5.78688C17.9717 4.75915 17.2831 4.25781 16.3753 4.25781H15.649C14.7412 4.25781 14.0525 4.75915 13.5892 5.78688L10.0144 14.4474H7.30977C6.50214 14.4537 5.84477 15.1054 5.8385 15.9201V15.9389C5.84477 16.7473 6.50214 17.4053 7.30977 17.4115H8.76225L5.35017 25.6647C5.28756 25.8465 5.25 26.0345 5.25 26.2287C5.25 26.6925 5.394 27.0559 5.65068 27.3379C5.90737 27.6199 6.27675 27.7578 6.74005 27.7578C7.04682 27.7515 7.34107 27.6575 7.58524 27.4758C7.84819 27.2941 8.02975 27.0309 8.17374 26.7301L11.9302 17.4053H14.5346C15.3422 17.399 15.9996 16.7473 16.0059 15.9326V15.895C15.9996 15.0866 15.3422 14.4286 14.5346 14.4223H13.1447L16.0121 7.27208L23.8255 26.7238C23.9695 27.0246 24.151 27.2878 24.414 27.4695C24.6581 27.6513 24.9587 27.7453 25.2592 27.7515C25.7225 27.7515 26.0856 27.6137 26.3485 27.3317C26.6115 27.0497 26.7492 26.6862 26.7492 26.2225C26.7555 26.0345 26.7242 25.8402 26.649 25.6647Z" fill="#110F23"/>
</svg>
