<svg width="32" height="32" viewBox="0 0 32 32" fill="none" xmlns="http://www.w3.org/2000/svg">
<g clip-path="url(#clip0_113_29)">
<path d="M25.3606 11.2522C25.3606 9.40287 24.4673 7.76589 23.0943 6.76091L26.8 3L24.5847 3.01036L21.6396 5.9994C21.0934 5.81291 20.5115 5.71449 19.9041 5.71449H9.76697V20.2867L21.9713 7.90058C23.0688 8.59992 23.8038 9.84319 23.8038 11.2574C23.8038 13.4383 22.053 15.2152 19.9041 15.2152H19.5825L6 29H8.20506L10.8695 26.2959H19.9041C22.9156 26.2959 25.3606 23.8093 25.3606 20.7581C25.3606 18.743 24.2938 16.9817 22.7064 16.013C24.2938 15.0339 25.3606 13.2674 25.3606 11.2522ZM11.3238 16.4636V7.29448H19.9041C20.0521 7.29448 20.195 7.30484 20.338 7.32038L11.3238 16.4636ZM23.8038 20.7478C23.8038 22.9287 22.053 24.7055 19.9041 24.7055H12.4263L20.195 16.8211C22.2061 16.9765 23.8038 18.6705 23.8038 20.7478Z" fill="#110F23"/>
</g>
<defs>
<clipPath id="clip0_113_29">
<rect width="20.8" height="26" fill="white" transform="translate(6 3)"/>
</clipPath>
</defs>
</svg>
