<svg width="32" height="32" viewBox="0 0 32 32" fill="none" xmlns="http://www.w3.org/2000/svg">
<path fill-rule="evenodd" clip-rule="evenodd" d="M16.6619 5H6.07128V12.2372L3 12.2372V14.5972H6.07128V17.3767H3V19.9989H6.07128V27H16.6619C21.4542 26.7378 25.3992 22.9881 26.1405 19.9989H29V17.3767H26.8819V14.5972H29V12.2372L26.1405 12.2372C26.22 10.4542 21.7454 5.00005 16.6619 5ZM8.66598 12.2373V7.30765H17.0591C20.0244 7.30765 23.3075 10.9 23.3075 12.2373H8.66598ZM8.66598 24.6663V19.9464H23.334C23.334 21.2268 20.045 24.6663 17.0742 24.6663H8.66598ZM24.2872 14.5971H8.66599V17.3766H24.2872V14.5971Z" fill="#110F23"/>
</svg>
