<svg width="32" height="32" viewBox="0 0 32 32" fill="none" xmlns="http://www.w3.org/2000/svg">
<path d="M22.3275 16.1825L21.3275 19.4325L19.4825 14.13C19.226 13.3874 18.7442 12.7434 18.1043 12.2876C17.4643 11.8318 16.6981 11.5871 15.9125 11.5875C15.1269 11.5871 14.3607 11.8318 13.7207 12.2876C13.0808 12.7434 12.599 13.3874 12.3425 14.13L10.5925 19.1625L6.9425 7.4325H2.25L7.555 24.4325C7.65697 24.7619 7.86172 25.0501 8.13928 25.2548C8.41684 25.4595 8.75263 25.5699 9.0975 25.57H11.98C12.3154 25.5679 12.6418 25.4617 12.9141 25.266C13.1864 25.0702 13.3912 24.7947 13.5 24.4775L15.4825 18.7275C15.5131 18.6398 15.5702 18.5639 15.6459 18.5101C15.7216 18.4564 15.8122 18.4275 15.905 18.4275C15.9978 18.4275 16.0884 18.4564 16.1641 18.5101C16.2398 18.5639 16.2969 18.6398 16.3275 18.7275L18.31 24.4775C18.4197 24.7954 18.6258 25.0713 18.8995 25.2666C19.1733 25.462 19.5012 25.5672 19.8375 25.5675H22.9025C23.2474 25.5674 23.5832 25.457 23.8607 25.2523C24.1383 25.0476 24.343 24.7594 24.445 24.43L27.02 16.18L22.3275 16.1825Z" fill="#110F23"/>
<path d="M27.485 14.6925L29.75 7.4325H25.0575L22.7925 14.6925H27.485Z" fill="#110F23"/>
</svg>
