<svg width="32" height="32" viewBox="0 0 32 32" fill="none" xmlns="http://www.w3.org/2000/svg">
<path fill-rule="evenodd" clip-rule="evenodd" d="M3 16.0024C3 18.1542 3.5313 20.274 4.55138 22.1681C5.57147 24.0648 7.04582 25.6747 8.84425 26.8595C10.6427 28.0442 12.7068 28.7615 14.8506 28.9501C16.9943 29.1387 19.1514 28.7907 21.1278 27.938C20.5009 27.8742 19.8793 27.7759 19.263 27.6458C17.9453 27.3695 16.6702 26.9126 15.4801 26.2857C13.0946 25.0185 11.4157 23.1643 10.4435 20.7256H6.11339L7.42835 17.6043H9.67307C9.59604 16.996 9.55353 16.3823 9.55088 15.7687C9.55088 15.1763 9.57213 14.6423 9.61198 14.1721H6.11339L7.43632 11.072H10.2495C11.0943 8.51116 12.8608 6.3541 15.2065 5.0232C16.4683 4.28205 17.8391 3.74012 19.2656 3.41869C17.345 2.91927 15.3314 2.86614 13.3868 3.26196C11.4423 3.66043 9.61198 4.49988 8.042 5.71389C6.47202 6.9279 5.19956 8.48725 4.32558 10.2724C3.4516 12.0576 3 14.018 3 16.0024ZM23.6355 5.50137C19.6455 6.01407 15.6794 7.66906 14.2024 11.0693H26.2229L24.8788 14.1668H13.44C13.3789 14.7247 13.3523 15.2852 13.3576 15.8457C13.3523 16.4354 13.4054 17.0252 13.5223 17.6043H23.3114L21.9779 20.7256H14.7576C16.3966 23.4326 20.5779 25.1885 24.9558 25.3931C26.3265 24.0781 27.3944 22.4816 28.0798 20.7097C28.7678 18.9378 29.0574 17.0385 28.9325 15.1444C28.8077 13.2503 28.2684 11.4041 27.3546 9.74111C26.4408 8.0755 25.1736 6.63303 23.6408 5.50934V5.50137H23.6355Z" fill="#110F23"/>
</svg>
