<svg width="32" height="32" viewBox="0 0 32 32" fill="none" xmlns="http://www.w3.org/2000/svg">
<path d="M26.7993 12.7526L23.5537 15.9982L26.7993 19.2439L30.045 15.9982L26.7993 12.7526Z" fill="#110F23"/>
<path d="M5.20265 12.7544L1.95703 16L5.20265 19.2456L8.44827 16L5.20265 12.7544Z" fill="#110F23"/>
<path d="M16 23.555L10.62 18.175L7.375 21.42L16 30.045L24.625 21.42L21.38 18.175L16 23.555Z" fill="#110F23"/>
<path d="M16 8.445L21.38 13.825L24.625 10.58L16 1.955L7.375 10.58L10.62 13.825L16 8.445Z" fill="#110F23"/>
<path d="M15.9979 12.795L12.793 16L15.9979 19.205L19.2029 16L15.9979 12.795Z" fill="#110F23"/>
</svg>
