<svg width="32" height="32" viewBox="0 0 32 32" fill="none" xmlns="http://www.w3.org/2000/svg">
<path d="M23.0294 14.2421C22.5493 13.1152 21.4044 11.7905 19.8532 10.6763C18.3144 9.56183 16.7015 8.90568 15.4952 8.79421C14.8061 8.74454 14.2521 8.85602 13.9811 9.23983C13.7103 9.62391 13.7841 10.181 14.0549 10.8123C14.535 11.9389 15.6799 13.2515 17.231 14.366C18.7822 15.4802 20.3825 16.1488 21.6014 16.2478C22.2785 16.3099 22.8324 16.1982 23.1032 15.8146C23.3863 15.4305 23.3125 14.8734 23.0294 14.2421Z" fill="#110F23"/>
<path d="M28.6654 16.0151C28.5982 15.8191 28.521 15.6202 28.4338 15.4184C27.4244 13.0658 25.0483 10.2801 21.8105 7.93994C18.5608 5.61222 15.1877 4.23783 12.6393 4.0273C10.7926 3.87884 9.36463 4.33689 8.62582 5.37686L3.54185 12.5087C2.8033 13.5487 2.82773 15.0591 3.56628 16.7677C4.24153 18.3222 5.50248 20.0656 7.21806 21.7414C8.1486 22.6469 9.14585 23.4801 10.2017 24.234C13.4393 26.5738 16.8247 27.9358 19.3731 28.1587C21.2074 28.3072 22.6478 27.8492 23.3863 26.8092L28.4582 19.6773C29.1096 18.7602 29.1673 17.4772 28.6654 16.0151ZM27.7567 19.1575L27.7196 19.2193C27.1166 19.9993 25.9715 20.2592 24.5188 20.148C22.0939 19.9499 18.8807 18.6249 15.791 16.3963C12.7007 14.1676 10.4233 11.5306 9.45078 9.27708C8.87218 7.93994 8.749 6.76366 9.30291 5.93396L9.32786 5.88456C9.91854 5.05512 11.0881 4.78251 12.5655 4.9064C14.9907 5.10452 18.2036 6.42924 21.2936 8.6579C24.3956 10.8866 26.6733 13.5239 27.6458 15.7649C28.2244 17.1269 28.3476 18.3402 27.7567 19.1575Z" fill="#110F23"/>
</svg>
