<svg width="32" height="32" viewBox="0 0 32 32" fill="none" xmlns="http://www.w3.org/2000/svg">
<g clip-path="url(#clip0_4_1262)">
<path d="M23.3983 9.90117L21.5556 7.90667C21.0704 8.21027 20.7072 8.41848 20.1192 8.38546C19.6703 8.35886 19.241 8.23045 18.8347 8.04884V5.68471L22.2522 3H9.20936L12.6269 5.68471V8.04884C12.2206 8.23045 11.7913 8.35932 11.3424 8.38546C10.7544 8.41848 10.3912 8.21027 9.90598 7.90667L8.06329 9.90117L6 7.27608V20.319L8.68471 16.9014H9.90644C9.98257 18.1562 9.91653 19.4008 9.76794 20.6524C10.5077 21.0385 11.1713 21.4481 11.6932 22.1186C11.9968 22.5116 12.294 22.911 12.6278 23.2742V26.3153L9.21027 29H22.2532L18.8356 26.3153V23.2742C19.169 22.911 19.4662 22.5116 19.7702 22.1186C20.2921 21.4481 20.9557 21.039 21.6955 20.6524C21.5469 19.4008 21.4809 18.1562 21.5533 16.9014H22.7783L25.463 20.319V7.27608L23.3992 9.90117H23.3983ZM10.2068 3.33662H21.2552L18.4981 5.52236V7.8897C18.3761 7.82687 18.2568 7.76084 18.138 7.6948C18.1183 7.68471 18.0986 7.67507 18.0784 7.66178V5.31736L20.0697 3.75533H11.3923L13.3836 5.31736V7.66178C13.3639 7.67507 13.3442 7.68471 13.324 7.6948C13.2052 7.76084 13.0864 7.82687 12.964 7.8897V5.52236L10.2068 3.33662ZM16.7086 26.9161H14.754V24.5322C14.8925 24.5322 15.0378 24.5125 15.1768 24.4662L15.1901 26.5299H16.2733L16.2866 24.4662C16.4251 24.5125 16.5705 24.5322 16.7095 24.5322V26.9161H16.7086ZM15.9459 26.1961H15.5166L15.5065 24.3006C15.5923 24.2346 15.6716 24.1585 15.7313 24.0663C15.7909 24.1589 15.8698 24.2346 15.956 24.3006L15.9459 26.1961ZM16.2532 10.2671V9.98005H16.4779V10.2671H16.2532ZM19.2846 19.5228C18.9016 19.764 18.5682 20.0314 18.261 20.368C17.8546 20.8138 17.551 21.4279 17.0658 21.7815C16.2999 22.3327 15.164 22.3327 14.3976 21.7815C13.9124 21.4283 13.6083 20.8138 13.2025 20.368C12.8952 20.0314 12.5618 19.7636 12.1789 19.5228C12.2183 18.2153 12.1821 16.9142 12.0202 15.6164C11.8615 14.3419 11.5845 13.1036 11.1814 11.8851L11.723 11.2348C12.4559 11.3206 13.1562 11.2577 13.8629 11.05C14.2889 10.9211 14.5994 10.69 15.0782 10.7629C15.3125 10.7959 15.5341 10.9115 15.7322 11.0303C15.9335 10.9115 16.1513 10.7959 16.3862 10.7629C16.8649 10.6904 17.1754 10.9216 17.6015 11.05C18.3082 11.2582 19.008 11.3206 19.7413 11.2348L20.283 11.8851C19.8803 13.1036 19.6028 14.3419 19.4442 15.6164C19.2823 16.9142 19.246 18.2149 19.2855 19.5228H19.2846ZM15.7317 9.7457H15.5038V10.2676H15.2726V8.81793H15.745C15.9629 8.81793 16.105 8.96973 16.105 9.28342C16.105 9.54758 16.0225 9.7457 15.7317 9.7457ZM13.6877 9.2637L13.7638 9.58748L14.2064 9.48521L14.2623 9.73286L13.823 9.83513L13.9583 10.4263L13.7468 10.4758L13.4231 9.06237L14.1362 8.90048L14.1922 9.14813L13.6868 9.2637H13.6877ZM14.5233 9.98372L14.7315 9.94061L14.7874 10.2277L14.5792 10.2671L14.5233 9.98326V9.98372ZM17.911 9.30681L17.4056 9.19124L17.3295 9.51823L17.7721 9.61729L17.7161 9.86494L17.2768 9.76588L17.1415 10.357L16.9301 10.3107L17.247 8.89727L17.9633 9.05916L17.9106 9.30681H17.911ZM17.7725 10.4987L17.8354 10.2149L18.0436 10.2612L17.9775 10.5451L17.773 10.4987H17.7725ZM15.7317 7.68562C15.6854 7.55996 15.6061 7.44439 15.507 7.349L15.5171 5.80349H15.9463L15.9564 7.349C15.8574 7.44485 15.778 7.56042 15.7317 7.68562ZM15.1901 5.47008L15.1768 7.144C15.0479 7.10089 14.9025 7.09447 14.754 7.11098V5.08347H16.7086V7.11098C16.56 7.09447 16.4146 7.10089 16.2857 7.144L16.2724 5.47008H15.1892H15.1901ZM8.52282 16.568L6.33708 19.3219V8.27677L8.25545 10.6904C8.38111 10.9413 8.49989 11.1958 8.61224 11.4499H8.31828L6.75625 9.45861V18.1364L8.31828 16.1488H9.84728C9.8537 16.2181 9.86058 16.291 9.867 16.3635C9.87342 16.4295 9.8803 16.4987 9.88672 16.568H8.52282ZM8.45999 13.3155V14.402L9.57258 14.4121C9.60238 14.5542 9.63219 14.6959 9.65834 14.8381H8.07017V12.8798H9.16304C9.20936 13.022 9.25201 13.1669 9.29512 13.3091L8.45953 13.3155H8.45999ZM9.38776 13.6393C9.4272 13.7879 9.46388 13.9333 9.50011 14.0787L8.79019 14.0754V13.6462L9.38776 13.6398V13.6393ZM11.9569 21.914C11.4584 21.2701 10.8443 20.8344 10.1275 20.4611C10.4412 17.803 10.2793 15.1119 9.41114 12.5593C9.12039 11.7072 8.75396 10.8982 8.33158 10.1057L9.96285 8.33593C10.4187 8.62302 10.8182 8.74868 11.3598 8.72208C12.1293 8.67897 12.826 8.35565 13.4864 7.98922C13.9055 7.75487 14.7081 7.29259 15.1144 7.48062C15.5107 7.66544 15.623 8.26989 15.1176 8.32584C14.8599 8.35565 14.5462 8.13414 14.5003 7.88649C14.2394 8.00206 13.9917 8.16716 13.7308 8.32584C13.0342 8.75189 12.2087 9.09539 11.3832 9.14125C10.9108 9.16418 10.4586 9.09814 10.0427 8.87388L8.84063 10.1681C9.22357 10.9009 9.54414 11.654 9.8083 12.4267C10.6604 14.923 10.8681 17.6109 10.5778 20.2227C11.2415 20.5859 11.8262 21.0582 12.2885 21.659C12.6453 22.1181 12.9787 22.5937 13.4011 22.9963C13.7212 23.2967 14.2564 23.7329 14.7154 23.7755C14.9402 23.7984 15.0355 23.7196 15.1777 23.5641C15.3694 23.3527 15.6235 23.488 15.5244 23.7521C15.3988 24.0823 14.9993 24.2245 14.676 24.1915C14.1114 24.1387 13.5102 23.6765 13.114 23.2999C12.6714 22.8808 12.3279 22.3919 11.9583 21.9131L11.9569 21.914ZM21.2552 28.6634H10.2068L12.964 26.4776V23.6182C13.0071 23.6613 13.0566 23.7008 13.1025 23.7439C13.1057 23.7439 13.1057 23.7471 13.1089 23.7503C13.1089 23.7503 13.1121 23.7535 13.1153 23.7535C13.1218 23.7636 13.1319 23.77 13.1419 23.7764C13.1419 23.7796 13.1452 23.7796 13.1484 23.7828C13.1548 23.7893 13.1649 23.7961 13.1713 23.8026H13.1745C13.1745 23.8058 13.1777 23.809 13.1809 23.809C13.1809 23.8122 13.1841 23.8122 13.1873 23.8154C13.1938 23.8186 13.1974 23.8255 13.2039 23.8319C13.2103 23.8351 13.2172 23.842 13.2236 23.8452C13.23 23.8516 13.2369 23.8553 13.2401 23.8617C13.2465 23.8649 13.2534 23.8718 13.2598 23.875C13.2662 23.8814 13.2699 23.8851 13.2763 23.8883C13.2827 23.8947 13.2928 23.9016 13.2992 23.908C13.3025 23.908 13.3057 23.9113 13.3093 23.9145C13.3194 23.9209 13.3258 23.9278 13.3323 23.931C13.3387 23.9374 13.3456 23.9411 13.352 23.9475C13.3584 23.9507 13.3653 23.9576 13.3749 23.964C13.3749 23.964 13.3781 23.9672 13.3813 23.9672V26.6813L11.39 28.2433H20.0679L18.0766 26.6813V23.9672C18.0798 23.9672 18.083 23.964 18.0899 23.9608C18.092 23.9586 18.0942 23.9565 18.0963 23.9544C18.0995 23.9512 18.1027 23.9512 18.1064 23.9479C18.1128 23.9415 18.1229 23.9346 18.1293 23.9282H18.1325L18.139 23.9218C18.1422 23.9218 18.1422 23.9186 18.1454 23.9186C18.1518 23.9122 18.1587 23.9085 18.1651 23.9021C18.1683 23.8989 18.1715 23.8989 18.1715 23.8957C18.1747 23.8957 18.1779 23.8925 18.1779 23.8925C18.1844 23.886 18.1912 23.8792 18.1977 23.8759C18.2009 23.8727 18.2041 23.8727 18.2041 23.8695C18.2073 23.8695 18.2105 23.8663 18.2105 23.8663C18.2206 23.8562 18.2302 23.8498 18.2371 23.8434C18.2403 23.8402 18.2435 23.8402 18.2435 23.837C18.2467 23.837 18.2499 23.8338 18.2536 23.8338C18.2733 23.8172 18.2898 23.8007 18.3096 23.7842C18.3128 23.781 18.316 23.781 18.316 23.7778C18.3788 23.7251 18.438 23.6723 18.4944 23.6191V26.4786L21.2515 28.6643L21.2552 28.6634ZM21.3346 20.4611C20.6182 20.8344 20.0037 21.2701 19.5052 21.914C19.1355 22.3928 18.792 22.8817 18.3495 23.3008C17.9532 23.6774 17.3524 24.1396 16.7874 24.1924C16.4637 24.2254 16.061 24.0832 15.939 23.753C15.8399 23.4889 16.094 23.3536 16.2857 23.565C16.4279 23.72 16.5233 23.7994 16.748 23.7764C17.2071 23.7333 17.7418 23.2976 18.0624 22.9972C18.4852 22.5946 18.8186 22.119 19.175 21.6599C19.6372 21.0592 20.2215 20.5868 20.8856 20.2236C20.5948 17.6118 20.803 14.9239 21.6551 12.4277C21.9193 11.6549 22.2394 10.9023 22.6228 10.169L21.4208 8.8748C21.0048 9.09952 20.5522 9.16556 20.0803 9.14217C19.2548 9.09585 18.4293 8.75235 17.7326 8.32676C17.4717 8.16808 17.224 8.00298 16.9631 7.88741C16.9168 8.13506 16.6031 8.35611 16.3458 8.32676C15.8404 8.27081 15.9528 7.66636 16.349 7.48154C16.7553 7.29351 17.5574 7.75579 17.9771 7.99014C18.6375 8.35657 19.3341 8.68035 20.1036 8.723C20.6453 8.7496 21.0447 8.62394 21.5006 8.33685L23.1319 10.1066C22.7058 10.8991 22.3426 11.7081 22.0523 12.5602C21.1837 15.1128 21.0222 17.8039 21.3359 20.4621L21.3346 20.4611ZM23.0021 14.402V13.3155L22.1665 13.3091C22.2096 13.1669 22.2522 13.022 22.2986 12.8798H23.3914V14.8381H21.8033C21.8299 14.6959 21.8592 14.5542 21.889 14.4121L23.0016 14.402H23.0021ZM21.9619 14.0782C21.9982 13.9328 22.0344 13.7874 22.0743 13.6388L22.6719 13.6453V14.0745L21.9619 14.0777V14.0782ZM25.1254 19.3219L22.9397 16.568H21.5758C21.5822 16.4987 21.5891 16.4295 21.5955 16.3635C21.6019 16.291 21.6088 16.2181 21.6152 16.1488H23.1442L24.7063 18.1364V9.45861L23.1442 11.4499H22.8503C22.9626 11.1958 23.0814 10.9413 23.2071 10.6936L25.1254 8.27677V19.3219Z" fill="#110F23"/>
<path d="M19.5979 11.5884C18.8944 11.6577 18.1813 11.5719 17.5044 11.3706C17.1444 11.2651 16.8275 11.0339 16.4344 11.0931C16.1767 11.1326 15.9455 11.2912 15.7309 11.4233C15.5163 11.2912 15.2851 11.1326 15.0274 11.0931C14.6344 11.0335 14.3175 11.2646 13.9575 11.3706C13.2806 11.5719 12.5674 11.6577 11.8639 11.5884L11.5566 11.958C11.9428 13.1403 12.2005 14.3456 12.3523 15.5769C12.5073 16.8051 12.5537 18.0599 12.5206 19.3412C12.8871 19.5857 13.181 19.8498 13.4484 20.1438C13.8313 20.5666 14.1354 21.1775 14.594 21.5077C15.2379 21.9764 16.2221 21.9764 16.866 21.5077C17.325 21.1775 17.6286 20.5666 18.0116 20.1438C18.279 19.8498 18.5729 19.5857 18.9394 19.3412C18.9063 18.0599 18.9527 16.8051 19.1077 15.5769C19.2595 14.3451 19.5172 13.1399 19.9034 11.958L19.5961 11.5884H19.5979ZM18.7756 15.5375C18.6238 16.7395 18.5743 17.9544 18.6004 19.1697C18.2968 19.3875 18.0162 19.6384 17.7649 19.9159C17.3915 20.3286 17.121 20.9129 16.672 21.2367C16.1437 21.6196 15.3182 21.6196 14.7898 21.2367C14.3409 20.9129 14.0698 20.3286 13.697 19.9159C13.4461 19.6384 13.1654 19.3875 12.8614 19.1697C12.888 17.9544 12.8385 16.7395 12.6862 15.5375C12.5376 14.3488 12.2932 13.1734 11.9332 12.031L12.0125 11.9351C12.6995 11.9814 13.3929 11.8856 14.0533 11.6907C14.3372 11.6081 14.6871 11.3802 14.9779 11.4265C15.2485 11.466 15.5163 11.6843 15.7309 11.8163C15.9455 11.6843 16.2129 11.4664 16.484 11.4265C16.7747 11.3802 17.1246 11.6081 17.4085 11.6907C18.0689 11.8856 18.7623 11.9814 19.4493 11.9351L19.5287 12.031C19.1687 13.1734 18.9242 14.3488 18.7756 15.5375Z" fill="#110F23"/>
<path d="M15.7143 9.06927H15.5029V9.50174H15.7143C15.8166 9.50174 15.8794 9.42928 15.8794 9.2839C15.8794 9.16512 15.84 9.06927 15.7143 9.06927Z" fill="#110F23"/>
<path d="M14.9678 17.205C14.9678 17.5219 15.3113 17.7829 15.7304 17.7829C16.1496 17.7829 16.4931 17.5219 16.4931 17.205V15.3692H14.9678V17.205ZM16.1698 15.6201C16.2491 15.6201 16.312 15.6861 16.312 15.7654C16.312 15.8448 16.2491 15.9076 16.1698 15.9076C16.0905 15.9076 16.0244 15.8448 16.0244 15.7654C16.0244 15.6861 16.0905 15.6201 16.1698 15.6201ZM16.1698 17.0399C16.2491 17.0399 16.312 17.106 16.312 17.1853C16.312 17.2646 16.2491 17.3275 16.1698 17.3275C16.0905 17.3275 16.0244 17.2646 16.0244 17.1853C16.0244 17.106 16.0905 17.0399 16.1698 17.0399ZM15.7304 16.3332C15.8098 16.3332 15.8726 16.396 15.8726 16.4754C15.8726 16.5547 15.8098 16.6207 15.7304 16.6207C15.6511 16.6207 15.5883 16.5547 15.5883 16.4754C15.5883 16.396 15.6543 16.3332 15.7304 16.3332ZM15.2948 15.6201C15.3709 15.6201 15.4369 15.6861 15.4369 15.7654C15.4369 15.8448 15.3709 15.9076 15.2948 15.9076C15.2186 15.9076 15.1494 15.8448 15.1494 15.7654C15.1494 15.6861 15.2154 15.6201 15.2948 15.6201ZM15.2948 17.0399C15.3709 17.0399 15.4369 17.106 15.4369 17.1853C15.4369 17.2646 15.3709 17.3275 15.2948 17.3275C15.2186 17.3275 15.1494 17.2646 15.1494 17.1853C15.1494 17.106 15.2154 17.0399 15.2948 17.0399Z" fill="#110F23"/>
<path d="M14.9678 20.164C14.9678 20.4809 15.3113 20.7386 15.7304 20.7386C16.1496 20.7386 16.4931 20.4809 16.4931 20.164V18.325H14.9678V20.164ZM16.1698 18.5758C16.2491 18.5758 16.312 18.6386 16.312 18.718C16.312 18.7973 16.2491 18.8634 16.1698 18.8634C16.0905 18.8634 16.0244 18.7973 16.0244 18.718C16.0244 18.6386 16.0905 18.5758 16.1698 18.5758ZM16.1698 19.9989C16.2491 19.9989 16.312 20.0649 16.312 20.1443C16.312 20.2236 16.2491 20.2864 16.1698 20.2864C16.0905 20.2864 16.0244 20.2236 16.0244 20.1443C16.0244 20.0649 16.0905 19.9989 16.1698 19.9989ZM15.7304 19.2922C15.8098 19.2922 15.8726 19.355 15.8726 19.4343C15.8726 19.5137 15.8098 19.5797 15.7304 19.5797C15.6511 19.5797 15.5883 19.5137 15.5883 19.4343C15.5883 19.355 15.6543 19.2922 15.7304 19.2922ZM15.2948 18.5758C15.3709 18.5758 15.4369 18.6386 15.4369 18.718C15.4369 18.7973 15.3709 18.8634 15.2948 18.8634C15.2186 18.8634 15.1494 18.7973 15.1494 18.718C15.1494 18.6386 15.2154 18.5758 15.2948 18.5758ZM15.2948 19.9989C15.3709 19.9989 15.4369 20.0649 15.4369 20.1443C15.4369 20.2236 15.3709 20.2864 15.2948 20.2864C15.2186 20.2864 15.1494 20.2236 15.1494 20.1443C15.1494 20.0649 15.2154 19.9989 15.2948 19.9989Z" fill="#110F23"/>
<path d="M13.1294 17.205C13.1294 17.5219 13.4729 17.7829 13.8952 17.7829C14.3176 17.7829 14.6611 17.5219 14.6611 17.205V15.3692H13.1289V17.205H13.1294ZM14.3282 15.6201C14.4075 15.6201 14.4736 15.6861 14.4736 15.7654C14.4736 15.8448 14.4075 15.9076 14.3282 15.9076C14.2488 15.9076 14.1828 15.8448 14.1828 15.7654C14.1828 15.6861 14.2488 15.6201 14.3282 15.6201ZM14.3282 17.0399C14.4075 17.0399 14.4736 17.106 14.4736 17.1853C14.4736 17.2646 14.4075 17.3275 14.3282 17.3275C14.2488 17.3275 14.1828 17.2646 14.1828 17.1853C14.1828 17.106 14.2488 17.0399 14.3282 17.0399ZM13.8888 16.3332C13.9682 16.3332 14.0342 16.396 14.0342 16.4754C14.0342 16.5547 13.9682 16.6207 13.8888 16.6207C13.8095 16.6207 13.7434 16.5547 13.7434 16.4754C13.7434 16.396 13.8095 16.3332 13.8888 16.3332ZM13.4495 15.6201C13.5288 15.6201 13.5949 15.6861 13.5949 15.7654C13.5949 15.8448 13.5288 15.9076 13.4495 15.9076C13.3701 15.9076 13.3041 15.8448 13.3041 15.7654C13.3041 15.6861 13.3701 15.6201 13.4495 15.6201ZM13.4495 17.0399C13.5288 17.0399 13.5949 17.106 13.5949 17.1853C13.5949 17.2646 13.5288 17.3275 13.4495 17.3275C13.3701 17.3275 13.3041 17.2646 13.3041 17.1853C13.3041 17.106 13.3701 17.0399 13.4495 17.0399Z" fill="#110F23"/>
<path d="M16.8003 17.205C16.8003 17.5219 17.1438 17.7829 17.5661 17.7829C17.9885 17.7829 18.332 17.5219 18.332 17.205V15.3692H16.7998V17.205H16.8003ZM18.0119 15.6201C18.0913 15.6201 18.1573 15.6861 18.1573 15.7654C18.1573 15.8448 18.0913 15.9076 18.0119 15.9076C17.9326 15.9076 17.8665 15.8448 17.8665 15.7654C17.8665 15.6861 17.9326 15.6201 18.0119 15.6201ZM18.0119 17.0399C18.0913 17.0399 18.1573 17.106 18.1573 17.1853C18.1573 17.2646 18.0913 17.3275 18.0119 17.3275C17.9326 17.3275 17.8665 17.2646 17.8665 17.1853C17.8665 17.106 17.9326 17.0399 18.0119 17.0399ZM17.5726 16.3332C17.6519 16.3332 17.7179 16.396 17.7179 16.4754C17.7179 16.5547 17.6519 16.6207 17.5726 16.6207C17.4932 16.6207 17.4272 16.5547 17.4272 16.4754C17.4272 16.396 17.4932 16.3332 17.5726 16.3332ZM17.1332 15.6201C17.2126 15.6201 17.2786 15.6861 17.2786 15.7654C17.2786 15.8448 17.2126 15.9076 17.1332 15.9076C17.0539 15.9076 16.9878 15.8448 16.9878 15.7654C16.9878 15.6861 17.0539 15.6201 17.1332 15.6201ZM17.1332 17.0399C17.2126 17.0399 17.2786 17.106 17.2786 17.1853C17.2786 17.2646 17.2126 17.3275 17.1332 17.3275C17.0539 17.3275 16.9878 17.2646 16.9878 17.1853C16.9878 17.106 17.0539 17.0399 17.1332 17.0399Z" fill="#110F23"/>
<path d="M14.9678 14.2497C14.9678 14.5698 15.3113 14.8276 15.7304 14.8276C16.1496 14.8276 16.4931 14.5698 16.4931 14.2497V12.4107H14.9678V14.2497ZM16.1698 12.6616C16.2491 12.6616 16.312 12.7276 16.312 12.8069C16.312 12.8863 16.2491 12.9491 16.1698 12.9491C16.0905 12.9491 16.0244 12.8863 16.0244 12.8069C16.0244 12.7276 16.0905 12.6616 16.1698 12.6616ZM16.1698 14.0846C16.2491 14.0846 16.312 14.1507 16.312 14.23C16.312 14.3094 16.2491 14.3722 16.1698 14.3722C16.0905 14.3722 16.0244 14.3094 16.0244 14.23C16.0244 14.1507 16.0905 14.0846 16.1698 14.0846ZM15.7304 13.3779C15.8098 13.3779 15.8726 13.444 15.8726 13.5233C15.8726 13.6026 15.8098 13.6655 15.7304 13.6655C15.6511 13.6655 15.5883 13.6026 15.5883 13.5233C15.5883 13.444 15.6543 13.3779 15.7304 13.3779ZM15.2948 12.6616C15.3709 12.6616 15.4369 12.7276 15.4369 12.8069C15.4369 12.8863 15.3709 12.9491 15.2948 12.9491C15.2186 12.9491 15.1494 12.8863 15.1494 12.8069C15.1494 12.7276 15.2154 12.6616 15.2948 12.6616ZM15.2948 14.0846C15.3709 14.0846 15.4369 14.1507 15.4369 14.23C15.4369 14.3094 15.3709 14.3722 15.2948 14.3722C15.2186 14.3722 15.1494 14.3094 15.1494 14.23C15.1494 14.1507 15.2154 14.0846 15.2948 14.0846Z" fill="#110F23"/>
</g>
<defs>
<clipPath id="clip0_4_1262">
<rect width="19.4621" height="26" fill="white" transform="translate(6 3)"/>
</clipPath>
</defs>
</svg>
