<svg width="32" height="32" viewBox="0 0 32 32" fill="none" xmlns="http://www.w3.org/2000/svg">
<g clip-path="url(#clip0_14369_666)">
<mask id="mask0_14369_666" style="mask-type:luminance" maskUnits="userSpaceOnUse" x="2" y="2" width="27" height="27">
<path d="M2.53406 2.58716H28.4429V28.496H2.53406V2.58716Z" fill="white"/>
</mask>
<g mask="url(#mask0_14369_666)">
<path fill-rule="evenodd" clip-rule="evenodd" d="M15.4398 28.3998C22.5688 28.3998 28.3482 22.6205 28.3482 15.4914C28.3482 8.36234 22.5688 2.58301 15.4398 2.58301C8.31071 2.58301 2.53137 8.36234 2.53137 15.4914C2.53137 22.6205 8.31071 28.3998 15.4398 28.3998ZM19.7698 10.9364L22.491 13.7152L18.9657 17.3148L15.4404 13.7152L11.9142 17.3148L8.38892 13.7152L15.4404 6.51538L17.6268 8.74803C18.4485 8.37401 19.0412 7.60374 19.1526 6.68445L19.265 5.75512C19.2784 5.64445 19.4424 5.64445 19.4559 5.75512L19.5684 6.68445C19.7136 7.88445 20.6791 8.83045 21.9035 8.97272L22.8516 9.08299C22.9647 9.09619 22.9647 9.25685 22.8516 9.27005L21.9035 9.38032C20.9419 9.49215 20.1401 10.0996 19.7698 10.9364ZM9.65663 23.6646L9.65757 23.6651C9.9193 23.796 10.2296 23.8603 10.5868 23.8603C10.9437 23.8603 11.2521 23.796 11.5101 23.665L11.5104 23.6648C11.7721 23.5298 11.9717 23.339 12.1077 23.0927C12.2473 22.8428 12.3161 22.5502 12.3161 22.2166V19.386H11.402V22.241C11.402 22.4912 11.33 22.6824 11.1913 22.8211L11.1908 22.8216C11.057 22.9591 10.8588 23.0319 10.5868 23.0319C10.315 23.0319 10.1142 22.9592 9.97623 22.8214C9.84157 22.6827 9.77143 22.4915 9.77143 22.241V19.386H8.8573V22.2166C8.8573 22.55 8.92397 22.8424 9.05943 23.0923L9.05997 23.0932C9.19983 23.339 9.39917 23.5295 9.65663 23.6646ZM13.7025 22.102H13.6492V22.3266C13.6492 22.645 13.7225 22.9206 13.8718 23.1508C14.0204 23.38 14.2261 23.5556 14.4874 23.6779C14.7485 23.8 15.048 23.8603 15.3848 23.8603C15.7208 23.8603 16.0142 23.8043 16.2633 23.6903L16.2637 23.6902C16.5158 23.5724 16.7116 23.4115 16.8482 23.2066C16.9892 22.9972 17.0592 22.7563 17.0592 22.4856C17.0592 22.2159 16.9937 21.9898 16.8586 21.8112C16.726 21.6356 16.5408 21.4959 16.3058 21.391C16.0773 21.2871 15.8085 21.2026 15.5 21.1367L15.3593 21.1062C15.19 21.07 15.0532 21.028 14.9476 20.9811C14.8436 20.9348 14.7681 20.8787 14.7178 20.8143C14.6728 20.7515 14.6489 20.6735 14.6489 20.5771C14.6489 20.4327 14.6998 20.3244 14.7998 20.2459L14.8 20.2458C14.9046 20.1628 15.0717 20.1166 15.3113 20.1166C15.4693 20.1166 15.6028 20.1403 15.713 20.1859L15.7144 20.1866C15.8224 20.2275 15.9022 20.2934 15.9568 20.3843L15.9574 20.3854L15.9582 20.3864C16.0157 20.4728 16.047 20.5919 16.047 20.7484V20.9852H16.949V20.7484C16.949 20.4307 16.878 20.1628 16.7321 19.9482C16.5916 19.7311 16.3957 19.5696 16.1462 19.4638C15.9018 19.3543 15.6232 19.3003 15.3113 19.3003C14.9997 19.3003 14.7249 19.3523 14.4884 19.4578C14.2557 19.5594 14.0721 19.7083 13.9397 19.905L13.9396 19.9052C13.8102 20.099 13.747 20.332 13.747 20.6016C13.747 20.8698 13.8036 21.0932 13.9213 21.2676L13.9218 21.2683C14.042 21.44 14.2106 21.578 14.4253 21.6832L14.4265 21.6838C14.6428 21.7836 14.8994 21.8663 15.1958 21.9322L15.3365 21.9627C15.5184 22.0031 15.6705 22.0474 15.7937 22.095L15.7946 22.0954L15.7956 22.0956C15.9208 22.1387 16.0094 22.1938 16.0666 22.258L16.0677 22.2592C16.1261 22.3211 16.1572 22.403 16.1572 22.5102C16.1572 22.6646 16.0958 22.79 15.9694 22.8904L15.9688 22.891C15.848 22.9898 15.6566 23.044 15.3848 23.044C15.1196 23.044 14.9166 22.9828 14.7698 22.8663C14.6264 22.7483 14.5512 22.5718 14.5512 22.3266V22.102H13.7025ZM18.3921 23.7214V23.7747H20.2072C20.7906 23.7747 21.2425 23.6278 21.5534 23.3252C21.8689 23.0184 22.0222 22.5682 22.0222 21.9842V21.1767C22.0222 20.5928 21.8689 20.1444 21.5534 19.8415C21.2425 19.5351 20.7906 19.386 20.2072 19.386H18.3921V20.2023H18.9549V22.9584H18.3921V23.7214ZM20.895 20.4656L20.8956 20.466C21.0346 20.6202 21.1081 20.8462 21.1081 21.1522V22.0086C21.1081 22.3102 21.0348 22.5366 20.895 22.6951C20.7581 22.8507 20.537 22.934 20.2194 22.934H19.869V20.2267H20.2194C20.537 20.2267 20.7581 20.31 20.895 20.4656Z" fill="#110F23"/>
<path d="M19.3568 12.5861L19.3602 12.5865L19.3565 12.5869M19.3568 12.5861L19.3566 12.586L19.3566 12.586C19.3566 12.5865 19.3565 12.5868 19.3565 12.5869M19.3568 12.5861C19.3565 12.5867 19.3564 12.587 19.3565 12.5869M19.3568 12.5861L19.3605 12.5865L19.265 12.5981L19.3565 12.5869M19.2518 11.6567L19.2518 11.6567C19.1008 10.4095 18.098 9.42858 16.829 9.28099L16.829 9.28099L15.9306 9.17652L16.829 9.07205L16.829 9.07205C18.098 8.92446 19.1008 7.94352 19.2518 6.69648L19.2518 6.69646L19.3604 5.79861L19.4691 6.69646C19.4691 6.69647 19.4691 6.69647 19.4691 6.69647C19.6201 7.94365 20.623 8.9246 21.8919 9.07205C21.8919 9.07205 21.8919 9.07205 21.8919 9.07205L22.7902 9.17652L21.8919 9.28099C20.623 9.42857 19.6201 10.4095 19.4691 11.6567C19.4691 11.6567 19.4691 11.6567 19.4691 11.6567L19.3604 12.5546L19.2518 11.6567ZM19.364 12.5861C19.3643 12.5865 19.3644 12.5868 19.3644 12.5869L19.3607 12.5865L19.364 12.5861ZM19.364 12.586L19.3604 12.5864L19.3569 12.586C19.3569 12.5859 19.357 12.5857 19.3571 12.5856C19.3579 12.5841 19.3591 12.5828 19.3602 12.5819C19.3603 12.5818 19.3604 12.5818 19.3604 12.5817C19.3605 12.5818 19.3606 12.5818 19.3606 12.5819C19.3618 12.5828 19.3629 12.5841 19.3638 12.5856C19.3639 12.5857 19.3639 12.5859 19.364 12.586Z" stroke="#110F23" stroke-width="0.2"/>
</g>
</g>
<defs>
<clipPath id="clip0_14369_666">
<rect width="26" height="26" fill="white" transform="translate(2.5 2.5)"/>
</clipPath>
</defs>
</svg>
