<svg width="32" height="32" viewBox="0 0 32 32" fill="none" xmlns="http://www.w3.org/2000/svg">
<path d="M19.2602 18.4324C21.3662 18.3357 23.1819 18.6614 24.688 19.4064C25.017 18.3583 25.1976 17.2424 25.1976 16.0878C25.1944 9.97306 20.2213 5 14.1066 5C12.0812 5 10.1817 5.54826 8.54654 6.49966C8.11438 11.276 8.7723 14.514 10.5525 16.3813C12.6198 18.5518 15.99 18.584 19.2602 18.4292V18.4324Z" fill="#110F23"/>
<path d="M24.4591 20.0127C23.0401 19.2967 21.3114 18.9839 19.2925 19.0774C15.8707 19.2387 12.3425 19.1968 10.0882 16.8296C8.23377 14.8848 7.5049 11.6436 7.86611 6.9318C7.86611 6.92535 7.86611 6.92213 7.86611 6.91567C7.75001 6.9963 7.64358 7.0866 7.5307 7.17046C7.48555 7.20593 7.43718 7.24141 7.39203 7.27688C7.28237 7.36074 7.1695 7.44781 7.06307 7.53489C6.88892 7.68002 6.72444 7.82837 6.55996 7.97672C6.49546 8.038 6.43095 8.09928 6.36645 8.16378C6.22777 8.29923 6.09232 8.43791 5.96009 8.57981C5.84722 8.70237 5.73756 8.82814 5.62791 8.95715C5.58921 9.0023 5.55051 9.04745 5.51181 9.09582C5.40538 9.22805 5.30218 9.36028 5.2022 9.49573C3.14783 12.2274 2.45121 15.7234 3.45099 19.1935C4.84744 24.0408 9.00456 27.1756 14.0454 27.1756H14.1034C18.6669 26.995 22.6789 24.2085 24.4559 20.0127H24.4591Z" fill="#110F23"/>
<path d="M25.0622 20.2804C25.0622 20.2804 25.059 20.2772 25.0557 20.2772C25.0461 20.2965 25.0364 20.3159 25.0299 20.3352C23.6206 23.6119 20.9115 26.063 17.6348 27.1756C17.6219 27.1788 17.609 27.1853 17.5994 27.1885H29C28.9129 26.0533 28.3776 22.209 25.0654 20.2804H25.0622Z" fill="#110F23"/>
</svg>
