<svg width="32" height="32" viewBox="0 0 32 32" fill="none" xmlns="http://www.w3.org/2000/svg">
<path d="M19.939 19.0001H18.754C18.5346 19.0001 18.3481 18.8245 18.3481 18.5941V15.4781L16.2744 16.7728C16.0988 16.8825 15.8794 16.8825 15.7039 16.7728L13.6412 15.4781V18.5941C13.6412 18.8135 13.4656 19.0001 13.2352 19.0001H12.0612C11.8418 19.0001 11.6553 18.8245 11.6553 18.5941V12.5816C11.6553 12.2853 11.8967 12.0439 12.1929 12.0439C12.3026 12.0439 12.4014 12.0769 12.4891 12.1427L15.7587 14.3919C15.8904 14.4907 16.0769 14.4907 16.2086 14.3919L19.4782 12.1427C19.7195 11.9781 20.0597 12.0439 20.2242 12.2853C20.2901 12.3731 20.312 12.4828 20.323 12.5816V18.5941C20.334 18.8135 20.1584 19.0001 19.939 19.0001Z" fill="#110F23"/>
<path d="M9.88871 18.989H2.53762C2.24138 18.989 2 18.7476 2 18.4514V12.406C2.01097 12.1755 2.18652 12 2.41693 12H3.60188C3.82132 12 4.00784 12.1755 4.00784 12.406V17.0031H8.46238V12.406C8.46238 12.1865 8.63793 12 8.86834 12H10.0204C10.2398 12 10.4263 12.1755 10.4263 12.406V18.4514C10.4263 18.7476 10.185 18.989 9.88871 18.989Z" fill="#110F23"/>
<path d="M22.1109 12H29.462C29.7582 12 29.9996 12.2414 29.9996 12.5376V18.5831C29.9996 18.8025 29.824 18.989 29.6046 18.989H28.4196C28.2002 18.989 28.0137 18.8135 28.0137 18.5831V14.2492C28.0137 14.1066 27.893 13.9859 27.7504 13.9859H23.8334C23.6908 13.9859 23.5701 14.1066 23.5701 14.2492V18.5831C23.5701 18.8025 23.3946 18.989 23.1642 18.989H21.9792C21.7598 18.989 21.5732 18.8135 21.5732 18.5831V12.5376C21.5732 12.2414 21.8146 12 22.1109 12Z" fill="#110F23"/>
<path d="M25.194 15.2587H26.368C26.5875 15.2587 26.774 15.4342 26.774 15.6646V16.8605C26.774 17.08 26.5984 17.2665 26.368 17.2665H25.194C24.9746 17.2665 24.7881 17.091 24.7881 16.8605V15.6537C24.7881 15.4342 24.9746 15.2587 25.194 15.2587Z" fill="#110F23"/>
</svg>
