<svg width="32" height="32" viewBox="0 0 32 32" fill="none" xmlns="http://www.w3.org/2000/svg">
<path d="M18.8895 15.6601C18.7885 15.4892 18.6507 15.3551 18.4762 15.2577C18.3017 15.1604 18.1062 15.1115 17.8892 15.1115H14.7862C14.3544 15.1115 14.0045 15.4613 14.0045 15.8932V23.0146H15.1345V20.1423C15.1345 20.137 15.1353 20.1318 15.1353 20.1265V20.1156C15.1353 19.9443 15.2674 19.794 15.4387 19.7896C15.6144 19.7852 15.7586 19.9262 15.7586 20.1011V20.131C15.7586 20.4752 16.0378 20.7539 16.3816 20.7539H17.8892C17.9292 20.7543 17.9684 20.7523 18.0072 20.7487H18.3651C18.738 20.7487 19.0402 20.4465 19.0402 20.0736C19.0402 20.0692 19.0406 20.0651 19.0406 20.0607V19.1602C19.0406 19.1602 19.0406 19.1574 19.0406 19.1558V16.2402C19.0406 16.0233 18.9905 15.8298 18.8895 15.6589V15.6601ZM17.911 19.3994C17.911 19.4644 17.8872 19.5197 17.8391 19.565C17.7967 19.605 17.7385 19.6256 17.6804 19.6256H15.3651C15.315 19.6256 15.2427 19.5993 15.2064 19.565C15.1583 19.5197 15.1345 19.4648 15.1345 19.3994V16.4725C15.1345 16.4224 15.1607 16.3497 15.1951 16.3133C15.2403 16.2652 15.2952 16.2414 15.3603 16.2414H17.68C17.7301 16.2414 17.8028 16.2677 17.8391 16.302C17.8872 16.3473 17.911 16.4022 17.911 16.4676V19.3998V19.3994Z" fill="#110F23"/>
<path d="M27.0657 19.565C27.0177 19.5197 26.9938 19.4648 26.9938 19.3994V16.4672C26.9938 16.4022 27.0177 16.3469 27.0657 16.3016C27.1021 16.2673 27.1748 16.241 27.2249 16.241H29V15.1111H28.2437C27.8971 15.1111 27.616 15.3922 27.616 15.7389V15.7498C27.616 15.9211 27.4838 16.0713 27.3126 16.0758C27.1368 16.0802 26.9926 15.9392 26.9926 15.7643V15.7344C26.9926 15.3902 26.7134 15.1115 26.3697 15.1115H25.0131V16.2414H25.6324C25.6825 16.2414 25.7552 16.2677 25.7916 16.302C25.8396 16.3473 25.8635 16.4022 25.8635 16.4676V19.3949C25.8635 19.445 25.8372 19.5173 25.8029 19.5541C25.7576 19.6022 25.7027 19.626 25.6372 19.626H25.4223C25.0862 19.6381 24.8176 19.9136 24.8176 20.2526V20.2635C24.8176 20.4348 24.6855 20.585 24.5142 20.5895C24.3384 20.5939 24.1942 20.4529 24.1942 20.278V20.2481C24.1942 19.9116 23.9276 19.6385 23.5939 19.6264H20.8642C20.8052 19.6264 20.7531 19.6042 20.707 19.5601C20.661 19.5161 20.6383 19.4628 20.6383 19.4002V18.7223C20.6383 18.6637 20.6614 18.6112 20.707 18.5651C20.7531 18.5191 20.8052 18.4965 20.8642 18.4965H24.5299V16.2644C24.5299 16.0439 24.481 15.8467 24.3841 15.6722C24.2867 15.4977 24.1506 15.3607 23.9761 15.2613C23.8015 15.1624 23.602 15.1127 23.3782 15.1127H20.6606C20.4436 15.1127 20.2481 15.1624 20.0736 15.2613C19.899 15.3607 19.7613 15.4977 19.6603 15.6722C19.5593 15.8467 19.5088 16.0443 19.5088 16.2644V19.1444C19.5088 19.1444 19.5088 19.1481 19.5088 19.1501V20.0607C19.5088 20.0607 19.5088 20.0615 19.5088 20.0619V20.0752C19.5088 20.4481 19.811 20.7503 20.1839 20.7503H20.5442C20.5822 20.7535 20.621 20.7559 20.6602 20.7559H27.902V19.626H27.2237C27.1651 19.626 27.1073 19.6054 27.0649 19.5654L27.0657 19.565ZM20.6387 16.4672C20.6387 16.4046 20.6618 16.3517 20.7074 16.3073C20.7535 16.2632 20.8056 16.241 20.8646 16.241H23.1746C23.2408 16.241 23.2949 16.2632 23.337 16.3073C23.379 16.3513 23.4004 16.4046 23.4004 16.4672V17.1451C23.4004 17.2077 23.3794 17.2607 23.337 17.3051C23.2945 17.3491 23.2404 17.3714 23.1746 17.3714H20.8646C20.8056 17.3714 20.7535 17.3483 20.7074 17.3023C20.6614 17.2562 20.6387 17.2041 20.6387 17.1451V16.4672Z" fill="#110F23"/>
<path d="M15.3659 10.1299H19.0394V9H18.9873C18.6406 9 18.3595 9.28117 18.3595 9.62779V9.6387C18.3595 9.80999 18.2274 9.96027 18.0561 9.96471C17.8803 9.96916 17.7361 9.82817 17.7361 9.65324V9.62335C17.7361 9.27915 17.457 9.0004 17.1132 9.0004H15.1619C14.9418 9 14.7442 9.04969 14.5697 9.14867C14.3952 9.24805 14.2582 9.385 14.1592 9.55911C14.0599 9.73363 14.0106 9.93118 14.0106 10.1518V11.2377C14.0106 11.4546 14.0603 11.6501 14.1592 11.8247C14.2586 11.9992 14.3952 12.1361 14.5697 12.2351C14.7442 12.3345 14.9418 12.3838 15.1623 12.3838H17.6707C17.7398 12.3838 17.8084 12.4096 17.8545 12.4613C17.8912 12.5029 17.9098 12.5526 17.9098 12.6096V13.2746C17.9098 13.3436 17.884 13.4123 17.8323 13.4584C17.7907 13.4951 17.741 13.5137 17.684 13.5137H15.6047C15.2581 13.5137 14.9769 13.7949 14.9769 14.1415V14.1524C14.9769 14.3237 14.8448 14.474 14.6735 14.4784C14.5022 14.4829 14.3536 14.3419 14.3536 14.167V14.1371C14.3536 13.7929 14.0744 13.5141 13.7306 13.5141H13.7452H13.7444V13.5133C13.6567 13.506 13.588 13.4523 13.5395 13.3513V10.1518C13.5395 9.93118 13.4898 9.73404 13.3909 9.55911C13.2915 9.38459 13.1549 9.24764 12.9804 9.14867C12.8047 9.04969 12.6071 9 12.387 9H8.49983V10.1299H12.17C12.2391 10.1299 12.3078 10.1558 12.3538 10.2075C12.3906 10.2491 12.4092 10.2988 12.4092 10.3558V11.0207C12.4092 11.0898 12.3833 11.1585 12.3316 11.2045C12.29 11.2413 12.2403 11.2599 12.1834 11.2599H9.652C9.43142 11.2599 9.23387 11.3096 9.05935 11.4086C8.88483 11.5079 8.74788 11.6449 8.6489 11.819C8.54952 11.9935 8.50024 12.189 8.50024 12.406V13.4919C8.50024 13.7125 8.54993 13.91 8.6489 14.0845C8.74828 14.2591 8.88483 14.396 9.05935 14.495C9.23387 14.5944 9.43142 14.6437 9.652 14.6437H11.1645C11.5111 14.6437 11.7923 14.3625 11.7923 14.0159V14.005C11.7923 13.8337 11.9244 13.6834 12.0957 13.6789C12.2714 13.6745 12.4156 13.8155 12.4156 13.9904V14.0203C12.4156 14.3645 12.6948 14.6433 13.0386 14.6433H17.8884C18.109 14.6433 18.3061 14.5936 18.4811 14.4946C18.6556 14.3952 18.7925 14.2587 18.8915 14.0841C18.9909 13.9096 19.0402 13.7121 19.0402 13.4915V12.4056C19.0402 12.189 18.9905 11.9931 18.8915 11.8186C18.7921 11.6441 18.6552 11.5071 18.4811 11.4081C18.3065 11.3088 18.109 11.2595 17.8884 11.2595H15.3797C15.3102 11.2595 15.2415 11.2336 15.1959 11.1815C15.1591 11.1399 15.1409 11.0906 15.1409 11.0333V10.3687C15.1409 10.2992 15.1668 10.2305 15.2189 10.1849C15.2605 10.1481 15.3098 10.1295 15.3672 10.1295L15.3659 10.1299ZM12.4088 13.2879C12.4088 13.3448 12.3906 13.3941 12.3534 13.4361C12.3078 13.4883 12.2387 13.5141 12.1696 13.5141H9.86813C9.79864 13.5141 9.72996 13.4883 9.68431 13.4361C9.64755 13.3945 9.62937 13.3453 9.62937 13.2879V12.6229C9.62937 12.5534 9.65523 12.4848 9.70734 12.4391C9.74895 12.4024 9.79824 12.3838 9.8556 12.3838H12.17C12.2391 12.3838 12.3078 12.4096 12.3538 12.4613C12.3906 12.5029 12.4092 12.5526 12.4092 12.6096V13.2875L12.4088 13.2879Z" fill="#110F23"/>
<path d="M4.12994 13.2879V10.3691C4.12994 10.2996 4.1558 10.2309 4.20791 10.1853C4.24952 10.1485 4.29881 10.1299 4.35617 10.1299H8.03162V9H7.97951C7.63289 9 7.35171 9.28117 7.35171 9.62779V9.6387C7.35171 9.80999 7.21961 9.96027 7.04832 9.96471C6.87259 9.96916 6.72837 9.82817 6.72837 9.65324V9.62335C6.72796 9.27915 6.44921 9 6.10502 9H4.15176C3.93159 9 3.73404 9.04969 3.55952 9.14867C3.385 9.24805 3.24805 9.385 3.14907 9.55911C3.04969 9.73404 3 9.93159 3 10.1518V13.4915C3 13.7121 3.04969 13.9096 3.14867 14.0841C3.24805 14.2587 3.38459 14.3956 3.55911 14.4946C3.73363 14.594 3.93118 14.6433 4.15176 14.6433H8.03081V13.5133H4.3687C4.29921 13.5133 4.23054 13.4875 4.18488 13.4353C4.14812 13.3937 4.12954 13.3444 4.12954 13.2871L4.12994 13.2879Z" fill="#110F23"/>
</svg>
