<svg width="32" height="32" viewBox="0 0 32 32" fill="none" xmlns="http://www.w3.org/2000/svg">
<path fill-rule="evenodd" clip-rule="evenodd" d="M15.9339 29C19.786 29 23.2469 27.3245 25.6273 24.6626C24.52 23.7002 22.8512 23.6417 21.6723 24.593L21.4471 24.7747C19.2886 26.5164 16.1434 26.2592 14.2965 24.1899C13.2892 23.0613 11.5642 22.9461 10.4157 23.9307L7.81904 26.1568C10.0431 27.9361 12.8642 29 15.9339 29ZM20.1489 22.705C22.2048 21.046 25.0946 21.1055 27.072 22.7078C28.2539 20.7494 28.9339 18.4541 28.9339 16C28.9339 13.273 28.0943 10.7422 26.6594 8.65188C25.7345 8.45489 24.7318 8.68496 23.9708 9.35939L23.7542 9.55134C21.6783 11.3909 18.5246 11.2791 16.5843 9.29723C15.526 8.21636 13.7974 8.18085 12.6956 9.21739L9.67385 12.0602L8.01153 10.2933L11.0333 7.45046C13.0972 5.50877 16.3352 5.57526 18.3177 7.60004C19.3535 8.65801 21.0371 8.71768 22.1452 7.73568L22.3618 7.54373C23.0345 6.94765 23.8128 6.5458 24.6276 6.33445C22.3244 4.26154 19.2765 3 15.9339 3C9.33459 3 3.88381 7.91733 3.04565 14.2878C5.05012 13.3259 7.52262 13.696 9.15699 15.3697C10.1888 16.4263 11.8501 16.5378 13.0138 15.6286L14.7034 14.3087C16.8267 12.6498 19.8283 12.7301 21.8599 14.5002L25.1493 17.366L23.5556 19.1951L20.2663 16.3293C19.1111 15.3228 17.4043 15.2771 16.1969 16.2204L14.5074 17.5403C12.3692 19.2107 9.31695 19.0058 7.42131 17.0646C6.319 15.9358 4.51616 15.8964 3.36561 16.976L3 17.3191C3.27361 20.0343 4.38276 22.5029 6.06642 24.464L8.83673 22.0889C10.988 20.2446 14.2196 20.4604 16.1065 22.5745C17.0924 23.6792 18.7713 23.8165 19.9237 22.8867L20.1489 22.705Z" fill="#110F23"/>
</svg>
