<svg width="32" height="32" viewBox="0 0 32 32" fill="none" xmlns="http://www.w3.org/2000/svg">
<g clip-path="url(#clip0_13993_895)">
<path d="M23.618 26.4759C21.1713 23.1178 18.7201 19.7539 16.269 16.39C16.2326 16.4089 16.1947 16.4278 16.1582 16.4468C17.4355 20.3784 18.7143 24.3085 20.0281 28.3507C17.3568 29.2255 14.738 29.1979 11.9719 28.3711C13.274 24.3609 14.5601 20.3944 15.8476 16.4278C15.8126 16.4104 15.7791 16.3915 15.7441 16.374C13.293 19.7379 10.8418 23.1018 8.28865 26.6083C7.30295 25.6302 6.37121 24.703 5.36801 23.7059C8.68672 21.2968 11.88 18.9781 15.0734 16.6593C15.0486 16.6142 15.0252 16.5705 15.0004 16.5254C11.4951 18.3056 7.98974 20.0858 4.49167 21.8616C2.92563 19.8907 2.47653 14.3274 3.70574 12.0072C7.63103 13.2779 11.5651 14.5516 15.5006 15.8252C15.5225 15.7845 15.5458 15.7423 15.5677 15.7015C12.2227 13.2736 8.87628 10.8442 5.53424 8.41766C8.43884 3.78447 15.2017 1.83251 20.0077 3.70587C18.7785 7.49044 17.5478 11.2794 16.3171 15.0698C16.3565 15.0872 16.3944 15.1047 16.4338 15.1222C18.2521 11.5676 20.0704 8.01155 21.9149 4.40602C25.0893 6.10325 27.2196 8.58214 28.3949 11.9868C24.4069 13.2823 20.4685 14.5603 16.5315 15.8398C16.5344 15.8762 16.5359 15.9126 16.5388 15.9504H28.8819C29.627 18.9184 26.7516 24.6418 23.6195 26.4759H23.618Z" fill="#110F23"/>
</g>
<defs>
<clipPath id="clip0_13993_895">
<rect width="26" height="26" fill="white" transform="translate(3 3)"/>
</clipPath>
</defs>
</svg>
