<svg width="32" height="32" viewBox="0 0 32 32" fill="none" xmlns="http://www.w3.org/2000/svg">
<path d="M13.5956 22.5384C12.6802 22.1956 11.8418 21.6578 11.13 20.946C9.82019 19.6362 9.09992 17.8951 9.09992 16.0443C9.09992 14.6786 9.49749 13.4036 10.1819 12.329C10.2188 12.0295 10.2642 11.7216 10.3201 11.4073C9.25494 12.715 8.67598 14.3348 8.67598 16.0432C8.67598 18.0079 9.44055 19.8555 10.8305 21.2455C12.0295 22.4456 13.5713 23.1785 15.2344 23.3578C14.7408 23.1669 14.1724 22.9022 13.5966 22.5373L13.5956 22.5384Z" fill="#110F23"/>
<path d="M20.7551 10.4044C20.1824 9.9246 19.5434 9.53651 18.8473 9.24756C17.9499 8.87635 17.0029 8.68758 16.0327 8.68758C14.2916 8.68758 12.6433 9.28869 11.324 10.3918C11.6298 10.3464 11.9199 10.3074 12.1962 10.2737C13.2961 9.54073 14.6153 9.11258 16.0327 9.11258C16.9481 9.11258 17.8402 9.28974 18.6849 9.63986C19.1099 9.81598 19.5128 10.0311 19.8903 10.2842C20.1645 10.318 20.4524 10.357 20.7551 10.4034V10.4044Z" fill="#110F23"/>
<path d="M21.6567 11.3029C21.7126 11.6056 21.758 11.903 21.7959 12.1919C22.0469 12.5674 22.261 12.9681 22.4361 13.391C22.7862 14.2368 22.9634 15.1289 22.9634 16.0443C22.9634 19.0646 21.0208 21.6399 18.3201 22.5869C17.7622 22.9317 17.2138 23.1838 16.7371 23.3673C18.4361 23.207 20.0116 22.4677 21.2339 21.2465C22.6238 19.8566 23.3894 18.01 23.3894 16.0443C23.3894 15.073 23.2006 14.126 22.8294 13.2286C22.5384 12.5252 22.145 11.8798 21.6578 11.3029H21.6567Z" fill="#110F23"/>
<path d="M19.4611 21.74C21.3899 20.5716 22.6786 18.454 22.6786 16.0337C22.6786 14.9127 22.396 13.8202 21.8698 12.8532C21.971 13.933 21.9689 14.8874 21.9573 15.633C21.9742 18.6217 20.8194 20.5262 19.4611 21.74Z" fill="#110F23"/>
<path d="M12.7635 10.2114C14.2389 10.0649 15.2671 10.0838 15.9979 10.0765C16.735 10.0849 17.7717 10.0649 19.265 10.2157C18.28 9.66517 17.1611 9.36778 16.0127 9.36778C14.8326 9.36778 13.7253 9.67466 12.7646 10.2114H12.7635Z" fill="#110F23"/>
<path d="M9.34564 16.0337C9.34564 18.415 10.5943 20.5041 12.4714 21.6831C11.1405 20.4672 10.0216 18.5753 10.0374 15.633C10.0258 14.9011 10.0227 13.9689 10.1186 12.9143C9.6251 13.8455 9.34458 14.9064 9.34458 16.0337H9.34564Z" fill="#110F23"/>
<path d="M13.7696 25.5133C13.526 25.4659 13.3066 25.2128 13.3193 24.9143C13.3425 24.4271 13.8181 24.1772 14.2209 24.4366C14.2694 24.4682 14.3232 24.5294 14.3443 24.5431L14.6101 24.2436C14.3949 24.0169 14.0427 23.9051 13.6968 23.9705C13.4068 24.0264 13.1822 24.1708 13.0282 24.4208C12.8996 24.6306 12.8574 24.8816 12.908 25.121C12.9955 25.5734 13.2971 25.8539 13.8276 25.9056C13.9003 25.9067 13.9731 25.9025 14.0459 25.8919C14.2684 25.8518 14.4709 25.7379 14.6196 25.5682L14.3654 25.3013C14.1998 25.4458 14.0206 25.5608 13.7685 25.5133H13.7696Z" fill="#110F23"/>
<path d="M15.4442 23.9821H15.0182V25.8687H15.4442V23.9821Z" fill="#110F23"/>
<path d="M15.8239 24.3744H16.3965V25.8698H16.8226V24.3744H17.3973V23.9821H15.8239V24.3744Z" fill="#110F23"/>
<path d="M18.4993 24.753L18.0564 23.9821H17.5682L18.2884 25.1094V25.8698H18.7039V25.1094L19.4337 23.9821H18.9612L18.4993 24.753Z" fill="#110F23"/>
<path d="M7.65832 12.174L8.60849 12.0791L8.14026 11.2312L9.2212 11.8028L9.40469 11.4495L7.77432 10.5869L7.57079 10.9707L8.04851 11.7806L7.11732 11.8387L6.91273 12.2257L8.54416 13.0799L8.73398 12.7287L7.65832 12.174Z" fill="#110F23"/>
<path d="M9.87714 10.8716L9.68732 10.4635L10.2262 9.89085L10.6428 10.0554L10.9402 9.74427L9.03665 9.04508L8.78144 9.31927L9.59452 11.1669L9.87714 10.8716ZM9.25494 9.51542L9.87081 9.75481L9.52702 10.1123L9.25389 9.51542H9.25494Z" fill="#110F23"/>
<path d="M11.5486 9.34036L10.9349 8.33535L12.3143 8.87741L12.6095 8.70129L11.653 7.12049L11.3093 7.32824L11.9051 8.30583L10.57 7.77538L10.2484 7.97258L11.2101 9.54812L11.5486 9.34036Z" fill="#110F23"/>
<path d="M13.8803 8.31321C13.9489 8.29423 14.0163 8.26997 14.0817 8.24044C14.28 8.14237 14.4392 7.97891 14.5331 7.77959L14.2199 7.59821C14.1039 7.77959 13.9668 7.93673 13.7168 7.96098C13.4743 7.98418 13.2001 7.8049 13.1305 7.52017C13.0187 7.05616 13.3973 6.69127 13.8466 6.82415C13.9014 6.83997 13.9689 6.88321 13.9931 6.89059L14.1598 6.53625C13.8951 6.38123 13.5334 6.37279 13.2265 6.52887C12.9692 6.66069 12.7973 6.85895 12.7213 7.1363C12.6581 7.36831 12.6865 7.61613 12.8004 7.8281C13.0071 8.22884 13.3678 8.41128 13.8803 8.31426V8.31321Z" fill="#110F23"/>
<path d="M20.7013 9.50699L21.0282 9.7527L21.9246 8.57369L22.3707 8.92064L22.5974 8.62536L21.3815 7.69523L21.1548 7.99262L21.6008 8.33325L20.7013 9.50699Z" fill="#110F23"/>
<path d="M15.3957 8.00211L15.3725 7.25969L16.135 7.2386L16.1529 7.98524L16.5515 7.9768L16.5104 6.13024L16.1033 6.13868L16.1223 6.87266L15.3673 6.8927L15.3504 6.15977L14.9507 6.1682L14.9929 8.01582L15.3957 8.00211Z" fill="#110F23"/>
<path d="M18.5637 8L17.5787 7.78803L17.6652 7.40206L18.3464 7.54864L18.5363 7.22594L17.7379 7.05721L17.8234 6.68073L18.7894 6.8927L18.8684 6.54152L17.5091 6.24624L17.1168 8.05167L18.4867 8.34906L18.5637 8Z" fill="#110F23"/>
<path d="M19.8735 8.9101C20.077 8.90272 20.2584 8.78039 20.3427 8.59583C20.405 8.4271 20.4197 8.27313 20.3301 8.13182C20.2362 7.99578 20.1202 7.87767 19.9852 7.78276V7.78487C19.7458 7.60981 19.7437 7.50224 19.806 7.41471C19.8682 7.34511 19.9441 7.34722 20.0232 7.37569C20.1455 7.42104 20.252 7.50119 20.328 7.60664C20.3702 7.66148 20.4028 7.71526 20.4355 7.76588L20.7519 7.57079C20.7045 7.48009 20.5747 7.21961 20.193 7.0551C20.0137 6.97706 19.5834 6.9043 19.3978 7.343C19.323 7.53282 19.3514 7.65515 19.3999 7.73952C19.5065 7.90931 19.672 8.02847 19.8218 8.16135C19.884 8.21302 19.9483 8.27524 19.9747 8.34906C19.9937 8.40285 19.9779 8.46296 19.9357 8.50092C19.7163 8.68758 19.3177 8.28368 19.2407 8.06749L18.9011 8.22779C19.0825 8.57685 19.3883 8.89533 19.8735 8.90904V8.9101Z" fill="#110F23"/>
<path d="M21.7411 10.3538L22.6396 11.4305L22.9148 11.2027L22.2684 10.4308L22.5742 10.1788L23.0235 10.7197L23.3894 10.6016L22.8431 9.95202L23.1416 9.70736L23.7733 10.4677L24.0517 10.2399L23.1616 9.17163L21.7411 10.3538Z" fill="#110F23"/>
<path d="M23.053 12.1497L23.5792 11.8872L23.7332 12.1751L23.3799 12.792L23.5898 13.2138L23.9768 12.5146C24.3301 12.8394 24.8215 12.6559 24.9744 12.2837C25.0208 12.1698 25.0177 12.0337 24.9681 11.8903C24.9428 11.8123 24.9101 11.7353 24.8721 11.6625L24.5231 10.9612L22.8737 11.7891L23.054 12.1508L23.053 12.1497ZM24.3754 11.4875L24.5653 11.8619H24.5674C24.6707 12.0464 24.5874 12.2183 24.4524 12.2668C24.3301 12.3122 24.1782 12.29 24.0823 12.0896L23.9051 11.729L24.3744 11.4875H24.3754Z" fill="#110F23"/>
<path d="M6.2473 15.6309L6.2937 15.8218L6.48985 15.7638V16.6486H6.72396V15.5339H6.54258L6.2473 15.6309Z" fill="#110F23"/>
<path d="M7.66043 16.0696C7.76694 16.0348 7.83338 15.9272 7.81756 15.8154C7.79858 15.6182 7.62668 15.5233 7.43264 15.5254C7.38307 15.5254 7.33351 15.5307 7.28605 15.5444C7.24282 15.555 7.20169 15.574 7.16478 15.5982C7.13103 15.6214 7.10256 15.652 7.08147 15.6878C6.99605 15.8418 7.04561 15.9852 7.1806 16.0707C7.04666 16.1445 7.01186 16.2014 7.00554 16.3554C7.00975 16.58 7.24809 16.6623 7.43158 16.6675C7.4917 16.6675 7.55181 16.6612 7.60981 16.6465C7.74163 16.6106 7.85447 16.5104 7.85447 16.3554C7.85974 16.2278 7.77959 16.1107 7.65832 16.0707L7.66043 16.0696ZM7.31875 15.7712C7.35144 15.7458 7.39151 15.7342 7.43264 15.7364C7.47271 15.7342 7.51279 15.7458 7.54548 15.7712C7.5729 15.7944 7.58766 15.8292 7.58555 15.865C7.58555 15.9009 7.57079 15.9346 7.54548 15.9589C7.47799 16.0084 7.38729 16.0084 7.3198 15.9589C7.29344 15.9346 7.27867 15.9009 7.27867 15.865C7.27656 15.8292 7.29133 15.7944 7.31875 15.7712ZM7.43475 16.4714C7.34827 16.4714 7.2386 16.4208 7.23543 16.3164C7.23543 16.2341 7.32824 16.1793 7.41049 16.1761C7.4917 16.1729 7.61719 16.2035 7.62035 16.3164H7.62246C7.62246 16.4071 7.53493 16.4714 7.43475 16.4714Z" fill="#110F23"/>
<path d="M21.0925 11.7174C21.0598 11.5434 21.024 11.3694 20.9871 11.1964C20.967 11.1057 20.947 11.014 20.927 10.9233C20.8331 10.9064 20.7414 10.8895 20.6507 10.8737C20.4714 10.8421 20.2974 10.8147 20.1276 10.7883C18.1165 10.4782 16.8426 10.512 15.9989 10.5036C15.1606 10.5131 13.8951 10.4814 11.903 10.7841C11.7522 10.8073 11.5972 10.8315 11.4369 10.859C11.3177 10.879 11.1964 10.9001 11.0709 10.9233C11.0424 11.0456 11.0161 11.169 10.9897 11.2924C10.957 11.4474 10.9254 11.6035 10.8969 11.7596C10.7271 12.6612 10.6122 13.5713 10.5552 14.4877C10.532 15.5866 10.5204 16.7013 10.6923 17.6842C10.7862 18.2441 10.9602 18.7872 11.2101 19.2966C11.7849 20.3744 12.6085 21.3277 13.3541 21.836C13.6778 22.0796 14.0185 22.3 14.3717 22.4972C14.6639 22.6607 14.9655 22.8073 15.2755 22.937C15.5128 23.0361 15.7543 23.1258 16 23.2038C16.2404 23.1289 16.4767 23.0414 16.7087 22.9454C17.0177 22.8168 17.3193 22.6712 17.6114 22.5088C17.971 22.3095 18.3169 22.0859 18.6459 21.8381C19.3926 21.3309 20.2151 20.3765 20.7899 19.2987C21.0398 18.7893 21.2138 18.2462 21.3077 17.6863C21.4806 16.7034 21.468 15.5898 21.4448 14.4899C21.3868 13.5597 21.2697 12.6338 21.0946 11.7184L21.0925 11.7174ZM19.3483 20.7213C19.2797 20.7909 19.2091 20.8595 19.1374 20.9259C19.1352 20.928 19.1331 20.9291 19.1321 20.9312C19.0983 20.9628 19.0635 20.9934 19.0287 21.024C19.0235 21.0282 19.0182 21.0335 19.0129 21.0377C18.9792 21.0672 18.9465 21.0957 18.9117 21.1252C18.9043 21.1316 18.8969 21.1368 18.8906 21.1432C18.8336 21.1906 18.7756 21.2381 18.7166 21.2834C18.7018 21.295 18.6871 21.3066 18.6712 21.3182C18.6396 21.3425 18.608 21.3657 18.5763 21.3889C18.5668 21.3963 18.5563 21.4036 18.5457 21.411C18.5088 21.4384 18.4709 21.4648 18.4329 21.4922L17.5608 20.4408C17.5608 20.4672 17.5597 20.4935 17.5608 20.521C17.5608 20.6507 17.4954 20.7709 17.3509 20.8563C17.3572 20.8732 17.3615 20.8911 17.3625 20.909L17.3657 21.2138C17.3699 21.2507 17.3625 21.2887 17.3446 21.3214C17.3203 21.3572 17.2813 21.3804 17.2381 21.3825C17.2096 21.3857 17.1801 21.3847 17.1516 21.3783L16.8447 21.2781C16.8299 21.2718 16.8183 21.2613 16.8099 21.2476C16.6876 21.3456 16.5737 21.3699 16.4661 21.3636L17.1737 22.222C16.9829 22.3127 16.7899 22.3992 16.5948 22.4804C16.5895 22.4825 16.5832 22.4846 16.5779 22.4877C16.5083 22.5162 16.4376 22.5447 16.3659 22.5721C16.3048 22.5964 16.2426 22.6196 16.1814 22.6428C16.1645 22.6491 16.1476 22.6554 16.1308 22.6617C16.0949 22.6744 16.0591 22.6881 16.0232 22.7008C16.019 22.7008 16.0137 22.7008 16.0095 22.7008C16.0053 22.7008 16 22.7008 15.9958 22.7008C15.9926 22.7008 15.9884 22.7008 15.9852 22.7008L14.8748 21.3678L14.84 21.3794C14.8115 21.3857 14.783 21.3868 14.7535 21.3836C14.7103 21.3804 14.6712 21.3583 14.647 21.3224C14.6291 21.2897 14.6227 21.2518 14.6259 21.2149V21.0725L10.9655 16.6791V16.676H12.6001L14.2589 18.6871C14.2874 18.6818 14.3169 18.6818 14.3443 18.6881C14.4108 18.4856 14.5236 18.3918 14.6712 18.3528C14.7893 18.3253 14.9001 18.2737 14.9971 18.202C15.0794 18.1387 15.1532 18.0585 15.2597 17.9077C15.2913 17.8624 15.3303 17.8276 15.3725 17.8002L14.4392 16.6739H16.0042L17.4279 18.3928C17.5144 18.4392 17.584 18.5173 17.6335 18.6417C17.6399 18.6565 17.6451 18.6723 17.6504 18.6892C17.6567 18.6881 17.6631 18.6871 17.6694 18.686C17.7031 18.6818 17.7369 18.6849 17.7685 18.6965L18.0511 18.7925C18.0733 18.7999 18.0944 18.8125 18.1113 18.8294C18.126 18.8495 18.1355 18.8737 18.1387 18.899C18.1429 18.9264 18.1387 18.9549 18.1281 18.9802L18.029 19.1194L19.3525 20.7171L19.3483 20.7213ZM16.7614 15.5972C16.561 15.6109 16.3554 15.6182 16.1466 15.6204L16.1413 15.1922C16.6433 15.1268 17.1864 15.208 17.6209 15.3156L17.6188 15.4601C17.4933 15.4706 17.3657 15.479 17.2391 15.4854C17.0704 15.4927 16.9829 15.5297 16.7625 15.5982L16.7614 15.5972ZM16.9934 16.0464C17.0556 16.0253 17.121 16.019 17.1864 16.0274C17.4226 16.0464 17.701 16.1613 17.9699 16.252H15.9979L13.4026 16.2489C13.4943 16.0717 13.603 16.0327 13.7168 16.0359C14.0322 16.0464 14.3169 16.213 14.7166 16.1645C14.9496 16.1403 15.0688 16.0601 15.0899 15.9926C15.3757 16 15.6741 16.0896 15.9979 16.136C16.3037 16.1803 16.6317 16.1867 16.9934 16.0475V16.0464ZM20.7561 18.2536C20.7509 18.2705 20.7466 18.2884 20.7414 18.3053C20.7097 18.4129 20.676 18.5194 20.6391 18.6238C20.6359 18.6333 20.6327 18.6428 20.6285 18.6523C20.618 18.6828 20.6074 18.7124 20.5958 18.7429C20.579 18.7893 20.561 18.8347 20.5431 18.88C20.541 18.8853 20.5389 18.8906 20.5368 18.8959C20.4471 19.1163 20.3448 19.3314 20.2299 19.5392C20.2288 19.5423 20.2267 19.5444 20.2257 19.5476L17.8466 16.6718H19.5138L20.7741 18.1914C20.7688 18.2114 20.7625 18.2325 20.7572 18.2526L20.7561 18.2536ZM21.0588 16.2542L18.2958 16.252H18.6849C18.3717 15.7395 18.9275 15.8017 18.9982 15.2523C18.7408 15.3187 18.2716 15.3978 17.7548 15.4474V15.2755L19.1743 14.7799C18.7746 14.2505 18.8073 13.6356 18.9085 13.005C18.9096 13.0008 18.9106 12.9955 18.9117 12.9913L17.7379 13.3994L17.7538 15.0751L17.7527 15.0772L17.7253 12.1983L17.4005 12.3079C17.3868 12.3111 17.3773 12.3153 17.3709 12.3206C17.3425 12.3385 17.3562 12.3607 17.3245 12.3807C17.3224 12.3818 17.3193 12.3839 17.3161 12.3849L17.3129 12.387L16.9829 12.5136L17.3615 12.4956C17.3762 12.4956 17.3836 12.4904 17.3899 12.483C17.4026 12.4672 17.4005 12.4387 17.4142 12.4218C17.4184 12.4166 17.4258 12.4123 17.4353 12.4113L17.6451 12.3902L17.6177 15.2354C17.3941 14.8853 17.0082 14.4656 17.159 13.5924C17.16 13.5871 17.1621 13.5829 17.1632 13.5776H17.1611L15.3715 14.1925C14.9897 14.6565 15.2818 15.189 15.5792 15.4727V15.4748H15.5803C15.672 15.3398 15.8207 15.2702 15.9958 15.2281C16.0011 15.227 16.0063 15.2249 16.0127 15.2238L16.0074 15.6225C16.0074 15.6225 16 15.6225 15.9958 15.6225C15.4379 15.6225 14.8632 15.5908 14.3169 15.5708C14.3137 15.5708 14.3106 15.5708 14.3074 15.5708L14.3137 15.1827C14.6828 15.1395 15.0066 15.1848 15.3398 15.2133C15.072 14.7851 14.9022 14.3506 15.0171 13.9056C15.0192 13.9003 15.0203 13.8951 15.0224 13.8898V13.8909L13.5386 14.4055C13.3636 14.6375 13.3762 15.0467 13.7232 15.3883C13.7211 15.3736 13.72 15.3588 13.72 15.3451C13.72 15.3588 13.72 15.3725 13.7232 15.3873C13.8793 15.2502 14.0279 15.2375 14.1777 15.2017L14.1809 15.5602C13.4363 15.4875 12.7013 15.3377 11.9873 15.1131L11.9715 15.1764C12.271 15.2924 12.5821 15.4221 12.9175 15.5824C13.141 15.8597 13.2391 16.0285 13.3994 16.252L10.9328 16.2499C10.9096 15.671 10.9201 15.091 10.9623 14.5131C11.015 13.5871 11.073 12.5104 11.3388 11.2808C11.3746 11.246 11.4105 11.2112 11.4474 11.1764C13.5966 10.7946 15.0614 10.802 15.9947 10.7725C16.9333 10.7999 18.4086 10.7936 20.5769 11.1827C20.599 11.2038 20.6211 11.2249 20.6422 11.246C20.9143 12.4893 20.9723 13.5776 21.0261 14.5131C21.0683 15.0941 21.0788 15.6762 21.0556 16.2584L21.0588 16.2542Z" fill="#110F23"/>
<path d="M15.845 11.5465L15.9979 11.5307L16.0538 11.5254L16.0506 11.8819L16.1381 11.8503L16.135 11.3335L15.9979 11.3799L15.807 11.4442C15.7374 11.4643 15.7785 11.4949 15.7226 11.5212L15.3936 11.6478L15.7722 11.6298C15.8281 11.6298 15.7933 11.5539 15.845 11.5455V11.5465Z" fill="#110F23"/>
<path d="M15.3831 12.985C15.4326 12.7045 15.69 12.6422 15.9979 12.445C16.2236 12.3006 16.4777 12.0844 16.6992 11.6573L15.4031 12.1118C15.2249 12.3111 15.1068 12.7667 15.3831 12.986V12.985Z" fill="#110F23"/>
<path d="M16.8521 12.5368C16.8521 12.5368 16.8542 12.5315 16.8542 12.5283H16.8532C16.6728 12.309 16.5494 12.0591 16.6992 11.6562C16.4777 12.0833 16.2236 12.2995 15.9979 12.444C15.6889 12.6412 15.4326 12.7034 15.3831 12.9839C15.5096 12.812 15.7469 12.7076 15.9979 12.6433C16.3343 12.5568 16.6971 12.541 16.8532 12.5273C16.6401 12.6243 16.3238 12.7329 15.9979 12.8437C15.7891 12.9143 15.5782 12.985 15.3873 13.0525C15.1131 13.1801 15.0857 13.6462 15.3957 14.1007H15.3968C15.3968 14.1007 15.3968 14.0997 15.3968 14.0975C15.5138 13.9425 15.7058 13.8149 15.9968 13.7221C16.2837 13.6304 16.6654 13.5724 17.1643 13.5555C16.9438 13.2729 16.7888 12.9586 16.851 12.5347L16.8521 12.5368Z" fill="#110F23"/>
<path d="M14.7704 12.9481C14.4287 13.6915 13.5766 13.8613 13.5713 14.2526C13.5755 13.8613 14.4287 13.6915 14.7704 12.947C14.5879 13.0156 14.4139 13.0778 14.2494 13.1368L14.2905 13.1221L14.2874 12.4925L13.9605 12.6032C13.8909 12.6233 13.932 12.6549 13.875 12.6802L13.5544 12.7994L13.9235 12.7899C13.9794 12.7899 13.9446 12.7139 13.9963 12.7055L14.2062 12.6844V13.1516C14.0016 13.2233 13.8096 13.2887 13.6293 13.3467C13.4775 13.5028 13.2887 13.9278 13.5724 14.2905V14.2916C13.8212 13.9784 14.5004 13.9046 15.0192 13.8698C14.6818 13.5365 14.7535 13.1347 14.7693 12.9481H14.7704Z" fill="#110F23"/>
<path d="M13.4289 13.4057L13.4311 13.4047L13.43 13.4057C13.0598 13.6715 12.3923 14.1714 12.0401 15.0055C12.3058 14.976 12.5758 14.9908 12.8373 15.0509L13.1062 15.1057C12.947 14.3348 13.2433 13.739 13.43 13.4057H13.4289Z" fill="#110F23"/>
<path d="M13.1041 15.107H13.1054L13.1041 15.1057V15.107Z" fill="#110F23"/>
<path d="M14.88 19.1384C14.9686 19.1553 14.9665 19.169 14.9338 19.0783C14.8368 18.7683 15.131 18.7651 15.2945 18.6871C15.4147 18.6291 15.4369 18.5331 15.5444 18.4276C15.5602 18.4108 15.5782 18.396 15.5972 18.3823C15.6815 18.3201 15.7585 18.3169 15.8218 18.3412C15.8576 18.3549 15.8893 18.377 15.9146 18.4023C15.9293 18.4192 15.9547 18.4445 15.9547 18.396C15.9663 18.2125 15.9399 18.0585 15.7922 17.991C15.7089 17.9531 15.614 17.952 15.5297 17.9868C15.5276 17.9868 15.5244 17.9889 15.5223 17.99C15.3673 18.0606 15.3367 18.2399 15.1331 18.3802C14.9634 18.4993 14.8684 18.5057 14.7841 18.5341C14.6501 18.5784 14.5795 18.6976 14.5837 18.8526C14.5953 19.0161 14.7282 19.1004 14.8811 19.1384H14.88Z" fill="#110F23"/>
<path d="M15.8049 18.4709C15.7606 18.4582 15.7121 18.4635 15.672 18.4856C15.6161 18.5183 15.575 18.5816 15.5223 18.6428C15.4748 18.705 15.4137 18.7556 15.3441 18.7915C15.2808 18.8115 15.2186 18.8347 15.1585 18.8611C15.0857 18.8927 15.0403 18.9655 15.0435 19.0446C15.0435 19.0983 15.0688 19.149 15.1099 19.1848C15.1553 19.2175 15.207 19.2407 15.2618 19.2523L15.7184 19.3999C15.7532 19.4094 15.7669 19.4031 15.7828 19.3757C15.8091 19.3219 15.8629 19.285 15.923 19.2818C15.9462 19.2818 15.9536 19.2586 15.9525 19.2418H15.9547V18.7071C15.9631 18.59 15.9156 18.4972 15.807 18.4719L15.8049 18.4709Z" fill="#110F23"/>
<path d="M16.0707 18.397C16.0707 18.4456 16.096 18.4202 16.1107 18.4034C16.1803 18.3338 16.2953 18.2853 16.4282 18.3833C16.4471 18.397 16.464 18.4129 16.4798 18.4287C16.5874 18.5331 16.6095 18.6301 16.7298 18.6881C16.8932 18.7661 17.1875 18.7693 17.0904 19.0794C17.0577 19.1701 17.0556 19.1574 17.1442 19.1395C17.2971 19.1015 17.43 19.0161 17.4416 18.8537C17.4458 18.6987 17.3762 18.5795 17.2412 18.5352C17.1558 18.5067 17.062 18.5004 16.8922 18.3812C16.6886 18.241 16.6591 18.0617 16.503 17.991C16.4166 17.9531 16.3185 17.9531 16.2331 17.9931C16.0854 18.0606 16.058 18.2146 16.0707 18.3981V18.397Z" fill="#110F23"/>
<path d="M16.0917 19.2808C16.1571 19.2955 16.1835 19.2924 16.2563 19.3968C16.2615 19.401 16.2668 19.4031 16.2742 19.4042C16.2858 19.4052 16.2984 19.4042 16.309 19.3999L16.7656 19.2513C16.8205 19.2397 16.8721 19.2165 16.9175 19.1838C16.9586 19.149 16.9829 19.0983 16.9839 19.0435C16.9871 18.9644 16.9417 18.8916 16.869 18.86C16.8089 18.8336 16.7466 18.8104 16.6834 18.7904C16.6127 18.7556 16.5515 18.705 16.5041 18.6417C16.4524 18.5795 16.4113 18.5173 16.3543 18.4846C16.3143 18.4624 16.2658 18.4572 16.2215 18.4698C16.1318 18.4909 16.0844 18.5573 16.0749 18.6449C16.0728 18.6639 16.0717 18.6839 16.0728 18.705V19.2386H16.0749C16.0717 19.2544 16.078 19.2702 16.0907 19.2787L16.0917 19.2808Z" fill="#110F23"/>
<path d="M17.1716 19.2333C17.0894 19.2723 17.083 19.2597 17.1632 19.3145C17.4247 19.5075 17.1896 19.6836 17.1031 19.8429C17.0978 19.8534 17.0936 19.8629 17.0894 19.8724C17.0461 19.9768 17.0767 20.0643 17.0546 20.2004C17.0514 20.2236 17.0461 20.2457 17.0388 20.2679C16.9902 20.425 16.869 20.4535 16.7698 20.4387C16.7477 20.4324 16.7139 20.4271 16.7414 20.4672C16.8394 20.6233 16.9533 20.7319 17.1115 20.6981C17.2043 20.6791 17.2834 20.6211 17.3309 20.5399C17.3847 20.444 17.3699 20.3417 17.3752 20.2183C17.3773 20.1508 17.3857 20.078 17.4142 19.9958C17.4817 19.7986 17.5534 19.7374 17.6061 19.6636C17.6873 19.5476 17.6747 19.4105 17.5787 19.2882C17.4732 19.1627 17.3151 19.1732 17.1695 19.2333H17.1716Z" fill="#110F23"/>
<path d="M16.8194 20.3185C16.8626 20.3027 16.8985 20.27 16.9175 20.2278C16.9438 20.1677 16.9396 20.0928 16.946 20.0127C16.947 19.9346 16.966 19.8576 17.0029 19.788C17.005 19.7838 17.0082 19.7796 17.0113 19.7764C17.043 19.7269 17.0862 19.6762 17.1126 19.6235C17.1526 19.556 17.1463 19.4695 17.0968 19.4084C17.0641 19.3651 17.0145 19.3377 16.9597 19.3335C16.9038 19.3335 16.8479 19.3462 16.7973 19.3683L16.6992 19.401L16.3427 19.5191C16.3143 19.5276 16.3027 19.5413 16.3048 19.5697C16.3143 19.6351 16.29 19.7016 16.2383 19.7448C16.2331 19.7596 16.2373 19.7764 16.2489 19.787H16.2478L16.5621 20.2183C16.6243 20.3174 16.7161 20.3628 16.8205 20.3206L16.8194 20.3185Z" fill="#110F23"/>
<path d="M15.246 20.4387C15.1479 20.4535 15.0266 20.425 14.9771 20.2679C14.9707 20.2457 14.9655 20.2225 14.9623 20.2004C14.937 20.0517 14.9771 19.961 14.9138 19.8429C14.8336 19.6942 14.6227 19.5307 14.8083 19.3525C14.821 19.3398 14.8357 19.3272 14.8537 19.3145C14.9338 19.2597 14.9275 19.2723 14.8463 19.2333C14.7904 19.2101 14.7324 19.1943 14.6765 19.1911C14.5869 19.1859 14.5015 19.2112 14.4371 19.2882C14.3422 19.4105 14.3285 19.5476 14.4097 19.6636C14.4614 19.7374 14.5331 19.7986 14.6016 19.9958C14.6818 20.2288 14.6016 20.3912 14.6849 20.5399C14.7324 20.6211 14.8115 20.6791 14.9043 20.6981C15.0635 20.7308 15.1774 20.6233 15.2745 20.4672C15.3019 20.4271 15.2671 20.4324 15.246 20.4387Z" fill="#110F23"/>
<path d="M14.9212 19.4073C14.9096 19.4221 14.9001 19.4379 14.8938 19.4548C14.8727 19.5086 14.8758 19.5708 14.9064 19.6225C14.9402 19.6794 14.976 19.7342 15.0161 19.787C15.0519 19.8566 15.0709 19.9336 15.073 20.0116C15.0783 20.0917 15.0741 20.1677 15.1004 20.2267C15.1205 20.2689 15.1553 20.3016 15.1985 20.3174C15.3019 20.3596 15.3947 20.3143 15.4569 20.2151L15.4875 20.1729L15.7712 19.7838C15.7849 19.7701 15.788 19.749 15.7775 19.7332C15.7364 19.6794 15.7037 19.6288 15.7184 19.5518C15.7142 19.5339 15.6984 19.5233 15.6762 19.517L15.2217 19.3662C15.1701 19.3441 15.1152 19.3314 15.0593 19.3314C15.0045 19.3356 14.9549 19.363 14.9222 19.4063L14.9212 19.4073Z" fill="#110F23"/>
<path d="M16.6138 20.5431C16.6011 20.6665 16.4925 20.7572 16.3691 20.7466C16.3459 20.7466 16.3227 20.7445 16.2995 20.7403C16.1719 20.7224 16.0991 20.6718 15.9979 20.6728C15.981 20.6728 15.9631 20.6749 15.9441 20.6781C15.9325 20.6802 15.9209 20.6834 15.9093 20.6865C15.7364 20.7319 15.5202 20.8637 15.4221 20.5758C15.3947 20.483 15.4052 20.4925 15.343 20.5589C15.2418 20.6802 15.1838 20.8268 15.2702 20.9649C15.3588 21.0936 15.4854 21.1474 15.6193 21.1052C15.7047 21.0778 15.7849 21.0282 15.9937 21.0229H15.9968C16.078 21.0219 16.1466 21.0345 16.2088 21.0504C16.3322 21.083 16.4271 21.1316 16.5378 21.1094C16.6296 21.0894 16.7087 21.0303 16.7551 20.9491C16.8352 20.8078 16.7667 20.6665 16.6475 20.5252C16.618 20.4872 16.6127 20.521 16.6127 20.5442L16.6138 20.5431Z" fill="#110F23"/>
<path d="M15.7321 20.618C15.7659 20.6106 15.7986 20.6011 15.8323 20.5916C15.8629 20.5832 15.8924 20.5737 15.923 20.5631C15.9483 20.5589 15.9736 20.5568 15.9989 20.5568C16.0517 20.5568 16.1044 20.5621 16.155 20.5779C16.2331 20.5969 16.3037 20.6233 16.3691 20.6169C16.4155 20.6106 16.4566 20.5874 16.4851 20.5505C16.5568 20.4651 16.541 20.3628 16.4661 20.2731L16.1519 19.8429C16.1434 19.8302 16.1265 19.8144 16.1086 19.826C16.0738 19.8429 16.0359 19.8492 15.9989 19.846C15.9715 19.8439 15.9441 19.8365 15.9188 19.8228C15.8977 19.8218 15.8787 19.8323 15.8692 19.8513L15.5877 20.2394C15.5803 20.2478 15.5729 20.2573 15.5655 20.2668C15.5392 20.3027 15.5181 20.3417 15.5043 20.3839C15.4917 20.4366 15.5022 20.4925 15.5339 20.5368C15.5771 20.6022 15.6562 20.6338 15.7332 20.6169L15.7321 20.618Z" fill="#110F23"/>
<path d="M15.9979 19.3831C15.9083 19.3926 15.8387 19.4674 15.8387 19.5592C15.8387 19.6509 15.9083 19.7258 15.9979 19.7353C16.0042 19.7353 16.0095 19.7374 16.0158 19.7374C16.1139 19.7374 16.194 19.6583 16.194 19.5602C16.194 19.4622 16.1139 19.382 16.0158 19.382C16.0095 19.382 16.0032 19.3831 15.9968 19.3841L15.9979 19.3831Z" fill="#110F23"/>
<path d="M15.8481 17.8181C15.9209 17.8729 15.9736 17.9489 15.9979 18.0364C15.9979 18.0364 15.9979 18.0385 15.9989 18.0406C16.0232 17.952 16.0759 17.8729 16.1497 17.8181C16.1698 17.8002 16.1635 17.7949 16.1455 17.7727C16.0981 17.7095 16.0496 17.642 15.9989 17.5608L15.9979 17.5629C15.9473 17.643 15.8998 17.7105 15.8524 17.7727C15.8334 17.7949 15.8271 17.8002 15.8481 17.8181Z" fill="#110F23"/>
<path d="M17.6557 18.8684C17.6283 18.8568 17.6219 18.8526 17.6103 18.8779C17.5798 18.9655 17.5207 19.0393 17.4427 19.0878C17.5344 19.0846 17.6251 19.1121 17.7 19.1669C17.7232 19.1817 17.7263 19.1732 17.7422 19.149C17.7864 19.0888 17.835 19.0245 17.893 18.9549C17.8951 18.9518 17.8982 18.9486 17.9003 18.9465C17.894 18.9444 17.8877 18.9433 17.8814 18.9412C17.798 18.918 17.7242 18.8938 17.6557 18.8695V18.8684Z" fill="#110F23"/>
<path d="M14.5689 19.0899C14.492 19.0393 14.434 18.9644 14.4044 18.8769C14.3949 18.8516 14.3876 18.8568 14.3601 18.8674C14.2853 18.8927 14.2062 18.918 14.1134 18.9412C14.1745 19.015 14.2241 19.0815 14.2684 19.1468C14.2842 19.1711 14.2874 19.1785 14.3106 19.1648C14.3865 19.112 14.4772 19.0857 14.5689 19.0899Z" fill="#110F23"/>
<path d="M17.1474 20.8489C17.0556 20.8479 16.966 20.8173 16.8932 20.7603C16.927 20.8458 16.9322 20.9407 16.9059 21.0293C16.8996 21.0577 16.908 21.0577 16.9365 21.0641C17.0124 21.0862 17.0915 21.1105 17.1811 21.1453C17.1727 21.0493 17.1706 20.967 17.1706 20.888C17.1716 20.8584 17.1748 20.851 17.1474 20.8489Z" fill="#110F23"/>
<path d="M14.8748 20.8489C14.8474 20.851 14.8516 20.8595 14.8516 20.888C14.8537 20.967 14.8537 21.0493 14.8474 21.1453C14.9359 21.1094 15.015 21.083 15.0899 21.0588C15.1184 21.0504 15.1268 21.0504 15.1194 21.024C15.092 20.9365 15.0941 20.8426 15.1268 20.7561C15.0551 20.8141 14.9665 20.8468 14.8737 20.8479L14.8748 20.8489Z" fill="#110F23"/>
<path d="M27.0867 11.4073C26.4804 9.94358 25.6051 8.6338 24.4851 7.5149C23.3651 6.39494 22.0554 5.51964 20.5916 4.91326C19.1279 4.30688 17.584 4 16 4C14.3802 4 12.8089 4.31743 11.3293 4.94384C9.90034 5.54812 8.61693 6.41392 7.5149 7.51595C6.41287 8.61798 5.54811 9.9014 4.94384 11.3303C4.31743 12.8089 4 14.3802 4 16C4 17.6198 4.31743 19.1911 4.94384 20.6707C5.54811 22.0997 6.41392 23.3831 7.51595 24.4851C8.61798 25.5871 9.9014 26.4519 11.3303 27.0562C12.8099 27.6815 14.3812 27.9989 16.0011 27.9989C17.6209 27.9989 19.1922 27.6815 20.6718 27.0551C22.1007 26.4508 23.3841 25.585 24.4862 24.483C25.5882 23.381 26.4529 22.0975 27.0572 20.6686C27.6805 19.1964 27.9968 17.6325 28 16.0211V15.9747C27.9968 14.3992 27.69 12.8626 27.0867 11.4063V11.4073ZM27.5402 16.1909C27.5402 16.2109 27.5392 16.231 27.5381 16.2499C27.5381 16.29 27.536 16.3301 27.5349 16.3702C27.5328 16.4292 27.5307 16.4872 27.5286 16.5452C27.5265 16.5811 27.5254 16.6169 27.5233 16.6517C27.5202 16.7161 27.516 16.7793 27.5107 16.8437C27.5086 16.8721 27.5065 16.9017 27.5044 16.9301C27.4991 17.0029 27.4917 17.0746 27.4854 17.1474C27.4833 17.1664 27.4811 17.1864 27.479 17.2054C27.4706 17.2897 27.4611 17.3731 27.4506 17.4574C27.4506 17.4637 27.4485 17.4711 27.4485 17.4775C27.1279 20.0011 25.99 22.3338 24.1624 24.1614C21.9826 26.3412 19.0836 27.5423 16.0011 27.5423C12.9185 27.5423 10.0195 26.3422 7.8397 24.1624C5.65779 21.9826 4.45663 19.0836 4.45663 16.0011C4.45663 12.9185 5.65674 10.0195 7.83654 7.8397C10.0174 5.65885 12.9154 4.45769 15.9989 4.45769C17.5228 4.45769 19.0087 4.75297 20.4166 5.33615C21.8244 5.91933 23.0846 6.76088 24.1613 7.83865C25.2381 8.91537 26.0807 10.1756 26.6628 11.5824C27.246 12.9892 27.5413 14.4761 27.5413 15.9989V16.1898H27.5392L27.5402 16.1909Z" fill="#110F23"/>
<path d="M23.8903 8.10968C22.8484 7.06776 21.6304 6.25363 20.27 5.69048C19.4221 5.33931 18.5457 5.09676 17.6483 4.96283C17.6293 4.95966 17.6093 4.95755 17.5903 4.95439C17.5217 4.9449 17.4543 4.93541 17.3857 4.92697C17.3456 4.9217 17.3045 4.91748 17.2634 4.91326C17.2149 4.90799 17.1674 4.90166 17.1189 4.89744C17.0556 4.89112 16.9924 4.88584 16.9291 4.88057C16.9017 4.87846 16.8742 4.8753 16.8479 4.87319C16.7572 4.86686 16.6665 4.86053 16.5747 4.85631H16.5726C16.3828 4.84682 16.1909 4.84155 15.9989 4.84155C13.0398 4.84155 10.2009 6.0174 8.10862 8.11073C6.01635 10.203 4.8405 13.0419 4.84155 16.0021C4.84155 21.7664 9.21276 26.5088 14.8199 27.0983C14.8357 27.1004 14.8526 27.1026 14.8684 27.1036C14.9275 27.1099 14.9876 27.1142 15.0477 27.1194C15.0846 27.1226 15.1205 27.1258 15.1574 27.1289C15.1911 27.131 15.2249 27.1331 15.2586 27.1353C15.5043 27.1511 15.7511 27.1606 16 27.1595C16.3554 27.1595 16.7076 27.1426 17.0567 27.1099C17.0767 27.1078 17.0968 27.1068 17.1168 27.1047C17.1748 27.0994 17.2317 27.092 17.2897 27.0857C17.3267 27.0815 17.3646 27.0772 17.4015 27.073C17.4437 27.0678 17.4859 27.0614 17.5281 27.0562C17.5808 27.0488 17.6335 27.0424 17.6863 27.034C17.7137 27.0298 17.7411 27.0256 17.7685 27.0214C17.836 27.0108 17.9035 27.0003 17.9699 26.9876C17.9837 26.9855 17.9963 26.9823 18.009 26.9802C19.6436 26.6828 21.1548 26.0301 22.4582 25.1041C22.4688 25.0968 22.4793 25.0883 22.4898 25.0809C22.5479 25.0398 22.6048 24.9976 22.6617 24.9554C22.706 24.9217 22.7514 24.888 22.7957 24.8542C22.8178 24.8373 22.841 24.8194 22.8632 24.8025C23.2217 24.522 23.5645 24.2183 23.8914 23.8914C24.2826 23.5001 24.6412 23.0846 24.9649 22.6491C24.9881 22.6185 25.0103 22.5869 25.0335 22.5563C25.0609 22.5183 25.0883 22.4814 25.1157 22.4434C25.1569 22.3854 25.1969 22.3274 25.236 22.2694C25.2444 22.2578 25.2528 22.2462 25.2602 22.2336C25.8582 21.3477 26.3317 20.3702 26.6565 19.3282C26.6575 19.324 26.6596 19.3198 26.6607 19.3156C26.6828 19.2439 26.7039 19.1711 26.725 19.0983C26.7303 19.0783 26.7366 19.0583 26.7419 19.0382C26.7577 18.9823 26.7725 18.9254 26.7872 18.8695C26.7967 18.8326 26.8073 18.7957 26.8168 18.7588C26.8263 18.7208 26.8357 18.6818 26.8452 18.6428C26.8589 18.5869 26.8716 18.532 26.8843 18.4761C26.8885 18.4572 26.8927 18.4382 26.8969 18.4192C27.0699 17.6335 27.1584 16.8236 27.1584 16V15.9083C27.1468 14.4677 26.8611 13.063 26.3095 11.73C25.7464 10.3696 24.9322 9.1516 23.8903 8.10968ZM23.5666 23.5666C21.546 25.5882 18.8589 26.7008 16 26.7008C13.1421 26.7008 10.455 25.5882 8.43448 23.5666C6.41287 21.546 5.30029 18.8589 5.30029 16C5.30029 14.5879 5.57448 13.2096 6.11442 11.9051C6.65542 10.6006 7.4358 9.43211 8.43448 8.43343C9.43317 7.43475 10.6006 6.65436 11.9051 6.11337C13.2096 5.57237 14.5879 5.29924 16 5.29924C18.8579 5.29924 21.5449 6.41181 23.5655 8.43343C25.5871 10.454 26.6997 13.141 26.6997 16C26.6997 18.8589 25.5871 21.5449 23.5655 23.5666H23.5666Z" fill="#110F23"/>
<path d="M24.6074 15.5782C24.4798 15.5001 24.2932 15.5043 24.1529 15.5813C24.0907 15.6151 24.0411 15.6678 24.0084 15.7311C23.9779 15.7891 23.9599 15.8534 23.9557 15.9188C23.9557 16.0063 23.9905 16.0896 24.0496 16.1529C24.1824 16.2932 24.4176 16.328 24.5737 16.1877C24.5674 16.3638 24.4155 16.599 24.1086 16.3543L23.9842 16.5389C24.1033 16.6359 24.2573 16.6791 24.4092 16.6591C24.4693 16.6538 24.5283 16.6349 24.58 16.6053C24.7498 16.503 24.811 16.2953 24.8152 16.0759C24.8152 15.9968 24.8078 15.9188 24.7888 15.8429C24.7635 15.7353 24.6971 15.6414 24.6043 15.5803L24.6074 15.5782ZM24.5853 15.903V15.9061C24.5811 16.0053 24.4967 16.0823 24.3965 16.078C24.3575 16.078 24.3195 16.0707 24.2837 16.0559C24.271 16.0496 24.2594 16.0422 24.2489 16.0327C24.1751 15.9705 24.1656 15.8597 24.2278 15.7859C24.251 15.7596 24.2816 15.7406 24.3153 15.73C24.3522 15.7195 24.3923 15.7184 24.4292 15.7269C24.5073 15.7448 24.5874 15.806 24.5842 15.9019L24.5853 15.903Z" fill="#110F23"/>
<path d="M25.6167 16.6602H25.836V16.4071H25.9763L25.9742 16.2151H25.8339V15.5307H25.6314L25.0314 16.2383L25.062 16.406H25.6167V16.6602ZM25.6146 16.2151L25.2961 16.213L25.6146 15.8576V16.2151Z" fill="#110F23"/>
</svg>
