<svg width="32" height="32" viewBox="0 0 32 32" fill="none" xmlns="http://www.w3.org/2000/svg">
<path d="M16.0002 18.5325L8.57524 14.2175C7.69024 15.845 7.11274 17.4425 7.07524 19.3025C7.00024 24.2275 11.0752 28.22 15.9927 28.22C17.1644 28.2209 18.3248 27.991 19.4076 27.5433C20.4904 27.0956 21.4744 26.4389 22.3032 25.6107C23.1321 24.7826 23.7896 23.7992 24.2382 22.7168C24.6868 21.6344 24.9177 20.4741 24.9177 19.3025C24.9177 17.6125 24.4327 16.0075 23.4452 14.205L16.0002 18.5325Z" fill="#110F23"/>
<path d="M15.9997 5.48005L20.3472 12.0201L15.9997 14.5476L11.6497 12.0201L15.9997 5.48005ZM15.9997 2.86755L9.59473 12.5001L15.9997 16.2201L22.4022 12.5001L15.9997 2.86755V2.86755Z" fill="#110F23"/>
</svg>
