<svg width="32" height="32" viewBox="0 0 32 32" fill="none" xmlns="http://www.w3.org/2000/svg">
<path d="M27.0569 11.329C26.4525 9.89995 25.5873 8.61672 24.4853 7.51469C23.3833 6.41266 22.1 5.54752 20.6712 4.94314C19.1915 4.31733 17.6199 4 16.0001 4C14.3803 4 12.8087 4.31733 11.329 4.94314C9.89995 5.54752 8.61672 6.41266 7.51469 7.51469C6.41266 8.61672 5.54752 9.89995 4.94314 11.329C4.31733 12.8085 4 14.3801 4 15.9999C4 17.6197 4.31733 19.1913 4.94314 20.671C5.54752 22.1 6.41266 23.3833 7.51469 24.4853C8.61672 25.5873 9.89995 26.4525 11.329 27.0569C12.8087 27.6827 14.3803 28 16.0001 28C17.6199 28 19.1915 27.6827 20.6712 27.0569C22.1003 26.4525 23.3835 25.5873 24.4853 24.4853C25.5871 23.3833 26.4525 22.1 27.0569 20.671C27.6827 19.1913 28 17.6197 28 15.9999C28 14.3801 27.6827 12.8085 27.0569 11.3288V11.329ZM26.4463 20.4129C25.8753 21.7628 25.0579 22.9754 24.0166 24.0166C22.9754 25.0579 21.7628 25.8755 20.4129 26.4463C19.0154 27.0374 17.5306 27.3371 16.0001 27.3371C14.4696 27.3371 12.9848 27.0374 11.5874 26.4463C10.2374 25.8753 9.02487 25.0579 7.98361 24.0166C6.94235 22.9754 6.12472 21.7628 5.55393 20.4129C4.96281 19.0154 4.66316 17.5306 4.66316 16.0001C4.66316 14.4696 4.96281 12.9848 5.55393 11.5874C6.12495 10.2374 6.94235 9.02487 7.98361 7.98361C9.02487 6.94235 10.2374 6.12495 11.5874 5.55393C12.9848 4.96281 14.4696 4.66316 16.0001 4.66316C17.5306 4.66316 19.0154 4.96281 20.4129 5.55393C21.7628 6.12495 22.9754 6.94235 24.0166 7.98361C25.0579 9.02487 25.8755 10.2374 26.4463 11.5874C27.0374 12.9848 27.3371 14.4696 27.3371 16.0001C27.3371 17.5306 27.0374 19.0154 26.4463 20.4129Z" fill="#110F23"/>
<path d="M14.2698 14.8996C14.715 14.8996 15.076 14.5387 15.076 14.0935C15.076 13.6483 14.715 13.2874 14.2698 13.2874C13.8246 13.2874 13.4637 13.6483 13.4637 14.0935C13.4637 14.5387 13.8246 14.8996 14.2698 14.8996Z" fill="#110F23"/>
<path d="M18.5193 14.0935C18.5193 13.6482 18.1584 13.2874 17.7132 13.2874C17.2679 13.2874 16.907 13.6482 16.907 14.0935C16.907 14.5388 17.2679 14.8996 17.7132 14.8996C18.1584 14.8996 18.5193 14.5388 18.5193 14.0935Z" fill="#110F23"/>
<path d="M12.8819 15.8914H11.9758C11.9758 18.114 13.7775 19.9157 16.0001 19.9157C18.2227 19.9157 20.0244 18.114 20.0244 15.8914H19.1184C19.1184 17.6135 17.7222 19.0096 16.0001 19.0096C14.278 19.0096 12.8819 17.6135 12.8819 15.8914Z" fill="#110F23"/>
<path d="M26.311 14.6274L26.3199 14.6258L26.245 14.1982C26.2447 14.1969 26.2445 14.1956 26.2443 14.1943L26.1685 13.7629L26.1597 13.7645C26.0925 13.456 26.0118 13.1526 25.9186 12.8562L25.9292 12.8525L25.7791 12.441C25.7621 12.3944 25.7444 12.3475 25.7268 12.3009L25.628 12.0295L25.62 12.0324C25.5011 11.7465 25.3677 11.4621 25.2205 11.1816L25.228 11.1774L25.076 10.9151C25.0543 10.8765 25.0324 10.8378 25.0103 10.7993L24.7916 10.4199L24.7819 10.4257C24.613 10.16 24.4331 9.9026 24.2431 9.65555L24.2504 9.64936L23.6876 8.97868L23.6803 8.98487C23.4701 8.75505 23.2482 8.53341 23.0162 8.32127L23.0231 8.31287L22.6876 8.03134C22.6713 8.01764 22.6545 8.00438 22.6379 7.99068L22.3519 7.74981L22.3458 7.75711C22.0978 7.5664 21.841 7.38652 21.5772 7.21902L21.5816 7.21128L21.2026 6.99185C21.2026 6.99185 21.2022 6.99163 21.202 6.99141L20.8228 6.77242L20.8186 6.77971C20.4051 6.56249 19.9833 6.37532 19.5594 6.22196L19.1482 6.07302L18.3602 8.24172L18.7712 8.39154C19.2003 8.54799 19.6248 8.74666 20.0334 8.982L20.0473 8.98995C20.3293 9.1526 20.6016 9.33225 20.8603 9.52672L20.5244 9.92669C20.4062 9.83874 20.2847 9.75388 20.16 9.6719L20.1662 9.66107L20.1656 9.66063L20.166 9.65997L19.789 9.44252C19.789 9.44252 19.7879 9.44186 19.7875 9.44164L19.4087 9.22198L19.4023 9.23325C19.2686 9.16563 19.1338 9.10221 18.9981 9.04343L19.003 9.03017H19.0026L19.003 9.02885L18.5913 8.87969C18.5593 8.86819 18.527 8.85715 18.4947 8.84588L18.1798 8.73163L18.1756 8.74334C18.0336 8.70113 17.8895 8.66312 17.7439 8.62909L17.7461 8.61606L17.3163 8.54136C17.3163 8.54136 17.3156 8.54136 17.3154 8.54136L16.884 8.46579L16.8818 8.47861C16.7338 8.46115 16.5861 8.44811 16.439 8.43949V8.42601H16.003C16.003 8.42601 16.0016 8.42601 16.001 8.42601H15.563V8.43905C15.4158 8.44789 15.2678 8.46093 15.1197 8.47839L15.0291 7.96527C15.2932 7.93301 15.5553 7.91312 15.8127 7.90671C15.8231 7.90649 15.8333 7.90627 15.8436 7.90605C15.8962 7.90494 15.9488 7.90428 16.0012 7.90428C16.4582 7.90428 16.9313 7.94627 17.4075 8.02913L17.8378 8.10515V8.10404H17.8391L17.9133 7.67689L17.99 7.24244H17.9889V7.24112L17.5576 7.16598C17.5558 7.16576 17.5538 7.16532 17.552 7.1651C17.1821 7.09991 16.8093 7.05815 16.439 7.03958V7.02809H15.563V7.03958C15.5502 7.04025 15.5374 7.04113 15.5243 7.04179C15.4554 7.04555 15.3862 7.05019 15.317 7.05549C15.3098 7.05616 15.3025 7.0566 15.2949 7.05726C15.1555 7.06853 15.0158 7.0829 14.8762 7.10079L14.7794 6.55254C15.1882 6.49951 15.5975 6.47255 16.0008 6.47255C16.5479 6.47255 17.1046 6.52161 17.6552 6.61862L18.0866 6.69441L18.2384 5.83171L17.8071 5.75591C17.3525 5.67591 16.894 5.62575 16.4385 5.60608V5.59658H15.5626V5.60608C15.108 5.62575 14.6495 5.67591 14.1942 5.75569L13.7624 5.83148L14.0888 7.67932L14.1626 8.1036H14.1637L14.4064 9.47854L14.8369 9.40363C15.2275 9.33579 15.6189 9.30132 16.0005 9.30132H16.0023C16.3484 9.30132 16.7026 9.33004 17.0568 9.38617L17.1636 9.40496C17.5525 9.47302 17.9321 9.57378 18.2923 9.70438L18.2941 9.70505C18.6457 9.83277 18.999 9.99851 19.3449 10.1978C19.346 10.1985 19.3471 10.1992 19.3482 10.1998H19.3486C19.6918 10.3991 20.0131 10.6241 20.3039 10.8689L20.6394 11.1514L22.1011 9.4107L21.7664 9.12895C21.4813 8.88897 21.1779 8.66578 20.8612 8.46159L20.8665 8.45231L20.4875 8.23288C20.4798 8.22846 20.4723 8.22426 20.4646 8.21984L20.105 8.01256L20.1002 8.02118C19.8953 7.91533 19.6874 7.81765 19.4777 7.72904L19.6681 7.20488C20.0378 7.35978 20.4047 7.54231 20.7631 7.74981L20.7655 7.75114C21.225 8.01632 21.6645 8.32259 22.0737 8.66114L22.1219 8.70158C22.5495 9.06177 22.9448 9.45711 23.2971 9.87675C23.6487 10.2962 23.9693 10.7538 24.2497 11.2378L24.2972 11.3197C24.5399 11.7498 24.7474 12.1911 24.9153 12.6341L24.9542 12.7409C25.1403 13.2518 25.2839 13.7916 25.3809 14.3459L25.3814 14.3481C25.4779 14.8994 25.527 15.4554 25.527 16.0008C25.527 16.5479 25.4779 17.1048 25.3809 17.6555L25.3637 17.7538C25.2722 18.2453 25.1445 18.7246 24.9827 19.1818L24.9538 19.2616C24.7701 19.7687 24.5332 20.2743 24.2495 20.764L24.2471 20.7684C23.9713 21.2457 23.6518 21.7021 23.2971 22.1248L23.2955 22.1268C23.0321 22.4393 22.7497 22.7347 22.4527 23.0087L21.5392 21.9188L21.2035 22.2015C20.8464 22.502 20.4575 22.7743 20.048 23.0105L20.0418 23.014C19.7599 23.1771 19.4701 23.3225 19.1767 23.4487L18.9981 22.9583C19.0039 22.9559 19.0096 22.9533 19.0151 22.9508C19.0366 22.9413 19.0582 22.9318 19.0797 22.9223C19.0991 22.9137 19.1186 22.9046 19.1378 22.8958C19.1804 22.8761 19.2229 22.8562 19.2655 22.8357C19.2783 22.8295 19.2912 22.8233 19.304 22.8171C19.3314 22.8039 19.3586 22.7902 19.3857 22.7767C19.3908 22.774 19.3961 22.7716 19.4012 22.769L19.4065 22.7782H19.4069L19.4081 22.78L19.7844 22.5619C19.7844 22.5619 19.7855 22.5612 19.7861 22.561L20.1656 22.3422L20.1651 22.3416L20.1658 22.3411L20.1594 22.3301C20.4087 22.1663 20.6462 21.9902 20.8681 21.8035L21.2031 21.5215L21.2024 21.5209L21.2031 21.5204L20.6389 20.8504L20.3039 21.1324C20.0085 21.3812 19.6869 21.6062 19.3488 21.8013L19.2531 21.8565C18.9371 22.0327 18.6154 22.1807 18.2952 22.2972L17.8802 22.4479H17.8798L18.1792 23.271H18.1796L18.3584 23.7616L18.3573 23.762L19.1455 25.9312L19.9687 25.632V25.6313L19.97 25.6309L19.4808 24.2842H19.481L19.4774 24.2743C19.6878 24.1852 19.8964 24.0871 20.1022 23.9808L20.1068 23.9888L20.4159 23.8104C20.4391 23.7972 20.4623 23.7841 20.4856 23.7709L20.8645 23.5514V23.551L20.8659 23.5501L20.8608 23.5413C21.0539 23.4169 21.242 23.2854 21.4238 23.1473L22.3504 24.2528L22.6861 23.9711C22.69 23.9678 22.6938 23.9645 22.6976 23.9611L23.0226 23.6887L23.0164 23.6812C23.246 23.471 23.4677 23.2491 23.6796 23.0176L23.6871 23.024L23.966 22.6916C23.966 22.6916 23.9675 22.6898 23.9682 22.689L24.2504 22.354L24.2424 22.3473C24.4334 22.0992 24.6132 21.8422 24.781 21.5781L24.7885 21.5825L25.005 21.2086C25.0061 21.2068 25.0073 21.2051 25.0084 21.2031L25.2273 20.8239L25.2201 20.8197C25.3677 20.539 25.5011 20.2546 25.6196 19.9683L25.6289 19.9716L25.7787 19.5601C25.788 19.5345 25.7966 19.5086 25.8059 19.483L25.927 19.1489L25.9192 19.146C26.0125 18.8499 26.0931 18.5465 26.1603 18.238L26.1683 18.2393L26.2271 17.905C26.233 17.8723 26.2397 17.8395 26.2454 17.8066L26.321 17.3753L26.3113 17.3735C26.3528 17.0621 26.3804 16.7501 26.3939 16.4396H26.4034V15.5637H26.3939C26.3804 15.253 26.3528 14.9405 26.311 14.6285V14.6274Z" fill="#110F23"/>
<path d="M18.2384 26.1679L17.6705 22.9519L17.5956 22.521H17.5945L17.1642 22.5959C16.7735 22.6638 16.3822 22.6982 16.0006 22.6982C15.6189 22.6982 15.2276 22.6638 14.8369 22.5959L14.8218 22.5933C14.438 22.5252 14.0632 22.4256 13.7074 22.2965L13.7032 22.295C13.3514 22.167 12.9977 22.0008 12.6514 21.8013C12.308 21.6022 11.9865 21.377 11.6956 21.1322L11.3602 20.8497L9.89841 22.5904L10.2332 22.8722C10.5185 23.1121 10.8219 23.3355 11.1386 23.5397L11.1339 23.5477L11.1361 23.549L11.1355 23.5503L11.5144 23.7698C11.5144 23.7698 11.5149 23.77 11.5153 23.7702L11.8945 23.989L11.8996 23.9801C12.1047 24.0862 12.3126 24.1837 12.5226 24.2725L12.3325 24.7953C11.9663 24.6418 11.6031 24.4612 11.2477 24.2562L11.2371 24.25C10.7585 23.9737 10.301 23.6535 9.87697 23.2978L9.81841 23.2485C9.41358 22.902 9.03813 22.5243 8.70224 22.1241L8.69539 22.116C8.3489 21.7021 8.03289 21.2506 7.75579 20.7739C7.7538 20.7704 7.75225 20.7667 7.75026 20.7631C7.46741 20.2723 7.23029 19.7663 7.04533 19.2591C7.04445 19.2567 7.04335 19.2547 7.04246 19.2523C6.85772 18.744 6.71519 18.2068 6.6184 17.6555C6.6184 17.6553 6.6184 17.655 6.6184 17.6546C6.52161 17.1028 6.47255 16.5464 6.47255 16.0006C6.47255 15.4536 6.52161 14.8972 6.6184 14.3467C6.6184 14.3465 6.6184 14.3461 6.6184 14.3459C6.71563 13.7919 6.85905 13.252 7.04511 12.7413C7.04511 12.7409 7.04533 12.7407 7.04556 12.7402C7.22919 12.2331 7.4663 11.7275 7.74982 11.2378C7.75026 11.2371 7.75048 11.2364 7.75092 11.2358C8.02958 10.7551 8.34801 10.3001 8.69738 9.88316L8.7018 9.87785C8.74224 9.8299 8.78312 9.78261 8.82445 9.73532C8.83638 9.72162 8.84831 9.70814 8.86024 9.69466C8.89184 9.65886 8.92389 9.62328 8.95593 9.58793C8.9672 9.57555 8.97847 9.56318 8.98974 9.5508C9.03195 9.50506 9.0746 9.45954 9.11747 9.41446C9.12365 9.40805 9.13006 9.40164 9.13625 9.39501C9.17359 9.35634 9.21116 9.31789 9.24895 9.27988C9.26199 9.26684 9.27502 9.25381 9.28806 9.24077C9.32276 9.20629 9.35767 9.17204 9.39281 9.13823C9.40319 9.12829 9.41358 9.11812 9.42396 9.10818C9.46485 9.06907 9.50617 9.03039 9.54771 8.99216L10.461 10.0818L10.7967 9.79918C11.1416 9.50882 11.5162 9.24541 11.9104 9.01493L11.9518 8.99106C12.2355 8.82687 12.527 8.68036 12.8226 8.5533L13.0012 9.04343C12.8664 9.10199 12.732 9.16519 12.5983 9.23281L12.5924 9.22265L12.5915 9.22331L12.5908 9.22243L12.2121 9.44208C12.2121 9.44208 12.2099 9.44341 12.209 9.44407L11.8338 9.66063L11.8402 9.6719C11.5929 9.83432 11.3556 10.0104 11.1313 10.1994L10.7963 10.4814L11.3604 11.1514L11.6954 10.8694C11.9858 10.625 12.3067 10.4003 12.649 10.2016L12.6509 10.2005C12.9985 9.99983 13.3541 9.83322 13.7077 9.70483L14.1198 9.55522L13.6414 8.24149L13.6425 8.24105L12.8542 6.07191L12.0311 6.37112V6.37178L12.0298 6.37244L12.5228 7.72904C12.3128 7.81788 12.1047 7.91577 11.8994 8.02184L11.8945 8.01322L11.5151 8.23199C11.5151 8.23199 11.5142 8.23243 11.5138 8.23288L11.1357 8.45187V8.45231L11.1344 8.45319L11.1392 8.46159C10.9461 8.586 10.758 8.71749 10.5762 8.8556L10.2124 8.42159H10.2126L9.64959 7.75026H9.64936L9.31392 8.03178C8.96543 8.32436 8.63241 8.64412 8.32039 8.98531L8.31266 8.97891L8.03113 9.31435C8.02936 9.31656 8.02759 9.31877 8.02582 9.32076L7.7496 9.6487L7.75733 9.65533C7.47956 10.0166 7.223 10.3998 6.99164 10.7989L6.77198 11.1779L6.78016 11.1825C6.56293 11.5955 6.37598 12.0172 6.22262 12.4403C6.22262 12.4408 6.2224 12.441 6.22218 12.4414C6.01888 12.9999 5.86198 13.5892 5.75591 14.1932C5.75591 14.1936 5.75569 14.194 5.75569 14.1945C5.65006 14.7951 5.59637 15.4028 5.59637 16.0008C5.59637 16.5974 5.64984 17.2051 5.75569 17.8071C5.75569 17.8077 5.75591 17.8082 5.75614 17.8086C5.86221 18.4126 6.0191 19.0019 6.2224 19.5603C6.22395 19.5647 6.22594 19.5689 6.22771 19.5734C6.38107 19.9921 6.56669 20.4095 6.78148 20.8188L6.77242 20.8241L6.99208 21.2031C7.22322 21.602 7.47978 21.9849 7.75733 22.346L7.75004 22.3522L8.0245 22.6792C8.02671 22.6821 8.02914 22.6848 8.03135 22.6876L8.31288 23.0231L8.32039 23.0169C8.53076 23.2467 8.75263 23.4686 8.98466 23.6807L8.97891 23.6876L9.25447 23.9187C9.27436 23.9357 9.29381 23.953 9.3137 23.9698L9.6487 24.252L9.65599 24.2433C9.90393 24.434 10.1607 24.6139 10.4246 24.7814L10.4201 24.7892L10.7991 25.0086C10.8031 25.0108 10.8071 25.0132 10.8111 25.0154L11.179 25.2278L11.1832 25.2205C11.5966 25.4377 12.0185 25.6249 12.4421 25.7783L12.8534 25.9272L13.3417 24.5834L13.3435 24.5841L13.6434 23.7612L13.6409 23.7603L13.6416 23.7585L13.2306 23.6087C12.7961 23.4505 12.3661 23.2487 11.9524 23.0092L11.817 22.9307C11.5834 22.7897 11.3571 22.6375 11.1401 22.4746L11.476 22.0746C11.5942 22.1626 11.7162 22.2477 11.841 22.3296L11.8344 22.3411L12.2138 22.5599C12.2138 22.5599 12.2147 22.5604 12.2152 22.5606L12.5919 22.7791L12.5986 22.7676C12.7327 22.8355 12.8675 22.8989 13.0027 22.9577L12.9979 22.9709L13.404 23.1181C13.4058 23.1188 13.4076 23.1194 13.4093 23.1201L13.821 23.2695L13.8257 23.2564C13.9675 23.2986 14.1114 23.3367 14.257 23.3707L14.2548 23.3837L14.6862 23.4589C14.6862 23.4589 14.6868 23.4589 14.6873 23.4589L15.1171 23.5342L15.1193 23.5214C15.2676 23.5389 15.4158 23.5519 15.5632 23.5607V23.5742H16.439V23.5612C16.4505 23.5605 16.462 23.5596 16.4735 23.559C16.4854 23.5583 16.4975 23.5574 16.5095 23.5565C16.5554 23.5534 16.6016 23.5499 16.6476 23.5459C16.6507 23.5457 16.6536 23.5455 16.6566 23.5453C16.7057 23.5408 16.7548 23.536 16.8038 23.5307C16.8153 23.5293 16.8268 23.5282 16.8383 23.5269C16.8531 23.5254 16.8677 23.5238 16.8823 23.5221L16.9729 24.0352C16.7068 24.0677 16.443 24.0875 16.1835 24.0937C16.1769 24.0937 16.1703 24.094 16.1636 24.0942C16.1093 24.0953 16.0549 24.0959 16.001 24.0959C15.544 24.0959 15.0709 24.054 14.5947 23.9711L14.1633 23.896L14.0131 24.7589L14.4444 24.834C14.8201 24.8994 15.1946 24.9412 15.563 24.9602V24.9719H16.001C16.003 24.9719 16.0048 24.9719 16.0067 24.9719H16.439V24.9604C16.5249 24.956 16.6111 24.9505 16.6973 24.9436C16.6986 24.9436 16.6997 24.9436 16.7011 24.9434C16.8425 24.9321 16.9841 24.9175 17.1256 24.8994L17.2224 25.4477C16.8135 25.5007 16.4043 25.5277 16.001 25.5277H15.999C15.4523 25.5277 14.8963 25.4784 14.3463 25.3816L13.9149 25.3058L13.7631 26.1685L14.1945 26.2443C14.649 26.3243 15.1076 26.3745 15.5628 26.3941V26.4036H15.9968C15.9981 26.4036 15.9995 26.4036 16.0006 26.4036H16.4385V26.3941C16.7495 26.3807 17.0621 26.353 17.3744 26.3113L17.3759 26.3206L18.2384 26.1687V26.1679Z" fill="#110F23"/>
</svg>
