<svg width="94" height="100" viewBox="0 0 94 100" fill="none" xmlns="http://www.w3.org/2000/svg">
<mask id="path-1-inside-1_1253_27516" fill="white">
<path d="M47 33.3333H52.875V27.7778H47M35.25 44.4444H41.125V38.8889H47V33.3333H41.125V27.7778H35.25V22.2222H41.125V27.7778H47V22.2222H52.875V27.7778H58.75V33.3333H64.625V27.7778H70.5V16.6667H76.375V11.1111H17.625V16.6667H23.5V22.2222H29.375V33.3333H35.25M41.125 50H47V44.4444H41.125M47 55.5556H52.875V50H47M94 100H0V83.3333H5.875V77.7778H11.75V66.6667H17.625V55.5556H23.5V44.4444H17.625V33.3333H11.75V22.2222H5.875V16.6667H0V0H94V16.6667H88.125V22.2222H82.25V33.3333H76.375V44.4444H70.5V55.5556H76.375V66.6667H82.25V77.7778H88.125V83.3333H94M58.75 44.4444V33.3333H52.875V38.8889H47V44.4444M76.375 88.8889V83.3333H70.5V72.2222H64.625V61.1111H58.75V55.5556H52.875V66.6667H58.75V77.7778H64.625V83.3333H29.375V77.7778H35.25V66.6667H41.125V61.1111H47V55.5556H35.25V61.1111H29.375V72.2222H23.5V83.3333H17.625V88.8889H76.375Z"/>
</mask>
<path d="M47 33.3333H52.875V27.7778H47M35.25 44.4444H41.125V38.8889H47V33.3333H41.125V27.7778H35.25V22.2222H41.125V27.7778H47V22.2222H52.875V27.7778H58.75V33.3333H64.625V27.7778H70.5V16.6667H76.375V11.1111H17.625V16.6667H23.5V22.2222H29.375V33.3333H35.25M41.125 50H47V44.4444H41.125M47 55.5556H52.875V50H47M94 100H0V83.3333H5.875V77.7778H11.75V66.6667H17.625V55.5556H23.5V44.4444H17.625V33.3333H11.75V22.2222H5.875V16.6667H0V0H94V16.6667H88.125V22.2222H82.25V33.3333H76.375V44.4444H70.5V55.5556H76.375V66.6667H82.25V77.7778H88.125V83.3333H94M58.75 44.4444V33.3333H52.875V38.8889H47V44.4444M76.375 88.8889V83.3333H70.5V72.2222H64.625V61.1111H58.75V55.5556H52.875V66.6667H58.75V77.7778H64.625V83.3333H29.375V77.7778H35.25V66.6667H41.125V61.1111H47V55.5556H35.25V61.1111H29.375V72.2222H23.5V83.3333H17.625V88.8889H76.375Z" fill="url(#paint0_linear_1253_27516)"/>
<path d="M41.125 38.8889V37.8889H40.125V38.8889H41.125ZM41.125 33.3333H40.125V34.3333H41.125V33.3333ZM35.25 27.7778H34.25V28.7778H35.25V27.7778ZM35.25 22.2222V21.2222H34.25V22.2222H35.25ZM41.125 22.2222H42.125V21.2222H41.125V22.2222ZM47 22.2222V21.2222H46V22.2222H47ZM52.875 22.2222H53.875V21.2222H52.875V22.2222ZM58.75 27.7778H59.75V26.7778H58.75V27.7778ZM64.625 33.3333V34.3333H65.625V33.3333H64.625ZM64.625 27.7778V26.7778H63.625V27.7778H64.625ZM70.5 27.7778V28.7778H71.5V27.7778H70.5ZM70.5 16.6667V15.6667H69.5V16.6667H70.5ZM76.375 16.6667V17.6667H77.375V16.6667H76.375ZM76.375 11.1111H77.375V10.1111H76.375V11.1111ZM17.625 11.1111V10.1111H16.625V11.1111H17.625ZM17.625 16.6667H16.625V17.6667H17.625V16.6667ZM23.5 16.6667H24.5V15.6667H23.5V16.6667ZM23.5 22.2222H22.5V23.2222H23.5V22.2222ZM29.375 22.2222H30.375V21.2222H29.375V22.2222ZM29.375 33.3333H28.375V34.3333H29.375V33.3333ZM52.875 50H53.875V49H52.875V50ZM0 100H-1V101H0V100ZM0 83.3333V82.3333H-1V83.3333H0ZM5.875 83.3333V84.3333H6.875V83.3333H5.875ZM5.875 77.7778V76.7778H4.875V77.7778H5.875ZM11.75 77.7778V78.7778H12.75V77.7778H11.75ZM11.75 66.6667V65.6667H10.75V66.6667H11.75ZM17.625 66.6667V67.6667H18.625V66.6667H17.625ZM17.625 55.5556V54.5556H16.625V55.5556H17.625ZM23.5 55.5556V56.5556H24.5V55.5556H23.5ZM23.5 44.4444H24.5V43.4444H23.5V44.4444ZM17.625 44.4444H16.625V45.4444H17.625V44.4444ZM17.625 33.3333H18.625V32.3333H17.625V33.3333ZM11.75 33.3333H10.75V34.3333H11.75V33.3333ZM11.75 22.2222H12.75V21.2222H11.75V22.2222ZM5.875 22.2222H4.875V23.2222H5.875V22.2222ZM5.875 16.6667H6.875V15.6667H5.875V16.6667ZM0 16.6667H-1V17.6667H0V16.6667ZM0 0V-1H-1V0H0ZM94 0H95V-1H94V0ZM94 16.6667V17.6667H95V16.6667H94ZM88.125 16.6667V15.6667H87.125V16.6667H88.125ZM88.125 22.2222V23.2222H89.125V22.2222H88.125ZM82.25 22.2222V21.2222H81.25V22.2222H82.25ZM82.25 33.3333V34.3333H83.25V33.3333H82.25ZM76.375 33.3333V32.3333H75.375V33.3333H76.375ZM76.375 44.4444V45.4444H77.375V44.4444H76.375ZM70.5 44.4444V43.4444H69.5V44.4444H70.5ZM70.5 55.5556H69.5V56.5556H70.5V55.5556ZM76.375 55.5556H77.375V54.5556H76.375V55.5556ZM76.375 66.6667H75.375V67.6667H76.375V66.6667ZM82.25 66.6667H83.25V65.6667H82.25V66.6667ZM82.25 77.7778H81.25V78.7778H82.25V77.7778ZM88.125 77.7778H89.125V76.7778H88.125V77.7778ZM88.125 83.3333H87.125V84.3333H88.125V83.3333ZM52.875 38.8889V39.8889H53.875V38.8889H52.875ZM76.375 88.8889V89.8889H77.375V88.8889H76.375ZM76.375 83.3333H77.375V82.3333H76.375V83.3333ZM70.5 83.3333H69.5V84.3333H70.5V83.3333ZM70.5 72.2222H71.5V71.2222H70.5V72.2222ZM64.625 72.2222H63.625V73.2222H64.625V72.2222ZM64.625 61.1111H65.625V60.1111H64.625V61.1111ZM58.75 61.1111H57.75V62.1111H58.75V61.1111ZM58.75 55.5556H59.75V54.5556H58.75V55.5556ZM52.875 66.6667H51.875V67.6667H52.875V66.6667ZM58.75 66.6667H59.75V65.6667H58.75V66.6667ZM58.75 77.7778H57.75V78.7778H58.75V77.7778ZM64.625 77.7778H65.625V76.7778H64.625V77.7778ZM64.625 83.3333V84.3333H65.625V83.3333H64.625ZM29.375 83.3333H28.375V84.3333H29.375V83.3333ZM29.375 77.7778V76.7778H28.375V77.7778H29.375ZM35.25 77.7778V78.7778H36.25V77.7778H35.25ZM35.25 66.6667V65.6667H34.25V66.6667H35.25ZM41.125 66.6667V67.6667H42.125V66.6667H41.125ZM41.125 61.1111V60.1111H40.125V61.1111H41.125ZM47 61.1111V62.1111H48V61.1111H47ZM35.25 55.5556V54.5556H34.25V55.5556H35.25ZM35.25 61.1111V62.1111H36.25V61.1111H35.25ZM29.375 61.1111V60.1111H28.375V61.1111H29.375ZM29.375 72.2222V73.2222H30.375V72.2222H29.375ZM23.5 72.2222V71.2222H22.5V72.2222H23.5ZM23.5 83.3333V84.3333H24.5V83.3333H23.5ZM17.625 83.3333V82.3333H16.625V83.3333H17.625ZM17.625 88.8889H16.625V89.8889H17.625V88.8889ZM47 34.3333H52.875V32.3333H47V34.3333ZM53.875 33.3333V27.7778H51.875V33.3333H53.875ZM52.875 26.7778H47V28.7778H52.875V26.7778ZM35.25 45.4444H41.125V43.4444H35.25V45.4444ZM42.125 44.4444V38.8889H40.125V44.4444H42.125ZM41.125 39.8889H47V37.8889H41.125V39.8889ZM48 38.8889V33.3333H46V38.8889H48ZM47 32.3333H41.125V34.3333H47V32.3333ZM42.125 33.3333V27.7778H40.125V33.3333H42.125ZM41.125 26.7778H35.25V28.7778H41.125V26.7778ZM36.25 27.7778V22.2222H34.25V27.7778H36.25ZM35.25 23.2222H41.125V21.2222H35.25V23.2222ZM40.125 22.2222V27.7778H42.125V22.2222H40.125ZM41.125 28.7778H47V26.7778H41.125V28.7778ZM48 27.7778V22.2222H46V27.7778H48ZM47 23.2222H52.875V21.2222H47V23.2222ZM51.875 22.2222V27.7778H53.875V22.2222H51.875ZM52.875 28.7778H58.75V26.7778H52.875V28.7778ZM57.75 27.7778V33.3333H59.75V27.7778H57.75ZM58.75 34.3333H64.625V32.3333H58.75V34.3333ZM65.625 33.3333V27.7778H63.625V33.3333H65.625ZM64.625 28.7778H70.5V26.7778H64.625V28.7778ZM71.5 27.7778V16.6667H69.5V27.7778H71.5ZM70.5 17.6667H76.375V15.6667H70.5V17.6667ZM77.375 16.6667V11.1111H75.375V16.6667H77.375ZM76.375 10.1111H17.625V12.1111H76.375V10.1111ZM16.625 11.1111V16.6667H18.625V11.1111H16.625ZM17.625 17.6667H23.5V15.6667H17.625V17.6667ZM22.5 16.6667V22.2222H24.5V16.6667H22.5ZM23.5 23.2222H29.375V21.2222H23.5V23.2222ZM28.375 22.2222V33.3333H30.375V22.2222H28.375ZM29.375 34.3333H35.25V32.3333H29.375V34.3333ZM41.125 51H47V49H41.125V51ZM48 50V44.4444H46V50H48ZM47 43.4444H41.125V45.4444H47V43.4444ZM47 56.5556H52.875V54.5556H47V56.5556ZM53.875 55.5556V50H51.875V55.5556H53.875ZM52.875 49H47V51H52.875V49ZM94 99H0V101H94V99ZM1 100V83.3333H-1V100H1ZM0 84.3333H5.875V82.3333H0V84.3333ZM6.875 83.3333V77.7778H4.875V83.3333H6.875ZM5.875 78.7778H11.75V76.7778H5.875V78.7778ZM12.75 77.7778V66.6667H10.75V77.7778H12.75ZM11.75 67.6667H17.625V65.6667H11.75V67.6667ZM18.625 66.6667V55.5556H16.625V66.6667H18.625ZM17.625 56.5556H23.5V54.5556H17.625V56.5556ZM24.5 55.5556V44.4444H22.5V55.5556H24.5ZM23.5 43.4444H17.625V45.4444H23.5V43.4444ZM18.625 44.4444V33.3333H16.625V44.4444H18.625ZM17.625 32.3333H11.75V34.3333H17.625V32.3333ZM12.75 33.3333V22.2222H10.75V33.3333H12.75ZM11.75 21.2222H5.875V23.2222H11.75V21.2222ZM6.875 22.2222V16.6667H4.875V22.2222H6.875ZM5.875 15.6667H0V17.6667H5.875V15.6667ZM1 16.6667V0H-1V16.6667H1ZM0 1H94V-1H0V1ZM93 0V16.6667H95V0H93ZM94 15.6667H88.125V17.6667H94V15.6667ZM87.125 16.6667V22.2222H89.125V16.6667H87.125ZM88.125 21.2222H82.25V23.2222H88.125V21.2222ZM81.25 22.2222V33.3333H83.25V22.2222H81.25ZM82.25 32.3333H76.375V34.3333H82.25V32.3333ZM75.375 33.3333V44.4444H77.375V33.3333H75.375ZM76.375 43.4444H70.5V45.4444H76.375V43.4444ZM69.5 44.4444V55.5556H71.5V44.4444H69.5ZM70.5 56.5556H76.375V54.5556H70.5V56.5556ZM75.375 55.5556V66.6667H77.375V55.5556H75.375ZM76.375 67.6667H82.25V65.6667H76.375V67.6667ZM81.25 66.6667V77.7778H83.25V66.6667H81.25ZM82.25 78.7778H88.125V76.7778H82.25V78.7778ZM87.125 77.7778V83.3333H89.125V77.7778H87.125ZM88.125 84.3333H94V82.3333H88.125V84.3333ZM59.75 44.4444V33.3333H57.75V44.4444H59.75ZM58.75 32.3333H52.875V34.3333H58.75V32.3333ZM51.875 33.3333V38.8889H53.875V33.3333H51.875ZM52.875 37.8889H47V39.8889H52.875V37.8889ZM46 38.8889V44.4444H48V38.8889H46ZM77.375 88.8889V83.3333H75.375V88.8889H77.375ZM76.375 82.3333H70.5V84.3333H76.375V82.3333ZM71.5 83.3333V72.2222H69.5V83.3333H71.5ZM70.5 71.2222H64.625V73.2222H70.5V71.2222ZM65.625 72.2222V61.1111H63.625V72.2222H65.625ZM64.625 60.1111H58.75V62.1111H64.625V60.1111ZM59.75 61.1111V55.5556H57.75V61.1111H59.75ZM58.75 54.5556H52.875V56.5556H58.75V54.5556ZM51.875 55.5556V66.6667H53.875V55.5556H51.875ZM52.875 67.6667H58.75V65.6667H52.875V67.6667ZM57.75 66.6667V77.7778H59.75V66.6667H57.75ZM58.75 78.7778H64.625V76.7778H58.75V78.7778ZM63.625 77.7778V83.3333H65.625V77.7778H63.625ZM64.625 82.3333H29.375V84.3333H64.625V82.3333ZM30.375 83.3333V77.7778H28.375V83.3333H30.375ZM29.375 78.7778H35.25V76.7778H29.375V78.7778ZM36.25 77.7778V66.6667H34.25V77.7778H36.25ZM35.25 67.6667H41.125V65.6667H35.25V67.6667ZM42.125 66.6667V61.1111H40.125V66.6667H42.125ZM41.125 62.1111H47V60.1111H41.125V62.1111ZM48 61.1111V55.5556H46V61.1111H48ZM47 54.5556H35.25V56.5556H47V54.5556ZM34.25 55.5556V61.1111H36.25V55.5556H34.25ZM35.25 60.1111H29.375V62.1111H35.25V60.1111ZM28.375 61.1111V72.2222H30.375V61.1111H28.375ZM29.375 71.2222H23.5V73.2222H29.375V71.2222ZM22.5 72.2222V83.3333H24.5V72.2222H22.5ZM23.5 82.3333H17.625V84.3333H23.5V82.3333ZM16.625 83.3333V88.8889H18.625V83.3333H16.625ZM17.625 89.8889H76.375V87.8889H17.625V89.8889Z" fill="url(#paint1_linear_1253_27516)" mask="url(#path-1-inside-1_1253_27516)"/>
<defs>
<linearGradient id="paint0_linear_1253_27516" x1="47" y1="0" x2="47" y2="100" gradientUnits="userSpaceOnUse">
<stop stop-color="#F19ED2"/>
<stop offset="1" stop-color="#F86CC4"/>
</linearGradient>
<linearGradient id="paint1_linear_1253_27516" x1="47" y1="0" x2="47" y2="100" gradientUnits="userSpaceOnUse">
<stop stop-color="white"/>
<stop offset="1" stop-color="#110F13" stop-opacity="0"/>
</linearGradient>
</defs>
</svg>
