<svg width="32" height="32" viewBox="0 0 32 32" fill="none" xmlns="http://www.w3.org/2000/svg">
<path fill-rule="evenodd" clip-rule="evenodd" d="M28 5.20002C28 4.53727 27.4627 4.00001 26.8 4.00001L8.75564 4C7.96715 4 7.27721 4.11437 6.68584 4.34311C6.09447 4.58944 5.60165 4.91495 5.20741 5.31965C4.79672 5.74193 4.49282 6.21701 4.2957 6.74486C4.09858 7.29031 4.00001 7.85337 4.00001 8.43401V11.2C4.00001 12.5255 5.07453 13.6 6.40001 13.6H20.8L13.6 8.8H26.8C27.4627 8.8 28 8.26273 28 7.59999V5.20002ZM4 26.7999C4 27.4627 4.53726 28 5.19999 28H23.2444C24.0329 28 24.7228 27.8856 25.3141 27.6569C25.9056 27.4105 26.3983 27.085 26.7925 26.6803C27.2032 26.258 27.5072 25.7829 27.7043 25.2551C27.9014 24.7096 28 24.1466 28 23.5659V20.7999C28 19.4744 26.9255 18.3999 25.6 18.3999H11.2L18.3999 23.1999H5.19999C4.53726 23.1999 4 23.7372 4 24.4V26.7999Z" fill="#E6DAFE"/>
</svg>
