<svg width="32" height="32" viewBox="0 0 32 32" fill="none" xmlns="http://www.w3.org/2000/svg">
<path fill-rule="evenodd" clip-rule="evenodd" d="M8.70162 10.5856C8.70162 10.5856 6.98002 9.20956 6.86162 12.608C6.74322 15.2416 6.74642 20.3552 7.96562 22.7712C8.48082 23.68 9.16882 23.4016 10.4488 22.496C11.5624 21.6736 15.5912 17.9616 17.2968 16.3328C19.0024 14.704 22.4616 10.032 23.1816 13.2064C23.4664 14.5408 23.8184 15.6736 23.5496 18.6336C23.4664 19.5456 23.076 20.2368 21.2968 19.0016C19.9528 18.1376 18.676 17.2096 18.676 17.2096C18.676 17.2096 18.4296 16.768 17.8472 17.4848C17.3896 18.0576 17.1592 18.1984 17.892 18.6336C18.628 19.0688 22.3496 21.6352 23.7768 22.0352C24.9544 22.3776 25.6264 22.3712 25.6616 20.0576C25.6552 18.2208 25.5496 12.9632 24.8808 10.7232C24.3752 9.32796 23.6328 8.69436 22.0296 10.2624C20.4264 11.8304 15.3704 16.7328 12.6056 18.9536C10.772 20.3296 9.98802 21.5712 9.29682 19.2768C8.81042 17.5392 8.18002 12.1312 10.1704 13.1616C11.4152 13.7568 12.036 13.7536 11.5496 14.128C11.0632 14.4992 9.66482 15.7824 9.66482 15.7824C9.66482 15.7824 9.23282 16.1312 9.43442 16.8864C9.63602 17.4144 9.63602 17.6768 10.7208 16.656C11.8056 15.6352 12.6056 14.864 12.6056 14.864C12.6056 14.864 12.7784 14.592 13.2936 15.0944C13.8088 15.5968 13.892 15.7376 13.892 15.7376C13.892 15.7376 14.0296 16.112 14.58 15.4624C15.1336 14.8128 15.4888 14.416 14.4424 13.808C13.3992 13.1936 8.70162 10.5856 8.70162 10.5856Z" fill="#E6DAFE"/>
</svg>
