<svg width="32" height="32" viewBox="0 0 32 32" fill="none" xmlns="http://www.w3.org/2000/svg">
<path d="M15.9917 9.47618L13.4582 13.8281H18.5244L15.9917 9.47618Z" fill="#E6DAFE"/>
<path d="M15.9917 22.4552L18.5304 18.0926H13.4522L15.9917 22.4552Z" fill="#E6DAFE"/>
<path d="M16.0003 3C8.83183 3 3 8.83183 3 16.0003C3 23.1688 8.83183 29 16.0003 29C23.1688 29 29 23.1682 29 15.9997C29 8.83116 23.1688 3 16.0003 3ZM15.9917 6.85346L20.0504 13.8281H22.2566V14.8276H9.73005V13.8281H11.9316L15.9923 6.85346H15.9917ZM12.2128 26.2007C8.0642 24.6648 5.10764 20.6734 5.10764 15.991C5.10764 11.3086 8.0642 7.31656 12.2128 5.78131V6.85479C8.62859 8.33873 6.10715 11.8703 6.10715 15.991C6.10715 20.1117 8.62859 23.6433 12.2128 25.1272V26.2007ZM15.9917 25.0772L11.925 18.092H9.73005V17.0925H22.2573V18.092H20.057L15.9917 25.0772ZM19.7698 26.2007V25.1272C23.3541 23.6433 25.8749 20.1117 25.8749 15.991C25.8749 11.8703 23.3534 8.33873 19.7698 6.85479V5.78131C23.9178 7.31723 26.8744 11.3086 26.8744 15.991C26.8744 20.6734 23.9178 24.6648 19.7698 26.2007Z" fill="#E6DAFE"/>
</svg>
