<svg width="32" height="32" viewBox="0 0 32 32" fill="none" xmlns="http://www.w3.org/2000/svg">
<g clip-path="url(#clip0_6_4186)">
<path d="M27.6142 14.622C25.2924 11.1063 25.2149 8.55308 27.3765 6.96136L23.7006 3C23.5582 3.07696 23.4157 3.15444 23.2732 3.2314C21.266 4.2766 18.8428 4.7992 16.0046 4.80492C13.1602 4.7992 10.737 4.2766 8.72412 3.2314C8.58164 3.15444 8.43916 3.07696 8.3024 3L4.626 6.96084C6.78764 8.55256 6.71068 11.1058 4.3946 14.6215C2.96876 16.7717 2.63648 19.0165 3.39672 21.356C4.34676 24.2898 6.62748 25.8691 10.2441 26.101C12.4946 26.2435 14.4129 27.0334 16.0046 28.4764C17.5901 27.0334 19.5084 26.2435 21.759 26.101C25.3756 25.8696 27.6558 24.2898 28.6063 21.356C29.3603 19.016 29.0338 16.7712 27.6147 14.6215L27.6142 14.622ZM23.2139 8.02996L24.3839 7.29364V8.42204L23.2139 9.188V8.02996ZM4.76848 14.8654C7.12616 11.2961 7.29828 8.642 5.29108 6.91352L8.3908 3.5642C8.4324 3.58812 8.474 3.61152 8.5156 3.62972C10.5883 4.71028 13.0822 5.25108 16.0041 5.2568C17.9994 5.25108 19.7991 5.00148 21.3903 4.49656L4.38836 15.4946C4.5012 15.2866 4.63172 15.0728 4.76848 14.8654ZM5.16056 23.5535C4.81632 23.1791 4.52512 22.7636 4.28176 22.3003L5.16056 21.7361V23.5535ZM5.53444 19.7289V18.6957L6.89424 17.8522V18.4045C6.87032 18.6182 6.93584 18.6837 7.096 18.5948L8.06996 17.9417V16.95C8.02264 16.8492 7.88016 16.8429 7.64824 16.9324L6.43664 17.7046C6.15168 17.9063 5.93796 18.0015 5.78924 17.9838C5.64676 17.9718 5.56356 17.847 5.53964 17.6156L5.5334 16.0894C5.49804 15.8757 5.63428 15.674 5.93744 15.4779L8.84112 13.6787C9.0252 13.6314 9.15572 13.6371 9.24516 13.6844C9.31068 13.726 9.358 13.8035 9.39388 13.9221V14.7655L8.08712 15.5731V15.2465C8.05748 15.116 7.96232 15.0983 7.81412 15.181L7.1844 15.585C7.06584 15.6625 6.9946 15.7275 6.953 15.7868C6.9114 15.8461 6.89944 15.9116 6.9114 15.9766V16.4222C6.93532 16.5585 7.00656 16.612 7.13084 16.5647L8.4194 15.7748C8.84684 15.5788 9.16768 15.6381 9.37568 15.9412L9.39336 17.3603C9.39908 17.794 9.28052 18.0847 9.0252 18.2214L6.08564 20.1158C5.71124 20.2942 5.52716 20.1631 5.5334 19.73L5.53444 19.7289ZM9.98252 25.632C9.08604 25.5488 8.2842 25.3824 7.57128 25.1213V20.1746L9.98252 18.6187V25.6325V25.632ZM11.3127 16.7774L10.1427 17.5496V16.3916L11.3127 15.6552V16.7774ZM14.7988 27.0157C14.0505 26.57 13.2486 26.2258 12.3938 25.9944V17.0566L14.805 15.5008L14.7993 27.0157H14.7988ZM16.2298 10.0788L15.363 10.643L15.1076 10.5182L14.1337 11.1656V12.0979L14.9173 11.6466V11.3143L15.5886 10.851V12.686L14.858 13.1728V12.5789L14.1514 13.036V14.1405L14.87 13.6772V14.5263L12.1618 16.2366L12.1499 15.4051L12.7021 15.0312V12.1036L12.1322 12.4479V11.5628L16.2298 8.90252V10.0782V10.0788ZM16.5506 12.2643L17.7206 11.528V12.6502L16.5506 13.4161V12.2638V12.2643ZM19.6207 25.9882C18.7596 26.2196 17.9578 26.5643 17.2095 27.0157V13.9392L19.6207 12.3834V25.9887V25.9882ZM19.1933 11.7532C18.8371 11.943 18.6291 11.8244 18.5636 11.385V7.87552C18.5755 7.66752 18.6707 7.46576 18.8605 7.264L22.0018 5.18556C22.2155 5.08468 22.358 5.12056 22.4235 5.28072V6.3618L21.2 7.1756V6.9858C21.188 6.8376 21.0928 6.83136 20.915 6.97384L20.0955 7.57964C20.0362 7.63892 20.0003 7.72212 19.9889 7.823L20.0185 9.61648C20.0242 9.75896 20.0362 9.84788 20.0658 9.89572C20.1017 9.955 20.1667 9.96124 20.2556 9.9134L21.0278 9.39652V8.369L22.4235 7.51984V9.1412C22.358 9.50364 22.1978 9.79432 21.9482 10.008L19.1928 11.7542L19.1933 11.7532ZM24.437 25.1151C23.724 25.3761 22.9227 25.5482 22.0257 25.632V10.8213L24.4427 9.26548L24.437 25.1156V25.1151ZM28.1784 21.2192C27.8757 22.1339 27.4301 22.9118 26.8482 23.5473V14.2596C26.9668 14.4556 27.0978 14.6636 27.234 14.8654C28.5762 16.8965 28.8908 19.0103 28.1784 21.2198V21.2192Z" fill="#E6DAFE"/>
<path d="M10.0775 5.03111C9.29954 5.02487 8.64018 5.30411 8.08794 5.85635C7.5357 6.40287 7.2627 7.06795 7.2627 7.84587C7.2627 8.62379 7.5357 9.28315 8.08794 9.83539C8.12382 9.86503 8.15918 9.90091 8.19506 9.93055C8.72338 10.4173 9.34738 10.6611 10.0775 10.6611C10.8497 10.6611 11.5147 10.3819 12.067 9.83591C12.6135 9.28367 12.8922 8.61859 12.8922 7.84639C12.8922 7.07419 12.613 6.40339 12.067 5.85687C11.5147 5.30463 10.8497 5.02539 10.0775 5.03163V5.03111ZM10.0832 5.29839C10.3801 5.29839 10.6474 5.34571 10.9089 5.42891C10.9147 5.43463 10.9147 5.44087 10.9147 5.44659C11.5974 6.66391 11.6567 7.70911 11.1107 8.57023C11.105 8.56451 11.093 8.56451 11.0811 8.55827C11.2178 7.37059 10.8434 6.28379 9.94694 5.30411C9.99426 5.29839 10.0359 5.29839 10.0837 5.29839H10.0832ZM11.17 8.86143C11.1643 8.89107 11.1461 8.92695 11.1107 8.96231C11.093 8.98623 11.0748 9.00963 11.0514 9.02783C10.9979 9.07515 10.9266 9.11675 10.8434 9.14639C10.7425 9.18175 10.6474 9.19995 10.5585 9.19995C10.5465 9.19371 10.5345 9.19371 10.5231 9.19371C10.4576 9.18175 10.416 9.15783 10.3926 9.11675C10.3749 9.07515 10.3806 9.03355 10.4222 8.97999C10.4222 8.97999 10.4279 8.97427 10.4279 8.96803H10.4342C10.4935 8.89107 10.5886 8.83127 10.7072 8.78395C10.7784 8.75431 10.8554 8.73663 10.9271 8.73039C10.9568 8.73039 10.9927 8.73039 11.028 8.73611C11.0696 8.74183 11.105 8.75379 11.1351 8.77199C11.1471 8.78395 11.1591 8.79591 11.1705 8.81359V8.81931C11.1705 8.83127 11.1762 8.84323 11.1705 8.86091L11.17 8.86143ZM9.6079 5.33999C10.5579 6.30771 10.9443 7.38307 10.7899 8.57075C10.7363 8.58271 10.6947 8.59467 10.6411 8.61807C10.5226 8.65967 10.4274 8.71895 10.3499 8.79019C9.01354 8.55255 8.3547 7.61447 8.36666 5.96919C8.7291 5.63691 9.14458 5.42267 9.6079 5.33999ZM7.54142 7.84015C7.54142 7.24059 7.7255 6.71175 8.0999 6.25467C8.15918 7.84639 8.86014 8.77251 10.2023 9.03979C9.32346 9.25975 8.46234 9.07567 7.6189 8.47559C7.56534 8.27383 7.54194 8.06583 7.54194 7.84015H7.54142ZM8.2897 9.63935C8.0583 9.40795 7.88566 9.16407 7.76138 8.89107C8.58662 9.38403 9.4181 9.52027 10.2673 9.30083C10.2849 9.30707 10.2969 9.31851 10.3208 9.33047C9.87518 9.70487 9.20438 9.81719 8.31362 9.65703C8.30166 9.65079 8.29594 9.64507 8.2897 9.63935ZM10.3978 10.3699C10.2969 10.3757 10.1898 10.3819 10.0832 10.3876C9.5845 10.3819 9.13314 10.2571 8.73534 10.0018C9.60218 10.0611 10.2439 9.85359 10.6593 9.37831V9.37259C10.689 9.37259 10.7249 9.36687 10.7545 9.36063C10.7961 9.78235 10.6775 10.1209 10.3983 10.3699H10.3978ZM11.8767 9.63935C11.5678 9.94823 11.2173 10.1619 10.8257 10.2805C11.0041 10.0013 11.0634 9.66899 11.0155 9.26495C11.0332 9.25923 11.0514 9.24727 11.0691 9.23531C11.3421 9.45527 11.6213 9.58579 11.8949 9.62115C11.8891 9.62739 11.8829 9.63311 11.8772 9.63883L11.8767 9.63935ZM12.1263 9.36011C11.8413 9.37207 11.5563 9.27119 11.2709 9.05123C11.2828 9.03355 11.2948 9.02159 11.3005 9.00391C11.8824 8.92695 12.3218 8.57647 12.6249 7.95299C12.6073 8.48131 12.4351 8.95087 12.1263 9.36063V9.36011ZM12.5417 7.44807C12.2921 8.18439 11.8886 8.61183 11.3301 8.73091C11.912 7.85783 11.9001 6.81263 11.3005 5.60727C11.5085 5.72011 11.6983 5.86831 11.8767 6.04667C12.2505 6.41483 12.4825 6.84227 12.5776 7.32951C12.5657 7.36487 12.5537 7.40647 12.5417 7.44807Z" fill="#E6DAFE"/>
</g>
<defs>
<clipPath id="clip0_6_4186">
<rect width="26" height="25.4764" fill="white" transform="translate(3 3)"/>
</clipPath>
</defs>
</svg>
