<svg width="32" height="32" viewBox="0 0 32 32" fill="none" xmlns="http://www.w3.org/2000/svg">
<path d="M27.5439 4.03375C27.4029 3.99036 27.251 4.00121 27.0991 4.00121H4.76081C4.65232 4.00121 4.54383 4.00121 4.43534 4.00121C4.04477 4.05545 3.90373 4.30498 4.06647 4.67385C4.09901 4.74979 4.14241 4.83659 4.17496 4.91253C4.74996 6.09508 5.33581 7.26678 5.87827 8.44933C6.17119 9.07858 6.62685 9.33896 7.28865 9.33896C9.18724 9.33896 11.0858 9.33896 12.9844 9.33896C13.3858 9.33896 13.3424 9.28471 13.3424 9.69698C13.3424 10.5866 13.3424 11.4762 13.3424 12.3659C13.3424 12.5394 13.3533 12.713 13.3424 12.8866C13.3207 13.0927 13.4184 13.1578 13.6028 13.1361C13.6571 13.1361 13.7005 13.1361 13.7547 13.1361C15.241 13.1361 16.7382 13.1361 18.2354 13.1361C18.3547 13.1361 18.4849 13.1578 18.6043 13.1144C18.6585 13.0277 18.6368 12.9409 18.6368 12.8541C18.6368 11.8017 18.6368 10.7493 18.6368 9.69698C18.6368 9.28471 18.5934 9.33896 18.9948 9.33896C19.0708 9.33896 19.1467 9.33896 19.2118 9.33896C21.0236 9.33896 22.8354 9.33896 24.6472 9.33896C25.2331 9.33896 25.6779 9.10028 25.9491 8.52528C26.5349 7.27763 27.1533 6.02999 27.75 4.78234C27.7826 4.72809 27.8043 4.67385 27.826 4.60875C27.9345 4.32668 27.826 4.12055 27.5439 4.0229V4.03375Z" fill="#E6DAFE"/>
<path d="M18.3331 18.485C17.552 18.485 16.7817 18.485 16.0005 18.485C15.1977 18.485 14.3949 18.485 13.6029 18.485C13.4185 18.485 13.3425 18.5284 13.3425 18.7345C13.3534 20.0364 13.3425 21.3383 13.3425 22.6402C13.3425 22.868 13.3859 23.085 13.4835 23.2911C14.1779 24.7124 14.8722 26.1444 15.5666 27.5657C15.6751 27.7826 15.7619 28.0105 16.0656 27.9996C16.3586 27.9996 16.4454 27.7609 16.5538 27.544C17.1831 26.2421 17.8123 24.9402 18.4524 23.6383C18.5609 23.4105 18.626 23.1718 18.626 22.9223C18.626 21.5336 18.626 20.1449 18.626 18.7562C18.626 18.485 18.626 18.485 18.3331 18.485Z" fill="#E6DAFE"/>
<path d="M23.2585 13.147C23.1934 13.147 23.1391 13.147 23.074 13.147C21.6854 13.147 20.2858 13.147 18.8971 13.147C18.6476 13.147 18.6368 13.147 18.6368 13.4183C18.6368 14.2102 18.6368 14.9914 18.6368 15.7834C18.6368 16.597 18.6368 17.4107 18.6368 18.2244C18.6368 18.3438 18.6042 18.4848 18.8103 18.4739C19.4504 18.4739 20.0905 18.4848 20.7306 18.4522C21.1971 18.4305 21.566 18.181 21.7722 17.7254C21.8698 17.4975 21.9891 17.2805 22.0976 17.0527C22.6075 15.9895 23.1174 14.9154 23.649 13.8522C23.866 13.4183 23.6056 13.1687 23.2585 13.147Z" fill="#E6DAFE"/>
</svg>
