<svg width="32" height="32" viewBox="0 0 32 32" fill="none" xmlns="http://www.w3.org/2000/svg">
<circle cx="16" cy="16" r="12.5" stroke="#E6DAFE"/>
<path fill-rule="evenodd" clip-rule="evenodd" d="M13.3999 10.9302L10.9299 19.2502C10.9299 19.2502 11.0599 19.38 10.0199 18.99C8.97997 18.6 8.84998 20.29 9.36993 20.42C9.88989 20.55 12.0999 21.2 12.0999 21.2C12.0999 21.2 11.9699 21.59 11.7099 22.63C11.4499 23.67 12.8799 23.67 13.0099 23.02C13.1399 22.37 13.3999 21.46 13.3999 21.46L15.0899 21.98C15.0899 21.98 14.9599 22.37 14.6999 23.41C14.4399 24.45 15.8699 24.45 16.1299 23.67C16.3899 22.89 16.5199 22.37 16.5199 22.37C20.8068 23.2525 22.76 19.38 19.25 16.78C18.86 16.52 19.12 16.308 19.2499 16.26C24.1407 14.4525 21.043 11.0791 19.2499 10.5402L19.6399 9.49994C20.0299 8.45995 18.7299 8.06995 18.3399 8.85009C17.9499 9.63023 17.8199 10.2801 17.8199 10.2801L16.3899 9.76009C16.3899 9.76009 16.5199 9.23994 16.7799 8.46009C17.0399 7.68024 15.7399 7.54983 15.4799 7.94009C15.2199 8.33035 14.8299 9.63009 14.8299 9.63009C14.8299 9.63009 14.1799 9.37026 13.0099 8.98018C11.8399 8.59009 11.4499 10.2802 12.3599 10.5402C13.2699 10.8002 13.3999 10.9302 13.3999 10.9302ZM14.2493 14.5218C14.0886 13.8936 14.4675 13.2541 15.0956 13.0934L17.9974 12.351C18.6255 12.1903 19.265 12.5692 19.4257 13.1974C19.5865 13.8255 19.2075 14.465 18.5794 14.6257L15.6776 15.3681C15.0495 15.5288 14.41 15.1499 14.2493 14.5218ZM13.7573 17.8134C13.1292 17.9741 12.7503 18.6136 12.911 19.2417C13.0717 19.8698 13.7112 20.2488 14.3393 20.088L17.2411 19.3456C17.8693 19.1849 18.2482 18.5454 18.0875 17.9173C17.9268 17.2891 17.2873 16.9102 16.6591 17.0709L13.7573 17.8134Z" fill="#E6DAFE"/>
</svg>
