<svg width="32" height="32" viewBox="0 0 32 32" fill="none" xmlns="http://www.w3.org/2000/svg">
<path d="M28.9785 18.308C28.9785 18.308 28.9785 18.2811 28.9785 18.2704C28.9785 18.2489 28.9785 18.2327 28.9677 18.2112C28.9677 18.2004 28.957 18.1897 28.9516 18.1735C28.9408 18.1574 28.93 18.1412 28.9193 18.1251C28.9193 18.1197 28.9139 18.109 28.9085 18.1036L16.1776 5.07668C16.0753 4.97444 15.8924 4.97444 15.7955 5.07668L3.06995 18.1036C3.06995 18.1036 3.06457 18.1143 3.05919 18.1197C3.04305 18.1359 3.03228 18.1574 3.02152 18.1735C3.02152 18.1843 3.01076 18.1951 3.01076 18.2058C3.00538 18.2273 3 18.2489 3 18.2704C3 18.2811 3 18.2919 3 18.3027C3 18.3242 3.00538 18.3457 3.01076 18.3672C3.01076 18.378 3.01614 18.3888 3.02152 18.3995C3.02152 18.4049 3.02152 18.4157 3.0269 18.421L5.14694 22.193C5.14694 22.193 5.17384 22.2306 5.18998 22.2468L10.4954 27.6706C10.4954 27.6706 10.5008 27.6706 10.5062 27.676C10.517 27.6868 10.5331 27.6975 10.5493 27.7029C10.5708 27.7137 10.5869 27.7244 10.6084 27.7352C10.6192 27.7352 10.6246 27.746 10.6353 27.746C10.6515 27.746 10.673 27.746 10.6892 27.746C10.7376 27.746 10.7806 27.7298 10.8237 27.7029H10.8344C10.8398 27.7029 10.8452 27.6922 10.856 27.6868C10.8667 27.6814 10.8775 27.676 10.8829 27.6706L15.9946 22.4405L21.1064 27.6706C21.1064 27.6706 21.1225 27.6814 21.1333 27.6868C21.1387 27.6922 21.144 27.6975 21.1548 27.7029H21.1656C21.2086 27.7244 21.2517 27.746 21.3001 27.746C21.3162 27.746 21.3377 27.746 21.3539 27.746C21.3647 27.746 21.37 27.7352 21.3808 27.7352C21.4023 27.7298 21.4238 27.7191 21.4454 27.7029C21.4615 27.6922 21.4723 27.6868 21.4884 27.676C21.4884 27.676 21.4938 27.676 21.4992 27.6706L26.8046 22.2468C26.8046 22.2468 26.8369 22.2091 26.8477 22.193L28.9677 18.421C28.9677 18.421 28.9677 18.4103 28.9731 18.3995C28.9785 18.3888 28.9839 18.3726 28.9892 18.3619C28.9946 18.3403 29 18.3242 29 18.3027L28.9785 18.308ZM15.9892 5.65242L28.3382 18.2919L22.3493 24.4206L16.1776 18.1036C16.1776 18.1036 16.1184 18.0552 16.0861 18.0444C16.0753 18.0444 16.0699 18.0444 16.0592 18.0444C16.0484 18.0444 16.0377 18.039 16.0215 18.039C16.0108 18.039 16 18.0336 15.9839 18.0336C15.9677 18.0336 15.9623 18.039 15.9462 18.039C15.9354 18.039 15.9247 18.039 15.9139 18.0444C15.9031 18.0444 15.8978 18.0444 15.887 18.0444C15.8547 18.0605 15.8224 18.0767 15.7955 18.1036L9.62376 24.4153L3.63493 18.2919L15.9892 5.65242ZM4.49586 19.9438L9.39238 24.9533L9.94122 26.347L5.59354 21.9024L4.49048 19.9438H4.49586ZM16.2529 18.9537L22.0319 24.8672L21.8866 25.2331L21.1871 27.0034L16.2529 21.9508V18.9484V18.9537Z" fill="#E6DAFE"/>
</svg>
