<svg width="32" height="32" viewBox="0 0 32 32" fill="none" xmlns="http://www.w3.org/2000/svg">
<g clip-path="url(#clip0_6_4291)">
<path d="M26.9704 29.6801H5.11035V13.0001C5.11035 10.1013 6.2619 7.32116 8.31167 5.27139C10.3614 3.22162 13.1415 2.07007 16.0404 2.07007C18.9392 2.07007 21.7193 3.22162 23.769 5.27139C25.8188 7.32116 26.9704 10.1013 26.9704 13.0001V29.6801ZM5.61035 29.1801H26.4704V13.0001C26.4704 10.2339 25.3715 7.58095 23.4155 5.62494C21.4595 3.66894 18.8066 2.57007 16.0404 2.57007C13.2741 2.57007 10.6212 3.66894 8.66523 5.62494C6.70922 7.58095 5.61035 10.2339 5.61035 13.0001V29.1801Z" fill="#E6DAFE"/>
<path d="M16.04 3.88257C14.853 3.88224 13.6775 4.11576 12.5807 4.56979C11.484 5.02382 10.4874 5.68946 9.64791 6.52871C8.80843 7.36795 8.14251 8.36435 7.68818 9.46099C7.23384 10.5576 7 11.733 7 12.9201V27.8226H25.075V12.9201C25.0753 11.7334 24.8419 10.5582 24.388 9.46176C23.9341 8.36529 23.2686 7.36898 22.4296 6.52974C21.5906 5.6905 20.5945 5.02476 19.4981 4.57056C18.4018 4.11635 17.2267 3.88257 16.04 3.88257V3.88257ZM11 26.8226V24.9801C11.8786 25.8147 12.9314 26.4439 14.0825 26.8226H11ZM19.575 26.4701C18.724 26.7048 17.8452 26.8234 16.9625 26.8226C14.7844 26.8226 12.6955 25.9573 11.1554 24.4172C9.61524 22.877 8.75 20.7882 8.75 18.6101V13.4201C8.74893 11.3203 9.48207 9.28629 10.8225 7.67007C15.585 8.20007 19.5725 10.7826 19.5725 15.6701L19.575 26.4701Z" fill="#E6DAFE"/>
<path d="M10.3672 16.75C10.2843 16.75 10.2048 16.7171 10.1462 16.6585C10.0876 16.5999 10.0547 16.5204 10.0547 16.4375V14.72C10.0572 14.6609 10.0765 14.6038 10.1102 14.5552C10.1439 14.5066 10.1907 14.4686 10.2451 14.4456C10.2996 14.4226 10.3595 14.4154 10.4178 14.4251C10.4761 14.4347 10.5305 14.4607 10.5747 14.5L11.9072 15.685V15.03C11.9072 14.9471 11.9401 14.8676 11.9987 14.809C12.0573 14.7504 12.1368 14.7175 12.2197 14.7175C12.3026 14.7175 12.3821 14.7504 12.4407 14.809C12.4993 14.8676 12.5322 14.9471 12.5322 15.03V16.3675C12.5321 16.4278 12.5146 16.4868 12.4818 16.5373C12.449 16.5879 12.4022 16.6279 12.3472 16.6525C12.2924 16.6769 12.2317 16.6852 12.1724 16.6763C12.113 16.6675 12.0575 16.6419 12.0122 16.6025L10.6797 15.4175V16.4175C10.6824 16.4602 10.6764 16.503 10.6619 16.5432C10.6474 16.5835 10.6248 16.6203 10.5955 16.6515C10.5662 16.6827 10.5309 16.7075 10.4916 16.7244C10.4523 16.7414 10.41 16.7501 10.3672 16.75Z" fill="#E6DAFE"/>
<path d="M16.9849 16.3426C16.902 16.3426 16.8225 16.3097 16.7639 16.2511C16.7053 16.1924 16.6724 16.113 16.6724 16.0301C16.6777 15.9482 16.6661 15.8661 16.6384 15.7889C16.6107 15.7116 16.5675 15.6409 16.5114 15.581C16.4553 15.5212 16.3875 15.4734 16.3122 15.4408C16.2369 15.4082 16.1557 15.3914 16.0736 15.3914C15.9916 15.3914 15.9104 15.4082 15.8351 15.4408C15.7598 15.4734 15.692 15.5212 15.6359 15.581C15.5798 15.6409 15.5365 15.7116 15.5088 15.7889C15.4811 15.8661 15.4696 15.9482 15.4749 16.0301C15.4749 16.113 15.442 16.1924 15.3834 16.2511C15.3247 16.3097 15.2453 16.3426 15.1624 16.3426C15.0795 16.3426 15 16.3097 14.9414 16.2511C14.8828 16.1924 14.8499 16.113 14.8499 16.0301C14.8424 15.8647 14.8685 15.6996 14.9266 15.5446C14.9848 15.3896 15.0737 15.248 15.1881 15.1283C15.3025 15.0087 15.4399 14.9134 15.5921 14.8484C15.7443 14.7833 15.9081 14.7498 16.0736 14.7498C16.2392 14.7498 16.403 14.7833 16.5552 14.8484C16.7074 14.9134 16.8448 15.0087 16.9592 15.1283C17.0736 15.248 17.1625 15.3896 17.2206 15.5446C17.2787 15.6996 17.3049 15.8647 17.2974 16.0301C17.2974 16.113 17.2645 16.1924 17.2059 16.2511C17.1472 16.3097 17.0678 16.3426 16.9849 16.3426Z" fill="#E6DAFE"/>
<path d="M13.9275 20.1499C13.4937 20.1499 13.0776 19.9777 12.7705 19.6712C12.4635 19.3646 12.2907 18.9488 12.29 18.5149C12.29 18.432 12.323 18.3525 12.3816 18.2939C12.4402 18.2353 12.5197 18.2024 12.6025 18.2024C12.6854 18.2024 12.7649 18.2353 12.8235 18.2939C12.8821 18.3525 12.915 18.432 12.915 18.5149C12.915 18.7831 13.0216 19.0403 13.2112 19.23C13.4009 19.4196 13.6581 19.5261 13.9263 19.5261C14.1945 19.5261 14.4517 19.4196 14.6414 19.23C14.831 19.0403 14.9375 18.7831 14.9375 18.5149C14.9375 18.432 14.9705 18.3525 15.0291 18.2939C15.0877 18.2353 15.1672 18.2024 15.25 18.2024C15.3329 18.2024 15.4124 18.2353 15.471 18.2939C15.5296 18.3525 15.5625 18.432 15.5625 18.5149C15.5619 18.9483 15.3894 19.3638 15.0829 19.6703C14.7764 19.9768 14.361 20.1492 13.9275 20.1499V20.1499Z" fill="#E6DAFE"/>
<path d="M16.0725 12.4824C15.621 12.4833 15.1786 12.6098 14.7949 12.8478C14.4113 13.0857 14.1014 13.4258 13.9 13.8299C13.6545 13.4463 13.2732 13.1695 12.8325 13.0549C12.7526 13.0395 12.6698 13.056 12.6018 13.1006C12.5338 13.1453 12.4859 13.2148 12.4683 13.2943C12.4507 13.3737 12.4648 13.4569 12.5076 13.5261C12.5504 13.5953 12.6185 13.6451 12.6975 13.6649C13.1975 13.7774 13.6425 14.3874 13.6425 14.9749V17.7799C13.6425 17.8628 13.6754 17.9423 13.734 18.0009C13.7926 18.0595 13.8721 18.0924 13.955 18.0924C14.0379 18.0924 14.1173 18.0595 14.176 18.0009C14.2346 17.9423 14.2675 17.8628 14.2675 17.7799V14.9124C14.2675 14.4337 14.4577 13.9746 14.7962 13.6361C15.1347 13.2976 15.5938 13.1074 16.0725 13.1074C16.5512 13.1074 17.0103 13.2976 17.3488 13.6361C17.6873 13.9746 17.8775 14.4337 17.8775 14.9124C17.8775 14.9953 17.9104 15.0748 17.969 15.1334C18.0276 15.192 18.1071 15.2249 18.19 15.2249C18.2729 15.2249 18.3523 15.192 18.411 15.1334C18.4696 15.0748 18.5025 14.9953 18.5025 14.9124C18.5018 14.2681 18.2456 13.6505 17.79 13.1949C17.3345 12.7393 16.7168 12.4831 16.0725 12.4824V12.4824Z" fill="#E6DAFE"/>
</g>
<defs>
<clipPath id="clip0_6_4291">
<rect width="32" height="32" fill="white"/>
</clipPath>
</defs>
</svg>
