<svg width="32" height="32" viewBox="0 0 32 32" fill="none" xmlns="http://www.w3.org/2000/svg">
<path d="M23.9995 17.345C23.627 17.1675 23.1795 16.965 22.737 16.7825C22.447 17.2425 21.592 18.6625 21.4195 19.1625C21.3299 19.4237 21.2876 19.6989 21.2945 19.975C21.296 20.0914 21.2868 20.2077 21.267 20.3225C21.2252 20.5434 21.1233 20.7485 20.9724 20.9152C20.8216 21.0819 20.6277 21.2038 20.412 21.2675C20.2145 21.3275 19.812 21.3975 19.3495 21.48C18.8621 21.5487 18.3801 21.6514 17.907 21.7875C17.7538 22.0205 17.5578 22.2223 17.3295 22.3825C17.2392 22.4465 17.1386 22.4947 17.032 22.525C17.032 22.92 16.8845 23.475 16.4045 23.5775C16.2875 23.5971 16.1676 23.5894 16.054 23.5552C15.9404 23.5209 15.8362 23.461 15.7495 23.38C15.7056 23.5262 15.63 23.661 15.528 23.7747C15.426 23.8883 15.3002 23.9781 15.1595 24.0375C15.0468 24.0704 14.9287 24.0808 14.812 24.0679C14.6953 24.055 14.5823 24.0192 14.4795 23.9625C14.347 24.2725 14.0845 24.6925 13.6345 24.7125C13.5052 24.7062 13.379 24.6705 13.2655 24.6081C13.152 24.5457 13.0542 24.4583 12.9795 24.3525C12.8518 24.5611 12.6745 24.7348 12.4634 24.8583C12.2523 24.9817 12.0139 25.051 11.7695 25.06H11.682C11.4659 25.0556 11.2597 24.9683 11.1062 24.8161C10.9526 24.6639 10.8634 24.4586 10.857 24.2425C10.804 24.2721 10.7466 24.2932 10.687 24.305C10.5709 24.316 10.4538 24.2971 10.347 24.25C10.3724 24.3644 10.3724 24.483 10.347 24.5975C10.217 24.995 9.19203 24.9425 8.53453 24.81C8.31597 24.7738 8.10793 24.6904 7.92487 24.5656C7.74181 24.4408 7.58813 24.2777 7.47453 24.0875C7.16453 24.3575 7.02953 24.3575 6.97453 24.3575C6.86953 24.3575 6.69703 24.3575 6.28453 23.5675C6.04703 23.585 5.61953 23.61 5.45703 23.6C5.3555 23.584 5.2608 23.5389 5.18446 23.4701C5.10811 23.4013 5.05342 23.3118 5.02703 23.2125C4.88288 23.2221 4.73809 23.2112 4.59703 23.18C4.54841 23.1694 4.50135 23.1526 4.45703 23.13C4.78953 23.9475 5.20703 24.7075 5.38203 25.1025C5.58316 25.5308 5.87308 25.9115 6.23255 26.2192C6.59201 26.527 7.01282 26.7548 7.46703 26.8875C8.81953 27.2475 12.467 27.33 13.717 27.29C14.4068 27.2687 15.0859 27.1142 15.717 26.835C16.2199 26.6488 16.747 26.536 17.282 26.5C17.9445 26.45 19.712 26.4525 20.112 26.4375C21.0145 26.4025 21.932 25.015 22.532 23.92C22.9451 23.256 23.1336 22.4768 23.0695 21.6975C23.0295 21.065 22.9795 18.925 23.1945 18.49C23.4228 18.0816 23.6925 17.6979 23.9995 17.345V17.345Z" fill="#E6DAFE"/>
<path d="M4.6021 21.1699C4.52837 21.5925 4.49405 22.021 4.4996 22.4499C4.5121 22.5049 4.5621 22.6999 4.6996 22.7324C4.78183 22.7493 4.86569 22.7568 4.9496 22.7549C4.88507 22.2692 4.87501 21.7778 4.9196 21.2899C4.7996 21.2499 4.6996 21.2124 4.6021 21.1699Z" fill="#E6DAFE"/>
<path d="M4.00026 20.8374C3.96938 21.2529 4.00997 21.6706 4.12026 22.0724C4.13959 21.7124 4.18302 21.3541 4.25026 20.9999L4.00026 20.8374Z" fill="#E6DAFE"/>
<path d="M11.0225 20.8899C10.7838 20.8908 10.552 20.9698 10.3625 21.1149C10.0975 22.0099 10.4525 23.4599 10.525 23.7424C10.7516 23.4774 10.9556 23.1939 11.135 22.8949C11.3761 22.3772 11.5572 21.8337 11.675 21.2749L11.6175 21.2249C11.4646 21.0469 11.254 20.9283 11.0225 20.8899V20.8899Z" fill="#E6DAFE"/>
<path d="M12.7277 22.5724C12.7664 22.5331 12.7932 22.4837 12.8052 22.4299L13.0327 21.2699C12.9577 20.9949 12.2627 21.1074 12.1802 21.1499C12.0852 21.626 11.9591 22.0953 11.8027 22.5549C12.1083 22.6085 12.4204 22.6144 12.7277 22.5724V22.5724Z" fill="#E6DAFE"/>
<path d="M11.517 23.165C11.4235 23.3777 11.3563 23.601 11.317 23.83C11.297 24.3125 11.352 24.5525 11.722 24.58C12.737 24.6425 12.817 23.035 12.817 23.035C12.6818 23.0658 12.5433 23.0801 12.4045 23.0775C12.1396 23.0716 11.8755 23.0457 11.6145 23C11.5855 23.057 11.5529 23.1121 11.517 23.165Z" fill="#E6DAFE"/>
<path d="M9.91715 20.75C9.54965 20.895 7.82715 23.7675 7.82715 23.7675C7.90106 23.9219 8.01176 24.0557 8.1495 24.1573C8.28725 24.2588 8.44784 24.325 8.61715 24.35C9.03361 24.4535 9.46721 24.4679 9.88965 24.3925C10.1846 23.3325 9.59215 22.5325 9.91715 20.75Z" fill="#E6DAFE"/>
<path d="M6.46501 21.7949C6.43404 22.2865 6.49336 22.7797 6.64001 23.2499C6.73052 23.4708 6.85171 23.6779 7.00001 23.8649C7.51751 23.5899 8.36001 22.0999 8.36001 22.0999C7.7414 22.0969 7.12656 22.0034 6.53501 21.8224L6.46501 21.7949Z" fill="#E6DAFE"/>
<path d="M5.84493 21.6L5.34493 21.45C5.32114 21.9419 5.34458 22.435 5.41493 22.9225C5.42803 23.0004 5.45604 23.0751 5.49743 23.1425C5.61243 23.1425 5.87493 23.1425 6.11743 23.12C5.99778 22.6397 5.96059 22.1426 6.00743 21.65L5.84493 21.6Z" fill="#E6DAFE"/>
<path d="M4.19531 20.4051C4.37045 20.5203 4.55631 20.6182 4.75031 20.6976C4.75031 20.6976 5.20281 19.9726 5.45031 19.5626C5.42521 19.5289 5.39579 19.4987 5.36281 19.4726C5.1428 19.3436 4.89011 19.2811 4.63531 19.2926C4.42829 19.6366 4.27962 20.0126 4.19531 20.4051V20.4051Z" fill="#E6DAFE"/>
<path d="M5.8723 19.7501C5.6673 20.0926 5.2873 20.7026 5.1748 20.8826C5.3423 20.9426 5.5123 20.9976 5.6748 21.0501C5.89451 20.5695 6.17881 20.1212 6.5198 19.7176C6.49588 19.6962 6.46779 19.68 6.4373 19.6701C6.24525 19.6493 6.05104 19.6768 5.8723 19.7501Z" fill="#E6DAFE"/>
<path d="M7.49977 19.925C7.39546 19.8928 7.28485 19.8866 7.17763 19.9071C7.07041 19.9276 6.96985 19.9741 6.88477 20.0425C6.57825 20.3867 6.32541 20.7753 6.13477 21.195C6.34477 21.2575 6.83227 21.425 6.88477 21.445L7.76477 20.15C7.80977 20.0875 7.54727 19.94 7.49977 19.925Z" fill="#E6DAFE"/>
<path d="M8.55227 20.0476C8.34227 20.1401 7.38477 21.5476 7.38477 21.5476C7.80978 21.6062 8.23824 21.6362 8.66727 21.6376L9.16727 20.8876C9.26977 20.7426 9.11727 20.2951 9.04977 20.2351C8.90348 20.1296 8.73179 20.0649 8.55227 20.0476V20.0476Z" fill="#E6DAFE"/>
<path d="M15.8447 20.9601L15.8622 21.7951C16.0822 21.7551 16.2897 21.7226 16.4672 21.7051C16.4972 21.4001 16.5222 21.0751 16.5197 20.9176C16.2939 20.9098 16.0678 20.924 15.8447 20.9601V20.9601Z" fill="#E6DAFE"/>
<path d="M19.2774 21.0175C19.7099 20.9425 20.1174 20.8699 20.2774 20.8174C20.4126 20.7775 20.5338 20.7003 20.6271 20.5946C20.7204 20.4889 20.782 20.3591 20.8049 20.2199C20.8183 20.1373 20.8242 20.0536 20.8224 19.9699C20.8231 19.6386 20.8832 19.3101 20.9999 19C21.1849 18.4625 21.9849 17.135 22.3174 16.5975C21.9332 16.4209 21.5229 16.3078 21.1024 16.2625C20.5811 16.3187 20.0945 16.5505 19.7224 16.92C19.7072 16.9565 19.6947 16.9941 19.6849 17.0324C19.6016 17.3405 19.4446 17.6236 19.2274 17.8575C19.053 18.0321 18.8621 18.1895 18.6574 18.3274C18.2399 18.6274 17.9824 18.8275 17.9824 19.225C17.9824 19.4175 17.9974 19.8074 18.0099 20.2099C18.0274 20.7099 18.0374 21.0374 18.0399 21.2549C18.2924 21.1949 18.6899 21.1225 19.2774 21.0175Z" fill="#E6DAFE"/>
<path d="M13.1924 23.8251C13.2149 23.8551 13.3249 24.2176 13.6299 24.2301C14.3174 24.2926 14.1299 22.6201 14.1299 22.6201C13.9974 22.6201 13.6774 22.6526 13.3349 22.6801L13.1924 23.8251Z" fill="#E6DAFE"/>
<path d="M9.00011 13.7751C8.91261 13.8201 8.78261 14.0926 8.65761 15.1451C8.60175 15.5445 8.48542 15.9332 8.31261 16.2976C8.24994 16.4318 8.19729 16.5706 8.15511 16.7126C8.10888 16.8783 8.12417 17.0551 8.19815 17.2105C8.27214 17.3658 8.39981 17.4891 8.55761 17.5576C8.6951 17.6271 8.85273 17.6457 9.00261 17.6101C8.70761 17.4626 8.76761 17.1501 8.84261 16.7901C8.86261 16.6901 8.88761 16.5726 8.91261 16.4351C8.94379 16.215 9.01858 16.0034 9.13261 15.8126C9.19511 15.7026 9.22011 15.6576 9.18511 15.4051C9.14585 14.8933 9.27395 14.3827 9.55011 13.9501C9.58011 13.8901 9.61011 13.8351 9.63761 13.7776C9.66064 13.735 9.69016 13.6962 9.72511 13.6626C9.47771 13.6332 9.22698 13.6721 9.00011 13.7751V13.7751Z" fill="#E6DAFE"/>
<path d="M28.52 9.4826C28.5192 9.30478 28.4786 9.12939 28.4012 8.96931C28.3238 8.80924 28.2114 8.66855 28.0725 8.5576C27.8375 8.3851 26.305 7.0751 26.0375 6.6051C25.395 5.4826 23.995 4.8551 22.7875 4.7226C21.5386 4.6545 20.2861 4.73845 19.0575 4.9726C18.3688 5.24057 17.7081 5.57551 17.085 5.9726L17.0225 6.0051C17.9325 6.0051 18.81 6.1126 19.435 6.4751C20.2475 6.9451 21.0275 7.6801 21.2425 9.8601C21.3021 10.656 21.2938 11.4556 21.2175 12.2501C21.155 13.1851 21.105 13.9251 21.4125 14.3051C21.5225 14.4401 21.9125 14.5751 22.3575 14.7301C23.4578 15.0733 24.4978 15.5862 25.44 16.2501C25.585 16.2001 25.74 16.1576 25.94 16.1101C26.54 15.9576 27.34 14.7301 27.57 13.9851C27.665 13.6651 27.75 12.7351 27.8575 12.3426C27.99 11.8726 28.2575 11.2051 28.32 10.9976C28.452 10.5034 28.5192 9.99413 28.52 9.4826V9.4826Z" fill="#E6DAFE"/>
<path d="M22.205 15.1774C21.625 14.9774 21.2425 14.8449 21.05 14.6049C20.625 14.0824 20.68 13.2624 20.75 12.2224C20.8215 11.4518 20.8274 10.6765 20.7675 9.90491C20.585 8.04491 20.0175 7.34991 19.1925 6.87991C18.325 6.37991 16.8375 6.42741 15.535 6.55741C15.0833 6.70304 14.6173 6.80025 14.145 6.84741C13.6275 6.84741 12.82 6.45991 12.53 6.27491C12.2518 6.07256 11.9271 5.94358 11.5858 5.89988C11.2445 5.85619 10.8978 5.89919 10.5775 6.02491C10.2475 6.13741 9.80504 6.33741 9.66004 6.62491C9.34277 7.36458 9.10072 8.13429 8.93754 8.92241C8.90058 9.32416 8.81667 9.72019 8.68754 10.1024C8.58004 10.3949 8.12754 11.7924 8.00254 12.0124C7.87754 12.2324 7.50004 12.7249 7.05254 13.4074C6.87319 13.6962 6.77396 14.0276 6.76504 14.3674C6.79254 14.6699 7.31504 15.2549 7.24754 16.0624C7.19754 16.6274 6.52254 17.0624 5.77004 17.8124C5.45173 18.1276 5.16534 18.4734 4.91504 18.8449C5.1836 18.8746 5.44097 18.9689 5.66504 19.1199C5.72648 19.1709 5.78184 19.2288 5.83004 19.2924C6.07606 19.2035 6.34243 19.187 6.59754 19.2449C6.75682 19.2935 6.89174 19.4007 6.97504 19.5449C7.16126 19.4964 7.35263 19.4704 7.54504 19.4674C7.76414 19.5183 7.95967 19.6416 8.10004 19.8174C8.20303 19.7193 8.32576 19.6443 8.46004 19.5974C8.67754 19.5474 9.11254 19.7474 9.29004 19.8474C9.34504 19.8724 9.48754 19.9449 9.61504 20.4249C9.67873 20.3519 9.76071 20.2973 9.85254 20.2665C9.94438 20.2358 10.0428 20.23 10.1375 20.2499C10.1875 20.2699 10.315 20.3174 10.3725 20.5924C10.5864 20.4831 10.8251 20.4314 11.065 20.4424C11.3665 20.4741 11.648 20.6082 11.8625 20.8224C12.1408 20.6698 12.4603 20.6094 12.775 20.6499C12.9829 20.6712 13.1784 20.7588 13.3325 20.8999C13.4749 20.7443 13.6701 20.6472 13.88 20.6274C13.9698 20.619 14.0602 20.635 14.1416 20.6737C14.223 20.7124 14.2924 20.7724 14.3425 20.8474C14.3903 20.7781 14.4456 20.7144 14.5075 20.6574C14.65 20.5299 14.89 20.5324 15.1975 20.5399C15.3258 20.5478 15.4543 20.5478 15.5825 20.5399C16.47 20.4174 16.87 20.4149 16.9675 20.7099C17.0275 20.8874 16.7975 21.6899 16.9875 22.0724C17.2274 21.9309 17.4271 21.7304 17.5675 21.4899C17.5675 21.4074 17.5525 20.7399 17.535 20.2399C17.535 19.8299 17.51 19.4349 17.51 19.2399C17.51 18.5874 17.9725 18.2549 18.38 17.9624C18.5596 17.8422 18.727 17.7049 18.88 17.5524C19.049 17.3704 19.1709 17.1498 19.235 16.9099C19.2549 16.8336 19.2834 16.7598 19.32 16.6899C19.7707 16.1853 20.3962 15.8707 21.07 15.8099C21.755 15.7524 24 16.8099 24.3625 16.9899C24.4325 16.9224 24.5 16.8574 24.5675 16.8024C24.6976 16.6896 24.8355 16.586 24.98 16.4924C24.1222 15.9245 23.1878 15.4817 22.205 15.1774V15.1774ZM10.345 17.3999L10.255 17.4574C9.59754 17.8724 9.23254 18.1024 8.85004 18.1024C8.68231 18.1013 8.51652 18.0664 8.36254 17.9999C8.10268 17.8869 7.89182 17.6846 7.76803 17.4297C7.64424 17.1748 7.61569 16.884 7.68754 16.6099C7.73547 16.4388 7.79648 16.2717 7.87004 16.1099C8.02509 15.787 8.12965 15.4421 8.18004 15.0874C8.29504 14.0874 8.43004 13.5299 8.77754 13.3549C9.14754 13.1674 9.79754 13.0374 10.7775 13.4724C11.675 13.8674 12.07 14.2224 12.1375 14.6899C12.205 15.1574 11.8475 16.4499 10.345 17.3999ZM13.315 8.52991L13.29 8.77991C13.1725 9.87241 13.04 11.2299 12.4275 11.6349C11.815 12.0399 10.8925 12.1349 10.3475 12.1349H10.25C9.48004 12.1124 9.07754 11.5874 9.07754 11.0799C9.07754 10.7524 9.29004 10.4174 9.53754 10.0299C9.69477 9.78906 9.83672 9.53856 9.96254 9.27991C10.0698 9.0456 10.1584 8.80318 10.2275 8.55491C10.3091 8.23224 10.4407 7.92433 10.6175 7.64241C10.905 7.17491 11.705 6.80991 12.3 7.03491L12.415 7.07741C12.815 7.21741 13.4375 7.43991 13.315 8.52991ZM19.315 10.5499C19.0875 11.1724 18.385 12.5499 17.6675 12.8899C17.3044 13.0452 16.9124 13.1211 16.5175 13.1124C15.8174 13.1213 15.1291 12.9314 14.5325 12.5649C14.0925 12.2599 14.0925 11.5249 14.095 10.8149V10.5649C14.128 10.1287 14.2257 9.69982 14.385 9.29241C14.4103 9.23631 14.4555 9.19152 14.5117 9.16661C14.568 9.1417 14.6315 9.13843 14.69 9.15741C14.7188 9.16872 14.745 9.18559 14.7672 9.20704C14.7894 9.2285 14.8072 9.25412 14.8195 9.28245C14.8318 9.31077 14.8384 9.34125 14.8389 9.37213C14.8395 9.40301 14.8339 9.43369 14.8225 9.46241C14.6868 9.81516 14.6026 10.1856 14.5725 10.5624V10.8124C14.5725 11.3124 14.5725 12.0099 14.8225 12.1749C15.0087 12.296 15.2106 12.391 15.4225 12.4574C15.2915 11.8196 15.2469 11.1671 15.29 10.5174C15.3525 10.0174 16.305 8.36241 16.8825 7.76741C16.4548 7.83971 16.0499 8.01093 15.7 8.26741C15.6504 8.30056 15.59 8.31356 15.5311 8.30378C15.4722 8.294 15.4192 8.26217 15.3829 8.21475C15.3467 8.16733 15.3298 8.10789 15.3358 8.04848C15.3417 7.98908 15.3701 7.93417 15.415 7.89491C15.725 7.65991 16.415 7.28741 16.9575 7.28741C17.3208 7.29607 17.6771 7.38804 17.9992 7.55622C18.3212 7.7244 18.6004 7.96429 18.815 8.25741C19.3875 9.03991 19.575 9.85241 19.3175 10.5499H19.315Z" fill="#E6DAFE"/>
<path d="M10.9997 7.88239C10.8449 8.12828 10.731 8.39759 10.6622 8.67989C10.5875 8.95158 10.4905 9.21665 10.3722 9.47239C10.2377 9.74524 10.0857 10.0091 9.91723 10.2624C9.73261 10.4981 9.60127 10.771 9.53223 11.0624C9.53223 11.3949 9.82723 11.6374 10.2497 11.6474H10.3472C10.2813 11.2621 10.3184 10.8662 10.4547 10.4999C10.5921 10.1278 10.7752 9.7743 10.9997 9.44739C11.1934 9.15269 11.3607 8.84148 11.4997 8.51739C11.5831 8.2685 11.6385 8.01107 11.6647 7.74989C11.6797 7.63239 11.6922 7.53739 11.7072 7.45239C11.4261 7.50269 11.1738 7.65601 10.9997 7.88239V7.88239Z" fill="#E6DAFE"/>
<path d="M14.1423 21.3024C14.1423 21.2049 13.9623 21.0974 13.8923 21.0924C13.8223 21.0874 13.5123 21.2199 13.4898 21.3424L13.3848 22.2049L14.1348 22.1499L14.1423 21.3024Z" fill="#E6DAFE"/>
<path d="M14.5879 23.4701C14.6465 23.525 14.7179 23.5645 14.7956 23.585C14.8732 23.6055 14.9548 23.6064 15.0329 23.5876C15.2129 23.5351 15.3629 23.1351 15.4129 22.8701V22.3701C15.1479 22.4251 14.8929 22.4826 14.6879 22.5276L14.6079 22.5451L14.5879 23.4701Z" fill="#E6DAFE"/>
<path d="M15.3773 21.0001C15.3773 20.9476 14.9773 20.9301 14.7873 21.0151C14.7396 21.0389 14.6986 21.0743 14.6681 21.1179C14.6375 21.1616 14.6184 21.2122 14.6123 21.2651V22.0476L15.4048 21.8776L15.3773 21.0001Z" fill="#E6DAFE"/>
<path d="M16.5151 22.1699C16.3301 22.1899 16.1051 22.2249 15.8701 22.2699L15.8826 22.8224C15.9626 22.9449 16.1326 23.1549 16.3176 23.1174C16.5576 23.0674 16.7501 22.4399 16.5151 22.1699Z" fill="#E6DAFE"/>
</svg>
