<svg width="32" height="32" viewBox="0 0 32 32" fill="none" xmlns="http://www.w3.org/2000/svg">
<path d="M7.77469 20.3498V9.67484L15.9997 17.9323L24.2497 9.68234V20.3498H28.1047C28.7341 18.4349 28.9005 16.398 28.5903 14.4062C28.28 12.4145 27.5019 10.5247 26.3199 8.89194C25.1378 7.25916 23.5855 5.9299 21.7902 5.01324C19.995 4.09659 18.0079 3.61865 15.9922 3.61865C13.9764 3.61865 11.9894 4.09659 10.1942 5.01324C8.39889 5.9299 6.84654 7.25916 5.66449 8.89194C4.48244 10.5247 3.70437 12.4145 3.39412 14.4062C3.08386 16.398 3.25027 18.4349 3.87969 20.3498H7.77469Z" fill="#E6DAFE"/>
<path d="M21.552 23.055V16.21L15.9995 21.75L10.4795 16.22V23.055H5.14453C6.28613 24.9078 7.88299 26.4376 9.78308 27.4987C11.6832 28.5597 13.8232 29.1168 15.9995 29.1168C18.1758 29.1168 20.3159 28.5597 22.216 27.4987C24.1161 26.4376 25.7129 24.9078 26.8545 23.055H21.552Z" fill="#E6DAFE"/>
</svg>
