<svg width="32" height="32" viewBox="0 0 32 32" fill="none" xmlns="http://www.w3.org/2000/svg">
<path d="M9.55281 17.8376C9.81929 17.8376 10.0353 17.6215 10.0353 17.3551C10.0353 17.0886 9.81929 16.8726 9.55281 16.8726C9.28634 16.8726 9.07031 17.0886 9.07031 17.3551C9.07031 17.6215 9.28634 17.8376 9.55281 17.8376Z" fill="#E6DAFE"/>
<path d="M11.5376 17.59C11.8593 17.59 12.1201 17.3293 12.1201 17.0075C12.1201 16.6858 11.8593 16.425 11.5376 16.425C11.2159 16.425 10.9551 16.6858 10.9551 17.0075C10.9551 17.3293 11.2159 17.59 11.5376 17.59Z" fill="#E6DAFE"/>
<path d="M13.7071 16.765C14.0771 16.765 14.3771 16.4651 14.3771 16.095C14.3771 15.725 14.0771 15.425 13.7071 15.425C13.3371 15.425 13.0371 15.725 13.0371 16.095C13.0371 16.4651 13.3371 16.765 13.7071 16.765Z" fill="#E6DAFE"/>
<path d="M9.25289 19.4799C9.58564 19.4799 9.85539 19.2102 9.85539 18.8774C9.85539 18.5447 9.58564 18.2749 9.25289 18.2749C8.92014 18.2749 8.65039 18.5447 8.65039 18.8774C8.65039 19.2102 8.92014 19.4799 9.25289 19.4799Z" fill="#E6DAFE"/>
<path d="M11.59 19.4874C11.9628 19.4874 12.265 19.1852 12.265 18.8125C12.265 18.4397 11.9628 18.1375 11.59 18.1375C11.2172 18.1375 10.915 18.4397 10.915 18.8125C10.915 19.1852 11.2172 19.4874 11.59 19.4874Z" fill="#E6DAFE"/>
<path d="M14.2504 18.9725C14.6978 18.9725 15.0604 18.6099 15.0604 18.1625C15.0604 17.7152 14.6978 17.3525 14.2504 17.3525C13.8031 17.3525 13.4404 17.7152 13.4404 18.1625C13.4404 18.6099 13.8031 18.9725 14.2504 18.9725Z" fill="#E6DAFE"/>
<path d="M9.27039 21.3699C9.64733 21.3699 9.95289 21.0643 9.95289 20.6874C9.95289 20.3104 9.64733 20.0049 9.27039 20.0049C8.89346 20.0049 8.58789 20.3104 8.58789 20.6874C8.58789 21.0643 8.89346 21.3699 9.27039 21.3699Z" fill="#E6DAFE"/>
<path d="M12.0876 21.7125C12.5405 21.7125 12.9076 21.3454 12.9076 20.8925C12.9076 20.4396 12.5405 20.0725 12.0876 20.0725C11.6347 20.0725 11.2676 20.4396 11.2676 20.8925C11.2676 21.3454 11.6347 21.7125 12.0876 21.7125Z" fill="#E6DAFE"/>
<path d="M15.365 21.3801C15.8993 21.3801 16.3325 20.9469 16.3325 20.4126C16.3325 19.8782 15.8993 19.4451 15.365 19.4451C14.8306 19.4451 14.3975 19.8782 14.3975 20.4126C14.3975 20.9469 14.8306 21.3801 15.365 21.3801Z" fill="#E6DAFE"/>
<path d="M13.2448 24.1049C13.7792 24.1049 14.2123 23.6718 14.2123 23.1374C14.2123 22.6031 13.7792 22.1699 13.2448 22.1699C12.7105 22.1699 12.2773 22.6031 12.2773 23.1374C12.2773 23.6718 12.7105 24.1049 13.2448 24.1049Z" fill="#E6DAFE"/>
<path d="M9.80223 23.5949C10.262 23.5949 10.6347 23.2222 10.6347 22.7624C10.6347 22.3027 10.262 21.9299 9.80223 21.9299C9.34245 21.9299 8.96973 22.3027 8.96973 22.7624C8.96973 23.2222 9.34245 23.5949 9.80223 23.5949Z" fill="#E6DAFE"/>
<path d="M17.2972 23.7826C17.9144 23.7826 18.4147 23.2823 18.4147 22.6651C18.4147 22.0479 17.9144 21.5476 17.2972 21.5476C16.68 21.5476 16.1797 22.0479 16.1797 22.6651C16.1797 23.2823 16.68 23.7826 17.2972 23.7826Z" fill="#E6DAFE"/>
<path d="M15.1472 26.5149C15.763 26.5149 16.2622 26.0157 16.2622 25.3999C16.2622 24.7841 15.763 24.2849 15.1472 24.2849C14.5314 24.2849 14.0322 24.7841 14.0322 25.3999C14.0322 26.0157 14.5314 26.5149 15.1472 26.5149Z" fill="#E6DAFE"/>
<path d="M10.9597 25.9824C11.5065 25.9824 11.9497 25.5392 11.9497 24.9924C11.9497 24.4457 11.5065 24.0024 10.9597 24.0024C10.413 24.0024 9.96973 24.4457 9.96973 24.9924C9.96973 25.5392 10.413 25.9824 10.9597 25.9824Z" fill="#E6DAFE"/>
<path d="M12.8621 28.385C13.4779 28.385 13.9771 27.8858 13.9771 27.27C13.9771 26.6542 13.4779 26.155 12.8621 26.155C12.2463 26.155 11.7471 26.6542 11.7471 27.27C11.7471 27.8858 12.2463 28.385 12.8621 28.385Z" fill="#E6DAFE"/>
<path d="M17.935 28.84C18.6585 28.84 19.245 28.2535 19.245 27.53C19.245 26.8065 18.6585 26.22 17.935 26.22C17.2115 26.22 16.625 26.8065 16.625 27.53C16.625 28.2535 17.2115 28.84 17.935 28.84Z" fill="#E6DAFE"/>
<path d="M20.0471 26.07C20.765 26.07 21.3471 25.4879 21.3471 24.77C21.3471 24.052 20.765 23.47 20.0471 23.47C19.3291 23.47 18.7471 24.052 18.7471 24.77C18.7471 25.4879 19.3291 26.07 20.0471 26.07Z" fill="#E6DAFE"/>
<path d="M23.8171 27.9776C24.6746 27.9776 25.3696 27.2825 25.3696 26.4251C25.3696 25.5676 24.6746 24.8726 23.8171 24.8726C22.9597 24.8726 22.2646 25.5676 22.2646 26.4251C22.2646 27.2825 22.9597 27.9776 23.8171 27.9776Z" fill="#E6DAFE"/>
<path d="M21.3272 22.0876C21.5937 22.0876 21.8097 21.8715 21.8097 21.6051C21.8097 21.3386 21.5937 21.1226 21.3272 21.1226C21.0607 21.1226 20.8447 21.3386 20.8447 21.6051C20.8447 21.8715 21.0607 22.0876 21.3272 22.0876Z" fill="#E6DAFE"/>
<path d="M20.0395 20.6374C20.3612 20.6374 20.622 20.3766 20.622 20.0549C20.622 19.7332 20.3612 19.4724 20.0395 19.4724C19.7178 19.4724 19.457 19.7332 19.457 20.0549C19.457 20.3766 19.7178 20.6374 20.0395 20.6374Z" fill="#E6DAFE"/>
<path d="M18.1671 19.2975C18.5371 19.2975 18.8371 18.9976 18.8371 18.6275C18.8371 18.2575 18.5371 17.9575 18.1671 17.9575C17.797 17.9575 17.4971 18.2575 17.4971 18.6275C17.4971 18.9976 17.797 19.2975 18.1671 19.2975Z" fill="#E6DAFE"/>
<path d="M22.7998 21.7074C23.1325 21.7074 23.4023 21.4377 23.4023 21.1049C23.4023 20.7722 23.1325 20.5024 22.7998 20.5024C22.467 20.5024 22.1973 20.7722 22.1973 21.1049C22.1973 21.4377 22.467 21.7074 22.7998 21.7074Z" fill="#E6DAFE"/>
<path d="M21.5773 19.7875C21.9501 19.7875 22.2523 19.4853 22.2523 19.1125C22.2523 18.7397 21.9501 18.4375 21.5773 18.4375C21.2046 18.4375 20.9023 18.7397 20.9023 19.1125C20.9023 19.4853 21.2046 19.7875 21.5773 19.7875Z" fill="#E6DAFE"/>
<path d="M19.6899 17.9374C20.1372 17.9374 20.4999 17.5747 20.4999 17.1274C20.4999 16.68 20.1372 16.3174 19.6899 16.3174C19.2425 16.3174 18.8799 16.68 18.8799 17.1274C18.8799 17.5747 19.2425 17.9374 19.6899 17.9374Z" fill="#E6DAFE"/>
<path d="M24.3573 20.8726C24.7342 20.8726 25.0398 20.567 25.0398 20.1901C25.0398 19.8131 24.7342 19.5076 24.3573 19.5076C23.9804 19.5076 23.6748 19.8131 23.6748 20.1901C23.6748 20.567 23.9804 20.8726 24.3573 20.8726Z" fill="#E6DAFE"/>
<path d="M23.1354 18.465C23.5883 18.465 23.9554 18.0978 23.9554 17.645C23.9554 17.1921 23.5883 16.825 23.1354 16.825C22.6826 16.825 22.3154 17.1921 22.3154 17.645C22.3154 18.0978 22.6826 18.465 23.1354 18.465Z" fill="#E6DAFE"/>
<path d="M21.0876 16.01C21.622 16.01 22.0551 15.5768 22.0551 15.0425C22.0551 14.5081 21.622 14.075 21.0876 14.075C20.5533 14.075 20.1201 14.5081 20.1201 15.0425C20.1201 15.5768 20.5533 16.01 21.0876 16.01Z" fill="#E6DAFE"/>
<path d="M24.5046 16.4899C25.0389 16.4899 25.4721 16.0568 25.4721 15.5224C25.4721 14.9881 25.0389 14.5549 24.5046 14.5549C23.9703 14.5549 23.5371 14.9881 23.5371 15.5224C23.5371 16.0568 23.9703 16.4899 24.5046 16.4899Z" fill="#E6DAFE"/>
<path d="M25.895 19.5275C26.3548 19.5275 26.7275 19.1548 26.7275 18.695C26.7275 18.2353 26.3548 17.8625 25.895 17.8625C25.4352 17.8625 25.0625 18.2353 25.0625 18.695C25.0625 19.1548 25.4352 19.5275 25.895 19.5275Z" fill="#E6DAFE"/>
<path d="M22.0775 13.3624C22.6946 13.3624 23.195 12.8621 23.195 12.2449C23.195 11.6278 22.6946 11.1274 22.0775 11.1274C21.4603 11.1274 20.96 11.6278 20.96 12.2449C20.96 12.8621 21.4603 13.3624 22.0775 13.3624Z" fill="#E6DAFE"/>
<path d="M25.5203 13.8626C26.1361 13.8626 26.6353 13.3634 26.6353 12.7476C26.6353 12.1318 26.1361 11.6326 25.5203 11.6326C24.9045 11.6326 24.4053 12.1318 24.4053 12.7476C24.4053 13.3634 24.9045 13.8626 25.5203 13.8626Z" fill="#E6DAFE"/>
<path d="M27.2527 17.5725C27.7995 17.5725 28.2427 17.1293 28.2427 16.5825C28.2427 16.0358 27.7995 15.5925 27.2527 15.5925C26.7059 15.5925 26.2627 16.0358 26.2627 16.5825C26.2627 17.1293 26.7059 17.5725 27.2527 17.5725Z" fill="#E6DAFE"/>
<path d="M28.28 14.9126C28.8958 14.9126 29.395 14.4134 29.395 13.7976C29.395 13.1818 28.8958 12.6826 28.28 12.6826C27.6642 12.6826 27.165 13.1818 27.165 13.7976C27.165 14.4134 27.6642 14.9126 28.28 14.9126Z" fill="#E6DAFE"/>
<path d="M25.978 10.5775C26.7015 10.5775 27.288 9.99101 27.288 9.26752C27.288 8.54403 26.7015 7.95752 25.978 7.95752C25.2545 7.95752 24.668 8.54403 24.668 9.26752C24.668 9.99101 25.2545 10.5775 25.978 10.5775Z" fill="#E6DAFE"/>
<path d="M22.5324 10.11C23.2504 10.11 23.8324 9.52798 23.8324 8.81001C23.8324 8.09204 23.2504 7.51001 22.5324 7.51001C21.8145 7.51001 21.2324 8.09204 21.2324 8.81001C21.2324 9.52798 21.8145 10.11 22.5324 10.11Z" fill="#E6DAFE"/>
<path d="M22.0925 6.2676C22.95 6.2676 23.645 5.57252 23.645 4.7151C23.645 3.85768 22.95 3.1626 22.0925 3.1626C21.2351 3.1626 20.54 3.85768 20.54 4.7151C20.54 5.57252 21.2351 6.2676 22.0925 6.2676Z" fill="#E6DAFE"/>
<path d="M19.1573 9.74503C19.4238 9.74503 19.6398 9.52901 19.6398 9.26253C19.6398 8.99605 19.4238 8.78003 19.1573 8.78003C18.8908 8.78003 18.6748 8.99605 18.6748 9.26253C18.6748 9.52901 18.8908 9.74503 19.1573 9.74503Z" fill="#E6DAFE"/>
<path d="M18.4624 11.7351C18.7841 11.7351 19.0449 11.4743 19.0449 11.1526C19.0449 10.8309 18.7841 10.5701 18.4624 10.5701C18.1407 10.5701 17.8799 10.8309 17.8799 11.1526C17.8799 11.4743 18.1407 11.7351 18.4624 11.7351Z" fill="#E6DAFE"/>
<path d="M18.1651 14.1601C18.5351 14.1601 18.8351 13.8601 18.8351 13.4901C18.8351 13.12 18.5351 12.8201 18.1651 12.8201C17.7951 12.8201 17.4951 13.12 17.4951 13.4901C17.4951 13.8601 17.7951 14.1601 18.1651 14.1601Z" fill="#E6DAFE"/>
<path d="M17.9873 8.84245C18.32 8.84245 18.5898 8.5727 18.5898 8.23995C18.5898 7.9072 18.32 7.63745 17.9873 7.63745C17.6545 7.63745 17.3848 7.9072 17.3848 8.23995C17.3848 8.5727 17.6545 8.84245 17.9873 8.84245Z" fill="#E6DAFE"/>
<path d="M16.8752 10.9701C17.248 10.9701 17.5502 10.6679 17.5502 10.2951C17.5502 9.92233 17.248 9.62012 16.8752 9.62012C16.5024 9.62012 16.2002 9.92233 16.2002 10.2951C16.2002 10.6679 16.5024 10.9701 16.8752 10.9701Z" fill="#E6DAFE"/>
<path d="M16.1049 13.7325C16.5523 13.7325 16.9149 13.3699 16.9149 12.9225C16.9149 12.4752 16.5523 12.1125 16.1049 12.1125C15.6576 12.1125 15.2949 12.4752 15.2949 12.9225C15.2949 13.3699 15.6576 13.7325 16.1049 13.7325Z" fill="#E6DAFE"/>
<path d="M16.4149 8.03248C16.7919 8.03248 17.0974 7.72691 17.0974 7.34998C17.0974 6.97305 16.7919 6.66748 16.4149 6.66748C16.038 6.66748 15.7324 6.97305 15.7324 7.34998C15.7324 7.72691 16.038 8.03248 16.4149 8.03248Z" fill="#E6DAFE"/>
<path d="M14.8249 10.5025C15.2778 10.5025 15.6449 10.1354 15.6449 9.68255C15.6449 9.22968 15.2778 8.86255 14.8249 8.86255C14.372 8.86255 14.0049 9.22968 14.0049 9.68255C14.0049 10.1354 14.372 10.5025 14.8249 10.5025Z" fill="#E6DAFE"/>
<path d="M13.6003 13.7275C14.1346 13.7275 14.5678 13.2943 14.5678 12.76C14.5678 12.2256 14.1346 11.7925 13.6003 11.7925C13.066 11.7925 12.6328 12.2256 12.6328 12.76C12.6328 13.2943 13.066 13.7275 13.6003 13.7275Z" fill="#E6DAFE"/>
<path d="M12.3025 10.53C12.8368 10.53 13.27 10.0968 13.27 9.56247C13.27 9.02813 12.8368 8.59497 12.3025 8.59497C11.7681 8.59497 11.335 9.02813 11.335 9.56247C11.335 10.0968 11.7681 10.53 12.3025 10.53Z" fill="#E6DAFE"/>
<path d="M14.352 7.6025C14.8118 7.6025 15.1845 7.22978 15.1845 6.77C15.1845 6.31022 14.8118 5.9375 14.352 5.9375C13.8923 5.9375 13.5195 6.31022 13.5195 6.77C13.5195 7.22978 13.8923 7.6025 14.352 7.6025Z" fill="#E6DAFE"/>
<path d="M10.6829 14.4225C11.3001 14.4225 11.8004 13.9222 11.8004 13.305C11.8004 12.6878 11.3001 12.1875 10.6829 12.1875C10.0658 12.1875 9.56543 12.6878 9.56543 13.305C9.56543 13.9222 10.0658 14.4225 10.6829 14.4225Z" fill="#E6DAFE"/>
<path d="M9.39039 11.19C10.0062 11.19 10.5054 10.6908 10.5054 10.075C10.5054 9.45916 10.0062 8.95996 9.39039 8.95996C8.77459 8.95996 8.27539 9.45916 8.27539 10.075C8.27539 10.6908 8.77459 11.19 9.39039 11.19Z" fill="#E6DAFE"/>
<path d="M11.8425 7.64504C12.3893 7.64504 12.8325 7.2018 12.8325 6.65504C12.8325 6.10828 12.3893 5.66504 11.8425 5.66504C11.2958 5.66504 10.8525 6.10828 10.8525 6.65504C10.8525 7.2018 11.2958 7.64504 11.8425 7.64504Z" fill="#E6DAFE"/>
<path d="M8.91773 8.27492C9.53353 8.27492 10.0327 7.77572 10.0327 7.15992C10.0327 6.54412 9.53353 6.04492 8.91773 6.04492C8.30194 6.04492 7.80273 6.54412 7.80273 7.15992C7.80273 7.77572 8.30194 8.27492 8.91773 8.27492Z" fill="#E6DAFE"/>
<path d="M6.15277 12.7325C6.87627 12.7325 7.46277 12.146 7.46277 11.4225C7.46277 10.6991 6.87627 10.1125 6.15277 10.1125C5.42928 10.1125 4.84277 10.6991 4.84277 11.4225C4.84277 12.146 5.42928 12.7325 6.15277 12.7325Z" fill="#E6DAFE"/>
<path d="M7.48262 15.9325C8.20059 15.9325 8.78262 15.3505 8.78262 14.6325C8.78262 13.9145 8.20059 13.3325 7.48262 13.3325C6.76465 13.3325 6.18262 13.9145 6.18262 14.6325C6.18262 15.3505 6.76465 15.9325 7.48262 15.9325Z" fill="#E6DAFE"/>
<path d="M4.15992 18.6199C5.01734 18.6199 5.71242 17.9248 5.71242 17.0674C5.71242 16.21 5.01734 15.5149 4.15992 15.5149C3.3025 15.5149 2.60742 16.21 2.60742 17.0674C2.60742 17.9248 3.3025 18.6199 4.15992 18.6199Z" fill="#E6DAFE"/>
</svg>
