<svg width="32" height="32" viewBox="0 0 32 32" fill="none" xmlns="http://www.w3.org/2000/svg">
<path d="M14.7542 15.9947L24.4111 21.5629C24.4883 21.6068 24.5756 21.6297 24.6643 21.6295C24.7531 21.6292 24.8402 21.6058 24.9172 21.5614C24.9942 21.5171 25.0584 21.4534 25.1036 21.3766C25.1486 21.2998 25.1731 21.2125 25.1746 21.1233L25.1762 10.8694C25.1752 10.7801 25.151 10.6925 25.1061 10.6154C25.0611 10.5383 24.9968 10.4744 24.9197 10.43C24.8426 10.3856 24.7552 10.3621 24.6663 10.3621C24.5774 10.362 24.4901 10.3853 24.4129 10.4296L14.7542 15.9947Z" fill="#E6DAFE"/>
<path d="M23.85 8.03011L17.4395 3.10334C17.3711 3.05169 17.2909 3.01805 17.2063 3.00551C17.1217 2.99297 17.0353 3.00191 16.955 3.03153C16.8747 3.06114 16.803 3.11049 16.7465 3.17507C16.69 3.23965 16.6505 3.31742 16.6316 3.40129L14.2876 14.3702L23.798 8.87967C23.8716 8.83832 23.9336 8.77906 23.9785 8.70734C24.0233 8.63562 24.0495 8.55374 24.0547 8.46917C24.0599 8.3846 24.0439 8.30012 24.0081 8.2234C23.9723 8.14667 23.918 8.0802 23.85 8.03011Z" fill="#E6DAFE"/>
<path d="M17.4349 28.8943L23.8619 23.9622C23.9283 23.9111 23.9812 23.8443 24.016 23.7679C24.0507 23.6914 24.0662 23.6075 24.0611 23.5235C24.056 23.4396 24.0304 23.3582 23.9867 23.2866C23.9429 23.2149 23.8822 23.1551 23.8101 23.1126L14.2866 17.6264L16.6345 28.5961C16.6516 28.6802 16.6899 28.7585 16.7455 28.8237C16.8011 28.8888 16.8723 28.9387 16.9524 28.9685C17.0325 28.9983 17.1188 29.0072 17.2032 28.9942C17.2876 28.9812 17.3673 28.9468 17.4349 28.8943Z" fill="#E6DAFE"/>
<path d="M12.2783 15.9944L14.8077 4.17608C14.8297 4.07371 14.8197 3.96703 14.7791 3.87058C14.7386 3.77413 14.6694 3.69262 14.581 3.63718C14.4927 3.58174 14.3894 3.55506 14.2854 3.56079C14.1814 3.56653 14.0817 3.60439 13.9999 3.66921L7.52846 8.63861C7.3645 8.76464 7.2317 8.92706 7.14039 9.11318C7.04908 9.2993 7.00174 9.50407 7.00204 9.71157L7 22.2979C6.99963 22.5055 7.04691 22.7102 7.13816 22.8964C7.22941 23.0825 7.36216 23.245 7.52608 23.3711L13.9959 28.3352C14.0783 28.3973 14.1775 28.4329 14.2803 28.4374C14.3833 28.4418 14.4851 28.4149 14.5725 28.3601C14.6599 28.3053 14.7288 28.2252 14.7701 28.1304C14.8114 28.0355 14.8231 27.9303 14.8039 27.8286L12.2783 15.9944Z" fill="#E6DAFE"/>
</svg>
