<svg width="32" height="32" viewBox="0 0 32 32" fill="none" xmlns="http://www.w3.org/2000/svg">
<path fill-rule="evenodd" clip-rule="evenodd" d="M22.5428 3.83068C23.0303 3.88919 23.3358 4.38321 23.1733 4.84474L20.7942 11.6116C20.5797 12.2161 19.7671 12.3071 19.4226 11.7611L18.9156 10.9486L9.73059 16.6884L8.78804 15.1738C7.27346 12.7622 8.008 9.57698 10.4261 8.0689L15.2429 5.05925L14.6838 4.1687C14.3458 3.62267 14.7814 2.93364 15.4184 3.00514L22.5428 3.83068ZM12.9093 19.516C9.58758 21.4336 8.45002 25.6783 10.3676 29L19.7151 23.6047C22.1852 22.1811 23.0303 19.0285 21.6002 16.5583L20.7097 15.0113L12.9028 19.516H12.9093Z" fill="#E6DAFE"/>
</svg>
