<?xml version="1.0" encoding="UTF-8"?>
<!DOCTYPE svg PUBLIC "-//W3C//DTD SVG 1.1//EN" "http://www.w3.org/Graphics/SVG/1.1/DTD/svg11.dtd">
<svg xmlns="http://www.w3.org/2000/svg" version="1.1" width="64px" height="64px" style="shape-rendering:geometricPrecision; text-rendering:geometricPrecision; image-rendering:optimizeQuality; fill-rule:evenodd; clip-rule:evenodd" xmlns:xlink="http://www.w3.org/1999/xlink">
<g><path style="opacity:1" fill="#feaf02" d="M -0.5,-0.5 C 20.8333,-0.5 42.1667,-0.5 63.5,-0.5C 63.5,20.8333 63.5,42.1667 63.5,63.5C 42.1667,63.5 20.8333,63.5 -0.5,63.5C -0.5,42.1667 -0.5,20.8333 -0.5,-0.5 Z"/></g>
<g><path style="opacity:1" fill="#7f4d15" d="M 45.5,14.5 C 44.1667,15.1667 42.8333,15.8333 41.5,16.5C 39.4885,17.2283 37.4885,18.0617 35.5,19C 36.3805,19.7083 37.0472,20.5416 37.5,21.5C 34.5968,21.0927 31.5968,20.9261 28.5,21C 34.6212,19.9282 34.7879,18.7615 29,17.5C 27.1886,18.0779 25.3553,18.5779 23.5,19C 22.2949,20.3756 20.9616,21.5423 19.5,22.5C 20.038,20.8828 20.3713,19.2161 20.5,17.5C 19.0413,17.4326 17.7079,17.7659 16.5,18.5C 19.4695,11.6038 24.3029,9.9371 31,13.5C 33.5116,11.9108 36.1783,10.5775 39,9.5C 42.4479,9.67523 44.6146,11.3419 45.5,14.5 Z"/></g>
<g><path style="opacity:1" fill="#1a0e06" d="M 45.5,14.5 C 46.7095,14.9321 47.7095,15.5987 48.5,16.5C 46.1667,16.5 43.8333,16.5 41.5,16.5C 42.8333,15.8333 44.1667,15.1667 45.5,14.5 Z"/></g>
<g><path style="opacity:1" fill="#efc58b" d="M 41.5,16.5 C 43.8333,16.5 46.1667,16.5 48.5,16.5C 48.8333,16.5 49.1667,16.5 49.5,16.5C 47.7226,17.6005 45.7226,18.4338 43.5,19C 46.3327,19.4462 48.9994,18.9462 51.5,17.5C 51.5,18.8333 52.1667,19.5 53.5,19.5C 53.1583,20.3382 52.4916,20.6716 51.5,20.5C 50.8333,20.5 50.1667,20.5 49.5,20.5C 46.8478,20.4095 44.5145,21.0762 42.5,22.5C 41.8485,21.9094 41.1818,21.2427 40.5,20.5C 39.5832,21.1272 38.5832,21.4606 37.5,21.5C 37.0472,20.5416 36.3805,19.7083 35.5,19C 37.4885,18.0617 39.4885,17.2283 41.5,16.5 Z"/></g>
<g><path style="opacity:1" fill="#6c563d" d="M 49.5,16.5 C 50.4916,16.3284 51.1583,16.6618 51.5,17.5C 48.9994,18.9462 46.3327,19.4462 43.5,19C 45.7226,18.4338 47.7226,17.6005 49.5,16.5 Z"/></g>
<g><path style="opacity:1" fill="#180600" d="M 51.5,17.5 C 52.5,17.8333 53.1667,18.5 53.5,19.5C 52.1667,19.5 51.5,18.8333 51.5,17.5 Z"/></g>
<g><path style="opacity:1" fill="#060505" d="M 49.5,20.5 C 50.1667,22.5 50.8333,24.5 51.5,26.5C 49.2362,27.2186 46.9029,27.552 44.5,27.5C 42.8843,25.5842 43.2177,24.0842 45.5,23C 44.552,22.5172 43.552,22.3505 42.5,22.5C 44.5145,21.0762 46.8478,20.4095 49.5,20.5 Z"/></g>
<g><path style="opacity:1" fill="#170c05" d="M 53.5,19.5 C 54.9063,19.9731 55.573,20.9731 55.5,22.5C 54.0048,22.0113 52.6715,21.3446 51.5,20.5C 52.4916,20.6716 53.1583,20.3382 53.5,19.5 Z"/></g>
<g><path style="opacity:1" fill="#f0e8df" d="M 49.5,20.5 C 50.1667,20.5 50.8333,20.5 51.5,20.5C 52.6715,21.3446 54.0048,22.0113 55.5,22.5C 55.5,22.8333 55.5,23.1667 55.5,23.5C 54.7611,23.369 54.0944,23.5357 53.5,24C 54.2524,24.6708 54.5858,25.5041 54.5,26.5C 53.5,26.5 52.5,26.5 51.5,26.5C 50.8333,24.5 50.1667,22.5 49.5,20.5 Z"/></g>
<g><path style="opacity:1" fill="#e8bf85" d="M 37.5,21.5 C 37.8333,22.1667 38.1667,22.8333 38.5,23.5C 36.8333,23.5 35.1667,23.5 33.5,23.5C 31.0108,23.2978 28.6775,23.7978 26.5,25C 27.056,25.3826 27.3893,25.8826 27.5,26.5C 26.391,26.5569 25.391,26.8902 24.5,27.5C 22.8333,28.8333 21.1667,28.8333 19.5,27.5C 19.5,25.8333 19.5,24.1667 19.5,22.5C 20.9616,21.5423 22.2949,20.3756 23.5,19C 25.3553,18.5779 27.1886,18.0779 29,17.5C 34.7879,18.7615 34.6212,19.9282 28.5,21C 31.5968,20.9261 34.5968,21.0927 37.5,21.5 Z"/></g>
<g><path style="opacity:1" fill="#76644d" d="M 42.5,22.5 C 41.3995,23.6049 40.7329,24.9382 40.5,26.5C 40.1667,26.5 39.8333,26.5 39.5,26.5C 39.4431,25.391 39.1098,24.391 38.5,23.5C 38.1667,22.8333 37.8333,22.1667 37.5,21.5C 38.5832,21.4606 39.5832,21.1272 40.5,20.5C 41.1818,21.2427 41.8485,21.9094 42.5,22.5 Z"/></g>
<g><path style="opacity:1" fill="#151413" d="M 33.5,23.5 C 34.3414,25.3792 34.6747,27.3792 34.5,29.5C 34.5,29.8333 34.5,30.1667 34.5,30.5C 31.2869,30.81 28.2869,30.4767 25.5,29.5C 27.0481,29.1788 27.7148,28.1788 27.5,26.5C 27.3893,25.8826 27.056,25.3826 26.5,25C 28.6775,23.7978 31.0108,23.2978 33.5,23.5 Z"/></g>
<g><path style="opacity:1" fill="#fcfcfc" d="M 33.5,23.5 C 35.1667,23.5 36.8333,23.5 38.5,23.5C 39.1098,24.391 39.4431,25.391 39.5,26.5C 39.1667,27.1667 38.8333,27.8333 38.5,28.5C 37.0413,28.4326 35.7079,28.7659 34.5,29.5C 34.6747,27.3792 34.3414,25.3792 33.5,23.5 Z"/></g>
<g><path style="opacity:1" fill="#f7f8f7" d="M 42.5,22.5 C 43.552,22.3505 44.552,22.5172 45.5,23C 43.2177,24.0842 42.8843,25.5842 44.5,27.5C 42.901,27.7678 41.5676,27.4345 40.5,26.5C 40.7329,24.9382 41.3995,23.6049 42.5,22.5 Z"/></g>
<g><path style="opacity:1" fill="#0c0908" d="M 55.5,23.5 C 55.7373,24.791 55.404,25.791 54.5,26.5C 54.5858,25.5041 54.2524,24.6708 53.5,24C 54.0944,23.5357 54.7611,23.369 55.5,23.5 Z"/></g>
<g><path style="opacity:1" fill="#482a0e" d="M 14.5,22.5 C 15.3643,26.4694 15.1977,30.4694 14,34.5C 13.5065,32.8659 13.3398,31.1992 13.5,29.5C 10.2027,29.6713 9.86935,29.0046 12.5,27.5C 12.0431,26.7025 11.3764,26.3691 10.5,26.5C 12.1667,25.5 13.5,24.1667 14.5,22.5 Z"/></g>
<g><path style="opacity:1" fill="#fdfefd" d="M 27.5,26.5 C 27.7148,28.1788 27.0481,29.1788 25.5,29.5C 25.1667,28.8333 24.8333,28.1667 24.5,27.5C 25.391,26.8902 26.391,26.5569 27.5,26.5 Z"/></g>
<g><path style="opacity:1" fill="#1d0d03" d="M 51.5,26.5 C 52.5,26.5 53.5,26.5 54.5,26.5C 53.7095,27.4013 52.7095,28.0679 51.5,28.5C 51.5,27.8333 51.5,27.1667 51.5,26.5 Z"/></g>
<g><path style="opacity:1" fill="#170b08" d="M 39.5,26.5 C 39.8333,26.5 40.1667,26.5 40.5,26.5C 41.5676,27.4345 42.901,27.7678 44.5,27.5C 42.7354,28.4614 40.7354,28.7947 38.5,28.5C 38.8333,27.8333 39.1667,27.1667 39.5,26.5 Z"/></g>
<g><path style="opacity:1" fill="#935609" d="M 19.5,22.5 C 19.5,24.1667 19.5,25.8333 19.5,27.5C 19.2155,29.4147 19.5489,31.0813 20.5,32.5C 21.1059,35.1159 20.7725,37.7826 19.5,40.5C 20.0666,46.2322 23.2333,48.8988 29,48.5C 33.4786,47.8356 37.9786,47.5023 42.5,47.5C 43.1667,47.5 43.5,47.8333 43.5,48.5C 41.0045,50.7143 38.0045,51.8809 34.5,52C 27.8333,52.6667 21.1667,52.6667 14.5,52C 10.9389,51.2723 8.93895,49.1057 8.5,45.5C 8.18723,41.9581 8.52056,38.6248 9.5,35.5C 9.16667,34.5 8.5,33.8333 7.5,33.5C 5.66977,30.022 6.66977,27.6886 10.5,26.5C 11.3764,26.3691 12.0431,26.7025 12.5,27.5C 9.86935,29.0046 10.2027,29.6713 13.5,29.5C 13.3398,31.1992 13.5065,32.8659 14,34.5C 15.1977,30.4694 15.3643,26.4694 14.5,22.5C 14.2291,20.6203 14.8958,19.287 16.5,18.5C 17.7079,17.7659 19.0413,17.4326 20.5,17.5C 20.3713,19.2161 20.038,20.8828 19.5,22.5 Z"/></g>
<g><path style="opacity:1" fill="#22180f" d="M 51.5,28.5 C 51.4326,29.9587 51.7659,31.2921 52.5,32.5C 51.0871,31.2342 49.7538,30.5675 48.5,30.5C 49.3569,29.5748 50.3569,28.9081 51.5,28.5 Z"/></g>
<g><path style="opacity:1" fill="#140b07" d="M 19.5,27.5 C 21.1667,28.8333 22.8333,28.8333 24.5,27.5C 24.8333,28.1667 25.1667,28.8333 25.5,29.5C 23.8333,29.5 22.1667,29.5 20.5,29.5C 20.5,30.5 20.5,31.5 20.5,32.5C 19.5489,31.0813 19.2155,29.4147 19.5,27.5 Z"/></g>
<g><path style="opacity:1" fill="#7f694d" d="M 38.5,28.5 C 38.6107,29.1174 38.944,29.6174 39.5,30C 37.6313,31.6017 35.6313,32.6017 33.5,33C 34.2524,32.3292 34.5858,31.4959 34.5,30.5C 34.5,30.1667 34.5,29.8333 34.5,29.5C 35.7079,28.7659 37.0413,28.4326 38.5,28.5 Z"/></g>
<g><path style="opacity:1" fill="#e3ba80" d="M 51.5,26.5 C 51.5,27.1667 51.5,27.8333 51.5,28.5C 50.3569,28.9081 49.3569,29.5748 48.5,30.5C 49.7538,30.5675 51.0871,31.2342 52.5,32.5C 52.1742,34.6607 51.1742,36.4941 49.5,38C 43.9116,39.2889 38.2449,39.7889 32.5,39.5C 32.0269,38.0937 31.0269,37.427 29.5,37.5C 26.9709,36.0948 25.3043,36.9282 24.5,40C 25.9896,43.6716 28.6563,45.5049 32.5,45.5C 35.8333,46.1667 39.1667,46.8333 42.5,47.5C 37.9786,47.5023 33.4786,47.8356 29,48.5C 23.2333,48.8988 20.0666,46.2322 19.5,40.5C 20.7725,37.7826 21.1059,35.1159 20.5,32.5C 20.5,31.5 20.5,30.5 20.5,29.5C 22.1667,29.5 23.8333,29.5 25.5,29.5C 28.2869,30.4767 31.2869,30.81 34.5,30.5C 34.5858,31.4959 34.2524,32.3292 33.5,33C 35.6313,32.6017 37.6313,31.6017 39.5,30C 38.944,29.6174 38.6107,29.1174 38.5,28.5C 40.7354,28.7947 42.7354,28.4614 44.5,27.5C 46.9029,27.552 49.2362,27.2186 51.5,26.5 Z"/></g>
<g><path style="opacity:1" fill="#43270c" d="M 9.5,35.5 C 16.4115,36.7598 16.7448,37.2598 10.5,37C 9.94404,36.6174 9.61071,36.1174 9.5,35.5 Z"/></g>
<g><path style="opacity:1" fill="#692a1e" d="M 54.5,34.5 C 55.7685,40.3014 53.4351,44.3014 47.5,46.5C 45.901,46.7678 44.5676,46.4345 43.5,45.5C 45.5643,45.313 47.5643,44.813 49.5,44C 50.4506,43.2825 50.6172,42.4491 50,41.5C 48.9887,42.3366 47.8221,42.67 46.5,42.5C 50.1604,40.8396 52.8271,38.1729 54.5,34.5 Z"/></g>
<g><path style="opacity:1" fill="#402815" d="M 7.5,33.5 C 8.5,33.8333 9.16667,34.5 9.5,35.5C 8.52056,38.6248 8.18723,41.9581 8.5,45.5C 7.51658,41.7016 7.18325,37.7016 7.5,33.5 Z"/></g>
<g><path style="opacity:1" fill="#b72819" d="M 52.5,32.5 C 53.5,32.8333 54.1667,33.5 54.5,34.5C 52.8271,38.1729 50.1604,40.8396 46.5,42.5C 47.8221,42.67 48.9887,42.3366 50,41.5C 50.6172,42.4491 50.4506,43.2825 49.5,44C 47.5643,44.813 45.5643,45.313 43.5,45.5C 39.8333,45.5 36.1667,45.5 32.5,45.5C 28.6563,45.5049 25.9896,43.6716 24.5,40C 25.3043,36.9282 26.9709,36.0948 29.5,37.5C 29.9731,38.9063 30.9731,39.573 32.5,39.5C 38.2449,39.7889 43.9116,39.2889 49.5,38C 51.1742,36.4941 52.1742,34.6607 52.5,32.5 Z"/></g>
<g><path style="opacity:1" fill="#452315" d="M 29.5,37.5 C 31.0269,37.427 32.0269,38.0937 32.5,39.5C 30.9731,39.573 29.9731,38.9063 29.5,37.5 Z"/></g>
<g><path style="opacity:1" fill="#390d0a" d="M 46.5,42.5 C 41.2608,43.8599 35.9275,43.6932 30.5,42C 35.7885,42.2719 41.1218,42.4385 46.5,42.5 Z"/></g>
<g><path style="opacity:1" fill="#160a08" d="M 32.5,45.5 C 36.1667,45.5 39.8333,45.5 43.5,45.5C 44.5676,46.4345 45.901,46.7678 47.5,46.5C 46.4863,47.6737 45.153,48.3404 43.5,48.5C 43.5,47.8333 43.1667,47.5 42.5,47.5C 39.1667,46.8333 35.8333,46.1667 32.5,45.5 Z"/></g>
</svg>
