<svg width="32" height="32" viewBox="0 0 32 32" fill="none" xmlns="http://www.w3.org/2000/svg">
<g clip-path="url(#clip0_13991_855)">
<path d="M28.9189 15.4354C28.6689 14.4294 28.2943 13.7024 27.9976 13.2222C26.6541 11.0516 24.1102 9.47829 23.7741 9.29576C23.438 9.11323 23.218 8.88818 23.0396 8.55216C22.8061 8.1114 21.3703 5.9335 19.9521 4.78232C19.3939 4.32911 18.4913 3.75248 17.099 3.41335C15.963 3.25468 15.1175 3.40402 14.6081 3.53884C11.4469 4.37578 9.28999 7.8179 9.0327 8.28459C8.74429 8.80625 8.39155 9.16198 7.86555 9.44303C6.22946 10.3163 4.82577 11.4654 3.86196 13.0863C3.41792 13.8331 3.24363 14.474 3.18449 14.7032C3.09423 15.0548 2.83694 16.1873 3.14818 17.5967C3.20109 17.8342 3.41273 18.6182 3.93769 19.5568C4.89113 21.2597 6.38508 22.5001 8.18509 23.4729C8.49011 23.6378 8.68826 23.8421 8.85115 24.147C8.98083 24.3886 10.9022 27.7011 13.4886 28.8512C15.2606 29.6394 17.0108 29.265 17.2515 29.2101C20.2083 28.537 22.276 25.4952 22.6443 24.8553C22.857 24.4851 23.0925 24.1698 23.3612 23.8929C23.8436 23.3961 24.3115 23.1379 24.4495 23.0591C25.1809 22.639 28.0941 20.6551 28.8214 17.8477C28.9531 17.3405 29.0859 16.5243 28.9168 15.4385L28.9189 15.4354ZM7.55016 12.154C6.95465 15.0102 6.95777 17.7834 7.58336 20.6654C4.00824 17.9171 4.6245 14.222 7.55016 12.154ZM20.1398 7.88946C20.1398 7.88946 20.1347 7.90813 20.1326 7.91746C20.1284 7.90398 20.1243 7.89153 20.1191 7.87805C20.1264 7.88116 20.1336 7.88427 20.1398 7.88946ZM12.2738 7.24957C13.3475 6.13988 14.5946 5.37554 16.2058 5.50621C17.8854 5.64103 19.1677 6.47797 20.1004 7.86664C19.6315 7.95791 19.1989 7.74945 18.7486 7.6893C16.5917 7.39788 14.4452 7.4238 12.3059 7.84486C12.1596 7.8739 12.0092 7.95583 11.8432 7.85627C11.8619 7.56692 12.1036 7.42484 12.2738 7.24957ZM9.37714 13.6236C10.5018 14.6015 10.6844 17.7315 9.39893 19.1523C9.08976 17.2835 9.08354 15.4696 9.37714 13.6236ZM16.3022 27.2334C14.3331 27.3838 12.9543 26.3332 11.7955 24.8543C14.5666 25.3884 17.3242 25.3915 20.1025 24.8636C19.1387 26.1589 17.956 27.1069 16.3012 27.2334H16.3022ZM21.3775 22.2584C18.9966 23.1265 16.545 23.3474 14.0126 23.0601C14.0333 22.9917 14.0323 22.9242 14.0613 22.9076C15.0365 22.3269 15.9713 21.6756 17.0347 21.2493C17.8045 20.9403 18.594 20.8231 19.4198 20.9185C19.8535 20.9683 20.3785 21.0181 20.4843 20.4663C20.5901 19.9187 20.0724 19.759 19.6668 19.6315C18.0068 19.1108 16.4236 19.3566 14.9141 20.177C14.2315 20.5483 13.5644 20.9475 12.8776 21.3105C12.1493 21.6963 11.3753 21.9224 10.5391 21.8737C10.3109 21.8602 10.1003 21.8477 9.99651 21.575C9.89588 21.3116 10.0224 21.1622 10.177 20.9828C12.5352 18.2366 12.5393 14.4657 10.1905 11.7651C9.80043 11.316 9.97369 10.6855 10.5671 10.4666C12.2042 9.86202 13.9047 9.59756 15.6435 9.554C16.3956 9.53533 17.1436 9.56956 17.8968 9.76142C16.2037 10.7633 14.6516 12.1021 12.475 11.8107C12.4408 11.8066 12.4066 11.8014 12.3723 11.7993C11.9781 11.7786 11.5486 11.7848 11.4355 12.2422C11.3182 12.7171 11.7229 12.9152 12.0829 13.0418C13.4575 13.524 14.8259 13.4877 16.1829 12.9412C17.1343 12.5585 17.9788 11.9818 18.8783 11.5048C19.6522 11.0941 20.4615 10.8141 21.3537 10.8587C21.5757 10.8701 21.7967 10.8659 21.915 11.1314C22.0405 11.4114 21.9056 11.5743 21.7375 11.7682C19.3939 14.4574 19.3866 18.2604 21.7137 20.9506C22.1141 21.4132 21.9627 22.0458 21.3786 22.2584H21.3775ZM22.5322 19.1928C21.3423 17.8477 21.335 14.9967 22.5198 13.523C22.8321 15.4385 22.8414 17.2617 22.5322 19.1928ZM24.435 20.5317C24.9744 17.7554 24.9516 15.0019 24.4329 12.2235C25.7422 13.1662 26.6676 14.3609 26.8056 16.0027C26.9716 17.9804 25.9362 19.3826 24.4339 20.5317H24.435Z" fill="#E6DAFE"/>
</g>
<defs>
<clipPath id="clip0_13991_855">
<rect width="26" height="26" fill="white" transform="translate(2.99982 3.34497)"/>
</clipPath>
</defs>
</svg>
