<svg width="32" height="32" viewBox="0 0 32 32" fill="none" xmlns="http://www.w3.org/2000/svg">
<path d="M16 3C8.83407 3 3 8.83407 3 16C3 23.1659 8.83407 29 16 29C23.1659 29 29 23.1659 29 16C29 8.83407 23.1741 3 16 3ZM16 26.9654C9.95349 26.9654 5.04274 22.0465 5.04274 16.0082C5.04274 9.96983 9.96166 5.04274 16 5.04274C22.0383 5.04274 26.9573 9.96166 26.9573 16C26.9573 22.0383 22.0383 26.9573 16 26.9573V26.9654Z" fill="#E6DAFE"/>
<path d="M20.3224 18.0754V14.0226C20.3224 13.4752 20.2243 12.9931 20.02 12.5845C19.8158 12.1678 19.5379 11.8165 19.1702 11.5468C18.8107 11.2772 18.3858 11.0647 17.8874 10.9258C17.3971 10.7869 16.866 10.7134 16.3022 10.7134C15.6649 10.7134 15.1011 10.7951 14.6108 10.9585C14.1206 11.1138 13.7039 11.3344 13.3607 11.604C13.0257 11.8737 12.7642 12.1923 12.5844 12.5519C12.4129 12.9114 12.323 13.2954 12.323 13.6958H14.7498C14.7498 13.3444 14.8641 13.0585 15.0929 12.846C15.3217 12.6336 15.6812 12.5192 16.1715 12.5192C16.7271 12.5192 17.1602 12.6499 17.4543 12.9196C17.7485 13.181 17.8956 13.5405 17.8956 13.9899V14.5456H16.5392C15.0684 14.5456 13.9572 14.8152 13.2136 15.3627C12.4782 15.902 12.1024 16.67 12.1024 17.6669C12.1024 18.0754 12.1841 18.4513 12.3475 18.8026C12.5109 19.1458 12.7397 19.44 13.0257 19.6933C13.3198 19.9466 13.663 20.1345 14.0634 20.2816C14.4719 20.4205 14.9132 20.494 15.3953 20.494C15.6894 20.494 15.9672 20.4613 16.2205 20.4042C16.4738 20.3551 16.7108 20.2816 16.9151 20.1835C17.1275 20.0855 17.3236 19.9711 17.5034 19.8404C17.675 19.7096 17.8302 19.5789 17.9691 19.4318C18.0018 19.6034 18.0345 19.7586 18.0753 19.9139C18.1162 20.0691 18.1652 20.1999 18.2224 20.3143H20.6819V20.1672C20.5593 19.9302 20.4694 19.6443 20.4041 19.3092C20.3387 18.9742 20.306 18.5575 20.306 18.0509L20.3224 18.0754ZM17.8956 17.6424C17.822 17.7649 17.7322 17.8875 17.6096 18.0101C17.487 18.1245 17.3399 18.2307 17.1765 18.3206C17.0049 18.4104 16.817 18.4921 16.6127 18.5493C16.4003 18.6065 16.1797 18.6392 15.9345 18.6392C15.4688 18.6392 15.1174 18.533 14.8887 18.3124C14.6599 18.0999 14.5455 17.8303 14.5455 17.5035C14.5455 17.291 14.5863 17.0867 14.668 16.907C14.7498 16.719 14.8723 16.5638 15.0439 16.4331C15.2155 16.3023 15.4279 16.1961 15.6976 16.1307C15.9672 16.0572 16.2859 16.0163 16.6699 16.0163H17.9119V17.6424H17.8956Z" fill="#E6DAFE"/>
</svg>
