<svg width="32" height="32" viewBox="0 0 32 32" fill="none" xmlns="http://www.w3.org/2000/svg">
<path d="M22.1946 12.41C23.2721 9.59749 23.4446 7.30499 22.6946 5.92499C22.4849 5.53948 22.1885 5.20789 21.8289 4.95628C21.4693 4.70468 21.0562 4.53993 20.6221 4.47499C20.1961 4.3839 19.7546 4.39533 19.3338 4.50834C18.9131 4.62135 18.5252 4.8327 18.2021 5.12499C16.6621 6.49999 16.4121 9.39249 16.3571 11.17C16.0871 11.17 15.8571 11.17 15.6071 11.17C15.4996 9.39249 15.2971 6.49999 13.7496 5.12749C13.4263 4.834 13.0377 4.62174 12.616 4.50827C12.1943 4.3948 11.7516 4.38339 11.3246 4.47499C10.8898 4.54149 10.4763 4.70765 10.1163 4.96049C9.75633 5.21333 9.45972 5.546 9.24965 5.93249C8.49965 7.32249 8.67465 9.62499 9.74965 12.445C6.69465 13.885 4.95215 16.395 4.95215 19.3875C4.95215 24.365 9.28465 27.58 15.9896 27.58C22.6946 27.58 27.0271 24.365 27.0271 19.3875C27.0371 16.3675 25.2796 13.845 22.1946 12.41ZM10.5396 13.12L10.9646 12.94L10.7896 12.5125C9.68215 9.80249 9.41965 7.56749 10.0646 6.37749C10.21 6.11239 10.4156 5.88513 10.6648 5.71404C10.9141 5.54295 11.2 5.43281 11.4996 5.39249C11.6389 5.36524 11.7803 5.35101 11.9221 5.34999C12.3682 5.35428 12.7971 5.52246 13.1271 5.82249C14.8771 7.29249 14.7121 12.155 14.7121 12.155L15.1321 12.125C15.6959 12.0962 16.2608 12.0962 16.8246 12.125L17.2346 12.15C17.2346 12.15 17.0946 7.29749 18.8296 5.83249C19.0468 5.63671 19.3075 5.49557 19.5901 5.42078C19.8727 5.34599 20.1691 5.33972 20.4546 5.40249C20.7529 5.44204 21.0376 5.5514 21.2857 5.72169C21.5337 5.89197 21.7381 6.11837 21.8821 6.38249C22.5246 7.56249 22.2646 9.78749 21.1646 12.49L20.9996 12.9075L21.4271 13.0875C24.0546 14.185 25.8821 16.0875 26.0421 18.4325C26.2646 21.88 21.5871 24.605 15.9996 24.605C10.4121 24.605 5.74965 21.92 5.96215 18.5C6.10215 16.135 7.91965 14.2275 10.5396 13.12Z" fill="#E6DAFE"/>
<path d="M19.8529 19.9149C20.5045 19.9149 21.0329 19.1258 21.0329 18.1524C21.0329 17.179 20.5045 16.3899 19.8529 16.3899C19.2012 16.3899 18.6729 17.179 18.6729 18.1524C18.6729 19.1258 19.2012 19.9149 19.8529 19.9149Z" fill="#E6DAFE"/>
<path d="M12.1321 19.9149C12.7838 19.9149 13.3121 19.1258 13.3121 18.1524C13.3121 17.179 12.7838 16.3899 12.1321 16.3899C11.4805 16.3899 10.9521 17.179 10.9521 18.1524C10.9521 19.1258 11.4805 19.9149 12.1321 19.9149Z" fill="#E6DAFE"/>
</svg>
