<svg width="32" height="32" viewBox="0 0 32 32" fill="none" xmlns="http://www.w3.org/2000/svg">
<path fill-rule="evenodd" clip-rule="evenodd" d="M9.71375 19.0742H11.4578L10.5644 23.7177H13.8474L16.7935 8.4043C14.9805 8.4043 13.2329 9.84768 12.8904 11.6281L12.5632 13.3288H10.7703L10.4685 14.9704H12.2474L11.7737 17.4326H10.0156L9.71375 19.0742ZM21.263 8.4043H17.98L15.1596 23.7414C16.9728 23.7414 18.7084 22.2958 19.0364 20.5125L19.3009 19.0742H21.1993L21.5011 17.4326H19.6028L20.0555 14.9704H21.954L22.2558 13.3288H20.3574L21.263 8.4043Z" fill="#E6DAFE"/>
<path fill-rule="evenodd" clip-rule="evenodd" d="M16 27.3933C22.2924 27.3933 27.3933 22.2924 27.3933 16C27.3933 9.70766 22.2924 4.60674 16 4.60674C9.70766 4.60674 4.60674 9.70766 4.60674 16C4.60674 22.2924 9.70766 27.3933 16 27.3933ZM16 29C23.1797 29 29 23.1797 29 16C29 8.8203 23.1797 3 16 3C8.8203 3 3 8.8203 3 16C3 23.1797 8.8203 29 16 29Z" fill="#E6DAFE"/>
</svg>
