<?xml version="1.0" encoding="UTF-8"?>
<!DOCTYPE svg PUBLIC "-//W3C//DTD SVG 1.1//EN" "http://www.w3.org/Graphics/SVG/1.1/DTD/svg11.dtd">
<svg xmlns="http://www.w3.org/2000/svg" version="1.1" width="64px" height="64px" style="shape-rendering:geometricPrecision; text-rendering:geometricPrecision; image-rendering:optimizeQuality; fill-rule:evenodd; clip-rule:evenodd" xmlns:xlink="http://www.w3.org/1999/xlink">
<g><path style="opacity:1" fill="#fee870" d="M -0.5,-0.5 C 20.8333,-0.5 42.1667,-0.5 63.5,-0.5C 63.5,20.8333 63.5,42.1667 63.5,63.5C 42.1667,63.5 20.8333,63.5 -0.5,63.5C -0.5,42.1667 -0.5,20.8333 -0.5,-0.5 Z"/></g>
<g><path style="opacity:1" fill="#392721" d="M 10.5,10.5 C 14.8877,10.6951 18.8877,12.0284 22.5,14.5C 28.5,11.8333 34.5,11.8333 40.5,14.5C 42.7971,13.3515 45.1304,12.1848 47.5,11C 51.1429,9.6434 53.3096,10.8101 54,14.5C 54.2972,21.6838 54.7972,28.8504 55.5,36C 55.1469,45.0244 50.4802,50.3577 41.5,52C 35.5,52.6667 29.5,52.6667 23.5,52C 10.0951,49.5103 5.42847,41.8436 9.5,29C 8.00674,22.7381 8.34007,16.5715 10.5,10.5 Z"/></g>
<g><path style="opacity:1" fill="#cc5702" d="M 11.5,12.5 C 13.9052,13.3981 15.9052,14.8981 17.5,17C 14.6386,19.894 12.1386,23.0607 10,26.5C 9.22252,21.6649 9.72252,16.9983 11.5,12.5 Z"/></g>
<g><path style="opacity:1" fill="#ce5802" d="M 50.5,12.5 C 51.9663,13.347 52.7996,14.6803 53,16.5C 53.6667,19.8333 53.6667,23.1667 53,26.5C 51.2621,22.7587 48.7621,19.592 45.5,17C 47.2395,15.483 48.9062,13.983 50.5,12.5 Z"/></g>
<g><path style="opacity:1" fill="#fba529" d="M 53.5,39.5 C 51.2625,40.5366 48.9291,40.7033 46.5,40C 43.1667,37.3333 39.8333,34.6667 36.5,32C 33.1667,30 29.8333,30 26.5,32C 23.1667,34.6667 19.8333,37.3333 16.5,40C 14.1152,40.5564 11.7819,40.3897 9.5,39.5C 9.06678,30.3718 12.4001,23.0385 19.5,17.5C 18.6872,16.1861 17.6872,15.0195 16.5,14C 16.8333,13.8333 17.1667,13.6667 17.5,13.5C 18.8745,14.7113 20.3745,15.7113 22,16.5C 28.4867,13.859 34.9867,13.859 41.5,16.5C 45.4719,13.6427 46.1386,14.1427 43.5,18C 50.7212,23.2794 54.0545,30.4461 53.5,39.5 Z"/></g>
<g><path style="opacity:1" fill="#fdfbf8" d="M 20.5,22.5 C 21.8333,22.5 23.1667,22.5 24.5,22.5C 24.5,23.8333 24.5,25.1667 24.5,26.5C 23.1667,26.5 21.8333,26.5 20.5,26.5C 20.5,25.1667 20.5,23.8333 20.5,22.5 Z"/></g>
<g><path style="opacity:1" fill="#fcfefc" d="M 38.5,22.5 C 40.6648,22.1159 42.3315,22.7826 43.5,24.5C 42.3315,26.2174 40.6648,26.8841 38.5,26.5C 38.5,25.1667 38.5,23.8333 38.5,22.5 Z"/></g>
<g><path style="opacity:1" fill="#31201b" d="M 19.5,27.5 C 22.5426,28.424 23.5426,30.2573 22.5,33C 20.5594,33.7429 18.7261,33.5762 17,32.5C 16.2938,30.0448 17.1271,28.3781 19.5,27.5 Z"/></g>
<g><path style="opacity:1" fill="#32211c" d="M 42.5,27.5 C 47.4729,29.4988 47.6395,31.4988 43,33.5C 38.6566,31.969 38.4899,29.969 42.5,27.5 Z"/></g>
<g><path style="opacity:1" fill="#fbfdfb" d="M 19.5,29.5 C 22.0009,29.5109 22.1676,30.1776 20,31.5C 19.5357,30.9056 19.369,30.2389 19.5,29.5 Z"/></g>
<g><path style="opacity:1" fill="#fbfdfb" d="M 41.5,30.5 C 42.0768,29.2267 42.7435,29.2267 43.5,30.5C 43.0302,31.463 42.3635,31.463 41.5,30.5 Z"/></g>
<g><path style="opacity:1" fill="#f6f7f6" d="M 53.5,39.5 C 52.4901,43.0134 50.4901,45.8467 47.5,48C 36.8333,52.6667 26.1667,52.6667 15.5,48C 12.4769,45.8225 10.4769,42.9892 9.5,39.5C 11.7819,40.3897 14.1152,40.5564 16.5,40C 19.8333,37.3333 23.1667,34.6667 26.5,32C 29.8333,30 33.1667,30 36.5,32C 39.8333,34.6667 43.1667,37.3333 46.5,40C 48.9291,40.7033 51.2625,40.5366 53.5,39.5 Z"/></g>
<g><path style="opacity:1" fill="#36241e" d="M 28.5,32.5 C 30.7925,32.2436 32.9592,32.5769 35,33.5C 35.8651,35.8878 35.0317,37.3878 32.5,38C 34.7374,39.8562 36.5707,39.3562 38,36.5C 38.1667,36.8333 38.3333,37.1667 38.5,37.5C 33.8333,48.1667 29.1667,48.1667 24.5,37.5C 24.6667,37.1667 24.8333,36.8333 25,36.5C 26.4399,39.3355 28.2733,39.8355 30.5,38C 27.9257,36.7109 27.259,34.8776 28.5,32.5 Z"/></g>
<g><path style="opacity:1" fill="#f18b7d" d="M 29.5,43.5 C 30.6009,42.4017 31.9343,42.235 33.5,43C 32.3181,44.7683 30.9848,44.9349 29.5,43.5 Z"/></g>
</svg>
