<svg width="32" height="32" viewBox="0 0 32 32" fill="none" xmlns="http://www.w3.org/2000/svg">
<path d="M27.7977 10.8591C27.1454 9.29136 26.1241 7.83635 24.9424 6.658C23.7606 5.47624 22.251 4.59162 20.6832 3.93926C19.1702 3.31423 17.4898 3 15.7513 3C14.0128 3 12.2265 3.06148 10.7168 3.68993C9.1491 4.33888 7.83754 5.57187 6.65578 6.75364C5.47402 7.93199 4.1044 9.18548 3.45545 10.7532C2.827 12.2663 3.03193 14.1072 3.03193 15.8457C3.03193 17.5842 3.1583 19.2919 3.78676 20.805C4.4357 22.3693 5.7575 23.4794 6.93927 24.6577C8.12103 25.8395 9.19008 27.2535 10.7578 27.9024C12.2709 28.5309 14.0128 28.9578 15.7513 28.9578C17.4898 28.9578 19.1975 28.4421 20.7072 27.8136C22.2749 27.1647 23.6923 26.1503 24.8707 24.9685C26.0524 23.7868 27.0053 22.3454 27.6543 20.7777C28.2827 19.2646 29 17.5842 29 15.8457C29 14.1072 28.4228 12.3687 27.7977 10.8591ZM19.3922 23.2573L16.6359 22.8475L17.4249 17.5193L11.6561 21.9595L9.96199 19.7428L15.0203 15.8457L9.96199 11.952L11.6561 9.73537L17.4249 14.1755L16.6359 8.84734L19.3922 8.43748L20.4851 15.8457L19.3922 23.2573Z" fill="#E6DAFE"/>
</svg>
