<?xml version="1.0" encoding="UTF-8"?>
<!DOCTYPE svg PUBLIC "-//W3C//DTD SVG 1.1//EN" "http://www.w3.org/Graphics/SVG/1.1/DTD/svg11.dtd">
<svg xmlns="http://www.w3.org/2000/svg" version="1.1" width="64px" height="64px" style="shape-rendering:geometricPrecision; text-rendering:geometricPrecision; image-rendering:optimizeQuality; fill-rule:evenodd; clip-rule:evenodd" xmlns:xlink="http://www.w3.org/1999/xlink">
<g><path style="opacity:0.997" fill="#000000" d="M 25.5,-0.5 C 29.5,-0.5 33.5,-0.5 37.5,-0.5C 51.1667,3.16667 59.8333,11.8333 63.5,25.5C 63.5,29.5 63.5,33.5 63.5,37.5C 59.8333,51.1667 51.1667,59.8333 37.5,63.5C 33.5,63.5 29.5,63.5 25.5,63.5C 11.8333,59.8333 3.16667,51.1667 -0.5,37.5C -0.5,33.5 -0.5,29.5 -0.5,25.5C 3.16667,11.8333 11.8333,3.16667 25.5,-0.5 Z"/></g>
<g><path style="opacity:1" fill="#9add0a" d="M 44.5,12.5 C 48.7244,12.0525 50.391,13.7191 49.5,17.5C 44.1345,19.4679 42.4678,17.8012 44.5,12.5 Z"/></g>
<g><path style="opacity:1" fill="#a4ec03" d="M 40.5,15.5 C 41.8255,19.4451 42.4921,23.7784 42.5,28.5C 42.3333,32.8333 42.1667,37.1667 42,41.5C 40.4912,43.9193 38.3245,44.9193 35.5,44.5C 35.5,46.5 35.5,48.5 35.5,50.5C 32.6755,50.9193 30.5088,49.9193 29,47.5C 29.8232,39.1617 29.6566,30.8284 28.5,22.5C 32.0433,22.872 34.21,24.872 35,28.5C 35.2511,26.567 35.7511,24.7337 36.5,23C 36.0426,22.586 35.7093,22.086 35.5,21.5C 36.497,18.845 38.1637,16.845 40.5,15.5 Z"/></g>
<g><path style="opacity:1" fill="#a2e906" d="M 26.5,27.5 C 27.2677,32.8184 27.4343,38.1518 27,43.5C 25.8088,46.5341 23.6421,48.2007 20.5,48.5C 20.3339,42.8236 20.5006,37.1569 21,31.5C 22.4998,29.5313 24.3331,28.198 26.5,27.5 Z"/></g>
<g><path style="opacity:1" fill="#aaf600" d="M 16.5,39.5 C 17.5,39.5 18.5,39.5 19.5,39.5C 19.9577,42.3938 19.291,44.8938 17.5,47C 17.8333,47.3333 18.1667,47.6667 18.5,48C 16.7567,50.0638 14.7567,50.5638 12.5,49.5C 17.6817,48.224 17.6817,47.5573 12.5,47.5C 12.2776,43.9441 13.6109,41.2774 16.5,39.5 Z"/></g>
</svg>
