<svg width="32" height="32" viewBox="0 0 32 32" fill="none" xmlns="http://www.w3.org/2000/svg">
<path d="M15.9996 8.69754C18.5112 8.69754 20.5471 7.50102 20.5471 6.02504C20.5471 4.54906 18.5112 3.35254 15.9996 3.35254C13.4881 3.35254 11.4521 4.54906 11.4521 6.02504C11.4521 7.50102 13.4881 8.69754 15.9996 8.69754Z" fill="#E6DAFE"/>
<path d="M15.9996 28.6475C18.5112 28.6475 20.5471 27.451 20.5471 25.975C20.5471 24.499 18.5112 23.3025 15.9996 23.3025C13.4881 23.3025 11.4521 24.499 11.4521 25.975C11.4521 27.451 13.4881 28.6475 15.9996 28.6475Z" fill="#E6DAFE"/>
<path d="M9.63637 24.9253C10.9146 24.1873 10.9328 21.8258 9.67707 19.6508C8.42131 17.4757 6.3671 16.3108 5.08887 17.0488C3.81063 17.7868 3.79241 20.1482 5.04816 22.3233C6.30392 24.4983 8.35813 25.6633 9.63637 24.9253Z" fill="#E6DAFE"/>
<path d="M26.9118 14.9516C28.19 14.2136 28.2082 11.8522 26.9525 9.67713C25.6967 7.50209 23.6425 6.33714 22.3643 7.07513C21.086 7.81312 21.0678 10.1746 22.3236 12.3496C23.5793 14.5247 25.6335 15.6896 26.9118 14.9516Z" fill="#E6DAFE"/>
<path d="M27.045 22.2255C28.3008 20.0404 28.2778 17.6709 26.9937 16.9329C25.7096 16.1949 23.6506 17.3679 22.3948 19.553C21.1391 21.738 21.1621 24.1075 22.4462 24.8455C23.7303 25.5835 25.7892 24.4105 27.045 22.2255Z" fill="#E6DAFE"/>
<path d="M9.67512 12.349C10.9309 10.174 10.9127 7.81249 9.63441 7.0745C8.35618 6.33651 6.30197 7.50146 5.04621 9.6765C3.79045 11.8515 3.80868 14.213 5.08691 14.951C6.36515 15.689 8.41936 14.524 9.67512 12.349Z" fill="#E6DAFE"/>
</svg>
