<svg width="32" height="32" viewBox="0 0 32 32" fill="none" xmlns="http://www.w3.org/2000/svg">
<path d="M24.9073 12.7975C25.6841 12.5789 26.3901 12.1609 26.9553 11.5849C27.5206 11.009 27.9252 10.2952 28.1292 9.51447C28.3332 8.73373 28.3293 7.91321 28.118 7.13442C27.9067 6.35564 27.4953 5.64568 26.9247 5.07509C26.3541 4.5045 25.6442 4.09312 24.8654 3.88183C24.0866 3.67053 23.2661 3.66667 22.4854 3.87064C21.7046 4.0746 20.9908 4.47928 20.4149 5.04448C19.839 5.60969 19.4209 6.31574 19.2023 7.09251C19.1891 7.13923 19.1667 7.18285 19.1365 7.22082C19.1062 7.25878 19.0687 7.29033 19.0261 7.31361C18.9835 7.33689 18.9367 7.35144 18.8884 7.3564C18.8401 7.36136 18.7913 7.35664 18.7448 7.34251C17.1582 6.84011 15.4641 6.78318 13.8474 7.17794C12.2306 7.57269 10.7533 8.40395 9.57681 9.58101C8.40027 10.7581 7.56965 12.2357 7.17561 13.8526C6.78156 15.4695 6.83923 17.1636 7.34232 18.75C7.35645 18.7965 7.36118 18.8453 7.35621 18.8936C7.35125 18.9418 7.3367 18.9887 7.31342 19.0313C7.29014 19.0739 7.2586 19.1114 7.22063 19.1417C7.18267 19.1719 7.13905 19.1943 7.09232 19.2075C6.31519 19.4259 5.60875 19.844 5.04325 20.42C4.47775 20.9961 4.07287 21.7101 3.86887 22.4912C3.66487 23.2722 3.66885 24.0931 3.88041 24.8721C4.09198 25.6511 4.50375 26.3612 5.07482 26.9318C5.64588 27.5023 6.35633 27.9135 7.13554 28.1244C7.91476 28.3353 8.7356 28.3385 9.51647 28.1338C10.2973 27.9292 11.011 27.5236 11.5866 26.9576C12.1622 26.3916 12.5796 25.6848 12.7973 24.9075C12.8105 24.8608 12.8329 24.8172 12.8632 24.7792C12.8934 24.7412 12.931 24.7097 12.9736 24.6864C13.0162 24.6631 13.063 24.6486 13.1113 24.6436C13.1596 24.6387 13.2084 24.6434 13.2548 24.6575C14.8414 25.1599 16.5355 25.2168 18.1523 24.8221C19.769 24.4273 21.2463 23.5961 22.4228 22.419C23.5994 21.2419 24.43 19.7643 24.824 18.1474C25.2181 16.5305 25.1604 14.8364 24.6573 13.25C24.644 13.2039 24.6398 13.1556 24.6451 13.1078C24.6505 13.0601 24.6652 13.0139 24.6884 12.9719C24.7116 12.9298 24.7429 12.8928 24.7805 12.8629C24.8181 12.833 24.8612 12.8107 24.9073 12.7975V12.7975ZM24.1323 11.2725C23.8519 11.3173 23.5666 11.3223 23.2848 11.2875C23.0256 11.2558 22.7626 11.2845 22.5163 11.3712C22.2699 11.4579 22.047 11.6004 21.8648 11.7875V11.7875C21.6233 12.0308 21.4597 12.3404 21.3947 12.677C21.3297 13.0135 21.3663 13.3618 21.4998 13.6775C21.9607 14.7717 22.085 15.9784 21.8568 17.1436C21.6286 18.3087 21.0584 19.3795 20.2188 20.219C19.3793 21.0585 18.3086 21.6288 17.1434 21.857C15.9782 22.0851 14.7715 21.9609 13.6773 21.5C13.3608 21.3637 13.0108 21.3251 12.6722 21.3892C12.3336 21.4534 12.022 21.6173 11.7773 21.86C11.5902 22.0422 11.4478 22.2651 11.361 22.5115C11.2743 22.7578 11.2456 23.0208 11.2773 23.28C11.3122 23.5618 11.3071 23.8471 11.2623 24.1275C11.1753 24.6668 10.941 25.1716 10.5853 25.5862C10.2296 26.0008 9.7662 26.309 9.24635 26.4769C8.7265 26.6448 8.17038 26.6658 7.63935 26.5376C7.10833 26.4094 6.62304 26.137 6.23704 25.7504C5.85105 25.3638 5.57935 24.8781 5.45193 24.3469C5.32452 23.8157 5.34634 23.2596 5.51498 22.74C5.68363 22.2204 5.99255 21.7575 6.40765 21.4024C6.82274 21.0473 7.32788 20.8137 7.86732 20.7275C8.14772 20.6827 8.43302 20.6777 8.71482 20.7125C8.97404 20.7442 9.23706 20.7155 9.48338 20.6288C9.7297 20.5421 9.95264 20.3996 10.1348 20.2125C10.3763 19.9692 10.54 19.6596 10.605 19.3231C10.67 18.9865 10.6334 18.6382 10.4998 18.3225C10.039 17.2283 9.91468 16.0216 10.1429 14.8564C10.371 13.6913 10.9413 12.6206 11.7808 11.781C12.6204 10.9415 13.6911 10.3712 14.8562 10.143C16.0214 9.91487 17.2281 10.0391 18.3223 10.5C18.6388 10.6364 18.9888 10.6749 19.3274 10.6108C19.666 10.5466 19.9777 10.3827 20.2223 10.14C20.4094 9.95783 20.5519 9.73488 20.6386 9.48856C20.7254 9.24225 20.754 8.97922 20.7223 8.72001C20.6875 8.43821 20.6925 8.1529 20.7373 7.87251C20.8243 7.3332 21.0586 6.8284 21.4143 6.41382C21.7701 5.99925 22.2334 5.69101 22.7533 5.52313C23.2731 5.35525 23.8293 5.33425 24.3603 5.46245C24.8913 5.59065 25.3766 5.86306 25.7626 6.24962C26.1486 6.63618 26.4203 7.12187 26.5477 7.65309C26.6751 8.1843 26.6533 8.74039 26.4847 9.25999C26.316 9.77959 26.0071 10.2425 25.592 10.5976C25.1769 10.9528 24.6718 11.1863 24.1323 11.2725V11.2725Z" fill="#E6DAFE"/>
<path d="M16.047 19.355C17.9262 19.355 19.4495 17.8317 19.4495 15.9525C19.4495 14.0734 17.9262 12.55 16.047 12.55C14.1679 12.55 12.6445 14.0734 12.6445 15.9525C12.6445 17.8317 14.1679 19.355 16.047 19.355Z" fill="#E6DAFE"/>
</svg>
