<svg width="32" height="32" viewBox="0 0 32 32" fill="none" xmlns="http://www.w3.org/2000/svg">
<g clip-path="url(#clip0_14358_3653)">
<path d="M14.762 29.0144C14.4673 28.8311 14.123 28.8905 13.8048 28.8344C11.3517 28.404 9.19792 27.3594 7.34147 25.711C5.31223 23.9093 3.99766 21.6623 3.34559 19.0384C3.11084 18.0955 2.99282 17.1252 3.00586 16.1464C3.23734 16.239 3.3332 16.1862 3.3169 15.9136C3.26734 15.0972 3.56273 14.4367 4.20828 13.9131C4.71233 13.5042 4.7658 13.4762 5.33049 13.7977C5.43221 13.8557 5.54763 13.8903 5.65652 13.9359C5.6174 14.2639 5.57501 14.5912 5.5398 14.9199C5.49416 15.3483 5.40352 15.7845 5.51959 16.2058C5.70152 16.8657 6.00864 17.4753 6.39532 18.0413C7.61404 19.8228 9.18292 21.2456 10.9507 22.4598C12.605 23.5963 14.363 24.5386 16.2664 25.19C17.5105 25.6158 18.7749 25.9523 20.1097 25.8199C20.4135 25.7899 20.7122 25.7397 20.9502 25.4789C21.4262 24.9559 21.6916 24.3273 21.9368 23.6831C21.9759 23.6172 22.015 23.552 22.0541 23.4861C22.1135 23.4737 22.1728 23.4613 22.2322 23.449C22.4173 23.7717 22.7682 23.8572 23.059 24.0286C23.1366 24.0743 23.2468 24.0652 23.2748 24.1949C23.4933 25.2148 23.207 26.1648 22.3254 26.8619C21.9974 27.1214 21.9889 27.1175 22.3587 27.3366C22.0907 27.4794 21.8285 27.6339 21.5546 27.7624C20.3229 28.3395 19.0344 28.7249 17.6827 28.9029C17.4909 28.9283 17.2764 28.8748 17.1043 29.0131H14.764L14.762 29.0144ZM7.33039 22.2048C9.40788 25.5454 13.4429 27.6444 17.3168 27.4207C13.5596 26.4928 10.2882 24.6559 7.33039 22.2048Z" fill="#E6DAFE"/>
<path d="M5.65653 13.9366C5.54763 13.891 5.43222 13.8564 5.33049 13.7984C4.7658 13.4769 4.71233 13.505 4.20828 13.9138C3.56273 14.4374 3.26734 15.098 3.3169 15.9144C3.3332 16.1869 3.23669 16.2397 3.00586 16.1472C2.94783 14.2992 3.29929 12.5203 4.06482 10.8491C6.03408 6.55128 9.3642 3.94235 14.0304 3.16834C20.8335 2.03961 27.4559 6.71887 28.7463 13.4906C28.8363 13.9614 28.9159 14.4342 29 14.9063V17.2465C28.9524 17.2622 28.94 17.3 28.9335 17.345C28.8552 17.9097 28.7542 18.4679 28.6322 19.026C28.3838 20.1665 27.9567 21.23 27.4076 22.2499C26.7145 23.5384 25.8062 24.6625 24.7283 25.6491C24.0077 26.3084 23.2207 26.8783 22.3567 27.3373C21.987 27.1182 21.9955 27.1215 22.3234 26.8626C23.205 26.1656 23.4913 25.2155 23.2729 24.1957C23.2448 24.0659 23.1346 24.0757 23.057 24.0294C22.7662 23.8572 22.4154 23.7725 22.2302 23.4497C22.5119 23.2534 22.7968 23.0617 23.074 22.8589C24.0423 22.1488 24.7837 21.234 25.4234 20.2291C25.5655 20.3765 25.7136 20.2448 25.8492 20.2232C27.838 19.8992 28.8761 18.3857 28.4888 16.3975C28.3603 15.7396 28.1236 15.1273 27.8165 14.5307C27.5511 14.0162 27.3124 13.4821 26.9551 13.0296C26.4387 12.3756 25.964 11.6916 25.3764 11.0871C24.6944 10.3855 24.0234 9.67535 23.2683 9.05263C22.7616 8.63465 22.2432 8.23232 21.7294 7.82282C21.7209 7.77 21.7229 7.71197 21.7014 7.66437C21.1432 6.42478 20.2759 5.48384 19.0227 4.92437C17.8568 4.40402 16.6407 4.48357 15.42 4.63941C14.6362 4.53639 13.8876 4.27621 13.0856 4.21687C12.1518 4.14775 11.25 4.16862 10.3893 4.52661C8.89666 5.14738 8.32089 6.58323 8.72582 7.94867C8.68605 7.99888 8.64953 8.0517 8.60649 8.09865C7.18824 9.63884 6.19579 11.404 5.75825 13.4645C5.72499 13.6217 5.75303 13.7925 5.65588 13.936L5.65653 13.9366Z" fill="#E6DAFE"/>
<path d="M22.0535 23.4867C22.0144 23.5526 21.9753 23.6178 21.9361 23.6837C21.8051 23.6543 21.7118 23.743 21.6082 23.7939C21.1028 24.0417 20.5798 24.2497 20.0367 24.3859C18.9686 24.6533 17.8881 24.8385 16.7802 24.665C16.7339 24.4603 16.5324 24.4701 16.3981 24.4166C14.5736 23.6908 12.905 22.6945 11.3009 21.5723C10.9951 21.3584 10.729 21.0337 10.3032 21.0206C10.1767 20.9287 10.1089 20.7891 10.03 20.6626C8.86018 18.7977 8.41481 16.788 8.75585 14.5977C9.03885 12.7784 9.87089 11.2461 11.1261 9.94194C11.6973 9.34855 12.367 8.85168 13.0999 8.4487C14.3271 7.7738 15.6306 7.37474 17.028 7.28345C17.2588 7.29388 17.4232 7.45233 17.6123 7.5508C19.5326 8.55433 21.2847 9.79457 22.8445 11.3015C23.1314 12.6663 23.2703 14.0493 23.327 15.4395C23.3877 16.9334 23.2285 18.4136 22.9899 19.886C22.7904 21.1152 22.4311 22.3032 22.0535 23.4867ZM13.5231 17.189C13.2956 17.189 13.068 17.1943 12.8404 17.1871C12.7015 17.1825 12.652 17.2223 12.6624 17.3729C12.7159 18.1326 12.9891 18.7775 13.6027 19.2574C14.1406 19.6787 14.7718 19.8599 15.4311 19.9512C15.6378 19.9799 15.6769 20.0419 15.645 20.2349C15.6019 20.4905 15.6052 20.7533 15.5687 21.0102C15.5419 21.2012 15.5778 21.288 15.7963 21.273C16.0766 21.2541 16.3616 21.2469 16.6407 21.2743C16.9472 21.3043 17.0371 21.2025 16.9739 20.9045C16.9295 20.6946 16.9393 20.4735 16.9106 20.259C16.8846 20.064 16.9243 19.9819 17.1513 19.9545C18.0048 19.8528 18.7873 19.5874 19.3839 18.9118C20.319 17.8529 19.9943 16.104 18.7358 15.4741C18.2559 15.2335 17.7368 15.1311 17.2139 15.0379C16.5337 14.9159 15.838 14.8807 15.1729 14.6727C14.8664 14.5769 14.6101 14.4275 14.5704 14.0728C14.5286 13.6992 14.6975 13.422 15.0112 13.2342C15.5406 12.918 16.1223 12.8867 16.7078 12.9871C17.3149 13.0914 17.7831 13.3862 17.8966 14.0558C17.9207 14.1987 18.0139 14.2163 18.1326 14.2156C18.5552 14.2136 18.9777 14.2084 19.4002 14.2182C19.5867 14.2228 19.6526 14.1595 19.6304 13.973C19.5652 13.424 19.4002 12.9193 19.026 12.4961C18.5193 11.9236 17.8561 11.6543 17.1258 11.5336C16.9315 11.5017 16.8989 11.4274 16.9172 11.2611C16.9485 10.9813 16.9563 10.699 16.9961 10.4206C17.0182 10.2641 16.9882 10.2008 16.822 10.2047C16.4646 10.2119 16.1066 10.2125 15.7493 10.2067C15.5935 10.2041 15.5602 10.2621 15.5491 10.416C15.5289 10.6892 15.5785 10.9507 15.6306 11.2109C15.6763 11.4391 15.6065 11.5004 15.3802 11.5343C14.603 11.6504 13.8896 11.9066 13.3451 12.5228C12.2888 13.72 12.7289 15.4682 14.2189 16.0192C14.6779 16.1888 15.1527 16.2488 15.6261 16.3342C16.2847 16.4529 16.9615 16.4724 17.5992 16.702C17.8438 16.79 18.0315 16.9276 18.0863 17.2086C18.1952 17.7642 17.9324 18.1958 17.3038 18.3986C16.6492 18.6099 15.9808 18.6177 15.3235 18.4025C14.9407 18.2774 14.6395 18.0485 14.4569 17.669C14.3813 17.5125 14.4784 17.2634 14.2684 17.2008C14.0989 17.1506 13.9033 17.189 13.7188 17.1884C13.6535 17.1884 13.589 17.1884 13.5238 17.189H13.5231Z" fill="#E6DAFE"/>
<path d="M25.424 20.2298C25.6099 19.8066 25.7866 19.3788 25.9822 18.9602C26.6662 17.4957 26.4054 16.1211 25.6268 14.7772C25.1299 13.9204 24.5274 13.1496 23.8767 12.4069C23.5434 12.0267 23.2096 11.6498 22.8444 11.301C21.2847 9.79405 19.5326 8.55447 17.6122 7.55028C17.4231 7.45116 17.2588 7.29271 17.028 7.28293C16.1131 6.78018 15.1285 6.46589 14.1275 6.19202C13.6815 6.07008 13.2303 5.99313 12.7719 5.93901C11.8186 5.8262 11.0217 6.18093 10.2758 6.72541C9.74368 7.11404 9.2318 7.5268 8.7271 7.94935C8.32217 6.58456 8.89794 5.14805 10.3905 4.52728C11.2513 4.16929 12.1537 4.14778 13.0868 4.21755C13.8889 4.27689 14.6375 4.53706 15.4213 4.64009C16.1809 4.93678 16.9451 5.22174 17.6983 5.53408C18.2115 5.74665 18.6744 6.06617 19.1733 6.30352C20.0536 6.7215 20.8523 7.26011 21.64 7.82089C21.6792 7.84893 21.6981 7.87892 21.73 7.82284C22.2432 8.23234 22.7623 8.63467 23.2689 9.05265C24.0247 9.67603 24.695 10.3855 25.3771 11.0871C25.9646 11.6916 26.4393 12.3756 26.9557 13.0296C27.3131 13.4822 27.5517 14.0156 27.8171 14.5307C28.1242 15.1273 28.3609 15.7396 28.4894 16.3976C28.8767 18.3864 27.8386 19.8998 25.8498 20.2233C25.7148 20.2454 25.5668 20.3765 25.424 20.2291V20.2298Z" fill="#E6DAFE"/>
<path d="M16.7802 24.6653C14.865 24.5185 13.1892 23.7882 11.7221 22.5675C11.1815 22.1176 10.6918 21.6142 10.3032 21.0215C10.7283 21.0339 10.995 21.3586 11.3008 21.5731C12.9043 22.6953 14.5736 23.6917 16.3981 24.4175C16.533 24.4709 16.7345 24.4612 16.7802 24.6659V24.6653Z" fill="#E6DAFE"/>
</g>
<defs>
<clipPath id="clip0_14358_3653">
<rect width="26" height="26.0143" fill="white" transform="translate(3 3)"/>
</clipPath>
</defs>
</svg>
