<svg width="32" height="32" viewBox="0 0 32 32" fill="none" xmlns="http://www.w3.org/2000/svg">
<path d="M21.129 20.7497C21.015 20.6195 20.8265 20.5451 20.5401 20.5451H20.2649V22.954H20.5401C20.8265 22.954 21.015 22.8796 21.129 22.7495C21.2481 22.6143 21.3138 22.4184 21.3138 22.1457V21.3522C21.3138 21.0757 21.2468 20.8798 21.129 20.7497Z" fill="#E6DAFE"/>
<path d="M16 4C9.37328 4 4 9.37328 4 16C4 22.6267 9.37328 28 16 28C22.6267 28 28 22.6267 28 16C28 9.37204 22.6267 4 16 4ZM13.2675 22.3391C13.2675 22.6552 13.2018 22.9342 13.0679 23.1747C12.9377 23.4115 12.7443 23.595 12.4939 23.7239C12.2459 23.8492 11.9521 23.9111 11.6148 23.9111C11.2776 23.9111 10.9825 23.8504 10.7321 23.7252H10.7309C10.4841 23.595 10.292 23.4115 10.1581 23.1759C10.0279 22.9342 9.96467 22.6552 9.96467 22.3391V19.6673H10.9106V22.3614C10.9106 22.5833 10.9726 22.747 11.0867 22.8648C11.2032 22.9801 11.3743 23.0445 11.6173 23.0445C11.8603 23.0445 12.0302 22.9801 12.1417 22.8648C12.2595 22.747 12.3228 22.5833 12.3228 22.3614V19.6673H13.2687V22.3391H13.2675ZM17.458 23.2851C17.3253 23.4834 17.1369 23.6384 16.8964 23.75C16.6583 23.8591 16.3781 23.9124 16.0607 23.9124C15.7434 23.9124 15.4582 23.8554 15.2078 23.7388C14.9586 23.6223 14.7602 23.4537 14.6176 23.233C14.4738 23.0098 14.4031 22.7445 14.4031 22.442V22.1841H15.3379V22.442C15.3379 22.6577 15.4037 22.8052 15.5227 22.9032C15.6479 23.0024 15.8227 23.0569 16.0607 23.0569C16.2988 23.0569 16.4711 23.0073 16.5703 22.9267C16.6757 22.8412 16.7253 22.7395 16.7253 22.6118C16.7253 22.5226 16.6992 22.4606 16.6559 22.4135L16.6534 22.411C16.6075 22.3602 16.5344 22.313 16.4228 22.2746H16.4191C16.3075 22.23 16.1699 22.1903 16.0025 22.1531L15.8723 22.1246C15.5958 22.0626 15.3541 21.9857 15.1495 21.8915H15.147C14.9412 21.7899 14.7788 21.6572 14.6623 21.4898C14.5457 21.3163 14.4924 21.0993 14.4924 20.8439C14.4924 20.5885 14.5532 20.3604 14.6784 20.1707C14.8073 19.9797 14.9846 19.8359 15.2078 19.738C15.4347 19.6363 15.6962 19.588 15.9901 19.588C16.2839 19.588 16.5492 19.6388 16.7836 19.7429C17.0228 19.8446 17.2125 19.9996 17.3477 20.2091C17.489 20.4174 17.5572 20.6765 17.5572 20.9778V21.2468H16.6224V20.9778C16.6224 20.8389 16.5951 20.7397 16.548 20.6703L16.5455 20.6666C16.5009 20.5922 16.4364 20.5389 16.3459 20.5042H16.3434C16.2492 20.4645 16.1314 20.4422 15.9901 20.4422C15.7731 20.4422 15.6318 20.4843 15.5475 20.5513C15.4681 20.6133 15.426 20.6988 15.426 20.8191C15.426 20.8997 15.4458 20.9617 15.4805 21.0088C15.5214 21.0609 15.5834 21.108 15.6739 21.1476C15.7682 21.1898 15.8909 21.227 16.0459 21.2605L16.1761 21.289C16.4649 21.351 16.7166 21.4303 16.9323 21.5283C17.1555 21.6287 17.334 21.7626 17.463 21.9324C17.5956 22.1085 17.6588 22.3292 17.6588 22.587C17.6588 22.8449 17.5919 23.0792 17.4555 23.2826L17.458 23.2851ZM22.2597 22.1234C22.2597 22.6726 22.1147 23.1053 21.8109 23.4016C21.5109 23.6942 21.0782 23.8318 20.529 23.8318H18.7982V22.9763H19.3202V20.5215H18.7982V19.6661H20.529C21.077 19.6661 21.5109 19.8062 21.8109 20.1025C22.1159 20.3951 22.2597 20.8253 22.2597 21.3745V22.1234ZM19.2693 17.6948L15.9926 14.3486L12.7145 17.6948L9.43651 14.3486L15.9926 7.65492L22.5474 14.3486L19.2693 17.6948Z" fill="#E6DAFE"/>
</svg>
