<svg width="32" height="32" viewBox="0 0 32 32" fill="none" xmlns="http://www.w3.org/2000/svg">
<path d="M28.997 20.4891L25.6179 20.2271L17.368 21.3376L24.6949 17.3898L27.2762 15.1896L25.7459 13.0847L22.861 14.8621L16.844 20.6171L20.4494 13.1056L21.2473 9.8098L18.7733 9.00298L17.4841 12.141L15.9985 20.3402L14.5039 12.138L13.2118 9L10.7408 9.80385L11.5386 13.1026L15.153 20.6171L9.13008 14.8532L6.24218 13.0728L4.71487 15.1777L7.29909 17.3809L14.626 21.3346L6.37914 20.2152L3 20.4742V23.0763L6.38211 23.3383L15.9985 22.0432V21.7842V22.0432L25.6209 23.3502L29 23.0911L28.997 20.4891Z" fill="#E6DAFE"/>
</svg>
