<svg width="32" height="32" viewBox="0 0 32 32" fill="none" xmlns="http://www.w3.org/2000/svg">
<g clip-path="url(#clip0_12259_137)">
<path d="M16.0015 3C8.82154 3 3 8.82154 3 16.0015C3 23.1816 8.82154 29.0031 16.0015 29.0031C23.1816 29.0031 29.0031 23.1816 29.0031 16.0015C29.0031 8.82154 23.1816 3 16.0015 3ZM20.7562 16.932C20.7128 17.2391 20.6042 17.5244 20.2227 17.5957C20.1638 17.6081 20.0955 17.8004 20.108 17.8966C20.17 18.3587 20.2413 18.8208 20.3468 19.2736C20.5112 19.9746 20.4212 20.6662 20.322 21.361C20.294 21.5471 20.2475 21.7363 20.2537 21.9223C20.2599 22.0743 20.294 22.248 20.3778 22.369C20.7065 22.8435 20.7252 23.3428 20.3933 23.7584C20.0862 24.143 19.5063 24.2795 19.0224 24.0624C18.5913 23.8701 18.2719 23.591 18.2253 23.0699C18.2005 22.7939 17.9865 22.6357 17.7384 22.5457C17.3383 22.4031 16.9258 22.3876 16.5195 22.5023C16.1504 22.6047 15.9643 22.8683 15.924 23.2498C15.8372 24.0717 14.8912 24.4997 14.2151 24.0066C14.0662 23.898 13.939 23.6499 13.9328 23.4638C13.9204 22.9769 13.7312 22.5861 13.4645 22.2015C13.0737 21.6308 12.6984 21.0477 12.5527 20.353C12.5248 20.2134 12.4906 20.0676 12.4937 19.9281C12.4999 19.6737 12.3573 19.6148 12.1495 19.6427C11.7773 19.6955 11.4051 19.7699 11.0329 19.8226C10.8468 19.8474 10.6576 19.8598 10.4684 19.8474C10.1056 19.8288 9.94119 19.6055 9.99702 19.2457C10.0901 18.6658 10.4591 18.2843 10.9213 17.9803C11.25 17.7632 11.5974 17.5709 11.9386 17.3724C12.2239 17.208 12.3573 17.0002 12.3666 16.6405C12.4038 15.1921 12.7791 13.8398 13.6537 12.655C13.7064 12.5837 13.7188 12.4596 13.7002 12.3666C13.6444 12.075 13.5514 11.7928 13.5017 11.5013C13.3249 10.4902 13.5607 9.53799 13.967 8.62305C14.1406 8.23226 14.4198 8.18263 14.7796 8.42455C14.8912 8.49899 14.9936 8.59203 15.1052 8.66337C15.313 8.79363 15.5425 8.86186 15.7658 8.7347C16.3024 8.43385 16.8824 8.34701 17.481 8.35321C17.757 8.35632 17.9896 8.27878 18.1881 8.08338C18.2564 8.01515 18.3432 7.96242 18.43 7.9159C18.9015 7.66778 19.1403 7.73601 19.3481 8.22295C19.7792 9.23094 20.0087 10.2855 20.049 11.2935C20.0149 11.6997 19.9746 12.013 19.9715 12.3263C19.9715 12.4875 20.0025 12.6674 20.08 12.8039C20.812 14.0972 20.9547 15.4867 20.75 16.9289L20.7562 16.932Z" fill="#E6DAFE"/>
</g>
<defs>
<clipPath id="clip0_12259_137">
<rect width="26" height="26" fill="white" transform="translate(3 3)"/>
</clipPath>
</defs>
</svg>
