<svg width="32" height="32" viewBox="0 0 32 32" fill="none" xmlns="http://www.w3.org/2000/svg">
<path d="M16 3C8.8214 3 3 8.8214 3 16C3 23.1786 8.8214 29 16 29C23.1786 29 29 23.1786 29 16C29 8.8214 23.1786 3 16 3ZM27.9366 16.741C27.9288 16.8632 27.921 16.9828 27.9106 17.1024C27.9054 17.1752 27.8976 17.248 27.8898 17.3208C27.8768 17.4534 27.8586 17.586 27.8404 17.716C27.8222 17.8512 27.8014 17.9838 27.778 18.1164C27.7676 18.1736 27.7572 18.2334 27.7468 18.2906C27.7234 18.4102 27.7 18.5298 27.674 18.6468C27.6662 18.678 27.6584 18.7092 27.6532 18.743C27.5596 19.1564 27.4478 19.5646 27.3126 19.965C27.3126 19.9702 27.31 19.9754 27.3074 19.9806C27.1254 20.5214 26.9044 21.0492 26.6496 21.5614C26.634 21.5952 26.6158 21.6264 26.6002 21.6602C26.5456 21.7642 26.491 21.8682 26.4338 21.9722C26.4052 22.0242 26.3766 22.0736 26.348 22.1256C26.296 22.2192 26.244 22.3128 26.1868 22.4038C26.1088 22.5338 26.0282 22.6638 25.9424 22.7912C25.9424 22.7912 25.9424 22.7938 25.9398 22.7964C25.9008 22.8536 25.8618 22.9108 25.8228 22.968C25.7604 23.059 25.698 23.1526 25.633 23.241C25.594 23.2956 25.555 23.3502 25.5134 23.4022C25.4406 23.4984 25.3678 23.5946 25.2924 23.6908C25.2586 23.7324 25.2274 23.774 25.1936 23.8156C24.97 24.0912 24.7334 24.3564 24.489 24.6086C24.4578 24.6398 24.4266 24.671 24.3954 24.7022C24.2992 24.7984 24.2004 24.8946 24.1016 24.9882C24.0652 25.022 24.0314 25.0558 23.995 25.087C23.8832 25.191 23.7688 25.2924 23.6518 25.3912C23.6336 25.4068 23.6128 25.425 23.5946 25.4406C23.4646 25.5498 23.332 25.6564 23.1994 25.7578C23.1474 25.7994 23.0928 25.8384 23.0408 25.8774C22.9576 25.9398 22.8744 25.9996 22.7912 26.0594C22.7236 26.1062 22.656 26.153 22.5884 26.1998C22.5208 26.2466 22.4506 26.2908 22.3804 26.335C22.0788 26.53 21.7668 26.712 21.447 26.8784C21.4132 26.8966 21.3794 26.9148 21.3456 26.9304C21.2312 26.9876 21.1168 27.0448 21.0024 27.0994C20.9816 27.1098 20.9608 27.1202 20.9374 27.128C20.7684 27.206 20.5942 27.2814 20.42 27.3516C20.3836 27.3672 20.3498 27.3802 20.3134 27.3932C20.1392 27.4634 19.9624 27.5284 19.783 27.5908C19.7648 27.596 19.7466 27.6038 19.7258 27.6116C19.6036 27.6532 19.4814 27.6922 19.3592 27.7286C19.3254 27.739 19.2916 27.7494 19.2578 27.7572C18.9016 27.8612 18.5402 27.947 18.1762 28.0146C18.106 28.0276 18.0332 28.0406 17.963 28.0536C17.872 28.0692 17.781 28.0848 17.69 28.0978C17.5886 28.1134 17.4872 28.1264 17.3858 28.1368C17.3182 28.1446 17.2506 28.155 17.1804 28.1602C17.04 28.1758 16.897 28.1862 16.7566 28.194V26.5326C17.183 26.5014 17.6068 26.4494 18.028 26.3636C18.1502 26.3376 18.2672 26.3038 18.3894 26.2752L17.4144 25.568C17.2298 25.4354 16.9724 25.4744 16.8398 25.659C16.832 25.6694 16.8268 25.6772 16.819 25.6876C16.78 25.7526 16.7592 25.828 16.7566 25.906V26.4884L15.2408 26.4832V28.1888C15.1212 28.181 15.0016 28.1732 14.882 28.1602C14.8014 28.1524 14.7234 28.1446 14.6428 28.1342C14.5518 28.1238 14.4634 28.1108 14.375 28.1004C14.1696 28.0718 13.9668 28.0354 13.7614 27.9964C13.608 27.9678 13.4546 27.934 13.3012 27.9002C13.2674 27.8924 13.231 27.8846 13.1946 27.8742C13.0698 27.843 12.945 27.8092 12.8202 27.7754C12.802 27.7702 12.7812 27.765 12.763 27.7598C12.36 27.6454 11.9648 27.5076 11.5774 27.349C11.5644 27.3438 11.5514 27.3386 11.5358 27.3334C11.411 27.2814 11.2862 27.2294 11.1614 27.1722C11.1432 27.1644 11.125 27.1566 11.1068 27.1462C10.7532 26.985 10.4048 26.803 10.0694 26.6054C10.0226 26.5768 9.9732 26.5508 9.9264 26.5222C9.838 26.4702 9.7522 26.4156 9.6664 26.361C9.6014 26.3194 9.539 26.2778 9.4766 26.2362C9.4012 26.1868 9.3258 26.1374 9.253 26.0854C9.123 25.9944 8.9956 25.9034 8.8708 25.8072C8.824 25.7708 8.7798 25.7344 8.733 25.698C8.6394 25.6252 8.5458 25.5498 8.4548 25.4744C8.4054 25.4328 8.356 25.3912 8.3092 25.3496C8.2182 25.2716 8.1272 25.191 8.0388 25.1104C7.9972 25.074 7.9582 25.0376 7.9166 24.9986C7.7892 24.879 7.6618 24.7568 7.5396 24.6294C7.4174 24.5046 7.2978 24.3772 7.1834 24.2472C7.147 24.2082 7.1132 24.1666 7.0794 24.1276C6.9988 24.034 6.9182 23.9404 6.8402 23.8442C6.8012 23.7948 6.7596 23.748 6.7206 23.6986C6.6452 23.605 6.5724 23.5088 6.4996 23.4126C6.4658 23.3658 6.4294 23.319 6.3956 23.2722C6.302 23.1422 6.211 23.0122 6.1226 22.8796C6.0732 22.8042 6.0264 22.7288 5.977 22.6534C5.9354 22.5884 5.8938 22.5234 5.8522 22.4558C5.7976 22.3674 5.7456 22.279 5.6936 22.1906C5.665 22.1412 5.639 22.0918 5.6104 22.045C5.4154 21.6966 5.236 21.3378 5.0774 20.9712C5.0722 20.9582 5.0644 20.9452 5.0592 20.9296C5.0046 20.7996 4.95 20.6722 4.898 20.5396C4.8928 20.5292 4.8902 20.5188 4.885 20.5084C4.729 20.108 4.5938 19.6972 4.4794 19.2786C4.4768 19.2656 4.4716 19.25 4.4664 19.237C4.4326 19.107 4.3988 18.9796 4.3676 18.847C4.3598 18.8132 4.352 18.7768 4.3442 18.743C4.3104 18.587 4.2792 18.431 4.248 18.2724C4.2116 18.0696 4.1752 17.8642 4.1492 17.6588C4.1362 17.56 4.1232 17.4612 4.1128 17.3624C4.105 17.287 4.0972 17.2142 4.0894 17.1388C4.0764 16.9906 4.066 16.8424 4.0556 16.6942C4.0556 16.663 4.0504 16.6344 4.0504 16.6032C4.04 16.416 4.0374 16.2262 4.0374 16.039C4.0374 15.9948 4.0374 15.9532 4.0374 15.909C4.0374 15.7582 4.0426 15.6074 4.0478 15.4566C4.0478 15.4072 4.0504 15.3578 4.053 15.3084C4.0634 15.1316 4.0764 14.9548 4.092 14.7806C4.0998 14.7104 4.1076 14.6428 4.1154 14.5726C4.1284 14.4686 4.1388 14.3672 4.1544 14.2658C4.1674 14.167 4.183 14.0682 4.1986 13.972C4.209 13.9096 4.2194 13.8472 4.2324 13.7848C4.3026 13.3896 4.3936 12.997 4.5002 12.6096C4.5028 12.5992 4.5054 12.5862 4.5106 12.5758C4.5678 12.3782 4.6302 12.1806 4.6952 11.9856C4.7108 11.9388 4.729 11.892 4.7446 11.8478C4.7992 11.6918 4.8564 11.5358 4.9188 11.3824C4.937 11.3356 4.9552 11.2888 4.976 11.242C5.0618 11.0366 5.1528 10.8364 5.249 10.6362H5.2438L4.6926 10.3138L5.2438 10.6336H5.249L6.64 11.4448L6.8558 11.0652L7.2822 10.3216L7.3966 10.1214L7.1184 9.9654L5.99 9.305C6.055 9.2062 6.1148 9.1022 6.1798 9.006C6.2084 8.9644 6.237 8.9228 6.2682 8.8812C6.4164 8.668 6.5698 8.46 6.7336 8.2572C6.7414 8.2468 6.7466 8.239 6.7544 8.2286C6.9182 8.0258 7.0898 7.8308 7.2666 7.6384C7.3134 7.589 7.3576 7.5396 7.4044 7.4902C7.5838 7.303 7.7658 7.1184 7.9556 6.9416C7.966 6.9312 7.979 6.9208 7.9894 6.913C8.1766 6.7414 8.369 6.5776 8.5666 6.4164C8.6108 6.38 8.655 6.3462 8.6992 6.3098C8.9124 6.1408 9.1308 5.9796 9.3544 5.8262C9.4792 5.743 9.604 5.6598 9.7288 5.5818C9.8198 5.5246 9.9134 5.47 10.007 5.4154C10.0564 5.3868 10.1032 5.3582 10.1526 5.3296C10.2514 5.2724 10.3528 5.2178 10.4542 5.1632C10.4906 5.145 10.527 5.1268 10.5608 5.106C10.9274 4.9162 11.3018 4.7446 11.684 4.5938C11.6892 4.5938 11.697 4.5886 11.7022 4.586C11.8322 4.534 11.9622 4.4872 12.0922 4.4404C12.1078 4.4352 12.1208 4.43 12.1364 4.4248C12.5186 4.2922 12.906 4.1804 13.3012 4.0868C13.3376 4.079 13.3766 4.0686 13.413 4.0608C13.5248 4.0348 13.6366 4.0114 13.7484 3.9906C13.8108 3.9776 13.8758 3.9672 13.9382 3.9568C14.0396 3.9386 14.1384 3.9204 14.2398 3.9048C14.3958 3.8814 14.5492 3.8606 14.7052 3.845C14.7728 3.8372 14.8404 3.832 14.908 3.8268C15.0276 3.8164 15.1498 3.806 15.2694 3.7982C15.3292 3.7956 15.389 3.7904 15.4514 3.7878C15.6256 3.78 15.7998 3.7748 15.974 3.7748C15.9818 3.7748 15.987 3.7748 15.9948 3.7748H16C16 3.7748 16 3.7748 15.9974 3.7748C16.1976 3.7748 16.3952 3.78 16.5954 3.7904C16.7514 3.7982 16.9048 3.8112 17.0582 3.8268C17.0998 3.8294 17.1414 3.832 17.183 3.8372C19.1278 4.0348 20.992 4.7186 22.6118 5.8184C22.6196 5.8236 22.6274 5.8288 22.6352 5.834C22.7756 5.9302 22.916 6.0316 23.0538 6.133C23.0746 6.1486 23.098 6.1642 23.1188 6.1798C23.2436 6.276 23.3684 6.3748 23.488 6.4736C23.5192 6.4996 23.5504 6.523 23.5816 6.549C23.7038 6.6504 23.8208 6.757 23.9378 6.8636C23.9664 6.8896 23.9976 6.9156 24.0262 6.9416C24.3148 7.2094 24.593 7.4928 24.8556 7.7892C24.8842 7.8204 24.9102 7.8542 24.9388 7.888C25.0402 8.005 25.1416 8.122 25.2404 8.2442C25.2664 8.278 25.2898 8.3118 25.3158 8.343C25.4146 8.4678 25.5108 8.5926 25.6018 8.72C25.6174 8.7408 25.633 8.7642 25.6486 8.785C25.75 8.9254 25.8488 9.0684 25.9424 9.214C25.9476 9.2218 25.9502 9.227 25.9554 9.2348C25.971 9.2608 25.9866 9.2868 26.0048 9.3128L24.6008 10.1292C24.2966 9.6664 23.9612 9.227 23.5894 8.8188L23.4724 10.0226C23.4646 10.1006 23.475 10.1786 23.5088 10.2488C23.5426 10.319 23.5946 10.3788 23.657 10.423C23.7896 10.5088 23.9586 10.514 24.0938 10.4334L24.6008 10.137L25.2742 11.3226L25.3548 11.463L25.6278 11.3044C25.9996 11.086 26.3714 10.8702 26.7458 10.6544C26.7458 10.6544 26.7458 10.6544 26.7484 10.6544C26.907 10.5634 27.0656 10.4698 27.2242 10.3762C27.2814 10.3372 27.2996 10.3164 27.2684 10.2644C27.089 9.9576 26.9148 9.6482 26.738 9.3414C26.6756 9.2296 26.6106 9.1178 26.543 9.006C26.6106 9.1178 26.6756 9.2322 26.738 9.344C26.9148 9.6508 27.089 9.9628 27.2684 10.267C27.2996 10.3216 27.2814 10.3424 27.2242 10.3814C27.0656 10.475 26.907 10.566 26.7458 10.6596C26.7458 10.6596 26.7458 10.6596 26.7432 10.6596C27.3568 11.9492 27.7494 13.348 27.8898 14.7884C27.8924 14.817 27.8924 14.8456 27.895 14.8742C27.9106 15.0458 27.9236 15.2148 27.9314 15.3864C27.9418 15.5892 27.947 15.7946 27.947 15.9974C27.947 16.182 27.9418 16.3666 27.934 16.5512C27.9314 16.6136 27.9262 16.676 27.9236 16.7384L27.9366 16.741Z" fill="#E6DAFE"/>
<path d="M26.2778 14.9652C25.6278 14.6662 24.9752 14.3698 24.3226 14.0708C24.2108 14.0214 24.0158 13.9304 23.7766 13.8238C23.3294 13.621 22.9342 13.3272 22.6144 12.9606C22.4272 12.5524 22.2036 12.165 21.9462 11.8036C21.785 11.3304 21.7252 10.826 21.7772 10.3216L22.0632 7.58119L22.0736 7.51359L22.1516 7.50579C22.019 7.40439 21.889 7.30299 21.7512 7.20939C20.0508 6.04979 18.0514 5.43099 16.0052 5.43099C13.7874 5.43359 11.6424 6.16679 9.877 7.49539C9.929 7.49539 9.9498 7.51619 9.955 7.57079C10.0226 8.28839 10.0928 9.00859 10.163 9.72099C10.1734 9.84059 10.1968 10.0616 10.2254 10.3242C10.28 10.8208 10.2202 11.32 10.0642 11.788C9.799 12.1624 9.5676 12.5628 9.3726 12.984C9.0554 13.3428 8.6654 13.6314 8.2234 13.8316L5.7222 14.9522H5.7144C5.6806 15.3006 5.6624 15.649 5.6624 16C5.6624 18.0852 6.2682 20.1262 7.407 21.8734C8.4808 23.514 9.981 24.8062 11.736 25.62C11.736 25.594 11.7438 25.5758 11.7724 25.5524C12.3548 25.1338 12.9372 24.7126 13.517 24.2914C13.6158 24.2212 13.79 24.0938 14.0032 23.9352C14.5674 23.5192 15.2486 23.2904 15.9506 23.28C15.8466 23.28 15.74 23.2774 15.636 23.2722C14.7936 23.2306 13.9538 23.0382 13.1634 22.695C12.269 22.3102 11.4656 21.746 10.7974 21.0362H10.8208C11.0366 21.0362 11.242 20.9452 11.385 20.784L11.8218 20.2926C11.8972 20.2094 12.0064 20.16 12.1208 20.16C12.2352 20.16 12.3444 20.2068 12.4198 20.2926L12.9268 20.862C13.023 20.9686 13.1634 21.031 13.309 21.031L21.1948 21.0336C20.5292 21.7434 19.7232 22.3076 18.8288 22.6924C18.0384 23.033 17.2012 23.2254 16.3562 23.2696C16.2548 23.2748 16.1534 23.2774 16.0494 23.2774C16.7514 23.2878 17.4352 23.5166 18.002 23.9326L20.2094 25.5524L20.2614 25.5966C20.2614 25.5966 20.2536 25.6096 20.2432 25.633C21.382 25.1104 22.4246 24.3798 23.3164 23.4672C24.762 21.9878 25.7474 20.1054 26.1452 18.054C26.3428 17.0322 26.3922 15.9922 26.2934 14.9652C26.2856 14.9652 26.2804 14.9652 26.27 14.9626L26.2778 14.9652ZM15.5944 8.73299C15.8648 8.71739 16.1352 8.71739 16.4056 8.73299C16.4134 8.73299 16.4238 8.73299 16.4316 8.73299C16.5564 8.74079 16.6812 8.75119 16.8034 8.76679C16.8996 8.77719 16.9958 8.79019 17.092 8.80579C17.1128 8.80839 17.1336 8.81099 17.1518 8.81359C17.8538 8.92799 18.5428 9.14899 19.1928 9.47399C20.186 9.97059 21.0492 10.6908 21.7174 11.58H20.3472C20.2016 11.58 20.0612 11.5176 19.965 11.4084L19.4528 10.826C19.3774 10.7402 19.2682 10.6908 19.1512 10.6882H19.1278C19.0186 10.6882 18.912 10.7324 18.8366 10.813L18.2308 11.4474C18.1528 11.5306 18.0436 11.5774 17.9266 11.5774H10.2774C10.943 10.6882 11.8088 9.96799 12.802 9.47139C13.4546 9.14639 14.1436 8.92539 14.8456 8.81099C14.8638 8.80839 14.8846 8.80579 14.9028 8.80319C15.0016 8.78759 15.0978 8.77459 15.1966 8.76419C15.3188 8.75119 15.4436 8.73819 15.5684 8.73039C15.5762 8.73039 15.5866 8.73039 15.5944 8.73039V8.73299ZM16.156 13.4858C16.3666 13.4858 16.5668 13.3922 16.7072 13.2362L17.1388 12.7552C17.2142 12.6694 17.3208 12.62 17.4352 12.62C17.5496 12.62 17.6562 12.6694 17.7316 12.7552L18.236 13.3194C18.3322 13.426 18.47 13.4884 18.613 13.4884L22.6508 13.4858C22.8458 14.0448 22.9706 14.6272 23.02 15.2174H17.781C17.6354 15.2174 17.5002 15.155 17.404 15.0484L16.8996 14.4816C16.8242 14.3958 16.7176 14.349 16.6032 14.349H16.5798C16.4732 14.349 16.3692 14.3932 16.2964 14.4712L15.6984 15.0926C15.6204 15.1758 15.5138 15.22 15.3994 15.22H8.98C9.0268 14.6298 9.1542 14.0448 9.3518 13.4858H16.156ZM15.2382 19.3696C15.1654 19.3696 15.0952 19.354 15.0276 19.3202C14.96 19.289 14.9028 19.2422 14.856 19.1824L14.3438 18.5662C14.3074 18.522 14.2606 18.4856 14.2086 18.4596C14.1566 18.4336 14.102 18.4206 14.0448 18.4206H14.0214C13.9668 18.4206 13.9122 18.4336 13.8628 18.457C13.8134 18.4804 13.7666 18.5142 13.7302 18.5558L13.1244 19.2318C13.0854 19.276 13.0386 19.3098 12.9866 19.3358C12.9346 19.3592 12.8774 19.3722 12.8228 19.3722L9.5676 19.3748C9.2946 18.7638 9.097 18.1216 8.9826 17.4612H13.6106C13.7172 17.4612 13.8238 17.4378 13.9226 17.391C14.0214 17.3416 14.1098 17.274 14.1774 17.1882L14.6168 16.6578C14.6532 16.6136 14.7 16.5772 14.752 16.5538C14.856 16.5044 14.9756 16.5044 15.0796 16.5538C15.1316 16.5798 15.1784 16.6136 15.2148 16.6604L15.7244 17.2714C15.7738 17.3286 15.831 17.3754 15.8986 17.4066C15.9636 17.4378 16.0364 17.456 16.1092 17.456H23.02C22.9056 18.1164 22.7106 18.7586 22.435 19.3696H15.2356H15.2382Z" fill="#E6DAFE"/>
<path d="M24.8972 12.5004C25.2248 12.6512 25.6044 12.8228 25.9086 12.9632C25.8072 12.6226 25.698 12.282 25.5628 11.9492C25.4978 11.788 25.4224 11.632 25.3496 11.4734L24.8582 11.7542C24.7932 11.7932 24.7386 11.8478 24.7022 11.9154C24.6294 12.0532 24.6372 12.2222 24.7256 12.3496C24.7672 12.412 24.827 12.464 24.8972 12.4952V12.5004Z" fill="#E6DAFE"/>
<path d="M7.28479 12.347C7.41479 12.152 7.36279 11.892 7.17039 11.762C7.16519 11.7568 7.15739 11.7542 7.15219 11.749L6.67119 11.4682C6.44759 11.9466 6.26039 12.4432 6.10959 12.9528L7.11579 12.4926C7.18599 12.4614 7.24319 12.4094 7.28739 12.347H7.28479Z" fill="#E6DAFE"/>
<path d="M15.2356 25.9138C15.2356 25.8384 15.2148 25.7604 15.1732 25.6954C15.1342 25.6304 15.077 25.5758 15.0094 25.542C14.8716 25.4692 14.7052 25.4822 14.5778 25.5732L13.6054 26.2752C14.141 26.4052 14.687 26.4884 15.2356 26.5326C15.2356 26.3402 15.2356 26.1218 15.233 25.9138H15.2356Z" fill="#E6DAFE"/>
<path d="M8.33779 10.4022C8.40019 10.3606 8.45219 10.3034 8.48599 10.2332C8.51979 10.1656 8.53279 10.0876 8.52499 10.0122L8.41319 8.83438C8.04399 9.24258 7.70859 9.67678 7.40959 10.1318L7.90879 10.4152C8.04399 10.4906 8.20779 10.4854 8.33779 10.4022Z" fill="#E6DAFE"/>
</svg>
