<svg width="32" height="32" viewBox="0 0 32 32" fill="none" xmlns="http://www.w3.org/2000/svg">
<path d="M15.8763 14.995C13.5751 14.995 11.7088 13.1564 11.7088 10.8893C11.7088 8.62231 13.5751 6.78366 15.8763 6.78366C16.7129 6.78366 17.4922 7.02699 18.1444 7.4451C19.2881 8.17678 20.0438 9.44652 20.0438 10.8893C20.0438 11.5422 19.889 12.1591 19.6142 12.7066C19.7542 12.7263 19.8977 12.7365 20.0438 12.7365C21.3692 12.7365 22.4964 11.8952 22.9025 10.724C23.3086 11.8952 24.4358 12.7365 25.7612 12.7365C26.0334 12.7365 26.2978 12.7014 26.5482 12.6346C26.1525 10.6537 25.2028 8.86906 23.8652 7.44338C21.878 5.32543 19.0341 4 15.8763 4C9.86938 4 5 8.79709 5 14.7157C5 15.2083 5.03392 15.6933 5.09914 16.1688C5.43571 18.6132 6.60805 20.7954 8.32481 22.4258H8.32394L7.16726 27.7781C7.71429 27.9229 8.28916 28 8.88228 28C11.0826 28 13.0316 26.9393 14.2309 25.3089C14.7675 25.3885 15.3171 25.4305 15.8763 25.4305C21.7884 25.4305 26.5995 20.7834 26.75 14.995H15.8763Z" fill="#E6DAFE"/>
</svg>
