<svg width="32" height="32" viewBox="0 0 32 32" fill="none" xmlns="http://www.w3.org/2000/svg">
<path d="M27.2654 9.6276C27.2647 8.34415 26.7545 7.11347 25.847 6.20593C24.9395 5.2984 23.7088 4.78826 22.4254 4.7876H22.3979C21.1148 4.78826 19.8845 5.29806 18.9771 6.20505C18.0696 7.11204 17.5592 8.34209 17.5579 9.6251V14.8901C17.0379 14.9326 16.4954 14.9701 15.9304 15.0076L14.4304 15.1126V9.6126C14.4257 8.33348 13.9152 7.10815 13.0103 6.20414C12.1053 5.30014 10.8795 4.79089 9.60035 4.7876H9.57285C8.29027 4.78892 7.0606 5.29901 6.15368 6.20593C5.24676 7.11285 4.73668 8.34252 4.73535 9.6251V22.3751C4.73668 23.6577 5.24676 24.8873 6.15368 25.7943C7.0606 26.7012 8.29027 27.2113 9.57285 27.2126H9.60035C10.8834 27.2119 12.1137 26.7021 13.0211 25.7951C13.9286 24.8882 14.439 23.6581 14.4404 22.3751V17.1251C14.9604 17.0818 15.5012 17.0426 16.0629 17.0076C16.5629 16.9726 17.0629 16.9401 17.5629 16.9026V22.3751C17.5642 23.6581 18.0746 24.8882 18.9821 25.7951C19.8895 26.7021 21.1198 27.2119 22.4029 27.2126H22.4304C23.7121 27.21 24.9404 26.6993 25.8463 25.7925C26.7521 24.8857 27.2615 23.6568 27.2629 22.3751V9.7026C27.2654 9.6776 27.2654 9.6526 27.2654 9.6276ZM9.57285 6.7876H9.60035C10.3531 6.7876 11.0751 7.08647 11.6077 7.61853C12.1402 8.15059 12.4397 8.87232 12.4404 9.6251V15.3076C11.1027 15.4439 9.79078 15.7671 8.54285 16.2676C7.88421 16.5481 7.27415 16.9312 6.73535 17.4026V9.6251C6.73601 8.87275 7.03518 8.1514 7.56717 7.61941C8.09916 7.08742 8.8205 6.78826 9.57285 6.7876V6.7876ZM12.4404 22.3751C12.4397 23.1279 12.1402 23.8496 11.6077 24.3817C11.0751 24.9137 10.3531 25.2126 9.60035 25.2126H9.57285C8.8205 25.2119 8.09916 24.9128 7.56717 24.3808C7.03518 23.8488 6.73601 23.1274 6.73535 22.3751C6.73535 18.8926 8.83535 17.8151 12.4404 17.3301V22.3751ZM19.5579 9.6251C19.5592 8.87252 19.8589 8.15118 20.3913 7.61926C20.9237 7.08734 21.6453 6.78826 22.3979 6.7876H22.4254C23.1777 6.78826 23.899 7.08742 24.431 7.61941C24.963 8.1514 25.2622 8.87275 25.2629 9.6251V9.7101C25.2304 13.1326 23.1354 14.1976 19.5579 14.6801V9.6251ZM22.4254 25.2126H22.3979C21.6453 25.2119 20.9237 24.9129 20.3913 24.3809C19.8589 23.849 19.5592 23.1277 19.5579 22.3751V16.7026C20.8953 16.5699 22.2074 16.2492 23.4554 15.7501C24.114 15.4696 24.7241 15.0865 25.2629 14.6151V22.3751C25.2622 23.1274 24.963 23.8488 24.431 24.3808C23.899 24.9128 23.1777 25.2119 22.4254 25.2126V25.2126Z" fill="#E6DAFE"/>
</svg>
