<svg width="32" height="32" viewBox="0 0 32 32" fill="none" xmlns="http://www.w3.org/2000/svg">
<g clip-path="url(#clip0_6_4939)">
<path d="M27.993 16.9161C27.993 16.9161 27.993 16.8532 27.993 16.8253C27.993 16.7973 27.993 16.7624 27.993 16.7344C27.8462 10.2417 22.5277 5 16 5C9.47234 5 4 10.3815 4 17C4 21.6476 6.6558 25.6733 10.5277 27.6651C10.6255 27.714 10.7234 27.763 10.8212 27.8049C10.8771 27.8328 10.926 27.8608 10.9819 27.8818C10.9959 27.8818 11.0029 27.8888 11.0169 27.8957V27.8678C11.0169 27.8678 11.1986 27.4554 11.3384 27.113C11.3663 27.0501 11.3873 26.9942 11.4153 26.9383L11.4921 26.9872C11.6529 27.0711 11.8765 27.1619 12.0023 27.1969C12.5265 27.3366 13.0227 27.4135 13.5119 27.4345C13.5399 27.4345 13.5748 27.4345 13.6028 27.4345C13.7566 27.4345 13.9103 27.4205 14.0571 27.3995C14.113 27.3995 14.1689 27.3856 14.2248 27.3786L14.4694 27.3576C14.8328 27.3227 15.2103 27.2877 15.5737 27.2388C15.6715 27.2248 15.7624 27.2388 15.8672 27.2458C15.9231 27.2528 15.986 27.2598 16.0419 27.2598H16.0839C16.2167 27.2667 16.3704 27.2737 16.4962 27.1969C16.6779 27.085 16.8806 27.0711 17.0973 27.0501H17.1811C17.6913 26.9942 18.2085 26.8893 18.7746 26.7076L18.8794 26.6727C19.3617 26.5259 19.8579 26.3652 20.3262 26.1485C20.431 26.0996 20.5288 26.0437 20.6337 25.9878C20.7385 26.2254 20.8992 26.5678 21.067 26.8963C21.1998 27.1549 21.3326 27.3856 21.4444 27.5323C21.4584 27.5463 21.4723 27.5743 21.4863 27.5882L21.5073 27.6162C21.5352 27.6022 21.5632 27.5882 21.5911 27.5743C21.6051 27.5673 21.6191 27.5603 21.6331 27.5533C21.6471 27.5463 21.661 27.5393 21.675 27.5323C21.689 27.5323 21.696 27.5183 21.71 27.5183C21.7449 27.5044 21.7729 27.4764 21.8008 27.4624C21.8288 27.4485 21.8567 27.4275 21.8917 27.4065C23.8416 26.3023 25.456 24.6738 26.5323 22.71C26.5533 22.675 26.5673 22.6331 26.5882 22.5981C26.6092 22.5632 26.6232 22.5213 26.6441 22.4863C26.7001 22.3815 26.749 22.2697 26.8049 22.1578C26.8259 22.1229 26.8398 22.0879 26.8608 22.046C26.8818 22.0111 26.8957 21.9691 26.9167 21.9342C27.5527 20.5434 27.9231 19.0128 27.986 17.3984C27.986 17.3634 27.986 17.3355 27.986 17.3005C27.986 17.2656 27.986 17.2376 27.986 17.2027C27.986 17.1258 28 17.0489 28 16.972C28 16.9441 28 16.9161 28 16.8882L27.993 16.9161ZM19.9767 23.2201V23.1992C19.9767 23.1992 19.9907 23.1992 20.0047 23.1992H20.0326C20.1025 23.2132 20.1794 23.2202 20.2563 23.2411C20.3611 23.2621 20.438 23.318 20.4729 23.3949C20.5079 23.4648 20.5009 23.5556 20.4589 23.6535C20.431 23.7094 20.403 23.7653 20.3681 23.8212C20.3401 23.8631 20.3192 23.9051 20.2982 23.947C20.2353 24.0798 20.2493 24.1846 20.3401 24.2615C20.424 24.3314 20.5288 24.3454 20.6476 24.2825L20.6756 24.2685C20.6756 24.2685 20.7315 24.2126 20.7525 24.1916C20.7525 24.1846 20.7665 24.1776 20.7734 24.1706C20.8573 24.1986 20.9342 24.2615 20.9971 24.3104C21.1578 24.4432 21.2137 24.583 21.1578 24.7298C21.081 24.9324 20.9621 25.1072 20.8084 25.2539C20.7385 25.3168 20.6686 25.3727 20.6057 25.4217C20.3611 25.6104 20.0606 25.7641 19.6971 25.8899C18.9284 26.1555 18.2854 26.3722 17.5865 26.484C17.4677 26.498 17.3559 26.5119 17.258 26.5119C17.2161 26.5049 17.1672 26.5189 17.1252 26.5329C17.0833 26.5469 17.0623 26.5539 17.0483 26.5469C17.0344 26.5329 17.0204 26.484 17.0064 26.442C16.9994 26.4071 16.9854 26.3722 16.9785 26.3442C16.9645 26.3093 16.9505 26.2603 16.9156 26.2184C16.9086 26.2044 16.9016 26.1974 16.9016 26.1974C16.9016 26.1974 16.9156 26.1835 16.9505 26.1625C17.251 25.9808 17.5306 25.7641 17.7962 25.5545C17.9499 25.4356 18.1037 25.3168 18.2574 25.205C18.6488 24.9115 19.0402 24.555 19.4805 24.0868L19.6133 23.947C19.6273 23.933 19.6412 23.9121 19.6622 23.8981C19.6832 23.8771 19.6971 23.8631 19.7111 23.8422C19.8998 23.6395 19.9837 23.4368 19.9697 23.2201H19.9767ZM11.5131 26.3512C11.4642 26.3093 11.4013 26.2533 11.3524 26.1835C11.1706 25.9528 11.1357 25.7012 11.2405 25.3867C11.2615 25.3937 11.2895 25.4077 11.3034 25.4147L11.3524 25.4356C11.562 25.5195 11.6738 25.4147 11.7158 25.3518C11.8346 25.1771 11.6878 25.0373 11.6319 24.9884C11.548 24.9185 11.4642 24.8416 11.3803 24.7647C11.2545 24.6529 11.1986 24.4851 11.2126 24.3034C11.2335 24.1008 11.3384 23.9051 11.4921 23.8142C11.555 23.7793 11.555 23.7793 11.576 23.8002C11.583 23.8142 11.597 23.8282 11.6109 23.8422C11.6109 23.8422 11.6249 23.8561 11.6319 23.8701C11.7088 23.961 11.7997 24.0448 11.8835 24.1217L11.9255 24.1637L11.9394 24.1776L12.0792 24.3174C12.6663 24.8486 13.3302 25.2959 13.9732 25.7012C14.3366 25.9319 14.742 26.1765 15.1753 26.3512C15.2592 26.3861 15.2662 26.4071 15.2522 26.463C15.2242 26.5818 15.2382 26.6937 15.2801 26.7985C15.2801 26.7985 15.2801 26.8055 15.2801 26.8125C15.2801 26.8125 15.2662 26.8125 15.2522 26.8125H15.1683C15.0635 26.8334 14.9517 26.8474 14.8398 26.8474C14.6302 26.8474 14.4205 26.8684 14.2178 26.8893C13.9033 26.9173 13.5818 26.9453 13.2673 26.9173C12.6733 26.8614 12.1771 26.7286 11.7437 26.5119C11.6599 26.47 11.576 26.4211 11.4991 26.3512H11.5131ZM11.7857 10.067V10.046C11.7857 10.046 11.7857 9.99709 11.7857 9.9901C11.7857 9.9901 11.7857 9.9901 11.7927 9.9901C11.7997 9.9901 11.8206 9.99709 11.8556 10.032C12.0722 10.2207 12.2539 10.4444 12.4007 10.689L12.4356 10.7449C12.6104 11.0314 12.7851 11.311 12.9668 11.5906C13.0297 11.6814 13.0087 11.7094 12.9528 11.7513C12.827 11.8422 12.7432 11.961 12.6593 12.0868C12.6383 12.1217 12.6174 12.1497 12.5894 12.1846C12.4147 11.9889 12.2749 11.7513 12.1631 11.4368C12.0303 11.0804 11.8975 10.703 11.8066 10.3046C11.7857 10.2277 11.7857 10.1578 11.7787 10.067H11.7857ZM13.0367 15.3017C13.0367 15.4205 12.9878 15.4834 12.8759 15.4834C12.7571 15.4834 12.6733 15.4205 12.6733 15.3087C12.6733 15.1899 12.7292 15.12 12.834 15.12C12.9528 15.12 13.0367 15.1829 13.0367 15.3017ZM18.4391 11.4508C18.6838 11.0524 18.9843 10.696 19.3197 10.3116C19.3407 10.2836 19.3687 10.2557 19.3896 10.2277C19.4595 10.1439 19.5224 10.06 19.6063 10.0041C19.6552 9.96913 19.6762 9.96913 19.6762 9.96913C19.6762 9.96913 19.6902 9.98311 19.7041 10.046C19.7041 10.0879 19.7041 10.1229 19.7041 10.1508L19.6762 10.2557C19.6063 10.5422 19.5364 10.8358 19.3966 11.0804C19.2219 11.3739 19.0681 11.6744 18.9284 11.954C18.9214 11.968 18.9144 11.9819 18.9074 12.0029C18.9074 12.0169 18.9004 12.0239 18.8934 12.0379C18.7816 11.8841 18.6488 11.7583 18.516 11.6395L18.4601 11.5906C18.4112 11.5416 18.4042 11.5347 18.4461 11.4578L18.4391 11.4508ZM18.4461 15.3087C18.4461 15.3087 18.4321 15.3436 18.4321 15.3646C18.4252 15.3995 18.4182 15.4275 18.3972 15.4415C18.3692 15.4624 18.3413 15.4834 18.2924 15.4834C18.2434 15.4834 18.2015 15.4694 18.1666 15.4485C18.1176 15.4205 18.0827 15.3786 18.0827 15.3087C18.0827 15.1899 18.1386 15.12 18.2434 15.12C18.3623 15.12 18.4461 15.1829 18.4461 15.3017V15.3087ZM12.1421 23.6045C12.1561 23.2481 12.1421 22.8707 12.1072 22.4094C12.0862 22.1858 12.1072 21.9552 12.1491 21.6756C12.226 21.2003 12.2959 20.6273 12.226 20.0192C12.1771 19.5789 12.212 19.0967 12.3378 18.4956C12.4217 18.0903 12.4287 17.65 12.3518 17.1677C12.3378 17.0769 12.3238 16.986 12.3378 16.9161C12.3867 16.6506 12.4147 16.371 12.4287 16.0705C12.6243 16.1893 12.82 16.2312 12.9948 16.2312C13.0157 16.2312 13.0367 16.2312 13.0577 16.2242C13.1275 16.2242 13.1974 16.2103 13.2603 16.2033C13.2883 16.2033 13.3162 16.2033 13.3442 16.1963H13.3512H13.3652C13.6587 16.1334 13.8684 15.9517 14.0082 15.6372L14.0221 15.6022C14.0221 15.6022 14.0431 15.5463 14.0571 15.5323C14.0571 15.5323 14.0711 15.5323 14.078 15.5323C14.099 15.5323 14.12 15.5323 14.1409 15.5323C14.1689 15.5323 14.1969 15.5253 14.2178 15.5114C14.2178 15.5114 14.2178 15.5114 14.2248 15.5114C14.2248 15.5114 14.2318 15.5044 14.2388 15.4974C14.3017 15.4694 14.3436 15.4275 14.3576 15.3506C14.3716 15.2318 14.3017 15.1549 14.1549 15.12L13.7146 15.0151C13.4211 14.9453 13.1275 14.8824 12.841 14.8195L12.7711 14.8055C12.6523 14.7775 12.5265 14.7496 12.4007 14.7356C12.3308 14.7286 12.3238 14.7216 12.3308 14.6447C12.3797 14.2114 12.4706 13.6453 12.7012 13.1072C12.9388 12.562 13.2184 12.1427 13.5539 11.8142C13.6028 11.7653 13.6937 11.6744 13.6447 11.5486C13.6028 11.4368 13.505 11.3879 13.3861 11.4158C13.3722 11.4158 13.3652 11.4158 13.3512 11.4228C13.3442 11.4158 13.3302 11.3949 13.3232 11.3879L13.2603 11.2831C13.2044 11.1992 13.1555 11.1223 13.1066 11.0314C12.8899 10.675 12.6243 10.3395 12.3658 10.025L12.3098 9.95515C12.2539 9.88526 12.184 9.81538 12.0792 9.74549C11.9394 9.64764 11.7997 9.62667 11.6808 9.6756C11.6808 9.6756 11.6808 9.6756 11.6738 9.6756C11.59 9.70355 11.4642 9.78742 11.4432 10.032C11.4153 10.2487 11.4432 10.4584 11.5131 10.6331C11.576 10.7938 11.6389 10.9546 11.6948 11.1153C11.8695 11.5836 12.0443 12.0658 12.3168 12.5061C12.3448 12.548 12.3308 12.576 12.3168 12.6109C12.2889 12.576 12.2539 12.5411 12.233 12.4991C11.6459 11.4578 11.3174 10.6191 11.1706 9.78043C11.1217 9.52184 11.1287 9.24927 11.1357 9.01864C11.1497 8.81596 11.2196 8.80198 11.2685 8.79499C11.3104 8.79499 11.3593 8.79499 11.4153 8.81596C11.604 8.86488 11.7437 8.99068 11.8765 9.10949C12.2539 9.45894 12.5964 9.85032 12.9249 10.2277C13.0297 10.3535 13.1415 10.4723 13.2533 10.5981C13.3722 10.7309 13.498 10.8707 13.6098 11.0105C13.6797 11.0874 13.7356 11.1503 13.7426 11.2481C13.7496 11.3669 13.8055 11.4228 13.8474 11.4508C13.8754 11.4648 13.9103 11.4857 13.9662 11.4857C14.0012 11.4857 14.0431 11.4787 14.085 11.4578H14.099H14.12C14.1619 11.4438 14.1969 11.4228 14.2388 11.4019C14.4415 11.2621 14.6791 11.2132 14.9027 11.1712H14.9377C15.5667 11.0594 16.2516 11.0804 17.0204 11.2411C17.1112 11.2621 17.1951 11.311 17.279 11.3599L17.2999 11.3739C17.3768 11.4228 17.4537 11.4648 17.5376 11.4648C17.5585 11.4648 17.5865 11.4578 17.6075 11.4508C17.6075 11.4508 17.6075 11.4508 17.6144 11.4508C17.6144 11.4508 17.6144 11.4508 17.6214 11.4508C17.7263 11.4089 17.7752 11.29 17.8031 11.1852C17.8101 11.1433 17.8381 11.0943 17.887 11.0454C18.0617 10.8567 18.2295 10.661 18.3972 10.4653C18.7956 10.0041 19.2009 9.52883 19.6552 9.10949C19.795 8.9767 19.9278 8.86488 20.0955 8.81596C20.2073 8.78101 20.2912 8.78101 20.3401 8.81596C20.3891 8.8509 20.417 8.93477 20.424 9.06057C20.4589 9.69656 20.2912 10.2906 20.1235 10.7868C19.9208 11.3739 19.6342 11.94 19.3826 12.4083C19.3477 12.4712 19.3128 12.5271 19.2708 12.583C19.2708 12.59 19.2568 12.604 19.2499 12.6109C19.1171 12.4083 19.131 12.3524 19.2708 12.0798L19.3337 11.961C19.5504 11.5556 19.781 11.1363 19.9348 10.682C20.0047 10.4793 20.0676 10.2557 20.0606 10.0111C20.0606 9.8643 20.0256 9.69656 19.8439 9.60571C19.767 9.57076 19.6832 9.56377 19.5993 9.58474C19.5853 9.58474 19.5713 9.60571 19.5574 9.6127C19.5084 9.63366 19.4525 9.65463 19.3966 9.69656C19.2778 9.8014 19.159 9.90623 19.0472 10.025C18.9843 10.0949 18.9214 10.1648 18.8515 10.2277C18.544 10.5492 18.2295 10.8847 18.0338 11.304C18.0338 11.318 18.0058 11.339 17.9849 11.3599C17.9289 11.4089 17.8311 11.4997 17.894 11.6535C17.9289 11.7303 17.9849 11.7793 18.0408 11.8282C18.0687 11.8492 18.0967 11.8771 18.1176 11.9051C18.516 12.3873 18.7886 12.8695 18.9633 13.3867C19.0751 13.7222 19.152 14.0856 19.2009 14.456C19.2009 14.5049 19.2149 14.5609 19.2149 14.5678C19.2009 14.5748 19.145 14.5958 19.0961 14.6098L17.6634 14.9872H17.6354C17.6354 14.9872 17.5585 15.0082 17.5166 15.0291C17.4397 15.0641 17.3908 15.127 17.3838 15.1969C17.3838 15.2667 17.4188 15.3296 17.4956 15.3786C17.5515 15.4135 17.5655 15.4205 17.5725 15.4624C17.6634 15.8398 17.915 16.0775 18.2854 16.1264C18.3623 16.1404 18.4391 16.1473 18.509 16.1473C18.53 16.1473 18.544 16.1404 18.5649 16.1404C18.6488 16.1404 18.7327 16.1264 18.8096 16.1054C18.8794 16.0844 18.9423 16.0495 19.0052 16.0076C19.0472 15.9796 19.0891 15.9447 19.131 15.9027C19.131 16.2312 19.159 16.5667 19.2219 16.8952C19.2359 16.9581 19.2219 17.0349 19.2219 17.0909C19.1241 17.5661 19.131 18.0623 19.2429 18.6005C19.3547 19.1596 19.3757 19.6837 19.3128 20.2079C19.2778 20.4875 19.2918 20.788 19.3407 21.1654C19.3337 21.8084 19.3547 22.3955 19.4176 22.9685V23.0384C19.4106 23.0804 19.4106 23.1153 19.4036 23.1572V23.1712C19.3896 23.304 19.3407 23.4019 19.2499 23.4927C18.4391 24.3593 17.5096 25.0862 16.6919 25.7012C16.6919 25.7012 16.6779 25.7152 16.6709 25.7152C16.65 25.7292 16.622 25.7501 16.5941 25.7781C16.5521 25.841 16.5172 25.862 16.3984 25.7991C16.1747 25.6872 15.9161 25.7082 15.6436 25.869C15.5597 25.9179 15.5038 25.9179 15.4199 25.8759C14.9097 25.6174 14.3856 25.3518 13.8963 24.9953C13.3302 24.597 12.6942 24.1357 12.1351 23.6185L12.1421 23.6045ZM15.9581 26.2953C16.0349 26.2673 16.1048 26.2464 16.1747 26.2464C16.3215 26.2464 16.4473 26.3232 16.5172 26.463C16.5731 26.5748 16.5661 26.6098 16.4683 26.6937C16.3844 26.7566 16.2656 26.7915 16.1468 26.7915H16.1328C16.1328 26.7915 16.0909 26.7915 16.0629 26.7845C16.0489 26.7845 16.028 26.7845 16.014 26.7845C15.8672 26.7635 15.7833 26.7006 15.7694 26.6028C15.7554 26.5049 15.8393 26.3512 15.9651 26.3093L15.9581 26.2953ZM4.84566 17C4.84566 10.8497 9.84974 5.84566 16 5.84566C22.1503 5.84566 27.1543 10.8497 27.1543 17C27.1543 17.014 27.1543 17.0349 27.1543 17.0489C26.7699 17.1887 26.3856 17.3285 26.0082 17.4683H25.9872C24.4636 18.0344 22.961 18.7123 21.5143 19.4811C21.0181 19.7466 20.5288 20.0821 20.0256 20.5154C19.9977 20.5434 19.9697 20.5713 19.9348 20.5923C19.9208 20.5993 19.9138 20.6133 19.8998 20.6203C19.8998 20.4176 19.8858 20.2079 19.8858 19.9983V19.7327C19.8789 19.2225 19.8649 18.7892 19.7461 18.3419C19.6552 17.9784 19.6412 17.636 19.7111 17.3215C19.795 16.9651 19.802 16.5877 19.7391 16.1264V16.0635C19.7041 15.9097 19.6832 15.756 19.7181 15.6162C19.809 15.2598 19.802 14.9173 19.781 14.5259C19.76 14.1345 19.6622 13.7571 19.5644 13.3937L19.5364 13.2819C19.5084 13.1771 19.5154 13.1281 19.5853 13.0652C19.7111 12.9394 19.816 12.7857 19.8998 12.6179C20.396 11.6045 20.7525 10.7309 20.8643 9.77344C20.8992 9.54281 20.9482 9.2283 20.9342 8.92079C20.9202 8.69715 20.8363 8.52242 20.6966 8.4106C20.5498 8.29878 20.3611 8.25684 20.1374 8.30577C19.9278 8.3477 19.7531 8.42458 19.5993 8.52941C19.2009 8.82295 18.8655 9.18637 18.5929 9.50087L18.4252 9.69656C18.1316 10.032 17.8241 10.3815 17.5376 10.7309C17.4677 10.8148 17.4188 10.8288 17.3069 10.7798C17.0553 10.661 16.8387 10.6051 16.629 10.5842C15.8532 10.5282 15.0285 10.4933 14.2458 10.8008C14.127 10.8497 14.078 10.8358 13.9942 10.7309C13.7006 10.3745 13.3652 9.9901 12.9528 9.52184C12.6523 9.17938 12.3238 8.82295 11.9255 8.54339C11.7298 8.40361 11.5201 8.33372 11.2755 8.31974C11.2615 8.31974 11.2545 8.31974 11.2405 8.31974C10.94 8.31974 10.7303 8.48748 10.6535 8.788C10.6255 8.89284 10.6255 8.99767 10.6255 9.06756C10.6255 9.54281 10.7094 9.99709 10.8142 10.5003C10.926 11.0594 11.1567 11.5836 11.3803 12.0868C11.4292 12.2056 11.4851 12.3244 11.5341 12.4362C11.6459 12.7088 11.7997 12.9394 11.9814 13.1351C12.0303 13.184 12.0373 13.219 12.0163 13.2819C11.9744 13.4287 11.9394 13.5824 11.8975 13.7362C11.7368 14.3372 11.6948 14.9103 11.7787 15.4554C11.8206 15.707 11.8206 15.9656 11.7787 16.3081C11.7437 16.5946 11.7228 16.9371 11.8066 17.3005C11.8905 17.643 11.8765 17.9994 11.7787 18.3978C11.6669 18.8381 11.6249 19.2434 11.6459 19.6348C11.6669 19.9284 11.6459 20.2219 11.6249 20.5084C11.6179 20.6482 11.604 20.788 11.604 20.9208V21.0326C11.604 21.2493 11.597 21.4519 11.548 21.6546C11.4782 21.9482 11.4712 22.2766 11.5271 22.6471C11.569 22.9126 11.576 23.0035 11.576 23.0524C11.562 23.0524 11.548 23.0664 11.5271 23.0734C11.4362 23.1013 11.2755 23.1572 11.1497 23.2691C11.1427 23.2691 11.1287 23.2831 11.1147 23.297C10.5976 23.7094 10.4648 24.3034 10.7723 24.8905C10.8072 24.9604 10.8002 24.9953 10.7723 25.0722C10.5277 25.5754 10.5696 26.0437 10.9051 26.456L10.933 26.498L10.8072 26.8474C7.26383 24.9814 4.83168 21.2563 4.83168 16.979L4.84566 17ZM21.5702 26.6517C21.4164 26.3232 21.2277 25.9388 21.1089 25.6803C21.3046 25.5055 21.4584 25.3168 21.5632 25.1002C21.5842 25.0652 21.6051 25.0443 21.6261 25.0303C21.8567 24.8905 22.1922 24.7927 22.4857 24.7018C22.6674 24.6459 22.8352 24.597 22.975 24.5411L23.2405 24.3943C23.6739 24.1567 24.1211 23.9051 24.5684 23.6674C24.7641 23.5626 24.9598 23.4648 25.1485 23.3669C24.212 24.7088 22.9889 25.834 21.5702 26.6517ZM25.7705 22.3745C25.3023 22.5772 24.848 22.8078 24.4077 23.0384L24.3029 23.0943C23.7647 23.3739 23.1846 23.7024 22.4857 24.1217C22.318 24.2196 22.1363 24.2825 21.9476 24.3454C21.8847 24.3663 21.8218 24.3873 21.7589 24.4083C21.703 24.4222 21.703 24.4222 21.689 24.3803C21.5981 24.1077 21.4024 23.8981 21.1089 23.7583C21.06 23.7373 21.046 23.7164 21.053 23.6325C21.067 23.4368 21.053 23.29 20.9971 23.1572C20.9272 22.9476 20.7874 22.8148 20.5847 22.7519C20.3821 22.689 20.2143 22.654 20.0326 22.675C20.0186 22.675 19.9907 22.675 19.9837 22.675C19.9837 22.675 19.9697 22.661 19.9697 22.6261C19.9697 22.5842 19.9697 22.5352 19.9557 22.4933C19.9557 22.4514 19.9487 22.4094 19.9487 22.3675C19.9487 22.2906 19.9487 22.2137 19.9487 22.1369C19.9487 21.9901 19.9487 21.8294 19.9208 21.6826C19.8998 21.5638 19.9068 21.4659 19.9557 21.3751C19.9907 21.2982 20.0466 21.2283 20.1305 21.1584C20.7036 20.6412 21.3745 20.2079 22.311 19.7467C23.8905 18.9639 25.5469 18.3279 27.1334 17.7478C27.0215 19.4112 26.5533 20.9837 25.7845 22.3675L25.7705 22.3745Z" fill="#E6DAFE"/>
<path d="M14.8328 18.0764C14.8887 18.1183 14.9167 18.1533 14.9376 18.2301C14.9936 18.4328 15.1194 18.5936 15.2941 18.7054C15.5597 18.8801 15.8462 18.964 16.1397 18.964C16.2096 18.964 16.2795 18.964 16.3494 18.95C16.7408 18.8871 16.9994 18.6984 17.1462 18.3839C17.2091 18.2441 17.272 18.1043 17.3838 17.9995C17.5096 17.8807 17.5375 17.706 17.5445 17.5802C17.5655 17.2168 17.4327 16.9162 17.1392 16.6856C17.0413 16.6157 17.0413 16.5808 17.0763 16.4899C17.1462 16.3222 17.1322 16.1335 17.1182 15.9867C17.0902 15.6303 16.8247 15.3857 16.4612 15.3787H16.4403C16.2446 15.3787 16.0768 15.4416 15.9441 15.5744C15.9231 15.5604 15.9021 15.5464 15.8881 15.5394C15.6925 15.4276 15.4968 15.3926 15.329 15.4555C15.1613 15.5184 15.0355 15.6582 14.9586 15.8749C14.8957 16.0496 14.8328 16.2732 14.9097 16.5179C14.9516 16.6437 14.9377 16.7066 14.8398 16.7834C14.735 16.8673 14.6651 16.9931 14.6022 17.0979C14.3995 17.4544 14.4904 17.8458 14.8258 18.0764H14.8328ZM15.364 16.5528C15.3151 16.406 15.2801 16.2872 15.2871 16.1544C15.2941 16.0216 15.35 15.9308 15.4339 15.8819C15.4688 15.8609 15.5038 15.8539 15.5457 15.8539C15.6016 15.8539 15.6645 15.8749 15.7344 15.9098C15.7554 15.9238 15.7763 15.9378 15.7973 15.9518C15.8183 15.9657 15.8392 15.9797 15.8602 16.0007C15.9441 16.0496 16.0209 16.0706 16.0908 16.0496C16.1537 16.0286 16.2026 15.9867 16.2446 15.9098C16.2935 15.819 16.3564 15.798 16.5171 15.812C16.629 15.826 16.6989 15.8819 16.7478 16.0147C16.7688 16.0706 16.7688 16.1195 16.7478 16.1754C16.7268 16.2313 16.7059 16.2802 16.6849 16.3292C16.6639 16.3781 16.6429 16.434 16.622 16.4759C16.5731 16.5877 16.5311 16.6856 16.5661 16.7695C16.594 16.8533 16.6779 16.8953 16.7967 16.9512C16.9784 17.0281 17.0902 17.1329 17.1601 17.2936C17.216 17.4264 17.2091 17.5592 17.1462 17.664C17.0763 17.7759 16.9435 17.8388 16.7967 17.8458C16.622 17.8318 16.4542 17.7269 16.3284 17.5452C16.2096 17.3705 16.1537 17.2866 16.0629 17.2866C15.965 17.2866 15.9161 17.3705 15.8043 17.5592C15.6785 17.7689 15.4898 17.8737 15.2522 17.8527C15.1124 17.8458 15.0006 17.7759 14.9446 17.664C14.8887 17.5522 14.9027 17.4194 14.9796 17.3006C15.0355 17.2098 15.1194 17.1259 15.2452 17.028C15.4548 16.8743 15.4688 16.8044 15.3849 16.5598L15.364 16.5528ZM16.0629 17.8597C16.2655 18.0974 16.5032 18.2232 16.7688 18.2371C16.6639 18.4398 16.4752 18.5377 16.2096 18.5446H16.1887C15.972 18.5446 15.5457 18.5097 15.3989 18.2371C15.6785 18.2022 15.7623 18.1533 16.0629 17.8597Z" fill="#E6DAFE"/>
<path d="M15.6925 16.7065C15.6925 16.7065 15.7344 16.7065 15.7484 16.6995C15.8393 16.6645 15.8952 16.5807 15.8882 16.4898C15.8742 16.336 15.7903 16.2172 15.7344 16.1404C15.7065 16.1054 15.6715 16.0914 15.6366 16.0844L15.6086 16.0635H15.5807C15.4269 16.0844 15.392 16.1893 15.392 16.2452C15.378 16.385 15.4269 16.5108 15.5457 16.6436C15.6016 16.6925 15.6506 16.7134 15.6925 16.7134V16.7065Z" fill="#E6DAFE"/>
<path d="M16.245 16.6365C16.245 16.6365 16.2939 16.6505 16.3219 16.6505C16.3918 16.6505 16.4686 16.6085 16.5176 16.4967V16.4827C16.5455 16.4128 16.5735 16.336 16.5875 16.2661C16.6084 16.1752 16.5665 16.0844 16.4756 16.0424C16.3708 16.0005 16.266 16.0424 16.217 16.1473C16.1891 16.2032 16.1681 16.2661 16.1541 16.315L16.1402 16.3639C16.1332 16.4198 16.0982 16.5946 16.252 16.6365H16.245Z" fill="#E6DAFE"/>
</g>
<defs>
<clipPath id="clip0_6_4939">
<rect width="24" height="22.9027" fill="white" transform="translate(4 5)"/>
</clipPath>
</defs>
</svg>
