<svg width="32" height="32" viewBox="0 0 32 32" fill="none" xmlns="http://www.w3.org/2000/svg">
<path d="M28.8033 23.0982C28.5392 19.9505 27.0951 17.0164 24.7687 14.8861C23.1336 13.3797 21.1275 12.3342 18.9529 11.8621C19.0653 11.7721 19.1777 11.671 19.29 11.5585C20.2509 10.5974 20.5937 9.38326 20.0542 8.84365C19.571 8.36026 18.5371 8.58509 17.638 9.33267C17.4694 8.00052 16.8007 7 15.9972 7C15.1936 7 14.525 7.9949 14.3564 9.33267C13.4517 8.58509 12.429 8.36026 11.9401 8.84365C11.4007 9.38326 11.7435 10.5974 12.7043 11.5585C12.8167 11.6653 12.9291 11.7665 13.0415 11.8621C10.4173 12.441 8.05165 13.8462 6.28161 15.8698C4.51156 17.8877 3.4383 20.4227 3.20791 23.0982L3 25.5714H6.24227L6.42771 23.3737C6.62438 21.0354 7.69764 18.8545 9.42274 17.2694C11.1534 15.6843 13.4124 14.8018 15.7556 14.8018H16.2388C18.5876 14.8018 20.8466 15.6843 22.5716 17.2694C24.2967 18.8545 25.37 21.0354 25.5667 23.3737L25.7521 25.5714H29L28.7921 23.0982H28.8033Z" fill="#E6DAFE"/>
<path d="M12.8336 18.9556C12.193 18.9556 11.6704 19.8831 11.6704 21.0297C11.6704 22.1764 12.193 23.1039 12.8336 23.1039C13.4742 23.1039 13.9968 22.1764 13.9968 21.0297C13.9968 19.8831 13.4742 18.9556 12.8336 18.9556Z" fill="#E6DAFE"/>
<path d="M19.172 18.9556C18.5314 18.9556 18.0089 19.8831 18.0089 21.0297C18.0089 22.1764 18.5314 23.1039 19.172 23.1039C19.8126 23.1039 20.3352 22.1764 20.3352 21.0297C20.3352 19.8831 19.8126 18.9556 19.172 18.9556Z" fill="#E6DAFE"/>
</svg>
