<svg width="32" height="32" viewBox="0 0 32 32" fill="none" xmlns="http://www.w3.org/2000/svg">
<path d="M24.8247 27.7951C25.3369 27.5749 25.7998 27.2545 26.1862 26.8526C26.5727 26.4507 26.8747 25.9755 27.0747 25.4551C27.6972 23.7251 27.4397 21.7976 26.3097 20.8226C25.1797 19.8476 22.4772 18.4126 22.4772 18.4126C22.4772 18.4126 21.7997 19.7101 22.9772 21.5276C24.1022 23.2776 24.7122 24.1851 25.0897 25.1651C25.5747 26.4251 24.8247 27.7951 24.8247 27.7951Z" fill="#E6DAFE"/>
<path d="M27.7253 21.7949C27.7253 21.7949 27.9928 19.9374 25.0678 18.7949C22.8503 17.9249 21.0003 17.1849 20.1003 16.0949C19.8169 15.761 19.6101 15.369 19.4944 14.9467C19.3786 14.5243 19.3568 14.0816 19.4303 13.6499C19.4303 13.6499 20.1453 14.5124 22.9828 14.8099C25.5928 15.0849 27.2328 16.0174 27.9178 17.5174C28.2436 18.1903 28.3965 18.9337 28.3629 19.6805C28.3293 20.4273 28.1102 21.154 27.7253 21.7949Z" fill="#E6DAFE"/>
<path d="M21.1723 17.7976C21.1723 17.7976 21.7848 19.6926 20.6873 20.8151C19.7298 21.7926 18.3123 21.7951 17.1873 22.0126C16.4115 22.163 15.6722 22.4618 15.0098 22.8926C16.0724 22.6173 17.1625 22.4622 18.2598 22.4301C19.7948 22.4301 21.0973 21.8026 21.5748 20.7201C22.3823 18.9076 21.1723 17.7976 21.1723 17.7976Z" fill="#E6DAFE"/>
<path d="M15.725 25.6024C16.6175 25.2199 17.5475 25.6549 18.135 26.4424C18.7225 27.2299 18.965 28.8874 20.235 29.6349C21.505 30.3824 22.8625 29.1924 22.8625 29.1924C22.8625 29.1924 21.5925 29.7299 20.8275 29.3574C20.005 28.9574 19.88 28.2574 19.735 27.0524C19.485 25.0849 18.4525 24.3024 17.545 23.9724C16.2616 23.5557 14.8663 23.6553 13.655 24.2499C12.7926 24.6828 11.9852 25.2174 11.25 25.8424C11.25 25.8424 12.75 26.0924 13.35 26.4499C13.95 26.8074 14.715 28.0224 15.475 28.2599C16.1725 28.4799 16.895 28.3699 17.285 27.8049C17.675 27.2399 17.505 26.2499 16.87 26.0374C16.0925 25.7749 15.5375 26.1449 15.57 26.6249C15.5636 26.7535 15.6071 26.8796 15.6914 26.977C15.7757 27.0743 15.8943 27.1354 16.0225 27.1474C16.0225 27.1474 15.5225 26.8974 15.7325 26.4724C15.9825 26.0049 16.5575 26.0724 16.87 26.2924C17.2525 26.5624 17.31 27.4924 16.6575 27.7574C16.005 28.0224 15.18 27.5899 15.055 27.0724C14.93 26.5549 14.9775 25.9249 15.725 25.6024Z" fill="#E6DAFE"/>
<path d="M13.7972 12.5925L3.17969 0.82251C3.17969 0.82251 12.1972 11.9425 12.5197 12.3225C12.8422 12.7025 13.0197 13.0375 12.7397 13.295C12.5063 13.4877 12.2243 13.6123 11.9247 13.655C11.716 13.7019 11.4982 13.6862 11.2984 13.6097C11.0987 13.5332 10.9261 13.3993 10.8022 13.225C10.3472 12.6775 7.02469 7.42001 7.02469 7.42001C7.02469 7.42001 9.99969 12.805 10.1522 13.1225C10.3047 13.44 10.4022 13.72 10.2522 13.92C10.0065 14.1777 9.79864 14.469 9.63469 14.785C9.46969 15.19 9.33469 16.375 9.19719 16.8875C8.82764 17.9874 8.23147 18.9974 7.44719 19.8525C6.73219 20.6025 6.17969 21.5775 6.39719 22.955C6.60469 24.2725 7.45219 25.3175 7.59469 25.5425C7.74089 25.7437 7.82752 25.9819 7.84469 26.23C7.84469 26.23 9.96969 25.98 11.1822 24.8675C12.2722 23.8675 11.6822 22.7475 11.3622 22.465C11.1347 22.2625 9.67719 21.285 9.53219 20.77C9.38719 20.255 9.15219 19.8925 9.84719 18.5C10.5422 17.1075 10.3647 16.96 10.4572 16.48C10.5497 16 10.5297 15.01 11.0822 14.81C11.6347 14.61 12.3322 14.7025 12.9972 14.31C13.9672 13.72 13.7972 12.5925 13.7972 12.5925ZM7.79719 23.0625C7.75672 23.0629 7.7166 23.055 7.67932 23.0393C7.64205 23.0235 7.60841 23.0002 7.58051 22.9709C7.5526 22.9416 7.53103 22.9069 7.51712 22.8689C7.50322 22.8309 7.49728 22.7904 7.49969 22.75C7.49969 22.5825 7.67469 22.4625 7.64469 22.3575C7.61469 22.2525 7.46219 22.2475 7.42969 22.1075C7.41219 22.0325 7.47719 21.89 7.75219 21.88C7.9098 21.889 8.05784 21.9585 8.16544 22.074C8.27304 22.1896 8.33188 22.3422 8.32969 22.5C8.32524 22.6431 8.26823 22.7796 8.16955 22.8834C8.07086 22.9871 7.93741 23.0509 7.79469 23.0625H7.79719Z" fill="#E6DAFE"/>
<path d="M14.6854 14.8324C14.5042 14.8437 14.3273 14.8924 14.1658 14.9755C14.0044 15.0586 13.862 15.1743 13.7475 15.3153C13.6331 15.4563 13.5492 15.6194 13.501 15.7945C13.4529 15.9696 13.4416 16.1528 13.4679 16.3324C13.5504 16.9674 14.3854 16.9199 14.9029 16.7599C15.4204 16.5999 15.9729 16.5099 15.9254 15.8624C15.8779 15.2149 15.1029 14.8099 14.6854 14.8324ZM14.7029 15.8599C14.3779 15.8599 14.1154 15.6799 14.1154 15.4574C14.1154 15.2349 14.3654 15.0549 14.7029 15.0549C15.0404 15.0549 15.2904 15.2349 15.2904 15.4574C15.2904 15.6799 15.0279 15.8599 14.7029 15.8599Z" fill="#E6DAFE"/>
<path d="M12.6922 8.02246C12.6922 8.02246 13.8597 8.13246 14.4247 9.02246C14.9897 9.91246 14.9247 11.105 15.2322 11.6325C15.3825 11.9211 15.5495 12.2007 15.7322 12.47C15.8197 12.58 15.8872 12.745 15.6772 12.7825C15.1622 12.8775 14.0022 12.4075 13.3672 11.1525C12.4172 9.28496 12.6922 8.02246 12.6922 8.02246Z" fill="#E6DAFE"/>
<path d="M24.5896 7.80249C24.5896 7.80249 24.2596 8.47749 24.5121 9.66499C24.5848 9.99474 24.7598 10.2931 25.0121 10.5175C25.4913 10.989 25.9405 11.4899 26.3571 12.0175L25.1821 11.065C24.9321 10.865 24.7821 10.8725 24.7671 11.085C24.7521 11.2975 24.6621 12.225 24.6296 12.4275C24.5542 12.6904 24.4563 12.9463 24.3371 13.1925C24.3371 13.1925 24.4596 12.615 24.4721 12.4575C24.4996 12.0725 24.4946 10.8975 24.2021 10.525C23.7021 9.88999 22.2021 9.31999 22.2021 9.31999C22.7854 9.40623 23.3535 9.57456 23.8896 9.81999C24.1146 9.92499 24.1646 9.84749 24.1646 9.68999C24.1813 9.27098 24.2248 8.85347 24.2946 8.43999C24.3411 8.20714 24.4422 7.98865 24.5896 7.80249V7.80249Z" fill="#E6DAFE"/>
<path d="M25.1676 12.0975C24.9726 13.2025 24.5951 13.5975 24.4726 13.6925C24.3942 13.7624 24.294 13.8028 24.1891 13.8069C24.0842 13.811 23.9812 13.7785 23.8976 13.715C23.8206 13.6451 23.7697 13.551 23.7534 13.4483C23.737 13.3456 23.7561 13.2404 23.8076 13.15C23.9153 12.9541 23.9913 12.7423 24.0326 12.5225C24.0646 12.0198 24.0276 11.5151 23.9226 11.0225C23.5089 10.7419 23.0664 10.5064 22.6026 10.32C19.8001 9.17501 17.6351 9.89001 17.6351 9.89001C17.6351 9.89001 16.4776 8.49501 15.3426 7.89001C14.544 7.49715 13.6551 7.32455 12.7676 7.39001C12.7676 7.39001 14.3676 7.64001 15.2676 8.36501C16.8826 9.68251 18.5551 12.4275 19.7351 13.0675C22.1526 14.38 24.2651 13.5975 25.5626 14.2475C26.5426 14.7475 26.8126 15.35 26.8126 15.35C26.5664 14.1378 25.9981 13.0142 25.1676 12.0975V12.0975Z" fill="#E6DAFE"/>
</svg>
