<svg width="32" height="32" viewBox="0 0 32 32" fill="none" xmlns="http://www.w3.org/2000/svg">
<path d="M10.9103 9.63075L13.3821 8.79126L14.6752 12.0719L16.4172 22.0717L15.9216 22.2357L11.709 13.0793L10.9103 9.63075Z" fill="#E6DAFE"/>
<path d="M18.9439 8.79443L21.4167 9.63626L20.6211 13.084L16.4163 22.2398L15.9229 22.0678L17.654 12.0736L18.9439 8.79443Z" fill="#E6DAFE"/>
<path d="M25.9178 13.0601L27.4467 15.2622L24.8666 17.56L16.3209 22.3747L16.0181 21.9319L23.0319 14.9175L25.9178 13.0601Z" fill="#E6DAFE"/>
<path d="M3.17101 23.5057L3.16962 20.7848L6.54883 20.5144L16.1713 21.8801L16.1677 22.4241L6.55048 23.7796L3.17101 23.5057Z" fill="#E6DAFE"/>
<path d="M29.1682 20.7999L29.1696 23.5209L25.7904 23.7913L16.1678 22.4256L16.1714 21.8816L25.7887 20.5261L29.1682 20.7999Z" fill="#E6DAFE"/>
<path d="M4.8855 15.2502L6.41238 13.05L9.30012 14.9104L16.3237 21.9347L16.0153 22.3722L7.46768 17.5509L4.8855 15.2502Z" fill="#E6DAFE"/>
<path d="M10.9103 9.63075L13.3821 8.79126L14.6752 12.0719L16.4172 22.0717L15.9216 22.2357L11.709 13.0793L10.9103 9.63075Z" fill="#E6DAFE"/>
</svg>
