<?xml version="1.0" encoding="UTF-8"?>
<!DOCTYPE svg PUBLIC "-//W3C//DTD SVG 1.1//EN" "http://www.w3.org/Graphics/SVG/1.1/DTD/svg11.dtd">
<svg xmlns="http://www.w3.org/2000/svg" version="1.1" width="64px" height="64px" style="shape-rendering:geometricPrecision; text-rendering:geometricPrecision; image-rendering:optimizeQuality; fill-rule:evenodd; clip-rule:evenodd" xmlns:xlink="http://www.w3.org/1999/xlink">
<g><path style="opacity:1" fill="#fcfefd" d="M -0.5,-0.5 C 8.16667,-0.5 16.8333,-0.5 25.5,-0.5C 11.8333,3.16667 3.16667,11.8333 -0.5,25.5C -0.5,16.8333 -0.5,8.16667 -0.5,-0.5 Z"/></g>
<g><path style="opacity:1" fill="#07f48d" d="M 25.5,-0.5 C 29.1667,-0.5 32.8333,-0.5 36.5,-0.5C 50.7226,2.72226 59.7226,11.3889 63.5,25.5C 63.5,29.1667 63.5,32.8333 63.5,36.5C 60.1667,51.1667 51.1667,60.1667 36.5,63.5C 32.8333,63.5 29.1667,63.5 25.5,63.5C 11.3979,59.7313 2.73124,50.7313 -0.5,36.5C -0.5,32.8333 -0.5,29.1667 -0.5,25.5C 3.16667,11.8333 11.8333,3.16667 25.5,-0.5 Z"/></g>
<g><path style="opacity:1" fill="#fafefd" d="M 36.5,-0.5 C 45.5,-0.5 54.5,-0.5 63.5,-0.5C 63.5,8.16667 63.5,16.8333 63.5,25.5C 59.7226,11.3889 50.7226,2.72226 36.5,-0.5 Z"/></g>
<g><path style="opacity:1" fill="#053a1d" d="M 16.5,16.5 C 24.3225,15.3439 32.3225,15.1772 40.5,16C 39.9558,16.7172 39.2891,17.2172 38.5,17.5C 31.3524,16.5084 24.0191,16.175 16.5,16.5 Z"/></g>
<g><path style="opacity:1" fill="#020703" d="M 16.5,16.5 C 24.0191,16.175 31.3524,16.5084 38.5,17.5C 34.1575,22.6759 29.3241,27.3426 24,31.5C 19.9447,27.3897 17.4447,22.3897 16.5,16.5 Z"/></g>
<g><path style="opacity:1" fill="#061008" d="M 44.5,15.5 C 46.5273,15.3379 48.5273,15.5045 50.5,16C 45.5,21 40.5,26 35.5,31C 33.1667,31.6667 30.8333,31.6667 28.5,31C 34.3901,26.2746 39.7234,21.1079 44.5,15.5 Z"/></g>
<g><path style="opacity:1" fill="#030a04" d="M 16.5,34.5 C 21.5111,34.3341 26.5111,34.5007 31.5,35C 26.3333,40.1667 21.1667,45.3333 16,50.5C 15.2185,45.0833 15.3852,39.7499 16.5,34.5 Z"/></g>
<g><path style="opacity:1" fill="#fbfefd" d="M -0.5,36.5 C 2.73124,50.7313 11.3979,59.7313 25.5,63.5C 16.8333,63.5 8.16667,63.5 -0.5,63.5C -0.5,54.5 -0.5,45.5 -0.5,36.5 Z"/></g>
<g><path style="opacity:1" fill="#fbfefd" d="M 63.5,36.5 C 63.5,45.5 63.5,54.5 63.5,63.5C 54.5,63.5 45.5,63.5 36.5,63.5C 51.1667,60.1667 60.1667,51.1667 63.5,36.5 Z"/></g>
</svg>
