<svg width="32" height="32" viewBox="0 0 32 32" fill="none" xmlns="http://www.w3.org/2000/svg">
<path d="M16 4C9.37265 4 4 9.37265 4 16C4 22.6273 9.37265 28 16 28C22.6273 28 28 22.6273 28 16C28 9.37265 22.6273 4 16 4ZM16 27.2606C9.78085 27.2606 4.73937 22.2192 4.73937 16C4.73937 9.78085 9.78085 4.73937 16 4.73937C22.2192 4.73937 27.2606 9.78085 27.2606 16C27.2606 22.2192 22.2192 27.2606 16 27.2606Z" fill="#E6DAFE"/>
<path d="M15.4679 15.0925H20.8941L16 7.2476L10.0413 16.6913H15.4679V15.0925Z" fill="#E6DAFE"/>
<path d="M16.8215 18.3417H11.1767L16 25.1113L21.9591 16.6913H16.8215V18.3417Z" fill="#E6DAFE"/>
</svg>
