<svg width="32" height="32" viewBox="0 0 32 32" fill="none" xmlns="http://www.w3.org/2000/svg">
<path d="M4.62034 22.6993L15.0429 28.7252C15.3598 28.9107 15.718 29 16.0693 29C16.4206 29 16.7788 28.9107 17.0957 28.7252L27.5183 22.6993C28.0074 22.4175 28.2416 21.8404 28.1038 21.2976L23.6675 4.52537C23.4333 3.63214 22.6135 3 21.6836 3H10.4688C9.53885 3 8.72599 3.62526 8.48488 4.52537L4.04169 21.3044C3.89703 21.8473 4.13814 22.4244 4.62034 22.6993ZM14.4918 27.3578L5.60542 22.2252C5.15766 21.9709 4.93722 21.4419 5.07499 20.9471L8.91198 6.45613C8.97398 6.21564 9.18064 6.2019 9.24264 6.2019C9.30464 6.2019 9.5113 6.22252 9.58018 6.45613L15.098 26.8975C15.1669 27.1448 15.0016 27.2891 14.9533 27.3303C14.8982 27.3647 14.7122 27.4884 14.4918 27.3578ZM21.5251 3.90011C21.718 3.90011 21.8971 3.98943 22.0142 4.14059C22.1313 4.29175 22.1727 4.48414 22.1176 4.66966L16.4137 25.8187C16.3517 26.0592 16.1451 26.0729 16.0762 26.0729C16.0142 26.0729 15.8075 26.0523 15.7387 25.8187L10.0348 4.66966C9.98661 4.48414 10.0211 4.29175 10.1382 4.14059C10.2553 3.98943 10.4344 3.90011 10.6273 3.90011H21.5251ZM17.6606 27.3578C17.4402 27.4884 17.2542 27.3647 17.2059 27.3303C17.1577 27.2891 16.9924 27.1448 17.0613 26.8975L22.5791 6.45613C22.6411 6.22252 22.8478 6.2019 22.9166 6.2019C22.9786 6.2019 23.1853 6.22252 23.2473 6.45613L27.0843 20.9471C27.2152 21.4419 26.9947 21.9709 26.5539 22.2252L17.6606 27.3578Z" fill="#E6DAFE"/>
</svg>
