<svg width="32" height="32" viewBox="0 0 32 32" fill="none" xmlns="http://www.w3.org/2000/svg">
<path d="M16.5633 13.5774C18.4111 13.5774 20.0191 14.6212 20.8302 16.1587H25.8516C25.5342 14.8257 24.9348 13.5986 24.1237 12.5477C22.3747 10.2768 19.6453 8.81689 16.5633 8.81689C16.4716 8.81689 16.387 8.81689 16.2953 8.81689C11.1399 8.95795 7 13.1895 7 18.4014C7 23.6133 11.2809 28 16.5633 28C21.0558 28 24.8219 24.8827 25.8375 20.6864H20.8231C20.012 22.2239 18.4111 23.2677 16.5563 23.2677C13.8904 23.2677 11.7323 21.1025 11.7323 18.4225C11.7323 15.7425 13.8904 13.5774 16.5563 13.5774H16.5633ZM16.5633 8.82395C19.6453 8.82395 22.3747 10.2838 24.1237 12.5548C23.2986 13.2318 22.2407 13.6338 21.0911 13.6338C18.4464 13.6338 16.2953 11.4828 16.2953 8.82395C16.387 8.82395 16.4716 8.82395 16.5633 8.82395Z" fill="#E6DAFE"/>
<path d="M24.1237 12.5477C25.2028 11.6661 25.8869 10.3191 25.8869 8.81693C25.8869 6.1581 23.7358 4 21.0911 4C18.4464 4 16.2953 6.15806 16.2953 8.81689C16.387 8.81689 16.4717 8.80282 16.5633 8.80282C19.6453 8.80282 22.3817 10.2698 24.1237 12.5407L24.1237 12.5477Z" fill="#E6DAFE"/>
<path d="M16.5563 8.81687C19.6383 8.81687 22.3676 10.2768 24.1167 12.5477C22.3747 10.2768 19.6383 8.80981 16.5563 8.80981C16.4646 8.80981 16.38 8.82392 16.2883 8.82392C16.38 8.82392 16.4646 8.82392 16.5563 8.82392V8.81687Z" fill="#E6DAFE"/>
</svg>
