<svg width="32" height="32" viewBox="0 0 32 32" fill="none" xmlns="http://www.w3.org/2000/svg">
<g clip-path="url(#clip0_14369_962)">
<path fill-rule="evenodd" clip-rule="evenodd" d="M25.5335 16C25.5335 10.7349 21.2652 6.46668 16.0001 6.46668V3C16.8976 3 17.7738 3.09094 18.6201 3.26411C24.544 4.47632 29.0001 9.71775 29.0001 16C29.0001 23.1797 23.1798 29 16.0001 29C10.3398 29 5.52449 25.3825 3.73987 20.3333H7.5063C9.08424 23.4201 12.2954 25.5333 16.0001 25.5333C21.2652 25.5333 25.5335 21.2651 25.5335 16ZM4.49957 9.93332C6.67921 14.0568 11.0116 16.8667 16.0001 16.8667V13.4C11.7277 13.4 8.11158 10.5894 6.90002 6.71628C5.9434 7.6541 5.13112 8.73856 4.49957 9.93332ZM8.36642 5.47622C9.10813 9.01178 12.2441 11.6667 16.0001 11.6667C18.3934 11.6667 20.3335 13.6068 20.3335 16C20.3335 18.3932 18.3934 20.3333 16.0001 20.3333H9.51363C10.9129 22.4237 13.2958 23.8 16.0001 23.8C20.308 23.8 23.8001 20.3078 23.8001 16C23.8001 11.6922 20.308 8.2 16.0001 8.2C13.6069 8.2 11.6668 6.25991 11.6668 3.86667V3.73973C10.4778 4.15999 9.36813 4.74834 8.36642 5.47622Z" fill="#E6DAFE"/>
</g>
<defs>
<clipPath id="clip0_14369_962">
<rect width="26" height="26" fill="white" transform="translate(3 3)"/>
</clipPath>
</defs>
</svg>
