<svg width="32" height="32" viewBox="0 0 32 32" fill="none" xmlns="http://www.w3.org/2000/svg">
<path d="M17.7809 8.77403H14.7548C14.6958 8.77403 14.6452 8.79935 14.6031 8.84156C14.5609 8.88377 14.5357 8.93442 14.5357 8.99351V12.9273C14.5357 12.9864 14.5609 13.037 14.6031 13.0792C14.6452 13.1214 14.6958 13.1468 14.7548 13.1468H16.7019C17.0475 13.1468 17.3763 13.0117 17.6207 12.7669C17.8652 12.5221 18 12.1844 18 11.8383V9.00195C18 8.94286 17.9747 8.89221 17.9326 8.85C17.8905 8.80779 17.8399 8.78247 17.7809 8.78247V8.77403Z" fill="#E6DAFE"/>
<path d="M24.9541 3.58247C24.5748 3.21104 24.069 3 23.538 3H9.00614C8.4751 3 7.96092 3.21104 7.59004 3.58247C7.21916 3.9539 7 4.46883 7 5.00065V21.0396C7 21.3351 7.06743 21.639 7.19387 21.9091C7.32031 22.1792 7.51418 22.4156 7.75019 22.6013L15.328 28.6708C15.5977 28.8818 15.9265 29 16.2636 29C16.6008 29 16.938 28.8818 17.1993 28.6708L24.7771 22.6013C25.0131 22.4156 25.1985 22.1792 25.3334 21.9091C25.4598 21.639 25.5273 21.3435 25.5273 21.0396V5.00065C25.5273 4.46883 25.3165 3.96234 24.9372 3.58247H24.9541ZM21.6751 18.9123C21.6751 19.174 21.6161 19.4357 21.5066 19.6721C21.397 19.9084 21.2284 20.1195 21.0261 20.2799L18.3456 22.4494C18.3456 22.4494 18.2782 22.4916 18.236 22.5C18.1939 22.5 18.1518 22.5 18.118 22.4831C18.0843 22.4662 18.0506 22.4409 18.0253 22.3987C18 22.3649 17.9916 22.3227 17.9916 22.2805V16.2026C17.9916 15.8565 17.8567 15.5188 17.6123 15.274C17.3678 15.0292 17.0391 14.8942 16.6935 14.8942H14.7464C14.6874 14.8942 14.6368 14.9195 14.5947 14.9617C14.5525 15.0039 14.5272 15.0545 14.5272 15.1136V22.289C14.5272 22.289 14.5188 22.3734 14.4935 22.4071C14.4682 22.4409 14.4429 22.4662 14.4008 22.4916C14.3671 22.5084 14.3249 22.5169 14.2828 22.5084C14.2406 22.5084 14.2069 22.4831 14.1732 22.4578L11.4927 20.2883C11.2904 20.1279 11.1303 19.9169 11.0123 19.6805C10.8943 19.4442 10.8437 19.1825 10.8437 18.9208V8.77403C10.8437 8.30974 11.0291 7.86234 11.3494 7.54156C11.6782 7.21234 12.1165 7.02662 12.5717 7.02662H19.9219C20.3771 7.02662 20.8238 7.21234 21.1441 7.54156C21.4644 7.87078 21.6499 8.31818 21.6499 8.77403V12.2688C21.6499 12.7331 21.4644 13.1721 21.1441 13.5013C20.8238 13.8305 20.3771 14.0162 19.9219 14.0162C20.3771 14.0162 20.8238 14.2019 21.1441 14.5312C21.4728 14.8604 21.6499 15.3078 21.6499 15.7636V18.9123H21.6751Z" fill="#E6DAFE"/>
</svg>
