<svg width="32" height="32" viewBox="0 0 32 32" fill="none" xmlns="http://www.w3.org/2000/svg">
<path d="M6.17989 28H13.0564L13.7875 27.2633H5.44885L6.17989 28Z" fill="#E6DAFE"/>
<path d="M6.8642 22.6485H4V23.5203H6.8642V22.6485Z" fill="#E6DAFE"/>
<path d="M6.8642 16.9211H4V17.752H6.8642V16.9211Z" fill="#E6DAFE"/>
<path d="M15.2372 16.9211H12.373V17.752H15.2372V16.9211Z" fill="#E6DAFE"/>
<path d="M6.8642 21.495H4V22.3668H6.8642V21.495Z" fill="#E6DAFE"/>
<path d="M6.8642 18.0337H4V18.9055H6.8642V18.0337Z" fill="#E6DAFE"/>
<path d="M15.2372 23.802H12.373V24.6738H15.2372V23.802Z" fill="#E6DAFE"/>
<path d="M6.8642 19.1872H4V20.0589H6.8642V19.1872Z" fill="#E6DAFE"/>
<path d="M11.336 25.8281H15.2125L15.2372 25.8032V24.9563H12.2011L11.336 25.8281Z" fill="#E6DAFE"/>
<path d="M6.8642 20.3407H4V21.2124H6.8642V20.3407Z" fill="#E6DAFE"/>
<path d="M15.2372 22.6485H12.373V23.5203H15.2372V22.6485Z" fill="#E6DAFE"/>
<path d="M15.2372 18.0337H12.373V18.9055H15.2372V18.0337Z" fill="#E6DAFE"/>
<path d="M15.2372 20.3407H12.373V21.2124H15.2372V20.3407Z" fill="#E6DAFE"/>
<path d="M5.16931 26.9816H14.067L14.933 26.1098H4.30423L5.16931 26.9816Z" fill="#E6DAFE"/>
<path d="M7.03616 24.9563H4V25.8032L4.02469 25.8281H7.90123L7.03616 24.9563Z" fill="#E6DAFE"/>
<path d="M6.8642 23.802H4V24.6738H6.8642V23.802Z" fill="#E6DAFE"/>
<path d="M15.2372 19.1872H12.373V20.0589H15.2372V19.1872Z" fill="#E6DAFE"/>
<path d="M15.2372 21.495H12.373V22.3668H15.2372V21.495Z" fill="#E6DAFE"/>
<path d="M19.6138 19.1872H16.7989V20.0589H19.6138V19.1872Z" fill="#E6DAFE"/>
<path d="M27.9127 19.1872H24.5053C24.8616 19.332 25.1235 19.6617 25.1746 20.0589H28.0009V19.2751L27.9127 19.1872Z" fill="#E6DAFE"/>
<path d="M27.9153 27.2633H25.1905V28H27.9153V27.2633Z" fill="#E6DAFE"/>
<path d="M19.6587 27.2633H16.7989V28H19.6587V27.2633Z" fill="#E6DAFE"/>
<path d="M19.6587 26.1098H16.7989V26.9816H19.6587V26.1098Z" fill="#E6DAFE"/>
<path d="M26.7681 18.0337H16.7989V18.9055H27.6332L26.7681 18.0337Z" fill="#E6DAFE"/>
<path d="M27.9153 26.1098H25.1905V26.9816H27.9153V26.1098Z" fill="#E6DAFE"/>
<path d="M19.6587 24.9563H16.7989V25.8281H19.6587V24.9563Z" fill="#E6DAFE"/>
<path d="M25.664 16.9211H16.7989V17.752H26.4885L25.664 16.9211Z" fill="#E6DAFE"/>
<path d="M16.7989 22.6485V23.5203H27.9153V23.5016L27.0688 22.6485H16.7989Z" fill="#E6DAFE"/>
<path d="M25.1905 24.2881V24.6746H27.9153V23.802H24.7081L25.1905 24.2881Z" fill="#E6DAFE"/>
<path d="M24.866 20.976C24.7663 21.0765 24.6473 21.1573 24.515 21.2133H28V20.3415H25.1746C25.1437 20.5877 25.0317 20.8081 24.866 20.976Z" fill="#E6DAFE"/>
<path d="M19.6587 23.802H16.7989V24.6738H19.6587V23.802Z" fill="#E6DAFE"/>
<path d="M19.6138 20.3407H16.7989V21.2124H19.6138V20.3407Z" fill="#E6DAFE"/>
<path d="M27.9153 24.9563H25.1905V25.8281H27.9153V24.9563Z" fill="#E6DAFE"/>
<path d="M27.9118 21.495H16.7989V22.3668H27.0467L27.9118 21.495Z" fill="#E6DAFE"/>
<path d="M19.6332 6.21365H16.7989V7.08542H19.6332V6.21365Z" fill="#E6DAFE"/>
<path d="M20.8051 12.8546L19.94 11.9828H16.7989V12.8084L16.8448 12.8546H20.8051Z" fill="#E6DAFE"/>
<path d="M19.6332 7.36802H16.7989V8.23979H19.6332V7.36802Z" fill="#E6DAFE"/>
<path d="M27.9153 15.1624V14.2907H18.269L19.134 15.1624H27.9153Z" fill="#E6DAFE"/>
<path d="M19.6332 5.06017H16.7989V5.93194H19.6332V5.06017Z" fill="#E6DAFE"/>
<path d="M19.6332 8.52149H16.7989V9.39327H19.6332V8.52149Z" fill="#E6DAFE"/>
<path d="M19.6332 9.67497H16.7989V10.5467H19.6332V9.67497Z" fill="#E6DAFE"/>
<path d="M27.9153 13.1363H17.1243L17.9894 14.009H27.9153V13.1363Z" fill="#E6DAFE"/>
<path d="M19.6332 11.6736V10.8293H16.7989V11.7011H19.6605L19.6332 11.6736Z" fill="#E6DAFE"/>
<path d="M19.6332 4H16.7989V4.77846H19.6332V4Z" fill="#E6DAFE"/>
<path d="M15.1755 12.7711V11.9828H12.3757C12.3245 12.1659 12.2284 12.3303 12.0996 12.4609C11.903 12.6591 11.6314 12.7817 11.3316 12.7817H6.84656V11.9828H4V12.8546H15.0926L15.1755 12.7711Z" fill="#E6DAFE"/>
<path d="M15.1755 11.7011V10.8293H12.0044C12.2557 11.0302 12.4171 11.3394 12.4171 11.6869C12.4171 11.6913 12.4171 11.6967 12.4171 11.7011H15.1755Z" fill="#E6DAFE"/>
<path d="M15.0273 8.52149H4V9.39327H14.1623L15.0273 8.52149Z" fill="#E6DAFE"/>
<path d="M12.0996 7.94209C11.9533 8.08961 11.7646 8.19536 11.5538 8.23979H15.2372V7.36802H12.3986C12.358 7.59018 12.2513 7.78924 12.0996 7.94209Z" fill="#E6DAFE"/>
<path d="M11.8633 6.21365C12.1711 6.38871 12.3854 6.71041 12.4127 7.08542H15.2372V6.25186L15.1984 6.21276L11.8633 6.21365Z" fill="#E6DAFE"/>
<path d="M6.84656 7.36802H4V8.23979H6.84656V7.36802Z" fill="#E6DAFE"/>
<path d="M6.84656 10.8293H4V11.7011H6.84656V10.8293Z" fill="#E6DAFE"/>
<path d="M14.2125 9.67497H4V10.5476H15.0776L14.2125 9.67497Z" fill="#E6DAFE"/>
<path d="M6.84656 6.21365H4V7.08542H6.84656V6.21365Z" fill="#E6DAFE"/>
<path d="M13.0018 4L4 4.02577V4.77846H13.7743L13.0018 4Z" fill="#E6DAFE"/>
<path d="M14.8131 13.1363H4V14.009H13.9471L14.8131 13.1363Z" fill="#E6DAFE"/>
<path d="M14.0538 5.06017H4V5.93194H14.9189L14.0538 5.06017Z" fill="#E6DAFE"/>
<path d="M13.6675 14.2907H4V14.9998H12.9638L13.6675 14.2907Z" fill="#E6DAFE"/>
</svg>
