<svg width="32" height="32" viewBox="0 0 32 32" fill="none" xmlns="http://www.w3.org/2000/svg">
<path d="M29.4106 8.01113C29.2238 7.68433 28.8078 7.57663 28.489 7.77264L11.3781 18.3038C10.9419 17.4784 10.6948 16.5352 10.6948 15.5336C10.6948 12.2816 13.2995 9.64515 16.5123 9.64515C17.8921 9.64515 19.1585 10.1326 20.1558 10.9445L16.5157 13.4736L25.9759 7.94555C26.1797 7.82667 26.2495 7.56247 26.1315 7.35678C26.0072 7.13916 25.7266 7.07469 25.5214 7.21704L23.2051 8.82646C21.4981 7.08102 19.1306 6 16.5123 6C11.3104 6 7.09324 10.2682 7.09324 15.5336C7.09324 17.2287 7.53084 18.8203 8.2972 20.1998L3.49976 23.1522L8.42553 20.423C10.0704 23.2043 13.0762 25.0668 16.5127 25.0668C21.7147 25.0668 25.9318 20.7986 25.9318 15.5332V14.3948C25.9318 13.5031 26.2892 12.3621 27.5565 11.6749C27.6649 11.616 27.7043 11.4782 27.6429 11.3697C27.5826 11.2643 27.4494 11.2277 27.3454 11.2889L16.113 17.8529C17.367 17.3133 18.3253 16.9854 19.5958 16.7271C22.2424 16.1891 22.3096 17.4661 21.2877 18.9067C20.6034 19.8711 19.0574 21.4201 16.5142 21.4201C14.4402 21.4201 12.6206 20.322 11.5902 18.669L29.1539 8.93788C29.4815 8.75678 29.597 8.33793 29.4106 8.01076V8.01113Z" fill="#E6DAFE"/>
</svg>
