<svg width="32" height="32" viewBox="0 0 32 32" fill="none" xmlns="http://www.w3.org/2000/svg">
<path d="M5.77705 4C4.79594 4 4 4.79594 4 5.77705V25.9043C4 26.8855 4.79594 27.6814 5.77705 27.6814C6.75817 27.6814 7.55411 26.8855 7.55411 25.9043V5.77705C7.55411 4.79594 6.75817 4 5.77705 4Z" fill="#E6DAFE"/>
<path d="M12.6656 13.1924C12.6656 12.2109 11.87 11.4153 10.8885 11.4153C9.90709 11.4153 9.11147 12.2109 9.11147 13.1924V25.9043C9.11147 26.8858 9.90709 27.6814 10.8885 27.6814C11.87 27.6814 12.6656 26.8858 12.6656 25.9043V13.1924Z" fill="#E6DAFE"/>
<path d="M17.7771 20.0268C17.7771 19.0454 16.9814 18.2498 16 18.2498C15.0186 18.2498 14.2229 19.0454 14.2229 20.0268V25.9043C14.2229 26.8858 15.0186 27.6814 16 27.6814C16.9814 27.6814 17.7771 26.8858 17.7771 25.9043V20.0268Z" fill="#E6DAFE"/>
<path d="M21.1115 11.4153C20.1304 11.4153 19.3344 12.2113 19.3344 13.1924V25.9043C19.3344 26.8855 20.1304 27.6814 21.1115 27.6814C22.0926 27.6814 22.8885 26.8855 22.8885 25.9043V13.1924C22.8885 12.2113 22.0926 11.4153 21.1115 11.4153Z" fill="#E6DAFE"/>
<path d="M28 5.77705C28 4.79561 27.2044 4 26.2229 4C25.2415 4 24.4459 4.79561 24.4459 5.77705V25.9043C24.4459 26.8858 25.2415 27.6814 26.2229 27.6814C27.2044 27.6814 28 26.8858 28 25.9043V5.77705Z" fill="#E6DAFE"/>
</svg>
