<svg width="32" height="32" viewBox="0 0 32 32" fill="none" xmlns="http://www.w3.org/2000/svg">
<path d="M26.7993 12.7527L23.5537 15.9983L26.7993 19.2439L30.045 15.9983L26.7993 12.7527Z" fill="#E6DAFE"/>
<path d="M5.20265 12.7544L1.95703 16L5.20265 19.2456L8.44827 16L5.20265 12.7544Z" fill="#E6DAFE"/>
<path d="M16 23.555L10.62 18.175L7.375 21.42L16 30.045L24.625 21.42L21.38 18.175L16 23.555Z" fill="#E6DAFE"/>
<path d="M16 8.44508L21.38 13.8251L24.625 10.5801L16 1.95508L7.375 10.5801L10.62 13.8251L16 8.44508Z" fill="#E6DAFE"/>
<path d="M15.9979 12.795L12.793 16L15.9979 19.205L19.2029 16L15.9979 12.795Z" fill="#E6DAFE"/>
</svg>
