<svg width="32" height="32" viewBox="0 0 32 32" fill="none" xmlns="http://www.w3.org/2000/svg">
<path d="M15.8773 27.4406C14.1902 27.4406 11.4224 28.8564 11.1581 28.9602C10.8938 29.064 10.8561 28.9461 11.0826 28.7644C11.6984 28.2712 15.4242 25.2722 15.8749 25.258C16.3256 25.2439 20.0514 28.2712 20.6672 28.7644C20.9032 28.9461 20.8489 29.0664 20.5917 28.9602C20.3345 28.854 17.5644 27.4406 15.8773 27.4406ZM15.7664 20.2698C15.4431 15.3548 15.4431 10.4256 15.7664 5.51061C15.7664 5.44454 15.8183 5.39263 15.8843 5.39263C15.9504 5.39263 16.0023 5.44454 16.0023 5.51061C16.3327 10.4256 16.3327 15.3548 16.0023 20.2698C16.0023 20.3359 15.9504 20.3878 15.8843 20.3878C15.8183 20.3878 15.7664 20.3359 15.7664 20.2698ZM21.7479 28.7148C21.6512 28.8116 17.5856 25.5978 17.3591 25.3713C17.0877 25.0999 18.3855 24.3708 18.3855 23.099V3.27843C18.3855 2.84191 18.5743 2.84427 18.6592 3.82822C19.3671 12.2071 21.5167 12.4738 21.5167 13.3326C21.5167 14.0004 20.462 13.7833 20.462 16.1099C20.462 18.6913 20.5375 21.4685 20.5375 24.6658C20.5375 25.7111 21.8588 28.6039 21.7479 28.7148ZM10.0066 28.7148C10.1034 28.8116 14.1689 25.5978 14.3954 25.3713C14.6668 25.0999 13.369 24.3708 13.369 23.099V3.27843C13.369 2.84191 13.1803 2.84427 13.0953 3.82822C12.3804 12.2048 10.2378 12.4714 10.2378 13.3303C10.2378 13.9981 11.2926 13.781 11.2926 16.1075C11.2926 18.6889 11.2171 21.4662 11.2171 24.6634C11.2171 25.7111 9.89571 28.6039 10.0066 28.7148Z" fill="#E6DAFE"/>
</svg>
