<svg width="32" height="32" viewBox="0 0 32 32" fill="none" xmlns="http://www.w3.org/2000/svg">
<path d="M25.6054 4.40946C25.7525 4.55004 25.9526 4.63755 26.1735 4.63755C26.6254 4.63755 26.9927 4.27102 26.9927 3.81913C26.9927 3.36725 26.6254 3 26.1735 3C25.7216 3 25.3544 3.36653 25.3544 3.81913C25.3544 3.87652 25.3601 3.93247 25.3716 3.98626C25.1909 4.03073 23.9026 4.39583 22.5097 6.08933C19.6513 3.82344 16.496 3.98339 16.496 3.98339C16.496 3.98339 13.3407 3.82344 10.4823 6.08933C9.08933 4.39583 7.80109 4.03073 7.62034 3.98626C7.63181 3.93247 7.63755 3.87652 7.63755 3.81913C7.63755 3.36653 7.27102 3 6.81842 3C6.36581 3 6 3.36653 6 3.81913C6 4.27174 6.36653 4.63755 6.81842 4.63755C7.03934 4.63755 7.23946 4.55004 7.3865 4.40946C7.62751 4.59308 8.96739 5.67546 9.27224 7.23196C9.16177 7.35533 9.05275 7.48301 8.94587 7.6157C5.82929 11.4725 7.01782 15.3293 7.01782 15.3293C7.01782 15.3293 6.09827 16.8091 6.63623 18.3785C7.17419 19.9479 8.54204 20.8675 8.54204 20.8675C8.54204 20.8675 8.17982 20.8675 8.02775 20.7814C8.02775 20.7814 8.35268 21.5145 8.91073 22.0352C9.46949 22.5559 11.5582 25.8504 13.2216 27.3201C14.885 28.7898 15.6847 29 16.496 29C17.3072 29 18.107 28.7898 19.7704 27.3201C21.4337 25.8504 23.5225 22.5559 24.0812 22.0352C24.64 21.5145 24.9649 20.7814 24.9649 20.7814C24.8128 20.8675 24.4499 20.8675 24.4499 20.8675C24.4499 20.8675 25.8178 19.9479 26.3557 18.3785C26.8937 16.8091 25.9748 15.3293 25.9748 15.3293C25.9748 15.3293 27.1627 11.4725 24.0461 7.6157C23.9392 7.48301 23.8302 7.35533 23.7197 7.23196C24.0253 5.67546 25.3652 4.59308 25.6054 4.40946ZM25.0603 12.3261C24.9993 13.3504 23.9084 12.7572 23.8703 12.7364C24.1673 13.0972 24.2541 14.4234 24.2541 14.4234C23.3976 13.7901 22.5871 13.8202 22.5871 13.8202C22.5871 13.8202 24.7791 14.9729 24.7791 17.6648C24.7791 20.3568 22.6474 21.5166 22.255 21.7038C22.255 21.7038 22.8367 21.739 23.0526 21.6608C23.0526 21.6608 23.1287 22.7252 20.4245 25.5843C17.7211 28.4434 16.496 28.1672 16.496 28.1672C16.496 28.1672 15.2709 28.4434 12.5674 25.5843C9.86327 22.7252 9.93931 21.6608 9.93931 21.6608C10.1559 21.739 10.7369 21.7038 10.7369 21.7038C10.3446 21.5166 8.21281 20.3575 8.21281 17.6648C8.21281 14.9721 10.4048 13.8202 10.4048 13.8202C10.4048 13.8202 9.59429 13.7901 8.73786 14.4234C8.73786 14.4234 8.82465 13.0972 9.12232 12.7364C9.08431 12.7572 7.99332 13.3504 7.93164 12.3261C7.86995 11.2839 9.69615 4.99261 16.496 4.99261C23.2958 4.99261 25.1227 11.2839 25.0603 12.3261Z" fill="#E6DAFE"/>
<path d="M22.7248 15.6335C22.2012 15.3817 21.5434 15.4183 20.9925 15.556C19.5938 15.9046 18.4204 16.8572 17.8774 18.1999C17.5919 18.9064 17.5496 19.5154 17.5051 20.1523C17.4865 20.4134 17.4807 20.6544 17.4822 20.8703C17.4843 21.2218 17.7655 21.5066 18.117 21.5137C18.5488 21.5216 19.0709 21.4922 19.6498 21.3717C21.2687 21.0367 22.7241 20.1817 23.5009 18.6747C23.6981 18.2924 23.8064 17.8807 23.81 17.4482C23.8158 16.6965 23.4119 15.9634 22.7248 15.6335ZM21.996 19.7134C21.7235 19.8331 21.4416 19.7923 21.367 19.6223C21.2924 19.4516 21.453 19.2163 21.7263 19.0965C21.9989 18.9774 22.2808 19.0183 22.3554 19.1883C22.43 19.359 22.2693 19.5936 21.996 19.7134ZM21.2092 18.7149C20.3298 19.1008 19.4095 18.9409 19.1542 18.3584C18.8988 17.776 19.4045 16.9913 20.2846 16.6054C21.164 16.2195 22.0842 16.3794 22.3396 16.9619C22.5949 17.5443 22.0893 18.329 21.2092 18.7149Z" fill="#E6DAFE"/>
<path d="M20.7566 13.8238C19.3988 13.912 18.0797 16.0667 18.0388 16.1341C20.8778 13.1007 23.4923 15.1715 23.5432 15.2124C23.5009 15.1687 22.1144 13.7363 20.7566 13.8238Z" fill="#E6DAFE"/>
<path d="M19.7302 22.2109C19.0172 22.3508 18.4964 22.7561 18.5674 23.1147C18.6385 23.4734 19.2732 23.6505 19.9862 23.5099C20.6992 23.3694 21.2192 22.9648 21.1482 22.6062C21.0779 22.2468 20.4424 22.0704 19.7302 22.2109Z" fill="#E6DAFE"/>
<path d="M16.6408 22.0768V23.0982L17.2627 23.4131C17.2627 23.4131 17.2936 22.576 16.6408 22.0768Z" fill="#E6DAFE"/>
<path d="M14.6963 24.304C16.6208 26.354 18.4205 24.304 18.4205 24.304C16.5067 25.2493 14.6963 24.304 14.6963 24.304Z" fill="#E6DAFE"/>
<path d="M16.3511 23.0982V22.0768C15.6991 22.576 15.7292 23.4131 15.7292 23.4131L16.3511 23.0982Z" fill="#E6DAFE"/>
<path d="M14.8749 21.5137C15.2271 21.5066 15.5083 21.2218 15.5104 20.8703C15.5112 20.6544 15.5054 20.4134 15.4875 20.1523C15.443 19.5154 15.4 18.9064 15.1145 18.1999C14.5715 16.8572 13.3988 15.9046 11.9994 15.556C11.4492 15.4183 10.7907 15.3817 10.2671 15.6335C9.57996 15.9634 9.17614 16.6965 9.18187 17.4482C9.18546 17.8807 9.29449 18.2924 9.49102 18.6747C10.2678 20.1817 11.7232 21.0367 13.3428 21.3717C13.9217 21.4922 14.4438 21.5216 14.8749 21.5137ZM12.7798 19.8145C12.5065 19.9343 12.2246 19.8934 12.15 19.7234C12.0754 19.5527 12.2361 19.3174 12.5093 19.1984C12.7826 19.0786 13.0645 19.1195 13.1391 19.2895C13.2137 19.4602 13.053 19.6947 12.7798 19.8145ZM12.0732 18.7149C11.1938 19.1008 10.2736 18.9409 10.0182 18.3584C9.76287 17.776 10.2686 16.9913 11.1487 16.6054C12.028 16.2195 12.9483 16.3794 13.2037 16.9619C13.459 17.5443 12.9533 18.329 12.0732 18.7149Z" fill="#E6DAFE"/>
<path d="M13.2624 22.2109C12.5494 22.0704 11.9146 22.2468 11.8436 22.6062C11.7726 22.9648 12.2934 23.3694 13.0056 23.5099C13.7186 23.6505 14.3541 23.4734 14.4244 23.1147C14.4954 22.7561 13.9747 22.3508 13.2624 22.2109Z" fill="#E6DAFE"/>
<path d="M14.9531 16.1341C14.9122 16.0667 13.5931 13.912 12.2353 13.8238C10.8775 13.7363 9.49101 15.1687 9.44869 15.2124C9.49962 15.1715 12.1141 13.1007 14.9531 16.1341Z" fill="#E6DAFE"/>
</svg>
