<svg width="32" height="32" viewBox="0 0 32 32" fill="none" xmlns="http://www.w3.org/2000/svg">
<path d="M11.2502 26.1701H5.00019C4.7688 26.1702 4.54141 26.1096 4.34068 25.9945C4.13994 25.8794 3.97285 25.7137 3.85603 25.514C3.73922 25.3142 3.67675 25.0874 3.67485 24.856C3.67295 24.6246 3.73168 24.3967 3.84519 24.1951L14.8652 4.6476C14.9806 4.4432 15.1483 4.27314 15.351 4.15481C15.5537 4.03648 15.7842 3.97412 16.0189 3.97412C16.2537 3.97412 16.4842 4.03648 16.6869 4.15481C16.8896 4.27314 17.0573 4.4432 17.1727 4.6476L20.4752 10.4776C20.592 10.6793 20.6534 10.9083 20.6534 11.1413C20.6534 11.3744 20.592 11.6034 20.4752 11.8051L12.3977 25.5176C12.2803 25.7173 12.1126 25.8827 11.9112 25.9973C11.7098 26.1118 11.4819 26.1714 11.2502 26.1701V26.1701Z" fill="#E6DAFE"/>
<path d="M18.3697 24.1899L22.0822 17.5674C22.1979 17.3631 22.3658 17.1931 22.5688 17.0748C22.7717 16.9566 23.0023 16.8943 23.2372 16.8943C23.472 16.8943 23.7027 16.9566 23.9056 17.0748C24.1085 17.1931 24.2764 17.3631 24.3922 17.5674L28.1422 24.1874C28.2566 24.3892 28.3162 24.6174 28.315 24.8494C28.3138 25.0814 28.2518 25.309 28.1352 25.5096C28.0186 25.7101 27.8515 25.8766 27.6505 25.9925C27.4495 26.1084 27.2217 26.1695 26.9897 26.1699H19.5272C19.2951 26.1701 19.0671 26.1096 18.8657 25.9942C18.6644 25.8788 18.4968 25.7127 18.3797 25.5124C18.2626 25.312 18.2 25.0845 18.1983 24.8525C18.1965 24.6204 18.2556 24.392 18.3697 24.1899V24.1899Z" fill="#E6DAFE"/>
</svg>
