<svg width="32" height="32" viewBox="0 0 32 32" fill="none" xmlns="http://www.w3.org/2000/svg">
<g clip-path="url(#clip0_12259_136)">
<path d="M16.0017 3C8.81954 3 3 8.81954 3 16.0017C3 23.1838 8.81954 29.0034 16.0017 29.0034C23.1838 29.0034 29.0034 23.1838 29.0034 16.0017C29.0034 8.81954 23.1805 3 16.0017 3ZM7.51065 24.147L6.76894 23.2946L6.77901 23.2845C5.94669 22.234 5.30902 21.0661 4.87944 19.8042C4.45992 18.5792 4.24848 17.3005 4.24848 16.0017C4.24848 13.649 4.93985 11.3803 6.24539 9.43707L6.56086 8.97057L7.49722 9.60152L7.18175 10.068C6.00039 11.8233 5.37615 13.8739 5.37615 16.0017C5.37615 17.2569 5.59429 18.4852 6.02388 19.6565C6.46689 20.8681 7.12469 21.9823 7.98051 22.9657H7.98386C7.98386 22.9657 7.98386 22.9724 7.98722 22.9757L8.3564 23.4053L7.50729 24.147H7.51065ZM8.58461 8.35975L7.84962 7.51401L8.27585 7.14147C8.27585 7.14147 8.2792 7.14147 8.28256 7.13812L8.69872 6.7723L8.70543 6.78237C9.75591 5.95005 10.9272 5.30902 12.1857 4.87944C13.4107 4.45992 14.6928 4.24848 15.9883 4.24848H15.9916C18.3409 4.24848 20.6097 4.93985 22.5495 6.24203L23.016 6.55751L22.3884 7.49387L21.9185 7.17839C20.1666 6.00039 18.116 5.37615 15.9916 5.37615C14.7364 5.37615 13.5081 5.59429 12.3368 6.02388C11.1252 6.46689 10.011 7.12805 9.02762 7.98051L9.02091 7.98722C9.02091 7.98722 9.01756 7.98722 9.01756 7.99058H9.01084L8.58797 8.36311L8.58126 8.3564L8.58461 8.35975ZM15.9983 20.123L21.0862 17.1193L15.9983 24.2846L10.9138 17.1193L15.9983 20.123ZM10.9138 16.1527L15.9983 7.71537L21.0829 16.1527L15.9983 19.1598L10.9138 16.1527ZM24.1336 24.5028L23.2912 25.2378L23.2811 25.2277C22.2307 26.0567 21.0627 26.6943 19.8042 27.1239C18.5792 27.5401 17.3039 27.7549 16.0084 27.7549C13.6524 27.7549 11.3803 27.0635 9.43707 25.7513L8.97057 25.4358L9.60152 24.5028L10.068 24.8183C11.8233 25.9996 13.8772 26.6272 16.0084 26.6272C17.2502 26.6272 18.4651 26.4158 19.6263 25.9929C20.8278 25.56 21.932 24.9122 22.912 24.0765L23.4053 23.647L24.147 24.4961L24.137 24.5028H24.1336ZM25.4324 23.0395H25.4224L24.4961 22.4085L24.8115 21.942C25.9963 20.1834 26.6272 18.1295 26.6272 15.995C26.6272 14.7498 26.4124 13.5282 25.9895 12.3603C25.5532 11.1554 24.8988 10.0479 24.0564 9.0679L24.0027 9.00749L23.6369 8.58797L24.486 7.84626L25.2277 8.69537L25.221 8.70543C26.0533 9.75591 26.6943 10.9272 27.1273 12.1891C27.5468 13.4175 27.7616 14.6961 27.7616 15.9983C27.7616 18.3577 27.0669 20.6298 25.7546 22.5764L25.4391 23.0429L25.4324 23.0395Z" fill="#E6DAFE"/>
</g>
<defs>
<clipPath id="clip0_12259_136">
<rect width="26" height="26" fill="white" transform="translate(3 3)"/>
</clipPath>
</defs>
</svg>
