<svg width="32" height="32" viewBox="0 0 32 32" fill="none" xmlns="http://www.w3.org/2000/svg">
<path d="M24.6821 3.29749C24.2871 3.09999 21.7821 1.93749 19.3946 3.91999C17.1121 5.81499 16.3071 9.14249 15.7696 11.38C15.7371 11.51 15.7021 11.6675 15.6596 11.845L10.0346 11.0825L9.70214 12.62L15.3096 13.37C15.1121 14.24 14.8771 15.28 14.6246 16.3875L9.26213 15.67L8.92713 17.205L14.2746 17.93C13.5471 21.1075 12.7496 24.4425 12.3296 25.7625C11.9996 26.8075 10.9671 28.45 9.99963 28.3825C8.41463 28.27 8.55713 27.1325 7.93213 26.725C7.30713 26.3175 6.64463 26.7825 6.50463 27.405C6.36463 28.0275 7.43463 28.9725 8.25463 29.1175C9.82713 29.4025 11.2996 29.15 12.9696 27.675C14.4246 26.3875 15.6696 22.5 16.2921 20.115C16.4221 19.615 16.5721 18.98 16.7296 18.2625L22.2621 19.0125L22.5971 17.4775L17.0546 16.7275C17.2621 15.7275 17.4746 14.675 17.6671 13.7L22.7496 14.3875L23.0821 12.85L17.9746 12.16C18.1321 11.375 18.2646 10.7175 18.3596 10.29C19.2246 6.39749 20.4846 3.69249 21.8596 3.70249C22.9171 3.70249 23.1321 4.33499 23.6421 4.95249C24.2196 5.65999 24.9646 5.77499 25.3496 5.14249C25.8171 4.38999 25.0796 3.49999 24.6821 3.29749Z" fill="#E6DAFE"/>
</svg>
