<svg width="32" height="32" viewBox="0 0 32 32" fill="none" xmlns="http://www.w3.org/2000/svg">
<path d="M25.443 16.0664L7.07079 14.3945C4.40495 14.1522 2.9436 17.4216 4.90235 19.246L10.3838 24.3508C10.9039 24.8346 11.5874 25.1042 12.2981 25.1042H22.5866C23.4652 25.1042 24.2939 24.693 24.8249 23.9923L27.4263 20.5594C28.7578 18.8022 27.6378 16.2661 25.443 16.0664ZM25.8369 19.3314L23.2428 22.7533C23.0821 22.9657 22.8316 23.09 22.5648 23.09H12.269C12.0539 23.09 11.847 23.0083 11.689 22.8622L6.2203 17.7683C5.62759 17.2156 6.06962 16.2253 6.87654 16.2988L25.2351 17.9698C25.9005 18.0307 26.239 18.7985 25.836 19.3304L25.8369 19.3314Z" fill="#E6DAFE"/>
<path d="M10.9956 13.495L21.7261 14.4671C23.0731 14.5887 24.2694 13.6094 24.4146 12.2642C24.549 11.0225 23.7393 9.87519 22.5239 9.58564L12.0085 7.08046C10.303 6.67383 8.62745 7.8538 8.43502 9.59654L8.36059 10.2728C8.18178 11.8948 9.36993 13.3479 10.9956 13.4959V13.495ZM10.2958 10.4861L10.3693 9.82255C10.4346 9.23074 11.0037 8.82955 11.5837 8.96752L22.1445 11.4845C22.4114 11.548 22.5893 11.8004 22.5593 12.0727C22.5276 12.3686 22.2643 12.5837 21.9684 12.5565L11.1916 11.5807C10.6398 11.5308 10.2358 11.037 10.2967 10.4861H10.2958Z" fill="#E6DAFE"/>
</svg>
