<svg width="32" height="32" viewBox="0 0 32 32" fill="none" xmlns="http://www.w3.org/2000/svg">
<g clip-path="url(#clip0_14350_3154)">
<path fill-rule="evenodd" clip-rule="evenodd" d="M15.9858 3.11182H15.9859C23.1155 3.11182 28.8953 8.89156 28.8953 16.0212V16.0213C28.8953 23.1509 23.1155 28.9307 15.9859 28.9307H15.9858C8.85616 28.9307 3.07642 23.1509 3.07642 16.0213V16.0212C3.07642 8.89156 8.85616 3.11182 15.9858 3.11182ZM23.3779 16.0488H26.0861C26.0852 16.1175 26.0837 16.1861 26.0815 16.2544H23.968L26.0594 16.6704C26.0418 16.9094 26.016 17.146 25.9822 17.3801L23.9996 16.9858L25.9164 17.7797C25.8702 18.0289 25.8148 18.275 25.7508 18.5175L23.875 17.7405L25.6362 18.9174C25.5569 19.1745 25.4674 19.4273 25.3686 19.6753L23.5863 18.4844L25.1923 20.0904C25.0746 20.3513 24.9461 20.6063 24.8075 20.8549L23.1345 19.1818L24.547 21.2959C24.3856 21.5538 24.213 21.804 24.0299 22.0457L22.5272 19.7968L23.6527 22.5141C23.4434 22.7589 23.2226 22.9937 22.9912 23.2176L21.843 20.4457C21.9173 20.3489 21.9892 20.2502 22.0587 20.1497L22.0587 20.1497C22.1362 20.0376 22.2108 19.9234 22.2822 19.807L22.2822 19.807C22.4378 19.5535 22.5786 19.29 22.7035 19.0177L22.7034 19.0177C22.7525 18.9106 22.7992 18.8022 22.8432 18.6925L22.8433 18.6925C22.9579 18.4074 23.0553 18.1136 23.1344 17.8124L23.1343 17.8123C23.1601 17.7141 23.184 17.615 23.2058 17.5153L23.2059 17.5153C23.2736 17.2057 23.3221 16.8889 23.35 16.5663L23.3499 16.5663C23.3575 16.4788 23.3635 16.3908 23.3681 16.3024L23.3681 16.3024C23.3724 16.2182 23.3753 16.1337 23.3768 16.0488H23.3779V16.0488ZM23.3776 15.9875L23.3779 16.0488H23.378L23.3777 15.9824L23.378 15.9158H26.0861L26.0867 15.9823L26.0861 16.0488H26.0869L26.0867 15.9823L26.0869 15.9158H26.0861C26.0852 15.8471 26.0837 15.7786 26.0815 15.7102H23.968L26.0594 15.2942C26.0418 15.0553 26.016 14.8186 25.9822 14.5845L23.9996 14.9789L25.9164 14.1849C25.8702 13.9357 25.8148 13.6896 25.7508 13.4472L23.875 14.2241L25.6362 13.0473C25.5569 12.7901 25.4674 12.5373 25.3686 12.2894L23.5863 13.4803L25.1923 11.8742C25.0746 11.6133 24.9461 11.3583 24.8075 11.1097L23.1345 12.7828L24.547 10.6688C24.3856 10.4108 24.213 10.1607 24.0299 9.91893L22.5272 12.1678L23.6527 9.45056C23.4434 9.20571 23.2226 8.97091 22.9912 8.74702L21.843 11.5189L21.817 11.4852L22.4574 8.26576C22.1981 8.04799 21.9277 7.84296 21.6473 7.6516L21.0526 10.6414C21.008 10.5991 20.9629 10.5574 20.9172 10.5162V7.19738C20.6107 7.02424 20.2943 6.86655 19.969 6.72539V9.78904C19.868 9.7237 19.7653 9.66073 19.661 9.60022L19.0182 6.36844C18.6738 6.25861 18.3215 6.16663 17.9623 6.09362L18.5554 9.07543C18.4416 9.03254 18.3265 8.99235 18.2102 8.95495L17.6309 11.6229C17.6034 11.6124 17.5759 11.6021 17.5482 11.592L17.22 13.6071L17.1452 11.4657C17.2641 11.4972 17.3812 11.5332 17.4962 11.5735L17.5451 8.77494C17.7095 8.81132 17.8718 8.85312 18.0319 8.90016L16.8003 5.92683C16.5128 5.90239 16.2218 5.88991 15.928 5.88991C15.8473 5.88991 15.7668 5.89084 15.6865 5.89272L16.8299 8.65295L16.8247 8.65233L16.777 11.3837C16.7331 11.3758 16.689 11.3685 16.6446 11.3617L16.7176 13.4508L16.215 11.3165C16.3301 11.3234 16.4441 11.3344 16.5569 11.3493L16.0597 8.6001L16.0978 8.60086L14.3661 6.00922C13.9903 6.06723 13.6213 6.14581 13.2603 6.24379L14.8826 8.67173C15.0414 8.64943 15.2018 8.63214 15.3636 8.62001L15.8498 11.3086C15.7894 11.3096 15.7294 11.3117 15.6696 11.3149L16.1614 13.4036L15.2297 11.3591C15.3344 11.3436 15.4403 11.3315 15.5472 11.323L14.526 8.73066C14.3514 8.76392 14.179 8.80326 14.0089 8.84846L11.8862 6.72574C11.5356 6.87795 11.1953 7.04933 10.8666 7.23859L12.8779 9.24993C12.9189 9.23152 12.96 9.21348 13.0014 9.19579C12.8133 9.27626 12.6291 9.36423 12.4493 9.45935L13.9235 11.7513C13.8417 11.7895 13.7611 11.8301 13.6819 11.8727L14.989 13.6884L13.2932 12.107C13.3674 12.0573 13.4432 12.0096 13.5203 11.9641L11.6051 9.9808C11.4446 10.0953 11.289 10.216 11.1384 10.3425L13.0274 12.2986C12.9447 12.3626 12.8643 12.4293 12.7861 12.4985L14.4309 14.0322L12.4623 12.814C12.5171 12.7553 12.5735 12.6979 12.6312 12.6421L10.3781 11.079C10.2546 11.2168 10.1362 11.3592 10.0231 11.5059L12.2534 13.0531C12.1788 13.1445 12.1075 13.2388 12.0397 13.3357L13.9328 14.5072L11.8029 13.7108C11.8379 13.6492 11.8742 13.5885 11.9119 13.5286L9.40892 12.4403C9.32496 12.5916 9.24614 12.7462 9.17264 12.9038L11.6589 13.9848C11.6019 14.1024 11.5496 14.2228 11.5023 14.3456L13.5252 15.1019L11.3672 14.7505C11.3838 14.6921 11.4015 14.6341 11.4203 14.5767L8.76351 13.9998C8.71927 14.1549 8.67992 14.3119 8.64562 14.4709L11.2935 15.0458C11.2635 15.1851 11.2396 15.3267 11.2221 15.4702L13.2358 15.7982L11.1906 15.8696C11.1924 15.8198 11.1951 15.7701 11.1984 15.7207L8.4875 15.6734C8.4835 15.7539 8.48079 15.8347 8.47937 15.9158H8.4793C8.4821 15.7557 8.48996 15.5968 8.5027 15.4394H5.78707C5.77772 15.5972 5.77199 15.7561 5.76994 15.9158H5.76909L5.7693 15.9823L5.76909 16.0488H5.76994C5.77199 16.2086 5.77772 16.3674 5.78707 16.5253H8.5027C8.48996 16.3678 8.4821 16.2089 8.4793 16.0488H8.47937C8.48079 16.1299 8.4835 16.2107 8.4875 16.2912L11.1984 16.2439C11.1951 16.1944 11.1924 16.1448 11.1906 16.095L13.2358 16.1664L11.2221 16.4943C11.2396 16.6379 11.2635 16.7795 11.2935 16.9188L8.64562 17.4937C8.67992 17.6527 8.71927 17.8097 8.76351 17.9648L11.4203 17.3879C11.4015 17.3304 11.3838 17.2725 11.3672 17.2141L13.5252 16.8626L11.5023 17.6189C11.5496 17.7418 11.6019 17.8621 11.6589 17.9798L9.17264 19.0608C9.24614 19.2184 9.32496 19.373 9.4089 19.5243L11.9119 18.436C11.8742 18.3761 11.8379 18.3154 11.8029 18.2537L13.9328 17.4574L12.0397 18.6288C12.1075 18.7258 12.1788 18.82 12.2534 18.9115L10.0231 20.4587C10.1362 20.6054 10.2546 20.7478 10.3781 20.8856L12.6312 19.3225C12.5735 19.2667 12.5171 19.2093 12.4623 19.1506L14.4309 17.9323L12.7861 19.4661C12.8643 19.5353 12.9447 19.602 13.0274 19.666L11.1384 21.6221C11.289 21.7486 11.4446 21.8693 11.6051 21.9838L13.5203 20.0005C13.4431 19.955 13.3674 19.9073 13.2932 19.8576L14.989 18.2762L13.6819 20.0918C13.7611 20.1345 13.8417 20.175 13.9236 20.2133L12.4493 22.5053C12.6332 22.6026 12.8217 22.6924 13.0144 22.7744L14.5144 20.4423C14.4204 20.4129 14.3276 20.3808 14.2362 20.3458L15.5758 18.485L14.6638 20.4862C14.7362 20.5062 14.8093 20.5245 14.8831 20.5411L13.8825 23.0813C14.0933 23.1414 14.308 23.1924 14.526 23.2339L15.5472 20.6416C15.4341 20.6326 15.3221 20.6196 15.2114 20.6028L15.2297 20.6055L16.1614 18.561L15.6696 20.6497C15.7294 20.6529 15.7895 20.655 15.8498 20.656L15.3636 23.3446C15.2018 23.3325 15.0414 23.3152 14.8826 23.2929L13.2603 25.7209C13.6213 25.8188 13.9903 25.8974 14.3661 25.9553L16.0978 23.3638C16.0414 23.365 15.9848 23.3657 15.9281 23.3657C15.9721 23.3657 16.016 23.3653 16.0597 23.3645L16.5569 20.6153C16.4441 20.6302 16.3301 20.6412 16.215 20.6481L16.7176 18.5137L16.6446 20.6028C16.689 20.5961 16.7331 20.5888 16.777 20.5808L16.8247 23.3123L16.8299 23.3116L15.6865 26.0719C15.7668 26.0738 15.8473 26.0747 15.928 26.0747C16.2218 26.0747 16.5128 26.0623 16.8003 26.0378L18.0319 23.0645C17.8718 23.1115 17.7095 23.1533 17.5451 23.1897L17.4962 20.3911C17.3812 20.4314 17.2641 20.4674 17.1452 20.4989L17.22 18.3574L17.5482 20.3726C17.5759 20.3625 17.6034 20.3522 17.6309 20.3416L18.2102 23.0097C18.3265 22.9722 18.4416 22.9321 18.5554 22.8892L17.9623 25.871C18.3215 25.798 18.6738 25.7061 19.0182 25.5963L19.6611 22.3644C19.7653 22.3039 19.868 22.2409 19.9691 22.1756V25.2392C20.2943 25.0982 20.6107 24.9404 20.9172 24.7673V21.4484C20.9629 21.4073 21.008 21.3655 21.0526 21.3232L21.6473 24.313C21.9277 24.1217 22.1981 23.9166 22.4574 23.6989L21.817 20.4794L21.843 20.4457L21.843 20.4457C21.9172 20.3489 21.9892 20.2502 22.0587 20.1497L20.55 18.6928L22.2822 19.807C22.4377 19.5535 22.5786 19.29 22.7034 19.0177L21.1783 18.0366L22.8432 18.6925C22.9578 18.4074 23.0553 18.1136 23.1343 17.8123L21.6794 17.2392L23.2058 17.5153C23.2735 17.2057 23.322 16.8889 23.3499 16.5663L22.0205 16.3259L23.3681 16.3024C23.3724 16.2182 23.3753 16.1337 23.3767 16.0488H23.3768L23.3776 15.9875ZM23.3776 15.9823L23.3767 16.0488H20.6689C20.6689 16.0266 20.6688 16.0044 20.6685 15.9823C20.6688 15.9602 20.6689 15.938 20.6689 15.9158H23.3767L23.3776 15.9823ZM23.3777 15.9783L23.3776 15.9823L23.3776 15.9875L23.3777 15.9824L23.3777 15.9783ZM23.3768 15.9158H23.3767C23.3753 15.8309 23.3724 15.7464 23.3681 15.6622L23.3681 15.6622C23.3724 15.7464 23.3753 15.8309 23.3768 15.9158ZM23.3499 15.3983C23.3575 15.4859 23.3635 15.5738 23.3681 15.6622L22.0205 15.6387L23.3499 15.3983ZM23.2058 14.4493L23.2059 14.4493C23.2736 14.7589 23.3221 15.0757 23.35 15.3983L23.3499 15.3983C23.322 15.0757 23.2735 14.7589 23.2058 14.4493ZM23.1343 14.1523C23.1601 14.2505 23.184 14.3496 23.2058 14.4493L21.6794 14.7254L23.1343 14.1523ZM22.8432 13.2721L22.8433 13.2721C22.9579 13.5572 23.0553 13.851 23.1344 14.1522L23.1343 14.1523C23.0553 13.851 22.9578 13.5572 22.8432 13.2721ZM22.7034 12.947C22.7525 13.054 22.7991 13.1624 22.8432 13.2721L21.1783 13.928L22.7034 12.947ZM22.2822 12.1576L22.2822 12.1576C22.4378 12.4111 22.5786 12.6746 22.7035 12.9469L22.7034 12.947C22.5785 12.6746 22.4377 12.4111 22.2822 12.1576ZM22.0587 11.8149C22.1362 11.927 22.2107 12.0412 22.2822 12.1576L20.55 13.2718L22.0587 11.8149ZM22.0587 11.8149L22.0587 11.8149C21.9892 11.7144 21.9173 11.6157 21.843 11.5189L21.843 11.5189C21.9172 11.6158 21.9891 11.7144 22.0587 11.8149ZM23.3768 15.9158L23.3777 15.9783L23.3779 15.9158H23.3768ZM20.6684 15.9843L20.6685 15.9823L20.6684 15.9803L20.6689 15.929L20.6674 15.9289C20.6368 14.6934 20.1334 13.5752 19.3314 12.7484L19.3314 12.7484L18.2345 14.521L19.603 13.0535C19.6802 13.1482 19.7539 13.2459 19.8238 13.3464L18.3802 14.8944L20.0448 13.6961C20.0995 13.7915 20.1509 13.889 20.199 13.9884L18.4306 15.2615L20.3665 14.3792C20.4011 14.4709 20.4328 14.564 20.4617 14.6584L18.3946 15.6004L20.5714 15.0878C20.5888 15.1724 20.604 15.2577 20.6168 15.3439L18.3246 15.8836L18.3649 15.8901L20.663 15.8099C20.6649 15.8494 20.6664 15.8891 20.6674 15.9289L20.2907 15.9158H17.9598C17.9598 15.938 17.9595 15.9602 17.9587 15.9823C17.9237 14.8909 17.0279 14.017 15.928 14.017C14.8282 14.017 13.9324 14.8909 13.8973 15.9823C13.8966 15.9602 13.8962 15.938 13.8962 15.9158H11.1891L11.1906 15.8696L11.1905 15.8696L11.189 15.9158H11.1873C11.1873 15.9372 11.1874 15.9586 11.1877 15.9799L11.1876 15.9825C11.1873 15.9603 11.1872 15.9381 11.1872 15.9158H8.47937L8.47849 15.9823L8.47846 15.9783L8.4793 15.9158H8.4782L8.47825 15.9427L8.47813 15.9158H5.76994L5.7693 15.9823L5.76994 16.0488H8.47813L8.47842 15.9823L8.47846 15.9863L8.4782 16.0488H8.4793L8.47846 15.9863L8.47849 15.9823L8.47937 16.0488H11.1873V16.0488H11.189L11.1905 16.095L11.1906 16.095L11.1891 16.0488H13.8962C13.8962 16.0265 13.8966 16.0044 13.8973 15.9823C13.9324 17.0736 14.8282 17.9476 15.928 17.9476C17.0279 17.9476 17.9237 17.0736 17.9587 15.9823C17.9595 16.0044 17.9598 16.0265 17.9598 16.0488H20.2907L20.6674 16.0356C20.6664 16.0754 20.6649 16.1151 20.663 16.1547L18.3649 16.0744L18.3246 16.081L20.6168 16.6207C20.604 16.7068 20.5888 16.7922 20.5714 16.8767L18.3946 16.3642L20.4617 17.3062C20.4328 17.4005 20.4011 17.4936 20.3665 17.5854L18.4306 16.7031L20.199 17.9761C20.1509 18.0756 20.0995 18.1731 20.0448 18.2685L18.3802 17.0702L19.8238 18.6182C19.7539 18.7187 19.6802 18.8164 19.603 18.9111L18.2345 17.4436L19.3314 19.2162C19.2378 19.3127 19.1401 19.4053 19.0386 19.4936L17.9899 17.799L18.7188 19.7486C18.6004 19.8349 18.4779 19.9159 18.3516 19.9912L17.6489 18.1118L17.9869 20.1874C17.915 20.2221 17.8421 20.2551 17.7682 20.2863C17.9629 20.2042 18.1509 20.1095 18.3313 20.0032L18.9251 22.7383C19.1127 22.6558 19.2962 22.5657 19.4753 22.4686L19.4753 22.4686C19.5378 22.4347 19.5997 22.4 19.6611 22.3644L19.6611 22.3643C19.5997 22.3999 19.5378 22.4347 19.4753 22.4686L18.3885 19.969C19.7238 19.1567 20.6261 17.703 20.6674 16.0356L20.6689 16.0356L20.6684 15.9843ZM20.6684 15.9823L20.6684 15.9843L20.6682 15.9987L20.6684 15.9823ZM20.6684 15.9823L20.6684 15.9803L20.6674 15.9289L20.6674 15.9289L20.6684 15.9823ZM20.6674 16.0356L20.6677 16.0214L20.6674 16.0356L20.6674 16.0356ZM11.1877 15.9823C11.188 16.0045 11.1885 16.0267 11.1891 16.0488H11.189C11.1884 16.0275 11.188 16.0062 11.1877 15.9849L11.1877 15.9823ZM11.1877 15.9823C11.188 15.9601 11.1885 15.9379 11.1891 15.9158H11.189C11.1884 15.9371 11.188 15.9585 11.1877 15.9799L11.1877 15.9823ZM11.1877 15.9849C11.1874 16.0061 11.1873 16.0274 11.1873 16.0488H11.1872C11.1872 16.0266 11.1873 16.0045 11.1876 15.9825L11.1877 15.9849ZM8.47842 15.9823L8.47846 15.9783L8.47831 15.9555L8.47842 15.9823ZM21.5278 20.8296C21.6276 20.7159 21.7241 20.5991 21.817 20.4794L21.817 20.4794C21.7241 20.5991 21.6277 20.7159 21.5278 20.8296L21.5278 20.8296ZM21.2058 21.1737L21.2059 21.1737C21.1555 21.2243 21.1044 21.2741 21.0526 21.3232L21.0526 21.3232C21.1044 21.2741 21.1555 21.2242 21.2058 21.1737ZM21.2058 21.1737C21.3167 21.0624 21.4241 20.9476 21.5278 20.8296L19.8292 19.1893L21.2058 21.1737ZM20.588 21.7287C20.7004 21.6384 20.8102 21.5449 20.9172 21.4484V21.4484C20.8102 21.545 20.7005 21.6384 20.588 21.7287L20.588 21.7287ZM20.1553 22.051L20.1553 22.0511C20.0939 22.0935 20.0318 22.135 19.9691 22.1756V22.1755C20.0318 22.1349 20.0939 22.0934 20.1553 22.051ZM20.1553 22.051C20.3035 21.9487 20.4478 21.8412 20.588 21.7287L19.0532 19.5163L20.1553 22.051ZM14.2362 20.3458L14.2362 20.3458C14.1301 20.3053 14.0258 20.2611 13.9236 20.2133L13.9236 20.2132C14.0259 20.261 14.1301 20.3053 14.2362 20.3458ZM13.2932 19.8576L13.2932 19.8576C13.2023 19.7967 13.1136 19.7328 13.0274 19.666L13.0274 19.6659C13.1137 19.7328 13.2023 19.7967 13.2932 19.8576ZM12.4623 19.1506L12.4622 19.1506C12.39 19.0733 12.3204 18.9935 12.2534 18.9115L12.2534 18.9114C12.3204 18.9935 12.3901 19.0732 12.4623 19.1506ZM11.8029 18.2537L11.8028 18.2538C11.752 18.1642 11.7039 18.0729 11.6589 17.9798L11.6589 17.9798C11.704 18.0728 11.752 18.1642 11.8029 18.2537ZM11.3672 17.2141L11.3671 17.2141C11.3395 17.1169 11.3149 17.0184 11.2935 16.9188L11.2935 16.9188C11.315 17.0184 11.3396 17.1169 11.3672 17.2141ZM11.2935 15.0458L11.2935 15.0458C11.315 14.9462 11.3396 14.8477 11.3672 14.7505L11.3671 14.7505C11.3395 14.8477 11.3149 14.9462 11.2935 15.0458ZM11.6589 13.9848L11.6589 13.9848C11.704 13.8918 11.752 13.8004 11.8029 13.7108L11.8028 13.7108C11.752 13.8004 11.7039 13.8917 11.6589 13.9848ZM12.2534 13.0531L12.2534 13.0532C12.3204 12.9711 12.3901 12.8914 12.4623 12.814L12.4622 12.814C12.39 12.8913 12.3204 12.9711 12.2534 13.0531ZM13.0274 12.2986L13.0274 12.2987C13.1137 12.2318 13.2023 12.1679 13.2932 12.107L13.2932 12.107C13.2023 12.1678 13.1136 12.2318 13.0274 12.2986ZM14.2362 11.6188C14.1301 11.6593 14.0259 11.7036 13.9236 11.7514L13.9235 11.7513C14.0258 11.7035 14.1301 11.6593 14.2362 11.6187L14.2362 11.6188ZM13.8825 8.88329C13.5851 8.96802 13.2953 9.07076 13.0144 9.19025L14.5144 11.5223C14.4204 11.5517 14.3276 11.5838 14.2362 11.6188L15.5758 13.4796L14.6638 11.4784C14.7362 11.4584 14.8093 11.4401 14.8831 11.4235L14.8831 11.4235C14.9971 11.3979 15.1127 11.3763 15.2297 11.3591L15.2297 11.359C15.1127 11.3763 14.9971 11.3978 14.8831 11.4235L13.8825 8.88329ZM13.8825 8.88329L13.8825 8.88328C13.9245 8.87131 13.9666 8.8597 14.0089 8.84846L14.0089 8.84847C13.9666 8.85971 13.9245 8.87132 13.8825 8.88329ZM15.3636 8.62001C15.5499 8.60606 15.7381 8.59895 15.928 8.59895C15.972 8.59895 16.0159 8.59933 16.0597 8.6001L16.0597 8.60007C16.016 8.59931 15.9721 8.59892 15.9281 8.59892C15.7382 8.59892 15.5499 8.60603 15.3636 8.61998L15.3636 8.62001ZM15.8498 11.3086C15.8758 11.3082 15.9019 11.3079 15.928 11.3079C16.0244 11.3079 16.1201 11.3108 16.215 11.3165L16.215 11.3165C16.1201 11.3108 16.0244 11.308 15.9281 11.308C15.9019 11.308 15.8759 11.3082 15.8498 11.3086L15.8498 11.3086ZM16.8299 8.65295L16.8299 8.65299C17.072 8.68221 17.3106 8.72305 17.5451 8.77494L17.5451 8.7749C17.3106 8.72301 17.072 8.68218 16.8299 8.65295ZM16.777 11.3837C16.9015 11.4063 17.0243 11.4336 17.1452 11.4656L17.1452 11.4657C17.0243 11.4336 16.9015 11.4063 16.777 11.3838L16.777 11.3837ZM17.6309 11.6229C17.7218 11.6579 17.8113 11.6956 17.8993 11.736C17.8113 11.6956 17.7217 11.6579 17.6309 11.623L17.6309 11.6229ZM18.9251 9.22636L18.9251 9.22632C18.8036 9.17284 18.6803 9.1225 18.5554 9.07543L18.5554 9.07547C18.6803 9.12254 18.8036 9.17288 18.9251 9.22636ZM19.4753 9.49604C19.2962 9.3989 19.1127 9.30888 18.9251 9.22636L18.3313 11.9614C18.2194 11.8954 18.1045 11.8339 17.9869 11.7772L17.6489 13.8528L18.3516 11.9734L18.3885 11.9956L18.3885 11.9956L18.4204 12.0152L18.3885 11.9956L19.4753 9.49604ZM19.4753 9.49604C19.5377 9.52993 19.5997 9.56469 19.6611 9.6003L19.661 9.60022C19.5997 9.56462 19.5378 9.52987 19.4753 9.49599L19.4753 9.49604ZM20.1553 9.9136L20.1553 9.91355C20.0939 9.87114 20.0318 9.82963 19.969 9.78904V9.7891C20.0318 9.82969 20.0939 9.87119 20.1553 9.9136ZM20.588 10.2359L20.588 10.2359C20.7005 10.3262 20.8102 10.4196 20.9172 10.5162V10.5162C20.8102 10.4197 20.7004 10.3262 20.588 10.2359ZM20.588 10.2359C20.4478 10.1234 20.3035 10.0159 20.1553 9.9136L19.0532 12.4483L20.588 10.2359ZM21.2058 10.7909L21.2059 10.7909C21.1555 10.7403 21.1044 10.6905 21.0526 10.6414L21.0526 10.6415C21.1044 10.6906 21.1555 10.7404 21.2058 10.7909ZM21.5277 11.135L19.8292 12.7753L21.2058 10.7909C21.3167 10.9022 21.424 11.017 21.5277 11.135ZM21.5277 11.135C21.6276 11.2488 21.7241 11.3656 21.817 11.4853L21.817 11.4852C21.7241 11.3655 21.6277 11.2487 21.5278 11.135L21.5277 11.135ZM19.0509 12.4817C18.9443 12.3883 18.8335 12.2996 18.7188 12.216L17.9899 14.1656L19.0386 12.4709L19.0509 12.4817ZM8.68132 14.3135L6.02235 13.7846C6.11109 13.3948 6.22222 13.0135 6.35437 12.6422L9.05115 13.1786C8.89883 13.5431 8.77466 13.9223 8.68132 14.3135ZM9.56795 12.1673L7.04213 11.1211C7.23198 10.7795 7.44095 10.45 7.6676 10.134L10.2639 11.2094C10.0076 11.5091 9.77467 11.8293 9.56795 12.1673ZM11.0327 10.433L8.72141 8.88864C8.99239 8.61592 9.27874 8.35848 9.57908 8.11774L11.9861 9.7261C11.6493 9.9365 11.3306 10.1731 11.0327 10.433ZM8.68132 17.6512L6.02235 18.1801C6.11107 18.5698 6.22222 18.9511 6.35437 19.3224L9.05115 18.786C8.89884 18.4215 8.77466 18.0423 8.68132 17.6512ZM9.56792 19.7973L7.04213 20.8435C7.23198 21.1851 7.44095 21.5147 7.66761 21.8306L10.2639 20.7552C10.0076 20.4555 9.77467 20.1353 9.56792 19.7973ZM11.0327 21.5316L8.72141 23.076C8.99239 23.3487 9.27874 23.6062 9.57908 23.8469L11.9861 22.2386C11.6493 22.0281 11.3306 21.7915 11.0327 21.5316ZM12.8779 22.7147L10.8666 24.7262C11.1953 24.9153 11.5356 25.0867 11.8862 25.2388L14.0089 23.1162C13.6184 23.0123 13.2405 22.8776 12.8779 22.7147Z" fill="#E6DAFE"/>
</g>
<defs>
<clipPath id="clip0_14350_3154">
<rect width="26" height="26" fill="white" transform="translate(3 3)"/>
</clipPath>
</defs>
</svg>
