<?xml version="1.0" encoding="UTF-8"?>
<!DOCTYPE svg PUBLIC "-//W3C//DTD SVG 1.1//EN" "http://www.w3.org/Graphics/SVG/1.1/DTD/svg11.dtd">
<svg xmlns="http://www.w3.org/2000/svg" version="1.1" width="64px" height="64px" style="shape-rendering:geometricPrecision; text-rendering:geometricPrecision; image-rendering:optimizeQuality; fill-rule:evenodd; clip-rule:evenodd" xmlns:xlink="http://www.w3.org/1999/xlink">
<g><path style="opacity:1" fill="#25242c" d="M 33.5,1.5 C 40.1158,1.80228 45.4491,4.46895 49.5,9.5C 48.1266,9.34332 46.7932,9.50999 45.5,10C 46.6956,10.6543 46.6956,11.1543 45.5,11.5C 43.2046,10.5682 40.8713,9.73482 38.5,9C 39.7468,7.54213 39.7468,6.04213 38.5,4.5C 37.2839,3.90405 35.9506,3.73739 34.5,4C 34.8333,3.66667 35.1667,3.33333 35.5,3C 34.5842,2.72158 33.9175,2.22158 33.5,1.5 Z"/></g>
<g><path style="opacity:1" fill="#3b3960" d="M 16.5,22.5 C 16.1667,23.5 15.5,24.1667 14.5,24.5C 12.8653,21.9984 11.0319,20.3318 9,19.5C 8.20858,20.745 7.70858,22.0783 7.5,23.5C 6.5041,23.4142 5.67076,23.7476 5,24.5C 4.50649,22.8659 4.33982,21.1992 4.5,19.5C 3.12656,19.6567 1.79323,19.49 0.5,19C 1.99125,16.6922 2.99125,14.1922 3.5,11.5C 7.02042,10.9993 10.3538,9.99931 13.5,8.5C 15.0293,8.52884 16.196,9.19551 17,10.5C 18.2684,8.28266 19.7684,6.28266 21.5,4.5C 23.7308,6.88593 26.3975,8.71926 29.5,10C 28.4552,11.526 26.9552,12.3594 25,12.5C 21.8112,11.7536 18.8112,11.4203 16,11.5C 15.0565,12.263 14.5565,13.263 14.5,14.5C 16.6841,17.003 17.3508,19.6697 16.5,22.5 Z"/></g>
<g><path style="opacity:1" fill="#302e46" d="M 33.5,1.5 C 33.9175,2.22158 34.5842,2.72158 35.5,3C 35.1667,3.33333 34.8333,3.66667 34.5,4C 35.9506,3.73739 37.2839,3.90405 38.5,4.5C 39.7468,6.04213 39.7468,7.54213 38.5,9C 40.8713,9.73482 43.2046,10.5682 45.5,11.5C 46.6956,11.1543 46.6956,10.6543 45.5,10C 46.7932,9.50999 48.1266,9.34332 49.5,9.5C 50.5,9.83333 51.1667,10.5 51.5,11.5C 51.0702,13.62 51.0702,15.62 51.5,17.5C 49.5786,16.6373 47.5786,15.9707 45.5,15.5C 39.642,15.1778 33.9753,15.5111 28.5,16.5C 28.1667,16.5 27.8333,16.5 27.5,16.5C 24.1511,17.1695 21.4844,18.8361 19.5,21.5C 18.391,21.5569 17.391,21.8902 16.5,22.5C 17.3508,19.6697 16.6841,17.003 14.5,14.5C 14.5565,13.263 15.0565,12.263 16,11.5C 18.8112,11.4203 21.8112,11.7536 25,12.5C 26.9552,12.3594 28.4552,11.526 29.5,10C 26.3975,8.71926 23.7308,6.88593 21.5,4.5C 19.7684,6.28266 18.2684,8.28266 17,10.5C 16.196,9.19551 15.0293,8.52884 13.5,8.5C 10.3538,9.99931 7.02042,10.9993 3.5,11.5C 10.9976,0.81366 20.9976,-2.51967 33.5,1.5 Z"/></g>
<g><path style="opacity:1" fill="#b08cda" d="M 28.5,16.5 C 33.9753,15.5111 39.642,15.1778 45.5,15.5C 45.4729,17.1993 44.8062,18.5326 43.5,19.5C 42.1283,20.5116 40.795,21.5116 39.5,22.5C 39.1667,22.5 38.8333,22.5 38.5,22.5C 38.5858,21.5041 38.2524,20.6708 37.5,20C 35.5643,19.187 33.5643,18.687 31.5,18.5C 31.0618,18.5654 30.7284,18.3988 30.5,18C 31.1667,17.6667 31.8333,17.3333 32.5,17C 31.2068,16.51 29.8734,16.3433 28.5,16.5 Z"/></g>
<g><path style="opacity:1" fill="#bfa2e0" d="M 27.5,16.5 C 27.8333,17.1667 28.1667,17.8333 28.5,18.5C 26.2512,19.0798 24.5846,20.4131 23.5,22.5C 22.2921,21.7659 20.9587,21.4326 19.5,21.5C 21.4844,18.8361 24.1511,17.1695 27.5,16.5 Z"/></g>
<g><path style="opacity:1" fill="#151515" d="M 28.5,18.5 C 27.3995,19.6049 26.7329,20.9382 26.5,22.5C 25.5,22.5 24.5,22.5 23.5,22.5C 24.5846,20.4131 26.2512,19.0798 28.5,18.5 Z"/></g>
<g><path style="opacity:0.856" fill="#121213" d="M 51.5,11.5 C 54.5356,14.031 56.5356,17.1977 57.5,21C 56.1748,26.4437 55.1748,31.9437 54.5,37.5C 52.5332,34.4214 50.1999,31.5881 47.5,29C 50.2565,28.0617 52.5899,26.5617 54.5,24.5C 56.3302,21.022 55.3302,18.6886 51.5,17.5C 51.0702,15.62 51.0702,13.62 51.5,11.5 Z"/></g>
<g><path style="opacity:1" fill="#aa78e9" d="M 19.5,21.5 C 20.9587,21.4326 22.2921,21.7659 23.5,22.5C 24.5,22.5 25.5,22.5 26.5,22.5C 31.0725,22.2821 35.2392,23.2821 39,25.5C 41.3834,24.2343 44.05,23.5676 47,23.5C 49.6903,23.5029 52.1903,23.8362 54.5,24.5C 52.5899,26.5617 50.2565,28.0617 47.5,29C 50.1999,31.5881 52.5332,34.4214 54.5,37.5C 54.6716,38.4916 54.3382,39.1583 53.5,39.5C 50.8136,40.9881 51.1469,41.6547 54.5,41.5C 54.8333,48.1667 55.1667,48.1667 55.5,41.5C 56.5,41.5 57.5,41.5 58.5,41.5C 58.1307,43.9935 58.7973,44.6602 60.5,43.5C 61.1667,43.5 61.5,43.8333 61.5,44.5C 60.7215,48.6661 60.7215,52.9994 61.5,57.5C 60.3285,58.3446 58.9952,59.0113 57.5,59.5C 55.955,58.7703 55.1216,57.437 55,55.5C 54.5065,57.1341 54.3398,58.8008 54.5,60.5C 51.393,59.9241 48.393,59.9241 45.5,60.5C 45.8306,56.4954 44.4973,53.1621 41.5,50.5C 42.6085,48.7859 41.9418,48.1192 39.5,48.5C 37.8212,48.2852 36.8212,48.9519 36.5,50.5C 34.1432,50.6633 31.8098,50.4966 29.5,50C 24.6202,46.2801 19.6202,42.7801 14.5,39.5C 9.33498,34.504 9.33498,29.504 14.5,24.5C 15.5,24.1667 16.1667,23.5 16.5,22.5C 17.391,21.8902 18.391,21.5569 19.5,21.5 Z"/></g>
<g><path style="opacity:1" fill="#dbd4e4" d="M 45.5,15.5 C 47.5786,15.9707 49.5786,16.6373 51.5,17.5C 55.3302,18.6886 56.3302,21.022 54.5,24.5C 52.1903,23.8362 49.6903,23.5029 47,23.5C 44.05,23.5676 41.3834,24.2343 39,25.5C 35.2392,23.2821 31.0725,22.2821 26.5,22.5C 26.7329,20.9382 27.3995,19.6049 28.5,18.5C 28.1667,17.8333 27.8333,17.1667 27.5,16.5C 27.8333,16.5 28.1667,16.5 28.5,16.5C 29.8734,16.3433 31.2068,16.51 32.5,17C 31.8333,17.3333 31.1667,17.6667 30.5,18C 30.7284,18.3988 31.0618,18.5654 31.5,18.5C 32.7767,21.5517 35.11,22.8851 38.5,22.5C 38.8333,22.5 39.1667,22.5 39.5,22.5C 40.8333,22.5 42.1667,22.5 43.5,22.5C 43.5,21.5 43.5,20.5 43.5,19.5C 44.8062,18.5326 45.4729,17.1993 45.5,15.5 Z"/></g>
<g><path style="opacity:1" fill="#050505" d="M 43.5,19.5 C 43.5,20.5 43.5,21.5 43.5,22.5C 42.1667,22.5 40.8333,22.5 39.5,22.5C 40.795,21.5116 42.1283,20.5116 43.5,19.5 Z"/></g>
<g><path style="opacity:1" fill="#080808" d="M 50.5,19.5 C 55.6393,20.9407 55.6393,21.9407 50.5,22.5C 50.5,21.5 50.5,20.5 50.5,19.5 Z"/></g>
<g><path style="opacity:1" fill="#0d0d0d" d="M 31.5,18.5 C 33.5643,18.687 35.5643,19.187 37.5,20C 38.2524,20.6708 38.5858,21.5041 38.5,22.5C 35.11,22.8851 32.7767,21.5517 31.5,18.5 Z"/></g>
<g><path style="opacity:1" fill="#22243d" d="M 3.5,11.5 C 2.99125,14.1922 1.99125,16.6922 0.5,19C 1.79323,19.49 3.12656,19.6567 4.5,19.5C 4.33982,21.1992 4.50649,22.8659 5,24.5C 5.67076,23.7476 6.5041,23.4142 7.5,23.5C 6.25148,25.6704 5.25148,28.0037 4.5,30.5C 5.13711,34.2711 5.30378,38.2711 5,42.5C 4.25883,43.6405 3.42549,43.6405 2.5,42.5C 1.85027,40.8164 0.85027,39.4831 -0.5,38.5C -0.5,31.1667 -0.5,23.8333 -0.5,16.5C 0.593015,14.6508 1.92635,12.9842 3.5,11.5 Z"/></g>
<g><path style="opacity:1" fill="#67c4f7" d="M 19.5,32.5 C 28.5162,37.1388 38.1828,39.3054 48.5,39C 46.7866,40.3782 45.4533,42.0448 44.5,44C 35.3215,45.2312 26.8215,43.3979 19,38.5C 16.9087,36.1697 17.0754,34.1697 19.5,32.5 Z"/></g>
<g><path style="opacity:1" fill="#2c2936" d="M 14.5,24.5 C 9.33498,29.504 9.33498,34.504 14.5,39.5C 14.6567,40.8734 14.49,42.2068 14,43.5C 13.6667,42.8333 13.3333,42.1667 13,41.5C 8.95664,46.8178 4.45664,47.8178 -0.5,44.5C -0.5,42.5 -0.5,40.5 -0.5,38.5C 0.85027,39.4831 1.85027,40.8164 2.5,42.5C 3.42549,43.6405 4.25883,43.6405 5,42.5C 5.30378,38.2711 5.13711,34.2711 4.5,30.5C 5.25148,28.0037 6.25148,25.6704 7.5,23.5C 7.70858,22.0783 8.20858,20.745 9,19.5C 11.0319,20.3318 12.8653,21.9984 14.5,24.5 Z"/></g>
<g><path style="opacity:0.112" fill="#e9def6" d="M 53.5,39.5 C 55.1667,40.1667 56.8333,40.8333 58.5,41.5C 57.5,41.5 56.5,41.5 55.5,41.5C 55.1667,48.1667 54.8333,48.1667 54.5,41.5C 51.1469,41.6547 50.8136,40.9881 53.5,39.5 Z"/></g>
<g><path style="opacity:1" fill="#e8dbf8" d="M 58.5,41.5 C 59.5,41.8333 60.1667,42.5 60.5,43.5C 58.7973,44.6602 58.1307,43.9935 58.5,41.5 Z"/></g>
<g><path style="opacity:1" fill="#d9c3f2" d="M 61.5,44.5 C 62.1667,45.8333 62.8333,47.1667 63.5,48.5C 63.5,48.8333 63.5,49.1667 63.5,49.5C 62.8333,52.1667 62.1667,54.8333 61.5,57.5C 60.7215,52.9994 60.7215,48.6661 61.5,44.5 Z"/></g>
<g><path style="opacity:1" fill="#2f2d43" d="M 14.5,39.5 C 19.6202,42.7801 24.6202,46.2801 29.5,50C 31.8098,50.4966 34.1432,50.6633 36.5,50.5C 37.7095,50.0679 38.7095,49.4013 39.5,48.5C 41.9418,48.1192 42.6085,48.7859 41.5,50.5C 44.4973,53.1621 45.8306,56.4954 45.5,60.5C 45.5,60.8333 45.5,61.1667 45.5,61.5C 45.1667,62.1667 44.8333,62.8333 44.5,63.5C 29.5,63.5 14.5,63.5 -0.5,63.5C -0.5,57.1667 -0.5,50.8333 -0.5,44.5C 4.45664,47.8178 8.95664,46.8178 13,41.5C 13.3333,42.1667 13.6667,42.8333 14,43.5C 14.49,42.2068 14.6567,40.8734 14.5,39.5 Z"/></g>
<g><path style="opacity:1" fill="#dfd7e8" d="M 39.5,48.5 C 38.7095,49.4013 37.7095,50.0679 36.5,50.5C 36.8212,48.9519 37.8212,48.2852 39.5,48.5 Z"/></g>
<g><path style="opacity:0.16" fill="#f3edfa" d="M 57.5,59.5 C 57.0825,60.2216 56.4158,60.7216 55.5,61C 52.1832,61.4983 48.8499,61.665 45.5,61.5C 45.5,61.1667 45.5,60.8333 45.5,60.5C 48.393,59.9241 51.393,59.9241 54.5,60.5C 54.3398,58.8008 54.5065,57.1341 55,55.5C 55.1216,57.437 55.955,58.7703 57.5,59.5 Z"/></g>
</svg>
