<svg width="32" height="32" viewBox="0 0 32 32" fill="none" xmlns="http://www.w3.org/2000/svg">
<path fill-rule="evenodd" clip-rule="evenodd" d="M9.045 25.3194C6.20938 23.1987 4.365 19.8106 4.365 16C4.365 9.58125 9.58125 4.365 16 4.365C21.3056 4.365 27.0906 7.53375 28.4881 12.3844C26.9281 6.965 21.9312 3 16 3C8.82562 3 3 8.82562 3 16C3 23.1744 8.82562 29 16 29C23.1744 29 29 23.1744 29 16V15.3175H28.1875C28.1063 15.3175 27.9844 15.3175 27.83 15.3094C27.5212 15.3012 27.0987 15.2769 26.6194 15.2362C25.6444 15.155 24.5312 14.9844 23.7756 14.6838C22.5569 14.1962 21.8663 13.5544 21.0863 12.7987L21.0375 12.7581C20.2494 12.0025 19.3638 11.1494 17.8281 10.4263C16.3169 9.71938 14.6431 9.83313 13.4163 10.085C12.7906 10.215 12.2544 10.3856 11.8806 10.5156C11.6938 10.5806 11.5394 10.6456 11.4338 10.6863C10.8163 10.9462 10.215 11.255 9.61375 11.5394C9.61375 11.5394 10.8081 11.8644 11.3931 12.0513C11.4175 12.0513 11.45 12.0675 11.4906 12.0837C11.58 12.1081 11.71 12.1569 11.8562 12.2219C12.165 12.3519 12.5712 12.5388 12.9775 12.7987C13.6112 13.205 14.1394 13.7169 14.3587 14.3506C13.01 14.5294 11.7506 15.1225 10.8 15.675C10.2313 16.0081 9.75187 16.3494 9.41875 16.6012C9.25625 16.7312 9.11812 16.8369 9.02875 16.91C8.9475 16.975 7.73688 18.0475 7.73688 18.0475C7.73688 18.0475 9.305 18.21 10.0769 18.3725C10.5887 18.4781 11.2875 18.6406 12.0106 18.8925C12.7419 19.1444 13.4731 19.4775 14.0825 19.9081C14.6919 20.3387 15.1388 20.8263 15.3581 21.395C16 23.0444 15.3663 24.645 14.0988 25.5387C12.8475 26.4325 10.9381 26.6437 9.03687 25.3356L9.045 25.3194ZM13.4812 27.3587C13.9931 27.1962 14.4725 26.9525 14.9031 26.6438C16.6256 25.4169 17.5356 23.1744 16.6419 20.8831C16.2925 19.9813 15.6181 19.2987 14.8706 18.7706C14.1231 18.2506 13.2619 17.8688 12.4656 17.5844C11.9456 17.3975 11.4338 17.2594 10.995 17.1538C11.1575 17.0481 11.32 16.9425 11.4987 16.8369C12.555 16.2194 13.8794 15.6506 15.155 15.6506C17.0725 15.6506 18.5025 16.2437 19.8675 16.8694C19.9894 16.9262 20.1112 16.9831 20.2412 17.04C21.46 17.6088 22.7356 18.21 24.2225 18.21C25.7094 18.21 26.79 17.8038 27.5619 17.3813C26.8713 23.15 21.9638 27.6187 16.0163 27.6187C15.1469 27.6187 14.31 27.5212 13.4975 27.3506L13.4812 27.3587ZM26.075 16.5525C25.5631 16.7231 24.9375 16.8531 24.2144 16.8531C23.0525 16.8531 22.045 16.39 20.7775 15.7969C20.6637 15.74 20.55 15.6912 20.4362 15.6344C19.1606 15.0413 17.69 14.4156 15.7725 14.31C15.5125 13.0425 14.5538 12.1731 13.725 11.645C13.6356 11.5881 13.5381 11.5312 13.4487 11.4744C13.53 11.4581 13.6112 11.4338 13.7006 11.4175C14.8138 11.19 16.13 11.1331 17.2513 11.6613C18.5756 12.2869 19.3312 13.01 20.1112 13.7575L20.1356 13.7819C20.94 14.5538 21.785 15.3581 23.2719 15.9513C24.0925 16.2762 25.165 16.455 26.075 16.5525Z" fill="#E6DAFE"/>
</svg>
