<svg width="32" height="32" viewBox="0 0 32 32" fill="none" xmlns="http://www.w3.org/2000/svg">
<path d="M16 3C8.82017 3 3 8.82017 3 16C3 23.1798 8.82017 29 16 29C23.1798 29 29 23.1798 29 16C29 8.82017 23.1798 3 16 3ZM23.5662 16.7699V20.6736H20.4528V15.2635C20.4528 15.142 20.3864 15.0301 20.2799 14.9715L17.6008 13.5058C17.5407 13.4729 17.4671 13.5165 17.4671 13.5853V20.6731H14.5329V13.5853C14.5329 13.5165 14.4593 13.4729 14.3992 13.5058L11.7201 14.9715C11.6136 15.0296 11.5472 15.142 11.5472 15.2635V20.6736H8.43378V14.2743C8.43378 13.793 8.69622 13.3499 9.11893 13.1185L15.3681 9.69949C15.7623 9.48402 16.2387 9.48402 16.6329 9.69949L22.882 13.1185C23.3043 13.3494 23.5672 13.7925 23.5672 14.2743V16.7699H23.5662Z" fill="#E6DAFE"/>
</svg>
