<svg width="32" height="32" viewBox="0 0 32 32" fill="none" xmlns="http://www.w3.org/2000/svg">
<path d="M15.81 28.62C13.2764 28.62 10.7997 27.8687 8.69315 26.4611C6.58656 25.0535 4.94467 23.0529 3.97511 20.7122C3.00555 18.3715 2.75187 15.7958 3.24615 13.3109C3.74042 10.826 4.96046 8.54348 6.75197 6.75197C8.54348 4.96046 10.826 3.74042 13.3109 3.24615C15.7958 2.75187 18.3715 3.00555 20.7122 3.97511C23.0529 4.94467 25.0535 6.58656 26.4611 8.69315C27.8687 10.7997 28.62 13.2764 28.62 15.81C28.616 19.2062 27.2651 22.4622 24.8637 24.8637C22.4622 27.2651 19.2062 28.616 15.81 28.62ZM15.81 4.31001C13.5355 4.31001 11.3121 4.98447 9.42095 6.24811C7.52978 7.51174 6.0558 9.3078 5.18539 11.4091C4.31498 13.5105 4.08724 15.8228 4.53097 18.0535C4.97471 20.2843 6.06997 22.3334 7.67828 23.9417C9.28658 25.55 11.3357 26.6453 13.5665 27.089C15.7972 27.5328 18.1095 27.305 20.2109 26.4346C22.3122 25.5642 24.1083 24.0902 25.3719 22.1991C26.6355 20.3079 27.31 18.0845 27.31 15.81C27.31 12.76 26.0984 9.83495 23.9417 7.67828C21.7851 5.52161 18.86 4.31001 15.81 4.31001Z" fill="#E6DAFE"/>
<path d="M9.77949 16.7785L12.1926 16.7803L14.7763 14.8382H19.1633L18.5125 16.7803H20.4642L21.1109 14.8382H23.3102L24.9463 13.606H21.5265L23.4034 8H21.4495L13.9985 13.606H11.0529L11.8653 11.1798L7.00075 14.8382H12.3598L9.77949 16.7785ZM20.6393 10.4281L19.577 13.606H16.4143L20.6393 10.4281Z" fill="#E6DAFE"/>
<path d="M11.8026 22.1214H11.9525V21.6683H12.4805V21.5368H11.9525V21.2295H12.5282V21.0979H11.8026V22.1214Z" fill="#E6DAFE"/>
<path d="M12.9915 21.2233H13.2545V22.1211H13.4048V21.0972H12.9919L12.9915 21.2233Z" fill="#E6DAFE"/>
<path d="M14.0519 21.0669C13.9459 21.0669 13.8693 21.1345 13.8693 21.2445C13.8693 21.3545 13.9459 21.4221 14.0519 21.4221C14.1578 21.4221 14.2345 21.3537 14.2345 21.2445C14.2345 21.1352 14.1567 21.0669 14.0519 21.0669ZM14.0519 21.3903C13.9662 21.3903 13.9023 21.3355 13.9023 21.2441C13.9023 21.1528 13.9662 21.0972 14.0519 21.0972C14.1375 21.0972 14.1995 21.152 14.1995 21.2441C14.1995 21.3362 14.1368 21.3903 14.0519 21.3903Z" fill="#E6DAFE"/>
<path d="M14.1327 21.2068C14.1327 21.1677 14.1064 21.148 14.0553 21.148H13.976V21.3406H14.0196V21.2686H14.047L14.0891 21.3406H14.1364L14.0906 21.2617C14.118 21.2536 14.1327 21.235 14.1327 21.2068ZM14.0571 21.2342H14.0196V21.1831H14.0571C14.0778 21.1831 14.0872 21.193 14.0872 21.2076C14.0872 21.2244 14.0778 21.2342 14.0571 21.2342Z" fill="#E6DAFE"/>
<path d="M15.1187 21.2291H15.4824V22.1211H15.6323V21.2291H15.9961V21.0972H15.1187V21.2291Z" fill="#E6DAFE"/>
<path d="M16.4906 22.1214H17.2161V21.9895H16.6405V21.6683H17.168V21.5368H16.6405V21.2295H17.2161V21.0979H16.4906V22.1214Z" fill="#E6DAFE"/>
<path d="M18.0304 21.0979L17.6554 22.1214H17.8151L17.9109 21.8529H18.3671L18.4625 22.1214H18.6222L18.2457 21.0979H18.0304ZM17.9586 21.7213L18.1386 21.2156L18.319 21.7213H17.9586Z" fill="#E6DAFE"/>
<path d="M19.6811 22.0107L19.3813 21.0976H19.1243V22.1211H19.2746V21.2339L19.5661 22.1211H19.7957L20.0907 21.2233V22.1211H20.241V21.0976H19.981L19.6811 22.0107Z" fill="#E6DAFE"/>
<path d="M7 19.8735H7.49149L7.75114 19.5885H9.16137L9.42139 19.8735H9.91289L8.45644 18.3264L7 19.8735ZM8.00065 19.3184L8.45682 18.8193L8.91299 19.3184H8.00065Z" fill="#E6DAFE"/>
<path d="M17.6599 18.3742H17.2436V19.8738H17.6599V18.3742Z" fill="#E6DAFE"/>
<path d="M21.1263 19.2991L19.4034 18.3735H18.9826V19.8731H19.3685V18.7652L21.5163 19.9159V18.3731H21.1263V19.2991Z" fill="#E6DAFE"/>
<path d="M11.2243 18.3742H10.8076V19.8738H12.7006L12.8171 19.6038H11.2243V18.3742Z" fill="#E6DAFE"/>
<path d="M23.2546 19.6042V19.2464H24.9448V18.9764H23.2546V18.6442H24.9448V18.3742H22.8383V19.8738H24.9226L25 19.6038L23.2546 19.6042Z" fill="#E6DAFE"/>
<path d="M15.4745 18.3742H13.6923V19.8738H14.1086V19.3725H15.455C15.9551 19.3725 16.149 19.1686 16.149 18.8668C16.149 18.565 15.9374 18.3742 15.4745 18.3742ZM15.3753 19.1021H14.1082V18.6435H15.373C15.6241 18.6435 15.7011 18.7184 15.7011 18.8774C15.7011 19.0162 15.5936 19.1021 15.3753 19.1021Z" fill="#E6DAFE"/>
<path d="M14.6753 23.7431L14.3412 24H15.5489L15.883 23.7431H14.6753Z" fill="#E6DAFE"/>
<path d="M16.447 23.7431L16.1129 24H17.3247L17.6588 23.7431H16.447Z" fill="#E6DAFE"/>
</svg>
