<svg width="32" height="32" viewBox="0 0 32 32" fill="none" xmlns="http://www.w3.org/2000/svg">
<path fill-rule="evenodd" clip-rule="evenodd" d="M29 16C29 23.1797 23.1797 29 16 29C8.8203 29 3 23.1797 3 16C3 8.8203 8.8203 3 16 3C23.1797 3 29 8.8203 29 16ZM23.1114 23.0838C23.1132 23.0963 23.1139 23.1092 23.1142 23.122C23.1146 23.2216 23.0634 23.3144 22.9785 23.3666L16.2807 27.4966C22.5023 27.3476 27.5 22.2574 27.5 16C27.5 9.64873 22.3513 4.5 16 4.5C9.64873 4.5 4.5 9.64873 4.5 16C4.5 22.2782 9.53096 27.3814 15.7813 27.498L9.13723 23.4192C9.05236 23.3669 9.00074 23.2746 9.00108 23.1749C9.00108 23.1664 9.00142 23.1575 9.00249 23.149C9.00142 23.1398 9.00108 23.1309 9.00108 23.1217L9.00068 17.9493C9.00068 17.9431 9.00102 17.9369 9.00136 17.9309C8.99638 17.8559 9.02115 17.78 9.07418 17.7212C9.1647 17.6208 9.31284 17.5978 9.4292 17.6656L16.0558 21.5114L22.6213 17.7027C22.6319 17.6961 22.6432 17.6909 22.6545 17.6859C22.7026 17.6488 22.7627 17.6268 22.8285 17.6268C22.9858 17.6268 23.1139 17.7547 23.1139 17.9122L23.1142 23.0437C23.1142 23.0576 23.1132 23.0707 23.1114 23.0838ZM9.57174 22.6702L11.5305 21.4868L9.5714 18.7904L9.57174 22.6702ZM11.8672 21.9504L9.83522 23.1779L15.1128 26.418L11.8672 21.9504ZM17.0391 26.3586L22.2802 23.1266L20.2551 21.909L17.0391 26.3586ZM20.5906 21.4447L22.5435 22.6189L22.5432 18.7428L20.5906 21.4447ZM15.9126 22.0882L10.3104 18.8365L16.0555 26.7449L21.7473 18.8694L16.199 22.0882C16.1106 22.1395 16.001 22.1395 15.9126 22.0882ZM9.27637 16.5611C9.12326 16.5558 9.00051 16.4302 9.00051 16.2756L9 9.55264C9 9.53585 9.00142 9.5194 9.00424 9.50362C9.00142 9.48813 9 9.47236 9 9.45624C8.99961 9.35662 9.05123 9.26389 9.1361 9.21199L15.935 5.04219C16.0262 4.98599 16.1415 4.98599 16.2327 5.0419L22.9763 9.15901C23.0616 9.21097 23.1132 9.3037 23.1132 9.40332L23.113 9.40961L23.1128 9.41582C23.1128 9.41792 23.1129 9.42002 23.113 9.42215C23.1131 9.42437 23.1132 9.42663 23.1132 9.42899L23.1137 16.2405C23.1137 16.3608 23.0388 16.4641 22.9334 16.5058L16.1932 20.2136C16.1076 20.2606 16.0037 20.2606 15.9181 20.2136L9.27637 16.5611ZM9.57072 9.95968L9.57117 15.3694L11.9957 11.4177L9.57072 9.95968ZM22.5425 9.9084L20.0951 11.3871L22.543 15.3763L22.5425 9.9084ZM19.7966 10.9005L22.278 9.40134L16.8392 6.08061L19.7966 10.9005ZM15.2318 6.14275L9.83516 9.45268L12.2942 10.9314L15.2318 6.14275ZM9.74979 16.1701L16.0556 19.6378L22.3602 16.1697L16.0546 5.89318L9.74979 16.1701ZM28 16C28 22.6274 22.6274 28 16 28C9.37258 28 4 22.6274 4 16C4 9.37258 9.37258 4 16 4C22.6274 4 28 9.37258 28 16Z" fill="#E6DAFE"/>
</svg>
