<svg width="32" height="32" viewBox="0 0 32 32" fill="none" xmlns="http://www.w3.org/2000/svg">
<path fill-rule="evenodd" clip-rule="evenodd" d="M19.359 11.8222L19.9694 11.2957C20.2746 11.017 20.6476 10.8623 21.0207 10.8003C21.3936 10.7385 21.8005 10.8003 22.2074 10.9552C22.5803 11.11 22.8855 11.3577 23.123 11.6674C23.3263 11.977 23.4621 12.3177 23.4282 12.7203L23.3603 24.2706H23.6315C25.1576 24.2706 26.3784 23.1557 26.4122 21.7623L26.4801 12.7203C26.4801 11.7912 26.2088 10.8932 25.7001 10.181C25.1915 9.43784 24.4115 8.84941 23.4961 8.44691C22.5465 8.07541 21.5632 7.95145 20.6136 8.07541C19.6642 8.19918 18.7486 8.60186 18.0026 9.2211L16.7817 10.2738L19.0538 12.1319L19.359 11.8222Z" fill="#E6DAFE"/>
<path fill-rule="evenodd" clip-rule="evenodd" d="M6.00248 21.7585C6.00248 23.154 7.21577 24.2705 8.69122 24.2705H8.95357L8.88793 12.7031C8.88793 12.2998 8.98638 11.9587 9.1831 11.6486C9.37981 11.3384 9.67498 11.1214 10.0684 10.9354C10.4618 10.7803 10.8554 10.7182 11.2161 10.7803C11.5769 10.8422 11.9375 10.9974 12.2326 11.2765L17.02 15.3391C17.0526 15.3701 17.2495 15.5252 17.4134 15.6802C17.9053 16.0834 18.1676 16.3004 18.1676 16.9516C18.1676 17.5098 17.9381 18.006 17.5447 18.3783C17.1511 18.7503 16.6265 18.9674 16.0362 18.9674C15.4461 18.9674 14.9214 18.7503 14.5279 18.3783C14.1343 18.006 13.9048 17.5098 13.9048 16.9516C13.9048 16.2693 14.2 16.0213 14.7247 15.5873C14.7903 15.5252 15.1837 15.1839 15.3476 15.0599L13.1508 13.1992L12.7571 13.5403C11.5769 14.5327 10.9537 15.0599 10.9537 16.9826C10.9537 18.3162 11.5112 19.4946 12.4293 20.363C13.3475 21.2313 14.6262 21.7585 16.0034 21.7585C17.4134 21.7585 18.6595 21.2313 19.5776 20.363C20.4958 19.4946 21.0531 18.2852 21.0531 16.9826C21.0531 15.0909 20.3973 14.5327 19.2497 13.6333C19.184 13.5714 19.1184 13.5093 18.889 13.3232L14.2 9.1987C13.4786 8.57836 12.5932 8.17515 11.6751 8.05115C10.757 7.92716 9.80606 8.02011 8.88793 8.42332C7.96981 8.79549 7.2484 9.41583 6.75671 10.16C6.26483 10.9043 5.96966 11.7726 6.00248 12.7031V21.7585Z" fill="#E6DAFE"/>
</svg>
