<svg width="32" height="32" viewBox="0 0 32 32" fill="none" xmlns="http://www.w3.org/2000/svg">
<path d="M20.9408 10.7891C18.7059 10.8141 17.2993 10.2792 15.9911 9.67517C14.6438 10.2858 13.1455 10.7755 11.0686 10.7891L10.9406 18.8338C11.1443 21.8097 13.0429 23.5479 15.9911 24.5179C19.5752 23.2553 20.8839 21.2334 21.0599 18.8338L20.9408 10.7891ZM15.9793 24.2277C13.1775 23.1048 11.3979 21.5905 11.2078 18.7835L11.3315 11.0794C13.2941 11.0657 14.7101 10.5991 15.9793 10.011C17.2146 10.5873 18.5436 11.102 20.6525 11.0794L20.7644 18.7835C20.6021 21.073 19.4195 22.878 15.9793 24.2277Z" fill="#E6DAFE"/>
<path d="M11.7935 9.75985L12.3448 9.49688L12.8962 9.75985L12.7884 9.14689L13.2048 8.72821L12.6148 8.67129L12.3448 8.09032L12.0565 8.67129L11.4712 8.72821L11.8965 9.14689L11.7935 9.75985Z" fill="#E6DAFE"/>
<path d="M14.1635 9.19017L14.7125 8.92721L15.2633 9.19017L15.1561 8.57721L15.5747 8.15854L14.9844 8.10162L14.7143 7.52064L14.4264 8.10162L13.8408 8.15854L14.266 8.57721L14.1635 9.19017Z" fill="#E6DAFE"/>
<path d="M16.7136 9.19017L17.265 8.92721L17.8163 9.19017L17.7086 8.57721L18.1273 8.15854L17.5373 8.10162L17.265 7.52064L16.9766 8.10162L16.3914 8.15854L16.8167 8.57721L16.7136 9.19017Z" fill="#E6DAFE"/>
<path d="M19.0813 9.75985L19.6302 9.49688L20.1816 9.75985L20.0739 9.14689L20.4925 8.72821L19.9022 8.67129L19.6326 8.09032L19.3442 8.67129L18.7586 8.72821L19.1843 9.14689L19.0813 9.75985Z" fill="#E6DAFE"/>
<path d="M14.6391 16.2013C14.3234 15.8513 14.1131 15.3367 14.0971 14.6551C13.4315 14.7214 12.1256 15.0577 12.1256 15.0577L12.0889 18.72C12.1665 20.621 13.1615 21.8398 14.6395 22.6955V16.2018L14.6391 16.2013Z" fill="#E6DAFE"/>
<path d="M17.8803 14.6593C17.8873 15.3297 17.6902 15.8485 17.3496 16.2056V22.6974C18.6259 21.9908 19.7079 21.0114 19.8725 18.9623L19.8655 15.03C19.8655 15.03 18.5502 14.7214 17.8798 14.6593H17.8803Z" fill="#E6DAFE"/>
<path d="M16.597 14.0398C15.6843 12.4088 13.8337 14.3211 14.6687 15.595C14.3418 13.8201 16.039 13.8408 16.597 14.0398Z" fill="#E6DAFE"/>
<path d="M17.288 15.6867C15.8927 16.8806 15.0512 15.1674 15.0281 14.6894C14.1315 16.366 16.6567 17.0933 17.288 15.6867Z" fill="#E6DAFE"/>
<path d="M16.357 15.7756C18.132 15.8005 17.5806 13.2231 16.0644 13.2527C17.67 13.9574 16.8035 15.4214 16.357 15.7756Z" fill="#E6DAFE"/>
<path d="M15.5724 14.6071V14.536H15.236L15.2313 15.0394H15.3254V14.8286H15.5286V14.7463H15.3254V14.6071H15.5724Z" fill="#E6DAFE"/>
<path d="M15.7784 14.536H15.6938V15.037H15.7784V14.536Z" fill="#E6DAFE"/>
<path d="M16.2766 14.6734V14.6071C16.2766 14.5704 16.2263 14.536 16.1896 14.536H15.9929C15.9515 14.536 15.913 14.5934 15.913 14.6344V14.95C15.913 14.9914 15.952 15.037 15.9929 15.037H16.1896C16.231 15.037 16.2766 14.9778 16.2766 14.934V14.783H16.135V14.8606L16.1806 14.8766V14.9246C16.1806 14.9383 16.1646 14.9477 16.151 14.9477H16.0433C16.0273 14.9477 16.0136 14.9246 16.0136 14.911V14.6409C16.0136 14.625 16.0296 14.6066 16.0433 14.6066H16.151C16.1646 14.6066 16.1806 14.6179 16.1806 14.6315V14.6729H16.2766V14.6734Z" fill="#E6DAFE"/>
<path d="M16.7776 14.6734V14.6118C16.7776 14.5751 16.7343 14.5365 16.6976 14.5365H16.5076C16.4662 14.5365 16.4229 14.5916 16.4229 14.6325V14.9552C16.4229 14.9942 16.4596 15.0399 16.4982 15.0399H16.6972C16.7315 15.0399 16.7771 15.0008 16.7771 14.9646V14.903L16.6812 14.9053V14.9444C16.6812 14.9557 16.6605 14.9674 16.6539 14.9674H16.5302C16.5142 14.9674 16.5029 14.9467 16.5029 14.9307V14.6447C16.5029 14.6311 16.5189 14.6151 16.5325 14.6151H16.6539C16.6675 14.6151 16.6812 14.6311 16.6812 14.6447V14.6743H16.7771L16.7776 14.6734Z" fill="#E6DAFE"/>
<path d="M12.1345 14.401C12.8392 14.2133 13.5618 14.099 14.2985 14.028C14.3258 13.932 14.3695 13.8243 14.4448 13.717C13.6714 13.8041 12.8962 13.884 12.1345 14.076V14.401Z" fill="#E6DAFE"/>
<path d="M19.8659 14.0877C19.1067 13.8958 18.3286 13.8154 17.5557 13.7288C17.631 13.8365 17.6747 13.9438 17.702 14.0398C18.441 14.1108 19.1636 14.2251 19.8659 14.4128V14.0877Z" fill="#E6DAFE"/>
<path d="M12.4182 11.7982L12.1322 11.8598V13.4564L12.4182 13.3741V11.7982Z" fill="#E6DAFE"/>
<path d="M13.3854 13.1793L13.6921 13.129V11.8231L14.0811 11.7544V11.4962L13.0011 11.6721V11.9421L13.3854 11.8664V13.1793Z" fill="#E6DAFE"/>
<path d="M14.9778 12.9874L14.9801 12.7061L15.4331 12.683L15.4378 12.9714L15.7488 12.9625L15.7352 11.5856C15.7352 11.4962 15.6368 11.3889 15.5475 11.3936L14.8978 11.4303C14.7835 11.4374 14.6668 11.5719 14.6668 11.6886L14.6781 13.0128L14.9778 12.9879V12.9874ZM14.9594 11.7681C14.9594 11.7361 15.0008 11.7065 15.0328 11.7065L15.3621 11.6834C15.3917 11.6811 15.4444 11.7107 15.4444 11.7408V12.3768L14.9594 12.4088V11.7681Z" fill="#E6DAFE"/>
<path d="M17.2923 12.7611L16.684 12.7127V11.4021L16.389 11.3932L16.3754 12.962L17.288 13.0147L17.2923 12.7611Z" fill="#E6DAFE"/>
<path d="M18.2006 11.5602L17.9099 11.4985V13.0994L18.2006 13.1361V11.5602Z" fill="#E6DAFE"/>
<path d="M19.0926 12.9394L19.5319 13.033L19.5366 13.376L19.8292 13.456L19.8109 12.031C19.8085 11.9351 19.7173 11.8344 19.6232 11.8137L19.0149 11.6764C19.006 11.6716 18.9966 11.6693 18.9853 11.6693C18.9053 11.6693 18.8047 11.7286 18.8047 11.802L18.7816 13.2066L19.0883 13.2683L19.093 12.939L19.0926 12.9394ZM19.0902 12.0155C19.0878 11.9972 19.1062 11.9699 19.1245 11.9675H19.1335L19.4811 12.0339C19.5084 12.0386 19.5385 12.0635 19.5385 12.0913L19.5249 12.7315L19.0855 12.6421L19.0902 12.0155Z" fill="#E6DAFE"/>
<path d="M16 4C22.6273 4 28 9.37269 28 16C28 22.6273 22.6273 28 16 28C9.37269 28 4 22.6273 4 16C4 9.37269 9.37269 4 16 4ZM27.5907 16C27.5907 9.59849 22.4015 4.40927 16 4.40927C9.59849 4.40927 4.40927 9.59849 4.40927 16C4.40927 22.4015 9.59849 27.5907 16 27.5907C22.4015 27.5907 27.5907 22.4015 27.5907 16Z" fill="#E6DAFE"/>
</svg>
