<svg width="32" height="32" viewBox="0 0 32 32" fill="none" xmlns="http://www.w3.org/2000/svg">
<path fill-rule="evenodd" clip-rule="evenodd" d="M16.4844 23.4083L24.9989 18.064L16.4844 30.365V23.4083ZM17.7505 24.1039V26.3267L20.4771 22.3891L17.7505 24.1039Z" fill="#E6DAFE"/>
<path fill-rule="evenodd" clip-rule="evenodd" d="M17.3573 12.3052L23.6429 15.8614L23.0229 16.9573L16.7373 13.401L17.3573 12.3052Z" fill="#E6DAFE"/>
<path fill-rule="evenodd" clip-rule="evenodd" d="M16.4844 2L24.9701 16.6055L16.4844 21.9575V2ZM17.7357 6.67409V19.6882L23.2778 16.1927L17.7357 6.67409Z" fill="#E6DAFE"/>
<path fill-rule="evenodd" clip-rule="evenodd" d="M16.5145 23.4083L8 18.064L16.5145 30.365V23.4083ZM15.2484 24.1039V26.3267L12.5219 22.3891L15.2484 24.1039Z" fill="#E6DAFE"/>
<path fill-rule="evenodd" clip-rule="evenodd" d="M15.3832 12.4238L9.09766 15.98L9.71769 17.0759L16.0033 13.5197L15.3832 12.4238Z" fill="#E6DAFE"/>
<path fill-rule="evenodd" clip-rule="evenodd" d="M16.4857 2L8 16.6055L16.4857 21.9575V2ZM15.2343 6.67409V19.6882L9.69224 16.1927L15.2343 6.67409Z" fill="#E6DAFE"/>
</svg>
