<?xml version="1.0" encoding="UTF-8"?>
<!DOCTYPE svg PUBLIC "-//W3C//DTD SVG 1.1//EN" "http://www.w3.org/Graphics/SVG/1.1/DTD/svg11.dtd">
<svg xmlns="http://www.w3.org/2000/svg" version="1.1" width="64px" height="64px" style="shape-rendering:geometricPrecision; text-rendering:geometricPrecision; image-rendering:optimizeQuality; fill-rule:evenodd; clip-rule:evenodd" xmlns:xlink="http://www.w3.org/1999/xlink">
<g><path style="opacity:1" fill="#f8de8c" d="M -0.5,-0.5 C 20.8333,-0.5 42.1667,-0.5 63.5,-0.5C 63.5,20.8333 63.5,42.1667 63.5,63.5C 59.5,63.5 55.5,63.5 51.5,63.5C 51.3203,59.7845 51.6536,56.1178 52.5,52.5C 52.0711,49.9712 51.4045,47.6379 50.5,45.5C 51.6857,44.0387 51.6857,42.7054 50.5,41.5C 50.8333,40.8333 51.1667,40.1667 51.5,39.5C 51.6036,37.2972 52.2702,35.2972 53.5,33.5C 54.7384,31.7857 55.405,29.7857 55.5,27.5C 55.3662,16.6774 49.6996,10.344 38.5,8.5C 34.6888,7.35472 30.6888,7.18806 26.5,8C 24.8807,8.23555 23.8807,9.06888 23.5,10.5C 18.7277,10.1386 14.8943,12.1386 12,16.5C 10.4295,21.5199 8.59616,26.3532 6.5,31C 6.52857,33.9251 7.86191,35.7585 10.5,36.5C 10.369,37.2389 10.5357,37.9056 11,38.5C 12.2917,37.2089 13.4583,37.2089 14.5,38.5C 13.7109,38.7828 13.0442,39.2828 12.5,40C 13.5981,40.7697 13.5981,41.603 12.5,42.5C 12.5,43.1667 12.1667,43.5 11.5,43.5C 8.17146,47.1606 6.17146,51.4939 5.5,56.5C 5.5,58.8333 5.5,61.1667 5.5,63.5C 3.5,63.5 1.5,63.5 -0.5,63.5C -0.5,42.1667 -0.5,20.8333 -0.5,-0.5 Z"/></g>
<g><path style="opacity:1" fill="#13120f" d="M 38.5,8.5 C 34.6286,8.18503 30.9619,8.51836 27.5,9.5C 26.0413,9.43255 24.7079,9.76589 23.5,10.5C 23.8807,9.06888 24.8807,8.23555 26.5,8C 30.6888,7.18806 34.6888,7.35472 38.5,8.5 Z"/></g>
<g><path style="opacity:1" fill="#ecc490" d="M 27.5,9.5 C 36.6391,8.35647 44.3058,11.0231 50.5,17.5C 49.1667,17.5 47.8333,17.5 46.5,17.5C 38.7995,10.8472 30.2995,9.84715 21,14.5C 20.6012,14.2716 20.4346,13.9382 20.5,13.5C 21.3065,12.2719 22.3065,11.2719 23.5,10.5C 24.7079,9.76589 26.0413,9.43255 27.5,9.5 Z"/></g>
<g><path style="opacity:1" fill="#e6d2b6" d="M 46.5,17.5 C 42.9581,17.1872 39.6248,17.5206 36.5,18.5C 33.5827,19.4174 30.5827,20.084 27.5,20.5C 26.2905,20.9321 25.2905,21.5987 24.5,22.5C 22.6214,22.3932 22.2881,22.8932 23.5,24C 21.8446,25.4443 21.178,27.2776 21.5,29.5C 21.1667,29.5 20.8333,29.5 20.5,29.5C 20.6567,28.1266 20.49,26.7932 20,25.5C 19.2828,26.0442 18.7828,26.7109 18.5,27.5C 18.6716,28.4916 18.3382,29.1583 17.5,29.5C 16.8826,29.3893 16.3826,29.056 16,28.5C 15.5065,30.1341 15.3398,31.8008 15.5,33.5C 14.1093,30.9856 12.4426,28.4856 10.5,26C 12.3668,25.2888 13.8668,25.7888 15,27.5C 14.8047,25.8739 14.8047,24.2072 15,22.5C 15.3333,22.8333 15.6667,23.1667 16,23.5C 16.7217,19.7301 18.2217,16.3968 20.5,13.5C 20.4346,13.9382 20.6012,14.2716 21,14.5C 30.2995,9.84715 38.7995,10.8472 46.5,17.5 Z"/></g>
<g><path style="opacity:1" fill="#b3a798" d="M 27.5,9.5 C 30.9619,8.51836 34.6286,8.18503 38.5,8.5C 49.6996,10.344 55.3662,16.6774 55.5,27.5C 54.5,27.5 53.5,27.5 52.5,27.5C 53.3285,25.0665 52.8285,22.7332 51,20.5C 50.6174,21.056 50.1174,21.3893 49.5,21.5C 49.5,21.1667 49.5,20.8333 49.5,20.5C 49.5,20.1667 49.5,19.8333 49.5,19.5C 49.8333,18.8333 50.1667,18.1667 50.5,17.5C 44.3058,11.0231 36.6391,8.35647 27.5,9.5 Z"/></g>
<g><path style="opacity:1" fill="#533818" d="M 36.5,18.5 C 39.6248,17.5206 42.9581,17.1872 46.5,17.5C 47.8333,17.5 49.1667,17.5 50.5,17.5C 50.1667,18.1667 49.8333,18.8333 49.5,19.5C 45.2648,18.564 40.9315,18.2307 36.5,18.5 Z"/></g>
<g><path style="opacity:1" fill="#dc8f2e" d="M 36.5,18.5 C 40.9315,18.2307 45.2648,18.564 49.5,19.5C 49.5,19.8333 49.5,20.1667 49.5,20.5C 48.8333,20.5 48.1667,20.5 47.5,20.5C 43.1087,21.0085 38.7754,21.8418 34.5,23C 33.9341,23.9947 33.2674,24.828 32.5,25.5C 31.7377,23.7376 30.4044,22.7376 28.5,22.5C 28.1667,21.8333 27.8333,21.1667 27.5,20.5C 30.5827,20.084 33.5827,19.4174 36.5,18.5 Z"/></g>
<g><path style="opacity:1" fill="#000000" d="M 27.5,20.5 C 27.8333,21.1667 28.1667,21.8333 28.5,22.5C 27.1667,22.5 25.8333,22.5 24.5,22.5C 25.2905,21.5987 26.2905,20.9321 27.5,20.5 Z"/></g>
<g><path style="opacity:1" fill="#f1c206" d="M 47.5,20.5 C 44.5194,23.7244 44.8527,26.5577 48.5,29C 50.1124,29.7203 51.6124,29.5536 53,28.5C 53.4935,30.1341 53.6602,31.8008 53.5,33.5C 52.2702,35.2972 51.6036,37.2972 51.5,39.5C 48.0917,40.3668 44.7584,41.5335 41.5,43C 34.5625,44.3435 28.2292,43.0102 22.5,39C 20.9632,37.8904 20.2965,36.3904 20.5,34.5C 23.9,35.9862 27.2333,35.8195 30.5,34C 31.7383,33.31 31.7383,32.81 30.5,32.5C 32.1675,30.5214 32.8342,28.188 32.5,25.5C 33.2674,24.828 33.9341,23.9947 34.5,23C 38.7754,21.8418 43.1087,21.0085 47.5,20.5 Z"/></g>
<g><path style="opacity:1" fill="#6b665e" d="M 47.5,20.5 C 48.1667,20.5 48.8333,20.5 49.5,20.5C 49.5,20.8333 49.5,21.1667 49.5,21.5C 47.6231,22.6591 47.1231,24.3258 48,26.5C 49.3561,27.3802 50.8561,27.7135 52.5,27.5C 53.5,27.5 54.5,27.5 55.5,27.5C 55.405,29.7857 54.7384,31.7857 53.5,33.5C 53.6602,31.8008 53.4935,30.1341 53,28.5C 51.6124,29.5536 50.1124,29.7203 48.5,29C 44.8527,26.5577 44.5194,23.7244 47.5,20.5 Z"/></g>
<g><path style="opacity:1" fill="#1b1a19" d="M 52.5,27.5 C 50.8561,27.7135 49.3561,27.3802 48,26.5C 47.1231,24.3258 47.6231,22.6591 49.5,21.5C 50.1174,21.3893 50.6174,21.056 51,20.5C 52.8285,22.7332 53.3285,25.0665 52.5,27.5 Z"/></g>
<g><path style="opacity:1" fill="#0b0908" d="M 24.5,22.5 C 27.8585,22.654 30.1919,24.3206 31.5,27.5C 29.0495,32.022 25.7162,32.6887 21.5,29.5C 21.178,27.2776 21.8446,25.4443 23.5,24C 22.2881,22.8932 22.6214,22.3932 24.5,22.5 Z"/></g>
<g><path style="opacity:1" fill="#f3f3f3" d="M 27.5,24.5 C 29.332,25.1405 29.6653,26.1405 28.5,27.5C 27.6143,26.675 27.281,25.675 27.5,24.5 Z"/></g>
<g><path style="opacity:1" fill="#010000" d="M 20.5,29.5 C 19.8333,28.8333 19.1667,28.1667 18.5,27.5C 18.7828,26.7109 19.2828,26.0442 20,25.5C 20.49,26.7932 20.6567,28.1266 20.5,29.5 Z"/></g>
<g><path style="opacity:1" fill="#a78b67" d="M 23.5,10.5 C 22.3065,11.2719 21.3065,12.2719 20.5,13.5C 18.2217,16.3968 16.7217,19.7301 16,23.5C 15.6667,23.1667 15.3333,22.8333 15,22.5C 14.8047,24.2072 14.8047,25.8739 15,27.5C 13.8668,25.7888 12.3668,25.2888 10.5,26C 12.4426,28.4856 14.1093,30.9856 15.5,33.5C 15.5,34.1667 15.5,34.8333 15.5,35.5C 15.5,35.8333 15.5,36.1667 15.5,36.5C 13.64,35.9285 11.9733,35.9285 10.5,36.5C 7.86191,35.7585 6.52857,33.9251 6.5,31C 8.59616,26.3532 10.4295,21.5199 12,16.5C 14.8943,12.1386 18.7277,10.1386 23.5,10.5 Z"/></g>
<g><path style="opacity:1" fill="#d48b2d" d="M 18.5,27.5 C 19.1667,28.1667 19.8333,28.8333 20.5,29.5C 20.5743,31.4109 21.5743,32.5776 23.5,33C 25.9291,33.7033 28.2625,33.5366 30.5,32.5C 31.7383,32.81 31.7383,33.31 30.5,34C 27.2333,35.8195 23.9,35.9862 20.5,34.5C 20.2965,36.3904 20.9632,37.8904 22.5,39C 28.2292,43.0102 34.5625,44.3435 41.5,43C 44.7584,41.5335 48.0917,40.3668 51.5,39.5C 51.1667,40.1667 50.8333,40.8333 50.5,41.5C 47.0974,43.7359 43.4308,45.0692 39.5,45.5C 37.5,45.5 35.5,45.5 33.5,45.5C 29.3168,44.373 24.9834,43.373 20.5,42.5C 20.1436,40.8102 19.1436,39.8102 17.5,39.5C 16.8333,38.5 16.1667,37.5 15.5,36.5C 15.5,36.1667 15.5,35.8333 15.5,35.5C 16.4582,33.6976 17.1249,31.6976 17.5,29.5C 18.3382,29.1583 18.6716,28.4916 18.5,27.5 Z"/></g>
<g><path style="opacity:1" fill="#7d7b79" d="M 24.5,22.5 C 25.8333,22.5 27.1667,22.5 28.5,22.5C 30.4044,22.7376 31.7377,23.7376 32.5,25.5C 32.8342,28.188 32.1675,30.5214 30.5,32.5C 28.2625,33.5366 25.9291,33.7033 23.5,33C 21.5743,32.5776 20.5743,31.4109 20.5,29.5C 20.8333,29.5 21.1667,29.5 21.5,29.5C 25.7162,32.6887 29.0495,32.022 31.5,27.5C 30.1919,24.3206 27.8585,22.654 24.5,22.5 Z"/></g>
<g><path style="opacity:1" fill="#232221" d="M 17.5,29.5 C 17.1249,31.6976 16.4582,33.6976 15.5,35.5C 15.5,34.8333 15.5,34.1667 15.5,33.5C 15.3398,31.8008 15.5065,30.1341 16,28.5C 16.3826,29.056 16.8826,29.3893 17.5,29.5 Z"/></g>
<g><path style="opacity:1" fill="#221c15" d="M 15.5,36.5 C 16.1667,37.5 16.8333,38.5 17.5,39.5C 16.8826,39.6107 16.3826,39.944 16,40.5C 15.7216,39.5842 15.2216,38.9175 14.5,38.5C 13.4583,37.2089 12.2917,37.2089 11,38.5C 10.5357,37.9056 10.369,37.2389 10.5,36.5C 11.9733,35.9285 13.64,35.9285 15.5,36.5 Z"/></g>
<g><path style="opacity:1" fill="#312517" d="M 14.5,38.5 C 14.4326,39.9587 14.7659,41.2921 15.5,42.5C 14.5,42.5 13.5,42.5 12.5,42.5C 13.5981,41.603 13.5981,40.7697 12.5,40C 13.0442,39.2828 13.7109,38.7828 14.5,38.5 Z"/></g>
<g><path style="opacity:1" fill="#d7b587" d="M 14.5,38.5 C 15.2216,38.9175 15.7216,39.5842 16,40.5C 16.3826,39.944 16.8826,39.6107 17.5,39.5C 18.9143,41.5983 18.2476,42.5983 15.5,42.5C 14.7659,41.2921 14.4326,39.9587 14.5,38.5 Z"/></g>
<g><path style="opacity:1" fill="#1a1208" d="M 17.5,39.5 C 19.1436,39.8102 20.1436,40.8102 20.5,42.5C 19.2905,42.9321 18.2905,43.5987 17.5,44.5C 16.5,44.1667 15.8333,43.5 15.5,42.5C 18.2476,42.5983 18.9143,41.5983 17.5,39.5 Z"/></g>
<g><path style="opacity:1" fill="#191716" d="M 50.5,41.5 C 51.6857,42.7054 51.6857,44.0387 50.5,45.5C 50.1667,45.5 49.8333,45.5 49.5,45.5C 49.8333,44.1667 50.1667,42.8333 50.5,41.5 Z"/></g>
<g><path style="opacity:1" fill="#f8c40e" d="M 12.5,42.5 C 13.5,42.5 14.5,42.5 15.5,42.5C 15.8333,43.5 16.5,44.1667 17.5,44.5C 17.5191,46.0603 17.8524,47.5603 18.5,49C 15.5005,53.4911 13.1671,58.3245 11.5,63.5C 9.5,63.5 7.5,63.5 5.5,63.5C 5.5,61.1667 5.5,58.8333 5.5,56.5C 8.27413,52.613 10.2741,48.2797 11.5,43.5C 12.1667,43.5 12.5,43.1667 12.5,42.5 Z"/></g>
<g><path style="opacity:1" fill="#b79871" d="M 50.5,41.5 C 50.1667,42.8333 49.8333,44.1667 49.5,45.5C 49.6716,46.4916 49.3382,47.1583 48.5,47.5C 46.2552,48.2919 45.9219,49.6253 47.5,51.5C 46.1667,52.1667 44.8333,52.8333 43.5,53.5C 42.0598,51.2348 40.3932,51.0681 38.5,53C 39.4158,53.2784 40.0825,53.7784 40.5,54.5C 33.9147,54.9779 27.7481,53.6445 22,50.5C 20.5877,54.728 19.7544,59.0613 19.5,63.5C 16.8333,63.5 14.1667,63.5 11.5,63.5C 13.1671,58.3245 15.5005,53.4911 18.5,49C 17.8524,47.5603 17.5191,46.0603 17.5,44.5C 18.2905,43.5987 19.2905,42.9321 20.5,42.5C 24.9834,43.373 29.3168,44.373 33.5,45.5C 32.448,45.3505 31.448,45.5172 30.5,46C 33.1547,46.5643 35.8214,47.0643 38.5,47.5C 42.8245,46.916 43.1578,46.2493 39.5,45.5C 43.4308,45.0692 47.0974,43.7359 50.5,41.5 Z"/></g>
<g><path style="opacity:1" fill="#f1e5d7" d="M 33.5,45.5 C 35.5,45.5 37.5,45.5 39.5,45.5C 43.1578,46.2493 42.8245,46.916 38.5,47.5C 35.8214,47.0643 33.1547,46.5643 30.5,46C 31.448,45.5172 32.448,45.3505 33.5,45.5 Z"/></g>
<g><path style="opacity:1" fill="#f6c900" d="M 50.5,45.5 C 51.4045,47.6379 52.0711,49.9712 52.5,52.5C 51.6536,56.1178 51.3203,59.7845 51.5,63.5C 50.8333,63.5 50.1667,63.5 49.5,63.5C 49.3032,57.4549 49.6365,51.4549 50.5,45.5 Z"/></g>
<g><path style="opacity:1" fill="#865a24" d="M 11.5,43.5 C 10.2741,48.2797 8.27413,52.613 5.5,56.5C 6.17146,51.4939 8.17146,47.1606 11.5,43.5 Z"/></g>
<g><path style="opacity:1" fill="#fcfcfb" d="M 40.5,54.5 C 40.3433,55.8734 40.51,57.2068 41,58.5C 41.0496,56.256 41.8829,54.5893 43.5,53.5C 44.8333,52.8333 46.1667,52.1667 47.5,51.5C 47.5,55.5 47.5,59.5 47.5,63.5C 38.1667,63.5 28.8333,63.5 19.5,63.5C 19.7544,59.0613 20.5877,54.728 22,50.5C 27.7481,53.6445 33.9147,54.9779 40.5,54.5 Z"/></g>
<g><path style="opacity:1" fill="#181007" d="M 48.5,47.5 C 48.5,52.8333 48.5,58.1667 48.5,63.5C 48.1667,63.5 47.8333,63.5 47.5,63.5C 47.5,59.5 47.5,55.5 47.5,51.5C 45.9219,49.6253 46.2552,48.2919 48.5,47.5 Z"/></g>
<g><path style="opacity:1" fill="#0d0a07" d="M 43.5,53.5 C 41.8829,54.5893 41.0496,56.256 41,58.5C 40.51,57.2068 40.3433,55.8734 40.5,54.5C 40.0825,53.7784 39.4158,53.2784 38.5,53C 40.3932,51.0681 42.0598,51.2348 43.5,53.5 Z"/></g>
<g><path style="opacity:1" fill="#d88b30" d="M 49.5,45.5 C 49.8333,45.5 50.1667,45.5 50.5,45.5C 49.6365,51.4549 49.3032,57.4549 49.5,63.5C 49.1667,63.5 48.8333,63.5 48.5,63.5C 48.5,58.1667 48.5,52.8333 48.5,47.5C 49.3382,47.1583 49.6716,46.4916 49.5,45.5 Z"/></g>
</svg>
