<svg width="32" height="32" viewBox="0 0 32 32" fill="none" xmlns="http://www.w3.org/2000/svg">
<g clip-path="url(#clip0_6_4321)">
<path fill-rule="evenodd" clip-rule="evenodd" d="M26.3776 23.5712C26.1822 23.1187 25.8363 22.7576 25.494 22.3982C25.4205 22.3211 25.347 22.245 25.2754 22.167C24.9115 21.7647 24.58 21.3345 24.2834 20.8802C23.3881 19.4966 22.7205 17.8208 22.2635 16.2517H22.2617C22.2312 16.1487 22.2017 16.0456 22.173 15.9417C22.0825 15.7006 21.9956 15.4587 21.9086 15.2185C21.6129 14.3986 21.3199 13.5876 20.922 12.8214C20.75 12.4871 20.5555 12.1645 20.3395 11.8563C19.8189 11.1188 19.2651 10.401 18.5993 9.78892C17.4531 9.7925 16.2559 9.59984 15.1618 9.03887C14.444 8.66429 13.8059 8.15529 13.2808 7.53966C12.4187 7.52353 11.5594 7.65436 10.7412 7.92768C9.43645 8.35961 8.33422 9.11862 7.45244 10.0846C7.45244 10.0864 7.45334 10.0873 7.45423 10.0891C5.82688 11.9486 4.97019 14.5133 4.99976 17.0188C5.01769 18.5117 5.41019 19.916 6.05539 21.2064C6.12798 21.3515 6.20325 21.4949 6.28211 21.6365C6.27763 21.641 6.27315 21.6455 6.26867 21.6499C6.93538 22.814 7.80641 23.8741 8.78587 24.8088C9.15417 25.16 9.54309 25.488 9.95082 25.7918L10.0637 25.876C13.5577 28.43 17.6798 28.8574 17.6798 28.8574C18.5347 28.9453 19.4981 29.0169 20.4686 28.9981V29.0017C23.0557 28.9336 25.7637 28.1943 26.4555 25.3823C26.6025 24.7855 26.6204 24.1367 26.3776 23.573V23.5712Z" fill="#E6DAFE"/>
<path fill-rule="evenodd" clip-rule="evenodd" d="M13.1585 5.32375C16.6139 11.3824 23.1807 7.3445 23.7183 6.9986C23.7183 6.9986 23.7183 6.9986 23.7192 6.9986L23.7551 6.9753C19.1598 -0.863953 13.1504 5.30762 13.1504 5.30762L13.1594 5.32285C13.1594 5.32285 13.1594 5.32285 13.1585 5.32285V5.32375Z" fill="#E6DAFE"/>
</g>
<defs>
<clipPath id="clip0_6_4321">
<rect width="21.5642" height="26" fill="white" transform="translate(5 3)"/>
</clipPath>
</defs>
</svg>
