<svg width="32" height="32" viewBox="0 0 32 32" fill="none" xmlns="http://www.w3.org/2000/svg">
<path d="M13.4528 5.61194C13.0217 5.18083 13.0046 4.92418 13.3734 4.39815C13.6375 4.02149 13.7773 4 15.9822 4C17.2636 4 18.4683 4.08346 18.6589 4.18537C18.8841 4.30609 19.0051 4.56024 19.0051 4.91415C19.0051 5.38501 18.3099 6.16537 13.7861 10.7735C10.6793 13.9381 8.46096 16.341 8.30449 16.711C7.90707 17.6519 8.08201 19.0482 8.69959 19.8573C9.20501 20.5202 10.3686 21.1836 11.0351 21.189C12.3543 21.1999 12.7305 20.9128 16.6769 16.8833C19.8391 13.6542 20.615 12.9516 21.0157 12.9533C21.6725 12.9559 22.1807 13.6955 21.9143 14.2611C21.8123 14.4787 20.0801 16.3492 18.0653 18.4179C14.0104 22.5819 13.4196 23.009 11.5438 23.1317C9.52257 23.2637 7.74691 22.3073 6.70146 20.5238C6.31512 19.8642 6.08249 19.4273 6.02018 18.2388C5.89417 15.8366 6.21773 15.5094 11.1561 10.5211L11.2091 10.4676C13.5267 8.12656 15.4228 6.15695 15.4228 6.09069C15.4228 6.02441 15.0605 5.97015 14.6169 5.97015C14.0496 5.97015 13.7049 5.86393 13.4528 5.61194Z" fill="#E6DAFE"/>
<path d="M13.9034 13.7209C17.6384 9.87373 18.2717 9.33822 19.6006 8.90407C21.1473 8.39846 23.3107 8.96624 24.5911 10.2135C25.6019 11.1982 26.0722 12.4188 26.0625 14.0298C26.0496 16.1703 25.8165 16.5081 20.922 21.4874L16.6327 25.8507H17.421C18.4263 25.8507 19.0051 26.2433 19.0051 26.9254C19.0051 27.8207 18.5052 28 16.01 28C14.0497 28 13.7723 27.9611 13.4529 27.6418C13.2558 27.4448 13.0947 27.1172 13.0947 26.9139C13.0947 26.6709 14.8782 24.7249 18.3063 21.2273C21.1727 18.3031 23.6458 15.6687 23.8027 15.3732C24.1752 14.6701 24.1664 13.1947 23.7851 12.472C23.0402 11.0598 21.0827 10.3984 19.6541 11.0763C19.271 11.2578 17.5346 12.9086 15.4654 15.0577C13.5212 17.0769 11.7382 18.8023 11.5032 18.8917C10.8972 19.1225 10.2288 18.6561 10.2288 18.0022C10.2288 17.5982 10.9157 16.7979 13.9034 13.7209Z" fill="#E6DAFE"/>
</svg>
