<svg width="32" height="32" viewBox="0 0 32 32" fill="none" xmlns="http://www.w3.org/2000/svg">
<path d="M28.0374 26.1116V27.0749H27.0742V28.0374H29V26.1116H28.0374Z" fill="#E6DAFE"/>
<path d="M28.0374 25.149H27.0742V26.1116H28.0374V25.149Z" fill="#E6DAFE"/>
<path d="M27.0742 26.1116H26.1116V27.0749H27.0742V26.1116Z" fill="#E6DAFE"/>
<path d="M27.0742 24.1857H26.1116V25.149L27.0742 25.149V24.1857Z" fill="#E6DAFE"/>
<path d="M26.1116 25.149L25.1483 25.149V26.1116H26.1116V25.149Z" fill="#E6DAFE"/>
<path d="M26.1116 23.2225H25.1483V24.1857H26.1116L26.1116 23.2225Z" fill="#E6DAFE"/>
<path d="M25.1483 24.1857H24.1857V25.149L25.1483 25.149V24.1857Z" fill="#E6DAFE"/>
<path d="M25.1483 22.2599H24.1857V23.2225H25.1483V22.2599Z" fill="#E6DAFE"/>
<path d="M24.1857 23.2225H23.2225V24.1857H24.1857V23.2225Z" fill="#E6DAFE"/>
<path d="M24.1857 21.2966H23.2225V22.2599H24.1857V21.2966Z" fill="#E6DAFE"/>
<path d="M23.2225 22.2599H22.2592V23.2225H23.2225V22.2599Z" fill="#E6DAFE"/>
<path d="M23.2225 20.334H22.2592V21.2966H23.2225V20.334Z" fill="#E6DAFE"/>
<path d="M22.2592 21.2966H21.2966V22.2599H22.2592V21.2966Z" fill="#E6DAFE"/>
<path d="M22.2592 19.3708H21.2966V20.334H22.2592V19.3708Z" fill="#E6DAFE"/>
<path d="M21.2966 20.334H20.3333V21.2966H21.2966V20.334Z" fill="#E6DAFE"/>
<path d="M21.2966 18.4082H20.3333V19.3708H21.2966L21.2966 18.4082Z" fill="#E6DAFE"/>
<path d="M20.3333 19.3708H19.3708V20.334H20.3333V19.3708Z" fill="#E6DAFE"/>
<path d="M20.3333 17.4449H19.3708V18.4082H20.3333V17.4449Z" fill="#E6DAFE"/>
<path d="M19.3708 18.4082H18.4075V19.3708H19.3708V18.4082Z" fill="#E6DAFE"/>
<path d="M19.3708 16.4816H18.4075V17.4449H19.3708V16.4816Z" fill="#E6DAFE"/>
<path d="M18.4075 17.4449H17.4449V18.4082H18.4075V17.4449Z" fill="#E6DAFE"/>
<path d="M18.4075 15.5191H17.4449V16.4816H18.4075V15.5191Z" fill="#E6DAFE"/>
<path d="M17.4449 16.4816H16.4816V17.4449H17.4449V16.4816Z" fill="#E6DAFE"/>
<path d="M17.4449 14.5558H16.4816V15.5191L17.4449 15.5191V14.5558Z" fill="#E6DAFE"/>
<path d="M16.4816 15.5191L15.5184 15.5191V16.4816H16.4816V15.5191Z" fill="#E6DAFE"/>
<path d="M16.4816 13.5932H15.5184V14.5558H16.4816L16.4816 13.5932Z" fill="#E6DAFE"/>
<path d="M15.5184 14.5558H14.5558V15.5191L15.5184 15.5191V14.5558Z" fill="#E6DAFE"/>
<path d="M15.5184 12.6299H14.5558V13.5932H15.5184V12.6299Z" fill="#E6DAFE"/>
<path d="M14.5558 13.5932H13.5925V14.5558H14.5558V13.5932Z" fill="#E6DAFE"/>
<path d="M14.5558 11.6674H13.5925V12.6299H14.5558V11.6674Z" fill="#E6DAFE"/>
<path d="M11.6667 12.6299V13.5932H13.5925V12.6299H11.6667Z" fill="#E6DAFE"/>
<path d="M9.74082 11.6674V9.74082H8.77754V8.77825H9.74082V9.74082H11.6667V11.6674L13.5925 11.6674V8.77825H12.6299V5.88912H11.6667V3H3V10.7041H5.88912V11.6674H8.77754V12.6299H11.6667V11.6674H9.74082ZM7.81497 7.81497V8.77825H5.88912V5.88912H4.92585V9.74082H3.96257V3.96328H10.7034V4.92655H5.88912V5.88912H8.77754V7.81497H7.81497Z" fill="#E6DAFE"/>
<path d="M7.81497 6.8524H6.85169V7.81497H7.81497L7.81497 6.8524Z" fill="#E6DAFE"/>
<path d="M14.5551 7.81426V10.7175L14.5558 10.7041H15.5184V11.6737V11.6674H16.4809L16.4816 12.6299H17.4442V14.1757H17.9941V14.5558H18.4075V14.9408H19.1414V16.0874H19.9058V15.7052H20.6709V14.9408H21.0531V14.5579H20.6709V13.4113H21.8175V12.6462H21.4353V12.264H21.0531V11.4996H20.6709V13.0284H19.9058V13.4113H19.5236V13.0284H19.1414V12.6462H18.7585V12.264H19.5236V12.6462H19.9058V9.58723H19.1414V9.20504H18.7585V8.82284H18.3763V8.44064H17.9941V7.67554H17.6119V7.29334H16.4647V6.91115H13.7879V6.52895H13.5925V7.81426H14.5551Z" fill="#E6DAFE"/>
<path d="M23.347 16.4703H23.7292V15.323H23.347V15.7052H22.9648V17.2347H23.347V16.4703Z" fill="#E6DAFE"/>
<path d="M21.4353 8.05774V7.67554H21.0531V6.91115H20.6709V8.05774H21.4353Z" fill="#E6DAFE"/>
<path d="M8.05278 13.0284H8.43498V12.6462H7.67059V13.4113H8.05278V13.0284Z" fill="#E6DAFE"/>
<path d="M16.4647 19.5286H16.0825V19.1464H16.4816V18.4082L15.5184 18.4075V17.4449L14.5551 17.4442V17.4428H14.553V16.4816H13.5925V15.5191H13.6053L12.6292 15.5184V14.5558H10.7034V13.5932H8.77754V13.4113H8.43498V13.7935H8.05278V14.5579H8.43498V17.2347H9.58228V17.6169H9.96448V17.2347H10.3467V17.6169H10.7296V17.9991H11.1118V18.382H10.7296V18.7642H11.1118V19.5286H11.8762V19.9115H12.6413V20.2937H13.7879V20.6759H14.553V21.0581H16.0825V20.6759H16.4647V20.2937H16.8468V19.9115H16.4647V19.5286Z" fill="#E6DAFE"/>
<path d="M15.3174 5.76385V6.14605H16.8468V5.76385H16.4647V5.38165H15.7003V4.99946H15.3174V5.38165H14.553V5.76385H15.3174Z" fill="#E6DAFE"/>
<path d="M7.67059 17.2347V17.9991H8.05278V18.382H8.81718V18.7642H9.20008V17.6169H8.43498L8.43498 17.2347H7.67059Z" fill="#E6DAFE"/>
<path d="M7.28768 19.5286V20.2937H8.05278V19.5286H7.28768Z" fill="#E6DAFE"/>
<path d="M7.67059 16.4703H7.28768V17.2347H7.67059V16.4703Z" fill="#E6DAFE"/>
<path d="M6.52329 17.6169H6.14109V18.382H6.52329V18.7642H6.90548V17.9991H6.52329V17.6169Z" fill="#E6DAFE"/>
<path d="M6.14109 13.4113H5.37599V13.0284H5.75889V12.6462H4.6116V14.1757H4.99379V14.5579H5.37599V13.7935H6.14109V13.4113Z" fill="#E6DAFE"/>
</svg>
