<?xml version="1.0" encoding="UTF-8"?>
<!DOCTYPE svg PUBLIC "-//W3C//DTD SVG 1.1//EN" "http://www.w3.org/Graphics/SVG/1.1/DTD/svg11.dtd">
<svg xmlns="http://www.w3.org/2000/svg" version="1.1" width="64px" height="64px" style="shape-rendering:geometricPrecision; text-rendering:geometricPrecision; image-rendering:optimizeQuality; fill-rule:evenodd; clip-rule:evenodd" xmlns:xlink="http://www.w3.org/1999/xlink">
<g><path style="opacity:1" fill="#fefdfc" d="M -0.5,-0.5 C 20.8333,-0.5 42.1667,-0.5 63.5,-0.5C 63.5,20.8333 63.5,42.1667 63.5,63.5C 42.1667,63.5 20.8333,63.5 -0.5,63.5C -0.5,42.1667 -0.5,20.8333 -0.5,-0.5 Z"/></g>
<g><path style="opacity:1" fill="#bb8332" d="M 37.5,61.5 C 41.8333,60.8333 46.1667,60.1667 50.5,59.5C 51.8077,41.1542 51.8077,22.8209 50.5,4.5C 37.6044,3.82453 24.7711,3.15786 12,2.5C 10.1759,3.74866 10.3426,4.91533 12.5,6C 11.5251,11.7412 11.1918,17.5746 11.5,23.5C 11.5,24.1667 11.5,24.8333 11.5,25.5C 11.2325,36.8714 11.5658,48.2047 12.5,59.5C 16.8333,60.1667 21.1667,60.8333 25.5,61.5C 20.1667,61.5 14.8333,61.5 9.5,61.5C 9.5,41.5 9.5,21.5 9.5,1.5C 24.1667,1.5 38.8333,1.5 53.5,1.5C 53.5,21.5 53.5,41.5 53.5,61.5C 48.1667,61.5 42.8333,61.5 37.5,61.5 Z"/></g>
<g><path style="opacity:1" fill="#0d0c0b" d="M 28.5,24.5 C 28.5,24.8333 28.5,25.1667 28.5,25.5C 27.2652,25.7214 26.2652,26.3881 25.5,27.5C 24.7836,26.689 23.9503,26.0223 23,25.5C 20.8649,26.1271 18.6982,26.6271 16.5,27C 17.1125,29.1474 17.7792,31.314 18.5,33.5C 19.3857,32.675 19.719,31.675 19.5,30.5C 23.2364,30.3399 23.2364,29.5066 19.5,28C 20.7839,27.3162 21.9505,27.4829 23,28.5C 23.2189,29.938 23.7189,31.2713 24.5,32.5C 25.324,30.2524 26.324,30.0858 27.5,32C 30.2617,33.0769 31.9283,32.2436 32.5,29.5C 32.8333,29.5 33.1667,29.5 33.5,29.5C 33.5,30.1667 33.5,30.8333 33.5,31.5C 33.5,32.5 33.5,33.5 33.5,34.5C 33.8333,34.5 34.1667,34.5 34.5,34.5C 34.5,36.5 34.5,38.5 34.5,40.5C 33.6155,44.4896 34.9489,47.3229 38.5,49C 36.193,49.3374 34.3597,48.504 33,46.5C 32.5172,47.448 32.3505,48.448 32.5,49.5C 29.0803,49.8852 25.4136,50.2185 21.5,50.5C 21.6602,48.8008 21.4935,47.1341 21,45.5C 20.5045,47.4727 20.3379,49.4727 20.5,51.5C 18.8561,51.7135 17.3561,51.3802 16,50.5C 14.7705,51.2752 14.4372,52.2752 15,53.5C 17.4806,52.9783 19.814,52.9783 22,53.5C 22.3333,52.8333 22.6667,52.1667 23,51.5C 26.0202,52.0813 29.0202,52.4147 32,52.5C 32.7172,51.9558 33.2172,51.2891 33.5,50.5C 35.8333,50.5 38.1667,50.5 40.5,50.5C 41.209,51.404 42.209,51.7373 43.5,51.5C 43.5,49.1667 43.5,46.8333 43.5,44.5C 43.5,42.8333 43.5,41.1667 43.5,39.5C 44.1667,39.5 44.8333,39.5 45.5,39.5C 46.9259,46.1476 48.2592,52.8143 49.5,59.5C 37.1667,59.5 24.8333,59.5 12.5,59.5C 11.5658,48.2047 11.2325,36.8714 11.5,25.5C 15.4909,25.8388 18.8242,24.5054 21.5,21.5C 20.675,20.6143 19.675,20.281 18.5,20.5C 18.5,20.1667 18.5,19.8333 18.5,19.5C 19.8221,19.67 20.9887,19.3366 22,18.5C 22.1922,20.5767 22.6922,22.5767 23.5,24.5C 24.2508,23.624 24.7508,22.624 25,21.5C 25.7202,23.0557 26.8868,24.0557 28.5,24.5 Z"/></g>
<g><path style="opacity:1" fill="#6a6a6a" d="M 34.5,40.5 C 35.1667,40.5 35.8333,40.5 36.5,40.5C 37.3149,41.8366 38.4815,42.8366 40,43.5C 40.1437,46.0248 40.3104,48.3581 40.5,50.5C 38.1667,50.5 35.8333,50.5 33.5,50.5C 33.5,49.8333 33.1667,49.5 32.5,49.5C 32.3505,48.448 32.5172,47.448 33,46.5C 34.3597,48.504 36.193,49.3374 38.5,49C 34.9489,47.3229 33.6155,44.4896 34.5,40.5 Z"/></g>
<g><path style="opacity:1" fill="#d5d5d2" d="M 43.5,39.5 C 43.5,41.1667 43.5,42.8333 43.5,44.5C 42.2028,46.3713 41.2028,48.3713 40.5,50.5C 40.3104,48.3581 40.1437,46.0248 40,43.5C 38.4815,42.8366 37.3149,41.8366 36.5,40.5C 36.6329,37.1043 37.6329,36.7709 39.5,39.5C 40.4519,37.9547 40.7852,36.288 40.5,34.5C 41.5,34.5 42.5,34.5 43.5,34.5C 43.5,36.1667 43.5,37.8333 43.5,39.5 Z"/></g>
<g><path style="opacity:1" fill="#dfc583" d="M 45.5,39.5 C 44.8333,39.5 44.1667,39.5 43.5,39.5C 43.5,37.8333 43.5,36.1667 43.5,34.5C 42.5,34.5 41.5,34.5 40.5,34.5C 40.7852,36.288 40.4519,37.9547 39.5,39.5C 37.6329,36.7709 36.6329,37.1043 36.5,40.5C 35.8333,40.5 35.1667,40.5 34.5,40.5C 34.5,38.5 34.5,36.5 34.5,34.5C 34.56,33.9569 34.8933,33.6236 35.5,33.5C 37.3671,36.2291 38.3671,35.8957 38.5,32.5C 39.8333,32.5 41.1667,32.5 42.5,32.5C 44.166,31.3336 45.8327,31.3336 47.5,32.5C 45.8267,34.5225 45.1601,36.8559 45.5,39.5 Z"/></g>
<g><path style="opacity:1" fill="#d8ba6e" d="M 33.5,34.5 C 32.0813,35.4511 30.4147,35.7845 28.5,35.5C 28.3505,36.552 28.5172,37.552 29,38.5C 30.049,36.8934 31.549,36.2267 33.5,36.5C 32.9245,40.4735 30.7579,41.4735 27,39.5C 26.3946,41.4812 25.3946,41.8146 24,40.5C 23.51,39.2068 23.3433,37.8734 23.5,36.5C 18.9593,36.3309 18.626,36.9975 22.5,38.5C 21.3539,39.7187 20.3539,41.0521 19.5,42.5C 16.0249,36.0526 18.0249,33.386 25.5,34.5C 25.3505,35.552 25.5172,36.552 26,37.5C 27.4322,33.688 29.9322,32.688 33.5,34.5 Z"/></g>
<g><path style="opacity:1" fill="#1a1917" d="M 50.5,59.5 C 50.1667,59.5 49.8333,59.5 49.5,59.5C 48.2592,52.8143 46.9259,46.1476 45.5,39.5C 45.1601,36.8559 45.8267,34.5225 47.5,32.5C 45.8327,31.3336 44.166,31.3336 42.5,32.5C 42.1667,31.5 41.5,30.8333 40.5,30.5C 39.325,22.9175 40.325,22.9175 43.5,30.5C 44.1735,28.3113 45.1735,26.3113 46.5,24.5C 41.9625,22.4849 38.4625,23.4849 36,27.5C 35.7645,25.8807 34.9311,24.8807 33.5,24.5C 32.7101,23.2058 31.7101,22.0391 30.5,21C 32.3502,21.5948 34.3502,22.0948 36.5,22.5C 37.5,22.5 38.5,22.5 39.5,22.5C 39.5,21.5 39.5,20.5 39.5,19.5C 40.3382,19.1583 40.6716,18.4916 40.5,17.5C 43.6098,24.3469 44.6098,24.0135 43.5,16.5C 44.552,16.6495 45.552,16.4828 46.5,16C 44.5273,15.5045 42.5273,15.3379 40.5,15.5C 40.4128,14.5015 40.0795,13.3349 39.5,12C 36.8333,11.3333 34.1667,11.3333 31.5,12C 29.9632,13.1096 29.2965,14.6096 29.5,16.5C 27.4184,16.6243 25.9184,17.6243 25,19.5C 23.8904,17.9632 22.3904,17.2965 20.5,17.5C 20.5,17.1667 20.5,16.8333 20.5,16.5C 22.5822,15.4151 22.9156,13.9151 21.5,12C 18.6899,11.0895 16.6899,11.9229 15.5,14.5C 15.5674,15.9587 15.2341,17.2921 14.5,18.5C 13.8897,20.4341 12.8897,22.1007 11.5,23.5C 11.1918,17.5746 11.5251,11.7412 12.5,6C 10.3426,4.91533 10.1759,3.74866 12,2.5C 24.7711,3.15786 37.6044,3.82453 50.5,4.5C 51.8077,22.8209 51.8077,41.1542 50.5,59.5 Z"/></g>
<g><path style="opacity:1" fill="#edebe6" d="M 40.5,30.5 C 41.5,30.8333 42.1667,31.5 42.5,32.5C 41.1667,32.5 39.8333,32.5 38.5,32.5C 38.3671,35.8957 37.3671,36.2291 35.5,33.5C 34.8933,33.6236 34.56,33.9569 34.5,34.5C 34.1667,34.5 33.8333,34.5 33.5,34.5C 33.5,33.5 33.5,32.5 33.5,31.5C 34.8589,30.9935 35.8589,29.9935 36.5,28.5C 37.3857,29.325 37.719,30.325 37.5,31.5C 38.791,31.7373 39.791,31.404 40.5,30.5 Z"/></g>
<g><path style="opacity:1" fill="#e7d693" d="M 32.5,29.5 C 31.9283,32.2436 30.2617,33.0769 27.5,32C 26.324,30.0858 25.324,30.2524 24.5,32.5C 23.7189,31.2713 23.2189,29.938 23,28.5C 21.9505,27.4829 20.7839,27.3162 19.5,28C 23.2364,29.5066 23.2364,30.3399 19.5,30.5C 19.719,31.675 19.3857,32.675 18.5,33.5C 17.7792,31.314 17.1125,29.1474 16.5,27C 18.6982,26.6271 20.8649,26.1271 23,25.5C 23.9503,26.0223 24.7836,26.689 25.5,27.5C 26.2652,26.3881 27.2652,25.7214 28.5,25.5C 31.9007,24.2266 33.234,25.56 32.5,29.5 Z"/></g>
<g><path style="opacity:1" fill="#141208" d="M 28.5,26.5 C 29.2389,26.369 29.9056,26.5357 30.5,27C 29.8878,28.3033 29.5545,29.4699 29.5,30.5C 27.3576,29.5629 27.0243,28.2296 28.5,26.5 Z"/></g>
<g><path style="opacity:1" fill="#e5cc82" d="M 40.5,30.5 C 39.791,31.404 38.791,31.7373 37.5,31.5C 37.719,30.325 37.3857,29.325 36.5,28.5C 35.8589,29.9935 34.8589,30.9935 33.5,31.5C 33.5,30.8333 33.5,30.1667 33.5,29.5C 33.5,27.8333 33.5,26.1667 33.5,24.5C 34.9311,24.8807 35.7645,25.8807 36,27.5C 38.4625,23.4849 41.9625,22.4849 46.5,24.5C 45.1735,26.3113 44.1735,28.3113 43.5,30.5C 40.325,22.9175 39.325,22.9175 40.5,30.5 Z"/></g>
<g><path style="opacity:1" fill="#1d1a14" d="M 28.5,18.5 C 28.4326,19.9587 28.7659,21.2921 29.5,22.5C 26.1155,21.756 25.7822,20.4226 28.5,18.5 Z"/></g>
<g><path style="opacity:1" fill="#dfddd8" d="M 14.5,18.5 C 15.404,19.209 15.7373,20.209 15.5,21.5C 16.791,21.7373 17.791,21.404 18.5,20.5C 19.675,20.281 20.675,20.6143 21.5,21.5C 18.8242,24.5054 15.4909,25.8388 11.5,25.5C 11.5,24.8333 11.5,24.1667 11.5,23.5C 12.8897,22.1007 13.8897,20.4341 14.5,18.5 Z"/></g>
<g><path style="opacity:1" fill="#ece2a8" d="M 29.5,16.5 C 29.6716,17.4916 29.3382,18.1583 28.5,18.5C 25.7822,20.4226 26.1155,21.756 29.5,22.5C 29.1667,23.1667 28.8333,23.8333 28.5,24.5C 26.8868,24.0557 25.7202,23.0557 25,21.5C 24.7508,22.624 24.2508,23.624 23.5,24.5C 22.6922,22.5767 22.1922,20.5767 22,18.5C 20.9887,19.3366 19.8221,19.67 18.5,19.5C 19.1667,18.8333 19.8333,18.1667 20.5,17.5C 22.3904,17.2965 23.8904,17.9632 25,19.5C 25.9184,17.6243 27.4184,16.6243 29.5,16.5 Z"/></g>
<g><path style="opacity:1" fill="#515151" d="M 39.5,19.5 C 39.5,20.5 39.5,21.5 39.5,22.5C 38.5,22.5 37.5,22.5 36.5,22.5C 35.7545,20.864 36.0878,19.1973 37.5,17.5C 34.9189,15.8291 35.2523,15.3291 38.5,16C 39.3366,17.0113 39.67,18.1779 39.5,19.5 Z"/></g>
<g><path style="opacity:1" fill="#6c6b6b" d="M 15.5,14.5 C 16.7899,15.0577 17.6232,16.0577 18,17.5C 18.6708,16.7476 19.5041,16.4142 20.5,16.5C 20.5,16.8333 20.5,17.1667 20.5,17.5C 19.8333,18.1667 19.1667,18.8333 18.5,19.5C 18.5,19.8333 18.5,20.1667 18.5,20.5C 17.791,21.404 16.791,21.7373 15.5,21.5C 15.7373,20.209 15.404,19.209 14.5,18.5C 15.2341,17.2921 15.5674,15.9587 15.5,14.5 Z"/></g>
<g><path style="opacity:1" fill="#e3cd8b" d="M 40.5,15.5 C 42.5273,15.3379 44.5273,15.5045 46.5,16C 45.552,16.4828 44.552,16.6495 43.5,16.5C 44.6098,24.0135 43.6098,24.3469 40.5,17.5C 40.5,16.8333 40.5,16.1667 40.5,15.5 Z"/></g>
<g><path style="opacity:1" fill="#cecdcb" d="M 40.5,15.5 C 40.5,16.1667 40.5,16.8333 40.5,17.5C 40.6716,18.4916 40.3382,19.1583 39.5,19.5C 39.67,18.1779 39.3366,17.0113 38.5,16C 35.2523,15.3291 34.9189,15.8291 37.5,17.5C 36.0878,19.1973 35.7545,20.864 36.5,22.5C 34.3502,22.0948 32.3502,21.5948 30.5,21C 31.7101,22.0391 32.7101,23.2058 33.5,24.5C 33.5,26.1667 33.5,27.8333 33.5,29.5C 33.1667,29.5 32.8333,29.5 32.5,29.5C 33.234,25.56 31.9007,24.2266 28.5,25.5C 28.5,25.1667 28.5,24.8333 28.5,24.5C 28.8333,23.8333 29.1667,23.1667 29.5,22.5C 28.7659,21.2921 28.4326,19.9587 28.5,18.5C 29.3382,18.1583 29.6716,17.4916 29.5,16.5C 29.2965,14.6096 29.9632,13.1096 31.5,12C 34.1667,11.3333 36.8333,11.3333 39.5,12C 40.0795,13.3349 40.4128,14.5015 40.5,15.5 Z"/></g>
<g><path style="opacity:1" fill="#bbbbbb" d="M 20.5,16.5 C 19.5041,16.4142 18.6708,16.7476 18,17.5C 17.6232,16.0577 16.7899,15.0577 15.5,14.5C 16.6899,11.9229 18.6899,11.0895 21.5,12C 22.9156,13.9151 22.5822,15.4151 20.5,16.5 Z"/></g>
<g><path style="opacity:1" fill="#ebebeb" d="M 33.5,5.5 C 34.2216,5.91753 34.7216,6.5842 35,7.5C 35.3333,6.83333 35.6667,6.16667 36,5.5C 36.6667,6.83333 36.6667,8.16667 36,9.5C 35.3333,8.16667 34.6667,8.16667 34,9.5C 33.51,8.20677 33.3433,6.87344 33.5,5.5 Z"/></g>
<g><path style="opacity:1" fill="#efefef" d="M 37.5,5.5 C 38.2389,5.36899 38.9056,5.53566 39.5,6C 39.6192,7.2812 39.1192,8.44786 38,9.5C 37.51,8.20677 37.3433,6.87344 37.5,5.5 Z"/></g>
<g><path style="opacity:1" fill="#b3b3b3" d="M 23.5,6.5 C 26.4643,6.02024 29.4643,5.68691 32.5,5.5C 32.6882,7.10326 32.1882,8.43659 31,9.5C 29.6667,9.5 28.3333,9.5 27,9.5C 26.3333,5.5 25.6667,5.5 25,9.5C 24.7679,8.26253 24.2679,7.26253 23.5,6.5 Z"/></g>
<g><path style="opacity:1" fill="#686868" d="M 43.5,44.5 C 43.5,46.8333 43.5,49.1667 43.5,51.5C 42.209,51.7373 41.209,51.404 40.5,50.5C 41.2028,48.3713 42.2028,46.3713 43.5,44.5 Z"/></g>
<g><path style="opacity:1" fill="#e7e7e7" d="M 32.5,49.5 C 33.1667,49.5 33.5,49.8333 33.5,50.5C 33.2172,51.2891 32.7172,51.9558 32,52.5C 29.0202,52.4147 26.0202,52.0813 23,51.5C 22.6667,52.1667 22.3333,52.8333 22,53.5C 19.814,52.9783 17.4806,52.9783 15,53.5C 14.4372,52.2752 14.7705,51.2752 16,50.5C 17.3561,51.3802 18.8561,51.7135 20.5,51.5C 20.3379,49.4727 20.5045,47.4727 21,45.5C 21.4935,47.1341 21.6602,48.8008 21.5,50.5C 25.4136,50.2185 29.0803,49.8852 32.5,49.5 Z"/></g>
<g><path style="opacity:1" fill="#ebb25a" d="M 12.5,59.5 C 24.8333,59.5 37.1667,59.5 49.5,59.5C 49.8333,59.5 50.1667,59.5 50.5,59.5C 46.1667,60.1667 41.8333,60.8333 37.5,61.5C 33.5,61.5 29.5,61.5 25.5,61.5C 21.1667,60.8333 16.8333,60.1667 12.5,59.5 Z"/></g>
</svg>
