<?xml version="1.0" encoding="UTF-8"?>
<!DOCTYPE svg PUBLIC "-//W3C//DTD SVG 1.1//EN" "http://www.w3.org/Graphics/SVG/1.1/DTD/svg11.dtd">
<svg xmlns="http://www.w3.org/2000/svg" version="1.1" width="64px" height="64px" style="shape-rendering:geometricPrecision; text-rendering:geometricPrecision; image-rendering:optimizeQuality; fill-rule:evenodd; clip-rule:evenodd" xmlns:xlink="http://www.w3.org/1999/xlink">
<g><path style="opacity:1" fill="#faf373" d="M 28.5,-0.5 C 28.8333,-0.5 29.1667,-0.5 29.5,-0.5C 30.8333,0.833333 32.1667,0.833333 33.5,-0.5C 33.8333,-0.5 34.1667,-0.5 34.5,-0.5C 49.246,2.24316 58.5794,10.9098 62.5,25.5C 62.1667,25.5 61.8333,25.5 61.5,25.5C 59.9328,24.3192 59.0995,22.6526 59,20.5C 58.6667,20.8333 58.3333,21.1667 58,21.5C 54.9088,18.827 52.4088,15.6603 50.5,12C 47.2729,9.88825 43.9396,8.05491 40.5,6.5C 35.3529,4.57052 30.0196,4.07052 24.5,5C 20.3179,6.92276 16.3179,9.08942 12.5,11.5C 11.1266,11.3433 9.79323,11.51 8.5,12C 7.29493,13.3756 5.9616,14.5423 4.5,15.5C 9.88719,6.1466 17.8872,0.813271 28.5,-0.5 Z"/></g>
<g><path style="opacity:1" fill="#d7b13d" d="M 40.5,6.5 C 43.9396,8.05491 47.2729,9.88825 50.5,12C 52.4088,15.6603 54.9088,18.827 58,21.5C 58.3333,21.1667 58.6667,20.8333 59,20.5C 59.0995,22.6526 59.9328,24.3192 61.5,25.5C 61.6646,28.5184 61.498,31.5184 61,34.5C 58.0032,35.5315 56.1699,37.5315 55.5,40.5C 55.5,39.8333 55.1667,39.5 54.5,39.5C 56.8711,35.6185 57.3711,31.6185 56,27.5C 54.8869,28.7111 53.7202,28.7111 52.5,27.5C 51.9892,25.1161 50.9892,23.1161 49.5,21.5C 49.2671,19.9382 48.6005,18.6049 47.5,17.5C 48.2389,17.631 48.9056,17.4643 49.5,17C 46.2754,12.9034 42.2754,10.0701 37.5,8.5C 39.1788,8.71481 40.1788,8.04814 40.5,6.5 Z"/></g>
<g><path style="opacity:1" fill="#deb64e" d="M 37.5,8.5 C 42.2754,10.0701 46.2754,12.9034 49.5,17C 48.9056,17.4643 48.2389,17.631 47.5,17.5C 43.3951,17.2338 39.3951,17.7338 35.5,19C 38.2889,19.2414 40.9556,19.908 43.5,21C 44.8228,21.8159 45.4894,22.9826 45.5,24.5C 43.1667,24.5 40.8333,24.5 38.5,24.5C 38.1667,24.5 37.8333,24.5 37.5,24.5C 33.8333,24.5 30.1667,24.5 26.5,24.5C 26.1667,24.5 25.8333,24.5 25.5,24.5C 24.5,24.5 23.5,24.5 22.5,24.5C 23.6253,22.8712 24.9586,21.3712 26.5,20C 24.7184,19.8782 23.0518,20.3782 21.5,21.5C 11.2019,22.2506 9.53527,19.4172 16.5,13C 18.9962,11.9196 21.3295,10.5862 23.5,9C 28.1761,9.69695 32.8428,9.53028 37.5,8.5 Z"/></g>
<g><path style="opacity:1" fill="#110a0b" d="M 47.5,17.5 C 48.6005,18.6049 49.2671,19.9382 49.5,21.5C 49.5,22.5 49.5,23.5 49.5,24.5C 48.1667,24.5 46.8333,24.5 45.5,24.5C 45.4894,22.9826 44.8228,21.8159 43.5,21C 40.9556,19.908 38.2889,19.2414 35.5,19C 39.3951,17.7338 43.3951,17.2338 47.5,17.5 Z"/></g>
<g><path style="opacity:1" fill="#160d0c" d="M 22.5,24.5 C 21.1667,24.5 19.8333,24.5 18.5,24.5C 19.3065,23.2719 20.3065,22.2719 21.5,21.5C 23.0518,20.3782 24.7184,19.8782 26.5,20C 24.9586,21.3712 23.6253,22.8712 22.5,24.5 Z"/></g>
<g><path style="opacity:1" fill="#d6d4d6" d="M 18.5,24.5 C 19.8333,24.5 21.1667,24.5 22.5,24.5C 23.5,24.5 24.5,24.5 25.5,24.5C 25.2172,25.2891 24.7172,25.9558 24,26.5C 21.9361,25.4086 19.7695,25.2419 17.5,26C 20.1262,26.995 22.7929,27.3283 25.5,27C 26.2524,26.3292 26.5858,25.4959 26.5,24.5C 30.1667,24.5 33.8333,24.5 37.5,24.5C 34.6946,25.3195 31.6946,25.8195 28.5,26C 30.1667,26.1667 31.8333,26.3333 33.5,26.5C 35.6397,26.4439 37.3064,25.7773 38.5,24.5C 40.8333,24.5 43.1667,24.5 45.5,24.5C 46.8333,24.5 48.1667,24.5 49.5,24.5C 49.5858,25.4959 49.2524,26.3292 48.5,27C 44.7486,27.0659 41.2486,27.8992 38,29.5C 36.9895,29.1081 36.4895,28.4415 36.5,27.5C 34.5458,28.6797 32.3791,29.3463 30,29.5C 24.3105,29.0799 18.4772,29.0799 12.5,29.5C 13.9418,28.1805 14.6085,26.5138 14.5,24.5C 15.8333,24.5 17.1667,24.5 18.5,24.5 Z"/></g>
<g><path style="opacity:1" fill="#c9983d" d="M 40.5,6.5 C 40.1788,8.04814 39.1788,8.71481 37.5,8.5C 32.8428,9.53028 28.1761,9.69695 23.5,9C 21.3295,10.5862 18.9962,11.9196 16.5,13C 9.53527,19.4172 11.2019,22.2506 21.5,21.5C 20.3065,22.2719 19.3065,23.2719 18.5,24.5C 17.1667,24.5 15.8333,24.5 14.5,24.5C 14.6085,26.5138 13.9418,28.1805 12.5,29.5C 11.209,29.2627 10.209,29.596 9.5,30.5C 8.83333,31.8333 8.16667,33.1667 7.5,34.5C 7.16667,34.5 6.83333,34.5 6.5,34.5C 6.79962,29.3862 6.96629,24.3862 7,19.5C 8.59633,16.6305 10.4297,13.9639 12.5,11.5C 16.3179,9.08942 20.3179,6.92276 24.5,5C 30.0196,4.07052 35.3529,4.57052 40.5,6.5 Z"/></g>
<g><path style="opacity:1" fill="#2e2a2d" d="M 25.5,24.5 C 25.8333,24.5 26.1667,24.5 26.5,24.5C 26.5858,25.4959 26.2524,26.3292 25.5,27C 22.7929,27.3283 20.1262,26.995 17.5,26C 19.7695,25.2419 21.9361,25.4086 24,26.5C 24.7172,25.9558 25.2172,25.2891 25.5,24.5 Z"/></g>
<g><path style="opacity:1" fill="#2d292b" d="M 37.5,24.5 C 37.8333,24.5 38.1667,24.5 38.5,24.5C 37.3064,25.7773 35.6397,26.4439 33.5,26.5C 31.8333,26.3333 30.1667,26.1667 28.5,26C 31.6946,25.8195 34.6946,25.3195 37.5,24.5 Z"/></g>
<g><path style="opacity:1" fill="#dcab49" d="M 12.5,11.5 C 10.4297,13.9639 8.59633,16.6305 7,19.5C 6.96629,24.3862 6.79962,29.3862 6.5,34.5C 6.26269,35.791 6.59603,36.791 7.5,37.5C 7.5,37.8333 7.5,38.1667 7.5,38.5C 6.6457,39.6316 6.6457,40.965 7.5,42.5C 5.09475,41.6019 3.09475,40.1019 1.5,38C 5.37032,36.1088 5.37032,35.2755 1.5,35.5C 0.832359,32.6944 0.165692,30.0277 -0.5,27.5C -0.5,27.1667 -0.5,26.8333 -0.5,26.5C 0.330773,22.5015 1.99744,18.8349 4.5,15.5C 5.9616,14.5423 7.29493,13.3756 8.5,12C 9.79323,11.51 11.1266,11.3433 12.5,11.5 Z"/></g>
<g><path style="opacity:1" fill="#dbd9db" d="M 42.5,35.5 C 42.5912,33.3023 41.9245,32.9689 40.5,34.5C 39.2264,33.8106 39.2264,32.9772 40.5,32C 38.5273,31.5045 36.5273,31.3379 34.5,31.5C 34.5,32.5 34.5,33.5 34.5,34.5C 32.8212,34.7148 31.8212,34.0481 31.5,32.5C 33.3838,31.3248 35.5505,30.6582 38,30.5C 43.3964,30.6289 48.8964,30.9622 54.5,31.5C 54.032,33.1338 53.032,34.3005 51.5,35C 48.5184,35.498 45.5184,35.6646 42.5,35.5 Z"/></g>
<g><path style="opacity:1" fill="#858184" d="M 29.5,34.5 C 26.1667,35.8333 22.8333,35.8333 19.5,34.5C 19.8333,34.5 20.1667,34.5 20.5,34.5C 22.1984,33.313 24.0318,32.313 26,31.5C 27.5978,32.4077 28.7645,33.4077 29.5,34.5 Z"/></g>
<g><path style="opacity:1" fill="#bab7ba" d="M 9.5,30.5 C 12.8499,30.335 16.1832,30.5017 19.5,31C 8.83333,31.6667 8.83333,32.3333 19.5,33C 18.944,33.3826 18.6107,33.8826 18.5,34.5C 14.7316,35.7866 11.0649,35.7866 7.5,34.5C 8.16667,33.1667 8.83333,31.8333 9.5,30.5 Z"/></g>
<g><path style="opacity:1" fill="#615d5f" d="M 40.5,34.5 C 37.1667,35.8333 33.8333,35.8333 30.5,34.5C 30.3284,33.5084 30.6618,32.8417 31.5,32.5C 31.8212,34.0481 32.8212,34.7148 34.5,34.5C 34.5,33.5 34.5,32.5 34.5,31.5C 36.5273,31.3379 38.5273,31.5045 40.5,32C 39.2264,32.9772 39.2264,33.8106 40.5,34.5 Z"/></g>
<g><path style="opacity:1" fill="#10090b" d="M 42.5,35.5 C 41.4937,35.9377 41.4937,36.6043 42.5,37.5C 35.1591,37.3337 27.8258,37.5003 20.5,38C 22.0261,39.8871 24.0261,40.8871 26.5,41C 29.8557,41.2148 33.189,41.2148 36.5,41C 31.0352,43.1187 25.3685,43.952 19.5,43.5C 16.3452,43.0158 14.0119,41.3491 12.5,38.5C 10.9547,37.5481 9.28801,37.2148 7.5,37.5C 6.59603,36.791 6.26269,35.791 6.5,34.5C 6.83333,34.5 7.16667,34.5 7.5,34.5C 11.0649,35.7866 14.7316,35.7866 18.5,34.5C 18.8333,34.5 19.1667,34.5 19.5,34.5C 22.8333,35.8333 26.1667,35.8333 29.5,34.5C 29.8333,34.5 30.1667,34.5 30.5,34.5C 33.8333,35.8333 37.1667,35.8333 40.5,34.5C 41.9245,32.9689 42.5912,33.3023 42.5,35.5 Z"/></g>
<g><path style="opacity:1" fill="#1d191a" d="M 49.5,24.5 C 50.7053,25.6719 50.7053,27.0052 49.5,28.5C 51.396,29.4656 53.396,29.7989 55.5,29.5C 55.4617,36.2003 52.1284,38.867 45.5,37.5C 44.5,37.5 43.5,37.5 42.5,37.5C 41.4937,36.6043 41.4937,35.9377 42.5,35.5C 45.5184,35.6646 48.5184,35.498 51.5,35C 53.032,34.3005 54.032,33.1338 54.5,31.5C 48.8964,30.9622 43.3964,30.6289 38,30.5C 35.5505,30.6582 33.3838,31.3248 31.5,32.5C 28.3157,30.5864 24.649,29.9197 20.5,30.5C 20.5,31.8333 20.5,33.1667 20.5,34.5C 20.1667,34.5 19.8333,34.5 19.5,34.5C 19.1667,34.5 18.8333,34.5 18.5,34.5C 18.6107,33.8826 18.944,33.3826 19.5,33C 8.83333,32.3333 8.83333,31.6667 19.5,31C 16.1832,30.5017 12.8499,30.335 9.5,30.5C 10.209,29.596 11.209,29.2627 12.5,29.5C 18.4772,29.0799 24.3105,29.0799 30,29.5C 32.3791,29.3463 34.5458,28.6797 36.5,27.5C 36.4895,28.4415 36.9895,29.1081 38,29.5C 41.2486,27.8992 44.7486,27.0659 48.5,27C 49.2524,26.3292 49.5858,25.4959 49.5,24.5 Z"/></g>
<g><path style="opacity:1" fill="#10090d" d="M 46.5,31.5 C 48.288,31.2148 49.9547,31.5481 51.5,32.5C 49.5787,33.641 47.5787,33.8077 45.5,33C 46.056,32.6174 46.3893,32.1174 46.5,31.5 Z"/></g>
<g><path style="opacity:1" fill="#f5f4f6" d="M 31.5,32.5 C 30.6618,32.8417 30.3284,33.5084 30.5,34.5C 30.1667,34.5 29.8333,34.5 29.5,34.5C 28.7645,33.4077 27.5978,32.4077 26,31.5C 24.0318,32.313 22.1984,33.313 20.5,34.5C 20.5,33.1667 20.5,31.8333 20.5,30.5C 24.649,29.9197 28.3157,30.5864 31.5,32.5 Z"/></g>
<g><path style="opacity:1" fill="#d6a848" d="M 42.5,37.5 C 43.5,37.5 44.5,37.5 45.5,37.5C 44.2126,43.4542 40.5459,47.1209 34.5,48.5C 33.5713,49.6888 33.238,51.0222 33.5,52.5C 31.8333,52.5 30.1667,52.5 28.5,52.5C 28.5,51.1667 28.5,49.8333 28.5,48.5C 26.079,48.1218 23.7457,47.4552 21.5,46.5C 20.8333,45.5 20.1667,44.5 19.5,43.5C 25.3685,43.952 31.0352,43.1187 36.5,41C 33.189,41.2148 29.8557,41.2148 26.5,41C 24.0261,40.8871 22.0261,39.8871 20.5,38C 27.8258,37.5003 35.1591,37.3337 42.5,37.5 Z"/></g>
<g><path style="opacity:1" fill="#ca973c" d="M 49.5,21.5 C 50.9892,23.1161 51.9892,25.1161 52.5,27.5C 53.7202,28.7111 54.8869,28.7111 56,27.5C 57.3711,31.6185 56.8711,35.6185 54.5,39.5C 52.1314,46.5353 47.4648,51.2019 40.5,53.5C 36.1394,54.4234 31.8061,54.4234 27.5,53.5C 26.286,51.9309 24.6193,51.0976 22.5,51C 23.1667,50.6667 23.8333,50.3333 24.5,50C 22.9371,49.2411 21.9371,48.0744 21.5,46.5C 23.7457,47.4552 26.079,48.1218 28.5,48.5C 28.5,49.8333 28.5,51.1667 28.5,52.5C 30.1667,52.5 31.8333,52.5 33.5,52.5C 33.238,51.0222 33.5713,49.6888 34.5,48.5C 40.5459,47.1209 44.2126,43.4542 45.5,37.5C 52.1284,38.867 55.4617,36.2003 55.5,29.5C 53.396,29.7989 51.396,29.4656 49.5,28.5C 50.7053,27.0052 50.7053,25.6719 49.5,24.5C 49.5,23.5 49.5,22.5 49.5,21.5 Z"/></g>
<g><path style="opacity:1" fill="#cc983d" d="M 7.5,37.5 C 9.28801,37.2148 10.9547,37.5481 12.5,38.5C 14.0119,41.3491 16.3452,43.0158 19.5,43.5C 20.1667,44.5 20.8333,45.5 21.5,46.5C 21.9371,48.0744 22.9371,49.2411 24.5,50C 23.8333,50.3333 23.1667,50.6667 22.5,51C 24.6193,51.0976 26.286,51.9309 27.5,53.5C 31.8061,54.4234 36.1394,54.4234 40.5,53.5C 24.9881,58.5793 13.9881,53.5793 7.5,38.5C 7.5,38.1667 7.5,37.8333 7.5,37.5 Z"/></g>
<g><path style="opacity:1" fill="#d39f48" d="M 61.5,25.5 C 61.8333,25.5 62.1667,25.5 62.5,25.5C 63.996,46.22 54.6626,58.5534 34.5,62.5C 29.2121,61.5142 29.2121,60.5142 34.5,59.5C 32.0312,58.8319 29.6979,58.1653 27.5,57.5C 36.673,58.5863 44.5063,55.9196 51,49.5C 52.7611,46.5889 54.2611,43.5889 55.5,40.5C 56.1699,37.5315 58.0032,35.5315 61,34.5C 61.498,31.5184 61.6646,28.5184 61.5,25.5 Z"/></g>
<g><path style="opacity:1" fill="#f9f486" d="M 7.5,38.5 C 13.9881,53.5793 24.9881,58.5793 40.5,53.5C 47.4648,51.2019 52.1314,46.5353 54.5,39.5C 55.1667,39.5 55.5,39.8333 55.5,40.5C 54.2611,43.5889 52.7611,46.5889 51,49.5C 44.5063,55.9196 36.673,58.5863 27.5,57.5C 18.5191,55.511 11.8525,50.511 7.5,42.5C 6.6457,40.965 6.6457,39.6316 7.5,38.5 Z"/></g>
<g><path style="opacity:1" fill="#cf9a46" d="M -0.5,27.5 C 0.165692,30.0277 0.832359,32.6944 1.5,35.5C 5.37032,35.2755 5.37032,36.1088 1.5,38C 3.09475,40.1019 5.09475,41.6019 7.5,42.5C 11.8525,50.511 18.5191,55.511 27.5,57.5C 29.6979,58.1653 32.0312,58.8319 34.5,59.5C 29.2121,60.5142 29.2121,61.5142 34.5,62.5C 34.5,62.8333 34.5,63.1667 34.5,63.5C 33.5,63.5 32.5,63.5 31.5,63.5C 31.1667,62.1667 30.8333,62.1667 30.5,63.5C 29.8333,63.5 29.1667,63.5 28.5,63.5C 13.4057,60.408 3.73906,51.408 -0.5,36.5C -0.5,33.5 -0.5,30.5 -0.5,27.5 Z"/></g>
</svg>
