<svg width="32" height="32" viewBox="0 0 32 32" fill="none" xmlns="http://www.w3.org/2000/svg">
<path d="M27.9687 19.9998C27.9344 19.9893 27.1193 19.7266 26.8576 18.3846C26.8291 18.2353 26.7969 18.0807 26.7605 17.9138C26.7774 17.7126 26.8191 17.0485 26.722 16.2912C26.779 16.3262 26.8365 16.3707 26.8913 16.4278L26.8956 16.4321C26.9029 16.4395 26.9109 16.4464 26.9188 16.4533L26.9309 16.4649L26.9515 16.4776C26.9642 16.485 26.9768 16.4925 26.9905 16.4988L27.0322 16.5179H27.0459C27.0707 16.5248 27.0955 16.5279 27.1209 16.5279C27.2406 16.5279 27.3451 16.4607 27.3989 16.3622H27.6448L27.4195 16.0762V16.0624L27.372 16.0153C27.267 15.8559 27.0132 15.473 26.7732 15.1214C26.8956 15.0928 26.9916 14.9932 27.0132 14.864C27.0417 14.6908 26.9246 14.5272 26.7542 14.4991C26.732 14.4949 26.5421 14.4605 26.2535 14.3789L26.1991 14.2878L26.5748 14.4467C26.6138 14.4642 26.6576 14.4732 26.7014 14.4732C26.789 14.4732 26.8734 14.4361 26.9346 14.3704C27.0243 14.2725 27.0438 14.1268 26.9821 14.0087C26.9219 13.8933 26.8375 13.78 26.7478 13.6778C26.7922 13.665 26.8365 13.6534 26.8797 13.6423C27.0095 13.6094 27.105 13.4972 27.1177 13.3637C27.1304 13.2287 27.056 13.1005 26.9336 13.0454C26.8797 13.0206 26.8064 12.9962 26.7141 12.9713L26.9562 12.7436C27.0533 12.6509 27.0818 12.5058 27.0259 12.3798C26.9689 12.2564 26.8402 12.1828 26.704 12.1971L26.3643 12.2341C26.426 12.0779 26.4698 11.928 26.4977 11.8221C26.7552 11.6431 26.8866 11.4684 26.8993 11.2894C26.9177 11.0357 26.8032 10.8943 26.7188 10.8249C26.7204 10.8202 26.7214 10.8149 26.723 10.8096L26.7251 10.8016C26.7267 10.7942 26.7288 10.7863 26.7304 10.7767C26.7315 10.7709 26.732 10.7651 26.7325 10.7587L26.7341 10.7211C26.7341 10.7079 26.7331 10.6962 26.7315 10.6878L26.7251 10.6544C26.723 10.6449 26.7204 10.6359 26.7172 10.6263C26.7156 10.6216 26.7141 10.6168 26.712 10.612L26.7072 10.6009C26.7014 10.5882 26.6951 10.5755 26.6882 10.5638L26.6676 10.5305L26.5816 10.4442H26.5684L26.5436 10.4203H26.4919L26.4661 10.414H26.455C26.4476 10.4129 26.4381 10.4124 26.4276 10.4119C26.4218 10.4119 26.416 10.4113 26.4096 10.4113H26.3927L26.3854 10.4124C26.3738 10.4129 26.3458 10.415 26.3057 10.4166C26.3184 10.3923 26.3273 10.3732 26.3331 10.361C26.3859 10.2477 26.3669 10.1132 26.2856 10.0194C26.2049 9.9257 26.0756 9.88757 25.958 9.922C25.8245 9.96119 25.643 9.96966 25.4963 9.97019C25.4963 9.59631 25.4847 9.11439 25.4441 8.63248C25.8567 8.23741 25.9849 7.72425 26.0081 7.61622C26.035 7.48118 25.9728 7.34507 25.8546 7.27782C25.7353 7.2095 25.5871 7.22539 25.4842 7.31913C25.4451 7.35514 25.3623 7.3975 25.2578 7.43775C25.0964 6.82185 24.8484 6.47339 24.5033 6.37489C24.1282 6.26686 23.6122 6.31399 22.9664 6.51417C22.8361 5.33957 21.946 4.55791 20.3162 4.18827L20.2908 4.18297H20.2877C20.2808 4.18191 20.274 4.18085 20.2671 4.18032L20.2391 4.17874C20.0645 4.17874 19.9226 4.32119 19.9226 4.49648C19.9226 4.50866 19.9236 4.51925 19.9247 4.52879L19.9278 4.54997C19.9289 4.55632 19.93 4.56215 19.9315 4.5685C19.0837 4.22852 18.1846 4.25235 17.3051 4.27512C16.3406 4.30054 15.4289 4.32437 14.6733 3.84828L14.6269 3.80221H14.5841C14.4696 3.76302 14.3393 3.79267 14.2533 3.88429C14.133 4.01139 14.1383 4.21316 14.2649 4.33337L14.2797 4.34661C14.3161 4.37839 14.5277 4.56162 14.8516 4.77557C14.6754 4.76657 14.5119 4.75544 14.3726 4.73956C13.1274 4.5971 12.9928 3.34094 12.9876 3.28693C12.9749 3.15877 12.8878 3.0518 12.7628 3.01314C12.6393 2.9766 12.5074 3.0179 12.4272 3.11693C12.3956 3.15612 11.7033 4.02198 11.7434 5.3438C11.7339 5.33904 11.725 5.33427 11.716 5.32951L11.7028 5.32209C11.3113 5.10285 11.2137 4.71943 11.2106 4.70725C11.1852 4.58916 11.0966 4.49701 10.9779 4.4663C10.8623 4.4377 10.7415 4.47583 10.6624 4.56692C10.6186 4.61775 10.3263 4.96992 10.1453 5.52651C10.0809 5.32845 10.0202 5.10814 9.97223 4.89155C9.94216 4.75862 9.83136 4.65959 9.69629 4.64529C9.56016 4.63099 9.43195 4.70513 9.37444 4.83117C9.1291 5.37823 8.98612 5.90357 8.9476 6.3966L8.49068 6.31823C7.83169 6.20596 7.18905 6.62591 7.02707 7.27358C6.86615 7.91596 6.75957 8.59011 6.70945 9.27962C6.46516 9.49039 5.68112 10.0343 4.39532 9.69428C4.26869 9.66144 4.13256 9.71175 4.05659 9.82032C3.98114 9.92888 3.98114 10.075 4.05659 10.1831C4.06556 10.1963 4.09827 10.2413 4.15894 10.3028C4.11832 10.3261 4.08244 10.3584 4.05553 10.3991C3.97059 10.5241 3.98536 10.6931 4.08772 10.7974C4.0951 10.8053 4.86384 11.587 6.10374 11.587C6.185 11.587 6.26678 11.5838 6.34856 11.5769C6.23459 11.7353 6.12063 11.9222 6.02777 12.1319C5.7534 12.7521 5.75974 13.3791 6.04623 13.9468C6.08053 14.147 6.21296 15.0626 5.97395 15.9751L5.95126 15.9968V16.054C5.94704 16.0672 5.94176 16.0842 5.93543 16.1032C5.9233 16.1419 5.90747 16.1927 5.88953 16.2526C5.6827 16.8372 5.33817 17.2868 4.86384 17.5908C4.71769 17.6851 4.67495 17.8815 4.76782 18.0282C4.82638 18.1209 4.9261 18.176 5.03532 18.176C5.09758 18.176 5.1572 18.158 5.20521 18.1257C5.28752 18.0732 5.36666 18.0166 5.44317 17.9573C5.43367 18.0118 5.42575 18.0621 5.41942 18.1082C5.35031 18.624 5.22157 19.5841 4.49451 20.0348C4.36841 20.1121 4.31248 20.2641 4.35891 20.4055C4.39901 20.5273 4.50506 20.6104 4.62641 20.6221C4.63644 20.7058 4.67021 20.7979 4.74302 20.88C4.84854 20.9992 5.00683 21.0696 5.22368 21.0934C5.26694 21.1676 5.33342 21.2777 5.42417 21.4175L5.43103 21.4286C6.10849 22.4761 8.0343 25.0599 11.2807 26.4353C14.9704 27.9986 15.5455 28.5679 15.5819 28.6065C15.6415 28.6844 15.7343 28.7299 15.8325 28.7299C15.8668 28.7299 15.9005 28.7246 15.9322 28.714C15.9533 28.7071 15.9739 28.6976 15.9923 28.6865C15.9976 28.705 16.0018 28.723 16.005 28.74C16.0303 28.8766 16.1432 28.9825 16.281 28.9979C16.2926 28.9995 16.3047 29 16.3163 29C16.4429 29 16.5564 28.9253 16.6076 28.8072C16.759 28.4725 17.552 27.6708 19.4662 27.031C21.9571 26.1975 25.7612 23.5729 26.7499 21.5642C26.808 21.4472 26.8576 21.3286 26.8977 21.211C27.3952 21.1035 27.6221 20.8064 27.6479 20.7704C27.6749 20.7333 27.6928 20.6915 27.7012 20.6486C27.7915 20.6443 27.8753 20.6337 27.9519 20.6163C28.0917 20.5845 28.193 20.4611 28.1977 20.3197C28.2041 20.1741 28.1112 20.0438 27.9724 20.002L27.9687 19.9998ZM4.7045 10.1889C4.75199 10.1958 4.79842 10.2016 4.84485 10.2064C4.88969 10.2111 4.93349 10.2149 4.97728 10.2175C4.9815 10.2175 4.98572 10.2175 4.98994 10.218C5.02951 10.2207 5.06803 10.2223 5.10655 10.2233C5.11235 10.2233 5.11815 10.2233 5.12396 10.2233C5.16036 10.2239 5.19677 10.2244 5.23265 10.2233C5.23898 10.2233 5.24478 10.2233 5.25111 10.2233C5.28646 10.2228 5.32181 10.2212 5.35611 10.2196C5.36139 10.2196 5.36666 10.2191 5.37246 10.2186C5.40834 10.2164 5.44317 10.2138 5.47799 10.2106C5.48168 10.2106 5.48538 10.2101 5.48907 10.2096C5.52653 10.2058 5.56399 10.2016 5.6004 10.1968H5.60145C6.22668 10.1116 6.66196 9.8468 6.89464 9.66727V9.66833C6.87512 10.1232 6.88198 10.5808 6.91416 11.0325C6.88673 11.041 6.85929 11.0489 6.83185 11.0569C5.88267 11.3233 5.15984 11.0341 4.75462 10.7826C5.27063 10.8334 5.9043 10.7492 6.28788 10.6835C6.47624 10.6512 6.60392 10.6232 6.62819 10.6179C6.64033 10.6157 6.64613 10.6136 6.64613 10.6136V10.6126C6.69362 10.594 6.72264 10.5432 6.71103 10.4913C6.69837 10.4346 6.64297 10.3986 6.58599 10.4108L6.5881 10.4103C5.60989 10.5702 5.02107 10.3748 4.7045 10.1889ZM20.8422 4.77663C21.9412 5.1611 22.5169 5.81407 22.5559 6.72388C22.5559 6.73235 22.5559 6.74083 22.5564 6.74983C22.5585 6.81444 22.5585 6.88011 22.5549 6.94736V6.95266C22.538 7.27941 22.4583 7.63634 22.318 8.0134C22.2884 8.0939 22.2562 8.17333 22.223 8.25065C22.2066 8.28984 22.1892 8.32903 22.1713 8.36769C22.1444 8.42753 22.1143 8.49108 22.0763 8.56681C22.033 8.65472 21.9898 8.73733 21.947 8.81465C21.937 8.83319 21.927 8.85172 21.9159 8.87132C21.8579 8.97511 21.7951 9.08209 21.7254 9.19542L21.7059 9.22613C21.631 9.34582 21.5666 9.44326 21.5244 9.50787L21.5065 9.53541C21.5044 9.53911 21.5023 9.54282 21.4996 9.54653C21.4901 9.56135 21.4822 9.57406 21.4764 9.5836C21.4521 9.62437 21.4263 9.65827 21.3973 9.68739C21.3941 9.69057 21.3909 9.69375 21.3878 9.6964L21.3835 9.7001L21.3814 9.70169C21.8901 8.72674 22.1095 7.81852 22.0357 6.99873C22.0341 6.98231 22.0336 6.9659 22.0315 6.94948V6.94524C22.0309 6.93995 22.0299 6.93518 22.0293 6.92989C22.0278 6.91453 22.0251 6.8997 22.0235 6.88434C22.0167 6.82927 22.0082 6.77525 21.9993 6.72176C21.9977 6.7117 21.9956 6.70111 21.9935 6.69105C21.9834 6.63809 21.9724 6.58672 21.9602 6.53588C21.9586 6.52847 21.9571 6.52105 21.955 6.51364C21.9259 6.39607 21.8916 6.2838 21.8515 6.17683C21.8505 6.17418 21.8494 6.17153 21.8484 6.16836C21.8304 6.12069 21.812 6.07462 21.7924 6.02908C21.7866 6.01584 21.7808 6.0026 21.775 5.98936C21.7597 5.95494 21.7439 5.92104 21.7276 5.88821C21.7196 5.87232 21.7117 5.85643 21.7038 5.84055C21.6885 5.81089 21.6732 5.78176 21.6574 5.75317C21.6484 5.73675 21.6394 5.72033 21.6305 5.70445C21.6141 5.67638 21.5972 5.64884 21.5803 5.6213C21.5608 5.59006 21.5413 5.55934 21.5218 5.52969C21.5086 5.51009 21.4959 5.48997 21.4827 5.4709C21.4664 5.4476 21.45 5.42483 21.4337 5.40259C21.4242 5.38935 21.4147 5.37611 21.4046 5.3634C21.3867 5.3401 21.3688 5.3168 21.3508 5.29455C21.3429 5.28449 21.3345 5.27443 21.326 5.26437C21.3065 5.24054 21.287 5.21671 21.2675 5.19393C21.2627 5.18811 21.258 5.18281 21.2527 5.17752C21.1567 5.06789 21.0596 4.97045 20.9657 4.88466C20.9625 4.88201 20.9599 4.87937 20.9567 4.87672C20.9345 4.85659 20.9129 4.83753 20.8913 4.81899C20.8871 4.81529 20.8834 4.81211 20.8791 4.8084C20.866 4.79728 20.8533 4.78669 20.8401 4.77557H20.8417L20.8422 4.77663ZM26.4777 11.2555C26.4761 11.2639 26.4666 11.2825 26.4439 11.3095C26.4413 11.3121 26.4381 11.3158 26.4355 11.319C26.4328 11.3217 26.4307 11.3243 26.4281 11.3275L26.4249 11.3307C26.3796 11.3794 26.2988 11.4477 26.1632 11.5319C25.7659 11.7787 25.0468 12.0588 24.3287 12.035C23.7135 12.0159 23.2434 11.7819 22.9242 11.3407C23.2255 11.5192 23.5816 11.6516 23.991 11.7326C24.1541 11.7649 24.3113 11.7798 24.4622 11.7798C25.1455 11.7798 25.6958 11.4816 26.0646 11.1988C26.1569 11.1607 26.2651 11.1326 26.3474 11.1305C26.3806 11.1294 26.4086 11.1326 26.4302 11.1411C26.4371 11.1437 26.4439 11.1458 26.4492 11.1496L26.4508 11.1501C26.4619 11.158 26.4698 11.1707 26.474 11.1882C26.4787 11.2057 26.4798 11.2279 26.4782 11.2544L26.4777 11.2555ZM25.6546 12.6567C25.672 12.7007 25.7169 12.7277 25.7638 12.7229L26.435 12.6498L25.9728 13.0846C25.9712 13.0862 25.9706 13.0878 25.9691 13.0894C25.9427 13.1169 25.9327 13.1567 25.9443 13.1937C25.9548 13.2266 25.9807 13.2514 26.0129 13.2615C26.0187 13.2636 26.0239 13.2657 26.0303 13.2668C26.0567 13.2705 26.092 13.2763 26.1321 13.2827C26.2128 13.2959 26.3152 13.3139 26.4165 13.3346C26.3716 13.3499 26.3268 13.3664 26.2851 13.3838C26.2065 13.4167 26.139 13.4511 26.1026 13.486C26.0804 13.5072 26.0677 13.5369 26.0693 13.5676C26.0698 13.5867 26.0767 13.6047 26.0867 13.6206C26.0931 13.6301 26.0999 13.6391 26.1094 13.6465C26.1094 13.6465 26.158 13.6857 26.2244 13.7461C26.2487 13.7683 26.2761 13.7937 26.3046 13.8218L26.3067 13.8239C26.3326 13.8488 26.359 13.8763 26.3854 13.9044L23.5009 12.6816C24.2295 12.7536 25.3153 12.867 25.5945 12.9321C25.6509 12.9454 25.7079 12.9099 25.7211 12.8527C25.7322 12.804 25.7079 12.7558 25.6657 12.734C25.6583 12.7303 25.6509 12.7272 25.6425 12.725C25.6324 12.7229 25.6214 12.7203 25.6098 12.7182C25.1998 12.6334 23.7161 12.4878 23.102 12.4295C23.4027 12.2987 23.9631 12.2468 24.3271 12.2468C24.3561 12.2479 24.3852 12.2484 24.4142 12.2484C25.0299 12.2484 25.6356 12.0488 26.0551 11.8359C25.9791 12.0848 25.8504 12.4115 25.6905 12.5328C25.6551 12.5598 25.6419 12.6054 25.6541 12.6472C25.6551 12.6504 25.6546 12.653 25.6562 12.6562L25.6546 12.6567ZM26.7426 15.8294C26.6249 15.7839 26.5204 15.7627 26.4444 15.7537C26.3748 15.7452 26.33 15.7463 26.3242 15.7468C26.293 15.7479 26.264 15.7627 26.245 15.7876C26.2302 15.8067 26.2229 15.83 26.2229 15.8538C26.2229 15.8607 26.2234 15.8676 26.225 15.8744C26.2382 15.9364 26.2498 15.9984 26.2608 16.0603L26.2614 16.0646C26.3284 16.4501 26.3532 16.8298 26.359 17.1449C26.1442 16.3251 25.9564 15.8225 25.9538 15.8162C25.9511 15.8098 25.9485 15.8035 25.9448 15.7977C25.9406 15.7908 25.9348 15.7834 25.929 15.7781L25.9247 15.7749C25.92 15.7706 25.9147 15.7664 25.9094 15.7632L25.9052 15.7611C25.8994 15.7579 25.8936 15.7553 25.8873 15.7532C25.8794 15.7505 25.8715 15.7489 25.863 15.7484H25.8593H25.8562C25.854 15.7484 25.8519 15.7495 25.8493 15.7495C25.8435 15.7495 25.8377 15.7505 25.8324 15.7521C25.8292 15.7526 25.8261 15.7537 25.8229 15.7548L25.8187 15.7558C25.8118 15.7585 25.806 15.7616 25.8002 15.7648L25.7976 15.7664C25.7928 15.7696 25.7886 15.7728 25.7849 15.7765C25.7833 15.7781 25.7807 15.7807 25.7807 15.7807C25.7775 15.7839 25.7749 15.7871 25.7723 15.7908C25.7707 15.7929 25.7696 15.7945 25.768 15.7966C25.7659 15.7998 25.7638 15.8035 25.7622 15.8072C25.7612 15.8093 25.7601 15.8114 25.7591 15.8141C25.7575 15.8178 25.7564 15.8215 25.7554 15.8252C25.7549 15.8278 25.7538 15.8305 25.7533 15.8331L25.7522 15.8363L25.7506 15.8443C25.6129 16.5438 25.4436 17.2821 25.2969 17.764C25.3264 17.0602 25.375 15.875 25.4035 15.0933C25.4119 14.8603 25.4182 14.6776 25.4225 14.5452C25.6029 14.6151 25.7886 14.6797 25.9759 14.7374C25.9786 14.7385 25.9812 14.739 25.9838 14.7401L25.9849 14.7411C26.0107 14.7735 26.0435 14.8163 26.0799 14.8667C26.254 15.1044 26.531 15.5133 26.7431 15.8305L26.7426 15.8294ZM9.60765 8.21305L9.62928 8.2443C9.62928 8.2443 9.63245 8.24853 9.63403 8.25118C9.64195 8.26336 9.65039 8.27501 9.65725 8.28349C9.68152 8.31791 9.70737 8.35339 9.73744 8.39152C9.75538 8.41429 9.77385 8.43706 9.79232 8.45878L9.79443 8.46142L9.79759 8.46566C9.81659 8.48843 9.83664 8.5112 9.85563 8.53292L9.86196 8.54033C9.86196 8.54033 9.86407 8.54298 9.86566 8.54457C9.88254 8.56363 9.89995 8.58217 9.91683 8.60017L9.92053 8.60441C9.97329 8.66001 10.0239 8.71032 10.0767 8.75905C10.0973 8.77811 10.1173 8.79665 10.1374 8.81412C10.2656 8.92798 10.407 9.03654 10.5589 9.13663L10.5737 9.14617C10.5853 9.15411 10.5969 9.16152 10.6075 9.16788C10.6555 9.19859 10.704 9.22878 10.7542 9.25791C9.53167 8.94122 8.82889 7.93449 8.82045 7.92284C8.79354 7.88365 8.74447 7.86724 8.70015 7.8826C8.6553 7.89742 8.62628 7.94032 8.62839 7.98745C8.62892 8.0044 8.64791 8.40847 8.80303 8.85914C9.01355 9.46974 9.37603 9.86745 9.85194 10.0094C10.0741 10.0756 10.2867 10.1084 10.4951 10.1084C10.5621 10.1084 10.6291 10.1047 10.6956 10.0978C10.072 10.4717 8.53553 11.4631 8.31974 12.2707C8.31974 12.2707 7.47819 8.51862 8.31974 7.88895C8.77507 7.5479 9.15601 7.67712 9.41032 7.86671C9.4673 7.98639 9.53326 8.10237 9.60871 8.21517L9.60765 8.21305ZM25.9506 10.8413C25.5581 10.9902 24.9033 11.131 24.0823 10.9044C24.0264 10.889 23.9678 10.9218 23.9525 10.9785C23.9372 11.0352 23.9699 11.0934 24.0264 11.1088C24.3614 11.2015 24.6701 11.2369 24.9471 11.2369C25.2958 11.2369 25.5934 11.1797 25.8324 11.1077C25.4145 11.4011 24.7909 11.677 24.0317 11.5261C23.4634 11.4133 23.0049 11.2009 22.6688 10.8954C22.5432 10.781 22.4594 10.674 22.4071 10.5951C22.4193 10.5935 22.4319 10.5924 22.4451 10.5903L22.481 10.5856C22.4905 10.5845 22.5 10.5829 22.51 10.5813C22.519 10.5803 22.5279 10.5792 22.5369 10.5776L22.5522 10.5755H22.5549C22.557 10.5755 22.5596 10.5755 22.5617 10.5744L22.568 10.5734C22.5807 10.5713 22.5934 10.5697 22.6045 10.5676C22.6277 10.5638 22.6519 10.5596 22.6767 10.5554L22.7126 10.549C22.7269 10.5464 22.7411 10.5437 22.7559 10.5411L22.7786 10.5368C22.796 10.5337 22.8134 10.5305 22.8297 10.5268C22.8709 10.5188 22.9142 10.5093 22.9574 10.4992C22.9738 10.4955 22.9896 10.4918 23.006 10.4881L23.025 10.4839C23.1015 10.4659 23.1716 10.4473 23.2392 10.4283C23.3811 10.3891 23.541 10.3711 23.723 10.3806C23.7483 10.3817 23.7737 10.3833 23.8016 10.3854C23.8275 10.3875 23.8538 10.3891 23.8839 10.3933C23.9108 10.396 23.9377 10.3991 23.9668 10.4034C23.9937 10.4066 24.0206 10.4108 24.0496 10.4161C24.1319 10.4299 24.2163 10.4473 24.3007 10.468C24.515 10.5188 24.7439 10.5914 25.0014 10.6909C25.0489 10.7089 25.0938 10.7238 25.137 10.7354L25.1391 10.736H25.1402C25.2283 10.7608 25.3264 10.7815 25.4341 10.7979C25.4715 10.8037 25.51 10.809 25.5496 10.8133C25.6894 10.8297 25.8271 10.8382 25.9506 10.8413ZM25.1966 14.9556C24.9587 14.8942 24.4237 14.7268 24.1066 14.3964C24.3229 14.426 24.611 14.4255 24.7867 14.2682C24.9291 14.3371 25.0721 14.4017 25.213 14.4599C25.2098 14.5712 25.2045 14.7364 25.1966 14.9556ZM25.8108 14.4599C25.6704 14.4123 25.5317 14.3609 25.3961 14.3058C25.3771 14.2857 25.3502 14.273 25.3201 14.273H25.3164C25.1486 14.2042 24.9787 14.1274 24.8094 14.0432C24.3229 13.8017 23.8776 13.5178 23.4798 13.198C23.6069 13.2144 23.7531 13.2271 23.9013 13.2271C23.991 13.2271 24.0813 13.2223 24.1678 13.2112C24.1762 13.2101 24.1841 13.2075 24.192 13.2048L25.3597 13.6995L25.8108 14.4599ZM22.318 18.6616C22.1802 19.0291 21.8014 19.2749 21.5186 19.3739C21.0965 19.5211 20.6333 19.6005 20.2106 19.6005C20.1183 19.6005 20.0281 19.5968 19.9405 19.5889C19.5749 19.5566 18.9512 19.3538 18.7317 18.9264C18.6537 18.7739 18.5977 18.5281 18.7766 18.2221C18.8742 18.0552 19.0283 17.917 19.234 17.8106C19.2372 17.809 19.2398 17.8074 19.243 17.8058C19.511 17.6686 19.8144 17.5972 20.0191 17.5553C20.4966 17.4584 20.8918 17.4309 21.2638 17.4701C21.5978 17.5055 22.042 17.6295 22.2631 18.0203C22.3792 18.2252 22.3987 18.4471 22.318 18.6616ZM22.2351 16.5878C21.1883 16.6111 20.6903 17.1417 19.4609 17.4949C18.3265 17.8206 17.8163 15.7913 19.5944 15.6573C21.3777 15.5233 22.2351 16.5878 22.2351 16.5878ZM12.5971 17.4452C11.3678 17.0813 10.8697 16.5354 9.82292 16.5105C9.82292 16.5105 10.6803 15.4142 12.4636 15.5525C14.2417 15.6901 13.7315 17.7809 12.5971 17.4452ZM13.5337 18.9264C13.3142 19.3538 12.6905 19.5566 12.3249 19.5889C12.2373 19.5963 12.1471 19.6005 12.0547 19.6005C11.6321 19.6005 11.1689 19.5211 10.7468 19.3739C10.464 19.2749 10.0851 19.0291 9.94744 18.6616C9.86724 18.4471 9.8857 18.2252 10.0018 18.0203C10.2229 17.6295 10.6671 17.505 11.0011 17.4701C11.3736 17.4309 11.7688 17.4584 12.2457 17.5553C12.4505 17.5972 12.7538 17.6686 13.024 17.8069C13.0261 17.8079 13.0287 17.809 13.0308 17.8106C13.2377 17.9175 13.3917 18.0558 13.4883 18.2221C13.6671 18.5281 13.6117 18.7744 13.5337 18.9264ZM6.50895 14.2719C6.65141 14.4456 6.82605 14.6135 7.03077 14.7745C6.83133 15.5228 6.61606 16.5798 6.58651 17.729C6.48574 17.3483 6.38285 16.8118 6.36808 16.1774C6.36808 16.1588 6.36702 16.1408 6.36702 16.1223C6.56013 15.4153 6.548 14.7136 6.50895 14.2719ZM25.8319 10.3743C25.758 10.4754 25.6599 10.575 25.5554 10.6004C25.4531 10.5877 25.3591 10.5718 25.2742 10.5517C25.2758 10.5098 25.2774 10.4542 25.2784 10.3864C25.4066 10.3938 25.6229 10.3997 25.8319 10.3743ZM24.3361 10.2583C24.2517 10.2376 24.1673 10.2201 24.0855 10.2069C24.0543 10.2011 24.0243 10.1968 23.9952 10.1931C23.9641 10.1889 23.934 10.1847 23.9071 10.1825C23.8776 10.1788 23.847 10.1762 23.8159 10.1741C23.7874 10.172 23.7599 10.1704 23.733 10.1693C23.7008 10.1677 23.6692 10.1672 23.637 10.1672C23.4729 10.1672 23.3204 10.1863 23.1827 10.2244C23.1173 10.2429 23.0503 10.2604 22.9769 10.2779L22.958 10.2821C22.9427 10.2858 22.9274 10.2895 22.911 10.2927C22.8688 10.3028 22.8282 10.3112 22.7875 10.3192C22.7712 10.3224 22.7553 10.3255 22.7395 10.3287L22.7158 10.3335C22.7026 10.3361 22.6894 10.3388 22.6767 10.3409L22.6409 10.3472C22.6171 10.3515 22.5939 10.3552 22.5696 10.3594C22.558 10.3615 22.5469 10.3631 22.5359 10.3647H22.5322L22.5306 10.3653H22.5258L22.5053 10.3684C22.4973 10.3695 22.49 10.3705 22.4826 10.3716C22.4805 10.3716 22.4783 10.3716 22.4762 10.3727C22.4683 10.3743 22.4599 10.3753 22.4525 10.3764L22.4182 10.3806C22.4003 10.3827 22.3834 10.3848 22.3639 10.387C22.3544 10.3886 22.3449 10.3891 22.3359 10.3901C22.2689 10.397 22.2293 10.3991 22.2293 10.3991C22.2151 10.3997 22.2019 10.4039 22.1892 10.4103C21.9792 10.2938 21.6157 10.0798 21.4542 9.91088C21.4579 9.90876 21.4616 9.90611 21.4664 9.90346C21.4775 9.89711 21.488 9.88916 21.4986 9.88069C21.5075 9.87433 21.5165 9.86639 21.5249 9.85845C21.5339 9.85103 21.5434 9.84203 21.5492 9.83515C21.5877 9.79649 21.6231 9.74988 21.6574 9.69269C21.6616 9.68528 21.6679 9.67574 21.6748 9.66515C21.679 9.6588 21.6832 9.65191 21.6848 9.64926L21.7001 9.62596C21.7434 9.56082 21.8083 9.46179 21.8837 9.34105L21.9027 9.31086C21.9761 9.19171 22.0404 9.08262 22.099 8.97776C22.1106 8.95764 22.1217 8.93698 22.1322 8.91739C22.1755 8.83848 22.2203 8.75269 22.2652 8.66213C22.3042 8.58375 22.3354 8.51809 22.3633 8.45613C22.3818 8.41588 22.4003 8.37457 22.4171 8.33432C22.4514 8.25436 22.4847 8.17174 22.5158 8.08807C22.5322 8.04465 22.5469 8.00175 22.5617 7.95885C24.5645 6.74136 24.3915 9.65827 24.3361 10.2583ZM6.95637 11.4959V11.497C7.0371 12.2188 7.18378 12.9316 7.39482 13.6206C7.3753 13.6719 7.33573 13.7773 7.28402 13.9293C6.76115 13.6778 6.74955 12.7065 6.74902 12.6965C6.74902 12.6382 6.70153 12.5911 6.6435 12.5911C6.58546 12.5911 6.53797 12.6387 6.5385 12.6975C6.5385 12.7462 6.55169 13.8419 7.2186 14.1321C7.17428 14.2719 7.13207 14.4128 7.09197 14.5537C6.80125 14.3148 6.58282 14.0612 6.44142 13.799C6.44036 13.7969 6.43878 13.7943 6.4372 13.7921V13.7911C6.43561 13.7884 6.43456 13.7853 6.43298 13.7826C6.42506 13.7678 6.4182 13.7524 6.41082 13.7376C6.39024 13.6958 6.37177 13.6545 6.35542 13.6131C6.34961 13.5988 6.34381 13.5851 6.33853 13.5708C6.33062 13.5485 6.32376 13.5268 6.3169 13.5051C6.31268 13.4913 6.30793 13.4781 6.30424 13.4643C6.29791 13.4416 6.2921 13.4188 6.28683 13.3966C6.28419 13.3844 6.28102 13.3727 6.27838 13.3605C6.27311 13.3367 6.26889 13.3123 6.26467 13.2885C6.26308 13.2795 6.26203 13.27 6.26044 13.261C6.25675 13.2345 6.25306 13.208 6.25042 13.1821C6.25042 13.1784 6.25042 13.1752 6.24937 13.1715C6.18289 12.4137 6.69098 11.7734 6.95532 11.4959H6.95637ZM25.5053 7.79045V7.79151C25.4441 7.93661 25.3454 8.11932 25.194 8.27925C25.1782 8.15056 25.1608 8.03035 25.1418 7.91755C25.2325 7.89319 25.3729 7.85082 25.5063 7.79098L25.5053 7.79045ZM15.2162 5.21406C15.4389 5.22359 15.6763 5.23365 15.9227 5.24848C16.1823 5.26437 16.453 5.28608 16.7289 5.31891C16.7537 5.32262 16.7785 5.3258 16.8038 5.32845C18.8953 5.59429 20.1051 6.41355 20.6122 7.90696C20.6269 7.95091 20.6681 7.97898 20.7119 7.97898C20.723 7.97898 20.7346 7.97686 20.7462 7.97315C20.8016 7.95409 20.8306 7.89425 20.8121 7.83864C20.2835 6.28168 18.9813 5.392 16.8307 5.1182H16.8297H16.8286C16.8049 5.11556 16.7806 5.11291 16.7558 5.1092C16.4398 5.06631 16.1338 4.9678 15.8557 4.846C15.6631 4.7618 15.4837 4.66701 15.3239 4.57221C15.9633 4.73214 16.6466 4.71414 17.314 4.69666C18.4648 4.66648 19.654 4.6347 20.6444 5.49473C20.7034 5.5461 20.7588 5.59853 20.8121 5.65202C20.8153 5.6552 20.819 5.6589 20.8222 5.66208C20.8438 5.68379 20.8644 5.70603 20.8849 5.72828C20.8918 5.73569 20.8992 5.74363 20.906 5.75105C20.925 5.7717 20.943 5.79289 20.9609 5.81407C20.9688 5.8236 20.9767 5.8326 20.9847 5.84214C21.0015 5.86279 21.0184 5.88344 21.0348 5.90463C21.0427 5.91469 21.0506 5.92475 21.0585 5.93534C21.0744 5.956 21.0897 5.97718 21.1044 5.99836C21.1118 6.00895 21.1197 6.01954 21.1271 6.03067C21.1414 6.05185 21.1556 6.07303 21.1693 6.09474C21.1762 6.10587 21.1831 6.11646 21.1899 6.12758C21.2036 6.14929 21.2168 6.171 21.2295 6.19325C21.2358 6.20384 21.2416 6.21496 21.2479 6.22608C21.2606 6.24832 21.2727 6.27109 21.2844 6.29387C21.2896 6.30446 21.2949 6.31452 21.2997 6.32511C21.3113 6.34894 21.3229 6.37224 21.3339 6.3966C21.3382 6.40561 21.3419 6.41461 21.3461 6.42414C21.3572 6.44956 21.3688 6.47551 21.3788 6.50146C21.3809 6.50623 21.3825 6.51099 21.3841 6.51576C21.4215 6.61214 21.4532 6.71064 21.478 6.81179L21.4796 6.81709C21.4864 6.84462 21.4917 6.87216 21.4975 6.90023C21.4996 6.90976 21.5017 6.91982 21.5038 6.92936C21.5086 6.95531 21.5128 6.98179 21.517 7.00773C21.5197 7.02468 21.5228 7.04163 21.5249 7.0591C21.5249 7.06228 21.526 7.06546 21.5265 7.06864C21.5318 7.10835 21.536 7.14807 21.5397 7.18832C21.6062 7.96733 21.306 8.68702 21.1176 9.05243C21.0939 8.92533 21.0744 8.83266 21.0728 8.8263C21.0643 8.78817 21.0364 8.75799 20.9989 8.74686C20.9615 8.73574 20.9214 8.74686 20.8944 8.7744L20.6074 9.06832C20.523 8.82524 20.3663 8.49955 20.3441 8.45295C20.3273 8.41853 20.293 8.39576 20.255 8.39364C20.217 8.39152 20.18 8.41058 20.16 8.44342C20.0819 8.56946 20.0323 8.78658 20.0033 8.95922C19.8798 8.81412 19.6846 8.61235 19.4161 8.41376C19.3338 8.35286 19.2488 8.29567 19.1633 8.24324C18.7333 7.97951 18.2637 7.82011 17.7683 7.76874C17.7103 7.76238 17.6586 7.80475 17.6528 7.863C17.647 7.92125 17.6892 7.97315 17.7467 7.97898C18.1134 8.01711 18.4642 8.11932 18.7945 8.28243C18.5481 8.30943 18.1556 8.31632 17.6728 8.19822C16.2757 7.85771 15.212 6.7546 14.5657 5.88874C14.5308 5.84214 14.4644 5.8326 14.4179 5.86756C14.3715 5.90251 14.362 5.96923 14.3968 6.01584C15.6109 7.64164 16.8297 8.21358 17.638 8.40741C17.9667 8.48631 18.2548 8.5112 18.488 8.5112C18.7898 8.5112 19.0003 8.46937 19.0905 8.44765C19.1264 8.47043 19.1623 8.49373 19.1982 8.51809C19.013 8.67061 18.5603 8.74634 18.1044 8.62665C17.5377 8.47784 16.9695 8.47572 16.9452 8.47572C16.9014 8.47572 16.8619 8.50326 16.8466 8.54457C16.8313 8.58587 16.8429 8.63248 16.8756 8.6616C16.998 8.76964 17.266 8.88455 17.4961 8.97088C16.7748 9.08103 15.2268 9.23037 14.1394 8.71986C13.0213 7.77986 12.3703 6.78266 12.2046 5.75529C12.1961 5.70445 12.1898 5.65361 12.184 5.60383C12.1787 5.55616 12.174 5.5085 12.1708 5.4619C12.1698 5.44707 12.1692 5.43277 12.1682 5.41847C12.1661 5.37664 12.164 5.33533 12.1634 5.29508C12.1634 5.2739 12.1634 5.25325 12.1634 5.23206C12.1634 5.20982 12.1634 5.18811 12.1645 5.16587C12.1655 5.12456 12.1671 5.08378 12.1698 5.04406C12.1698 5.0393 12.1703 5.03453 12.1708 5.02924C12.2151 4.36621 12.4573 3.85781 12.6151 3.5909L12.6172 3.58773C12.7385 4.06117 13.1306 5.02235 14.324 5.15898C14.5709 5.18705 14.8712 5.19976 15.2189 5.21459L15.2162 5.21406ZM12.0099 5.86914L12.0104 5.87285C12.2046 6.91877 12.8704 7.92814 13.9927 8.87396C14.0254 8.94757 14.1309 9.15093 14.3678 9.31669C14.0243 9.29921 13.5083 9.19912 12.9754 8.82577C12.9448 8.80406 12.9053 8.80088 12.871 8.81624C12.8372 8.8316 12.814 8.86443 12.8098 8.9015C12.8082 8.91739 12.7813 9.20389 12.9111 9.41572C12.795 9.4189 12.6441 9.40354 12.5027 9.33099C11.1673 8.48949 10.4677 7.54737 10.4218 6.52953C10.4239 6.52529 10.426 6.52052 10.427 6.51576C10.435 6.48875 10.4313 6.46121 10.4197 6.43844C10.4197 6.37436 10.4212 6.31187 10.4255 6.25097C10.427 6.2282 10.4297 6.20543 10.4318 6.18265C10.4339 6.16465 10.4355 6.14611 10.4376 6.12811C10.4392 6.11381 10.4413 6.09951 10.4434 6.08521C10.4476 6.05661 10.4518 6.02855 10.4566 6.00101C10.4571 5.99677 10.4582 5.99254 10.4587 5.9883C10.5426 5.53657 10.7383 5.18493 10.8639 4.9964C10.9056 5.09067 10.97 5.2077 11.0649 5.32686C11.0692 5.33162 11.0728 5.33692 11.0765 5.34169C11.0813 5.34751 11.0866 5.35334 11.0913 5.35916C11.0998 5.36922 11.1082 5.37929 11.1177 5.38988L11.1209 5.39358C11.2058 5.48785 11.3113 5.58 11.4422 5.66049C11.4327 6.06668 11.4823 8.14632 13.4292 8.90892C13.4418 8.91368 13.4545 8.91633 13.4677 8.91633C13.5099 8.91633 13.55 8.89091 13.5658 8.84907C13.5869 8.79453 13.56 8.7331 13.5057 8.71191C11.8115 8.04782 11.658 6.3071 11.6522 5.76694C11.6844 5.78018 11.7165 5.79289 11.7498 5.80401C11.7609 5.80771 11.7714 5.81142 11.7825 5.81513C11.821 5.82731 11.86 5.83843 11.9001 5.84796C11.906 5.84955 11.9112 5.85114 11.917 5.8522C11.9471 5.85908 11.9782 5.86385 12.0088 5.86967L12.0099 5.86914ZM10.2112 6.547C10.2128 6.5809 10.2149 6.61426 10.2181 6.64762C10.3089 7.6893 11.0291 8.64519 12.3623 9.49198C12.3729 9.52164 12.3898 9.56188 12.4172 9.60425C12.27 9.61272 12.0764 9.61272 11.8928 9.58042C11.7287 9.55129 11.5577 9.61855 11.3604 9.69587C11.2348 9.74512 11.0929 9.80072 10.9293 9.84097C10.9183 9.84415 10.9066 9.8468 10.8945 9.84944L10.8803 9.85262C10.866 9.8558 10.8512 9.85845 10.8333 9.86215C10.8307 9.86215 10.828 9.86321 10.8254 9.86374C10.8106 9.86639 10.7953 9.86904 10.779 9.87169C10.4999 9.91723 10.216 9.89552 9.91156 9.80496C9.49949 9.6821 9.194 9.34158 9.00353 8.79347C8.94655 8.6293 8.90908 8.46937 8.88429 8.33591C9.27894 8.77123 10.1516 9.53646 11.4269 9.56294C11.487 9.56294 11.534 9.51687 11.5345 9.45809C11.5345 9.41095 11.5044 9.37018 11.4617 9.35641C11.4617 9.35641 11.458 9.35482 11.4559 9.35429L11.4506 9.3527L11.4438 9.35058C11.4258 9.34476 11.3942 9.33311 11.3504 9.31563L11.3303 9.30769C11.3013 9.29604 11.2681 9.28174 11.2311 9.26532C11.2042 9.25367 11.1757 9.24043 11.1457 9.22613C11.0939 9.20177 11.0375 9.17317 10.9742 9.13928L10.913 9.10539C10.8481 9.06885 10.7832 9.03019 10.7188 8.98835C10.7083 8.982 10.6982 8.97511 10.6882 8.96876L10.6729 8.95922C10.5305 8.86549 10.397 8.76328 10.2761 8.65525C10.2571 8.6383 10.2382 8.62136 10.217 8.60123C10.1696 8.55728 10.1221 8.51067 10.073 8.45878L10.0693 8.45507C10.0535 8.43865 10.0377 8.42117 10.0224 8.4037L10.0197 8.40052L10.0139 8.39364C9.99598 8.37298 9.97751 8.35233 9.9601 8.33168L9.95852 8.32956C9.95852 8.32956 9.95588 8.32585 9.95429 8.32426C9.93688 8.30361 9.91947 8.28243 9.90259 8.26071C9.87515 8.22629 9.85141 8.19399 9.82767 8.15956C9.82081 8.15056 9.81448 8.14103 9.80814 8.13203C9.80656 8.12991 9.80551 8.12779 9.80392 8.1262L9.80287 8.12461L9.78124 8.09337C9.5169 7.6983 9.37444 7.25187 9.35703 6.76625C9.35545 6.72176 9.35598 6.67675 9.3565 6.63174C9.3565 6.59572 9.35809 6.55918 9.3602 6.52264C9.36125 6.50358 9.36178 6.48504 9.36336 6.46598C9.366 6.42944 9.36917 6.3929 9.37286 6.35583C9.37497 6.33676 9.37708 6.31717 9.37919 6.2981C9.38341 6.2605 9.38869 6.2229 9.39449 6.1853C9.39713 6.16624 9.4003 6.14717 9.40399 6.12864C9.41032 6.08998 9.41771 6.05079 9.42562 6.0116C9.42932 5.9936 9.43354 5.97559 9.43723 5.95758C9.4462 5.91681 9.45517 5.87603 9.46519 5.83525C9.46941 5.81883 9.47416 5.80242 9.47838 5.786C9.48946 5.74311 9.50107 5.69968 9.51426 5.65625C9.51796 5.64354 9.52218 5.63031 9.5264 5.6176C9.55858 5.51221 9.59446 5.40576 9.63561 5.29773C9.69576 5.52227 9.7844 5.81672 9.89362 6.06827C9.98701 6.28221 10.0952 6.46492 10.2134 6.54753L10.2112 6.547ZM15.6573 27.5733L15.6557 27.5723C15.6346 27.5553 15.6088 27.5474 15.5834 27.5484C15.5602 27.5495 15.537 27.5585 15.518 27.5754C15.4763 27.6136 15.4721 27.6771 15.5075 27.7205L15.5096 27.7232L15.5112 27.7253C15.5127 27.7269 15.517 27.7317 15.517 27.7317C15.6098 27.8228 15.6636 27.998 15.6927 28.1543V28.1559C15.5824 28.0748 15.4188 27.9663 15.1782 27.8249C14.7514 27.5744 13.9995 27.1761 12.7185 26.6005C12.6974 26.591 12.6763 26.5814 12.6546 26.5719C12.6378 26.5645 12.6198 26.5565 12.6029 26.5486C12.2542 26.3929 11.868 26.2245 11.4395 26.0434C8.32185 24.7231 6.46147 22.2452 5.79403 21.2179C5.78876 21.1586 5.77609 20.9912 5.78401 20.772C5.79772 20.3727 5.88795 19.6535 6.33748 19.3204C6.615 19.1149 7.00069 19.0773 7.48399 19.2087C8.44267 19.4697 9.18028 19.9384 9.83136 20.3525C10.6033 20.8435 11.2696 21.2666 12.0062 21.1109C12.5533 20.9949 13.0736 20.6941 13.6244 20.3753C14.3826 19.9374 15.1661 19.484 16.0842 19.484C17.0022 19.484 17.7862 19.9374 18.5444 20.3753C19.0953 20.6936 19.616 20.9944 20.1632 21.1109C20.8997 21.2671 21.5661 20.8435 22.3375 20.3531C22.9886 19.9389 23.7262 19.4703 24.6854 19.2092C25.1513 19.0821 25.5259 19.1218 25.7986 19.3267C26.0144 19.4888 26.15 19.7414 26.2355 20.011C26.2598 20.0872 26.2798 20.1645 26.2962 20.2419C26.3505 20.4934 26.3685 20.7413 26.3727 20.9277V20.9287V20.9319C26.3774 21.1654 26.3627 21.3423 26.3579 21.3937C25.3971 23.3129 21.7355 25.822 19.329 26.6275C17.361 27.2858 16.6065 28.0563 16.3427 28.4254C16.2572 28.2284 16.1216 28.0457 15.9929 27.9001C15.8362 27.7221 15.6895 27.5993 15.6584 27.5739L15.6573 27.5733ZM5.88531 16.251L5.88478 16.2531V16.2552L5.88531 16.251Z" fill="#110F23"/>
<path d="M21.2358 17.7333C20.8913 17.6972 20.5214 17.7227 20.0713 17.8143C19.883 17.8529 19.6049 17.9181 19.3643 18.0404C19.3622 18.0415 19.3601 18.0431 19.358 18.0441C19.1976 18.1262 19.0752 18.2342 19.004 18.356C18.9079 18.5202 18.8953 18.6674 18.966 18.8046C19.1116 19.0879 19.5875 19.2918 19.9632 19.3246C20.4159 19.3644 20.9514 19.2907 21.4315 19.1234C21.6785 19.0371 21.9718 18.8321 22.0705 18.5684C22.1232 18.4281 22.1106 18.2877 22.0336 18.1511C21.8679 17.8577 21.508 17.7624 21.2358 17.7333ZM20.1299 18.365C19.9901 18.365 19.8772 18.2512 19.8772 18.1108C19.8772 17.9705 19.9901 17.8572 20.1299 17.8572C20.2697 17.8572 20.3832 17.9705 20.3832 18.1108C20.3832 18.2512 20.2697 18.365 20.1299 18.365Z" fill="#110F23"/>
<path d="M12.9069 18.0441C12.9069 18.0441 12.9026 18.042 12.9005 18.0404C12.6594 17.9181 12.3819 17.8529 12.1935 17.8143C11.8738 17.7491 11.5942 17.7174 11.3356 17.7174C11.2306 17.7174 11.1288 17.7226 11.0291 17.7332C10.7568 17.7618 10.3975 17.8577 10.2313 18.1511C10.1543 18.2877 10.1416 18.428 10.1944 18.5684C10.2931 18.8321 10.5864 19.0376 10.8333 19.1234C11.3135 19.2907 11.849 19.3643 12.3017 19.3246C12.6774 19.2918 13.1533 19.0879 13.2989 18.8046C13.3696 18.6674 13.3569 18.5202 13.2609 18.356C13.1902 18.2347 13.0678 18.1267 12.9069 18.0441ZM11.0365 18.2803C10.8966 18.2803 10.7832 18.1664 10.7832 18.0261C10.7832 17.8858 10.8966 17.7724 11.0365 17.7724C11.1763 17.7724 11.2897 17.8858 11.2897 18.0261C11.2897 18.1664 11.1763 18.2803 11.0365 18.2803Z" fill="#110F23"/>
<path d="M18.8267 24.1215C18.8341 24.1221 18.8415 24.1226 18.8483 24.1226C18.9554 24.1226 19.0467 24.0416 19.0578 23.9325C19.0699 23.816 18.9855 23.7122 18.8694 23.7C18.3598 23.6476 17.0465 23.4373 16.4714 23.0582L17.2718 22.088C17.3889 21.946 17.4528 21.7676 17.4528 21.5833C17.4528 21.2528 17.2481 20.9568 16.9394 20.8413L16.8307 20.8006C16.7426 20.7677 16.6492 20.7508 16.5553 20.7508H15.7391C15.6452 20.7508 15.5518 20.7677 15.4637 20.8006L15.355 20.8413C15.0463 20.9568 14.8416 21.2528 14.8416 21.5833C14.8416 21.7676 14.9055 21.946 15.0226 22.088L15.823 23.0582C15.2479 23.4373 13.9346 23.6476 13.425 23.7C13.3089 23.7122 13.2245 23.816 13.2366 23.9325C13.2477 24.0416 13.3395 24.1226 13.4461 24.1226C13.4534 24.1226 13.4603 24.1226 13.4677 24.1215C13.6766 24.0998 15.4072 23.9065 16.1464 23.3452C16.8856 23.9065 18.6162 24.0998 18.8251 24.1215H18.8267ZM15.6241 21.6272C15.431 21.6272 15.2743 21.47 15.2743 21.2761C15.2743 21.0823 15.431 20.925 15.6241 20.925C15.8172 20.925 15.9739 21.0823 15.9739 21.2761C15.9739 21.47 15.8172 21.6272 15.6241 21.6272Z" fill="#110F23"/>
</svg>
