<svg width="32" height="32" viewBox="0 0 32 32" fill="none" xmlns="http://www.w3.org/2000/svg">
<path d="M17.8365 14.6285L24.8572 7.64808L22.1938 5L16.5048 10.6563L10.8158 5L8.15247 7.64808L15.1732 14.6285C15.5409 14.9941 16.0229 15.1769 16.5048 15.1769C16.9868 15.1769 17.4688 14.9942 17.8365 14.6285ZM28 22.0854L22.311 16.4292L28 10.7728L25.3366 8.12469L18.3159 15.1051C17.5805 15.8364 17.5805 17.0219 18.3159 17.7532L25.3366 24.7336L28 22.0854ZM16.4951 22.2117L22.184 27.868L24.8474 25.2199L17.8268 18.2395C17.0912 17.5083 15.8988 17.5083 15.1634 18.2395L8.14275 25.2199L10.8061 27.868L16.4951 22.2117ZM14.684 17.7629C15.0372 17.4118 15.2357 16.9355 15.2357 16.4389C15.2357 15.9423 15.0372 15.466 14.684 15.1149L7.66338 8.13446L5 10.7826L10.689 16.4388L5 22.0952L7.66338 24.7433L14.684 17.7629Z" fill="#E6DAFE"/>
</svg>
