<?xml version="1.0" encoding="UTF-8"?>
<!DOCTYPE svg PUBLIC "-//W3C//DTD SVG 1.1//EN" "http://www.w3.org/Graphics/SVG/1.1/DTD/svg11.dtd">
<svg xmlns="http://www.w3.org/2000/svg" version="1.1" width="64px" height="64px" style="shape-rendering:geometricPrecision; text-rendering:geometricPrecision; image-rendering:optimizeQuality; fill-rule:evenodd; clip-rule:evenodd" xmlns:xlink="http://www.w3.org/1999/xlink">
<g><path style="opacity:0.999" fill="#cbf2ef" d="M -0.5,-0.5 C 8.83333,-0.5 18.1667,-0.5 27.5,-0.5C 26.8407,2.40823 26.0074,2.74156 25,0.5C 24.5172,1.44802 24.3505,2.44802 24.5,3.5C 23.5,3.5 22.5,3.5 21.5,3.5C 21.6495,4.55198 21.4828,5.55198 21,6.5C 16.927,10.1919 12.7603,13.6919 8.5,17C 8.83333,17.3333 9.16667,17.6667 9.5,18C 7.96798,18.6995 6.96798,19.8662 6.5,21.5C 3.9654,23.2975 1.63207,24.9642 -0.5,26.5C -0.5,17.5 -0.5,8.5 -0.5,-0.5 Z"/></g>
<g><path style="opacity:0.999" fill="#d1f4ea" d="M 27.5,-0.5 C 32.8333,-0.5 38.1667,-0.5 43.5,-0.5C 42.7101,0.794229 41.7101,1.9609 40.5,3C 40.8333,3.33333 41.1667,3.66667 41.5,4C 40.2842,5.73984 38.6175,6.73984 36.5,7C 36.8333,7.33333 37.1667,7.66667 37.5,8C 35,9.16667 33.1667,11 32,13.5C 31.6667,12.8333 31.3333,12.1667 31,11.5C 28.442,14.8911 25.942,18.3911 23.5,22C 20.3384,21.3097 18.6718,22.8097 18.5,26.5C 12.1194,24.8586 11.4527,25.5253 16.5,28.5C 15.7375,29.2679 14.7375,29.7679 13.5,30C 13.8333,30.3333 14.1667,30.6667 14.5,31C 11.9774,31.5182 9.97737,32.8515 8.5,35C 8.83333,35.3333 9.16667,35.6667 9.5,36C 8.2842,37.7398 6.61753,38.7398 4.5,39C 4.83333,39.3333 5.16667,39.6667 5.5,40C 2.97739,41.3597 0.977392,43.193 -0.5,45.5C -0.5,39.1667 -0.5,32.8333 -0.5,26.5C 1.63207,24.9642 3.9654,23.2975 6.5,21.5C 6.96798,19.8662 7.96798,18.6995 9.5,18C 9.16667,17.6667 8.83333,17.3333 8.5,17C 12.7603,13.6919 16.927,10.1919 21,6.5C 21.4828,5.55198 21.6495,4.55198 21.5,3.5C 22.5,3.5 23.5,3.5 24.5,3.5C 24.3505,2.44802 24.5172,1.44802 25,0.5C 26.0074,2.74156 26.8407,2.40823 27.5,-0.5 Z"/></g>
<g><path style="opacity:0.999" fill="#d7f6e6" d="M 43.5,-0.5 C 49.1667,-0.5 54.8333,-0.5 60.5,-0.5C 53.4285,7.76466 46.0952,15.7647 38.5,23.5C 37.8333,22.8333 37.1667,22.1667 36.5,21.5C 33.9456,18.5658 30.9456,18.0658 27.5,20C 23.9534,23.5626 23.6201,27.396 26.5,31.5C 23.8252,29.8302 21.1586,28.1635 18.5,26.5C 18.6718,22.8097 20.3384,21.3097 23.5,22C 25.942,18.3911 28.442,14.8911 31,11.5C 31.3333,12.1667 31.6667,12.8333 32,13.5C 33.1667,11 35,9.16667 37.5,8C 37.1667,7.66667 36.8333,7.33333 36.5,7C 38.6175,6.73984 40.2842,5.73984 41.5,4C 41.1667,3.66667 40.8333,3.33333 40.5,3C 41.7101,1.9609 42.7101,0.794229 43.5,-0.5 Z"/></g>
<g><path style="opacity:0.999" fill="#e3fade" d="M 63.5,17.5 C 63.5,23.5 63.5,29.5 63.5,35.5C 59.8705,39.5694 55.8705,43.0694 51.5,46C 51.8333,46.3333 52.1667,46.6667 52.5,47C 49.8333,48.3333 47.8333,50.3333 46.5,53C 45.5,53.3333 44.5,53.6667 43.5,54C 44.8333,54.6667 44.8333,55.3333 43.5,56C 41.8333,57 40.1667,58 38.5,59C 40.8776,59.9745 40.5443,60.6411 37.5,61C 36.7476,61.6708 36.4142,62.5041 36.5,63.5C 30.1667,63.5 23.8333,63.5 17.5,63.5C 17.369,62.7611 17.5357,62.0944 18,61.5C 32.2995,46.7132 47.4661,32.0465 63.5,17.5 Z"/></g>
<g><path style="opacity:0.999" fill="#d5f4e3" d="M 34.5,25.5 C 34.5,27.1667 34.5,28.8333 34.5,30.5C 33.5,30.5 32.5,30.5 31.5,30.5C 30.8783,29.3734 30.045,28.3734 29,27.5C 28.2246,25.0507 29.058,23.384 31.5,22.5C 32.8549,23.1882 33.8549,24.1882 34.5,25.5 Z"/></g>
<g><path style="opacity:1" fill="#389e9f" d="M 36.5,21.5 C 36.7709,23.3797 36.1042,24.713 34.5,25.5C 33.8549,24.1882 32.8549,23.1882 31.5,22.5C 29.058,23.384 28.2246,25.0507 29,27.5C 30.045,28.3734 30.8783,29.3734 31.5,30.5C 31.1667,31.1667 30.8333,31.8333 30.5,32.5C 29.1667,32.1667 27.8333,31.8333 26.5,31.5C 23.6201,27.396 23.9534,23.5626 27.5,20C 30.9456,18.0658 33.9456,18.5658 36.5,21.5 Z"/></g>
<g><path style="opacity:1" fill="#339190" d="M 36.5,21.5 C 37.1667,22.1667 37.8333,22.8333 38.5,23.5C 38.5,25.5 38.5,27.5 38.5,29.5C 41.2646,29.2024 43.7646,28.2024 46,26.5C 46.1667,26.8333 46.3333,27.1667 46.5,27.5C 44.2581,29.5388 41.7581,31.2054 39,32.5C 37.4597,36.4192 35.2931,39.9192 32.5,43C 31.1667,43.6667 29.8333,43.6667 28.5,43C 27.5119,40.833 26.1786,38.9997 24.5,37.5C 22.5698,33.8998 19.9031,30.8998 16.5,28.5C 11.4527,25.5253 12.1194,24.8586 18.5,26.5C 21.1586,28.1635 23.8252,29.8302 26.5,31.5C 27.0553,33.7288 28.3886,35.3954 30.5,36.5C 33.1247,35.1353 33.1247,33.802 30.5,32.5C 30.8333,31.8333 31.1667,31.1667 31.5,30.5C 32.5,30.5 33.5,30.5 34.5,30.5C 34.5,28.8333 34.5,27.1667 34.5,25.5C 36.1042,24.713 36.7709,23.3797 36.5,21.5 Z"/></g>
<g><path style="opacity:0.996" fill="#def8e1" d="M 60.5,-0.5 C 61.5,-0.5 62.5,-0.5 63.5,-0.5C 63.5,5.5 63.5,11.5 63.5,17.5C 47.4661,32.0465 32.2995,46.7132 18,61.5C 17.5357,62.0944 17.369,62.7611 17.5,63.5C 11.5,63.5 5.5,63.5 -0.5,63.5C -0.5,62.8333 -0.5,62.1667 -0.5,61.5C 7.80731,53.6376 16.1406,45.6376 24.5,37.5C 26.1786,38.9997 27.5119,40.833 28.5,43C 29.8333,43.6667 31.1667,43.6667 32.5,43C 35.2931,39.9192 37.4597,36.4192 39,32.5C 41.7581,31.2054 44.2581,29.5388 46.5,27.5C 46.3333,27.1667 46.1667,26.8333 46,26.5C 43.7646,28.2024 41.2646,29.2024 38.5,29.5C 38.5,27.5 38.5,25.5 38.5,23.5C 46.0952,15.7647 53.4285,7.76466 60.5,-0.5 Z"/></g>
<g><path style="opacity:1" fill="#2b7f7c" d="M 48.5,24.5 C 50.337,24.6395 50.6704,25.3061 49.5,26.5C 48.7025,26.0431 48.3691,25.3764 48.5,24.5 Z"/></g>
<g><path style="opacity:0.999" fill="#d7f6e6" d="M 16.5,28.5 C 19.9031,30.8998 22.5698,33.8998 24.5,37.5C 16.1406,45.6376 7.80731,53.6376 -0.5,61.5C -0.5,56.1667 -0.5,50.8333 -0.5,45.5C 0.977392,43.193 2.97739,41.3597 5.5,40C 5.16667,39.6667 4.83333,39.3333 4.5,39C 6.61753,38.7398 8.2842,37.7398 9.5,36C 9.16667,35.6667 8.83333,35.3333 8.5,35C 9.97737,32.8515 11.9774,31.5182 14.5,31C 14.1667,30.6667 13.8333,30.3333 13.5,30C 14.7375,29.7679 15.7375,29.2679 16.5,28.5 Z"/></g>
<g><path style="opacity:0.999" fill="#d7f5e2" d="M 26.5,31.5 C 27.8333,31.8333 29.1667,32.1667 30.5,32.5C 33.1247,33.802 33.1247,35.1353 30.5,36.5C 28.3886,35.3954 27.0553,33.7288 26.5,31.5 Z"/></g>
<g><path style="opacity:0.999" fill="#eafdd9" d="M 63.5,35.5 C 63.5,44.8333 63.5,54.1667 63.5,63.5C 54.5,63.5 45.5,63.5 36.5,63.5C 36.4142,62.5041 36.7476,61.6708 37.5,61C 40.5443,60.6411 40.8776,59.9745 38.5,59C 40.1667,58 41.8333,57 43.5,56C 44.8333,55.3333 44.8333,54.6667 43.5,54C 44.5,53.6667 45.5,53.3333 46.5,53C 47.8333,50.3333 49.8333,48.3333 52.5,47C 52.1667,46.6667 51.8333,46.3333 51.5,46C 55.8705,43.0694 59.8705,39.5694 63.5,35.5 Z"/></g>
</svg>
