<svg width="32" height="32" viewBox="0 0 32 32" fill="none" xmlns="http://www.w3.org/2000/svg">
<path d="M27.9727 10.9565C26.7204 7.97943 24.4207 5.58518 21.4909 4.22267C18.5689 2.86015 15.2532 2.62388 12.1738 3.57685C9.08646 4.52982 6.47956 6.57754 4.82564 9.34983C3.17172 12.13 2.62041 15.4063 3.25835 18.5724C3.89629 21.7385 5.67623 24.5423 8.27525 26.4561C10.5199 28.1179 13.2213 29 15.9857 29C16.4188 29 16.852 28.9764 17.2852 28.937C20.4985 28.6141 23.4598 27.1256 25.6257 24.7313C27.7915 22.3371 28.9887 19.2419 28.9887 16.0128C28.9887 14.2722 28.65 12.571 27.9727 10.9644V10.9565ZM15.3241 10.7517L8.20437 17.8715H4.6445C4.54211 17.2572 4.49486 16.6271 4.49486 15.997C4.49486 9.83813 9.22035 4.85273 15.3241 4.49045V10.7596V10.7517ZM8.79505 19.297L16.0408 12.0512L23.2866 19.297H27.0985C25.6493 24.1721 21.1758 27.543 16.0408 27.543C10.9058 27.543 6.42443 24.18 4.98316 19.297H8.79505ZM16.7496 10.7517V4.49045C22.8534 4.85273 27.5789 9.83813 27.5789 16.0049C27.5789 16.6271 27.5316 17.2572 27.4292 17.8793H23.8773L16.7575 10.7596L16.7496 10.7517Z" fill="#E6DAFE"/>
</svg>
