<svg width="32" height="32" viewBox="0 0 32 32" fill="none" xmlns="http://www.w3.org/2000/svg">
<g clip-path="url(#clip0_14366_197)">
<path d="M9.99109 14.0149L16 11.2223V3.60522L9.99109 14.0149Z" fill="#E6DAFE"/>
<path d="M16 11.2224V17.2987L22.0089 14.015L16 11.2224Z" fill="#E6DAFE"/>
<path d="M16 11.2224V17.2987L9.99109 14.015L16 11.2224Z" fill="#C8BFDC"/>
<path d="M22.0089 14.0149L16 11.2223V3.60522L22.0089 14.0149Z" fill="#C8BFDC"/>
<path d="M16.0001 19.6386V26.1097L9.87561 16.2971L16.0001 19.6386Z" fill="#E6DAFE"/>
<path d="M16 19.6386V26.1097L22.1244 16.2971L16 19.6386Z" fill="#C8BFDC"/>
<path d="M23.1355 17.7705L24.5222 21.6705L27.5651 16.5957L23.1355 17.7705Z" fill="#C8BFDC"/>
<path d="M24.5222 21.6705L27.5652 20.7653V16.5957L24.5222 21.6705Z" fill="#E6DAFE"/>
<path d="M27.5651 20.7654L23.1355 28.1609L19.7748 29.6054L24.5222 21.6706L27.5651 20.7654Z" fill="#C8BFDC"/>
<path d="M4.43481 20.7654L8.86444 28.1609L12.2252 29.6054L7.47778 21.6706L4.43481 20.7654Z" fill="#E6DAFE"/>
<path d="M16 29.6053L8.86445 17.7705L7.47778 21.6705L12.2252 29.6053H16Z" fill="#C8BFDC"/>
<path d="M8.86444 17.7705L7.47778 21.6705L4.43481 16.5957L8.86444 17.7705Z" fill="#E6DAFE"/>
<path d="M7.47778 21.6705L4.43481 20.7653V16.5957L7.47778 21.6705Z" fill="#C8BFDC"/>
<path d="M16 29.6053L23.1356 17.7705L24.5222 21.6705L19.7748 29.6053H16Z" fill="#E6DAFE"/>
</g>
<defs>
<clipPath id="clip0_14366_197">
<rect width="26" height="26" fill="white" transform="translate(3 4)"/>
</clipPath>
</defs>
</svg>
