<svg width="32" height="32" viewBox="0 0 32 32" fill="none" xmlns="http://www.w3.org/2000/svg">
<path d="M12.2293 13.3546L20.9687 18.3752L21.3666 18.6032C21.3666 18.6032 21.3683 18.6045 21.3695 18.6053L23.0544 19.5731L13.167 9.80107L13.1102 9.74514L12.1852 13.3296L12.2288 13.3546H12.2293Z" fill="#E6DAFE"/>
<path d="M12.1687 13.5775V16.1493L19.3309 18.0421H19.3317L20.4805 18.3396L12.1699 13.5784L12.1687 13.5775Z" fill="#E6DAFE"/>
<path d="M12.2178 16.3819L12.7064 18.0383H18.4885L12.2174 16.3815L12.2178 16.3819Z" fill="#E6DAFE"/>
<path d="M17.1172 18.2502H12.7513L13.4137 19.2909L17.1172 18.2502Z" fill="#E6DAFE"/>
<path d="M12.6895 10.521L12.7509 10.285L3.04113 27.2964C3.03647 27.3044 3.03053 27.3121 3.02418 27.3188C2.9996 27.3434 2.99367 27.371 3.0068 27.4023C3.02545 27.4472 3.08435 27.496 3.16952 27.496H8.20917L11.6085 14.6801L12.6895 10.5206V10.521Z" fill="#E6DAFE"/>
<path d="M28.9758 27.3189C28.9695 27.3125 28.9635 27.3053 28.9593 27.2972L26.4376 22.9585L9.11345 27.496H28.8305C28.9156 27.496 28.9745 27.4477 28.9932 27.4023C29.0063 27.371 29.0004 27.3434 28.9758 27.3189Z" fill="#E6DAFE"/>
<path d="M23.7836 19.9825C23.7946 19.9935 23.8031 20.0066 23.8086 20.021L25.9761 22.1885L16.0184 5.05043C16.0184 5.05043 16.0163 5.04661 16.0155 5.04449C16.0049 5.02288 15.9595 5 15.8968 5C15.8341 5 15.7892 5.02288 15.7782 5.04492C15.7773 5.04661 15.776 5.04873 15.7752 5.05043L13.2064 9.48877L13.1869 9.52225L13.2285 9.56335L23.784 19.9825H23.7836Z" fill="#E6DAFE"/>
<path d="M11.9568 14.1937L8.4401 27.4528L8.51299 27.4333L8.51383 27.4328L11.9568 26.5158V14.1937Z" fill="#E6DAFE"/>
<path d="M23.6908 20.2033L12.8335 26.2866L26.2706 22.783L23.6908 20.2033Z" fill="#E6DAFE"/>
<path d="M12.1687 26.4141L14.4162 25.1281L12.4564 18.1731C12.4543 18.165 12.453 18.157 12.453 18.1485C12.453 18.1464 12.453 18.1443 12.453 18.1421C12.453 18.1349 12.4539 18.1273 12.4556 18.1205C12.4556 18.1197 12.4556 18.1184 12.456 18.1176C12.4581 18.1095 12.4611 18.1019 12.4653 18.0947C12.4661 18.093 12.467 18.0917 12.4678 18.09L12.1687 17.0099V26.4141Z" fill="#E6DAFE"/>
<path d="M23.4942 20.0702L21.2721 18.7934L21.2344 18.7718L21.2255 18.7812L16.0333 23.9056C16.0333 23.9056 16.0328 23.9056 16.0328 23.906C16.0328 23.906 16.0324 23.9064 16.032 23.9068L15.2197 24.6802L23.4946 20.0706L23.4942 20.0702Z" fill="#E6DAFE"/>
<path d="M14.5942 24.9785L14.5951 24.9815H14.5959L15.7989 23.8361L15.8244 23.8119L15.8099 23.7882L13.2382 19.4799C13.2361 19.4761 13.2348 19.4727 13.2336 19.4693C13.2323 19.4668 13.231 19.4642 13.2297 19.4613C13.2285 19.4579 13.2276 19.4541 13.2268 19.4507C13.2259 19.4481 13.2251 19.4456 13.2247 19.4431C13.2242 19.4392 13.2238 19.4358 13.2238 19.432C13.2238 19.4295 13.2234 19.427 13.2234 19.4244C13.2234 19.421 13.2238 19.4176 13.2242 19.4142C13.2242 19.4113 13.2242 19.4087 13.2251 19.4058C13.2255 19.4028 13.2268 19.3998 13.2276 19.3969C13.2276 19.396 13.2276 19.3956 13.228 19.3947L12.8556 18.8091L12.8738 18.8744L14.5938 24.9789L14.5942 24.9785Z" fill="#E6DAFE"/>
<path d="M19.3546 18.2671L19.3466 18.2807L16.7752 22.6559C16.7752 22.6559 16.7752 22.6568 16.7757 22.6572C16.7765 22.6597 16.7769 22.6623 16.7774 22.6652C16.7782 22.6682 16.7791 22.6712 16.7791 22.6746C16.7791 22.6771 16.7791 22.6801 16.7791 22.6826C16.7791 22.686 16.7795 22.689 16.7791 22.6924C16.7791 22.6949 16.7786 22.6974 16.7782 22.7C16.7782 22.7034 16.7778 22.7063 16.7769 22.7097C16.7765 22.7123 16.7757 22.7148 16.7748 22.7174C16.774 22.7207 16.7731 22.7237 16.7719 22.7267C16.771 22.7292 16.7697 22.7313 16.7685 22.7339C16.7668 22.7373 16.7651 22.7411 16.763 22.7445L16.529 23.1178L20.9865 18.7184L21.0089 18.6964H21.0081L19.3533 18.2676L19.3546 18.2671Z" fill="#E6DAFE"/>
<path d="M13.8357 20.0668L15.9578 23.6221L15.9608 23.6267L15.9616 23.6259L16.5392 22.7034L16.5134 22.6784L13.8357 20.0668Z" fill="#E6DAFE"/>
<path d="M16.9854 21.8762L16.9829 21.8843L19.119 18.2502H17.9673L16.9854 21.8762Z" fill="#E6DAFE"/>
</svg>
