<?xml version="1.0" encoding="UTF-8"?>
<!DOCTYPE svg PUBLIC "-//W3C//DTD SVG 1.1//EN" "http://www.w3.org/Graphics/SVG/1.1/DTD/svg11.dtd">
<svg xmlns="http://www.w3.org/2000/svg" version="1.1" width="64px" height="64px" style="shape-rendering:geometricPrecision; text-rendering:geometricPrecision; image-rendering:optimizeQuality; fill-rule:evenodd; clip-rule:evenodd" xmlns:xlink="http://www.w3.org/1999/xlink">
<g><path style="opacity:0.97" fill="#080404" d="M 25.5,-0.5 C 29.5,-0.5 33.5,-0.5 37.5,-0.5C 51.1667,3.16667 59.8333,11.8333 63.5,25.5C 63.5,29.5 63.5,33.5 63.5,37.5C 59.8333,51.1667 51.1667,59.8333 37.5,63.5C 33.5,63.5 29.5,63.5 25.5,63.5C 11.8333,59.8333 3.16667,51.1667 -0.5,37.5C -0.5,33.5 -0.5,29.5 -0.5,25.5C 3.16667,11.8333 11.8333,3.16667 25.5,-0.5 Z"/></g>
<g><path style="opacity:1" fill="#eb3023" d="M 23.5,2.5 C 41.3623,-0.158261 53.529,6.84174 60,23.5C 60.6667,28.8333 60.6667,34.1667 60,39.5C 59.6397,41.4211 58.8064,43.0878 57.5,44.5C 54.2383,40.3139 51.7383,35.6472 50,30.5C 49.8515,24.0551 49.0182,17.7218 47.5,11.5C 42.3415,11.0332 37.3415,12.0332 32.5,14.5C 31.5598,12.0625 30.0598,10.0625 28,8.5C 17.8826,12.6207 11.2159,19.9541 8,30.5C 6.97399,35.7848 6.30732,41.1181 6,46.5C -2.27868,26.0747 3.55465,11.408 23.5,2.5 Z"/></g>
<g><path style="opacity:1" fill="#fefefe" d="M 24.5,11.5 C 26.1439,11.2865 27.6439,11.6198 29,12.5C 29.4497,14.519 30.283,16.3523 31.5,18C 31.1667,18.3333 30.8333,18.6667 30.5,19C 27.5538,17.2106 24.2205,15.8772 20.5,15C 21.7305,13.5952 23.0639,12.4286 24.5,11.5 Z"/></g>
<g><path style="opacity:1" fill="#fefefe" d="M 42.5,12.5 C 43.8221,12.33 44.9887,12.6634 46,13.5C 45.9002,26.124 49.4002,37.624 56.5,48C 44.6419,61.5396 30.6419,64.2062 14.5,56C 12.2911,54.1266 10.4578,51.96 9,49.5C 7.75237,41.192 8.75237,33.192 12,25.5C 15.3991,31.3 20.0658,32.6333 26,29.5C 26.1274,30.7766 25.6274,31.9433 24.5,33C 26.0948,35.8332 27.7615,35.9999 29.5,33.5C 28.8333,32.8333 28.1667,32.1667 27.5,31.5C 28,31.1667 28.5,30.8333 29,30.5C 35.7733,35.2488 41.44,34.2488 46,27.5C 47.1188,19.6138 43.6188,15.7805 35.5,16C 37.8583,14.7245 40.1916,13.5578 42.5,12.5 Z"/></g>
<g><path style="opacity:1" fill="#fcfcfc" d="M 17.5,17.5 C 20.9297,17.1065 24.0964,17.7732 27,19.5C 28.1667,27 25,30.1667 17.5,29C 15.2235,28.1257 13.8902,26.4591 13.5,24C 14.25,21.4288 15.5833,19.2622 17.5,17.5 Z"/></g>
<g><path style="opacity:1" fill="#fdfdfd" d="M 34.5,18.5 C 41.8269,17.3293 44.9936,20.3293 44,27.5C 40.2103,31.8541 35.877,32.5207 31,29.5C 28.3668,24.4259 29.5334,20.7592 34.5,18.5 Z"/></g>
<g><path style="opacity:1" fill="#000000" d="M 21.5,23.5 C 23.337,23.6395 23.6704,24.3061 22.5,25.5C 21.7025,25.0431 21.3691,24.3764 21.5,23.5 Z"/></g>
<g><path style="opacity:1" fill="#000000" d="M 35.5,25.5 C 37.337,25.6395 37.6704,26.3061 36.5,27.5C 35.7025,27.0431 35.3691,26.3764 35.5,25.5 Z"/></g>
</svg>
