<svg width="32" height="32" viewBox="0 0 32 32" fill="none" xmlns="http://www.w3.org/2000/svg">
<path d="M15.9996 3C15.0231 3.00487 14.0571 3.20308 13.1568 3.58335C12.2565 3.96362 11.4395 4.51852 10.7525 5.21628C10.0655 5.91403 9.52197 6.74103 9.15288 7.65002C8.7838 8.55901 8.59644 9.5322 8.60148 10.514V12.996H14.6125V9.40013C14.6124 9.23125 14.6454 9.06403 14.7097 8.908C14.7739 8.75196 14.8681 8.61019 14.9868 8.49077C15.1056 8.37134 15.2466 8.27666 15.4018 8.21204C15.557 8.14742 15.7233 8.11419 15.8912 8.11422H16.1079C16.2759 8.11419 16.4423 8.14743 16.5974 8.21204C16.7526 8.27666 16.8936 8.37134 17.0124 8.49077C17.1312 8.61018 17.2254 8.75196 17.2897 8.908C17.3539 9.06403 17.3869 9.23125 17.3869 9.40013V19.0396C18.1763 19.0396 18.958 18.8833 19.6873 18.5797C20.4166 18.2759 21.0793 17.8307 21.6375 17.2696C22.1957 16.7084 22.6384 16.0421 22.9405 15.3088C23.2425 14.5756 23.398 13.7896 23.398 12.996V10.514C23.4022 8.52474 22.6231 6.61464 21.2309 5.20117C20.5478 4.50366 19.7335 3.94983 18.8353 3.57192C17.9372 3.19402 16.9732 2.99959 15.9996 3Z" fill="#E6DAFE"/>
<path d="M16.1082 23.9191H15.8915C15.7236 23.9191 15.5573 23.8858 15.4021 23.8213C15.247 23.7567 15.106 23.662 14.9872 23.5425C14.8685 23.4231 14.7743 23.2815 14.71 23.1255C14.6458 22.9695 14.6127 22.8022 14.6128 22.6334V12.994C13.8234 12.9939 13.0417 13.1501 12.3124 13.4538C11.5831 13.7575 10.9204 14.2026 10.3622 14.7639C9.80402 15.3251 9.36124 15.9914 9.05918 16.7247C8.75713 17.4579 8.6017 18.2439 8.60177 19.0376V21.485C8.59175 22.4682 8.77572 23.4437 9.14302 24.355C9.51033 25.2663 10.0537 26.0954 10.7417 26.7942C11.4296 27.493 12.2486 28.0478 13.1512 28.4264C14.0537 28.8051 15.022 29 16 29C16.978 29 17.9462 28.8051 18.8488 28.4264C19.7514 28.0478 20.5704 27.493 21.2584 26.7942C21.9463 26.0954 22.4897 25.2663 22.857 24.355C23.2243 23.4437 23.4082 22.4682 23.3982 21.485V19.0376H17.3873V22.6334C17.3873 22.8023 17.3541 22.9695 17.2899 23.1255C17.2256 23.2815 17.1313 23.4232 17.0126 23.5426C16.8938 23.662 16.7529 23.7567 16.5976 23.8213C16.4425 23.8858 16.2762 23.9191 16.1082 23.9191Z" fill="#E6DAFE"/>
</svg>
