<svg width="32" height="32" viewBox="0 0 32 32" fill="none" xmlns="http://www.w3.org/2000/svg">
<path d="M16 4C9.37 4 4 9.37 4 16C4 22.63 9.37 28 16 28C22.63 28 28 22.63 28 16C28 9.37 22.63 4 16 4ZM10.4275 19.6675C8.65 19.12 7.84 16.81 8.455 14.4625C9.445 10.6975 13.9225 7.8175 17.86 9.0325C15.3625 9.7825 14.8225 11.395 14.7325 13.2925C13.7125 13.7725 13.0075 14.8 13.0075 16C13.0075 16.8625 13.375 17.635 13.9525 18.1825C13.06 19.4725 11.575 20.0275 10.4275 19.675V19.6675ZM17.53 15.3175L17.335 15.34L16.7125 15.4075C16.69 15.325 16.6525 15.25 16.5925 15.175C16.54 15.1 16.4575 15.04 16.3675 15.0025C16.27 14.9575 16.1575 14.935 16.015 14.935C15.8275 14.935 15.67 14.9725 15.5425 15.055C15.415 15.1375 15.355 15.2425 15.355 15.37C15.355 15.4825 15.3925 15.5725 15.475 15.64C15.5575 15.7075 15.7 15.7675 15.895 15.8125L16.5475 15.955C16.7875 16.0075 16.975 16.09 17.1325 16.18C17.2075 16.225 17.29 16.27 17.35 16.3225C17.53 16.4875 17.6125 16.7125 17.62 16.9825C17.62 17.2225 17.545 17.4325 17.41 17.62C17.2975 17.77 17.14 17.8825 16.96 17.98C16.915 18.0025 16.885 18.025 16.84 18.0475C16.5925 18.1525 16.315 18.205 16 18.205C15.535 18.205 15.16 18.1075 14.875 17.9125C14.6575 17.7625 14.5075 17.56 14.425 17.32C14.4025 17.245 14.38 17.1775 14.365 17.095L14.515 17.08L15.2425 17.0125C15.28 17.185 15.37 17.3125 15.4975 17.4025C15.625 17.4925 15.7975 17.5375 16 17.5375C16.2025 17.5375 16.3825 17.4925 16.51 17.4025C16.6375 17.3125 16.705 17.2075 16.705 17.08C16.705 16.9675 16.66 16.8775 16.5775 16.81C16.495 16.7425 16.3675 16.6825 16.1875 16.645L15.535 16.51C15.1675 16.435 14.8975 16.3075 14.725 16.1275C14.7175 16.12 14.7175 16.105 14.71 16.0975C14.5525 15.9175 14.4625 15.7 14.47 15.4375C14.47 15.205 14.53 15.0025 14.6575 14.83C14.68 14.8075 14.7025 14.785 14.725 14.7625C14.8525 14.6275 15.0025 14.5075 15.1975 14.425C15.43 14.3275 15.7 14.2825 16 14.2825C16.45 14.2825 16.795 14.38 17.05 14.5675C17.2375 14.7025 17.35 14.8825 17.4325 15.0925C17.4625 15.175 17.5075 15.25 17.53 15.34V15.3175ZM23.215 18.2275C21.8425 21.8725 17.095 24.25 13.3075 22.615C15.7975 22.15 16.5325 20.68 16.8325 18.865C18.085 18.505 19 17.365 19 16C19 15.19 18.6775 14.455 18.1525 13.915C19.1725 12.745 20.695 12.3625 21.79 12.835C23.5 13.57 24.07 15.955 23.215 18.2275Z" fill="#E6DAFE"/>
</svg>
