<svg width="32" height="32" viewBox="0 0 32 32" fill="none" xmlns="http://www.w3.org/2000/svg">
<path d="M8.10473 22.0155C8.09615 22.3933 8.11976 22.771 8.17556 23.1445C8.62846 25.922 11.0496 27.9869 13.8636 27.9933C15.0484 28.0083 16.2247 27.9933 17.416 27.9933C17.8796 27.9933 18.3411 27.9418 18.7918 27.8366C21.3869 27.2399 23.2478 24.9196 23.2671 22.2559C23.2865 20.1266 23.2822 17.9974 23.2671 15.8703C23.2564 15.5075 23.3895 15.1555 23.6385 14.8915C23.8123 14.7026 24.0034 14.5266 24.1923 14.3549C24.8426 13.7947 25.4544 13.1915 26.0253 12.5497C26.6091 11.8693 27.0234 11.0601 27.2359 10.1886C27.3132 9.90103 27.3432 9.60482 27.3282 9.31076C27.3239 9.21846 27.3132 9.12831 27.3003 9.03601C27.238 8.56165 26.8774 8.18173 26.4074 8.09373C26.2228 8.05724 26.0339 8.04221 25.845 8.0508H22.9108C22.782 8.0508 22.6339 8.10446 22.5159 7.9585V7.93919C22.5159 7.93919 22.5159 7.93919 22.5137 7.93704V6.76723C22.5159 6.6084 22.5095 6.44956 22.4923 6.29287C22.4751 6.13403 22.4472 5.9752 22.4107 5.81851C22.1167 4.71739 21.0885 4.00477 19.835 4.02409C18.6995 4.02194 17.6971 4.79466 17.4138 5.89363C17.3494 6.19628 17.3194 6.50322 17.3258 6.81231C17.3516 7.22442 17.3387 7.63868 17.2872 8.04865C16.8171 8.04865 16.3857 8.06153 15.9306 8.04865C15.4756 8.03577 15.0162 8.10017 14.5419 8.00358V7.98426C14.5419 7.98426 14.5397 7.98426 14.5376 7.98426V6.41522C14.5376 6.26926 14.5226 6.1233 14.4947 5.98164C14.4088 5.55664 14.2028 5.16385 13.898 4.84832C13.136 4.03267 11.949 3.77725 10.9187 4.20439C9.96569 4.57143 9.38615 5.43644 9.36683 6.53542V8.03792H5.353C4.44935 8.04651 4.02651 8.4715 4.00075 9.35583C3.9986 9.48033 4.00075 9.60482 4.01148 9.72931C4.03938 10.0684 4.1188 10.399 4.24115 10.7167C4.25188 10.7467 4.26047 10.7789 4.27335 10.809C4.27335 10.809 4.27335 10.8133 4.27549 10.8154C4.61677 11.6954 5.14909 12.4875 5.83595 13.1357C6.37685 13.6358 6.91561 14.1381 7.45651 14.6382C7.61964 14.7799 7.75701 14.9473 7.86004 15.1319C8.0339 15.4367 8.11976 15.7865 8.10258 16.145C8.07039 18.1004 8.10258 20.058 8.10258 22.0155H8.10473ZM19.0837 6.34653C19.1288 5.91724 19.4916 5.7026 20.011 5.74124C20.4059 5.76485 20.6807 5.943 20.7558 6.26711C20.7687 6.31433 20.7751 6.36585 20.7794 6.41951C20.8009 6.95826 20.7794 7.47556 20.7794 8.03148H19.0859C19.0859 8.03148 19.0859 8.02719 19.0859 8.02504C19.0279 7.46697 19.0279 6.9046 19.0859 6.34653H19.0837ZM19.5302 15.9218C20.1333 15.9218 20.6292 16.4176 20.6292 17.0207C20.6292 17.6239 20.1333 18.1197 19.5302 18.1197C18.9271 18.1197 18.4312 17.6239 18.4312 17.0207C18.4312 16.4176 18.9271 15.9218 19.5302 15.9218ZM11.1076 6.4281C11.1248 6.01598 11.4124 5.77129 11.8503 5.73694C11.9104 5.73265 11.9683 5.7305 12.022 5.73265C12.4083 5.74982 12.6831 5.94515 12.7754 6.28858C12.8076 6.42166 12.8247 6.56117 12.8226 6.69855C12.8226 6.88099 12.8183 7.06344 12.814 7.24589C12.814 7.28667 12.814 7.32745 12.814 7.37038C12.8097 7.55497 12.8054 7.74171 12.8054 7.92631C12.8054 7.95636 12.7775 7.98426 12.7518 8.03363L11.1162 8.02934H11.1097C11.1097 7.48199 11.0926 6.95612 11.1097 6.43024L11.1076 6.4281ZM9.1436 10.4977H13.0523C13.1725 10.4741 13.297 10.5063 13.3914 10.5857C13.3914 10.9077 13.4021 11.2211 13.4214 11.528C13.7219 16.1364 16.2698 19.1886 20.803 20.8865C20.8159 21.7021 20.9232 22.58 20.5884 23.4193C20.157 24.5118 19.1889 25.2824 18.0556 25.4734C17.8903 25.5013 17.7229 25.5185 17.5512 25.5228C16.3835 25.5399 15.218 25.4949 14.0525 25.5378C12.2087 25.6151 10.6268 24.1619 10.5452 22.3181V18.6327C10.5452 17.45 10.5281 16.2716 10.5452 15.0825C10.5731 14.6124 10.4079 14.1531 10.0923 13.8118C10.0473 13.7646 10.0022 13.7195 9.95066 13.6766C9.64372 13.4062 9.3561 13.1099 9.06848 12.818C9.06848 12.818 9.06633 12.8159 9.06419 12.8137C8.68856 12.4295 8.44601 11.938 8.3666 11.4078C8.26357 10.7875 8.51255 10.4999 9.1436 10.4977Z" fill="#E6DAFE"/>
<path d="M13.1531 16.0055C13.0265 15.954 12.8891 15.9239 12.7453 15.9239H12.7217C12.3461 15.9239 12.0134 16.115 11.8159 16.4069C11.6979 16.5807 11.6292 16.7911 11.6292 17.0165C11.6292 17.6089 12.1078 18.0983 12.7002 18.1133C12.7689 18.1154 12.8376 18.1133 12.9042 18.1004C12.9085 18.1004 12.9127 18.1004 12.9192 18.1004C12.9535 18.094 12.9857 18.0832 13.0179 18.0746C13.4708 17.9459 13.81 17.5337 13.8185 17.0422V16.9843C13.8185 16.9134 13.8078 16.8469 13.7949 16.7803C13.7842 16.7374 13.7713 16.6966 13.7563 16.6559C13.7499 16.6344 13.7434 16.6129 13.7348 16.5915C13.6232 16.3317 13.4129 16.1235 13.1531 16.0119V16.0055Z" fill="#E6DAFE"/>
</svg>
