<svg width="32" height="32" viewBox="0 0 32 32" fill="none" xmlns="http://www.w3.org/2000/svg">
<g clip-path="url(#clip0_6_4047)">
<path d="M16 3.25C13.4783 3.25 11.0132 3.99777 8.91648 5.39876C6.81976 6.79975 5.18556 8.79103 4.22054 11.1208C3.25552 13.4505 3.00303 16.0141 3.49499 18.4874C3.98696 20.9607 5.20127 23.2325 6.98439 25.0156C8.76751 26.7987 11.0393 28.0131 13.5126 28.505C15.9859 28.997 18.5495 28.7445 20.8792 27.7795C23.209 26.8144 25.2003 25.1802 26.6012 23.0835C28.0022 20.9868 28.75 18.5217 28.75 16C28.75 12.6185 27.4067 9.37548 25.0156 6.98439C22.6245 4.5933 19.3815 3.25 16 3.25V3.25ZM4.43751 14.8C4.7352 11.9407 6.08175 9.29319 8.21714 7.36858C10.3525 5.44398 13.1253 4.37884 16 4.37884C18.8747 4.37884 21.6475 5.44398 23.7829 7.36858C25.9183 9.29319 27.2648 11.9407 27.5625 14.8C27.5677 14.849 27.5631 14.8985 27.549 14.9456C27.535 14.9928 27.5117 15.0368 27.4805 15.0749C27.4494 15.113 27.411 15.1446 27.3675 15.1678C27.3241 15.191 27.2765 15.2053 27.2275 15.21H27.19C27.097 15.2104 27.0072 15.176 26.9382 15.1136C26.8693 15.0511 26.8262 14.9651 26.8175 14.8725C26.5412 12.1959 25.2823 9.71672 23.2842 7.91434C21.2862 6.11195 18.6909 5.11433 16 5.11433C13.3091 5.11433 10.7138 6.11195 8.71577 7.91434C6.71773 9.71672 5.45885 12.1959 5.18251 14.8725C5.17758 14.9217 5.16301 14.9695 5.13961 15.0132C5.11621 15.0568 5.08446 15.0953 5.04615 15.1267C5.00785 15.158 4.96375 15.1815 4.91637 15.1958C4.86898 15.2101 4.81925 15.2149 4.77001 15.21C4.72076 15.2051 4.67297 15.1905 4.62935 15.1671C4.58574 15.1437 4.54716 15.112 4.51582 15.0736C4.48448 15.0353 4.461 14.9912 4.4467 14.9439C4.4324 14.8965 4.42758 14.8467 4.43251 14.7975L4.43751 14.8ZM16.3225 23.5C16.155 23.5 15.985 23.5 15.8225 23.5V24.35C15.8225 24.4786 15.7714 24.602 15.6805 24.6929C15.5895 24.7839 15.4661 24.835 15.3375 24.835C15.2089 24.835 15.0855 24.7839 14.9946 24.6929C14.9036 24.602 14.8525 24.4786 14.8525 24.35V23.405C12.4125 23.065 10.325 21.8325 10.325 19.295H13.325C13.325 20.0675 14.1675 21.23 16.355 21.23C17.3325 21.23 18.685 20.68 18.685 19.7075C18.685 19.13 18.435 18.74 17.685 18.41V20.4375C17.3771 20.5757 17.0501 20.6667 16.715 20.7075V18.0875C16.465 18.02 16.16 17.9525 15.83 17.8825V20.7025C15.4948 20.6741 15.1642 20.6061 14.845 20.5V17.69C12.3875 17.19 10.76 16.295 10.76 13.94C10.7527 13.2454 10.9999 12.5722 11.455 12.0475C11.9894 11.4552 12.6707 11.0145 13.43 10.77C14.3523 10.4533 15.3224 10.2985 16.2975 10.3125C17.2494 10.2985 18.195 10.4683 19.0825 10.8125C20.415 11.345 21.605 12.7 21.605 14.1125L18.78 14.155C18.7014 13.8746 18.5608 13.6153 18.3687 13.3964C18.1766 13.1775 17.9378 13.0044 17.67 12.89V15.4325C17.3425 15.35 17.015 15.2825 16.7 15.215V12.605C16.5342 12.584 16.3672 12.5731 16.2 12.5725C16.0675 12.5725 15.95 12.5725 15.8225 12.585V15.025C15.492 14.9522 15.1676 14.8535 14.8525 14.73V12.7725C14.215 13.005 13.875 13.43 13.875 14C13.875 15.6625 16.5825 15.435 18.8325 16.28C21.2975 17.2075 21.75 18.4725 21.75 19.885C21.75 21.2975 20.355 22.9825 17.67 23.4025V24.3425C17.67 24.4711 17.6189 24.5945 17.528 24.6854C17.437 24.7764 17.3136 24.8275 17.185 24.8275C17.0564 24.8275 16.933 24.7764 16.8421 24.6854C16.7511 24.5945 16.7 24.4711 16.7 24.3425V23.5C16.575 23.5 16.4525 23.5 16.3225 23.5ZM12.3225 8.7125C12.1674 8.7125 12.0186 8.65087 11.9088 8.54116C11.7991 8.43145 11.7375 8.28265 11.7375 8.1275C11.7375 7.97235 11.7991 7.82355 11.9088 7.71384C12.0186 7.60413 12.1674 7.5425 12.3225 7.5425H20.4625C20.6177 7.5425 20.7665 7.60413 20.8762 7.71384C20.9859 7.82355 21.0475 7.97235 21.0475 8.1275C21.0475 8.28265 20.9859 8.43145 20.8762 8.54116C20.7665 8.65087 20.6177 8.7125 20.4625 8.7125H12.3225ZM17.675 9.1975V9.91C17.354 9.85697 17.0301 9.82358 16.705 9.81V9.2025L17.675 9.1975ZM15.82 9.1975V9.8125C15.4875 9.8275 15.1625 9.86 14.85 9.905V9.2025L15.82 9.1975ZM27.57 17.1975C27.2723 20.0568 25.9258 22.7043 23.7904 24.6289C21.655 26.5535 18.8822 27.6187 16.0075 27.6187C13.1328 27.6187 10.36 26.5535 8.22464 24.6289C6.08925 22.7043 4.7427 20.0568 4.44501 17.1975C4.43506 17.098 4.46503 16.9987 4.52832 16.9214C4.59162 16.844 4.68305 16.7949 4.78251 16.785C4.88196 16.7751 4.9813 16.805 5.05865 16.8683C5.13601 16.9316 5.18506 17.023 5.19501 17.1225C5.47135 19.7991 6.73023 22.2783 8.72827 24.0807C10.7263 25.883 13.3216 26.8807 16.0125 26.8807C18.7034 26.8807 21.2987 25.883 23.2967 24.0807C25.2948 22.2783 26.5537 19.7991 26.83 17.1225C26.8349 17.0733 26.8495 17.0255 26.8729 16.9818C26.8963 16.9382 26.9281 16.8997 26.9664 16.8683C27.0047 16.837 27.0488 16.8135 27.0961 16.7992C27.1435 16.7849 27.1933 16.7801 27.2425 16.785C27.2918 16.7899 27.3395 16.8045 27.3832 16.8279C27.4268 16.8513 27.4653 16.883 27.4967 16.9214C27.528 16.9597 27.5515 17.0038 27.5658 17.0511C27.5801 17.0985 27.5849 17.1483 27.58 17.1975H27.57Z" fill="#E6DAFE"/>
</g>
<defs>
<clipPath id="clip0_6_4047">
<rect width="32" height="32" fill="white"/>
</clipPath>
</defs>
</svg>
