<svg width="32" height="32" viewBox="0 0 32 32" fill="none" xmlns="http://www.w3.org/2000/svg">
<path d="M16.3301 21.9901C16.3301 21.9901 17.2009 25.0788 15.6835 25.1785C14.1967 25.2763 14.5243 23.8207 14.5378 23.7603C14.4966 23.8303 12.9801 26.4327 13.4437 27.9421C13.9141 29.4734 17.1492 30.2243 18.6686 28.341C20.2732 26.3522 18.4885 22.4629 16.3301 21.9901Z" fill="#E6DAFE"/>
<path d="M26 13.943C26 13.943 24.9002 12.8422 23.4728 14.6277C23.4728 14.6277 24.7115 7.48863 17.8332 3C17.8332 3 18.9866 8.77644 16.9452 12.286C16.9452 12.286 16.698 7.39754 13.0529 7.5548C13.0529 7.5548 15.3654 8.69206 13.4638 12.6744C11.5632 16.6567 5.85939 16.2453 7.72171 24.4066C7.72171 24.4066 6.71487 23.2636 6.00117 21.6325C6.00117 21.6325 5.75114 28.1406 12.5605 29.5693C19.3698 30.9971 24.335 28.8549 25.406 23.4381C26.4761 18.0212 24.2162 15.7295 26 13.943ZM23.2219 24.3817C22.5752 30.4333 14.8376 30.2837 12.2501 28.9134C9.66258 27.5441 9.33878 22.7621 12.1255 20.2469C14.9123 17.7316 14.6632 15.5281 14.6632 15.5281C16.9519 16.1878 16.516 18.354 16.516 18.354C20.9514 14.9192 20.4437 12.823 20.4121 12.706C20.5261 12.8921 23.858 18.4326 23.2219 24.3817Z" fill="#E6DAFE"/>
</svg>
