<svg width="32" height="32" viewBox="0 0 32 32" fill="none" xmlns="http://www.w3.org/2000/svg">
<path d="M29.3346 13.9999C29.4323 13.9361 29.5078 13.8437 29.5509 13.7352C29.5939 13.6267 29.6023 13.5076 29.5749 13.3942C29.5475 13.2808 29.4856 13.1786 29.3979 13.1017C29.3101 13.0249 29.2006 12.9771 29.0846 12.9649C28.6426 11.4737 27.8989 10.0892 26.8996 8.89743C27 8.78038 27.0646 8.63687 27.0856 8.48408C27.1065 8.33129 27.0831 8.17568 27.0179 8.03589C26.9528 7.8961 26.8487 7.77805 26.7182 7.69585C26.5877 7.61366 26.4363 7.57081 26.2821 7.57243C26.1006 7.57097 25.9241 7.63187 25.7821 7.74493C24.1659 6.27953 22.1758 5.28971 20.0321 4.88493C19.3617 4.54432 18.6591 4.2713 17.9346 4.06993C17.9442 4.00952 17.9501 3.94857 17.9521 3.88743C17.9559 3.55075 17.8323 3.22507 17.6062 2.97563C17.38 2.7262 17.0679 2.57143 16.7325 2.54235C16.397 2.51326 16.063 2.612 15.7973 2.81878C15.5316 3.02557 15.3538 3.32512 15.2996 3.65743C15.1546 3.65743 15.0071 3.65743 14.8596 3.65743C12.5737 3.65629 10.3403 4.34269 8.44958 5.62743C8.35007 5.48566 8.20786 5.37941 8.04371 5.32417C7.87955 5.26892 7.70204 5.26758 7.53707 5.32034C7.3721 5.3731 7.2283 5.47719 7.12666 5.61743C7.02503 5.75768 6.97086 5.92673 6.97208 6.09993C6.97187 6.29507 7.043 6.48357 7.17208 6.62993C5.98961 7.69706 5.03837 8.9952 4.37706 10.4442C3.71576 11.8933 3.35841 13.4624 3.32708 15.0549C3.07252 15.1411 2.8494 15.3011 2.68619 15.5146C2.52298 15.7281 2.42708 15.9854 2.41071 16.2537C2.39435 16.5219 2.45827 16.789 2.59432 17.0207C2.73037 17.2525 2.93238 17.4385 3.17458 17.5549C3.18281 20.3085 4.17499 22.9685 5.97208 25.0549C5.89199 25.1308 5.83667 25.229 5.81337 25.3368C5.79006 25.4446 5.79985 25.5569 5.84147 25.6591C5.88308 25.7612 5.95457 25.8484 6.04657 25.9092C6.13857 25.97 6.2468 26.0017 6.35708 25.9999C6.49028 25.9995 6.61857 25.9496 6.71708 25.8599C8.67583 27.7629 11.2432 28.9138 13.9671 29.1099C16.4393 29.738 19.0496 29.5343 21.3944 28.5302C23.7393 27.5261 25.6881 25.7776 26.9396 23.5549C27.1585 23.6295 27.3963 23.6273 27.6138 23.5486C27.8313 23.4699 28.0155 23.3195 28.1361 23.122C28.2566 22.9246 28.3063 22.6921 28.277 22.4626C28.2476 22.2332 28.1409 22.0206 27.9746 21.8599C29.3803 19.4968 29.8646 16.698 29.3346 13.9999ZM29.2921 16.1374C29.2928 18.0912 28.7696 20.0095 27.7771 21.6924C28.2846 20.25 28.4994 18.7208 28.4088 17.1943C28.3182 15.6678 27.9241 14.1748 27.2496 12.8024C26.8083 11.1974 26.0287 9.70533 24.9633 8.42641C23.8978 7.14749 22.571 6.11131 21.0721 5.38743C22.7573 5.87736 24.3089 6.74423 25.6096 7.92243C25.504 8.07573 25.4546 8.2608 25.4697 8.44634C25.4849 8.63187 25.5637 8.80647 25.6928 8.94057C25.8219 9.07468 25.9934 9.16006 26.1782 9.18227C26.3631 9.20447 26.5499 9.16214 26.7071 9.06243C27.6747 10.2171 28.3969 11.5569 28.8296 12.9999C28.7194 13.0385 28.6239 13.1106 28.5567 13.2061C28.4895 13.3015 28.4538 13.4156 28.4546 13.5324C28.4546 13.6829 28.5144 13.8273 28.6208 13.9337C28.7272 14.0401 28.8716 14.0999 29.0221 14.0999C29.0462 14.1013 29.0704 14.1013 29.0946 14.0999C29.2242 14.7706 29.2903 15.4519 29.2921 16.1349V16.1374ZM17.2121 28.6199C17.18 28.4817 17.0984 28.36 16.9827 28.2779C16.867 28.1957 16.7252 28.1589 16.5841 28.1743C16.443 28.1897 16.3125 28.2563 16.2172 28.3614C16.1219 28.4666 16.0685 28.603 16.0671 28.7449C16.066 28.7657 16.066 28.7866 16.0671 28.8074C15.6461 28.8535 15.223 28.8768 14.7996 28.8774C14.5296 28.8774 14.2621 28.8649 13.9996 28.8474C11.2848 28.1448 8.92488 26.465 7.37208 24.1299C8.30511 24.9345 9.36099 25.5844 10.4996 26.0549C12.2158 27.0297 14.1559 27.5414 16.1296 27.5399C16.2646 27.5399 16.3971 27.5399 16.5296 27.5399C17.9044 27.6825 19.2935 27.5844 20.6346 27.2499V27.2499C19.5757 27.8894 18.4197 28.3521 17.2121 28.6199V28.6199ZM16.2796 29.1874C15.9896 29.1874 15.7046 29.1474 15.4221 29.1124C15.6721 29.1124 15.9221 29.0749 16.1546 29.0474C16.188 29.1008 16.2303 29.1482 16.2796 29.1874V29.1874ZM3.82708 17.6874C4.14331 17.6726 4.44424 17.5469 4.67708 17.3324C4.81069 18.4385 5.10285 19.5196 5.54458 20.5424C5.57458 20.6724 5.60708 20.7924 5.64208 20.9299C5.5881 20.8515 5.51558 20.7877 5.43096 20.744C5.34635 20.7004 5.25226 20.6784 5.15708 20.6799C5.08169 20.6798 5.00699 20.6942 4.93708 20.7224C4.42374 19.7682 4.04993 18.7453 3.82708 17.6849V17.6874ZM27.4096 15.9024C27.4107 18.2665 26.6759 20.5724 25.3071 22.4999C26.056 20.9397 26.4431 19.2306 26.4396 17.4999C26.4396 17.3224 26.4396 17.1474 26.4246 16.9699C26.6098 16.9348 26.7766 16.8351 26.8953 16.6887C27.0141 16.5422 27.0771 16.3584 27.0732 16.1699C27.0693 15.9814 26.9987 15.8004 26.8741 15.659C26.7494 15.5176 26.5786 15.4249 26.3921 15.3974C26.3921 15.3549 26.3921 15.3099 26.3921 15.2649C26.3931 13.5794 26.0289 11.9137 25.3246 10.3824C25.9937 11.137 26.5588 11.9778 27.0046 12.8824C27.2732 13.8658 27.4094 14.8806 27.4096 15.8999V15.9024ZM5.78208 20.4599C5.23304 18.13 5.44147 15.6857 6.37708 13.4824C5.94857 15.2375 5.95052 17.0702 6.38275 18.8244C6.81499 20.5786 7.66471 22.2023 8.85958 23.5574C8.74723 23.6997 8.68721 23.8762 8.68958 24.0574C8.6912 24.1622 8.71345 24.2655 8.75504 24.3617C8.79663 24.4578 8.85675 24.5448 8.93197 24.6177C9.00719 24.6906 9.09603 24.748 9.19342 24.7865C9.29081 24.8251 9.39484 24.8441 9.49958 24.8424C9.67571 24.8416 9.84647 24.7817 9.98458 24.6724C10.8073 25.3926 11.7261 25.995 12.7146 26.4624C11.9956 26.3208 11.2922 26.1089 10.6146 25.8299C8.46566 24.6093 6.77015 22.7252 5.78208 20.4599V20.4599ZM8.78208 24.8749C8.09949 24.4356 7.46662 23.9234 6.89458 23.3474C6.61743 22.8508 6.37921 22.3334 6.18208 21.7999C6.86447 22.9682 7.74513 24.0088 8.78458 24.8749H8.78208ZM4.84458 15.5249C4.91416 13.3232 5.62012 11.1889 6.87708 9.37993C8.04008 8.24863 9.43103 7.37843 10.9571 6.82743C9.11378 8.11581 7.68562 9.91317 6.84708 11.9999C5.56902 14.142 5.02645 16.6433 5.30208 19.1224C5.10331 18.4497 4.9669 17.7601 4.89458 17.0624C5.04634 16.8306 5.12297 16.5577 5.11402 16.2808C5.10508 16.0039 5.01099 15.7364 4.84458 15.5149V15.5249ZM16.6121 5.22493C16.9122 5.2235 17.2031 5.12039 17.4371 4.93243C17.5571 4.93243 17.6871 4.93243 17.7996 4.93243C18.3921 4.93291 18.9838 4.97804 19.5696 5.06743C19.8446 5.15493 20.1121 5.25493 20.3771 5.36493C20.7781 5.59059 21.1647 5.84107 21.5346 6.11493C21.4009 6.0585 21.2572 6.02959 21.1121 6.02993C20.8819 6.02977 20.6575 6.10215 20.4708 6.23678C20.2841 6.37142 20.1446 6.56147 20.0721 6.77993C19.4382 6.5969 18.7901 6.46728 18.1346 6.39243C16.3606 5.85962 14.4843 5.76186 12.6646 6.10743C13.717 5.59245 14.8415 5.24011 15.9996 5.06243C16.1875 5.16552 16.3977 5.2213 16.6121 5.22493V5.22493ZM14.8621 26.6724C14.4771 26.6724 14.0946 26.6524 13.7196 26.6149C12.4107 26.1315 11.2004 25.415 10.1471 24.4999C10.2291 24.3809 10.2773 24.2417 10.2863 24.0974C10.2954 23.953 10.2651 23.809 10.1986 23.6806C10.132 23.5522 10.0319 23.4442 9.90873 23.3684C9.78561 23.2925 9.64418 23.2516 9.49958 23.2499C9.34036 23.2498 9.18467 23.2968 9.05208 23.3849C7.71917 21.8707 6.83015 20.0179 6.48299 18.0306C6.13584 16.0434 6.34401 13.9989 7.08458 12.1224C7.89879 10.7532 8.99052 9.56949 10.2896 8.64743C10.3636 8.74382 10.466 8.81452 10.5824 8.84956C10.6988 8.88459 10.8232 8.88218 10.9381 8.84267C11.0531 8.80317 11.1527 8.72856 11.2229 8.62937C11.2932 8.53019 11.3305 8.41146 11.3296 8.28993C11.3284 8.20288 11.307 8.1173 11.2671 8.03993C12.964 7.08105 14.8804 6.57805 16.8296 6.57993C17.2472 6.58064 17.6645 6.60401 18.0796 6.64993C18.7646 6.85651 19.4284 7.12773 20.0621 7.45993C20.1314 7.68293 20.2702 7.87794 20.4582 8.01646C20.6462 8.15499 20.8735 8.22979 21.1071 8.22993C21.1726 8.22966 21.2379 8.22296 21.3021 8.20993C23.7573 9.91643 25.4421 12.5209 25.9921 15.4599C25.8364 15.5159 25.7022 15.6192 25.6082 15.7553C25.5142 15.8914 25.4651 16.0535 25.4679 16.2189C25.4706 16.3843 25.5251 16.5446 25.6236 16.6775C25.722 16.8104 25.8596 16.9092 26.0171 16.9599C25.628 19.6469 24.2876 22.105 22.2396 23.8873C20.1916 25.6697 17.572 26.6579 14.8571 26.6724H14.8621ZM19.4621 6.87993C19.6521 6.92493 19.8396 6.97493 20.0271 7.02993C20.0271 7.05993 20.0271 7.08993 20.0271 7.12243C20.0271 7.15493 20.0271 7.13493 20.0271 7.14243C19.8321 7.04993 19.6471 6.96243 19.4571 6.87993H19.4621ZM21.6046 8.10243C21.7479 8.03104 21.8734 7.92855 21.9721 7.80243C22.9918 8.31966 23.9281 8.9871 24.7496 9.78243C25.6106 11.3522 26.0893 13.1029 26.1471 14.8924C25.5025 12.1535 23.8869 9.74113 21.5996 8.10243H21.6046ZM22.1046 7.60243C22.1938 7.42165 22.2299 7.21927 22.2087 7.01879C22.1874 6.81831 22.1097 6.62798 21.9846 6.46993C22.8828 7.2095 23.6627 8.08209 24.2971 9.05743C23.6232 8.48685 22.8869 7.99454 22.1021 7.58993L22.1046 7.60243ZM14.8071 6.15743C15.4489 6.15889 16.0895 6.21409 16.7221 6.32243C14.7522 6.33456 12.8183 6.85096 11.1046 7.82243C11.0029 7.74159 10.8769 7.69753 10.7471 7.69743C10.5926 7.69743 10.4444 7.7588 10.3352 7.86804C10.2259 7.97728 10.1646 8.12544 10.1646 8.27993C10.1656 8.3228 10.1706 8.36549 10.1796 8.40743C9.26457 9.05299 8.44633 9.82577 7.74958 10.7024C8.73081 8.9893 10.139 7.55954 11.8371 6.55243C12.8054 6.29081 13.804 6.158 14.8071 6.15743V6.15743ZM13.6521 26.8599C14.0071 26.9899 14.3696 27.1099 14.7371 27.2024C13.9507 27.1046 13.1771 26.9227 12.4296 26.6599C12.8332 26.7484 13.2413 26.8152 13.6521 26.8599V26.8599ZM14.6521 26.9174H14.8596C16.7347 26.919 18.5812 26.4569 20.2346 25.5724C20.1439 25.7586 20.0969 25.9629 20.0971 26.1699C20.0969 26.2933 20.1137 26.4161 20.1471 26.5349C18.9943 26.9854 17.7739 27.239 16.5371 27.2849C15.8989 27.2145 15.2676 27.0916 14.6496 26.9174H14.6521ZM20.2371 26.7749C20.2855 26.8744 20.346 26.9676 20.4171 27.0524C19.7052 27.2156 18.9794 27.311 18.2496 27.3374C18.9271 27.2112 19.5916 27.0229 20.2346 26.7749H20.2371ZM22.6396 25.4999C22.9346 25.2949 23.2196 25.0774 23.4946 24.8474C23.2515 25.1356 22.9936 25.4109 22.7221 25.6724C22.6989 25.6125 22.6704 25.5548 22.6371 25.4999H22.6396ZM22.4971 25.2949C22.3709 25.1456 22.2141 25.0251 22.0372 24.9419C21.8603 24.8586 21.6676 24.8145 21.4721 24.8124C23.9352 23.0685 25.6263 20.4374 26.1896 17.4724C26.1896 17.4874 26.1896 17.5024 26.1896 17.5174C26.1908 19.6984 25.5595 21.833 24.3721 23.6624C23.8096 24.2735 23.1816 24.821 22.4996 25.2949H22.4971ZM24.9396 9.62743C24.2359 8.36034 23.3035 7.23466 22.1896 6.30743C24.1774 7.59432 25.7159 9.46744 26.5921 11.6674C26.1192 10.9271 25.564 10.2428 24.9371 9.62743H24.9396ZM17.7996 4.67243H17.6871C17.7009 4.65771 17.7135 4.64182 17.7246 4.62493L18.0396 4.67743L17.7996 4.67243ZM15.6996 4.85993C14.3062 5.1066 12.9684 5.60109 11.7496 6.31993C10.2734 6.72232 8.8911 7.41217 7.68208 8.34993C8.65981 7.23195 9.84949 6.31893 11.1823 5.66367C12.5152 5.00841 13.9647 4.62391 15.4471 4.53243C15.5131 4.65446 15.5983 4.76505 15.6996 4.85993V4.85993ZM4.60208 15.2749C4.36325 15.0852 4.06711 14.982 3.76208 14.9824H3.71458C4.1047 13.2842 4.88153 11.6988 5.98458 10.3499C5.16503 11.8691 4.69285 13.5512 4.60208 15.2749V15.2749ZM5.73958 21.2749C5.88695 21.7528 6.06567 22.2205 6.27458 22.6749C6.00619 22.3654 5.75578 22.0407 5.52458 21.7024C5.59147 21.6501 5.64623 21.5839 5.68508 21.5084C5.72392 21.4328 5.74593 21.3498 5.74958 21.2649L5.73958 21.2749ZM22.7971 25.9549C23.4703 25.3187 24.0653 24.6045 24.5696 23.8274C25.7592 22.5355 26.6425 20.9921 27.1536 19.312C27.6648 17.6318 27.7907 15.858 27.5221 14.1224C28.388 16.5463 28.3951 19.194 27.5421 21.6224C27.4525 21.5974 27.3601 21.584 27.2671 21.5824C27.0596 21.5812 26.8567 21.6437 26.6858 21.7613C26.5149 21.8789 26.3842 22.0461 26.3112 22.2403C26.2382 22.4345 26.2264 22.6464 26.2776 22.8475C26.3287 23.0486 26.4402 23.2292 26.5971 23.3649C25.5503 24.5775 24.262 25.5584 22.8146 26.2449C22.8146 26.2299 22.8146 26.2124 22.8146 26.1974C22.8165 26.1129 22.8106 26.0284 22.7971 25.9449V25.9549ZM18.5471 4.53243C18.3146 4.48243 18.0821 4.43743 17.8471 4.40243C17.8471 4.37493 17.8621 4.34743 17.8721 4.31993C18.1021 4.37493 18.3271 4.44493 18.5496 4.52243L18.5471 4.53243ZM7.35708 6.78243C7.48521 6.8603 7.63214 6.90179 7.78208 6.90243C7.8891 6.90243 7.99508 6.88135 8.09396 6.84039C8.19284 6.79943 8.28269 6.7394 8.35837 6.66372C8.43405 6.58804 8.49408 6.49819 8.53504 6.39931C8.576 6.30043 8.59708 6.19445 8.59708 6.08743C8.59706 6.0025 8.58355 5.91812 8.55708 5.83743C10.412 4.56873 12.6073 3.89071 14.8546 3.89243C14.9946 3.89243 15.1346 3.89243 15.2721 3.89243C15.2764 4.02329 15.2992 4.15289 15.3396 4.27743C13.6201 4.39724 11.9495 4.90205 10.4514 5.75453C8.95323 6.60701 7.66591 7.78536 6.68458 9.20243C5.22327 10.6277 4.16276 12.4125 3.60958 14.3774C3.83788 11.4574 5.18059 8.73711 7.35958 6.77993L7.35708 6.78243ZM6.85708 25.6474C6.88305 25.5839 6.89663 25.516 6.89708 25.4474C6.89708 25.3029 6.83966 25.1643 6.73745 25.0621C6.63524 24.9598 6.49662 24.9024 6.35208 24.9024C6.29582 24.9034 6.24009 24.9136 6.18708 24.9324C4.43133 22.9078 3.45301 20.3247 3.42708 17.6449L3.56708 17.6724C3.79804 18.7844 4.19053 19.8566 4.73208 20.8549C4.65433 20.9375 4.60251 21.0411 4.58304 21.1529C4.56357 21.2646 4.5773 21.3797 4.62254 21.4837C4.66777 21.5877 4.74252 21.6762 4.83753 21.7382C4.93254 21.8002 5.04364 21.8329 5.15708 21.8324C5.20867 21.8316 5.25995 21.8241 5.30958 21.8099C5.71854 22.4152 6.18305 22.9809 6.69708 23.4999C8.01875 25.8623 10.1229 27.6897 12.6471 28.6674C10.465 28.2464 8.45392 27.1957 6.86208 25.6449L6.85708 25.6474ZM16.9996 29.1974C17.1028 29.1172 17.176 29.0044 17.2071 28.8774C18.5081 28.6043 19.7521 28.1087 20.8846 27.4124C21.0628 27.4938 21.2562 27.5364 21.4521 27.5374C21.7536 27.5372 22.0465 27.4369 22.2849 27.2523C22.5233 27.0677 22.6938 26.8093 22.7696 26.5174C24.1498 25.8859 25.3952 24.9937 26.4371 23.8899C25.4303 25.4904 24.0397 26.8141 22.3917 27.741C20.7436 28.6678 18.8902 29.1685 16.9996 29.1974V29.1974Z" fill="#E6DAFE"/>
</svg>
