<svg width="32" height="32" viewBox="0 0 32 32" fill="none" xmlns="http://www.w3.org/2000/svg">
<g clip-path="url(#clip0_14369_746)">
<path d="M16.0001 28.2996H16.0002C22.7931 28.2996 28.2998 22.7928 28.2998 15.9999V15.9999C28.2998 9.20695 22.7931 3.70022 16.0002 3.70022H16.0001C9.2072 3.70022 3.70047 9.20695 3.70047 15.9999V15.9999C3.70047 22.7928 9.2072 28.2996 16.0001 28.2996Z" stroke="#E6DAFE" stroke-width="1.05405"/>
<mask id="mask0_14369_746" style="mask-type:alpha" maskUnits="userSpaceOnUse" x="10" y="7" width="12" height="18">
<path fill-rule="evenodd" clip-rule="evenodd" d="M10.6053 16.5206L10.506 16.6841L10.7796 17.0677C10.6957 16.8887 10.6408 16.6998 10.6053 16.5206ZM10.9293 15.9871C11.9914 16.5193 13.4932 16.3632 15.4346 15.5187C17.4744 14.6315 19.1457 14.5238 20.4484 15.1959C20.5301 15.238 20.6055 15.2827 20.6747 15.3295L16.0107 7.61987L10.9293 15.9871ZM21.4264 16.5719C21.4338 16.6355 21.4383 16.6982 21.4405 16.7595L21.4942 16.6841L21.4264 16.5719ZM21.0431 17.3189C19.5705 16.1994 17.968 16.2711 15.7745 17.2253C14.0188 17.9889 12.6227 18.1897 11.5861 17.8276C11.4021 17.7633 11.2503 17.6677 11.125 17.5519L16.0107 24.4014L21.0431 17.3189Z" fill="white"/>
</mask>
<g mask="url(#mask0_14369_746)">
<path d="M16.0121 7.59839L15.8506 7.97528V16.0212H16.0121L21.9326 15.1982L16.0121 7.59839Z" fill="#E6DAFE"/>
<path d="M16.0108 7.55566L10.8267 16.1462L16.0108 19.2065V13.7929V7.55566Z" fill="#E6DAFE"/>
<path d="M15.9985 17.1367L15.9348 20.269V24.2367L15.9985 24.4227L21.4193 16.7696L18.9929 14.9739L15.9985 17.1367Z" fill="#E6DAFE"/>
<path d="M16.0108 24.4225V17.1365H10.8267L16.0108 24.4225Z" fill="#E6DAFE"/>
</g>
</g>
<defs>
<clipPath id="clip0_14369_746">
<rect width="26" height="26" fill="white" transform="translate(3 3)"/>
</clipPath>
</defs>
</svg>
