<svg width="32" height="32" viewBox="0 0 32 32" fill="none" xmlns="http://www.w3.org/2000/svg">
<path d="M23.3543 10.1997C22.4593 8.87469 21.4593 7.69964 20.4963 6.70324C20.2907 6.49061 20.0869 6.28559 19.8866 6.08994C17.8738 4.12292 16.171 3 16.171 3C16.171 3 15.4265 3.49088 14.3405 4.39179C13.7904 4.84811 13.1525 5.40986 12.4795 6.06651C12.2792 6.26215 12.0747 6.466 11.8697 6.67864C10.8991 7.6803 9.8898 8.86356 8.98771 10.1997C7.01894 13.1133 5.55861 16.7515 6.12212 20.8109C6.40564 22.857 7.3581 24.7567 8.87759 26.1555C10.796 27.9216 13.3576 29 16.171 29C18.9845 29 21.546 27.9216 23.4644 26.1555C24.9839 24.7567 25.9364 22.857 26.2199 20.8109C26.7834 16.7515 25.3231 13.1133 23.3543 10.1997ZM25.4379 20.4618C25.1766 22.3486 24.2986 24.1 22.8968 25.3905C21.1278 27.0189 18.766 28.0136 16.171 28.0136C13.5761 28.0136 11.2148 27.0189 9.44578 25.3905C8.04404 24.1 7.16597 22.3486 6.90413 20.4618C6.38513 16.7182 7.73123 13.3634 9.54712 10.6765C10.2758 9.59812 11.0801 8.62691 11.8697 7.78164C12.0741 7.56198 12.278 7.3511 12.4795 7.14901C13.1695 6.45604 13.8297 5.86676 14.3955 5.39346C14.614 5.2107 14.8185 5.04492 15.0053 4.89731C15.7153 4.33731 16.171 4.03681 16.171 4.03681C16.171 4.03681 16.6057 4.32326 17.2881 4.85923C17.4644 4.99748 17.6565 5.15271 17.8627 5.32317C18.4538 5.81345 19.1538 6.43554 19.8866 7.17303C20.0881 7.3757 20.2919 7.58717 20.4963 7.80683C21.2789 8.64624 22.0744 9.60866 22.7955 10.6765C24.6114 13.3634 25.9575 16.7182 25.4379 20.4618Z" fill="#E6DAFE"/>
<path d="M20.4963 8.96842V13.5843C20.4963 13.753 20.3599 13.8895 20.1917 13.8895C20.0236 13.8895 19.8866 13.753 19.8866 13.5843V8.29771C19.1643 7.53387 18.4608 6.8901 17.8627 6.384V16.0404C17.8627 16.2091 17.7262 16.3456 17.5581 16.3456C17.39 16.3456 17.2529 16.2091 17.2529 16.0404V5.88375C16.5957 5.36241 16.171 5.08242 16.171 5.08242C16.171 5.08242 15.71 5.38643 15.0053 5.95111V15.6948C15.0053 15.8635 14.8688 16 14.7001 16C14.5314 16 14.3955 15.8635 14.3955 15.6948V6.45546C13.8227 6.94458 13.1596 7.55554 12.4795 8.27311V13.5843C12.4795 13.753 12.343 13.8895 12.1743 13.8895C12.0056 13.8895 11.8697 13.753 11.8697 13.5843V8.94206C11.3326 9.55477 10.7995 10.2302 10.3051 10.9618C9.22729 12.5568 8.33634 14.4173 8.00479 16.4692C8.42537 15.4681 8.84596 14.4665 9.26654 13.4654C9.33859 13.2932 9.54888 13.227 9.70587 13.3277C10.3326 13.7313 9.54712 15.0639 9.58461 17.4117C9.62737 20.0746 12.4391 21.9069 12.4391 21.9069C12.3114 20.3089 10.7562 18.3489 10.5008 17.0069C10.3918 16.4364 10.622 16.1693 10.9225 16.0504C11.3812 15.8682 11.9019 16.0937 12.1146 16.5389C12.1679 16.6514 12.2264 16.772 12.2903 16.9003C12.7735 17.8774 13.183 18.7057 13.7389 19.4145C14.4307 20.2966 14.5959 20.0324 15.4218 20.948C16.4803 22.1213 16.922 23.3456 17.1047 23.8663C17.4117 24.7438 17.5417 25.5475 17.5903 26.2C17.6073 26.4203 17.6144 26.6235 17.6161 26.8063L18.4508 26.6809C18.4508 26.6809 18.4772 26.4367 18.4543 26.0149C18.4028 25.0525 18.0982 23.1646 16.6513 21.1396C16.6513 21.1396 19.0155 18.435 19.6394 17.0169C20.2638 15.5988 21.3604 15.8067 21.5689 16.4499C21.7768 17.0925 21.3984 18.076 20.7365 19.135C20.0746 20.1941 19.7155 21.9907 19.7155 21.9907C19.7155 21.9907 22.495 19.9481 22.495 17.1118C22.495 14.4501 21.7265 14.0541 22.5243 13.3113C22.6127 13.2287 22.7557 13.2516 22.8136 13.3576C23.1634 13.9984 24.2365 16.058 24.4597 17.5845C24.3179 15.0891 23.3075 12.8409 22.0375 10.9618C21.5507 10.2407 21.0253 9.57352 20.4963 8.96842Z" fill="#E6DAFE"/>
</svg>
