<svg width="32" height="32" viewBox="0 0 32 32" fill="none" xmlns="http://www.w3.org/2000/svg">
<path d="M10.644 17.799C11.3928 17.799 12.1208 17.5494 12.7136 17.0918L7.97118 12.3494C6.82718 13.8262 7.09758 15.9478 8.57437 17.0918C9.16717 17.539 9.89517 17.7886 10.644 17.7886V17.799Z" fill="#E6DAFE"/>
<path d="M24.7359 14.419C24.7359 13.6702 24.4863 12.9422 24.0287 12.3494L19.2863 17.0918C20.7631 18.2358 22.8847 17.9654 24.0287 16.4886C24.4863 15.8958 24.7359 15.1678 24.7359 14.419Z" fill="#E6DAFE"/>
<path d="M27.1279 9.2606L25.0271 11.3614C26.7119 13.3894 26.4519 16.395 24.4239 18.0902C22.6455 19.5773 20.0767 19.5773 18.2983 18.0902L15.9999 20.3885L13.7016 18.0902C11.6736 19.7749 8.66797 19.515 6.97278 17.487C5.48559 15.7086 5.48559 13.1398 6.97278 11.3614L5.90159 10.2902L4.88239 9.2606C3.6448 11.2886 3 13.6182 3 15.9998C3 23.1757 8.82397 28.9997 15.9999 28.9997C23.1759 28.9997 28.9999 23.1757 28.9999 15.9998C29.0103 13.6286 28.3447 11.2886 27.1279 9.2606Z" fill="#E6DAFE"/>
<path d="M25.4015 7.0246C20.4511 1.83503 12.2247 1.63743 7.03517 6.5878C6.87917 6.7334 6.73357 6.879 6.59837 7.0246C6.27597 7.3678 5.97437 7.7214 5.68318 8.0854L15.9999 18.4022L26.3167 8.0854C26.0359 7.711 25.7239 7.3574 25.4015 7.0246ZM15.9999 4.69501C19.0367 4.69501 21.8655 5.87021 23.9975 8.0022L15.9999 15.9998L8.00236 8.0022C10.124 5.85981 12.9631 4.69501 15.9999 4.69501Z" fill="#E6DAFE"/>
</svg>
