<svg width="32" height="32" viewBox="0 0 32 32" fill="none" xmlns="http://www.w3.org/2000/svg">
<g clip-path="url(#clip0_6_4656)">
<path d="M8.10663 5H5V8.10663H8.10663V5Z" fill="#E6DAFE"/>
<path d="M14.6213 5H11.5146V8.10663H14.6213V5Z" fill="#E6DAFE"/>
<path d="M21.1359 5H18.0293V8.10663H21.1359V5Z" fill="#E6DAFE"/>
<path d="M8.10663 11.5146H5V14.6213H8.10663V11.5146Z" fill="#E6DAFE"/>
<path d="M14.6213 11.5146H11.5146V14.6213H14.6213V11.5146Z" fill="#E6DAFE"/>
<path d="M8.10663 18.0259H5V21.1361H8.10663V18.0259Z" fill="#E6DAFE"/>
<path d="M26.0979 7.45503C26.5963 7.45503 27.0004 7.05094 27.0004 6.55247C27.0004 6.05399 26.5963 5.6499 26.0979 5.6499C25.5994 5.6499 25.1953 6.05399 25.1953 6.55247C25.1953 7.05094 25.5994 7.45503 26.0979 7.45503Z" fill="#E6DAFE"/>
<path d="M26.0979 13.9697C26.5963 13.9697 27.0004 13.5656 27.0004 13.0671C27.0004 12.5686 26.5963 12.1646 26.0979 12.1646C25.5994 12.1646 25.1953 12.5686 25.1953 13.0671C25.1953 13.5656 25.5994 13.9697 26.0979 13.9697Z" fill="#E6DAFE"/>
<path d="M26.0979 20.4853C26.5963 20.4853 27.0004 20.0812 27.0004 19.5827C27.0004 19.0843 26.5963 18.6802 26.0979 18.6802C25.5994 18.6802 25.1953 19.0843 25.1953 19.5827C25.1953 20.0812 25.5994 20.4853 26.0979 20.4853Z" fill="#E6DAFE"/>
<path d="M26.0979 27C26.5963 27 27.0004 26.5959 27.0004 26.0974C27.0004 25.5989 26.5963 25.1948 26.0979 25.1948C25.5994 25.1948 25.1953 25.5989 25.1953 26.0974C25.1953 26.5959 25.5994 27 26.0979 27Z" fill="#E6DAFE"/>
<path d="M19.5803 13.9697C20.0788 13.9697 20.4829 13.5656 20.4829 13.0671C20.4829 12.5686 20.0788 12.1646 19.5803 12.1646C19.0818 12.1646 18.6777 12.5686 18.6777 13.0671C18.6777 13.5656 19.0818 13.9697 19.5803 13.9697Z" fill="#E6DAFE"/>
<path d="M19.5803 20.4853C20.0788 20.4853 20.4829 20.0812 20.4829 19.5827C20.4829 19.0843 20.0788 18.6802 19.5803 18.6802C19.0818 18.6802 18.6777 19.0843 18.6777 19.5827C18.6777 20.0812 19.0818 20.4853 19.5803 20.4853Z" fill="#E6DAFE"/>
<path d="M19.5803 27C20.0788 27 20.4829 26.5959 20.4829 26.0974C20.4829 25.5989 20.0788 25.1948 19.5803 25.1948C19.0818 25.1948 18.6777 25.5989 18.6777 26.0974C18.6777 26.5959 19.0818 27 19.5803 27Z" fill="#E6DAFE"/>
<path d="M13.0676 20.4853C13.5661 20.4853 13.9702 20.0812 13.9702 19.5827C13.9702 19.0843 13.5661 18.6802 13.0676 18.6802C12.5691 18.6802 12.165 19.0843 12.165 19.5827C12.165 20.0812 12.5691 20.4853 13.0676 20.4853Z" fill="#E6DAFE"/>
<path d="M13.0676 27C13.5661 27 13.9702 26.5959 13.9702 26.0974C13.9702 25.5989 13.5661 25.1948 13.0676 25.1948C12.5691 25.1948 12.165 25.5989 12.165 26.0974C12.165 26.5959 12.5691 27 13.0676 27Z" fill="#E6DAFE"/>
<path d="M6.55295 27C7.05143 27 7.45552 26.5959 7.45552 26.0974C7.45552 25.5989 7.05143 25.1948 6.55295 25.1948C6.05448 25.1948 5.65039 25.5989 5.65039 26.0974C5.65039 26.5959 6.05448 27 6.55295 27Z" fill="#E6DAFE"/>
</g>
<defs>
<clipPath id="clip0_6_4656">
<rect width="22" height="22" fill="white" transform="translate(5 5)"/>
</clipPath>
</defs>
</svg>
