<svg width="32" height="32" viewBox="0 0 32 32" fill="none" xmlns="http://www.w3.org/2000/svg">
<path d="M23.8849 6.39497L17.3324 2.91497C16.9211 2.69588 16.4622 2.5813 15.9961 2.5813C15.5301 2.5813 15.0712 2.69588 14.6599 2.91497L8.10738 6.39497C7.90657 6.50131 7.73854 6.66039 7.62137 6.85508C7.5042 7.04978 7.44232 7.27273 7.44238 7.49997V24.5C7.44232 24.7272 7.5042 24.9502 7.62137 25.1448C7.73854 25.3395 7.90657 25.4986 8.10738 25.605L14.6599 29.085C15.0709 29.3049 15.5299 29.42 15.9961 29.42C16.4623 29.42 16.9213 29.3049 17.3324 29.085L23.8849 25.605C24.0857 25.4986 24.2537 25.3395 24.3709 25.1448C24.4881 24.9502 24.5499 24.7272 24.5499 24.5V7.49997C24.5499 7.27273 24.4881 7.04978 24.3709 6.85508C24.2537 6.66039 24.0857 6.50131 23.8849 6.39497V6.39497ZM14.5749 11.615L8.57488 14.7975V8.53247L14.5749 11.615ZM15.4274 12.45V19.2975C15.3473 19.2704 15.2696 19.2369 15.1949 19.1975L8.95988 15.885L15.4274 12.45ZM16.5649 12.45L23.0324 15.885L16.7974 19.1975C16.7227 19.2369 16.6449 19.2704 16.5649 19.2975V12.45ZM17.4174 11.615L23.4174 8.53247V14.7975L17.4174 11.615ZM15.1949 3.91997C15.4415 3.78865 15.7167 3.71997 15.9961 3.71997C16.2756 3.71997 16.5507 3.78865 16.7974 3.91997L23.2499 7.34247L16.1524 10.985C16.0486 10.9627 15.9412 10.9627 15.8374 10.985L8.74988 7.34247L15.1949 3.91997ZM23.3499 24.6L16.7974 28.08C16.5509 28.2117 16.2757 28.2806 15.9961 28.2806C15.7166 28.2806 15.4414 28.2117 15.1949 28.08L8.63988 24.6C8.62204 24.59 8.60712 24.5755 8.5966 24.5579C8.58608 24.5404 8.58031 24.5204 8.57988 24.5V16.975L14.6599 20.205C15.0715 20.4232 15.5303 20.5373 15.9961 20.5373C16.462 20.5373 16.9208 20.4232 17.3324 20.205L23.4124 16.975V24.5C23.412 24.5207 23.4059 24.541 23.3949 24.5586C23.3839 24.5762 23.3684 24.5905 23.3499 24.6V24.6Z" fill="#E6DAFE"/>
<path d="M6.47984 24.7501V24.1851H5.33984V24.7501C5.33942 25.2929 5.487 25.8255 5.76672 26.2907C6.04644 26.7558 6.44771 27.1359 6.92734 27.3901L7.62734 27.7626L8.16234 26.7626L7.46234 26.3901C7.16441 26.2325 6.91532 25.9964 6.74211 25.7072C6.5689 25.4181 6.4782 25.0871 6.47984 24.7501V24.7501Z" fill="#E6DAFE"/>
<path d="M25.0729 4.60511L24.3729 4.23511L23.8379 5.23511L24.5379 5.60511C24.836 5.7637 25.0852 6.00078 25.2583 6.29072C25.4315 6.58065 25.5221 6.9124 25.5204 7.25011V7.82011H26.6604V7.25011C26.6601 6.7068 26.5123 6.17377 26.2327 5.70793C25.9531 5.24209 25.5522 4.86091 25.0729 4.60511V4.60511Z" fill="#E6DAFE"/>
</svg>
