<svg width="32" height="32" viewBox="0 0 32 32" fill="none" xmlns="http://www.w3.org/2000/svg">
<path d="M4.31926 19.1289C3.73218 18.5485 3.34524 17.8747 3.1451 17.1141C2.95163 16.3469 2.95163 15.5797 3.1451 14.8125C3.34524 14.0386 3.73218 13.3648 4.31259 12.7911C4.89967 12.204 5.58015 11.8171 6.34736 11.6169C7.11457 11.4235 7.88845 11.4235 8.65565 11.6169C9.42286 11.8104 10.1033 12.1973 10.6838 12.7844L12.1314 14.2254L14.2729 12.0906L12.8253 10.6496C12.2382 10.0692 11.8512 9.39535 11.6511 8.63482C11.4576 7.86761 11.451 7.1004 11.6444 6.33987C11.8379 5.57266 12.2315 4.89885 12.8186 4.31177C13.4057 3.73136 14.0795 3.34442 14.8467 3.14428C15.6139 2.95081 16.3811 2.95081 17.1483 3.15095C17.9155 3.34442 18.596 3.73136 19.1764 4.31844C19.7635 4.89885 20.1504 5.57266 20.3439 6.33987C20.544 7.1004 20.544 7.86761 20.3506 8.63482C20.1638 9.4087 19.7768 10.0825 19.1897 10.6629L17.7487 12.0973L19.8836 14.2254L21.3246 12.7911C21.9117 12.2107 22.5855 11.8171 23.346 11.6169C24.1132 11.4235 24.8804 11.4235 25.6476 11.6236C26.4148 11.8171 27.0953 12.2107 27.6824 12.7978C28.2695 13.3782 28.6564 14.052 28.8499 14.8192C29.05 15.5797 29.05 16.3469 28.8499 17.1075C28.6564 17.8747 28.2628 18.5485 27.6824 19.1289C27.0953 19.716 26.4148 20.1029 25.6476 20.303C24.8804 20.4898 24.1132 20.4898 23.346 20.2964C22.5855 20.1029 21.9117 19.716 21.3313 19.1289L19.8902 17.6945L17.7487 19.8294L19.1897 21.2637C19.7768 21.8441 20.1638 22.5179 20.3506 23.2785C20.544 24.0457 20.544 24.8129 20.3506 25.5801C20.1571 26.3473 19.7635 27.0211 19.1764 27.6082C18.596 28.1886 17.9222 28.5755 17.1483 28.7757C16.3811 28.9692 15.6072 28.9692 14.84 28.7757C14.0795 28.5822 13.4057 28.1953 12.8253 27.6082C12.2382 27.0211 11.8446 26.3473 11.6444 25.5868C11.451 24.8196 11.451 24.0524 11.6444 23.2851C11.8512 22.5179 12.2382 21.8441 12.8186 21.2704L14.2729 19.8227L12.1381 17.6945L10.6838 19.1422C10.1033 19.7226 9.42286 20.1029 8.64898 20.2964C7.88178 20.4898 7.1079 20.4898 6.34069 20.2964C5.57348 20.0962 4.89967 19.7093 4.31926 19.1222V19.1289ZM6.05382 17.3943C6.32067 17.6545 6.62089 17.8346 6.97447 17.9214C7.32805 18.0148 7.67496 18.0148 8.02187 17.928C8.36879 17.8413 8.67567 17.6679 8.94252 17.401L10.3969 15.9533L8.9492 14.5123C8.68234 14.2521 8.37546 14.0787 8.02187 13.9919C7.67496 13.9052 7.32805 13.9052 6.98114 13.9919C6.63423 14.0787 6.32735 14.2588 6.05382 14.5256C5.78697 14.7858 5.61351 15.0927 5.52011 15.4329C5.43338 15.7799 5.43338 16.1268 5.52011 16.4737C5.61351 16.8273 5.79364 17.1341 6.05382 17.3943ZM14.5665 8.91502L16.0142 10.356L17.4552 8.92169C17.722 8.65483 17.9022 8.34795 17.9822 8.00771C18.069 7.6608 18.069 7.31389 17.9756 6.9603C17.8888 6.61339 17.7087 6.30651 17.4485 6.04633C17.1817 5.78614 16.8815 5.60601 16.5279 5.51929C16.181 5.43256 15.834 5.43256 15.4871 5.51929C15.1469 5.59934 14.84 5.77947 14.5665 6.04633C14.2996 6.30651 14.1195 6.61339 14.0261 6.9603C13.9394 7.30721 13.9394 7.65413 14.0261 8.00104C14.1262 8.34795 14.3063 8.65483 14.5665 8.91502ZM21.2245 15.96L22.6655 17.3943C22.9324 17.6545 23.2326 17.8346 23.5728 17.928C23.9198 18.0148 24.6736 18.0148 25.0139 17.9214C25.3608 17.8346 25.6677 17.6545 25.9412 17.3877C26.208 17.1208 26.3882 16.8139 26.4682 16.4737C26.5616 16.1334 26.5616 15.7865 26.4749 15.4396C26.3882 15.0927 26.208 14.7858 25.9478 14.5256C25.681 14.2588 25.3741 14.0787 25.0205 13.9919C24.6736 13.9052 23.9198 13.9052 23.5728 13.9919C23.2326 14.0787 22.9324 14.2588 22.6655 14.5256L21.2245 15.96ZM14.5665 25.8803C14.8333 26.1405 15.1336 26.3206 15.4871 26.4073C15.834 26.4941 16.181 26.4941 16.5212 26.4007C16.8681 26.314 17.175 26.1405 17.4418 25.8736C17.7087 25.6068 17.8888 25.2999 17.9756 24.953C18.069 24.6128 18.069 24.2658 17.9822 23.9189C17.9022 23.5653 17.722 23.2585 17.4619 22.9983L16.0208 21.5639L14.5665 23.0116C14.2996 23.2718 14.1262 23.5787 14.0328 23.9189C13.9461 24.2658 13.9461 24.6127 14.0328 24.9597C14.1195 25.3066 14.2996 25.6135 14.5665 25.8803ZM13.8793 15.96L16.0142 18.0881L18.1557 15.9533L16.0208 13.8251L13.8793 15.96Z" fill="#E6DAFE"/>
</svg>
