<svg width="32" height="32" viewBox="0 0 32 32" fill="none" xmlns="http://www.w3.org/2000/svg">
<g clip-path="url(#clip0_6_4951)">
<path d="M22.1624 6.83385C20.6715 4.47823 18.6023 3.01608 16.2845 3C11.6486 3.02389 8 8.86056 8 16.0037C8 19.5711 8.91398 22.8183 10.4058 25.173C11.8976 27.5277 13.9663 28.9913 16.2841 29C18.6018 28.9913 20.671 27.5282 22.1624 25.173C23.6546 22.8183 24.5686 19.5706 24.5686 16.0037C24.5686 12.4367 23.6546 9.18855 22.1624 6.83385ZM21.934 25.0288C21.1966 26.179 20.3303 27.1097 19.3759 27.7514C18.4216 28.3854 17.3833 28.7368 16.2841 28.7368C15.1848 28.7368 14.147 28.3854 13.1922 27.7514C12.2379 27.1097 11.3716 26.179 10.6342 25.0288C9.17492 22.7283 8.26782 19.5284 8.26782 16.0078C8.26782 14.2397 8.49253 12.5575 8.9016 11.032C9.31067 9.49816 9.90455 8.12099 10.6342 6.97166C11.3716 5.82049 12.2379 4.88982 13.1922 4.24809C14.1466 3.61509 15.1848 3.26322 16.2841 3.26322C17.3833 3.26322 18.4216 3.61555 19.3759 4.24809C20.3303 4.88982 21.1966 5.82049 21.934 6.97166C22.6641 8.12099 23.2575 9.49816 23.6666 11.032C24.0756 12.5575 24.3003 14.2397 24.3003 16.0078C24.3003 19.5288 23.3932 22.7283 21.934 25.0288Z" fill="#E6DAFE"/>
<path d="M16.2842 3.99829C12.1862 4.02126 8.98242 9.42016 8.98242 16.0079C8.98242 22.5956 12.1862 27.9858 16.2842 28.0102C20.3822 27.9858 23.5864 22.5883 23.5864 16.0079C23.5864 9.42751 20.3822 4.02126 16.2842 3.99829ZM18.2773 17.0098V22.3145C17.7636 22.4633 17.2193 22.5649 16.6579 22.5966V17.0102H18.2773V17.0098ZM16.6579 14.78V9.41281C17.2193 9.44451 17.7558 9.54603 18.2773 9.6944V14.78H16.6579ZM15.3982 9.45186V22.5571C14.9575 22.4946 14.5402 22.4004 14.1311 22.2672V9.74172C14.5406 9.6085 14.9575 9.50652 15.3982 9.4514V9.45186ZM12.864 10.3049V21.7049C12.4072 21.438 11.9904 21.133 11.6051 20.7729V11.236C11.9904 10.8754 12.4072 10.5631 12.864 10.3049ZM17.5949 5.78614L17.2491 6.09712C17.0418 5.87709 16.7437 5.73698 16.4121 5.73698C15.7839 5.73698 15.2744 6.23402 15.2744 6.85048C15.2744 7.46695 15.7839 7.95939 16.4121 7.95939C16.7437 7.95939 17.0413 7.8202 17.2491 7.5997L17.5953 7.90886C17.3032 8.22168 16.8804 8.41737 16.4121 8.41737C15.5248 8.41737 14.8052 7.71455 14.8052 6.85002C14.8052 5.9855 15.5248 5.27808 16.4121 5.27808C16.8804 5.27808 17.3004 5.47423 17.5944 5.78568L17.5949 5.78614ZM14.071 5.97769L14.8607 8.54002C14.7121 8.56896 14.5635 8.60112 14.4191 8.63925L14.2416 8.06366L12.8456 8.60525L12.3962 9.50652C12.1454 9.66455 11.9018 9.83681 11.673 10.0215L13.4936 6.33967L14.0715 5.97677L14.071 5.97769ZM20.2057 9.52398L19.6961 7.83628L19.21 9.0026C19.1284 8.96585 19.0491 8.9337 18.9674 8.8997L18.6244 7.14861L18.1594 8.64016C18.0117 8.60204 17.8631 8.56942 17.7132 8.54048L18.5139 5.97815L18.8973 6.22758L19.2288 7.76645L19.6274 6.80501L19.9034 7.01769L20.7872 9.93327C20.601 9.78811 20.4056 9.64985 20.2061 9.52444L20.2057 9.52398ZM10.3371 12.8309V19.1761C9.81569 18.2298 9.51118 17.1503 9.51118 16.0079C9.51118 14.8655 9.81569 13.7786 10.3371 12.8309ZM20.9866 24.0596C20.3776 25.084 19.6636 25.9214 18.862 26.4924C18.0681 27.0712 17.1982 27.3845 16.2837 27.3845C15.3693 27.3845 14.4993 27.0712 13.7055 26.4924C12.9034 25.9214 12.1898 25.084 11.5808 24.0596C10.8186 22.7679 10.2491 21.1638 9.92851 19.3727C11.1557 21.5713 13.5331 23.0651 16.2837 23.0651C19.0344 23.0651 21.4122 21.5713 22.639 19.3727C22.3184 21.1638 21.7488 22.7679 20.9866 24.0596ZM20.8027 20.9295V17.0098H22.9765C22.7357 18.5588 21.9414 19.9355 20.8027 20.9295ZM20.8027 14.78V11.0863C20.8 11.084 20.7977 11.0817 20.7949 11.0794H20.8027V11.0863C21.8979 12.0321 22.6642 13.3202 22.9444 14.78H20.8027Z" fill="#E6DAFE"/>
<path d="M13.8083 6.66528L13.1406 8.01076L14.1087 7.63546L13.8083 6.66528Z" fill="#E6DAFE"/>
<path d="M18.6867 23.1253C18.2386 23.2755 17.9878 23.6168 18.1643 24.1166C18.2831 24.456 18.6394 24.6646 19.0788 24.5185C19.232 24.4657 19.3989 24.3734 19.4525 24.1997L19.4617 24.2043C19.6089 24.6329 19.4617 24.8084 19.2847 24.897C19.1095 24.9797 18.9485 24.9375 18.844 24.8143L18.8426 24.8125L18.5477 25.0114C18.7188 25.2613 19.0393 25.3376 19.3925 25.2186C19.8061 25.0799 20.1345 24.6853 19.8584 23.9011C19.7589 23.6145 19.4801 22.8598 18.6871 23.1253H18.6867ZM19.0623 24.1671C18.8912 24.2236 18.6615 24.2245 18.5551 23.9204C18.4533 23.6306 18.683 23.4932 18.7977 23.4578C19.0311 23.3807 19.1925 23.484 19.2751 23.7133C19.3594 23.9558 19.2196 24.1134 19.0623 24.1671Z" fill="#E6DAFE"/>
<path d="M16.8839 23.471C16.4124 23.511 16.0846 23.7806 16.129 24.307C16.1607 24.6612 16.4542 24.9515 16.9164 24.912C17.0792 24.9001 17.2618 24.8495 17.3585 24.6975L17.3654 24.7021C17.3998 25.1532 17.2113 25.2891 17.0192 25.3273C16.8289 25.3695 16.6839 25.2914 16.6142 25.1467V25.1435L16.2785 25.268C16.3794 25.5455 16.6734 25.6957 17.0444 25.6667C17.4782 25.6314 17.896 25.3277 17.8258 24.5023C17.8025 24.1991 17.7199 23.4044 16.8843 23.471H16.8839ZM16.9898 24.5675C16.8087 24.5836 16.5849 24.5321 16.5569 24.2106C16.5326 23.9019 16.7885 23.827 16.9109 23.8192C17.1535 23.799 17.2865 23.9359 17.3076 24.1802C17.3301 24.4366 17.1535 24.5565 16.9894 24.5675H16.9898Z" fill="#E6DAFE"/>
<path d="M15.081 23.3939C14.6646 23.3204 14.3 23.4848 14.2363 23.8496C14.2 24.0457 14.2762 24.1973 14.4491 24.3154C14.0602 24.4003 14.0102 24.6833 13.9905 24.7903C13.9373 25.0825 14.0854 25.4762 14.6995 25.585C15.3296 25.6921 15.5983 25.3048 15.6478 25.0361C15.6964 24.7605 15.5933 24.6043 15.3832 24.461C15.591 24.4077 15.702 24.263 15.7354 24.0797C15.7868 23.7853 15.5726 23.4793 15.081 23.3939ZM15.1824 24.9755C15.1558 25.1229 15.0072 25.2924 14.7627 25.2483C14.5486 25.212 14.4055 25.049 14.4431 24.8409C14.4839 24.6121 14.7008 24.5469 14.8728 24.5795C15.1342 24.6204 15.2113 24.8248 15.1824 24.9755ZM15.2952 24.0503C15.2677 24.2014 15.1241 24.2938 14.9388 24.2621C14.7366 24.2249 14.6398 24.0668 14.6614 23.9433C14.6898 23.7843 14.8389 23.6989 15.0503 23.7343C15.2002 23.7614 15.3241 23.8877 15.2952 24.0508V24.0503Z" fill="#E6DAFE"/>
<path d="M12.8159 23.1855L12.7517 23.1639L12.6609 23.4184L12.6641 23.4193L12.6191 23.5424L12.7067 23.5741C12.9379 23.6549 13.0956 23.6549 13.2011 23.6122L12.7251 24.9756L13.1791 25.1258L13.8798 23.123L13.4671 22.9824C13.435 23.0752 13.1594 23.2985 12.8154 23.1855H12.8159Z" fill="#E6DAFE"/>
</g>
<defs>
<clipPath id="clip0_6_4951">
<rect width="16.5686" height="26" fill="white" transform="translate(8 3)"/>
</clipPath>
</defs>
</svg>
