<svg width="32" height="32" viewBox="0 0 32 32" fill="none" xmlns="http://www.w3.org/2000/svg">
<path d="M16 28C14.3806 28 12.8092 27.6821 11.3288 27.0562C9.89982 26.4518 8.61653 25.5874 7.51539 24.4846C6.41424 23.3835 5.54823 22.1002 4.94384 20.6712C4.31792 19.1925 4 17.6194 4 16C4 14.3806 4.31792 12.8092 4.94384 11.3288C5.54823 9.89982 6.41258 8.61653 7.51539 7.51539C8.61653 6.41424 9.89982 5.54823 11.3288 4.94384C12.8075 4.31792 14.3789 4 16 4C17.6194 4 19.1908 4.31792 20.6712 4.94384C22.1002 5.54823 23.3835 6.41258 24.4846 7.51539C25.5858 8.61653 26.4518 9.89982 27.0562 11.3288C27.6821 12.8075 28 14.3789 28 16C28 17.6194 27.6821 19.1908 27.0562 20.6712C26.4518 22.1002 25.5874 23.3835 24.4846 24.4846C23.3835 25.5858 22.1002 26.4518 20.6712 27.0562C19.1908 27.6837 17.6194 28 16 28ZM16 4.56465C12.9449 4.56465 10.0737 5.75355 7.91279 7.91445C5.75355 10.0753 4.56299 12.9466 4.56299 16.0017C4.56299 19.0567 5.7519 21.928 7.91279 24.0889C10.072 26.2481 12.9449 27.4387 16 27.4387C19.0551 27.4387 21.9263 26.2498 24.0872 24.0889C26.2464 21.9296 27.437 19.0567 27.437 16.0017C27.437 12.9466 26.2481 10.0753 24.0872 7.91445C21.9263 5.75355 19.0551 4.56465 16 4.56465Z" fill="#E6DAFE"/>
<path d="M18.3532 16.7004C18.3532 20.4145 16.7818 21.3517 13.5959 22.9298C14.0049 23.203 14.5563 23.5292 15.4935 23.9746C17.9492 22.8122 20.322 21.2872 20.322 17.2237V8.64966H18.3532V16.7004ZM16.4837 8.64966H10.665V10.3519H14.5215V15.8046C14.5215 18.2967 14.3725 18.5268 11.1336 19.9873C11.3588 20.5569 11.685 21.115 12.1123 21.6183C15.7734 19.9873 16.4837 19.1445 16.4837 16.3212V8.64966Z" fill="#E6DAFE"/>
</svg>
