<svg width="32" height="32" viewBox="0 0 32 32" fill="none" xmlns="http://www.w3.org/2000/svg">
<path d="M12.2874 11.5649L18.4524 18.9174L20.3499 16.6424L26.2074 23.6424C27.551 21.8478 28.3977 19.7307 28.662 17.5045C28.9264 15.2783 28.5991 13.0218 27.7132 10.9625C26.8273 8.90314 25.4141 7.11378 23.616 5.77484C21.818 4.43591 19.6987 3.59472 17.4718 3.3361C15.245 3.07749 12.9893 3.41059 10.9323 4.30181C8.87522 5.19303 7.08952 6.61088 5.75523 8.41237C4.42093 10.2139 3.58522 12.3353 3.33235 14.5628C3.07948 16.7903 3.4184 19.0451 4.31493 21.0999L12.2874 11.5649ZM20.3549 8.34988C20.985 8.34938 21.601 8.53576 22.1251 8.88543C22.6492 9.2351 23.0578 9.73236 23.2993 10.3143C23.5407 10.8962 23.6041 11.5367 23.4815 12.1547C23.3589 12.7727 23.0558 13.3404 22.6105 13.7861C22.1651 14.2318 21.5976 14.5354 20.9797 14.6585C20.3618 14.7816 19.7213 14.7187 19.1392 14.4777C18.557 14.2367 18.0595 13.8285 17.7094 13.3046C17.3593 12.7808 17.1724 12.1649 17.1724 11.5349C17.1724 10.6906 17.5076 9.88086 18.1044 9.28362C18.7012 8.68639 19.5106 8.35054 20.3549 8.34988ZM12.2924 6.43487C12.6075 6.43488 12.9155 6.52834 13.1774 6.70343C13.4394 6.87853 13.6435 7.12739 13.7639 7.41853C13.8844 7.70967 13.9158 8.02999 13.8541 8.33898C13.7925 8.64796 13.6406 8.93171 13.4176 9.15433C13.1946 9.37694 12.9107 9.52842 12.6016 9.58958C12.2925 9.65074 11.9722 9.61885 11.6813 9.49793C11.3903 9.37702 11.1418 9.17252 10.9671 8.9103C10.7924 8.64809 10.6994 8.33995 10.6999 8.02487C10.7006 7.60295 10.8687 7.19853 11.1672 6.90042C11.4658 6.60231 11.8705 6.43487 12.2924 6.43487Z" fill="#E6DAFE"/>
<path d="M23.6349 26.2074C24.4488 25.5979 25.1881 24.8948 25.8374 24.1124H6.16243C6.81179 24.8948 7.55105 25.5979 8.36493 26.2074H23.6349Z" fill="#E6DAFE"/>
<path d="M9.03493 26.6749C11.1056 28.0287 13.5259 28.7498 15.9999 28.7498C18.4739 28.7498 20.8943 28.0287 22.9649 26.6749H9.03493Z" fill="#E6DAFE"/>
<path d="M25.5999 23.6424L20.3524 17.3674L20.3824 23.6424H25.5999Z" fill="#E6DAFE"/>
<path d="M18.1474 19.2824L12.2874 12.2824V21.1049H4.31743C4.70919 22.0055 5.20507 22.8571 5.79493 23.6424H14.5149L18.1474 19.2824Z" fill="#E6DAFE"/>
</svg>
