<svg width="32" height="32" viewBox="0 0 32 32" fill="none" xmlns="http://www.w3.org/2000/svg">
<path d="M22.9521 5.84497L18.1221 12.845C18.0607 12.9436 18.0356 13.0605 18.051 13.1756C18.0665 13.2907 18.1215 13.3968 18.2067 13.4758C18.2918 13.5547 18.4018 13.6016 18.5178 13.6083C18.6337 13.615 18.7484 13.5811 18.8421 13.5125L23.4996 9.74997V22L10.1271 5.89247C9.7224 5.40647 9.17784 5.05694 8.56746 4.89144C7.95709 4.72593 7.31055 4.75249 6.7158 4.96749C6.12106 5.1825 5.60699 5.57551 5.24354 6.09306C4.8801 6.61061 4.68492 7.22756 4.68457 7.85997V24.61C4.68457 27.335 7.93457 27.7825 8.95707 26.285L13.9571 19.0675C14.0114 18.9888 14.0389 18.8947 14.0353 18.7991C14.0317 18.7036 13.9972 18.6118 13.9371 18.5375C13.8633 18.4448 13.7559 18.3852 13.6383 18.3716C13.5207 18.358 13.4025 18.3916 13.3096 18.465L8.49957 22.2975V9.88747L21.8721 25.975C23.9746 28.445 27.3146 26.9575 27.3146 24.0075V7.24997C27.3146 4.73497 24.2496 3.99997 22.9521 5.84497Z" fill="#E6DAFE"/>
</svg>
