<svg width="32" height="32" viewBox="0 0 32 32" fill="none" xmlns="http://www.w3.org/2000/svg">
<path d="M15.1425 22.5H13.1425V17.895L5 11.7825V22.5H3V10.25C3 10.0179 3.06464 9.79031 3.18669 9.59284C3.30873 9.39537 3.48335 9.23578 3.69098 9.13197C3.89862 9.02815 4.13105 8.9842 4.36226 9.00505C4.59346 9.0259 4.81429 9.11072 5 9.25L14.75 16.5825C14.8745 16.6759 14.9755 16.7971 15.045 16.9364C15.1144 17.0757 15.1504 17.2293 15.15 17.385L15.1425 22.5Z" fill="#E6DAFE"/>
<path d="M29.61 22.5H27.61V11.7825L19.465 17.895V22.5H17.465V17.3925C17.4646 17.2368 17.5006 17.0832 17.57 16.9439C17.6395 16.8046 17.7405 16.6834 17.865 16.59L27.615 9.2575C27.8007 9.11822 28.0215 9.0334 28.2527 9.01255C28.4839 8.9917 28.7164 9.03565 28.924 9.13947C29.1316 9.24328 29.3063 9.40287 29.4283 9.60034C29.5504 9.79781 29.615 10.0254 29.615 10.2575L29.61 22.5Z" fill="#E6DAFE"/>
</svg>
