<svg width="32" height="32" viewBox="0 0 32 32" fill="none" xmlns="http://www.w3.org/2000/svg">
<path d="M21.3598 13.6083L20.8901 12.6843L15.9663 3L11.0426 12.6843L10.5728 13.6083L7 20.6357L7.76375 21.3485L15.9663 29L24.4311 21.8633L25.2192 21.1985L21.3598 13.6083ZM15.9663 5.21443L19.9852 13.1186L15.9663 15.0479L11.9474 13.1186L15.9663 5.21443ZM11.1002 18.4885L8.45511 19.9886L11.4776 14.0426L15.1745 15.8176L14.4093 20.7952L11.1002 18.4885ZM21.4647 19.1244L15.9663 20.3986L15.5098 20.5049L16.2485 16.062L20.455 14.0426L23.6127 20.2538L21.4647 19.1244Z" fill="#E6DAFE"/>
</svg>
