<svg width="32" height="32" viewBox="0 0 32 32" fill="none" xmlns="http://www.w3.org/2000/svg">
<g clip-path="url(#clip0_12399_28)">
<path d="M16 3C8.82021 3 3 8.82021 3 16C3 23.1798 8.82021 29 16 29C23.1798 29 29 23.1798 29 16C29 8.82021 23.1796 3 16 3ZM9.05173 18.0699C9.05173 18.1747 8.99702 18.2227 8.8968 18.2242C8.8132 18.2255 8.72961 18.2253 8.64602 18.2253C7.65691 18.2253 6.66758 18.2259 5.67847 18.2253C5.44389 18.2253 5.42397 18.2025 5.42441 17.9701C5.42529 17.3106 5.42441 16.6512 5.42441 15.9917V15.9908C5.42441 15.3315 5.42441 14.6719 5.42463 14.0124C5.42485 13.8154 5.45352 13.7883 5.65156 13.7883H8.77228C8.9677 13.7883 8.99439 13.815 8.99527 14.0148C8.99636 14.2362 8.88673 14.347 8.66615 14.3472C7.87224 14.3472 7.07789 14.3472 6.28397 14.3478C6.09009 14.3478 6.07083 14.3684 6.07083 14.566C6.07083 15.5273 6.07083 16.4886 6.07105 17.4502C6.07105 17.6421 6.09578 17.6675 6.28726 17.6679C6.92361 17.6686 7.55975 17.6686 8.1961 17.6679C8.3808 17.6679 8.41121 17.6355 8.41143 17.4476C8.41165 17.22 8.41056 16.9926 8.41231 16.7648C8.4134 16.6136 8.44885 16.5799 8.60378 16.5784C8.70576 16.5775 8.80817 16.5773 8.91014 16.5812C9.00468 16.5849 9.05238 16.6344 9.05195 16.7324C9.05085 17.1782 9.05129 17.6242 9.05195 18.0699H9.05173ZM8.68628 16.3366C8.1298 16.3377 7.5731 16.3374 7.01661 16.3366C6.82908 16.3363 6.79822 16.304 6.79647 16.1184C6.79428 15.8801 6.91398 15.7613 7.15601 15.7619C7.41576 15.7626 7.67551 15.7619 7.93526 15.7619V15.7613C8.23681 15.7615 8.53813 15.761 8.83968 15.7615C9.02065 15.7619 9.05085 15.7932 9.05173 15.9716C9.0537 16.3344 9.0537 16.3355 8.68628 16.3363V16.3366ZM14.0128 18.013C14.0122 18.1907 13.9789 18.2227 13.7997 18.2242C13.427 18.2281 13.4281 18.2281 13.4288 17.8502C13.4296 17.0655 13.4288 16.2808 13.4288 15.4965C13.4288 15.4687 13.4375 15.4363 13.4263 15.4138C13.4016 15.3634 13.3727 15.286 13.3344 15.2785C13.2865 15.2693 13.2071 15.305 13.1762 15.3468C12.9808 15.612 12.7952 15.8842 12.6068 16.1547C12.4184 16.425 12.2326 16.6972 12.0425 16.9661C11.9304 17.1248 11.8468 17.1228 11.733 16.9631C11.3564 16.4337 10.9811 15.9033 10.6052 15.3733C10.5595 15.3089 10.5194 15.2334 10.419 15.2641C10.3126 15.2967 10.3223 15.3855 10.3223 15.4698C10.3223 16.3007 10.3225 17.132 10.322 17.9629C10.322 18.2062 10.3034 18.2237 10.061 18.2248C10.0192 18.2248 9.97738 18.2248 9.93558 18.2237C9.77386 18.2187 9.74192 18.1863 9.7417 18.0233C9.74104 17.3454 9.7417 16.6679 9.7417 15.9899H9.74104L9.7417 15.9897C9.7417 15.3306 9.74148 14.6713 9.7417 14.0122C9.7417 13.8132 9.76927 13.8071 9.96665 13.7835C10.2227 13.7528 10.368 13.8581 10.5034 14.069C10.905 14.6931 11.3289 15.3032 11.7444 15.9186C11.8471 16.0707 11.9341 16.0696 12.0405 15.9155C12.5014 15.2468 12.9622 14.578 13.4231 13.9093C13.5029 13.7933 13.8434 13.725 13.9469 13.8187C13.9918 13.8592 14.0102 13.9485 14.0104 14.0157C14.0143 15.0509 14.0132 16.0864 14.0132 17.1219C14.0132 17.4189 14.0143 17.7163 14.0132 18.0134L14.0128 18.013ZM18.1502 18.0073C18.1502 18.1728 18.1016 18.2231 17.9349 18.2233C17.4287 18.2244 16.9224 18.2235 16.4162 18.2235V18.2242H16.416C15.919 18.2244 15.4221 18.2251 14.9253 18.2242C14.7216 18.224 14.6829 18.1776 14.6831 17.946C14.6833 17.7147 14.7229 17.6679 14.9251 17.6677C15.696 17.667 16.4668 17.6675 17.2377 17.667C17.4747 17.667 17.5158 17.6263 17.5158 17.395C17.5158 17.1165 17.5169 16.8377 17.5152 16.5591C17.5139 16.3694 17.4642 16.3206 17.2738 16.3206C16.4983 16.3199 15.7225 16.3206 14.9472 16.3206C14.7295 16.3206 14.6835 16.2755 14.6833 16.0619C14.6826 15.3932 14.6824 14.7244 14.6824 14.0557C14.6824 13.8294 14.724 13.7885 14.9505 13.7885C15.9256 13.7885 16.9011 13.7879 17.8762 13.7879C18.0811 13.7879 18.1198 13.8268 18.1218 14.0314C18.122 14.064 18.1229 14.0964 18.1218 14.129C18.1174 14.2951 18.0701 14.345 17.904 14.3461C17.5605 14.3483 17.2167 14.3467 16.8731 14.3467C16.432 14.3467 15.9908 14.3461 15.5496 14.3474C15.3737 14.3476 15.3284 14.3934 15.3278 14.5708C15.3267 14.8912 15.3269 15.2118 15.3284 15.5321C15.3293 15.702 15.3715 15.7451 15.5453 15.7453C16.3254 15.7466 17.1057 15.7459 17.8857 15.7464C18.1119 15.7464 18.1502 15.7858 18.1504 16.0151C18.1504 16.679 18.1504 17.3434 18.1502 18.0075V18.0073ZM20.1619 18.2242C19.7952 18.2244 19.4284 18.2251 19.0616 18.2242C18.8741 18.2235 18.822 18.1734 18.8214 17.9826C18.8196 17.3233 18.8207 16.6639 18.8207 16.005H18.8196V14.0693C18.8196 13.8305 18.8643 13.7872 19.1052 13.7872C19.5089 13.7872 19.9129 13.7872 20.3166 13.7883C20.4838 13.7885 20.509 13.8146 20.5105 13.982C20.5129 14.2251 20.3915 14.3467 20.1459 14.3467C20.0022 14.3467 19.858 14.3461 19.7142 14.3467C19.4949 14.3474 19.4516 14.3903 19.452 14.6045C19.452 15.0177 19.4523 15.431 19.4523 15.844C19.4523 16.3591 19.4516 16.8747 19.452 17.39C19.452 17.6281 19.4908 17.6673 19.7232 17.6675C19.9184 17.6675 20.1131 17.6664 20.3081 17.6677C20.4692 17.6688 20.5068 17.7058 20.5112 17.862C20.521 18.2106 20.5083 18.224 20.1615 18.2242H20.1619ZM22.3787 16.0024H22.3784V17.9664C22.3784 18.1852 22.3375 18.2251 22.1174 18.2246C21.7272 18.2244 21.3372 18.2253 20.9471 18.2235C20.7538 18.2226 20.7094 18.1763 20.7086 17.9852C20.7086 17.9386 20.7077 17.8924 20.7086 17.8458C20.7103 17.7274 20.7679 17.6664 20.8895 17.6668C21.0985 17.6679 21.3073 17.6675 21.5163 17.6666C21.7007 17.6657 21.7524 17.6189 21.7526 17.4392C21.7541 16.4873 21.7543 15.5354 21.7532 14.5835C21.7532 14.3899 21.7082 14.3483 21.513 14.3472C21.3086 14.3459 21.1044 14.3481 20.9 14.3463C20.7543 14.345 20.7094 14.3008 20.7092 14.1537C20.7086 13.7712 20.6724 13.785 21.065 13.7876C21.4178 13.7898 21.7707 13.7876 22.1237 13.7883C22.3366 13.7883 22.3789 13.8299 22.3789 14.038V16.0022L22.3787 16.0024ZM26.3568 18.222C25.3302 18.2253 24.3039 18.2248 23.2772 18.224C23.0969 18.224 23.0472 18.1723 23.0472 17.9907C23.0472 17.3311 23.0472 16.6716 23.0472 16.012H23.0478C23.0478 15.3573 23.0478 14.7021 23.0481 14.0472C23.0481 13.8288 23.0888 13.7889 23.308 13.7883C23.5748 13.7876 23.708 13.9196 23.7078 14.1842C23.7078 15.2617 23.7078 16.3396 23.7083 17.4171C23.7083 17.6309 23.7448 17.667 23.9599 17.667C24.7495 17.6677 25.5392 17.667 26.3287 17.667C26.422 17.667 26.5463 17.6528 26.5653 17.7611C26.5881 17.8916 26.5686 18.0336 26.5406 18.1649C26.5338 18.1964 26.4207 18.2216 26.3563 18.2218L26.3568 18.222Z" fill="#E6DAFE"/>
</g>
<defs>
<clipPath id="clip0_12399_28">
<rect width="26" height="26" fill="white" transform="translate(3 3)"/>
</clipPath>
</defs>
</svg>
