<?xml version="1.0" encoding="UTF-8"?>
<!DOCTYPE svg PUBLIC "-//W3C//DTD SVG 1.1//EN" "http://www.w3.org/Graphics/SVG/1.1/DTD/svg11.dtd">
<svg xmlns="http://www.w3.org/2000/svg" version="1.1" width="64px" height="64px" style="shape-rendering:geometricPrecision; text-rendering:geometricPrecision; image-rendering:optimizeQuality; fill-rule:evenodd; clip-rule:evenodd" xmlns:xlink="http://www.w3.org/1999/xlink">
<g><path style="opacity:1" fill="#7d615d" d="M 20.5,-0.5 C 25.8333,-0.5 31.1667,-0.5 36.5,-0.5C 33.237,1.56823 29.5704,2.56823 25.5,2.5C 23.8869,1.30766 22.2202,0.307663 20.5,-0.5 Z"/></g>
<g><path style="opacity:1" fill="#827d6e" d="M 42.5,-0.5 C 49.5,-0.5 56.5,-0.5 63.5,-0.5C 63.5,9.5 63.5,19.5 63.5,29.5C 59.7987,29.8678 57.7987,31.8678 57.5,35.5C 55.8333,34.5 54.5,33.1667 53.5,31.5C 53.5,30.1667 53.5,28.8333 53.5,27.5C 56.5,27.5 59.5,27.5 62.5,27.5C 62.5,19.1667 62.5,10.8333 62.5,2.5C 56.1667,2.5 49.8333,2.5 43.5,2.5C 42.8902,1.60895 42.5569,0.608953 42.5,-0.5 Z"/></g>
<g><path style="opacity:1" fill="#aa8e68" d="M -0.5,-0.5 C 6.16667,-0.5 12.8333,-0.5 19.5,-0.5C 18.8902,0.391047 18.5569,1.39105 18.5,2.5C 15.1667,2.5 11.8333,2.5 8.5,2.5C 8.5,10.5 8.5,18.5 8.5,26.5C 8.16667,26.5 7.83333,26.5 7.5,26.5C 7.5,20.1667 7.5,13.8333 7.5,7.5C 4.48674,7.1072 1.82007,7.77386 -0.5,9.5C -0.5,6.16667 -0.5,2.83333 -0.5,-0.5 Z"/></g>
<g><path style="opacity:1" fill="#2a242d" d="M 36.5,-0.5 C 38.5,-0.5 40.5,-0.5 42.5,-0.5C 42.5569,0.608953 42.8902,1.60895 43.5,2.5C 43.3284,3.49162 43.6618,4.15829 44.5,4.5C 44.5,6.16667 44.5,7.83333 44.5,9.5C 42.39,8.5475 41.2233,6.88083 41,4.5C 40.51,5.79323 40.3433,7.12656 40.5,8.5C 40.5,10.1667 40.5,11.8333 40.5,13.5C 39.4474,18.8055 38.9474,24.1388 39,29.5C 39.3826,28.944 39.8826,28.6107 40.5,28.5C 40.7497,30.674 41.7497,32.3406 43.5,33.5C 43.8333,34.5 44.5,35.1667 45.5,35.5C 45.3932,37.3786 45.8932,37.7119 47,36.5C 47.5,37 48,37.5 48.5,38C 47.1031,39.3103 46.1031,40.8103 45.5,42.5C 45.5674,41.0413 45.2341,39.7079 44.5,38.5C 43.0484,37.6981 41.3817,37.1981 39.5,37C 40.5,36.6667 41.5,36.3333 42.5,36C 40.9588,34.4207 39.7922,32.5873 39,30.5C 38.6667,32.1667 38.3333,33.8333 38,35.5C 37.5172,34.552 37.3505,33.552 37.5,32.5C 37.0728,28.1756 36.7395,23.8422 36.5,19.5C 37.1408,18.5178 37.8075,17.5178 38.5,16.5C 37.1667,15.1667 37.1667,13.8333 38.5,12.5C 37.0642,11.0663 35.3975,9.89961 33.5,9C 34.8333,8.66667 36.1667,8.33333 37.5,8C 35.9512,6.78602 34.7845,5.28602 34,3.5C 33.5571,7.44525 31.3904,9.44525 27.5,9.5C 26.1779,9.33003 25.0113,9.66337 24,10.5C 23.5172,9.55198 23.3505,8.55198 23.5,7.5C 25.1033,7.68819 26.4366,7.18819 27.5,6C 26.1772,5.18405 25.5106,4.01739 25.5,2.5C 29.5704,2.56823 33.237,1.56823 36.5,-0.5 Z"/></g>
<g><path style="opacity:1" fill="#22202a" d="M 19.5,-0.5 C 19.8333,-0.5 20.1667,-0.5 20.5,-0.5C 22.2202,0.307663 23.8869,1.30766 25.5,2.5C 25.5106,4.01739 26.1772,5.18405 27.5,6C 26.4366,7.18819 25.1033,7.68819 23.5,7.5C 23.3505,8.55198 23.5172,9.55198 24,10.5C 25.0113,9.66337 26.1779,9.33003 27.5,9.5C 27.2504,10.9221 26.417,11.9221 25,12.5C 24.2303,11.4019 23.397,11.4019 22.5,12.5C 21.5,12.5 20.5,12.5 19.5,12.5C 19.196,15.5219 18.696,18.5219 18,21.5C 17.6174,22.056 17.1174,22.3893 16.5,22.5C 16.6567,21.1266 16.49,19.7932 16,18.5C 15.6174,19.056 15.1174,19.3893 14.5,19.5C 15.4897,16.8495 16.4897,14.1828 17.5,11.5C 17.3333,10.8333 17.1667,10.1667 17,9.5C 16.7216,10.4158 16.2216,11.0825 15.5,11.5C 16.2163,8.40178 17.2163,5.40178 18.5,2.5C 18.5569,1.39105 18.8902,0.391047 19.5,-0.5 Z"/></g>
<g><path style="opacity:1" fill="#5d7875" d="M 44.5,4.5 C 49.5,4.5 54.5,4.5 59.5,4.5C 59.5,7.16667 59.5,9.83333 59.5,12.5C 56.1667,12.5 52.8333,12.5 49.5,12.5C 48.391,12.5569 47.391,12.8902 46.5,13.5C 46.0113,12.0048 45.3446,10.6715 44.5,9.5C 44.5,7.83333 44.5,6.16667 44.5,4.5 Z"/></g>
<g><path style="opacity:1" fill="#63706b" d="M 18.5,2.5 C 17.2163,5.40178 16.2163,8.40178 15.5,11.5C 15.631,12.2389 15.4643,12.9056 15,13.5C 13.5993,11.8078 11.7659,11.1412 9.5,11.5C 8.91057,15.9707 9.57723,19.9707 11.5,23.5C 12.3092,25.0276 12.9759,26.6943 13.5,28.5C 13.5,29.1667 13.1667,29.5 12.5,29.5C 11.4863,28.3263 10.153,27.6596 8.5,27.5C 8.5,27.1667 8.5,26.8333 8.5,26.5C 8.5,18.5 8.5,10.5 8.5,2.5C 11.8333,2.5 15.1667,2.5 18.5,2.5 Z"/></g>
<g><path style="opacity:1" fill="#bd7e6c" d="M 40.5,8.5 C 42.9224,10.0478 42.9224,11.7145 40.5,13.5C 40.5,11.8333 40.5,10.1667 40.5,8.5 Z"/></g>
<g><path style="opacity:1" fill="#e7c084" d="M 7.5,26.5 C 6.76589,27.7079 6.43255,29.0413 6.5,30.5C 4.82124,30.7148 3.82124,30.0481 3.5,28.5C 3.5,27.1667 3.5,25.8333 3.5,24.5C 4.40397,23.791 4.73731,22.791 4.5,21.5C 2.83333,21.5 1.16667,21.5 -0.5,21.5C -0.5,17.5 -0.5,13.5 -0.5,9.5C 1.82007,7.77386 4.48674,7.1072 7.5,7.5C 7.5,13.8333 7.5,20.1667 7.5,26.5 Z"/></g>
<g><path style="opacity:1" fill="#90a6aa" d="M 49.5,12.5 C 49.154,15.6021 49.8207,18.4355 51.5,21C 50.244,21.4169 49.5774,22.2502 49.5,23.5C 49.1667,23.5 48.8333,23.5 48.5,23.5C 48.0761,20.646 47.0761,17.9793 45.5,15.5C 45.8627,14.8165 46.1961,14.1499 46.5,13.5C 47.391,12.8902 48.391,12.5569 49.5,12.5 Z"/></g>
<g><path style="opacity:1" fill="#d2eced" d="M 49.5,12.5 C 52.8333,12.5 56.1667,12.5 59.5,12.5C 60.4861,16.97 60.8195,21.6367 60.5,26.5C 57.6062,26.9577 55.1062,26.291 53,24.5C 52.2904,25.9733 51.1238,26.6399 49.5,26.5C 49.5,25.5 49.5,24.5 49.5,23.5C 49.5774,22.2502 50.244,21.4169 51.5,21C 49.8207,18.4355 49.154,15.6021 49.5,12.5 Z"/></g>
<g><path style="opacity:1" fill="#c28772" d="M 36.5,19.5 C 35.1434,20.6854 33.6434,21.6854 32,22.5C 30.8615,22.0109 29.6948,21.6775 28.5,21.5C 26.7299,20.236 25.0632,18.736 23.5,17C 23.8333,16.6667 24.1667,16.3333 24.5,16C 23.1772,15.1841 22.5106,14.0174 22.5,12.5C 23.397,11.4019 24.2303,11.4019 25,12.5C 26.417,11.9221 27.2504,10.9221 27.5,9.5C 31.3904,9.44525 33.5571,7.44525 34,3.5C 34.7845,5.28602 35.9512,6.78602 37.5,8C 36.1667,8.33333 34.8333,8.66667 33.5,9C 35.3975,9.89961 37.0642,11.0663 38.5,12.5C 37.1667,13.8333 37.1667,15.1667 38.5,16.5C 37.8075,17.5178 37.1408,18.5178 36.5,19.5 Z"/></g>
<g><path style="opacity:1" fill="#c7e2e2" d="M 14.5,19.5 C 13.7784,19.0825 13.2784,18.4158 13,17.5C 12.4954,19.5183 11.9954,21.5183 11.5,23.5C 9.57723,19.9707 8.91057,15.9707 9.5,11.5C 11.7659,11.1412 13.5993,11.8078 15,13.5C 15.4643,12.9056 15.631,12.2389 15.5,11.5C 16.2216,11.0825 16.7216,10.4158 17,9.5C 17.1667,10.1667 17.3333,10.8333 17.5,11.5C 16.4897,14.1828 15.4897,16.8495 14.5,19.5 Z"/></g>
<g><path style="opacity:1" fill="#131823" d="M 44.5,9.5 C 45.3446,10.6715 46.0113,12.0048 46.5,13.5C 46.1961,14.1499 45.8627,14.8165 45.5,15.5C 47.0761,17.9793 48.0761,20.646 48.5,23.5C 47.4415,22.3998 46.6082,21.0664 46,19.5C 45.8333,20 45.6667,20.5 45.5,21C 46.8713,23.3187 47.5379,25.8187 47.5,28.5C 44.8563,28.2847 42.523,28.2847 40.5,28.5C 39.8826,28.6107 39.3826,28.944 39,29.5C 38.9474,24.1388 39.4474,18.8055 40.5,13.5C 42.9224,11.7145 42.9224,10.0478 40.5,8.5C 40.3433,7.12656 40.51,5.79323 41,4.5C 41.2233,6.88083 42.39,8.5475 44.5,9.5 Z"/></g>
<g><path style="opacity:1" fill="#fcde63" d="M -0.5,21.5 C 1.16667,21.5 2.83333,21.5 4.5,21.5C 4.73731,22.791 4.40397,23.791 3.5,24.5C 2.16667,24.5 0.833333,24.5 -0.5,24.5C -0.5,23.5 -0.5,22.5 -0.5,21.5 Z"/></g>
<g><path style="opacity:1" fill="#c39c6d" d="M -0.5,24.5 C 0.833333,24.5 2.16667,24.5 3.5,24.5C 3.5,25.8333 3.5,27.1667 3.5,28.5C 2.54885,29.9187 2.21552,31.5853 2.5,33.5C 3.55198,33.3505 4.55198,33.5172 5.5,34C 3.65472,35.128 1.65472,35.628 -0.5,35.5C -0.5,31.8333 -0.5,28.1667 -0.5,24.5 Z"/></g>
<g><path style="opacity:1" fill="#1e1e28" d="M 22.5,12.5 C 22.5106,14.0174 23.1772,15.1841 24.5,16C 24.1667,16.3333 23.8333,16.6667 23.5,17C 25.0632,18.736 26.7299,20.236 28.5,21.5C 28.5,23.5 28.5,25.5 28.5,27.5C 27.209,27.2627 26.209,27.596 25.5,28.5C 24.2616,30.2143 23.595,32.2143 23.5,34.5C 22.4897,37.3301 20.8231,39.8301 18.5,42C 19.056,42.3826 19.3893,42.8826 19.5,43.5C 18.391,43.4431 17.391,43.1098 16.5,42.5C 14.7711,38.9368 15.6044,35.9368 19,33.5C 19.4955,31.5273 19.6621,29.5273 19.5,27.5C 18.5,27.5 17.5,27.5 16.5,27.5C 15.391,27.5569 14.391,27.8902 13.5,28.5C 12.9759,26.6943 12.3092,25.0276 11.5,23.5C 11.9954,21.5183 12.4954,19.5183 13,17.5C 13.2784,18.4158 13.7784,19.0825 14.5,19.5C 13.0374,21.5983 13.2041,23.5983 15,25.5C 15.5133,24.4734 16.0133,23.4734 16.5,22.5C 17.1174,22.3893 17.6174,22.056 18,21.5C 18.696,18.5219 19.196,15.5219 19.5,12.5C 20.5,12.5 21.5,12.5 22.5,12.5 Z"/></g>
<g><path style="opacity:1" fill="#c6ddde" d="M 16.5,22.5 C 16.0133,23.4734 15.5133,24.4734 15,25.5C 13.2041,23.5983 13.0374,21.5983 14.5,19.5C 15.1174,19.3893 15.6174,19.056 16,18.5C 16.49,19.7932 16.6567,21.1266 16.5,22.5 Z"/></g>
<g><path style="opacity:1" fill="#b07260" d="M 36.5,19.5 C 36.7395,23.8422 37.0728,28.1756 37.5,32.5C 32.1745,34.7098 28.1745,33.3764 25.5,28.5C 26.209,27.596 27.209,27.2627 28.5,27.5C 28.5,25.5 28.5,23.5 28.5,21.5C 29.6948,21.6775 30.8615,22.0109 32,22.5C 33.6434,21.6854 35.1434,20.6854 36.5,19.5 Z"/></g>
<g><path style="opacity:1" fill="#4a5f65" d="M 43.5,2.5 C 49.8333,2.5 56.1667,2.5 62.5,2.5C 62.5,10.8333 62.5,19.1667 62.5,27.5C 59.5,27.5 56.5,27.5 53.5,27.5C 53.5,28.8333 53.5,30.1667 53.5,31.5C 52.078,30.075 50.4113,29.075 48.5,28.5C 48.1667,28.5 47.8333,28.5 47.5,28.5C 47.5379,25.8187 46.8713,23.3187 45.5,21C 45.6667,20.5 45.8333,20 46,19.5C 46.6082,21.0664 47.4415,22.3998 48.5,23.5C 48.8333,23.5 49.1667,23.5 49.5,23.5C 49.5,24.5 49.5,25.5 49.5,26.5C 51.1238,26.6399 52.2904,25.9733 53,24.5C 55.1062,26.291 57.6062,26.9577 60.5,26.5C 60.8195,21.6367 60.4861,16.97 59.5,12.5C 59.5,9.83333 59.5,7.16667 59.5,4.5C 54.5,4.5 49.5,4.5 44.5,4.5C 43.6618,4.15829 43.3284,3.49162 43.5,2.5 Z"/></g>
<g><path style="opacity:1" fill="#dbbd8e" d="M 8.5,27.5 C 10.153,27.6596 11.4863,28.3263 12.5,29.5C 11.1667,31.5 9.5,33.1667 7.5,34.5C 7.29803,32.0504 7.63137,29.717 8.5,27.5 Z"/></g>
<g><path style="opacity:1" fill="#8e350f" d="M 47.5,28.5 C 47.8333,28.5 48.1667,28.5 48.5,28.5C 46.614,29.9301 44.9473,31.5968 43.5,33.5C 41.7497,32.3406 40.7497,30.674 40.5,28.5C 42.523,28.2847 44.8563,28.2847 47.5,28.5 Z"/></g>
<g><path style="opacity:1" fill="#5c4838" d="M 63.5,29.5 C 63.5,34.1667 63.5,38.8333 63.5,43.5C 63.1667,43.5 62.8333,43.5 62.5,43.5C 62.2671,41.9382 61.6005,40.6049 60.5,39.5C 59.5,38.1667 58.5,36.8333 57.5,35.5C 57.7987,31.8678 59.7987,29.8678 63.5,29.5 Z"/></g>
<g><path style="opacity:1" fill="#8e3611" d="M 25.5,28.5 C 28.1745,33.3764 32.1745,34.7098 37.5,32.5C 37.3505,33.552 37.5172,34.552 38,35.5C 38.3333,33.8333 38.6667,32.1667 39,30.5C 39.7922,32.5873 40.9588,34.4207 42.5,36C 41.5,36.3333 40.5,36.6667 39.5,37C 41.3817,37.1981 43.0484,37.6981 44.5,38.5C 42.0799,38.7076 39.7466,38.3742 37.5,37.5C 35.5808,38.6125 33.9142,39.9458 32.5,41.5C 30.0968,41.607 28.2635,40.607 27,38.5C 26.7216,39.4158 26.2216,40.0825 25.5,40.5C 25.9465,37.9899 25.2798,35.9899 23.5,34.5C 23.595,32.2143 24.2616,30.2143 25.5,28.5 Z"/></g>
<g><path style="opacity:1" fill="#eb7913" d="M 48.5,28.5 C 50.4113,29.075 52.078,30.075 53.5,31.5C 54.5,33.1667 55.8333,34.5 57.5,35.5C 58.5,36.8333 59.5,38.1667 60.5,39.5C 59.2719,40.3065 58.2719,41.3065 57.5,42.5C 55.3399,40.6747 53.8399,38.3413 53,35.5C 52.6667,36.1667 52.3333,36.8333 52,37.5C 51.3848,35.8839 50.3848,34.5505 49,33.5C 48.2904,34.9733 47.1238,35.6399 45.5,35.5C 44.5,35.1667 43.8333,34.5 43.5,33.5C 44.9473,31.5968 46.614,29.9301 48.5,28.5 Z"/></g>
<g><path style="opacity:1" fill="#ee7d13" d="M 16.5,27.5 C 17.8565,29.4988 17.1899,30.6655 14.5,31C 15.7836,32.2975 15.6169,33.4642 14,34.5C 13.6667,33.8333 13.3333,33.1667 13,32.5C 11.3909,35.4068 9.55755,38.0734 7.5,40.5C 6.5,39.8333 5.5,39.1667 4.5,38.5C 5.5,37.1667 6.5,35.8333 7.5,34.5C 9.5,33.1667 11.1667,31.5 12.5,29.5C 13.1667,29.5 13.5,29.1667 13.5,28.5C 14.391,27.8902 15.391,27.5569 16.5,27.5 Z"/></g>
<g><path style="opacity:1" fill="#30272e" d="M 23.5,34.5 C 25.2798,35.9899 25.9465,37.9899 25.5,40.5C 24.5007,39.3068 23.834,37.3068 23.5,34.5 Z"/></g>
<g><path style="opacity:1" fill="#3d312f" d="M 7.5,26.5 C 7.83333,26.5 8.16667,26.5 8.5,26.5C 8.5,26.8333 8.5,27.1667 8.5,27.5C 7.63137,29.717 7.29803,32.0504 7.5,34.5C 6.5,35.8333 5.5,37.1667 4.5,38.5C 4.16667,39.1667 3.83333,39.8333 3.5,40.5C 2.16667,41.8333 0.833333,43.1667 -0.5,44.5C -0.5,41.5 -0.5,38.5 -0.5,35.5C 1.65472,35.628 3.65472,35.128 5.5,34C 4.55198,33.5172 3.55198,33.3505 2.5,33.5C 2.21552,31.5853 2.54885,29.9187 3.5,28.5C 3.82124,30.0481 4.82124,30.7148 6.5,30.5C 6.43255,29.0413 6.76589,27.7079 7.5,26.5 Z"/></g>
<g><path style="opacity:1" fill="#b85110" d="M 19.5,35.5 C 20.3345,37.2632 19.8345,38.9299 18,40.5C 17.8782,38.7184 18.3782,37.0518 19.5,35.5 Z"/></g>
<g><path style="opacity:1" fill="#f18418" d="M 44.5,38.5 C 45.2341,39.7079 45.5674,41.0413 45.5,42.5C 46.1098,43.391 46.4431,44.391 46.5,45.5C 44.8008,45.3398 43.1341,45.5065 41.5,46C 45.0933,46.664 45.0933,47.8307 41.5,49.5C 41.1578,46.6448 39.4912,45.1448 36.5,45C 37.6226,43.9563 38.9559,43.2896 40.5,43C 39.3181,41.2317 37.9848,41.0651 36.5,42.5C 35.2921,41.7659 33.9587,41.4326 32.5,41.5C 33.9142,39.9458 35.5808,38.6125 37.5,37.5C 39.7466,38.3742 42.0799,38.7076 44.5,38.5 Z"/></g>
<g><path style="opacity:1" fill="#e57e1f" d="M 23.5,34.5 C 23.834,37.3068 24.5007,39.3068 25.5,40.5C 26.2216,40.0825 26.7216,39.4158 27,38.5C 28.2635,40.607 30.0968,41.607 32.5,41.5C 33.9587,41.4326 35.2921,41.7659 36.5,42.5C 33.9967,44.8028 33.33,47.4695 34.5,50.5C 33.8333,50.5 33.1667,50.5 32.5,50.5C 32.5751,47.7938 32.9084,45.1272 33.5,42.5C 32.0222,42.238 30.6888,42.5713 29.5,43.5C 30.3482,45.4086 30.6816,47.4086 30.5,49.5C 29.5,49.5 28.5,49.5 27.5,49.5C 28.0522,47.6693 28.0522,46.0026 27.5,44.5C 26.0499,45.8498 25.3832,47.5165 25.5,49.5C 25.1667,49.5 24.8333,49.5 24.5,49.5C 24.5,47.5 24.5,45.5 24.5,43.5C 22.8333,43.5 21.1667,43.5 19.5,43.5C 19.3893,42.8826 19.056,42.3826 18.5,42C 20.8231,39.8301 22.4897,37.3301 23.5,34.5 Z"/></g>
<g><path style="opacity:1" fill="#f7f0d6" d="M 26.5,41.5 C 28.337,41.6395 28.6704,42.3061 27.5,43.5C 26.7025,43.0431 26.3691,42.3764 26.5,41.5 Z"/></g>
<g><path style="opacity:1" fill="#e9e2d4" d="M 32.5,50.5 C 31.3774,51.7574 30.7107,51.4241 30.5,49.5C 30.6816,47.4086 30.3482,45.4086 29.5,43.5C 30.6888,42.5713 32.0222,42.238 33.5,42.5C 32.9084,45.1272 32.5751,47.7938 32.5,50.5 Z"/></g>
<g><path style="opacity:1" fill="#943810" d="M 57.5,42.5 C 56.8333,44.1667 56.1667,45.8333 55.5,47.5C 55.5,48.1667 55.1667,48.5 54.5,48.5C 52.3718,47.0427 50.0384,46.0427 47.5,45.5C 47.1667,45.5 46.8333,45.5 46.5,45.5C 46.4431,44.391 46.1098,43.391 45.5,42.5C 46.1031,40.8103 47.1031,39.3103 48.5,38C 48,37.5 47.5,37 47,36.5C 45.8932,37.7119 45.3932,37.3786 45.5,35.5C 47.1238,35.6399 48.2904,34.9733 49,33.5C 50.3848,34.5505 51.3848,35.8839 52,37.5C 52.3333,36.8333 52.6667,36.1667 53,35.5C 53.8399,38.3413 55.3399,40.6747 57.5,42.5 Z"/></g>
<g><path style="opacity:1" fill="#eab999" d="M 3.5,40.5 C 6.22112,43.4657 5.55445,45.799 1.5,47.5C 0.830151,49.2914 0.163485,50.9581 -0.5,52.5C -0.5,49.8333 -0.5,47.1667 -0.5,44.5C 0.833333,43.1667 2.16667,41.8333 3.5,40.5 Z"/></g>
<g><path style="opacity:1" fill="#f38f24" d="M 16.5,42.5 C 17.391,43.1098 18.391,43.4431 19.5,43.5C 23.568,45.2103 23.2347,46.3769 18.5,47C 17.7476,47.6708 17.4142,48.5041 17.5,49.5C 15.5,49.5 14.5,48.5 14.5,46.5C 15.1667,45.1667 15.8333,43.8333 16.5,42.5 Z"/></g>
<g><path style="opacity:1" fill="#f1eadb" d="M 46.5,45.5 C 46.4894,47.0174 45.8228,48.1841 44.5,49C 46.1193,49.2355 47.1193,50.0689 47.5,51.5C 44.9179,51.9746 42.9179,51.3079 41.5,49.5C 45.0933,47.8307 45.0933,46.664 41.5,46C 43.1341,45.5065 44.8008,45.3398 46.5,45.5 Z"/></g>
<g><path style="opacity:1" fill="#f3c7a5" d="M 62.5,43.5 C 62.8333,43.5 63.1667,43.5 63.5,43.5C 63.5,45.5 63.5,47.5 63.5,49.5C 61.8546,48.5213 60.5213,47.188 59.5,45.5C 60.0047,44.0815 61.0047,43.4148 62.5,43.5 Z"/></g>
<g><path style="opacity:1" fill="#f2ebdf" d="M 19.5,43.5 C 21.1667,43.5 22.8333,43.5 24.5,43.5C 24.5,45.5 24.5,47.5 24.5,49.5C 24.6309,50.3764 24.2975,51.0431 23.5,51.5C 21.3432,50.9495 19.3432,50.2829 17.5,49.5C 17.4142,48.5041 17.7476,47.6708 18.5,47C 23.2347,46.3769 23.568,45.2103 19.5,43.5 Z"/></g>
<g><path style="opacity:1" fill="#e7decf" d="M 27.5,49.5 C 27.6716,50.4916 27.3382,51.1583 26.5,51.5C 25.6618,51.1583 25.3284,50.4916 25.5,49.5C 25.3832,47.5165 26.0499,45.8498 27.5,44.5C 28.0522,46.0026 28.0522,47.6693 27.5,49.5 Z"/></g>
<g><path style="opacity:1" fill="#f3ead7" d="M 41.5,49.5 C 39.5214,51.1675 37.188,51.8342 34.5,51.5C 34.5,51.1667 34.5,50.8333 34.5,50.5C 33.33,47.4695 33.9967,44.8028 36.5,42.5C 37.9848,41.0651 39.3181,41.2317 40.5,43C 38.9559,43.2896 37.6226,43.9563 36.5,45C 39.4912,45.1448 41.1578,46.6448 41.5,49.5 Z"/></g>
<g><path style="opacity:1" fill="#f98915" d="M 36.5,46.5 C 38.4646,46.9483 38.7979,47.9483 37.5,49.5C 36.6143,48.675 36.281,47.675 36.5,46.5 Z"/></g>
<g><path style="opacity:1" fill="#db6d12" d="M 46.5,45.5 C 46.8333,45.5 47.1667,45.5 47.5,45.5C 48.1098,46.391 48.4431,47.391 48.5,48.5C 48.7373,49.791 48.404,50.791 47.5,51.5C 47.1193,50.0689 46.1193,49.2355 44.5,49C 45.8228,48.1841 46.4894,47.0174 46.5,45.5 Z"/></g>
<g><path style="opacity:1" fill="#f88718" d="M 19.5,47.5 C 22.7973,47.3287 23.1306,47.9954 20.5,49.5C 19.7025,49.0431 19.3691,48.3764 19.5,47.5 Z"/></g>
<g><path style="opacity:1" fill="#1b2433" d="M 47.5,45.5 C 50.0384,46.0427 52.3718,47.0427 54.5,48.5C 55.0289,50.5834 56.0289,52.4167 57.5,54C 56.5868,55.4139 56.5868,56.9139 57.5,58.5C 56.2485,60.0009 55.2485,61.6675 54.5,63.5C 54.1667,63.5 53.8333,63.5 53.5,63.5C 54.97,58.9764 54.47,54.6431 52,50.5C 52.4645,54.9083 52.6312,59.2416 52.5,63.5C 49.8333,63.5 47.1667,63.5 44.5,63.5C 45.3556,60.7995 46.8556,58.4662 49,56.5C 49.8007,53.633 49.6341,50.9664 48.5,48.5C 48.4431,47.391 48.1098,46.391 47.5,45.5 Z"/></g>
<g><path style="opacity:1" fill="#c35a13" d="M 14.5,46.5 C 14.5,48.5 15.5,49.5 17.5,49.5C 19.3432,50.2829 21.3432,50.9495 23.5,51.5C 24.2975,51.0431 24.6309,50.3764 24.5,49.5C 24.8333,49.5 25.1667,49.5 25.5,49.5C 25.3284,50.4916 25.6618,51.1583 26.5,51.5C 26.1961,52.1499 25.8627,52.8165 25.5,53.5C 21.134,55.2616 17.3007,54.5949 14,51.5C 13.2204,49.6131 13.3871,47.9464 14.5,46.5 Z"/></g>
<g><path style="opacity:1" fill="#94a29f" d="M 55.5,47.5 C 57.4807,49.1436 59.4807,50.8103 61.5,52.5C 60.1433,54.5654 58.81,56.5654 57.5,58.5C 56.5868,56.9139 56.5868,55.4139 57.5,54C 56.0289,52.4167 55.0289,50.5834 54.5,48.5C 55.1667,48.5 55.5,48.1667 55.5,47.5 Z"/></g>
<g><path style="opacity:1" fill="#ab7966" d="M 4.5,38.5 C 5.5,39.1667 6.5,39.8333 7.5,40.5C 8.56855,42.9687 9.90189,45.3021 11.5,47.5C 10.6715,48.3324 9.83816,47.999 9,46.5C 3.42887,50.787 3.09553,55.4536 8,60.5C 8.33333,58.1667 8.66667,55.8333 9,53.5C 9.45518,56.8536 9.95518,60.1869 10.5,63.5C 6.83333,63.5 3.16667,63.5 -0.5,63.5C -0.5,59.8333 -0.5,56.1667 -0.5,52.5C 0.163485,50.9581 0.830151,49.2914 1.5,47.5C 5.55445,45.799 6.22112,43.4657 3.5,40.5C 3.83333,39.8333 4.16667,39.1667 4.5,38.5 Z"/></g>
<g><path style="opacity:1" fill="#953911" d="M 16.5,27.5 C 17.5,27.5 18.5,27.5 19.5,27.5C 19.6621,29.5273 19.4955,31.5273 19,33.5C 15.6044,35.9368 14.7711,38.9368 16.5,42.5C 15.8333,43.8333 15.1667,45.1667 14.5,46.5C 13.3871,47.9464 13.2204,49.6131 14,51.5C 17.3007,54.5949 21.134,55.2616 25.5,53.5C 25.8627,52.8165 26.1961,52.1499 26.5,51.5C 27.3382,51.1583 27.6716,50.4916 27.5,49.5C 28.5,49.5 29.5,49.5 30.5,49.5C 30.7107,51.4241 31.3774,51.7574 32.5,50.5C 33.1667,50.5 33.8333,50.5 34.5,50.5C 34.5,50.8333 34.5,51.1667 34.5,51.5C 34.5,52.5 34.5,53.5 34.5,54.5C 30.0696,55.024 25.7362,56.024 21.5,57.5C 16.3765,57.68 13.3765,55.3467 12.5,50.5C 12.7373,49.209 12.404,48.209 11.5,47.5C 9.90189,45.3021 8.56855,42.9687 7.5,40.5C 9.55755,38.0734 11.3909,35.4068 13,32.5C 13.3333,33.1667 13.6667,33.8333 14,34.5C 15.6169,33.4642 15.7836,32.2975 14.5,31C 17.1899,30.6655 17.8565,29.4988 16.5,27.5 Z"/></g>
<g><path style="opacity:1" fill="#bf5814" d="M 41.5,49.5 C 42.9179,51.3079 44.9179,51.9746 47.5,51.5C 47.0557,53.1132 46.0557,54.2798 44.5,55C 41.1119,55.6588 37.7786,55.4922 34.5,54.5C 34.5,53.5 34.5,52.5 34.5,51.5C 37.188,51.8342 39.5214,51.1675 41.5,49.5 Z"/></g>
<g><path style="opacity:1" fill="#b37b68" d="M 60.5,39.5 C 61.6005,40.6049 62.2671,41.9382 62.5,43.5C 61.0047,43.4148 60.0047,44.0815 59.5,45.5C 60.5213,47.188 61.8546,48.5213 63.5,49.5C 63.5,54.1667 63.5,58.8333 63.5,63.5C 60.5,63.5 57.5,63.5 54.5,63.5C 55.2485,61.6675 56.2485,60.0009 57.5,58.5C 58.81,56.5654 60.1433,54.5654 61.5,52.5C 59.4807,50.8103 57.4807,49.1436 55.5,47.5C 56.1667,45.8333 56.8333,44.1667 57.5,42.5C 58.2719,41.3065 59.2719,40.3065 60.5,39.5 Z"/></g>
<g><path style="opacity:1" fill="#1a2738" d="M 11.5,47.5 C 12.404,48.209 12.7373,49.209 12.5,50.5C 11.9033,50.7352 11.5699,51.2352 11.5,52C 12.832,56.146 14.4986,59.9793 16.5,63.5C 14.5,63.5 12.5,63.5 10.5,63.5C 9.95518,60.1869 9.45518,56.8536 9,53.5C 8.66667,55.8333 8.33333,58.1667 8,60.5C 3.09553,55.4536 3.42887,50.787 9,46.5C 9.83816,47.999 10.6715,48.3324 11.5,47.5 Z"/></g>
<g><path style="opacity:1" fill="#832d15" d="M 48.5,48.5 C 49.6341,50.9664 49.8007,53.633 49,56.5C 46.8556,58.4662 45.3556,60.7995 44.5,63.5C 35.1667,63.5 25.8333,63.5 16.5,63.5C 14.4986,59.9793 12.832,56.146 11.5,52C 11.5699,51.2352 11.9033,50.7352 12.5,50.5C 13.3765,55.3467 16.3765,57.68 21.5,57.5C 25.7362,56.024 30.0696,55.024 34.5,54.5C 37.7786,55.4922 41.1119,55.6588 44.5,55C 46.0557,54.2798 47.0557,53.1132 47.5,51.5C 48.404,50.791 48.7373,49.791 48.5,48.5 Z"/></g>
<g><path style="opacity:1" fill="#8a8a7c" d="M 53.5,63.5 C 53.1667,63.5 52.8333,63.5 52.5,63.5C 52.6312,59.2416 52.4645,54.9083 52,50.5C 54.47,54.6431 54.97,58.9764 53.5,63.5 Z"/></g>
</svg>
