<?xml version="1.0" encoding="UTF-8"?>
<!DOCTYPE svg PUBLIC "-//W3C//DTD SVG 1.1//EN" "http://www.w3.org/Graphics/SVG/1.1/DTD/svg11.dtd">
<svg xmlns="http://www.w3.org/2000/svg" version="1.1" width="64px" height="64px" style="shape-rendering:geometricPrecision; text-rendering:geometricPrecision; image-rendering:optimizeQuality; fill-rule:evenodd; clip-rule:evenodd" xmlns:xlink="http://www.w3.org/1999/xlink">
<g><path style="opacity:1" fill="#50a2fe" d="M -0.5,-0.5 C 20.8333,-0.5 42.1667,-0.5 63.5,-0.5C 63.5,20.8333 63.5,42.1667 63.5,63.5C 42.1667,63.5 20.8333,63.5 -0.5,63.5C -0.5,42.1667 -0.5,20.8333 -0.5,-0.5 Z"/></g>
<g><path style="opacity:1" fill="#85a9c1" d="M 42.5,12.5 C 41.8501,12.8039 41.1835,13.1373 40.5,13.5C 40.1667,12.8333 39.8333,12.1667 39.5,11.5C 38.2391,13.5618 38.7391,15.2285 41,16.5C 41.7697,15.4019 42.603,15.4019 43.5,16.5C 44.1667,16.5 44.5,16.8333 44.5,17.5C 40.7139,17.638 40.7139,18.3047 44.5,19.5C 43.5946,20.9643 43.5946,22.2976 44.5,23.5C 43.2502,23.5774 42.4169,24.244 42,25.5C 39.7067,22.8661 37.54,22.8661 35.5,25.5C 35.3893,26.1174 35.056,26.6174 34.5,27C 36.0187,26.6692 37.352,26.8359 38.5,27.5C 37.5,27.8333 36.8333,28.5 36.5,29.5C 36.1583,30.3382 35.4916,30.6716 34.5,30.5C 32.8656,29.7934 31.5323,28.6268 30.5,27C 31.3081,26.6924 31.9747,26.1924 32.5,25.5C 31.1319,23.363 30.1319,21.0297 29.5,18.5C 25.4081,19.7028 23.7415,22.2028 24.5,26C 22.0709,26.7033 19.7375,26.5366 17.5,25.5C 18.0037,21.469 18.6704,17.469 19.5,13.5C 17.2623,11.7415 16.2623,9.40821 16.5,6.5C 21.7173,7.56167 26.884,7.22834 32,5.5C 35.553,6.38759 39.053,6.38759 42.5,5.5C 43.8448,6.34673 44.8448,7.5134 45.5,9C 43.5743,9.42244 42.5743,10.5891 42.5,12.5 Z"/></g>
<g><path style="opacity:1" fill="#040709" d="M 26.5,11.5 C 31.9697,12.6856 32.303,13.8523 27.5,15C 28.5,15.3333 29.5,15.6667 30.5,16C 25.7628,18.0922 24.4295,16.5922 26.5,11.5 Z"/></g>
<g><path style="opacity:1" fill="#3e464c" d="M 42.5,12.5 C 43.4345,13.5676 43.7678,14.901 43.5,16.5C 42.603,15.4019 41.7697,15.4019 41,16.5C 38.7391,15.2285 38.2391,13.5618 39.5,11.5C 39.8333,12.1667 40.1667,12.8333 40.5,13.5C 41.1835,13.1373 41.8501,12.8039 42.5,12.5 Z"/></g>
<g><path style="opacity:1" fill="#0b1019" d="M 44.5,17.5 C 44.5,18.1667 44.5,18.8333 44.5,19.5C 40.7139,18.3047 40.7139,17.638 44.5,17.5 Z"/></g>
<g><path style="opacity:1" fill="#0f171b" d="M 35.5,25.5 C 36.9778,25.238 38.3112,25.5713 39.5,26.5C 39.3764,27.1067 39.0431,27.44 38.5,27.5C 37.352,26.8359 36.0187,26.6692 34.5,27C 35.056,26.6174 35.3893,26.1174 35.5,25.5 Z"/></g>
<g><path style="opacity:1" fill="#b6def4" d="M 34.5,30.5 C 34.1667,31.5 33.5,32.1667 32.5,32.5C 28.176,28.6391 23.176,27.6391 17.5,29.5C 16.1667,28.1667 16.1667,26.8333 17.5,25.5C 19.7375,26.5366 22.0709,26.7033 24.5,26C 23.7415,22.2028 25.4081,19.7028 29.5,18.5C 30.1319,21.0297 31.1319,23.363 32.5,25.5C 31.9747,26.1924 31.3081,26.6924 30.5,27C 31.5323,28.6268 32.8656,29.7934 34.5,30.5 Z"/></g>
<g><path style="opacity:1" fill="#b3d8e9" d="M 44.5,23.5 C 45.6857,24.7054 45.6857,26.0387 44.5,27.5C 42.2459,28.4151 40.2459,29.7484 38.5,31.5C 38.5,30.1667 37.8333,29.5 36.5,29.5C 36.8333,28.5 37.5,27.8333 38.5,27.5C 39.0431,27.44 39.3764,27.1067 39.5,26.5C 38.3112,25.5713 36.9778,25.238 35.5,25.5C 37.54,22.8661 39.7067,22.8661 42,25.5C 42.4169,24.244 43.2502,23.5774 44.5,23.5 Z"/></g>
<g><path style="opacity:1" fill="#0d64a6" d="M 32.5,32.5 C 32.8417,33.3382 33.5084,33.6716 34.5,33.5C 34.1961,34.1499 33.8627,34.8165 33.5,35.5C 31.0312,36.1681 28.6979,36.8347 26.5,37.5C 24.6214,37.6068 24.2881,37.1068 25.5,36C 22.854,35.5026 20.1873,35.3359 17.5,35.5C 17.5,33.5 17.5,31.5 17.5,29.5C 23.176,27.6391 28.176,28.6391 32.5,32.5 Z"/></g>
<g><path style="opacity:1" fill="#1f2a2f" d="M 36.5,29.5 C 37.8333,29.5 38.5,30.1667 38.5,31.5C 36.6203,31.2291 35.287,31.8958 34.5,33.5C 33.5084,33.6716 32.8417,33.3382 32.5,32.5C 33.5,32.1667 34.1667,31.5 34.5,30.5C 35.4916,30.6716 36.1583,30.3382 36.5,29.5 Z"/></g>
<g><path style="opacity:1" fill="#16568b" d="M 44.5,27.5 C 45.3627,29.4214 46.0293,31.4214 46.5,33.5C 44.6572,34.246 43.3239,35.5794 42.5,37.5C 41.8165,37.1373 41.1499,36.8039 40.5,36.5C 40.0825,35.7784 39.4158,35.2784 38.5,35C 39.6843,33.8545 39.6843,32.6879 38.5,31.5C 40.2459,29.7484 42.2459,28.4151 44.5,27.5 Z"/></g>
<g><path style="opacity:1" fill="#b7d0e0" d="M 38.5,31.5 C 39.6843,32.6879 39.6843,33.8545 38.5,35C 39.4158,35.2784 40.0825,35.7784 40.5,36.5C 39.7387,37.3909 38.7387,38.0576 37.5,38.5C 34.6969,37.2243 32.0303,37.2243 29.5,38.5C 29.1667,38.5 28.8333,38.5 28.5,38.5C 28.1583,37.6618 27.4916,37.3284 26.5,37.5C 28.6979,36.8347 31.0312,36.1681 33.5,35.5C 33.8627,34.8165 34.1961,34.1499 34.5,33.5C 35.287,31.8958 36.6203,31.2291 38.5,31.5 Z"/></g>
<g><path style="opacity:1" fill="#a5c8e4" d="M 17.5,35.5 C 20.1873,35.3359 22.854,35.5026 25.5,36C 24.2881,37.1068 24.6214,37.6068 26.5,37.5C 26.5,37.8333 26.5,38.1667 26.5,38.5C 23.5,38.5 20.5,38.5 17.5,38.5C 17.5,37.5 17.5,36.5 17.5,35.5 Z"/></g>
<g><path style="opacity:1" fill="#6aa7f7" d="M 26.5,37.5 C 27.4916,37.3284 28.1583,37.6618 28.5,38.5C 28.5,41.1667 28.5,43.8333 28.5,46.5C 27.5,46.5 26.5,46.5 25.5,46.5C 25.2786,43.7212 25.612,41.0545 26.5,38.5C 26.5,38.1667 26.5,37.8333 26.5,37.5 Z"/></g>
<g><path style="opacity:1" fill="#2858a9" d="M 45.5,38.5 C 47.6074,39.4682 49.9407,39.8016 52.5,39.5C 50.1578,40.0082 47.9912,41.0082 46,42.5C 45.3483,40.2769 43.8483,39.1102 41.5,39C 42.7932,38.51 44.1266,38.3433 45.5,38.5 Z"/></g>
<g><path style="opacity:1" fill="#76acf5" d="M 14.5,38.5 C 13.448,38.3505 12.448,38.5172 11.5,39C 13.0016,39.5831 14.3349,40.4164 15.5,41.5C 12.8694,43.0046 13.2027,43.6713 16.5,43.5C 16.5842,48.6936 14.5842,49.6936 10.5,46.5C 10.7093,45.914 11.0426,45.414 11.5,45C 10.1859,44.015 9.18586,42.8484 8.5,41.5C 8.53944,40.4168 8.87277,39.4168 9.5,38.5C 11.2985,37.2121 12.9652,37.2121 14.5,38.5 Z"/></g>
<g><path style="opacity:1" fill="#74a9f1" d="M 46.5,33.5 C 45.962,35.1172 45.6287,36.7839 45.5,38.5C 44.1266,38.3433 42.7932,38.51 41.5,39C 43.8483,39.1102 45.3483,40.2769 46,42.5C 47.9912,41.0082 50.1578,40.0082 52.5,39.5C 53.4959,39.4142 54.3292,39.7476 55,40.5C 55.8007,43.367 55.6341,46.0336 54.5,48.5C 54.6633,46.1432 54.4966,43.8098 54,41.5C 54.2959,47.0467 51.7959,48.8801 46.5,47C 45.8095,45.9326 45.3095,44.7659 45,43.5C 42.5359,44.6508 40.0359,45.6508 37.5,46.5C 37.6567,45.1266 37.49,43.7932 37,42.5C 34.7429,44.3409 32.2429,45.6742 29.5,46.5C 29.5,43.8333 29.5,41.1667 29.5,38.5C 32.0303,37.2243 34.6969,37.2243 37.5,38.5C 38.7387,38.0576 39.7387,37.3909 40.5,36.5C 41.1499,36.8039 41.8165,37.1373 42.5,37.5C 43.3239,35.5794 44.6572,34.246 46.5,33.5 Z"/></g>
<g><path style="opacity:1" fill="#084190" d="M 14.5,38.5 C 15.209,39.404 16.209,39.7373 17.5,39.5C 17.5,39.1667 17.5,38.8333 17.5,38.5C 20.5,38.5 23.5,38.5 26.5,38.5C 25.612,41.0545 25.2786,43.7212 25.5,46.5C 26.5,46.5 27.5,46.5 28.5,46.5C 28.5,43.8333 28.5,41.1667 28.5,38.5C 28.8333,38.5 29.1667,38.5 29.5,38.5C 29.5,41.1667 29.5,43.8333 29.5,46.5C 32.2429,45.6742 34.7429,44.3409 37,42.5C 37.49,43.7932 37.6567,45.1266 37.5,46.5C 40.0359,45.6508 42.5359,44.6508 45,43.5C 45.3095,44.7659 45.8095,45.9326 46.5,47C 51.7959,48.8801 54.2959,47.0467 54,41.5C 54.4966,43.8098 54.6633,46.1432 54.5,48.5C 52.412,49.9395 50.0786,50.6061 47.5,50.5C 46.8333,49.1667 45.8333,48.1667 44.5,47.5C 44.5654,47.0618 44.3988,46.7284 44,46.5C 41.7724,48.1134 39.2724,48.78 36.5,48.5C 35.5,45.8333 34.5,45.8333 33.5,48.5C 28.9677,48.1818 24.6344,48.5151 20.5,49.5C 19.1779,49.67 18.0113,49.3366 17,48.5C 16.2828,49.0442 15.7828,49.7109 15.5,50.5C 11.1138,51.4256 8.78049,49.759 8.5,45.5C 8.5,44.1667 8.5,42.8333 8.5,41.5C 9.18586,42.8484 10.1859,44.015 11.5,45C 11.0426,45.414 10.7093,45.914 10.5,46.5C 14.5842,49.6936 16.5842,48.6936 16.5,43.5C 13.2027,43.6713 12.8694,43.0046 15.5,41.5C 14.3349,40.4164 13.0016,39.5831 11.5,39C 12.448,38.5172 13.448,38.3505 14.5,38.5 Z"/></g>
<g><path style="opacity:1" fill="#e9f4f7" d="M 36.5,48.5 C 35.5,47.1667 34.5,47.1667 33.5,48.5C 34.5,45.8333 35.5,45.8333 36.5,48.5 Z"/></g>
<g><path style="opacity:1" fill="#6eabfb" d="M 17.5,39.5 C 18.5,39.5 19.5,39.5 20.5,39.5C 20.8333,43.5 21.1667,43.5 21.5,39.5C 22.5,39.5 23.5,39.5 24.5,39.5C 24.5,41.8333 24.5,44.1667 24.5,46.5C 22.8762,46.6399 21.7096,45.9733 21,44.5C 20.6322,45.91 19.7989,46.91 18.5,47.5C 17.2503,44.7278 16.917,42.0611 17.5,39.5 Z"/></g>
<g><path style="opacity:1" fill="#d9ebfa" d="M 20.5,49.5 C 19.0813,50.4511 17.4147,50.7845 15.5,50.5C 15.7828,49.7109 16.2828,49.0442 17,48.5C 18.0113,49.3366 19.1779,49.67 20.5,49.5 Z"/></g>
<g><path style="opacity:1" fill="#d5ecf5" d="M 44.5,47.5 C 45.8333,48.1667 46.8333,49.1667 47.5,50.5C 45.5,50.5 44.5,49.5 44.5,47.5 Z"/></g>
<g><path style="opacity:1" fill="#ddf0fc" d="M 8.5,45.5 C 8.78049,49.759 11.1138,51.4256 15.5,50.5C 10.3515,52.9061 8.01819,51.2395 8.5,45.5 Z"/></g>
<g><path style="opacity:1" fill="#aec7ef" d="M 54.5,48.5 C 54.4226,49.7498 53.756,50.5831 52.5,51C 50.6131,51.7796 48.9464,51.6129 47.5,50.5C 50.0786,50.6061 52.412,49.9395 54.5,48.5 Z"/></g>
</svg>
