<svg width="32" height="32" viewBox="0 0 32 32" fill="none" xmlns="http://www.w3.org/2000/svg">
<path fill-rule="evenodd" clip-rule="evenodd" d="M21.2828 6H10.7297L3 13.7423L16 26.7423L29 13.7423L21.2828 6ZM10.027 16.5405L7.21622 13.7297L10.027 10.9189C13.3147 7.61873 18.6979 7.61873 21.973 10.9189L24.7838 13.7297L21.973 16.5405C18.6853 19.8407 13.3021 19.8407 10.027 16.5405Z" fill="#E6DAFE"/>
<path fill-rule="evenodd" clip-rule="evenodd" d="M15.9999 9.68912C13.7663 9.68912 11.9593 11.4961 11.9593 13.7297C11.9593 15.9632 13.7663 17.7702 15.9999 17.7702C18.2335 17.7702 20.0404 15.9632 20.0404 13.7297C20.0404 11.4961 18.2335 9.68912 15.9999 9.68912ZM15.9999 15.4864C15.0336 15.4864 14.2431 14.6959 14.2431 13.7297C14.2431 12.7634 15.0336 11.9729 15.9999 11.9729C16.9661 11.9729 17.7566 12.7634 17.7566 13.7297C17.7566 14.6959 16.9661 15.4864 15.9999 15.4864Z" fill="#E6DAFE"/>
</svg>
