<svg width="32" height="32" viewBox="0 0 32 32" fill="none" xmlns="http://www.w3.org/2000/svg">
<path d="M25.6083 15.9993C25.6083 14.0449 25.0211 12.2264 24.0154 10.7069L26.9986 7.72367L24.3157 5.04077L21.3406 8.01588C19.813 6.98974 17.9755 6.39037 16.0007 6.39037C14.0463 6.39037 12.2278 6.97751 10.7083 7.98326L7.72367 5L5.04077 7.68289L8.01588 10.658C6.98974 12.1856 6.39037 14.0232 6.39037 15.998C6.39037 17.9524 6.97751 19.7709 7.98326 21.2904L5 24.275L7.68289 26.9579L10.658 23.9828C12.1856 25.0089 14.0232 25.6083 15.998 25.6083C17.9524 25.6083 19.7709 25.0211 21.2904 24.0154L24.275 27L26.9579 24.3171L23.9828 21.342C25.0089 19.8116 25.6083 17.9741 25.6083 15.9993ZM10.1864 15.9993C10.1864 12.7932 12.7945 10.185 16.0007 10.185C19.2068 10.185 21.815 12.7932 21.815 15.9993C21.815 19.2055 19.2068 21.8136 16.0007 21.8136C12.7945 21.8136 10.1864 19.2055 10.1864 15.9993Z" fill="#E6DAFE"/>
</svg>
