<svg width="32" height="32" viewBox="0 0 32 32" fill="none" xmlns="http://www.w3.org/2000/svg">
<path d="M23.1861 8C23.117 8 23.0548 8.02074 22.9926 8.04839C22.9926 8.04839 21.9487 8.64983 21.4993 8.89178C21.1329 9.09226 21.1122 9.33422 21.1122 9.41718C21.1122 9.50013 21.1399 9.74209 21.4993 9.94257C21.9418 10.1845 22.9926 10.786 22.9926 10.786C23.0479 10.8205 23.117 10.8344 23.1861 10.8344C23.2898 10.8344 23.3866 10.7929 23.4557 10.7237C23.5249 10.6546 23.5663 10.5578 23.5663 10.4541C23.5663 10.385 23.5456 10.3228 23.5179 10.2606C23.4834 10.2053 23.435 10.1569 23.3797 10.1223L22.0939 9.41718L23.3797 8.71205C23.435 8.67748 23.4834 8.62909 23.5179 8.57378C23.5525 8.51848 23.5663 8.44935 23.5663 8.38022C23.5663 8.27652 23.5249 8.17974 23.4557 8.11061C23.3866 8.04148 23.2898 8 23.1861 8ZM14.4204 8.20048C14.2475 8.20048 14.0747 8.23504 13.9157 8.29726C13.7567 8.35948 13.6115 8.46317 13.4871 8.5807C13.3627 8.70513 13.2659 8.85031 13.2037 9.00931C13.1345 9.16831 13.1069 9.34113 13.1069 9.51396C13.1069 9.68679 13.1414 9.85961 13.2037 10.0186C13.2728 10.1776 13.3696 10.3228 13.4871 10.4472C13.6115 10.5717 13.7567 10.6684 13.9157 10.7307C14.0747 10.7998 14.2475 10.8274 14.4204 10.8274C14.5932 10.8274 14.766 10.7929 14.925 10.7307C15.084 10.6615 15.2292 10.5647 15.3536 10.4472C15.4781 10.3297 15.5748 10.1776 15.6371 10.0186C15.7062 9.85961 15.7338 9.68679 15.7338 9.51396C15.7338 9.16831 15.5956 8.82957 15.3467 8.5807C15.1048 8.33874 14.766 8.20048 14.4204 8.20048ZM27.9423 12.5903C27.7764 12.5903 27.6174 12.6317 27.4722 12.7009C27.327 12.7769 27.1957 12.8806 27.0989 13.012L25.0112 15.95H25.0181C24.8867 16.1298 24.8107 16.351 24.8107 16.5722C24.8107 16.7934 24.8867 17.0146 25.0181 17.1944H25.0112L27.0989 20.1324C27.1957 20.2638 27.327 20.3744 27.4722 20.4435C27.6174 20.5195 27.7833 20.5541 27.9423 20.5541C28.0806 20.5541 28.2188 20.5265 28.3433 20.4712C28.4746 20.4159 28.5852 20.3398 28.6889 20.243C28.7857 20.1462 28.8617 20.0287 28.917 19.8974C28.9723 19.766 29 19.6347 29 19.4964C29 19.2821 28.9309 19.0678 28.8064 18.8881L27.1542 16.5653L28.8064 14.2425C28.9309 14.0628 29 13.8554 29 13.6341C29 13.4959 28.9723 13.3576 28.917 13.2332C28.8617 13.1018 28.7857 12.9912 28.6889 12.8875C28.5921 12.7907 28.4746 12.7147 28.3433 12.6594C28.2188 12.6179 28.0806 12.5903 27.9423 12.5903ZM13.0447 22.1649C12.7543 22.1649 12.5124 22.4137 12.5124 22.7179C12.5124 22.9322 12.6299 23.1258 12.8096 23.2156C15.879 25.1444 18.5751 24.9646 18.5751 24.9646C18.5751 24.9646 21.2712 25.1375 24.3406 23.2156C24.5203 23.1189 24.6379 22.9322 24.6379 22.7179C24.6379 22.4137 24.4028 22.1649 24.1056 22.1649C23.9949 22.1649 23.8843 22.1994 23.7945 22.2686L23.7461 22.2962C23.7461 22.2962 21.444 23.9139 18.5682 23.8655C15.6924 23.9139 13.3903 22.2962 13.3903 22.2962L13.3419 22.2686C13.2659 22.2063 13.1553 22.1649 13.0447 22.1649Z" fill="#E6DAFE"/>
<path d="M20.2481 12.5419C20.1513 12.5419 20.0545 12.5488 19.9577 12.5557C19.9024 12.5626 19.854 12.5695 19.7987 12.5764C19.7365 12.5834 19.6743 12.5903 19.619 12.6041C19.5706 12.611 19.5222 12.6248 19.4738 12.6387C19.4116 12.6525 19.3494 12.6663 19.2872 12.6871C19.2457 12.7009 19.1973 12.7147 19.1558 12.7285C19.0936 12.7493 19.0245 12.77 18.9622 12.7977C18.9208 12.8115 18.8793 12.8322 18.8447 12.853C18.7825 12.8806 18.7203 12.9152 18.6581 12.9428C18.6235 12.9636 18.5889 12.9843 18.5475 13.0051C18.4852 13.0396 18.423 13.0811 18.3608 13.1226C18.3262 13.1433 18.2986 13.1641 18.264 13.1917C18.2018 13.2332 18.1396 13.2816 18.0843 13.33C18.0566 13.3507 18.029 13.3784 18.0013 13.3991C17.9391 13.4475 17.8838 13.5028 17.8285 13.5581C17.8078 13.5788 17.7801 13.6065 17.7594 13.6272C17.7041 13.6894 17.6488 13.7447 17.6004 13.807C17.5796 13.8346 17.5589 13.8554 17.5451 13.883C17.4967 13.9452 17.4483 14.0144 17.3999 14.0835C17.3861 14.1111 17.3653 14.1319 17.3515 14.1595C17.31 14.2287 17.2616 14.3047 17.2271 14.3807C17.2132 14.4084 17.1994 14.4291 17.1925 14.4568C17.1579 14.5328 17.1165 14.6089 17.0888 14.6918C17.0819 14.7195 17.0681 14.7402 17.0612 14.7679C17.0335 14.8508 17.0059 14.9338 16.9782 15.0168C16.9713 15.0444 16.9644 15.0651 16.9575 15.0928C16.9367 15.1758 16.916 15.2656 16.9022 15.3486C16.8952 15.3762 16.8952 15.397 16.8883 15.4246C16.8745 15.5145 16.8607 15.5974 16.8538 15.6873C16.8469 15.7426 16.8469 15.7979 16.8469 15.8532V15.874C16.8469 15.8947 16.8469 15.9224 16.8469 15.9431C16.8469 15.95 16.8469 15.9638 16.8469 15.9708V19.5379C16.8469 19.8075 16.9575 20.0633 17.151 20.2568C17.3446 20.4504 17.6004 20.5541 17.87 20.5541C18.1396 20.5541 18.4023 20.4504 18.5889 20.2568C18.7825 20.0633 18.8931 19.8075 18.8931 19.5379V15.8532C18.9139 15.556 19.0245 15.2794 19.218 15.0513C19.4116 14.8301 19.6674 14.6711 19.9577 14.6089H19.9646C19.9992 14.602 20.0338 14.5951 20.0683 14.5951C20.0822 14.5951 20.0891 14.5881 20.1029 14.5881C20.1306 14.5881 20.1582 14.5812 20.1859 14.5812C20.2066 14.5812 20.2273 14.5812 20.2412 14.5812C20.2619 14.5812 20.2826 14.5812 20.3103 14.5812C20.3379 14.5812 20.3587 14.5812 20.3863 14.5881C20.4002 14.5881 20.414 14.5951 20.4278 14.5951C20.4624 14.602 20.49 14.602 20.5246 14.6089C20.5315 14.6089 20.5315 14.6089 20.5384 14.6089C20.5799 14.6158 20.6214 14.6296 20.6559 14.6434C20.9186 14.7264 21.1468 14.8854 21.3127 15.0997C21.4786 15.314 21.5823 15.5767 21.5961 15.8532V19.5379C21.5961 19.8075 21.7067 20.0633 21.9003 20.2568C22.0939 20.4504 22.3496 20.5541 22.6193 20.5541C22.8889 20.5541 23.1516 20.4504 23.3382 20.2568C23.5318 20.0633 23.6424 19.8075 23.6424 19.5379V15.9708C23.6424 15.9638 23.6424 15.95 23.6424 15.9431C23.6424 15.9224 23.6424 15.8947 23.6424 15.874V15.8532C23.6424 15.7979 23.6355 15.7426 23.6355 15.6873C23.6286 15.5974 23.6147 15.5076 23.6009 15.4246C23.6009 15.397 23.594 15.3762 23.5871 15.3486C23.5733 15.2587 23.5525 15.1758 23.5318 15.0928C23.5249 15.0651 23.518 15.0444 23.511 15.0168C23.4834 14.9338 23.4627 14.8508 23.4281 14.7679C23.4212 14.7402 23.4073 14.7195 23.4004 14.6918C23.3659 14.6089 23.3313 14.5328 23.2967 14.4568C23.2829 14.4291 23.276 14.4084 23.2622 14.3807C23.2207 14.3047 23.1792 14.2287 23.1377 14.1595C23.1239 14.1319 23.1101 14.1111 23.0893 14.0835C23.041 14.0144 22.9926 13.9452 22.9442 13.883C22.9234 13.8554 22.9027 13.8346 22.8889 13.807C22.8405 13.7447 22.7852 13.6825 22.7299 13.6272C22.7091 13.5996 22.6884 13.5788 22.6607 13.5581C22.6054 13.5028 22.5501 13.4475 22.4879 13.3991C22.4603 13.3784 22.4326 13.3507 22.405 13.33C22.3427 13.2816 22.2874 13.2332 22.2252 13.1917C22.1976 13.171 22.163 13.1433 22.1353 13.1226C22.0731 13.0811 22.0109 13.0465 21.9487 13.0051C21.9141 12.9843 21.8796 12.9636 21.845 12.9428C21.7828 12.9083 21.7206 12.8806 21.6514 12.853C21.61 12.8322 21.5685 12.8184 21.5339 12.7977C21.4717 12.77 21.4095 12.7493 21.3403 12.7285C21.2989 12.7147 21.2505 12.7009 21.209 12.6871C21.1468 12.6663 21.0846 12.6525 21.0223 12.6387C20.9739 12.6248 20.9256 12.6179 20.8772 12.6041C20.815 12.5903 20.7527 12.5834 20.6974 12.5764C20.6421 12.5695 20.5937 12.5626 20.5384 12.5557C20.4416 12.5488 20.3449 12.5488 20.2481 12.5419ZM4.03005 12.611C3.76044 12.611 3.49774 12.7216 3.30417 12.9152C3.11061 13.1087 3 13.3714 3 13.6411C3 13.7171 3.00691 13.7931 3.02765 13.8692L4.48631 19.8144C4.54853 20.0287 4.67296 20.2223 4.8527 20.3605C5.03244 20.4988 5.25366 20.5748 5.47487 20.5748C5.69609 20.5748 5.90348 20.5057 6.08322 20.3744C6.25605 20.243 6.3874 20.0633 6.45653 19.8559V19.8628L7.54188 16.7588L8.62723 19.8628V19.8559C8.69636 20.0633 8.82079 20.243 9.00053 20.3744C9.17336 20.5057 9.38767 20.5748 9.60888 20.5748C9.83701 20.5748 10.0513 20.4988 10.2311 20.3605C10.4108 20.2223 10.5421 20.0287 10.5975 19.8144L12.0561 13.8692C12.0699 13.7931 12.0838 13.7171 12.0838 13.6411C12.0838 13.3714 11.9731 13.1087 11.7796 12.9152C11.586 12.7216 11.3233 12.611 11.0537 12.611C10.8118 12.611 10.5767 12.7009 10.3901 12.8599C10.2034 13.0189 10.079 13.2401 10.0444 13.4821L9.44297 15.9362L8.51662 13.2954C8.51662 13.2954 8.51662 13.2954 8.51662 13.2885C8.50971 13.2608 8.49588 13.2401 8.48205 13.2124C8.48205 13.2055 8.47514 13.1986 8.47514 13.1917C8.46132 13.1641 8.44749 13.1433 8.43366 13.1226C8.43366 13.1157 8.42675 13.1087 8.42675 13.1018C8.41292 13.0811 8.3991 13.0534 8.37836 13.0327C8.37145 13.0258 8.37145 13.0189 8.36453 13.012C8.35071 12.9912 8.32997 12.9705 8.31614 12.9497C8.30923 12.9428 8.30232 12.9359 8.30232 12.929C8.28158 12.9083 8.26775 12.8944 8.24701 12.8737C8.2401 12.8668 8.23318 12.8599 8.22627 12.853C8.20553 12.8391 8.18479 12.8184 8.17097 12.8046C8.16405 12.7977 8.15714 12.7907 8.15023 12.7838C8.12949 12.77 8.10875 12.7562 8.08801 12.7424C8.0811 12.7354 8.06727 12.7285 8.06036 12.7285C8.03962 12.7147 8.01888 12.7078 7.99814 12.694C7.99123 12.6871 7.9774 12.687 7.96358 12.6801C7.94284 12.6732 7.9221 12.6663 7.90136 12.6594C7.88753 12.6525 7.87371 12.6525 7.86679 12.6456C7.84605 12.6387 7.82531 12.6317 7.80458 12.6317C7.79075 12.6248 7.77692 12.6248 7.7631 12.6248C7.74236 12.6179 7.72162 12.6179 7.70088 12.611C7.68705 12.611 7.67323 12.6041 7.6594 12.6041C7.63866 12.6041 7.62484 12.6041 7.6041 12.5972C7.58336 12.5972 7.56262 12.5972 7.54188 12.5972C7.52114 12.5972 7.5004 12.5972 7.47966 12.5972C7.45892 12.5972 7.4451 12.5972 7.42436 12.6041C7.41053 12.6041 7.3967 12.611 7.37597 12.611C7.35523 12.611 7.3414 12.6179 7.32066 12.6179C7.30684 12.6179 7.29301 12.6248 7.27918 12.6317C7.25844 12.6387 7.2377 12.6456 7.21697 12.6456C7.20314 12.6525 7.18931 12.6525 7.1824 12.6594C7.16166 12.6663 7.14092 12.6732 7.12018 12.6801C7.10636 12.687 7.09944 12.6871 7.08562 12.694C7.06488 12.7009 7.04414 12.7147 7.0234 12.7285C7.01649 12.7354 7.00266 12.7424 6.99575 12.7493C6.97501 12.7631 6.95427 12.7769 6.94044 12.7907C6.93353 12.7977 6.92662 12.8046 6.9197 12.8115C6.89896 12.8253 6.87823 12.8391 6.8644 12.8599C6.85749 12.8668 6.85057 12.8737 6.84366 12.8806C6.82292 12.8944 6.80909 12.9152 6.78836 12.9359C6.78144 12.9428 6.77453 12.9497 6.77453 12.9567C6.75379 12.9774 6.73996 12.9981 6.72614 13.0189C6.71923 13.0258 6.71923 13.0327 6.71231 13.0396C6.69849 13.0604 6.68466 13.0811 6.67083 13.1087C6.66392 13.1157 6.66392 13.1226 6.65701 13.1295C6.64318 13.1502 6.62935 13.1779 6.61553 13.1986C6.61553 13.2055 6.60862 13.2124 6.60862 13.2194C6.59479 13.247 6.58788 13.2677 6.57405 13.2954C6.57405 13.2954 6.57405 13.2954 6.57405 13.3023H6.56714L5.64079 15.9431L5.03935 13.489C4.99787 13.247 4.88035 13.0258 4.6937 12.8668C4.51396 12.7009 4.272 12.611 4.03005 12.611ZM14.4618 12.611C14.1922 12.611 13.9365 12.7147 13.7429 12.9083C13.5493 13.0949 13.4387 13.3576 13.4387 13.6203V19.6001C13.4595 19.8628 13.5701 20.1048 13.7636 20.2776C13.9572 20.4573 14.2061 20.5541 14.4618 20.5541C14.7245 20.5541 14.9734 20.4573 15.1601 20.2776C15.3536 20.0978 15.4642 19.8559 15.485 19.6001H15.4919V13.6203C15.485 13.3507 15.3744 13.0949 15.1877 12.9014C14.9872 12.7216 14.7315 12.611 14.4618 12.611Z" fill="#E6DAFE"/>
</svg>
