<svg width="32" height="32" viewBox="0 0 32 32" fill="none" xmlns="http://www.w3.org/2000/svg">
<path d="M9.35468 28H11.9222C11.0694 27.5793 10.2926 27.0277 9.61855 26.3709L9.35468 28Z" fill="#E6DAFE"/>
<path d="M5.69253 23.7078C5.63421 23.7078 5.57589 23.7092 5.51853 23.7131L4.08684 26.7304C3.8072 27.3198 4.23694 28 4.88945 28H8.40485C8.5908 27.6095 8.69501 27.1721 8.69501 26.7108C8.69501 25.052 7.3508 23.7078 5.69205 23.7078H5.69253Z" fill="#E6DAFE"/>
<path d="M6.9373 20.723L6.00754 22.6829L7.47699 23.0983C7.19448 22.3493 7.00996 21.5519 6.9373 20.723Z" fill="#E6DAFE"/>
<path d="M8.5167 16.7348C8.27051 17.3023 8.08743 17.9041 7.97748 18.5308C7.89718 18.9859 7.85559 19.4543 7.85559 19.9324C7.85559 23.8541 10.6649 27.1204 14.3806 27.8279V16.7348H8.5167Z" fill="#E6DAFE"/>
<path d="M11.0187 13.5412H20.6108C19.278 12.5225 17.6174 11.912 15.8147 11.8948C14.0121 11.912 12.3514 12.5225 11.0187 13.5412Z" fill="#E6DAFE"/>
<path d="M12.2247 9.58024L10.8418 12.4952C11.654 11.9417 12.5613 11.5186 13.5345 11.2548L12.2247 9.58024Z" fill="#E6DAFE"/>
<path d="M15.8147 10.9177C17.1785 10.8833 18.3224 9.96217 18.691 8.70927C18.766 8.454 18.7402 8.18009 18.6265 7.93965L17.1608 4.85112C16.6221 3.71629 15.0069 3.71629 14.4681 4.85112L13.0025 7.93965C12.8887 8.17962 12.8629 8.454 12.938 8.70927C13.3065 9.96217 14.4504 10.8833 15.8142 10.9177H15.8147Z" fill="#E6DAFE"/>
<path d="M19.7073 28H22.2748L22.0109 26.3709C21.3369 27.0277 20.5601 27.5793 19.7073 28Z" fill="#E6DAFE"/>
<path d="M27.5426 26.7304L26.1109 23.7131C26.0536 23.7092 25.9952 23.7078 25.9369 23.7078C24.2782 23.7078 22.934 25.052 22.934 26.7108C22.934 27.1721 23.0382 27.6095 23.2241 28H26.7395C27.392 28 27.8222 27.3202 27.5421 26.7304H27.5426Z" fill="#E6DAFE"/>
<path d="M24.6921 20.723C24.6195 21.5519 24.435 22.3493 24.1524 23.0983L25.6219 22.6829L24.6921 20.723Z" fill="#E6DAFE"/>
<path d="M23.7738 19.9324C23.7738 19.4543 23.7323 18.9859 23.6519 18.5308C23.542 17.9041 23.3589 17.3023 23.1127 16.7348H17.2488V27.8279C20.9645 27.1204 23.7738 23.8541 23.7738 19.9324Z" fill="#E6DAFE"/>
<path d="M22.6476 15.8266C22.4076 15.4236 22.1337 15.0436 21.8297 14.6903C21.759 14.6086 21.6868 14.5278 21.6132 14.4489H10.0163C9.94265 14.5278 9.87047 14.6086 9.79972 14.6903C9.4957 15.0436 9.22179 15.4236 8.98182 15.8266H15.2884V27.9479C15.4624 27.9608 15.6378 27.9685 15.8147 27.9699C15.9916 27.9685 16.167 27.9608 16.341 27.9479V15.8266H22.6476Z" fill="#E6DAFE"/>
<path d="M20.7876 12.4952L19.4047 9.58024L18.0949 11.2548C19.0682 11.5186 19.9754 11.9417 20.7876 12.4952Z" fill="#E6DAFE"/>
</svg>
