<svg width="32" height="32" viewBox="0 0 32 32" fill="none" xmlns="http://www.w3.org/2000/svg">
<path d="M18.0367 5.96957C18.0367 5.98757 18.0367 6.00797 18.0397 6.02597C18.0397 6.05537 18.0457 6.08477 18.0487 6.11476C18.0487 6.13516 18.0517 6.15316 18.0547 6.17356C18.0577 6.20296 18.0607 6.22996 18.0637 6.25936C18.0637 6.27976 18.0697 6.29776 18.0727 6.31816C18.0757 6.34755 18.0817 6.37455 18.0847 6.40395C18.0877 6.42435 18.0907 6.44235 18.0937 6.46275C18.0997 6.49215 18.1051 6.52155 18.1111 6.55155C18.1141 6.56955 18.1171 6.58694 18.1225 6.60494C18.1285 6.63734 18.1369 6.67274 18.1459 6.70514C18.1489 6.71714 18.1519 6.73154 18.1549 6.74354C18.1663 6.79094 18.1783 6.83533 18.1897 6.87973C18.1927 6.89173 18.1957 6.90313 18.1987 6.91513C18.2077 6.94753 18.2191 6.98293 18.2281 7.01533C18.2341 7.03332 18.2401 7.05072 18.2455 7.06872C18.2545 7.09512 18.2629 7.12512 18.2719 7.15152C18.2779 7.16952 18.2839 7.18992 18.2923 7.20792C18.3013 7.23432 18.3097 7.25831 18.3217 7.28471C18.3277 7.30511 18.3361 7.32311 18.3451 7.34111C18.3541 7.36451 18.3655 7.39151 18.3745 7.41491C18.3835 7.43291 18.3889 7.45331 18.3979 7.47131C18.4093 7.4977 18.4183 7.5217 18.4303 7.5451C18.4393 7.5631 18.4477 7.5805 18.4537 7.5985C18.4657 7.6249 18.4771 7.6519 18.4921 7.6753C18.5011 7.6933 18.5065 7.70769 18.5155 7.72569C18.5329 7.75809 18.5479 7.79049 18.5653 7.82289C18.5713 7.83189 18.5743 7.84089 18.5797 7.85229C18.6031 7.89369 18.6235 7.93209 18.6469 7.97348C18.6559 7.98848 18.6643 8.00288 18.6733 8.01788C18.6877 8.04128 18.7027 8.06828 18.7201 8.09168C18.7321 8.10968 18.7405 8.12708 18.7525 8.14208C18.7669 8.16547 18.7819 8.18647 18.7963 8.20987C18.8077 8.22787 18.8197 8.24527 18.8311 8.26327C18.8455 8.28367 18.8605 8.30767 18.8749 8.32807C18.8869 8.34607 18.8983 8.36347 18.9133 8.37847C18.9277 8.39886 18.9457 8.41986 18.9601 8.44026C18.9721 8.45826 18.9865 8.47266 18.9979 8.49066C19.0153 8.51106 19.0333 8.53206 19.0477 8.55246C19.0591 8.56746 19.0741 8.58486 19.0855 8.59986C19.1029 8.62325 19.1233 8.64425 19.1443 8.66765C19.1563 8.68265 19.1676 8.69405 19.1796 8.70905C19.212 8.74445 19.2408 8.77685 19.2732 8.80925C19.2822 8.81825 19.2936 8.82965 19.3026 8.83865C19.326 8.86204 19.3494 8.88604 19.3728 8.90944C19.3872 8.92444 19.3992 8.93584 19.4136 8.95084C19.434 8.97124 19.4544 8.98924 19.4748 9.00964C19.4892 9.02464 19.5042 9.03604 19.5216 9.05104C19.542 9.06903 19.5624 9.08643 19.5834 9.10443C19.5978 9.11943 19.6158 9.13083 19.6302 9.14583C19.6506 9.16383 19.671 9.18123 19.6914 9.19623C19.7088 9.20823 19.7238 9.22263 19.7412 9.23463C19.7616 9.25263 19.785 9.26703 19.8054 9.28503C19.8228 9.29703 19.8378 9.30842 19.8552 9.32042C19.8612 9.32342 19.8666 9.32942 19.8726 9.33242L18.0307 5.4296V5.44459C18.0277 5.51839 18.0247 5.59519 18.0247 5.67198V5.86398L18.0307 5.87298C18.0307 5.90537 18.0307 5.93777 18.0367 5.97017V5.96957Z" fill="#E6DAFE"/>
<path d="M14.9624 6.20895L14.9594 6.20295C14.9738 6.23835 14.9858 6.26775 14.9942 6.28875C15.0968 6.56654 15.2228 6.84132 15.3662 7.10411C15.5624 7.4617 15.7964 7.80728 16.0628 8.13547C16.2092 8.31246 16.3646 8.48405 16.5284 8.64665C17.0053 9.12242 17.5591 9.52441 18.1243 9.89939L18.1621 9.92279C19.4502 10.6614 20.4078 11.3525 21.1926 12.1325L20.1474 9.91679C20.13 9.90779 20.115 9.89639 20.0976 9.88739C20.0742 9.87539 20.0538 9.86099 20.0304 9.84899C20.007 9.83399 19.9806 9.81959 19.9572 9.80459C19.9338 9.78959 19.9134 9.7782 19.89 9.7632C19.8666 9.7482 19.8432 9.7308 19.8198 9.7158C19.7994 9.7008 19.776 9.6864 19.7556 9.6714C19.7322 9.6564 19.7088 9.639 19.6884 9.621C19.668 9.606 19.6476 9.5916 19.6242 9.5736C19.6008 9.55561 19.5804 9.54121 19.56 9.52321C19.5396 9.50821 19.5192 9.49081 19.4982 9.47581C19.4778 9.45781 19.4544 9.44041 19.434 9.42241C19.4136 9.40441 19.3932 9.39001 19.3752 9.37201C19.3548 9.35401 19.3344 9.33661 19.314 9.31562C19.2936 9.29762 19.2762 9.28022 19.2552 9.26222C19.2348 9.24422 19.2144 9.22382 19.1964 9.20582C19.179 9.18782 19.1587 9.17042 19.1407 9.15242C19.1203 9.13442 19.1029 9.11402 19.0819 9.09363C19.0645 9.07563 19.0441 9.05523 19.0261 9.03723C19.0087 9.01683 18.9883 8.99883 18.9703 8.97843C18.9529 8.95803 18.9349 8.94003 18.9175 8.91963C18.9001 8.89923 18.8821 8.87824 18.8647 8.85784C18.8473 8.83744 18.8293 8.81944 18.8149 8.79904C18.7975 8.77864 18.7795 8.75764 18.7651 8.73724C18.7477 8.71684 18.7327 8.69584 18.7153 8.67544C18.6979 8.65504 18.6829 8.63105 18.6655 8.61065C18.6511 8.59025 18.6331 8.56925 18.6187 8.54885C18.6043 8.52845 18.5863 8.50445 18.5719 8.48405C18.5575 8.46365 18.5425 8.43965 18.5281 8.41926C18.5137 8.39586 18.4987 8.37486 18.4843 8.35146C18.4699 8.33106 18.4549 8.30706 18.4405 8.28666C18.4261 8.26326 18.4111 8.24226 18.3997 8.21886C18.3853 8.19547 18.3733 8.17447 18.3589 8.15107C18.3445 8.12767 18.3325 8.10367 18.3181 8.08027C18.3061 8.05687 18.2917 8.03287 18.2797 8.01247C18.2683 7.98907 18.2533 7.96508 18.2419 7.94168C18.2305 7.91828 18.2185 7.89428 18.2065 7.87088C18.1951 7.84748 18.1831 7.82048 18.1717 7.79708C18.1597 7.77368 18.1483 7.74968 18.1363 7.72629C18.1243 7.70289 18.1129 7.67589 18.1039 7.65249C18.0925 7.62909 18.0835 7.60509 18.0715 7.58169C18.0601 7.55829 18.0511 7.53129 18.0421 7.5049C18.0331 7.4815 18.0217 7.4575 18.0127 7.4311C18.0037 7.4047 17.9953 7.3807 17.9833 7.3543C17.9743 7.3309 17.9659 7.3039 17.9569 7.28051C17.9479 7.25411 17.9395 7.22711 17.9305 7.20071C17.9215 7.17731 17.9131 7.15031 17.9071 7.12691C17.8981 7.10051 17.8927 7.07351 17.8837 7.04712C17.8777 7.02372 17.8693 6.99672 17.8633 6.97332C17.8543 6.94692 17.8489 6.91692 17.8429 6.89052C17.8369 6.86712 17.8315 6.84012 17.8255 6.81673C17.8195 6.79033 17.8135 6.76033 17.8081 6.73393C17.8021 6.71053 17.7961 6.68353 17.7907 6.66013C17.7847 6.63073 17.7787 6.60374 17.7763 6.57434C17.7703 6.55094 17.7673 6.52394 17.7619 6.50054C17.7559 6.47114 17.7529 6.44174 17.7475 6.41174C17.7445 6.38834 17.7385 6.36435 17.7355 6.33795C17.7325 6.30855 17.7265 6.27615 17.7235 6.24615C17.7235 6.22275 17.7175 6.19875 17.7145 6.17535C17.7115 6.14296 17.7085 6.11056 17.7055 6.07756C17.7055 6.05716 17.7025 6.03316 17.6995 6.01276C17.6995 5.97736 17.6965 5.93896 17.6935 5.90357V5.68518C17.6935 5.61438 17.6935 5.54358 17.6995 5.47219C17.6995 5.44879 17.7025 5.42479 17.7055 5.40139C17.7055 5.35399 17.7115 5.30659 17.7145 5.25979C17.7145 5.2334 17.7205 5.2034 17.7235 5.177C17.7295 5.1326 17.7325 5.0912 17.7379 5.0498C17.7409 5.02041 17.7469 4.99101 17.7499 4.96101C17.7559 4.92861 17.7589 4.89921 17.7643 4.86621C17.2195 3.71126 15.5888 3.71126 15.0416 4.86621L14.8454 5.28559H14.8514L14.7548 5.47758C14.8076 5.72597 14.8778 5.96776 14.9624 6.21015V6.20895Z" fill="#E6DAFE"/>
<path d="M23.2337 15.7395V15.7335C23.0495 15.3112 22.8353 14.8918 22.5983 14.4898C21.7991 13.1423 20.6718 11.9639 19.3398 11.0831C19.1112 10.9326 18.8773 10.782 18.6487 10.6368C18.4117 10.4862 18.1741 10.3356 17.9371 10.179C17.3605 9.795 16.7923 9.38102 16.2914 8.88484C16.1744 8.76665 16.0604 8.64845 15.9518 8.52426C15.9458 8.51826 15.9428 8.51226 15.9374 8.50626C15.908 8.47386 15.8816 8.43846 15.8528 8.40606C15.563 8.06048 15.308 7.69389 15.0974 7.31291C15.083 7.28351 15.068 7.25411 15.0506 7.22711C15.0362 7.20372 15.0242 7.17672 15.0098 7.15332C14.9954 7.12692 14.9804 7.09992 14.969 7.07352C14.8604 6.85813 14.7638 6.63314 14.6792 6.40875C14.6702 6.38835 14.6588 6.35835 14.6438 6.32595C14.6378 6.31396 14.6348 6.30256 14.6294 6.29056C14.5826 6.17536 14.5418 6.07517 14.5065 5.98337L14.3715 6.27016C13.4259 8.27047 15.3086 10.3176 16.5146 11.3609C16.8601 11.6591 17.2261 11.9459 17.5801 12.2237C18.0925 12.6227 18.6193 13.0361 19.1028 13.4968C20.3586 14.7022 21.0234 16.1793 21.0234 17.7693C21.0234 18.7706 20.7774 19.7132 20.3442 20.5405C19.6974 21.7813 18.6547 22.7268 17.4193 23.256C17.4133 23.256 17.4073 23.259 17.4049 23.262C17.3641 23.28 17.3227 23.2974 17.2819 23.3124C17.2699 23.3184 17.2585 23.3214 17.2465 23.3274C17.1907 23.3478 17.1379 23.3688 17.0827 23.3898C17.0479 23.4018 17.0155 23.4132 16.9801 23.4252C16.9597 23.4312 16.9393 23.4402 16.9189 23.4456C16.8751 23.4606 16.8313 23.472 16.787 23.487C16.775 23.49 16.7636 23.493 16.7516 23.496C16.6316 23.5314 16.5086 23.5608 16.3856 23.5908C16.3796 23.5908 16.3742 23.5908 16.3682 23.5938C16.181 23.6352 15.9878 23.6676 15.7946 23.6886H15.7802C15.716 23.6946 15.6482 23.7036 15.584 23.7066C15.5198 23.7126 15.452 23.7156 15.3878 23.7186H15.3818C15.3206 23.7186 15.2588 23.7246 15.1946 23.7246H14.9546C14.9138 23.7246 14.8724 23.7216 14.8316 23.7186H14.7932C14.723 23.7156 14.6498 23.7096 14.5796 23.7036C14.5532 23.7036 14.5298 23.7006 14.5035 23.6976C14.4333 23.6916 14.3631 23.6796 14.2899 23.6712C14.2635 23.6682 14.2401 23.6652 14.2137 23.6592C14.1465 23.6472 14.0763 23.6358 14.0085 23.6238C13.9821 23.6178 13.9557 23.6148 13.9293 23.6088C13.8651 23.5968 13.8003 23.5824 13.7361 23.5644C13.7067 23.5584 13.6743 23.5494 13.6455 23.544C13.5867 23.529 13.5285 23.5116 13.4697 23.4966C13.4343 23.4876 13.3995 23.4762 13.3671 23.4672C13.3143 23.4522 13.2645 23.4348 13.2147 23.4168C13.1739 23.4018 13.1325 23.3904 13.0917 23.3754C13.0479 23.3604 13.0065 23.343 12.9627 23.325C12.9159 23.307 12.8661 23.2866 12.8193 23.2686C12.7839 23.2536 12.7521 23.2392 12.7197 23.2242C12.6639 23.2008 12.6087 23.1738 12.5529 23.1474C12.5295 23.1354 12.5061 23.124 12.4827 23.112C12.4185 23.0796 12.3537 23.0472 12.2895 23.0118C12.2781 23.0058 12.2631 22.9968 12.2511 22.9914C12.175 22.95 12.1018 22.9056 12.0316 22.8612C12.0316 22.8612 12.0286 22.8612 12.0256 22.8582C11.9728 22.8258 11.92 22.7904 11.8672 22.758C11.8288 22.7316 11.791 22.7076 11.7532 22.6812C11.7412 22.6722 11.7298 22.6632 11.7178 22.6578C11.671 22.6254 11.6272 22.593 11.5828 22.5606C11.5186 22.5132 11.4568 22.4634 11.3956 22.413C11.3578 22.3806 11.3194 22.3482 11.2786 22.3159C11.2582 22.2979 11.2378 22.2805 11.2174 22.2625C11.1736 22.2241 11.1298 22.1827 11.0854 22.1443C11.0734 22.1323 11.059 22.1209 11.0476 22.1059C11.0008 22.0615 10.954 22.0171 10.9102 21.9697L10.9042 21.9637C10.9042 21.9637 10.8982 21.9577 10.8952 21.9547C10.828 21.8869 10.7632 21.8161 10.702 21.7447C10.693 21.7357 10.6876 21.7273 10.6786 21.7183C10.6198 21.6505 10.5616 21.5821 10.5058 21.5113C10.4968 21.4993 10.4884 21.4879 10.4794 21.4759C10.4236 21.4051 10.3708 21.3343 10.321 21.2635C10.312 21.2515 10.3036 21.2431 10.2976 21.2311C10.2388 21.1483 10.1836 21.0655 10.1278 20.9797C10.1278 20.9797 10.1278 20.9767 10.1248 20.9737C10.084 20.9089 10.0456 20.8435 10.0048 20.7757C10.0018 20.7697 9.99585 20.7607 9.99285 20.7553C9.95745 20.6935 9.92265 20.6281 9.88725 20.5633C9.88125 20.5543 9.87825 20.5459 9.87285 20.5369C9.83506 20.4661 9.79966 20.3923 9.76426 20.3185C9.76426 20.3125 9.75826 20.3065 9.75526 20.3005C9.72286 20.2327 9.69646 20.1643 9.66766 20.0965C9.65866 20.0755 9.65026 20.0552 9.64126 20.0348C9.62087 19.9874 9.60347 19.9376 9.58547 19.8872C9.57107 19.8458 9.55307 19.8044 9.53867 19.766C9.53567 19.754 9.52967 19.7426 9.52667 19.7306C9.31308 19.1102 9.20148 18.4514 9.20148 17.7777C9.20148 17.6889 9.20148 17.5977 9.20748 17.5089C9.20748 17.4855 9.20748 17.4615 9.21048 17.4381C9.21348 17.3733 9.21948 17.3079 9.22488 17.2431V17.2047C8.8385 18.1472 8.64531 19.1456 8.64531 20.1799C8.64531 24.4932 12.1234 28 16.3952 28C18.5527 28 20.6286 27.0814 22.0925 25.4801C23.3747 24.0768 24.0778 22.2421 24.1246 20.1739C24.157 18.6998 23.8462 17.1663 23.2319 15.7425L23.2337 15.7395Z" fill="#E6DAFE"/>
<path d="M9.54644 18.1124V18.1094C9.54944 18.1628 9.55244 18.2126 9.55844 18.263C9.56144 18.3044 9.56744 18.3488 9.57044 18.3902C9.57344 18.4226 9.57944 18.452 9.58244 18.4844C9.85183 20.5759 11.275 22.3224 13.1835 23.037C12.9081 22.8096 12.6741 22.5378 12.4923 22.2276C12.4923 22.2246 12.4893 22.2216 12.4863 22.2186C12.4629 22.1803 12.4425 22.1389 12.4221 22.1005C12.4221 22.0975 12.4191 22.0945 12.4161 22.0915C12.3723 22.0057 12.3309 21.9199 12.2961 21.8287C12.2637 21.7459 12.2319 21.6631 12.2085 21.5779C12.2085 21.5689 12.2025 21.5599 12.1995 21.5545C12.1905 21.5221 12.1821 21.4867 12.1731 21.4537C12.1671 21.4363 12.1641 21.4183 12.1587 21.4003C12.1497 21.3709 12.1443 21.3385 12.1383 21.3055C12.1323 21.2821 12.1293 21.2611 12.1239 21.2377C12.1179 21.2083 12.1125 21.1789 12.1095 21.1489C12.1065 21.1225 12.1005 21.0985 12.0975 21.0721C12.0945 21.0457 12.0885 21.0157 12.0885 20.9893C12.0855 20.9599 12.0825 20.9299 12.0795 20.9005C12.0795 20.8741 12.0765 20.8501 12.0735 20.8237C12.0735 20.7823 12.0705 20.7409 12.0705 20.6995V20.6611C12.0705 20.5783 12.0735 20.4985 12.0795 20.4187C12.0969 20.1763 12.1437 19.937 12.2199 19.7066C12.2433 19.6298 12.2727 19.556 12.3021 19.4822C12.3021 19.4792 12.3021 19.4762 12.3051 19.4732C12.3195 19.4408 12.3315 19.4084 12.3459 19.376C12.3489 19.367 12.3549 19.361 12.3579 19.3526C12.3723 19.3232 12.3873 19.2932 12.4017 19.2638C12.4077 19.2548 12.4107 19.2434 12.4161 19.2344C12.4305 19.208 12.4455 19.178 12.4599 19.1516C12.4659 19.1426 12.4719 19.1312 12.4773 19.1222C12.5037 19.0778 12.5301 19.0334 12.5565 18.992C12.5679 18.9746 12.5769 18.9596 12.5889 18.9416C12.5979 18.9266 12.6093 18.9122 12.6213 18.8972C12.6357 18.8738 12.6537 18.8528 12.6681 18.8324C12.6771 18.8204 12.6855 18.809 12.6975 18.794C12.7149 18.7706 12.7353 18.7436 12.7563 18.7202C12.7653 18.7112 12.7707 18.7022 12.7797 18.6938C12.8061 18.6644 12.8295 18.6344 12.8559 18.605C12.8559 18.605 12.8619 18.599 12.8619 18.596C12.8913 18.5636 12.9207 18.5336 12.9495 18.5042C12.9759 18.4778 13.0023 18.4508 13.0287 18.4274C13.0317 18.4244 13.0347 18.4214 13.0377 18.4184C13.0845 18.374 13.1343 18.3326 13.1811 18.2912C13.2159 18.2618 13.2513 18.2348 13.2897 18.2084C13.3041 18.1964 13.3161 18.1874 13.3305 18.176C13.3743 18.1436 13.4181 18.1172 13.4625 18.0872C13.4715 18.0812 13.4799 18.0752 13.4859 18.0692C13.5327 18.0398 13.5825 18.0104 13.6293 17.9834C13.6323 17.9834 13.6353 17.9804 13.6413 17.9774L13.7265 17.93L13.9491 17.8058V17.8262C14.3036 17.6756 14.6954 17.5959 15.1058 17.5959C16.5961 17.5959 17.8081 16.3725 17.8081 14.869C17.8081 14.068 17.4595 13.309 16.8535 12.7919C16.8331 12.7739 16.8127 12.7565 16.7947 12.7415C16.5079 12.5081 16.1828 12.3395 15.8288 12.2423C15.5948 12.1775 15.3518 12.1421 15.1058 12.1421C13.0035 12.1421 11.1034 13.315 10.1458 15.2032V15.2092C10.1284 15.2416 10.1134 15.274 10.099 15.3064C10.0756 15.3628 10.0492 15.4215 10.0228 15.4779C9.94663 15.6525 9.86743 15.8325 9.81223 16.0071V16.0161C9.81223 16.0251 9.80623 16.0311 9.80623 16.0395C9.80023 16.0599 9.79183 16.0839 9.78583 16.1043C9.77143 16.1547 9.75344 16.2075 9.73904 16.2609C9.73304 16.2813 9.72704 16.3053 9.72164 16.3257C9.70964 16.3731 9.69824 16.4205 9.68624 16.4673C9.68024 16.4937 9.67424 16.5177 9.66884 16.5441C9.65984 16.5885 9.64844 16.6329 9.63944 16.6797C9.63344 16.7061 9.63044 16.7361 9.62504 16.7625C9.61604 16.8069 9.61064 16.8513 9.60164 16.8927C9.59864 16.9221 9.59264 16.9485 9.58964 16.9785C9.58364 17.0229 9.57764 17.0673 9.57224 17.1087C9.56924 17.1351 9.56624 17.1621 9.56324 17.1915C9.55724 17.2359 9.55424 17.2833 9.55124 17.3277C9.55124 17.3511 9.55124 17.3721 9.54824 17.3955C9.53925 17.5197 9.53625 17.6409 9.53625 17.765C9.53625 17.8508 9.53625 17.9366 9.54225 18.0218C9.54225 18.0512 9.54524 18.0806 9.54824 18.1106L9.54644 18.1124Z" fill="#E6DAFE"/>
<path d="M13.4433 18.5078L13.4403 18.5138C13.4199 18.5288 13.3995 18.5432 13.3815 18.5612C13.3581 18.5816 13.3347 18.6026 13.3113 18.623C13.2849 18.6464 13.2585 18.6704 13.2351 18.6938C13.2177 18.7112 13.1973 18.7292 13.1793 18.7472C13.1355 18.7916 13.0941 18.836 13.0533 18.8828C13.0533 18.8828 13.0473 18.8888 13.0473 18.8918C13.0269 18.9152 13.0095 18.9392 12.9915 18.9626C12.9771 18.98 12.9621 19.001 12.9477 19.019C12.9417 19.028 12.9363 19.034 12.9303 19.0424C12.7635 19.2728 12.6315 19.5296 12.5409 19.8074C12.4737 20.0113 12.4323 20.2237 12.4149 20.4397C12.4089 20.5105 12.4059 20.5843 12.4059 20.6557C12.4059 21.9025 13.2201 22.9482 14.3558 23.2764H14.3618C14.3996 23.2884 14.441 23.2968 14.4818 23.3088C14.4878 23.3088 14.4962 23.3088 14.5022 23.3118C14.5376 23.3208 14.5754 23.3268 14.6108 23.3352C14.6228 23.3352 14.6312 23.3382 14.6432 23.3412C14.6756 23.3472 14.7074 23.3532 14.7428 23.3562C14.7572 23.3562 14.7692 23.3592 14.7836 23.3622C14.813 23.3652 14.8448 23.3682 14.8742 23.3712C14.8916 23.3712 14.9066 23.3712 14.924 23.3742C14.9564 23.3742 14.9882 23.3802 15.0176 23.3802H15.1904C15.2342 23.3802 15.281 23.3772 15.3248 23.3742C15.3602 23.3742 15.392 23.3742 15.4274 23.3712C15.5126 23.3652 15.5972 23.3592 15.6824 23.3508C15.7148 23.3478 15.7436 23.3418 15.776 23.3388C15.8318 23.3328 15.887 23.3268 15.9428 23.3184C15.9782 23.3124 16.016 23.3064 16.0514 23.3004C16.1012 23.2914 16.151 23.2824 16.2008 23.274C16.2356 23.268 16.271 23.259 16.3064 23.2506C16.3591 23.2386 16.4089 23.2272 16.4587 23.2152C16.4911 23.2062 16.5229 23.2002 16.5553 23.1918C16.6141 23.1768 16.6723 23.1594 16.7281 23.1414C16.7515 23.1354 16.7749 23.1264 16.7983 23.121C17.4895 22.9026 18.1279 22.551 18.681 22.0873C18.678 22.0873 18.675 22.0903 18.669 22.0933C18.3121 22.2558 17.9281 22.362 17.5303 22.4034C17.4073 22.4154 17.2843 22.4214 17.1613 22.4214C15.1472 22.4214 13.5075 20.7667 13.5075 18.734C13.5075 18.6392 13.5105 18.548 13.5195 18.4532C13.4931 18.4706 13.4697 18.4916 13.4433 18.5096V18.5078Z" fill="#E6DAFE"/>
<path d="M7.54372 20.7475H7.54072L5.14863 25.8173C4.67165 26.8276 5.40062 27.9916 6.50997 27.9916H9.84462L10.4158 26.7862C8.71787 25.2203 7.69012 23.052 7.54372 20.7475Z" fill="#E6DAFE"/>
<path d="M27.6489 25.8173L25.2568 20.7475C25.1044 23.1762 23.986 25.4273 22.1297 27.0112L22.5923 27.9922H26.2869C27.3939 27.9922 28.1258 26.8252 27.6483 25.8179L27.6489 25.8173Z" fill="#E6DAFE"/>
<path d="M14.1692 10.7381V10.7411C14.213 10.431 14.0108 10.0944 13.6946 9.96118C13.5573 9.90238 13.4253 9.88439 13.3023 9.89339C12.7785 9.93178 12.3741 10.4784 12.2103 10.8239L11.6367 12.0413C12.0963 11.6777 12.7287 11.3291 13.5195 11.2433C13.8968 11.2019 14.1284 11.0219 14.1692 10.7381Z" fill="#E6DAFE"/>
</svg>
