<svg width="32" height="32" viewBox="0 0 32 32" fill="none" xmlns="http://www.w3.org/2000/svg">
<path d="M16 3C8.8175 3 3 8.8175 3 16C3 23.1825 8.8175 29 16 29C23.1825 29 29 23.1825 29 16C29 8.8175 23.1825 3 16 3ZM10.5806 8.1025C11.1412 7.52563 11.6044 7.0625 11.6125 7.0625C11.6206 7.0625 12.6037 8.05375 13.7981 9.2725C14.9925 10.4912 15.9838 11.4825 16 11.4825C16.0162 11.4825 17.0075 10.4912 18.2019 9.2725L20.3794 7.0625L21.4112 8.11062L22.4431 9.15875L19.9569 11.6937L17.4706 14.2287V18.9656H14.5619V14.2287L12.0675 11.6856L9.57313 9.1425L10.5969 8.1025H10.5806ZM23.2394 18.5756C22.8331 21.3625 20.9319 23.6619 18.3075 24.5556C17.3975 24.8644 16.4712 24.9862 15.5531 24.9212C14.0094 24.8156 12.6281 24.2712 11.4175 23.2962C11.1494 23.0769 10.5156 22.435 10.2962 22.1587C8.98812 20.485 8.44375 18.34 8.785 16.2519C8.90687 15.5206 9.09375 14.9194 9.41875 14.2206C9.48375 14.0744 9.54875 13.9525 9.55687 13.9525C9.565 13.9525 10.0687 14.4562 10.6781 15.0737L11.7831 16.195L11.7262 16.4469C11.6369 16.8369 11.6044 17.1375 11.6206 17.6331C11.6369 18.3156 11.7669 18.8519 12.0431 19.4369C12.6606 20.7206 13.7494 21.5819 15.1387 21.8906C15.3662 21.9394 15.4719 21.9475 15.9919 21.9475C16.52 21.9475 16.6094 21.9475 16.8531 21.8906C18.2506 21.5819 19.3962 20.6719 19.9812 19.3881C20.2819 18.73 20.4037 18.0963 20.3794 17.3163C20.3631 16.91 20.3144 16.5769 20.225 16.2519C20.2169 16.2112 20.4281 15.9837 21.3138 15.0737L22.4187 13.9444L22.4675 14.0256C22.5975 14.245 22.8575 14.8788 22.9794 15.3013C23.2963 16.3575 23.3775 17.5113 23.2231 18.5838L23.2394 18.5756Z" fill="#E6DAFE"/>
</svg>
