<svg width="32" height="32" viewBox="0 0 32 32" fill="none" xmlns="http://www.w3.org/2000/svg">
<path d="M22.5976 20.4098C21.9099 21.6067 20.6378 22.3423 19.2596 22.3423H17.0301V14.8235L13.8123 20.4116C13.1246 21.6076 11.8525 22.3442 10.4743 22.3442H8.25986V11.2477H12.714V18.7478L17.0301 11.2515V11.2477H21.4824V18.7788L26.1602 10.6512C26.349 10.3214 26.3462 9.91177 26.1414 9.59046C23.9834 6.18289 20.1587 3.93654 15.8135 4.00137C9.18621 4.10471 3.96634 9.4392 4.00016 16.0655C4.03492 22.6627 9.39478 28 15.9985 28C22.6023 28 27.9969 22.6279 27.9969 16.0016C27.9969 14.9343 27.856 13.899 27.5929 12.9125C27.514 12.6138 27.1147 12.5583 26.9606 12.8252L22.5957 20.4079L22.5976 20.4098Z" fill="#E6DAFE"/>
</svg>
