<svg width="32" height="32" viewBox="0 0 32 32" fill="none" xmlns="http://www.w3.org/2000/svg">
<path fill-rule="evenodd" clip-rule="evenodd" d="M29 16C29 23.1797 23.1797 29 16 29C8.82029 29 3 23.1797 3 16C3 8.82029 8.82029 3 16 3C23.1797 3 29 8.82029 29 16ZM10.9721 10.4775L15.8354 15.341V10.7211C15.8354 10.6753 15.8445 10.6299 15.8622 10.5876C15.8797 10.5453 15.9056 10.5069 15.938 10.4747C15.9706 10.4424 16.0092 10.4169 16.0516 10.3996C16.094 10.3823 16.1394 10.3736 16.1851 10.3739H21.6538C21.6587 10.3737 21.6638 10.3736 21.6687 10.3737C21.6728 10.3736 21.677 10.3737 21.6811 10.3738C21.7251 10.3745 21.7684 10.3834 21.8089 10.4002C21.8511 10.4176 21.8894 10.4432 21.9216 10.4755C21.9539 10.5077 21.9795 10.546 21.997 10.5881C22.0143 10.6302 22.0234 10.6754 22.0234 10.721V16.1527C22.0249 16.1663 22.0258 16.1799 22.0258 16.1938V21.6661C22.0261 21.7119 22.0174 21.7574 22.0001 21.7998C21.9827 21.8422 21.9573 21.8808 21.925 21.9134C21.8927 21.9458 21.8544 21.9717 21.8121 21.9893C21.7698 22.0068 21.7244 22.0159 21.6785 22.0159C21.6304 22.0167 21.5826 22.0076 21.5381 21.9894C21.4935 21.9712 21.4532 21.944 21.4195 21.9097H21.4169L16.5531 17.0459V21.6662C16.5534 21.7121 16.5446 21.7575 16.5274 21.7999C16.5101 21.8423 16.4846 21.8809 16.4523 21.9135C16.42 21.9459 16.3817 21.9718 16.3394 21.9893C16.2971 22.007 16.2517 22.016 16.2058 22.016H10.7231C10.7208 22.016 10.7185 22.016 10.7162 22.016C10.7147 22.016 10.7132 22.016 10.7117 22.016C10.7089 22.0159 10.706 22.0157 10.7032 22.0156C10.6607 22.0146 10.6186 22.006 10.5792 21.9899C10.5367 21.9723 10.4979 21.9466 10.4654 21.914C10.4329 21.8815 10.4071 21.8427 10.3897 21.8002C10.3722 21.7575 10.3634 21.7119 10.3637 21.6659V16.1935C10.3637 16.1659 10.367 16.1383 10.3735 16.1117V10.7211C10.374 10.652 10.3949 10.5845 10.4337 10.5272C10.4725 10.47 10.5274 10.4255 10.5914 10.3995C10.6555 10.3734 10.7258 10.3669 10.7936 10.3808C10.8613 10.3947 10.9234 10.4283 10.9721 10.4775Z" fill="#E6DAFE"/>
</svg>
