<svg width="32" height="32" viewBox="0 0 32 32" fill="none" xmlns="http://www.w3.org/2000/svg">
<g clip-path="url(#clip0_6_4768)">
<path d="M16.0003 16.6176C16.3413 16.6176 16.6178 16.3411 16.6178 16.0001C16.6178 15.659 16.3413 15.3826 16.0003 15.3826C15.6593 15.3826 15.3828 15.659 15.3828 16.0001C15.3828 16.3411 15.6593 16.6176 16.0003 16.6176Z" fill="#E6DAFE"/>
<path d="M16 3.25C13.4783 3.25 11.0132 3.99777 8.91648 5.39876C6.81976 6.79975 5.18556 8.79103 4.22054 11.1208C3.25552 13.4505 3.00303 16.0141 3.49499 18.4874C3.98696 20.9607 5.20127 23.2325 6.98439 25.0156C8.76751 26.7987 11.0393 28.0131 13.5126 28.505C15.9859 28.997 18.5495 28.7445 20.8792 27.7795C23.209 26.8144 25.2003 25.1802 26.6012 23.0835C28.0022 20.9868 28.75 18.5217 28.75 16C28.75 12.6185 27.4067 9.37548 25.0156 6.98439C22.6245 4.5933 19.3815 3.25 16 3.25V3.25ZM21.9525 21.4025C21.1388 22.319 20.1234 23.0342 18.9865 23.4919C17.8495 23.9496 16.6218 24.1372 15.4 24.04C13.3198 23.8843 11.381 22.9284 9.9908 21.3731C8.60062 19.8179 7.86734 17.7843 7.94501 15.6998C8.02269 13.6152 8.90527 11.6419 10.4073 10.1944C11.9094 8.74697 13.914 7.938 16 7.9375C17.7005 7.97395 19.3499 8.52578 20.73 9.52C20.7748 9.55488 20.8115 9.59919 20.8373 9.64979C20.8631 9.70039 20.8774 9.75605 20.8793 9.81282C20.8812 9.86959 20.8706 9.92608 20.8483 9.9783C20.8259 10.0305 20.7924 10.0772 20.75 10.115L20 10.8075C19.9137 10.8871 19.8029 10.9351 19.6858 10.9437C19.5687 10.9523 19.4521 10.9211 19.355 10.855C18.6864 10.3828 17.9153 10.0761 17.105 9.96C13.41 9.4275 9.94251 12.1275 9.85501 15.86C9.82778 17.0775 10.1644 18.2754 10.8217 19.3005C11.4791 20.3256 12.4273 21.1312 13.5451 21.6144C14.6629 22.0976 15.8994 22.2364 17.0965 22.0129C18.2936 21.7894 19.3968 21.2139 20.265 20.36C20.3457 20.2756 20.4525 20.2208 20.5682 20.2045C20.6838 20.1881 20.8016 20.2112 20.9025 20.27L21.825 20.8075C21.8769 20.834 21.9222 20.8718 21.9577 20.918C21.9931 20.9642 22.0179 21.0177 22.0301 21.0747C22.0423 21.1317 22.0417 21.1907 22.0282 21.2474C22.0148 21.304 21.989 21.357 21.9525 21.4025V21.4025ZM22.4125 15.1725C22.0277 15.1725 21.6516 15.0584 21.3317 14.8445C21.0118 14.6307 20.7625 14.3268 20.6153 13.9712C20.4682 13.6157 20.4298 13.2245 20.5051 12.8471C20.5803 12.4698 20.7658 12.1232 21.0381 11.8513C21.3103 11.5794 21.6571 11.3943 22.0346 11.3196C22.412 11.2448 22.8032 11.2837 23.1586 11.4313C23.5139 11.5789 23.8175 11.8286 24.0309 12.1487C24.2443 12.4689 24.358 12.8452 24.3575 13.23C24.3568 13.7454 24.1516 14.2395 23.7869 14.6037C23.4223 14.9679 22.9279 15.1725 22.4125 15.1725Z" fill="#E6DAFE"/>
</g>
<defs>
<clipPath id="clip0_6_4768">
<rect width="32" height="32" fill="white"/>
</clipPath>
</defs>
</svg>
