<svg width="32" height="32" viewBox="0 0 32 32" fill="none" xmlns="http://www.w3.org/2000/svg">
<g clip-path="url(#clip0_6_4869)">
<path d="M25.4126 18.8319V6.05582C25.4126 5.19877 25.4446 4.6147 24.4228 4.21375C24.0742 4.07692 23.7039 3.98775 23.3227 3.89449C22.5514 3.70456 21.7577 3.55071 20.9585 3.42206C19.2397 3.14636 17.4725 3 15.7066 3C13.1777 3 10.5358 3.30565 8.09057 3.89449C7.31181 4.08169 6.49561 4.29067 6.18315 4.82777C5.96327 5.20626 6.00276 5.59088 6.00276 6.05582V18.8312C6.00276 19.7754 5.95851 20.5126 6.34108 21.322C6.49493 21.6481 6.6869 21.9748 6.88635 22.1967C7.23148 22.5813 7.21038 22.5623 7.62427 22.8781L14.8918 28.386C15.1661 28.5963 15.4235 28.8026 15.706 29L23.3867 23.1865C23.5242 23.081 23.6501 22.9782 23.789 22.8795C24.3064 22.5112 24.7625 22.0238 25.0783 21.3295C25.4623 20.484 25.4126 19.8101 25.4126 18.8319ZM23.1804 5.45201L23.4153 4.70048L23.6501 5.45201L24.416 5.45065L23.7958 5.91355L24.0341 6.6644L23.4153 6.19877L22.7965 6.6644L23.0348 5.91355L22.4146 5.45065L23.1804 5.45201ZM17.934 7.55412C18.1403 7.40163 18.2029 7.22464 18.2819 7.13206C18.757 7.20014 19.0858 7.23213 19.4718 6.98298C19.7863 6.78012 19.964 6.48741 19.8864 5.96256L21.239 6.18312C21.1641 6.26549 20.0926 7.06331 19.9708 7.15725C19.5446 7.484 19.1314 7.79306 18.7039 8.12117C18.2751 8.44997 17.8489 8.76174 17.4221 9.09054L16.1607 10.0408V7.41797C16.2723 7.44588 16.5228 7.60381 16.6951 7.6644C17.1287 7.8162 17.5576 7.83254 17.9347 7.5548L17.934 7.55412ZM18.8612 11.3424L18.2424 10.8768L17.6236 11.3424L17.8618 10.5916L17.2417 10.1287L18.0075 10.13L18.2431 9.37849L18.4779 10.13L19.2437 10.1287L18.6236 10.5916L18.8618 11.3424H18.8612ZM15.2594 4.44248L15.4949 3.69095L15.7298 4.44248L16.4956 4.44112L15.8755 4.90402L16.1137 5.65419L15.4956 5.18856L14.8768 5.65419L15.1151 4.90402L14.4949 4.44112L15.2608 4.44248H15.2594ZM8.75497 6.48196C9.26144 6.34718 9.99867 6.18516 10.5365 6.12117C10.6202 6.55888 10.8081 6.83594 11.2199 7.0354C11.6991 7.26753 12.0218 7.21852 12.5433 7.13751C12.6202 7.22056 12.6277 7.28455 12.7162 7.36487C12.9422 7.56978 13.0865 7.70048 13.4983 7.77944C14.1634 7.90674 14.45 7.69095 14.8312 7.61811V11.0252C14.806 11.1048 14.7121 11.1491 14.6454 11.2001L11.6501 13.4683L11.6624 13.1436C11.7393 13.0756 11.7781 13.0667 11.8537 12.9918C12.0633 12.7856 12.1423 12.712 12.3009 12.405C12.4602 12.0967 12.5719 11.6875 12.5644 11.288C12.4493 11.3199 12.384 11.3506 12.2505 11.356L12.3724 11.3002C12.6202 11.209 12.7897 11.0545 12.9524 10.8462C13.1212 10.6297 13.2662 10.369 13.3561 10.0531C13.484 9.60313 13.7951 8.58679 13.8816 8.20014C13.2914 8.15521 13.1253 8.67393 12.772 9.20558C12.6188 9.43635 12.6617 9.40776 12.4418 9.56025C12.3608 9.53574 12.2015 9.39074 12.1151 9.32403C11.9394 9.1872 11.9701 9.24438 11.9095 8.98162C11.7836 8.43499 11.7454 8.60926 11.9925 8.1627C12.0715 8.01974 12.1239 7.94282 12.1137 7.742C12.1062 7.60109 12.045 7.40572 11.9258 7.38598C11.8271 7.37032 11.2798 7.75289 11.2553 7.78421C11.1348 7.75698 11.0967 7.6889 10.9483 7.76651C10.8237 7.83186 10.531 8.07284 10.4834 8.09394C10.3887 8.13547 10.2288 8.08713 10.1117 8.11028C9.95715 8.28863 10.0933 8.43499 10.1743 8.58815C10.2553 8.74132 10.307 8.90334 10.3438 9.0885C10.5337 10.0408 10.1028 11.5494 9.65422 12.3138C9.57049 12.4568 9.47791 12.5929 9.40235 12.7318C9.24782 13.015 9.56981 13.0844 9.60317 13.1123C9.66783 13.1668 9.78152 13.4595 9.81555 13.5698C9.87069 13.7502 9.90065 13.9503 9.91086 14.1477C9.91903 14.3043 9.90677 14.6304 9.86865 14.7767C9.84142 14.8822 9.6127 15.0225 9.51739 15.096L8.75429 15.6658L8.75565 6.48196H8.75497ZM13.6433 15.1157L13.0245 14.6501L12.4058 15.1157L12.644 14.3656L12.0239 13.9027L12.7897 13.904L13.0245 13.1525L13.2594 13.904L14.0252 13.9027L13.4051 14.3656L13.6433 15.1157ZM7.17771 5.47447L7.41324 4.72294L7.64809 5.47447L8.41392 5.47311L7.79377 5.93601L8.03203 6.68618L7.41324 6.22056L6.79445 6.68618L7.03271 5.93601L6.41256 5.47311L7.17839 5.47447H7.17771ZM6.28186 11.2982L7.04769 11.2995L7.28254 10.548L7.51739 11.2995L8.28322 11.2982L7.66307 11.7611L7.90133 12.5112L7.28254 12.0456L6.66375 12.5112L6.90201 11.7611L6.28186 11.2982ZM6.51331 17.9415L7.27914 17.9428L7.51399 17.1913L7.74952 17.9428L8.51535 17.9415L7.8952 18.4044L8.13346 19.1545L7.51467 18.6889L6.89656 19.1545L7.13482 18.4044L6.51467 17.9415H6.51331ZM9.05722 22.9346V19.2383C9.15592 19.1491 9.28526 19.0633 9.38941 18.9823L11.3881 17.4527C11.4616 17.3948 11.642 17.2437 11.7148 17.2131L11.7066 24.9551C11.61 24.8462 9.34585 23.2029 9.05722 22.9346ZM15.7073 27.9775C15.6222 27.9347 15.4582 27.7944 15.3697 27.7263C15.2451 27.631 14.4153 27.0204 14.3772 26.9619L14.3758 15.1784C14.4588 15.0865 14.5848 15.0082 14.6964 14.921C14.8128 14.8305 14.9122 14.7583 15.0293 14.6658L16.3506 13.6549C16.4691 13.5623 16.561 13.4963 16.6835 13.4003C16.7951 13.3131 16.8986 13.228 17.0171 13.1538C17.0538 13.224 17.0327 24.0483 17.0327 26.111C17.0327 26.3268 17.0572 26.7937 17.0239 26.9789L15.706 27.9775H15.7073ZM21.0307 23.9517L19.7005 24.9585L19.6964 11.096L22.3445 9.0776L22.354 22.9367C22.2962 23.0061 21.1409 23.8673 21.0307 23.9517Z" fill="#E6DAFE"/>
</g>
<defs>
<clipPath id="clip0_6_4869">
<rect width="19.4146" height="26" fill="white" transform="translate(6 3)"/>
</clipPath>
</defs>
</svg>
