<svg width="32" height="32" viewBox="0 0 32 32" fill="none" xmlns="http://www.w3.org/2000/svg">
<path d="M16.0002 18.5326L8.57524 14.2176C7.69024 15.8451 7.11274 17.4426 7.07524 19.3026C7.00024 24.2276 11.0752 28.2201 15.9927 28.2201C17.1644 28.2211 18.3248 27.9911 19.4076 27.5434C20.4904 27.0957 21.4744 26.439 22.3032 25.6109C23.1321 24.7827 23.7896 23.7993 24.2382 22.7169C24.6868 21.6345 24.9177 20.4743 24.9177 19.3026C24.9177 17.6126 24.4327 16.0076 23.4452 14.2051L16.0002 18.5326Z" fill="#E6DAFE"/>
<path d="M15.9997 5.47993L20.3472 12.0199L15.9997 14.5474L11.6497 12.0199L15.9997 5.47993ZM15.9997 2.86743L9.59473 12.4999L15.9997 16.2199L22.4022 12.4999L15.9997 2.86743V2.86743Z" fill="#E6DAFE"/>
</svg>
