<?xml version="1.0" encoding="UTF-8"?>
<!DOCTYPE svg PUBLIC "-//W3C//DTD SVG 1.1//EN" "http://www.w3.org/Graphics/SVG/1.1/DTD/svg11.dtd">
<svg xmlns="http://www.w3.org/2000/svg" version="1.1" width="64px" height="64px" style="shape-rendering:geometricPrecision; text-rendering:geometricPrecision; image-rendering:optimizeQuality; fill-rule:evenodd; clip-rule:evenodd" xmlns:xlink="http://www.w3.org/1999/xlink">
<g><path style="opacity:1" fill="#123538" d="M -0.5,-0.5 C 6.83333,-0.5 14.1667,-0.5 21.5,-0.5C 14.6854,5.26528 7.35203,10.2653 -0.5,14.5C -0.5,9.5 -0.5,4.5 -0.5,-0.5 Z"/></g>
<g><path style="opacity:1" fill="#102d30" d="M 21.5,-0.5 C 25.8333,-0.5 30.1667,-0.5 34.5,-0.5C 33.0425,1.01079 31.2092,2.01079 29,2.5C 22.2946,6.24035 15.4613,10.5737 8.5,15.5C 7.57131,16.6888 7.23798,18.0222 7.5,19.5C 6.5,19.5 5.5,19.5 4.5,19.5C 4.25422,22.4701 2.58755,23.8034 -0.5,23.5C -0.5,20.5 -0.5,17.5 -0.5,14.5C 7.35203,10.2653 14.6854,5.26528 21.5,-0.5 Z"/></g>
<g><path style="opacity:1" fill="#0d2729" d="M 34.5,-0.5 C 37.1667,-0.5 39.8333,-0.5 42.5,-0.5C 37.4857,3.8371 32.1523,7.8371 26.5,11.5C 25.6143,12.325 25.281,13.325 25.5,14.5C 22.1501,14.335 18.8168,14.5017 15.5,15C 14.6198,16.3561 14.2865,17.8561 14.5,19.5C 13.7321,18.7375 13.2321,17.7375 13,16.5C 11.885,18.9081 10.2184,20.9081 8,22.5C 7.66667,22.1667 7.33333,21.8333 7,21.5C 5.87201,23.3453 5.37201,25.3453 5.5,27.5C 3.29719,27.6036 1.29719,28.2702 -0.5,29.5C -0.5,27.5 -0.5,25.5 -0.5,23.5C 2.58755,23.8034 4.25422,22.4701 4.5,19.5C 5.5,19.5 6.5,19.5 7.5,19.5C 7.23798,18.0222 7.57131,16.6888 8.5,15.5C 15.4613,10.5737 22.2946,6.24035 29,2.5C 31.2092,2.01079 33.0425,1.01079 34.5,-0.5 Z"/></g>
<g><path style="opacity:1" fill="#08191a" d="M 50.5,-0.5 C 54.8333,-0.5 59.1667,-0.5 63.5,-0.5C 63.5,0.833333 63.5,2.16667 63.5,3.5C 60.4017,3.41253 60.0684,3.91253 62.5,5C 57.3247,7.37009 52.3247,10.0368 47.5,13C 48.999,13.8382 49.3324,14.6715 48.5,15.5C 45.9272,14.4448 43.2605,14.2782 40.5,15C 39.8333,17.6667 39.1667,20.3333 38.5,23C 34.9743,24.3368 31.3076,24.8368 27.5,24.5C 27.5,21.5 27.5,18.5 27.5,15.5C 30.7249,14.1169 33.5582,12.1169 36,9.5C 36.7175,10.4506 37.5509,10.6172 38.5,10C 37.1667,9.33333 37.1667,8.66667 38.5,8C 43.0317,5.78954 47.0317,2.95621 50.5,-0.5 Z"/></g>
<g><path style="opacity:1" fill="#0b2022" d="M 42.5,-0.5 C 45.1667,-0.5 47.8333,-0.5 50.5,-0.5C 47.0317,2.95621 43.0317,5.78954 38.5,8C 37.1667,8.66667 37.1667,9.33333 38.5,10C 37.5509,10.6172 36.7175,10.4506 36,9.5C 33.5582,12.1169 30.7249,14.1169 27.5,15.5C 26.8333,15.1667 26.1667,14.8333 25.5,14.5C 25.281,13.325 25.6143,12.325 26.5,11.5C 32.1523,7.8371 37.4857,3.8371 42.5,-0.5 Z"/></g>
<g><path style="opacity:1" fill="#040c0c" d="M 63.5,3.5 C 63.5,7.83333 63.5,12.1667 63.5,16.5C 55.551,20.1445 48.2177,24.8112 41.5,30.5C 40.2371,32.0287 39.2371,33.6954 38.5,35.5C 36.9392,31.6588 37.4392,27.9922 40,24.5C 42.5645,22.8207 45.3979,22.154 48.5,22.5C 48.5,20.1667 48.5,17.8333 48.5,15.5C 49.3324,14.6715 48.999,13.8382 47.5,13C 52.3247,10.0368 57.3247,7.37009 62.5,5C 60.0684,3.91253 60.4017,3.41253 63.5,3.5 Z"/></g>
<g><path style="opacity:1" fill="#33fedb" d="M 25.5,14.5 C 26.1667,14.8333 26.8333,15.1667 27.5,15.5C 27.5,18.5 27.5,21.5 27.5,24.5C 25.8784,25.1224 24.5451,26.1224 23.5,27.5C 21.5,27.5 19.5,27.5 17.5,27.5C 16.5041,27.5858 15.6708,27.2524 15,26.5C 14.5034,24.1902 14.3367,21.8568 14.5,19.5C 14.2865,17.8561 14.6198,16.3561 15.5,15C 18.8168,14.5017 22.1501,14.335 25.5,14.5 Z"/></g>
<g><path style="opacity:1" fill="#020404" d="M 63.5,16.5 C 63.5,21.1667 63.5,25.8333 63.5,30.5C 59.296,33.3572 54.9627,36.1906 50.5,39C 49.552,39.4828 48.552,39.6495 47.5,39.5C 43.4251,40.341 40.4251,39.0076 38.5,35.5C 39.2371,33.6954 40.2371,32.0287 41.5,30.5C 48.2177,24.8112 55.551,20.1445 63.5,16.5 Z"/></g>
<g><path style="opacity:1" fill="#3bfcda" d="M 48.5,15.5 C 48.5,17.8333 48.5,20.1667 48.5,22.5C 45.3979,22.154 42.5645,22.8207 40,24.5C 37.4392,27.9922 36.9392,31.6588 38.5,35.5C 40.4251,39.0076 43.4251,40.341 47.5,39.5C 48.1098,40.391 48.4431,41.391 48.5,42.5C 48.6747,44.6208 48.3414,46.6208 47.5,48.5C 45.1667,48.5 42.8333,48.5 40.5,48.5C 40.7947,46.2646 40.4614,44.2646 39.5,42.5C 37.3121,37.8903 33.6454,36.3903 28.5,38C 27.944,38.3826 27.6107,38.8826 27.5,39.5C 26.7326,38.828 26.0659,37.9947 25.5,37C 22.1832,36.5017 18.8499,36.335 15.5,36.5C 18.2869,35.5233 21.2869,35.19 24.5,35.5C 24.8064,32.6146 24.4731,29.9479 23.5,27.5C 24.5451,26.1224 25.8784,25.1224 27.5,24.5C 31.3076,24.8368 34.9743,24.3368 38.5,23C 39.1667,20.3333 39.8333,17.6667 40.5,15C 43.2605,14.2782 45.9272,14.4448 48.5,15.5 Z"/></g>
<g><path style="opacity:1" fill="#0b1f20" d="M 14.5,19.5 C 14.3367,21.8568 14.5034,24.1902 15,26.5C 15.6708,27.2524 16.5041,27.5858 17.5,27.5C 16.5251,29.1927 15.1918,30.6927 13.5,32C 8.93291,34.9206 4.26625,37.7539 -0.5,40.5C -0.5,36.8333 -0.5,33.1667 -0.5,29.5C 1.29719,28.2702 3.29719,27.6036 5.5,27.5C 5.37201,25.3453 5.87201,23.3453 7,21.5C 7.33333,21.8333 7.66667,22.1667 8,22.5C 10.2184,20.9081 11.885,18.9081 13,16.5C 13.2321,17.7375 13.7321,18.7375 14.5,19.5 Z"/></g>
<g><path style="opacity:1" fill="#071415" d="M 17.5,27.5 C 19.5,27.5 21.5,27.5 23.5,27.5C 24.4731,29.9479 24.8064,32.6146 24.5,35.5C 21.2869,35.19 18.2869,35.5233 15.5,36.5C 15.1667,36.5 14.8333,36.5 14.5,36.5C 9.62547,39.768 4.62547,42.768 -0.5,45.5C -0.5,43.8333 -0.5,42.1667 -0.5,40.5C 4.26625,37.7539 8.93291,34.9206 13.5,32C 15.1918,30.6927 16.5251,29.1927 17.5,27.5 Z"/></g>
<g><path style="opacity:1" fill="#061112" d="M 63.5,30.5 C 63.5,33.5 63.5,36.5 63.5,39.5C 58.8424,42.0726 54.5091,45.0726 50.5,48.5C 50.1899,46.6755 49.5233,44.6755 48.5,42.5C 48.4431,41.391 48.1098,40.391 47.5,39.5C 48.552,39.6495 49.552,39.4828 50.5,39C 54.9627,36.1906 59.296,33.3572 63.5,30.5 Z"/></g>
<g><path style="opacity:1" fill="#32fedb" d="M 14.5,36.5 C 14.8333,36.5 15.1667,36.5 15.5,36.5C 18.8499,36.335 22.1832,36.5017 25.5,37C 26.0659,37.9947 26.7326,38.828 27.5,39.5C 27.6641,42.1873 27.4974,44.854 27,47.5C 26.6174,48.056 26.1174,48.3893 25.5,48.5C 22.1667,48.5 18.8333,48.5 15.5,48.5C 14.5701,44.6002 14.2367,40.6002 14.5,36.5 Z"/></g>
<g><path style="opacity:1" fill="#091b1b" d="M 63.5,39.5 C 63.5,41.1667 63.5,42.8333 63.5,44.5C 62.5041,44.5858 61.6708,44.2524 61,43.5C 60.6905,44.7659 60.1905,45.9326 59.5,47C 51.2601,52.2757 43.2601,57.7757 35.5,63.5C 33.1667,63.5 30.8333,63.5 28.5,63.5C 34.9522,58.767 41.6189,54.267 48.5,50C 47.944,49.6174 47.6107,49.1174 47.5,48.5C 48.3414,46.6208 48.6747,44.6208 48.5,42.5C 49.5233,44.6755 50.1899,46.6755 50.5,48.5C 54.5091,45.0726 58.8424,42.0726 63.5,39.5 Z"/></g>
<g><path style="opacity:1" fill="#030808" d="M 39.5,42.5 C 39.6567,43.8734 39.49,45.2068 39,46.5C 36.5184,47.9977 34.0184,49.4977 31.5,51C 30.6634,52.0113 30.33,53.1779 30.5,54.5C 24.3778,56.618 18.7112,59.618 13.5,63.5C 12.1667,63.5 10.8333,63.5 9.5,63.5C 10.8814,60.0115 13.5481,58.1781 17.5,58C 19.741,54.2044 23.0743,51.871 27.5,51C 27.8333,50.6667 28.1667,50.3333 28.5,50C 27.2625,49.7679 26.2625,49.2679 25.5,48.5C 26.1174,48.3893 26.6174,48.056 27,47.5C 27.4974,44.854 27.6641,42.1873 27.5,39.5C 27.6107,38.8826 27.944,38.3826 28.5,38C 33.6454,36.3903 37.3121,37.8903 39.5,42.5 Z"/></g>
<g><path style="opacity:1" fill="#040b0c" d="M 14.5,36.5 C 14.2367,40.6002 14.5701,44.6002 15.5,48.5C 10.5198,52.0962 5.18642,55.4295 -0.5,58.5C -0.5,54.1667 -0.5,49.8333 -0.5,45.5C 4.62547,42.768 9.62547,39.768 14.5,36.5 Z"/></g>
<g><path style="opacity:1" fill="#020203" d="M 15.5,48.5 C 18.8333,48.5 22.1667,48.5 25.5,48.5C 26.2625,49.2679 27.2625,49.7679 28.5,50C 28.1667,50.3333 27.8333,50.6667 27.5,51C 23.0743,51.871 19.741,54.2044 17.5,58C 13.5481,58.1781 10.8814,60.0115 9.5,63.5C 6.16667,63.5 2.83333,63.5 -0.5,63.5C -0.5,61.8333 -0.5,60.1667 -0.5,58.5C 5.18642,55.4295 10.5198,52.0962 15.5,48.5 Z"/></g>
<g><path style="opacity:1" fill="#061112" d="M 39.5,42.5 C 40.4614,44.2646 40.7947,46.2646 40.5,48.5C 42.8333,48.5 45.1667,48.5 47.5,48.5C 47.6107,49.1174 47.944,49.6174 48.5,50C 41.6189,54.267 34.9522,58.767 28.5,63.5C 23.5,63.5 18.5,63.5 13.5,63.5C 18.7112,59.618 24.3778,56.618 30.5,54.5C 30.33,53.1779 30.6634,52.0113 31.5,51C 34.0184,49.4977 36.5184,47.9977 39,46.5C 39.49,45.2068 39.6567,43.8734 39.5,42.5 Z"/></g>
<g><path style="opacity:1" fill="#0d2527" d="M 63.5,44.5 C 63.5,50.8333 63.5,57.1667 63.5,63.5C 54.1667,63.5 44.8333,63.5 35.5,63.5C 43.2601,57.7757 51.2601,52.2757 59.5,47C 60.1905,45.9326 60.6905,44.7659 61,43.5C 61.6708,44.2524 62.5041,44.5858 63.5,44.5 Z"/></g>
</svg>
