<svg width="32" height="32" viewBox="0 0 32 32" fill="none" xmlns="http://www.w3.org/2000/svg">
<path fill-rule="evenodd" clip-rule="evenodd" d="M16.6619 4.89307H6.07128V12.1303L3 12.1303V14.4903H6.07128V17.2698H3V19.8919H6.07128V26.8931H16.6619C21.4542 26.6309 25.3992 22.8812 26.1405 19.8919H29V17.2698H26.8819V14.4903H29V12.1303L26.1405 12.1303C26.22 10.3472 21.7454 4.89312 16.6619 4.89307ZM8.66599 12.1304V7.20071H17.0591C20.0244 7.20071 23.3075 10.793 23.3075 12.1304H8.66599ZM8.66599 24.5593V19.8394H23.334C23.334 21.1199 20.045 24.5593 17.0742 24.5593H8.66599ZM24.2872 14.4902H8.66599V17.2697H24.2872V14.4902Z" fill="#E6DAFE"/>
</svg>
