<svg width="32" height="32" viewBox="0 0 32 32" fill="none" xmlns="http://www.w3.org/2000/svg">
<path d="M16.0077 20.1906C18.3185 20.1906 20.2003 18.3185 20.2003 15.9979C20.2003 13.6773 18.3283 11.8053 16.0077 11.8053C13.6871 11.8053 11.815 13.6773 11.815 15.9979C11.815 18.3185 13.6871 20.1906 16.0077 20.1906Z" fill="#E6DAFE"/>
<path fill-rule="evenodd" clip-rule="evenodd" d="M19.196 3.73202C18.3282 4.45354 17.2167 4.88255 15.9979 4.88255C14.7791 4.88255 13.6773 4.45354 12.8193 3.74177C11.9028 2.99099 10.4207 2.66923 9.57246 3.49801C7.53464 5.50657 5.51632 7.52489 3.50776 9.56271C2.67898 10.411 3.00074 11.893 3.75152 12.8096C4.46329 13.6773 4.8923 14.7791 4.8923 15.9882C4.8923 17.1972 4.46329 18.3185 3.74177 19.1863C2.98124 20.1028 2.65948 21.5751 3.48826 22.4234C5.48707 24.4612 7.51514 26.4795 9.56271 28.4881C10.411 29.3266 11.893 28.9951 12.8096 28.2443C13.6773 27.5325 14.7889 27.1035 15.9979 27.1035C17.207 27.1035 18.3282 27.5325 19.196 28.2541C20.1126 29.0146 21.5946 29.3461 22.4429 28.5076C24.4904 26.5088 26.5088 24.4807 28.5076 22.4429C29.3461 21.5946 29.0146 20.1126 28.2541 19.196C27.5325 18.3282 27.1035 17.2167 27.1035 15.9979C27.1035 14.7791 27.5325 13.6773 28.2443 12.8096C29.0048 11.893 29.3266 10.411 28.4881 9.56271C26.4893 7.52489 24.4709 5.49682 22.4234 3.48826C21.5751 2.65948 20.1028 2.98124 19.1863 3.74177L19.196 3.73202ZM13.6481 7.37864C14.9546 6.07209 17.0705 6.07209 18.3672 7.37864L24.6367 13.6481C25.9432 14.9546 25.9432 17.0705 24.6367 18.3672L18.3672 24.6367C17.0607 25.9432 14.9449 25.9432 13.6481 24.6367L7.37863 18.3672C6.07209 17.0607 6.07209 14.9449 7.37863 13.6481L13.6481 7.37864Z" fill="#E6DAFE"/>
</svg>
