<svg width="32" height="32" viewBox="0 0 32 32" fill="none" xmlns="http://www.w3.org/2000/svg">
<path fill-rule="evenodd" clip-rule="evenodd" d="M6 7.98341V23.9512L6.11568 24.0706C6.29734 24.2579 9.87413 27.9006 9.92796 27.9531L9.9761 28H22.7748L22.8841 27.8905C22.9443 27.8304 23.752 27.0017 24.679 26.049C25.6061 25.0963 26.4425 24.2376 26.5377 24.1407L26.7108 23.9647V7.97154L26.2137 7.47092C25.9403 7.19558 25.3929 6.64388 24.9972 6.24492C24.6016 5.84596 23.938 5.17765 23.5227 4.75977L22.7674 4H9.98341L6 7.98341ZM22.7187 7.99207C22.7466 8.02 22.7398 14.7715 22.7118 14.7956C22.6938 14.8111 17.4834 15.4972 17.2876 15.5098C17.208 15.515 17.235 15.4781 19.0736 13.069C21.1475 10.3514 20.9457 10.6269 20.8922 10.5871C20.8227 10.5354 18.8217 9.3778 18.8019 9.3778C18.7753 9.3778 18.8676 9.16035 17.5986 12.2097C16.5456 14.7399 16.4111 15.0531 16.3873 15.0293C16.3836 15.0255 15.8525 13.7538 15.2071 12.2033C14.0999 9.54307 14.032 9.38406 14.0033 9.38434C13.9712 9.38465 11.921 10.5677 11.8934 10.6018C11.8706 10.63 11.7349 10.4482 13.7284 13.0603C15.5561 15.4552 15.5997 15.5147 15.5232 15.5099C15.3335 15.4981 10.017 14.7985 9.99896 14.783C9.97098 14.759 9.96415 8.02 9.99208 7.99207C10.014 7.97019 22.6968 7.97019 22.7187 7.99207ZM15.5602 16.4877C15.5598 16.5015 14.7387 17.5877 13.7358 18.9015C11.724 21.5368 11.8749 21.3364 11.8842 21.3604C11.8944 21.3865 13.9902 22.6004 14.0112 22.5923C14.0375 22.5822 13.9894 22.6961 15.2294 19.7144C16.4357 16.8138 16.3988 16.8971 16.4385 16.9818C16.4466 16.9989 16.9634 18.2399 17.587 19.7394C18.8636 22.8092 18.7736 22.5972 18.7997 22.5972C18.8163 22.5972 20.7366 21.4898 20.8746 21.4006C20.947 21.3539 21.0383 21.4802 19.0779 18.9115C18.0689 17.5895 17.2433 16.4994 17.2433 16.4891C17.2433 16.4789 17.2481 16.4675 17.254 16.4639C17.2598 16.4602 18.4797 16.6147 19.9648 16.8071C21.4498 16.9994 22.6715 17.1568 22.6797 17.1568C22.6878 17.1568 22.7033 17.1657 22.714 17.1765C22.7401 17.2025 22.7447 23.9819 22.7187 24.0079C22.6968 24.0298 10.014 24.0298 9.99208 24.0079C9.96965 23.9855 9.97028 17.2027 9.9927 17.1852C10.0466 17.143 15.5617 16.4521 15.5602 16.4877Z" fill="#E6DAFE"/>
</svg>
