<?xml version="1.0" encoding="UTF-8"?>
<!DOCTYPE svg PUBLIC "-//W3C//DTD SVG 1.1//EN" "http://www.w3.org/Graphics/SVG/1.1/DTD/svg11.dtd">
<svg xmlns="http://www.w3.org/2000/svg" version="1.1" width="64px" height="64px" style="shape-rendering:geometricPrecision; text-rendering:geometricPrecision; image-rendering:optimizeQuality; fill-rule:evenodd; clip-rule:evenodd" xmlns:xlink="http://www.w3.org/1999/xlink">
<g><path style="opacity:1" fill="#000000" d="M -0.5,-0.5 C 20.8333,-0.5 42.1667,-0.5 63.5,-0.5C 63.5,20.8333 63.5,42.1667 63.5,63.5C 42.1667,63.5 20.8333,63.5 -0.5,63.5C -0.5,42.1667 -0.5,20.8333 -0.5,-0.5 Z"/></g>
<g><path style="opacity:1" fill="#fdfdfd" d="M 25.5,52.5 C 23.1119,51.7813 21.6119,50.1146 21,47.5C 20.0843,39.7616 18.751,32.095 17,24.5C 15.6912,22.0243 13.8579,20.0243 11.5,18.5C 10.1667,16.8333 10.1667,15.1667 11.5,13.5C 13.7649,12.3526 16.0982,12.1859 18.5,13C 20.2415,14.6196 22.0748,16.1196 24,17.5C 27.7454,16.703 31.5787,16.203 35.5,16C 38.3516,14.4091 41.3516,13.0758 44.5,12C 50.7481,11.2373 52.9147,13.7373 51,19.5C 48.3033,21.5395 45.6367,23.5395 43,25.5C 41.9314,33.1095 39.9314,40.4429 37,47.5C 34.4801,52.6863 30.6467,54.353 25.5,52.5 Z"/></g>
<g><path style="opacity:1" fill="#121212" d="M 39.5,16.5 C 40.522,17.8917 40.1887,19.225 38.5,20.5C 38.2635,19.7528 37.9302,18.9195 37.5,18C 38.4158,17.7216 39.0825,17.2216 39.5,16.5 Z"/></g>
<g><path style="opacity:1" fill="#030303" d="M 34.5,25.5 C 38.254,26.8276 39.4207,29.4942 38,33.5C 35.1324,34.8258 32.9657,33.9925 31.5,31C 32.2228,28.9817 33.2228,27.1484 34.5,25.5 Z"/></g>
<g><path style="opacity:1" fill="#030303" d="M 21.5,27.5 C 22.8333,27.5 24.1667,27.5 25.5,27.5C 25.5,29.1667 25.5,30.8333 25.5,32.5C 21.065,33.0776 19.7317,31.4109 21.5,27.5 Z"/></g>
<g><path style="opacity:1" fill="#080808" d="M 25.5,52.5 C 22.9936,49.9422 22.9936,47.2755 25.5,44.5C 30.9408,42.1303 33.4408,43.7969 33,49.5C 31.005,51.747 28.505,52.747 25.5,52.5 Z"/></g>
</svg>
