<svg width="32" height="32" viewBox="0 0 32 32" fill="none" xmlns="http://www.w3.org/2000/svg">
<path fill-rule="evenodd" clip-rule="evenodd" d="M9.96661 11.8714C11.5756 10.94 13.1989 10.0086 14.8078 9.07726C15.2891 8.78995 15.89 8.78995 16.3713 9.07726L18.7656 10.4444C18.8661 10.5066 18.8948 10.6383 18.8326 10.7389C18.8158 10.7652 18.7919 10.7892 18.7656 10.8059L12.914 14.1723C12.7631 14.2585 12.6721 14.4213 12.6745 14.5937V17.4189C12.6745 17.5889 12.7655 17.7445 12.914 17.8235L15.3633 19.2362C15.5046 19.3271 15.6889 19.3271 15.8302 19.2362L25.9292 13.4205C27.6435 12.4292 27.6435 9.57288 25.9292 8.58165L16.8501 3.35016C16.0792 2.88328 15.1119 2.88328 14.3409 3.35016L5.26186 8.58165C4.47654 9.02459 3.9929 9.86019 4.00008 10.7604C4.00008 14.2537 4.01444 17.7493 4.00008 21.2354C3.9929 22.138 4.47654 22.9712 5.26186 23.4166L14.3409 28.6624C15.1167 29.1125 16.0744 29.1125 16.8501 28.6624L25.9292 23.4166C26.7145 22.9736 27.1934 22.1356 27.1766 21.2354V16.6863L16.3713 22.9353C15.89 23.2202 15.2891 23.2202 14.8078 22.9353L9.98576 20.1388C9.49493 19.8659 9.19565 19.3463 9.20283 18.786V13.2098C9.20283 12.6591 9.49254 12.1491 9.969 11.8714H9.96661Z" fill="#E6DAFE"/>
</svg>
