<svg width="32" height="32" viewBox="0 0 32 32" fill="none" xmlns="http://www.w3.org/2000/svg">
<path d="M27.959 17.7667C27.835 17.6242 27.579 17.4481 27.2327 17.263C27.1997 17.2459 27.1586 17.2294 27.1256 17.2041C26.5886 16.9272 25.8623 16.6421 25.12 16.3981H25.128C25.2931 15.4832 25.4171 14.5348 25.2762 13.6199C25.128 12.2005 24.6497 11.7722 23.2133 12.1333C22.9816 12.1913 22.7529 12.2612 22.5282 12.343C22.3631 12.0669 22.1981 11.8057 22.0411 11.5796C20.5313 9.34611 17.1803 5.00595 15.8349 5.00595C14.8614 4.95595 14.3992 5.2246 13.6238 5.68578C13.549 5.72831 13.4668 5.77831 13.384 5.82905C12.8316 6.1477 12.4105 6.45814 11.9564 6.78574C11.5361 7.09264 11.1067 7.38654 10.6689 7.66706C10.5618 7.73422 10.4459 7.81034 10.3388 7.88571C10.0336 8.07898 9.73653 8.29689 9.4475 8.53195C9.32946 8.63249 9.21911 8.74201 9.11738 8.85956C9.09244 8.89314 9.04329 8.95209 9.01834 9.00209C8.6963 8.91851 8.03607 9.09462 8.03607 9.09462C8.03607 9.09462 7.61498 8.12898 7.30174 8.17003C6.98776 8.22077 7.04572 9.23641 7.04572 9.23641C7.04572 9.23641 6.03923 9.31178 5.9644 9.56401C5.89838 9.8155 6.87259 10.2356 6.87259 10.2356C6.87259 10.2356 6.62463 11.2766 6.85572 11.3938C7.07873 11.5117 7.77271 10.7222 7.77271 10.7222C7.77271 10.7222 8.68016 11.2931 8.83641 11.1087C8.9934 10.9237 8.49016 10.0088 8.49016 10.0088C8.49016 10.0088 8.94425 9.65655 9.12545 9.37073C9.15846 9.40432 9.19954 9.44611 9.24136 9.47969C9.62869 9.74833 10.0336 9.97519 10.4628 10.1767V10.1849C10.4378 10.2356 10.2478 10.5797 10.0168 11.008C10.0087 11.0265 9.9975 11.0434 9.98375 11.058C9.90159 11.2095 9.81062 11.3692 9.72773 11.5281C9.66171 11.646 9.60449 11.755 9.54653 11.8639C9.50545 11.9393 9.47244 12.0072 9.43062 12.0744C9.38954 12.149 9.35726 12.2162 9.31545 12.2833C9.14605 12.2287 8.97531 12.1784 8.8034 12.1326C7.36776 11.7714 6.88873 12.1998 6.74054 13.6184C6.60043 14.534 6.72367 15.4743 6.88873 16.3892C6.16776 16.6109 5.46662 16.8945 4.79286 17.2369C4.78479 17.2459 4.77598 17.2459 4.76791 17.2541C4.3637 17.472 4.09154 17.657 4.02552 17.7578C3.89347 17.9593 4.28961 18.1525 4.85081 18.3115C4.86695 18.3205 4.88382 18.3205 4.89996 18.3287C5.25502 18.4205 5.6673 18.5048 6.05537 18.5719C6.2373 18.5973 6.5256 18.6309 6.9056 18.6563C6.80586 19.1251 6.75593 19.6034 6.75668 20.0831C6.75668 20.6204 6.8227 21.1413 6.93861 21.645C6.4185 21.7368 5.91525 21.8711 5.42008 22.0644C5.39669 22.071 5.375 22.0827 5.35651 22.0986C5.33801 22.1146 5.32316 22.1345 5.31297 22.1569C5.28803 22.2069 5.27996 22.2487 5.2961 22.2994C5.30899 22.3452 5.33866 22.3842 5.379 22.4084C5.39969 22.4215 5.42297 22.4298 5.44718 22.4328C5.47139 22.4358 5.49595 22.4333 5.51911 22.4255C6.01035 22.2347 6.51903 22.0939 7.03765 22.0054C7.14475 22.3748 7.28487 22.736 7.44993 23.08C7.40077 23.0972 7.34282 23.1136 7.29367 23.1308C6.86452 23.2651 6.39355 23.4412 6.05537 23.7606C5.88224 23.9195 6.13826 24.1882 6.31139 24.0203C6.59162 23.7606 7.02958 23.5927 7.40884 23.483C7.48294 23.4576 7.54896 23.4412 7.62379 23.4248C7.78884 23.7263 7.97811 24.0292 8.19305 24.3053C8.14317 24.3397 8.09402 24.365 8.04413 24.3986C7.70541 24.612 7.4066 24.8849 7.16162 25.2046C7.14883 25.2255 7.14069 25.2491 7.13778 25.2736C7.13487 25.2981 7.13724 25.3229 7.14475 25.3464C7.14942 25.3709 7.15924 25.3942 7.17354 25.4145C7.18785 25.4349 7.2063 25.4518 7.22765 25.4643C7.24834 25.4774 7.27162 25.4857 7.29583 25.4887C7.32004 25.4917 7.3446 25.4892 7.36776 25.4814C7.39178 25.4766 7.41449 25.4665 7.43436 25.452C7.45423 25.4374 7.4708 25.4187 7.48294 25.3971C7.68981 25.112 7.98691 24.8852 8.27522 24.6919C8.3251 24.6583 8.37425 24.6329 8.42414 24.6001C10.0997 26.6568 12.8976 28 16.0498 28C19.227 28 22.0249 26.6478 23.7085 24.5747C23.7665 24.6083 23.8244 24.6419 23.8817 24.6837C24.1788 24.877 24.4847 25.112 24.6908 25.4053C24.7157 25.4478 24.7568 25.4814 24.806 25.4896C24.8559 25.4978 24.905 25.4978 24.9461 25.4725C24.9674 25.4601 24.9858 25.4433 25.0001 25.4231C25.0144 25.4028 25.0242 25.3797 25.029 25.3553C25.0371 25.3053 25.0371 25.2546 25.0121 25.2128C24.7319 24.818 24.3519 24.524 23.9396 24.2725C24.1457 23.9949 24.3277 23.7016 24.4927 23.4076C24.5749 23.433 24.6659 23.4576 24.7488 23.483C24.963 23.5419 25.1691 23.6263 25.3672 23.718C25.541 23.7934 25.7061 23.8942 25.8462 24.0203C26.0193 24.18 26.2754 23.9195 26.1015 23.7606C25.764 23.4412 25.3019 23.2651 24.8639 23.1308C24.7979 23.1054 24.7238 23.089 24.6578 23.0718C24.8228 22.7278 24.963 22.3666 25.0701 21.9972C25.6071 22.0815 26.1264 22.2241 26.6385 22.4255C26.6617 22.4333 26.6862 22.4358 26.7104 22.4328C26.7346 22.4298 26.7579 22.4215 26.7786 22.4084C26.7988 22.3967 26.8165 22.381 26.8308 22.3623C26.845 22.3436 26.8554 22.3223 26.8615 22.2994C26.8688 22.2487 26.8688 22.1987 26.8446 22.1569C26.8332 22.1363 26.8178 22.1182 26.7994 22.1037C26.781 22.0893 26.76 22.0787 26.7375 22.0726C26.2315 21.8725 25.7056 21.7291 25.1691 21.645C25.4088 20.6357 25.4116 19.5832 25.1772 18.5727C25.3921 18.5466 25.5733 18.5301 25.7142 18.5048C25.8873 18.4712 26.0523 18.4458 26.2255 18.4205C26.4976 18.3787 26.7537 18.3287 26.9847 18.2861L27.1087 18.2615C27.2499 18.2317 27.3903 18.1981 27.5298 18.1608C27.8929 18.0429 28.091 17.9264 27.959 17.7667ZM9.85977 13.3676L10.6689 11.8729C10.8259 11.5878 10.9822 11.3028 11.0981 11.0841C11.1641 10.958 11.2221 10.849 11.2631 10.7737C11.28 10.7401 11.3042 10.7065 11.313 10.6811C11.3232 10.6696 11.3289 10.6548 11.3292 10.6394C11.3292 10.6311 11.3372 10.6222 11.346 10.6058C11.346 10.5976 11.3622 10.5722 11.3702 10.5386C11.3897 10.493 11.4035 10.4451 11.4113 10.3961C11.4201 10.3453 11.4363 10.2021 11.4363 10.1103C11.4033 9.92594 11.148 9.53118 10.8421 9.30432L10.8589 9.26253C10.71 9.19537 10.5699 9.12 10.4217 9.04388C10.5611 8.94314 10.71 8.84239 10.8589 8.74165L10.867 8.73344L10.8751 8.72523C10.9741 8.65807 11.0731 8.59912 11.181 8.52375C11.2221 8.49837 11.2631 8.473 11.313 8.43942C11.7246 8.17083 12.129 7.89088 12.5256 7.59989C12.5836 7.55811 12.6328 7.52452 12.6826 7.48273C13.0674 7.20224 13.4639 6.93882 13.8711 6.69321C13.9701 6.635 14.053 6.58426 14.1351 6.53426C14.4733 6.33277 14.6795 6.21486 14.9025 6.12233C15.1174 6.03875 15.3566 5.98801 15.7689 6.00517H15.7857C15.8026 6.01338 15.8518 6.02159 15.9346 6.07233C16.0828 6.15591 16.2721 6.29023 16.512 6.48351C16.9822 6.87828 17.5353 7.44915 18.1215 8.11257C19.3011 9.45581 20.4903 11.0677 21.2327 12.1587C21.5298 12.6035 21.8679 13.1743 22.2069 13.7788C20.9686 13.5773 18.8397 13.334 15.9757 13.334C12.9387 13.334 10.8259 13.6191 9.61255 13.846C9.68665 13.6781 9.76954 13.5184 9.85977 13.3676ZM10.3469 21.8972C9.27437 21.2927 9.19147 19.513 9.19147 19.513C9.19147 19.513 11.057 19.3868 12.1464 19.8741C13.772 20.6047 13.9782 22.2666 13.9782 22.2666C13.9782 22.2666 11.6094 22.6106 10.3469 21.8972ZM16.1158 23.7613C15.8187 23.7613 15.5796 23.6516 15.5796 23.5255C15.5796 23.3912 15.8187 23.2904 16.1158 23.2904C16.413 23.2904 16.6521 23.4001 16.6521 23.5263C16.6521 23.6516 16.413 23.7613 16.1158 23.7613ZM21.8188 21.9054C20.5475 22.6188 18.1956 22.2666 18.1956 22.2666V22.2584C18.1956 22.2584 18.3936 20.6047 20.0281 19.8823C21.1175 19.3958 22.9823 19.5212 22.9823 19.5212C22.9823 19.5212 22.8913 21.2845 21.8188 21.9054ZM21.909 17.7414C20.1763 17.8003 18.0797 17.8339 16.0256 17.8503C13.9894 17.8627 11.9532 17.8403 9.91773 17.7832C8.29209 17.7414 7.03765 17.6742 6.43537 17.607C6.83958 17.4563 7.29367 17.3048 7.7639 17.1794L8.27522 17.0451L8.44908 16.5414C8.5063 16.3728 8.57232 16.2056 8.63027 16.0377C11.084 15.7011 13.557 15.5298 16.0329 15.525C18.5008 15.5332 20.9605 15.7183 23.4033 16.0713C23.5273 16.3228 23.6344 16.5325 23.7166 16.7093L23.9235 17.1197L24.3607 17.2294C24.4597 17.2548 24.5419 17.2794 24.6167 17.2966C24.8478 17.3638 25.0789 17.4481 25.3012 17.5235C24.6739 17.6153 23.4606 17.6824 21.909 17.7414Z" fill="#E6DAFE"/>
</svg>
