<svg width="32" height="32" viewBox="0 0 32 32" fill="none" xmlns="http://www.w3.org/2000/svg">
<g clip-path="url(#clip0_13993_1143)">
<path d="M7.22107 29L24.7799 29C28.0084 29 30.0546 25.5175 28.4304 22.7022L17.5937 3.91916C16.8866 2.69272 15.1144 2.69272 14.4073 3.91916L3.56838 22.7021C1.94636 25.513 3.99263 29 7.21887 29L7.22107 29ZM17.6026 9.55191L19.9626 14.1195L25.6571 24.3043C26.0328 24.9561 25.5688 25.7915 24.7821 25.7915L17.6048 25.7915L17.6048 9.5497L17.6026 9.55191ZM6.34826 24.3065L12.0406 14.1173L14.4006 9.55191L14.4006 25.7937L7.22328 25.7937C6.4366 25.7937 5.9726 24.9583 6.34826 24.3065Z" fill="#E6DAFE"/>
</g>
<defs>
<clipPath id="clip0_13993_1143">
<rect width="32" height="32" fill="white"/>
</clipPath>
</defs>
</svg>
