<svg width="32" height="32" viewBox="0 0 32 32" fill="none" xmlns="http://www.w3.org/2000/svg">
<path d="M11.4747 17.9151C12.5544 17.9151 13.4297 17.0398 13.4297 15.9601C13.4297 14.8804 12.5544 14.0051 11.4747 14.0051C10.395 14.0051 9.51973 14.8804 9.51973 15.9601C9.51973 17.0398 10.395 17.9151 11.4747 17.9151Z" fill="#E6DAFE"/>
<path d="M20.5247 17.9151C21.6044 17.9151 22.4797 17.0398 22.4797 15.9601C22.4797 14.8804 21.6044 14.0051 20.5247 14.0051C19.445 14.0051 18.5697 14.8804 18.5697 15.9601C18.5697 17.0398 19.445 17.9151 20.5247 17.9151Z" fill="#E6DAFE"/>
<path d="M13.7372 21.8326C14.8169 21.8326 15.6922 20.9573 15.6922 19.8776C15.6922 18.7979 14.8169 17.9226 13.7372 17.9226C12.6575 17.9226 11.7822 18.7979 11.7822 19.8776C11.7822 20.9573 12.6575 21.8326 13.7372 21.8326Z" fill="#E6DAFE"/>
<path d="M18.2622 13.9976C19.3419 13.9976 20.2172 13.1223 20.2172 12.0426C20.2172 10.9629 19.3419 10.0876 18.2622 10.0876C17.1825 10.0876 16.3072 10.9629 16.3072 12.0426C16.3072 13.1223 17.1825 13.9976 18.2622 13.9976Z" fill="#E6DAFE"/>
<path d="M18.2622 21.8326C19.3419 21.8326 20.2172 20.9573 20.2172 19.8776C20.2172 18.7979 19.3419 17.9226 18.2622 17.9226C17.1825 17.9226 16.3072 18.7979 16.3072 19.8776C16.3072 20.9573 17.1825 21.8326 18.2622 21.8326Z" fill="#E6DAFE"/>
<path d="M13.7372 13.9976C14.8169 13.9976 15.6922 13.1223 15.6922 12.0426C15.6922 10.9629 14.8169 10.0876 13.7372 10.0876C12.6575 10.0876 11.7822 10.9629 11.7822 12.0426C11.7822 13.1223 12.6575 13.9976 13.7372 13.9976Z" fill="#E6DAFE"/>
<path d="M25.9947 17.0251C26.5608 17.0251 27.0197 16.5662 27.0197 16.0001C27.0197 15.434 26.5608 14.9751 25.9947 14.9751C25.4286 14.9751 24.9697 15.434 24.9697 16.0001C24.9697 16.5662 25.4286 17.0251 25.9947 17.0251Z" fill="#E6DAFE"/>
<path d="M6.00473 17.0251C6.57082 17.0251 7.02973 16.5662 7.02973 16.0001C7.02973 15.434 6.57082 14.9751 6.00473 14.9751C5.43863 14.9751 4.97973 15.434 4.97973 16.0001C4.97973 16.5662 5.43863 17.0251 6.00473 17.0251Z" fill="#E6DAFE"/>
<path d="M2.36973 16.6501C2.72871 16.6501 3.01973 16.3591 3.01973 16.0001C3.01973 15.6411 2.72871 15.3501 2.36973 15.3501C2.01074 15.3501 1.71973 15.6411 1.71973 16.0001C1.71973 16.3591 2.01074 16.6501 2.36973 16.6501Z" fill="#E6DAFE"/>
<path d="M29.6297 16.6501C29.9887 16.6501 30.2797 16.3591 30.2797 16.0001C30.2797 15.6411 29.9887 15.3501 29.6297 15.3501C29.2707 15.3501 28.9797 15.6411 28.9797 16.0001C28.9797 16.3591 29.2707 16.6501 29.6297 16.6501Z" fill="#E6DAFE"/>
<path d="M20.9972 8.36758C21.5633 8.36758 22.0222 7.90867 22.0222 7.34258C22.0222 6.77649 21.5633 6.31758 20.9972 6.31758C20.4311 6.31758 19.9722 6.77649 19.9722 7.34258C19.9722 7.90867 20.4311 8.36758 20.9972 8.36758Z" fill="#E6DAFE"/>
<path d="M11.0022 25.6826C11.5683 25.6826 12.0272 25.2237 12.0272 24.6576C12.0272 24.0915 11.5683 23.6326 11.0022 23.6326C10.4361 23.6326 9.97723 24.0915 9.97723 24.6576C9.97723 25.2237 10.4361 25.6826 11.0022 25.6826Z" fill="#E6DAFE"/>
<path d="M9.18473 28.4526C9.54371 28.4526 9.83473 28.1616 9.83473 27.8026C9.83473 27.4436 9.54371 27.1526 9.18473 27.1526C8.82574 27.1526 8.53473 27.4436 8.53473 27.8026C8.53473 28.1616 8.82574 28.4526 9.18473 28.4526Z" fill="#E6DAFE"/>
<path d="M22.8147 4.84758C23.1737 4.84758 23.4647 4.55656 23.4647 4.19758C23.4647 3.83859 23.1737 3.54758 22.8147 3.54758C22.4557 3.54758 22.1647 3.83859 22.1647 4.19758C22.1647 4.55656 22.4557 4.84758 22.8147 4.84758Z" fill="#E6DAFE"/>
<path d="M11.0022 8.36758C11.5683 8.36758 12.0272 7.90867 12.0272 7.34258C12.0272 6.77649 11.5683 6.31758 11.0022 6.31758C10.4361 6.31758 9.97723 6.77649 9.97723 7.34258C9.97723 7.90867 10.4361 8.36758 11.0022 8.36758Z" fill="#E6DAFE"/>
<path d="M20.9972 25.6826C21.5633 25.6826 22.0222 25.2237 22.0222 24.6576C22.0222 24.0915 21.5633 23.6326 20.9972 23.6326C20.4311 23.6326 19.9722 24.0915 19.9722 24.6576C19.9722 25.2237 20.4311 25.6826 20.9972 25.6826Z" fill="#E6DAFE"/>
<path d="M22.8147 28.4526C23.1737 28.4526 23.4647 28.1616 23.4647 27.8026C23.4647 27.4436 23.1737 27.1526 22.8147 27.1526C22.4557 27.1526 22.1647 27.4436 22.1647 27.8026C22.1647 28.1616 22.4557 28.4526 22.8147 28.4526Z" fill="#E6DAFE"/>
<path d="M9.18473 4.84758C9.54371 4.84758 9.83473 4.55656 9.83473 4.19758C9.83473 3.83859 9.54371 3.54758 9.18473 3.54758C8.82574 3.54758 8.53473 3.83859 8.53473 4.19758C8.53473 4.55656 8.82574 4.84758 9.18473 4.84758Z" fill="#E6DAFE"/>
<path d="M15.9997 9.35758C16.6514 9.35758 17.1797 8.82927 17.1797 8.17758C17.1797 7.52588 16.6514 6.99758 15.9997 6.99758C15.348 6.99758 14.8197 7.52588 14.8197 8.17758C14.8197 8.82927 15.348 9.35758 15.9997 9.35758Z" fill="#E6DAFE"/>
<path d="M15.9997 4.32008C16.4457 4.32008 16.8072 3.95855 16.8072 3.51258C16.8072 3.06661 16.4457 2.70508 15.9997 2.70508C15.5538 2.70508 15.1922 3.06661 15.1922 3.51258C15.1922 3.95855 15.5538 4.32008 15.9997 4.32008Z" fill="#E6DAFE"/>
<path d="M15.9997 25.0026C16.6514 25.0026 17.1797 24.4743 17.1797 23.8226C17.1797 23.1709 16.6514 22.6426 15.9997 22.6426C15.348 22.6426 14.8197 23.1709 14.8197 23.8226C14.8197 24.4743 15.348 25.0026 15.9997 25.0026Z" fill="#E6DAFE"/>
<path d="M15.9997 29.2951C16.4457 29.2951 16.8072 28.9335 16.8072 28.4876C16.8072 28.0416 16.4457 27.6801 15.9997 27.6801C15.5538 27.6801 15.1922 28.0416 15.1922 28.4876C15.1922 28.9335 15.5538 29.2951 15.9997 29.2951Z" fill="#E6DAFE"/>
<path d="M9.22473 13.2701C9.87642 13.2701 10.4047 12.7418 10.4047 12.0901C10.4047 11.4384 9.87642 10.9101 9.22473 10.9101C8.57303 10.9101 8.04473 11.4384 8.04473 12.0901C8.04473 12.7418 8.57303 13.2701 9.22473 13.2701Z" fill="#E6DAFE"/>
<path d="M5.18473 10.5626C5.6307 10.5626 5.99223 10.201 5.99223 9.75508C5.99223 9.30911 5.6307 8.94758 5.18473 8.94758C4.73876 8.94758 4.37723 9.30911 4.37723 9.75508C4.37723 10.201 4.73876 10.5626 5.18473 10.5626Z" fill="#E6DAFE"/>
<path d="M22.7747 21.0901C23.4264 21.0901 23.9547 20.5618 23.9547 19.9101C23.9547 19.2584 23.4264 18.7301 22.7747 18.7301C22.123 18.7301 21.5947 19.2584 21.5947 19.9101C21.5947 20.5618 22.123 21.0901 22.7747 21.0901Z" fill="#E6DAFE"/>
<path d="M26.8147 23.0526C27.2607 23.0526 27.6222 22.691 27.6222 22.2451C27.6222 21.7991 27.2607 21.4376 26.8147 21.4376C26.3688 21.4376 26.0072 21.7991 26.0072 22.2451C26.0072 22.691 26.3688 23.0526 26.8147 23.0526Z" fill="#E6DAFE"/>
<path d="M9.22473 21.0901C9.87642 21.0901 10.4047 20.5618 10.4047 19.9101C10.4047 19.2584 9.87642 18.7301 9.22473 18.7301C8.57303 18.7301 8.04473 19.2584 8.04473 19.9101C8.04473 20.5618 8.57303 21.0901 9.22473 21.0901Z" fill="#E6DAFE"/>
<path d="M5.18473 23.0526C5.6307 23.0526 5.99223 22.691 5.99223 22.2451C5.99223 21.7991 5.6307 21.4376 5.18473 21.4376C4.73876 21.4376 4.37723 21.7991 4.37723 22.2451C4.37723 22.691 4.73876 23.0526 5.18473 23.0526Z" fill="#E6DAFE"/>
<path d="M22.7747 13.2701C23.4264 13.2701 23.9547 12.7418 23.9547 12.0901C23.9547 11.4384 23.4264 10.9101 22.7747 10.9101C22.123 10.9101 21.5947 11.4384 21.5947 12.0901C21.5947 12.7418 22.123 13.2701 22.7747 13.2701Z" fill="#E6DAFE"/>
<path d="M26.8147 10.5626C27.2607 10.5626 27.6222 10.201 27.6222 9.75508C27.6222 9.30911 27.2607 8.94758 26.8147 8.94758C26.3688 8.94758 26.0072 9.30911 26.0072 9.75508C26.0072 10.201 26.3688 10.5626 26.8147 10.5626Z" fill="#E6DAFE"/>
</svg>
