<svg width="32" height="32" viewBox="0 0 32 32" fill="none" xmlns="http://www.w3.org/2000/svg">
<path d="M6.64985 9.92465C7.47131 8.99533 8.36132 8.37142 9.1465 7.94708C9.31079 7.84629 9.4771 7.75457 9.64241 7.67393C9.34103 7.46126 8.80481 7.24959 8.09523 7.06615C8.0408 7.05204 7.98637 7.04498 7.93295 7.04498C7.73439 7.04498 7.54389 7.1367 7.4189 7.29898C6.5289 8.46214 3.98689 11.4507 3.22892 12.3387C3.08277 12.51 3.00213 12.7267 3.00012 12.9505C2.99709 13.4776 3.05253 13.9604 3.16542 14.3848C3.19465 14.4946 3.27327 14.5773 3.38011 14.6126C3.48695 14.6478 3.59883 14.6277 3.68652 14.5571L4.62289 13.8112C4.9283 12.7821 5.40908 11.3277 6.64884 9.92465H6.64985Z" fill="#E6DAFE"/>
<path d="M28.77 12.3387C28.012 11.4497 25.47 8.46012 24.581 7.29999C24.4228 7.09336 24.1577 7.00164 23.9047 7.06615C23.1951 7.24959 22.6599 7.46126 22.3575 7.67393C22.5238 7.75558 22.6901 7.8473 22.8554 7.9491C23.6396 8.37445 24.5286 8.99735 25.3501 9.92566C26.5898 11.3277 27.0706 12.7821 27.376 13.8102L28.3134 14.5581C28.4011 14.6287 28.513 14.6488 28.6198 14.6136C28.7266 14.5783 28.8053 14.4946 28.8345 14.3858C28.9474 13.9604 29.0038 13.4776 28.9998 12.9515C28.9988 12.7287 28.9171 12.511 28.771 12.3397L28.77 12.3387Z" fill="#E6DAFE"/>
<path d="M24.1577 16.6103C23.6124 16.6556 23.0832 16.6062 22.5833 16.4621C21.0331 16.0116 20.0836 15.4411 19.4083 14.5541L19.375 14.5108C18.986 13.9977 18.5838 13.4685 17.9266 13.1067C17.6404 13.1067 17.3612 13.1752 17.1173 13.3043C16.8461 13.4474 16.6193 13.6651 16.4419 13.9513C16.3311 14.1308 16.2736 14.3424 16.2736 14.5632V15.9995C16.2736 16.1194 16.2897 16.2323 16.322 16.3351C16.4198 16.6506 16.577 16.9298 16.7897 17.1646C17.7855 18.2693 19.4768 17.9518 20.6612 17.6172L20.7367 17.596C21.0673 17.5023 21.409 17.4065 21.7588 17.3491C22.1176 17.2896 22.7194 17.1888 23.0701 17.5083C23.2737 17.6938 23.3433 18.0174 23.2374 18.2945C23.2203 18.3419 23.1971 18.3893 23.1659 18.4387C22.8907 18.8842 22.2799 19.1089 21.3465 19.1089C21.2145 19.1089 21.0754 19.1049 20.9303 19.0958C20.3517 19.0606 19.7722 18.9567 19.2117 18.857C18.7894 18.7814 18.353 18.7038 17.9236 18.6564L17.8954 18.6534C17.467 18.606 17.0286 18.5586 16.5931 18.5425C16.5357 18.8116 16.4157 19.0868 16.2434 19.3388C15.8684 19.8891 15.3423 20.2096 14.8897 20.2096C14.7214 20.2096 14.5642 20.1653 14.4281 20.0725C14.2477 19.9496 14.1267 19.754 14.0803 19.5061C14.031 19.245 14.0652 18.9447 14.1741 18.6443C14.1499 18.6473 14.1247 18.6493 14.1005 18.6524L14.0763 18.6554C13.6459 18.7027 13.2085 18.7804 12.7862 18.856C12.2268 18.9557 11.6472 19.0596 11.0696 19.0948C10.9245 19.1039 10.7854 19.1079 10.6534 19.1079C9.71902 19.1079 9.10821 18.8832 8.83304 18.4377C8.8028 18.3883 8.77861 18.3409 8.76148 18.2925C8.65665 18.0174 8.7262 17.6938 8.9298 17.5083C9.28157 17.1888 9.8823 17.2886 10.2421 17.3491C10.5939 17.4065 10.9376 17.5043 11.2692 17.5981L11.3408 17.6182C12.5251 17.9528 14.2154 18.2703 15.2113 17.1657C15.4249 16.9298 15.5822 16.6506 15.6799 16.3361C15.7112 16.2323 15.7273 16.1184 15.7273 15.9995V14.5632C15.7273 14.3424 15.6689 14.1308 15.558 13.9513C15.438 13.7558 15.2233 13.4847 14.8827 13.3053C14.6398 13.1762 14.3616 13.1077 14.0753 13.1077C13.4171 13.4696 13.014 13.9997 12.6249 14.5118L12.5916 14.5551C11.9173 15.4421 10.9678 16.0126 9.41664 16.4631C8.9167 16.6073 8.38753 16.6577 7.84224 16.6113C7.56204 16.5881 7.30602 16.7151 7.15584 16.951C7.00364 17.1898 6.99759 17.4801 7.13971 17.7271C8.87336 20.7539 15.9249 20.5906 15.9964 20.5886L16.0005 20.7398L16.0045 20.5886C16.0761 20.5906 23.1286 20.7519 24.8622 17.7271C25.0033 17.4801 24.9973 17.1898 24.8451 16.951C24.6949 16.7151 24.4379 16.5881 24.1577 16.6113V16.6103Z" fill="#E6DAFE"/>
<path d="M27.1109 13.9816C27.0847 13.8909 27.0575 13.7991 27.0283 13.7034C27 13.6107 26.9708 13.5159 26.9396 13.4202C26.6412 12.4929 26.1856 11.3811 25.2452 10.2683C25.8409 11.1382 26.235 12.0625 26.3882 12.9222C26.4023 13.0019 26.4134 13.0795 26.4235 13.1581C26.4336 13.2337 26.4406 13.3083 26.4467 13.3819C26.4729 13.7195 26.4608 14.0441 26.4023 14.3464L26.3953 14.3847L26.3933 14.3868C26.2814 14.925 26.0274 15.3685 25.6544 15.6689C25.2785 15.9712 24.8078 16.1144 24.2847 16.1144C22.9562 16.1144 21.2951 15.1911 20.0191 13.6076C18.2421 11.4013 17.8772 8.73427 19.2067 7.66283C19.3932 7.51164 19.6089 7.39976 19.8477 7.32417L19.8498 7.32115L19.9012 7.30603C19.9455 7.29292 19.9909 7.28184 20.0372 7.27075C20.0745 7.26268 20.1118 7.25563 20.1501 7.24958C20.1592 7.24757 20.1673 7.24555 20.1763 7.24454C20.1884 7.24253 20.2005 7.24152 20.2126 7.2395C19.2571 6.97946 18.362 6.85246 17.981 6.79803L17.9568 6.795C17.3077 6.70328 16.6536 6.65792 16.0005 6.65792C15.3473 6.65792 14.6932 6.70328 14.044 6.795L14.0209 6.79803C13.6389 6.85246 12.7438 6.98046 11.7883 7.2395C11.8941 7.25462 11.999 7.2768 12.0997 7.30603L12.1511 7.32115L12.1532 7.32417C12.391 7.39976 12.6077 7.51265 12.7942 7.66283C14.1227 8.73427 13.7578 11.4013 11.9808 13.6076C11.1291 14.666 10.0819 15.4663 9.0326 15.8604C8.56996 16.0347 8.12848 16.1214 7.72531 16.1214C7.1911 16.1214 6.7204 15.9702 6.34746 15.6689C5.97453 15.3685 5.71952 14.925 5.60764 14.3858L5.60562 14.3837L5.59857 14.3454C5.55321 14.1096 5.53607 13.8606 5.54212 13.6016C5.54313 13.5411 5.54716 13.4806 5.55119 13.4191C5.55523 13.3577 5.56026 13.2962 5.56732 13.2337C5.64997 12.4898 5.92413 11.6835 6.3646 10.8973C6.47648 10.6977 6.59844 10.4992 6.73148 10.3026C6.73854 10.2915 6.7466 10.2814 6.75467 10.2704C5.76588 11.4416 5.31433 12.6098 5.01598 13.5653C4.9928 13.6389 4.97062 13.7104 4.94946 13.782C4.92728 13.8556 4.90612 13.9271 4.88596 13.9967C4.87487 14.034 4.86378 14.0723 4.85269 14.1096C4.24491 16.1839 4.35982 17.7956 4.46162 19.2178C4.61785 21.4121 5.07948 22.1247 5.23168 22.3585C5.63687 22.9824 6.24566 23.5217 7.09233 24.0055C10.6614 26.0455 14.8141 26.2038 16.0015 26.2038C17.1888 26.2038 21.3405 26.0455 24.9106 24.0055C25.7583 23.5217 26.3671 22.9824 26.7712 22.3585C26.9234 22.1247 27.3851 21.4121 27.5413 19.2178C27.6431 17.7956 27.758 16.1839 27.1502 14.1096C27.1381 14.0672 27.125 14.0239 27.1119 13.9806L27.1109 13.9816ZM25.1233 17.8762C24.3532 19.2198 22.5782 20.135 19.8457 20.5956C18.2713 20.8617 16.8159 20.891 16.2474 20.891C16.1043 20.891 16.0176 20.889 15.9994 20.889C15.9813 20.889 15.8946 20.891 15.7515 20.891C15.183 20.891 13.7276 20.8617 12.1532 20.5956C9.42166 20.134 7.64669 19.2188 6.87663 17.8762C6.68109 17.5356 6.68915 17.1183 6.89981 16.7877C7.11148 16.455 7.47332 16.2756 7.86743 16.3089C8.37643 16.3512 8.86931 16.3049 9.33296 16.1708C10.8166 15.7394 11.7198 15.2012 12.3507 14.3696L12.383 14.3263C12.7791 13.8042 13.2276 13.2125 13.9634 12.8194C14.5339 12.514 15.2002 12.3648 15.9994 12.3648C16.7987 12.3648 17.466 12.513 18.0355 12.8184C18.7713 13.2125 19.2198 13.8042 19.6159 14.3263L19.6482 14.3696C20.2811 15.2012 21.1832 15.7394 22.6659 16.1708C23.1296 16.3049 23.6224 16.3512 24.1315 16.3089C24.5246 16.2756 24.8874 16.455 25.0991 16.7877C25.3097 17.1183 25.3188 17.5356 25.1233 17.8762Z" fill="#E6DAFE"/>
<path d="M9.38439 8.15168C9.37733 8.15571 9.37028 8.15975 9.36322 8.16479C9.31887 8.192 9.27352 8.21921 9.22917 8.24744C9.1949 8.26961 9.16063 8.29179 9.12636 8.31396C9.12233 8.31698 9.1183 8.319 9.11426 8.32202C9.03564 8.37444 8.95803 8.42887 8.88042 8.48531C8.86833 8.49438 8.85523 8.50345 8.84313 8.51252C8.76753 8.56796 8.69295 8.62541 8.61836 8.68589C8.60627 8.69597 8.59316 8.70605 8.58107 8.71613C8.50446 8.77761 8.42887 8.84212 8.35428 8.90763C8.34924 8.91167 8.3442 8.91671 8.33916 8.92174C8.26558 8.98625 8.19301 9.05378 8.12145 9.12232C8.11238 9.1314 8.10331 9.13946 8.09423 9.14853C8.02267 9.21808 7.95111 9.28964 7.88156 9.36221C7.86846 9.37632 7.85535 9.38943 7.84225 9.40354C7.7727 9.47712 7.70416 9.5517 7.63663 9.62831C7.62554 9.6404 7.61446 9.65351 7.60438 9.6656C7.53382 9.74624 7.46428 9.82889 7.39574 9.91355C7.32417 10.0023 7.25462 10.092 7.1881 10.1827C7.16693 10.2109 7.14879 10.2391 7.12763 10.2673C7.08227 10.3308 7.03691 10.3933 6.99357 10.4578C6.9714 10.4911 6.95023 10.5254 6.92805 10.5586C6.88874 10.6181 6.84944 10.6776 6.81315 10.737C6.79098 10.7733 6.76981 10.8106 6.74763 10.8469C6.71336 10.9044 6.67909 10.9618 6.64583 11.0193C6.62366 11.0586 6.60451 11.0979 6.58334 11.1372C6.5531 11.1926 6.52286 11.2481 6.49464 11.3045C6.47448 11.3448 6.45533 11.3861 6.43618 11.4275C6.40998 11.4819 6.38276 11.5363 6.35857 11.5908C6.33942 11.6321 6.32329 11.6744 6.30515 11.7157C6.28197 11.7692 6.25879 11.8236 6.23661 11.877C6.21948 11.9193 6.20537 11.9617 6.18924 12.003C6.16908 12.0564 6.14892 12.1088 6.13078 12.1623C6.11566 12.2046 6.10356 12.2469 6.09046 12.2893C6.07333 12.3417 6.05619 12.3931 6.04107 12.4455C6.02898 12.4878 6.0189 12.5301 6.00781 12.5725C5.99471 12.6239 5.97959 12.6743 5.9685 12.7247C5.95842 12.767 5.95036 12.8093 5.94229 12.8517C5.93221 12.9011 5.92113 12.9515 5.91206 12.9998C5.91004 13.0099 5.90903 13.02 5.90702 13.0311C5.90198 13.0633 5.89795 13.0946 5.89291 13.1258C5.88787 13.1591 5.88182 13.1924 5.87779 13.2246C5.87577 13.2397 5.87375 13.2538 5.87174 13.269C5.8667 13.3113 5.86468 13.3516 5.86065 13.3929C5.86065 13.399 5.85964 13.405 5.85864 13.4121C5.85561 13.4524 5.85158 13.4927 5.84956 13.532C5.84755 13.5734 5.84755 13.6137 5.84755 13.654C5.84755 13.6983 5.84553 13.7427 5.84654 13.787C5.84654 13.8274 5.85057 13.8667 5.85259 13.907C5.8546 13.9493 5.85662 13.9917 5.86065 14.033C5.86468 14.0723 5.87073 14.1106 5.87577 14.1489C5.88081 14.1822 5.88383 14.2174 5.88887 14.2497C5.88887 14.2497 5.88988 14.2507 5.89089 14.2517C5.93121 14.2961 5.97253 14.3354 6.01688 14.3706C6.46844 14.7345 7.18709 14.7244 8.04081 14.3424C8.9278 13.9453 9.83998 13.1994 10.6121 12.2409C11.9899 10.5304 12.5624 8.54579 11.9647 7.58422C11.9647 7.58422 11.9647 7.58321 11.9647 7.5822C11.9445 7.57716 11.9234 7.57313 11.9022 7.56809C11.8871 7.56507 11.873 7.56103 11.8579 7.55801C11.8125 7.54894 11.7671 7.54087 11.7218 7.53483C11.7208 7.53483 11.7188 7.53483 11.7178 7.53483C11.6684 7.52777 11.618 7.52374 11.5676 7.51971C11.5585 7.51971 11.5504 7.51971 11.5414 7.5187C11.5 7.51668 11.4587 7.51467 11.4164 7.51467C11.4063 7.51467 11.3962 7.51467 11.3861 7.51467C11.238 7.51467 11.0858 7.52878 10.9306 7.55499C10.9255 7.55499 10.9215 7.55599 10.9165 7.557C10.8409 7.5701 10.7632 7.58623 10.6866 7.60538C10.6776 7.6074 10.6685 7.60941 10.6584 7.61244C10.6403 7.61748 10.6221 7.62151 10.603 7.62554C10.5445 7.64167 10.4851 7.6588 10.4266 7.67795C10.4195 7.67997 10.4125 7.68299 10.4044 7.68501C10.2855 7.72331 10.1655 7.76766 10.0446 7.81906C10.0023 7.83721 9.96093 7.85535 9.9186 7.8745C9.90952 7.87853 9.90146 7.88256 9.8934 7.88559C9.87929 7.89164 9.86618 7.89768 9.85207 7.90474C9.78756 7.93498 9.72306 7.96824 9.65855 8.0015C9.65754 8.0015 9.65653 8.00251 9.65452 8.00352C9.64444 8.00856 9.63436 8.0146 9.62428 8.01964C9.54566 8.06198 9.46704 8.10532 9.38842 8.15269L9.38439 8.15168ZM10.6927 7.89768H10.7229C10.7743 7.89768 10.8167 7.938 10.8217 7.98941C10.8388 8.19099 10.9477 8.65666 11.6029 8.69597C11.6543 8.69899 11.6936 8.74334 11.6936 8.79475C11.6936 8.84313 11.6593 8.88344 11.6119 8.89151C11.4073 8.92578 10.8852 9.10317 10.8509 10.0143C10.8489 10.0678 10.8056 10.1111 10.7522 10.1111H10.6645C10.611 10.1111 10.5677 10.0678 10.5657 10.0143C10.5314 9.10217 10.0093 8.92578 9.8047 8.89151C9.75733 8.88344 9.72306 8.84212 9.72306 8.79475C9.72306 8.74334 9.76237 8.7 9.81377 8.69597C10.4689 8.65666 10.5788 8.19099 10.5949 7.98941C10.599 7.938 10.6413 7.89768 10.6937 7.89768H10.6927Z" fill="#E6DAFE"/>
<path d="M11.6543 6.38881C12.4173 6.287 12.9948 5.89895 12.9444 5.52198C12.894 5.14501 12.2348 4.92226 11.4718 5.02507C10.7088 5.12687 10.1313 5.51493 10.1817 5.89189C10.2321 6.26886 10.8913 6.49161 11.6543 6.38881Z" fill="#E6DAFE"/>
<path d="M21.5723 7.67594C21.5149 7.6578 21.4584 7.64066 21.401 7.62554C21.3848 7.62151 21.3677 7.61748 21.3516 7.61345C21.3375 7.61042 21.3234 7.60639 21.3103 7.60337C21.2367 7.58623 21.1641 7.57011 21.0925 7.55801C21.0825 7.55599 21.0734 7.55499 21.0633 7.55398C20.9917 7.54188 20.9212 7.53281 20.8506 7.52676C20.8456 7.52676 20.8406 7.52576 20.8345 7.52475C20.7629 7.5187 20.6924 7.51568 20.6228 7.51568C20.6087 7.51568 20.5946 7.51568 20.5805 7.51568C20.5452 7.51568 20.51 7.51769 20.4747 7.5187C20.4606 7.5187 20.4454 7.51971 20.4313 7.52072C20.3819 7.52374 20.3336 7.52878 20.2862 7.53483C20.2801 7.53483 20.2741 7.53684 20.2681 7.53785C20.2267 7.5439 20.1854 7.55096 20.1451 7.55902C20.13 7.56204 20.1148 7.56607 20.0997 7.5691C20.0786 7.57414 20.0584 7.57817 20.0372 7.58321C20.0372 7.58321 20.0372 7.58422 20.0372 7.58522C19.4405 8.54579 20.013 10.5304 21.3899 12.2419C22.162 13.1994 23.0741 13.9463 23.9611 14.3434C24.8148 14.7254 25.5335 14.7365 25.984 14.3727C26.0304 14.3354 26.0727 14.295 26.11 14.2537C26.11 14.2537 26.111 14.2527 26.1121 14.2517C26.1181 14.2184 26.1211 14.1842 26.1252 14.1499C26.1302 14.1116 26.1362 14.0733 26.1403 14.035C26.1443 13.9937 26.1463 13.9513 26.1483 13.909C26.1504 13.8687 26.1534 13.8294 26.1544 13.7891C26.1544 13.7457 26.1544 13.7024 26.1534 13.658C26.1534 13.6167 26.1534 13.5754 26.1504 13.533C26.1483 13.4887 26.1433 13.4433 26.1393 13.398C26.1352 13.3556 26.1332 13.3133 26.1282 13.27C26.1231 13.2246 26.1151 13.1783 26.108 13.1319C26.105 13.1127 26.102 13.0926 26.099 13.0734C26.0949 13.0492 26.0919 13.025 26.0879 13.0009C26.0798 12.9545 26.0687 12.9071 26.0596 12.8597C26.0576 12.8497 26.0556 12.8396 26.0536 12.8285C26.0465 12.7942 26.0405 12.76 26.0324 12.7257C26.0213 12.6783 26.0072 12.6299 25.9951 12.5816C25.9941 12.5775 25.9931 12.5735 25.9921 12.5695C25.981 12.5281 25.9709 12.4878 25.9599 12.4465C25.9457 12.3981 25.9296 12.3487 25.9135 12.3003C25.8994 12.255 25.8853 12.2096 25.8701 12.1633C25.853 12.1139 25.8339 12.0645 25.8157 12.0151C25.7986 11.9697 25.7825 11.9234 25.7643 11.878C25.7442 11.8286 25.722 11.7792 25.7018 11.7288C25.6827 11.6835 25.6635 11.6371 25.6434 11.5918C25.6202 11.5414 25.596 11.491 25.5718 11.4416C25.5506 11.3962 25.5295 11.3509 25.5073 11.3065C25.4811 11.2551 25.4529 11.2047 25.4257 11.1533C25.4025 11.109 25.3793 11.0646 25.3551 11.0213C25.3259 10.9699 25.2946 10.9185 25.2644 10.8681C25.2392 10.8247 25.215 10.7814 25.1888 10.7391C25.1565 10.6866 25.1213 10.6342 25.087 10.5818C25.0608 10.5415 25.0356 10.5002 25.0084 10.4599C24.9691 10.4014 24.9277 10.3439 24.8864 10.2865C24.8622 10.2522 24.839 10.219 24.8148 10.1847C24.7483 10.094 24.6788 10.0043 24.6072 9.91557C24.5387 9.8309 24.4691 9.74825 24.3986 9.66762C24.3875 9.65552 24.3764 9.64242 24.3663 9.63032C24.2988 9.55372 24.2302 9.47913 24.1607 9.40555C24.1476 9.39144 24.1345 9.37834 24.1214 9.36423C24.0508 9.29166 23.9803 9.22009 23.9087 9.15055C23.8996 9.14148 23.8896 9.13341 23.8805 9.12434C23.8089 9.0558 23.7364 8.98928 23.6638 8.92477C23.6577 8.91973 23.6527 8.91469 23.6477 8.90965C23.5731 8.84414 23.4975 8.78064 23.4219 8.71915C23.4088 8.70806 23.3957 8.69798 23.3826 8.6869C23.309 8.62743 23.2344 8.56998 23.1598 8.51555C23.1467 8.50547 23.1336 8.4964 23.1195 8.48632C23.0429 8.43088 22.9663 8.37645 22.8887 8.32505C22.8826 8.32102 22.8766 8.31699 22.8705 8.31396C22.8383 8.2928 22.806 8.27163 22.7738 8.25046C22.7304 8.22325 22.6871 8.19603 22.6427 8.16983C22.6337 8.16378 22.6236 8.15874 22.6145 8.15269C22.5863 8.13556 22.5571 8.11943 22.5288 8.1033C22.4805 8.07609 22.4331 8.04988 22.3847 8.02368C22.3706 8.01662 22.3565 8.00856 22.3424 8.0015C22.3091 7.98437 22.2748 7.96723 22.2416 7.9501C22.1993 7.92893 22.1579 7.90877 22.1156 7.88962C22.1035 7.88357 22.0914 7.87853 22.0793 7.87349C22.045 7.85737 22.0098 7.84225 21.9755 7.82713C21.9311 7.80798 21.8878 7.78984 21.8435 7.7727C21.8435 7.7727 21.8435 7.7727 21.8424 7.7727C21.7648 7.74246 21.6872 7.71525 21.6096 7.69005C21.5975 7.68602 21.5854 7.68199 21.5743 7.67795L21.5723 7.67594ZM22.1962 8.89151C21.9916 8.92578 21.4695 9.10317 21.4352 10.0143C21.4332 10.0678 21.3899 10.1111 21.3365 10.1111H21.2488C21.1953 10.1111 21.152 10.0678 21.15 10.0143C21.1157 9.10217 20.5936 8.92578 20.389 8.89151C20.3416 8.88344 20.3074 8.84212 20.3074 8.79475C20.3074 8.74334 20.3467 8.7 20.3981 8.69597C21.0532 8.65666 21.1631 8.19099 21.1792 7.98941C21.1833 7.938 21.2256 7.89768 21.278 7.89768H21.3082C21.3596 7.89768 21.402 7.938 21.407 7.98941C21.4231 8.19099 21.533 8.65666 22.1882 8.69597C22.2396 8.69899 22.2789 8.74334 22.2789 8.79475C22.2789 8.84313 22.2446 8.88344 22.1972 8.89151H22.1962Z" fill="#E6DAFE"/>
<path d="M20.3457 6.38881C21.1087 6.49061 21.7679 6.26786 21.8182 5.8919C21.8686 5.51493 21.2911 5.12687 20.5281 5.02507C19.7651 4.92327 19.1059 5.14602 19.0555 5.52198C19.0051 5.89895 19.5827 6.28701 20.3457 6.38881Z" fill="#E6DAFE"/>
<path d="M15.3715 18.3701C15.3624 18.3792 15.3524 18.3862 15.3423 18.3923C15.2919 18.4266 15.2274 18.4326 15.1709 18.4044C15.1699 18.4044 15.1689 18.4024 15.1669 18.4014C15.1125 18.3711 15.0812 18.3157 15.0802 18.2552C15.0802 18.2431 15.0792 18.231 15.0812 18.2189C15.1094 18.0708 15.2002 17.9075 15.2909 17.7714C15.18 17.7916 15.0852 17.8561 15.0308 17.9004L15.0278 17.9034C15.0137 17.9155 14.9996 17.9286 14.9865 17.9407C14.8776 18.0446 14.7819 18.1585 14.6972 18.2834C14.6972 18.2834 14.6972 18.2855 14.6962 18.2855C14.6599 18.3379 14.6276 18.3923 14.5974 18.4467C14.5682 18.4991 14.541 18.5526 14.5168 18.607C14.3837 18.9013 14.3313 19.2047 14.3777 19.4486C14.3999 19.5655 14.4563 19.7248 14.5984 19.8215C14.9502 20.0614 15.5892 19.7611 15.9944 19.1674C16.1325 18.9648 16.2303 18.7481 16.2837 18.5354C16.2968 18.485 16.3069 18.4346 16.3149 18.3842C16.321 18.3439 16.325 18.3036 16.328 18.2643C16.328 18.2532 16.328 18.2431 16.328 18.233C16.328 18.1524 16.3089 18.0758 16.2706 18.0123C16.201 17.8974 16.1224 17.8843 16.069 17.8843C15.9501 17.8843 15.7354 18.0214 15.5076 18.2341C15.4622 18.2764 15.4169 18.3207 15.3715 18.3691V18.3701Z" fill="#E6DAFE"/>
</svg>
