<svg width="32" height="32" viewBox="0 0 32 32" fill="none" xmlns="http://www.w3.org/2000/svg">
<g clip-path="url(#clip0_6_4256)">
<path d="M26.9911 11.7551L23.7767 8.61086C22.4715 7.33535 20.3843 7.33535 19.0792 8.61086L18.8068 8.87782L18.7124 8.96951L18.6181 8.87782L15.6302 5.95468C14.325 4.67917 12.2378 4.67917 10.9327 5.95468L5.00817 11.7551C3.66525 13.0684 3.66525 15.2284 5.00817 16.5416L14.7376 26.058C15.4414 26.7457 16.5659 26.743 17.267 26.0527L26.9911 16.5416C28.334 15.2284 28.334 13.0684 26.9911 11.7551ZM10.5686 16.938L10.4742 16.8464L7.81536 14.2468L7.71558 14.1497L7.81266 14.0527L13.187 8.79692L13.2814 8.70524L13.3758 8.79692L16.0266 11.3911L16.1237 11.4882L16.0266 11.5852L13.4243 14.1363H13.4297L13.3327 14.236L10.663 16.8491L10.5686 16.9407V16.938ZM18.7529 19.5565L16.094 22.156L15.9996 22.2477L15.9052 22.156L13.2464 19.5565L13.1493 19.4594L13.2464 19.3623L15.8972 16.7709L15.9915 16.6765H15.9942L16.0023 16.6711L16.0967 16.7628L18.7529 19.3596L18.85 19.4567L18.7529 19.5538V19.5565ZM24.1839 14.2441L21.525 16.8437L21.4306 16.9354L21.3363 16.8437L18.6774 14.2441L18.5803 14.147L18.6774 14.05L18.8473 13.8855L18.8527 13.8801L21.3363 11.4504L21.4306 11.3587L21.525 11.4504L24.1839 14.05L24.2837 14.147L24.1839 14.2441Z" fill="#E6DAFE"/>
</g>
<defs>
<clipPath id="clip0_6_4256">
<rect width="24" height="21.573" fill="white" transform="translate(4 5)"/>
</clipPath>
</defs>
</svg>
