<svg width="32" height="32" viewBox="0 0 32 32" fill="none" xmlns="http://www.w3.org/2000/svg">
<path d="M16.0001 29.6475L4.18262 22.8225V9.17754L16.0001 2.35254L27.8176 9.17754V22.8225L16.0001 29.6475ZM5.56512 22.025L16.0001 28.05L26.4351 22.025V9.97504L16.0001 3.95004L5.56512 9.97504V22.025Z" fill="#E6DAFE"/>
<path d="M21.5352 14.6575L24.6477 17.13L20.5902 24.3325H18.9102L16.9902 22.3175V21.4025L19.2777 19.4175V16.355L21.5352 14.6575Z" fill="#E6DAFE"/>
<path d="M20.4675 8.28003H11.5325L10.3125 13.04H21.6875L20.4675 8.28003Z" fill="#E6DAFE"/>
<path d="M18.9723 13.8625H13.0273L14.0348 16.4575L13.8398 19.3575H18.1598L17.9648 16.4575L18.9723 13.8625Z" fill="#E6DAFE"/>
<path d="M10.465 14.6575L7.35254 17.13L11.41 24.3325H13.09L15.01 22.3175V21.4025L12.7225 19.4175V16.355L10.465 14.6575Z" fill="#E6DAFE"/>
</svg>
