<svg width="32" height="32" viewBox="0 0 32 32" fill="none" xmlns="http://www.w3.org/2000/svg">
<path d="M15.707 3.00026H16.7256C16.7374 3.0195 16.757 3.01144 16.7729 3.01209C17.1186 3.02561 17.4624 3.06267 17.805 3.1083C18.542 3.20633 19.2662 3.36299 19.9755 3.58648C21.0992 3.9405 22.1584 4.43039 23.1468 5.07043C24.1909 5.74649 25.125 6.54957 25.9388 7.48774C26.9872 8.69632 27.797 10.0468 28.3433 11.5505C28.6478 12.3885 28.8614 13.2495 28.9935 14.1305C29.0081 14.2281 29.0064 14.2284 28.9085 14.2284C28.1969 14.2284 27.4853 14.2284 26.7738 14.2284C26.6084 14.2284 26.443 14.2301 26.2776 14.2274C26.2276 14.2266 26.2071 14.2361 26.2192 14.2911C26.2347 14.3607 26.2426 14.4318 26.2537 14.5021C26.21 14.4769 26.2181 14.4292 26.2123 14.3919C26.1368 13.9032 26.0126 13.4261 25.8586 12.9572C25.6775 12.4056 25.4562 11.8703 25.1788 11.3582C25.0984 11.2096 25.0212 11.0589 24.9351 10.9135C24.4934 10.167 23.9552 9.49511 23.344 8.87938C23.1143 8.64796 22.8715 8.43123 22.6201 8.22412C22.2865 7.94928 21.9285 7.70785 21.5699 7.46693C21.3259 7.30312 21.0653 7.16882 20.8066 7.03296C20.5689 6.90802 20.3214 6.79985 20.0714 6.69818C19.6724 6.53592 19.2691 6.38914 18.853 6.27512C18.2143 6.10025 17.5644 5.9874 16.906 5.92812C16.4903 5.89068 16.0725 5.88391 15.6548 5.90927C15.3165 5.92981 14.9794 5.9562 14.6424 5.99715C14.1793 6.05345 13.7279 6.15798 13.2807 6.28266C12.742 6.43282 12.2202 6.62901 11.7132 6.86615C11.0691 7.16739 10.4588 7.52336 9.89353 7.95409C9.53266 8.22906 9.1808 8.51548 8.85428 8.83036C8.55872 9.11535 8.29241 9.42764 8.03472 9.74669C7.41982 10.508 6.93082 11.3439 6.55846 12.2465C6.37692 12.6866 6.2228 13.1373 6.10669 13.5997C6.02767 13.9145 5.9578 14.2308 5.90921 14.5522C5.87421 14.7835 5.84351 15.015 5.82262 15.2477C5.78487 15.6691 5.79192 16.0916 5.79493 16.514C5.79636 16.7219 5.81138 16.9294 5.83646 17.1354C5.87251 17.4314 5.89314 17.7297 5.96328 18.0213C6.01631 18.2418 6.05236 18.4664 6.11074 18.6854C6.16912 18.9043 6.24605 19.1183 6.31462 19.3346C6.63082 20.3325 7.10793 21.2501 7.71695 22.1001C8.27099 22.8734 8.92089 23.5579 9.6681 24.15C10.1951 24.5676 10.7572 24.9303 11.3566 25.2365C11.4819 25.3005 11.6091 25.3604 11.7318 25.4302C11.8389 25.4911 11.9604 25.527 12.0755 25.574C12.4989 25.7468 12.9285 25.9002 13.3704 26.0217C13.6446 26.0969 13.9215 26.1589 14.1991 26.2156C14.3277 26.2418 14.4598 26.2598 14.5904 26.2801C14.9692 26.3386 15.3499 26.3761 15.7327 26.3844C16.2705 26.3962 16.8069 26.3801 17.3417 26.3116C17.9189 26.2377 18.488 26.1255 19.0434 25.9553C20.1218 25.6249 21.1295 25.149 22.0462 24.4874C22.7687 23.9659 23.4255 23.3745 23.9937 22.6898C24.9018 21.5953 25.5563 20.3646 25.9592 19.0021C25.9664 18.978 25.9673 18.9495 25.9958 18.9368C26.0238 18.9386 26.0518 18.9419 26.0799 18.942C26.9633 18.9423 27.8467 18.9427 28.7303 18.9411C28.7797 18.9411 28.7983 18.9506 28.7792 19C28.7752 19.01 28.7742 19.0209 28.7717 19.0315C28.636 19.6196 28.4507 20.1925 28.2299 20.7541C27.5657 22.4446 26.5745 23.9224 25.2922 25.2082C24.7084 25.7935 24.0696 26.314 23.382 26.7756C22.2414 27.5411 21.0182 28.1299 19.6896 28.4949C19.2014 28.629 18.7043 28.7202 18.2036 28.7931C17.7197 28.8636 17.2338 28.9174 16.7472 28.9645C16.6443 28.9745 16.5395 28.9723 16.4384 29H15.3806C15.373 28.985 15.3586 28.9885 15.3463 28.9881C15.0874 28.9793 14.8301 28.9508 14.5729 28.9225C13.9977 28.8593 13.4288 28.7596 12.8683 28.6172C11.4371 28.2538 10.1008 27.6754 8.86943 26.8597C7.66157 26.0596 6.60757 25.0948 5.721 23.9511C5.00122 23.0225 4.40827 22.0195 3.96407 20.9322C3.43001 19.6253 3.11329 18.2678 3.02186 16.8588C3.01703 16.785 3.02787 16.7088 3.00018 16.637V15.3501C3.01599 15.3432 3.01194 15.3286 3.01233 15.3165C3.02108 15.0566 3.04877 14.7984 3.07737 14.5401C3.14738 13.9071 3.26114 13.282 3.42688 12.6669C4.05471 10.3359 5.24507 8.33398 6.9798 6.6502C7.52182 6.12405 8.10799 5.65301 8.73412 5.23035C9.73928 4.55195 10.8141 4.01409 11.9701 3.64044C12.6336 3.42592 13.3088 3.26028 13.9987 3.15367C14.45 3.08386 14.9027 3.02964 15.3595 3.01209C15.4756 3.01703 15.5912 3.00546 15.707 3V3.00026Z" fill="#E6DAFE"/>
<path d="M15.5465 23.5291C15.2791 23.5446 14.9794 23.5258 14.6808 23.4953C14.4139 23.468 14.1465 23.439 13.887 23.3623C13.5657 23.2672 13.2492 23.1596 12.9431 23.0236C12.8504 22.9825 12.7529 22.9429 12.6704 22.8901C12.512 22.7889 12.3467 22.6986 12.192 22.5914C11.849 22.3539 11.5417 22.0774 11.2586 21.7732C11.0085 21.5043 10.7886 21.2116 10.5885 20.9043C10.5409 20.8314 10.4956 20.7559 10.4503 20.6816C10.317 20.4632 10.2003 20.2371 10.0943 20.005C10.0773 19.9679 10.071 19.9258 10.0525 19.8898C9.93232 19.6553 9.86584 19.4015 9.79609 19.1507C9.7385 18.9432 9.689 18.7324 9.65687 18.5178C9.63597 18.3784 9.63074 18.2384 9.61285 18.0992C9.60306 18.0228 9.61586 17.9437 9.61625 17.8658C9.61729 17.6363 9.60919 17.4065 9.63114 17.1775C9.64511 17.0314 9.66562 16.8859 9.68469 16.7403C9.71747 16.4897 9.76645 16.2419 9.81934 15.9952C9.84507 15.8749 9.86636 15.7521 9.90319 15.6357C9.95857 15.4602 9.99514 15.2808 10.0333 15.1024C10.105 14.7662 10.1922 14.4334 10.2492 14.0936C10.2826 13.8942 10.2983 13.6944 10.3103 13.4935C10.3158 13.4035 10.2921 13.3309 10.2221 13.2677C10.1478 13.2007 10.0935 13.1149 10.0398 13.0311C9.84285 12.7244 9.67946 12.4024 9.57014 12.0528C9.45678 11.6906 9.3916 11.324 9.41067 10.9436C9.42308 10.6973 9.47336 10.4583 9.55787 10.2283C9.68704 9.87698 9.86362 9.55208 10.1273 9.27944C10.3326 9.06726 10.5596 8.88603 10.8266 8.75407C10.9801 8.67814 11.1344 8.60533 11.2985 8.55697C11.6126 8.46427 11.9326 8.44191 12.2599 8.46778C12.5238 8.48871 12.7679 8.56477 12.9974 8.68711C13.1727 8.78059 13.3213 8.91281 13.4777 9.03515C13.6409 9.16295 13.7461 9.32092 13.8475 9.48798C14.1058 9.91299 14.2618 10.3724 14.327 10.8665C14.382 11.2833 14.3789 11.6947 14.2869 12.1052C14.263 12.2122 14.2945 12.2393 14.3999 12.2039C14.6499 12.1202 14.9094 12.0782 15.168 12.0348C15.4765 11.9828 15.7865 11.9395 16.0964 11.8954C16.1888 11.8823 16.2838 11.8859 16.3756 11.8698C16.6409 11.8234 16.909 11.7997 17.1761 11.7688C17.3077 11.7534 17.4404 11.7467 17.5727 11.7377C17.6034 11.7356 17.623 11.7338 17.6292 11.6941C17.6642 11.4697 17.7523 11.2629 17.8464 11.058C17.9217 10.8934 18.0115 10.7352 18.1102 10.5855C18.397 10.1513 18.7473 9.77466 19.2107 9.52165C19.4312 9.40126 19.6626 9.31078 19.9222 9.28555C20.1498 9.26345 20.3728 9.26033 20.5975 9.29075C20.6846 9.30258 20.7626 9.34536 20.8438 9.3763C21.2234 9.52113 21.4888 9.78337 21.6435 10.1557C21.7941 10.5179 21.8138 10.8938 21.7253 11.2711C21.6813 11.4584 21.6054 11.638 21.4963 11.8027C21.4455 11.8794 21.4088 11.9685 21.3622 12.0486C21.2965 12.1613 21.2479 12.28 21.197 12.3985C21.1311 12.552 21.1084 12.7149 21.0925 12.8788C21.0866 12.9389 21.1087 12.9927 21.1424 13.0433C21.217 13.1553 21.3037 13.2607 21.3391 13.395C21.3515 13.4423 21.3969 13.455 21.4353 13.4757C21.81 13.6783 22.0713 14.0289 22.0689 14.4267C22.0687 14.4613 22.0685 14.496 22.0688 14.5306C22.0692 14.5769 22.0878 14.6129 22.1257 14.6414C22.3958 14.8448 22.5908 15.1006 22.6751 15.4321C22.7409 15.6908 22.7115 15.9411 22.5865 16.1749C22.5032 16.3306 22.4021 16.4773 22.2574 16.5867C22.2255 16.6108 22.2118 16.6425 22.2076 16.681C22.1876 16.8665 22.0995 17.0192 21.9738 17.1528C21.9501 17.178 21.9467 17.2059 21.9498 17.2367C21.9676 17.4097 21.9744 17.5824 21.928 17.7527C21.9195 17.7836 21.9373 17.788 21.9629 17.7909C22.1582 17.8125 22.3165 17.9057 22.4566 18.039C22.6014 18.1766 22.6124 18.3518 22.5827 18.527C22.5684 18.6118 22.4878 18.6778 22.4236 18.741C22.3676 18.7962 22.2996 18.8376 22.2272 18.8675C22.0355 18.9468 21.8495 19.046 21.6358 19.0575C21.5898 19.0599 21.5994 19.0807 21.6144 19.1071C21.6593 19.1862 21.7157 19.2604 21.7368 19.3501C21.7878 19.5682 21.7928 19.7863 21.7248 20.0027C21.7202 20.0171 21.7161 20.0317 21.7126 20.0463C21.6399 20.3456 21.4788 20.5895 21.2427 20.7856C21.076 20.9239 20.8876 21.0291 20.6894 21.1122C20.6147 21.1435 20.5865 21.1886 20.5566 21.2528C20.4 21.5885 20.1936 21.8917 19.9427 22.165C19.7722 22.3509 19.5804 22.5146 19.3932 22.683C19.3258 22.7436 19.2564 22.7978 19.1553 22.8054C19.0924 22.8103 19.0483 22.8759 18.9879 22.9028C18.7984 22.9873 18.6147 23.0819 18.4152 23.1474C18.1906 23.2212 17.9633 23.2843 17.7351 23.3414C17.5035 23.3992 17.2632 23.4151 17.0251 23.4361C16.737 23.4616 16.4487 23.4849 16.1603 23.5075C15.9672 23.5227 15.7737 23.5314 15.5466 23.5292L15.5465 23.5291ZM20.7589 19.1043C20.8975 19.2546 20.9735 19.4124 20.9739 19.5982C20.9743 19.7768 20.9486 19.9466 20.8229 20.0924C20.7235 20.2077 20.6147 20.3116 20.4909 20.3962C20.4067 20.4539 20.3056 20.4886 20.2098 20.5283C20.0513 20.594 19.8899 20.6526 19.7238 20.6976C19.4865 20.7618 19.2436 20.7965 19.0017 20.839C18.7096 20.8904 18.4149 20.9095 18.1206 20.93C17.7036 20.9592 17.2853 20.9441 16.8675 20.9428C16.6979 20.9423 16.5266 20.9442 16.3593 20.9213C15.9593 20.8667 15.5537 20.8639 15.1566 20.7847C15.0738 20.7682 14.9872 20.7712 14.9042 20.7553C14.5885 20.6952 14.2784 20.6105 13.9677 20.5297C13.6391 20.4443 13.3217 20.3251 13.0221 20.1639C12.9083 20.1026 12.7973 20.0363 12.6871 19.969C12.6163 19.9257 12.5534 19.8713 12.5036 19.8047C12.4391 19.7181 12.3599 19.6443 12.2975 19.5549C12.2419 19.4751 12.198 19.3842 12.184 19.3001C12.1536 19.1179 12.1871 18.9392 12.3372 18.8017C12.3708 18.7711 12.4115 18.7698 12.4464 18.7493C12.5522 18.6873 12.6667 18.6455 12.7858 18.6196C13.0606 18.5601 13.3399 18.5348 13.6206 18.5313C14.0906 18.5255 14.5609 18.5301 15.0302 18.5588C15.436 18.5835 15.8417 18.6117 16.2472 18.6413C16.5809 18.6656 16.914 18.6999 17.2484 18.7183C17.6822 18.7419 18.1145 18.7933 18.5477 18.8294C18.994 18.8667 19.441 18.8976 19.8871 18.936C20.2971 18.9714 20.7073 18.9961 21.1189 18.9845C21.3604 18.9778 21.6007 18.9592 21.8323 18.8816C22.0052 18.8236 22.1808 18.7692 22.3253 18.6537C22.4274 18.5719 22.5038 18.4718 22.4806 18.3267C22.4701 18.2617 22.4355 18.2101 22.3969 18.1605C22.2998 18.0364 22.1707 17.9642 22.0159 17.9385C21.9736 17.9314 21.9296 17.9361 21.8863 17.9344C21.7113 17.9277 21.5347 17.9092 21.3659 17.9816C21.284 18.0167 21.1957 18.0313 21.1092 18.0525C20.927 18.0971 20.7427 18.1289 20.5563 18.1344C19.945 18.1522 19.3333 18.1393 18.7218 18.135C17.9298 18.1295 17.1381 18.1124 16.3465 18.0843C16.3226 18.0834 16.297 18.0884 16.275 18.0815C16.1442 18.0407 16.0082 18.0542 15.8747 18.0434C15.6712 18.0269 15.4671 18.0193 15.2632 18.0088C14.9922 17.9948 14.7231 17.9568 14.4517 17.9483C14.1799 17.9398 13.9083 17.9287 13.6366 17.9195C13.3776 17.9106 13.118 17.91 12.8603 17.933C12.6563 17.9512 12.4506 17.9629 12.2501 18.0163C12.041 18.072 11.8162 18.0826 11.6532 18.2543C11.5891 18.3217 11.5059 18.3743 11.4532 18.4489C11.3937 18.5335 11.3921 18.6409 11.4028 18.7438C11.4226 18.9337 11.4903 19.1073 11.5771 19.2771C11.7081 19.5336 11.8666 19.7714 12.0584 19.9847C12.3247 20.2811 12.6494 20.5035 12.9998 20.6924C13.2443 20.8242 13.505 20.9159 13.7625 21.0151C14.0445 21.1236 14.3362 21.2005 14.6345 21.254C14.9828 21.3166 15.3307 21.3803 15.6831 21.4152C15.945 21.4411 16.2079 21.4588 16.4711 21.4613C17.0199 21.4663 17.5683 21.4852 18.1167 21.4217C18.3812 21.3912 18.6487 21.3851 18.9129 21.342C19.1364 21.3055 19.3685 21.3277 19.585 21.2419C19.634 21.2226 19.6878 21.2421 19.74 21.2292C19.8316 21.2067 19.9254 21.1937 20.0178 21.1733C20.3995 21.0894 20.761 20.9649 21.0809 20.7329C21.3149 20.563 21.4795 20.3439 21.5845 20.0779C21.5986 20.0422 21.5979 19.9972 21.62 19.9689C21.6578 19.9205 21.6678 19.8678 21.6694 19.8115C21.6715 19.7402 21.6737 19.6684 21.6694 19.5972C21.6597 19.4366 21.6135 19.2872 21.5239 19.1519C21.4921 19.1039 21.4527 19.0801 21.3933 19.0858C21.2198 19.1023 21.0455 19.0991 20.8716 19.1048C20.8394 19.1058 20.8071 19.1049 20.7588 19.1049L20.7589 19.1043ZM20.3829 17.0488C20.5723 17.0517 20.7617 17.051 20.9488 17.0186C21.2219 16.9714 21.4901 16.9064 21.7398 16.782C21.821 16.7415 21.9064 16.7044 21.9777 16.6499C22.1582 16.512 22.332 16.3695 22.4478 16.1633C22.5108 16.0512 22.5573 15.9394 22.5744 15.8165C22.6235 15.464 22.478 15.1755 22.2596 14.9137C22.2373 14.887 22.2091 14.8666 22.1772 14.8512C22.1645 14.8452 22.1539 14.8364 22.1428 14.8265C21.9997 14.6985 21.8611 14.5622 21.6759 14.4942C21.5889 14.4623 21.5055 14.4197 21.4231 14.3817C21.2749 14.3136 21.1182 14.282 20.9663 14.2327C20.8383 14.1913 20.7033 14.1783 20.5694 14.1614C20.0848 14.1003 19.6087 14.1307 19.1417 14.2785C19.0102 14.3201 18.8894 14.3843 18.7665 14.4458C18.4645 14.5972 18.2162 14.8078 18.088 15.1209C17.949 15.4599 17.9968 15.7878 18.2101 16.0946C18.434 16.4168 18.7359 16.6365 19.0901 16.7893C19.27 16.8668 19.4541 16.935 19.6501 16.9688C19.8201 16.9982 19.984 17.0618 20.1613 17.0493C20.2349 17.0441 20.3091 17.0484 20.383 17.0484L20.3829 17.0488ZM14.4453 14.0502C14.1729 14.029 13.8801 14.0799 13.5938 14.1479C13.3105 14.2151 13.0404 14.3227 12.7947 14.4915C12.6013 14.6243 12.4325 14.7689 12.338 14.9873C12.2306 15.2353 12.2317 15.4793 12.3439 15.7279C12.425 15.9076 12.5578 16.0455 12.6953 16.1758C12.8709 16.3418 13.0796 16.4645 13.3054 16.5558C13.3898 16.5899 13.4818 16.6083 13.5618 16.6464C13.6583 16.6924 13.7595 16.7277 13.8593 16.746C14.0935 16.7892 14.3271 16.8405 14.5671 16.8521C14.8373 16.8652 15.1062 16.8563 15.3737 16.8188C15.5221 16.7981 15.666 16.7548 15.8099 16.7135C16.0147 16.6546 16.2063 16.5696 16.3893 16.4588C16.5054 16.3885 16.6192 16.3172 16.7118 16.2193C16.8714 16.0506 16.9945 15.863 17.0139 15.621C17.0374 15.3263 16.9278 15.0825 16.7321 14.8733C16.5545 14.6832 16.3486 14.5318 16.1124 14.4141C15.9229 14.3197 15.7286 14.2404 15.5266 14.1861C15.1824 14.0934 14.8308 14.0379 14.4456 14.0505L14.4453 14.0502ZM13.8571 18.6806C13.8799 18.6996 13.896 18.7135 13.9126 18.7266C14.0792 18.8578 14.2462 18.989 14.4286 19.0978C14.4991 19.1398 14.56 19.1946 14.6334 19.2335C14.7115 19.2747 14.793 19.3085 14.8697 19.3542C14.9885 19.4249 15.1154 19.4843 15.2434 19.5375C15.4492 19.623 15.6592 19.6984 15.8666 19.7803C16.1905 19.9083 16.5275 19.9956 16.8652 20.0734C17.2398 20.1597 17.6215 20.218 18.009 20.1983C18.2872 20.1843 18.5584 20.1336 18.7914 19.97C18.9355 19.8689 19.0412 19.7325 19.0938 19.56C19.1689 19.3139 18.9992 18.9098 18.6399 18.939C18.4767 18.9523 18.3109 18.916 18.1464 18.9037C17.9913 18.892 17.8371 18.8675 17.6809 18.8636C17.5961 18.8614 17.5112 18.8563 17.427 18.8471C17.1438 18.8163 16.8594 18.8019 16.5754 18.7813C16.3978 18.7686 16.2178 18.7744 16.0421 18.7493C15.7505 18.7079 15.4572 18.709 15.1647 18.692C14.7563 18.6681 14.347 18.6648 13.9378 18.6697C13.9147 18.6699 13.8906 18.6639 13.8568 18.6804L13.8571 18.6806ZM10.6017 11.0471C10.5991 11.1949 10.6064 11.3414 10.6491 11.4838C10.684 11.6001 10.7322 11.7113 10.7894 11.8179C10.8249 11.8841 10.8672 11.8932 10.9144 11.845C11.0474 11.7088 11.2008 11.6013 11.3636 11.5042C11.4523 11.4513 11.5465 11.4086 11.6334 11.351C11.6903 11.3133 11.7668 11.3023 11.8299 11.2677C12.0239 11.1615 12.2348 11.0951 12.4378 11.0102C12.5771 10.9519 12.7178 10.8967 12.8556 10.8352C12.9339 10.8002 13.008 10.7552 13.0839 10.7146C13.13 10.6899 13.1429 10.6533 13.121 10.6059C13.1101 10.5824 13.099 10.5584 13.0839 10.5376C12.8292 10.1878 12.5245 9.90363 12.0983 9.7692C11.9531 9.7233 11.8085 9.69535 11.6571 9.70523C11.3439 9.72551 11.076 9.84655 10.8881 10.0984C10.68 10.3773 10.5792 10.6963 10.6017 11.0471Z" fill="#E6DAFE"/>
<path d="M20.0683 16.4947C19.836 16.4951 19.6331 16.4751 19.4428 16.3915C19.3098 16.333 19.184 16.2584 19.0798 16.1567C18.8377 15.9202 18.7997 15.5701 18.9484 15.2822C19.1105 14.9685 19.3823 14.8056 19.6951 14.6865C20.0847 14.5383 20.4818 14.5421 20.8601 14.6958C21.1315 14.806 21.3736 14.987 21.4319 15.3062C21.4791 15.564 21.396 15.7936 21.2249 15.9907C21.116 16.1161 20.9879 16.2156 20.8369 16.2909C20.5855 16.4161 20.3276 16.5069 20.0683 16.4949V16.4947ZM20.636 15.5616C20.7579 15.5722 20.8575 15.525 20.9375 15.4383C21.0285 15.3393 21.0058 15.218 20.8894 15.1551C20.769 15.09 20.5776 15.1076 20.4716 15.1962C20.4007 15.2553 20.3593 15.3284 20.3834 15.4241C20.3995 15.4874 20.4999 15.5532 20.584 15.559C20.6014 15.5602 20.6186 15.5609 20.636 15.5618V15.5616Z" fill="#E6DAFE"/>
<path d="M14.5745 16.5237C14.2812 16.5183 14.0177 16.4613 13.7706 16.3184C13.6403 16.243 13.5196 16.1636 13.4309 16.0428C13.3126 15.8817 13.2199 15.7083 13.2145 15.5026C13.2082 15.2612 13.285 15.0446 13.4532 14.8728C13.7433 14.5768 14.105 14.4398 14.5191 14.437C14.7871 14.4352 15.0362 14.5071 15.278 14.6182C15.4608 14.7021 15.6117 14.8298 15.7256 14.9849C15.962 15.3071 15.9394 15.717 15.7007 16.0156C15.5929 16.1506 15.4557 16.2482 15.3067 16.3374C15.0744 16.4764 14.8232 16.5141 14.5746 16.5239L14.5745 16.5237ZM14.9393 15.4927C15.009 15.4969 15.0626 15.4657 15.1211 15.4306C15.2097 15.3775 15.2613 15.279 15.2293 15.1802C15.1616 14.9713 14.8659 14.8878 14.6972 15.0298C14.6077 15.105 14.5817 15.2375 14.638 15.3275C14.7077 15.4388 14.8114 15.4878 14.9393 15.4927Z" fill="#E6DAFE"/>
</svg>
