<svg width="32" height="32" viewBox="0 0 32 32" fill="none" xmlns="http://www.w3.org/2000/svg">
<path d="M13.77 24.5224C13.5925 24.5224 13.4125 24.5224 13.2275 24.4999C13.1612 24.4939 13.1 24.4619 13.0573 24.4108C13.0147 24.3597 12.9941 24.2937 13 24.2274C13.006 24.1611 13.0381 24.0999 13.0892 24.0572C13.1403 24.0145 13.2062 23.9939 13.2725 23.9999C14.1659 24.0615 15.0628 23.9521 15.915 23.6774C15.9768 23.657 16.0442 23.6615 16.1027 23.69C16.1612 23.7184 16.2063 23.7686 16.2285 23.8298C16.2506 23.891 16.248 23.9584 16.2212 24.0177C16.1944 24.077 16.1456 24.1235 16.085 24.1474C15.3374 24.3913 14.5564 24.5178 13.77 24.5224V24.5224Z" fill="#E6DAFE"/>
<path d="M15.9996 26.0624C15.7279 26.0692 15.4562 26.0457 15.1896 25.9924C15.1567 25.9856 15.1254 25.9722 15.0978 25.953C15.0701 25.9338 15.0467 25.9093 15.0287 25.8808C15.0108 25.8524 14.9988 25.8206 14.9934 25.7873C14.9881 25.7541 14.9895 25.7202 14.9976 25.6875C15.0056 25.6549 15.0202 25.6242 15.0404 25.5973C15.0607 25.5704 15.0861 25.5479 15.1153 25.531C15.1444 25.5142 15.1766 25.5035 15.21 25.4994C15.2434 25.4953 15.2773 25.498 15.3096 25.5074C15.5371 25.55 15.7683 25.5684 15.9996 25.5624C16.2309 25.5676 16.4621 25.5492 16.6896 25.5074C16.722 25.498 16.7558 25.4953 16.7892 25.4994C16.8226 25.5035 16.8549 25.5142 16.884 25.531C16.9131 25.5479 16.9386 25.5704 16.9588 25.5973C16.979 25.6242 16.9936 25.6549 17.0017 25.6875C17.0098 25.7202 17.0112 25.7541 17.0058 25.7873C17.0005 25.8206 16.9885 25.8524 16.9706 25.8808C16.9526 25.9093 16.9291 25.9338 16.9015 25.953C16.8738 25.9722 16.8426 25.9856 16.8096 25.9924C16.5431 26.0457 16.2714 26.0692 15.9996 26.0624V26.0624Z" fill="#E6DAFE"/>
<path d="M16 24.1625C15.9337 24.1625 15.8701 24.1362 15.8232 24.0893C15.7763 24.0424 15.75 23.9788 15.75 23.9125V22.5C15.75 22.4337 15.7763 22.3701 15.8232 22.3232C15.8701 22.2763 15.9337 22.25 16 22.25C16.0663 22.25 16.1299 22.2763 16.1768 22.3232C16.2237 22.3701 16.25 22.4337 16.25 22.5V23.9125C16.25 23.9788 16.2237 24.0424 16.1768 24.0893C16.1299 24.1362 16.0663 24.1625 16 24.1625Z" fill="#E6DAFE"/>
<path d="M15.9803 20.28C15.2928 20.28 14.5878 20.4975 14.5703 21.015C14.5378 21.94 15.3653 22.875 15.9803 22.8525C16.6128 22.875 17.4628 21.94 17.4303 21.015C17.4103 20.5 16.6878 20.28 15.9803 20.28Z" fill="#E6DAFE"/>
<path d="M18.2298 24.5226C17.4434 24.518 16.6624 24.3915 15.9148 24.1476C15.8831 24.1371 15.8538 24.1204 15.8286 24.0983C15.8034 24.0763 15.7829 24.0495 15.7683 24.0195C15.7537 23.9894 15.7453 23.9567 15.7435 23.9233C15.7418 23.8899 15.7467 23.8566 15.7581 23.8251C15.7694 23.7937 15.787 23.7649 15.8097 23.7403C15.8324 23.7158 15.8598 23.6961 15.8903 23.6823C15.9207 23.6686 15.9536 23.661 15.9871 23.6602C16.0205 23.6594 16.0537 23.6653 16.0848 23.6776C16.9376 23.9501 17.834 24.0595 18.7273 24.0001C18.7936 23.9941 18.8596 24.0147 18.9107 24.0574C18.9618 24.1 18.9938 24.1613 18.9998 24.2276C19.0058 24.2939 18.9852 24.3598 18.9425 24.4109C18.8998 24.462 18.8386 24.4941 18.7723 24.5001C18.5873 24.5151 18.4073 24.5226 18.2298 24.5226Z" fill="#E6DAFE"/>
<path d="M18.5901 24.2524L17.6426 24.2674L17.5801 26.1424L18.5901 24.2524Z" fill="#E6DAFE"/>
<path d="M13.4102 24.2524L14.4202 26.1424L14.3577 24.2674L13.4102 24.2524Z" fill="#E6DAFE"/>
<path d="M24.902 14.3376C24.902 14.3376 26.747 8.70507 26.3295 6.67757C26.102 5.57757 25.522 5.11257 24.277 5.59507C22.227 6.39007 20.3145 9.39757 20.3145 9.39757C18.9006 9.05591 17.4538 8.86815 15.9995 8.83757V8.83757C14.5452 8.86815 13.0985 9.05591 11.6845 9.39757C11.6845 9.39757 9.77204 6.39757 7.72204 5.59507C6.47204 5.11257 5.89704 5.57757 5.66954 6.67757C5.24954 8.70507 7.09704 14.3376 7.09704 14.3376C6.62707 15.437 6.2173 16.5611 5.86954 17.7051C5.60454 18.7051 5.64704 20.3751 5.64704 20.3751V20.5601C5.63099 21.7865 6.03602 22.9813 6.79454 23.9451C8.72704 26.5001 13.3295 28.5001 15.9995 28.5001C18.6695 28.5001 23.272 26.5001 25.202 23.9451C25.9604 22.9812 26.3654 21.7864 26.3495 20.5601V20.3751C26.3495 20.3751 26.392 18.6976 26.127 17.7051C25.7801 16.5612 25.3711 15.437 24.902 14.3376V14.3376ZM19.7495 14.7301C19.827 14.2926 20.212 13.7001 20.7795 13.7001C21.2795 13.7001 21.8945 14.3426 21.907 14.7701C21.9195 15.1976 21.407 15.4026 20.8095 15.3776C20.212 15.3526 19.677 15.1701 19.7495 14.7301ZM20.0295 16.9551C20.972 16.4076 22.132 15.9676 22.4395 16.2476C22.747 16.5276 22.732 17.7476 21.112 18.3901C19.682 18.9526 18.552 18.7301 18.4195 18.4676C18.197 18.0151 19.4995 17.2701 20.0345 16.9551H20.0295ZM11.2095 13.7051C11.777 13.7051 12.162 14.2976 12.2395 14.7351C12.317 15.1726 11.7745 15.3551 11.1795 15.3826C10.5845 15.4101 10.0695 15.2001 10.082 14.7751C10.0945 14.3501 10.7045 13.7001 11.2145 13.7001L11.2095 13.7051ZM9.55454 16.2501C9.86204 15.9701 11.022 16.4101 11.9645 16.9576C12.5045 17.2726 13.802 18.0176 13.5745 18.4701C13.442 18.7201 12.3245 18.9551 10.882 18.3926C9.26204 17.7501 9.24954 16.5251 9.55454 16.2501ZM24.8045 23.6476C22.9995 26.0551 18.4995 28.0001 15.9995 28.0001C13.4995 28.0001 9.01204 26.0576 7.19704 23.6476C6.52841 22.8098 6.16042 21.7719 6.15204 20.7001C7.13488 20.6579 8.1189 20.7496 9.07704 20.9726C10.0295 21.2376 11.357 22.5301 11.372 22.5426L11.6695 22.8351L11.787 22.4351C11.787 22.4176 12.302 20.6851 13.1995 19.9351C13.932 19.3176 14.797 19.0401 15.9995 19.0401C17.202 19.0401 18.067 19.3176 18.7995 19.9351C19.697 20.6851 20.207 22.4176 20.212 22.4351L20.3295 22.8351L20.627 22.5426C20.642 22.5426 21.9695 21.2376 22.922 20.9726C23.8804 20.7508 24.8642 20.6592 25.847 20.7001C25.8381 21.771 25.4701 22.808 24.802 23.6451L24.8045 23.6476Z" fill="#E6DAFE"/>
</svg>
