<svg width="32" height="32" viewBox="0 0 32 32" fill="none" xmlns="http://www.w3.org/2000/svg">
<path d="M22.917 20.355C19.1954 20.3547 15.6099 18.9558 12.8713 16.4358C10.1327 13.9158 8.44115 10.4587 8.13201 6.75C6.69734 7.97125 5.56648 9.50955 4.82885 11.2432C4.09122 12.9769 3.76706 14.8584 3.882 16.739C3.99694 18.6196 4.54783 20.4476 5.4911 22.0785C6.43437 23.7095 7.74416 25.0986 9.31688 26.136C10.8896 27.1735 12.6821 27.8308 14.5527 28.056C16.4233 28.2812 18.3206 28.0681 20.0946 27.4336C21.8686 26.7991 23.4707 25.7605 24.7741 24.4001C26.0775 23.0396 27.0465 21.3945 27.6045 19.595C26.093 20.0987 24.5102 20.3553 22.917 20.355V20.355Z" fill="#E6DAFE"/>
<path d="M27.9279 13.6975C27.392 10.9269 25.9087 8.42915 23.7323 6.63278C21.556 4.83642 18.8223 3.85345 16.0004 3.85254C14.1379 3.85254 12.3479 4.16254 10.8654 5.08504C10.4504 5.33504 10.5454 6.00254 10.7804 6.38754C11.4679 7.51504 17.0904 10.16 23.1729 11.9075C25.4654 12.565 26.9579 13.1825 27.9279 13.6975Z" fill="#E6DAFE"/>
<path d="M23.662 13.0001C23.257 12.8801 22.8554 12.7576 22.457 12.6326C22.9126 13.3062 23.4353 13.9319 24.017 14.5001C24.857 15.2651 26.6245 16.6076 28.032 17.6526C28.1071 17.1057 28.1455 16.5545 28.147 16.0026C28.1457 15.5313 28.1165 15.0604 28.0595 14.5926C26.6325 13.9602 25.1631 13.4281 23.662 13.0001V13.0001Z" fill="#E6DAFE"/>
</svg>
