<svg width="32" height="32" viewBox="0 0 32 32" fill="none" xmlns="http://www.w3.org/2000/svg">
<path d="M16 3C8.82214 3 3 8.82214 3 16C3 23.1779 8.82214 29 16 29C23.1779 29 29 23.1779 29 16C29 8.82214 23.1779 3 16 3ZM22.7043 14.5793C23.5214 14.5793 24.125 15.1086 24.125 16C24.125 16.8914 23.5121 17.4207 22.7043 17.4207H11.125V17.8293C11.125 19.055 12.3414 20.2621 14.7836 20.2621H22.7043C23.7164 20.2621 24.125 20.6707 24.125 21.6829C24.125 22.5743 23.9207 23.1036 19.5007 23.1036H14.7743C9.89929 23.1036 7.86571 21.0236 7.86571 18.2286V13.7621C7.86571 10.9671 9.89929 8.88714 14.7743 8.88714H19.5007C23.9207 8.88714 24.125 9.41643 24.125 10.3079C24.125 11.32 23.7164 11.7286 22.7043 11.7286H14.7836C12.3507 11.7286 11.125 12.945 11.125 14.1614V14.57H22.7043V14.5793Z" fill="#E6DAFE"/>
</svg>
