<svg width="32" height="32" viewBox="0 0 32 32" fill="none" xmlns="http://www.w3.org/2000/svg">
<path d="M28.3168 9.89027L20.4382 14.0182V18.8043L23.1479 17.3663V20.142L15.5124 24.5376L9.37633 21.0041C8.92029 20.7416 8.54162 20.364 8.27839 19.9094C8.01517 19.4547 7.87667 18.9389 7.87683 18.4139V11.3503L14.2098 7.70482C14.6058 7.47689 15.0549 7.3569 15.5121 7.3569C15.9694 7.3569 16.4185 7.47689 16.8145 7.70482L23.1476 11.3503L27.0243 9.11852L17.1583 3.43936C16.6574 3.15151 16.0894 3 15.5113 3C14.9331 3 14.3651 3.15151 13.8643 3.43936L4 9.11924V20.641C4.00002 21.1675 4.13904 21.6849 4.40311 22.1409C4.66717 22.597 5.04698 22.9757 5.50436 23.2391L15.5129 29L25.5072 23.2476C25.9688 22.982 26.3522 22.5998 26.6187 22.1396C26.8853 21.6793 27.0255 21.1572 27.0254 20.6258V15.3103L28.3162 14.6262V9.89027H28.3168Z" fill="#E6DAFE"/>
</svg>
