<svg width="32" height="32" viewBox="0 0 32 32" fill="none" xmlns="http://www.w3.org/2000/svg">
<path d="M28.7508 13.9365C28.4432 12.5931 27.5255 11.627 26.3518 10.9527C23.5735 9.35758 19.3276 8.56002 17.9379 9.43449C16.5482 10.309 14.2577 15.2608 15.6348 27.6699L18.1307 28.5971L21.9721 24.3027C21.9721 24.3027 18.7355 21.8689 18.5816 12.8576C18.5816 12.8576 19.6953 23.8686 23.7579 24.7178C26.8439 25.3626 28.2557 21.2125 28.7308 18.9189C29.0574 17.3395 29.1133 15.5189 28.7508 13.9375V13.9365Z" fill="#E6DAFE"/>
<path d="M6.96798 4.20239C5.11684 3.49544 2.45759 4.30353 3.09711 12.1464C3.73664 19.9893 11.0348 28.596 11.0348 28.596L13.2568 27.5877C14.2936 23.8749 14.4748 17.5323 13.2568 13.0883C12.0389 8.64641 8.82018 4.90935 6.96798 4.20239Z" fill="#E6DAFE"/>
</svg>
