<svg width="32" height="32" viewBox="0 0 32 32" fill="none" xmlns="http://www.w3.org/2000/svg">
<path d="M16 3C8.8175 3 3 8.8175 3 16C3 23.1825 8.8175 29 16 29C23.1825 29 29 23.1825 29 16C29 8.8175 23.1825 3 16 3ZM8.2715 10.9105L9.266 10.605C9.4675 10.54 9.63 10.384 9.695 10.1825L10.0135 9.188C10.059 9.0515 10.254 9.0515 10.293 9.188L10.5985 10.1825C10.6635 10.384 10.8195 10.5465 11.021 10.6115L12.0155 10.93C12.152 10.9755 12.152 11.1705 12.0155 11.2095L11.021 11.515C10.8195 11.58 10.657 11.736 10.592 11.9375L10.2735 12.932C10.228 13.0685 10.033 13.0685 9.994 12.932L9.6885 11.9375C9.6235 11.736 9.4675 11.5735 9.266 11.5085L8.2715 11.19C8.135 11.1445 8.135 10.9495 8.2715 10.9105ZM22.5975 23.0915C21.7785 23.0915 21.1155 22.4285 21.1155 21.6095C21.1155 20.7905 21.7785 20.1275 22.5975 20.1275C23.4165 20.1275 24.0795 20.7905 24.0795 21.6095C24.0795 22.4285 23.4165 23.0915 22.5975 23.0915ZM25.2625 12.7045C25.0415 12.841 24.84 12.9905 24.658 13.14C24.2875 13.452 23.969 13.777 23.67 14.1215C23.0785 14.791 22.565 15.519 22.0515 16.2535C21.785 16.6045 21.5445 17.001 21.278 17.352L20.8945 17.9175C20.758 18.1125 20.654 18.2555 20.459 18.509C19.7635 19.4255 18.938 20.3095 17.9175 21.083C16.9035 21.85 15.6425 22.513 14.2125 22.786C12.7825 23.072 11.255 22.8835 10.0395 22.3505C8.8045 21.8305 7.8425 21.044 7.0755 20.173C6.315 19.289 5.7235 18.327 5.327 17.235C6.1135 17.3585 6.7505 17.599 7.654 17.599C8.1155 17.599 8.6485 17.534 9.305 17.365C11.2875 16.845 12.4965 15.077 13.621 13.5755L14.4985 12.4055L15.0705 11.6775C15.2915 11.4305 15.5125 11.177 15.753 10.943C16.2405 10.4685 16.806 10.0265 17.4365 9.656C18.067 9.2855 18.7885 9.0125 19.536 8.863C19.9065 8.7915 20.2705 8.759 20.6345 8.759C21.759 8.759 22.825 9.084 23.657 9.604C24.7555 10.293 25.581 11.2355 26.0165 12.347C25.724 12.438 25.4835 12.5485 25.2625 12.6915V12.7045Z" fill="#E6DAFE"/>
<path d="M23.3906 10.033C22.5976 9.53901 21.6161 9.26601 20.6281 9.26601C20.2901 9.26601 19.9521 9.29851 19.6206 9.36351C18.9446 9.49351 18.2751 9.74701 17.6771 10.098C17.1116 10.4295 16.5786 10.839 16.0911 11.3135C15.8636 11.541 15.6491 11.775 15.4346 12.022L14.8821 12.7305L14.0046 13.894L13.8096 14.1605C12.7046 15.649 11.4566 17.3325 9.42858 17.8655C9.05158 17.963 8.69408 18.028 8.35608 18.067C8.11558 18.093 7.88158 18.119 7.65408 18.119C7.08208 18.119 6.61408 18.028 6.16558 17.937C6.28908 18.1645 6.42558 18.3725 6.56208 18.561C6.93258 19.068 7.32908 19.4775 7.77108 19.809C7.98558 19.9585 8.25208 20.147 8.55758 20.2965C8.85658 20.446 9.16858 20.563 9.47408 20.654C9.92258 20.7775 10.4101 20.8425 10.8846 20.8425C11.1121 20.8425 11.3396 20.8295 11.5606 20.797C12.2431 20.706 12.9321 20.4915 13.5691 20.173C14.1281 19.9 14.6611 19.549 15.2071 19.1005C16.0586 18.392 16.8321 17.5405 17.5731 16.5005C17.8786 16.078 18.1711 15.623 18.4636 15.116L18.7886 14.5505C18.8991 14.3685 19.0031 14.1995 19.1071 14.037C19.6076 13.2895 20.0496 12.789 20.5371 12.4185C21.1481 11.9375 21.9411 11.6515 22.8771 11.5865C23.0526 11.5735 23.2281 11.567 23.4166 11.567C23.8521 11.567 24.3201 11.6125 24.8206 11.6775C24.9181 11.6905 25.0156 11.697 25.1131 11.7165C24.6906 11.073 24.1056 10.5075 23.3906 10.059V10.033Z" fill="#E6DAFE"/>
</svg>
