<svg width="32" height="32" viewBox="0 0 32 32" fill="none" xmlns="http://www.w3.org/2000/svg">
<path d="M19.3008 16.2217H17.1563L13.779 16.2259H12.1099V19.0781C12.477 22.6507 15.7547 23.316 15.7547 23.316C19.3846 22.2486 19.2997 19.0166 19.2997 19.0166V16.2228L19.3008 16.2217ZM12.2892 19.1121V16.401H14.561V22.6571C13.641 22.135 12.4929 21.0963 12.2892 19.111V19.1121ZM16.9728 22.6221V16.3978H19.1236V19.0526C19.1236 19.0526 19.1798 21.3435 16.9738 22.621L16.9728 22.6221Z" fill="#E6DAFE"/>
<path d="M15.4639 15.3633L15.4236 15.3559C15.3589 15.4684 15.2846 15.5448 15.1997 15.5851C15.1159 15.6265 15.0151 15.6466 14.8984 15.6466C14.8687 15.6466 14.8453 15.6424 14.8294 15.6349C14.8124 15.6265 14.805 15.6127 14.805 15.5936C14.805 15.5829 14.805 15.5734 14.8071 15.5649C14.8092 15.5564 14.8103 15.5479 14.8124 15.5394L15.0321 14.7065C15.0459 14.6545 15.0628 14.6227 15.083 14.6099C15.1032 14.5972 15.1435 14.5877 15.2018 14.5813V14.5357H14.6639V14.5813C14.7148 14.5855 14.7477 14.5919 14.7636 14.6004C14.7795 14.6078 14.788 14.6259 14.788 14.6556C14.788 14.6672 14.7859 14.68 14.7827 14.6959C14.7795 14.7107 14.7753 14.7288 14.77 14.7511L14.562 15.5341C14.5493 15.5819 14.5334 15.6137 14.5143 15.6286C14.4952 15.6445 14.4655 15.654 14.4251 15.6593V15.7039H15.3642L15.4629 15.3644L15.4639 15.3633Z" fill="#E6DAFE"/>
<path d="M17.6094 15.3644L17.5638 15.3569C17.4863 15.48 17.3855 15.5639 17.2635 15.6074C17.1967 15.6318 17.1149 15.6434 17.0184 15.6434H16.8964L17.741 14.5877L17.7452 14.5367H16.9377L16.8125 14.8476L16.8592 14.854C16.924 14.7744 16.9823 14.7171 17.0343 14.6821C17.1139 14.629 17.2094 14.6004 17.3187 14.5983H17.4524L16.6067 15.654L16.6025 15.7039H17.4778L17.6105 15.3644H17.6094Z" fill="#E6DAFE"/>
<path d="M17.9946 14.75L17.7824 15.5331C17.7696 15.5808 17.7527 15.6127 17.7336 15.6275C17.7134 15.6434 17.6837 15.653 17.6423 15.6583V15.7028H18.1559V15.6583C18.1039 15.654 18.0699 15.6477 18.054 15.6392C18.0381 15.6318 18.0307 15.6127 18.0307 15.5829C18.0307 15.5776 18.0307 15.5723 18.0307 15.567C18.0317 15.5607 18.0328 15.5554 18.0338 15.549L18.0476 15.4885L18.2598 14.7054C18.2726 14.6577 18.2885 14.6259 18.3065 14.611C18.3256 14.5962 18.3564 14.5855 18.3988 14.5802V14.5346H17.8853V14.5802C17.9373 14.5845 17.9712 14.5908 17.9872 14.5993C18.0031 14.6068 18.0116 14.6248 18.0116 14.6545C18.0116 14.6662 18.0094 14.6789 18.0063 14.6948C18.0031 14.7097 17.9988 14.7277 17.9925 14.75H17.9946Z" fill="#E6DAFE"/>
<path d="M12.1725 15.6657C12.1799 15.6657 12.1863 15.6657 12.1916 15.6678C12.1969 15.6689 12.2064 15.6721 12.2213 15.6784L12.2637 15.6944C12.2935 15.706 12.3242 15.7145 12.355 15.7198C12.3868 15.7262 12.4176 15.7294 12.4494 15.7294C12.5746 15.7294 12.6754 15.6922 12.7518 15.619C12.8282 15.5448 12.8707 15.462 12.877 15.3697C12.8823 15.2986 12.8675 15.2349 12.8346 15.1797C12.8017 15.1235 12.7603 15.0736 12.7105 15.0301L12.5704 14.907C12.5481 14.8869 12.5322 14.8688 12.5216 14.8519C12.5035 14.8211 12.4951 14.7861 12.4982 14.7468C12.5004 14.7097 12.5131 14.6747 12.5354 14.6428C12.5693 14.594 12.6192 14.5696 12.685 14.5696C12.7624 14.5696 12.8197 14.6004 12.8558 14.6609C12.8792 14.6991 12.8919 14.7458 12.8961 14.7999L12.8983 14.8572L12.9428 14.8635L13.0362 14.5155H12.9853C12.9768 14.5282 12.9662 14.5389 12.9556 14.5473C12.9439 14.5558 12.929 14.5601 12.9078 14.5601C12.9004 14.5601 12.8908 14.5601 12.8813 14.5569C12.8717 14.5548 12.8622 14.5527 12.8526 14.5495L12.8102 14.5346C12.7943 14.5293 12.7762 14.524 12.755 14.5198C12.7232 14.5134 12.6914 14.5102 12.6606 14.5102C12.5492 14.5102 12.4611 14.5431 12.3943 14.6089C12.3285 14.6747 12.2913 14.7543 12.285 14.8476C12.2775 14.9463 12.3412 15.0545 12.4738 15.1713C12.6065 15.2827 12.6712 15.375 12.6659 15.4482C12.6616 15.5066 12.6394 15.5585 12.598 15.6042C12.5577 15.6487 12.5025 15.67 12.4335 15.67C12.3953 15.67 12.3592 15.6625 12.3274 15.6466C12.2956 15.6307 12.268 15.6074 12.2446 15.5776C12.2192 15.5448 12.2022 15.5076 12.1948 15.4652C12.1905 15.4397 12.1884 15.3994 12.1884 15.3431L12.1385 15.34L12.0494 15.7294H12.1014C12.1131 15.706 12.1237 15.6901 12.1322 15.6806C12.1417 15.671 12.1555 15.6657 12.1746 15.6657H12.1725Z" fill="#E6DAFE"/>
<path d="M12.8823 15.5097C12.8558 15.5341 12.842 15.5649 12.8388 15.601C12.8367 15.6371 12.8463 15.6668 12.8696 15.6922C12.893 15.7177 12.9227 15.7294 12.9566 15.7294C12.9906 15.7294 13.0224 15.7167 13.0489 15.6922C13.0755 15.6668 13.0903 15.636 13.0935 15.601C13.0956 15.566 13.085 15.5363 13.0617 15.5108C13.0383 15.4853 13.0097 15.4726 12.9747 15.4726C12.9396 15.4726 12.9089 15.4853 12.8823 15.5097Z" fill="#E6DAFE"/>
<path d="M13.2113 15.6806C13.2208 15.671 13.2346 15.6657 13.2537 15.6657C13.2611 15.6657 13.2675 15.6657 13.2728 15.6678C13.2781 15.6689 13.2887 15.6721 13.3025 15.6784L13.345 15.6944C13.3747 15.706 13.4055 15.7145 13.4362 15.7198C13.4681 15.7262 13.4988 15.7294 13.5307 15.7294C13.6559 15.7294 13.7567 15.6922 13.8331 15.619C13.9105 15.5448 13.9519 15.462 13.9583 15.3697C13.9636 15.2986 13.9487 15.2349 13.9158 15.1797C13.8829 15.1235 13.8416 15.0736 13.7917 15.0301L13.6516 14.9071C13.6293 14.8869 13.6134 14.8689 13.6028 14.8519C13.5837 14.8211 13.5763 14.7861 13.5795 14.7468C13.5816 14.7097 13.5943 14.6747 13.6166 14.6428C13.6506 14.594 13.7004 14.5696 13.7662 14.5696C13.8437 14.5696 13.901 14.6004 13.937 14.6609C13.9604 14.6991 13.9731 14.7458 13.9774 14.7999L13.9795 14.8572L14.0241 14.8635L14.1174 14.5155H14.0665C14.058 14.5282 14.0474 14.5389 14.0368 14.5473C14.0251 14.5558 14.0103 14.5601 13.9901 14.5601C13.9827 14.5601 13.9731 14.5601 13.9636 14.558C13.954 14.5558 13.9434 14.5537 13.9349 14.5505L13.8925 14.5357C13.8766 14.5304 13.8585 14.5251 13.8373 14.5219C13.8055 14.5155 13.7736 14.5123 13.7429 14.5123C13.6315 14.5123 13.5434 14.5452 13.4765 14.611C13.4108 14.6768 13.3736 14.7564 13.3673 14.8498C13.3598 14.9484 13.4235 15.0567 13.5561 15.1734C13.6888 15.2848 13.7535 15.3771 13.7482 15.4503C13.7439 15.5087 13.7217 15.5607 13.6803 15.6063C13.6399 15.6509 13.5848 15.6721 13.5158 15.6721C13.4765 15.6721 13.4415 15.6647 13.4097 15.6487C13.3779 15.6328 13.3503 15.6095 13.3269 15.5798C13.3015 15.5469 13.2845 15.5097 13.2771 15.4673C13.2728 15.4418 13.2707 15.4015 13.2718 15.3453L13.2219 15.3421L13.1328 15.7315H13.1847C13.1964 15.7082 13.207 15.6922 13.2155 15.6827L13.2113 15.6806Z" fill="#E6DAFE"/>
<path d="M14.0187 15.5097C13.9922 15.5341 13.9784 15.5649 13.9752 15.601C13.9731 15.6371 13.9827 15.6668 14.006 15.6922C14.0294 15.7177 14.0591 15.7294 14.093 15.7294C14.127 15.7294 14.1588 15.7167 14.1853 15.6922C14.2119 15.6668 14.2267 15.636 14.2299 15.601C14.232 15.566 14.2214 15.5363 14.1981 15.5108C14.1747 15.4853 14.1461 15.4726 14.1111 15.4726C14.076 15.4726 14.0453 15.4853 14.0187 15.5097Z" fill="#E6DAFE"/>
<path d="M19.0917 14.5049C18.905 14.5049 18.7363 14.594 18.5856 14.7723C18.4413 14.9431 18.3691 15.1246 18.3691 15.3145C18.3691 15.4408 18.4073 15.5426 18.4848 15.619C18.5623 15.6944 18.6631 15.7326 18.7861 15.7326C18.9824 15.7326 19.1554 15.6424 19.3061 15.4609C19.4472 15.2922 19.5183 15.1129 19.5183 14.9251C19.5183 14.7956 19.478 14.6938 19.3984 14.6184C19.3188 14.5431 19.2159 14.5049 19.0917 14.5049ZM19.236 15.0195C19.2148 15.1193 19.1851 15.2148 19.1469 15.3049C19.0875 15.4482 19.0302 15.5447 18.974 15.5967C18.9177 15.6477 18.8562 15.6721 18.7883 15.6721C18.7161 15.6721 18.6652 15.6371 18.6376 15.567C18.6238 15.531 18.6164 15.4885 18.6164 15.4376C18.6164 15.3071 18.6535 15.1447 18.7278 14.9495C18.8254 14.6927 18.9464 14.5633 19.0896 14.5633C19.1501 14.5633 19.1947 14.5845 19.2233 14.6259C19.252 14.6672 19.2668 14.7171 19.2668 14.7755C19.2668 14.837 19.2562 14.9187 19.235 15.0185L19.236 15.0195Z" fill="#E6DAFE"/>
<path d="M15.4066 15.6731L15.4013 15.7145H15.7409L15.7462 15.6731C15.7016 15.6678 15.6719 15.6625 15.6581 15.6551C15.6454 15.6487 15.6401 15.6328 15.6432 15.6095C15.6454 15.5967 15.6496 15.5829 15.657 15.5681C15.6645 15.5543 15.6729 15.5405 15.6804 15.5288L15.8066 15.3516H16.1791C16.1791 15.4259 16.1791 15.4683 16.1791 15.479C16.1791 15.5288 16.177 15.5596 16.1748 15.5723C16.1695 15.6105 16.1557 15.636 16.1335 15.6487C16.1112 15.6604 16.0751 15.6689 16.0252 15.6731L16.0199 15.7145H16.5441L16.5494 15.6731C16.4963 15.6689 16.4634 15.6593 16.4497 15.6445C16.4359 15.6286 16.4284 15.5882 16.4263 15.5214L16.3987 14.524H16.3542L15.5711 15.55C15.5371 15.5946 15.5085 15.6254 15.483 15.6424C15.466 15.654 15.4416 15.6646 15.4077 15.6742L15.4066 15.6731ZM16.1706 14.8582L16.1759 15.2827H15.8565L16.1706 14.8582Z" fill="#E6DAFE"/>
<path d="M20.4382 7.02224C18.4975 7.02012 17.9765 7.9146 17.3972 8.39527C16.8189 8.87593 15.639 9.58579 14.5599 8.24353C13.4818 6.90128 11.712 7.00951 11.712 7.00951L3.00484 7.00102C3.00484 7.00102 2.91889 6.95964 3.47171 7.40423C4.02452 7.84881 4.94553 7.96341 4.94553 7.96341C5.37527 8.54275 6.34721 8.67751 6.34721 8.67751C6.75678 9.20486 7.51332 9.24731 7.51332 9.24731C7.82952 9.59428 8.2582 9.63566 8.35263 9.6399C8.01097 9.27489 8.37279 9.6399 8.37279 9.6399C8.37279 9.6399 8.36536 9.6399 8.35263 9.6399C8.36006 9.64733 8.36536 9.65263 8.37279 9.66112C8.75159 10.0643 9.56968 10.1895 9.56968 10.1895C9.79462 10.4898 10.4705 10.5832 10.4705 10.5832C10.6753 10.893 11.0849 10.8941 11.0849 10.8941C11.3098 11.2867 11.6886 11.1944 11.6886 11.1944C11.6886 11.1944 11.504 10.8432 11.7088 11.2145C11.9136 11.587 12.4972 11.5976 12.4972 11.5976C12.6818 12.0008 13.7556 12.2183 13.7556 12.2183C13.7047 12.3212 13.1932 12.4761 13.1932 12.4761C13.224 12.5589 13.3874 12.6109 13.3874 12.6109C13.2675 12.7669 12.8749 12.9144 12.7518 12.9589C12.8049 12.9632 13.0659 13.0152 13.0659 13.0152C13.0659 13.0152 13.2802 12.9144 13.4373 12.7839C13.4967 12.735 13.5232 12.7106 13.5338 12.699C13.5275 12.6979 13.5232 12.6968 13.5232 12.6968C13.5232 12.6968 13.5508 12.6799 13.5338 12.699C13.6145 12.7149 14.1832 12.8189 14.4092 12.7255C14.4092 12.7255 13.7949 13.2157 13.067 13.0428C12.8484 12.9908 12.7614 12.9674 12.7465 12.96C12.7264 12.9674 12.7147 12.9706 12.7147 12.9706C12.9301 13.1881 13.1147 13.2009 13.1147 13.2009L13.1508 13.2221H11.2016V19.1938C11.6621 23.6726 15.7716 24.5066 15.7716 24.5066C20.3226 23.1685 20.2165 19.1163 20.2165 19.1163V13.1924H17.6253C17.5839 13.0608 17.515 12.9579 17.515 12.9579C18.0031 12.6024 18.0508 12.3499 18.0508 12.3499C18.9135 12.247 19.4578 11.675 19.4578 11.675C19.7867 11.6294 19.8546 11.4575 19.8546 11.4575C19.8546 11.4575 19.3103 11.5031 19.9003 11.4458C20.4372 11.3939 20.5602 11.153 20.5783 11.1095C20.122 11.1986 20.5815 11.1021 20.5815 11.1021C20.5815 11.1021 20.5804 11.1052 20.5783 11.1095C20.591 11.1074 20.6016 11.1052 20.6154 11.1021C21.1099 11.0044 21.2786 10.8145 21.2945 10.7954C20.5868 10.8485 21.2966 10.7933 21.2966 10.7933C21.2966 10.7933 21.2966 10.7933 21.2945 10.7954C21.303 10.7954 21.3104 10.7943 21.3189 10.7933C22.068 10.737 22.3853 10.2203 22.3853 10.2203C22.3853 10.2203 22.2664 10.2203 22.1826 10.2203C22.1773 10.2999 21.9078 10.3742 21.9078 10.3742L21.9227 10.2012H22.1794C22.1794 10.2012 22.1826 10.2097 22.1826 10.2139C22.2314 10.2129 22.3036 10.2118 22.4086 10.2097C23.0898 10.1991 23.3392 9.798 23.3392 9.798C23.9864 9.71842 24.2464 9.35129 24.2464 9.35129C25.2565 9.14544 25.5398 8.73375 25.5398 8.73375C26.4365 8.60854 26.9808 8.01222 26.9808 8.01222C28.3994 7.69284 29 7.02755 29 7.02755C29 7.02755 22.3832 7.02224 20.4425 7.02012L20.4382 7.02224ZM16.8157 9.04782C16.8157 9.04782 17.4768 8.67221 18.1049 8.03769C18.7331 7.40317 19.6042 7.15275 20.3035 7.22703H23.788C23.788 7.22703 23.874 7.38831 23.3594 7.53262H19.6605C19.6605 7.53262 19.4175 7.40316 18.6185 7.96553L22.3885 7.98039C22.3885 7.98039 22.2314 8.24141 21.6606 8.27112L18.3193 8.269L17.7049 8.71571C17.7049 8.71571 20.59 8.70085 21.1449 8.71571C20.8382 8.95233 20.4181 8.94914 20.4181 8.94914H17.4481C17.4481 8.94914 17.185 9.08284 17.0386 9.08284C16.8667 9.08284 16.8157 9.04782 16.8157 9.04782ZM12.0791 7.21429C12.0791 7.21429 13.3503 7.25992 14.3063 8.2552C15.2634 9.25049 15.4777 9.13483 15.9202 9.17834L16.1197 9.4956C16.1197 9.4956 15.8629 9.55289 15.4915 9.37994H12.3359C12.3359 9.37994 11.9221 9.37994 11.8223 9.22078H15.1498C15.1498 9.22078 14.8644 9.10512 14.7074 8.94702H11.6801C11.6801 8.94702 11.052 8.97567 10.9523 8.73056H14.3647C14.3647 8.73056 14.2225 8.42816 13.8224 8.24035H10.0663C10.0663 8.24035 9.70974 8.22549 9.59514 8.00904H13.5933C13.5933 8.00904 13.1359 7.61962 12.6362 7.51882H8.65185C8.65185 7.51882 8.19453 7.45622 8.09479 7.21323H12.0791V7.21429ZM17.3898 13.3802C17.3855 13.3887 17.3823 13.395 17.377 13.4046C17.377 13.4046 17.3696 13.394 17.3569 13.3812C17.3261 13.3494 17.2593 13.2985 17.1478 13.3186L17.0332 13.29C17.0332 13.29 17.1585 13.2253 17.2688 13.1977C17.325 13.1828 17.377 13.1786 17.4078 13.1977C17.4439 13.2189 17.446 13.2741 17.3887 13.3823L17.3898 13.3802ZM16.8062 13.3749C16.8062 13.3749 16.6778 13.2306 16.5918 13.2889C16.5059 13.3462 16.5632 13.2889 16.5632 13.2889L16.4772 13.2741C16.4772 13.2741 16.5314 13.2369 16.5982 13.2009C16.7075 13.1425 16.8486 13.0884 16.8539 13.1987C16.856 13.2369 16.8423 13.2921 16.8051 13.3749H16.8062ZM14.8846 13.3972C14.8825 13.4046 14.8814 13.4109 14.8782 13.4184C14.8782 13.4184 14.8718 13.4099 14.8612 13.3972C14.8315 13.3653 14.7636 13.3112 14.6501 13.3314L14.5355 13.3027C14.5355 13.3027 14.9843 13.0693 14.8846 13.3972ZM15.9393 13.2051C16.0252 13.1711 16.1717 13.1266 16.1865 13.203C16.1929 13.2348 16.177 13.2889 16.1207 13.3749L15.8777 13.2306C15.8777 13.2306 15.9032 13.2189 15.9382 13.2051H15.9393ZM15.4788 13.0003C15.4788 13.0003 15.8215 12.856 15.9499 12.7266C16.0783 12.5971 16.0496 12.6395 16.0496 12.6395C16.0496 12.6395 16.664 12.7839 17.0916 12.6395C17.0916 12.6395 16.6491 13.2454 15.4777 13.0003H15.4788ZM13.7365 10.3317C13.7365 10.3317 13.4935 10.2734 13.4511 10.2023H15.4936C15.4936 10.2023 15.5361 10.476 14.9079 10.5344C14.2798 10.5917 14.8793 10.5344 14.8793 10.5344L14.9939 10.3328H13.7376L13.7365 10.3317ZM14.6787 10.6055C14.6787 10.6055 14.7021 10.6935 14.5355 10.7498L14.3212 10.6055H14.6787ZM14.6501 10.8941C14.6501 10.8941 14.9642 10.736 15.0353 10.6203L15.3642 10.5768C15.3642 10.5768 15.4066 10.6776 15.5785 10.649C15.5785 10.649 15.3217 10.9949 14.6787 10.9089C14.0357 10.8219 14.6501 10.8941 14.6501 10.8941ZM15.5488 10.8845C15.3886 10.9333 15.535 10.8803 15.535 10.8803C15.535 10.8803 15.5403 10.8824 15.5488 10.8845C15.5541 10.8835 15.5584 10.8814 15.5637 10.8803C15.7494 10.823 15.778 10.6787 15.778 10.6787C15.8777 10.6935 16.1918 10.5917 16.1918 10.5917L16.4486 10.6638C16.161 11.0734 15.6337 10.9142 15.5477 10.8845H15.5488ZM16.9059 11.0968C16.1207 11.6018 15.8204 11.1689 15.8204 11.1689C16.2205 11.0532 16.3627 10.9376 16.3627 10.9376C16.3627 10.9376 16.3627 10.9089 16.4337 10.9949C16.5048 11.0819 16.9049 11.0957 16.9049 11.0957L16.9059 11.0968ZM15.5064 10.5195C15.6772 10.4039 15.7918 10.1874 15.7918 10.1874C16.0348 10.2161 16.3627 10.058 16.3627 10.058L16.5059 10.1588C16.0772 10.6776 15.5064 10.5195 15.5064 10.5195ZM14.5206 11.0097C14.5206 11.0097 14.7923 11.1105 14.8347 11.0819C14.8347 11.0819 14.7848 11.1318 14.6681 11.1806C14.7403 11.1954 14.8782 11.2262 14.8782 11.2262C14.8782 11.2262 15.0353 11.1254 15.0777 11.0532C15.0777 11.0532 15.2496 11.0097 15.3058 10.9811L15.3631 10.9524C15.3631 10.9524 15.4915 11.0395 15.7345 11.0532C15.7345 11.0532 15.5202 11.3854 14.9069 11.2411C14.7785 11.2113 14.7031 11.1933 14.6639 11.1827C14.5938 11.2113 14.4994 11.2389 14.3784 11.2549C14.0506 11.2984 14.3498 11.2549 14.3498 11.2549L14.5217 11.0097H14.5206ZM15.2772 11.414C15.2772 11.414 15.1339 11.3854 15.3058 11.414C15.4767 11.4427 15.7483 11.2984 15.7483 11.2984C15.7907 11.4713 16.1621 11.4575 16.1621 11.4575C16.1621 11.4575 16.4475 11.2411 16.0189 11.5732C15.5902 11.9053 15.0766 11.6453 15.0766 11.6453C15.2337 11.5594 15.2761 11.4151 15.2761 11.4151L15.2772 11.414ZM16.1345 11.674C16.3054 11.6305 16.4348 11.4437 16.4348 11.4437C16.7064 11.4289 17.0778 11.083 16.9059 11.3429C16.5876 11.8257 16.0921 11.6888 16.0921 11.6888C16.0921 11.6888 15.9637 11.7175 16.1345 11.674ZM16.4624 10.8516C16.6343 10.7795 16.6619 10.6352 16.6619 10.6352C16.6619 10.6352 16.5335 10.65 16.6905 10.6203C16.8476 10.5917 17.0184 10.5047 17.0184 10.5047C17.0184 10.5047 17.0322 10.476 17.0322 10.5482C17.0322 10.6203 17.2317 10.7073 17.2317 10.7073C16.8751 11.1116 16.4603 10.8516 16.4603 10.8516H16.4624ZM16.3191 10.4909C16.5908 10.3328 16.6619 10.2023 16.6619 10.2023C16.8614 10.2171 17.0757 10.1015 17.0757 10.1015L17.1616 10.1885C16.8041 10.6649 16.3191 10.4909 16.3191 10.4909ZM16.5473 10.0145L16.7616 9.76935H17.2327C17.2327 9.76935 17.2189 10.0431 16.5473 10.0145ZM15.4045 10.0866C15.4045 10.0866 15.4183 9.95716 15.5467 9.8988L13.119 9.91366C13.119 9.91366 12.8622 9.85636 12.7624 9.7545H15.761C15.761 9.7545 16.09 9.56669 16.3032 9.63884C16.3032 9.63884 16.5027 9.76829 16.5887 9.73964C16.5887 9.73964 16.2311 10.1291 15.4034 10.0856L15.4045 10.0866ZM3.55235 7.21429H7.73615C7.73615 7.21429 7.87939 7.4732 8.25926 7.62811H5.23414C5.23414 7.62811 3.91099 7.64933 3.55235 7.21429ZM5.36784 8.02177H9.27258C9.27258 8.02177 9.41582 8.26369 9.79569 8.41967H7.04964C7.04964 8.41967 5.72648 8.45681 5.36784 8.02177ZM6.68038 8.72632H10.5851C10.5851 8.72632 10.7284 8.92686 11.1082 9.08284H8.36218C8.36218 9.08284 7.0698 9.11998 6.68038 8.72632ZM7.91123 9.27489H11.4796C11.4796 9.27489 11.6228 9.38418 12.0027 9.54016H9.59302C9.59302 9.54016 8.29109 9.57518 7.91123 9.27489ZM8.87574 9.78208H12.4441C12.4441 9.78208 12.4972 9.84999 12.877 10.006H10.5575C10.5575 10.006 9.2556 10.0824 8.87574 9.78208ZM9.81903 10.2065H13.2155C13.2155 10.2065 13.2198 10.2744 13.5986 10.4304H11.5008C11.5008 10.4304 10.1989 10.5068 9.81903 10.2065ZM10.7538 10.6309H14.1503C14.1503 10.6309 13.9901 10.65 14.37 10.805H12.4027C12.4027 10.805 11.244 10.8272 10.7538 10.6309ZM11.4021 10.9747H14.3392C14.3392 10.9747 14.4952 10.9111 14.2225 11.1487H13.0511C13.0511 11.1487 11.8924 11.1721 11.4021 10.9747ZM12.0377 11.3376H14.1058C14.1058 11.3376 14.2617 11.24 13.989 11.4787H13.6877C13.6877 11.4787 12.529 11.535 12.0388 11.3376H12.0377ZM13.71 11.7557H13.4086C13.4086 11.7557 13.0946 11.8119 12.6043 11.6146H13.8267C13.8267 11.6146 13.8288 11.6135 13.8331 11.6114C13.4256 11.5509 13.6527 11.5795 13.8437 11.605C13.8606 11.5965 13.8808 11.587 13.866 11.6082C13.9498 11.6199 14.0219 11.6294 14.0219 11.6294C14.0219 11.6294 14.5217 11.4278 14.6214 11.3557C14.7212 11.2835 14.7212 11.3121 14.7212 11.3121C14.7212 11.3121 14.9493 11.4565 15.0639 11.4278C15.0639 11.4278 15.0353 11.7886 14.0506 11.6443C13.9763 11.6337 13.9137 11.6241 13.8596 11.6167C13.8415 11.6379 13.798 11.6793 13.71 11.7567V11.7557ZM14.336 12.595L13.5222 12.5377C13.5222 12.5377 14.0219 12.3212 14.493 11.9753C14.493 11.9753 15.1785 11.5138 15.4066 11.9032C15.6348 12.2926 14.336 12.595 14.336 12.595ZM14.3137 13.2146C14.3137 13.2528 14.301 13.307 14.2649 13.3876C14.2649 13.3876 14.1365 13.2433 14.0506 13.3017C13.9646 13.359 14.0219 13.3017 14.0219 13.3017L13.936 13.2868C13.936 13.2868 13.9869 13.2518 14.0516 13.2168C14.162 13.1563 14.3105 13.0979 14.3127 13.2146H14.3137ZM13.6888 13.2189C13.6941 13.2518 13.6771 13.3038 13.623 13.3876L13.38 13.2433C13.38 13.2433 13.4023 13.2327 13.4341 13.22C13.519 13.186 13.676 13.1361 13.6888 13.2178V13.2189ZM15.7663 24.2243C15.7663 24.2243 11.8276 23.4253 11.3862 19.1312V13.4067H13.4999C13.5243 13.4364 13.5307 13.4704 13.5041 13.5054C13.5041 13.5054 13.4001 13.881 13.2633 13.9669C13.137 14.0465 13.9392 13.8046 13.9275 13.4035H14.0707C14.1397 13.4905 14.1726 13.6539 14.0187 13.9542C14.0187 13.9542 14.5779 13.7653 14.545 13.3993H14.631C14.7148 13.4629 14.7923 13.6157 14.5461 13.968C14.5461 13.968 15.1276 13.8481 15.2135 13.395L15.9032 13.3908C15.9647 13.4863 15.9743 13.6327 15.7982 13.8513C15.7982 13.8513 16.4263 13.7484 16.4327 13.3876H16.5207C16.5897 13.4746 16.6417 13.637 16.4507 13.898C16.4507 13.898 17.0375 13.6752 17.0364 13.3834H17.1309C17.203 13.4491 17.2593 13.5977 17.064 13.9319C17.064 13.9319 17.5776 13.7017 17.6359 13.4385C17.6412 13.4163 17.6444 13.3982 17.6487 13.3812H20.0265V19.0601C20.0265 19.0601 20.1273 22.9447 15.7653 24.2275L15.7663 24.2243ZM17.1213 12.4793C16.9494 12.5366 16.1069 12.5228 16.1069 12.5228C16.1069 12.5228 17.064 11.9891 17.2062 11.8162C17.2062 11.8162 17.6635 11.3397 17.949 11.657C18.2344 11.9743 17.2921 12.421 17.1203 12.4793H17.1213ZM18.5569 11.813H18.2556C17.9829 11.5742 18.193 11.6719 18.193 11.6719H19.3612C18.871 11.8681 18.5569 11.813 18.5569 11.813ZM18.2206 11.484L18.1633 11.4766C18.2779 11.2453 18.263 11.3472 18.263 11.3472L19.8695 11.3514C19.5628 11.5859 18.2206 11.4851 18.2206 11.4851V11.484ZM18.7914 11.2326L18.3628 11.2251C18.4774 10.9938 18.4625 11.0957 18.4625 11.0957L20.4403 11.0925C19.9501 11.2888 18.7914 11.2336 18.7914 11.2336V11.2326ZM18.6779 10.9005C18.9209 10.7201 18.9591 10.7593 18.9591 10.7593H21.0271C20.7778 11.0076 19.3782 10.9005 19.3782 10.9005H18.6779ZM21.7189 10.4739C21.7189 10.4739 21.6192 10.1131 21.0908 10.1131H19.6339L19.5055 10.2723L21.1481 10.2872C21.1481 10.2872 21.5046 10.3158 21.5905 10.5758H19.3347C19.3347 10.5758 19.2201 10.4315 18.9209 10.5471C18.8901 10.5588 18.8668 10.5673 18.8477 10.5747C18.6885 10.6723 18.1283 11.0002 17.8354 10.9503C17.4927 10.892 17.4067 10.7052 17.5924 10.5174C17.5924 10.5174 16.7786 10.6044 17.3929 10.1715C17.3929 10.1715 16.9505 10.0134 17.7219 9.63778H16.9367C16.9367 9.63778 16.4231 9.59428 16.2088 9.29187C15.9945 8.9884 16.1377 9.14756 16.1377 9.14756H19.7931C19.7931 9.14756 20.3215 9.10406 20.3788 9.55183C20.3788 9.55183 20.4212 9.65263 20.2791 9.66749C20.1358 9.68234 18.7936 9.66749 18.7936 9.66749L18.6652 9.82665H19.6647C19.6647 9.82665 19.8355 9.81179 19.8217 9.98581L20.4499 9.71205H21.078C21.078 9.71205 21.8059 9.65476 21.7211 10.476L21.7189 10.4739ZM22.5116 9.98475H21.841C21.6892 9.72373 21.7242 9.75237 21.7242 9.75237H23.144C22.8755 9.95398 22.5116 9.98475 22.5116 9.98475ZM22.3715 9.51257H20.5931C20.5931 9.30885 20.4849 9.27277 20.4849 9.27277H24.0533C23.6734 9.57305 22.3715 9.51257 22.3715 9.51257ZM23.6023 9.07966H20.8552C21.2351 8.92368 21.3783 8.72314 21.3783 8.72314H25.2841C24.8947 9.11679 23.6023 9.07966 23.6023 9.07966ZM22.1688 8.41649C22.5487 8.26051 22.6919 8.01859 22.6919 8.01859H26.5977C26.2391 8.45362 24.9159 8.41649 24.9159 8.41649H22.1688ZM26.7304 7.62493H23.7053C24.0851 7.47001 24.2284 7.21111 24.2284 7.21111H28.4122C28.0535 7.64615 26.7304 7.62493 26.7304 7.62493Z" fill="#E6DAFE"/>
<path d="M18.8466 10.5768C18.8742 10.5598 18.8912 10.5492 18.8912 10.5492C18.8912 10.5492 18.6737 10.6415 18.8466 10.5768Z" fill="#E6DAFE"/>
<path d="M21.3051 13.1945C20.9518 13.1945 20.6664 13.4799 20.6664 13.829C20.6664 14.1781 20.9518 14.4678 21.3051 14.4678C21.6585 14.4678 21.9396 14.1823 21.9396 13.829C21.9396 13.4799 21.6553 13.1945 21.3051 13.1945ZM21.3051 14.384C20.9942 14.384 20.7672 14.142 20.7672 13.8301C20.7672 13.5181 20.9942 13.2794 21.3051 13.2794C21.616 13.2794 21.8388 13.5213 21.8388 13.8301C21.8388 14.1388 21.6139 14.384 21.3051 14.384Z" fill="#E6DAFE"/>
<path d="M21.6309 13.6635C21.6309 13.5457 21.5672 13.4757 21.3794 13.4757H21.0685V14.1866H21.1555V13.8587H21.3147L21.5184 14.1866H21.6224L21.407 13.8587C21.5333 13.8555 21.6309 13.8035 21.6309 13.6635ZM21.1555 13.7897V13.5383H21.3592C21.4462 13.5383 21.5375 13.5521 21.5375 13.6624C21.5375 13.8067 21.39 13.7897 21.2892 13.7897H21.1555Z" fill="#E6DAFE"/>
</svg>
