<svg width="32" height="32" viewBox="0 0 32 32" fill="none" xmlns="http://www.w3.org/2000/svg">
<path d="M15.8453 4.00098C12.5542 4.0424 9.58222 5.40855 7.43831 7.59129C5.31179 9.75591 4 12.7245 4 15.9994C4 18.9998 5.10135 21.7432 6.92166 23.8475L13.2779 18.0301C13.3767 17.9395 13.4488 17.8238 13.4865 17.6951L13.6448 17.1507L10.1248 16.5996C9.71794 16.536 9.7209 15.9491 10.1285 15.8895L13.2583 15.4317L9.6462 10.5655C9.39582 10.2282 9.81854 9.80362 10.1569 10.0529L15.0357 13.6428L15.5121 10.5296C15.5738 10.125 16.1578 10.1268 16.217 10.5322L16.6707 13.6432L21.5655 10.0503C21.902 9.80325 22.3218 10.2256 22.0725 10.5607L18.4474 15.4317L21.5769 15.908C21.9941 15.9716 21.9904 16.5741 21.5725 16.6325L18.4319 17.0715L22.0584 21.9525C22.3107 22.292 21.8831 22.7185 21.5444 22.4655L16.6759 18.8323L16.2177 21.9522C16.1574 22.3623 15.5661 22.3634 15.5043 21.9536L14.9766 18.4624L14.2979 18.6633L8.29262 25.1974C10.3774 26.9467 13.0656 28 16.0002 28C22.6609 28 28.0541 22.5735 27.9998 15.9003C27.9447 9.23334 22.5111 3.91703 15.8453 4.00098Z" fill="#E6DAFE"/>
</svg>
