<svg width="32" height="32" viewBox="0 0 32 32" fill="none" xmlns="http://www.w3.org/2000/svg">
<path d="M19.0591 10.9993C19.0591 7.27249 17.2626 4.06169 15.8866 3.01053C15.8866 3.01053 15.791 2.9532 15.791 3.10609C15.6763 10.3113 12.026 12.2798 10.0001 14.8981C5.35591 20.9757 9.6752 27.6267 14.0709 28.8498C16.5364 29.5379 13.4976 27.6267 13.1153 23.6132C12.6567 18.7396 19.0591 15.0319 19.0591 10.9993Z" fill="#E6DAFE"/>
<path d="M21.4672 13.4647C21.4481 13.4456 21.4099 13.4456 21.3717 13.4647C21.3717 13.4647 21.3717 13.4647 21.3526 13.4839C21.2761 14.3821 20.2823 16.3315 19.04 18.1089C14.8163 24.1483 17.2244 27.0533 18.5813 28.6205C19.3649 29.5379 18.5813 28.6205 20.5499 27.684C20.7028 27.6076 24.3722 25.6581 24.7736 21.2433C25.1749 16.9431 22.4419 14.2483 21.4672 13.4647Z" fill="#E6DAFE"/>
</svg>
