<svg width="32" height="32" viewBox="0 0 32 32" fill="none" xmlns="http://www.w3.org/2000/svg">
<path d="M16.0009 3C8.82068 3 3 8.82068 3 16.0009C3 19.0283 4.03476 21.8138 5.7701 24.0234L10.1613 19.8865L10.5148 20.2615L6.09784 24.4224C6.22369 24.5702 6.35255 24.7149 6.48485 24.8567L11.9731 19.6863L12.3266 20.0613L6.84352 25.2269C6.9741 25.3567 7.10725 25.4834 7.24299 25.6071L11.6922 21.4156L12.0457 21.7906L7.63301 25.9477C9.89453 27.8518 12.8137 29 16.0017 29C23.1819 29 29.0026 23.1793 29.0026 15.9991C29.0026 8.81897 23.1806 3 16.0009 3ZM17.8694 17.5386L17.4785 19.5098L15.7676 21.0351L15.0795 18.9892C14.3914 19.0265 13.8149 18.9333 13.8149 18.9333L13.1638 19.6588L12.3644 18.9333L13.0894 18.2083C12.8665 17.8921 12.7733 17.0734 12.7733 17.0734L10.8391 16.4785L12.2896 14.7677L14.2428 14.3209C17.4974 9.9319 21.9977 10.1368 21.9977 10.1368C21.8675 14.9536 17.8694 17.5386 17.8694 17.5386Z" fill="#E6DAFE"/>
<path d="M17.4037 13.4627C16.7809 13.4627 16.2758 13.9678 16.2758 14.5907C16.2758 15.2135 16.7809 15.7191 17.4037 15.7191C18.0266 15.7191 18.5321 15.2139 18.5321 14.5907C18.5321 13.9674 18.027 13.4627 17.4037 13.4627Z" fill="#E6DAFE"/>
</svg>
