<svg width="32" height="32" viewBox="0 0 32 32" fill="none" xmlns="http://www.w3.org/2000/svg">
<path d="M16.2933 9.44173C18.5282 9.64116 20.287 11.4922 20.3418 13.7657L23.7709 15.1904L21.9834 12.2762L25.7839 8.47572L23.5128 6.20466L20.2571 9.46167L16.2946 3V9.44173H16.2933Z" fill="#E6DAFE"/>
<path d="M20.2832 14.6121C19.9542 16.5915 18.3188 18.1283 16.2933 18.3103V20.6637L23.8394 16.0904L20.2832 14.6121Z" fill="#E6DAFE"/>
<path d="M11.5007 14.6121L7.9445 16.0891L15.4906 20.6624V18.3091C13.4651 18.1283 11.8297 16.5915 11.5007 14.6121Z" fill="#E6DAFE"/>
<path d="M23.7546 18.4886L16.2933 23.0107V29L19.3634 24.6735L22.568 27.8782L24.8391 25.6071L21.2493 22.0173L23.7546 18.4886Z" fill="#E6DAFE"/>
<path d="M15.4906 23.0107L8.02925 18.4886L10.5346 22.0173L6.94483 25.6071L9.21589 27.8782L12.4205 24.6748L15.4906 28.9988V23.0107Z" fill="#E6DAFE"/>
<path d="M8.01304 15.1917L11.4421 13.767C11.4969 11.4934 13.2557 9.64241 15.4906 9.44297V3L11.5281 9.46167L8.27106 6.20466L6 8.47696L9.80047 12.2774L8.01304 15.1917Z" fill="#E6DAFE"/>
<path d="M16.049 13.3644C14.9484 13.0266 14.9484 12.8396 14.9484 12.6888C14.9484 12.4794 15.265 12.1902 15.8595 12.1902C16.211 12.1902 16.8019 12.2774 16.8019 12.8658H17.8726C17.8726 11.8212 17.0636 11.1195 15.8595 11.1195C14.5719 11.1195 13.8776 11.9284 13.8776 12.6888C13.8776 13.7283 14.7901 14.0973 15.7274 14.3865C16.828 14.7242 16.8343 14.9137 16.8343 15.0645C16.8343 15.2739 16.5177 15.5631 15.9231 15.5631C15.5703 15.5631 14.9808 15.4759 14.9808 14.8875H13.9101C13.9101 15.9321 14.719 16.6338 15.9231 16.6338C17.2107 16.6338 17.905 15.8249 17.905 15.0645C17.905 14.0237 16.9876 13.6523 16.049 13.3644Z" fill="#E6DAFE"/>
</svg>
