<?xml version="1.0" encoding="UTF-8"?>
<!DOCTYPE svg PUBLIC "-//W3C//DTD SVG 1.1//EN" "http://www.w3.org/Graphics/SVG/1.1/DTD/svg11.dtd">
<svg xmlns="http://www.w3.org/2000/svg" version="1.1" width="64px" height="64px" style="shape-rendering:geometricPrecision; text-rendering:geometricPrecision; image-rendering:optimizeQuality; fill-rule:evenodd; clip-rule:evenodd" xmlns:xlink="http://www.w3.org/1999/xlink">
<g><path style="opacity:1" fill="#986b8b" d="M 16.5,-0.5 C 21.1667,-0.5 25.8333,-0.5 30.5,-0.5C 30.5,0.166667 30.5,0.833333 30.5,1.5C 25.4573,2.67733 20.4573,4.01066 15.5,5.5C 14.5155,3.40209 14.8489,1.40209 16.5,-0.5 Z"/></g>
<g><path style="opacity:1" fill="#f4cad0" d="M 30.5,-0.5 C 32.8333,-0.5 35.1667,-0.5 37.5,-0.5C 35.3432,0.406658 33.0098,1.07332 30.5,1.5C 30.5,0.833333 30.5,0.166667 30.5,-0.5 Z"/></g>
<g><path style="opacity:1" fill="#3c3084" d="M -0.5,-0.5 C 2.16667,-0.5 4.83333,-0.5 7.5,-0.5C 4.8587,1.80437 2.19204,4.13771 -0.5,6.5C -0.5,4.16667 -0.5,1.83333 -0.5,-0.5 Z"/></g>
<g><path style="opacity:1" fill="#2e233a" d="M 37.5,-0.5 C 43.5,-0.5 49.5,-0.5 55.5,-0.5C 55.5,1.16667 55.5,2.83333 55.5,4.5C 53.1495,3.13889 50.8162,1.80556 48.5,0.5C 44.3967,1.09007 40.3967,2.09007 36.5,3.5C 31.6766,4.77413 27.0099,6.4408 22.5,8.5C 20.0462,9.22713 17.7128,10.2271 15.5,11.5C 16.0283,10.1526 16.195,8.8193 16,7.5C 14.5341,9.3249 12.7008,9.8249 10.5,9C 11.056,8.61742 11.3893,8.11742 11.5,7.5C 12.9952,7.01131 14.3285,6.34464 15.5,5.5C 20.4573,4.01066 25.4573,2.67733 30.5,1.5C 33.0098,1.07332 35.3432,0.406658 37.5,-0.5 Z"/></g>
<g><path style="opacity:1" fill="#fbcfe3" d="M 48.5,0.5 C 50.1667,2.5 51.8333,4.5 53.5,6.5C 49.1826,5.32294 45.3492,6.32294 42,9.5C 41.3992,7.64122 40.5659,7.30789 39.5,8.5C 32.9511,10.3046 31.9511,8.63796 36.5,3.5C 40.3967,2.09007 44.3967,1.09007 48.5,0.5 Z"/></g>
<g><path style="opacity:1" fill="#a37096" d="M 48.5,0.5 C 50.8162,1.80556 53.1495,3.13889 55.5,4.5C 55.5,5.5 55.5,6.5 55.5,7.5C 54.8333,7.16667 54.1667,6.83333 53.5,6.5C 51.8333,4.5 50.1667,2.5 48.5,0.5 Z"/></g>
<g><path style="opacity:1" fill="#5d4fa8" d="M 55.5,-0.5 C 58.1667,-0.5 60.8333,-0.5 63.5,-0.5C 63.5,0.833333 63.5,2.16667 63.5,3.5C 62.6963,5.18874 61.6963,6.85541 60.5,8.5C 59.2519,7.95978 58.0852,7.29311 57,6.5C 56.6012,6.72845 56.4346,7.06178 56.5,7.5C 56.1667,7.5 55.8333,7.5 55.5,7.5C 55.5,6.5 55.5,5.5 55.5,4.5C 55.5,2.83333 55.5,1.16667 55.5,-0.5 Z"/></g>
<g><path style="opacity:1" fill="#251935" d="M 7.5,-0.5 C 9.16667,-0.5 10.8333,-0.5 12.5,-0.5C 8.76341,3.86882 4.43007,7.53548 -0.5,10.5C -0.5,9.16667 -0.5,7.83333 -0.5,6.5C 2.19204,4.13771 4.8587,1.80437 7.5,-0.5 Z"/></g>
<g><path style="opacity:1" fill="#886080" d="M 12.5,-0.5 C 13.8333,-0.5 15.1667,-0.5 16.5,-0.5C 14.8489,1.40209 14.5155,3.40209 15.5,5.5C 14.3285,6.34464 12.9952,7.01131 11.5,7.5C 11.5654,7.06178 11.3988,6.72845 11,6.5C 7.7903,9.88009 3.95697,12.2134 -0.5,13.5C -0.5,12.5 -0.5,11.5 -0.5,10.5C 4.43007,7.53548 8.76341,3.86882 12.5,-0.5 Z"/></g>
<g><path style="opacity:1" fill="#9b6991" d="M 36.5,3.5 C 31.9511,8.63796 32.9511,10.3046 39.5,8.5C 40.3382,8.84171 40.6716,9.50838 40.5,10.5C 39.5655,11.5676 39.2322,12.901 39.5,14.5C 39.1583,15.3382 38.4916,15.6716 37.5,15.5C 38.0283,14.1526 38.195,12.8193 38,11.5C 36.6032,13.0703 35.1032,14.4036 33.5,15.5C 31.4352,15.5172 29.4352,15.8505 27.5,16.5C 26.2721,14.9902 26.2721,13.4902 27.5,12C 25.4098,11.3305 23.7432,10.1639 22.5,8.5C 27.0099,6.4408 31.6766,4.77413 36.5,3.5 Z"/></g>
<g><path style="opacity:1" fill="#fbcdf2" d="M 53.5,6.5 C 54.1667,6.83333 54.8333,7.16667 55.5,7.5C 55.8333,7.5 56.1667,7.5 56.5,7.5C 58.263,10.7624 57.263,12.7624 53.5,13.5C 53.6107,12.8826 53.944,12.3826 54.5,12C 52.8659,11.5065 51.1992,11.3398 49.5,11.5C 49.7978,8.66438 49.1311,8.16438 47.5,10C 45.1902,10.4966 42.8568,10.6633 40.5,10.5C 40.6716,9.50838 40.3382,8.84171 39.5,8.5C 40.5659,7.30789 41.3992,7.64122 42,9.5C 45.3492,6.32294 49.1826,5.32294 53.5,6.5 Z"/></g>
<g><path style="opacity:1" fill="#93688b" d="M 22.5,8.5 C 23.7432,10.1639 25.4098,11.3305 27.5,12C 26.2721,13.4902 26.2721,14.9902 27.5,16.5C 26.2502,16.4226 25.4169,15.756 25,14.5C 23.549,16.4641 21.7157,17.7974 19.5,18.5C 18.421,16.5851 17.421,14.5851 16.5,12.5C 15.0603,13.9524 13.3936,14.9524 11.5,15.5C 10.4937,15.0623 10.4937,14.3957 11.5,13.5C 12.5137,12.3263 13.847,11.6596 15.5,11.5C 17.7128,10.2271 20.0462,9.22713 22.5,8.5 Z"/></g>
<g><path style="opacity:1" fill="#251a2d" d="M 11.5,7.5 C 11.3893,8.11742 11.056,8.61742 10.5,9C 12.7008,9.8249 14.5341,9.3249 16,7.5C 16.195,8.8193 16.0283,10.1526 15.5,11.5C 13.847,11.6596 12.5137,12.3263 11.5,13.5C 9.74203,13.8769 8.07536,14.5435 6.5,15.5C 5.00711,11.9863 3.50711,12.3196 2,16.5C 1.6582,14.3808 0.824868,14.0474 -0.5,15.5C -0.5,14.8333 -0.5,14.1667 -0.5,13.5C 3.95697,12.2134 7.7903,9.88009 11,6.5C 11.3988,6.72845 11.5654,7.06178 11.5,7.5 Z"/></g>
<g><path style="opacity:1" fill="#ecb0e8" d="M 53.5,13.5 C 52.5,14.1667 51.5,14.8333 50.5,15.5C 49.1667,15.5 47.8333,15.5 46.5,15.5C 46.9059,13.8908 46.9059,12.5575 46.5,11.5C 44.5128,13.3274 42.1795,14.3274 39.5,14.5C 39.2322,12.901 39.5655,11.5676 40.5,10.5C 42.8568,10.6633 45.1902,10.4966 47.5,10C 49.1311,8.16438 49.7978,8.66438 49.5,11.5C 51.1992,11.3398 52.8659,11.5065 54.5,12C 53.944,12.3826 53.6107,12.8826 53.5,13.5 Z"/></g>
<g><path style="opacity:1" fill="#896384" d="M 11.5,13.5 C 10.4937,14.3957 10.4937,15.0623 11.5,15.5C 10.6837,17.7863 9.35038,19.7863 7.5,21.5C 7.83333,21.8333 8.16667,22.1667 8.5,22.5C 11.4979,20.3318 14.8313,19.3318 18.5,19.5C 17.9423,20.7899 16.9423,21.6232 15.5,22C 16.0944,22.4643 16.7611,22.631 17.5,22.5C 17.8333,23.1667 18.1667,23.8333 18.5,24.5C 18.1583,25.3382 17.4916,25.6716 16.5,25.5C 15.2524,23.31 13.5857,22.9766 11.5,24.5C 11.44,23.9569 11.1067,23.6236 10.5,23.5C 9.08777,24.8064 7.42111,25.6397 5.5,26C 6.16667,26.3333 6.83333,26.6667 7.5,27C 7.27155,27.3988 6.93822,27.5654 6.5,27.5C 4.16667,28.1667 1.83333,28.8333 -0.5,29.5C -0.5,24.8333 -0.5,20.1667 -0.5,15.5C 0.824868,14.0474 1.6582,14.3808 2,16.5C 3.50711,12.3196 5.00711,11.9863 6.5,15.5C 8.07536,14.5435 9.74203,13.8769 11.5,13.5 Z"/></g>
<g><path style="opacity:1" fill="#9e75a2" d="M 19.5,18.5 C 19.5,19.1667 19.1667,19.5 18.5,19.5C 14.8313,19.3318 11.4979,20.3318 8.5,22.5C 8.16667,22.1667 7.83333,21.8333 7.5,21.5C 9.35038,19.7863 10.6837,17.7863 11.5,15.5C 13.3936,14.9524 15.0603,13.9524 16.5,12.5C 17.421,14.5851 18.421,16.5851 19.5,18.5 Z"/></g>
<g><path style="opacity:1" fill="#e8bccb" d="M 63.5,10.5 C 63.5,12.8333 63.5,15.1667 63.5,17.5C 62.0069,16.6879 61.3402,15.3545 61.5,13.5C 61.6399,11.9704 62.3065,10.9704 63.5,10.5 Z"/></g>
<g><path style="opacity:1" fill="#7347d5" d="M 50.5,15.5 C 51.0478,17.15 51.3811,18.8166 51.5,20.5C 51.1667,20.5 50.8333,20.5 50.5,20.5C 47.9356,20.0213 45.4356,19.3547 43,18.5C 41.9614,19.2438 41.4614,20.2438 41.5,21.5C 41.1667,21.5 40.8333,21.5 40.5,21.5C 39.7611,21.631 39.0944,21.4643 38.5,21C 39.6956,20.3457 39.6956,19.8457 38.5,19.5C 38.3289,22.1316 37.6622,24.465 36.5,26.5C 36.5,27.1667 36.1667,27.5 35.5,27.5C 34.2921,26.7659 32.9587,26.4326 31.5,26.5C 31.5,26.1667 31.5,25.8333 31.5,25.5C 32.6527,24.6868 32.6527,23.6868 31.5,22.5C 34.5674,20.486 36.5674,18.1527 37.5,15.5C 38.4916,15.6716 39.1583,15.3382 39.5,14.5C 42.1795,14.3274 44.5128,13.3274 46.5,11.5C 46.9059,12.5575 46.9059,13.8908 46.5,15.5C 47.8333,15.5 49.1667,15.5 50.5,15.5 Z"/></g>
<g><path style="opacity:1" fill="#161024" d="M 27.5,16.5 C 29.4352,15.8505 31.4352,15.5172 33.5,15.5C 34.0431,15.56 34.3764,15.8933 34.5,16.5C 31.6582,17.0045 30.3249,18.6711 30.5,21.5C 26.1018,21.2941 21.7685,21.6274 17.5,22.5C 16.7611,22.631 16.0944,22.4643 15.5,22C 16.9423,21.6232 17.9423,20.7899 18.5,19.5C 19.1667,19.5 19.5,19.1667 19.5,18.5C 21.7157,17.7974 23.549,16.4641 25,14.5C 25.4169,15.756 26.2502,16.4226 27.5,16.5 Z"/></g>
<g><path style="opacity:1" fill="#5f4f73" d="M 63.5,3.5 C 63.5,5.83333 63.5,8.16667 63.5,10.5C 62.3065,10.9704 61.6399,11.9704 61.5,13.5C 61.3402,15.3545 62.0069,16.6879 63.5,17.5C 63.5,18.1667 63.5,18.8333 63.5,19.5C 62.5416,19.9528 61.7083,20.6195 61,21.5C 60.2599,27.2179 60.4265,32.8846 61.5,38.5C 60.5,39.1667 59.5,39.8333 58.5,40.5C 58.4255,34.4707 58.7588,28.4707 59.5,22.5C 59.5,21.5 59.5,20.5 59.5,19.5C 57.1417,19.2525 55.1417,19.9192 53.5,21.5C 52.5084,21.6716 51.8417,21.3382 51.5,20.5C 51.3811,18.8166 51.0478,17.15 50.5,15.5C 51.5,14.8333 52.5,14.1667 53.5,13.5C 57.263,12.7624 58.263,10.7624 56.5,7.5C 56.4346,7.06178 56.6012,6.72845 57,6.5C 58.0852,7.29311 59.2519,7.95978 60.5,8.5C 61.6963,6.85541 62.6963,5.18874 63.5,3.5 Z"/></g>
<g><path style="opacity:1" fill="#ca9aad" d="M 56.5,13.5 C 59.0838,14.0483 60.0838,15.715 59.5,18.5C 55.5163,18.5277 54.5163,16.861 56.5,13.5 Z"/></g>
<g><path style="opacity:1" fill="#7e84c5" d="M 30.5,21.5 C 26.7127,22.9175 22.7127,23.9175 18.5,24.5C 18.1667,23.8333 17.8333,23.1667 17.5,22.5C 21.7685,21.6274 26.1018,21.2941 30.5,21.5 Z"/></g>
<g><path style="opacity:1" fill="#dc93f6" d="M 50.5,20.5 C 48.8624,21.7046 48.5291,23.0379 49.5,24.5C 47.2188,24.0773 45.5521,24.744 44.5,26.5C 43.5,26.5 42.5,26.5 41.5,26.5C 42.2371,24.6954 43.2371,23.0287 44.5,21.5C 43.5754,20.4376 42.5754,20.4376 41.5,21.5C 41.4614,20.2438 41.9614,19.2438 43,18.5C 45.4356,19.3547 47.9356,20.0213 50.5,20.5 Z"/></g>
<g><path style="opacity:1" fill="#0c080e" d="M 59.5,22.5 C 58.8333,22.8333 58.1667,23.1667 57.5,23.5C 55.9382,23.7329 54.6049,24.3995 53.5,25.5C 53.5,24.1667 53.5,22.8333 53.5,21.5C 55.1417,19.9192 57.1417,19.2525 59.5,19.5C 59.5,20.5 59.5,21.5 59.5,22.5 Z"/></g>
<g><path style="opacity:1" fill="#fbf0fb" d="M 41.5,26.5 C 40.609,27.1098 39.609,27.4431 38.5,27.5C 38.9707,25.4214 39.6373,23.4214 40.5,21.5C 40.8333,21.5 41.1667,21.5 41.5,21.5C 42.5754,20.4376 43.5754,20.4376 44.5,21.5C 43.2371,23.0287 42.2371,24.6954 41.5,26.5 Z"/></g>
<g><path style="opacity:1" fill="#b095d2" d="M 50.5,20.5 C 50.8333,20.5 51.1667,20.5 51.5,20.5C 51.8417,21.3382 52.5084,21.6716 53.5,21.5C 53.5,22.8333 53.5,24.1667 53.5,25.5C 53.0113,26.9952 52.3446,28.3285 51.5,29.5C 51.8799,27.302 51.2132,25.6354 49.5,24.5C 48.5291,23.0379 48.8624,21.7046 50.5,20.5 Z"/></g>
<g><path style="opacity:1" fill="#6a48c6" d="M 27.5,27.5 C 27.5,27.8333 27.5,28.1667 27.5,28.5C 25.8008,28.3398 24.1341,28.5065 22.5,29C 22.6526,30.2087 22.9859,31.3754 23.5,32.5C 22.8333,33.5 22.1667,34.5 21.5,35.5C 21.1667,36.1667 20.8333,36.8333 20.5,37.5C 18.8212,37.7148 17.8212,37.0481 17.5,35.5C 17.5,35.1667 17.5,34.8333 17.5,34.5C 19.0568,33.5337 20.3901,32.2004 21.5,30.5C 18.6893,27.1134 19.5226,25.1134 24,24.5C 25.9078,24.7151 27.0744,25.7151 27.5,27.5 Z"/></g>
<g><path style="opacity:1" fill="#ec99f2" d="M 40.5,21.5 C 39.6373,23.4214 38.9707,25.4214 38.5,27.5C 37.8333,27.1667 37.1667,26.8333 36.5,26.5C 37.6622,24.465 38.3289,22.1316 38.5,19.5C 39.6956,19.8457 39.6956,20.3457 38.5,21C 39.0944,21.4643 39.7611,21.631 40.5,21.5 Z"/></g>
<g><path style="opacity:1" fill="#0c042d" d="M 31.5,25.5 C 31.5,25.8333 31.5,26.1667 31.5,26.5C 28.8333,27.8333 28.8333,29.1667 31.5,30.5C 30.0413,30.5674 28.7079,30.2341 27.5,29.5C 27.5,29.1667 27.5,28.8333 27.5,28.5C 27.5,28.1667 27.5,27.8333 27.5,27.5C 28.4674,26.1938 29.8007,25.5271 31.5,25.5 Z"/></g>
<g><path style="opacity:1" fill="#1a1621" d="M 11.5,24.5 C 10.8888,26.7746 9.55544,28.4412 7.5,29.5C 6.66175,29.1583 6.32842,28.4916 6.5,27.5C 6.93822,27.5654 7.27155,27.3988 7.5,27C 6.83333,26.6667 6.16667,26.3333 5.5,26C 7.42111,25.6397 9.08777,24.8064 10.5,23.5C 11.1067,23.6236 11.44,23.9569 11.5,24.5 Z"/></g>
<g><path style="opacity:1" fill="#a694ee" d="M 31.5,26.5 C 32.9587,26.4326 34.2921,26.7659 35.5,27.5C 35.5,28.1667 35.5,28.8333 35.5,29.5C 34.2652,29.7214 33.2652,30.3881 32.5,31.5C 31.8933,31.3764 31.56,31.0431 31.5,30.5C 28.8333,29.1667 28.8333,27.8333 31.5,26.5 Z"/></g>
<g><path style="opacity:1" fill="#3a277f" d="M 37.5,15.5 C 36.5674,18.1527 34.5674,20.486 31.5,22.5C 32.6527,23.6868 32.6527,24.6868 31.5,25.5C 29.8007,25.5271 28.4674,26.1938 27.5,27.5C 27.0744,25.7151 25.9078,24.7151 24,24.5C 19.5226,25.1134 18.6893,27.1134 21.5,30.5C 20.3901,32.2004 19.0568,33.5337 17.5,34.5C 17.4142,33.5041 17.7476,32.6708 18.5,32C 16.9837,30.103 16.317,27.9363 16.5,25.5C 17.4916,25.6716 18.1583,25.3382 18.5,24.5C 22.7127,23.9175 26.7127,22.9175 30.5,21.5C 30.3249,18.6711 31.6582,17.0045 34.5,16.5C 34.3764,15.8933 34.0431,15.56 33.5,15.5C 35.1032,14.4036 36.6032,13.0703 38,11.5C 38.195,12.8193 38.0283,14.1526 37.5,15.5 Z"/></g>
<g><path style="opacity:1" fill="#e39fee" d="M 27.5,28.5 C 27.5,28.8333 27.5,29.1667 27.5,29.5C 27.0618,29.4346 26.7284,29.6012 26.5,30C 27.4992,32.7611 29.4992,34.0944 32.5,34C 31.062,34.2189 29.7287,34.7189 28.5,35.5C 28.6667,35.8333 28.8333,36.1667 29,36.5C 30.2917,35.2089 31.4583,35.2089 32.5,36.5C 31.2866,37.5747 29.7866,38.2414 28,38.5C 25.9919,38.6932 24.4919,38.0265 23.5,36.5C 24.8062,36.121 26.1395,35.7876 27.5,35.5C 26.7174,33.7118 25.3841,32.7118 23.5,32.5C 22.9859,31.3754 22.6526,30.2087 22.5,29C 24.1341,28.5065 25.8008,28.3398 27.5,28.5 Z"/></g>
<g><path style="opacity:1" fill="#242347" d="M 16.5,25.5 C 16.317,27.9363 16.9837,30.103 18.5,32C 17.7476,32.6708 17.4142,33.5041 17.5,34.5C 17.5,34.8333 17.5,35.1667 17.5,35.5C 15.9261,33.8984 15.2594,31.8984 15.5,29.5C 15.2322,27.901 15.5655,26.5676 16.5,25.5 Z"/></g>
<g><path style="opacity:1" fill="#f9e9f5" d="M 36.5,26.5 C 37.1667,26.8333 37.8333,27.1667 38.5,27.5C 38.5,29.5 38.5,31.5 38.5,33.5C 37.8999,32.0998 36.8999,31.0998 35.5,30.5C 35.5,30.1667 35.5,29.8333 35.5,29.5C 35.5,28.8333 35.5,28.1667 35.5,27.5C 36.1667,27.5 36.5,27.1667 36.5,26.5 Z"/></g>
<g><path style="opacity:1" fill="#f4ebf6" d="M 49.5,24.5 C 51.2132,25.6354 51.8799,27.302 51.5,29.5C 48.0035,36.9986 42.3368,41.9986 34.5,44.5C 30.8333,44.5 27.1667,44.5 23.5,44.5C 23.1667,44.5 22.8333,44.5 22.5,44.5C 22.5,44.1667 22.5,43.8333 22.5,43.5C 23.1667,43.5 23.5,43.1667 23.5,42.5C 27.6826,44.1349 31.6826,43.8015 35.5,41.5C 35.3764,40.8933 35.0431,40.56 34.5,40.5C 35.8845,39.1991 37.3845,39.1991 39,40.5C 40.4813,39.5291 41.3146,38.1958 41.5,36.5C 43.68,33.619 44.68,30.2856 44.5,26.5C 45.5521,24.744 47.2188,24.0773 49.5,24.5 Z"/></g>
<g><path style="opacity:1" fill="#9556c3" d="M 41.5,26.5 C 41.4824,29.7363 40.4824,32.403 38.5,34.5C 38.5,34.1667 38.5,33.8333 38.5,33.5C 38.5,31.5 38.5,29.5 38.5,27.5C 39.609,27.4431 40.609,27.1098 41.5,26.5 Z"/></g>
<g><path style="opacity:1" fill="#f9d0d8" d="M 59.5,22.5 C 58.7588,28.4707 58.4255,34.4707 58.5,40.5C 58.5,41.1667 58.5,41.8333 58.5,42.5C 57.5,42.8333 56.8333,43.5 56.5,44.5C 54.8008,44.6602 53.1341,44.4935 51.5,44C 52.2524,43.3292 52.5858,42.4959 52.5,41.5C 55.1842,39.1293 56.5175,36.1293 56.5,32.5C 54.8212,32.7148 53.8212,32.0481 53.5,30.5C 54.5686,28.0313 55.9019,25.6979 57.5,23.5C 58.1667,23.1667 58.8333,22.8333 59.5,22.5 Z"/></g>
<g><path style="opacity:1" fill="#f3adf0" d="M 35.5,30.5 C 36.8999,31.0998 37.8999,32.0998 38.5,33.5C 38.5,33.8333 38.5,34.1667 38.5,34.5C 37.5,34.5 36.5,34.5 35.5,34.5C 35.5,33.1667 35.5,31.8333 35.5,30.5 Z"/></g>
<g><path style="opacity:1" fill="#9d88cd" d="M 16.5,25.5 C 15.5655,26.5676 15.2322,27.901 15.5,29.5C 13.405,29.7598 12.0717,30.9264 11.5,33C 12.3195,34.8003 12.9862,36.6336 13.5,38.5C 12.5,39.5 11.5,40.5 10.5,41.5C 6.43345,38.4053 5.43345,34.4053 7.5,29.5C 9.55544,28.4412 10.8888,26.7746 11.5,24.5C 13.5857,22.9766 15.2524,23.31 16.5,25.5 Z"/></g>
<g><path style="opacity:1" fill="#512a7d" d="M 41.5,26.5 C 42.5,26.5 43.5,26.5 44.5,26.5C 44.68,30.2856 43.68,33.619 41.5,36.5C 40.6522,35.375 39.6522,35.375 38.5,36.5C 38.5,35.8333 38.5,35.1667 38.5,34.5C 40.4824,32.403 41.4824,29.7363 41.5,26.5 Z"/></g>
<g><path style="opacity:1" fill="#fae5fb" d="M 23.5,32.5 C 25.3841,32.7118 26.7174,33.7118 27.5,35.5C 26.1395,35.7876 24.8062,36.121 23.5,36.5C 22.8333,36.1667 22.1667,35.8333 21.5,35.5C 22.1667,34.5 22.8333,33.5 23.5,32.5 Z"/></g>
<g><path style="opacity:1" fill="#9c709a" d="M 6.5,27.5 C 6.32842,28.4916 6.66175,29.1583 7.5,29.5C 5.43345,34.4053 6.43345,38.4053 10.5,41.5C 12.7448,42.2919 13.0781,43.6253 11.5,45.5C 10.1667,45.5 9.5,46.1667 9.5,47.5C 8.76109,47.631 8.09442,47.4643 7.5,47C 6.89414,42.6617 5.06081,41.8283 2,44.5C 1.09789,44.2568 0.264561,43.9234 -0.5,43.5C -0.5,38.8333 -0.5,34.1667 -0.5,29.5C 1.83333,28.8333 4.16667,28.1667 6.5,27.5 Z"/></g>
<g><path style="opacity:1" fill="#f8f3f9" d="M 15.5,29.5 C 15.2594,31.8984 15.9261,33.8984 17.5,35.5C 17.8212,37.0481 18.8212,37.7148 20.5,37.5C 20.31,39.9589 21.31,41.6255 23.5,42.5C 23.5,43.1667 23.1667,43.5 22.5,43.5C 18.2379,43.8725 15.2379,42.2059 13.5,38.5C 12.9862,36.6336 12.3195,34.8003 11.5,33C 12.0717,30.9264 13.405,29.7598 15.5,29.5 Z"/></g>
<g><path style="opacity:1" fill="#9858ce" d="M 27.5,29.5 C 28.7079,30.2341 30.0413,30.5674 31.5,30.5C 31.56,31.0431 31.8933,31.3764 32.5,31.5C 33.2652,30.3881 34.2652,29.7214 35.5,29.5C 35.5,29.8333 35.5,30.1667 35.5,30.5C 35.5,31.8333 35.5,33.1667 35.5,34.5C 36.5,34.5 37.5,34.5 38.5,34.5C 38.5,35.1667 38.5,35.8333 38.5,36.5C 36.9505,37.4408 35.2838,38.1075 33.5,38.5C 33.6716,37.5084 33.3382,36.8417 32.5,36.5C 31.4583,35.2089 30.2917,35.2089 29,36.5C 28.8333,36.1667 28.6667,35.8333 28.5,35.5C 29.7287,34.7189 31.062,34.2189 32.5,34C 29.4992,34.0944 27.4992,32.7611 26.5,30C 26.7284,29.6012 27.0618,29.4346 27.5,29.5 Z"/></g>
<g><path style="opacity:1" fill="#f7cef2" d="M 63.5,19.5 C 63.5,28.8333 63.5,38.1667 63.5,47.5C 62.525,44.6888 61.8583,41.6888 61.5,38.5C 60.4265,32.8846 60.2599,27.2179 61,21.5C 61.7083,20.6195 62.5416,19.9528 63.5,19.5 Z"/></g>
<g><path style="opacity:1" fill="#deb0e1" d="M 41.5,36.5 C 41.3146,38.1958 40.4813,39.5291 39,40.5C 37.3845,39.1991 35.8845,39.1991 34.5,40.5C 31.075,40.6332 30.7417,39.9665 33.5,38.5C 35.2838,38.1075 36.9505,37.4408 38.5,36.5C 39.6522,35.375 40.6522,35.375 41.5,36.5 Z"/></g>
<g><path style="opacity:1" fill="#654e6c" d="M 57.5,23.5 C 55.9019,25.6979 54.5686,28.0313 53.5,30.5C 50.6345,32.5418 50.9679,33.7085 54.5,34C 50.045,34.8374 47.8783,37.3374 48,41.5C 46.8173,40.269 45.6507,40.269 44.5,41.5C 45.981,42.944 45.6477,43.6106 43.5,43.5C 43.5654,43.0618 43.3988,42.7284 43,42.5C 40.6922,43.9913 38.1922,44.9913 35.5,45.5C 34.8333,45.5 34.5,45.1667 34.5,44.5C 42.3368,41.9986 48.0035,36.9986 51.5,29.5C 52.3446,28.3285 53.0113,26.9952 53.5,25.5C 54.6049,24.3995 55.9382,23.7329 57.5,23.5 Z"/></g>
<g><path style="opacity:1" fill="#9968d3" d="M 21.5,35.5 C 22.1667,35.8333 22.8333,36.1667 23.5,36.5C 24.4919,38.0265 25.9919,38.6932 28,38.5C 29.7866,38.2414 31.2866,37.5747 32.5,36.5C 33.3382,36.8417 33.6716,37.5084 33.5,38.5C 30.7417,39.9665 31.075,40.6332 34.5,40.5C 35.0431,40.56 35.3764,40.8933 35.5,41.5C 31.6826,43.8015 27.6826,44.1349 23.5,42.5C 21.31,41.6255 20.31,39.9589 20.5,37.5C 20.8333,36.8333 21.1667,36.1667 21.5,35.5 Z"/></g>
<g><path style="opacity:1" fill="#f8ced5" d="M 53.5,30.5 C 53.8212,32.0481 54.8212,32.7148 56.5,32.5C 56.5175,36.1293 55.1842,39.1293 52.5,41.5C 50.7541,43.2516 48.7541,44.5849 46.5,45.5C 44.9731,45.573 43.9731,44.9063 43.5,43.5C 45.6477,43.6106 45.981,42.944 44.5,41.5C 45.6507,40.269 46.8173,40.269 48,41.5C 47.8783,37.3374 50.045,34.8374 54.5,34C 50.9679,33.7085 50.6345,32.5418 53.5,30.5 Z"/></g>
<g><path style="opacity:1" fill="#da99ef" d="M 13.5,38.5 C 15.2379,42.2059 18.2379,43.8725 22.5,43.5C 22.5,43.8333 22.5,44.1667 22.5,44.5C 21.8333,44.5 21.1667,44.5 20.5,44.5C 17.8555,46.2419 14.8555,46.9086 11.5,46.5C 11.5,46.1667 11.5,45.8333 11.5,45.5C 13.0781,43.6253 12.7448,42.2919 10.5,41.5C 11.5,40.5 12.5,39.5 13.5,38.5 Z"/></g>
<g><path style="opacity:1" fill="#b58af3" d="M 61.5,38.5 C 61.8583,41.6888 62.525,44.6888 63.5,47.5C 63.5,48.8333 63.5,50.1667 63.5,51.5C 62.8333,50.8333 62.1667,50.1667 61.5,49.5C 61.067,46.8344 60.567,44.1677 60,41.5C 59.6667,42.1667 59.3333,42.8333 59,43.5C 58.6012,43.2716 58.4346,42.9382 58.5,42.5C 58.5,41.8333 58.5,41.1667 58.5,40.5C 59.5,39.8333 60.5,39.1667 61.5,38.5 Z"/></g>
<g><path style="opacity:1" fill="#ad7ace" d="M 9.5,47.5 C 8.83333,48.1667 8.16667,48.8333 7.5,49.5C 6.5041,49.5858 5.67076,49.2524 5,48.5C 3.22578,49.965 1.39245,51.2983 -0.5,52.5C -0.5,49.5 -0.5,46.5 -0.5,43.5C 0.264561,43.9234 1.09789,44.2568 2,44.5C 5.06081,41.8283 6.89414,42.6617 7.5,47C 8.09442,47.4643 8.76109,47.631 9.5,47.5 Z"/></g>
<g><path style="opacity:1" fill="#fad8ef" d="M 52.5,41.5 C 52.5858,42.4959 52.2524,43.3292 51.5,44C 53.1341,44.4935 54.8008,44.6602 56.5,44.5C 56.9227,46.7812 56.256,48.4479 54.5,49.5C 53.9101,48.234 53.4101,46.9007 53,45.5C 51.4905,46.0897 49.9905,46.7564 48.5,47.5C 49.3914,48.5896 50.3914,48.5896 51.5,47.5C 52.6474,49.7649 52.8141,52.0982 52,54.5C 51.5,53.3333 50.6667,52.5 49.5,52C 50.056,51.6174 50.3893,51.1174 50.5,50.5C 49.3285,49.6554 47.9952,48.9887 46.5,48.5C 47.8333,47.5 47.8333,46.5 46.5,45.5C 48.7541,44.5849 50.7541,43.2516 52.5,41.5 Z"/></g>
<g><path style="opacity:1" fill="#9b709a" d="M 20.5,44.5 C 20.6399,46.1238 19.9733,47.2904 18.5,48C 19.3452,49.5581 18.6785,50.5581 16.5,51C 18.5844,51.6972 20.2511,52.8639 21.5,54.5C 21.1583,55.3382 20.4916,55.6716 19.5,55.5C 18.448,55.6495 17.448,55.4828 16.5,55C 17.8882,54.1107 17.7215,53.6107 16,53.5C 15.228,53.6448 14.5613,53.9781 14,54.5C 12.6387,52.9716 11.472,51.3049 10.5,49.5C 11.056,48.3366 11.3893,47.3366 11.5,46.5C 14.8555,46.9086 17.8555,46.2419 20.5,44.5 Z"/></g>
<g><path style="opacity:1" fill="#8e6586" d="M 20.5,44.5 C 21.1667,44.5 21.8333,44.5 22.5,44.5C 22.8333,44.5 23.1667,44.5 23.5,44.5C 26.6414,45.3213 29.9748,45.8213 33.5,46C 31.5,46.3333 29.5,46.6667 27.5,47C 27.0426,47.414 26.7093,47.914 26.5,48.5C 29.1436,49.3958 31.8103,50.2291 34.5,51C 32.5,51.3333 30.5,51.6667 28.5,52C 29.9423,52.3768 30.9423,53.2101 31.5,54.5C 29.4916,55.3007 28.9916,56.634 30,58.5C 28.8869,57.2889 27.7202,57.2889 26.5,58.5C 25.6143,57.675 25.281,56.675 25.5,55.5C 24.0413,55.5674 22.7079,55.2341 21.5,54.5C 20.2511,52.8639 18.5844,51.6972 16.5,51C 18.6785,50.5581 19.3452,49.5581 18.5,48C 19.9733,47.2904 20.6399,46.1238 20.5,44.5 Z"/></g>
<g><path style="opacity:1" fill="#fdc7fc" d="M 46.5,48.5 C 47.9952,48.9887 49.3285,49.6554 50.5,50.5C 48.2901,51.4551 47.9568,52.9551 49.5,55C 46.2048,56.7347 42.8715,57.2347 39.5,56.5C 39.5,56.1667 39.5,55.8333 39.5,55.5C 41.1459,52.5474 43.4793,50.2141 46.5,48.5 Z"/></g>
<g><path style="opacity:1" fill="#f9b7f6" d="M 43.5,43.5 C 43.9731,44.9063 44.9731,45.573 46.5,45.5C 47.8333,46.5 47.8333,47.5 46.5,48.5C 43.4793,50.2141 41.1459,52.5474 39.5,55.5C 38.1429,54.4097 37.1429,53.0764 36.5,51.5C 36.4828,49.4352 36.1495,47.4352 35.5,45.5C 38.1922,44.9913 40.6922,43.9913 43,42.5C 43.3988,42.7284 43.5654,43.0618 43.5,43.5 Z"/></g>
<g><path style="opacity:1" fill="#f7d1f9" d="M 61.5,49.5 C 60.8826,49.6107 60.3826,49.944 60,50.5C 59.501,54.8206 59.3343,59.1539 59.5,63.5C 59.1667,63.5 58.8333,63.5 58.5,63.5C 58.7361,60.7743 57.9028,58.441 56,56.5C 55.6667,57.1667 55.3333,57.8333 55,58.5C 54.7679,57.2625 54.2679,56.2625 53.5,55.5C 54.3414,53.6208 54.6747,51.6208 54.5,49.5C 56.256,48.4479 56.9227,46.7812 56.5,44.5C 56.8333,43.5 57.5,42.8333 58.5,42.5C 58.4346,42.9382 58.6012,43.2716 59,43.5C 59.3333,42.8333 59.6667,42.1667 60,41.5C 60.567,44.1677 61.067,46.8344 61.5,49.5 Z"/></g>
<g><path style="opacity:1" fill="#fce8fc" d="M 61.5,49.5 C 62.1667,50.1667 62.8333,50.8333 63.5,51.5C 63.5,55.5 63.5,59.5 63.5,63.5C 62.1667,63.5 60.8333,63.5 59.5,63.5C 59.3343,59.1539 59.501,54.8206 60,50.5C 60.3826,49.944 60.8826,49.6107 61.5,49.5 Z"/></g>
<g><path style="opacity:1" fill="#a67496" d="M 23.5,44.5 C 27.1667,44.5 30.8333,44.5 34.5,44.5C 34.5,45.1667 34.8333,45.5 35.5,45.5C 36.1495,47.4352 36.4828,49.4352 36.5,51.5C 36.4593,55.6163 35.7927,59.6163 34.5,63.5C 34.1667,63.5 33.8333,63.5 33.5,63.5C 33.9086,60.1445 33.2419,57.1445 31.5,54.5C 30.9423,53.2101 29.9423,52.3768 28.5,52C 30.5,51.6667 32.5,51.3333 34.5,51C 31.8103,50.2291 29.1436,49.3958 26.5,48.5C 26.7093,47.914 27.0426,47.414 27.5,47C 29.5,46.6667 31.5,46.3333 33.5,46C 29.9748,45.8213 26.6414,45.3213 23.5,44.5 Z"/></g>
<g><path style="opacity:1" fill="#d9e9f8" d="M 7.5,49.5 C 8.65268,50.3132 8.65268,51.3132 7.5,52.5C 8.5,53.8333 9.5,55.1667 10.5,56.5C 10.0302,57.463 9.3635,57.463 8.5,56.5C 7.36465,54.7868 5.69798,54.1201 3.5,54.5C 3.40778,51.6 4.74112,49.9333 7.5,49.5 Z"/></g>
<g><path style="opacity:1" fill="#a57cad" d="M 11.5,45.5 C 11.5,45.8333 11.5,46.1667 11.5,46.5C 11.3893,47.3366 11.056,48.3366 10.5,49.5C 11.472,51.3049 12.6387,52.9716 14,54.5C 14.5613,53.9781 15.228,53.6448 16,53.5C 17.7215,53.6107 17.8882,54.1107 16.5,55C 17.448,55.4828 18.448,55.6495 19.5,55.5C 18.9094,56.1515 18.2427,56.8182 17.5,57.5C 17.8333,57.8333 18.1667,58.1667 18.5,58.5C 22.2231,59.823 25.5564,61.4897 28.5,63.5C 27.5,63.5 26.5,63.5 25.5,63.5C 20.8041,62.6625 16.1374,61.6625 11.5,60.5C 9.77055,59.7638 8.77055,58.4305 8.5,56.5C 9.3635,57.463 10.0302,57.463 10.5,56.5C 9.5,55.1667 8.5,53.8333 7.5,52.5C 8.65268,51.3132 8.65268,50.3132 7.5,49.5C 8.16667,48.8333 8.83333,48.1667 9.5,47.5C 9.5,46.1667 10.1667,45.5 11.5,45.5 Z"/></g>
<g><path style="opacity:1" fill="#fccffc" d="M 54.5,49.5 C 54.6747,51.6208 54.3414,53.6208 53.5,55.5C 53.1583,56.3382 52.4916,56.6716 51.5,56.5C 51.5654,56.0618 51.3988,55.7284 51,55.5C 48.8715,57.6149 46.3715,59.2816 43.5,60.5C 41.4554,59.789 40.1221,58.4557 39.5,56.5C 42.8715,57.2347 46.2048,56.7347 49.5,55C 47.9568,52.9551 48.2901,51.4551 50.5,50.5C 50.3893,51.1174 50.056,51.6174 49.5,52C 50.6667,52.5 51.5,53.3333 52,54.5C 52.8141,52.0982 52.6474,49.7649 51.5,47.5C 50.3914,48.5896 49.3914,48.5896 48.5,47.5C 49.9905,46.7564 51.4905,46.0897 53,45.5C 53.4101,46.9007 53.9101,48.234 54.5,49.5 Z"/></g>
<g><path style="opacity:1" fill="#9a6d91" d="M 21.5,54.5 C 22.7079,55.2341 24.0413,55.5674 25.5,55.5C 25.281,56.675 25.6143,57.675 26.5,58.5C 27.7202,57.2889 28.8869,57.2889 30,58.5C 28.9916,56.634 29.4916,55.3007 31.5,54.5C 33.2419,57.1445 33.9086,60.1445 33.5,63.5C 31.8333,63.5 30.1667,63.5 28.5,63.5C 25.5564,61.4897 22.2231,59.823 18.5,58.5C 18.1667,58.1667 17.8333,57.8333 17.5,57.5C 18.2427,56.8182 18.9094,56.1515 19.5,55.5C 20.4916,55.6716 21.1583,55.3382 21.5,54.5 Z"/></g>
<g><path style="opacity:1" fill="#fde4fd" d="M 53.5,55.5 C 54.2679,56.2625 54.7679,57.2625 55,58.5C 55.3333,57.8333 55.6667,57.1667 56,56.5C 57.9028,58.441 58.7361,60.7743 58.5,63.5C 53.1667,63.5 47.8333,63.5 42.5,63.5C 44.7693,61.6163 47.436,60.283 50.5,59.5C 51.1272,58.5832 51.4606,57.5832 51.5,56.5C 52.4916,56.6716 53.1583,56.3382 53.5,55.5 Z"/></g>
<g><path style="opacity:1" fill="#c58be0" d="M 7.5,49.5 C 4.74112,49.9333 3.40778,51.6 3.5,54.5C 5.69798,54.1201 7.36465,54.7868 8.5,56.5C 8.77055,58.4305 9.77055,59.7638 11.5,60.5C 8.75236,60.4017 8.0857,61.4017 9.5,63.5C 6.16667,63.5 2.83333,63.5 -0.5,63.5C -0.5,59.8333 -0.5,56.1667 -0.5,52.5C 1.39245,51.2983 3.22578,49.965 5,48.5C 5.67076,49.2524 6.5041,49.5858 7.5,49.5 Z"/></g>
<g><path style="opacity:1" fill="#fcd0ef" d="M 36.5,51.5 C 37.1429,53.0764 38.1429,54.4097 39.5,55.5C 39.5,55.8333 39.5,56.1667 39.5,56.5C 40.1221,58.4557 41.4554,59.789 43.5,60.5C 46.3715,59.2816 48.8715,57.6149 51,55.5C 51.3988,55.7284 51.5654,56.0618 51.5,56.5C 51.4606,57.5832 51.1272,58.5832 50.5,59.5C 47.436,60.283 44.7693,61.6163 42.5,63.5C 39.8333,63.5 37.1667,63.5 34.5,63.5C 35.7927,59.6163 36.4593,55.6163 36.5,51.5 Z"/></g>
<g><path style="opacity:1" fill="#bc7ff4" d="M 11.5,60.5 C 16.1374,61.6625 20.8041,62.6625 25.5,63.5C 20.1667,63.5 14.8333,63.5 9.5,63.5C 8.0857,61.4017 8.75236,60.4017 11.5,60.5 Z"/></g>
</svg>
