<svg width="32" height="32" viewBox="0 0 32 32" fill="none" xmlns="http://www.w3.org/2000/svg">
<path fill-rule="evenodd" clip-rule="evenodd" d="M3 16C3 8.82055 8.82055 3 16 3C23.1794 3 29 8.82055 29 16C29 23.1794 23.1794 29 16 29C8.82055 29 3 23.1794 3 16ZM23.4847 6.85619C19.283 3.44243 13.3605 3.28298 9.00586 6.47553C8.65893 6.73006 8.48745 6.85611 8.47693 6.99374C8.46668 7.12782 8.6092 7.27358 8.89108 7.56187L8.91177 7.58304C9.08199 7.75685 9.18254 7.76044 9.37431 7.60746C10.7899 6.47624 12.3966 5.75729 14.1829 5.45276C15.4247 5.2416 16.6687 5.20138 17.9083 5.48652C18.154 5.51453 18.0936 5.51022 18.0936 5.51022C19.7125 5.78602 21.154 6.46691 22.4655 7.43939L22.4718 7.44401C22.7382 7.6415 22.8708 7.73977 22.9971 7.73222C23.1221 7.72474 23.241 7.61341 23.4776 7.39177L23.5127 7.35895C23.7404 7.14564 23.7188 7.04652 23.4847 6.85619ZM7.5737 23.2958C7.78917 23.0918 7.83514 22.9633 7.6247 22.6989C4.47381 18.7451 4.5126 13.1694 7.70155 9.24862C8.12618 8.72632 8.1239 8.72379 7.70888 8.2642L7.66133 8.21149C7.41066 7.93354 7.28713 7.99171 7.07381 8.24309C5.17912 10.4768 4.21525 13.0517 4.19227 15.1848C4.17646 18.6122 5.01895 21.0894 6.65006 23.2211L6.65328 23.2253C6.86587 23.503 6.97043 23.6395 7.08416 23.6476C7.19422 23.6555 7.31287 23.543 7.54635 23.3217L7.5737 23.2958ZM16.0266 27.8156C18.8162 27.774 21.33 26.8927 23.5163 25.1029L23.5253 25.0955C23.8032 24.8677 23.9391 24.7562 23.9451 24.6374C23.9509 24.5231 23.8364 24.4026 23.6123 24.1669L23.5809 24.134C23.3806 23.9235 23.2656 23.9551 23.0667 24.129C19.1767 27.5312 13.3706 27.654 9.33409 24.427C8.77418 23.9795 8.77293 23.9807 8.27846 24.4562L8.24453 24.4888C8.0305 24.6949 8.09155 24.7897 8.2826 24.9513C10.5106 26.8367 13.0861 27.7754 16.0266 27.8156ZM24.7804 23.4488C24.9513 23.6219 25.0354 23.6147 25.1848 23.4272C26.9193 21.2488 27.7776 18.7645 27.8077 16.3376C27.8077 13.2736 26.8977 10.7145 25.1654 8.55696L25.1633 8.55439C24.9483 8.28636 24.8419 8.15374 24.7277 8.14657C24.6158 8.13955 24.4963 8.25288 24.2599 8.47721L24.2288 8.50669C24.014 8.70994 23.9839 8.82989 24.1943 9.07481C27.4278 12.8362 27.6282 18.3924 24.6877 22.3786C24.2763 22.9371 24.2775 22.9382 24.7569 23.425L24.7804 23.4488ZM10.0001 16.5315H10L15.7444 7.00017L15.7444 7L15.7445 7.00004L15.7445 7V7.00009L21.4889 16.5315L15.9286 19.8182L15.7445 19.927V19.9271L15.7444 19.927L10.0001 16.5315ZM15.7444 25.7155L10 17.6208L15.7445 21.0146V21.0147L21.4923 17.6208L15.7445 25.7157L15.7444 25.7158L15.7444 25.7155Z" fill="#E6DAFE"/>
</svg>
