<svg width="32" height="32" viewBox="0 0 32 32" fill="none" xmlns="http://www.w3.org/2000/svg">
<path d="M22.3275 16.1826L21.3275 19.4326L19.4825 14.1301C19.226 13.3875 18.7442 12.7435 18.1043 12.2877C17.4643 11.832 16.6981 11.5872 15.9125 11.5876C15.1269 11.5872 14.3607 11.832 13.7207 12.2877C13.0808 12.7435 12.599 13.3875 12.3425 14.1301L10.5925 19.1626L6.9425 7.43262H2.25L7.555 24.4326C7.65697 24.7621 7.86172 25.0502 8.13928 25.2549C8.41684 25.4596 8.75263 25.5701 9.0975 25.5701H11.98C12.3154 25.5681 12.6418 25.4618 12.9141 25.2661C13.1864 25.0704 13.3912 24.7948 13.5 24.4776L15.4825 18.7276C15.5131 18.64 15.5702 18.564 15.6459 18.5102C15.7216 18.4565 15.8122 18.4276 15.905 18.4276C15.9978 18.4276 16.0884 18.4565 16.1641 18.5102C16.2398 18.564 16.2969 18.64 16.3275 18.7276L18.31 24.4776C18.4197 24.7956 18.6258 25.0714 18.8995 25.2668C19.1733 25.4621 19.5012 25.5673 19.8375 25.5676H22.9025C23.2474 25.5676 23.5832 25.4571 23.8607 25.2524C24.1383 25.0477 24.343 24.7596 24.445 24.4301L27.02 16.1801L22.3275 16.1826Z" fill="#E6DAFE"/>
<path d="M27.485 14.6926L29.75 7.43262H25.0575L22.7925 14.6926H27.485Z" fill="#E6DAFE"/>
</svg>
