<svg width="32" height="32" viewBox="0 0 32 32" fill="none" xmlns="http://www.w3.org/2000/svg">
<path d="M28.4047 5.47754L24.5522 5.53004L18.3747 11.7075C17.7444 12.3365 16.8902 12.6897 15.9997 12.6897C15.1092 12.6897 14.2551 12.3365 13.6247 11.7075L7.44723 5.53004L3.59473 5.47754L11.2497 13.1325C12.5102 14.3911 14.2185 15.098 15.9997 15.098C17.7809 15.098 19.4893 14.3911 20.7497 13.1325L28.4047 5.47754Z" fill="#E6DAFE"/>
<path d="M3.59473 26.5223L7.44723 26.4698L13.6247 20.2923C14.2551 19.6633 15.1092 19.3101 15.9997 19.3101C16.8902 19.3101 17.7444 19.6633 18.3747 20.2923L24.5522 26.4698L28.4047 26.5223L20.7497 18.8673C19.4893 17.6087 17.7809 16.9019 15.9997 16.9019C14.2185 16.9019 12.5102 17.6087 11.2497 18.8673L3.59473 26.5223Z" fill="#E6DAFE"/>
</svg>
