<svg width="32" height="32" viewBox="0 0 32 32" fill="none" xmlns="http://www.w3.org/2000/svg">
<path d="M9.8209 15.9991L13.3771 20.1759L16.99 15.9991L13.3771 11.8222L9.8209 15.9991Z" fill="#E6DAFE"/>
<path d="M27.8112 13.8778C27.7583 13.5825 27.6943 13.291 27.6205 13.0038C27.6002 12.9244 27.5787 12.8457 27.5565 12.767C27.5123 12.6095 27.4655 12.4533 27.4151 12.2989C27.3647 12.1445 27.3118 11.9908 27.2552 11.8389C25.6222 7.43446 21.4737 4.2411 16.5637 4.01292C16.4788 4.00923 16.3939 4.00615 16.3091 4.00369C16.2064 4.00123 16.103 4 15.9997 4C9.38295 4 4 9.38295 4 15.9997C4 21.6988 7.99354 26.4827 13.3291 27.6999C13.414 27.7189 13.4989 27.7374 13.5844 27.7552C13.6822 27.7755 13.78 27.794 13.8784 27.8118C14.0752 27.8469 14.2739 27.8776 14.4737 27.9028C14.9738 27.9668 15.483 27.9994 16.0003 27.9994C16.1036 27.9994 16.207 27.9982 16.3097 27.9957C16.4105 27.9932 16.5114 27.9895 16.6123 27.984C22.8452 27.6697 27.8389 22.5771 27.9963 16.3041C27.9988 16.2033 28 16.1018 28 15.9997C28 15.2758 27.9354 14.5672 27.8124 13.8784L27.8112 13.8778ZM14.5845 11.5258L18.4531 15.9991L14.5845 20.4724H20.5253V17.8301H21.6324V21.5795H13.1182L8.36688 15.9991L12.9521 10.6131L13.1182 10.4187H21.6324V14.1681H20.5253V11.5258H14.5845Z" fill="#E6DAFE"/>
</svg>
