<svg width="32" height="32" viewBox="0 0 32 32" fill="none" xmlns="http://www.w3.org/2000/svg">
<path d="M24.5952 4.32354C23.7022 4.30192 22.9374 4.33099 22.261 4.42221C22.002 4.57717 20.039 6.53635 17.5215 9.34774C18.1202 9.86407 18.7125 10.4027 19.2928 10.9653C20.2835 11.9259 21.2312 12.9663 22.1332 14.0565C24.2852 11.0599 26.252 7.85927 27.7009 4.53059C26.509 4.41759 25.4882 4.3452 24.5952 4.32354ZM10.2699 18.2493C7.99047 21.3936 6.01592 24.5988 5.05 27.2996C7.04525 27.7782 9.64318 27.6459 10.9525 27.408C12.1279 26.0776 13.4803 24.5836 14.8881 22.9888C13.4478 21.7389 12.0957 20.3994 10.8765 18.9917C10.6653 18.7479 10.474 18.4962 10.2699 18.2493Z" fill="#E6DAFE"/>
<path d="M5 4C5.93277 12.3018 15.4467 24.7038 26.8422 28C20.5138 21.3047 13.4441 13.82 9.15556 9.44477C14.9426 13.242 21.3926 19.5071 26.4119 25.1159C23.2512 14.0922 11.9764 5.82 5 4Z" fill="#E6DAFE"/>
</svg>
