<svg width="32" height="32" viewBox="0 0 32 32" fill="none" xmlns="http://www.w3.org/2000/svg">
<path d="M13.4207 27.9644L12.7299 26.3445C11.3711 23.1625 8.83749 20.6278 5.65548 19.2701L4.03456 18.5782C3.6364 18.4118 3.28285 18.1551 3 17.8298C3.8072 23.6162 8.38276 28.1928 14.1702 29C13.8449 28.7172 13.5882 28.3625 13.4218 27.9644H13.4207Z" fill="#E6DAFE"/>
<path d="M18.5782 4.03565L19.2701 5.65657C20.6278 8.83858 23.1625 11.3722 26.3445 12.731L27.9654 13.4228C28.3897 13.6034 28.7335 13.8623 29 14.1713C28.1928 8.38385 23.6162 3.80829 17.8298 3.00109C18.1377 3.26653 18.3977 3.61138 18.5782 4.03565Z" fill="#E6DAFE"/>
<path d="M4.03456 13.4218L5.65548 12.7299C8.83749 11.3722 11.3722 8.83749 12.7299 5.65548L13.4207 4.03456C13.5871 3.6364 13.8438 3.28285 14.1691 3C8.38276 3.80828 3.8072 8.38385 3 14.1713C3.26544 13.8623 3.61029 13.6034 4.03456 13.4228V13.4218Z" fill="#E6DAFE"/>
<path d="M27.9644 18.5782L26.3434 19.2701C23.1614 20.6289 20.6278 23.1625 19.269 26.3445L18.5772 27.9644C18.4107 28.3625 18.154 28.7172 17.8287 29C23.6151 28.1928 28.1917 23.6162 28.9989 17.8298C28.7161 18.1562 28.3625 18.4118 27.9644 18.5782Z" fill="#E6DAFE"/>
<path d="M21.0945 17.6111L21.893 17.2706C23.0113 16.7931 23.0113 15.208 21.893 14.7305L21.0945 14.39C19.5269 13.7209 18.2769 12.472 17.6079 10.9044L17.2674 10.1059C16.7898 8.98761 15.2037 8.98761 14.7261 10.1059L14.3856 10.9044C13.7166 12.472 12.4666 13.7209 10.899 14.39L10.1005 14.7305C8.98218 15.208 8.98218 16.7931 10.1005 17.2706L10.899 17.6111C12.4677 18.2802 13.7166 19.529 14.3856 21.0977L14.7261 21.8962C15.2037 23.0146 16.7898 23.0146 17.2674 21.8962L17.6079 21.0977C18.2769 19.529 19.5258 18.2802 21.0945 17.6111Z" fill="#E6DAFE"/>
</svg>
