<svg width="32" height="32" viewBox="0 0 32 32" fill="none" xmlns="http://www.w3.org/2000/svg">
<path d="M26.0919 8.6754C25.8271 7.19215 25.0007 5.89961 23.7717 5.03085C22.5427 4.16209 21.0383 3.82306 19.5551 4.08793C18.0718 4.35279 16.7793 5.17917 15.9105 6.40815L7.02161 19.1111C6.15285 20.3507 5.82442 21.8445 6.08928 23.3278C6.35415 24.811 7.18053 26.1036 8.4095 26.9723C9.37362 27.6398 10.4861 28 11.6303 28C11.9587 28 12.2871 27.9682 12.6262 27.9152C14.1094 27.6504 15.402 26.824 16.2707 25.595L25.1596 12.9027C26.0284 11.6631 26.3568 10.1692 26.0919 8.68599V8.6754ZM22.5745 11.0804L13.6856 23.7727C13.3042 24.3131 12.7321 24.6839 12.0752 24.8004C11.4184 24.917 10.7615 24.7686 10.2106 24.3872C9.67027 24.0058 9.29945 23.4337 9.18291 22.7768C9.06637 22.12 9.2147 21.4631 9.5961 20.9122L18.4956 8.21983C18.877 7.6795 19.4491 7.30869 20.106 7.19215C20.2543 7.17096 20.4026 7.14977 20.5404 7.14977C21.0489 7.14977 21.5362 7.30869 21.96 7.60534C22.5004 7.98675 22.8712 8.55886 22.9877 9.21573C23.1043 9.87259 22.9559 10.5295 22.5745 11.0804Z" fill="#E6DAFE"/>
</svg>
