<svg width="32" height="32" viewBox="0 0 32 32" fill="none" xmlns="http://www.w3.org/2000/svg">
<path d="M28.3634 7.91385C27.9421 7.58168 27.4398 7.12797 26.5243 7.01455C25.6655 6.90112 24.7905 7.47635 24.1991 7.85714C23.6076 8.23793 22.4896 9.35598 22.0278 9.69626C21.566 10.0365 20.3831 10.3525 18.4792 11.4949C16.5752 12.6372 9.10532 17.4335 9.10532 17.4335L11.0498 17.4578L2.38079 21.922H3.24769L2 22.8699C2 22.8699 3.10185 23.1615 4.02546 22.5782V22.8456C4.02546 22.8456 14.3472 18.7784 16.3403 19.8317L15.125 20.1882C15.2303 20.1882 17.191 20.3178 17.191 20.3178C17.191 20.3178 17.2558 21.5412 18.4387 22.327C19.6215 23.1048 19.6458 23.5342 19.6458 23.5342C19.6458 23.5342 19.0301 23.7854 19.0301 24.1014C19.0301 24.1014 19.9375 23.8259 20.7801 23.8502C21.6227 23.8745 22.36 24.1014 22.36 24.1014C22.36 24.1014 22.2951 23.7611 21.4769 23.5342C20.6505 23.2993 19.8484 22.4162 19.4514 21.9301C19.0544 21.4439 18.7789 20.577 19.1192 19.7102C19.4028 18.9729 20.3912 18.5678 22.4329 17.5145C24.8391 16.2669 25.39 15.3433 25.7303 14.6222C26.0706 13.9011 26.5729 12.4671 26.8565 11.7946C27.213 10.9277 27.6505 10.4659 28.015 10.1905C28.3715 9.91501 30 9.30737 30 9.30737C30 9.30737 28.7604 8.22983 28.3634 7.91385Z" fill="#E6DAFE"/>
</svg>
