<svg width="32" height="32" viewBox="0 0 32 32" fill="none" xmlns="http://www.w3.org/2000/svg">
<path d="M28.9697 15.1223C28.4843 7.95375 22.2823 2.54486 15.1181 3.03028C11.5512 3.27298 8.41768 4.93726 6.22899 7.425H6.22465C6.22465 7.425 6.19431 7.45967 6.18131 7.48134C4.00995 9.98642 2.78775 13.315 3.03046 16.8862C3.05213 17.2286 3.09114 17.5623 3.14314 17.8917C3.14314 17.9091 3.14314 17.9221 3.14748 17.9351C3.18215 18.1518 3.21682 18.3728 3.26016 18.5852C3.29917 18.7845 3.34251 18.9796 3.39452 19.1746C4.89843 25.1643 10.5067 29.403 16.8821 28.9695C24.0463 28.4841 29.4595 22.2821 28.9697 15.1179V15.1223ZM26.1396 15.3173C26.2003 16.1971 26.1396 17.0639 25.9879 17.8961C25.9879 17.8961 25.9879 17.8874 25.9879 17.8831C25.0431 15.5817 23.1794 13.9174 21.5412 12.9986C21.8706 9.09361 20.5487 7.451 19.0491 7.18229C17.8702 6.96126 16.7391 7.73705 16.518 8.91158C16.5093 8.95492 16.505 8.99393 16.4963 9.03727C16.3447 10.2248 17.1811 11.3126 18.3687 11.4643C18.3687 11.4643 18.3687 11.4643 18.373 11.4643C18.477 11.4773 18.581 11.4817 18.6807 11.4817C18.6894 11.6204 18.6937 11.759 18.6937 11.9021C17.3068 11.5597 16.0109 11.4903 14.8321 11.5987C14.3857 11.629 13.9436 11.6854 13.5059 11.7677C13.6532 10.4502 14.1473 8.96792 15.1094 7.88874C16.0369 6.8399 17.4152 6.24181 18.9191 6.39783C19.2051 6.42817 19.5085 6.49751 19.7816 6.58853C19.7946 6.59286 19.8076 6.5972 19.8206 6.5972C23.3051 8.01876 25.8709 11.3256 26.1439 15.326L26.1396 15.3173ZM17.0771 17.3023C16.7477 17.7747 16.375 18.2168 15.9633 18.6155C15.3392 17.9567 14.8147 17.2156 14.3987 16.4095C14.377 16.3661 14.3553 16.3315 14.338 16.2881C14.0953 15.7637 13.9002 15.2176 13.7572 14.6629C14.6804 14.4462 15.5862 14.3638 16.453 14.4071H16.5917L16.596 14.4115C17.1378 14.4548 17.7055 14.5545 18.2906 14.7149C18.0176 15.6294 17.6145 16.4962 17.0901 17.2893L17.0771 17.3023ZM12.6347 6.41083V6.4195C11.1048 8.38716 10.5977 10.8316 10.6194 12.7082C7.07412 14.3725 6.31133 16.3401 6.82708 17.7747C6.84009 17.8137 6.85742 17.8527 6.87042 17.8917C7.33417 18.9969 8.60404 19.5213 9.71356 19.0576C10.8187 18.5938 11.3432 17.324 10.8794 16.2144C10.8404 16.1191 10.7927 16.0281 10.7407 15.9414C10.8534 15.8677 10.9704 15.794 11.1005 15.7204C11.4949 17.0943 12.0799 18.2515 12.7647 19.2223C13.0118 19.5907 13.2805 19.9417 13.5709 20.2841C12.3573 20.8172 10.8231 21.1293 9.40584 20.8389C8.03628 20.5572 6.82708 19.6644 6.20732 18.2861C6.0903 18.0174 5.99928 17.7314 5.9386 17.4453C5.90393 17.1983 5.87359 16.9469 5.85626 16.6955C5.53987 12.0364 8.42635 7.89308 12.6347 6.41517V6.41083ZM16.687 26.1394C13.9219 26.3301 11.3345 25.3853 9.38417 23.708C11.8502 24.0461 14.221 23.2616 15.8376 22.3038C19.0534 24.5445 21.1381 24.2194 22.1219 23.0579C22.9021 22.1478 22.798 20.7782 21.8879 19.9981C21.8576 19.9721 21.8229 19.9417 21.7882 19.9157C20.8347 19.1876 19.4738 19.374 18.7457 20.3275C18.685 20.4098 18.6287 20.5008 18.581 20.5875C18.464 20.5268 18.3383 20.4618 18.2126 20.3881C19.1184 19.452 19.8596 18.3728 20.41 17.1939C20.605 16.7952 20.7784 16.3835 20.9257 15.9631C21.9962 16.7519 23.0321 17.9177 23.4915 19.2916C23.9336 20.6178 23.7645 22.1131 22.8804 23.3396C22.707 23.578 22.5077 23.7947 22.2823 23.9897L22.2736 23.9984C20.6744 25.2596 18.7284 26.0051 16.6957 26.1394H16.687Z" fill="#E6DAFE"/>
</svg>
