<svg width="32" height="32" viewBox="0 0 32 32" fill="none" xmlns="http://www.w3.org/2000/svg">
<g clip-path="url(#clip0_6_4200)">
<path d="M28 16.1191C28 16.0791 28.0015 16.0392 28.0015 15.9993C28.0015 13.7615 27.3877 11.6672 26.3213 9.87317V13.8784C26.3213 14.254 26.0166 14.5587 25.641 14.5587H20.4215L20.281 14.325L20.1804 14.1594L19.8802 13.6609V7.75966C19.8802 7.38399 20.1849 7.07931 20.5605 7.07931H24.0274C21.9745 5.23054 19.2812 4.08135 16.3202 4.00296V7.75079L15.983 7.19024L15.9209 7.29377V4C14.9699 4.00592 14.047 4.12276 13.161 4.33869V7.83953C13.161 8.2152 12.8564 8.51987 12.4807 8.51987H9.32002C8.94435 8.51987 8.63967 8.2152 8.63967 7.83953V6.52172C5.81623 8.71658 4 12.1464 4 15.9993C4 17.8303 4.41117 19.5666 5.14476 21.1196H12.8401C13.2158 21.1196 13.5204 21.4243 13.5204 21.8V27.5208C13.5204 27.5962 13.5071 27.6687 13.4849 27.7353C14.2969 27.9083 15.137 28 16.0007 28C17.4783 28 18.8937 27.7323 20.2011 27.2442V25.1204H18.9617C18.5861 25.1204 18.2814 24.8157 18.2814 24.44V20.9525L18.6807 20.389V24.44C18.6807 24.5938 18.8064 24.7195 18.9603 24.7195H20.1997V22.0396C20.1997 21.6639 20.5043 21.3592 20.88 21.3592H24.0407C24.4163 21.3592 24.721 21.6639 24.721 22.0396V24.2433C25.8613 23.0379 26.7532 21.5959 27.3167 20H18.9603C18.9603 20 18.9588 20 18.9573 20L19.2413 19.5992H27.4513C27.7589 18.6201 27.9438 17.5877 27.9896 16.5184H20.6167L21.2927 16.1191H28ZM15.983 8.31429L16.3202 8.87484L19.503 14.1594L19.7441 14.5587L19.8802 14.785L20.2795 15.4491L20.5428 15.8869L20.3372 16.0081L19.9926 16.2122L15.9815 18.5875L14.399 17.6513L13.9996 17.4147L13.2793 16.9887L12.88 16.7521L11.4173 15.8869L12.8253 13.5515L13.0383 13.198L13.76 12.0015L13.973 11.648L15.9209 8.41634L15.983 8.31281V8.31429ZM12.6005 20.5206H6.75984C6.38417 20.5206 6.0795 20.2159 6.0795 19.8403V13.7201C6.0795 13.3444 6.38417 13.0397 6.75984 13.0397H9.47976V12.2795C9.47976 11.9039 9.78443 11.5992 10.1601 11.5992H13.3252L13.0841 11.9985H10.1601C10.0063 11.9985 9.88057 12.1242 9.88057 12.2781V13.0383H12.457L12.2159 13.4376H9.88057V18.7177C9.88057 18.8715 10.0063 18.9972 10.1601 18.9972H12.2973L12.5813 19.3966H10.1601C9.78443 19.3966 9.47976 19.0919 9.47976 18.7162V13.4361H6.75984C6.60603 13.4361 6.48031 13.5618 6.48031 13.7157V19.8358C6.48031 19.9896 6.60603 20.1154 6.75984 20.1154H12.6005C12.7543 20.1154 12.88 19.9896 12.88 19.8358V19.8166L13.164 20.2159C13.0412 20.3964 12.8342 20.5162 12.6005 20.5162V20.5206ZM15.983 23.1888L13.2941 19.401L13.2808 19.3832L13.0102 19.0017L12.8815 18.8197L11.4187 16.758L12.8815 17.6217L13.2808 17.8584L14.0011 18.2843L14.4004 18.521L15.983 19.4557L20.5487 16.7595L15.983 23.1902V23.1888Z" fill="#E6DAFE"/>
<path d="M12.8399 21.5205H5.34277C6.90905 24.5377 9.7177 26.805 13.0913 27.6451C13.1106 27.6081 13.1209 27.5652 13.1209 27.5209V21.8C13.1209 21.6462 12.9952 21.5205 12.8414 21.5205H12.8399Z" fill="#E6DAFE"/>
<path d="M24.0408 21.76H20.8801C20.7263 21.76 20.6006 21.8857 20.6006 22.0396V24.7195H24.2434C24.2685 24.6959 24.2952 24.6707 24.3203 24.6456V22.0381C24.3203 21.8843 24.1946 21.7585 24.0408 21.7585V21.76Z" fill="#E6DAFE"/>
<path d="M20.2812 7.75977V14.1595H25.6412C25.795 14.1595 25.9207 14.0338 25.9207 13.8799V9.24618C25.4874 8.61021 24.9949 8.0186 24.4506 7.47876H20.5608C20.407 7.47876 20.2812 7.60448 20.2812 7.75829V7.75977Z" fill="#E6DAFE"/>
<path d="M20.6006 27.086C21.772 26.5994 22.8502 25.9323 23.7997 25.1204H20.6006V27.086Z" fill="#E6DAFE"/>
<path d="M9.31957 8.11897H12.4802C12.634 8.11897 12.7598 7.99326 12.7598 7.83944V4.44214C11.4079 4.82077 10.1537 5.42864 9.04004 6.22287V7.83944C9.04004 7.99326 9.16576 8.11897 9.31957 8.11897Z" fill="#E6DAFE"/>
</g>
<defs>
<clipPath id="clip0_6_4200">
<rect width="24.0015" height="24" fill="white" transform="translate(4 4)"/>
</clipPath>
</defs>
</svg>
