<svg width="32" height="32" viewBox="0 0 32 32" fill="none" xmlns="http://www.w3.org/2000/svg">
<g clip-path="url(#clip0_14350_3077)">
<path d="M16.0168 28.4397C14.2714 28.4397 12.5261 28.4599 10.7807 28.4209C10.4635 28.4142 10.0499 28.2422 9.85424 28.0111C7.65194 25.4071 5.48877 22.7722 3.29625 20.1615C3 19.8081 2.94411 19.4883 3.04891 19.057C3.83705 15.8107 4.6112 12.5618 5.3658 9.30746C5.46362 8.88824 5.67183 8.66116 6.0659 8.48111C9.19607 7.05012 12.3207 5.60569 15.4369 4.14514C15.8575 3.94763 16.1928 3.95434 16.6093 4.14917C19.7255 5.60972 22.8584 7.03668 25.9676 8.51201C26.2653 8.6531 26.5643 9.01454 26.6412 9.32358C27.4517 12.5873 28.23 15.8591 28.9776 19.1363C29.0447 19.4292 28.9483 19.8551 28.7569 20.0903C26.6035 22.7319 24.4095 25.3426 22.2492 27.9789C21.9529 28.3403 21.6385 28.4518 21.183 28.4464C19.4614 28.4276 17.7384 28.4384 16.0168 28.4384V28.4397ZM12.3346 23.9318C14.9799 23.964 16.095 25.3413 16.0783 27.7652C17.1906 25.661 18.704 24.0366 20.9398 23.2089C20.3585 22.3167 19.8149 21.4836 19.3496 20.7688C19.3174 21.4232 19.439 22.181 19.214 22.8259C18.82 23.9546 17.7957 24.5512 16.6763 24.961C16.5506 25.0067 16.3508 24.9812 16.2306 24.914C15.3013 24.3886 14.3832 23.8431 13.3994 23.268V21.5911C13.0082 22.4511 12.6938 23.1417 12.3346 23.9304V23.9318ZM22.3176 22.6956C23.3643 21.141 24.3173 19.5421 24.4822 17.63C24.5102 17.3035 24.4585 16.9582 24.3774 16.6357C24.1594 15.7677 23.9247 14.9024 23.6633 14.0465C23.4481 13.3398 23.2539 12.6169 22.9325 11.9531C22.2086 10.4576 20.9216 9.61918 19.207 9.19996C19.2853 9.30746 19.3007 9.3518 19.3328 9.36792C19.4739 9.44451 19.6193 9.51707 19.766 9.5829C20.9468 10.1217 21.8355 10.9601 22.3959 12.0834C23.3839 14.0613 23.8604 16.1749 23.5474 18.3408C23.3363 19.8041 22.7494 21.2176 22.3176 22.6956ZM9.56917 19.4063C9.5007 19.3808 9.43223 19.3553 9.36515 19.3311C9.2869 19.4117 9.22402 19.5286 9.1276 19.5676C8.79362 19.702 8.36042 19.9908 8.12426 19.8874C7.65893 19.6831 7.71343 19.2061 7.93562 18.7775C8.17457 18.3166 8.33387 17.8101 8.62593 17.3855C8.99205 16.8521 9.02 16.371 8.65667 15.8497C8.27798 15.3055 8.36182 14.8097 8.70558 14.2454C9.1262 13.5534 9.45878 12.8036 9.74664 12.0499C9.97302 11.456 10.3 11.0193 10.8716 10.6793C11.5633 10.2682 12.1851 9.74549 12.8363 9.27252C11.9084 9.71324 11.0448 10.2252 10.2092 10.7774C9.96324 10.94 9.74106 11.1913 9.61249 11.4492C9.09406 12.4986 8.60637 13.5615 8.13125 14.6297C8.04182 14.8312 7.95518 15.1416 8.0516 15.2948C8.67484 16.277 8.56445 17.192 7.90348 18.1017C7.78609 18.2642 7.71762 18.4618 7.64216 18.6499C7.2467 19.6428 8.04601 20.7245 9.18349 20.7406C9.12201 20.5323 9.05912 20.3227 8.99764 20.1145C9.05773 20.1319 9.11782 20.1507 9.17651 20.1682C9.30786 19.9142 9.43782 19.6616 9.56917 19.4077V19.4063ZM17.9005 12.8077C18.2708 13.0321 18.7403 13.1624 18.929 13.458C19.7604 14.7613 20.1139 16.1171 19.0547 17.4997C18.6565 18.021 18.2875 18.5639 17.9186 19.1054C17.6797 19.4547 17.3988 19.5152 16.974 19.405C16.0727 19.1726 15.455 19.3163 14.9114 19.8242C15.8798 19.4883 16.7504 19.5636 17.5721 20.1454C17.9116 19.7611 18.24 19.4413 18.5041 19.0798C19.01 18.3852 19.4781 17.6663 19.963 16.9569C20.5122 16.1547 20.6114 15.3633 19.9532 14.5571C19.7702 14.3327 19.6235 14.0613 19.5312 13.7885C19.2755 13.0374 18.7361 12.7418 17.9005 12.8063V12.8077ZM11.26 16.4194C11.3103 16.4503 11.3606 16.4826 11.4095 16.5135C11.8372 15.9021 12.4772 15.5313 12.758 14.6982C12.9886 14.0143 13.7726 13.5023 14.3105 12.9138C14.2658 12.8735 14.2197 12.8332 14.175 12.7929C13.2136 13.8839 11.622 14.2696 10.7234 15.6078C11.0812 15.5662 11.295 15.542 11.6345 15.503C11.4822 15.8739 11.3718 16.1466 11.2614 16.4181L11.26 16.4194ZM14.2868 11.4748C15.3362 11.5863 16.1551 11.9383 16.4374 13.0442C16.763 14.3112 16.1831 15.0395 14.9631 15.4493C16.8189 14.9965 17.2982 14.4765 17.0788 13.247C16.844 11.9356 15.884 11.3028 14.2868 11.4748ZM17.2507 9.3397C16.5254 9.67293 16.2935 9.27521 16.1369 8.73103C15.9259 7.99471 15.5752 7.35647 14.7521 7.07565C15.5081 7.71791 15.687 8.57651 15.8491 9.47272C15.9455 10.0088 16.2334 10.5127 16.4807 11.1483C16.7798 10.4428 16.9936 9.94166 17.2493 9.3397H17.2507ZM14.0143 6.54087C15.7052 6.72227 16.4849 7.92618 17.5232 8.90705C16.9922 7.40887 14.9003 6.11897 13.4735 6.39039C14.1904 7.45725 14.0898 8.5792 13.7306 9.71996C14.4433 8.75387 14.5621 7.72463 14.0157 6.53953L14.0143 6.54087ZM11.5451 17.8101L11.5563 17.9189C11.7938 17.9686 12.0356 18.0076 12.2703 18.0708C12.7972 18.2105 13.2122 18.4739 13.2904 19.0449C13.3715 19.6334 13.0026 19.9626 12.5121 20.1884C12.1264 20.3657 11.7226 20.5068 11.3257 20.6627C12.1809 20.5753 13.1409 20.6318 13.616 19.7947C14.1876 18.7869 13.2527 18.236 12.6546 17.54C12.3332 17.6179 11.9406 17.7147 11.5465 17.8114L11.5451 17.8101ZM15.8742 10.9521C15.5822 9.82073 15.3195 8.8009 15.061 7.79853C14.8751 8.55635 14.699 9.26983 14.5104 10.0344C14.8947 10.2924 15.3726 10.6148 15.8742 10.9521ZM9.80953 8.49589C10.5907 8.74178 11.2041 8.93526 11.914 9.15831C11.0868 8.55635 10.3755 8.03905 9.64044 7.50562C9.3973 8.42602 9.34419 9.35986 9.91294 10.3985C9.87381 9.68771 9.84446 9.12337 9.80953 8.49589ZM9.76761 15.2464C10.6522 14.4604 10.2567 13.4056 10.5208 12.4341C10.1798 13.024 9.87521 13.5507 9.51328 14.1795C9.57337 14.4335 9.66979 14.8379 9.76761 15.2464ZM10.2022 21.6247C10.5292 22.3315 11.5675 22.2831 12.5414 21.4581C11.8274 21.5092 11.0155 21.5669 10.2022 21.6247Z" fill="#E6DAFE"/>
</g>
<defs>
<clipPath id="clip0_14350_3077">
<rect width="26" height="24.4478" fill="white" transform="translate(3 4)"/>
</clipPath>
</defs>
</svg>
