<svg width="32" height="32" viewBox="0 0 32 32" fill="none" xmlns="http://www.w3.org/2000/svg">
<path d="M15.9923 9.97801L13.6538 13.9951H18.3302L15.9923 9.97801Z" fill="#E6DAFE"/>
<path d="M15.9923 21.9586L18.3358 17.9317H13.6482L15.9923 21.9586Z" fill="#E6DAFE"/>
<path d="M16.0003 4C9.38322 4 4 9.38322 4 16.0003C4 22.6174 9.38322 28 16.0003 28C22.6174 28 28 22.6168 28 15.9997C28 9.38261 22.6174 4 16.0003 4ZM15.9923 7.55704L19.7394 13.9951H21.776V14.9178H10.2124V13.9951H12.2446L15.9929 7.55704H15.9923ZM12.5042 25.416C8.67465 23.9983 5.94551 20.3139 5.94551 15.9917C5.94551 11.6695 8.67465 7.98452 12.5042 6.56736V7.55827C9.19562 8.92806 6.86814 12.188 6.86814 15.9917C6.86814 19.7954 9.19562 23.0553 12.5042 24.4251V25.416ZM15.9923 24.379L12.2384 17.9311H10.2124V17.0084H21.776V17.9311H19.7449L15.9917 24.379H15.9923ZM19.4798 25.416V24.4251C22.7884 23.0553 25.1153 19.7954 25.1153 15.9917C25.1153 12.188 22.7878 8.92806 19.4798 7.55827V6.56736C23.3087 7.98514 26.0379 11.6695 26.0379 15.9917C26.0379 20.3139 23.3087 23.9983 19.4798 25.416Z" fill="#E6DAFE"/>
</svg>
