<svg width="32" height="32" viewBox="0 0 32 32" fill="none" xmlns="http://www.w3.org/2000/svg">
<g opacity="0.64">
<path opacity="0.64" d="M16.0004 28.8099C13.4669 28.8099 10.9902 28.0587 8.88358 26.6511C6.77699 25.2435 5.1351 23.2428 4.16554 20.9021C3.19598 18.5614 2.9423 15.9857 3.43658 13.5008C3.93085 11.0159 5.15089 8.73342 6.9424 6.94191C8.73391 5.1504 11.0164 3.93036 13.5013 3.43609C15.9862 2.94181 18.5619 3.19549 20.9026 4.16505C23.2433 5.13461 25.244 6.7765 26.6516 8.88309C28.0591 10.9897 28.8104 13.4664 28.8104 15.9999C28.8065 19.3962 27.4556 22.6521 25.0541 25.0536C22.6526 27.4551 19.3966 28.806 16.0004 28.8099V28.8099ZM16.0004 4.49995C13.726 4.49995 11.5025 5.17441 9.61138 6.43805C7.72021 7.70168 6.24623 9.49774 5.37582 11.5991C4.50541 13.7004 4.27767 16.0127 4.7214 18.2435C5.16513 20.4743 6.2604 22.5234 7.86871 24.1317C9.47701 25.74 11.5261 26.8352 13.7569 27.279C15.9877 27.7227 18.2999 27.495 20.4013 26.6246C22.5026 25.7542 24.2987 24.2802 25.5623 22.389C26.826 20.4978 27.5004 18.2744 27.5004 15.9999C27.5004 12.95 26.2888 10.0249 24.1322 7.86822C21.9755 5.71155 19.0504 4.49995 16.0004 4.49995Z" fill="#E6DAFE"/>
</g>
<path d="M16.0004 28.8099C13.4669 28.8099 10.9902 28.0587 8.88358 26.6511C6.77699 25.2435 5.1351 23.2428 4.16554 20.9021C3.19598 18.5614 2.9423 15.9857 3.43658 13.5008C3.93085 11.0159 5.15089 8.73342 6.9424 6.94191C8.73391 5.1504 11.0164 3.93036 13.5013 3.43609C15.9862 2.94181 18.5619 3.19549 20.9026 4.16505C23.2433 5.13461 25.244 6.7765 26.6516 8.88309C28.0591 10.9897 28.8104 13.4664 28.8104 15.9999C28.8065 19.3962 27.4556 22.6521 25.0541 25.0536C22.6526 27.4551 19.3966 28.806 16.0004 28.8099V28.8099ZM16.0004 4.49995C13.726 4.49995 11.5025 5.17441 9.61138 6.43805C7.72021 7.70168 6.24623 9.49774 5.37582 11.5991C4.50541 13.7004 4.27767 16.0127 4.7214 18.2435C5.16513 20.4743 6.2604 22.5234 7.86871 24.1317C9.47701 25.74 11.5261 26.8352 13.7569 27.279C15.9877 27.7227 18.2999 27.495 20.4013 26.6246C22.5026 25.7542 24.2987 24.2802 25.5623 22.389C26.826 20.4978 27.5004 18.2744 27.5004 15.9999C27.5004 12.95 26.2888 10.0249 24.1322 7.86822C21.9755 5.71155 19.0504 4.49995 16.0004 4.49995Z" fill="#E6DAFE"/>
<path d="M12.8775 23.1974C12.1664 22.5954 11.5951 21.8456 11.2035 21.0002C10.8118 20.1548 10.6093 19.2341 10.61 18.3024C10.5939 17.5231 10.7348 16.7486 11.0243 16.0249C11.3138 15.3012 11.7459 14.6432 12.295 14.0899C12.8672 13.5089 13.5489 13.0471 14.3007 12.7313C15.0525 12.4154 15.8595 12.2518 16.675 12.2499C17.2023 12.2406 17.728 12.3097 18.235 12.4549L18.855 12.6724L19.355 11.4549L18.66 11.2049C18.011 11.0123 17.3369 10.9179 16.66 10.9249C15.6696 10.9277 14.6895 11.1267 13.7764 11.5103C12.8633 11.8939 12.0352 12.4546 11.34 13.1599C10.6678 13.8377 10.139 14.6439 9.78509 15.5304C9.43117 16.4169 9.25938 17.3656 9.27997 18.3199C9.30747 19.6874 9.69998 22.2699 12.03 24.1999C13.5675 25.4799 15.6675 26.2524 18.3025 26.5174C19.4037 26.276 20.46 25.8626 21.4325 25.2924C17.835 25.6874 14.83 24.8349 12.8775 23.1974Z" fill="#E6DAFE"/>
<path d="M8.34996 18.2225C8.34397 16.1651 9.10235 14.1788 10.478 12.6488C11.8536 11.1189 13.7485 10.1545 15.795 9.94252C16.03 9.91752 16.2725 9.90252 16.5125 9.90002L16.5 8.58252C16.2225 8.58252 15.9425 8.60502 15.67 8.63502C13.2997 8.87981 11.1048 9.99626 9.51112 11.7678C7.91743 13.5393 7.03855 15.8396 7.04496 18.2225C7.05181 20.4791 7.83977 22.6637 9.27496 24.405C11.0583 25.8416 13.2546 26.6695 15.5425 26.7675C11.4425 25.91 8.34996 22.3775 8.34996 18.2225Z" fill="#E6DAFE"/>
<path d="M14.527 21.6901C14.0247 21.2799 13.6188 20.7642 13.338 20.1797C13.0571 19.5952 12.9083 18.956 12.902 18.3076C12.895 17.812 12.9872 17.3201 13.1731 16.8607C13.359 16.4014 13.6349 15.9838 13.9845 15.6326C14.3559 15.2549 14.8012 14.9579 15.2927 14.7603C15.7841 14.5627 16.3111 14.4687 16.8405 14.4842C17.37 14.4997 17.8905 14.6243 18.3696 14.8503C18.8486 15.0763 19.2759 15.3988 19.6245 15.7976C19.6745 15.8551 19.7945 16.0026 19.842 16.0626L20.092 16.3751L21.2895 15.7726L20.882 15.2501C20.8245 15.1776 20.677 15.0001 20.617 14.9301C20.1497 14.3945 19.5767 13.9612 18.9341 13.6575C18.2914 13.3537 17.5929 13.186 16.8824 13.1649C16.1719 13.1438 15.4647 13.2697 14.8051 13.5347C14.1455 13.7997 13.5479 14.1982 13.0495 14.7051C12.5761 15.1801 12.2026 15.7452 11.951 16.3669C11.6994 16.9886 11.5748 17.6544 11.5845 18.3251C11.5941 19.1637 11.7871 19.9901 12.1498 20.7463C12.5126 21.5025 13.0364 22.1702 13.6845 22.7026C15.312 24.0576 17.727 24.7351 20.8995 24.7351C21.372 24.7351 21.8645 24.7176 22.372 24.6876C22.963 24.255 23.5083 23.7632 23.9995 23.2201C18.5295 23.8651 15.837 22.7826 14.527 21.6901Z" fill="#E6DAFE"/>
</svg>
