<svg width="32" height="32" viewBox="0 0 32 32" fill="none" xmlns="http://www.w3.org/2000/svg">
<path d="M9.98159 19.4982C9.98159 19.4982 9.52434 20.3387 9.43493 20.52C9.38462 20.6121 9.35826 20.7153 9.35826 20.8202C9.35826 20.9251 9.38462 21.0283 9.43493 21.1203C9.54733 21.2864 9.72103 21.1868 9.9305 20.962C10.14 20.7372 10.352 20.5558 10.2166 20.377C10.0812 20.1982 9.96116 20.2263 9.96116 20.0449C9.96116 19.8635 9.98159 19.4982 9.98159 19.4982ZM13.9768 12.6802C13.8108 12.3073 13.42 12.246 13.3868 12.1693C13.4294 11.9925 13.492 11.8211 13.5732 11.6584C13.6388 11.4467 13.6799 11.2281 13.6959 11.007C13.6959 11.007 11.7136 13.9779 11.6344 14.0903C11.5552 14.2027 11.4147 14.31 11.2665 14.1899C11.1184 14.0699 11.1107 13.679 11.1107 13.679C11.0107 14.0328 10.9872 14.4037 11.0417 14.7673C11.0768 14.8829 11.1549 14.9808 11.2599 15.0406C11.3649 15.1005 11.4889 15.1179 11.6063 15.0891C11.9281 15.0176 12.8171 14.4735 13.4532 14.0673C13.6887 13.9336 13.87 13.7217 13.9656 13.4684C14.0613 13.215 14.0652 12.9362 13.9768 12.6802ZM11.9664 14.5016C11.9664 14.5016 12.5974 13.5666 12.7558 13.2831L13.1901 12.5167C13.1901 12.5167 13.6013 12.8897 13.5656 13.1477C13.4608 13.9217 11.9664 14.5016 11.9664 14.5016Z" fill="#E6DAFE"/>
<path d="M26.5783 9.6327C24.4401 7.1114 22.5983 6.61327 22.5983 6.61327C22.9247 6.58904 23.2521 6.58137 23.5793 6.59027C24.001 6.61628 24.4207 6.66832 24.8361 6.7461C24.8361 6.7461 22.1615 4.41894 18.5494 4.2529C14.8249 4.08175 13.397 5.44075 13.397 5.44075C13.5097 5.18632 13.6376 4.93894 13.7802 4.69994C13.9468 4.45753 14.1258 4.22391 14.3166 4C14.3166 4 12.7405 3.99489 11.6522 4.69994C11.1778 4.99739 10.7682 5.38762 10.4482 5.84721C10.1282 6.3068 9.90434 6.82628 9.79001 7.37451C9.68338 7.15903 9.6118 6.92793 9.57798 6.6899C9.47597 6.22783 9.30366 5.78414 9.06708 5.37433C9.06708 5.37433 8.37481 6.30672 8.19344 7.07308C7.93798 8.12809 8.32883 9.44622 8.32883 9.44622L3.17127 7.57632C3.14185 7.56742 3.11026 7.56901 3.08188 7.5808C3.0535 7.59258 3.03009 7.61384 3.01563 7.64096C3.00117 7.66807 2.99655 7.69936 3.00258 7.7295C3.0086 7.75963 3.02488 7.78675 3.04865 7.80622L8.89337 12.108C8.82176 12.4442 8.78157 12.7862 8.77331 13.1298C8.78608 13.3137 9.20758 14.052 9.18714 14.3713C9.15649 14.7979 8.7682 17.9962 8.73499 18.3896C8.712 18.668 7.90222 20.0347 7.81026 20.3054C7.7198 20.5582 7.7198 20.8344 7.81026 21.0871C7.94368 21.6114 8.13831 22.1181 8.39013 22.5968C8.46464 22.7335 8.56555 22.854 8.68703 22.9514C8.8085 23.0488 8.9481 23.121 9.09773 23.1639C9.49941 23.28 9.9093 23.3654 10.3239 23.4194C10.6466 23.4532 10.9722 23.3929 11.2614 23.2457C11.4252 23.0888 11.6381 22.9931 11.8643 22.9749H12.6306C12.9092 22.9496 13.1749 22.846 13.397 22.676C13.6933 22.4001 14.9297 21.3068 15.0855 21.105C15.2683 20.846 15.3778 20.5424 15.4023 20.2263C15.4329 19.9861 15.4508 19.4446 15.4508 19.2351C15.4822 18.9862 15.5822 18.751 15.7395 18.5556C15.8595 18.4049 17.1751 16.7215 17.1751 16.7215C17.7242 17.2315 18.2073 17.8082 18.6133 18.4381C19.3566 19.5646 19.7245 21.1868 19.3056 23.095C18.8406 25.2024 16.9912 26.8833 14.1352 27.3636C13.2497 27.4984 12.3477 27.4803 11.4683 27.3099C12.9997 27.8972 14.6386 28.1515 16.2759 28.0558C17.2414 27.9927 18.1846 27.7373 19.0501 27.3048C18.975 27.4939 18.8649 27.6673 18.7257 27.8157C18.5302 28.023 18.3193 28.2152 18.0947 28.3905C18.0947 28.3905 19.4946 28.3138 21.3032 27.2793C22.3849 26.6521 23.2846 25.7541 23.9139 24.6737C23.969 24.9257 23.9742 25.186 23.9292 25.44C23.8832 25.7849 23.7274 26.375 23.7274 26.375C23.7274 26.375 26.333 24.5868 27.3778 21.8841C27.9357 20.4119 28.1853 18.8408 28.111 17.2681C28.261 17.3501 28.3965 17.4563 28.512 17.5823C28.6714 17.7518 28.819 17.9318 28.9539 18.1213C28.9539 18.1213 29.5338 13.1043 26.5783 9.6327ZM9.18203 11.3187C8.92658 11.1654 5.38092 8.98641 5.38092 8.98641C5.38092 8.98641 9.26889 10.4833 9.54222 10.5753C9.8743 10.6954 10.0046 10.9483 9.88452 11.1961C9.76446 11.4438 9.47069 11.4924 9.18203 11.3187ZM14.0407 21.0488C13.821 21.2889 12.8145 22.1524 12.8145 22.1524L11.8311 22.137C11.8764 21.9803 11.9649 21.8396 12.0865 21.7309C12.3266 21.4754 13.3868 20.5737 13.6575 20.3106C13.9283 20.0474 13.798 19.6285 13.6192 19.4011C13.4404 19.1738 12.8375 18.9516 12.6127 19.1176C12.2749 19.468 12.0792 19.9314 12.0635 20.4178C12.1158 20.8078 12.0161 21.2029 11.7851 21.5214C11.4562 21.891 11.0974 22.2327 10.7122 22.5432C10.6579 22.5922 10.5929 22.628 10.5224 22.6475C10.4519 22.667 10.3778 22.6698 10.306 22.6556C9.95452 22.5794 9.61203 22.4664 9.28421 22.3184C9.05942 22.1753 8.8244 21.317 8.77331 21.1765C8.68302 20.9765 8.6469 20.7563 8.66858 20.5379C8.712 20.3642 9.38895 19.23 9.50901 19.0052C9.62907 18.7804 9.60864 18.6476 9.65973 18.2388C9.71082 17.8301 10.0046 15.2424 10.0046 15.2424C10.1613 15.3903 10.3025 15.5538 10.4261 15.7303C10.5336 15.9905 10.6024 16.2651 10.6304 16.5452C10.7958 16.2787 10.8989 15.9783 10.9319 15.6665C10.9319 15.3727 10.5793 14.614 10.421 14.1695C10.2659 13.54 10.2862 12.88 10.4797 12.2613C10.6841 11.6533 11.3534 10.0235 11.3534 10.0235C11.3534 10.0235 11.5705 10.3531 11.803 10.3607C12.0354 10.3684 12.5514 9.55351 13.3025 8.5317C14.0535 7.5099 15.1826 5.9261 15.1826 5.9261C15.4458 6.37126 15.581 6.88041 15.5734 7.3975C15.5095 8.31628 15.1018 9.17727 14.4316 9.80896C14.1707 10.0417 13.8761 10.2338 13.5579 10.3786C13.5579 10.3786 14.5465 10.4272 14.9578 10.2509C15.2427 10.1253 15.512 9.96671 15.7599 9.7783C15.7599 9.7783 16.4522 11.5665 16.5646 11.8219C16.604 11.8986 16.6246 11.9835 16.6246 12.0697C16.6246 12.1559 16.604 12.2408 16.5646 12.3175C16.5186 12.4989 15.6092 14.4888 15.6092 14.4888C15.6092 14.4888 14.6972 14.7443 14.5874 14.7698C14.5281 14.79 14.4742 14.8235 14.4299 14.8678C14.3856 14.9121 14.3521 14.966 14.3319 15.0253C14.2808 15.153 13.2667 17.8352 13.2667 17.8352C13.0613 17.862 12.8614 17.9206 12.674 18.0089C12.5093 18.1446 12.3826 18.3206 12.3062 18.5198C12.3062 18.5198 13.374 18.2056 13.7955 18.4534C14.217 18.7012 14.6896 19.4292 14.6819 19.8354C14.6742 20.2416 14.2578 20.7934 14.0407 21.0488ZM12.6153 19.9146C12.5693 19.4982 12.9985 19.419 13.2386 19.5927C13.2806 19.6276 13.3139 19.6718 13.3356 19.7218C13.3574 19.7719 13.367 19.8264 13.3638 19.8809C13.3605 19.9354 13.3445 19.9883 13.317 20.0354C13.2895 20.0826 13.2512 20.1226 13.2054 20.1522C12.9561 20.3679 12.719 20.5973 12.4952 20.8393C12.578 20.5347 12.6185 20.2201 12.6153 19.9044V19.9146ZM20.9583 16.6448C21.1579 15.7325 21.2071 14.7937 21.1039 13.8655C21.4883 14.3343 21.8127 14.8492 22.0695 15.3982C22.4145 16.1991 22.6168 17.0541 22.6673 17.9246V17.9834L23.3264 18.6987V20.3438L22.3556 20.9441V21.0156C22.3556 21.0156 22.3556 22.1243 21.2444 23.3964C20.7829 23.8835 20.2933 24.3433 19.7781 24.7733C20.5113 23.9022 21.5816 22.3056 21.7094 20.3157C21.8166 18.6476 20.8868 17.0076 20.9583 16.6346V16.6448ZM22.7337 22.7169C22.0772 23.5241 20.7897 24.431 19.9365 24.9853C20.4656 24.5456 20.9672 24.0738 21.4386 23.5727C22.4604 22.4001 22.5932 21.3783 22.6111 21.0973L23.5741 20.4945V18.6092L22.9023 17.8838C22.8476 16.9963 22.6393 16.1251 22.2867 15.3088C21.9631 14.6195 21.5396 13.9816 21.0299 13.4159L21.0069 13.3853C20.893 12.8551 20.69 12.3481 20.4066 11.8858C20.026 11.2928 19.5414 10.7736 18.976 10.3531C18.976 10.3531 19.6836 11.6099 19.6683 12.8488C19.646 13.4205 19.4325 13.9681 19.062 14.4039C18.6914 14.8398 18.1853 15.1386 17.6247 15.2526C17.1165 15.3215 16.6047 15.3616 16.092 15.3727L14.572 17.7918C14.4131 17.7657 14.2527 17.7495 14.0918 17.7433C13.8364 17.7433 13.5809 17.7612 13.5809 17.7612L14.6334 15.0355L15.8212 14.7034L16.3321 13.5028L16.9631 13.4875C16.9631 13.4875 17.4357 12.5934 17.4893 12.389C17.5429 12.1847 17.4127 12.0365 17.3156 11.8117C17.2185 11.5869 16.3398 9.29806 16.3398 9.29806L16.8788 8.60068C16.8788 8.60068 19.7884 8.74373 21.9878 10.8384C23.5871 12.3537 24.522 14.4401 24.5883 16.6423C24.7313 19.3552 23.9573 21.1944 22.7337 22.7067V22.7169Z" fill="#E6DAFE"/>
</svg>
