<svg width="32" height="32" viewBox="0 0 32 32" fill="none" xmlns="http://www.w3.org/2000/svg">
<path d="M27.9596 10.9476C27.3016 9.40349 26.3713 8.01834 25.1687 6.81485C23.9661 5.61135 22.6046 4.68035 21.0617 4.02183C19.4507 3.34061 17.7489 3 16.0017 3C14.2318 3 12.5301 3.34061 10.9417 4.02183C9.39874 4.68035 8.01462 5.61135 6.81201 6.81485C5.60942 8.01834 4.6791 9.40349 4.02108 10.9476C3.34036 12.5371 3 14.2402 3 16.0114C3 17.7598 3.34036 19.4629 4.02108 21.0751C4.6791 22.6192 5.60942 24.0043 6.81201 25.2079C8.01462 26.4114 9.39874 27.3423 10.9417 27.9782C12.5527 28.6594 14.2545 29 16.0017 29C17.7489 29 19.4507 28.6594 21.0617 27.9782C22.6046 27.3197 23.9887 26.3886 25.1914 25.1852C26.394 23.9817 27.3243 22.5965 27.9823 21.0524C28.6631 19.4402 29.0034 17.7371 29.0034 15.9886C29.0034 14.2402 28.6404 12.5371 27.9596 10.9476ZM11.6905 14.7851C12.2124 12.696 14.1184 11.1746 16.3647 11.1746H25.3956C25.9855 12.2874 26.3486 13.5135 26.4847 14.7851H11.6905ZM26.4847 17.2375C26.3486 18.5092 25.9629 19.7354 25.3956 20.848H16.3647C14.1184 20.848 12.235 19.3039 11.6905 17.2375H26.4847ZM8.5365 8.54061C10.5333 6.54236 13.1881 5.4524 16.0017 5.4524C18.8153 5.4524 21.4702 6.54236 23.4669 8.54061C23.535 8.60874 23.5804 8.65415 23.6484 8.72227H16.3647C14.4134 8.72227 12.5981 9.47162 11.214 10.8568C10.1248 11.9468 9.42143 13.3092 9.19452 14.7851H5.51865C5.79094 12.4236 6.83471 10.2437 8.5365 8.54061ZM16.0017 26.5703C13.1881 26.5703 10.5333 25.4803 8.5365 23.4821C6.83471 21.7791 5.79094 19.5764 5.51865 17.2375H9.19452C9.44412 18.7135 10.1475 20.076 11.214 21.166C12.5981 22.5511 14.4134 23.3005 16.3647 23.3005H23.6484C23.5804 23.3686 23.535 23.414 23.4669 23.4821C21.4702 25.4803 18.8153 26.5703 16.0017 26.5703Z" fill="#E6DAFE"/>
</svg>
