<svg width="32" height="32" viewBox="0 0 32 32" fill="none" xmlns="http://www.w3.org/2000/svg">
<path d="M24.1596 10.844H26.9223L27.8594 7.79405H20.1575L21.6311 3H18.8698L17.3962 7.79405H13.1085L8.86607 10.844H16.4592L15.4073 14.2642H11.4112L11.8299 12.9025L8.86607 10.844L7.81416 14.2642L7.53305 15.1801L9.98901 17.3156H14.4687L13.5317 20.3671H5.93856L5 23.417H12.5931L10.8777 29H13.639L15.3544 23.417H20.295L23.5142 21.9253H23.5157L23.9948 20.3671L24.9319 17.3156L25.3369 16.0008L23.1077 14.2642H18.1685L19.2204 10.844H24.1596ZM22.1691 17.3156L21.2321 20.3671H16.2929L17.23 17.3156H22.1691Z" fill="#E6DAFE"/>
</svg>
