<svg width="32" height="32" viewBox="0 0 32 32" fill="none" xmlns="http://www.w3.org/2000/svg">
<g clip-path="url(#clip0_14366_248)">
<path fill-rule="evenodd" clip-rule="evenodd" d="M10.9396 27.9782C12.5429 28.656 14.2453 29 16 29C17.7547 29 19.4571 28.657 21.0604 27.9782C22.6087 27.3233 23.9992 26.3859 25.1925 25.1925C26.3859 23.9983 27.3233 22.6087 27.9782 21.0604C28.656 19.4571 29 17.7547 29 16C29 14.2453 28.656 12.5429 27.9782 10.9396C27.3233 9.39131 26.3859 8.00078 25.1925 6.80745C23.9983 5.61413 22.6087 4.67671 21.0604 4.0218C19.4571 3.34396 17.7547 3 16 3C14.2453 3 12.5429 3.34396 10.9396 4.0218C9.39131 4.67671 8.00169 5.61413 6.80745 6.80745C5.61413 8.00169 4.67671 9.39131 4.0218 10.9396C3.34396 12.5429 3 14.2453 3 16C3 17.7547 3.34396 19.4571 4.0218 21.0604C4.67671 22.6087 5.61413 23.9992 6.80745 25.1925C8.00169 26.3859 9.39131 27.3233 10.9396 27.9782ZM28.3112 16.0001C28.3112 22.7994 22.7993 28.3113 16 28.3113C9.20073 28.3113 3.68884 22.7994 3.68884 16.0001C3.68884 9.20086 9.20073 3.68896 16 3.68896C22.7993 3.68896 28.3112 9.20086 28.3112 16.0001Z" fill="#E6DAFE"/>
<path d="M16.3027 11.1031C17.9473 11.2498 19.2416 12.6119 19.2819 14.285L21.8052 15.3334L20.4899 13.1889L23.2866 10.3922L21.6154 8.72101L19.2195 11.1177L16.3037 6.36279V11.1031H16.3027Z" fill="#E6DAFE"/>
<path d="M19.2388 14.9077C18.9967 16.3643 17.7932 17.4952 16.3027 17.6292V19.3609L21.8557 15.9956L19.2388 14.9077Z" fill="#E6DAFE"/>
<path d="M12.7759 14.9077L10.1591 15.9946L15.712 19.36V17.6282C14.2215 17.4952 13.0181 16.3643 12.7759 14.9077Z" fill="#E6DAFE"/>
<path d="M21.7933 17.7605L16.3027 21.0882V25.4956L18.5619 22.3118L20.9201 24.67L22.5913 22.9988L19.9497 20.3572L21.7933 17.7605Z" fill="#E6DAFE"/>
<path d="M15.712 21.0882L10.2215 17.7605L12.0651 20.3572L9.42346 22.9988L11.0947 24.67L13.4529 22.3127L15.712 25.4946V21.0882Z" fill="#E6DAFE"/>
<path d="M10.2095 15.3343L12.7328 14.2859C12.7732 12.6128 14.0674 11.2507 15.712 11.104V6.36279L12.7961 11.1177L10.3994 8.72101L8.72815 10.3931L11.5248 13.1898L10.2095 15.3343Z" fill="#E6DAFE"/>
<path d="M16.123 13.9896C15.3131 13.741 15.3131 13.6034 15.3131 13.4924C15.3131 13.3384 15.546 13.1256 15.9836 13.1256C16.2422 13.1256 16.677 13.1898 16.677 13.6227H17.4649C17.4649 12.8541 16.8696 12.3376 15.9836 12.3376C15.036 12.3376 14.5251 12.9329 14.5251 13.4924C14.5251 14.2574 15.1966 14.5289 15.8863 14.7417C16.6962 14.9903 16.7008 15.1297 16.7008 15.2407C16.7008 15.3948 16.4679 15.6076 16.0303 15.6076C15.7708 15.6076 15.3369 15.5434 15.3369 15.1105H14.549C14.549 15.8791 15.1443 16.3955 16.0303 16.3955C16.9778 16.3955 17.4887 15.8002 17.4887 15.2407C17.4897 14.4748 16.8137 14.2015 16.123 13.9896Z" fill="#E6DAFE"/>
</g>
<defs>
<clipPath id="clip0_14366_248">
<rect width="26" height="26" fill="white" transform="translate(3 3)"/>
</clipPath>
</defs>
</svg>
