<svg width="32" height="32" viewBox="0 0 32 32" fill="none" xmlns="http://www.w3.org/2000/svg">
<g clip-path="url(#clip0_6_4859)">
<path d="M21.4301 5.07669C22.2488 5.00078 22.6988 4.89777 24.32 5.42911V3.21155C23.2085 2.93503 21.8747 2.97298 20.7632 3.076C19.5487 3.14648 16.7944 4.42606 16.7944 7.4027V8.75276H15.1841V10.7697H16.7944V18.3821C16.7944 18.3821 15.7534 17.3899 13.6117 17.3899C10.6351 17.3899 8 19.6834 8 22.969C8 26.2547 10.4453 28.6133 13.6822 28.6133C16.9191 28.6133 19.1746 25.8481 19.2397 22.969C19.3101 20.0954 19.2397 16.826 19.2397 16.826V10.7697H23.4579V8.75276H19.0878V7.52198C19.0878 6.17192 20.4921 5.16344 21.4301 5.07669ZM13.7039 26.168C11.8875 26.168 10.4182 24.6986 10.4182 22.8823C10.4182 21.066 11.8875 19.5966 13.7039 19.5966C15.5202 19.5966 16.9896 21.066 16.9896 22.8823C16.9896 24.6986 15.5202 26.168 13.7039 26.168Z" fill="#E6DAFE"/>
</g>
<defs>
<clipPath id="clip0_6_4859">
<rect width="16.32" height="25.6132" fill="white" transform="translate(8 3)"/>
</clipPath>
</defs>
</svg>
