<svg width="32" height="32" viewBox="0 0 32 32" fill="none" xmlns="http://www.w3.org/2000/svg">
<path fill-rule="evenodd" clip-rule="evenodd" d="M22.0242 14.0095L22.0238 14.0105C23.0029 15.2382 23.5881 16.7932 23.5881 18.4845C23.5881 20.2009 22.9854 21.777 21.9798 23.013L21.8933 23.1195L21.8703 22.9842C21.8508 22.8692 21.8279 22.753 21.8012 22.636C21.2979 20.4249 19.6584 18.529 16.9598 16.9938C15.1375 15.96 14.0944 14.7151 13.8206 13.3007C13.6437 12.3861 13.7752 11.4675 14.0293 10.6806C14.2834 9.89402 14.6613 9.23497 14.9823 8.83819L16.0323 7.55433C16.2164 7.32923 16.5609 7.32923 16.745 7.55433L22.0242 14.0095ZM23.6846 12.727L16.6487 4.1232C16.5143 3.95893 16.2628 3.95893 16.1285 4.1232L9.09233 12.7266L9.06962 12.7555C7.77484 14.3622 7 16.4041 7 18.6268C7 23.8034 11.2033 28 16.3886 28C21.5739 28 25.7772 23.8034 25.7772 18.6268C25.7772 16.4041 25.0023 14.3622 23.7076 12.7555L23.6846 12.727ZM10.7759 13.9818L11.4055 13.2119L11.4245 13.3539C11.4396 13.4665 11.4578 13.5796 11.4795 13.6932C11.8867 15.8297 13.3414 17.6112 15.7734 18.9909C17.8875 20.1941 19.1183 21.5777 19.473 23.0951C19.6209 23.7284 19.6473 24.3514 19.5832 24.8961L19.5793 24.9299L19.5488 24.9448C18.5946 25.4109 17.522 25.6725 16.3883 25.6725C12.4122 25.6725 9.18872 22.4544 9.18872 18.4845C9.18872 16.78 9.78295 15.2139 10.7759 13.9818Z" fill="#E6DAFE"/>
</svg>
