<svg width="32" height="32" viewBox="0 0 32 32" fill="none" xmlns="http://www.w3.org/2000/svg">
<g clip-path="url(#clip0_6_4218)">
<path d="M18.1154 15.9237C17.6608 15.1266 17.2959 14.2602 17.0312 13.3232C17.2959 14.2602 17.6608 15.1266 18.1144 15.9237H18.1154Z" fill="#E6DAFE"/>
<path d="M12.8214 7.11597L12.7744 8.29404C13.0423 8.18413 13.3165 8.08809 13.5982 8.00592L12.8224 7.11597H12.8214Z" fill="#E6DAFE"/>
<path d="M10.6994 8.38566C10.5137 8.216 10.2256 8.22987 10.0559 8.41554L9.30469 9.23934L9.97696 9.85292L10.7282 9.02805C10.8979 8.84238 10.884 8.55427 10.6983 8.38566H10.6994Z" fill="#E6DAFE"/>
<path d="M18.8039 23.943C18.7708 23.831 18.6769 23.8288 18.5958 23.8544L18.1572 23.9857L18.2447 24.2759L18.6833 24.1447C18.79 24.1127 18.8338 24.039 18.805 23.9441L18.8039 23.943Z" fill="#E6DAFE"/>
<path d="M15.9905 17.9949C14.5585 17.9949 13.3975 19.0972 13.3975 20.4577C13.3975 20.9368 13.5415 21.384 13.7912 21.7617C14.4742 22.0242 15.2147 22.1704 15.9905 22.1704C16.7663 22.1704 17.5068 22.0253 18.1898 21.7617C18.4395 21.3829 18.5835 20.9368 18.5835 20.4577C18.5835 19.0982 17.4225 17.9949 15.9905 17.9949ZM15.966 18.792C15.9745 18.7845 15.983 18.7813 15.9905 18.7813C16.0897 18.7813 16.4173 19.5624 16.4173 19.8132C16.4173 19.9999 16.0417 20.4908 16.0396 20.7586C16.0396 20.7586 16.0396 20.7586 16.0396 20.7597C16.0396 20.7875 16.0172 20.8099 15.9894 20.8099C15.9617 20.8099 15.9393 20.7875 15.9393 20.7597C15.9393 20.4919 15.5615 19.9999 15.5615 19.8132C15.5615 19.5806 15.8443 18.8891 15.9638 18.792H15.966ZM15.681 20.7843C15.681 20.7843 15.681 20.7832 15.681 20.7821C15.681 20.7821 15.681 20.7821 15.681 20.7811C15.5466 20.4876 15.2937 20.351 15.1518 20.351C15.0717 20.351 15.0066 20.4161 15.0066 20.4961C15.0066 20.5762 15.0717 20.6413 15.1518 20.6413C15.1592 20.6413 15.171 20.6413 15.1774 20.6391C15.1838 20.6391 15.1987 20.6349 15.2062 20.6519C15.2126 20.6658 15.2243 20.7352 15.1624 20.8067C15.1262 20.8483 15.0504 20.8824 14.9789 20.8824C14.7388 20.8824 14.5446 20.6882 14.5446 20.4481C14.5446 20.208 14.7388 20.0138 14.9789 20.0138C15.2958 20.0138 15.601 20.2699 15.7781 20.7362C15.7813 20.7437 15.7835 20.7512 15.7835 20.7586C15.7835 20.7885 15.76 20.8131 15.7301 20.8131C15.7099 20.8131 15.6906 20.8013 15.6821 20.7843H15.681ZM16.2167 21.2122C16.173 21.2986 16.1004 21.4053 16.0097 21.4779C15.9969 21.4875 15.9926 21.4885 15.9894 21.4885C15.9873 21.4885 15.982 21.4885 15.9692 21.4779C15.8795 21.4053 15.8059 21.2986 15.7621 21.2122C15.7568 21.2026 15.7579 21.1962 15.7707 21.1887C15.8422 21.1449 15.8966 21.0745 15.9158 20.9913C15.9243 20.9593 15.9542 20.9358 15.9884 20.9358C16.0225 20.9358 16.0524 20.9593 16.0609 20.9913C16.0801 21.0745 16.1346 21.1449 16.2061 21.1887C16.2189 21.1962 16.2199 21.2026 16.2146 21.2122H16.2167ZM16.9882 20.8824C16.9167 20.8824 16.842 20.8483 16.8047 20.8067C16.7417 20.7352 16.7545 20.6658 16.7599 20.6509C16.7673 20.6338 16.7833 20.637 16.7898 20.6381C16.7962 20.6391 16.8079 20.6402 16.8154 20.6402C16.8954 20.6402 16.9605 20.5751 16.9605 20.4951C16.9605 20.415 16.8954 20.3499 16.8154 20.3499C16.6724 20.3499 16.4205 20.4876 16.285 20.78V20.7811C16.285 20.7821 16.285 20.7821 16.285 20.7843C16.2754 20.8013 16.2573 20.8131 16.2359 20.8131C16.2061 20.8131 16.1826 20.7885 16.1826 20.7586C16.1826 20.7512 16.1847 20.7426 16.1879 20.7362C16.365 20.2699 16.6702 20.0138 16.9872 20.0138C17.2273 20.0138 17.4215 20.208 17.4215 20.4481C17.4215 20.6882 17.2273 20.8824 16.9872 20.8824H16.9882Z" fill="#E6DAFE"/>
<path d="M12.7638 21.2518C12.7457 21.1472 12.735 21.0394 12.7275 20.9316C12.7339 21.0394 12.7446 21.1461 12.7628 21.2507L12.7638 21.2518Z" fill="#E6DAFE"/>
<path d="M10.5404 22.7222L10.6492 22.3445L10.2949 22.5131L10.5404 22.7222Z" fill="#E6DAFE"/>
<path d="M16.8564 9.97241C17.1254 13.9111 18.7665 16.7666 21.4674 18.793C21.8846 17.9649 22.1204 17.0302 22.1204 16.0399C22.1204 12.9485 19.8315 10.3928 16.8564 9.97241Z" fill="#E6DAFE"/>
<path d="M15.983 5.30298C10.0735 5.30298 5.28223 10.0932 5.28223 16.0038C5.28223 21.9144 10.0735 26.7046 15.983 26.7046C21.8926 26.7046 26.6839 21.9134 26.6839 16.0038C26.6839 10.0942 21.8926 5.30298 15.983 5.30298ZM19.5279 6.67953C19.7061 6.74676 19.8822 6.81932 20.0561 6.89722L18.9976 9.44437C18.8247 9.36434 18.6497 9.29071 18.4704 9.22455L19.529 6.67953H19.5279ZM15.3887 6.05208H16.9701C17.4898 6.05208 17.9817 6.47571 17.9817 6.99539C17.9817 7.42756 17.6402 7.79251 17.2262 7.90242L17.9476 9.05381C17.7181 8.98765 17.4834 8.93323 17.2443 8.88948L16.6425 7.93763H15.9446V8.7721C15.7568 8.7721 15.5711 8.78064 15.3876 8.79558V6.05315L15.3887 6.05208ZM12.3592 6.71581C12.5502 6.64111 12.7433 6.57282 12.9386 6.50986L15.0504 8.82866C14.8338 8.85533 14.6193 8.89268 14.408 8.9375L13.9278 8.38688C13.5223 8.49359 13.1296 8.63124 12.7529 8.79664L12.7231 9.5244C12.5278 9.62151 12.3368 9.72608 12.1522 9.84026L12.3581 6.71581H12.3592ZM9.71813 8.06035C10.0681 7.67619 10.6935 7.62818 11.0776 7.97818C11.4618 8.32819 11.4618 8.94604 11.1118 9.32912L10.3381 10.1807L10.9624 10.7494C10.8279 10.8775 10.6956 11.0077 10.5707 11.1453L8.56994 9.32272L9.7192 8.05928L9.71813 8.06035ZM9.52926 22.3156C9.49191 22.3156 9.4535 22.3092 9.41401 22.2964C9.2913 22.257 9.16111 22.1513 9.04693 21.9987C8.93809 21.8536 8.87406 21.6999 8.84952 21.605V21.6028L8.85165 21.6007L8.95943 21.4993L8.96156 21.5057C9.08535 21.8856 9.33718 22.1502 9.48551 22.1502C9.51005 22.1502 9.53246 22.1449 9.55167 22.1321C9.58688 22.1097 9.60822 22.0788 9.61463 22.0414C9.6317 21.9475 9.5506 21.8291 9.46523 21.7159L9.35532 21.5697C9.27956 21.4684 9.24221 21.3531 9.25608 21.2603C9.26462 21.2016 9.29343 21.1536 9.34145 21.1184C9.38307 21.0874 9.43002 21.0725 9.48444 21.0725C9.72454 21.0725 10.0425 21.3798 10.1268 21.6935V21.6967L10.1247 21.6989C10.098 21.7138 10.0564 21.7384 10.0191 21.7597L10.0137 21.7629V21.7576C9.94756 21.5303 9.69679 21.2379 9.52072 21.2379C9.51539 21.2379 9.50898 21.2379 9.50365 21.2379C9.46843 21.2422 9.43856 21.2656 9.42362 21.2987C9.40761 21.3371 9.40441 21.4044 9.48124 21.5068L9.57834 21.6359C9.72347 21.8291 9.7875 21.9902 9.76935 22.1108C9.75975 22.1759 9.72454 22.2313 9.66478 22.2751C9.6285 22.3007 9.58155 22.3146 9.52819 22.3146L9.52926 22.3156ZM10.384 23.2462L10.496 22.8791L10.146 22.5824L9.79817 22.7478L9.67972 22.64L10.7063 22.1556L10.8322 22.2623L10.5153 23.3465L10.384 23.2472V23.2462ZM10.8311 23.5716L11.4073 22.6987L11.5311 22.7798L10.9549 23.6527L10.8311 23.5716ZM12.1789 24.3314L12.0497 24.2727L11.8705 23.2856H11.8683L11.4991 23.9856L11.3721 23.912L11.8523 22.9975L11.9836 23.0658L12.1618 24.0411H12.1639L12.5267 23.3518L12.658 23.4201L12.1799 24.3303L12.1789 24.3314ZM13.7101 23.9664L13.3697 23.848L13.0773 24.6867L12.9376 24.6376L13.2299 23.7989L12.8895 23.6805L12.9386 23.5407L13.7592 23.8267L13.7101 23.9664ZM14.6449 24.6376L14.2789 24.5576L14.312 24.4093L14.678 24.4915L14.6449 24.6376ZM16.4846 24.8745C16.4814 25.0591 16.2765 25.1797 16.0193 25.1755C15.7461 25.1712 15.4623 24.9791 15.4687 24.6291C15.473 24.3357 15.7109 24.0988 16.0407 24.1041C16.2861 24.1073 16.4131 24.2386 16.4718 24.2972L16.3672 24.4007C16.317 24.3506 16.2391 24.2556 16.0535 24.2524C15.7803 24.2482 15.6202 24.4232 15.617 24.6387C15.6138 24.8404 15.7696 25.0239 16.03 25.0282C16.2082 25.0314 16.3373 24.9503 16.3384 24.8628L16.3405 24.7476L16.0172 24.7422L16.0193 24.5939L16.4899 24.6014L16.4856 24.8745H16.4846ZM16.9317 25.1093L16.7855 24.0913L17.6189 23.9718L17.6402 24.118L16.953 24.2161L16.9914 24.4829L17.3372 24.4328L17.3585 24.579L17.0128 24.6291L17.0576 24.9396L17.7694 24.8372L17.7896 24.9834L16.9317 25.1072V25.1093ZM18.972 24.659L18.6529 24.309L18.2869 24.4189L18.4107 24.8319L18.2698 24.8724L17.9732 23.8885L18.5526 23.7135C18.7095 23.6655 18.8845 23.7007 18.9453 23.9013C19.0093 24.1148 18.8866 24.2247 18.8066 24.2567L19.1278 24.6024L18.972 24.6579V24.659ZM20.4435 24.0006L20.0935 23.3614H20.0913L20.0689 24.0838L19.4714 23.6794H19.4692L19.7808 24.3378L19.6464 24.3975L19.1971 23.4734L19.3284 23.4062L19.9313 23.816L19.9537 23.0872L20.0849 23.0199L20.5715 23.9291L20.4435 24.0017V24.0006ZM15.9905 22.6134C12.3677 22.6134 9.42041 19.6661 9.42041 16.0433C9.42041 12.4205 12.3677 9.47211 15.9905 9.47211C19.6133 9.47211 22.5617 12.4205 22.5617 16.0433C22.5617 19.6661 19.6133 22.6134 15.9905 22.6134ZM21.6098 23.2248L21.2918 23.0306L20.9173 23.2963L20.9898 23.6687L20.8586 23.753L20.642 22.6475L20.7754 22.5525L21.7389 23.1224L21.6098 23.2248ZM22.0089 22.894L21.3089 22.1417L21.4177 22.0414L22.1199 22.7969L22.0089 22.8951V22.894ZM23.0098 21.8696L22.01 21.8013L22.0078 21.8034L22.5958 22.3327L22.4923 22.4384L21.7261 21.748L21.8254 21.638L22.8146 21.7063V21.7042L22.2351 21.1824L22.3344 21.0725L23.0984 21.7597L23.0098 21.8696ZM22.7249 9.60763C22.5798 9.09756 21.8222 8.34419 21.4092 8.4413C21.2929 8.46904 21.1712 8.64832 21.47 8.96311L21.7389 9.24589C22.3877 9.9299 22.5382 10.488 22.1252 10.8711C21.9598 11.0247 21.708 11.0631 21.4562 11.013C21.135 10.95 20.7775 10.7249 20.4488 10.3781C20.1586 10.0729 19.943 9.71221 19.847 9.46251L20.2471 9.16052C20.6953 10.107 21.4391 10.6587 21.7059 10.4389C21.9556 10.233 21.6845 9.90749 21.3729 9.57989L21.0677 9.25869C20.754 8.92789 20.5502 8.40502 20.9098 8.06462C21.5159 7.49265 22.7922 8.40609 23.1134 9.31845C23.1134 9.31845 22.8455 9.5148 22.7249 9.60763Z" fill="#E6DAFE"/>
<path d="M16.5488 9.93726C16.5542 10.2136 16.567 10.4857 16.5862 10.7525C16.567 10.4857 16.5531 10.2136 16.5488 9.93726Z" fill="#E6DAFE"/>
<path d="M15.9995 4C9.38242 4 4 9.38349 4 15.9995C4 22.6154 9.38242 28 15.9995 28C22.6165 28 27.9989 22.6165 27.9989 15.9995C27.9989 9.38242 22.6165 4 15.9995 4ZM23.8618 23.8821C21.7575 25.9864 18.9596 27.1453 15.9835 27.1453C13.0073 27.1453 10.2094 25.9864 8.10511 23.8821C6.0008 21.7767 4.84194 18.9799 4.84194 16.0037C4.84194 13.0276 6.0008 10.2297 8.10511 8.12538C10.2094 6.02108 13.0073 4.86221 15.9835 4.86221C18.9596 4.86221 21.7575 6.02108 23.8618 8.12538C25.9661 10.2297 27.125 13.0276 27.125 16.0037C27.125 18.9799 25.9661 21.7778 23.8618 23.8821Z" fill="#E6DAFE"/>
<path d="M21.1528 22.9462L20.8135 22.7488L20.8892 23.134L21.1528 22.9462Z" fill="#E6DAFE"/>
<path d="M17.4263 6.99438C17.4263 6.74361 17.2224 6.53979 16.9717 6.53979H15.9473V7.45003H16.9717C17.2224 7.45003 17.4263 7.24621 17.4263 6.99544V6.99438Z" fill="#E6DAFE"/>
<path d="M15.1265 9.97241C12.1503 10.3928 9.86035 12.9485 9.86035 16.0399C9.86035 17.0302 10.0972 17.9649 10.5134 18.793C13.2153 16.7666 14.8565 13.9111 15.1254 9.97241H15.1265Z" fill="#E6DAFE"/>
<path d="M15.4297 9.93731C15.4606 9.93411 15.4916 9.93304 15.5215 9.93091C15.4905 9.93304 15.4596 9.93411 15.4297 9.93731Z" fill="#E6DAFE"/>
<path d="M13.8623 15.9237H18.1157C17.6612 15.1266 17.2962 14.2601 17.0326 13.3232C16.8064 12.5197 16.6538 11.6639 16.5866 10.7526C16.5674 10.4858 16.5535 10.2137 16.5492 9.93732C16.3646 9.92025 16.18 9.91064 15.9912 9.91064C15.8332 9.91064 15.6774 9.91918 15.5227 9.93092C15.4918 9.93305 15.4608 9.93519 15.4309 9.93732C15.4064 11.3064 15.1972 12.557 14.8344 13.6988C14.5826 14.4927 14.2561 15.2344 13.8634 15.9237H13.8623Z" fill="#E6DAFE"/>
<path d="M18.2559 16.1628H13.7218C13.3825 16.7252 12.9962 17.2523 12.5726 17.7464C12.0582 18.3472 11.4873 18.8989 10.8652 19.4015C11.355 20.1474 12.0028 20.7802 12.7625 21.2518C12.7444 21.1472 12.7337 21.0405 12.7273 20.9327C12.7241 20.8741 12.7198 20.8154 12.7198 20.7556C12.7198 19.0664 14.1839 17.6973 15.9905 17.6973C17.7971 17.6973 19.2611 19.0664 19.2611 20.7556C19.2611 20.9253 19.2462 21.0907 19.2174 21.2529C19.2505 21.2326 19.2814 21.2102 19.3145 21.1889C19.8854 20.8196 20.3901 20.3576 20.8084 19.8251C20.9151 19.6896 21.0186 19.5498 21.1136 19.4047C19.9782 18.4891 19.0072 17.4124 18.2549 16.165L18.2559 16.1628Z" fill="#E6DAFE"/>
</g>
<defs>
<clipPath id="clip0_6_4218">
<rect width="23.9989" height="24" fill="white" transform="translate(4 4)"/>
</clipPath>
</defs>
</svg>
