<svg width="32" height="32" viewBox="0 0 32 32" fill="none" xmlns="http://www.w3.org/2000/svg">
<path d="M15.9667 19.731L19.6512 25.3447L23.0547 23.4299L18.2159 16.0261L15.9667 19.731Z" fill="#E6DAFE"/>
<path d="M26.1538 21.1783L26.1514 19.6441L20.8641 11.6498L18.9025 14.8809L24.0066 22.8945L25.8522 21.8563C26.0331 21.7137 26.1426 21.5043 26.1542 21.2783L26.1538 21.1783Z" fill="#E6DAFE"/>
<path d="M3.99813 22.6247L6.60423 24.0825L15.2767 10.5809L13.8048 10.5432C12.5507 10.526 11.1998 10.8425 10.5797 11.8251L5.65488 19.2351L3.99805 21.7065L3.99813 22.6247Z" fill="#E6DAFE"/>
<path d="M20.2817 10.5816L16.4026 10.5953L7.62624 24.6545L10.6938 26.3692L11.528 24.9956L20.2817 10.5816Z" fill="#E6DAFE"/>
<path d="M27.7888 10.562C27.7564 9.77442 27.3173 9.05342 26.6292 8.63371L16.9854 3.24998C16.3048 2.91724 15.4545 2.91684 14.7728 3.24974C14.6922 3.28917 5.39435 8.52395 5.39435 8.52395C5.2657 8.58382 5.14178 8.65518 5.02515 8.73613C4.41093 9.16351 4.03651 9.82753 3.99805 10.5571V21.7065L5.65488 19.2351L5.64037 10.6325C5.64236 10.6011 5.64642 10.5702 5.65214 10.5396C5.68953 10.3371 5.80599 10.1566 5.9813 10.0346C6.02507 10.0041 15.4816 4.69036 15.5117 4.67571C15.7341 4.56732 16.0165 4.56619 16.239 4.67241L25.758 9.98782C25.9832 10.127 26.1244 10.3631 26.137 10.6212V21.2783C26.1253 21.5043 26.0333 21.7136 25.8522 21.8563L24.0066 22.8945L23.0547 23.4299L19.6512 25.3447L16.1996 27.2868C16.0136 27.3521 15.7963 27.3485 15.612 27.2756L11.528 24.9956L10.6938 26.3692L14.3639 28.4201C14.4853 28.487 14.5935 28.5465 14.6822 28.5948C14.8196 28.6697 14.9132 28.7197 14.9463 28.7352C15.2071 28.8581 15.5824 28.9297 15.9206 28.9297C16.2307 28.9297 16.533 28.8745 16.8191 28.7657L26.8444 23.1296C27.4198 22.6967 27.7583 22.0441 27.7888 21.337V10.562Z" fill="#E6DAFE"/>
</svg>
