<svg width="32" height="32" viewBox="0 0 32 32" fill="none" xmlns="http://www.w3.org/2000/svg">
<g clip-path="url(#clip0_6_4093)">
<path d="M15.9997 29.2951C15.7339 29.295 15.4755 29.2071 15.2647 29.0451C15.2647 29.0451 14.3422 28.3501 11.7922 26.9526C7.88971 24.8151 6.09471 22.2501 5.59721 18.1001C5.21221 14.8876 4.96221 8.17761 4.95221 7.89261C4.9451 7.72116 4.97469 7.55017 5.03901 7.39108C5.10332 7.23199 5.20088 7.08847 5.32514 6.97013C5.4494 6.85179 5.5975 6.76135 5.75954 6.70486C5.92157 6.64838 6.0938 6.62716 6.26471 6.64261C6.28971 6.64261 8.89971 6.86261 11.1447 6.23261C12.6233 5.80619 14.0072 5.10197 15.2222 4.15761C15.4401 3.9749 15.7154 3.87476 15.9997 3.87476C16.2841 3.87476 16.5593 3.9749 16.7772 4.15761C17.991 5.10793 19.3749 5.81811 20.8547 6.25011C23.1047 6.88011 25.7097 6.66011 25.7372 6.66011C25.908 6.64462 26.0801 6.66584 26.242 6.72234C26.404 6.77884 26.5519 6.86932 26.676 6.98771C26.8001 7.1061 26.8974 7.24965 26.9614 7.40875C27.0254 7.56784 27.0547 7.73878 27.0472 7.91011C27.0472 8.19511 26.7972 14.9101 26.4022 18.1176C25.9022 22.2676 24.1097 24.8326 20.2097 26.9676C17.6597 28.3651 16.7422 29.0576 16.7322 29.0651C16.5196 29.2196 16.2624 29.3004 15.9997 29.2951V29.2951ZM7.41221 9.09761C7.49971 11.2501 7.71721 15.5301 7.99971 17.8151C8.34971 20.7351 9.27221 22.8151 12.9572 24.8376C14.4572 25.6551 15.4222 26.2501 16.0097 26.6326C16.5972 26.2501 17.5697 25.6551 19.0622 24.8376C22.7497 22.8201 23.6597 20.7351 23.9997 17.8151C24.2822 15.5301 24.4997 11.2501 24.5872 9.09761C23.1083 9.11155 21.634 8.93083 20.2022 8.56011C18.705 8.12885 17.2863 7.46128 15.9997 6.58261C14.7131 7.46128 13.2944 8.12885 11.7972 8.56011C10.3654 8.93083 8.89112 9.11155 7.41221 9.09761V9.09761Z" fill="#E6DAFE"/>
</g>
<defs>
<clipPath id="clip0_6_4093">
<rect width="32" height="32" fill="white"/>
</clipPath>
</defs>
</svg>
