<svg width="32" height="32" viewBox="0 0 32 32" fill="none" xmlns="http://www.w3.org/2000/svg">
<path d="M20.1957 16.0047C20.1957 18.3192 18.3192 20.1956 16.0047 20.1956C13.6902 20.1956 11.8137 18.3192 11.8137 16.0047C11.8137 13.6901 13.6902 11.8137 16.0047 11.8137C18.3192 11.8137 20.1957 13.6901 20.1957 16.0047Z" fill="#E6DAFE"/>
<path fill-rule="evenodd" clip-rule="evenodd" d="M15.9965 4.89303C17.2106 4.89303 18.324 4.46101 19.191 3.74225C20.1063 2.98362 21.5777 2.65719 22.4267 3.4894C24.469 5.49097 26.4877 7.5197 28.4906 9.56085C29.3256 10.4119 29.0014 11.8915 28.2427 12.8113C27.5288 13.6771 27.0998 14.7866 27.0998 15.9963C27.0998 17.2121 27.533 18.3268 28.2535 19.1944C29.0154 20.1117 29.3444 21.5902 28.5101 22.442C26.5092 24.4848 24.4849 26.5089 22.4421 28.5098C21.5904 29.3441 20.1118 29.015 19.1946 28.2532C18.3269 27.5329 17.2122 27.0996 15.9965 27.0996C14.7867 27.0996 13.6773 27.5285 12.8115 28.2423C11.8917 29.001 10.4119 29.3252 9.56095 28.4902C7.5198 26.4873 5.49107 24.4687 3.48939 22.4266C2.65725 21.5776 2.98352 20.1062 3.74232 19.1909C4.46101 18.3238 4.89304 17.2105 4.89304 15.9963C4.89304 14.7882 4.46527 13.68 3.75312 12.8148C2.99744 11.897 2.67591 10.4244 3.50871 9.57624C5.51235 7.53597 7.53597 5.51226 9.57634 3.5088C10.4245 2.67585 11.897 2.99746 12.815 3.75305C13.6802 4.46534 14.7883 4.89303 15.9965 4.89303ZM18.3691 7.38748C17.065 6.08335 14.9508 6.08335 13.6467 7.38748L7.3752 13.6588C6.07111 14.9629 6.07111 17.0772 7.3752 18.3813L13.6467 24.6527C14.9508 25.9567 17.065 25.9567 18.3691 24.6527L24.6406 18.3813C25.9447 17.0772 25.9447 14.9629 24.6406 13.6588L18.3691 7.38748Z" fill="#E6DAFE"/>
</svg>
