<?xml version="1.0" encoding="UTF-8"?>
<!DOCTYPE svg PUBLIC "-//W3C//DTD SVG 1.1//EN" "http://www.w3.org/Graphics/SVG/1.1/DTD/svg11.dtd">
<svg xmlns="http://www.w3.org/2000/svg" version="1.1" width="64px" height="64px" style="shape-rendering:geometricPrecision; text-rendering:geometricPrecision; image-rendering:optimizeQuality; fill-rule:evenodd; clip-rule:evenodd" xmlns:xlink="http://www.w3.org/1999/xlink">
<g><path style="opacity:1" fill="#072924" d="M 24.5,-0.5 C 29.1667,-0.5 33.8333,-0.5 38.5,-0.5C 51.1667,3.5 59.5,11.8333 63.5,24.5C 63.5,29.1667 63.5,33.8333 63.5,38.5C 59.5,51.1667 51.1667,59.5 38.5,63.5C 33.8333,63.5 29.1667,63.5 24.5,63.5C 11.8333,59.5 3.5,51.1667 -0.5,38.5C -0.5,33.8333 -0.5,29.1667 -0.5,24.5C 3.5,11.8333 11.8333,3.5 24.5,-0.5 Z"/></g>
<g><path style="opacity:1" fill="#95fae2" d="M 41.5,14.5 C 47.6154,15.1102 51.4488,18.4435 53,24.5C 54.9476,33.0153 53.1142,40.5153 47.5,47C 45.1026,48.7241 42.7693,48.7241 40.5,47C 37.5,43.3333 34.5,39.6667 31.5,36C 28.7072,33.8912 26.0405,34.0579 23.5,36.5C 15.118,47.5115 10.118,45.8449 8.5,31.5C 10.6342,18.4388 15.6342,17.2721 23.5,28C 27.5548,29.8772 31.0548,29.0439 34,25.5C 35.5358,21.0693 38.0358,17.4026 41.5,14.5 Z"/></g>
</svg>
