<?xml version="1.0" encoding="UTF-8"?>
<!DOCTYPE svg PUBLIC "-//W3C//DTD SVG 1.1//EN" "http://www.w3.org/Graphics/SVG/1.1/DTD/svg11.dtd">
<svg xmlns="http://www.w3.org/2000/svg" version="1.1" width="64px" height="64px" style="shape-rendering:geometricPrecision; text-rendering:geometricPrecision; image-rendering:optimizeQuality; fill-rule:evenodd; clip-rule:evenodd" xmlns:xlink="http://www.w3.org/1999/xlink">
<g><path style="opacity:0.999" fill="#5a98cd" d="M 27.5,-0.5 C 30.1667,-0.5 32.8333,-0.5 35.5,-0.5C 47.3525,1.67814 55.6858,8.34481 60.5,19.5C 58.8333,18.8333 57.1667,18.1667 55.5,17.5C 50.3642,8.25481 42.3642,3.58815 31.5,3.5C 28.1327,3.64485 24.7994,3.97819 21.5,4.5C 19.6214,4.60682 19.2881,4.10682 20.5,3C 22.1667,2.66667 23.8333,2.33333 25.5,2C 24.552,1.51722 23.552,1.35055 22.5,1.5C 24.1667,0.833333 25.8333,0.166667 27.5,-0.5 Z"/></g>
<g><path style="opacity:1" fill="#4c8dc7" d="M 55.5,17.5 C 49.279,15.4833 43.6123,13.4833 38.5,11.5C 33.1402,9.81277 27.6402,9.47943 22,10.5C 19.7124,8.34376 17.2124,8.01043 14.5,9.5C 16.5764,7.41591 18.9097,5.74924 21.5,4.5C 24.7994,3.97819 28.1327,3.64485 31.5,3.5C 42.3642,3.58815 50.3642,8.25481 55.5,17.5 Z"/></g>
<g><path style="opacity:1" fill="#74a9d4" d="M 22.5,1.5 C 23.552,1.35055 24.552,1.51722 25.5,2C 23.8333,2.33333 22.1667,2.66667 20.5,3C 19.2881,4.10682 19.6214,4.60682 21.5,4.5C 18.9097,5.74924 16.5764,7.41591 14.5,9.5C 9.1275,12.0124 9.46084,14.179 15.5,16C 16.8333,16.6667 18.1667,16.6667 19.5,16C 20.8845,14.3506 22.5512,13.1839 24.5,12.5C 23.0605,14.588 22.3939,16.9214 22.5,19.5C 21.6981,20.9516 21.1981,22.6183 21,24.5C 20.2917,23.6195 19.4584,22.9528 18.5,22.5C 17.713,20.8958 16.3797,20.2291 14.5,20.5C 13.1767,17.2891 11.0101,16.2891 8,17.5C 7.30206,16.3094 6.46872,15.3094 5.5,14.5C 9.13115,7.539 14.7978,3.20567 22.5,1.5 Z"/></g>
<g><path style="opacity:1" fill="#619dcf" d="M 38.5,11.5 C 38.5,11.8333 38.5,12.1667 38.5,12.5C 35.9512,12.3874 33.6179,13.0541 31.5,14.5C 29.3821,13.0541 27.0488,12.3874 24.5,12.5C 22.5512,13.1839 20.8845,14.3506 19.5,16C 18.1667,16.6667 16.8333,16.6667 15.5,16C 9.46084,14.179 9.1275,12.0124 14.5,9.5C 17.2124,8.01043 19.7124,8.34376 22,10.5C 27.6402,9.47943 33.1402,9.81277 38.5,11.5 Z"/></g>
<g><path style="opacity:1" fill="#5c2e13" d="M 24.5,12.5 C 27.0488,12.3874 29.3821,13.0541 31.5,14.5C 33.6179,13.0541 35.9512,12.3874 38.5,12.5C 39.9395,14.588 40.6061,16.9214 40.5,19.5C 40.5,20.8333 40.5,22.1667 40.5,23.5C 34.5,22.1667 28.5,22.1667 22.5,23.5C 22.5,22.1667 22.5,20.8333 22.5,19.5C 22.3939,16.9214 23.0605,14.588 24.5,12.5 Z"/></g>
<g><path style="opacity:1" fill="#629bd0" d="M 38.5,11.5 C 43.6123,13.4833 49.279,15.4833 55.5,17.5C 57.1667,18.1667 58.8333,18.8333 60.5,19.5C 61.7487,22.0873 62.7487,24.754 63.5,27.5C 63.5,30.1667 63.5,32.8333 63.5,35.5C 63.1667,35.5 62.8333,35.5 62.5,35.5C 61.2954,37.1376 59.9621,37.4709 58.5,36.5C 57.2913,31.8816 56.1247,27.215 55,22.5C 54.1841,21.1772 53.0174,20.5106 51.5,20.5C 48.0581,19.8283 45.3914,20.8283 43.5,23.5C 42.8333,23.5 42.5,23.8333 42.5,24.5C 41.8333,22.8333 41.1667,21.1667 40.5,19.5C 40.6061,16.9214 39.9395,14.588 38.5,12.5C 38.5,12.1667 38.5,11.8333 38.5,11.5 Z"/></g>
<g><path style="opacity:1" fill="#371607" d="M 14.5,20.5 C 16.3797,20.2291 17.713,20.8958 18.5,22.5C 17.2511,24.8285 17.9177,26.6618 20.5,28C 19.5509,28.6172 18.7175,28.4506 18,27.5C 17.4242,29.3774 17.5909,31.2108 18.5,33C 18.1639,34.0299 17.4972,34.5299 16.5,34.5C 10.6631,32.4948 8.49646,28.4948 10,22.5C 11.1096,20.9632 12.6096,20.2965 14.5,20.5 Z"/></g>
<g><path style="opacity:1" fill="#31160a" d="M 51.5,20.5 C 55.173,28.0784 52.8397,33.2451 44.5,36C 45.2524,36.6708 45.5858,37.5041 45.5,38.5C 44.0937,38.0269 43.427,37.0269 43.5,35.5C 43.2255,30.6519 40.8921,29.3186 36.5,31.5C 39.8935,29.6184 42.8935,27.1184 45.5,24C 44.9056,23.5357 44.2389,23.369 43.5,23.5C 45.3914,20.8283 48.0581,19.8283 51.5,20.5 Z"/></g>
<g><path style="opacity:1" fill="#2b180c" d="M 22.5,19.5 C 22.5,20.8333 22.5,22.1667 22.5,23.5C 28.5,22.1667 34.5,22.1667 40.5,23.5C 40.5,22.1667 40.5,20.8333 40.5,19.5C 41.1667,21.1667 41.8333,22.8333 42.5,24.5C 41.653,25.9663 40.3197,26.7996 38.5,27C 32.7818,27.5165 27.1151,27.5165 21.5,27C 22.7893,28.8022 24.4559,29.9688 26.5,30.5C 24.5952,30.9055 22.5952,31.2389 20.5,31.5C 19.7542,32.7362 19.4208,34.0695 19.5,35.5C 19.6716,36.4916 19.3382,37.1583 18.5,37.5C 18.2178,36.2223 17.5511,35.2223 16.5,34.5C 17.4972,34.5299 18.1639,34.0299 18.5,33C 17.5909,31.2108 17.4242,29.3774 18,27.5C 18.7175,28.4506 19.5509,28.6172 20.5,28C 17.9177,26.6618 17.2511,24.8285 18.5,22.5C 19.4584,22.9528 20.2917,23.6195 21,24.5C 21.1981,22.6183 21.6981,20.9516 22.5,19.5 Z"/></g>
<g><path style="opacity:1" fill="#683313" d="M 43.5,23.5 C 44.2389,23.369 44.9056,23.5357 45.5,24C 42.8935,27.1184 39.8935,29.6184 36.5,31.5C 33.0613,31.7471 29.728,31.4137 26.5,30.5C 24.4559,29.9688 22.7893,28.8022 21.5,27C 27.1151,27.5165 32.7818,27.5165 38.5,27C 40.3197,26.7996 41.653,25.9663 42.5,24.5C 42.5,23.8333 42.8333,23.5 43.5,23.5 Z"/></g>
<g><path style="opacity:1" fill="#bacde5" d="M 5.5,14.5 C 6.46872,15.3094 7.30206,16.3094 8,17.5C 11.0101,16.2891 13.1767,17.2891 14.5,20.5C 12.6096,20.2965 11.1096,20.9632 10,22.5C 8.49646,28.4948 10.6631,32.4948 16.5,34.5C 17.5511,35.2223 18.2178,36.2223 18.5,37.5C 17.5,37.8333 16.8333,38.5 16.5,39.5C 15.9569,39.56 15.6236,39.8933 15.5,40.5C 16.1744,42.1955 16.8411,43.8621 17.5,45.5C 15.4175,44.4123 13.2508,43.4123 11,42.5C 9.24926,43.8088 7.74926,43.4755 6.5,41.5C 5.4763,42.8532 4.14297,43.5198 2.5,43.5C 1.36782,40.4487 0.367817,37.4487 -0.5,34.5C -0.5,32.5 -0.5,30.5 -0.5,28.5C 0.325426,25.6282 1.15876,22.6282 2,19.5C 2.69724,17.4156 3.8639,15.7489 5.5,14.5 Z"/></g>
<g><path style="opacity:1" fill="#64463e" d="M 26.5,30.5 C 29.728,31.4137 33.0613,31.7471 36.5,31.5C 40.8921,29.3186 43.2255,30.6519 43.5,35.5C 41.8864,34.7286 40.3864,33.7286 39,32.5C 38.5,32.6667 38,32.8333 37.5,33C 38.5981,33.7697 38.5981,34.603 37.5,35.5C 35.8747,38.6206 33.8747,41.6206 31.5,44.5C 29.4121,42.4007 27.7454,40.0674 26.5,37.5C 26.7373,36.209 26.404,35.209 25.5,34.5C 24.2617,34.19 24.2617,33.69 25.5,33C 24.552,32.5172 23.552,32.3505 22.5,32.5C 22.6495,33.552 22.4828,34.552 22,35.5C 21.2303,34.4019 20.397,34.4019 19.5,35.5C 19.4208,34.0695 19.7542,32.7362 20.5,31.5C 22.5952,31.2389 24.5952,30.9055 26.5,30.5 Z"/></g>
<g><path style="opacity:1" fill="#ddbc9d" d="M 25.5,34.5 C 24.0322,35.8057 22.6988,37.3057 21.5,39C 22.3333,39.1667 23.1667,39.3333 24,39.5C 25.3756,39.3158 26.2089,38.6491 26.5,37.5C 27.7454,40.0674 29.4121,42.4007 31.5,44.5C 33.8747,41.6206 35.8747,38.6206 37.5,35.5C 38.5981,34.603 38.5981,33.7697 37.5,33C 38,32.8333 38.5,32.6667 39,32.5C 40.3864,33.7286 41.8864,34.7286 43.5,35.5C 43.427,37.0269 44.0937,38.0269 45.5,38.5C 45.5,39.1667 45.8333,39.5 46.5,39.5C 45.5,41.5 44.5,43.5 43.5,45.5C 41.6593,46.4023 40.326,47.7356 39.5,49.5C 34.1563,49.666 28.8229,49.4994 23.5,49C 22.051,47.8978 20.7177,46.7311 19.5,45.5C 18.5,43.5 17.5,41.5 16.5,39.5C 16.8333,38.5 17.5,37.8333 18.5,37.5C 19.3382,37.1583 19.6716,36.4916 19.5,35.5C 20.397,34.4019 21.2303,34.4019 22,35.5C 22.4828,34.552 22.6495,33.552 22.5,32.5C 23.552,32.3505 24.552,32.5172 25.5,33C 24.2617,33.69 24.2617,34.19 25.5,34.5 Z"/></g>
<g><path style="opacity:1" fill="#1d130e" d="M 37.5,35.5 C 39.5638,35.7619 40.8971,36.9286 41.5,39C 39.8659,39.4935 38.1992,39.6602 36.5,39.5C 36.4326,38.0413 36.7659,36.7079 37.5,35.5 Z"/></g>
<g><path style="opacity:1" fill="#100906" d="M 25.5,34.5 C 26.404,35.209 26.7373,36.209 26.5,37.5C 26.2089,38.6491 25.3756,39.3158 24,39.5C 23.1667,39.3333 22.3333,39.1667 21.5,39C 22.6988,37.3057 24.0322,35.8057 25.5,34.5 Z"/></g>
<g><path style="opacity:1" fill="#77acd9" d="M 51.5,20.5 C 53.0174,20.5106 54.1841,21.1772 55,22.5C 56.1247,27.215 57.2913,31.8816 58.5,36.5C 57.9094,37.1515 57.2427,37.8182 56.5,38.5C 56.7093,39.086 57.0426,39.586 57.5,40C 54.7854,40.8747 53.4521,42.7081 53.5,45.5C 51.1475,44.6597 49.1475,43.3264 47.5,41.5C 47.6716,40.5084 47.3382,39.8417 46.5,39.5C 45.8333,39.5 45.5,39.1667 45.5,38.5C 45.5858,37.5041 45.2524,36.6708 44.5,36C 52.8397,33.2451 55.173,28.0784 51.5,20.5 Z"/></g>
<g><path style="opacity:1" fill="#010101" d="M 16.5,39.5 C 17.5,41.5 18.5,43.5 19.5,45.5C 18.8333,45.5 18.1667,45.5 17.5,45.5C 16.8411,43.8621 16.1744,42.1955 15.5,40.5C 15.6236,39.8933 15.9569,39.56 16.5,39.5 Z"/></g>
<g><path style="opacity:1" fill="#000000" d="M 46.5,39.5 C 47.3382,39.8417 47.6716,40.5084 47.5,41.5C 46.7321,42.2625 46.2321,43.2625 46,44.5C 45.3292,45.2524 44.4959,45.5858 43.5,45.5C 44.5,43.5 45.5,41.5 46.5,39.5 Z"/></g>
<g><path style="opacity:1" fill="#eaf1f5" d="M 62.5,35.5 C 62.0467,43.4089 58.7134,49.7423 52.5,54.5C 47.891,49.8674 48.891,47.0341 55.5,46C 54.9056,45.5357 54.2389,45.369 53.5,45.5C 53.4521,42.7081 54.7854,40.8747 57.5,40C 57.0426,39.586 56.7093,39.086 56.5,38.5C 57.2427,37.8182 57.9094,37.1515 58.5,36.5C 59.9621,37.4709 61.2954,37.1376 62.5,35.5 Z"/></g>
<g><path style="opacity:1" fill="#9dc7e7" d="M 47.5,41.5 C 49.1475,43.3264 51.1475,44.6597 53.5,45.5C 54.2389,45.369 54.9056,45.5357 55.5,46C 48.891,47.0341 47.891,49.8674 52.5,54.5C 50.7334,56.8901 48.4001,58.5568 45.5,59.5C 45.5858,58.5041 45.2524,57.6708 44.5,57C 45.8333,56.6667 47.1667,56.3333 48.5,56C 47.3659,54.984 47.6992,54.3173 49.5,54C 49,53.5 48.5,53 48,52.5C 45.8094,53.8334 43.976,55.5 42.5,57.5C 40.2198,56.3599 37.8864,55.1932 35.5,54C 40.7133,54.4111 43.88,52.2445 45,47.5C 43.6394,50.1179 41.8061,50.7846 39.5,49.5C 40.326,47.7356 41.6593,46.4023 43.5,45.5C 44.4959,45.5858 45.3292,45.2524 46,44.5C 46.2321,43.2625 46.7321,42.2625 47.5,41.5 Z"/></g>
<g><path style="opacity:1" fill="#99b8d5" d="M 17.5,45.5 C 18.1667,45.5 18.8333,45.5 19.5,45.5C 20.7177,46.7311 22.051,47.8978 23.5,49C 28.8229,49.4994 34.1563,49.666 39.5,49.5C 39.3893,50.1174 39.056,50.6174 38.5,51C 31.1271,51.9677 23.7937,52.1344 16.5,51.5C 15.2502,51.5774 14.4169,52.244 14,53.5C 11.725,51.0507 8.89165,49.7173 5.5,49.5C 4.47061,47.4832 3.47061,45.4832 2.5,43.5C 4.14297,43.5198 5.4763,42.8532 6.5,41.5C 7.74926,43.4755 9.24926,43.8088 11,42.5C 13.2508,43.4123 15.4175,44.4123 17.5,45.5 Z"/></g>
<g><path style="opacity:1" fill="#a4ceeb" d="M 42.5,57.5 C 39.3601,58.6408 36.0267,58.8075 32.5,58C 28.4364,56.1107 24.1031,55.1107 19.5,55C 17.5743,54.5776 16.5743,53.4109 16.5,51.5C 23.7937,52.1344 31.1271,51.9677 38.5,51C 39.056,50.6174 39.3893,50.1174 39.5,49.5C 41.8061,50.7846 43.6394,50.1179 45,47.5C 43.88,52.2445 40.7133,54.4111 35.5,54C 37.8864,55.1932 40.2198,56.3599 42.5,57.5 Z"/></g>
<g><path style="opacity:1" fill="#bfdbef" d="M 5.5,49.5 C 8.89165,49.7173 11.725,51.0507 14,53.5C 14.4169,52.244 15.2502,51.5774 16.5,51.5C 16.5743,53.4109 17.5743,54.5776 19.5,55C 24.1031,55.1107 28.4364,56.1107 32.5,58C 36.0267,58.8075 39.3601,58.6408 42.5,57.5C 43.976,55.5 45.8094,53.8334 48,52.5C 48.5,53 49,53.5 49.5,54C 47.6992,54.3173 47.3659,54.984 48.5,56C 47.1667,56.3333 45.8333,56.6667 44.5,57C 45.2524,57.6708 45.5858,58.5041 45.5,59.5C 41.3646,61.563 37.0313,62.8964 32.5,63.5C 31.8333,63.5 31.1667,63.5 30.5,63.5C 20.3213,62.2414 11.988,57.5747 5.5,49.5 Z"/></g>
</svg>
