<?xml version="1.0" encoding="UTF-8"?>
<!DOCTYPE svg PUBLIC "-//W3C//DTD SVG 1.1//EN" "http://www.w3.org/Graphics/SVG/1.1/DTD/svg11.dtd">
<svg xmlns="http://www.w3.org/2000/svg" version="1.1" width="64px" height="64px" style="shape-rendering:geometricPrecision; text-rendering:geometricPrecision; image-rendering:optimizeQuality; fill-rule:evenodd; clip-rule:evenodd" xmlns:xlink="http://www.w3.org/1999/xlink">
<g><path style="opacity:1" fill="#f1ba15" d="M 25.5,-0.5 C 29.5,-0.5 33.5,-0.5 37.5,-0.5C 51.1667,3.16667 59.8333,11.8333 63.5,25.5C 63.5,29.5 63.5,33.5 63.5,37.5C 59.8333,51.1667 51.1667,59.8333 37.5,63.5C 33.5,63.5 29.5,63.5 25.5,63.5C 11.8333,59.8333 3.16667,51.1667 -0.5,37.5C -0.5,33.5 -0.5,29.5 -0.5,25.5C 3.16667,11.8333 11.8333,3.16667 25.5,-0.5 Z"/></g>
<g><path style="opacity:1" fill="#000000" d="M 10.5,14.5 C 13.5,14.5 16.5,14.5 19.5,14.5C 19.3367,16.8568 19.5034,19.1902 20,21.5C 25.2439,21.5766 28.0772,24.2433 28.5,29.5C 30.5,30.8333 32.5,30.8333 34.5,29.5C 34.9228,24.2433 37.7561,21.5766 43,21.5C 43.4966,19.1902 43.6633,16.8568 43.5,14.5C 46.5,14.5 49.5,14.5 52.5,14.5C 53.9645,20.0566 51.9645,23.2232 46.5,24C 44.3985,25.7328 44.0652,27.7328 45.5,30C 47.6585,30.912 49.8252,31.7454 52,32.5C 52.6667,34.5 52.6667,36.5 52,38.5C 49.7871,39.8019 47.4537,40.8019 45,41.5C 44.5034,43.8098 44.3367,46.1432 44.5,48.5C 41.5,48.5 38.5,48.5 35.5,48.5C 33.9649,42.378 36.2982,39.0446 42.5,38.5C 44.3327,33.3406 42.666,31.3406 37.5,32.5C 36.7234,34.7812 35.7234,36.9479 34.5,39C 32.2305,39.7581 30.0639,39.5914 28,38.5C 27.1667,36.5 26.3333,34.5 25.5,32.5C 20.334,31.3406 18.6673,33.3406 20.5,38.5C 26.7018,39.0446 29.0351,42.378 27.5,48.5C 24.5,48.5 21.5,48.5 18.5,48.5C 18.6633,46.1432 18.4966,43.8098 18,41.5C 15.5463,40.8019 13.2129,39.8019 11,38.5C 10.3333,36.5 10.3333,34.5 11,32.5C 13.1748,31.7454 15.3415,30.912 17.5,30C 18.9348,27.7328 18.6015,25.7328 16.5,24C 11.0355,23.2232 9.03553,20.0566 10.5,14.5 Z"/></g>
</svg>
