<?xml version="1.0" encoding="UTF-8"?>
<!DOCTYPE svg PUBLIC "-//W3C//DTD SVG 1.1//EN" "http://www.w3.org/Graphics/SVG/1.1/DTD/svg11.dtd">
<svg xmlns="http://www.w3.org/2000/svg" version="1.1" width="64px" height="64px" style="shape-rendering:geometricPrecision; text-rendering:geometricPrecision; image-rendering:optimizeQuality; fill-rule:evenodd; clip-rule:evenodd" xmlns:xlink="http://www.w3.org/1999/xlink">
<g><path style="opacity:1" fill="#2470ff" d="M 25.5,-0.5 C 29.5,-0.5 33.5,-0.5 37.5,-0.5C 51.1667,3.16667 59.8333,11.8333 63.5,25.5C 63.5,29.5 63.5,33.5 63.5,37.5C 59.8333,51.1667 51.1667,59.8333 37.5,63.5C 33.5,63.5 29.5,63.5 25.5,63.5C 11.8333,59.8333 3.16667,51.1667 -0.5,37.5C -0.5,33.5 -0.5,29.5 -0.5,25.5C 3.16667,11.8333 11.8333,3.16667 25.5,-0.5 Z"/></g>
<g><path style="opacity:1" fill="#fefffe" d="M 29.5,36.5 C 27.9498,34.378 25.9498,32.7114 23.5,31.5C 20.8619,30.5084 18.1952,29.5084 15.5,28.5C 14.1667,24.1667 14.1667,19.8333 15.5,15.5C 21.1119,18.6167 25.9452,22.6167 30,27.5C 30.8045,30.6965 30.6378,33.6965 29.5,36.5 Z"/></g>
<g><path style="opacity:1" fill="#fdfeff" d="M 39.5,31.5 C 37.5,33.1667 35.5,34.8333 33.5,36.5C 32.1867,32.8234 32.3533,29.1567 34,25.5C 38.5036,21.0067 43.6702,17.6734 49.5,15.5C 52.1856,24.8214 48.8522,30.1548 39.5,31.5 Z"/></g>
<g><path style="opacity:1" fill="#d1e1ff" d="M 23.5,31.5 C 25.9498,32.7114 27.9498,34.378 29.5,36.5C 26.9214,40.7504 23.5881,44.417 19.5,47.5C 18.1667,43.1667 18.1667,38.8333 19.5,34.5C 20.9014,33.4793 22.2347,32.4793 23.5,31.5 Z"/></g>
<g><path style="opacity:1" fill="#d3e2ff" d="M 39.5,31.5 C 40.7653,32.4793 42.0986,33.4793 43.5,34.5C 44.8333,38.8333 44.8333,43.1667 43.5,47.5C 39.4119,44.417 36.0786,40.7504 33.5,36.5C 35.5,34.8333 37.5,33.1667 39.5,31.5 Z"/></g>
</svg>
