<svg width="32" height="32" viewBox="0 0 32 32" fill="none" xmlns="http://www.w3.org/2000/svg">
<path d="M14.1766 28.4143H17.7324V21.5519L24.3432 25.3446L25.9944 22.5019L17.22 17.4668C16.4397 17.0202 15.4722 17.0202 14.6919 17.4668L5.91598 22.5019L7.56723 25.3446L14.178 21.5519V28.4143H14.1766Z" fill="#E6DAFE"/>
<path d="M3 17.4827L4.65125 20.3254L13.4271 15.2903C14.2074 14.8436 14.6904 14.0101 14.6904 13.1139V3H11.388V10.632L5.40953 7.20006L3.63239 10.261L9.60938 13.6914L3 17.4827Z" fill="#E6DAFE"/>
<path d="M17.311 3V13.1153C17.311 14.0101 17.7955 14.8436 18.5743 15.2903L27.3488 20.3254L29 17.4827L22.4053 13.6987L28.2944 10.2654L26.5173 7.20588L20.6121 10.6465V3H17.311Z" fill="#E6DAFE"/>
</svg>
