<svg width="32" height="32" viewBox="0 0 32 32" fill="none" xmlns="http://www.w3.org/2000/svg">
<path d="M28.5154 12.3524H26.1404C25.387 10.2576 24.006 8.44612 22.1856 7.16481C20.3652 5.88351 18.194 5.19474 15.9679 5.19238H7.35285V12.3524H4.48535V14.6549H7.35285V17.3449H4.48535V19.6474H7.35285V26.8074H15.9679C18.194 26.805 20.3652 26.1163 22.1856 24.835C24.006 23.5536 25.387 21.7422 26.1404 19.6474H28.5154V17.3449H26.6904C26.8037 16.4518 26.8037 15.548 26.6904 14.6549H28.5154V12.3524ZM9.65785 7.49988H15.9679C17.5759 7.50105 19.1507 7.95738 20.5102 8.8161C21.8698 9.67481 22.9584 10.9008 23.6504 12.3524H9.65035L9.65785 7.49988ZM15.9679 24.4999H9.65785V19.6474H23.6579C22.9654 21.1001 21.8755 22.3269 20.5146 23.1857C19.1536 24.0445 17.5771 24.5001 15.9679 24.4999V24.4999ZM24.4679 15.9999C24.4675 16.4503 24.4316 16.9001 24.3604 17.3449H9.65785V14.6549H24.3654C24.4366 15.0997 24.4725 15.5494 24.4729 15.9999H24.4679Z" fill="#E6DAFE"/>
</svg>
