<svg width="32" height="32" viewBox="0 0 32 32" fill="none" xmlns="http://www.w3.org/2000/svg">
<path d="M20.9991 8.99988V7.00095H10.9998V8.99988H8.99929V23.0002H10.9998V25.0006H20.9991V23.0002H22.9996V8.99988H20.9991ZM20.9991 20.9997H18.9986V17.0003H16.9997V19.0007H14.9992V17.0003H12.9987V20.9997H10.9998V11.0004H14.9992V13.0008H16.9997V11.0004H20.9991V20.9997Z" fill="#E6DAFE"/>
<path d="M6.99948 23.0002H5.00055V25.0007H6.99948V23.0002Z" fill="#E6DAFE"/>
<path d="M6.99948 7.00095H5.00055V8.99988H6.99948V7.00095Z" fill="#E6DAFE"/>
<path d="M5.00055 8.99988H3V23.0002L5.00055 23.0002V8.99988Z" fill="#E6DAFE"/>
<path d="M9.0004 5.00055H6.99992L6.99948 7.00095L9.0004 7.00103V5.00055Z" fill="#E6DAFE"/>
<path d="M9.0004 25.0007L6.99948 25.0007L6.99992 26.9997H9.0004V25.0007Z" fill="#E6DAFE"/>
<path d="M26.9994 7.00095H24.999V8.99988H26.9994V7.00095Z" fill="#E6DAFE"/>
<path d="M29 8.99988H26.9994L26.9995 23.0002H29V8.99988Z" fill="#E6DAFE"/>
<path d="M24.9997 5.00055H23.0008V7.00103L24.999 7.00095L24.9997 5.00055Z" fill="#E6DAFE"/>
<path d="M22.9996 26.9995H8.99929V29H22.9996V26.9995Z" fill="#E6DAFE"/>
<path d="M26.9995 23.0002L24.999 23.0002V25.0007H26.9994L26.9995 23.0002Z" fill="#E6DAFE"/>
<path d="M24.999 25.0007L23.0008 25.0007V26.9997H24.9997L24.999 25.0007Z" fill="#E6DAFE"/>
<path d="M22.9996 3H8.99929V5.00048H22.9996V3Z" fill="#E6DAFE"/>
<g opacity="0.5">
<path d="M11.0014 5.00073H9.0009V7.00122H11.0014V5.00073Z" fill="#E6DAFE"/>
<path d="M9.0009 7.00122L7.00035 7.00128V9.00021H9.00083L9.0009 7.00122Z" fill="#E6DAFE"/>
<path d="M23.0011 7.00128H21.0007V9.00021H23.0011V7.00128Z" fill="#E6DAFE"/>
<path d="M7.00035 9.00021L5.00098 9.00021V23.0005H6.9999L7.00035 9.00021Z" fill="#E6DAFE"/>
<path d="M25.0001 9.00021L23.0011 9.00021L23.0012 23.0005H25.0001V9.00021Z" fill="#E6DAFE"/>
<path d="M9.00083 23.0004L6.9999 23.0005L7.00035 25.0009H9.00083V23.0004Z" fill="#E6DAFE"/>
<path d="M23.0012 23.0005L21.0007 23.0004V25.0009H23.0011L23.0012 23.0005Z" fill="#E6DAFE"/>
<path d="M11.0014 25.0009L9.00083 25.0009L9.0009 26.9998H11.0014V25.0009Z" fill="#E6DAFE"/>
</g>
</svg>
