<svg width="32" height="32" viewBox="0 0 32 32" fill="none" xmlns="http://www.w3.org/2000/svg">
<path d="M18.7324 4V9.91357L23.8661 6.96124L18.7324 4Z" fill="#E6DAFE"/>
<path opacity="0.9" d="M23.8672 6.96021V12.8738L28.9999 9.91353L23.8672 6.96119V6.96021Z" fill="#E6DAFE"/>
<path opacity="0.8" d="M18.7324 9.91357V15.8271L23.8661 12.8748L18.7324 9.91456V9.91357ZM23.8671 12.8748V18.7874L28.9998 15.8271L23.8671 12.8758V12.8748Z" fill="#E6DAFE"/>
<path opacity="0.8" d="M18.7324 15.8262V21.7397L23.8661 18.7874L18.7324 15.8272V15.8262Z" fill="#E6DAFE"/>
<path d="M23.8672 18.7864V24.6999L28.9999 21.7397L23.8672 18.7874V18.7864Z" fill="#E6DAFE"/>
<path opacity="0.4" d="M5.46289 9.71362V15.6272L10.5966 12.6669L5.46289 9.71461V9.71362Z" fill="#E6DAFE"/>
<path opacity="0.2" d="M11.9395 11.9128V17.8264L17.0652 14.8741L11.9395 11.9138V11.9128Z" fill="#E6DAFE"/>
<path opacity="0.3" d="M8.13281 15.6521V21.5657L13.2655 18.6054L8.13281 15.6531V15.6521Z" fill="#E6DAFE"/>
<path opacity="0.9" d="M11.5176 20.1147V26.0283L16.6433 23.0681L11.5176 20.1157V20.1147Z" fill="#E6DAFE"/>
<path opacity="0.7" d="M18.6895 22.6592V28.5737L23.8152 25.6125L18.6895 22.6602V22.6592Z" fill="#E6DAFE"/>
<path opacity="0.9" d="M12.7949 8.99219V14.9067L17.9207 11.9544L12.7949 8.99318V8.99219Z" fill="#E6DAFE"/>
<path opacity="0.8" d="M18.7333 4V9.91357L13.5996 6.96124L18.7333 4Z" fill="#E6DAFE"/>
<path opacity="0.6" d="M12.7948 6.51392V12.4265L7.66016 9.46625L12.7948 6.51491V6.51392Z" fill="#E6DAFE"/>
<path opacity="0.6" d="M17.9286 9.43945V15.354L12.7949 12.3928L17.9286 9.44044V9.43945Z" fill="#E6DAFE"/>
<path opacity="0.95" d="M11.9149 11.9128V17.8264L6.78125 14.8741L11.9149 11.9138V11.9128Z" fill="#E6DAFE"/>
<path opacity="0.6" d="M18.7332 15.8262V21.7397L13.6074 18.7874L18.7332 15.8272V15.8262Z" fill="#E6DAFE"/>
<path opacity="0.55" d="M8.13367 17.2039V23.1174L3 20.1552L8.13367 17.2039Z" fill="#E6DAFE"/>
<path d="M28.9999 9.91357V15.8271L23.8672 12.8748L28.9999 9.91456V9.91357Z" fill="#E6DAFE"/>
<path opacity="0.95" d="M23.868 12.8748V18.7873L18.7344 15.8271L23.868 12.8757V12.8748Z" fill="#E6DAFE"/>
<path opacity="0.9" d="M28.9999 15.8262V21.7397L23.8672 18.7874L28.9999 15.8272V15.8262Z" fill="#E6DAFE"/>
<path opacity="0.7" d="M23.868 18.7864V24.6999L18.7344 21.7397L23.868 18.7874V18.7864Z" fill="#E6DAFE"/>
<path opacity="0.4" d="M17.5956 21.2507V27.1643L12.4629 24.212L17.5956 21.2517V21.2507Z" fill="#E6DAFE"/>
<path d="M23.868 6.96021V12.8738L18.7344 9.91353L23.868 6.96119V6.96021Z" fill="#E6DAFE"/>
</svg>
