<svg width="32" height="32" viewBox="0 0 32 32" fill="none" xmlns="http://www.w3.org/2000/svg">
<path d="M23.8521 17.0424H22.558C22.3832 17.9905 21.9321 18.8775 21.1926 19.5307C20.5025 20.1399 19.6201 20.5071 18.7017 20.5692L18.0622 17.5758C18.2168 17.6081 19.0296 17.7622 19.7418 17.2459C19.7898 17.2116 19.8853 17.1419 19.9944 17.0424C20.2687 16.7918 20.6273 16.3503 20.5278 15.7861C20.4859 15.5461 20.3682 15.3269 20.2075 15.1506C19.9838 14.9036 19.6756 14.7404 19.3715 14.7197C19.0008 14.6945 18.6871 14.8849 18.4123 15.1506C18.1981 15.3572 18.0077 15.6103 17.8329 15.8427C17.4712 16.323 17.3252 16.6812 17.2055 17.0424C17.0691 17.451 16.9656 17.8632 16.6201 18.4588C16.0583 19.4276 15.289 20.304 14.1732 20.6041C13.1639 20.8759 12.0516 20.689 11.1494 20.156C10.0381 19.4994 9.40869 18.3077 9.20209 17.0424H8.14685C8.65704 20.9243 11.9788 23.9203 15.9997 23.9203C20.0206 23.9203 23.3419 20.9243 23.8521 17.0424Z" fill="#E6DAFE"/>
<path d="M12.6532 17.7364C13.2467 17.8122 13.6993 17.4945 14.0539 17.0424C14.45 16.5392 14.7253 15.8694 14.942 15.3895C14.9778 15.3097 15.0137 15.2304 15.0496 15.1506C15.3168 14.5535 15.5876 13.9549 15.9619 13.4195C16.6054 12.4986 17.5697 11.8995 18.7017 11.8404C19.7287 11.7874 20.7829 12.1612 21.4901 12.9194C21.5906 13.027 21.6841 13.1422 21.7684 13.2629C22.1609 13.8241 22.4236 14.4742 22.5514 15.1506H23.8754C23.4516 11.1752 20.0873 8.07867 15.9997 8.07867C11.9122 8.07867 8.54743 11.1752 8.12362 15.1506H9.20159C9.22078 15.0304 9.24452 14.9117 9.2718 14.795C9.70672 12.9381 11.0261 11.65 12.9083 11.21L13.8352 14.0348C13.5544 14.0373 13.0967 14.0858 12.6224 14.349C12.2784 14.5399 11.9687 14.8202 11.7505 15.1506C11.4368 15.6234 11.3085 16.2003 11.5283 16.7706C11.5646 16.8645 11.6086 16.956 11.6606 17.0424C11.8763 17.4035 12.2213 17.6814 12.6532 17.7364Z" fill="#E6DAFE"/>
<path d="M29 15.9997C29 8.82021 23.1798 3 15.9997 3C8.82021 3 3 8.82021 3 15.9997C3 23.1793 8.82021 28.9995 15.9997 28.9995C23.1793 28.9995 28.9995 23.1793 28.9995 15.9997H29ZM6.02578 15.9997C6.02578 10.4912 10.4912 6.02578 15.9997 6.02578C21.5083 6.02578 25.9737 10.4912 25.9737 15.9997C25.9737 21.5083 21.5083 25.9737 15.9997 25.9737C10.4912 25.9737 6.02578 21.5083 6.02578 15.9997Z" fill="#E6DAFE"/>
</svg>
