<svg width="32" height="32" viewBox="0 0 32 32" fill="none" xmlns="http://www.w3.org/2000/svg">
<g clip-path="url(#clip0_6_4910)">
<path d="M24.7772 21.1451L17.5272 24.9251V21.2901C18.8336 20.9229 19.9628 20.0953 20.7064 18.9602C21.4499 17.8251 21.7574 16.4592 21.5721 15.115C21.3868 13.7707 20.7211 12.539 19.6982 11.6474C18.6753 10.7558 17.3642 10.2646 16.0072 10.2646C14.6503 10.2646 13.3392 10.7558 12.3163 11.6474C11.2933 12.539 10.6277 13.7707 10.4424 15.115C10.257 16.4592 10.5646 17.8251 11.3081 18.9602C12.0516 20.0953 13.1809 20.9229 14.4872 21.2901V24.9251L7.23724 21.1451C7.19159 21.1216 7.15352 21.0856 7.12743 21.0414C7.10133 20.9971 7.08827 20.9464 7.08974 20.8951V18.7976H4.03224V21.2351C4.03096 21.7408 4.16913 22.237 4.43156 22.6692C4.69399 23.1014 5.07051 23.453 5.51974 23.6851L14.7222 28.4826C15.117 28.6871 15.5551 28.7938 15.9997 28.7938C16.4443 28.7938 16.8825 28.6871 17.2772 28.4826L26.4797 23.6851C26.9313 23.4547 27.3104 23.1039 27.5751 22.6715C27.8398 22.2392 27.9798 21.7421 27.9797 21.2351V18.7976H24.9247V20.9001C24.9253 20.9506 24.9118 21.0002 24.8857 21.0435C24.8597 21.0868 24.8221 21.1219 24.7772 21.1451ZM13.4222 15.8951C13.4203 15.3849 13.5697 14.8856 13.8518 14.4604C14.1338 14.0352 14.5356 13.7033 15.0064 13.5067C15.4772 13.3101 15.9958 13.2576 16.4964 13.3559C16.9971 13.4542 17.4573 13.6989 17.8187 14.059C18.1802 14.4191 18.4267 14.8783 18.527 15.3786C18.6272 15.8788 18.5768 16.3976 18.382 16.8691C18.1872 17.3407 17.8568 17.7438 17.4328 18.0275C17.0087 18.3112 16.5099 18.4626 15.9997 18.4626C15.3163 18.4619 14.6611 18.1902 14.1779 17.7069C13.6947 17.2237 13.4229 16.5685 13.4222 15.8851V15.8951Z" fill="#E6DAFE"/>
<path d="M14.7222 3.51753L5.51974 8.31503C5.07051 8.54717 4.69399 8.89868 4.43156 9.33091C4.16913 9.76314 4.03096 10.2594 4.03224 10.765V13.2025H7.07474V11.1C7.07326 11.0487 7.08633 10.998 7.11243 10.9538C7.13852 10.9095 7.17659 10.8736 7.22224 10.85L15.8722 6.35003C15.9108 6.32987 15.9537 6.31935 15.9972 6.31935C16.0408 6.31935 16.0837 6.32987 16.1222 6.35003L24.7722 10.85C24.8179 10.8736 24.8559 10.9095 24.882 10.9538C24.9081 10.998 24.9212 11.0487 24.9197 11.1V13.2025H27.9622V10.765C27.9623 10.2581 27.8223 9.76095 27.5576 9.32859C27.2929 8.89623 26.9138 8.54546 26.4622 8.31503L17.2772 3.51753C16.8825 3.31303 16.4443 3.2063 15.9997 3.2063C15.5551 3.2063 15.117 3.31303 14.7222 3.51753V3.51753Z" fill="#E6DAFE"/>
</g>
<defs>
<clipPath id="clip0_6_4910">
<rect width="32" height="32" fill="white"/>
</clipPath>
</defs>
</svg>
