<svg width="32" height="32" viewBox="0 0 32 32" fill="none" xmlns="http://www.w3.org/2000/svg">
<path d="M21.2565 5.76387C24.207 7.06785 26.2354 10.2346 26.051 13.4014H10.1924C10.1924 11.3523 10.93 9.11695 12.4052 7.62669C14.4337 5.00012 18.3061 4.27362 21.2565 5.76387Z" fill="#E6DAFE"/>
<path d="M20.8885 26.0686C21.2573 26.0686 21.4417 26.2549 21.4417 26.4412C21.4417 26.6274 21.2573 26.8137 20.8885 26.8137H12.406C12.0372 26.8137 11.8527 26.6274 11.8527 26.4412C11.8527 26.2549 12.0372 26.0686 12.406 26.0686H20.8885Z" fill="#E6DAFE"/>
<path d="M10.5619 27C10.9307 27 11.1151 26.8137 11.1151 26.4412C11.1151 26.0686 10.9307 25.8823 10.5619 25.8823C10.1931 25.8823 10.0087 26.0686 10.0087 26.4412C10.0087 26.8137 10.1931 27 10.5619 27Z" fill="#E6DAFE"/>
<path d="M15.723 24.7646C16.0918 24.7646 16.2762 24.5784 16.2762 24.2058C16.2762 23.8332 16.0918 23.647 15.723 23.647C15.3542 23.647 15.1698 23.8332 15.1698 24.2058C15.1698 24.5784 15.3542 24.7646 15.723 24.7646Z" fill="#E6DAFE"/>
<path d="M25.6815 23.647C26.0503 23.647 26.2347 23.8332 26.2347 24.2058C26.2347 24.5784 26.0503 24.7646 25.6815 24.7646H17.3834C17.0146 24.7646 16.8302 24.5784 16.8302 24.2058C16.8302 23.8332 17.0146 23.647 17.3834 23.647H25.6815Z" fill="#E6DAFE"/>
<path d="M4.6589 22.5292C5.0277 22.5292 5.21211 22.343 5.21211 21.9704C5.21211 21.5978 5.0277 21.4116 4.6589 21.4116C4.2901 21.4116 4.10569 21.5978 4.10569 21.9704C4.10569 22.343 4.4745 22.5292 4.6589 22.5292Z" fill="#E6DAFE"/>
<path d="M12.9584 21.4116C13.3272 21.4116 13.5116 21.5978 13.5116 21.9704C13.5116 22.343 13.3272 22.5292 12.9584 22.5292H6.13556C5.76675 22.5292 5.58235 22.343 5.58235 21.9704C5.58235 21.5978 5.76675 21.4116 6.13556 21.4116H12.9584Z" fill="#E6DAFE"/>
<path d="M28.4468 21.4116C28.8156 21.4116 29 21.5978 29 21.9704C29 22.343 28.8156 22.5292 28.4468 22.5292H14.801C14.4322 22.5292 14.2478 22.343 14.2478 21.9704C14.2478 21.5978 14.4322 21.4116 14.801 21.4116H28.4468Z" fill="#E6DAFE"/>
<path d="M25.8659 19.1761C26.2347 19.1761 26.4191 19.3624 26.4191 19.735C26.4191 20.1076 26.2347 20.2938 25.8659 20.2938H9.08527C8.90087 20.4801 8.53207 20.1076 8.53207 19.735C8.53207 19.3624 8.71647 19.1761 9.08527 19.1761H25.8659Z" fill="#E6DAFE"/>
<path d="M7.24125 20.4801C7.61006 20.4801 7.79446 20.2938 7.79446 19.9213C7.79446 19.5487 7.61006 19.1761 7.24125 19.1761C6.87245 19.1761 6.68805 19.5487 6.68805 19.735C6.68805 19.9213 6.87245 20.4801 7.24125 20.4801Z" fill="#E6DAFE"/>
<path d="M22.3615 17.1271C22.7303 17.1271 22.9147 17.3134 22.9147 17.6859C22.9147 18.0585 22.7303 18.2448 22.3615 18.2448H5.58091C5.39651 18.2448 5.0277 18.0585 5.0277 17.6859C5.0277 17.3134 5.21211 17.1271 5.58091 17.1271H22.3615Z" fill="#E6DAFE"/>
<path d="M3.55321 18.2448C3.92201 18.2448 4.10641 18.0585 4.10641 17.6859C4.10641 17.3134 3.92201 17.1271 3.55321 17.1271C3.1844 17.1271 3 17.3134 3 17.6859C3 18.0585 3.1844 18.2448 3.55321 18.2448Z" fill="#E6DAFE"/>
<path d="M7.24125 16.0094C7.61006 16.0094 7.79446 15.8231 7.79446 15.4505C7.79446 15.078 7.61006 14.8917 7.24125 14.8917C6.87245 14.8917 6.68805 15.2642 6.68805 15.4505C6.68805 15.8231 6.87245 16.0094 7.24125 16.0094Z" fill="#E6DAFE"/>
<path d="M27.5248 14.8917C27.8936 14.8917 28.078 15.078 28.078 15.4505C28.078 15.8231 27.8936 16.0094 27.5248 16.0094H9.26896C8.90015 16.0094 8.71575 15.8231 8.71575 15.4505C8.71575 15.078 8.90015 14.8917 9.26896 14.8917H27.5248Z" fill="#E6DAFE"/>
</svg>
