<svg width="32" height="32" viewBox="0 0 32 32" fill="none" xmlns="http://www.w3.org/2000/svg">
<path d="M17.2236 27.9761H17.341C22.9179 27.411 27.482 22.9172 28 17.1765V17.1055L17.2236 27.9761Z" fill="#E6DAFE"/>
<path d="M22.8708 6.1408C22.3999 5.81117 21.8587 5.50545 21.2937 5.22291C20.9879 5.08164 20.6822 4.94038 20.3765 4.82301C19.7643 4.58756 19.1297 4.3992 18.4704 4.25864C17.6706 4.09418 16.8708 4 16.0232 4C15.6233 4 15.2234 4.02319 14.8235 4.04709C12.0473 4.32962 9.5769 5.52934 7.67084 7.36441C7.55277 7.48178 7.41221 7.62305 7.29413 7.74113C5.48225 9.64718 4.30573 12.1647 4.04709 14.9177C4.0239 15.2705 4 15.6233 4 16C4 16.894 4.09418 17.7648 4.28253 18.6117C4.4238 19.247 4.61216 19.8585 4.8469 20.4707C4.98817 20.8003 5.12944 21.1292 5.2707 21.4356C5.55324 21.9768 5.85897 22.4948 6.21178 22.9889L22.8708 6.1408ZM7.03549 18.2821C7.0116 18.2111 6.9884 18.1176 6.9884 18.0466C6.84714 17.3881 6.77685 16.7056 6.77685 16.0232C6.77685 13.6469 7.67084 11.4113 9.29437 9.69357L9.62329 9.36394C11.3649 7.69333 13.6238 6.77545 16.0471 6.77545C16.6824 6.77545 17.3178 6.84573 17.9292 6.9638C18.0234 6.987 18.1176 7.01089 18.2118 7.03409L7.03549 18.2821Z" fill="#E6DAFE"/>
<path d="M26.8706 10.8708C26.6119 10.2825 26.2823 9.74136 25.9295 9.22408L9.31756 26.0005C9.85873 26.3772 10.4238 26.6829 11.0121 26.9654C11.2939 27.0828 11.5764 27.2009 11.8822 27.3183L27.2705 11.7894C27.1531 11.4837 27.0118 11.1779 26.8706 10.8715V10.8708Z" fill="#E6DAFE"/>
</svg>
