<svg width="32" height="32" viewBox="0 0 32 32" fill="none" xmlns="http://www.w3.org/2000/svg">
<g clip-path="url(#clip0_13993_919)">
<path d="M16 3C8.82055 3 3 8.82055 3 16C3 23.1794 8.82055 29 16 29C23.1794 29 29 23.1794 29 16C29 8.82055 23.1794 3 16 3ZM9.00586 6.47553C13.3605 3.28298 19.283 3.44243 23.4847 6.85619C23.7188 7.04652 23.7404 7.14564 23.5127 7.35895C22.9999 7.83873 23.015 7.84663 22.4655 7.43939C21.154 6.46691 19.7125 5.78602 18.0936 5.51022C18.0936 5.51022 18.154 5.51453 17.9083 5.48652C16.6687 5.20138 15.4247 5.2416 14.1829 5.45276C12.3966 5.75729 10.7899 6.47624 9.37431 7.60746C9.18254 7.76044 9.08199 7.75685 8.91177 7.58304C8.31994 6.97757 8.31276 6.98475 9.00586 6.47624V6.47553ZM21.5491 17.2461C21.4923 17.3668 21.3824 17.3115 21.2984 17.3115C18.4176 17.3151 15.5367 17.3151 12.6566 17.3115C12.5704 17.3115 12.4627 17.3639 12.3995 17.2512C11.6662 16.5868 11.0399 15.8197 10.3547 15.1094C10.2233 14.9736 10.2915 14.8494 10.3949 14.7345C10.4509 14.6131 10.5615 14.6684 10.6449 14.6684C13.5257 14.6648 16.4072 14.6648 19.2881 14.6684C19.3735 14.6684 19.482 14.6152 19.5445 14.7287C20.2792 15.3917 20.9041 16.1602 21.5893 16.8705C21.72 17.0062 21.6525 17.1305 21.5491 17.2461ZM21.5613 18.9749C20.8869 19.6709 20.2835 20.4344 19.5524 21.0757C19.5129 21.1009 19.4691 21.1131 19.4217 21.1117C16.4539 21.1066 13.4862 21.1081 10.5185 21.1109C10.471 21.1117 10.428 21.0987 10.3892 21.0722C10.2814 20.9551 10.229 20.8344 10.3604 20.6987C11.0219 20.0199 11.6245 19.2845 12.3212 18.6388C12.3442 18.6388 12.3672 18.6381 12.3902 18.6373C12.5202 18.6259 12.6487 18.6029 12.7809 18.6029C15.6387 18.6043 18.4966 18.6022 21.3544 18.605C21.4018 18.605 21.4492 18.6093 21.4966 18.6151C21.5196 18.6187 21.5419 18.6215 21.5649 18.6251C21.6676 18.7429 21.6568 18.878 21.5613 18.9764V18.9749ZM21.4255 10.8697C21.4729 10.869 21.516 10.8819 21.5548 10.9085C21.6618 11.0255 21.715 11.1462 21.5835 11.2812C20.9213 11.9599 20.3223 12.6976 19.6235 13.3411C19.6005 13.3411 19.5775 13.3418 19.5545 13.3425C19.4245 13.354 19.296 13.377 19.1638 13.377C16.306 13.3756 13.4481 13.3777 10.5903 13.3749C10.5429 13.3749 10.4955 13.3713 10.4481 13.3655C10.4251 13.3627 10.4028 13.3591 10.3798 13.3562C10.1873 13.3052 10.2017 13.1572 10.2987 13.066C11.032 12.3801 11.6274 11.5599 12.393 10.9063C12.4325 10.8804 12.4756 10.8675 12.523 10.869C15.4908 10.8733 18.4585 10.8725 21.4262 10.869L21.4255 10.8697ZM7.6247 22.699C7.83514 22.9633 7.78917 23.0918 7.5737 23.2958C7.07022 23.7727 7.07956 23.782 6.65006 23.2211C5.01895 21.0894 4.17646 18.6122 4.19227 15.1848C4.21525 13.0517 5.17912 10.4768 7.07381 8.24309C7.28713 7.99171 7.41066 7.93354 7.66133 8.21149C8.12315 8.72431 8.14182 8.70707 7.70155 9.24862C4.5126 13.1694 4.47381 18.7451 7.6247 22.699ZM23.5163 25.1029C21.33 26.8927 18.8162 27.774 16.0266 27.8156C13.0861 27.7754 10.5106 26.8367 8.2826 24.9513C8.09155 24.7897 8.0305 24.6949 8.24453 24.4888C8.77315 23.981 8.76166 23.9695 9.33409 24.427C13.3706 27.654 19.1767 27.5312 23.0667 24.129C23.2656 23.9551 23.3806 23.9235 23.5809 24.134C24.0715 24.6504 24.083 24.6389 23.5163 25.1036V25.1029ZM25.1848 23.4272C25.0354 23.6147 24.9513 23.6219 24.7804 23.4488C24.2776 22.9381 24.2697 22.946 24.6877 22.3786C27.6282 18.3924 27.4278 12.8362 24.1943 9.07481C23.9839 8.82989 24.014 8.70994 24.2288 8.50669C24.7387 8.02331 24.7287 8.01254 25.1654 8.55696C26.8977 10.7145 27.8077 13.2736 27.8077 16.3376C27.7776 18.7645 26.9186 21.2488 25.184 23.4272H25.1848Z" fill="#E6DAFE"/>
</g>
<defs>
<clipPath id="clip0_13993_919">
<rect width="26" height="26" fill="white" transform="translate(3 3)"/>
</clipPath>
</defs>
</svg>
