<svg width="32" height="32" viewBox="0 0 32 32" fill="none" xmlns="http://www.w3.org/2000/svg">
<g clip-path="url(#clip0_6_4141)">
<path d="M16.0004 24.1275C14.1951 24.1262 12.4641 23.4086 11.1874 22.1323C9.91061 20.856 9.19242 19.1253 9.19043 17.32C9.19043 13.32 15.3779 6.9325 15.6429 6.6625C15.6885 6.61269 15.7436 6.57261 15.8051 6.54468C15.8665 6.51676 15.933 6.50156 16.0004 6.5C16.0678 6.50026 16.1344 6.51412 16.1963 6.54075C16.2581 6.56739 16.314 6.60625 16.3604 6.655C16.6104 6.9325 22.8079 13.47 22.8079 17.31C22.8086 19.1166 22.0919 20.8495 20.8154 22.1279C19.5389 23.4063 17.807 24.1255 16.0004 24.1275V24.1275ZM16.0004 7.75C14.6804 9.1775 10.1954 14.25 10.1954 17.325C10.1954 18.8659 10.8076 20.3437 11.8971 21.4333C12.9867 22.5229 14.4645 23.135 16.0054 23.135C17.5463 23.135 19.0241 22.5229 20.1137 21.4333C21.2033 20.3437 21.8154 18.8659 21.8154 17.325C21.8104 14.3675 17.3129 9.195 16.0004 7.75Z" fill="#E6DAFE"/>
<path d="M15.9995 26.2975C13.6013 26.2949 11.302 25.3407 9.60668 23.6443C7.91131 21.948 6.95835 19.6483 6.95703 17.25C6.95703 13.4225 11.2745 8.00003 13.8495 5.11253C13.8932 5.06328 13.9461 5.02312 14.0053 4.99433C14.0645 4.96554 14.1288 4.9487 14.1945 4.94475C14.2602 4.9408 14.326 4.94984 14.3882 4.97133C14.4504 4.99283 14.5078 5.02636 14.557 5.07003C14.6063 5.11369 14.6464 5.16663 14.6752 5.22581C14.704 5.285 14.7209 5.34928 14.7248 5.41498C14.7288 5.48067 14.7197 5.5465 14.6982 5.60871C14.6767 5.67092 14.6432 5.72828 14.5995 5.77753C12.117 8.56503 7.95703 13.75 7.95703 17.25C7.95703 19.383 8.80436 21.4287 10.3126 22.9369C11.8209 24.4452 13.8665 25.2925 15.9995 25.2925C18.1325 25.2925 20.1782 24.4452 21.6864 22.9369C23.1947 21.4287 24.042 19.383 24.042 17.25C24.042 14.7975 21.6145 10.62 17.382 5.79253C17.3353 5.74385 17.2989 5.68621 17.275 5.62308C17.2511 5.55995 17.2402 5.49264 17.2431 5.4252C17.2459 5.35776 17.2624 5.2916 17.2914 5.23069C17.3205 5.16979 17.3616 5.1154 17.4123 5.07081C17.463 5.02622 17.5222 4.99235 17.5863 4.97124C17.6504 4.95014 17.7181 4.94223 17.7854 4.94799C17.8526 4.95376 17.918 4.97308 17.9776 5.0048C18.0371 5.03651 18.0897 5.07996 18.132 5.13253C20.7145 8.08003 25.042 13.57 25.042 17.25C25.0407 19.6483 24.0878 21.948 22.3924 23.6443C20.697 25.3407 18.3978 26.2949 15.9995 26.2975V26.2975Z" fill="#E6DAFE"/>
<path d="M16 28.5626C13.0505 28.5593 10.2227 27.3861 8.13709 25.3005C6.05147 23.2149 4.87831 20.3871 4.875 17.4376C4.875 13.2826 8.9525 7.62761 12.375 3.61261C12.4656 3.53089 12.5829 3.48512 12.7049 3.48391C12.8269 3.4827 12.9452 3.52614 13.0374 3.60604C13.1296 3.68595 13.1894 3.7968 13.2055 3.91773C13.2216 4.03866 13.193 4.16132 13.125 4.26261C8.44 9.76261 5.875 14.4326 5.875 17.4376C5.875 20.1229 6.94174 22.6983 8.84054 24.5971C10.7393 26.4959 13.3147 27.5626 16 27.5626C18.6853 27.5626 21.2607 26.4959 23.1595 24.5971C25.0583 22.6983 26.125 20.1229 26.125 17.4376C26.125 14.5526 23.5375 9.88511 18.8375 4.29761C18.7591 4.19543 18.7232 4.06696 18.7372 3.93895C18.7512 3.81095 18.8141 3.69329 18.9127 3.61047C19.0113 3.52766 19.1381 3.48608 19.2666 3.49439C19.3951 3.50271 19.5154 3.56028 19.6025 3.65511C23.035 7.73511 27.125 13.4376 27.125 17.4376C27.1217 20.3871 25.9485 23.2149 23.8629 25.3005C21.7773 27.3861 18.9495 28.5593 16 28.5626Z" fill="#E6DAFE"/>
</g>
<defs>
<clipPath id="clip0_6_4141">
<rect width="32" height="32" fill="white"/>
</clipPath>
</defs>
</svg>
