<svg width="32" height="32" viewBox="0 0 32 32" fill="none" xmlns="http://www.w3.org/2000/svg">
<g clip-path="url(#clip0_6_4158)">
<path d="M23.6778 10.8575H28.7203V7.03003H23.0703C22.3251 7.03035 21.5893 7.19548 20.9155 7.51359C20.2417 7.8317 19.6465 8.29491 19.1728 8.87003L9.53027 20.5725C9.38373 20.751 9.19941 20.8947 8.99059 20.9933C8.78178 21.0918 8.55368 21.1428 8.32277 21.1425H3.28027V24.97H8.93027C9.67541 24.9697 10.4112 24.8046 11.0851 24.4865C11.7589 24.1684 12.354 23.7051 12.8278 23.13L16.0003 19.28L19.1728 23.13C19.6465 23.7051 20.2417 24.1684 20.9155 24.4865C21.5893 24.8046 22.3251 24.9697 23.0703 24.97H28.7203V21.1425H23.6778C23.4469 21.1428 23.2188 21.0918 23.01 20.9933C22.8011 20.8947 22.6168 20.751 22.4703 20.5725L18.7028 16L22.4703 11.4275C22.6168 11.2491 22.8011 11.1054 23.01 11.0068C23.2188 10.9082 23.4469 10.8572 23.6778 10.8575Z" fill="#E6DAFE"/>
<path d="M9.53027 11.4276L11.3603 13.6476L14.0628 10.3676L12.8278 8.86759C12.354 8.29247 11.7589 7.82926 11.0851 7.51115C10.4112 7.19304 9.67541 7.02791 8.93027 7.02759H3.28027V10.8576H8.32277C8.55368 10.8573 8.78178 10.9083 8.99059 11.0069C9.19941 11.1054 9.38373 11.2491 9.53027 11.4276Z" fill="#E6DAFE"/>
</g>
<defs>
<clipPath id="clip0_6_4158">
<rect width="32" height="32" fill="white"/>
</clipPath>
</defs>
</svg>
