<svg width="32" height="32" viewBox="0 0 32 32" fill="none" xmlns="http://www.w3.org/2000/svg">
<g clip-path="url(#clip0_14366_116)">
<path d="M16 28.2979C22.792 28.2979 28.298 22.7919 28.298 15.9999C28.298 9.20791 22.792 3.7019 16 3.7019C9.20803 3.7019 3.70203 9.20791 3.70203 15.9999C3.70203 22.7919 9.20803 28.2979 16 28.2979Z" stroke="#E6DAFE" stroke-width="0.5"/>
<path fill-rule="evenodd" clip-rule="evenodd" d="M16 26C21.5228 26 26 21.5228 26 16C26 10.4772 21.5228 6 16 6C10.4772 6 6 10.4772 6 16C6 21.5228 10.4772 26 16 26ZM15.9725 19.5669V19.567L10.228 16.1714L15.9724 6.64006L15.9725 6.63989L15.9725 6.63994L15.9725 6.63989V6.63998L21.717 16.1714L16.0687 19.51L15.9725 19.5669ZM15.9724 25.3554L10.228 17.2607L15.9725 20.6545V20.6546L21.7203 17.2607L15.9725 25.3556L15.9725 25.3557L15.9724 25.3554Z" fill="#E6DAFE"/>
</g>
<defs>
<clipPath id="clip0_14366_116">
<rect width="26" height="26" fill="white" transform="translate(3 3)"/>
</clipPath>
</defs>
</svg>
