<?xml version="1.0" encoding="UTF-8"?>
<!DOCTYPE svg PUBLIC "-//W3C//DTD SVG 1.1//EN" "http://www.w3.org/Graphics/SVG/1.1/DTD/svg11.dtd">
<svg xmlns="http://www.w3.org/2000/svg" version="1.1" width="64px" height="64px" style="shape-rendering:geometricPrecision; text-rendering:geometricPrecision; image-rendering:optimizeQuality; fill-rule:evenodd; clip-rule:evenodd" xmlns:xlink="http://www.w3.org/1999/xlink">
<g><path style="opacity:1" fill="#000000" d="M -0.5,-0.5 C 20.8333,-0.5 42.1667,-0.5 63.5,-0.5C 63.5,20.8333 63.5,42.1667 63.5,63.5C 42.1667,63.5 20.8333,63.5 -0.5,63.5C -0.5,42.1667 -0.5,20.8333 -0.5,-0.5 Z"/></g>
<g><path style="opacity:1" fill="#a1f9a1" d="M 37.5,20.5 C 33.5,20.5 29.5,20.5 25.5,20.5C 25.5,19.1667 25.5,17.8333 25.5,16.5C 29.5,16.5 33.5,16.5 37.5,16.5C 37.5,17.8333 37.5,19.1667 37.5,20.5 Z"/></g>
<g><path style="opacity:1" fill="#739d70" d="M 25.5,20.5 C 29.5,20.5 33.5,20.5 37.5,20.5C 33.7016,21.4834 29.7016,21.8168 25.5,21.5C 25.5,28.1667 25.5,34.8333 25.5,41.5C 25.1667,41.5 24.8333,41.5 24.5,41.5C 24.5,41.8333 24.5,42.1667 24.5,42.5C 23.1667,42.5 21.8333,42.5 20.5,42.5C 20.5,35.1667 20.5,27.8333 20.5,20.5C 22.1667,20.5 23.8333,20.5 25.5,20.5 Z"/></g>
<g><path style="opacity:1" fill="#9ffa9f" d="M 24.5,41.5 C 23.5,41.5 22.5,41.5 21.5,41.5C 21.5,34.8333 21.5,28.1667 21.5,21.5C 22.5,21.5 23.5,21.5 24.5,21.5C 24.5,28.1667 24.5,34.8333 24.5,41.5 Z"/></g>
<g><path style="opacity:1" fill="#a0f9a1" d="M 41.5,29.5 C 41.5,33.5 41.5,37.5 41.5,41.5C 40.5,41.5 39.5,41.5 38.5,41.5C 38.8064,38.6146 38.4731,35.9479 37.5,33.5C 36.1667,33.5 34.8333,33.5 33.5,33.5C 33.5,32.1667 33.5,30.8333 33.5,29.5C 36.1667,29.5 38.8333,29.5 41.5,29.5 Z"/></g>
<g><path style="opacity:1" fill="#769f75" d="M 41.5,29.5 C 42.4849,33.6344 42.8182,37.9677 42.5,42.5C 40.8333,42.5 39.1667,42.5 37.5,42.5C 37.5,42.1667 37.5,41.8333 37.5,41.5C 37.5,38.8333 37.5,36.1667 37.5,33.5C 38.4731,35.9479 38.8064,38.6146 38.5,41.5C 39.5,41.5 40.5,41.5 41.5,41.5C 41.5,37.5 41.5,33.5 41.5,29.5 Z"/></g>
<g><path style="opacity:1" fill="#395939" d="M 24.5,41.5 C 24.8333,41.5 25.1667,41.5 25.5,41.5C 29.5,41.5 33.5,41.5 37.5,41.5C 37.5,41.8333 37.5,42.1667 37.5,42.5C 33.5,42.5 29.5,42.5 25.5,42.5C 25.5,43.8333 25.5,45.1667 25.5,46.5C 24.5655,45.4324 24.2322,44.099 24.5,42.5C 24.5,42.1667 24.5,41.8333 24.5,41.5 Z"/></g>
<g><path style="opacity:1" fill="#a6f9a4" d="M 37.5,42.5 C 37.5,43.8333 37.5,45.1667 37.5,46.5C 33.5,46.5 29.5,46.5 25.5,46.5C 25.5,45.1667 25.5,43.8333 25.5,42.5C 29.5,42.5 33.5,42.5 37.5,42.5 Z"/></g>
</svg>
