<svg width="32" height="32" viewBox="0 0 32 32" fill="none" xmlns="http://www.w3.org/2000/svg">
<g clip-path="url(#clip0_12259_131)">
<path d="M16 3C8.82034 3 3 8.82034 3 16C3 23.1797 8.82034 29 16 29C23.1797 29 29 23.1797 29 16C29 8.82034 23.1797 3 16 3ZM17.7525 25.8271C12.0102 26.7017 6.26102 22.1254 6.07458 16.2678C6.05424 15.6136 6.10847 14.9356 6.41017 14.3559C6.8339 13.5525 7.69153 13.0508 8.57288 12.8373C9.79661 12.5424 11.0949 12.7322 12.2881 13.1356C14.1831 13.7763 15.861 14.9288 17.7051 15.6983C17.8237 15.7492 17.9424 15.7966 18.061 15.8407C19.5492 16.4136 21.1559 16.6983 22.7492 16.6068C23.2915 16.5763 23.8373 16.5017 24.3729 16.5797C24.9119 16.6576 25.4542 16.9119 25.7254 17.3831C26.0508 17.9525 25.8983 18.6678 25.678 19.2814C24.4678 22.6712 21.3017 25.2814 17.7458 25.8237L17.7525 25.8271Z" fill="#E6DAFE"/>
</g>
<defs>
<clipPath id="clip0_12259_131">
<rect width="26" height="26" fill="white" transform="translate(3 3)"/>
</clipPath>
</defs>
</svg>
