<svg width="32" height="32" viewBox="0 0 32 32" fill="none" xmlns="http://www.w3.org/2000/svg">
<path d="M16 4C9.37273 4 4 9.37273 4 16C4 22.6273 9.37273 28 16 28C22.6273 28 28 22.6273 28 16C28 9.37273 22.6278 4 16 4ZM13.8149 11.8119H15.3322V13.8095H17.5931V11.8119H19.1104V17.0612H17.5931V14.8781H15.3322V17.0612H13.8149V11.8119ZM7.60967 14.4536C7.60967 12.9363 9.09685 11.7065 10.9318 11.7065C11.7813 11.7065 12.5555 11.9697 13.1427 12.4034L12.1893 13.2826C12.0741 13.1713 11.6511 12.7905 10.9969 12.7561C10.8356 12.7478 10.1353 12.7327 9.61897 13.2826C9.20905 13.7192 9.17457 14.236 9.16971 14.3433C9.16534 14.4434 9.1464 15.0864 9.64957 15.5896C10.1401 16.0801 10.7618 16.0743 10.9318 16.0699C11.6623 16.0505 12.1237 15.5964 12.2203 15.4968C12.5705 15.7994 12.9207 16.1015 13.2709 16.4041C12.6706 16.8971 11.8444 17.2011 10.9318 17.2011C9.09685 17.2011 7.60967 15.9709 7.60967 14.4536ZM13.2996 22.0211V22.0202L12.3165 20.1109H12.9469L13.9295 22.0202V22.0211H13.2996ZM14.1048 21.6787L13.7896 21.0658L14.2811 20.1109H14.9116L14.1048 21.6787ZM17.2065 22.0211H16.6469V22.0192L15.6105 20.7705V22.0202H15.051V20.1109H15.7062L16.6469 21.2445V20.1119H17.2065V22.0211ZM18.9535 22.0211L18.5271 21.5063L18.1001 22.0211H17.3697L18.1895 21.0658L17.3697 20.1109H18.0987L19.684 22.0211H18.9535ZM19.0521 20.8472L18.6975 20.4198L18.9535 20.1109H19.684L19.0521 20.8472ZM24.3908 12.8955H21.8511V13.964H24.1737V15.0325H21.8511V17.0608H20.3338V11.8114H24.3908V12.8955Z" fill="#E6DAFE"/>
</svg>
