<svg width="32" height="32" viewBox="0 0 32 32" fill="none" xmlns="http://www.w3.org/2000/svg">
<path fill-rule="evenodd" clip-rule="evenodd" d="M10.3392 10.5878C10.9107 11.1199 11.7779 11.6718 12.2706 11.8294C12.5071 11.9083 12.9013 11.9871 13.2363 12.0265C13.4925 12.0659 13.6896 12.0659 14.3203 12.0659C14.7539 12.0659 15.8181 12.0659 16.6853 12.0659C19.6219 12.0659 19.5825 12.0659 19.7993 12.0265C20.1934 11.9477 20.5088 11.8294 20.8438 11.6126C21.1 11.4353 21.2183 11.4156 21.3168 11.5535C21.3694 11.6323 21.5862 12.1973 21.9672 13.2485C22.2826 14.1748 22.3811 14.4704 22.3811 14.5492C22.3614 14.6478 22.2431 14.6083 21.6322 14.293C21.0409 13.9974 20.7847 13.8988 20.3314 13.7806C19.8387 13.6623 19.7007 13.6426 19.1883 13.6426C18.7941 13.6426 17.789 13.7215 17.5525 13.7609L17.4737 13.7806V16.1653H17.6116C18.0452 16.1456 18.3211 15.9879 18.4394 15.7317C18.4591 15.6529 18.4788 15.5544 18.4985 15.377C18.5182 15.0222 18.5576 14.9237 18.7153 14.7857C18.873 14.6281 19.0504 14.6872 19.1292 14.9237C19.1686 15.0419 19.1686 15.1602 19.1686 16.6777C19.1686 18.4121 19.1686 18.5895 19.0701 18.7866C19.0109 18.9245 18.9518 18.9639 18.8336 18.9245C18.6168 18.8851 18.5182 18.6683 18.4788 18.2544C18.4591 18.1362 18.4394 17.9982 18.4197 17.9588C18.3408 17.6829 18.0846 17.5252 17.651 17.5055L17.454 17.4858V20.7771C17.454 23.5363 17.454 24.0487 17.4934 24.0487C17.5525 24.0487 17.8678 23.8122 18.0452 23.6349C18.3014 23.3786 18.4394 23.1816 18.6956 22.6691C19.1292 21.7428 19.8387 20.1662 21.4548 16.4412C21.7701 15.7317 22.0461 15.1208 22.0855 15.0616C22.1052 15.0222 22.1446 14.9828 22.184 14.9631C22.2628 14.904 22.184 14.6675 23.6424 18.8654C23.9381 19.7326 24.3322 20.856 24.5096 21.3684C24.8644 22.3932 25.0812 23.0239 25.16 23.2013C25.2585 23.4181 25.4556 23.694 25.6724 23.9305C25.9089 24.167 25.9286 24.2064 25.8104 24.3247L25.7513 24.3838H24.0563C23.0906 24.3838 22.322 24.3838 22.3023 24.3641C22.2431 24.3444 22.2234 24.2852 22.2628 24.2064C22.2826 24.1867 22.3417 24.1276 22.4008 24.0882C22.7161 23.8714 22.9724 23.3589 22.9526 22.9845C22.9329 22.8071 22.8147 22.4326 22.7161 22.2158L22.6373 22.0779H19.8781L19.8387 22.137C19.7599 22.2356 19.5234 22.6889 19.4642 22.8662C19.3854 23.1027 19.4051 23.3392 19.4839 23.4969C19.6219 23.8122 19.8978 24.0093 20.2723 24.0684C20.4694 24.0882 20.5679 24.2852 20.4497 24.3838L20.4102 24.4429H18.9321L17.454 24.4626V25.1524L17.5919 25.2904C17.7299 25.4086 18.0452 25.8619 18.2226 26.1576C18.3014 26.3152 18.446 26.44 18.6562 26.532C18.9715 26.6897 19.1292 26.7291 19.6022 26.7291C20.0358 26.7291 20.0949 26.7488 20.1343 26.8671C20.1934 26.9853 19.9372 27.3007 19.6022 27.5569C19.2671 27.7934 18.7547 28.0299 18.4 28.1087C18.1635 28.1678 17.8087 28.1875 17.5919 28.1481C17.2766 28.089 16.9021 27.9116 16.6065 27.6554C16.5277 27.5766 16.3306 27.3992 16.1926 27.2415C15.8773 26.8868 15.759 26.7685 15.5816 26.6897C15.3846 26.5911 14.9904 26.4729 14.478 26.3349C13.7093 26.1378 13.6699 26.1181 13.7487 25.9802C13.7882 25.9013 13.9261 25.8028 14.202 25.6648C14.478 25.5072 14.5765 25.448 14.7145 25.3101C14.8327 25.1918 14.9116 25.0539 14.9707 24.8765L15.0298 24.7385V13.7017H14.8918C13.5122 13.8397 12.6254 13.7017 11.8764 13.2682C11.502 13.0317 11.0093 12.5981 10.6939 12.2039C10.1421 11.5338 9.80704 10.6863 9.98441 10.4498C10.0107 10.4104 10.037 10.3907 10.0632 10.3907C10.1224 10.3907 10.2012 10.4498 10.3392 10.5878ZM11.364 14.8448C11.3837 14.8646 11.4428 15.0025 11.4823 15.1602C11.5414 15.3376 11.8961 16.3033 12.2509 17.3478C13.0195 19.5158 13.1378 19.8705 13.5911 21.191C14.0838 22.6297 14.2218 22.9845 14.2809 23.1027C14.3794 23.2998 14.5568 23.5363 14.7736 23.7728C14.8918 23.8911 14.951 23.9699 14.951 24.029C14.951 24.0882 14.9116 24.1473 14.8327 24.1867L14.7539 24.2064H13.0787C11.5808 24.2064 11.3837 24.2064 11.364 24.1867C11.2655 24.1276 11.2852 24.029 11.4034 23.9502C11.6399 23.8319 11.837 23.5363 11.9553 23.221C11.9947 23.1027 11.9947 23.0633 12.0144 22.9056C12.0144 22.6691 11.9947 22.5509 11.837 22.1961L11.7385 21.9202H8.90044L8.76248 22.2158C8.42744 22.8662 8.40773 23.1619 8.66394 23.4772C8.74277 23.5954 8.92015 23.7531 9.01869 23.7925C9.07782 23.8319 9.17636 23.8517 9.27491 23.8911C9.35374 23.9108 9.45228 23.9305 9.45228 23.9305C9.55083 23.9699 9.60995 24.0882 9.55083 24.167C9.53112 24.1867 9.4917 24.2261 9.47199 24.2458C9.41287 24.2655 9.35374 24.2655 7.77706 24.2655C6.81134 24.2655 6.12154 24.2655 6.08212 24.2458C6.01642 24.2327 5.99015 24.1867 6.00328 24.1079C6.02299 24.029 6.0427 23.9896 6.14124 23.9896C6.51571 23.9305 6.87046 23.7334 7.20551 23.3787C7.4223 23.1224 7.69822 22.6297 8.28948 21.329C8.53912 20.7771 9.38002 18.8588 10.8122 15.5741C11.1078 14.9434 11.1275 14.904 11.1866 14.8251C11.2261 14.7857 11.2589 14.766 11.2852 14.766C11.3246 14.7791 11.3509 14.8054 11.364 14.8448ZM9.33403 20.9151C9.31432 20.9348 9.37345 20.9348 10.3786 20.9348C11.3837 20.9348 11.4428 20.9348 11.4231 20.9151C11.2655 20.4618 10.4771 18.4515 10.4771 18.4515C10.4574 18.4515 9.33403 20.8757 9.33403 20.9151ZM20.2526 21.1122C20.2526 21.1122 20.6467 21.1319 21.2971 21.1319C21.8884 21.1319 22.3614 21.1122 22.3417 21.1122C22.3417 21.0925 22.1446 20.5406 21.8884 19.8705C21.6322 19.2004 21.4154 18.6486 21.3957 18.6486C21.3957 18.6486 20.2723 21.0136 20.2526 21.1122Z" fill="#E6DAFE"/>
<path fill-rule="evenodd" clip-rule="evenodd" d="M17.0204 5.04969L17.0598 5.18765L18.2226 5.20736H19.3854L18.4591 5.87745C17.9467 6.25191 17.5131 6.56725 17.5131 6.56725C17.5131 6.58696 17.6708 7.07967 17.8678 7.67093C18.0649 8.28189 18.2226 8.77461 18.2226 8.77461C18.2226 8.77461 17.789 8.47898 17.2766 8.10452C16.7642 7.73005 16.3503 7.41472 16.3306 7.41472C16.3306 7.43443 15.9167 7.73005 15.4043 8.08481C14.3991 8.83373 14.4583 8.79432 14.4583 8.77461C14.4583 8.7549 15.1086 6.78404 15.1481 6.66579L15.1678 6.56725L14.2415 5.87745L13.2955 5.20736L15.6211 5.18765L15.6605 5.04969C15.6999 4.97086 15.8576 4.47814 16.0152 3.94601C16.1926 3.43359 16.3306 3 16.3306 3C16.3503 3 16.6853 4.00514 17.0204 5.04969Z" fill="#E6DAFE"/>
<path fill-rule="evenodd" clip-rule="evenodd" d="M10.6348 6.50812L10.6545 6.58696H11.9553L11.4231 6.96142C11.1472 7.17821 10.9107 7.33588 10.9107 7.35559C10.9107 7.35559 10.9896 7.63151 11.1078 7.96656C11.2063 8.3016 11.3049 8.57752 11.3049 8.57752C11.3049 8.57752 11.0684 8.40015 10.7728 8.20306C10.4968 7.98627 10.2603 7.8286 10.2603 7.8286C10.2603 7.8286 10.0238 7.98626 9.74791 8.18335C9.17636 8.59723 9.21578 8.57752 9.21578 8.57752C9.21578 8.55781 9.57053 7.47384 9.59024 7.39501L9.60995 7.35559L9.07782 6.96142L8.5654 6.58696H9.86616L9.88587 6.50812C9.90558 6.449 9.98441 6.19279 10.083 5.89716C10.1815 5.60153 10.2603 5.36503 10.2603 5.36503C10.2603 5.36503 10.4377 5.93658 10.6348 6.50812Z" fill="#E6DAFE"/>
<path fill-rule="evenodd" clip-rule="evenodd" d="M22.2234 6.48842L22.2431 6.56725H23.5045L22.9921 6.94171C22.7161 7.1388 22.4993 7.29647 22.4993 7.31617C22.4993 7.31617 22.5782 7.59209 22.6767 7.90743C22.795 8.24248 22.8738 8.49869 22.8738 8.49869C22.8738 8.5184 22.6373 8.34102 22.3614 8.14393C22.0855 7.92714 21.849 7.76947 21.849 7.76947C21.849 7.76947 21.6125 7.92714 21.3365 8.14393C20.7847 8.5381 20.8241 8.5184 20.8241 8.49869C20.8241 8.49869 21.1789 7.43443 21.1986 7.35559L21.2183 7.31617L20.1934 6.56725H21.4548L21.4942 6.48842C21.4942 6.42929 21.5928 6.17308 21.6716 5.87745C21.7701 5.60153 21.849 5.36503 21.849 5.36503C21.849 5.36503 22.0263 5.91687 22.2234 6.48842Z" fill="#E6DAFE"/>
</svg>
