<svg width="32" height="32" viewBox="0 0 32 32" fill="none" xmlns="http://www.w3.org/2000/svg">
<path d="M16 4C9.37273 4 4 9.37273 4 16C4 22.6273 9.37273 28 16 28C22.6273 28 28 22.6273 28 16C28 9.37273 22.6278 4 16 4ZM13.1908 11.5671H14.5798V14.9844C14.5798 15.5774 15.0607 16.0583 15.6537 16.0583C16.2467 16.0583 16.7271 15.5774 16.7271 14.9844V11.5671H18.1166V15.031C18.1166 16.2419 17.1355 17.223 15.9247 17.223H15.3822C14.1719 17.223 13.1908 16.2419 13.1908 15.031V11.5671ZM8.37657 17.0826V11.5671H12.2223V12.7182H9.72388V13.7323H12.0678V14.8091H9.72388V15.932H12.3597V17.0826H8.37657ZM13.2996 22.0211V22.0202L12.3165 20.1109H12.9469L13.9295 22.0202V22.0211H13.2996ZM14.1048 21.6787L13.7896 21.0658L14.2811 20.1109H14.9116L14.1048 21.6787ZM17.2065 22.0211H16.6469V22.0192L15.6105 20.7705V22.0202H15.051V20.1109H15.7062L16.6469 21.2445V20.1119H17.2065V22.0211ZM18.9535 22.0211L18.5271 21.5063L18.1001 22.0211H17.3697L18.1895 21.0658L17.3697 20.1109H18.0987L19.684 22.0211H18.9535ZM19.0521 20.8472L18.6975 20.4198L18.9535 20.1109H19.684L19.0521 20.8472ZM22.2601 17.0826L21.0172 14.9072H20.55V17.0826H19.2027V11.5671H21.8045C22.7851 11.5671 23.5802 12.3622 23.5802 13.3428C23.5802 13.7221 23.4267 14.0655 23.178 14.3137C22.9653 14.5269 22.6826 14.6697 22.3679 14.7061L23.8813 17.0826H22.2601Z" fill="#E6DAFE"/>
<path d="M21.5626 12.6531H20.55V13.9246H21.5626C21.7385 13.9246 21.8973 13.8532 22.0124 13.7386C22.127 13.6235 22.1984 13.4647 22.1984 13.2889C22.1984 12.9377 21.9138 12.6531 21.5626 12.6531Z" fill="#E6DAFE"/>
</svg>
