<svg width="32" height="32" viewBox="0 0 32 32" fill="none" xmlns="http://www.w3.org/2000/svg">
<path d="M13.3357 9.49832C9.18787 11.0971 8.8079 15.1915 7.61855 17.1038C6.41512 19.0387 3.65809 20.1062 4.03511 21.0923C4.41211 22.0783 7.17242 21.0193 9.35623 21.6484C11.5141 22.2701 14.5251 25.0578 18.6729 23.459C20.7859 22.6447 22.3159 20.9684 23.0195 18.9828C23.0951 18.7696 22.9537 18.5417 22.7292 18.5207C22.5898 18.5075 22.4558 18.5808 22.3929 18.7065C21.7565 19.9793 20.6647 21.0275 19.2359 21.5781C16.8772 22.4872 14.2963 21.7734 12.7114 19.9832C12.3514 19.5767 12.0435 19.114 11.8004 18.6026C11.7336 18.4618 11.6701 18.3187 11.6137 18.1707C11.5571 18.0227 11.5089 17.8737 11.4647 17.7241C12.7114 17.1406 14.15 16.5226 15.7809 15.8941C17.3799 15.2777 18.8354 14.7778 20.1311 14.3778C21.0076 14.1075 21.8112 13.8825 22.5366 13.6987C22.5892 13.6855 22.6408 13.6724 22.6923 13.6595C22.802 13.6322 22.9147 13.6911 22.9552 13.797L22.956 13.799C22.9798 13.8618 23.0005 13.925 23.0228 13.9881C23.1662 14.3956 23.2738 14.8074 23.3447 15.2202C23.3758 15.4007 23.5724 15.4991 23.7335 15.4122C24.3291 15.0912 24.8738 14.7781 25.3605 14.4769C27.1743 13.3553 28.1798 12.4041 27.9734 11.8651C27.7674 11.3257 26.3864 11.2948 24.291 11.6796C23.6251 11.8019 22.8869 11.9664 22.0913 12.17C21.9536 12.2051 21.8144 12.2417 21.6735 12.2791C21.004 12.4574 20.2978 12.6617 19.5625 12.8903C18.195 13.3155 16.7279 13.825 15.2132 14.4088C13.7962 14.9551 12.4533 15.5214 11.2216 16.0858C11.2066 13.6905 12.6488 11.426 15.0075 10.5169C16.4359 9.96634 17.9461 10.0114 19.2674 10.5301C19.3977 10.5814 19.5461 10.5459 19.6415 10.4423C19.794 10.2762 19.7472 10.0117 19.549 9.90385C17.703 8.90169 15.4488 8.68397 13.3357 9.49832Z" fill="#E6DAFE"/>
</svg>
