<?xml version="1.0" encoding="UTF-8"?>
<!DOCTYPE svg PUBLIC "-//W3C//DTD SVG 1.1//EN" "http://www.w3.org/Graphics/SVG/1.1/DTD/svg11.dtd">
<svg xmlns="http://www.w3.org/2000/svg" version="1.1" width="64px" height="64px" style="shape-rendering:geometricPrecision; text-rendering:geometricPrecision; image-rendering:optimizeQuality; fill-rule:evenodd; clip-rule:evenodd" xmlns:xlink="http://www.w3.org/1999/xlink">
<g><path style="opacity:1" fill="#084d3d" d="M -0.5,-0.5 C 20.8333,-0.5 42.1667,-0.5 63.5,-0.5C 63.5,20.8333 63.5,42.1667 63.5,63.5C 42.1667,63.5 20.8333,63.5 -0.5,63.5C -0.5,42.1667 -0.5,20.8333 -0.5,-0.5 Z"/></g>
<g><path style="opacity:1" fill="#fefffe" d="M 16.5,16.5 C 18.5,16.5 20.5,16.5 22.5,16.5C 22.5,24.5 22.5,32.5 22.5,40.5C 30.5,40.5 38.5,40.5 46.5,40.5C 46.5,42.5 46.5,44.5 46.5,46.5C 36.5,46.5 26.5,46.5 16.5,46.5C 16.5,36.5 16.5,26.5 16.5,16.5 Z"/></g>
<g><path style="opacity:1" fill="#fefffe" d="M 27.5,16.5 C 33.8333,16.5 40.1667,16.5 46.5,16.5C 46.5,18.5 46.5,20.5 46.5,22.5C 40.1667,22.5 33.8333,22.5 27.5,22.5C 27.5,20.5 27.5,18.5 27.5,16.5 Z"/></g>
<g><path style="opacity:1" fill="#fefffe" d="M 27.5,28.5 C 33.8333,28.5 40.1667,28.5 46.5,28.5C 46.5,30.5 46.5,32.5 46.5,34.5C 40.1667,34.5 33.8333,34.5 27.5,34.5C 27.5,32.5 27.5,30.5 27.5,28.5 Z"/></g>
</svg>
