<svg width="32" height="32" viewBox="0 0 32 32" fill="none" xmlns="http://www.w3.org/2000/svg">
<path d="M16 3C8.8214 3 3 8.8214 3 16C3 16.7774 3.0728 17.5366 3.2028 18.275H6.0888C6.458 18.275 6.679 18.1554 6.822 17.924L7.836 16.2444L9.1334 20.2718C9.2608 20.6774 9.5624 20.888 9.968 20.8906C10.384 20.8932 10.7272 20.6384 10.8078 20.2224L11.749 15.7868L12.7734 22.8588C12.8358 23.3242 13.062 23.5582 13.53 23.5582H13.5352C14.0006 23.5582 14.2242 23.306 14.2892 22.8432L16.377 9.0788C16.4368 8.6524 16.1378 8.2572 15.7114 8.1974C15.2876 8.1402 14.8898 8.4366 14.83 8.863L13.543 17.6874L12.6772 11.7984C12.62 11.346 12.2768 11.0652 11.9024 11.0574C11.4786 11.047 11.164 11.3122 11.0756 11.762L9.8328 17.5236L8.8396 14.4322C8.7616 14.0968 8.4626 13.8472 8.135 13.8082C7.6826 13.7536 7.4252 13.9876 7.2354 14.297L5.6988 16.715H4.781C4.7654 16.4784 4.755 16.2392 4.755 16C4.755 9.7886 9.7886 4.755 16 4.755C21.0076 4.755 25.2508 8.031 26.7042 12.555H28.5346C27.024 7.0482 21.9878 3 16 3Z" fill="#E6DAFE"/>
<path d="M28.7972 13.725H25.906C25.5368 13.725 25.3158 13.8446 25.1728 14.076L24.1588 15.7556L22.8614 11.7282C22.734 11.3226 22.4324 11.112 22.0268 11.1094C21.6108 11.1068 21.2676 11.3616 21.187 11.7776L20.2458 16.2132L19.2214 9.1412C19.159 8.6758 18.9328 8.4418 18.4648 8.4418H18.4596C17.9942 8.4418 17.7706 8.694 17.7056 9.1568L15.6178 22.9212C15.558 23.3476 15.857 23.7428 16.2834 23.8026C16.7072 23.8598 17.105 23.5634 17.1648 23.137L18.4518 14.3126L19.3176 20.2016C19.3748 20.654 19.718 20.9348 20.0924 20.9426C20.5162 20.953 20.8308 20.6878 20.9192 20.238L22.162 14.4764L23.1552 17.5678C23.2332 17.9032 23.5322 18.1528 23.8598 18.1918C24.3122 18.2464 24.5696 18.0124 24.7594 17.703L26.296 15.285H27.219C27.2346 15.5216 27.245 15.7608 27.245 16C27.245 22.2114 22.2114 27.245 16 27.245C10.9924 27.245 6.7492 23.969 5.2958 19.445H3.4654C4.976 24.9518 10.0148 29 16 29C23.1786 29 29 23.1786 29 16C29 15.2226 28.9272 14.4634 28.7972 13.725Z" fill="#E6DAFE"/>
</svg>
