<svg width="32" height="32" viewBox="0 0 32 32" fill="none" xmlns="http://www.w3.org/2000/svg">
<path d="M26.5267 17.118C26.089 14.8524 25.1001 13.0432 24.6949 12.375C23.6898 10.7125 21.2257 7.63195 18.324 6.60511C18.3564 6.37693 18.3726 6.13244 18.3726 5.85536L18.324 4.35585C18.3078 3.4757 17.2865 3.24751 16.946 3.16602C16.3949 3.03562 15.7302 2.98673 15.0656 3.00302C14.4009 3.01932 13.7038 3.14972 13.1203 3.3942C12.8122 3.52459 11.8882 3.89947 11.9044 4.73072V4.79592C11.9369 5.1545 12.0341 6.21394 12.1962 6.8822C11.6775 7.09408 11.029 7.56676 10.2347 8.30021C9.14858 9.29446 8.12729 10.5169 7.34917 11.723C6.11714 13.6137 5.33901 15.6674 5.09585 17.6233C4.78784 19.9703 5.22554 22.187 6.3603 24.2081C7.59233 26.3759 10.1861 28.9837 15.6005 29H15.6329C17.2054 29 22.3443 28.6577 25.2136 24.3711C26.6077 22.2685 27.0454 19.8399 26.5267 17.118ZM17.0514 4.38192C17.0676 4.38844 17.0952 4.40311 17.1211 4.41778C16.9023 4.61989 16.5845 4.74376 16.3089 4.8383C16.2798 4.84808 16.249 4.85623 16.2198 4.86601C16.1679 4.8823 16.116 4.8986 16.0625 4.91327C16.0366 4.91979 16.009 4.92631 15.9831 4.93283C15.6816 5.00781 15.3752 5.04692 15.0656 5.0567C14.9975 5.05833 14.931 5.05996 14.8629 5.05996C14.8564 5.05996 14.8516 5.05996 14.8451 5.05996C14.7446 5.05996 14.6441 5.05344 14.542 5.04692C14.5257 5.04692 14.5112 5.04367 14.4949 5.04367C14.4106 5.03715 14.328 5.029 14.2437 5.01759C14.2113 5.0127 14.1788 5.00944 14.1464 5.00455C14.1188 5.00129 14.0913 4.99803 14.0637 4.99314C13.7979 4.95076 13.5142 4.89534 13.2597 4.7894C13.2078 4.76821 13.1559 4.74702 13.1073 4.72094C13.1024 4.71931 13.0976 4.71768 13.0943 4.71442C13.0943 4.71442 13.0911 4.71116 13.0846 4.7079C13.0797 4.70464 13.0732 4.70139 13.0651 4.6965C13.0732 4.68998 13.0813 4.68346 13.0878 4.67857C13.6277 4.27435 14.4285 4.15048 15.0802 4.12929C15.7221 4.11625 16.4451 4.13581 17.0498 4.38355L17.0514 4.38192ZM17.0644 6.8496C17.0222 6.94087 16.972 7.02889 16.9136 7.11038C16.8925 7.14135 16.9169 7.10712 16.8861 7.14624C16.8731 7.16254 16.8569 7.17721 16.8439 7.19351C16.5083 7.60587 16.1063 7.96445 15.5584 8.07203C14.8354 8.21383 14.0313 7.84221 13.5985 7.2587C13.3278 6.89361 13.2986 6.42256 13.2224 5.98575C13.1802 5.74289 13.1413 5.50004 13.0992 5.25555C13.1154 5.26044 13.13 5.26533 13.1462 5.27185C13.1543 5.27511 13.1608 5.27674 13.1689 5.28C13.19 5.28652 13.211 5.29304 13.2321 5.29956C13.2597 5.30771 13.2856 5.31586 13.3115 5.32238C13.3278 5.32727 13.3423 5.33053 13.3569 5.33542C13.3845 5.34357 13.4121 5.35009 13.438 5.35661C13.5742 5.39409 13.7136 5.42343 13.853 5.45114C13.8676 5.4544 13.8822 5.45603 13.8984 5.45929C14.0119 5.47885 14.127 5.49515 14.2421 5.50982C14.3215 5.5196 14.4009 5.52612 14.482 5.53264C14.516 5.5359 14.5517 5.53753 14.5857 5.54079C14.6716 5.54568 14.7576 5.54894 14.8435 5.55057C14.8856 5.55057 14.9278 5.55057 14.9699 5.55057C15.0412 5.55057 15.1126 5.55057 15.1839 5.54731C15.1855 5.54731 15.1871 5.54731 15.1888 5.54731C15.3185 5.54079 15.4465 5.52938 15.5746 5.51308C15.5827 5.51308 15.5892 5.51308 15.5973 5.51145C15.7286 5.49352 15.8599 5.46907 15.9896 5.44136C16.0009 5.4381 16.0107 5.43484 16.022 5.43321C16.1225 5.41039 16.2214 5.38594 16.3187 5.35498C16.403 5.3289 16.5618 5.27511 16.7402 5.19851C16.7483 5.19525 16.7564 5.19199 16.7661 5.18873C16.8958 5.13331 17.0579 5.06159 17.2087 4.97195C17.2184 5.27837 17.2281 5.58642 17.2378 5.89285C17.2443 6.22046 17.2054 6.55296 17.066 6.85449L17.0644 6.8496ZM12.9954 4.64434C12.9954 4.64434 13.0052 4.6476 13.0068 4.65412C13.0068 4.65412 13.0068 4.65738 13.0068 4.65901C13.0035 4.65738 13.0019 4.65575 12.9987 4.65412C12.9987 4.65412 12.9971 4.65412 12.9954 4.65249C12.9906 4.64923 12.9873 4.64597 12.9873 4.64597C12.9906 4.64597 12.9922 4.64597 12.9938 4.64597L12.9954 4.64434ZM17.1973 4.3477C17.1973 4.3477 17.1941 4.34933 17.1924 4.35096C17.1924 4.35096 17.1908 4.35259 17.1892 4.35422C17.1892 4.35422 17.186 4.35585 17.1843 4.35748C17.1843 4.35748 17.1843 4.35422 17.1843 4.35259C17.1811 4.30043 17.1989 4.31347 17.2005 4.33303C17.2005 4.33955 17.2005 4.34444 17.1957 4.34933L17.1973 4.3477ZM24.4517 23.8837C21.7931 27.9096 16.865 28.1215 15.6005 28.1215C14.0119 28.1215 9.45659 27.9259 7.12221 23.7696C4.88511 19.7927 5.93882 15.506 8.07866 12.1973C9.74838 9.60577 12.1476 7.64988 12.7636 7.61728C12.8738 7.61728 13.0489 7.72649 13.3132 7.85362C13.4039 8.58871 13.4704 9.12494 13.5985 9.48026C13.7411 9.88122 13.9648 10.0882 14.4009 10.2088C15.2439 10.437 17.0919 10.0458 17.2054 9.63836C17.2151 9.60251 17.2249 9.5585 17.233 9.5096C17.3124 9.04508 17.2832 8.09648 17.254 7.7216C17.2589 7.71834 17.2654 7.71671 17.2703 7.71345C17.6593 7.51786 17.7566 7.35487 17.9187 7.42007C20.707 8.36541 23.0738 11.4459 23.9329 12.8476C24.857 14.3798 27.3859 19.4651 24.4517 23.8821V23.8837Z" fill="#E6DAFE"/>
<path d="M13.7849 19.9866C14.0929 19.9214 17.1892 16.8572 17.8538 16.7594C18.3726 16.6942 21.1284 18.699 21.8741 18.5686C22.281 18.5099 23.445 16.51 23.8551 16.0537C23.753 15.6576 23.6249 15.2697 23.4661 14.8932C23.419 14.9421 23.3639 14.9861 23.3104 15.0236C23.0916 15.1751 22.8322 15.2762 22.5858 15.3724C22.1984 15.5223 21.8012 15.6429 21.3992 15.7505C18.8978 16.4171 16.2976 16.5231 13.7249 16.3666C12.5593 16.2949 11.3922 16.1759 10.2428 15.9608C10.1699 15.9477 10.0969 15.933 10.0223 15.9184C10.1731 15.8793 10.319 15.8222 10.4568 15.7521C10.5654 15.6967 10.6692 15.6315 10.7697 15.5598C10.9918 15.5973 11.2155 15.6299 11.4392 15.6592C12.6339 15.8206 13.84 15.9037 15.0445 15.933C17.2994 15.9885 19.59 15.801 21.7574 15.1393C22.0671 15.0447 22.3767 14.9421 22.6717 14.81C22.7722 14.7644 22.8711 14.7171 22.9668 14.6617C22.9684 14.6617 22.97 14.6585 22.9716 14.6585C22.7771 14.5933 22.5712 14.5558 22.3718 14.5215C21.5045 14.3716 20.6178 14.3162 19.7392 14.2657C18.478 14.1956 17.2151 14.1679 15.9539 14.1679C15.6135 14.1679 15.2731 14.1727 14.931 14.1842C13.887 14.2184 12.843 14.3015 11.8088 14.4466C11.825 14.4221 11.8412 14.3993 11.8574 14.3749C11.9028 14.308 11.945 14.2412 11.9871 14.1744C12.039 14.088 12.0892 14.0016 12.1379 13.9136C12.2124 13.7767 12.2854 13.6398 12.3567 13.4996C12.5221 13.1736 12.7117 12.8705 12.8414 12.5233C13.0943 11.8436 13.1446 10.763 12.3826 10.3669C11.9984 10.0947 11.47 10.1827 11.0663 10.3734C10.5378 10.6228 10.1034 11.0759 9.73865 11.5242C9.23773 12.1403 8.77896 12.8167 8.50824 13.5697C8.34937 14.013 8.27642 14.4922 8.36072 14.96C8.36072 14.9632 8.36072 14.9665 8.36072 14.9681C8.38503 15.0985 8.42556 15.2338 8.48392 15.3593C8.49527 15.3838 8.50662 15.4082 8.51958 15.431C8.50337 15.4196 8.48716 15.405 8.47257 15.3919C8.25697 15.9803 7.77388 17.4179 7.62961 18.8685C8.35585 18.2442 9.55222 17.1408 9.87644 17.1653C10.2817 17.1978 13.4753 20.0502 13.7833 19.985L13.7849 19.9866ZM11.6872 10.882C11.671 10.8836 11.6645 10.8852 11.6872 10.882ZM11.1636 11.1036C11.3468 10.9863 11.4262 10.9455 11.6013 10.9015C11.6321 10.8934 11.6645 10.8885 11.6953 10.882C11.705 10.882 11.7164 10.8803 11.7277 10.8787C11.7488 10.8787 11.8201 10.882 11.8509 10.882C11.8752 10.8885 11.9239 10.8983 11.9417 10.9015C11.9482 10.9015 11.9514 10.9032 11.9563 10.9048C11.9579 10.9048 11.9595 10.9064 11.9612 10.9097C12.0001 10.9374 12.0519 10.9781 12.0098 10.9406C12.0195 10.9472 12.0292 10.9553 12.0406 10.9602C12.0568 10.9684 12.0746 10.983 12.086 10.9928C12.0795 10.9879 12.073 10.9798 12.0633 10.97C12.0909 10.9977 12.1217 11.0205 12.1476 11.0482C12.1606 11.0613 12.1719 11.0759 12.1849 11.0906C12.193 11.1004 12.1995 11.1102 12.2059 11.1216C12.2189 11.1444 12.2335 11.1688 12.2481 11.1917C12.253 11.1998 12.2643 11.2259 12.2724 11.2405C12.2789 11.2585 12.2967 11.309 12.3 11.3188C12.3113 11.3579 12.321 11.397 12.3292 11.4378C12.334 11.459 12.3356 11.4687 12.3373 11.472C12.3373 11.472 12.3373 11.4753 12.3373 11.4964C12.3405 11.5453 12.3421 11.5942 12.3421 11.6431C12.3421 11.7523 12.3308 11.8322 12.3081 11.9365C12.1978 12.4565 11.9093 12.9031 11.6694 13.3676C11.5543 13.5909 11.4246 13.8174 11.2787 14.0342C11.2155 14.1304 11.1458 14.2216 11.076 14.3129C10.9982 14.414 10.9156 14.5118 10.828 14.603C10.6983 14.74 10.5605 14.8671 10.4098 14.9763C10.1618 15.1572 9.8732 15.2957 9.56033 15.2974C9.54249 15.2974 9.52304 15.2974 9.50521 15.2974C9.39335 15.2957 9.26529 15.2827 9.18747 15.2077C9.18585 15.2061 9.18423 15.2028 9.18099 15.2012C9.14046 15.1605 9.11128 15.1067 9.09021 15.0496C9.06914 14.9975 9.05455 14.9421 9.04158 14.8932C9.03509 14.8655 9.02861 14.8377 9.02374 14.81C9.02212 14.7986 9.01888 14.7872 9.01564 14.7758C9.01402 14.7677 9.0124 14.7611 9.0124 14.7563C9.0124 14.753 9.0124 14.7481 9.0124 14.74C9.00753 14.678 9.00591 14.6177 9.00591 14.5558C9.00591 14.5313 9.00591 14.5069 9.00591 14.4824C9.01402 14.2934 9.04482 14.1418 9.10642 13.938C9.28636 13.335 9.63814 12.7922 10.0061 12.2886C10.3271 11.8501 10.7016 11.4003 11.1636 11.1036Z" fill="#E6DAFE"/>
<path d="M22.2794 19.8399C21.8904 19.9377 18.7292 17.6233 18.0484 17.6885C16.8326 17.7699 14.3361 21.4535 14.0119 21.5187C13.6228 21.5839 10.8345 18.2263 9.82945 18.0959C9.59277 18.0617 8.39316 19.4292 7.61342 20.2001C7.61666 20.2425 7.6199 20.2865 7.62639 20.3289C7.86955 22.4804 9.31232 25.675 12.8463 26.4573C16.3803 27.2397 18.666 26.3269 20.6275 25.4468C22.5729 24.5666 23.9184 22.7249 24.1129 20.9809C24.2426 19.8187 24.2912 18.3029 24.0221 16.8083C23.706 17.0365 22.5745 19.7617 22.2811 19.8399H22.2794Z" fill="#E6DAFE"/>
<path d="M23.8568 16.052C23.9216 16.303 23.9767 16.554 24.0221 16.8083C24.0383 16.7969 24.0513 16.7904 24.0643 16.792C24.1469 16.8002 24.4987 17.2158 24.8035 17.5646C25.0953 17.9004 25.3433 18.1742 25.2639 17.9655C25.1763 17.7406 24.9121 17.2484 24.6414 16.8083C24.3609 16.3519 24.074 15.9526 23.967 15.9608C23.9427 15.9673 23.9038 16.0015 23.8568 16.0537V16.052Z" fill="#E6DAFE"/>
<path d="M7.63122 18.8701C7.34266 19.1179 7.12868 19.289 7.07356 19.2858C7.01034 19.2858 6.89524 18.6582 6.80122 18.1758C6.72665 17.7977 6.66504 17.5092 6.65208 17.6884C6.63262 18.0845 6.71206 19.1211 6.7996 19.8693C6.85147 20.3207 6.90659 20.6679 6.94387 20.7038C7.00385 20.769 7.26647 20.5424 7.61176 20.2001C7.57286 19.7731 7.5842 19.3216 7.62959 18.8701H7.63122Z" fill="#E6DAFE"/>
<path d="M23.1354 14.7237C23.1354 14.7237 23.1354 14.7237 23.1321 14.7237C23.1435 14.7481 23.1386 14.7351 23.1354 14.7237Z" fill="#E6DAFE"/>
<path d="M12.0876 10.9912C12.1087 11.0124 12.1038 11.0059 12.0876 10.9912Z" fill="#E6DAFE"/>
</svg>
