<svg width="32" height="32" viewBox="0 0 32 32" fill="none" xmlns="http://www.w3.org/2000/svg">
<path d="M16 4C9.37415 4 4 9.37415 4 16C4 22.6259 9.37415 28 16 28C22.6259 28 28 22.6259 28 16C28 9.37415 22.6259 4 16 4ZM16.0136 26.5034C10.2177 26.5034 5.4966 21.7823 5.4966 16C5.4966 10.2177 10.2177 5.4966 16.0136 5.4966C19.3878 5.4966 22.5714 7.12925 24.5442 9.85034C24.7075 10.068 24.6531 10.3946 24.4354 10.5442C24.2177 10.7075 23.8912 10.6531 23.7415 10.4354C21.9456 7.97279 19.0748 6.5034 16.0272 6.5034C10.7755 6.5034 6.51701 10.7483 6.51701 15.9864C6.51701 21.2245 10.7891 25.483 16.0272 25.483C19.0884 25.483 21.9728 24 23.7687 21.5238C23.932 21.2925 24.2449 21.2381 24.4626 21.415C24.6803 21.5782 24.7483 21.8912 24.5714 22.1088C22.5986 24.8435 19.4014 26.4898 16.0272 26.4898L16.0136 26.5034ZM18.9932 18.9932C19.1701 19.102 19.2245 19.3333 19.1293 19.5102L19.102 19.5646C18.9796 19.7551 18.7211 19.7959 18.5306 19.6735L13.9048 16.585V19.3197C13.9048 19.5374 13.7143 19.7279 13.4966 19.7279C13.2789 19.7279 13.0884 19.5374 13.0884 19.3197V12.8571C13.0884 12.6395 13.2789 12.449 13.4966 12.449C13.7279 12.449 13.9048 12.6395 13.9048 12.8571V15.6054L18.9932 18.9932ZM18.9932 13.1837L15.9864 15.1973C15.9048 15.2517 15.8095 15.2653 15.7279 15.2517C15.6463 15.2381 15.5646 15.1837 15.5102 15.102L15.4558 15.0204C15.3605 14.8571 15.4014 14.6395 15.5646 14.5442L18.5714 12.5306C18.7347 12.4218 18.9524 12.4762 19.0612 12.6259L19.1156 12.7211C19.2245 12.8844 19.1701 13.102 19.0204 13.2109L18.9932 13.1837Z" fill="#E6DAFE"/>
</svg>
