<svg width="32" height="32" viewBox="0 0 32 32" fill="none" xmlns="http://www.w3.org/2000/svg">
<path d="M18 15.2475L24.4125 8.845V7.9675H12.5125V3L8.175 3.855V4.5225C8.175 4.5225 9.5125 4.5 9.5125 5.7975V7.9675H6V9.5425H9.5V18.355C9.5 19.2575 10.365 21.7975 13.5 21.7975C15.6275 21.7975 16.0225 20.7175 16.0225 20.7175V19.75C15.5946 20.1385 15.0448 20.3657 14.4675 20.3925C13.5 20.3925 12.495 19.66 12.495 18.085V9.5425H20.945L14.9025 15.62V17.105C14.9025 17.105 21.595 18.0875 21.965 23.06C22.16 25.65 20.6 28.1875 16.805 28.1875C15.0825 28.1875 13.395 27.3125 13.54 26.9375C13.8445 26.8043 14.1023 26.5832 14.2804 26.3027C14.4586 26.0221 14.549 25.6947 14.54 25.3625C14.5271 24.9101 14.3394 24.4803 14.0164 24.1633C13.6933 23.8463 13.2601 23.6668 12.8075 23.6625C11.275 23.6625 10.7475 24.855 10.7475 25.4125C10.7475 27.9125 12.9 29.6225 17.3125 29.6225C23.585 29.6225 25.13 25.39 25.13 22.8925C25.1325 17.56 18 15.2475 18 15.2475Z" fill="#E6DAFE"/>
</svg>
