<svg width="32" height="32" viewBox="0 0 32 32" fill="none" xmlns="http://www.w3.org/2000/svg">
<path d="M20.8927 18.47C20.9227 16.415 18.8052 14.97 16.0727 14.685C14.4677 14.5225 13.5952 14.065 13.5952 13.005C13.5952 11.9925 14.6252 11.24 15.7727 11.3025C17.8577 11.42 18.1602 12.71 18.1602 13.4975C18.1602 13.4975 20.4302 13.5225 20.4302 13.4975C20.4302 11.58 19.3252 9.8925 17.0677 9.395V7.125H14.8177V9.315C12.4852 9.685 11.1927 11.565 11.1702 13.165C11.1377 15.2825 12.9077 16.46 15.8452 16.885C17.6702 17.135 18.4827 17.8325 18.4652 18.7575C18.4502 19.7575 17.7977 20.715 15.9177 20.715C14.1327 20.715 13.4002 19.6125 13.4002 18.45H10.9502C10.9502 20.535 12.0652 22.065 14.8052 22.42V24.605H17.0552V22.4425C20.2352 22.04 20.8727 19.65 20.8927 18.47Z" fill="#E6DAFE"/>
<path d="M5.10286 16C5.10291 13.7171 5.81988 11.4919 7.15256 9.63848C8.48524 7.78501 10.3663 6.39687 12.5304 5.66996V3.27246C9.73839 4.03403 7.27431 5.69253 5.51773 7.99242C3.76116 10.2923 2.80957 13.106 2.80957 16C2.80957 18.8939 3.76116 21.7076 5.51773 24.0075C7.27431 26.3074 9.73839 27.9659 12.5304 28.7275V26.33C10.3663 25.6031 8.48524 24.2149 7.15256 22.3614C5.81988 20.508 5.10291 18.2828 5.10286 16V16Z" fill="#E6DAFE"/>
<path d="M19.3428 3.23486V5.62486C21.537 6.3334 23.4501 7.71935 24.807 9.58352C26.164 11.4477 26.8951 13.6941 26.8951 15.9999C26.8951 18.3056 26.164 20.552 24.807 22.4162C23.4501 24.2804 21.537 25.6663 19.3428 26.3749V28.7649C22.1639 28.0243 24.6602 26.37 26.4417 24.0606C28.2231 21.7511 29.1893 18.9166 29.1893 15.9999C29.1893 13.0832 28.2231 10.2486 26.4417 7.93916C24.6602 5.6297 22.1639 3.97544 19.3428 3.23486V3.23486Z" fill="#E6DAFE"/>
</svg>
