<svg width="32" height="32" viewBox="0 0 32 32" fill="none" xmlns="http://www.w3.org/2000/svg">
<path d="M28.3423 16.4529C28.297 16.1296 28.2391 15.8246 28.1697 15.5425C27.9094 14.4859 27.4851 13.5938 27.1102 12.8072C26.7949 12.1444 26.5225 11.5717 26.4543 11.1033C26.2858 9.94002 26.1401 8.22867 26.284 7.2351C26.3855 6.53279 26.1837 5.90157 25.756 5.58739C25.3925 5.31965 24.9081 5.30818 24.3938 5.55471C24.0263 5.73072 23.5757 5.98871 23.113 6.26104C22.9651 6.34875 22.8155 6.43762 22.6675 6.52534C21.9165 6.97252 21.1402 7.43405 20.8324 7.50514C20.5434 7.57222 20.2057 7.58598 19.9454 7.58311C19.7333 7.58139 19.5728 7.56935 19.5332 7.56591C19.383 7.53724 18.0489 7.29817 16.2991 7.28441C15.9374 7.28212 15.5578 7.289 15.1668 7.30906C14.1618 7.36181 13.6378 7.47361 13.2548 7.55559C12.7428 7.66509 12.5095 7.71555 11.6323 7.50858C10.2426 7.18121 9.00422 6.37169 7.61793 4.88393C6.50741 3.692 5.64228 3 4.52087 3H4.49163C4.35747 3.00115 4.22847 3.05332 4.13044 3.14276C4.10406 3.16684 4.07998 3.19321 4.05877 3.22245C3.72969 3.67021 2.68797 5.36494 3.09158 8.3634C3.15121 8.80542 3.22115 9.22968 3.29912 9.63846C3.3146 9.77892 3.34327 9.91996 3.38283 10.0604C3.60298 11.1251 3.86728 12.0814 4.11037 12.9608C4.46239 14.2336 4.76625 15.3327 4.8402 16.3881C4.91875 17.5021 5.40263 19.2645 6.1038 20.9867C6.24598 21.3359 6.43518 21.7762 6.66336 22.2532C7.16501 23.3024 7.85643 24.5281 8.65335 25.3451C9.56263 26.2779 10.6032 27.237 12.044 27.9359C13.518 28.6503 15.2264 29 17.2537 29C17.4257 29 17.6 28.9977 17.7771 28.9925C20.0417 28.9278 22.0564 28.308 23.7655 27.1505C25.1145 26.2366 26.2439 25.0154 27.1222 23.5202C28.3841 21.3714 28.6335 18.5392 28.3423 16.4529ZM23.4346 6.60445C23.8566 6.35678 24.2631 6.12573 24.5916 5.96864C24.8427 5.84825 25.201 5.74849 25.4843 5.9566C25.7703 6.16701 25.9062 6.64344 25.83 7.16917C25.6792 8.21147 25.8277 9.97557 26.0002 11.1692C26.0094 11.2323 26.0215 11.2959 26.0358 11.3607C25.9561 11.5384 25.8506 11.7305 25.7279 11.8486C25.6792 11.7408 25.2658 10.8373 25.154 10.6819L25.15 10.6756L24.935 10.843L24.8966 10.7776C24.8932 10.7719 24.8897 10.7662 24.8863 10.7604L24.8788 10.7478C24.876 10.7427 24.8725 10.7387 24.8697 10.7335C24.8599 10.5495 24.8731 10.2559 25.029 10.1189L25.0434 10.1063H24.3279C24.1381 9.94748 23.9254 9.81619 23.6926 9.71471C23.6743 9.47047 23.6422 9.18382 23.5912 9.06571L23.5831 9.04851L23.5774 9.06686C23.5763 9.07087 23.4473 9.47678 23.3464 9.54902C23.3223 9.52781 23.1921 9.40225 23.0603 9.09094C22.9502 8.8318 22.8195 8.39722 22.765 7.72243C22.9978 7.13133 23.3464 6.70593 23.4341 6.60388L23.4346 6.60445ZM23.2197 9.99621C23.2781 9.96525 23.4134 10.0518 23.4954 10.112C23.527 10.135 23.5407 10.1734 23.5344 10.2089C23.5315 10.2278 23.5224 10.2462 23.5075 10.2605C23.492 10.2754 23.4719 10.2903 23.4467 10.3052C23.3894 10.3385 23.3108 10.3092 23.2489 10.2748C23.1767 10.2341 23.14 10.1487 23.1635 10.0713C23.1652 10.0662 23.1669 10.061 23.1692 10.0558C23.1795 10.0306 23.1956 10.0088 23.2197 9.99621ZM24.325 10.7318C24.3285 10.7461 24.3296 10.7599 24.329 10.7731C24.3267 10.7776 24.3233 10.7817 24.3204 10.7857C24.3153 10.7937 24.3101 10.8017 24.3044 10.8092C24.3032 10.8109 24.3015 10.8126 24.3004 10.8138C24.2774 10.843 24.2511 10.8694 24.2224 10.8923C24.2218 10.8923 24.2212 10.8935 24.2207 10.894C24.2023 10.8975 24.1817 10.898 24.1605 10.8946C24.0911 10.8849 24.0085 10.839 23.9311 10.7421C23.8119 10.593 23.7133 10.5116 23.6623 10.4405C23.6267 10.3907 23.6422 10.3259 23.6869 10.2869C23.7064 10.2697 23.7316 10.2582 23.7603 10.2548C23.8434 10.2462 23.9541 10.2662 24.0441 10.3935C24.2138 10.6326 24.2866 10.5615 24.3244 10.7312L24.325 10.7318ZM24.2677 11.3555C24.3004 11.3361 24.3285 11.3148 24.3531 11.2919C24.4196 11.2311 24.4597 11.1618 24.481 11.0912C24.4964 11.0425 24.5027 10.9932 24.5027 10.9456C24.5062 10.7656 24.4282 10.6108 24.4282 10.6108C24.4506 10.6372 24.4718 10.6636 24.4918 10.6899C24.5119 10.7163 24.5314 10.7427 24.5498 10.769C24.5681 10.7954 24.5859 10.8212 24.6025 10.8476C24.6191 10.8734 24.6352 10.8992 24.6501 10.9244C24.6501 10.9244 24.6501 10.9244 24.6501 10.925C24.6501 10.9256 24.6512 10.9267 24.6512 10.9273C24.6575 10.9445 24.6856 11.0242 24.6816 11.1165C24.6776 11.2432 24.6157 11.394 24.3646 11.4479C24.2688 11.4685 24.145 11.4748 23.9868 11.4599C24.1037 11.4347 24.1954 11.3985 24.2671 11.355L24.2677 11.3555ZM22.3906 9.73477C22.3906 9.73477 22.2576 9.82307 22.1711 9.98073C22.1258 10.0639 22.0931 10.1665 22.1 10.2857C22.1063 10.4038 22.1521 10.538 22.2616 10.6859C22.1957 10.6418 22.1332 10.597 22.0742 10.5535C22.0742 10.5535 22.074 10.5533 22.0736 10.5529C21.928 10.4119 21.881 10.2445 21.8735 10.1023C21.8724 10.0816 21.8718 10.0616 21.8724 10.0421C21.8746 9.89874 21.9125 9.7944 21.9125 9.7944C21.9463 9.78637 21.9813 9.77892 22.018 9.77204C22.0547 9.76516 22.0931 9.75943 22.1332 9.75427C22.2129 9.74395 22.2989 9.73707 22.3906 9.73477ZM6.96951 8.92582C6.84223 8.97111 6.7591 9.08864 6.75853 9.22452C6.75738 9.64935 6.77515 10.3843 6.88924 10.9726C6.69489 10.9582 6.51257 10.9256 6.4541 10.8808L5.72311 10.3259L6.10666 11.16C6.10896 11.1641 6.24885 11.4725 6.29471 11.8285C6.09233 11.7213 5.9169 11.6193 5.86931 11.574L5.57864 11.1778L5.46569 11.6634C5.45365 11.7139 5.39059 11.9977 5.38199 12.329C4.87116 11.7936 4.09088 10.8659 3.83059 9.96123C3.83002 9.96066 3.83002 9.95952 3.83002 9.95837C3.72166 9.43321 3.6242 8.88225 3.54622 8.30205C3.18102 5.58796 4.05017 4.03541 4.38843 3.54924C4.51972 3.51369 4.92276 3.47184 5.40894 4.06236C5.55399 4.23894 5.73458 4.44362 5.94327 4.68097C6.70808 5.54955 7.86331 6.86245 7.98428 7.68229C8.0892 8.39264 7.89771 9.06743 7.77101 9.41486C7.62596 9.31224 7.44192 9.16776 7.3221 9.02271C7.23553 8.9178 7.09736 8.87996 6.96951 8.92582ZM26.7266 23.288C25.8833 24.7236 24.8003 25.8955 23.508 26.7709C21.8729 27.8786 19.9403 28.472 17.764 28.5339C12.9515 28.6709 10.7867 26.8759 8.98186 25.0252C8.31451 24.3406 7.66323 23.2783 7.09793 22.1035C7.35421 21.9883 7.70737 21.7263 7.86389 21.1346C8.05996 20.391 8.49568 19.9444 8.4997 19.9404L8.92223 19.5173L8.32426 19.5494C8.1666 19.558 7.90574 19.5202 7.84783 19.4296C7.81917 19.3843 7.84095 19.2834 7.90689 19.1596C8.39765 18.2319 9.04951 17.5634 9.8447 17.1724L10.6554 16.7728L9.75125 16.7373C9.74724 16.7373 9.36483 16.7195 9.17048 16.4988C9.08104 16.3962 9.04492 16.2632 9.0604 16.0906C9.09022 15.7506 9.45141 15.0959 10.0018 14.3815C10.5109 13.7216 11.0768 13.1529 11.3772 12.9993L11.7309 12.8181L11.3967 12.6025C11.2155 12.4856 10.946 12.2465 10.9157 12.0814C10.9099 12.0498 10.9145 12.0286 10.9323 12.0034C11.0624 11.8262 11.3348 11.6204 11.5985 11.4542L11.8186 11.5728C11.872 11.6015 12.0376 11.6686 12.4195 11.6686C12.5456 11.6686 12.6861 11.6611 12.838 11.6468L12.8529 11.6451C12.9658 11.6336 13.0736 11.6198 13.1831 11.6038C13.2749 11.59 13.3758 11.5763 13.483 11.5614C13.5787 11.5482 13.6796 11.5338 13.784 11.5189C14.0982 11.4742 14.4668 11.418 14.8159 11.3429C15.3377 11.2311 15.6851 11.1056 15.9081 10.9485C16.0572 10.8441 16.1501 10.6802 16.1627 10.499C16.1753 10.319 16.1059 10.1447 15.9735 10.0214C15.884 9.93888 15.7837 9.86492 15.6731 9.79956L15.6387 9.78007C15.4907 9.69522 15.3308 9.63215 15.168 9.5817C15.0051 9.53125 14.8503 9.50143 14.6875 9.47907C14.6399 9.47277 14.5929 9.46703 14.5453 9.46245C14.4978 9.45786 14.449 9.45098 14.4014 9.45098C14.3063 9.44582 14.2174 9.44295 14.1297 9.44295C13.6332 9.44295 13.1803 9.57826 12.7841 9.84485C12.5766 9.98359 12.3822 10.1613 12.2073 10.3729C12.1145 10.4852 12.029 10.6051 11.9465 10.7369C11.923 10.7318 11.8989 10.7289 11.8743 10.7306C11.6701 10.745 11.5733 10.7381 11.5337 10.7323C11.524 10.7083 11.5131 10.6618 11.524 10.6074C11.5371 10.5391 11.579 10.4847 11.6489 10.4451C11.7647 10.3798 11.9333 10.2445 12.1661 10.0581C12.7113 9.62068 13.5352 8.96022 14.257 8.75096C14.5086 8.67815 14.7552 8.6254 14.9943 8.57438C15.579 8.44939 16.0411 8.35078 16.2418 8.02227C16.2928 7.93799 16.3226 7.84512 16.3301 7.74364C18.0942 7.76198 19.4432 8.01482 19.4593 8.01768L19.4805 8.02055C19.4931 8.0217 19.6152 8.03316 19.7975 8.0389C20.6162 8.41958 21.4045 8.93958 22.0994 9.46933C22.0128 9.48022 21.9285 9.4957 21.8466 9.51519C21.4848 9.60062 21.2761 9.73879 21.2532 9.75427L20.9763 9.94404L21.2067 10.1877C21.2107 10.1923 21.3134 10.3001 21.4945 10.4572C21.5329 10.4904 21.5731 10.5242 21.6126 10.5569C21.6574 10.5936 21.7032 10.6303 21.7491 10.6664C21.5977 10.6653 20.6466 10.659 20.2183 10.5655L20.1971 10.5609C19.7688 10.468 19.2838 10.362 19.0161 10.5976C18.9312 10.6722 18.8343 10.812 18.8556 11.054C18.8945 11.5069 19.223 11.566 19.4621 11.609C19.6364 11.6399 19.8336 11.6755 20.0481 11.8262C20.2562 11.973 20.3576 12.1204 20.407 12.2367C20.0698 12.2 19.7293 12.1863 19.3882 12.1966C16.8059 12.2751 14.4674 13.2464 12.9722 14.8625C11.7258 16.2098 11.114 17.9229 11.2035 19.816C11.2791 21.4224 12.0262 22.8907 13.3643 24.0626C14.9071 25.4133 17.143 26.2292 19.2167 26.2292C19.4329 26.2292 19.6479 26.2206 19.86 26.2022C21.4252 26.0686 22.8871 25.5217 24.0882 24.621C25.3541 23.671 26.233 22.3891 26.6286 20.9139C27.1016 19.151 26.8516 17.3198 25.9251 15.7575C25.2784 14.6682 24.3388 13.7589 23.2065 13.1282C22.6274 12.8055 22.01 12.5635 21.3718 12.407C21.4573 12.2201 21.6677 12.1238 21.9681 12C22.2588 11.8796 22.5592 11.7557 22.667 11.4587C22.6899 11.3951 22.7008 11.3372 22.7037 11.2845C22.851 11.3619 23.0001 11.4318 23.1474 11.4926C23.1875 11.5092 23.2283 11.5252 23.2695 11.5413C23.4868 11.6244 23.707 11.6909 23.9225 11.7391L23.9529 11.746H23.9552C24.231 11.805 24.5073 11.8348 24.7774 11.8348C24.7814 11.8348 24.7848 11.8348 24.7888 11.8348C25.177 12.1834 25.8455 12.8215 26.1682 13.1311C26.0851 13.2297 26.0387 13.3243 26.0306 13.3421L25.9595 13.494L26.084 13.6081C27.0328 14.4767 27.8182 16.3996 27.8991 16.602C28.1622 18.5931 27.9157 21.2608 26.7255 23.2869L26.7266 23.288ZM14.5281 9.94862C14.652 9.95206 14.7403 9.98646 14.8039 10.0335C14.8526 10.0679 14.8865 10.1109 14.9105 10.1516C14.9719 10.2588 14.8922 10.3884 14.7689 10.3843C14.7655 10.3843 14.7621 10.3843 14.7586 10.3838C14.6365 10.3775 14.4668 10.3322 14.2077 10.3115C13.7605 10.2748 13.6882 9.96697 13.9164 9.88842C14.144 9.80988 14.1171 9.93658 14.5281 9.94862ZM13.4492 10.4222C13.3534 10.4835 13.2238 10.4692 13.1516 10.3809C13.1292 10.354 13.1138 10.3224 13.1138 10.2869C13.1138 10.202 13.2944 10.1 13.4125 10.0426C13.4824 10.0088 13.5673 10.0444 13.589 10.1189C13.5965 10.1453 13.6022 10.1774 13.6034 10.2146C13.6068 10.3006 13.526 10.3729 13.4492 10.4222ZM14.5035 11.113C14.3338 11.1446 14.1606 11.1732 13.9915 11.1985C14.1606 11.1727 14.3332 11.1446 14.5035 11.113ZM15.743 10.714C15.8347 10.6498 15.88 10.5477 15.8766 10.4468C15.88 10.5477 15.8342 10.6498 15.743 10.714ZM15.778 10.2313C15.7917 10.2439 15.8038 10.2576 15.8147 10.272C15.8038 10.2576 15.7917 10.2445 15.778 10.2313ZM14.7552 11.0626C15.7378 10.2083 14.973 9.83224 14.9432 9.81791C14.9427 9.81733 14.9421 9.81733 14.9421 9.81733C14.922 9.81275 14.9002 9.80816 14.8796 9.80415C14.9002 9.80873 14.922 9.81275 14.9421 9.81733C14.9421 9.81733 14.9421 9.81733 14.9432 9.81791C15.1743 9.87352 15.356 9.94977 15.4971 10.0295H15.4976C15.5051 10.0501 15.6971 10.5724 14.7552 11.0626ZM14.1291 9.72961C13.9686 9.72961 13.8184 9.74567 13.6791 9.77376C13.8189 9.74509 13.9686 9.72961 14.1291 9.72961ZM12.4275 10.5558C12.4275 10.5558 12.2309 11.1543 12.8231 11.3601C12.4854 11.3756 12.2515 11.1469 12.1494 11.0213C12.1408 11.0104 12.1334 11.0007 12.1265 10.9921C12.2028 10.8602 12.3014 10.7077 12.4269 10.5558H12.4275ZM12.4619 11.3813C12.4481 11.3813 12.4332 11.3819 12.42 11.3819C12.4166 11.3819 12.4137 11.3819 12.4109 11.3819C12.4269 11.3819 12.4447 11.3819 12.4619 11.3819V11.3813Z" fill="#E6DAFE"/>
</svg>
