<svg width="32" height="32" viewBox="0 0 32 32" fill="none" xmlns="http://www.w3.org/2000/svg">
<path d="M24.4899 22.2023L21.1773 23.9559L13.4333 23.1332L14.0914 22.0508L12.9945 21.4013C12.4461 21.0766 12.6435 18.2406 12.6435 18.2406C8.95795 13.1316 10.9543 9.84096 10.9543 9.84096C10.0987 13.781 15.7367 15.5995 15.7367 15.5995C14.6179 13.0883 16.1536 11.7677 16.1536 11.7677C17.3821 14.7119 18.83 14.8201 18.83 14.8201L20.2559 14.9284L22.1207 13.0666C20.5631 10.6636 22.4278 8.80183 22.4278 8.80183C23.3272 12.2873 25.2139 12.2873 25.2139 12.2873L28 12.3739L19.4223 3.90924C18.1938 2.69692 16.1755 2.69692 14.925 3.90924L4.92139 13.781C3.69287 14.9933 3.69287 16.985 4.92139 18.219L14.925 28.0908C16.1536 29.3031 18.1718 29.3031 19.4223 28.0908L24.9068 22.6786L24.4899 22.2023Z" fill="#E6DAFE"/>
<path d="M18.8076 17.7861C19.2244 17.6345 19.7729 17.3315 20.1897 16.7686C20.2775 16.6387 20.431 16.7253 20.4749 16.8768C20.5846 17.3531 20.782 18.2624 18.8515 18.0892C18.6979 18.0675 18.6541 17.851 18.8076 17.7861Z" fill="#E6DAFE"/>
</svg>
