<svg width="32" height="32" viewBox="0 0 32 32" fill="none" xmlns="http://www.w3.org/2000/svg">
<path d="M18.6492 19.5267V19.521C17.1463 19.4909 15.9372 18.2879 15.9372 16.8056C15.9372 18.2847 14.7324 19.4859 13.2339 19.5204V19.5267C14.7324 19.5612 15.9372 20.7624 15.9372 22.2415C15.9365 20.7599 17.1463 19.5568 18.6492 19.5267Z" fill="#E6DAFE"/>
<path d="M18.0934 6H13.9066C13.3667 6 12.8724 6.30234 12.6249 6.78407L3.09098 25.3414C2.81353 25.8821 3.20409 26.5263 3.81023 26.5263H8.62439C9.1693 26.5263 9.66736 26.2184 9.91228 25.7304L12.4731 20.6289C12.8212 19.9351 12.8156 19.1159 12.4575 18.4272L10.6147 14.8819C10.1135 13.9178 10.8109 12.7637 11.8944 12.7649L20.1149 12.7737C21.1985 12.775 21.8933 13.9304 21.3903 14.8932L19.3163 18.8651C19.1001 19.2784 19.0963 19.7714 19.3057 20.1885L22.0877 25.731C22.3326 26.219 22.8307 26.527 23.3756 26.527H28.1898C28.7959 26.527 29.1865 25.8828 28.909 25.3421L19.375 6.78407C19.1276 6.30234 18.6327 6 18.0934 6Z" fill="#E6DAFE"/>
</svg>
