<svg width="32" height="32" viewBox="0 0 32 32" fill="none" xmlns="http://www.w3.org/2000/svg">
<g clip-path="url(#clip0_6_4874)">
<path d="M25.812 8.04331C22.6084 7.55193 19.3867 5.87062 16.1469 3C14.4656 4.46271 12.8199 5.61168 11.2084 6.44752C9.59815 7.28275 8.02223 7.80485 6.48184 8.0132C5.4256 13.0005 6.10607 17.479 8.52144 21.4498C10.2027 24.2126 12.7247 26.7292 16.0867 29C22.7752 24.9316 26.1191 19.2657 26.1191 12.0021C26.1191 10.7315 26.0168 9.41208 25.812 8.04331ZM12.4977 21.295C12.2935 21.295 12.1297 21.2914 12.0057 21.2848C11.8822 21.2782 11.7985 21.2679 11.7552 21.2547C11.7118 21.2408 11.6733 21.1969 11.6414 21.1222C11.6089 21.0475 11.5824 20.9421 11.5613 20.8067C11.542 20.6748 11.5215 20.5604 11.5011 20.464C11.4806 20.3677 11.4595 20.2894 11.4378 20.228C11.3945 20.1063 11.3258 20.013 11.2313 19.9479C11.1843 19.9154 11.1241 19.8913 11.0506 19.8751C10.9772 19.8588 10.8904 19.851 10.7905 19.851C10.7248 19.851 10.652 19.857 10.5713 19.8684L10.5743 19.7667V19.7649C10.705 19.7613 10.8188 19.7546 10.9169 19.745C11.0151 19.7354 11.0976 19.7221 11.1638 19.7065C11.3041 19.6727 11.4228 19.5987 11.5215 19.4855C11.6191 19.3716 11.6685 19.2361 11.6685 19.0802C11.6685 18.9977 11.6552 18.9206 11.6275 18.8483C11.6004 18.7767 11.5595 18.7104 11.5047 18.649C11.4505 18.5876 11.3794 18.5418 11.2921 18.5105C11.2048 18.4804 11.1012 18.4647 10.9808 18.4647C10.9645 18.4647 10.9477 18.4647 10.9314 18.4654C10.8134 18.4696 10.6851 18.4864 10.5466 18.5171C10.5382 18.7177 10.5315 18.8983 10.5273 19.0585C10.5231 19.2181 10.5207 19.3572 10.5207 19.4764C10.5207 19.5583 10.5261 19.6547 10.5358 19.7655L10.5315 19.8745C10.5243 19.9666 10.5207 20.0623 10.5207 20.1617C10.5207 20.349 10.5219 20.5031 10.5243 20.6248C10.5273 20.7458 10.5309 20.8338 10.5358 20.8892C10.546 20.9987 10.5773 21.0794 10.6291 21.1294C10.6803 21.1806 10.767 21.2065 10.888 21.2095C10.9416 21.2113 10.9675 21.224 10.9675 21.2475C10.9675 21.2764 10.9356 21.2902 10.8712 21.2902H9.78965C9.72702 21.2902 9.69571 21.2764 9.69571 21.2475C9.69571 21.2222 9.7198 21.2095 9.76917 21.2095C9.88058 21.2095 9.95766 21.1933 10.0004 21.1595C10.0438 21.1258 10.0775 21.0734 10.1022 21.0024C10.1148 20.9674 10.1239 20.9181 10.1299 20.8536C10.1365 20.7892 10.1395 20.7109 10.1395 20.6182L10.1347 20.1719L10.1371 19.4921C10.1371 19.3186 10.1353 19.1741 10.1317 19.0591C10.1281 18.9441 10.1221 18.8586 10.1142 18.802C10.0992 18.69 10.0715 18.6147 10.0323 18.5756C10.0125 18.5563 9.97994 18.5394 9.93417 18.5244C9.88901 18.5093 9.8306 18.4961 9.75894 18.4852C9.72823 18.481 9.71317 18.4678 9.71317 18.4473C9.71317 18.4232 9.74388 18.4112 9.80531 18.4112L10.9296 18.3877L11.1012 18.3841C11.4589 18.3841 11.7185 18.4533 11.8792 18.59C11.9599 18.6587 12.0201 18.7345 12.0611 18.8188C12.1008 18.9025 12.1213 18.9935 12.1213 19.0928C12.1213 19.2187 12.0888 19.3325 12.0238 19.4367C11.9587 19.5397 11.8816 19.6155 11.7925 19.6619C11.748 19.6854 11.6895 19.7101 11.6179 19.7372C11.5456 19.7637 11.4607 19.792 11.362 19.8215C11.4637 19.8654 11.5498 19.91 11.6209 19.9558C11.6914 20.0015 11.7468 20.0485 11.7865 20.0967C11.8262 20.1448 11.8606 20.2057 11.8901 20.2797C11.919 20.3532 11.9431 20.4399 11.9611 20.5399C11.9852 20.6712 12.0135 20.7808 12.0472 20.8693C12.081 20.9578 12.1201 21.0246 12.1635 21.0698C12.2508 21.1601 12.3652 21.2083 12.5067 21.2143C12.5459 21.2173 12.5657 21.2312 12.5657 21.2565C12.5657 21.2818 12.5428 21.295 12.4977 21.295ZM12.5314 16.8401C12.4814 16.881 12.4296 16.9039 12.376 16.9105C12.3754 16.9045 12.3754 16.8985 12.3754 16.8918C12.3754 16.7931 12.4206 16.6811 12.5103 16.5564C12.579 16.4613 12.7253 16.5847 12.6753 16.6666C12.6296 16.7419 12.5814 16.7997 12.5314 16.8401ZM12.7717 9.9685C12.8289 10.0745 12.8945 10.1546 12.968 10.2094C13.0035 10.2359 13.0192 10.2618 13.0192 10.2834C13.0192 10.3274 12.9541 10.3515 12.8614 10.3166C12.7687 10.2816 12.6747 10.2082 12.579 10.0968C12.5278 10.0372 12.4959 10.0131 12.479 10.0131C12.4495 10.0131 12.467 10.0895 12.5091 10.1757C12.5627 10.2859 12.6187 10.3768 12.6765 10.4496C12.6976 10.4761 12.7066 10.5008 12.7066 10.5213C12.7066 10.5815 12.6272 10.6026 12.5489 10.5171L12.4037 10.3593L12.0966 10.0263C12.0978 10.045 12.0984 10.0624 12.0984 10.0793C12.0984 10.2684 12.0232 10.3455 11.8726 10.3087L12.0491 10.5044C12.0828 10.5418 12.0954 10.5653 12.0954 10.5803C12.0954 10.6134 12.0364 10.608 11.9979 10.6231C11.9202 10.6538 11.8648 10.699 11.8323 10.7574C11.8202 10.779 11.8148 10.8007 11.8148 10.8188C11.8148 10.8724 11.8618 10.8977 11.916 10.8182C11.9479 10.7712 11.984 10.7447 12.0063 10.7447C12.0304 10.7447 12.0394 10.7748 12.0129 10.8435C11.9696 10.9555 11.922 11.0446 11.8696 11.1115C11.8479 11.1392 11.8395 11.159 11.8395 11.1723C11.8395 11.2174 11.9322 11.1958 11.9629 11.1596C11.987 11.1199 11.9997 11.106 12.0069 11.106C12.0238 11.106 12.0129 11.1843 12.0725 11.1795C12.1189 11.1753 12.152 11.1247 12.1713 11.0283C12.1719 11.0259 12.1719 11.0241 12.1719 11.0217V11.0139C12.1725 10.9531 12.1087 10.888 12.1966 10.9109C12.1653 10.8567 12.1496 10.814 12.1496 10.7833C12.1496 10.7447 12.1743 10.7248 12.2225 10.723C12.2315 10.5851 12.249 10.4888 12.2749 10.4346C12.2935 10.3948 12.3116 10.3792 12.3285 10.3792C12.3399 10.3792 12.3507 10.3864 12.3616 10.3979C12.3718 10.4099 12.3821 10.4256 12.3917 10.4436C12.4742 10.596 12.5338 10.6996 12.5699 10.755C12.5886 10.7833 12.6073 10.8194 12.6073 10.8435C12.6073 10.8688 12.5874 10.882 12.5278 10.8621C12.4591 10.8224 12.408 10.7821 12.3742 10.7399C12.3441 10.7026 12.323 10.6887 12.3098 10.6887C12.2785 10.6887 12.2851 10.7604 12.302 10.7941C12.3772 10.932 12.4417 11.0338 12.4953 11.1C12.5236 11.1349 12.535 11.1596 12.535 11.1759C12.535 11.2138 12.4712 11.2012 12.4164 11.1464L12.302 11.0314C12.2785 11.0079 12.258 10.9976 12.2436 10.9976C12.2291 10.9976 12.2201 11.0085 12.2201 11.0259C12.2201 11.0386 12.2243 11.0542 12.2339 11.0729C12.2893 11.1783 12.3411 11.2686 12.3893 11.3433C12.4375 11.4186 12.482 11.4782 12.523 11.5227C12.5374 11.5384 12.5434 11.5516 12.5434 11.5613C12.5434 11.595 12.4736 11.5926 12.4357 11.5402L12.308 11.3644C12.2833 11.3306 12.2634 11.3162 12.249 11.3162C12.2231 11.3162 12.2159 11.3614 12.2369 11.4174C12.2682 11.4993 12.2978 11.5619 12.3255 11.6052C12.3453 11.636 12.3532 11.6631 12.3532 11.6829C12.3532 11.7221 12.32 11.7335 12.2755 11.6902L12.1165 11.4914C12.0936 11.4625 12.0713 11.4505 12.0545 11.4505C12.022 11.4505 12.0087 11.4969 12.0424 11.5571C12.0882 11.6384 12.131 11.6956 12.1713 11.7287C12.1984 11.751 12.2092 11.7708 12.2092 11.7859C12.2092 11.8244 12.1346 11.8287 12.0665 11.7498C11.978 11.6486 11.8943 11.5258 11.8148 11.3824C11.7991 11.3547 11.7781 11.3403 11.7618 11.3403C11.7431 11.3403 11.7311 11.3608 11.7449 11.4041L11.8094 11.5492C11.8262 11.5872 11.8365 11.6281 11.8365 11.6582C11.8365 11.7142 11.8016 11.7335 11.7112 11.6299C11.592 11.5161 11.5155 11.4065 11.4812 11.3023C11.321 11.489 11.1705 11.5818 11.0302 11.5818C11.0229 11.5818 11.0151 11.5818 11.0073 11.5812C10.9976 11.5818 10.9886 11.5818 10.9802 11.5818C10.9121 11.5818 10.9013 11.5619 10.9471 11.5209C11.0452 11.3963 11.0994 11.25 11.109 11.0801C10.9826 11.253 10.8591 11.4053 10.7387 11.5372C10.7104 11.5685 10.6887 11.5806 10.6731 11.5806C10.6363 11.5806 10.6381 11.5071 10.6767 11.4523C10.7369 11.3668 10.9043 10.9723 10.9043 10.7748C10.9043 10.7086 10.8856 10.664 10.8369 10.6616C10.7676 10.658 10.7453 10.6436 10.7453 10.6225C10.7453 10.5863 10.8104 10.5309 10.8152 10.4767C10.8218 10.4021 10.8254 10.331 10.8254 10.2624C10.8254 10.0402 10.7893 9.85047 10.7176 9.6927C10.6478 9.57889 10.5598 9.49037 10.4539 9.42653C10.3665 9.37414 10.2666 9.33922 10.1546 9.32115C10.1311 9.31694 10.1064 9.31392 10.0817 9.31152C9.98837 9.30248 9.95224 9.28622 9.95224 9.26996C9.95224 9.24829 10.0191 9.22721 10.1004 9.22781C10.2967 9.22962 10.4689 9.28502 10.6171 9.39462C10.7652 9.50422 10.8892 9.66801 10.9892 9.8854C11.0097 9.9408 11.0362 9.96609 11.0548 9.96609C11.0777 9.96609 11.0898 9.92815 11.0675 9.86011C11.0422 9.78122 11 9.69872 10.9422 9.6114C10.8838 9.52409 10.8098 9.43195 10.7188 9.33621C10.6682 9.28261 10.6544 9.21577 10.6544 9.1423C10.6544 9.09654 10.6598 9.04776 10.6646 8.99778C10.6845 8.79123 10.7839 8.49495 10.9368 8.49495C10.9994 8.49495 11.0717 8.54493 11.1506 8.6732C11.1711 8.70632 11.1873 8.73884 11.2006 8.77015C11.212 8.79785 11.2168 8.82314 11.2168 8.84482C11.2168 8.92371 11.153 8.95382 11.1084 8.84904L11.0856 8.79424C11.0645 8.74546 11.0392 8.72318 11.0199 8.72318C10.9928 8.72318 10.9772 8.76593 11.0012 8.84181C11.0157 8.88818 11.0235 8.93214 11.0235 8.97309C11.0235 9.07004 10.9826 9.15133 10.9001 9.21878C10.8615 9.25009 10.8447 9.27599 10.8447 9.29285C10.8447 9.32055 10.8898 9.32597 10.9597 9.29706C11.0356 9.26515 11.1072 9.21456 11.1735 9.14531C11.1253 9.42653 11.2831 9.56564 11.6468 9.56263C12.1231 9.54215 12.6187 9.47892 13.1336 9.37414C13.2564 9.35548 13.3702 9.34644 13.475 9.34644C13.4985 9.34644 13.5214 9.34704 13.5443 9.34765C13.7027 9.35427 13.8388 9.38378 13.952 9.43677C13.9881 9.45363 14.0013 9.46568 14.0013 9.47471C14.0013 9.49097 13.9526 9.49458 13.9219 9.49518L13.6412 9.49819C13.6069 9.49819 13.5666 9.51566 13.5666 9.53854C13.5666 9.54637 13.5708 9.5542 13.581 9.56263L13.4907 9.56504C13.4527 9.56624 13.4118 9.5837 13.4118 9.60117C13.4118 9.6108 13.425 9.62044 13.4606 9.62646C13.4979 9.64513 13.513 9.66259 13.513 9.67704C13.513 9.69993 13.4756 9.71378 13.4287 9.70775C13.3895 9.70233 13.3546 9.69932 13.3245 9.69932C13.1619 9.69932 13.1209 9.7764 13.2016 9.93117C13.2185 9.96248 13.2643 9.98356 13.2643 9.99861C13.2643 10.0082 13.2444 10.0155 13.1842 10.0209C13.1667 10.0227 13.1498 10.0233 13.133 10.0233C13.018 10.0233 12.918 9.98476 12.8349 9.90768C12.809 9.88359 12.7873 9.87275 12.7729 9.87275C12.7452 9.87275 12.7404 9.91009 12.7717 9.9685ZM10.4021 11.3818C10.3419 11.3764 10.284 11.3734 10.2274 11.3734C10.0323 11.3734 9.8595 11.4077 9.70896 11.4758C9.67704 11.4975 9.61441 11.5167 9.52047 11.5348C9.42713 11.5529 9.30188 11.5691 9.14651 11.5836C9.13025 11.5848 9.1146 11.586 9.10075 11.586C8.99838 11.586 8.95683 11.548 8.96706 11.4999C8.97429 11.4667 9.0056 11.4282 9.05799 11.3939C9.09473 11.3692 9.14651 11.3463 9.21275 11.3252C9.27899 11.3048 9.36029 11.2855 9.45604 11.268C9.51204 11.2578 9.5554 11.2548 9.59153 11.2548C9.77761 11.2548 9.77038 11.3439 10.2738 11.0693C10.1022 11.0235 9.95405 11 9.83 11C9.70595 11 9.61261 11.0217 9.53673 11.0645C9.49277 11.0892 9.46989 11.1012 9.44821 11.1012C9.4193 11.1012 9.39341 11.0801 9.32536 11.0368C9.1977 10.9549 9.07606 10.8314 8.96044 10.667C8.98874 10.6737 9.01464 10.6767 9.03752 10.6767C9.14712 10.6767 9.19529 10.6044 9.18204 10.4599C9.27899 10.4804 9.39401 10.6189 9.49638 10.6189C9.51927 10.6189 9.54095 10.6122 9.56202 10.596C9.60839 10.5592 9.60116 10.5394 9.61803 10.5394C9.62887 10.5394 9.64814 10.5466 9.6939 10.5623C9.89323 10.6303 10.0636 10.7044 10.2064 10.7851C10.3136 10.8453 10.4225 10.8892 10.4225 11.0103C10.4225 11.0217 10.4219 11.0332 10.4195 11.0452C10.4177 11.0573 10.4153 11.0705 10.4111 11.0844C10.3894 11.2 10.3864 11.2987 10.4021 11.3818ZM8.83639 10.4918C8.83338 10.4755 8.83217 10.4599 8.83217 10.4454C8.83217 10.3244 8.93214 10.2816 8.99657 10.4039C9.01945 10.446 9.04595 10.4737 9.07666 10.4852C9.1429 10.5111 9.13025 10.5906 9.05739 10.6002C9.03932 10.6026 9.02246 10.6038 9.00681 10.6038C8.91768 10.6038 8.86048 10.5665 8.83639 10.4918ZM9.14832 9.51445C9.2531 9.40666 9.3356 9.28923 9.39582 9.16278C9.45604 9.03571 9.49398 8.89962 9.50963 8.75389C9.59093 8.89721 9.6385 9.0315 9.65235 9.15675C9.66921 9.30248 9.6668 9.31573 9.54215 9.38619C9.43315 9.44761 9.30188 9.49037 9.14832 9.51445ZM10.4695 11.0542C10.4858 10.9808 10.5129 10.923 10.4376 10.8507C10.3003 10.7194 10.1365 10.6098 9.94622 10.5219C9.75593 10.434 9.53974 10.3684 9.29706 10.3244C9.34764 10.2076 9.40907 10.104 9.48073 10.0137C9.55179 9.92273 9.63368 9.84505 9.72582 9.78002C9.82156 9.71317 9.93417 9.63308 10.045 9.63308C10.101 9.63308 10.1564 9.65356 10.2088 9.70715C10.1504 9.73004 10.1064 9.75954 10.0769 9.79688C10.0474 9.83421 10.0323 9.87878 10.0317 9.93357C10.0317 9.93357 10.0522 9.92876 10.0919 9.92876C10.104 9.92876 10.1184 9.92936 10.1341 9.93056C10.1305 9.91731 10.1281 9.90768 10.1281 9.89985C10.1281 9.88841 10.1323 9.87938 10.1401 9.86673C10.1558 9.84144 10.1877 9.82819 10.213 9.82819C10.2533 9.82819 10.2786 9.86071 10.2009 9.92876L10.5888 9.93297C10.4779 9.80471 10.3623 9.70053 10.2425 9.62044C10.1901 9.57768 10.1335 9.55661 10.0727 9.55661C10.0088 9.55661 9.9408 9.58009 9.86733 9.62706C9.83662 9.64693 9.80651 9.65536 9.78062 9.65536C9.68668 9.65536 9.64211 9.54456 9.76677 9.46206C9.86071 9.39943 9.95706 9.36812 10.0558 9.36812C10.0859 9.36812 10.1154 9.37113 10.1455 9.37655C10.2365 9.39341 10.3286 9.43557 10.4231 9.50361C10.6195 9.66921 10.7176 9.88118 10.7176 10.1395C10.7176 10.1738 10.7158 10.2088 10.7122 10.2449C10.705 10.3009 10.6863 10.3292 10.6562 10.3292C10.6309 10.3292 10.5978 10.3099 10.5568 10.2708C10.5297 10.2449 10.4972 10.2329 10.4683 10.2329C10.3997 10.2329 10.3473 10.2997 10.4087 10.4159C10.4515 10.4966 10.5376 10.6056 10.667 10.7417C10.7267 10.8116 10.7158 10.9555 10.6357 11.1723C10.6158 11.2259 10.5821 11.2614 10.5472 11.2614C10.5213 11.2614 10.4942 11.2409 10.4713 11.1933C10.4635 11.1681 10.4611 11.1452 10.4611 11.1235C10.4611 11.0988 10.4647 11.0759 10.4695 11.0542ZM13.6214 10.001C13.8219 9.77219 14.0585 9.61863 14.2802 9.61863C14.4692 9.61863 14.6475 9.73004 14.7842 10.0022C14.848 10.1293 14.8878 10.2798 14.904 10.4527C14.9648 11.1145 14.6764 12.1123 14.0381 13.4449C13.9785 13.569 13.9158 13.6165 13.8544 13.6165C13.7472 13.6165 13.6461 13.4714 13.5792 13.3371L13.4359 13.0276C13.3949 12.9337 13.3528 12.8319 13.313 12.7301C13.2221 12.4977 13.145 12.2634 13.1288 12.1153C13.1089 11.9383 13.0987 11.769 13.0987 11.6077C13.0987 10.9344 13.2733 10.3991 13.6214 10.001ZM23.1967 14.7974C23.1967 14.886 23.1636 14.9715 23.1359 15.0865C23.0101 15.608 22.8992 16.0132 22.8029 16.3023C22.7059 16.5913 22.624 16.7642 22.5566 16.8202C22.494 16.8611 22.4362 16.878 22.385 16.878C22.1369 16.878 22.0562 16.4793 22.4404 16.5191L22.5078 14.8215L22.7355 14.9913C22.7692 15.0166 22.7969 15.0269 22.8167 15.0269C22.8703 15.0269 22.8691 14.9516 22.7975 14.8944C22.4518 14.6168 21.9568 14.2326 21.4889 13.8273C21.021 13.4214 20.5808 12.9945 20.3442 12.6308L19.2163 10.8941C19.0531 10.7387 18.9718 10.5327 18.9718 10.2762C18.9718 10.2298 18.9742 10.1829 18.9796 10.1335C18.9886 10.0468 19.017 9.98596 19.1037 9.87817C19.1127 9.86914 19.1217 9.86011 19.1308 9.85107C19.2042 9.78122 19.2879 9.71257 19.3421 9.5837C19.3867 9.47651 19.3981 9.4452 19.4487 9.4452C19.4535 9.4452 19.4584 9.4452 19.4638 9.4458C19.5005 9.44942 19.5553 9.46327 19.6462 9.47772C19.8305 9.50662 19.9768 9.55661 20.1141 9.62465C20.2508 9.6921 20.3785 9.77761 20.526 9.87757C20.8458 10.0944 21.1156 10.4509 21.3348 10.9477C21.554 11.4445 21.7226 12.081 21.8418 12.8578C21.8731 13.0643 21.8731 13.1336 21.9002 13.1914C21.9279 13.2498 21.9827 13.2962 22.126 13.457L23.1154 14.5674C23.1763 14.6559 23.1967 14.7276 23.1967 14.7974ZM22.0634 16.7335C22.0634 16.8232 22.0339 16.8593 22.0014 16.8593C21.9628 16.8593 21.9195 16.8105 21.9117 16.7389C21.9093 16.7166 21.908 16.6949 21.908 16.6744C21.908 16.5088 21.9899 16.4101 22.1525 16.3782C22.2778 16.3794 22.2471 16.4197 22.1802 16.4685C22.102 16.5257 22.0634 16.6142 22.0634 16.7335ZM21.7214 14.8775L21.2848 16.1084C21.2553 16.1927 21.2149 16.2343 21.1866 16.2343C21.1553 16.2343 21.1385 16.1831 21.1662 16.0837L21.5208 14.8065C21.5516 14.6945 21.6208 14.636 21.6744 14.636C21.737 14.636 21.7798 14.7143 21.7214 14.8775ZM18.3383 15.402C18.434 15.5122 18.5189 15.5971 18.5936 15.6568C18.6629 15.7122 18.6803 15.8163 18.6803 15.9241C18.6803 15.9855 18.6749 16.0482 18.6695 16.103C18.6466 16.3463 18.5129 16.4456 18.3865 16.4456C18.2209 16.4456 18.0679 16.2728 18.1968 16.0277C18.2028 16.0163 18.2058 16.0048 18.2058 15.9928C18.2058 15.9729 18.1968 15.9524 18.1793 15.9314C18.0492 15.7091 17.9643 15.5285 17.9252 15.3894C17.9222 15.3713 17.921 15.3539 17.921 15.337C17.921 15.2382 17.9716 15.169 18.0739 15.1286C18.1799 15.0744 18.3004 15.0329 18.4352 15.0046C18.4744 15.1925 18.5936 15.405 18.7923 15.6429C18.7947 15.6495 18.7959 15.6555 18.7959 15.6604C18.7959 15.682 18.7725 15.6875 18.7255 15.6772C18.5617 15.5447 18.4491 15.4364 18.3877 15.352C18.3732 15.3466 18.3612 15.3442 18.3521 15.3442C18.3274 15.3442 18.3226 15.3635 18.3383 15.402ZM16.2427 16.2409C16.2511 16.2589 16.2547 16.2764 16.2547 16.2915C16.2547 16.3336 16.2246 16.3523 16.1897 16.2884C16.0711 16.0693 15.9163 15.8645 15.726 15.6742C15.7109 15.6592 15.6905 15.6525 15.673 15.6525C15.6435 15.6525 15.6248 15.6724 15.6628 15.7103C15.7838 15.8296 15.8886 15.9434 15.9759 16.0512C16.0632 16.1596 16.1331 16.262 16.1861 16.3583C16.2084 16.3992 16.2186 16.4366 16.2186 16.4703C16.2186 16.6492 15.941 16.725 15.7772 16.7076C15.6303 16.6913 15.5586 16.6293 15.5586 16.56C15.5586 16.4866 15.6393 16.4041 15.7983 16.3595C15.8603 16.342 15.8862 16.3113 15.8862 16.2884C15.8862 16.2595 15.8428 16.2421 15.7784 16.2806C15.7417 16.3023 15.7212 16.3174 15.6977 16.3174C15.6772 16.3174 15.6549 16.3053 15.6188 16.2764C15.4978 16.1795 15.3858 16.0638 15.2846 15.9301C15.243 15.8753 15.2166 15.8392 15.2166 15.7983C15.2166 15.7645 15.2346 15.7284 15.2786 15.676C15.3141 15.6333 15.3635 15.5971 15.4261 15.5664C15.4887 15.5357 15.5658 15.511 15.6555 15.4924C15.6971 15.4839 15.723 15.4791 15.7447 15.4653C15.7664 15.452 15.7832 15.4303 15.8055 15.3876C15.841 15.3207 15.8585 15.2292 15.8585 15.113C15.8585 15.0708 15.8567 15.0263 15.8519 14.9781C15.8488 14.9588 15.847 14.9408 15.847 14.9251C15.847 14.8571 15.8772 14.8251 15.938 14.8318C15.9819 14.8293 15.9982 14.8227 15.9982 14.8137C15.9982 14.7914 15.8946 14.7553 15.8856 14.736C15.8735 14.7119 15.8651 14.671 15.8591 14.6132C15.8513 14.5722 15.8404 14.5566 15.8296 14.5566C15.8115 14.5566 15.7947 14.6005 15.7983 14.6433C15.8049 14.7252 15.8079 14.801 15.8079 14.8709C15.8079 15.0865 15.7778 15.2443 15.7182 15.3448C15.6869 15.3972 15.6543 15.4201 15.6194 15.4201C15.5845 15.4201 15.5435 15.3954 15.499 15.3526C15.4628 15.3177 15.4297 15.2689 15.4002 15.2075C15.5279 15.2015 15.6345 15.16 15.72 15.0835C15.7386 15.0642 15.7465 15.0485 15.7465 15.0377C15.7465 15.0166 15.714 15.0172 15.676 15.0528C15.6068 15.1178 15.5345 15.1503 15.4604 15.1503C15.4351 15.1503 15.4099 15.1461 15.384 15.1389C15.337 15.1256 15.2671 15.1088 15.2671 15.0762C15.2671 15.0612 15.281 15.0431 15.3171 15.0208C15.3388 15.0076 15.349 14.9877 15.349 14.9666C15.349 14.9492 15.3412 14.9299 15.3274 14.9143C15.3069 14.892 15.2762 14.8528 15.2762 14.8209C15.2762 14.792 15.3021 14.7685 15.3852 14.7685C15.4628 14.7685 15.5225 14.7523 15.5646 14.7191C15.6068 14.6866 15.6309 14.6373 15.6369 14.5716C15.6676 14.4692 15.7694 14.4181 15.941 14.4181C15.9675 14.4181 15.9952 14.4193 16.0247 14.4217C16.2246 14.4379 16.2451 14.5837 16.4914 14.4289C16.5504 14.3873 16.6088 14.3663 16.6648 14.3663C16.728 14.3663 16.7883 14.3934 16.8431 14.45C16.9316 14.5421 17.0135 14.6354 17.0881 14.7288C17.1327 14.7842 17.1514 14.8209 17.1514 14.8432C17.1514 14.8962 17.0478 14.8703 16.9406 14.83C16.887 14.8101 16.8485 14.7673 16.8238 14.7017C16.7907 14.7469 16.716 14.7691 16.6016 14.7691H16.5793C16.6787 14.8047 16.8286 14.8528 16.8286 14.9492C16.8286 14.9679 16.8232 14.9877 16.8105 15.01C16.7672 15.0877 16.7449 15.1515 16.7449 15.2003C16.7449 15.231 16.7539 15.2563 16.7714 15.2756C16.8027 15.3105 16.8178 15.3057 16.825 15.3081C16.8322 15.3105 16.8316 15.3207 16.8322 15.3864L16.8352 15.6574C16.7618 15.6959 16.6913 15.7706 16.6233 15.8814C16.5546 15.9922 16.4884 16.1403 16.4251 16.324C16.4149 16.3342 16.4023 16.3396 16.3854 16.3396C16.3709 16.3396 16.3541 16.3354 16.3348 16.3276C16.2836 16.162 16.2186 16.0139 16.1397 15.8838C16.0608 15.7537 15.9681 15.6417 15.8621 15.5466C15.8428 15.5375 15.8272 15.5333 15.8157 15.5333C15.8115 15.5333 15.8073 15.5339 15.8043 15.5351C15.7916 15.5399 15.7874 15.5538 15.7904 15.5767C15.9669 15.7591 16.1174 15.9801 16.2427 16.2409ZM15.1443 15.8753L14.0302 15.8603C14.029 15.8079 14.0284 15.7561 14.0284 15.7049C14.0284 14.957 14.1645 14.3464 14.4367 13.8731C14.4674 13.8092 14.4939 13.7267 14.515 13.625C14.5361 13.5232 14.5517 13.4028 14.5626 13.2637C14.5698 13.1643 14.5692 13.1167 14.5933 13.1167C14.615 13.1167 14.6553 13.1541 14.7372 13.2263C14.8287 13.307 14.9082 13.4034 14.9751 13.5148C14.9992 13.5539 15.063 13.6455 15.1136 13.6455C15.1347 13.6455 15.1539 13.6292 15.1666 13.587C15.5237 12.8783 15.8422 12.7795 16.1234 13.2902C16.165 13.366 16.2282 13.4094 16.2945 13.4094C16.3432 13.4094 16.3938 13.3859 16.439 13.3347L16.7473 12.8795C16.7883 12.8313 16.828 12.8078 16.8671 12.8078C16.9063 12.8078 16.9412 12.8301 16.9767 12.8753C17.005 12.8993 17.0791 12.9746 17.1694 13.0571C17.2592 13.1402 17.3652 13.2299 17.4555 13.2823C17.5115 13.3149 17.5488 13.3293 17.5771 13.3293C17.6271 13.3293 17.6494 13.2841 17.6964 13.2077L17.9896 12.7325C18.0131 12.6916 18.0306 12.6765 18.045 12.6765C18.0733 12.6765 18.0902 12.7349 18.1173 12.7765L18.3961 13.2065L18.6291 12.9469L18.7345 13.1354L18.5406 13.3022C18.4864 13.3486 18.4653 13.3781 18.4653 13.4052C18.4653 13.4413 18.5039 13.4726 18.5527 13.5334C18.5894 13.5792 18.6075 13.619 18.6075 13.6527C18.6075 13.6936 18.581 13.7255 18.5274 13.7484C18.4075 13.8159 18.3148 13.8972 18.2492 13.9935C18.1685 13.8869 18.0896 13.8038 18.0131 13.7454C17.936 13.687 17.8614 13.6527 17.7879 13.6424C17.7722 13.64 17.7566 13.6394 17.7409 13.6394C17.6482 13.6394 17.5669 13.6798 17.5506 13.7864C17.5163 13.7779 17.4832 13.7737 17.4519 13.7737C17.32 13.7737 17.2206 13.843 17.2309 13.9309C17.2345 13.9604 17.2507 13.9923 17.2827 14.0242C17.3194 14.0616 17.3519 14.0977 17.388 14.1242C17.4236 14.1513 17.4627 14.1694 17.5133 14.1706C17.6078 14.1724 17.6813 14.1838 17.7331 14.2055C17.7855 14.2266 17.8156 14.2579 17.8252 14.2982C17.9499 14.6156 18.1125 14.7739 18.3124 14.7739C18.3449 14.7739 18.378 14.7697 18.4124 14.7613V14.8854C17.971 15.0124 17.809 15.119 17.809 15.3051C17.809 15.4418 17.8963 15.6212 18.0245 15.8826H17.4187C17.3639 15.8236 17.2953 15.7742 17.2134 15.7326C17.1309 15.6911 17.0352 15.6586 16.9256 15.6345L16.9117 14.9685V14.9612C16.9117 14.8173 17.0056 14.9293 17.0677 14.9438C17.1098 14.9534 17.149 14.9576 17.1857 14.9576C17.5392 14.9576 17.6265 14.5403 17.4001 14.3964C17.2989 14.3133 17.2218 14.2326 17.1688 14.1549C17.1201 14.0832 17.0918 14.014 17.0833 13.9471C17.0833 13.9411 17.0821 13.9357 17.0815 13.9297C17.0719 13.7942 16.9388 13.5901 16.8033 13.5901C16.7563 13.5901 16.7088 13.6153 16.666 13.6774C16.6437 13.7231 16.6323 13.7713 16.6323 13.8219C16.6323 13.8388 16.6335 13.8556 16.6359 13.8731C16.5143 13.7466 16.3872 13.6846 16.2668 13.6846C16.1204 13.6846 15.9837 13.7767 15.8778 13.9574C15.8218 14.0519 15.7898 14.1844 15.7814 14.3548C15.7019 14.3795 15.6405 14.4169 15.5989 14.465C15.5568 14.5132 15.5333 14.5734 15.5291 14.6445C15.3701 14.6842 15.2533 14.7336 15.178 14.7932C15.1407 14.8227 15.1226 14.8595 15.1226 14.8926C15.1226 14.9377 15.1551 14.9781 15.2166 14.9907C15.2208 15.072 15.2443 15.1515 15.2876 15.2298C15.331 15.3081 15.3936 15.3852 15.4755 15.461C15.2412 15.4905 15.1244 15.5869 15.1244 15.7489C15.1244 15.7874 15.131 15.8296 15.1443 15.8753ZM15.396 12.974C15.396 12.9776 15.3966 12.9818 15.3966 12.9855C15.3966 13.1071 15.2978 13.2751 15.1015 13.4895C15.0473 13.3167 15.0202 13.1763 15.0202 13.068C15.0202 13.0162 15.0263 12.9716 15.0389 12.9343C15.11 12.7247 15.3852 12.7819 15.396 12.974ZM15.393 11.1933C15.393 11.0898 15.4062 10.9778 15.4327 10.8585C15.5182 11.2656 15.6851 11.657 15.9332 12.0328C15.573 11.857 15.393 11.5775 15.393 11.1933ZM16.1903 12.7187C16.1903 12.6555 16.2029 12.6037 16.2282 12.5621C16.2758 12.4838 16.3631 12.4465 16.4504 12.4465C16.5781 12.4465 16.707 12.5254 16.719 12.6693C16.7311 12.8126 16.6034 12.9933 16.336 13.2113C16.2391 13.0053 16.1903 12.8415 16.1903 12.7187ZM17.37 12.5922C17.37 12.5826 17.3706 12.5736 17.3712 12.5645C17.3929 12.3309 17.8499 12.3628 17.8686 12.5705C17.8692 12.5778 17.8698 12.585 17.8698 12.5922C17.8698 12.7205 17.777 12.9168 17.5928 13.1812C17.4446 12.9168 17.37 12.7205 17.37 12.5922ZM18.4967 12.429V12.4242C18.4997 12.2978 18.6177 12.2303 18.7405 12.2303C18.8194 12.2303 18.9001 12.2586 18.9531 12.317C19.0543 12.4302 19.0097 12.638 18.82 12.9403C18.6045 12.7229 18.4967 12.5525 18.4967 12.429ZM16.7624 13.8454C16.7624 13.8388 16.7618 13.8321 16.7618 13.8261C16.7618 13.6364 16.8954 13.7346 16.9611 13.8363C16.999 13.8954 17.0243 13.9598 17.0364 14.0302C17.0508 14.1158 17.0954 14.1952 17.1526 14.2675C17.2104 14.3404 17.2808 14.4072 17.3483 14.468C17.4049 14.5192 17.4302 14.5951 17.4302 14.6637C17.4302 14.7968 17.3344 14.9022 17.1839 14.745C17.043 14.5969 16.9153 14.4289 16.8027 14.241C16.7714 14.1892 16.7642 14.1417 16.7642 14.0929C16.7642 14.02 16.781 13.9441 16.7624 13.8454ZM16.7118 14.2687C16.5673 14.3578 16.4203 14.403 16.2704 14.403C16.1385 14.403 16.0048 14.3681 15.8687 14.2988C15.8663 14.2777 15.8651 14.2561 15.8651 14.2356C15.8651 14.0959 15.9199 13.9652 16.0379 13.8869C16.1108 13.8388 16.1939 13.8147 16.2776 13.8147C16.3517 13.8147 16.4251 13.8333 16.492 13.8713C16.6341 13.952 16.719 14.1055 16.7118 14.2687ZM16.6106 16.1439C16.648 16.0247 16.7015 15.9253 16.7726 15.8458C16.8455 15.7639 16.8948 15.7314 16.9502 15.7314C17.0056 15.7314 17.0659 15.7639 17.1604 15.8103C17.332 15.8952 17.4922 16.0229 17.6404 16.1921C17.718 16.0927 17.7939 16.0434 17.8674 16.0434C17.9186 16.0434 17.9685 16.0668 18.0173 16.1144C18.1293 16.2228 18.1209 16.71 18.0215 16.8063C17.9818 16.8449 17.9427 16.8641 17.9053 16.8641C17.8481 16.8641 17.7939 16.8202 17.7421 16.7323C17.6127 16.7196 17.4934 16.6793 17.385 16.61C17.2766 16.5414 17.1785 16.4438 17.0912 16.318C17.0117 16.3553 16.9304 16.3746 16.8473 16.3746C16.8039 16.3746 16.76 16.3691 16.7154 16.3589C16.6112 16.3348 16.5763 16.3204 16.5763 16.2764C16.5763 16.2475 16.5907 16.2072 16.6106 16.1439ZM18.5201 14.5752C18.5201 14.4729 18.5256 14.3651 18.5358 14.2519C18.5238 14.229 18.5111 14.2181 18.4991 14.2181C18.4864 14.2181 18.4738 14.2302 18.4611 14.2555C18.4635 14.2976 18.4647 14.3368 18.4647 14.3735C18.4647 14.5162 18.4461 14.6144 18.4081 14.6692C18.3835 14.6902 18.3539 14.7011 18.3208 14.7011C18.2967 14.7011 18.2708 14.6951 18.2425 14.6842C18.1986 14.665 18.1474 14.618 18.0878 14.5451C18.0282 14.4717 17.9601 14.3711 17.8848 14.244C17.883 14.1531 17.8349 14.1073 17.7403 14.1073C17.7223 14.1073 17.703 14.1091 17.6819 14.1121C17.6687 14.1146 17.6548 14.1158 17.6416 14.1158C17.5434 14.1158 17.4537 14.0543 17.373 13.9315C17.3664 13.9158 17.3633 13.9026 17.3633 13.8911C17.3633 13.8484 17.4115 13.8363 17.5085 13.8562C17.585 13.8942 17.6428 13.9134 17.6807 13.9134C17.7162 13.9134 17.7355 13.8972 17.7385 13.864C17.703 13.8201 17.6855 13.787 17.6855 13.7641C17.6855 13.7298 17.7241 13.7177 17.8023 13.7286C17.8879 13.7677 17.9679 13.8249 18.042 13.9002C18.1161 13.9754 18.1841 14.0688 18.2462 14.1802C18.3052 14.0736 18.3738 13.9833 18.4527 13.9092C18.531 13.8351 18.6189 13.7773 18.7165 13.7358C18.7267 13.7075 18.7315 13.681 18.7315 13.6569C18.7315 13.6135 18.7153 13.5774 18.6827 13.5479C18.6454 13.5045 18.6267 13.463 18.6267 13.4232C18.6267 13.3877 18.6412 13.354 18.6713 13.3221C18.6966 13.3022 18.7219 13.292 18.7478 13.292C18.7695 13.292 18.7917 13.2992 18.8146 13.3149C18.8339 13.3221 18.8477 13.3257 18.8568 13.3257C18.8754 13.3257 18.8718 13.3094 18.8447 13.2769C18.8146 13.2528 18.8014 13.2269 18.8014 13.2004C18.8014 13.0987 18.9995 12.9897 19.1603 12.9475C19.5288 12.8518 19.8395 13.4576 19.5071 13.8267C19.6077 13.899 19.686 13.9947 19.7402 14.1134C19.7944 14.232 19.8251 14.3735 19.8323 14.5379C19.8329 14.5451 19.8329 14.5529 19.8329 14.5602C19.8329 14.7119 19.7552 14.8251 19.5993 14.8992C19.5728 14.8384 19.5312 14.7697 19.4752 14.6927C19.4186 14.6162 19.3476 14.5313 19.262 14.4379C19.2446 14.4156 19.2355 14.3922 19.2355 14.3675C19.2355 14.3313 19.2542 14.2928 19.2922 14.2519C19.2651 14.2452 19.2404 14.2416 19.2187 14.2416C19.1615 14.2416 19.1217 14.2651 19.1007 14.3121L18.9911 14.1989C18.9766 14.1766 18.9537 14.1669 18.9363 14.1669C18.908 14.1669 18.8923 14.1916 18.9399 14.2302C19.1067 14.3663 19.2446 14.5144 19.3536 14.6752C19.4626 14.8354 19.5427 15.0082 19.5938 15.1925C19.5752 15.1907 19.5571 15.1895 19.5396 15.1895C19.2807 15.1895 19.0982 15.3912 18.9917 15.7947C18.6773 15.5466 18.5201 15.1401 18.5201 14.5752ZM19.2482 15.446C19.3174 15.3352 19.4126 15.2834 19.5029 15.2834C19.6258 15.2834 19.7396 15.381 19.7631 15.5574C19.7859 15.7284 19.7691 15.9326 19.7137 16.1692C19.6751 16.333 19.5583 16.4155 19.4367 16.4155C19.315 16.4155 19.1771 16.3252 19.1247 16.1433C19.1043 16.0729 19.094 16.0024 19.094 15.9314C19.094 15.7718 19.1458 15.6098 19.2482 15.446ZM19.804 15.9259C19.9353 16.1554 20.0937 16.2909 19.7004 16.374C19.7697 16.2246 19.804 16.0753 19.804 15.9259ZM19.8739 15.8982C19.8733 15.885 19.8733 15.8711 19.8733 15.8555C19.8733 15.6766 19.9022 15.3647 19.7962 15.2762C19.7342 15.2244 19.692 15.1413 19.692 15.0618C19.692 15.0034 19.7149 14.9468 19.7697 14.9058C19.8895 14.8173 19.9491 14.6914 19.9491 14.5289C19.9491 14.3241 19.854 14.0604 19.6631 13.7376L19.7384 13.6473C19.916 13.805 20.1768 14.0254 20.3942 14.2711C20.6109 14.5168 20.7844 14.7878 20.7862 15.0473L20.7922 15.9055L19.8739 15.8982ZM20.4869 16.1319H20.4923C20.6603 16.1319 20.4628 16.2957 20.626 16.2367C20.7886 16.1782 20.8982 16.2487 20.7796 16.3679C20.7133 16.4348 20.6615 16.4679 20.6236 16.4679C20.5917 16.4679 20.57 16.4438 20.5592 16.395C20.5513 16.3607 20.5483 16.3324 20.5278 16.3324C20.5176 16.3324 20.5025 16.3396 20.4797 16.3577C20.4514 16.3938 20.4273 16.4113 20.4068 16.4113C20.3779 16.4113 20.3568 16.3776 20.343 16.3089C20.3406 16.2969 20.3394 16.2854 20.3394 16.274C20.3394 16.1939 20.3978 16.1289 20.4869 16.1319ZM19.0121 9.80832L18.9603 9.85589C18.911 9.90226 18.8712 9.94622 18.8399 9.98657C18.7984 10.0408 18.7731 10.0895 18.7634 10.1323C18.7381 10.1751 18.7255 10.2232 18.7255 10.2762C18.7255 10.3551 18.7532 10.4448 18.8086 10.546L19.524 11.916C19.3066 11.7239 19.0386 11.6275 18.7201 11.6275C18.3582 11.6275 17.9312 11.7516 17.4386 11.9991C17.3706 12.0256 17.3079 12.0388 17.2513 12.0388C17.1237 12.0388 17.0231 11.9726 16.9496 11.8407C16.8798 11.7425 16.8142 11.6293 16.7539 11.5017C16.6937 11.3734 16.6389 11.2307 16.5883 11.0729C16.6088 11.2644 16.6359 11.4276 16.6684 11.5625C16.7003 11.6974 16.7389 11.804 16.7828 11.8822C16.8148 11.9395 16.8292 11.9882 16.8292 12.0244C16.8292 12.1099 16.7503 12.1225 16.6486 11.9991C16.4715 11.7552 16.3306 11.5155 16.2252 11.2795C16.1198 11.0434 16.05 10.8122 16.0163 10.5839C16.0295 10.9061 16.0735 11.1964 16.1475 11.4535C16.2216 11.7106 16.3258 11.9346 16.4601 12.1267C16.2391 12.0442 16.065 11.9093 15.9368 11.7221C15.8079 11.5348 15.726 11.2963 15.6899 11.0049C15.6652 10.8061 15.6086 10.6875 15.5068 10.614C15.405 10.5412 15.2581 10.5123 15.0528 10.4936C15.0516 10.4755 15.0497 10.4575 15.0479 10.44C15.0142 10.1967 14.9805 10.0679 14.9329 9.94923C14.8679 9.78604 14.777 9.64151 14.6613 9.51505C16.2427 9.56504 17.6416 9.54095 18.858 9.44159C18.867 9.44099 18.8754 9.44038 18.8839 9.44038C19.1049 9.44038 19.1904 9.67584 19.0121 9.80832ZM13.3167 13.0824C13.4853 13.5648 13.6671 13.8056 13.8628 13.8056C14.0345 13.8056 14.2163 13.6202 14.4084 13.248C14.3663 13.4847 14.3229 13.684 14.2789 13.8472C14.235 14.0104 14.1904 14.1368 14.1447 14.2266C13.9983 14.6108 13.9219 15.1563 13.9152 15.8639H13.7081C13.6894 16.0476 13.6683 16.2066 13.6448 16.3414C13.6214 16.4769 13.5955 16.5883 13.5672 16.6751C13.5316 16.7834 13.4889 16.8708 13.4154 16.8708C13.3775 16.8708 13.3311 16.8473 13.2733 16.7919C13.2137 16.7341 13.1794 16.6443 13.1697 16.5227C13.1354 16.6492 13.0854 16.7485 13.0204 16.8208C12.9547 16.893 12.874 16.9382 12.7777 16.9563C12.7307 16.9647 12.697 16.9701 12.6741 16.9701C12.6175 16.9701 12.6247 16.9376 12.6518 16.8388C12.7103 16.6245 12.8192 16.4565 12.9782 16.3342C13.0463 16.2939 13.1035 16.1608 13.1511 15.9338L13.2251 15.4249C13.2817 14.8829 13.3124 14.1019 13.3167 13.0824ZM12.9933 20.9187C12.8596 20.7814 12.7596 20.623 12.6934 20.4429C12.6265 20.2629 12.5934 20.0617 12.5934 19.8389C12.5934 19.7402 12.6085 19.6366 12.638 19.5282C12.6681 19.4198 12.7127 19.3066 12.7729 19.1892C12.8325 19.0712 12.906 18.9634 12.9933 18.8664C13.0812 18.7689 13.1824 18.6821 13.2974 18.6057C13.3931 18.5412 13.4949 18.49 13.6015 18.4527C13.7087 18.4154 13.8207 18.3913 13.9375 18.381L13.9387 18.4828C13.8508 18.4912 13.7695 18.5135 13.6942 18.5491C13.6196 18.584 13.5515 18.6322 13.4901 18.6942C13.3468 18.8387 13.242 19.0115 13.1763 19.2115C13.1107 19.412 13.0776 19.5975 13.0776 19.7673C13.0776 20.0063 13.1143 20.2508 13.1872 20.5019C13.2239 20.6278 13.2709 20.7362 13.3287 20.8271C13.3859 20.9181 13.454 20.9915 13.5322 21.0481C13.6659 21.1451 13.8074 21.2005 13.9574 21.2149V21.3306C13.7665 21.3275 13.5906 21.292 13.4299 21.2234C13.2691 21.1547 13.1234 21.0529 12.9933 20.9187ZM14.1495 24.7943L14.1248 24.7925C14.0947 24.7901 14.0435 24.7883 13.973 24.7883C13.8261 24.7883 13.7123 24.7901 13.6322 24.7931L13.5913 24.7943C13.5623 24.7943 13.5479 24.7859 13.5479 24.7708C13.5479 24.7546 13.5629 24.7462 13.5943 24.7443C13.6882 24.7377 13.746 24.716 13.7665 24.6781C13.7876 24.6408 13.7978 24.5559 13.7978 24.4246C13.7978 24.2445 13.7972 24.0964 13.7966 23.9814C13.7954 23.8658 13.7942 23.7821 13.7918 23.7315C13.7882 23.6297 13.7725 23.5623 13.7442 23.5291C13.7165 23.4954 13.6719 23.4786 13.6111 23.4786C13.5726 23.4786 13.5479 23.4761 13.5377 23.4707C13.528 23.4659 13.5226 23.4575 13.5226 23.4454C13.5226 23.4316 13.5389 23.4244 13.572 23.4232C13.6346 23.4225 13.7015 23.4129 13.7725 23.3936C13.8442 23.375 13.9002 23.3509 13.9399 23.3232C13.9496 23.316 13.958 23.3123 13.9646 23.3123C13.9791 23.3123 13.9863 23.325 13.9863 23.3503V23.5255C13.9809 23.8507 13.9779 24.0573 13.9779 24.1464C13.9779 24.2963 13.9797 24.4137 13.9827 24.4999C13.9857 24.586 13.9905 24.6396 13.9971 24.6618C14.0098 24.7058 14.0567 24.7311 14.1368 24.7383C14.1736 24.7425 14.1916 24.7498 14.1916 24.7618C14.1916 24.7835 14.1778 24.7943 14.1495 24.7943ZM14.114 21.3251V21.2149C14.2398 21.2035 14.3536 21.1625 14.456 21.0927C14.559 21.0234 14.6493 20.9253 14.7282 20.7976C14.8143 20.6579 14.8793 20.5062 14.9227 20.3442C14.966 20.1822 14.9877 20.0088 14.9877 19.8245C14.9877 19.6402 14.966 19.4782 14.9215 19.3217C14.8775 19.1645 14.8113 19.0188 14.7228 18.8839C14.6409 18.7598 14.5481 18.6635 14.4433 18.5966C14.3386 18.5292 14.2223 18.4906 14.0947 18.481V18.3756C14.4897 18.3798 14.8179 18.5244 15.0768 18.8086C15.2087 18.9537 15.3075 19.1085 15.3737 19.2735C15.4394 19.4385 15.4725 19.6137 15.4725 19.7992C15.4725 19.9967 15.4357 20.1834 15.3629 20.3604C15.29 20.5375 15.1804 20.7037 15.0341 20.8608C14.9046 21 14.7625 21.1083 14.6095 21.186C14.456 21.2631 14.291 21.3095 14.114 21.3251ZM15.7224 24.309C15.6863 24.415 15.6327 24.5107 15.561 24.5962C15.4893 24.6817 15.408 24.7456 15.3171 24.7883C15.2262 24.8311 15.1256 24.8521 15.0154 24.8521C14.8986 24.8521 14.8065 24.8287 14.739 24.7823C14.6722 24.7347 14.6385 24.6757 14.6385 24.6034C14.6385 24.5619 14.6511 24.5288 14.6758 24.5035C14.7005 24.4794 14.7288 24.4667 14.7613 24.4667C14.8293 24.4667 14.8631 24.5005 14.8631 24.5679C14.8631 24.5806 14.8625 24.5962 14.8607 24.6149C14.8583 24.6384 14.8577 24.6552 14.8577 24.6661C14.8577 24.7088 14.8745 24.7407 14.907 24.7624C14.9402 24.7835 14.9901 24.7943 15.0558 24.7943C15.1214 24.7943 15.181 24.7799 15.2352 24.7516C15.2888 24.7227 15.337 24.6805 15.3785 24.6233C15.4201 24.5667 15.4562 24.4956 15.4863 24.4107C15.5164 24.3258 15.5399 24.2265 15.5574 24.1133C15.4881 24.162 15.4207 24.1994 15.3545 24.2241C15.346 24.2271 15.3376 24.2301 15.3292 24.2325C15.2539 24.2542 15.2051 24.2614 15.1563 24.2614C15.0281 24.2614 14.9161 24.2198 14.8191 24.1361C14.7228 24.0524 14.6746 23.9428 14.6746 23.8086C14.6746 23.7357 14.689 23.6688 14.7179 23.6086C14.7468 23.5484 14.7902 23.4942 14.848 23.4466C14.954 23.3593 15.0666 23.3123 15.1852 23.3051V23.3581C15.1039 23.3671 15.0353 23.4081 14.9811 23.481C14.9191 23.5641 14.8884 23.6616 14.8884 23.7736C14.8884 23.9013 14.9185 24.0037 14.9799 24.0813C15.0401 24.1584 15.1172 24.1976 15.2093 24.1976C15.2455 24.1976 15.2798 24.1927 15.3129 24.1831C15.4255 24.1277 15.4442 24.1133 15.4622 24.0964C15.5345 24.029 15.5706 23.9278 15.5706 23.7941C15.5706 23.6604 15.5381 23.5562 15.4725 23.4761C15.4165 23.4081 15.3472 23.3696 15.2635 23.3593V23.3057C15.3984 23.316 15.5152 23.3732 15.6128 23.4767C15.667 23.534 15.7079 23.6032 15.735 23.6839C15.7621 23.7646 15.776 23.8567 15.776 23.9603C15.776 24.0868 15.7579 24.203 15.7224 24.309ZM16.9936 24.7871C16.9454 24.7907 16.9009 24.7925 16.8593 24.7925L16.265 24.7859C16.1716 24.7859 16.1102 24.7871 16.0801 24.7901C16.0512 24.7901 16.0367 24.7811 16.0367 24.7642C16.0367 24.7558 16.0446 24.7462 16.0584 24.7359L16.2921 24.5559C16.3565 24.5035 16.4149 24.4529 16.4673 24.4053C16.5769 24.3041 16.6606 24.2126 16.7178 24.1301C16.775 24.0476 16.8172 23.9687 16.8461 23.8929C16.8744 23.817 16.8888 23.7447 16.8888 23.6761C16.8888 23.5978 16.8696 23.5291 16.8316 23.4713C16.7931 23.4135 16.7335 23.3846 16.6528 23.3846C16.5871 23.3846 16.5275 23.3991 16.4739 23.428C16.4197 23.4569 16.3715 23.5002 16.3288 23.5574C16.2433 23.6731 16.2005 23.7917 16.2005 23.9151C16.2005 23.9711 16.2114 24.0133 16.233 24.0416C16.2547 24.0699 16.2872 24.0837 16.33 24.0837C16.3631 24.0837 16.4023 24.0693 16.4468 24.041C16.4908 24.0133 16.5281 23.9567 16.5588 23.8712C16.5667 23.8483 16.5769 23.8369 16.5889 23.8369C16.6076 23.8369 16.6166 23.8459 16.6166 23.864C16.6166 23.8802 16.604 23.9133 16.5781 23.9645C16.5528 24.0151 16.5125 24.0603 16.4571 24.0994C16.4029 24.1385 16.3493 24.1584 16.2963 24.1584C16.2318 24.1584 16.1758 24.1337 16.1265 24.0831C16.0783 24.0326 16.0536 23.9748 16.0536 23.9073C16.0536 23.8447 16.0717 23.7809 16.1078 23.7158C16.1439 23.6508 16.1981 23.5851 16.271 23.5183C16.3438 23.4515 16.4173 23.4015 16.4926 23.3678C16.5679 23.3346 16.6449 23.3178 16.7232 23.3178C16.828 23.3178 16.9189 23.3485 16.9954 23.4099C17.0725 23.4713 17.111 23.5611 17.111 23.6785C17.111 23.7959 17.0737 23.8989 16.999 23.9994C16.9623 24.05 16.9063 24.1096 16.831 24.1783C16.7557 24.2469 16.6618 24.3246 16.5486 24.4113C16.4571 24.4812 16.3884 24.5348 16.3198 24.5902C16.3137 24.5956 16.3077 24.601 16.3023 24.6052H16.7142C16.8346 24.6052 16.9135 24.598 16.9515 24.5836C16.9894 24.5691 17.0303 24.5306 17.0749 24.4685C17.0984 24.4354 17.1146 24.4192 17.1249 24.4192C17.1393 24.4192 17.1466 24.427 17.1466 24.4414L16.9936 24.7871ZM18.5105 23.3858C18.4882 23.425 18.4672 23.4641 18.3594 23.6779C18.3323 23.7363 18.3076 23.7947 18.2841 23.8525C18.2215 24.0073 18.1835 24.1247 18.1691 24.2054C18.1612 24.2457 18.1546 24.3017 18.1486 24.374C18.1426 24.4463 18.1372 24.5342 18.1317 24.6384C18.1281 24.7106 18.1155 24.7648 18.0944 24.801C18.0733 24.8371 18.0432 24.8552 18.0041 24.8552C17.9704 24.8552 17.9439 24.8419 17.9252 24.8142C17.9059 24.7871 17.8963 24.754 17.8963 24.7154C17.8963 24.6673 17.9131 24.5926 17.9475 24.4932C17.9818 24.3939 18.033 24.2686 18.1016 24.1175L18.3154 23.6574L18.3551 23.5719C18.363 23.5574 18.3666 23.5472 18.3666 23.5406C18.3666 23.5291 18.3576 23.5231 18.3407 23.5231L18.1643 23.5201C18.0571 23.5201 17.9697 23.5201 17.9023 23.5207C17.8349 23.5207 17.7879 23.5219 17.7596 23.5225C17.7042 23.5237 17.659 23.5418 17.6229 23.5761C17.5874 23.6098 17.5615 23.6417 17.5464 23.6725C17.532 23.699 17.5187 23.7116 17.5055 23.7116C17.488 23.7116 17.4796 23.7026 17.4796 23.6839C17.4796 23.6664 17.494 23.5984 17.5229 23.4804C17.5512 23.3617 17.5711 23.2931 17.5807 23.275C17.5904 23.2569 17.6006 23.2485 17.6114 23.2485C17.6247 23.2485 17.6355 23.2582 17.6434 23.278C17.6536 23.3009 17.6693 23.3172 17.6903 23.3268C17.7114 23.3376 17.7608 23.3431 17.8373 23.3431L18.1432 23.34C18.2522 23.34 18.3786 23.3425 18.5232 23.3467L18.5105 23.3858ZM19.7028 18.5051C19.6258 18.5117 19.5607 18.5232 19.5095 18.5388C19.4578 18.5539 19.4192 18.5737 19.3933 18.5978C19.3415 18.6472 19.3096 18.7297 19.2976 18.8447C19.2909 18.9019 19.2849 18.985 19.2789 19.0922C19.2729 19.1994 19.2669 19.3319 19.2608 19.4885C19.2554 19.645 19.2512 19.789 19.2482 19.9196C19.2452 20.0503 19.244 20.1677 19.244 20.2725C19.244 20.473 19.2446 20.632 19.2464 20.7488C19.2476 20.8657 19.25 20.9409 19.253 20.9741C19.259 21.0409 19.2837 21.0939 19.3271 21.1336C19.371 21.1722 19.4572 21.2011 19.5842 21.2185C19.6203 21.2246 19.6384 21.2378 19.6384 21.2595C19.6384 21.2812 19.6161 21.2926 19.5704 21.2926L18.7207 21.2902H18.4973C18.4479 21.2902 18.4232 21.2782 18.4232 21.2553C18.4232 21.2348 18.4395 21.2228 18.4732 21.2185C18.596 21.2023 18.6767 21.18 18.7171 21.1505C18.7568 21.1216 18.7863 21.0692 18.8068 20.9933C18.8164 20.956 18.8237 20.8904 18.8285 20.797C18.8333 20.7031 18.8357 20.5814 18.8357 20.4315L18.8766 19.3801L18.8983 18.8604C18.8983 18.8206 18.8929 18.8014 18.8815 18.8014C18.8634 18.8014 18.8495 18.8134 18.8375 18.8363L18.4039 19.6932C18.3756 19.7486 18.3491 19.8016 18.3226 19.8528C18.2209 20.0551 18.136 20.2261 18.0679 20.3659C17.983 20.5411 17.9246 20.6675 17.8933 20.744L17.7572 21.0752C17.7156 21.1758 17.6891 21.2306 17.6813 21.2402C17.6723 21.2499 17.6614 21.2547 17.6506 21.2547C17.6325 21.2547 17.6175 21.236 17.606 21.1975C17.5928 21.1523 17.5524 21.0578 17.4844 20.9138C17.4169 20.7699 17.3218 20.5772 17.199 20.3345C17.0719 20.0617 16.9189 19.7498 16.7407 19.3993C16.651 19.2241 16.5823 19.091 16.5341 18.9995C16.486 18.908 16.4583 18.8586 16.4516 18.8508C16.4366 18.8351 16.4251 18.8273 16.4179 18.8273C16.4035 18.8273 16.3962 18.8459 16.3962 18.8821L16.3715 20.2087L16.3649 20.6471C16.3649 20.7633 16.3728 20.859 16.3884 20.9349C16.4041 21.0108 16.4282 21.0662 16.4595 21.1017C16.5233 21.174 16.6136 21.2095 16.7311 21.2095C16.8063 21.2095 16.8449 21.2252 16.8449 21.2577C16.8449 21.2806 16.8268 21.2926 16.7901 21.2926L16.7443 21.2902L16.6022 21.2926L16.2945 21.2902C16.1602 21.2902 15.988 21.298 15.7766 21.3125C15.7591 21.301 15.7507 21.2896 15.7507 21.2776C15.7507 21.2487 15.776 21.2336 15.8272 21.2318C15.9729 21.2276 16.0807 21.1788 16.1493 21.0873C16.1837 21.0409 16.2102 20.9662 16.227 20.8633C16.2445 20.7603 16.2529 20.6284 16.2529 20.4682V20.0816L16.2794 19.1019C16.2794 18.9874 16.271 18.8917 16.2541 18.8134C16.2373 18.7357 16.2126 18.6755 16.1788 18.6334C16.1114 18.5497 16.0126 18.4997 15.8826 18.4828C15.8272 18.4756 15.7995 18.4611 15.7995 18.4383C15.7995 18.413 15.8199 18.3997 15.8609 18.3997C15.8826 18.3997 15.9097 18.4009 15.9404 18.4021L16.7154 18.4244C16.8635 18.7448 17.0008 19.0272 17.1285 19.2723C17.2827 19.5661 17.4025 19.8094 17.488 20.0039C17.5741 20.1984 17.6741 20.3905 17.7885 20.5796C17.883 20.4231 17.9824 20.2454 18.213 19.7974C18.2347 19.754 18.2564 19.7101 18.2781 19.6649C18.4533 19.306 18.6406 18.8923 18.8393 18.4244L19.7095 18.4268C19.7402 18.4316 19.7552 18.4449 19.7552 18.4672C19.7552 18.4894 19.7378 18.5027 19.7028 18.5051ZM22.7951 21.3149L22.7644 21.3125C22.6307 21.298 22.4597 21.2902 22.2525 21.2902C22.0935 21.2902 21.9628 21.2914 21.8611 21.2938C21.7587 21.2962 21.6852 21.2998 21.6401 21.3041C21.5943 21.3041 21.572 21.2902 21.572 21.2637C21.572 21.2438 21.5889 21.2318 21.622 21.2276C21.7461 21.2161 21.8322 21.1957 21.8791 21.165C21.9273 21.1348 21.9502 21.0873 21.9502 21.0222C21.9502 20.9915 21.9394 20.9361 21.9171 20.8578C21.8948 20.7796 21.8617 20.6772 21.8171 20.5513L21.6883 20.1738C21.6509 20.1738 21.5504 20.175 21.3872 20.1768C21.224 20.1792 20.9975 20.1822 20.7085 20.1864L20.744 20.0636L20.7476 20.0503C20.8627 20.0449 20.95 20.0413 21.0096 20.0413H21.0319L21.6485 20.0527C21.5943 19.901 21.5184 19.6998 21.4203 19.4487C21.3607 19.2994 21.3113 19.1741 21.2715 19.073C21.2324 18.9724 21.2035 18.8959 21.1842 18.8447C21.1162 18.9826 21.0421 19.1524 20.9626 19.3542C20.8849 19.5517 20.8012 19.7793 20.7121 20.0377H20.7115C20.7103 20.0425 20.7085 20.0479 20.7067 20.0527L20.6675 20.187C20.5917 20.3893 20.5345 20.5549 20.4965 20.6826C20.458 20.8103 20.4393 20.9 20.4393 20.953C20.4393 21.0421 20.4767 21.1089 20.5513 21.1523C20.6266 21.1945 20.7007 21.2185 20.7741 21.2228C20.8277 21.2276 20.8548 21.2432 20.8548 21.2715C20.8548 21.2836 20.8458 21.2938 20.8283 21.3041C20.7115 21.2998 20.6182 21.2962 20.5477 21.2938C20.4773 21.2914 20.4303 21.2902 20.4062 21.2902C20.2833 21.2902 20.181 21.2908 20.0985 21.2926C20.016 21.2938 19.9534 21.2962 19.9112 21.2992C19.8642 21.2992 19.8413 21.286 19.8413 21.2589C19.8413 21.2348 19.8612 21.2204 19.9022 21.2143C19.9865 21.2035 20.0605 21.1698 20.125 21.1126C20.1888 21.056 20.2436 20.9759 20.2882 20.8735C20.3327 20.7711 20.3893 20.6272 20.4592 20.4423C20.5284 20.2575 20.6103 20.0316 20.7049 19.7643C20.8777 19.2777 21.0668 18.8116 21.2715 18.3666H21.3781C21.5401 18.7002 21.7641 19.2723 22.0508 20.0816C22.1429 20.3406 22.2206 20.5495 22.2838 20.7085C22.347 20.8675 22.3958 20.9771 22.4301 21.0355C22.4645 21.0945 22.509 21.1403 22.5638 21.1728C22.6186 21.2059 22.6843 21.2252 22.7595 21.2318C22.8083 21.2366 22.8324 21.2535 22.8324 21.283C22.8324 21.3047 22.8198 21.3149 22.7951 21.3149ZM24.813 15.9578L23.0817 15.95C23.1985 15.5929 23.4045 15.24 23.4045 14.9215C23.4045 14.786 23.3671 14.6565 23.2696 14.5355L23.225 14.4795L22.2236 13.233C22.2332 13.0421 22.238 12.859 22.238 12.6838C22.238 11.3939 21.9821 10.5183 21.4709 10.0564C21.0006 9.65597 20.3827 9.41509 19.4746 9.29405L19.1964 9.28381H19.1597L14.1615 9.33319C14.0465 9.31031 13.9327 9.29225 13.5479 9.26033L13.4196 9.25792C13.1547 9.25792 12.8951 9.28803 12.641 9.34825C12.2333 9.40606 11.8871 9.43496 11.6028 9.43496C11.5589 9.43496 11.5167 9.43496 11.4764 9.43316C11.3475 9.4163 11.3138 9.34945 11.3138 9.26575C11.3138 9.17121 11.3571 9.05378 11.3529 8.96285C11.3487 8.86951 11.33 8.784 11.2975 8.70752C11.265 8.63104 11.2186 8.5636 11.1578 8.50398C11.0735 8.42209 11.0043 8.37933 10.935 8.37933C10.8658 8.37933 10.7947 8.42389 10.7086 8.51663C10.5924 8.64249 10.5346 8.82856 10.5346 9.07666C10.5346 9.09232 10.5346 9.10798 10.5352 9.12424C10.446 9.1134 10.3551 9.10798 10.2612 9.10798C10.104 9.10798 9.93959 9.12363 9.76917 9.15434C9.73666 9.0056 9.68246 8.83579 9.60658 8.64369C9.55721 8.51964 9.53914 8.46063 9.51385 8.46063C9.48856 8.46063 9.45544 8.52024 9.37595 8.63345C9.28381 8.76473 9.20974 8.88998 9.15314 9.00801C9.09653 9.12604 9.05739 9.23745 9.03571 9.34223C9.02246 9.40666 9.02608 9.43677 9.02126 9.46206C9.01644 9.48675 9.00319 9.50662 8.95622 9.54998C8.86108 9.6367 8.8135 9.73485 8.8135 9.84325C8.8135 9.89744 8.82555 9.95465 8.84964 10.0149C8.87252 10.0733 8.88878 10.0938 8.88878 10.1046C8.88878 10.1184 8.86409 10.1178 8.79484 10.1546C8.65935 10.2268 8.57263 10.3635 8.57263 10.505C8.57263 10.5731 8.5925 10.6417 8.63646 10.705C8.74907 10.8664 8.82856 11.0223 8.87553 11.1723C8.88396 11.2 8.88757 11.2289 8.88757 11.259C8.88757 11.3343 8.8671 11.4156 8.85867 11.4884C8.84361 11.6215 8.8671 11.7275 9.12544 11.7197C9.21095 11.7173 9.29646 11.7154 9.38076 11.7154C10.8712 11.7154 12.1382 12.1291 13.183 12.9559L13.1763 13.0746L13.0174 15.8916L7.23638 15.9368C6.94552 15.0293 6.79979 13.8713 6.79979 12.4628C6.79979 11.3842 6.8853 10.1582 7.05572 8.78581C8.53168 8.52747 10.0125 8.012 11.4975 7.23939C12.983 6.46679 14.4735 5.43645 15.9681 4.14897C17.2851 5.32083 18.6785 6.29336 20.1491 7.06596C21.619 7.83857 23.1666 8.41185 24.7901 8.78581C25.2604 10.6911 25.2682 13.0818 24.813 15.9578Z" fill="#E6DAFE"/>
</g>
<defs>
<clipPath id="clip0_6_4874">
<rect width="20.119" height="26" fill="white" transform="translate(6 3)"/>
</clipPath>
</defs>
</svg>
