<?xml version="1.0" encoding="UTF-8"?>
<!DOCTYPE svg PUBLIC "-//W3C//DTD SVG 1.1//EN" "http://www.w3.org/Graphics/SVG/1.1/DTD/svg11.dtd">
<svg xmlns="http://www.w3.org/2000/svg" version="1.1" width="64px" height="64px" style="shape-rendering:geometricPrecision; text-rendering:geometricPrecision; image-rendering:optimizeQuality; fill-rule:evenodd; clip-rule:evenodd" xmlns:xlink="http://www.w3.org/1999/xlink">
<g><path style="opacity:1" fill="#e6f6f6" d="M -0.5,-0.5 C 20.8333,-0.5 42.1667,-0.5 63.5,-0.5C 63.5,20.8333 63.5,42.1667 63.5,63.5C 61.5,63.5 59.5,63.5 57.5,63.5C 57.2311,58.7363 55.8978,54.403 53.5,50.5C 53.573,48.9731 52.9063,47.9731 51.5,47.5C 51.573,45.9731 50.9063,44.9731 49.5,44.5C 50.4586,42.4553 51.1253,40.2886 51.5,38C 50.0847,33.5931 49.0847,29.0931 48.5,24.5C 46.2182,20.1885 42.5515,18.1885 37.5,18.5C 36.7743,15.9873 35.4409,15.3207 33.5,16.5C 15.2776,17.6814 9.2776,26.6814 15.5,43.5C 13.6848,47.1304 11.8515,50.7971 10,54.5C 9.50204,57.4816 9.33537,60.4816 9.5,63.5C 6.16667,63.5 2.83333,63.5 -0.5,63.5C -0.5,42.1667 -0.5,20.8333 -0.5,-0.5 Z"/></g>
<g><path style="opacity:1" fill="#020404" d="M 33.5,16.5 C 35.4409,15.3207 36.7743,15.9873 37.5,18.5C 35.3639,18.4621 34.0306,17.7954 33.5,16.5 Z"/></g>
<g><path style="opacity:1" fill="#7c9edf" d="M 33.5,16.5 C 34.0306,17.7954 35.3639,18.4621 37.5,18.5C 42.5515,18.1885 46.2182,20.1885 48.5,24.5C 47.1825,24.179 45.8492,23.8457 44.5,23.5C 42.5534,24.277 40.7201,25.277 39,26.5C 25.7973,18.9256 19.464,22.5922 20,37.5C 21.4213,40.0094 23.0879,42.3428 25,44.5C 28.5471,51.13 28.0471,57.4633 23.5,63.5C 18.8333,63.5 14.1667,63.5 9.5,63.5C 9.33537,60.4816 9.50204,57.4816 10,54.5C 11.8515,50.7971 13.6848,47.1304 15.5,43.5C 9.2776,26.6814 15.2776,17.6814 33.5,16.5 Z"/></g>
<g><path style="opacity:1" fill="#fefefe" d="M 48.5,24.5 C 49.0847,29.0931 50.0847,33.5931 51.5,38C 51.1253,40.2886 50.4586,42.4553 49.5,44.5C 48.8333,44.5 48.5,44.8333 48.5,45.5C 47.9033,45.7352 47.5699,46.2352 47.5,47C 51.5575,51.7169 53.5575,57.2169 53.5,63.5C 43.5,63.5 33.5,63.5 23.5,63.5C 28.0471,57.4633 28.5471,51.13 25,44.5C 23.0879,42.3428 21.4213,40.0094 20,37.5C 19.464,22.5922 25.7973,18.9256 39,26.5C 40.7201,25.277 42.5534,24.277 44.5,23.5C 45.8492,23.8457 47.1825,24.179 48.5,24.5 Z"/></g>
<g><path style="opacity:1" fill="#000000" d="M 44.5,29.5 C 46.3786,29.3932 46.7119,29.8932 45.5,31C 46.7155,33.0955 47.5488,32.9288 48,30.5C 48.8856,33.4402 48.0523,34.4402 45.5,33.5C 44.7542,32.2638 44.4208,30.9305 44.5,29.5 Z"/></g>
<g><path style="opacity:1" fill="#151515" d="M 28.5,29.5 C 29.1577,30.3984 29.8243,31.3984 30.5,32.5C 32.5076,30.2383 32.841,30.7383 31.5,34C 27.7071,34.4866 26.7071,32.9866 28.5,29.5 Z"/></g>
<g><path style="opacity:1" fill="#c48936" d="M 37.5,34.5 C 39.288,34.2148 40.9547,34.5481 42.5,35.5C 40.7369,37.9361 38.7369,38.1027 36.5,36C 37.056,35.6174 37.3893,35.1174 37.5,34.5 Z"/></g>
<g><path style="opacity:1" fill="#131717" d="M 48.5,45.5 C 48.5,44.8333 48.8333,44.5 49.5,44.5C 50.9063,44.9731 51.573,45.9731 51.5,47.5C 50.5,46.8333 49.5,46.1667 48.5,45.5 Z"/></g>
<g><path style="opacity:1" fill="#526999" d="M 48.5,45.5 C 49.5,46.1667 50.5,46.8333 51.5,47.5C 51.427,49.0269 52.0937,50.0269 53.5,50.5C 55.8978,54.403 57.2311,58.7363 57.5,63.5C 56.1667,63.5 54.8333,63.5 53.5,63.5C 53.5575,57.2169 51.5575,51.7169 47.5,47C 47.5699,46.2352 47.9033,45.7352 48.5,45.5 Z"/></g>
<g><path style="opacity:1" fill="#1a1e23" d="M 51.5,47.5 C 52.9063,47.9731 53.573,48.9731 53.5,50.5C 52.0937,50.0269 51.427,49.0269 51.5,47.5 Z"/></g>
</svg>
