<svg width="32" height="32" viewBox="0 0 32 32" fill="none" xmlns="http://www.w3.org/2000/svg">
<path d="M11.3349 20.925L3.35742 25.5301C3.40692 25.5491 3.45939 25.5593 3.51242 25.56H28.4999C28.5501 25.5595 28.5999 25.551 28.6474 25.535L20.6524 20.925H11.3349Z" fill="#E6DAFE"/>
<path d="M15.6823 3.10254C15.6455 3.13632 15.6135 3.17501 15.5873 3.21754L3.0998 24.8475C3.07671 24.8881 3.05985 24.9319 3.0498 24.9775L11.0498 20.3675L15.6823 12.32V3.10254Z" fill="#E6DAFE"/>
<path d="M28.8974 24.8475L16.4099 3.21754C16.3853 3.17455 16.3541 3.13573 16.3174 3.10254V12.32L20.9674 20.3775L28.9499 25C28.942 24.9464 28.9242 24.8947 28.8974 24.8475V24.8475Z" fill="#E6DAFE"/>
</svg>
