<svg width="32" height="32" viewBox="0 0 32 32" fill="none" xmlns="http://www.w3.org/2000/svg">
<path d="M21.8746 16C25.8996 13.215 28.8071 10.39 28.0346 9.05254C27.5346 8.19254 25.7496 8.34254 23.3596 9.11504C23.1927 8.95129 22.9828 8.83827 22.7543 8.7891C22.5258 8.73993 22.2879 8.75665 22.0685 8.83729C21.8491 8.91794 21.6571 9.05921 21.5147 9.24469C21.3724 9.43016 21.2857 9.65222 21.2646 9.88504C20.5146 10.19 19.7371 10.535 18.9371 10.9125C18.5371 6.03254 17.5446 2.10254 15.9996 2.10254C14.4546 2.10254 13.4621 6.03254 13.0621 10.9125C8.6371 8.82004 4.7371 7.71254 3.9646 9.05254C3.4996 9.87004 4.3971 11.25 6.0896 12.8225C6.02913 12.9753 5.99858 13.1383 5.9996 13.3025C5.99927 13.4768 6.0333 13.6493 6.09974 13.8104C6.16618 13.9714 6.26373 14.1178 6.3868 14.2411C6.50987 14.3644 6.65605 14.4622 6.81697 14.5289C6.97789 14.5957 7.15039 14.63 7.3246 14.63C7.56269 14.6292 7.79605 14.5635 7.9996 14.44C8.6596 14.955 9.3721 15.4775 10.1271 16C6.0996 18.785 3.1921 21.61 3.9646 22.9475C4.1971 23.35 4.7146 23.5325 5.4396 23.5325C7.1296 23.5325 9.9671 22.55 13.0621 21.0875C13.1396 22.05 13.2421 22.975 13.3671 23.8375C13.1456 23.9798 12.9714 24.1848 12.8669 24.4264C12.7624 24.668 12.7322 24.9353 12.7802 25.1942C12.8282 25.453 12.9522 25.6917 13.1365 25.8797C13.3207 26.0678 13.5568 26.1967 13.8146 26.25C14.3371 28.4575 15.0646 29.8925 15.9996 29.8925C17.5446 29.8925 18.5371 25.96 18.9371 21.0825C22.0321 22.545 24.8696 23.5275 26.5596 23.5275C27.2871 23.5275 27.8096 23.345 28.0346 22.9425C28.8071 21.61 25.8996 18.785 21.8746 16ZM21.3746 10.5325C21.4975 10.7863 21.7025 10.991 21.9563 11.1135C22.2102 11.2361 22.4981 11.2692 22.7731 11.2075C23.0482 11.1458 23.2944 10.993 23.4716 10.7738C23.6489 10.5546 23.7468 10.2819 23.7496 10C23.7478 9.89258 23.7318 9.78582 23.7021 9.68254C24.9771 9.28004 25.9771 9.08504 26.6346 9.08504C27.0971 9.08504 27.3846 9.18004 27.4971 9.36254C27.9071 10.0775 25.7471 12.575 21.3246 15.6125C20.6146 15.135 19.8771 14.66 19.1246 14.1975C19.0996 13.3125 19.0571 12.4475 18.9996 11.585C19.8321 11.1875 20.6321 10.835 21.3721 10.5325H21.3746ZM17.2496 18.17C16.8246 18.415 16.4079 18.65 15.9996 18.875C15.5896 18.65 15.1729 18.415 14.7496 18.17C14.3263 17.925 13.9096 17.6809 13.4996 17.4375C13.4996 16.97 13.4996 16.5 13.4996 16C13.4996 15.5 13.4996 15.03 13.5146 14.5625C13.9146 14.3209 14.3313 14.0767 14.7646 13.83C15.1896 13.58 15.6071 13.3525 16.0146 13.1275C16.4246 13.3525 16.8421 13.585 17.2646 13.83C17.6871 14.075 18.1021 14.33 18.5021 14.5625C18.4996 15.03 18.4996 15.5 18.4996 16C18.4996 16.5 18.4996 16.97 18.4846 17.4375C18.0879 17.6809 17.6763 17.925 17.2496 18.17ZM18.4671 18.1875C18.4446 18.8575 18.4121 19.4975 18.3721 20.1125C17.8171 19.84 17.2471 19.5475 16.6571 19.2325C16.9621 19.065 17.2646 18.8925 17.5671 18.7175C17.8696 18.5425 18.1696 18.3675 18.4696 18.1875H18.4671ZM15.3396 19.2325C14.7496 19.5475 14.1779 19.8409 13.6246 20.1125C13.5846 19.4975 13.5521 18.8625 13.5296 18.1875C13.8296 18.3675 14.1296 18.545 14.4296 18.7175C14.7296 18.89 15.0346 19.065 15.3396 19.2325ZM12.8696 17.045C12.3021 16.6925 11.7646 16.3425 11.2496 16C11.7621 15.6575 12.2996 15.3075 12.8671 14.955C12.8671 15.3025 12.8671 15.6525 12.8671 16C12.8671 16.3475 12.8646 16.6975 12.8696 17.045ZM13.5296 13.8125C13.5529 13.1459 13.5846 12.505 13.6246 11.89C14.1796 12.1625 14.7496 12.4525 15.3371 12.7675C15.0346 12.9375 14.7321 13.1075 14.4296 13.2825C14.1271 13.4575 13.8296 13.6325 13.5296 13.8125V13.8125ZM16.6621 12.7675C17.2496 12.4525 17.8196 12.1625 18.3746 11.89C18.4146 12.505 18.4463 13.1459 18.4696 13.8125C18.1696 13.6325 17.8696 13.455 17.5696 13.2825C17.2696 13.11 16.9646 12.9375 16.6621 12.7675V12.7675ZM19.1296 14.955C19.6971 15.3075 20.2346 15.6575 20.7496 16C20.2496 16.3425 19.6996 16.6925 19.1321 17.045C19.1321 16.6975 19.1321 16.3475 19.1321 16C19.1321 15.6525 19.1346 15.3025 19.1296 14.955V14.955ZM15.9996 2.75004C16.8221 2.75004 17.9021 5.87754 18.3246 11.2175C17.5571 11.5925 16.7771 11.995 15.9996 12.4175C15.2221 11.995 14.4421 11.5925 13.6746 11.2175C14.0971 5.86504 15.1771 2.75004 15.9996 2.75004ZM8.4571 14C8.62204 13.7316 8.68553 13.413 8.63609 13.1019C8.58665 12.7907 8.42755 12.5075 8.18753 12.3034C7.9475 12.0993 7.64239 11.9878 7.32733 11.989C7.01227 11.9902 6.70803 12.1041 6.4696 12.31C4.9421 10.875 4.2671 9.81004 4.5121 9.38254C4.6196 9.20004 4.9121 9.10504 5.3746 9.10504C6.7021 9.10504 9.4221 9.89504 13.0096 11.605C12.9521 12.4575 12.9096 13.3325 12.8846 14.2175C12.1346 14.68 11.3846 15.155 10.6846 15.6325C9.8646 15.0525 9.1196 14.5 8.4571 13.985V14ZM4.5121 22.6325C4.1021 21.9175 6.2621 19.42 10.6846 16.3825C11.3946 16.86 12.1321 17.335 12.8846 17.7975C12.9096 18.6825 12.9521 19.5475 13.0096 20.41C8.1746 22.715 4.9246 23.345 4.5121 22.6325ZM16.0121 29.2625C15.5296 29.2625 14.9571 28.185 14.4846 26.22C14.7885 26.1275 15.0491 25.9288 15.2187 25.6601C15.3884 25.3915 15.4559 25.0709 15.409 24.7567C15.362 24.4424 15.2037 24.1556 14.9629 23.9483C14.7221 23.741 14.4148 23.6272 14.0971 23.6275C14.0646 23.6275 14.0321 23.6275 13.9996 23.6275C13.8746 22.7675 13.7704 21.8192 13.6871 20.7825C14.4546 20.4075 15.2346 20.0075 16.0121 19.585C16.7896 20.0075 17.5696 20.4075 18.3371 20.7825C17.9021 26.1325 16.8246 29.2625 15.9996 29.2625H16.0121ZM27.5121 22.6325C27.0996 23.345 23.8496 22.715 19.0121 20.41C19.0696 19.5575 19.1121 18.6825 19.1371 17.7975C19.8871 17.335 20.6371 16.86 21.3371 16.3825C25.7271 19.42 27.8971 21.9175 27.4996 22.6325H27.5121Z" fill="#E6DAFE"/>
<path d="M16 17.5225C16.8409 17.5225 17.5225 16.8409 17.5225 16C17.5225 15.1592 16.8409 14.4775 16 14.4775C15.1592 14.4775 14.4775 15.1592 14.4775 16C14.4775 16.8409 15.1592 17.5225 16 17.5225Z" fill="#E6DAFE"/>
</svg>
