<svg width="32" height="32" viewBox="0 0 32 32" fill="none" xmlns="http://www.w3.org/2000/svg">
<path fill-rule="evenodd" clip-rule="evenodd" d="M16.5912 3.00939C16.7686 3.04359 16.9154 3.16759 16.9789 3.33675L20.0926 11.6401C20.1933 11.9085 20.0573 12.2076 19.7889 12.3083C19.5206 12.4089 19.2214 12.2729 19.1208 12.0046L16.3048 4.49513L9.29946 12.1722C9.10627 12.3839 8.77803 12.3989 8.56631 12.2057C8.35459 12.0125 8.33957 11.6843 8.53277 11.4726L16.1096 3.16917C16.2314 3.03571 16.4138 2.97519 16.5912 3.00939Z" fill="#E6DAFE"/>
<path fill-rule="evenodd" clip-rule="evenodd" d="M11.7439 19.6917C12.0123 19.5911 12.3114 19.7271 12.412 19.9954L15.2284 27.5056L19.068 23.3046C19.2614 23.093 19.5896 23.0783 19.8012 23.2716C20.0127 23.465 20.0275 23.7932 19.8341 24.0048L15.423 28.8311C15.3011 28.9644 15.1188 29.0248 14.9414 28.9906C14.7641 28.9563 14.6174 28.8323 14.554 28.6632L11.4402 20.3599C11.3396 20.0915 11.4755 19.7924 11.7439 19.6917Z" fill="#E6DAFE"/>
<path fill-rule="evenodd" clip-rule="evenodd" d="M19.0702 23.2503L22.2878 19.7733L23.0496 20.4782L19.832 23.9553L19.0702 23.2503Z" fill="#E6DAFE"/>
<path fill-rule="evenodd" clip-rule="evenodd" d="M3.09242 11.5268C3.18937 11.3869 3.34876 11.3034 3.51896 11.3034H14.2615C14.4778 11.3034 14.6714 11.4376 14.7474 11.6401L17.7349 19.6068H27.317L24.5924 12.3413H19.5549C19.2683 12.3413 19.0359 12.109 19.0359 11.8224C19.0359 11.5357 19.2683 11.3034 19.5549 11.3034H24.9521C25.1684 11.3034 25.362 11.4376 25.438 11.6401L28.5518 19.9435C28.6115 20.1029 28.5893 20.2814 28.4924 20.4213C28.3954 20.5612 28.2361 20.6447 28.0658 20.6447H17.3752C17.1589 20.6447 16.9653 20.5105 16.8893 20.308L13.9018 12.3413H4.26783L6.99237 19.6068H11.978C12.2647 19.6068 12.497 19.8391 12.497 20.1257C12.497 20.4124 12.2647 20.6447 11.978 20.6447H6.63273C6.41641 20.6447 6.22277 20.5105 6.14681 20.308L3.03305 12.0046C2.97328 11.8452 2.99547 11.6667 3.09242 11.5268Z" fill="#E6DAFE"/>
<path fill-rule="evenodd" clip-rule="evenodd" d="M11.544 19.7746L19.1727 11.4713L19.937 12.1735L12.3083 20.4769L11.544 19.7746Z" fill="#E6DAFE"/>
</svg>
