<svg width="32" height="32" viewBox="0 0 32 32" fill="none" xmlns="http://www.w3.org/2000/svg">
<g clip-path="url(#clip0_6_4099)">
<path d="M23.5489 16.5264C22.8716 15.9618 22.0007 15.6219 21.0497 15.6219C18.8949 15.6219 17.1482 17.3686 17.1482 19.5241C17.1482 21.6795 18.8949 23.4256 21.0497 23.4256C22.0014 23.4256 22.8728 23.085 23.5502 22.5198C22.6532 23.6821 21.2464 24.4307 19.6639 24.4307C16.954 24.4307 14.7572 22.2339 14.7572 19.5241C14.7572 18.5075 15.0659 17.5641 15.5956 16.7811H15.5949L19.1476 11.4778L20.4004 9.60819L16.5129 4L9.59461 14.5741L9.17447 15.2164C8.42841 16.4787 8 17.9517 8 19.5241C8 24.2048 11.7946 28 16.4759 28C21.1573 28 24.9519 24.2048 24.9519 19.5241C24.9519 18.3197 24.4063 17.2426 23.5489 16.5264Z" fill="#E6DAFE"/>
</g>
<defs>
<clipPath id="clip0_6_4099">
<rect width="16.9519" height="24" fill="white" transform="translate(8 4)"/>
</clipPath>
</defs>
</svg>
