<svg width="32" height="32" viewBox="0 0 32 32" fill="none" xmlns="http://www.w3.org/2000/svg">
<path d="M16 28.5C22.9036 28.5 28.5 22.9036 28.5 16C28.5 9.09644 22.9036 3.5 16 3.5C9.09644 3.5 3.5 9.09644 3.5 16C3.5 22.9036 9.09644 28.5 16 28.5Z" stroke="#E6DAFE"/>
<path d="M17.087 22.3865C16.1456 23.3459 15.2584 24.2503 14.3721 25.1546C14.403 25.189 14.4349 25.2243 14.4658 25.2587C14.9919 24.9036 15.5172 24.5486 16.0768 24.1712C16.3373 24.5082 16.6545 24.803 16.8162 25.1667C16.9185 25.3971 16.8093 25.7341 16.7603 26.0169C16.633 26.7605 16.4697 27.499 16.3579 28.2443C16.2995 28.632 16.1688 28.8194 15.7355 28.7945C15.0126 28.7524 14.9713 28.7318 14.74 28.0604C14.1013 26.2078 13.4608 24.3552 12.7989 22.5103C12.4017 21.4047 11.9547 20.3164 11.5438 19.2152C11.3667 18.7398 11.5747 18.3245 11.7621 17.8672C12.1137 18.426 12.4421 18.916 12.737 19.4249C13.2098 20.239 13.9483 20.6998 14.7693 21.0978C15.5559 21.4787 16.3013 21.9446 17.087 22.3865Z" fill="#E6DAFE"/>
<path d="M19.9004 28.2516C19.6906 27.8183 19.486 27.3902 19.2771 26.9655C19.1009 26.6079 18.9702 26.2142 18.7287 25.9073C18.3134 25.3803 18.4037 24.8765 18.696 24.261C19.2935 24.7097 19.8798 25.1499 20.4661 25.5909C20.4944 25.5617 20.522 25.5324 20.5503 25.5041C19.6537 24.5197 18.757 23.5354 17.832 22.5193C17.9352 22.4282 18.0512 22.331 18.1604 22.2279C18.5395 21.8694 18.9066 21.4971 19.2969 21.1515C19.5247 20.9504 19.7809 20.7784 20.0414 20.6203C20.0792 20.597 20.2684 20.7105 20.2881 20.787C20.7119 22.4101 21.2209 24.016 21.2871 25.713C21.3077 26.24 21.3627 26.7652 21.422 27.2896C21.4521 27.557 21.3215 27.6842 21.1048 27.771C20.724 27.9232 20.3431 28.0754 19.9004 28.2516Z" fill="#E6DAFE"/>
<path d="M25.088 18.5009C26.105 18.5009 27.1229 18.4991 28.1399 18.5009C28.7021 18.5017 28.7193 18.5215 28.5766 19.0476C28.4846 19.3889 28.4055 19.7405 28.2602 20.0595C28.1958 20.2013 27.9826 20.3646 27.8347 20.3664C26.3732 20.3878 24.9066 20.4506 23.4529 20.3449C22.7085 20.2907 21.9863 19.9176 21.2565 19.6829C21.2126 19.6692 21.149 19.5832 21.1593 19.5565C21.2754 19.2557 21.3742 18.9419 21.5427 18.6719C21.6106 18.5636 21.8376 18.5103 21.9932 18.5086C23.0248 18.4948 24.0564 18.5009 25.088 18.5009Z" fill="#E6DAFE"/>
<path d="M25.4322 15.0756C26.4621 15.0756 27.4929 15.0833 28.5228 15.0704C28.8322 15.0661 28.9749 15.1676 28.9612 15.4874C28.9474 15.8304 28.9492 16.1743 28.9569 16.5173C28.9638 16.8121 28.8262 16.9213 28.5391 16.9205C26.4501 16.9153 24.3611 16.9162 22.2712 16.9196C22.0038 16.9196 21.8801 16.8388 21.9136 16.5379C21.9523 16.1837 21.9548 15.8235 21.9419 15.4668C21.9308 15.1659 22.0442 15.067 22.3408 15.0713C23.3707 15.0842 24.4015 15.0765 25.4314 15.0765L25.4322 15.0756Z" fill="#E6DAFE"/>
<path d="M9.80042 16.8836C9.656 16.8965 9.54424 16.9144 9.43162 16.9144C7.5283 16.9162 5.62498 16.9102 3.72252 16.9214C3.37006 16.9231 3.22563 16.7959 3.24368 16.4443C3.26002 16.1159 3.25142 15.7866 3.2454 15.4574C3.24111 15.2115 3.33309 15.0938 3.59787 15.0938C5.47282 15.0998 7.34691 15.0938 9.22186 15.1032C9.32588 15.1032 9.50641 15.1874 9.52189 15.2587C9.63107 15.7814 9.70758 16.3119 9.80128 16.8827L9.80042 16.8836Z" fill="#E6DAFE"/>
<path d="M11.0873 18.6817C10.7796 18.876 10.4873 19.1003 10.1623 19.2577C9.52702 19.5646 8.88227 19.8603 8.22289 20.1087C7.84292 20.2523 7.42856 20.3512 7.02451 20.3709C6.19664 20.4105 5.36534 20.3555 4.53747 20.3933C4.09216 20.4139 3.9228 20.1895 3.82308 19.8319C3.75087 19.5723 3.69241 19.3092 3.62535 19.0479C3.49125 18.5209 3.50328 18.5029 4.06379 18.5011C5.30774 18.4986 6.55169 18.5011 7.7965 18.5011C8.74042 18.5011 9.68434 18.4994 10.6283 18.5011C10.7615 18.5011 10.8948 18.5192 11.028 18.5287C11.0478 18.5794 11.0676 18.6301 11.0873 18.6817Z" fill="#E6DAFE"/>
<path d="M28.7492 13.4347H22.4805C22.5948 12.8837 22.6928 12.3507 22.8286 11.8271C22.8518 11.7386 23.0358 11.6354 23.1459 11.6346C24.7345 11.6225 26.3224 11.6208 27.911 11.6354C28.0383 11.6363 28.2403 11.7455 28.2773 11.8503C28.4535 12.3507 28.5858 12.8673 28.7492 13.4347Z" fill="#E6DAFE"/>
<path d="M24.9677 10.0805C24.2817 10.0805 23.5948 10.0977 22.9096 10.0685C22.7325 10.0607 22.5615 9.90512 22.3887 9.81829C22.5013 9.70395 22.6113 9.5879 22.7265 9.47614C22.7772 9.42714 22.8718 9.39705 22.8864 9.34289C22.993 8.93712 23.3979 8.83912 23.6378 8.58036C23.9731 8.21929 24.3599 8.18147 24.7983 8.19866C25.2118 8.215 25.6296 8.17545 26.0406 8.215C26.228 8.23305 26.4627 8.33793 26.5718 8.48235C26.8607 8.86319 27.0928 9.28701 27.3481 9.69364C27.5278 9.97991 27.4049 10.0805 27.1117 10.0805C26.3973 10.0796 25.6821 10.0805 24.9677 10.0805Z" fill="#E6DAFE"/>
<path d="M19.1571 4.74938C20.2704 4.74938 21.3149 4.72445 22.3568 4.76743C22.6096 4.77775 22.8709 4.98751 23.0979 5.14827C23.6747 5.55575 24.2352 5.98731 24.7923 6.40167C24.7398 6.49882 24.7287 6.54266 24.7132 6.54438C23.3773 6.68536 22.1135 6.58392 20.9788 5.71565C20.463 5.32106 19.8199 5.09325 19.1562 4.74852L19.1571 4.74938Z" fill="#E6DAFE"/>
<path d="M9.55469 13.4447C9.72318 13.363 9.81259 13.443 9.81259 13.706C9.81603 14.9354 10.3602 15.9455 11.0944 16.886C11.2525 17.088 11.3248 17.3571 11.4709 17.6683C10.4892 17.5221 9.89082 16.4123 9.83064 15.7357C9.76359 14.9912 9.65355 14.2511 9.55469 13.4447Z" fill="#E6DAFE"/>
<path d="M22.8265 24.8618C22.7637 24.4087 23.0182 24.2583 23.3577 24.3571C23.8056 24.4878 23.5804 24.885 23.6277 25.1824C23.2417 25.2477 22.8935 25.3157 22.5428 25.3621C22.2849 25.3965 22.0682 25.3535 22.1602 24.977C22.3605 24.9426 22.566 24.9065 22.8265 24.8618Z" fill="#E6DAFE"/>
<path d="M18.0078 24.8387C18.0929 24.4286 18.178 24.0194 18.2631 23.6094C18.3061 23.618 18.3482 23.6274 18.3912 23.636L18.1376 24.8499C18.0946 24.8456 18.0508 24.8429 18.0078 24.8387Z" fill="#E6DAFE"/>
<path d="M23.2166 7.03536C23.1796 7.00098 23.1057 7.01043 23.055 6.98808C22.4489 6.71986 21.8007 6.51784 21.2479 6.16537C19.8888 5.2971 18.4523 4.79247 16.8206 4.88961C16.3658 4.91712 15.905 4.82428 15.4486 4.83717C14.8528 4.85437 14.233 4.82944 13.6707 4.9902C13.0122 5.17846 12.4268 5.61948 11.7691 5.81634C11.0341 6.03642 10.5561 6.49463 10.3386 7.16001C10.0532 8.03516 9.86669 8.94556 9.68702 9.8508C9.55978 10.493 9.51422 11.1523 9.43513 11.804C9.38011 12.2613 9.33025 12.7195 9.28125 13.1502C10.7496 12.747 11.9729 11.9768 13.1094 11.0466C13.1395 11.0879 13.1696 11.1291 13.1996 11.1704C12.4595 11.8323 11.7193 12.4943 10.9499 13.182C11.0264 13.3333 11.17 13.5233 11.2172 13.7357C11.2654 13.9523 11.1975 14.1922 11.2224 14.4174C11.237 14.5489 11.335 14.6719 11.3935 14.7991C11.4347 14.8885 11.4734 14.9796 11.513 15.0699C11.3316 15.0329 11.2258 14.9418 11.1072 14.8713C10.7461 14.6598 10.6352 14.3357 10.8098 13.9669C10.8398 13.9033 10.9198 13.8483 10.9198 13.789C10.9198 13.6643 10.9189 13.5122 10.851 13.4227C10.7891 13.3411 10.6189 13.2706 10.5329 13.3007C10.459 13.3256 10.4126 13.4967 10.3954 13.6093C10.2922 14.2781 10.3902 14.9057 10.9353 15.5221C10.7221 15.4447 10.6361 15.4129 10.5028 15.3639C11.1132 16.4264 11.1459 16.4445 11.7812 16.1909C12.0185 16.9526 12.1792 17.7564 12.5179 18.4768C12.9288 19.3511 13.498 20.1299 14.4582 20.5426C15.054 20.7988 15.6024 21.1641 16.1767 21.4736C16.6916 21.7513 17.1997 22.0246 17.829 21.949C18.368 21.8845 18.7884 21.5793 18.9612 21.1512C19.0927 20.8254 19.2793 20.7532 19.5217 20.6311C19.7306 20.5254 19.9154 20.3706 20.1106 20.2374C20.0126 20.1772 19.9584 20.1884 19.9111 20.2133C18.7368 20.8177 17.5711 21.0051 16.3865 20.2159C16.1965 20.0887 15.893 20.0216 15.6729 20.0689C14.9242 20.2314 13.8676 19.6468 13.6467 18.8567C13.908 19.0571 14.1238 19.266 14.3783 19.4035C14.6026 19.5247 14.9001 19.6769 15.1116 19.6193C15.6867 19.462 16.1664 19.5342 16.6401 19.8935C16.8584 20.0586 17.1387 20.2245 17.3983 20.2382C18.4316 20.2941 19.4761 20.3173 20.2421 19.4164C20.2653 19.3889 20.3178 19.3854 20.3831 19.3605C20.4218 19.4783 20.4579 19.5883 20.5404 19.8385C20.8189 19.4817 21.1422 19.2324 21.2367 18.9161C21.4491 18.2008 21.6055 17.4572 21.6769 16.7144C21.75 15.9622 21.6932 15.1971 21.6941 14.438C21.6941 13.8191 21.6941 13.2001 21.6941 12.5811C21.7268 12.5794 21.7603 12.5777 21.793 12.576C21.8179 12.8966 21.8428 13.2164 21.8669 13.5371C21.8875 13.5345 21.9073 13.5319 21.9279 13.5293C21.9494 13.3385 21.9709 13.1468 21.9993 12.8975C22.0861 13.0127 22.1317 13.0737 22.1781 13.1356C22.7953 12.5166 22.6733 11.3741 22.0208 9.48544C21.8041 9.49575 21.5763 9.49489 21.3511 9.51982C20.0762 9.66339 18.803 9.83102 17.5264 9.95396C16.7149 10.0313 15.8964 10.0606 15.0806 10.0812C14.5021 10.0958 13.9218 10.0717 13.3441 10.0425C13.0346 10.027 12.781 10.0881 12.5979 10.3546C12.5386 10.4405 12.462 10.5153 12.3941 10.5953C12.352 10.5712 12.3107 10.5463 12.2686 10.5222C12.407 10.248 12.5454 9.97287 12.6856 9.69606C11.6875 9.2559 10.7444 9.21636 9.98103 10.3296C10.11 9.44589 11.0659 8.8467 11.9505 9.0023C12.315 9.06677 12.6735 9.17509 13.0397 9.2155C13.8349 9.30318 14.6327 9.37969 15.4314 9.42354C16.0194 9.45621 16.61 9.42956 17.1997 9.42956C17.2023 9.41752 17.204 9.40463 17.2066 9.39259C16.8051 9.31522 16.4045 9.23785 16.003 9.16048C18.2047 9.28943 20.4003 9.59117 22.6466 9.18197C22.5572 9.06677 22.4876 8.97651 22.4334 8.90687C22.742 8.7762 23.0696 8.71087 23.2957 8.5226C23.5527 8.3094 23.8699 7.9896 23.8751 7.71107C23.8794 7.49099 23.4538 7.25974 23.2131 7.03966L23.2166 7.03536ZM17.2565 18.6238C17.3175 18.1329 17.5608 17.9008 17.964 17.8982C18.3749 17.8948 18.7858 17.8982 19.2595 17.8982C19.2939 18.0194 19.3429 18.1914 19.4228 18.4716C18.6345 18.0916 17.9399 18.2095 17.2565 18.6238ZM20.2438 17.6609C18.9612 17.201 17.6949 17.5105 16.4277 17.7641L16.4054 17.6412C16.9547 17.4589 17.5049 17.2767 18.0663 17.0901C18.2631 17.4056 18.5391 17.3411 18.8391 17.2139C18.9552 17.1649 19.0996 17.1417 19.2234 17.1606C19.446 17.1933 19.6687 17.2517 19.881 17.3282C20.0246 17.3798 20.151 17.4804 20.2851 17.5595L20.2438 17.6609ZM20.3573 12.1951C20.7442 12.2416 20.9978 12.4788 21.2032 12.7857C21.1473 12.8476 21.0906 12.9095 21.0347 12.9714C20.9745 12.9723 20.9144 12.9731 20.8533 12.9749C20.6221 12.9972 20.531 12.7943 20.3822 12.6826C20.2799 12.5252 20.1596 12.3679 20.3573 12.1951ZM20.6676 13.5603C20.2911 13.7881 20.0005 13.8001 19.6635 13.519C20.016 13.4227 20.3031 13.4872 20.6676 13.5603ZM18.797 11.5934C18.8056 11.7309 18.8116 11.8702 18.9741 11.9269C19.0068 11.9802 19.0386 12.0335 19.0712 12.0877C19.1692 12.0988 19.2681 12.104 19.3644 12.1229C19.4357 12.1375 19.4942 12.1822 19.4976 12.2656C19.5011 12.3507 19.4392 12.4066 19.3713 12.4118C19.1151 12.4307 18.9044 12.6189 18.6414 12.6026C18.6646 12.5192 18.6878 12.4358 18.711 12.3525C18.754 12.1014 18.6242 11.8298 18.797 11.5934ZM18.7239 13.2869C18.717 13.2371 18.7093 13.1872 18.7024 13.1373C18.6998 13.0505 18.6973 12.9637 18.6947 12.8777C18.8365 12.6473 18.987 12.7324 19.1383 12.8648C19.0583 12.9293 18.9784 12.9946 18.8984 13.0591C18.7729 13.0832 18.9457 13.3376 18.7239 13.2869ZM16.6942 12.0378C16.7621 12.0077 16.861 12.0447 16.9452 12.0541C17.6115 12.1281 17.6803 12.0834 17.8711 11.4481C17.9665 12.2777 17.3123 12.8399 16.6083 12.5218C16.5103 12.4771 16.4509 12.349 16.3736 12.2596C16.4793 12.1831 16.5773 12.0894 16.6942 12.0378ZM16.5223 15.8066C16.708 15.4069 16.8421 14.9822 17.0441 14.5928C17.1206 14.4458 17.3175 14.346 17.4808 14.2721C17.5187 14.2549 17.6923 14.4191 17.7129 14.5188C17.7301 14.6022 17.6381 14.7415 17.5556 14.8068C17.2977 15.0088 17.1103 15.2229 17.2393 15.6416C17.5702 15.2719 17.8556 15.3011 18.1987 15.5642C18.3319 15.6665 18.6027 15.6175 18.8056 15.5934C19.0042 15.5702 19.1959 15.4911 19.4993 15.4052C19.3541 15.0501 19.1967 14.6633 19.0386 14.2773C19.085 14.2566 19.1305 14.236 19.177 14.2154C19.6962 15.1077 20.2155 16 20.7356 16.8924C20.7115 16.9018 20.6874 16.9104 20.6642 16.9199C20.4287 16.6611 20.2112 16.3817 19.9533 16.1479C19.44 15.6811 19.0317 15.7267 18.6018 16.27C18.4462 16.4669 18.2932 16.4944 18.1041 16.3095C17.5358 15.7533 17.112 15.7593 16.5266 16.3181C16.4088 16.4307 16.2833 16.5356 16.0804 16.5838C16.2291 16.3259 16.3968 16.0757 16.5223 15.8066ZM15.8234 13.562C15.905 13.5543 16.0091 13.5826 16.0013 13.6935C15.9944 13.801 15.8853 13.8259 15.8079 13.8087C15.5044 13.74 15.1399 13.8225 14.9405 13.4786C14.8949 13.4141 14.8975 13.3514 14.9474 13.2895C15.2276 13.4167 15.4924 13.5912 15.8234 13.562ZM14.4144 12.7823C14.7428 12.5055 15.158 12.2398 15.6325 12.4333C15.5285 12.5519 15.4245 12.6568 15.2414 12.6284C15.0651 12.6009 14.9843 12.7049 14.968 12.87C14.9422 12.8726 14.9164 12.8726 14.8906 12.8726C14.8803 12.864 14.87 12.8571 14.8588 12.8511C14.5657 12.9843 14.2717 13.1201 13.9287 13.2766C14.0499 13.0101 14.2029 12.8347 14.4144 12.7823ZM13.5117 14.4999C13.8702 14.8782 14.2287 15.2573 14.5872 15.6355C14.5665 15.6845 14.5459 15.7336 14.5253 15.7826C14.3413 15.7507 14.1092 15.7791 13.982 15.6768C13.6174 15.3845 13.4859 14.959 13.5117 14.4999Z" fill="#E6DAFE"/>
<mask id="mask0_11878_571" style="mask-type:luminance" maskUnits="userSpaceOnUse" x="3" y="3" width="26" height="26">
<path d="M16.0006 28.5755C23.0631 28.5755 28.7884 22.8502 28.7884 15.7877C28.7884 8.72526 23.0631 3 16.0006 3C8.93816 3 3.21289 8.72526 3.21289 15.7877C3.21289 22.8502 8.93816 28.5755 16.0006 28.5755Z" fill="white"/>
</mask>
<g mask="url(#mask0_11878_571)">
<path d="M6.03039 13.2109L6.19555 13.5834L6.6007 13.6247L6.29705 13.8957L6.38307 14.2939L6.03039 14.0892L5.67857 14.2939L5.76459 13.8957L5.46094 13.6247L5.86609 13.5834L6.03039 13.2109Z" fill="#E6DAFE"/>
<path d="M9.00891 13.2109L9.1732 13.5834L9.57836 13.6247L9.27471 13.8957L9.36073 14.2939L9.00891 14.0892L8.65708 14.2939L8.7431 13.8957L8.43945 13.6247L8.84461 13.5834L9.00891 13.2109Z" fill="#E6DAFE"/>
<path d="M3.36632 13.2109L3.53063 13.5834L3.93664 13.6247L3.63298 13.8957L3.71901 14.2939L3.36632 14.0892L3.0145 14.2939L3.10052 13.8957L2.79688 13.6247L3.20202 13.5834L3.36632 13.2109Z" fill="#E6DAFE"/>
<path d="M6.03039 10.8359L6.19555 11.2093L6.6007 11.2497L6.29705 11.5215L6.38307 11.9198L6.03039 11.7151L5.67857 11.9198L5.76459 11.5215L5.46094 11.2497L5.86609 11.2093L6.03039 10.8359Z" fill="#E6DAFE"/>
<path d="M9.00891 10.8359L9.1732 11.2093L9.57836 11.2497L9.27471 11.5215L9.36073 11.9198L9.00891 11.7151L8.65708 11.9198L8.7431 11.5215L8.43945 11.2497L8.84461 11.2093L9.00891 10.8359Z" fill="#E6DAFE"/>
<path d="M4.5382 12.0312L4.70336 12.4046L5.10852 12.4459L4.80486 12.7168L4.89088 13.1151L4.5382 12.9104L4.18638 13.1151L4.2724 12.7168L3.96875 12.4459L4.3739 12.4046L4.5382 12.0312Z" fill="#E6DAFE"/>
<path d="M7.51867 12.0312L7.68297 12.4046L8.08898 12.4459L7.78447 12.7168L7.87135 13.1151L7.51867 12.9104L7.16685 13.1151L7.25287 12.7168L6.94922 12.4459L7.35437 12.4046L7.51867 12.0312Z" fill="#E6DAFE"/>
<path d="M4.5382 9.57812L4.70336 9.95059L5.10852 9.99189L4.80486 10.2637L4.89088 10.662L4.5382 10.4572L4.18638 10.662L4.2724 10.2637L3.96875 9.99189L4.3739 9.95059L4.5382 9.57812Z" fill="#E6DAFE"/>
<path d="M7.51867 9.57812L7.68297 9.95059L8.08898 9.99189L7.78447 10.2637L7.87135 10.662L7.51867 10.4572L7.16685 10.662L7.25287 10.2637L6.94922 9.99189L7.35437 9.95059L7.51867 9.57812Z" fill="#E6DAFE"/>
<path d="M7.51867 7.09375L7.68297 7.46708L8.08898 7.50837L7.78447 7.77933L7.87135 8.1776L7.51867 7.97287L7.16685 8.1776L7.25287 7.77933L6.94922 7.50837L7.35437 7.46708L7.51867 7.09375Z" fill="#E6DAFE"/>
<path d="M9.00891 6.00781L9.1732 6.38028L9.57836 6.42157L9.27471 6.69253L9.36073 7.0908L9.00891 6.88608L8.65708 7.0908L8.7431 6.69253L8.43945 6.42157L8.84461 6.38028L9.00891 6.00781Z" fill="#E6DAFE"/>
<path d="M10.3663 4.75L10.5306 5.12247L10.9358 5.16376L10.6321 5.43558L10.7181 5.83385L10.3663 5.62912L10.0145 5.83385L10.1005 5.43558L9.79688 5.16376L10.202 5.12247L10.3663 4.75Z" fill="#E6DAFE"/>
<path d="M11.791 3.66406L11.9553 4.03653L12.3605 4.07782L12.0568 4.34964L12.1428 4.74791L11.791 4.54319L11.4383 4.74791L11.5244 4.34964L11.2207 4.07782L11.6259 4.03653L11.791 3.66406Z" fill="#E6DAFE"/>
<path d="M14.6261 3.66406L14.7913 4.03653L15.1964 4.07782L14.8928 4.34964L14.9788 4.74791L14.6261 4.54319L14.2743 4.74791L14.3603 4.34964L14.0566 4.07782L14.4618 4.03653L14.6261 3.66406Z" fill="#E6DAFE"/>
<path d="M3.36632 10.8359L3.53063 11.2093L3.93664 11.2497L3.63298 11.5215L3.71901 11.9198L3.36632 11.7151L3.0145 11.9198L3.10052 11.5215L2.79688 11.2497L3.20202 11.2093L3.36632 10.8359Z" fill="#E6DAFE"/>
<path d="M6.03039 8.32031L6.19555 8.69278L6.6007 8.73407L6.29705 9.00589L6.38307 9.40416L6.03039 9.19944L5.67857 9.40416L5.76459 9.00589L5.46094 8.73407L5.86609 8.69278L6.03039 8.32031Z" fill="#E6DAFE"/>
<path d="M9.00891 8.32031L9.1732 8.69278L9.57836 8.73407L9.27471 9.00589L9.36073 9.40416L9.00891 9.19944L8.65708 9.40416L8.7431 9.00589L8.43945 8.73407L8.84461 8.69278L9.00891 8.32031Z" fill="#E6DAFE"/>
<path d="M3.36632 8.32031L3.53063 8.69278L3.93664 8.73407L3.63298 9.00589L3.71901 9.40416L3.36632 9.19944L3.0145 9.40416L3.10052 9.00589L2.79688 8.73407L3.20202 8.69278L3.36632 8.32031Z" fill="#E6DAFE"/>
</g>
</svg>
