<svg width="32" height="32" viewBox="0 0 32 32" fill="none" xmlns="http://www.w3.org/2000/svg">
<path d="M13.5589 3.00679L13.3311 4.22003L13.7863 3.60466L13.5589 3.00679Z" fill="#E6DAFE"/>
<path d="M15.61 4.48576L14.7546 3.79038L15.5983 4.64255L15.61 4.48576Z" fill="#E6DAFE"/>
<path d="M16.3572 5.79651L15.7682 4.74576L15.7626 4.82184L16.3434 5.80008L16.3572 5.79651Z" fill="#E6DAFE"/>
<path d="M16.1631 5.84472L15.7984 5.23006L15.8644 5.91901L16.1631 5.84472Z" fill="#E6DAFE"/>
<path d="M15.6905 5.96222L15.593 4.94612L14.6339 5.09827L15.6629 5.96901L15.6905 5.96222Z" fill="#E6DAFE"/>
<path d="M14.4725 5.19506L14.1106 6.35473L15.4496 6.02223L14.4725 5.19506Z" fill="#E6DAFE"/>
<path d="M13.5188 6.50153L13.3712 5.92222L13.4209 6.52581L13.5188 6.50153Z" fill="#E6DAFE"/>
<path d="M13.6909 6.45902L13.7157 6.4526L13.7899 3.89895L13.2637 4.6104L13.2843 4.86041L13.6909 6.45902Z" fill="#E6DAFE"/>
<path d="M13.8946 6.40831L13.9091 6.40474L14.3338 5.04363L13.9623 4.06717L13.8946 6.40831Z" fill="#E6DAFE"/>
<path d="M15.4865 4.78219L13.7622 3.04179L14.4849 4.94112L15.4865 4.78219Z" fill="#E6DAFE"/>
<path d="M28.466 3L21.3325 7.68156L28.0584 3.47751L28.5143 3.08322L28.466 3Z" fill="#E6DAFE"/>
<path d="M18.6538 9.56554L18.4132 9.71447L21.2608 13.7424L21.7639 14.1321L18.6538 9.56554Z" fill="#E6DAFE"/>
<path d="M18.2617 9.8084L17.9885 9.97733L20.9727 15.5011L21.1054 13.8303L18.2617 9.8084Z" fill="#E6DAFE"/>
<path d="M21.131 15.7507L22.0985 16.1654L21.2559 14.1739L21.131 15.7507Z" fill="#E6DAFE"/>
<path d="M11.3276 8.12657L13.9957 9.57018L27.4045 3.28679L11.3276 8.12657Z" fill="#E6DAFE"/>
<path d="M14.0634 9.73554L12.9054 12.9121L15.2151 11.4831L27.4034 3.4843L14.0634 9.73554Z" fill="#E6DAFE"/>
<path d="M24.8127 3.88074L9.35068 7.72084L11.091 8.01157L24.8127 3.88074Z" fill="#E6DAFE"/>
<path d="M22.3813 18.234L22.9213 17.1336L22.3582 16.5561L22.3813 18.234Z" fill="#E6DAFE"/>
<path d="M22.079 14.6014L21.4106 14.0839L22.3415 16.2839L22.818 16.7725L22.079 14.6014Z" fill="#E6DAFE"/>
<path d="M21.3243 17.6404L22.2064 18.4083L22.1812 16.5811L21.3243 17.6404Z" fill="#E6DAFE"/>
<path d="M22.123 16.37L21.1388 15.9482L21.2701 17.4247L22.123 16.37Z" fill="#E6DAFE"/>
<path d="M20.228 18.6672L22.0779 18.5322L21.203 17.7708L20.228 18.6672Z" fill="#E6DAFE"/>
<path d="M20.9575 15.9093L19.5653 16.1093L21.0934 17.4393L20.9575 15.9093Z" fill="#E6DAFE"/>
<path d="M19.6075 17.6625L20.0119 18.6236L20.9841 17.73L19.6075 17.6625Z" fill="#E6DAFE"/>
<path d="M19.5532 17.4811L20.9486 17.5497L19.4641 16.2575L19.5532 17.4811Z" fill="#E6DAFE"/>
<path d="M17.837 10.0709L14.7752 11.9649L20.8056 15.5653L17.837 10.0709Z" fill="#E6DAFE"/>
<path d="M20.7755 15.755L14.6045 12.0706L14.3902 12.2031L19.384 15.9554L20.7755 15.755Z" fill="#E6DAFE"/>
<path d="M17.9896 17.1682L19.7696 18.5058L19.4045 17.6386L17.9896 17.1682Z" fill="#E6DAFE"/>
<path d="M19.2811 16.1836L17.7409 16.8975L19.3723 17.44L19.2811 16.1836Z" fill="#E6DAFE"/>
<path d="M19.0831 16.0789L14.5673 15.0803L17.5039 16.8107L19.0831 16.0789Z" fill="#E6DAFE"/>
<path d="M13.6249 12.6767L14.04 13.6346L18.6992 15.6636L14.2274 12.3038L13.6249 12.6767Z" fill="#E6DAFE"/>
<path d="M17.8392 28.4825L18.5832 26.641L17.3297 24.1113L17.8392 28.4825Z" fill="#E6DAFE"/>
<path d="M18.4799 15.7629L14.0691 13.8421L14.1227 14.7993L18.4799 15.7629Z" fill="#E6DAFE"/>
<path d="M17.2687 23.5881L18.3157 25.7013L17.4191 22.6177L13.3627 18.0333L16.4494 22.472L17.2676 23.5799L17.2687 23.5881Z" fill="#E6DAFE"/>
<path d="M13.6976 29L17.6923 28.7546L17.1221 23.8645L13.6976 29Z" fill="#E6DAFE"/>
<path d="M10.2845 19.2237L8.23165 19.8162L13.5291 28.9321L17.0586 23.6395L10.2845 19.2237Z" fill="#E6DAFE"/>
<path d="M16.8177 23.2698L11.3393 15.8529L10.4026 19.0879L16.8177 23.2698Z" fill="#E6DAFE"/>
<path d="M14.0876 15.0046L13.9087 15.5475L16.6588 16.5197L14.0876 15.0046Z" fill="#E6DAFE"/>
<path d="M12.6542 16.8111L12.5623 16.86L14.3888 18.9244L12.6542 16.8111Z" fill="#E6DAFE"/>
<path d="M12.8231 13.5274V14.5907L13.7558 15.4443L13.9382 14.8907L12.8231 13.5274Z" fill="#E6DAFE"/>
<path d="M12.8231 13.1728V13.2467L13.9343 14.6046L13.8864 13.7503L12.9675 13.0831L12.8231 13.1728Z" fill="#E6DAFE"/>
<path d="M13.8828 9.71197L11.1896 8.25479L11.3822 15.2711L13.7203 10.1581L13.8828 9.71197Z" fill="#E6DAFE"/>
<path d="M13.1314 12.9817L13.7619 13.4396L13.472 12.771L13.1314 12.9817Z" fill="#E6DAFE"/>
<path d="M4.05002 21.0226L13.191 28.7039L8.05567 19.8669L4.05002 21.0226Z" fill="#E6DAFE"/>
<path d="M12.2522 13.7957L12.6457 13.0992V13.0728L12.6616 13.0628L12.9533 12.2628L12.2522 13.7957Z" fill="#E6DAFE"/>
<path d="M12.6208 15.5193L12.5229 16.6789L12.5896 16.6436L12.6208 15.5193Z" fill="#E6DAFE"/>
<path d="M12.3491 16.6293L12.6116 13.5206L11.4138 15.6418L12.3491 16.6293Z" fill="#E6DAFE"/>
<path d="M6.35655 23.6756L11.2279 27.2871L4.7174 21.8162L6.35655 23.6756Z" fill="#E6DAFE"/>
<path d="M10.4484 18.2918L11.2066 15.6732L11.2017 15.6664L11.2148 15.6371L11.0565 9.88269L10.4484 18.2918Z" fill="#E6DAFE"/>
<path d="M10.9796 8.49301L4.04861 20.8376L10.215 19.0579L10.9796 8.49301Z" fill="#E6DAFE"/>
<path d="M10.9568 8.17014L8.96821 7.83799L4.37538 19.8923L10.9568 8.17014Z" fill="#E6DAFE"/>
<path d="M4.41689 14.9375L4 20.379L8.5201 8.51515L4.41689 14.9375Z" fill="#E6DAFE"/>
</svg>
