<svg width="32" height="32" viewBox="0 0 32 32" fill="none" xmlns="http://www.w3.org/2000/svg">
<path d="M28.9575 21.7755L25.3372 15.7445H20.8119L24.4322 21.7755H12.4127C9.20517 21.7262 6.62025 19.0439 6.62025 15.7445C6.62025 12.4451 9.25454 9.71213 12.5032 9.71213H21.8075L19.575 6H12.4634C7.23323 6.02194 3 10.3772 3 15.7445C3 21.1118 6.84789 25.0571 11.738 25.4575V25.4822H12.159C12.2742 25.4863 12.3893 25.489 12.5045 25.489V25.4822H29V21.7755H28.9575Z" fill="#E6DAFE"/>
<path d="M12.052 11.1397C11.0523 11.1397 10.2419 11.9707 10.2419 12.995C10.2419 14.0194 11.0523 14.8518 12.052 14.8518C13.0517 14.8518 13.8621 14.0208 13.8621 12.995C13.8621 11.9693 13.0517 11.1397 12.052 11.1397Z" fill="#E6DAFE"/>
<path d="M12.052 16.2793C11.0523 16.2793 10.2419 17.1103 10.2419 18.1361C10.2419 19.1618 11.0523 19.9914 12.052 19.9914C13.0517 19.9914 13.8621 19.1604 13.8621 18.1361C13.8621 17.1117 13.0517 16.2793 12.052 16.2793Z" fill="#E6DAFE"/>
</svg>
