<svg width="32" height="32" viewBox="0 0 32 32" fill="none" xmlns="http://www.w3.org/2000/svg">
<path d="M16.0004 3.2124C13.4713 3.2124 10.9989 3.96238 8.89604 5.36748C6.79315 6.77259 5.15414 8.76973 4.18629 11.1063C3.21843 13.4429 2.9652 16.0141 3.4586 18.4946C3.95201 20.9752 5.1699 23.2537 6.95827 25.042C8.74663 26.8304 11.0251 28.0483 13.5057 28.5417C15.9862 29.0351 18.5574 28.7819 20.894 27.814C23.2306 26.8462 25.2277 25.2072 26.6328 23.1043C28.0379 21.0014 28.7879 18.529 28.7879 15.9999C28.7839 12.6097 27.4354 9.35942 25.0381 6.96216C22.6409 4.5649 19.3906 3.21637 16.0004 3.2124V3.2124ZM16.0004 27.5324C13.7195 27.5324 11.4898 26.856 9.59328 25.5888C7.69677 24.3216 6.21862 22.5205 5.34576 20.4132C4.47289 18.3059 4.24451 15.9871 4.68949 13.75C5.13447 11.5129 6.23284 9.45804 7.84569 7.84519C9.45854 6.23234 11.5134 5.13398 13.7505 4.689C15.9876 4.24401 18.3064 4.47239 20.4137 5.34526C22.521 6.21813 24.3221 7.69628 25.5893 9.59279C26.8565 11.4893 27.5329 13.719 27.5329 15.9999C27.5296 19.0575 26.3135 21.9889 24.1515 24.151C21.9894 26.313 19.058 27.5291 16.0004 27.5324V27.5324Z" fill="#E6DAFE"/>
<path d="M22.0602 12.1401C22.2163 12.1261 22.3615 12.0542 22.4673 11.9386C22.5731 11.8229 22.6317 11.6718 22.6317 11.5151C22.6317 11.3584 22.5731 11.2073 22.4673 11.0916C22.3615 10.976 22.2163 10.9041 22.0602 10.8901H18.4452V7.75011C18.4529 7.66333 18.4426 7.57589 18.4147 7.49335C18.3868 7.41081 18.342 7.33498 18.2832 7.27069C18.2245 7.20639 18.1529 7.15505 18.0732 7.11992C17.9935 7.08479 17.9073 7.06665 17.8202 7.06665C17.7331 7.06665 17.6469 7.08479 17.5672 7.11992C17.4874 7.15505 17.4159 7.20639 17.3571 7.27069C17.2983 7.33498 17.2536 7.41081 17.2257 7.49335C17.1978 7.57589 17.1874 7.66333 17.1952 7.75011V10.8851H14.6952V7.75011C14.7029 7.66333 14.6926 7.57589 14.6647 7.49335C14.6368 7.41081 14.592 7.33498 14.5332 7.27069C14.4745 7.20639 14.4029 7.15505 14.3232 7.11992C14.2435 7.08479 14.1573 7.06665 14.0702 7.06665C13.9831 7.06665 13.8969 7.08479 13.8172 7.11992C13.7374 7.15505 13.6659 7.20639 13.6071 7.27069C13.5483 7.33498 13.5036 7.41081 13.4757 7.49335C13.4478 7.57589 13.4374 7.66333 13.4452 7.75011V10.8851H9.85018C9.68375 10.8851 9.52415 10.9512 9.40647 11.0689C9.28879 11.1866 9.22268 11.3462 9.22268 11.5126V20.3676C9.22202 20.4504 9.23776 20.5326 9.269 20.6093C9.30024 20.686 9.34636 20.7558 9.40469 20.8146C9.46302 20.8734 9.53242 20.92 9.60888 20.9519C9.68534 20.9837 9.76735 21.0001 9.85018 21.0001H13.4277V24.2226C13.4417 24.3787 13.5135 24.524 13.6292 24.6297C13.7449 24.7355 13.8959 24.7942 14.0527 24.7942C14.2094 24.7942 14.3605 24.7355 14.4761 24.6297C14.5918 24.524 14.6637 24.3787 14.6777 24.2226V21.0001H17.1777V24.2226C17.1917 24.3787 17.2635 24.524 17.3792 24.6297C17.4949 24.7355 17.6459 24.7942 17.8027 24.7942C17.9594 24.7942 18.1105 24.7355 18.2261 24.6297C18.3418 24.524 18.4137 24.3787 18.4277 24.2226V21.0001H22.0602C22.2262 20.9994 22.3851 20.933 22.5023 20.8154C22.6194 20.6978 22.6852 20.5386 22.6852 20.3726V15.7751C22.6855 15.6928 22.6696 15.6113 22.6383 15.5352C22.6071 15.459 22.5611 15.3899 22.503 15.3315C22.4449 15.2732 22.3759 15.227 22.2999 15.1954C22.2239 15.1639 22.1425 15.1476 22.0602 15.1476H14.0727C13.9166 15.1616 13.7713 15.2335 13.6656 15.3491C13.5598 15.4648 13.5011 15.6159 13.5011 15.7726C13.5011 15.9293 13.5598 16.0804 13.6656 16.1961C13.7713 16.3117 13.9166 16.3836 14.0727 16.3976H21.4327V19.7501H10.4752V12.1401H22.0602Z" fill="#E6DAFE"/>
</svg>
