<svg width="32" height="32" viewBox="0 0 32 32" fill="none" xmlns="http://www.w3.org/2000/svg">
<path d="M28.9582 14.5637C28.8735 14.792 28.7759 15.0141 28.6524 15.2248C28.6039 15.3054 28.5631 15.3901 28.5305 15.4789C28.4856 15.6075 28.4092 15.7056 28.3043 15.7903C28.1835 15.8879 28.042 15.9448 27.9082 16.016C27.4661 16.2505 27.0586 16.5315 26.7023 16.8863C26.459 17.128 26.2844 17.4089 26.2183 17.7457C26.1801 17.9409 26.1657 18.1408 26.146 18.338C26.1269 18.5255 26.1233 18.714 26.1001 18.901C26.0169 19.5698 25.6802 20.0832 25.1214 20.4499C24.7552 20.69 24.3441 20.8207 23.9175 20.908C23.5797 20.9772 23.242 21.0458 22.9176 21.1657C22.9099 21.1688 22.899 21.1641 22.8861 21.1626C23.0101 20.7515 23.101 20.3311 23.1583 19.9055C23.2001 19.5894 23.2337 19.2718 23.2507 18.9537C23.2724 18.54 23.2554 18.1268 23.2146 17.7136C23.2063 17.6279 23.2125 17.6098 23.2972 17.5881C23.4088 17.5592 23.5234 17.5329 23.6381 17.5267C23.8602 17.5143 24.0812 17.5003 24.2868 17.4074C24.7444 17.2013 25.0775 16.8625 25.3181 16.4276C25.5469 16.015 25.6182 15.56 25.6533 15.0998C25.6766 14.793 25.6683 14.4832 25.6797 14.1748C25.6833 14.0705 25.6921 13.9636 25.7189 13.8634C25.799 13.5664 25.8899 13.2716 25.9761 12.9761L25.9441 12.956C25.8196 13.1936 25.6921 13.4301 25.5717 13.6703C25.5325 13.7513 25.5025 13.8366 25.4824 13.9244C25.4287 14.1568 25.3874 14.3928 25.3295 14.6247C25.2815 14.8189 25.205 15.0032 25.078 15.1623C24.9654 15.3038 24.8229 15.3756 24.64 15.3508C24.5791 15.3426 24.5187 15.3291 24.4598 15.3116C24.2635 15.2537 24.1086 15.1282 23.9537 15.0001C23.7693 14.8478 23.5833 14.6965 23.3892 14.5575C23.1588 14.3928 22.9114 14.3887 22.662 14.5214C22.6403 14.5327 22.6171 14.5426 22.5835 14.5581C22.5902 14.5012 22.5979 14.4558 22.599 14.4103C22.6072 14.0142 22.6165 13.6181 22.6201 13.2215C22.6217 13.0433 22.6093 12.8656 22.6078 12.6874C22.6072 12.5826 22.6021 12.4752 22.6227 12.3739C22.7136 11.9288 22.8954 11.5182 23.1242 11.1282C23.1707 11.0502 23.226 10.9774 23.2879 10.9113C23.4486 10.7393 23.5513 10.7254 23.7429 10.8586C23.8891 10.9594 24.0301 11.0683 24.1649 11.184C24.4696 11.4474 24.8022 11.653 25.2061 11.7216C25.3812 11.7516 25.5562 11.7862 25.7323 11.7981C25.9596 11.8136 26.1321 11.718 26.2261 11.4996C26.332 11.2527 26.4414 11.0079 26.4957 10.743C26.5453 10.4982 26.5933 10.2533 26.6465 10.0096C26.6816 9.84689 26.711 9.68266 26.7095 9.51584C26.7064 9.24522 26.8195 9.03398 27.0225 8.86458C27.0777 8.81862 27.132 8.77059 27.2001 8.71171C27.1857 8.71326 27.1707 8.71584 27.1567 8.71894C26.9166 8.80726 26.7188 8.95755 26.5447 9.14089C26.3759 9.31649 26.2421 9.52307 26.1507 9.74928C26.129 9.80351 26.1037 9.85567 26.0742 9.90577C26.0154 10.0054 25.9586 10.1072 25.8894 10.1996C25.8253 10.2854 25.7385 10.3308 25.6229 10.2967C25.5283 10.2704 25.4328 10.2492 25.3362 10.2327C25.0294 10.1769 24.7697 10.037 24.5574 9.80713C24.3451 9.5773 24.1334 9.34799 23.9655 9.08253C23.9433 9.04483 23.918 9.00971 23.8891 8.97666C23.8318 8.91365 23.7589 8.87595 23.6748 8.90848C23.6118 8.93224 23.5456 8.96374 23.4992 9.01023C23.1144 9.38776 22.7947 9.82572 22.5525 10.3071C22.5329 10.3463 22.5117 10.385 22.4931 10.4207C22.4208 9.93263 22.3557 9.44973 22.2762 8.96891C22.1507 8.20919 21.9658 7.46342 21.7034 6.73883C21.5061 6.19448 21.2644 5.6713 20.9303 5.19461C20.6251 4.75923 20.2573 4.39771 19.7652 4.1746C19.5234 4.06511 19.274 4.00158 19.009 4.00003C18.7415 3.99848 18.4828 4.05271 18.2276 4.1276C17.738 4.27117 17.3326 4.55316 16.9654 4.89713C16.576 5.26123 16.2475 5.67698 15.9506 6.11856C15.4295 6.89325 15.0173 7.72527 14.6548 8.58311C14.5949 8.72617 14.537 8.86975 14.475 9.01952C13.4943 8.8713 12.5187 8.88679 11.5462 9.01023C11.5322 8.95961 11.5229 8.92139 11.5116 8.88369C11.3003 8.1844 11.0468 7.50113 10.7302 6.84212C10.4606 6.28021 10.1507 5.74361 9.75251 5.26123C9.47517 4.92553 9.16478 4.62857 8.7795 4.41682C8.42572 4.22211 8.05645 4.10126 7.64535 4.15187C7.17692 4.20972 6.75187 4.36465 6.39189 4.68073C6.11404 4.92553 5.88215 5.20804 5.68383 5.51843C5.27272 6.16246 4.9897 6.86433 4.76091 7.58996C4.49906 8.42094 4.3214 9.27104 4.1897 10.132C4.07918 10.8514 4.01101 11.5755 3.95988 12.3006C3.93715 12.6224 3.92579 12.9451 3.91546 13.2674C3.90255 13.6883 3.89584 14.1098 3.88447 14.5312C3.88344 14.5705 3.87466 14.6092 3.85917 14.6459C3.67582 15.0657 3.51469 15.4934 3.38454 15.9329C3.14542 16.7375 3.03128 17.5618 3.00339 18.399C2.99358 18.6928 3.00752 18.9872 3.01424 19.2816C3.02302 19.6338 3.06795 19.983 3.12992 20.329C3.28435 21.1951 3.55342 22.0369 3.92992 22.8323C4.21862 23.4443 4.57447 24.0227 4.99073 24.5568C5.28615 24.9353 5.61049 25.2886 5.9529 25.6253C6.10009 25.7704 6.23644 25.9269 6.40945 26.0447C6.49364 26.102 6.57266 26.165 6.65322 26.2275C7.23424 26.681 7.85296 27.074 8.52023 27.388C9.2753 27.7444 10.0603 28.0103 10.8794 28.1741C11.3814 28.2742 11.887 28.3471 12.3983 28.3713C12.8048 28.3904 13.2118 28.391 13.6187 28.3631C13.9699 28.3388 14.3191 28.3016 14.6666 28.2453C15.3262 28.1369 15.9738 27.9644 16.5998 27.7299C17.4282 27.4216 18.1987 27.0048 18.9264 26.5038C19.4387 26.1516 19.9191 25.7549 20.3617 25.3185C20.7888 24.8971 21.1854 24.4478 21.5237 23.9499C21.5537 23.905 21.5976 23.8704 21.6482 23.8518C22.004 23.7108 22.3738 23.6266 22.7518 23.5713C23.0209 23.5321 23.29 23.4923 23.556 23.4386C24.1654 23.3147 24.6488 22.9872 25.0325 22.5033C25.3042 22.1604 25.5185 21.7808 25.7344 21.4017C25.9508 21.0205 26.0773 20.6027 26.2054 20.1875C26.3113 19.844 26.4146 19.5027 26.5731 19.1773C26.7684 18.7765 26.9383 18.3633 27.1232 17.9569C27.2151 17.7555 27.3008 17.5494 27.4139 17.3599C27.6691 16.9317 27.9852 16.5557 28.404 16.2748C28.5367 16.1859 28.6343 16.0672 28.7051 15.9236C28.7955 15.7418 28.8538 15.5486 28.8471 15.3482C28.8404 15.1293 28.8864 14.9247 28.9535 14.7213C28.9695 14.6727 28.983 14.6242 28.9933 14.5741C28.9995 14.5457 28.9979 14.5157 29 14.4868C28.9804 14.5095 28.9659 14.5358 28.9571 14.5648L28.9582 14.5637ZM22.6165 10.7832C22.8417 10.4491 23.0576 10.1087 23.3045 9.78905C23.464 9.58247 23.6639 9.50861 23.9134 9.5303C24.012 9.53908 24.0921 9.58815 24.168 9.64444C24.3663 9.79163 24.5496 9.95638 24.7258 10.1315C24.8146 10.2198 24.9205 10.2947 25.0269 10.3623C25.2603 10.5111 25.5196 10.5431 25.7902 10.5013C25.5407 10.5798 25.2897 10.636 25.0263 10.5798C24.8828 10.5493 24.7459 10.4992 24.6266 10.4135C24.4025 10.2523 24.1809 10.0876 23.9609 9.92126C23.8974 9.87323 23.8447 9.81177 23.7822 9.76168C23.6365 9.64392 23.5648 9.64496 23.4403 9.78957C23.2962 9.95742 23.1619 10.1335 23.0287 10.3096C22.9083 10.4692 22.7968 10.635 22.6775 10.7946C22.6413 10.8431 22.5917 10.8814 22.5484 10.9242L22.5365 10.9103C22.5633 10.8685 22.5886 10.8246 22.6171 10.7827L22.6165 10.7832ZM22.3691 14.8865C22.5101 14.8746 22.6506 14.8586 22.7916 14.8514C23.0814 14.8359 23.3101 14.9645 23.5069 15.1639C23.5606 15.2181 23.6159 15.2713 23.6696 15.325C23.8653 15.4743 24.0936 15.5368 24.3312 15.5817C24.4897 15.6116 24.6447 15.6612 24.8099 15.7046C24.7939 15.7273 24.7898 15.7392 24.7821 15.7423C24.5522 15.8306 24.3219 15.8859 24.0714 15.8255C23.7858 15.7568 23.5456 15.624 23.3613 15.3932C23.2244 15.2217 23.0638 15.0864 22.8391 15.044C22.412 14.9635 22.018 15.0518 21.6513 15.2759C21.6069 15.3028 21.5686 15.341 21.516 15.3839C21.5753 15.1959 22.0081 14.9516 22.3697 14.8876L22.3691 14.8865ZM22.3583 18.7998C22.2798 19.2832 22.1419 19.7547 21.9477 20.2045C21.8191 20.501 21.6291 20.7571 21.408 20.9911C21.3941 21.0061 21.3775 21.019 21.362 21.0329L21.3383 21.0169C21.391 20.9033 21.4442 20.7892 21.4963 20.675C21.6719 20.2887 21.8506 19.9034 22.0211 19.5151C22.1641 19.1887 22.2602 18.8468 22.3382 18.4997C22.3516 18.4439 22.3702 18.3892 22.3945 18.337C22.4074 18.494 22.3836 18.6479 22.3583 18.8008V18.7998ZM20.0466 5.06446C20.0771 5.09545 20.1076 5.12695 20.1355 5.16052C20.4391 5.52463 20.686 5.92747 20.9148 6.34064C21.1167 6.70629 21.3001 7.08124 21.4535 7.47014C21.4612 7.48925 21.4628 7.51094 21.4674 7.5316C21.5278 7.70926 21.5877 7.88744 21.6487 8.0651C21.7318 8.30577 21.754 8.56349 21.7132 8.815C21.7014 8.89351 21.706 8.97407 21.7029 9.05413C21.7024 9.05774 21.7014 9.06084 21.6993 9.06394L21.6812 9.05051C21.6167 8.84031 21.5433 8.63218 21.4896 8.41939C21.408 8.09609 21.3404 7.76969 21.2278 7.45516C20.9489 6.67479 20.5713 5.93315 20.1039 5.24832C20.0456 5.1631 19.9955 5.07221 19.9542 4.97769C19.9846 5.00662 20.0151 5.03399 20.0456 5.06498L20.0466 5.06446ZM13.7308 13.8732C13.8243 13.6171 13.9916 13.4353 14.2323 13.3129C14.4306 13.2122 14.6295 13.113 14.8567 13.1063C15.0307 13.1011 15.2048 13.1161 15.3701 13.1801C15.4584 13.2147 15.5374 13.2695 15.6004 13.3408C15.7409 13.4957 15.7693 13.6759 15.6805 13.865C15.5973 14.0421 15.4579 14.1686 15.2972 14.2714C15.0245 14.4465 14.724 14.5307 14.3671 14.5364C14.2318 14.5348 14.067 14.5126 13.9183 14.4253C13.7081 14.3024 13.6477 14.1015 13.7313 13.8732H13.7308ZM4.41281 13.1522C4.41901 12.9312 4.42521 12.7096 4.44019 12.4891C4.46188 12.1679 4.48925 11.8466 4.51766 11.5259C4.5378 11.2987 4.55897 11.0714 4.58738 10.8457C4.74903 9.55871 4.99177 8.28976 5.46381 7.07453C5.658 6.57459 5.89971 6.09997 6.22353 5.67027C6.41255 5.41927 6.62637 5.19306 6.88563 5.01281C7.15161 4.82844 7.44444 4.7174 7.7693 4.71223C7.87982 4.71068 7.99086 4.74115 8.10138 4.75717C8.3152 4.78454 8.50112 4.88163 8.68189 4.98957C8.9928 5.17395 9.2345 5.43528 9.45916 5.71262C9.8527 6.19913 10.1523 6.74089 10.4048 7.31107C10.645 7.85284 10.8479 8.40803 11.0246 8.97304C11.0344 9.00455 11.0426 9.03553 11.0499 9.06755C11.0499 9.07272 11.0493 9.07788 11.0468 9.08253L9.87181 9.39809C9.45296 9.5334 9.04289 9.6935 8.64315 9.87737C8.63127 9.76581 8.62094 9.66717 8.6101 9.56852C8.53883 8.92346 8.44328 8.28202 8.25994 7.65761C8.18505 7.403 8.0957 7.15355 7.94799 6.92992C7.87052 6.81217 7.77291 6.71765 7.63967 6.66291C7.57098 6.63502 7.50384 6.63037 7.42843 6.63709C7.18725 6.66033 7.03127 6.79564 6.91404 6.99344C6.77046 7.23566 6.67595 7.49803 6.5959 7.76607C6.4518 8.24999 6.35832 8.74476 6.2886 9.24418C6.25813 9.46265 6.22818 9.68111 6.19771 9.89957C6.19099 10.0044 6.18479 10.1093 6.17705 10.2141C6.16413 10.3768 6.14709 10.539 6.13728 10.7016C6.12024 10.9805 6.10939 11.2599 6.09028 11.5383C6.0877 11.5755 6.05568 11.6158 6.02676 11.6452C5.92037 11.7547 5.80778 11.858 5.70087 11.967C5.43128 12.2422 5.17924 12.5346 4.94735 12.8419C4.9174 12.8816 4.88124 12.9167 4.84767 12.9544L4.43089 13.585L4.41281 13.5814C4.41281 13.4384 4.40971 13.2958 4.41385 13.1528L4.41281 13.1522ZM16.857 23.6049C16.7397 23.9303 16.5564 24.2164 16.3307 24.4767C16.2165 24.6084 16.106 24.7427 15.9976 24.8821C16.2878 24.7473 16.545 24.5593 16.8177 24.3791C16.7743 24.5356 16.7418 24.6962 16.6839 24.847C16.6473 24.942 16.5812 25.0303 16.5135 25.1089C16.2728 25.3877 15.9686 25.5855 15.651 25.7642C15.4708 25.8655 15.2905 25.9657 15.1123 26.0736C15.3463 26.0535 15.573 25.9941 15.8184 25.93C15.7837 25.96 15.7646 25.9781 15.7435 25.9946C15.2921 26.3515 14.7834 26.604 14.2555 26.8261C13.7313 27.0466 13.187 27.1969 12.6328 27.3136C12.2878 27.387 11.9356 27.4174 11.5828 27.405C11.384 27.3978 11.1862 27.3679 10.9884 27.3482C10.5995 27.3234 10.2251 27.2305 9.85425 27.1194C9.77885 27.0967 9.70448 27.0704 9.62959 27.0456C9.20196 26.9134 8.79189 26.7367 8.39525 26.5322C7.74038 26.1945 7.13147 25.788 6.58247 25.2943C5.78608 24.579 5.12243 23.7583 4.61888 22.8106C4.27285 22.163 4.00739 21.4755 3.82766 20.7633C3.82095 20.7355 3.81837 20.707 3.81423 20.6786C3.76724 20.4514 3.70836 20.2262 3.67531 19.9974C3.62934 19.6746 3.58854 19.3503 3.5715 19.0254C3.556 18.7285 3.5684 18.43 3.58183 18.1325C3.59216 17.8975 3.61643 17.6625 3.64535 17.4291C3.7409 16.6601 3.94438 15.9189 4.23773 15.2026C4.59616 14.3277 5.08525 13.5329 5.69777 12.8119C6.61242 11.7356 7.72798 10.9382 9.02378 10.3861C9.69312 10.101 10.3914 9.89028 11.1062 9.75651C11.4878 9.68576 11.8731 9.63721 12.2604 9.60984C12.6344 9.58298 13.0083 9.5897 13.3822 9.59073C13.4018 9.59228 13.4209 9.59486 13.44 9.59848C13.4307 9.61397 13.4277 9.6243 13.4209 9.62998C12.6302 10.2213 12.0879 10.9986 11.7238 11.9081C11.5105 12.4369 11.3711 12.9932 11.3096 13.5603C11.2895 13.7472 11.2776 13.9352 11.2663 14.1232C11.258 14.2606 11.2492 14.3985 11.2518 14.5364C11.2663 15.2796 11.3742 16.0088 11.587 16.7225C11.8762 17.694 12.3281 18.5828 12.9277 19.3999C12.9468 19.4257 12.9623 19.4546 12.9799 19.482C13.0883 19.6085 13.1942 19.7371 13.3052 19.8616C13.7928 20.406 14.3232 20.8997 14.9672 21.2571C15.383 21.4874 15.8266 21.6475 16.2883 21.756C16.3462 21.7694 16.3911 21.7932 16.42 21.8412C16.4913 21.9584 16.5724 22.0721 16.6266 22.1981C16.7991 22.5957 16.8714 23.0161 16.8838 23.4474C16.8838 23.5016 16.875 23.5553 16.8559 23.6065L16.857 23.6049ZM17.7138 19.1349C17.4044 19.5156 17.0062 19.7562 16.5125 19.8156C15.9568 19.8833 15.4847 19.7015 15.0808 19.3219C14.6202 18.8891 14.3826 18.3463 14.3041 17.7302C14.2209 17.0743 14.3723 16.4726 14.773 15.9448C15.1475 15.4515 15.651 15.198 16.2723 15.1856H16.3482C16.669 15.1721 16.9675 15.2522 17.2438 15.4113C17.8739 15.7748 18.2225 16.3331 18.3196 17.0417C18.4265 17.8242 18.2096 18.5245 17.7138 19.1349ZM18.6925 25.0985C18.6486 25.1641 18.615 25.238 18.5768 25.3082L18.5551 25.3444L18.5463 25.3413C18.5509 25.3252 18.5556 25.3098 18.5608 25.2937C18.5912 25.1905 18.6103 25.081 18.6553 24.9844C18.7999 24.6724 19.0121 24.4044 19.2285 24.1405C19.3437 24 19.4672 23.8673 19.5777 23.7232C19.6526 23.6261 19.7259 23.5228 19.775 23.4118C19.8839 23.1675 20.011 22.9299 20.0781 22.6686C20.106 22.5601 20.1241 22.4496 20.1463 22.3427C20.2 22.5126 20.1804 22.6872 20.1509 22.8612C20.0709 23.3379 19.8493 23.7402 19.5141 24.0863C19.211 24.3997 18.9336 24.7349 18.6919 25.0985H18.6925ZM25.1761 21.1744C25.0702 21.5024 24.9045 21.7994 24.6968 22.0731C24.6705 22.1077 24.6421 22.1413 24.6189 22.1779C24.3952 22.5312 24.0642 22.7543 23.7032 22.9428C23.3979 23.1024 23.0705 23.1943 22.7358 23.2661C22.3382 23.3518 21.9415 23.4396 21.5433 23.5212C21.2582 23.5796 20.9876 23.6948 20.7469 23.859C20.451 24.0573 20.1711 24.2789 19.9098 24.5206C19.6505 24.7623 19.4356 25.0412 19.242 25.3371C19.2069 25.3934 19.1655 25.4461 19.1196 25.4936C19.1392 25.4399 19.1557 25.3852 19.179 25.3335C19.2688 25.1347 19.3535 24.9338 19.4542 24.7411C19.5054 24.6435 19.5865 24.5614 19.6536 24.4721L19.6743 24.4633L19.6727 24.4659C19.7311 24.3589 19.8034 24.2634 19.9113 24.2014C19.9196 24.1813 19.9242 24.1575 19.9382 24.1431C20.2238 23.859 20.513 23.5796 20.842 23.3451C21.0155 23.2202 21.2087 23.1241 21.4132 23.0606C21.6275 22.9945 21.8429 22.9351 22.0588 22.8721C22.2628 22.809 22.4647 22.7378 22.6713 22.6856C23.2616 22.5369 23.7698 22.2368 24.2393 21.8588C24.403 21.7265 24.5744 21.6036 24.7397 21.4735C24.8848 21.3599 25.0263 21.2421 25.1818 21.1156C25.1787 21.1445 25.1797 21.16 25.1751 21.1744H25.1761Z" fill="#E6DAFE"/>
<path d="M26.975 11.512C26.7167 11.5745 26.5143 11.7242 26.3531 11.9277C26.2049 12.1142 26.176 12.3316 26.223 12.5779C26.2695 12.5418 26.3046 12.5113 26.3423 12.4865C26.4177 12.4364 26.4936 12.3879 26.5706 12.3404C26.6212 12.3094 26.6733 12.3058 26.7234 12.3435C26.8856 12.4659 27.0519 12.5836 27.1826 12.7422C27.3298 12.9209 27.5054 13.0541 27.7383 13.1006C27.9392 13.1404 28.0673 13.1073 28.1824 12.9353C28.263 12.815 28.3363 12.689 28.4081 12.5635C28.5063 12.3925 28.5434 12.2056 28.5388 12.0098C28.5352 11.8652 28.5311 11.7201 28.5238 11.5755C28.5161 11.4164 28.5052 11.2579 28.4939 11.0988C28.4928 11.0833 28.4789 11.0694 28.4742 11.0606C28.3802 11.4004 28.2873 11.7423 28.1902 12.0827C28.1742 12.1384 28.1638 12.204 28.0993 12.2345C27.9753 12.1544 27.8937 12.0367 27.7961 11.9355C27.6624 11.797 27.5353 11.653 27.3639 11.5574C27.2389 11.4877 27.1103 11.4794 26.9755 11.512H26.975ZM27.3416 11.7733C27.2606 11.81 27.1764 11.8063 27.1056 11.7888C26.8758 11.7325 26.7147 11.8461 26.5592 11.985C26.5251 12.0155 26.4941 12.0486 26.4616 12.0806L26.4497 12.0739C26.46 12.045 26.4647 12.0124 26.4812 11.9871C26.5664 11.8549 26.6615 11.7289 26.7999 11.6504C26.8722 11.6091 26.9522 11.5838 27.0349 11.576C27.1748 11.5662 27.2709 11.6478 27.3416 11.7728V11.7733Z" fill="#E6DAFE"/>
<path d="M7.75329 19.7294C7.86484 19.7201 7.97536 19.7015 8.0864 19.687C8.09931 19.6803 8.11274 19.6741 8.12617 19.669C8.47323 19.5646 8.76607 19.3735 8.99847 19.0978C9.48601 18.5198 9.71326 17.8546 9.65954 17.0954C9.63992 16.801 9.56503 16.5134 9.43798 16.2474C9.19266 15.7356 8.80635 15.3756 8.27233 15.1773C8.02908 15.0869 7.77601 15.0761 7.52088 15.0947C7.25387 15.1143 6.99822 15.1783 6.76168 15.3085C6.36865 15.5249 6.08873 15.8461 5.89764 16.2474C5.65025 16.767 5.59241 17.3118 5.7112 17.8717C5.80158 18.2993 5.97304 18.6949 6.25606 19.0347C6.31649 19.1071 6.38311 19.1732 6.44715 19.2424C6.53908 19.3126 6.6274 19.388 6.72346 19.452C7.03489 19.6586 7.37678 19.7604 7.75277 19.7289L7.75329 19.7294ZM8.02908 15.8797C8.30125 15.8466 8.55845 15.8874 8.76865 16.0827C9.04754 16.3419 9.0966 16.752 8.88744 17.099C8.56929 17.6274 7.83592 17.6222 7.51984 17.0923C7.43308 16.9467 7.37472 16.7923 7.37988 16.6193C7.38092 16.2366 7.64948 15.9256 8.02908 15.8797ZM6.22404 18.4026C6.20235 18.3262 6.18996 18.2477 6.25348 18.1893C6.32269 18.1253 6.411 18.1201 6.4988 18.1485C6.61965 18.1872 6.71365 18.2668 6.79783 18.3587C6.91455 18.4857 7.00906 18.6252 7.04315 18.7987C7.04728 18.8199 7.05141 18.8411 7.05296 18.8488C7.05348 18.8607 7.05348 18.8721 7.05296 18.8839C7.01784 19.0926 6.92901 19.1453 6.76891 19.0404C6.52772 18.8834 6.30771 18.699 6.22456 18.4031L6.22404 18.4026Z" fill="#E6DAFE"/>
<path d="M8.5631 20.722C8.46807 20.9002 8.40971 21.0892 8.45257 21.2927C8.47426 21.3976 8.51816 21.4972 8.55173 21.5995L8.56465 21.6264C8.63643 21.7012 8.70357 21.7823 8.78104 21.851C9.03876 22.0788 9.35018 22.196 9.68227 22.2559C10.2282 22.354 10.7581 22.2967 11.2632 22.0597C11.524 21.9373 11.7481 21.7689 11.902 21.5189C11.9087 21.5112 11.9165 21.5039 11.9253 21.4978C11.9707 21.3728 12.026 21.2483 12.0074 21.1114C11.994 21.0128 11.9661 20.9162 11.9444 20.8186C11.886 20.7318 11.8354 20.6384 11.7677 20.5599C11.6257 20.3951 11.4455 20.2774 11.2482 20.189C10.8495 20.0119 10.4317 19.9432 9.99524 19.983C9.50047 20.0279 9.0496 20.1725 8.69066 20.5346C8.6478 20.5965 8.59822 20.6554 8.5631 20.7215V20.722ZM9.01552 20.7329C9.26393 20.4948 9.5702 20.3817 9.90073 20.3223C10.1331 20.2799 10.3661 20.2438 10.6036 20.2763C10.7937 20.3021 10.9724 20.3528 11.1253 20.4757C11.1769 20.5175 11.2193 20.5645 11.2379 20.6394C11.1294 20.6172 11.0277 20.596 10.9254 20.5754C10.679 20.5253 10.4306 20.5092 10.1786 20.516C9.972 20.5227 9.76593 20.5423 9.56193 20.5754C9.38582 20.6027 9.21642 20.6632 9.062 20.753L8.91016 20.8635L8.89415 20.8444L9.01397 20.7334L9.01552 20.7329Z" fill="#E6DAFE"/>
<path d="M7.8762 14.1898C8.152 14.3856 8.46084 14.4754 8.79809 14.4703C8.8456 14.4703 8.8926 14.4718 8.94012 14.4703C9.08731 14.4646 9.22985 14.4341 9.35793 14.3608C9.61306 14.2146 9.65645 14.0648 9.59705 13.8479C9.54851 13.6703 9.44986 13.5034 9.28976 13.396C9.00726 13.207 8.69893 13.083 8.35187 13.0913C8.26975 13.0934 8.18763 13.1192 8.10551 13.1326C7.97898 13.1528 7.86019 13.2044 7.75948 13.2834C7.56375 13.4373 7.48731 13.6832 7.61746 13.913C7.68202 14.0266 7.7724 14.1149 7.87672 14.1888L7.8762 14.1898Z" fill="#E6DAFE"/>
<path d="M14.051 21.7054C13.9446 21.7679 13.878 21.8603 13.8429 21.9744C13.7825 22.1702 13.7019 22.3546 13.5831 22.5224C13.5759 22.5493 13.5738 22.5787 13.5614 22.603C13.3249 23.0699 12.9861 23.4345 12.5166 23.6788C12.1029 23.8936 11.446 23.8311 11.1077 23.5967C10.8438 23.4138 10.6181 23.2005 10.473 22.9092C10.426 22.8152 10.3728 22.7249 10.3237 22.635C10.2411 22.6288 10.1941 22.6608 10.1631 22.729C10.13 22.8013 10.0892 22.871 10.051 22.9407C9.86665 23.279 9.59241 23.5176 9.24121 23.6715C9.06717 23.748 8.88589 23.7397 8.70564 23.7129C8.08744 23.6209 7.70732 23.2331 7.45012 22.6959C7.37472 22.5384 7.31688 22.3737 7.29054 22.1996C7.26833 22.087 7.23992 21.975 7.22546 21.8613C7.21462 21.7715 7.21204 21.6811 7.2172 21.5907C7.22495 21.4342 7.14903 21.3247 6.99822 21.2907C6.98479 21.2881 6.96827 21.2834 6.9569 21.2881C6.85464 21.3304 6.7622 21.3826 6.72656 21.5008C6.69454 21.6057 6.709 21.7095 6.71365 21.8143C6.72295 22.0101 6.73121 22.2074 6.79887 22.3933C6.8784 22.6112 6.95949 22.8292 7.05348 23.0415C7.1795 23.3276 7.36284 23.5765 7.60455 23.7759C7.75225 23.8977 7.91287 24.0041 8.06988 24.1188C8.08021 24.3104 8.08176 24.5139 8.10345 24.7153C8.14322 25.0913 8.26768 25.442 8.45929 25.7673C8.66071 26.1092 8.91584 26.4036 9.23915 26.6371L9.25671 26.652L9.2846 26.6727C9.31662 26.6877 9.34915 26.7021 9.38117 26.7176C9.49531 26.7729 9.60584 26.839 9.72411 26.8824C9.99886 26.9841 10.2819 27.0296 10.5783 27.0037C10.8118 26.9836 11.0359 26.9242 11.2585 26.8612C11.383 26.8256 11.4997 26.7626 11.6195 26.7109C11.7951 26.635 11.9707 26.5586 12.1463 26.4826C12.2093 26.4465 12.2713 26.4088 12.3348 26.3742C12.6989 26.1748 13.0248 25.9125 13.297 25.5995C13.5284 25.3345 13.7122 25.0396 13.8625 24.7236C14.0577 24.3125 14.16 23.8771 14.1925 23.4247C14.2111 23.1675 14.1967 22.9103 14.159 22.6546C14.1517 22.6071 14.1605 22.5534 14.1755 22.5069C14.2282 22.3411 14.2855 22.1764 14.3439 22.0121C14.3816 21.9063 14.3428 21.8185 14.2808 21.7395C14.2178 21.6589 14.1388 21.6537 14.0515 21.7049L14.051 21.7054ZM12.6808 24.3104C12.5977 24.5464 12.4996 24.7783 12.4335 25.019C12.3565 25.2994 12.246 25.5608 12.0781 25.7968C11.9614 25.96 11.8359 26.117 11.6743 26.2368C11.54 26.336 11.3969 26.4217 11.2322 26.4656C11.0607 26.511 10.8929 26.572 10.7198 26.6076C10.6083 26.6309 10.4895 26.6216 10.3738 26.6267C10.0872 26.636 9.82017 26.5627 9.57123 26.4258C9.03824 26.1325 8.70564 25.6759 8.51868 25.1063C8.45516 24.9131 8.40816 24.7158 8.4061 24.5108C8.4061 24.4757 8.39835 24.4395 8.3937 24.4039V24.2438C9.0181 24.3868 9.57123 24.2572 10.0583 23.8048C10.0448 23.8487 10.0381 23.874 10.0288 23.8983C9.95238 24.1178 9.88214 24.3393 9.84547 24.5702C9.84289 24.5877 9.83308 24.6043 9.82688 24.6213C9.79176 24.879 9.76026 25.1362 9.81707 25.395C9.84289 25.5112 9.86871 25.6274 9.91003 25.7415C9.92862 25.6594 9.9467 25.5768 9.96478 25.4946C9.97252 25.4265 9.97304 25.3568 9.98957 25.2917C10.0262 25.1398 10.0717 24.9906 10.1099 24.8398C10.1497 24.6812 10.1817 24.5216 10.223 24.3641C10.2809 24.1426 10.3563 23.9272 10.473 23.7139C10.4983 23.7376 10.52 23.7531 10.537 23.7733C10.6801 23.9427 10.8495 24.0883 11.039 24.2045C11.3024 24.3662 11.5937 24.4142 11.8974 24.3987C12.1706 24.3848 12.4386 24.3429 12.7046 24.2205C12.6948 24.2598 12.6907 24.2861 12.6814 24.3109L12.6808 24.3104Z" fill="#E6DAFE"/>
</svg>
