<?xml version="1.0" encoding="UTF-8"?>
<!DOCTYPE svg PUBLIC "-//W3C//DTD SVG 1.1//EN" "http://www.w3.org/Graphics/SVG/1.1/DTD/svg11.dtd">
<svg xmlns="http://www.w3.org/2000/svg" version="1.1" width="64px" height="64px" style="shape-rendering:geometricPrecision; text-rendering:geometricPrecision; image-rendering:optimizeQuality; fill-rule:evenodd; clip-rule:evenodd" xmlns:xlink="http://www.w3.org/1999/xlink">
<g><path style="opacity:0.997" fill="#814625" d="M 24.5,-0.5 C 29.1667,-0.5 33.8333,-0.5 38.5,-0.5C 51.6068,3.60629 59.9401,12.273 63.5,25.5C 63.5,29.1667 63.5,32.8333 63.5,36.5C 60.2817,50.7188 51.615,59.7188 37.5,63.5C 33.5,63.5 29.5,63.5 25.5,63.5C 12.273,59.9401 3.60629,51.6068 -0.5,38.5C -0.5,33.8333 -0.5,29.1667 -0.5,24.5C 3.5,11.8333 11.8333,3.5 24.5,-0.5 Z"/></g>
<g><path style="opacity:1" fill="#fdfcfb" d="M 12.5,21.5 C 18.5323,22.3877 24.5323,22.7211 30.5,22.5C 31.6808,24.8034 31.6808,27.1368 30.5,29.5C 32.5261,32.3012 32.8594,35.3012 31.5,38.5C 25.4481,42.8678 19.1147,43.3678 12.5,40C 8.58657,36.5455 8.58657,33.0455 12.5,29.5C 9.98721,26.7132 9.98721,24.0466 12.5,21.5 Z"/></g>
<g><path style="opacity:1" fill="#fbfaf9" d="M 40.5,20.5 C 41.4972,20.4701 42.1639,20.9701 42.5,22C 41.7827,23.531 40.7827,24.8643 39.5,26C 40.9529,27.7827 41.9529,29.7827 42.5,32C 42.3277,34.1704 41.3277,35.8371 39.5,37C 40.2887,38.6255 41.2887,40.1255 42.5,41.5C 42.1667,41.8333 41.8333,42.1667 41.5,42.5C 40.6852,40.7241 39.5185,40.0574 38,40.5C 37.4646,42.2705 36.6313,42.6039 35.5,41.5C 36.7113,40.1255 37.7113,38.6255 38.5,37C 36.6723,35.8371 35.6723,34.1704 35.5,32C 36.0471,29.7827 37.0471,27.7827 38.5,26C 37.4911,24.8319 36.4911,23.6652 35.5,22.5C 36.698,22.0604 37.8647,21.727 39,21.5C 40.0875,23.9316 40.5875,23.5983 40.5,20.5 Z"/></g>
<g><path style="opacity:1" fill="#f9f6f4" d="M 48.5,20.5 C 52.9733,23.4965 53.64,27.3298 50.5,32C 53.4805,35.9215 53.1472,39.4215 49.5,42.5C 44.5481,39.5049 44.2148,36.0049 48.5,32C 47.277,30.2799 46.277,28.4466 45.5,26.5C 46.1143,24.2438 47.1143,22.2438 48.5,20.5 Z"/></g>
<g><path style="opacity:1" fill="#8b5334" d="M 47.5,23.5 C 48.2216,23.9175 48.7216,24.5842 49,25.5C 49.414,25.0426 49.914,24.7093 50.5,24.5C 51.6139,25.723 51.7805,27.0563 51,28.5C 50,27.1667 49,27.1667 48,28.5C 47.5065,26.8659 47.3398,25.1992 47.5,23.5 Z"/></g>
<g><path style="opacity:1" fill="#885031" d="M 37.5,29.5 C 38.397,30.5981 39.2303,30.5981 40,29.5C 40.6667,31.1667 40.6667,32.8333 40,34.5C 39.3333,33.1667 38.6667,33.1667 38,34.5C 37.5065,32.8659 37.3398,31.1992 37.5,29.5 Z"/></g>
<g><path style="opacity:1" fill="#834929" d="M 47.5,34.5 C 49.0094,35.3039 50.3427,36.4705 51.5,38C 47.8925,40.3006 46.5592,39.1339 47.5,34.5 Z"/></g>
</svg>
