<svg width="32" height="32" viewBox="0 0 32 32" fill="none" xmlns="http://www.w3.org/2000/svg">
<path d="M18.6325 23.3499C16.6576 23.3499 14.7271 22.7643 13.0851 21.6671C11.4431 20.5699 10.1633 19.0105 9.40753 17.186C8.65179 15.3615 8.45405 13.3538 8.83932 11.4169C9.2246 9.48001 10.1756 7.70085 11.572 6.30443C12.9684 4.908 14.7476 3.95702 16.6845 3.57175C18.6214 3.18647 20.629 3.38421 22.4536 4.13995C24.2781 4.89569 25.8375 6.17549 26.9347 7.81752C28.0319 9.45954 28.6175 11.39 28.6175 13.3649C28.6135 16.0119 27.5602 18.5493 25.6885 20.421C23.8169 22.2927 21.2794 23.3459 18.6325 23.3499V23.3499ZM18.6325 6.01489C17.1782 6.01489 15.7565 6.44617 14.5474 7.25418C13.3382 8.06219 12.3958 9.21065 11.8394 10.5543C11.283 11.8979 11.1375 13.3764 11.4214 14.8027C11.7053 16.229 12.4058 17.5391 13.4343 18.5673C14.4629 19.5954 15.7732 20.2955 17.1996 20.5789C18.626 20.8623 20.1044 20.7164 21.4479 20.1595C22.7913 19.6026 23.9395 18.6598 24.7471 17.4504C25.5547 16.241 25.9855 14.8192 25.985 13.3649C25.983 11.4157 25.2076 9.547 23.8291 8.16896C22.4506 6.79093 20.5816 6.01621 18.6325 6.01489V6.01489Z" fill="#E6DAFE"/>
<path d="M13.3649 28.6175C11.39 28.6175 9.45954 28.0319 7.81752 26.9347C6.17549 25.8375 4.89569 24.2781 4.13995 22.4536C3.38421 20.629 3.18647 18.6214 3.57175 16.6845C3.95702 14.7476 4.908 12.9684 6.30443 11.572C7.70085 10.1756 9.48001 9.2246 11.4169 8.83932C13.3538 8.45405 15.3615 8.65179 17.186 9.40753C19.0105 10.1633 20.5699 11.4431 21.6671 13.0851C22.7643 14.7271 23.3499 16.6576 23.3499 18.6325C23.3459 21.2794 22.2927 23.8169 20.421 25.6885C18.5493 27.5602 16.0119 28.6135 13.3649 28.6175V28.6175ZM13.3649 11.2825C11.9106 11.2825 10.489 11.7137 9.2798 12.5218C8.07063 13.3298 7.12824 14.4782 6.57182 15.8219C6.0154 17.1655 5.86995 18.644 6.15385 20.0703C6.43775 21.4966 7.13825 22.8067 8.16677 23.8349C9.19528 24.863 10.5056 25.5631 11.932 25.8465C13.3584 26.1299 14.8368 25.9839 16.1803 25.4271C17.5237 24.8702 18.6719 23.9274 19.4795 22.718C20.2871 21.5085 20.7179 20.0868 20.7174 18.6325C20.7154 16.6833 19.94 14.8146 18.5615 13.4365C17.183 12.0585 15.3141 11.2838 13.3649 11.2825V11.2825Z" fill="#E6DAFE"/>
</svg>
