<svg width="32" height="32" viewBox="0 0 32 32" fill="none" xmlns="http://www.w3.org/2000/svg">
<path d="M16 4C9.3728 4 4 9.3728 4 16C4 22.6272 9.3728 28 16 28C22.6272 28 28 22.6272 28 16C28 9.3728 22.6272 4 16 4ZM21.476 20.5144C21.0992 21.54 20.4424 22.4392 19.5808 23.1096C18.7184 23.78 17.6848 24.1952 16.5984 24.3072C15.512 24.4192 14.416 24.224 13.4344 23.744C12.4536 23.264 11.6272 22.5176 11.0496 21.5904C10.472 20.6632 10.1656 19.5928 10.1672 18.5008H11.8336C11.8336 19.2776 12.0496 20.0392 12.4592 20.6992C12.8688 21.3592 13.4544 21.892 14.1504 22.2368C14.8464 22.5816 15.6248 22.7248 16.3984 22.6504C17.172 22.576 17.9088 22.2872 18.5264 21.816C19.144 21.3448 19.6176 20.7104 19.8944 19.9848C20.1704 19.2584 20.2384 18.4696 20.0896 17.7072C19.9416 16.9448 19.5824 16.2392 19.0544 15.6696C18.5264 15.1 17.8488 14.6896 17.1 14.4848L16 15.5848L13.9168 13.5016L16 11.4184L17.4336 12.852C18.492 13.12 19.4544 13.6808 20.2104 14.4688C20.9664 15.2576 21.4856 16.2424 21.7096 17.3112C21.9336 18.38 21.8528 19.4912 21.476 20.516V20.5144ZM20.1664 13.5C20.1664 12.7232 19.9504 11.9616 19.5408 11.3016C19.1312 10.6416 18.5456 10.1088 17.8496 9.764C17.1536 9.4192 16.3752 9.276 15.6016 9.3504C14.828 9.4248 14.0912 9.7136 13.4736 10.1848C12.856 10.656 12.3824 11.2904 12.1056 12.016C11.8296 12.7424 11.7616 13.5312 11.9104 14.2936C12.0584 15.056 12.4176 15.7616 12.9456 16.3312C13.4736 16.9008 14.1512 17.3112 14.9 17.516L16 16.416L18.0832 18.4992L16 20.5824L14.5664 19.1488C13.3096 18.8304 12.1944 18.1016 11.3976 17.0784C10.6008 16.0552 10.168 14.796 10.1664 13.4992C10.1664 11.952 10.7808 10.468 11.8752 9.3744C12.9688 8.2808 14.4528 7.6656 16 7.6656C17.5472 7.6656 19.0312 8.28 20.1248 9.3744C21.2184 10.468 21.8336 11.952 21.8336 13.4992H20.1672L20.1664 13.5Z" fill="#E6DAFE"/>
</svg>
