<svg width="32" height="32" viewBox="0 0 32 32" fill="none" xmlns="http://www.w3.org/2000/svg">
<path d="M16 3C23.1801 3 29 8.81994 29 16C29 23.1801 23.1801 29 16 29C8.81994 29 3 23.1801 3 16C3 8.81994 8.81994 3 16 3ZM9.23269 12.75C7.40619 12.75 6.25 14.1272 6.25 15.8741C6.25 17.6201 7.40619 18.9941 9.23269 18.9941C11.0592 18.9941 12.2178 17.6299 12.2178 15.8741C12.2178 14.1174 11.0624 12.75 9.23269 12.75ZM22.7909 12.7516C20.8011 12.7516 19.874 14.2824 19.874 15.9139C19.874 17.6664 20.9465 18.9916 22.6121 18.9916C23.5888 18.9916 24.1347 18.5399 24.3541 18.158V18.8381H25.3828V15.6563H22.6121V16.6801H24.32L24.2981 16.8198C24.1486 17.5917 23.5441 17.9541 22.7811 17.9541C21.6249 17.9541 20.9806 17.1042 20.9806 15.8798C20.9806 14.7317 21.5486 13.7892 22.7567 13.7892C23.5465 13.7892 24.1851 14.1922 24.2534 14.869H25.3828L25.3616 14.7146C25.1504 13.452 24.1388 12.7516 22.7909 12.7516ZM14.3969 12.8946H12.9938V18.8446H14.0053V14.6529L15.5361 18.8446H16.5306L18.0597 14.6529V18.8446H19.0964V12.8946H17.6949L16.0455 17.443L14.3961 12.8946H14.3969ZM9.23269 13.8127C10.397 13.8127 11.0957 14.6976 11.0957 15.8741C11.0957 17.0498 10.3986 17.9362 9.23269 17.9362C8.06838 17.9362 7.37206 17.0603 7.37206 15.8781C7.37206 14.6951 8.06838 13.8136 9.23269 13.8136V13.8127Z" fill="#E6DAFE"/>
</svg>
