<svg width="32" height="32" viewBox="0 0 32 32" fill="none" xmlns="http://www.w3.org/2000/svg">
<path d="M23.9101 12.3953C23.717 12.5796 23.6205 12.8297 23.6205 13.0798V15.2476H25.5864V13.4792L27.6182 11.4781C28.0789 11.0261 27.9912 10.2406 27.3593 9.92031C27.2627 9.87204 27.1618 9.84132 27.0609 9.82815C26.9599 9.81499 26.8546 9.81938 26.7537 9.84132C26.6528 9.85887 26.5518 9.89398 26.4597 9.94225C26.3675 9.99052 26.2842 10.052 26.2052 10.1266L23.9057 12.3909L23.9101 12.3953Z" fill="#E6DAFE"/>
<path d="M28.5222 17.1346C28.5222 16.6036 28.0833 16.1691 27.5524 16.1691C27.0214 16.1691 26.5826 16.5948 26.5826 17.1346C26.5826 17.6743 27.0214 18.1 27.5524 18.1C28.0833 18.1 28.5222 17.6655 28.5222 17.1346Z" fill="#E6DAFE"/>
<path d="M13.7553 4.76408C13.9089 4.86939 14.0976 4.93083 14.2994 4.93083C14.8436 4.93083 15.278 4.49639 15.2692 3.96541C15.2692 3.43444 14.8304 3 14.2994 3C14.0976 3 13.9133 3.06144 13.7553 3.16237C13.4964 3.33351 13.3252 3.62752 13.3252 3.96541C13.3252 4.30331 13.4964 4.59293 13.7553 4.76408Z" fill="#E6DAFE"/>
<path d="M26.5826 14.2339C26.5826 14.7649 27.0214 15.1993 27.5524 15.1993C28.0833 15.1993 28.5222 14.7649 28.5222 14.2339C28.5222 13.7029 28.0833 13.2685 27.5524 13.2685C27.0214 13.2685 26.5826 13.6941 26.5826 14.2339Z" fill="#E6DAFE"/>
<path d="M28.039 26.5298C27.5036 26.5298 27.0779 26.9555 27.0779 27.4865C27.0779 28.0175 27.508 28.4431 28.039 28.4431C28.57 28.4431 29 28.0175 29 27.4865C29 26.9555 28.57 26.5298 28.039 26.5298Z" fill="#E6DAFE"/>
<path d="M28.434 25.8408C28.6271 25.4722 28.5217 25.0071 28.2233 24.7087L22.6415 19.1619V12.1714L25.9853 8.85391C26.4373 8.40192 26.3496 7.61643 25.7264 7.28731C25.3447 7.08545 24.8751 7.19077 24.5679 7.49794L20.9652 11.0831C20.7721 11.2762 20.6756 11.5264 20.6756 11.7765V19.57C20.6756 19.8201 20.7721 20.0703 20.9652 20.2634L26.8498 26.1129C27.3106 26.5649 28.1136 26.4815 28.434 25.8496V25.8408Z" fill="#E6DAFE"/>
<path d="M16.4107 7.76568H18.6136C18.8638 7.76568 19.1139 7.66914 19.3114 7.47606L21.6327 5.17661C22.0847 4.72462 21.997 3.93913 21.3738 3.61001C20.9921 3.40815 20.5225 3.51347 20.2153 3.82064L18.2099 5.81291H16.4151V7.76568H16.4107Z" fill="#E6DAFE"/>
<path d="M12.5311 7.47605C12.7242 7.66913 12.9743 7.76567 13.2288 7.76567V7.7569H15.4317V5.80413H13.6369L11.6052 3.78553C11.1532 3.33354 10.3501 3.42569 10.0254 4.04883C9.83231 4.41744 9.93763 4.88259 10.236 5.18099L12.5355 7.47166L12.5311 7.47605Z" fill="#E6DAFE"/>
<path d="M11.1494 10.4118C11.3424 10.6049 11.5926 10.7014 11.8471 10.7014H19.6801C19.9303 10.7014 20.1804 10.6049 20.3779 10.4118L23.9938 6.80464C24.4458 6.35265 24.358 5.56715 23.7349 5.23803C23.3531 5.03617 22.8835 5.14149 22.5764 5.44867L19.2676 8.74424H12.242L8.90697 5.42673C8.84992 5.36968 8.78849 5.32141 8.72266 5.28191C8.65684 5.24242 8.58663 5.2117 8.51642 5.18976C8.4462 5.16782 8.3716 5.15465 8.297 5.14588C8.2224 5.14149 8.1478 5.14588 8.0732 5.15465C7.7748 5.19854 7.49395 5.37845 7.33159 5.69002C7.13851 6.05863 7.24382 6.52379 7.54223 6.82219L11.1494 10.4162V10.4118Z" fill="#E6DAFE"/>
<path d="M23.6205 16.2217V18.3895C23.6205 18.6397 23.717 18.8898 23.9101 19.0741L26.2096 21.3384C26.508 21.6368 26.9775 21.7422 27.3593 21.5491C27.9912 21.2287 28.0789 20.4389 27.6182 19.9913L25.5864 17.9902V16.2217H23.6205Z" fill="#E6DAFE"/>
<path d="M17.2177 4.93083C17.7618 4.93083 18.1963 4.49639 18.1875 3.96541C18.1875 3.43444 17.7487 3 17.2177 3C16.6867 3 16.2479 3.42566 16.2479 3.96541C16.2479 4.50517 16.6867 4.93083 17.2177 4.93083Z" fill="#E6DAFE"/>
<path d="M7.59435 19.0741C7.78743 18.8898 7.88397 18.6397 7.88397 18.3895V16.2217H5.91804V17.9902L3.88628 19.9913C3.42551 20.4432 3.51328 21.2287 4.14519 21.5491C4.52696 21.7422 4.99651 21.6368 5.29491 21.3384L7.59435 19.0741Z" fill="#E6DAFE"/>
<path d="M17.2177 26.4332C16.6823 26.4332 16.2479 26.8676 16.2479 27.3986C16.2479 27.4644 16.2567 27.5303 16.2698 27.5917C16.3093 27.7804 16.4015 27.9472 16.5331 28.0788C16.7087 28.2543 16.95 28.364 17.2177 28.364C17.7531 28.364 18.1875 27.9384 18.1875 27.3986C18.1875 26.8589 17.7487 26.4332 17.2177 26.4332Z" fill="#E6DAFE"/>
<path d="M13.2294 23.379C12.9792 23.379 12.7291 23.4755 12.5316 23.6686L10.2103 25.9681C9.75827 26.4201 9.84603 27.2056 10.4692 27.5347C10.8509 27.7365 11.3205 27.6312 11.6277 27.324L13.6331 25.3318H15.4279V23.379H13.225H13.2294Z" fill="#E6DAFE"/>
<path d="M19.3069 23.6774C19.1138 23.4843 18.8637 23.3878 18.6091 23.3878V23.3966H16.415V25.3493H18.2098L20.2416 27.3679C20.6936 27.8199 21.4966 27.7278 21.8213 27.1046C22.0144 26.736 21.9091 26.2709 21.6107 25.9725L19.3025 23.6818L19.3069 23.6774Z" fill="#E6DAFE"/>
<path d="M20.3645 20.7461C20.1714 20.553 19.9213 20.4565 19.6668 20.4565H11.8337C11.5836 20.4565 11.3335 20.553 11.136 20.7461L7.51131 24.3445C7.05932 24.7964 7.14709 25.5819 7.77022 25.9111C8.152 26.1129 8.62154 26.0076 8.92872 25.7004L12.2375 22.4049H19.263L24.8537 27.9648C25.3057 28.4168 26.1087 28.3246 26.4334 27.7015C26.6265 27.3329 26.5212 26.8677 26.2228 26.5693L20.3645 20.7417V20.7461Z" fill="#E6DAFE"/>
<path d="M4.94389 17.1302C4.94389 16.5992 4.50507 16.1647 3.97409 16.1647C3.44311 16.1647 3.00429 16.5992 3.00429 17.1302C3.00429 17.6611 3.44311 18.0956 3.97409 18.0956C4.50507 18.0956 4.94389 17.6699 4.94389 17.1302Z" fill="#E6DAFE"/>
<path d="M3.9698 15.1905C4.50517 15.1905 4.93961 14.7648 4.93961 14.2251C4.93961 13.6853 4.50078 13.2597 3.9698 13.2597C3.43882 13.2597 3 13.6941 3 14.2251C3 14.7561 3.43882 15.1905 3.9698 15.1905Z" fill="#E6DAFE"/>
<path d="M14.2951 26.4332C14.0933 26.4332 13.909 26.4946 13.751 26.6C13.4921 26.7755 13.321 27.0695 13.321 27.3986C13.321 27.7277 13.4921 28.0261 13.751 28.1973C13.9046 28.3026 14.0933 28.364 14.2951 28.364C14.8305 28.364 15.265 27.9384 15.265 27.3986C15.265 26.8589 14.8261 26.4332 14.2951 26.4332Z" fill="#E6DAFE"/>
<path d="M5.92217 13.4792V15.2476H7.89689V13.0798C7.89689 12.8297 7.80034 12.5796 7.60726 12.3953L5.28588 10.1134C4.83389 9.66139 4.03961 9.74476 3.70611 10.3635C3.50425 10.7409 3.60957 11.206 3.91674 11.5045L5.92217 13.4836V13.4792Z" fill="#E6DAFE"/>
<path d="M10.8416 19.57V11.7765C10.8416 11.5264 10.7451 11.2762 10.552 11.0919L6.92732 7.4848C6.46656 7.03281 5.66351 7.11619 5.34316 7.7481C5.15008 8.11671 5.2554 8.58186 5.5538 8.88026L8.88009 12.1758V19.1663L5.53625 22.4838C5.08426 22.9358 5.17202 23.7213 5.79515 24.0504C6.17693 24.2523 6.64647 24.147 6.95365 23.8398L10.5564 20.2546C10.7495 20.0615 10.846 19.8114 10.846 19.5657L10.8416 19.57Z" fill="#E6DAFE"/>
</svg>
