<svg width="32" height="32" viewBox="0 0 32 32" fill="none" xmlns="http://www.w3.org/2000/svg">
<path d="M17.6224 5.56208C17.6224 5.56208 14.2397 5.57892 12.4089 5.61018L12.9115 4L6 8.84858L10.6436 13.7729L11.0717 12.4153C11.1492 12.0996 11.4017 11.8838 11.7168 11.8838L16.4307 11.897C16.7482 11.897 17.0229 11.6775 17.0909 11.3679L17.4228 9.86832L22.0681 14.7848L15.1524 19.6112L15.1566 19.598L15.9274 17.2284H11.3572C10.8253 17.2284 10.307 17.3968 9.87673 17.7095C9.44641 18.0222 9.12614 18.4631 8.96182 18.969L6.02766 28H12.4251L13.5777 24.4525C13.6739 24.1591 13.9469 23.9595 14.2547 23.9595H17.6218C22.7025 23.9595 26.8211 19.8415 26.8211 14.7608C26.8211 9.68013 22.7025 5.56148 17.6218 5.56148L17.6224 5.56208Z" fill="#E6DAFE"/>
</svg>
