<svg width="32" height="32" viewBox="0 0 32 32" fill="none" xmlns="http://www.w3.org/2000/svg">
<path d="M16 4C9.37276 4 4 9.37276 4 16C4 22.6272 9.37276 28 16 28C22.6272 28 28 22.6272 28 16C28 9.37276 22.6278 4 16 4ZM21.6157 10.8106C22.1098 10.7416 23.5215 10.7552 23.921 11.0494C24.0187 11.1214 23.9198 11.3911 23.737 11.6989C23.7245 11.7198 23.712 11.7406 23.6989 11.762C23.6977 11.7638 23.6966 11.7662 23.6954 11.768C23.6835 11.7871 23.6709 11.8067 23.6584 11.8263C23.6567 11.8293 23.6543 11.8329 23.6525 11.8359C23.6406 11.8543 23.6287 11.8722 23.6162 11.8906C23.6132 11.8948 23.6102 11.899 23.6078 11.9032C23.5965 11.9204 23.5846 11.9377 23.5727 11.9549C23.5691 11.9603 23.5656 11.9651 23.562 11.9704C23.5507 11.9865 23.5394 12.0026 23.5275 12.0187C23.5233 12.0246 23.5191 12.0306 23.5144 12.0365C23.5031 12.052 23.4923 12.0669 23.481 12.0824C23.4763 12.0889 23.4715 12.0955 23.4667 12.102C23.456 12.1163 23.4447 12.1312 23.4334 12.1455C23.428 12.152 23.4233 12.1592 23.4179 12.1657C23.4072 12.1794 23.3965 12.1931 23.3858 12.2068C23.3798 12.2139 23.3744 12.2211 23.3685 12.2282C23.3584 12.2413 23.3477 12.2538 23.3369 12.2663C23.331 12.2741 23.3244 12.2812 23.3185 12.289C23.3084 12.3009 23.2982 12.3134 23.2881 12.3253C23.2816 12.333 23.275 12.3402 23.2685 12.3479C23.2583 12.3592 23.2488 12.3705 23.2387 12.3818C23.2322 12.3896 23.225 12.3967 23.2185 12.4045C23.2083 12.4152 23.1988 12.4259 23.1887 12.4366C23.1821 12.4438 23.175 12.4515 23.1684 12.4586C23.1589 12.4688 23.1488 12.4789 23.1393 12.489C23.1327 12.4962 23.1256 12.5033 23.119 12.5098C23.1095 12.52 23.0994 12.5295 23.0899 12.539C23.0833 12.5456 23.0768 12.5521 23.0702 12.5581C23.0601 12.5676 23.05 12.5771 23.0398 12.5867C23.0339 12.592 23.0279 12.598 23.022 12.6033C23.0077 12.6164 22.9934 12.6283 22.9797 12.6402C22.9779 12.6414 22.9767 12.6432 22.9749 12.6444C22.9702 12.6373 22.9648 12.6289 22.9583 12.6194C22.9458 12.6003 22.9303 12.5765 22.9118 12.548C22.9029 12.5337 22.8928 12.5188 22.8827 12.5021C22.8618 12.47 22.8386 12.4342 22.813 12.3943C22.7838 12.3491 22.7511 12.2997 22.7154 12.2467C22.7034 12.2288 22.6915 12.211 22.679 12.1919C22.6618 12.1657 22.6433 12.1383 22.6243 12.1109C22.6028 12.0794 22.5808 12.0472 22.5582 12.0145C22.4004 11.7859 22.2069 11.5191 21.9902 11.25C21.911 11.1518 21.8294 11.0535 21.7449 10.9565C21.7026 10.9077 21.6597 10.8594 21.6163 10.8118L21.6157 10.8106ZM15.4397 8.56661C15.6606 8.51779 16.4442 9.08162 16.8002 9.45016C16.1852 9.62818 15.1444 9.95386 14.6431 10.1438C14.7539 9.62461 15.1218 8.65473 15.4397 8.5672V8.56661ZM9.45612 20.4184C9.44361 20.4136 9.43111 20.4088 9.41861 20.4041C9.39122 20.3939 9.36443 20.3832 9.33823 20.3731C9.32454 20.3678 9.31025 20.3618 9.29655 20.3558C9.27155 20.3451 9.24713 20.3344 9.22272 20.3237C9.20963 20.3177 9.19653 20.3124 9.18402 20.3064C9.15664 20.2939 9.12984 20.2808 9.10365 20.2677C9.09472 20.2636 9.08579 20.2594 9.07745 20.2546C9.04292 20.2368 9.00898 20.2189 8.97564 20.2004C8.9679 20.1963 8.96075 20.1915 8.95301 20.1873C8.92741 20.1731 8.90241 20.1582 8.878 20.1433C8.86668 20.1367 8.85597 20.1296 8.84525 20.123C8.82441 20.1099 8.80357 20.0968 8.78333 20.0832C8.77202 20.076 8.7613 20.0683 8.75058 20.0611C8.73034 20.0468 8.7101 20.0331 8.68985 20.0189C8.68033 20.0123 8.6708 20.0052 8.66187 19.9986C8.63567 19.979 8.61007 19.9593 8.58507 19.9397C8.58268 19.9379 8.5803 19.9361 8.57792 19.9343C8.55053 19.9123 8.52434 19.8903 8.49814 19.8676C8.4904 19.8605 8.48266 19.8533 8.47492 19.8468C8.45706 19.8307 8.4392 19.8146 8.42193 19.7986C8.413 19.7902 8.40466 19.7819 8.39573 19.7736C8.37966 19.7581 8.36358 19.742 8.3481 19.7265C8.33977 19.7182 8.33203 19.7098 8.32369 19.7015C8.30702 19.6837 8.29035 19.6658 8.27368 19.6479C8.26772 19.6414 8.26177 19.6348 8.25582 19.6289C8.23438 19.6045 8.21295 19.5795 8.19211 19.5545C8.18794 19.5497 8.18437 19.5449 8.1808 19.5402C8.16413 19.5199 8.14805 19.4991 8.13257 19.4788C8.12602 19.4705 8.11947 19.4616 8.11352 19.4532C8.10042 19.436 8.08792 19.4187 8.07542 19.4008C8.06887 19.3913 8.06232 19.3824 8.05636 19.3729C8.04386 19.355 8.03195 19.3371 8.02064 19.3193C8.01528 19.3109 8.00933 19.302 8.00397 19.2937C7.98908 19.2705 7.9748 19.2472 7.9611 19.224C7.95932 19.2204 7.95693 19.2175 7.95515 19.2139C7.93907 19.1871 7.92419 19.1597 7.9093 19.1329C7.90514 19.1252 7.90156 19.118 7.8974 19.1103C7.88668 19.0906 7.87656 19.071 7.86644 19.0508C7.86167 19.0412 7.85691 19.0317 7.85215 19.0222C7.84321 19.0037 7.83428 18.9853 7.82595 18.9662C7.82178 18.9567 7.81702 18.9472 7.81285 18.9376C7.80392 18.9174 7.79499 18.8966 7.78606 18.8763C7.78308 18.8692 7.77951 18.8614 7.77653 18.8543C7.76522 18.8263 7.75391 18.7983 7.74319 18.7703C7.742 18.7674 7.74081 18.7638 7.73962 18.7608C7.73009 18.7358 7.72116 18.7108 7.71283 18.6864C7.70985 18.6775 7.70687 18.6691 7.70389 18.6602C7.69735 18.6405 7.6908 18.6209 7.68484 18.6012C7.68187 18.5917 7.67889 18.5822 7.67591 18.5727C7.66996 18.553 7.664 18.5334 7.65865 18.5131C7.65626 18.5042 7.65388 18.4959 7.6515 18.4869C7.64495 18.4625 7.6384 18.4381 7.63185 18.4131C7.63066 18.4095 7.63007 18.406 7.62888 18.4024C7.62173 18.3738 7.61518 18.3452 7.60863 18.3166C7.60744 18.3101 7.60625 18.3041 7.60447 18.2976C7.5997 18.2756 7.59494 18.2541 7.59077 18.2321C7.58899 18.2232 7.5872 18.2142 7.58541 18.2053C7.58184 18.1857 7.57827 18.166 7.5747 18.1464C7.57291 18.1374 7.57172 18.1285 7.56993 18.1196C7.56636 18.0987 7.56338 18.0773 7.55981 18.0565C7.55862 18.0499 7.55743 18.0428 7.55683 18.0362C7.55267 18.0082 7.54909 17.9803 7.54552 17.9523C7.54552 17.9535 7.54612 17.9552 7.54671 17.9564C7.47169 17.3497 7.54552 16.8044 7.60863 16.5251C7.57529 17.7403 8.70117 18.662 9.3936 18.8638C9.35609 19.1716 9.34121 19.5193 9.39539 19.8611C9.40253 19.9069 9.41146 19.9522 9.42158 19.9974C9.42396 20.0087 9.42635 20.0194 9.42932 20.0308C9.44004 20.076 9.45135 20.1213 9.46445 20.1665C9.47755 20.2112 9.49303 20.2552 9.5097 20.2987C9.51387 20.3094 9.51804 20.3201 9.5222 20.3314C9.53947 20.3749 9.55793 20.4184 9.57817 20.4612C9.53649 20.4475 9.49601 20.4338 9.45612 20.419V20.4184ZM9.96636 20.9846C9.93957 20.95 9.91516 20.9155 9.89134 20.8804C9.88539 20.872 9.88003 20.8637 9.87467 20.8548C9.85205 20.8196 9.83002 20.7845 9.81037 20.7488C9.80977 20.7476 9.80918 20.7464 9.80858 20.7452C9.78953 20.7101 9.77167 20.675 9.75559 20.6398C9.75202 20.6315 9.74785 20.6238 9.74428 20.6154C9.72761 20.5791 9.71273 20.5422 9.69903 20.5053C9.69903 20.5041 9.69844 20.5029 9.69784 20.5017C9.68474 20.4654 9.67284 20.4291 9.66212 20.3928C9.66033 20.3856 9.65795 20.3791 9.65616 20.3719C9.64545 20.3338 9.63533 20.2963 9.62759 20.2588C9.62759 20.2588 9.62759 20.2576 9.62759 20.257C9.61925 20.2195 9.6127 20.182 9.60675 20.1445C9.60615 20.1391 9.60496 20.1338 9.60437 20.1284C9.59901 20.0927 9.59484 20.057 9.59127 20.0212C9.59127 20.0189 9.59067 20.0165 9.59067 20.0141C9.59067 20.0141 9.59067 20.0147 9.59067 20.0153C9.54304 19.4884 9.70737 19.018 9.84907 18.8471C10.0283 19.8367 11.5828 20.5809 12.4259 20.522C12.4158 20.825 12.461 21.1572 12.5902 21.5085C12.6021 21.5413 12.6146 21.574 12.6283 21.6067C12.6283 21.6073 12.6289 21.6085 12.6295 21.6091C12.642 21.6401 12.6551 21.6705 12.6694 21.7014C12.6712 21.705 12.6724 21.7086 12.6742 21.7121C12.6873 21.7407 12.7004 21.7687 12.7147 21.7973C12.7176 21.8032 12.72 21.8086 12.723 21.8145C12.7397 21.8479 12.7569 21.8812 12.7748 21.9146C11.6019 21.9872 10.7939 21.9693 9.96874 20.9834L9.96636 20.9846ZM16.5055 22.8451C14.5431 24.0502 13.2636 22.7969 12.8957 22.0313C12.8843 21.9997 12.873 21.9676 12.8617 21.9348C12.8599 21.9294 12.8581 21.9247 12.857 21.9193C12.8558 21.9163 12.8552 21.9134 12.854 21.9104C12.8325 21.8437 12.8123 21.7746 12.7938 21.7026C12.7938 21.7014 12.7933 21.6996 12.7927 21.6984C12.7909 21.6913 12.7891 21.6836 12.7873 21.6764C12.7796 21.6454 12.773 21.6139 12.7665 21.5817C12.7665 21.58 12.7659 21.5788 12.7653 21.577C12.7641 21.5728 12.7635 21.5686 12.7623 21.5645C12.7623 21.5657 12.7629 21.5669 12.7635 21.568C12.7051 21.2811 12.6807 20.9471 12.7206 20.5428C13.4946 21.9539 16.1899 21.9842 17.1181 21.2805C17.1271 21.6032 17.0711 22.0223 16.8705 22.3915C16.7835 22.5617 16.6805 22.7374 16.5049 22.8451H16.5055ZM20.7994 21.8104C20.7804 21.8461 20.7595 21.8824 20.7381 21.9187C20.7327 21.9277 20.7274 21.9366 20.7214 21.9461C20.6988 21.983 20.675 22.0199 20.65 22.0575C19.3056 23.3875 17.5361 23 16.6269 22.7886C16.6531 22.7689 16.6787 22.7463 16.7043 22.7237C16.7109 22.7177 16.7174 22.7124 16.7234 22.7064C16.7484 22.6832 16.7734 22.6588 16.7978 22.6332C16.8014 22.6296 16.8044 22.626 16.8073 22.6225C16.8288 22.5993 16.8502 22.5754 16.871 22.5504C16.8788 22.5415 16.8859 22.5326 16.8937 22.5236C16.9163 22.4963 16.9383 22.4689 16.9604 22.4397C16.9669 22.4308 16.9735 22.4218 16.98 22.4129C16.9967 22.3909 17.0128 22.3682 17.0288 22.345C17.0372 22.3331 17.0455 22.3206 17.0538 22.3087C17.3313 21.8997 17.5385 21.3942 17.554 21.1304C18.9454 21.7746 20.513 21.3841 21.0834 20.7607C21.0739 21.0102 21.0245 21.2835 20.9125 21.5645C20.9125 21.5645 20.9125 21.5645 20.9131 21.5639C20.8982 21.6014 20.8822 21.6389 20.8649 21.6764C20.8619 21.683 20.8589 21.6889 20.856 21.6955C20.8381 21.7336 20.8191 21.7717 20.7988 21.8104C20.7988 21.811 20.7982 21.8116 20.7976 21.8122L20.7994 21.8104ZM23.7406 20.179C23.7299 20.1999 23.718 20.2207 23.7067 20.2421C23.7007 20.2528 23.6948 20.2636 23.6888 20.2743C23.6775 20.2939 23.6662 20.3136 23.6543 20.3332C23.6477 20.3445 23.6406 20.3558 23.6334 20.3672C23.6215 20.3868 23.609 20.4059 23.5965 20.4249C23.5894 20.4356 23.5822 20.4463 23.5751 20.4571C23.562 20.4767 23.5483 20.4964 23.5346 20.516C23.5334 20.5178 23.5316 20.5196 23.5304 20.5214C23.4989 20.5654 23.4661 20.6083 23.4316 20.6512C23.4233 20.6619 23.4149 20.672 23.4066 20.6827C23.3923 20.7 23.3774 20.7172 23.3631 20.7339C23.353 20.7458 23.3429 20.7577 23.3322 20.769C23.3173 20.7857 23.3024 20.8018 23.2875 20.8179C23.2762 20.8298 23.2649 20.8417 23.2536 20.8536C23.2387 20.8697 23.2232 20.8851 23.2077 20.9006C23.1952 20.9125 23.1827 20.925 23.1702 20.9369C23.144 20.9625 23.1172 20.9875 23.0899 21.012C23.075 21.0257 23.0595 21.0393 23.044 21.053C23.0285 21.0661 23.013 21.0792 22.9976 21.0923C22.9827 21.1048 22.9672 21.1173 22.9517 21.1298C22.9362 21.1423 22.9202 21.1549 22.9041 21.1674C22.888 21.1799 22.8719 21.1924 22.8553 21.2043C22.8392 21.2162 22.8237 21.2281 22.8076 21.2394C22.7892 21.2525 22.7707 21.265 22.7523 21.2781C22.7374 21.2882 22.7225 21.2989 22.7076 21.3085C22.6755 21.3299 22.6427 21.3507 22.61 21.371C22.5969 21.3787 22.5838 21.3865 22.5707 21.3942C22.5481 21.4079 22.5254 21.421 22.5022 21.4341C22.4867 21.443 22.4712 21.4514 22.4558 21.4597C22.4343 21.4716 22.4123 21.4829 22.3909 21.4942C22.3748 21.5026 22.3587 21.5109 22.3426 21.5186C22.3194 21.5299 22.2962 21.5413 22.273 21.5526C22.2581 21.5597 22.2432 21.5669 22.2277 21.5734C22.1962 21.5877 22.164 21.6014 22.1319 21.6151C22.1241 21.6181 22.117 21.6216 22.1093 21.6246C22.0706 21.6401 22.0313 21.6556 21.992 21.6699C21.9777 21.6752 21.9634 21.68 21.9491 21.6847C21.9217 21.6943 21.8943 21.7038 21.8669 21.7127C21.8509 21.7181 21.8348 21.7228 21.8187 21.7276C21.7913 21.7359 21.7645 21.7437 21.7365 21.7514C21.7211 21.7556 21.705 21.7604 21.6895 21.7645C21.6579 21.7729 21.6264 21.7806 21.5942 21.7883C21.5823 21.7913 21.571 21.7943 21.5591 21.7967C21.5157 21.8062 21.4716 21.8157 21.4275 21.8235C21.4168 21.8253 21.4061 21.827 21.3948 21.8288C21.3609 21.8348 21.3263 21.8407 21.2918 21.8455C21.2757 21.8479 21.2596 21.8497 21.2436 21.852C21.2132 21.8562 21.1822 21.8598 21.1519 21.8628C21.1352 21.8645 21.1185 21.8663 21.1013 21.8675C21.0691 21.8705 21.037 21.8729 21.0042 21.8747C20.9893 21.8759 20.9744 21.8771 20.9596 21.8776C20.9125 21.88 20.8649 21.8818 20.8167 21.8824C20.8488 21.8467 20.8786 21.8116 20.9072 21.7764C20.9167 21.7651 20.925 21.7538 20.9346 21.7425C20.953 21.7193 20.9715 21.6961 20.9887 21.6734C20.9989 21.6603 21.0078 21.6472 21.0173 21.6347C21.0322 21.6145 21.0471 21.5937 21.0608 21.574C21.0697 21.5609 21.0786 21.5472 21.0876 21.5341C21.1001 21.5151 21.1126 21.4954 21.1245 21.477C21.3406 21.1298 21.3936 20.8494 21.399 20.6523C22.3111 20.8024 23.4661 20.3183 23.9651 19.5378C23.9222 19.7599 23.8424 19.9802 23.7317 20.1921C23.7347 20.1868 23.7376 20.182 23.7406 20.1772V20.179ZM24.0312 19.0877C23.6954 20.004 21.9509 20.7488 21.1531 20.3183C20.6339 21.3555 18.1243 21.4329 17.4182 20.7833C16.2501 21.914 13.2821 21.5579 12.7022 20.1808C11.8627 20.6595 10.0378 19.5914 9.98184 18.6215C8.65473 18.7936 7.61697 17.0592 7.66162 16.3215C7.66162 16.3215 7.7164 16.0542 7.89025 15.8256C8.57911 17.2098 9.57936 17.3777 9.86812 17.4986C10.2581 19.1157 12.0062 19.1996 12.9361 18.9495C13.2344 20.5035 16.5591 21.4668 17.9713 19.6717C19.1984 20.7107 20.7982 20.0754 21.4984 19.433C22.4325 19.7349 23.64 18.8448 24.0014 18.4C24.0014 18.4 24.102 18.7429 24.0312 19.0871V19.0877ZM24.2116 17.2455C24.1949 17.3259 24.1729 17.4021 24.1461 17.4748C24.1461 17.476 24.1449 17.4777 24.1443 17.4789C24.1401 17.4903 24.1359 17.5022 24.1312 17.5135C23.665 18.7566 22.0914 19.2568 21.652 18.9817C22.1337 16.5847 21.9783 15.0432 20.4065 13.1814C20.5601 13.3874 20.697 13.5946 20.8208 13.8036C20.8625 13.8739 20.9024 13.9441 20.9405 14.015C20.9429 14.0197 20.9459 14.0245 20.9483 14.0293C20.984 14.096 21.0185 14.1626 21.0518 14.2293C21.0548 14.2347 21.0572 14.2406 21.0602 14.246C21.0935 14.3133 21.1251 14.3806 21.1554 14.4478C21.1572 14.4514 21.159 14.4556 21.1608 14.4591C21.1912 14.5276 21.2203 14.5961 21.2483 14.664C21.2495 14.6663 21.2507 14.6693 21.2513 14.6717C21.2531 14.6759 21.2549 14.68 21.2567 14.6848C21.2775 14.7366 21.2971 14.789 21.3162 14.8408C21.3186 14.8467 21.321 14.8533 21.3233 14.8592C21.3245 14.8622 21.3257 14.8646 21.3263 14.8676C21.3442 14.9176 21.3615 14.967 21.3781 15.017C21.3817 15.0277 21.3853 15.039 21.3888 15.0498C21.3942 15.0658 21.399 15.0825 21.4043 15.0986C21.4097 15.1153 21.4144 15.1313 21.4198 15.148C21.4246 15.1641 21.4305 15.1807 21.4353 15.1968C21.4383 15.2075 21.4418 15.2183 21.4448 15.2296C21.4591 15.279 21.4734 15.329 21.4865 15.3784C21.4883 15.3856 21.4901 15.3933 21.4918 15.4004C21.4918 15.4016 21.4924 15.4034 21.493 15.4046C21.5067 15.4564 21.5198 15.5088 21.5317 15.5606C21.5317 15.5618 21.5317 15.563 21.5323 15.5642C21.5323 15.5648 21.5323 15.566 21.5323 15.5666C21.5359 15.5814 21.5383 15.5963 21.5419 15.6112C21.5514 15.6529 21.5603 15.6952 21.5686 15.7368C21.5728 15.7577 21.5764 15.7785 21.58 15.8C21.5865 15.8357 21.5936 15.872 21.5996 15.9077C21.6014 15.919 21.6032 15.9309 21.605 15.9422C21.6216 16.0441 21.6353 16.1459 21.646 16.2471C21.646 16.2471 21.646 16.2483 21.646 16.2495C21.646 16.2542 21.6472 16.2584 21.6478 16.2632C21.6526 16.3096 21.6568 16.3554 21.6603 16.4013C21.6603 16.4072 21.6615 16.4132 21.6615 16.4192C21.6621 16.4275 21.6627 16.4364 21.6639 16.4448C21.6669 16.487 21.6693 16.5287 21.671 16.571C21.6716 16.5876 21.6728 16.6043 21.6734 16.621C21.6734 16.6228 21.6734 16.6246 21.6734 16.6263C21.6752 16.6662 21.6758 16.7061 21.677 16.7454C21.677 16.7597 21.677 16.774 21.6776 16.7883C21.6776 16.7907 21.6776 16.7931 21.6776 16.7954C21.6776 16.799 21.6776 16.8026 21.6776 16.8062C21.6776 16.8443 21.6776 16.883 21.6776 16.9211C21.6776 16.9336 21.6776 16.9461 21.677 16.9586C21.677 16.9675 21.677 16.9764 21.677 16.9854C21.6764 17.0229 21.6752 17.0598 21.6734 17.0967C21.6734 17.108 21.6722 17.1199 21.6716 17.1312C21.6716 17.142 21.6705 17.1521 21.6699 17.1628C21.6681 17.1991 21.6657 17.236 21.6633 17.2723C21.6615 17.2944 21.6597 17.3164 21.6579 17.3384C21.655 17.3747 21.652 17.4111 21.6484 17.4474C21.6466 17.4664 21.6437 17.4855 21.6419 17.5045C21.6341 17.5706 21.6258 17.6361 21.6163 17.701C21.6163 17.704 21.6157 17.707 21.6151 17.7099C21.6115 17.735 21.6079 17.76 21.6038 17.7844C21.599 17.8135 21.5936 17.8421 21.5883 17.8707C21.5865 17.8808 21.5847 17.8904 21.5829 17.9005C21.5794 17.9189 21.5764 17.938 21.5728 17.9564C21.5675 17.9844 21.5615 18.0118 21.5555 18.0398C21.5549 18.0434 21.5538 18.0475 21.5532 18.0511C21.5526 18.0541 21.552 18.0577 21.5514 18.0606C21.5466 18.0833 21.5419 18.1053 21.5371 18.1279C21.5311 18.1547 21.5246 18.1815 21.518 18.2083C21.5157 18.2178 21.5133 18.2279 21.5109 18.2375C21.5061 18.2577 21.5014 18.2774 21.496 18.2976C21.4895 18.3238 21.4823 18.3494 21.4758 18.375C21.4746 18.3804 21.4728 18.3851 21.4716 18.3905C21.4645 18.4155 21.4579 18.4411 21.4508 18.4661C21.4436 18.4911 21.4365 18.5155 21.4287 18.5399C21.4234 18.5572 21.418 18.5739 21.4127 18.5911C21.4085 18.6048 21.4043 18.6185 21.3996 18.6322C21.3918 18.656 21.3847 18.6792 21.3769 18.7031C21.371 18.7203 21.365 18.737 21.3591 18.7543C21.3537 18.7691 21.3489 18.7846 21.3436 18.7995C21.3358 18.8209 21.3287 18.8424 21.321 18.8638C21.3168 18.8757 21.312 18.887 21.3079 18.8983C21.2989 18.9222 21.29 18.946 21.2811 18.9698C21.2745 18.9876 21.268 19.0049 21.2608 19.0228C21.259 19.0275 21.2567 19.0329 21.2549 19.0377C21.2358 19.0853 21.2168 19.1323 21.1965 19.1794C20.0689 20.1004 18.8251 19.9837 18.1493 19.2937C18.974 17.9052 18.89 15.8101 18.3768 13.9614C18.45 14.5711 18.5441 15.426 18.5274 16.3156V16.3144C18.5274 16.3197 18.5274 16.3257 18.5274 16.331C18.5262 16.393 18.5244 16.4549 18.5221 16.5168C18.5215 16.5335 18.5203 16.5495 18.5197 16.5662C18.5173 16.6174 18.5149 16.6686 18.5119 16.7204C18.5107 16.7419 18.509 16.7639 18.5078 16.7853C18.5048 16.8318 18.5012 16.8782 18.4976 16.924C18.4959 16.9479 18.4935 16.9717 18.4911 16.9955C18.4869 17.0395 18.4828 17.0836 18.478 17.1283C18.4756 17.1527 18.4726 17.1777 18.4697 17.2021C18.4643 17.2461 18.4589 17.2896 18.453 17.3331C18.45 17.3575 18.4464 17.3813 18.4429 17.4057C18.4363 17.451 18.4292 17.4956 18.4214 17.5403C18.4179 17.5623 18.4143 17.5843 18.4101 17.6064C18.4012 17.657 18.3911 17.707 18.3809 17.757C18.378 17.7731 18.375 17.7885 18.3714 17.8046C18.3577 17.8707 18.3422 17.9362 18.3262 18.0011C18.325 18.0065 18.3232 18.0118 18.322 18.0172C18.3071 18.0755 18.2916 18.1339 18.275 18.191C18.269 18.2113 18.2625 18.2309 18.2565 18.2512C18.2434 18.2934 18.2303 18.3357 18.2166 18.3774C18.2089 18.4006 18.2 18.4238 18.1922 18.447C18.1791 18.4845 18.1654 18.5221 18.1511 18.559C18.1416 18.5834 18.1321 18.6072 18.122 18.631C18.1077 18.6661 18.0922 18.7013 18.0767 18.7364C18.066 18.7602 18.0553 18.784 18.044 18.8078C18.0279 18.8418 18.0112 18.8757 17.9939 18.9091C17.982 18.9323 17.9707 18.9549 17.9582 18.9775C17.9398 19.0115 17.9207 19.0448 17.9011 19.0775C17.8886 19.0984 17.8767 19.1198 17.8642 19.1401C17.8421 19.1758 17.8189 19.2103 17.7957 19.2449C17.7844 19.2615 17.7737 19.2788 17.7617 19.2955C17.726 19.3461 17.6891 19.3955 17.6498 19.4431C16.49 20.7351 14.5812 20.3362 13.5678 19.3895C13.5494 19.3651 13.5321 19.3407 13.5161 19.3151C13.5107 19.3068 13.5059 19.2984 13.5012 19.2907C13.4904 19.2734 13.4797 19.2556 13.4702 19.2377C13.4648 19.2282 13.4601 19.2187 13.4547 19.2091C13.4458 19.1919 13.4375 19.1746 13.4291 19.1573C13.425 19.1478 13.4202 19.1383 13.416 19.1288C13.4071 19.1091 13.3994 19.0895 13.3916 19.0698C13.3886 19.0627 13.3857 19.0555 13.3833 19.0484C13.3732 19.0222 13.3642 18.996 13.3559 18.9692C13.3535 18.9614 13.3511 18.9531 13.3487 18.9454C13.3428 18.9269 13.3374 18.9079 13.3327 18.8894C13.3297 18.8793 13.3273 18.8686 13.3249 18.8584C13.3225 18.8495 13.3202 18.8406 13.3184 18.8322C13.3184 18.8334 13.319 18.8346 13.3196 18.8358C13.2553 18.5673 13.2594 18.3286 13.2684 18.2517C13.4517 16.5978 14.7515 14.8634 15.8136 13.6196C15.2736 14.0704 14.7717 14.5973 14.3401 15.1593C14.2377 15.2927 14.1388 15.4284 14.0448 15.5654C14.0388 15.5743 14.0328 15.5832 14.0263 15.5922C13.9828 15.6559 13.94 15.7196 13.8989 15.7839C13.8965 15.7874 13.8947 15.7904 13.8923 15.794C13.8042 15.9303 13.7209 16.0685 13.6423 16.2066C13.6357 16.2185 13.6292 16.2298 13.6226 16.2417C13.5887 16.3019 13.5559 16.362 13.5244 16.4221C13.5196 16.4305 13.5149 16.4394 13.5107 16.4477C13.4738 16.5174 13.4387 16.5876 13.4041 16.6573C13.4041 16.6573 13.4041 16.6579 13.4041 16.6585C13.372 16.7246 13.3416 16.7901 13.3118 16.8562C13.3053 16.871 13.2981 16.8865 13.2916 16.9014C13.2672 16.9562 13.244 17.011 13.2219 17.0657C13.2166 17.0794 13.2106 17.0931 13.2053 17.1068C13.1779 17.1747 13.1523 17.242 13.1279 17.3093C13.1267 17.3116 13.1261 17.314 13.1255 17.317C13.1029 17.3795 13.082 17.442 13.0618 17.5045C13.0558 17.5224 13.0505 17.5403 13.0451 17.5581C13.0296 17.6081 13.0147 17.6576 13.001 17.707C12.9963 17.7242 12.9915 17.7415 12.9868 17.7588C12.9695 17.8237 12.9534 17.888 12.9385 17.9517C12.9379 17.9547 12.9373 17.9576 12.9367 17.9606C12.923 18.0207 12.9117 18.0809 12.901 18.1404C12.8974 18.1589 12.8945 18.1779 12.8915 18.1964C12.8838 18.2422 12.8772 18.2881 12.8712 18.3339C12.8689 18.3524 12.8665 18.3708 12.8641 18.3887C12.857 18.45 12.851 18.5113 12.8468 18.5721C11.6275 18.8858 10.885 18.4673 10.4492 17.9124C10.4361 17.8874 10.4236 17.8624 10.4117 17.8374C10.4093 17.832 10.4069 17.8266 10.4046 17.8213C10.395 17.8016 10.3861 17.7814 10.3772 17.7617C10.3754 17.757 10.3736 17.7528 10.3718 17.7481C10.3629 17.7272 10.3546 17.7064 10.3462 17.6855C10.345 17.682 10.3438 17.679 10.3426 17.6754C10.3343 17.6534 10.326 17.6308 10.3182 17.6087C10.3176 17.6069 10.317 17.6052 10.3164 17.6034C10.3087 17.5796 10.301 17.5557 10.2938 17.5319C10.2938 17.5319 10.2938 17.5307 10.2938 17.5301C10.2712 17.4539 10.2539 17.3783 10.2408 17.3021C10.0009 15.9065 11.2917 14.5038 12.3467 13.912C11.7114 14.1537 11.2387 14.4955 10.8874 14.8557C10.8618 14.8819 10.8368 14.9081 10.813 14.9343C10.8053 14.9426 10.7975 14.9515 10.7898 14.9599C10.7648 14.9878 10.7404 15.0152 10.7165 15.0432C10.713 15.0474 10.7088 15.0521 10.7052 15.0563C10.6784 15.0879 10.6528 15.1194 10.6278 15.151C10.6213 15.1593 10.6147 15.1677 10.6082 15.176C10.5879 15.2022 10.5683 15.2284 10.5486 15.2546C10.5439 15.2611 10.5391 15.2677 10.5344 15.2736C10.5117 15.3052 10.4897 15.3361 10.4689 15.3671C10.4635 15.3748 10.4587 15.382 10.4534 15.3897C10.4361 15.4153 10.42 15.4403 10.404 15.4659C10.3992 15.4737 10.3944 15.4808 10.3897 15.4886C10.3706 15.5189 10.3522 15.5493 10.3343 15.5797C10.3307 15.5862 10.3272 15.5922 10.3236 15.5987C10.3087 15.6237 10.295 15.6487 10.2813 15.6737C10.2772 15.6815 10.273 15.6892 10.2688 15.6969C10.2527 15.7267 10.2373 15.7559 10.223 15.7845C10.2212 15.7886 10.2194 15.7922 10.217 15.7964C10.2039 15.822 10.192 15.847 10.1801 15.872C10.1765 15.8797 10.173 15.8875 10.1694 15.8946C10.1563 15.922 10.1438 15.9494 10.1325 15.9762C10.1325 15.9762 10.1325 15.9768 10.1325 15.9774C10.1206 16.0042 10.1093 16.031 10.0985 16.0566C10.0956 16.0637 10.0926 16.0703 10.0902 16.0774C10.0813 16.1 10.0723 16.1221 10.064 16.1435C10.0628 16.1465 10.0616 16.15 10.0604 16.153C10.0515 16.1774 10.0426 16.2006 10.0342 16.2239C10.0319 16.2298 10.0301 16.2358 10.0277 16.2417C10.0211 16.2602 10.0152 16.2786 10.0092 16.2959C10.008 16.3001 10.0063 16.3048 10.0051 16.309C9.99851 16.3298 9.99196 16.3501 9.98601 16.3697C9.98482 16.3745 9.98303 16.3787 9.98184 16.3834C9.97708 16.3989 9.97291 16.4144 9.96874 16.4287C9.96755 16.4328 9.96636 16.437 9.96517 16.4412C9.96041 16.4584 9.95624 16.4745 9.95207 16.49C9.95148 16.4936 9.95029 16.4966 9.94969 16.4995C9.94671 16.512 9.94374 16.5239 9.94076 16.5353C9.94016 16.5388 9.93897 16.5424 9.93838 16.546C9.9354 16.5591 9.93242 16.571 9.93064 16.5817C9.93064 16.5835 9.93064 16.5847 9.92945 16.5859C9.92766 16.5954 9.92587 16.6037 9.92409 16.6115C9.92409 16.6138 9.92349 16.6162 9.9229 16.618C9.92111 16.6263 9.91992 16.6335 9.91933 16.6394C9.91278 16.6793 9.88182 16.9294 9.90146 17.1044C9.86157 17.0961 9.82228 17.086 9.78298 17.0747C9.76988 17.0711 9.75678 17.0663 9.74369 17.0622C9.71749 17.0538 9.69189 17.0461 9.66629 17.0366C9.65081 17.0312 9.63592 17.0247 9.62044 17.0187C9.59722 17.0098 9.574 17.0008 9.55138 16.9907C9.5353 16.9836 9.51982 16.9764 9.50375 16.9687C9.48172 16.9586 9.46028 16.9485 9.43825 16.9377C9.42218 16.9294 9.4061 16.9211 9.39062 16.9121C9.36978 16.9008 9.34895 16.8895 9.32811 16.8776C9.31203 16.8687 9.29655 16.8585 9.28107 16.849C9.26083 16.8365 9.24059 16.824 9.22094 16.8109C9.20546 16.8008 9.18998 16.7901 9.1745 16.7794C9.15485 16.7657 9.1352 16.752 9.11615 16.7377C9.10127 16.7264 9.08638 16.7151 9.0715 16.7037C9.05244 16.6889 9.03339 16.674 9.01493 16.6585C9.00065 16.6466 8.98636 16.6347 8.97207 16.6228C8.95361 16.6067 8.93515 16.5906 8.9167 16.574C8.903 16.5614 8.88931 16.5489 8.87621 16.5364C8.85775 16.5192 8.83989 16.5013 8.82262 16.4835C8.80953 16.4704 8.79702 16.4579 8.78452 16.4448C8.76666 16.4263 8.74939 16.4072 8.73213 16.3876C8.72022 16.3745 8.70831 16.3614 8.697 16.3483C8.67914 16.3281 8.66247 16.3072 8.6452 16.2864C8.63448 16.2733 8.62377 16.2608 8.61364 16.2477C8.59578 16.2251 8.57852 16.2018 8.56185 16.1786C8.55292 16.1667 8.54398 16.1548 8.53505 16.1429C8.516 16.1167 8.49814 16.0893 8.48028 16.0625C8.47432 16.053 8.46777 16.0441 8.46123 16.0345C8.41359 15.9601 8.36894 15.8833 8.32905 15.8047C8.32905 15.8047 8.32905 15.8035 8.32845 15.8035C8.04088 15.2409 7.95634 14.5818 8.21116 13.9947C8.42253 13.5077 8.85299 13.0778 9.4716 12.676C9.4716 12.676 9.4716 12.676 9.47219 12.676C9.47338 12.6754 9.47457 12.6742 9.47636 12.6736C9.50494 12.6551 9.53352 12.6367 9.56269 12.6182C9.57102 12.6129 9.57996 12.6075 9.58829 12.6021C9.59663 12.5968 9.60556 12.5914 9.61389 12.5867C9.62461 12.5801 9.63533 12.5736 9.64545 12.567C9.64902 12.5646 9.65259 12.5628 9.65616 12.5605C9.66629 12.5545 9.67641 12.548 9.68653 12.542C9.70915 12.5283 9.73237 12.5146 9.75619 12.5009C9.76572 12.4956 9.77465 12.4902 9.78417 12.4842C9.78536 12.4837 9.78655 12.4831 9.78774 12.4825C9.85086 12.4461 9.91575 12.4092 9.98184 12.3735C9.98303 12.3735 9.98363 12.3723 9.98482 12.3717C9.99434 12.3664 10.0045 12.361 10.014 12.3562C10.039 12.3425 10.0646 12.3289 10.0902 12.3152C10.1015 12.3092 10.1128 12.3033 10.1241 12.2973C10.1289 12.2949 10.1331 12.2925 10.1378 12.2902C10.1503 12.2836 10.1628 12.2771 10.1747 12.2705C10.1837 12.2657 10.1926 12.261 10.2015 12.2568C10.2117 12.2515 10.2218 12.2461 10.2325 12.2407C10.2462 12.2336 10.2605 12.227 10.2742 12.2199C10.32 12.1967 10.3671 12.1735 10.4141 12.1502C10.4278 12.1437 10.4409 12.1365 10.4546 12.13C10.4653 12.1246 10.476 12.1193 10.4873 12.1145C10.4974 12.1097 10.5076 12.105 10.5183 12.0996C10.5314 12.0937 10.5445 12.0871 10.5576 12.0812C10.5623 12.0788 10.5665 12.077 10.5707 12.0746C10.5832 12.0687 10.5957 12.0627 10.6082 12.0568C10.6362 12.0437 10.6647 12.0306 10.6927 12.0175C10.704 12.0121 10.7154 12.0067 10.7267 12.0014C10.7279 12.0008 10.7296 12.0002 10.7308 11.9996C10.8076 11.9645 10.8856 11.9293 10.9654 11.8942C10.9666 11.8942 10.9678 11.893 10.969 11.8924C10.9809 11.8871 10.9928 11.8823 11.0041 11.877C11.0339 11.8639 11.0643 11.8508 11.0946 11.8377C11.1083 11.8317 11.122 11.8258 11.1357 11.8198C11.1411 11.8174 11.1464 11.815 11.1524 11.8127C11.1667 11.8067 11.1809 11.8001 11.1958 11.7942C11.2065 11.7894 11.2173 11.7853 11.228 11.7805C11.2405 11.7751 11.2524 11.7704 11.2649 11.765C11.281 11.7579 11.2982 11.7513 11.3149 11.7442C11.3691 11.7216 11.4239 11.6989 11.4792 11.6763C11.4953 11.6698 11.5108 11.6632 11.5275 11.6567C11.5406 11.6513 11.5543 11.6459 11.5674 11.6406C11.5793 11.6358 11.5912 11.6311 11.6031 11.6263C11.618 11.6203 11.6328 11.6144 11.6477 11.6084C11.6531 11.6061 11.6584 11.6043 11.6638 11.6019C11.6787 11.5959 11.6942 11.59 11.7091 11.584C11.7418 11.5709 11.774 11.5584 11.8073 11.5453C11.821 11.54 11.8341 11.5346 11.8478 11.5292C11.8502 11.5287 11.8519 11.5275 11.8543 11.5269C11.8668 11.5221 11.8799 11.5167 11.8924 11.512C11.9234 11.5001 11.9544 11.4876 11.9859 11.4757C12.0193 11.4632 12.0526 11.4501 12.0859 11.4376C12.0978 11.4334 12.1092 11.4286 12.1211 11.4245C12.1234 11.4239 12.1252 11.4227 12.1276 11.4221C12.1419 11.4167 12.1562 11.4114 12.1705 11.406C12.2044 11.3935 12.2384 11.3804 12.2723 11.3679C12.289 11.3619 12.3056 11.3554 12.3217 11.3494C12.3277 11.3471 12.3336 11.3453 12.3396 11.3429C12.3556 11.3369 12.3717 11.331 12.3884 11.325C12.4003 11.3203 12.4122 11.3161 12.4247 11.3113C12.4396 11.306 12.4545 11.3 12.4694 11.2947C12.4884 11.2875 12.5081 11.2804 12.5271 11.2738C12.5884 11.2512 12.6504 11.2286 12.7129 11.206C12.7313 11.1994 12.7492 11.1929 12.7682 11.1857C12.7837 11.1804 12.7992 11.1744 12.8147 11.169C12.8278 11.1643 12.8409 11.1595 12.854 11.1548C12.8712 11.1488 12.8879 11.1422 12.9052 11.1363C12.9111 11.1339 12.9171 11.1321 12.923 11.1297C12.9403 11.1232 12.9582 11.1172 12.976 11.1107C13.0118 11.0982 13.0481 11.0851 13.0838 11.0726C13.1005 11.0666 13.1165 11.0613 13.1332 11.0553C13.1362 11.0541 13.1386 11.0535 13.1416 11.0523C13.1535 11.0482 13.1654 11.044 13.1773 11.0398C13.213 11.0273 13.2487 11.0148 13.285 11.0017C13.2868 11.0011 13.2886 11.0005 13.2904 11C13.3273 10.9869 13.3654 10.9738 13.4029 10.9607C13.4154 10.9565 13.4279 10.9517 13.4404 10.9476C13.4428 10.947 13.4452 10.9458 13.4482 10.9452C13.4648 10.9392 13.4821 10.9333 13.4988 10.9279C13.5363 10.9148 13.5738 10.9023 13.6113 10.8892C13.6298 10.8827 13.6488 10.8767 13.6673 10.8702C13.6738 10.8678 13.681 10.8654 13.6881 10.863C13.7054 10.8571 13.7226 10.8511 13.7399 10.8452C13.7536 10.8404 13.7673 10.8356 13.781 10.8309C13.7989 10.8249 13.8161 10.819 13.834 10.813C13.8882 10.7945 13.9429 10.7761 13.9977 10.7576C16.9193 9.77048 18.1922 9.26797 19.4574 9.65736C19.4925 9.66807 19.5283 9.68058 19.5652 9.69427C19.5795 9.69963 19.5943 9.70618 19.6092 9.71213C19.6319 9.72106 19.6545 9.72999 19.6777 9.74011C19.6968 9.74845 19.7164 9.75857 19.7355 9.7675C19.7551 9.77703 19.7742 9.78536 19.7944 9.79549C19.8164 9.8068 19.8385 9.81871 19.8611 9.83121C19.8789 9.84073 19.8968 9.85026 19.9153 9.86038C19.9391 9.87408 19.9641 9.88896 19.9885 9.90385C20.0058 9.91397 20.0224 9.92409 20.0403 9.93481C20.0659 9.95088 20.0921 9.96815 20.1183 9.98482C20.135 9.99613 20.1516 10.0068 20.1689 10.0182C20.1957 10.036 20.2231 10.0557 20.2499 10.0747C20.2671 10.0866 20.2838 10.0985 20.3011 10.111C20.3285 10.1313 20.3564 10.1521 20.3838 10.1736C20.3963 10.1831 20.4082 10.192 20.4213 10.2015C20.4213 10.2015 20.4219 10.2027 20.4225 10.2033C20.8482 10.5344 21.3174 11.0017 21.7949 11.609C21.7949 11.609 21.7949 11.6084 21.7943 11.6078C21.7973 11.6114 21.8002 11.615 21.8026 11.6192C21.8336 11.659 21.8651 11.6995 21.8961 11.7406C21.9158 11.7668 21.936 11.7924 21.9556 11.8192C21.9854 11.8591 22.0158 11.9002 22.0455 11.9413C22.067 11.9704 22.0878 11.999 22.1093 12.0288C22.1384 12.0693 22.1676 12.1109 22.1962 12.152C22.2182 12.1836 22.2402 12.2151 22.2629 12.2479C22.2914 12.289 22.3194 12.3312 22.348 12.3735C22.3706 12.4074 22.3938 12.442 22.4165 12.4765C22.4439 12.5188 22.4718 12.5611 22.4992 12.6045C22.523 12.6414 22.5463 12.6783 22.5695 12.7153C22.5963 12.7581 22.6231 12.8016 22.6499 12.8451C22.6743 12.8843 22.6981 12.9242 22.7219 12.9641C22.7481 13.0076 22.7743 13.0517 22.7999 13.0957C22.8243 13.1374 22.8487 13.1797 22.8731 13.2219C22.8987 13.266 22.9237 13.3106 22.9493 13.3559C22.9743 13.4 22.9988 13.4452 23.0238 13.4904C23.0482 13.5357 23.0732 13.5804 23.0976 13.6262C23.1226 13.6732 23.1476 13.7209 23.1726 13.7685C23.1964 13.8143 23.2202 13.8602 23.2441 13.9066C23.2697 13.9566 23.2947 14.0072 23.3197 14.0579C23.3429 14.1043 23.3655 14.1501 23.3887 14.1966C23.4143 14.2496 23.4399 14.3037 23.4655 14.3573C23.4876 14.4032 23.5096 14.449 23.531 14.4961C23.5572 14.5532 23.5834 14.611 23.6096 14.6687C23.6305 14.714 23.6507 14.7592 23.6715 14.8057C23.6989 14.8676 23.7257 14.9313 23.7531 14.9944C23.7716 15.0379 23.7906 15.0813 23.8091 15.1254C23.8388 15.1968 23.8686 15.2701 23.8984 15.3427C23.9133 15.3802 23.9288 15.4165 23.9436 15.454C23.9883 15.5654 24.0318 15.6785 24.0752 15.7928C24.2842 16.3435 24.3092 16.8258 24.2169 17.2384L24.2116 17.2455Z" fill="#E6DAFE"/>
</svg>
