<?xml version="1.0" encoding="UTF-8"?>
<!DOCTYPE svg PUBLIC "-//W3C//DTD SVG 1.1//EN" "http://www.w3.org/Graphics/SVG/1.1/DTD/svg11.dtd">
<svg xmlns="http://www.w3.org/2000/svg" version="1.1" width="64px" height="64px" style="shape-rendering:geometricPrecision; text-rendering:geometricPrecision; image-rendering:optimizeQuality; fill-rule:evenodd; clip-rule:evenodd" xmlns:xlink="http://www.w3.org/1999/xlink">
<g><path style="opacity:1" fill="#fdfdfd" d="M -0.5,-0.5 C 0.166667,-0.5 0.833333,-0.5 1.5,-0.5C 2.39094,1.60887 3.55761,3.60887 5,5.5C 5.92601,3.30826 7.09267,1.30826 8.5,-0.5C 8.83333,-0.5 9.16667,-0.5 9.5,-0.5C 9.82036,2.89838 9.48702,6.23171 8.5,9.5C 7.71893,8.27135 7.21893,6.93801 7,5.5C 5.16972,9.14356 3.50305,8.81022 2,4.5C 1.95042,6.74398 1.11709,8.41065 -0.5,9.5C -0.5,6.16667 -0.5,2.83333 -0.5,-0.5 Z"/></g>
<g><path style="opacity:1" fill="#000000" d="M 1.5,-0.5 C 3.83333,-0.5 6.16667,-0.5 8.5,-0.5C 7.09267,1.30826 5.92601,3.30826 5,5.5C 3.55761,3.60887 2.39094,1.60887 1.5,-0.5 Z"/></g>
<g><path style="opacity:1" fill="#fefefe" d="M 11.5,-0.5 C 13.5,-0.5 15.5,-0.5 17.5,-0.5C 16.6649,0.943157 15.3316,1.94316 13.5,2.5C 17.5,3.83333 17.5,5.16667 13.5,6.5C 15.1667,7.16667 16.8333,7.83333 18.5,8.5C 16.2573,9.47423 13.924,9.80756 11.5,9.5C 11.5,6.16667 11.5,2.83333 11.5,-0.5 Z"/></g>
<g><path style="opacity:1" fill="#fefefe" d="M 19.5,-0.5 C 20.1667,-0.5 20.8333,-0.5 21.5,-0.5C 21.5,2.16667 21.5,4.83333 21.5,7.5C 22.8333,7.5 24.1667,7.5 25.5,7.5C 25.8333,7.5 26.1667,7.5 26.5,7.5C 26.5,8.83333 25.8333,9.5 24.5,9.5C 23.5,9.5 22.5,9.5 21.5,9.5C 19.5977,6.66268 18.931,3.32935 19.5,-0.5 Z"/></g>
<g><path style="opacity:1" fill="#fefefe" d="M 38.5,-0.5 C 39.1667,-0.5 39.8333,-0.5 40.5,-0.5C 42.1271,1.62976 43.9604,3.62976 46,5.5C 46.4955,3.5273 46.6621,1.5273 46.5,-0.5C 47.1667,-0.5 47.8333,-0.5 48.5,-0.5C 49.952,10.6529 47.452,11.9863 41,3.5C 40.5045,5.4727 40.3379,7.4727 40.5,9.5C 38.8235,8.81658 38.1568,7.48324 38.5,5.5C 38.5,3.5 38.5,1.5 38.5,-0.5 Z"/></g>
<g><path style="opacity:1" fill="#181818" d="M 40.5,-0.5 C 42.5,-0.5 44.5,-0.5 46.5,-0.5C 46.6621,1.5273 46.4955,3.5273 46,5.5C 43.9604,3.62976 42.1271,1.62976 40.5,-0.5 Z"/></g>
<g><path style="opacity:1" fill="#090909" d="M 48.5,-0.5 C 48.8333,-0.5 49.1667,-0.5 49.5,-0.5C 49.5,2.83333 49.5,6.16667 49.5,9.5C 50.5,9.5 51.5,9.5 52.5,9.5C 52.5,6.16667 52.5,2.83333 52.5,-0.5C 54.1667,-0.5 55.8333,-0.5 57.5,-0.5C 56.4558,2.5918 55.1225,5.5918 53.5,8.5C 53.8333,8.83333 54.1667,9.16667 54.5,9.5C 55.4682,8.51093 56.6349,7.84426 58,7.5C 59.9386,7.9543 61.772,8.62097 63.5,9.5C 63.5,21.1667 63.5,32.8333 63.5,44.5C 61.7631,39.6316 58.4298,37.9649 53.5,39.5C 51.6867,44.7259 50.1867,50.0592 49,55.5C 48.1072,54.2888 47.2739,54.2888 46.5,55.5C 47.7962,57.3362 48.6296,59.3362 49,61.5C 49.3333,60.8333 49.6667,60.1667 50,59.5C 50.49,60.7932 50.6567,62.1266 50.5,63.5C 48.8333,63.5 47.1667,63.5 45.5,63.5C 44.5392,59.1125 42.5392,55.2792 39.5,52C 40.7932,51.51 42.1266,51.3433 43.5,51.5C 43.423,47.038 44.0897,42.7047 45.5,38.5C 47.1947,37.9886 48.8614,37.3219 50.5,36.5C 48.0296,31.8411 46.8629,26.8411 47,21.5C 44.9728,24.2211 43.4728,27.2211 42.5,30.5C 41.5,31.3333 40.5,32.1667 39.5,33C 41.3237,33.66 42.657,34.8267 43.5,36.5C 37.4398,35.0507 35.7731,31.7174 38.5,26.5C 41.4512,21.1209 42.1179,15.4542 40.5,9.5C 40.3379,7.4727 40.5045,5.4727 41,3.5C 47.452,11.9863 49.952,10.6529 48.5,-0.5 Z"/></g>
<g><path style="opacity:1" fill="#f7f7f7" d="M 49.5,-0.5 C 50.5,-0.5 51.5,-0.5 52.5,-0.5C 52.5,2.83333 52.5,6.16667 52.5,9.5C 51.5,9.5 50.5,9.5 49.5,9.5C 49.5,6.16667 49.5,2.83333 49.5,-0.5 Z"/></g>
<g><path style="opacity:1" fill="#fcfcfc" d="M 57.5,-0.5 C 58.1667,-0.5 58.8333,-0.5 59.5,-0.5C 60.4629,2.74418 61.7962,5.74418 63.5,8.5C 63.5,8.83333 63.5,9.16667 63.5,9.5C 61.772,8.62097 59.9386,7.9543 58,7.5C 56.6349,7.84426 55.4682,8.51093 54.5,9.5C 54.1667,9.16667 53.8333,8.83333 53.5,8.5C 55.1225,5.5918 56.4558,2.5918 57.5,-0.5 Z"/></g>
<g><path style="opacity:1" fill="#000000" d="M 59.5,-0.5 C 60.8333,-0.5 62.1667,-0.5 63.5,-0.5C 63.5,2.5 63.5,5.5 63.5,8.5C 61.7962,5.74418 60.4629,2.74418 59.5,-0.5 Z"/></g>
<g><path style="opacity:1" fill="#353535" d="M 21.5,-0.5 C 22.5,-0.5 23.5,-0.5 24.5,-0.5C 25.388,2.05449 25.7214,4.72116 25.5,7.5C 24.1667,7.5 22.8333,7.5 21.5,7.5C 21.5,4.83333 21.5,2.16667 21.5,-0.5 Z"/></g>
<g><path style="opacity:1" fill="#5c5c5c" d="M 24.5,-0.5 C 26.8333,-0.5 29.1667,-0.5 31.5,-0.5C 30.9247,2.95422 29.258,5.62089 26.5,7.5C 26.1667,7.5 25.8333,7.5 25.5,7.5C 25.7214,4.72116 25.388,2.05449 24.5,-0.5 Z"/></g>
<g><path style="opacity:1" fill="#303030" d="M 33.5,-0.5 C 35.1667,-0.5 36.8333,-0.5 38.5,-0.5C 38.5,1.5 38.5,3.5 38.5,5.5C 37.3634,4.21119 36.0301,3.21119 34.5,2.5C 33.8902,1.60895 33.5569,0.608953 33.5,-0.5 Z"/></g>
<g><path style="opacity:1" fill="#000000" d="M 57.5,3.5 C 58.2891,3.78281 58.9558,4.28281 59.5,5C 58.184,5.52811 57.5173,5.02811 57.5,3.5 Z"/></g>
<g><path style="opacity:1" fill="#070707" d="M 9.5,-0.5 C 10.1667,-0.5 10.8333,-0.5 11.5,-0.5C 11.5,2.83333 11.5,6.16667 11.5,9.5C 10.1723,11.4436 9.83895,13.4436 10.5,15.5C 9.52216,15.811 8.85549,16.4777 8.5,17.5C 9.21319,19.7759 9.71319,22.1093 10,24.5C 12.5942,23.5376 14.5942,21.8709 16,19.5C 17.3009,24.7546 19.1342,29.7546 21.5,34.5C 19.9826,34.4894 18.8159,33.8228 18,32.5C 17.7489,30.567 17.2489,28.7337 16.5,27C 14.4605,27.6145 12.4605,27.4478 10.5,26.5C 10.5654,26.0618 10.3988,25.7284 10,25.5C 8.25017,27.7343 6.75017,30.0676 5.5,32.5C 4.50623,35.8969 4.83956,39.2302 6.5,42.5C 7.12167,43.6266 7.95501,44.6266 9,45.5C 9.66667,46.5 9.66667,47.5 9,48.5C 7.31836,50.5989 5.65169,51.9322 4,52.5C 3.80912,50.2922 3.30912,48.2922 2.5,46.5C 2.66212,44.4727 2.49546,42.4727 2,40.5C 1.32924,39.7476 0.495904,39.4142 -0.5,39.5C -0.5,29.5 -0.5,19.5 -0.5,9.5C 1.11709,8.41065 1.95042,6.74398 2,4.5C 3.50305,8.81022 5.16972,9.14356 7,5.5C 7.21893,6.93801 7.71893,8.27135 8.5,9.5C 9.48702,6.23171 9.82036,2.89838 9.5,-0.5 Z"/></g>
<g><path style="opacity:1" fill="#4d4d4d" d="M 17.5,-0.5 C 18.1667,-0.5 18.8333,-0.5 19.5,-0.5C 18.931,3.32935 19.5977,6.66268 21.5,9.5C 20.6851,10.8366 19.5185,11.8366 18,12.5C 17.3736,16.1358 16.2069,16.1358 14.5,12.5C 13.7174,14.2882 12.3841,15.2882 10.5,15.5C 9.83895,13.4436 10.1723,11.4436 11.5,9.5C 13.924,9.80756 16.2573,9.47423 18.5,8.5C 16.8333,7.83333 15.1667,7.16667 13.5,6.5C 17.5,5.16667 17.5,3.83333 13.5,2.5C 15.3316,1.94316 16.6649,0.943157 17.5,-0.5 Z"/></g>
<g><path style="opacity:1" fill="#747474" d="M 21.5,9.5 C 22.5,9.5 23.5,9.5 24.5,9.5C 23.8333,10.5 23.1667,11.5 22.5,12.5C 18.0892,13.7686 17.7558,15.1019 21.5,16.5C 20.5,16.5 19.5,16.5 18.5,16.5C 18.5,18.1667 18.5,19.8333 18.5,21.5C 20.5648,21.4828 22.5648,21.1495 24.5,20.5C 25.3177,27.6114 24.4844,34.6114 22,41.5C 21.3028,43.5844 20.1361,45.2511 18.5,46.5C 20.1234,42.6731 21.1234,38.6731 21.5,34.5C 19.1342,29.7546 17.3009,24.7546 16,19.5C 14.5942,21.8709 12.5942,23.5376 10,24.5C 9.71319,22.1093 9.21319,19.7759 8.5,17.5C 8.85549,16.4777 9.52216,15.811 10.5,15.5C 12.3841,15.2882 13.7174,14.2882 14.5,12.5C 16.2069,16.1358 17.3736,16.1358 18,12.5C 19.5185,11.8366 20.6851,10.8366 21.5,9.5 Z"/></g>
<g><path style="opacity:1" fill="#6e6e6e" d="M 34.5,2.5 C 36.0301,3.21119 37.3634,4.21119 38.5,5.5C 38.1568,7.48324 38.8235,8.81658 40.5,9.5C 42.1179,15.4542 41.4512,21.1209 38.5,26.5C 37.5,26.5 36.5,26.5 35.5,26.5C 34.448,26.6495 33.448,26.4828 32.5,26C 36.9404,24.5605 39.607,21.5605 40.5,17C 40.3613,15.699 39.6946,14.8656 38.5,14.5C 37.7375,13.7321 36.7375,13.2321 35.5,13C 36.624,12.7508 37.624,12.2508 38.5,11.5C 37.4267,8.35607 36.0934,5.35607 34.5,2.5 Z"/></g>
<g><path style="opacity:1" fill="#323232" d="M 22.5,12.5 C 24.9118,12.6941 25.9118,14.0274 25.5,16.5C 24.1667,16.5 22.8333,16.5 21.5,16.5C 17.7558,15.1019 18.0892,13.7686 22.5,12.5 Z"/></g>
<g><path style="opacity:1" fill="#b0b0b0" d="M 21.5,16.5 C 22.8333,16.5 24.1667,16.5 25.5,16.5C 25.5674,17.9587 25.2341,19.2921 24.5,20.5C 22.5648,21.1495 20.5648,21.4828 18.5,21.5C 18.5,19.8333 18.5,18.1667 18.5,16.5C 19.5,16.5 20.5,16.5 21.5,16.5 Z"/></g>
<g><path style="opacity:1" fill="#dedede" d="M 31.5,-0.5 C 32.1667,-0.5 32.8333,-0.5 33.5,-0.5C 33.5569,0.608953 33.8902,1.60895 34.5,2.5C 36.0934,5.35607 37.4267,8.35607 38.5,11.5C 37.624,12.2508 36.624,12.7508 35.5,13C 36.7375,13.2321 37.7375,13.7321 38.5,14.5C 39.6946,14.8656 40.3613,15.699 40.5,17C 39.607,21.5605 36.9404,24.5605 32.5,26C 33.448,26.4828 34.448,26.6495 35.5,26.5C 34.6306,29.7799 33.9639,33.1132 33.5,36.5C 33.9243,38.8704 34.0909,41.2037 34,43.5C 32.6012,43.5012 31.1012,43.8346 29.5,44.5C 28.6786,41.5535 28.1786,38.5535 28,35.5C 28.5491,41.943 26.5491,47.2763 22,51.5C 21.5065,53.1341 21.3398,54.8008 21.5,56.5C 20.8333,58.8333 20.1667,61.1667 19.5,63.5C 15.8333,63.5 12.1667,63.5 8.5,63.5C 10.3311,59.846 12.6644,56.5127 15.5,53.5C 16.4287,52.3112 16.762,50.9778 16.5,49.5C 17.1667,48.5 17.8333,47.5 18.5,46.5C 20.1361,45.2511 21.3028,43.5844 22,41.5C 24.4844,34.6114 25.3177,27.6114 24.5,20.5C 25.2341,19.2921 25.5674,17.9587 25.5,16.5C 25.9118,14.0274 24.9118,12.6941 22.5,12.5C 23.1667,11.5 23.8333,10.5 24.5,9.5C 25.8333,9.5 26.5,8.83333 26.5,7.5C 29.258,5.62089 30.9247,2.95422 31.5,-0.5 Z"/></g>
<g><path style="opacity:1" fill="#666666" d="M 38.5,14.5 C 36.3647,16.369 33.6981,17.0356 30.5,16.5C 30.5,15.5 30.5,14.5 30.5,13.5C 33.1667,13.8333 35.8333,14.1667 38.5,14.5 Z"/></g>
<g><path style="opacity:1" fill="#6c6c6c" d="M 10.5,26.5 C 10.5858,27.4959 10.2524,28.3292 9.5,29C 11.2556,29.2022 12.9223,29.7022 14.5,30.5C 14.3764,31.1067 14.0431,31.44 13.5,31.5C 12.5041,31.4142 11.6708,31.7476 11,32.5C 8.95029,30.1182 7.45029,30.6182 6.5,34C 6.56993,34.7648 6.90326,35.2648 7.5,35.5C 7.44001,36.0431 7.10667,36.3764 6.5,36.5C 5.57131,35.3112 5.23798,33.9778 5.5,32.5C 6.75017,30.0676 8.25017,27.7343 10,25.5C 10.3988,25.7284 10.5654,26.0618 10.5,26.5 Z"/></g>
<g><path style="opacity:1" fill="#888888" d="M 45.5,38.5 C 44.5,38.1667 43.8333,37.5 43.5,36.5C 42.657,34.8267 41.3237,33.66 39.5,33C 40.5,32.1667 41.5,31.3333 42.5,30.5C 43.4728,27.2211 44.9728,24.2211 47,21.5C 46.8629,26.8411 48.0296,31.8411 50.5,36.5C 48.8614,37.3219 47.1947,37.9886 45.5,38.5 Z"/></g>
<g><path style="opacity:1" fill="#9e9e9e" d="M 13.5,31.5 C 13.5,33.1667 13.5,34.8333 13.5,36.5C 11.5,36.1667 9.5,35.8333 7.5,35.5C 6.90326,35.2648 6.56993,34.7648 6.5,34C 7.45029,30.6182 8.95029,30.1182 11,32.5C 11.6708,31.7476 12.5041,31.4142 13.5,31.5 Z"/></g>
<g><path style="opacity:1" fill="#373737" d="M 10.5,26.5 C 12.4605,27.4478 14.4605,27.6145 16.5,27C 17.2489,28.7337 17.7489,30.567 18,32.5C 18.8159,33.8228 19.9826,34.4894 21.5,34.5C 21.1234,38.6731 20.1234,42.6731 18.5,46.5C 17.8333,47.5 17.1667,48.5 16.5,49.5C 15.7784,49.9175 15.2784,50.5842 15,51.5C 13.3489,49.5979 13.0155,47.5979 14,45.5C 11.6936,46.5815 10.1936,45.7482 9.5,43C 10.1536,41.013 11.487,39.6797 13.5,39C 10.1604,38.1762 7.82702,39.3429 6.5,42.5C 4.83956,39.2302 4.50623,35.8969 5.5,32.5C 5.23798,33.9778 5.57131,35.3112 6.5,36.5C 7.10667,36.3764 7.44001,36.0431 7.5,35.5C 9.5,35.8333 11.5,36.1667 13.5,36.5C 13.5,34.8333 13.5,33.1667 13.5,31.5C 14.0431,31.44 14.3764,31.1067 14.5,30.5C 12.9223,29.7022 11.2556,29.2022 9.5,29C 10.2524,28.3292 10.5858,27.4959 10.5,26.5 Z"/></g>
<g><path style="opacity:1" fill="#c4c4c4" d="M 35.5,26.5 C 36.5,26.5 37.5,26.5 38.5,26.5C 35.7731,31.7174 37.4398,35.0507 43.5,36.5C 43.8333,37.5 44.5,38.1667 45.5,38.5C 44.0897,42.7047 43.423,47.038 43.5,51.5C 42.1266,51.3433 40.7932,51.51 39.5,52C 42.5392,55.2792 44.5392,59.1125 45.5,63.5C 41.8333,63.5 38.1667,63.5 34.5,63.5C 32.7037,58.9438 31.2037,54.2772 30,49.5C 28.5604,51.0456 26.7271,51.879 24.5,52C 23.6006,53.6516 22.6006,55.1516 21.5,56.5C 21.3398,54.8008 21.5065,53.1341 22,51.5C 26.5491,47.2763 28.5491,41.943 28,35.5C 28.1786,38.5535 28.6786,41.5535 29.5,44.5C 31.1012,43.8346 32.6012,43.5012 34,43.5C 34.0909,41.2037 33.9243,38.8704 33.5,36.5C 33.9639,33.1132 34.6306,29.7799 35.5,26.5 Z"/></g>
<g><path style="opacity:1" fill="#757575" d="M 16.5,49.5 C 16.762,50.9778 16.4287,52.3112 15.5,53.5C 12.6644,56.5127 10.3311,59.846 8.5,63.5C 7.83333,63.5 7.16667,63.5 6.5,63.5C 9.43701,60.7488 10.6037,57.4154 10,53.5C 8.51299,54.2529 8.34633,55.0862 9.5,56C 5.24311,56.6635 3.57644,59.1635 4.5,63.5C 4.16667,63.5 3.83333,63.5 3.5,63.5C 2.78034,57.8623 2.44701,52.1956 2.5,46.5C 3.30912,48.2922 3.80912,50.2922 4,52.5C 5.65169,51.9322 7.31836,50.5989 9,48.5C 9.66667,47.5 9.66667,46.5 9,45.5C 7.95501,44.6266 7.12167,43.6266 6.5,42.5C 7.82702,39.3429 10.1604,38.1762 13.5,39C 11.487,39.6797 10.1536,41.013 9.5,43C 10.1936,45.7482 11.6936,46.5815 14,45.5C 13.0155,47.5979 13.3489,49.5979 15,51.5C 15.2784,50.5842 15.7784,49.9175 16.5,49.5 Z"/></g>
<g><path style="opacity:1" fill="#c5c5c5" d="M -0.5,39.5 C 0.495904,39.4142 1.32924,39.7476 2,40.5C 2.49546,42.4727 2.66212,44.4727 2.5,46.5C 2.44701,52.1956 2.78034,57.8623 3.5,63.5C 2.16667,63.5 0.833333,63.5 -0.5,63.5C -0.5,55.5 -0.5,47.5 -0.5,39.5 Z"/></g>
<g><path style="opacity:1" fill="#dedede" d="M 63.5,44.5 C 63.5,50.8333 63.5,57.1667 63.5,63.5C 59.1667,63.5 54.8333,63.5 50.5,63.5C 50.6567,62.1266 50.49,60.7932 50,59.5C 49.6667,60.1667 49.3333,60.8333 49,61.5C 48.6296,59.3362 47.7962,57.3362 46.5,55.5C 47.2739,54.2888 48.1072,54.2888 49,55.5C 50.1867,50.0592 51.6867,44.7259 53.5,39.5C 58.4298,37.9649 61.7631,39.6316 63.5,44.5 Z"/></g>
<g><path style="opacity:1" fill="#060606" d="M 34.5,63.5 C 29.5,63.5 24.5,63.5 19.5,63.5C 20.1667,61.1667 20.8333,58.8333 21.5,56.5C 22.6006,55.1516 23.6006,53.6516 24.5,52C 26.7271,51.879 28.5604,51.0456 30,49.5C 31.2037,54.2772 32.7037,58.9438 34.5,63.5 Z"/></g>
<g><path style="opacity:1" fill="#161616" d="M 6.5,63.5 C 5.83333,63.5 5.16667,63.5 4.5,63.5C 3.57644,59.1635 5.24311,56.6635 9.5,56C 8.34633,55.0862 8.51299,54.2529 10,53.5C 10.6037,57.4154 9.43701,60.7488 6.5,63.5 Z"/></g>
</svg>
