<svg width="32" height="32" viewBox="0 0 32 32" fill="none" xmlns="http://www.w3.org/2000/svg">
<path d="M6.014 13.5488L3.30148 16.111C2.89951 16.4623 2.89951 17.0653 3.30148 17.4166C3.6528 17.7679 4.30643 17.7679 4.65774 17.4166L7.42009 14.8552C7.7714 14.4533 7.7714 13.9009 7.42009 13.5496C7.02974 13.1668 6.40435 13.1668 6.014 13.5496V13.5488Z" fill="#E6DAFE"/>
<path d="M28.7365 14.0878C28.3462 13.7049 27.7208 13.7049 27.3304 14.0878L24.6179 16.6492C24.2159 17.0005 24.2159 17.6035 24.6179 17.9548C24.9692 18.3061 25.6229 18.3061 25.9742 17.9548L28.7365 15.3934C29.0878 14.9914 29.0878 14.4391 28.7365 14.0878Z" fill="#E6DAFE"/>
<path d="M16.8068 15.1401C17.168 15.4682 17.7228 15.4557 18.0675 15.1102L18.0816 15.0969C18.452 14.7265 18.4354 14.1219 18.0467 13.7714L17.1124 12.9309C17.1124 12.9309 17.1074 12.9259 17.0966 12.9176L15.2279 11.2358C15.1947 11.205 15.1606 11.1785 15.1249 11.1544C15.066 11.1145 15.0037 11.083 14.9389 11.0589C14.9256 11.0539 14.9131 11.0489 14.8999 11.0447C14.7005 10.98 14.4829 10.9858 14.2861 11.0605C14.2861 11.0605 14.2861 11.0614 14.2853 11.0614C14.2595 11.0713 14.2338 11.083 14.208 11.0954C14.1823 11.1087 14.1574 11.1228 14.1316 11.1386C14.1075 11.1535 14.0843 11.1702 14.061 11.1876C14.0369 11.2067 14.0145 11.2258 13.9921 11.2466L13.2687 11.9243L8.8212 16.0703C8.47736 16.3909 8.38185 16.9241 8.64679 17.3119C8.98398 17.8053 9.66003 17.8609 10.0728 17.4706L14.6299 13.1601L16.8076 15.1401H16.8068Z" fill="#E6DAFE"/>
<path d="M23.3522 14.2174C23.015 13.724 22.3389 13.6684 21.9261 14.0587L17.369 18.3692L15.1914 16.3892C14.8301 16.0612 14.2753 16.0736 13.9306 16.4191L13.9165 16.4324C13.5461 16.8028 13.5627 17.4074 13.9514 17.7579L14.8857 18.5984C14.8857 18.5984 14.8907 18.6034 14.9015 18.6117L16.7702 20.2935C16.8034 20.3243 16.8375 20.3508 16.8732 20.3749C16.9322 20.4148 16.9945 20.4464 17.0592 20.4704C17.0725 20.4754 17.085 20.4804 17.0983 20.4846C17.2976 20.5493 17.5152 20.5435 17.712 20.4688C17.712 20.4688 17.712 20.468 17.7129 20.468C17.7386 20.458 17.7644 20.4464 17.7901 20.4339C17.8158 20.4206 17.8408 20.4065 17.8665 20.3907C17.8906 20.3758 17.9139 20.3592 17.9371 20.3417C17.9612 20.3226 17.9836 20.3035 18.006 20.2827L18.7294 19.605L23.1769 15.459C23.5208 15.1384 23.6163 14.6052 23.3513 14.2174H23.3522Z" fill="#E6DAFE"/>
</svg>
