<svg width="32" height="32" viewBox="0 0 32 32" fill="none" xmlns="http://www.w3.org/2000/svg">
<path d="M25.5479 11.0976C22.9304 8.46761 17.2979 6.32761 14.8704 5.82011C12.6854 5.36261 10.5529 5.14761 8.81288 6.72261C5.91038 9.35511 5.67538 13.4001 5.78538 15.7501C5.92288 18.6401 6.95788 21.9126 7.57288 23.4251C8.63788 26.0426 10.3854 28.1226 12.7704 27.3426C14.4054 26.8076 15.2704 24.3851 15.5979 23.2701C16.2204 21.1201 16.2754 18.7701 15.6154 16.0951C15.3179 14.8951 14.8654 13.6951 14.4879 12.4751C14.2979 11.8676 14.0929 11.2626 13.9204 10.6376C13.829 10.3217 13.7539 10.0012 13.6954 9.67761C13.665 9.50689 13.655 9.33319 13.6654 9.16011C13.6734 8.97121 13.7418 8.78985 13.8604 8.64261C13.8793 8.62379 13.9043 8.61231 13.9309 8.61021C13.9575 8.60811 13.984 8.61554 14.0056 8.63116C14.0272 8.64678 14.0426 8.66958 14.049 8.69549C14.0553 8.7214 14.0523 8.74873 14.0404 8.77261C13.9079 9.00011 13.9879 9.30261 14.0729 9.58761C14.1723 9.88274 14.2874 10.1723 14.4179 10.4551L15.2154 12.2051C15.7029 13.3076 16.1954 14.4076 16.6029 15.5801C17.1679 15.5451 17.7429 15.5026 18.3079 15.4451C18.9879 15.3801 19.662 15.2918 20.3304 15.1801C20.9979 15.0701 23.5804 14.6001 23.5979 13.9726C23.6129 13.5826 22.5129 12.8751 22.2179 12.7051C21.619 12.3695 20.9994 12.0722 20.3629 11.8151C19.7229 11.5651 19.0729 11.3151 18.4179 11.1051C18.0904 11.0001 17.7579 10.9076 17.4179 10.8251C17.0905 10.7367 16.7558 10.6782 16.4179 10.6501C16.402 10.6501 16.3867 10.6438 16.3755 10.6325C16.3642 10.6213 16.3579 10.606 16.3579 10.5901C16.3579 10.5742 16.3642 10.5589 16.3755 10.5477C16.3867 10.5364 16.402 10.5301 16.4179 10.5301V10.5301C17.1102 10.6149 17.7931 10.7639 18.4579 10.9751C19.1254 11.1676 19.7829 11.3876 20.4354 11.6226C21.093 11.8583 21.7381 12.1278 22.3679 12.4301C23.0729 12.7676 24.2304 13.4301 24.1829 14.1801C24.1054 15.3376 21.2054 15.9526 20.5179 16.1151C19.3394 16.3792 18.1453 16.5679 16.9429 16.6801C17.2102 17.6707 17.3595 18.6895 17.3879 19.7151C17.4085 20.3856 17.3548 21.0564 17.2279 21.7151C17.1722 22.0043 17.0962 22.2892 17.0004 22.5676C18.6329 22.0526 23.8154 20.8451 25.1529 20.3351C26.9029 19.6701 27.1929 18.4426 27.4254 17.1676C27.6347 16.0795 27.5729 14.9565 27.2455 13.8979C26.918 12.8393 26.335 11.8775 25.5479 11.0976V11.0976ZM12.9604 25.1326C12.1004 26.1751 11.1354 25.8226 10.8279 25.6326C10.8149 25.6253 10.8036 25.6154 10.7946 25.6036C10.7857 25.5917 10.7793 25.5781 10.7759 25.5636C10.7724 25.5492 10.7721 25.5341 10.7747 25.5195C10.7774 25.5049 10.7831 25.491 10.7914 25.4786C10.7998 25.4663 10.8105 25.4559 10.8231 25.4479C10.8357 25.44 10.8498 25.4348 10.8645 25.4326C10.8792 25.4303 10.8942 25.4312 10.9085 25.4351C10.9229 25.439 10.9363 25.4458 10.9479 25.4551C11.7754 25.9751 12.5304 25.3601 12.8229 24.5226C13.7854 21.7726 13.1604 18.6926 10.5979 15.4251C10.5604 15.3751 10.5304 15.3226 10.5629 15.2701C10.5795 15.2472 10.6038 15.231 10.6313 15.2246C10.6589 15.2182 10.6879 15.2219 10.7129 15.2351C14.0154 16.6901 15.3379 22.2501 12.9604 25.1326Z" fill="#E6DAFE"/>
</svg>
