<svg width="32" height="32" viewBox="0 0 32 32" fill="none" xmlns="http://www.w3.org/2000/svg">
<path fill-rule="evenodd" clip-rule="evenodd" d="M5.7964 7.19458C5.37981 7.67068 5.02274 8.17619 4.66566 8.7118L11.9542 16.0298L4.66566 23.3183C4.99264 23.8539 5.37981 24.3594 5.7964 24.8355L14.6316 16.0298L5.7964 7.19458Z" fill="#E6DAFE"/>
<path fill-rule="evenodd" clip-rule="evenodd" d="M3.71415 10.4671C3.41659 11.0916 3.17854 11.7462 3 12.4303L6.57005 16.0003L3 19.5697C3.17854 20.2538 3.41659 20.9084 3.71415 21.5329L9.24742 15.9997L3.71415 10.4671Z" fill="#E6DAFE"/>
<path fill-rule="evenodd" clip-rule="evenodd" d="M7.16448 26.1742C7.64058 26.5908 8.14609 26.9773 8.6817 27.3049L15.9702 20.0164L23.2588 27.3049C23.7944 26.9479 24.2999 26.5908 24.776 26.1742L16.0003 17.3684L7.16448 26.1742Z" fill="#E6DAFE"/>
<path fill-rule="evenodd" clip-rule="evenodd" d="M10.4671 28.2865C11.0916 28.5841 11.7462 28.8222 12.4303 29.0007L16.0003 25.4306L19.5704 29.0007C20.2544 28.8222 20.9091 28.5841 21.5336 28.2865L16.0003 22.7533L10.4671 28.2865Z" fill="#E6DAFE"/>
<path fill-rule="evenodd" clip-rule="evenodd" d="M24.8355 5.79639C24.3594 5.3798 23.8539 4.99332 23.3183 4.66566L16.0003 11.9542L8.6817 4.66566C8.14609 5.02273 7.64058 5.3798 7.16448 5.79639L15.9996 14.6316L24.8355 5.79639Z" fill="#E6DAFE"/>
<path fill-rule="evenodd" clip-rule="evenodd" d="M29 12.4303C28.8215 11.7462 28.5834 11.0916 28.2859 10.4671L22.7526 16.0003L28.2859 21.5336C28.5834 20.9091 28.8215 20.2544 29 19.5704L25.43 16.0003L29 12.4303Z" fill="#E6DAFE"/>
<path fill-rule="evenodd" clip-rule="evenodd" d="M27.3042 8.7118C26.9472 8.17619 26.5901 7.67068 26.1735 7.19458L17.3678 16.0003L26.2029 24.8355C26.6195 24.3594 27.006 23.8539 27.3337 23.3183L20.0157 16.0003L27.3042 8.7118Z" fill="#E6DAFE"/>
<path fill-rule="evenodd" clip-rule="evenodd" d="M21.5336 3.71415C20.9091 3.41659 20.2544 3.17854 19.5704 3L16.0003 6.57005L12.4303 3C11.7462 3.17854 11.0916 3.41659 10.4671 3.71415L16.0003 9.24742L21.5336 3.71415Z" fill="#E6DAFE"/>
</svg>
