<svg width="32" height="32" viewBox="0 0 32 32" fill="none" xmlns="http://www.w3.org/2000/svg">
<g clip-path="url(#clip0_6_4653)">
<path d="M26.7845 21.9999V10.2719C26.8054 10.2117 26.8065 10.1447 26.7845 10.0818V10.0001L16.392 4L6 10.0001V21.9999L16.392 28L16.4897 27.9435C16.5344 27.9304 16.5746 27.9068 16.6073 27.8755L26.7842 21.9996L26.7845 21.9999ZM21.9348 19.053V13.1484L26.2072 10.6856V21.5677L21.9348 19.053ZM16.3885 9.86758L21.4118 12.7837L16.3923 15.6771L11.3636 12.769L16.3888 9.86758H16.3885ZM16.1199 16.1864V21.9364L11.0897 19.0495L11.0833 13.2737L16.1199 16.1864ZM16.697 16.1674L21.6871 13.2909V19.0631L16.697 21.9144V16.1674ZM21.6589 12.6412L16.4785 9.63381L16.4726 4.7131L25.9351 10.1763L21.6589 12.6412ZM16.3135 9.62524L11.1162 12.626L6.86466 10.1672L16.3079 4.71497L16.3138 9.62524H16.3135ZM10.8358 13.1305L10.8425 19.0813L6.57706 21.592V10.6677L10.8361 13.1305H10.8358ZM10.9113 19.2321L16.1199 22.2213V27.1766L6.67721 21.7246L10.9116 19.2321H10.9113ZM16.697 22.1994L21.8724 19.2423C21.8817 19.2369 21.8906 19.2302 21.8981 19.2227L26.1279 21.7125L16.697 27.1576V22.1994Z" fill="#E6DAFE"/>
</g>
<defs>
<clipPath id="clip0_6_4653">
<rect width="20.8006" height="24" fill="white" transform="translate(6 4)"/>
</clipPath>
</defs>
</svg>
