<?xml version="1.0" encoding="UTF-8"?>
<!DOCTYPE svg PUBLIC "-//W3C//DTD SVG 1.1//EN" "http://www.w3.org/Graphics/SVG/1.1/DTD/svg11.dtd">
<svg xmlns="http://www.w3.org/2000/svg" version="1.1" width="64px" height="64px" style="shape-rendering:geometricPrecision; text-rendering:geometricPrecision; image-rendering:optimizeQuality; fill-rule:evenodd; clip-rule:evenodd" xmlns:xlink="http://www.w3.org/1999/xlink">
<g><path style="opacity:1" fill="#1b1b1a" d="M -0.5,-0.5 C 20.8333,-0.5 42.1667,-0.5 63.5,-0.5C 63.5,20.8333 63.5,42.1667 63.5,63.5C 42.1667,63.5 20.8333,63.5 -0.5,63.5C -0.5,42.1667 -0.5,20.8333 -0.5,-0.5 Z"/></g>
<g><path style="opacity:1" fill="#a0ae66" d="M 32.5,15.5 C 32.8333,15.5 33.1667,15.5 33.5,15.5C 33.5,16.1667 33.5,16.8333 33.5,17.5C 34.6772,19.1026 34.5106,20.436 33,21.5C 31.2041,19.5983 31.0374,17.5983 32.5,15.5 Z"/></g>
<g><path style="opacity:1" fill="#bb6d84" d="M 34.5,14.5 C 35.4959,14.4142 36.3292,14.7476 37,15.5C 37.4017,16.8721 37.9017,18.2054 38.5,19.5C 38.1022,24.1024 37.4355,28.7691 36.5,33.5C 36.5562,28.6241 36.2229,23.6241 35.5,18.5C 34.8165,18.1373 34.1499,17.8039 33.5,17.5C 33.5,16.8333 33.5,16.1667 33.5,15.5C 34.1667,15.5 34.5,15.1667 34.5,14.5 Z"/></g>
<g><path style="opacity:1" fill="#576d9a" d="M 32.5,15.5 C 31.0374,17.5983 31.2041,19.5983 33,21.5C 34.5106,20.436 34.6772,19.1026 33.5,17.5C 34.1499,17.8039 34.8165,18.1373 35.5,18.5C 36.2229,23.6241 36.5562,28.6241 36.5,33.5C 36.5858,34.4959 36.2524,35.3292 35.5,36C 36.9227,38.5313 38.9227,40.3647 41.5,41.5C 39.4727,41.3379 37.4727,41.5045 35.5,42C 34.944,42.3826 34.6107,42.8826 34.5,43.5C 33.1667,43.5 31.8333,43.5 30.5,43.5C 30.1043,40.9556 30.771,38.7889 32.5,37C 31.7476,36.3292 31.4142,35.4959 31.5,34.5C 31.3433,33.1266 31.51,31.7932 32,30.5C 32.8893,31.8882 33.3893,31.7215 33.5,30C 33.0946,29.0546 32.428,28.3879 31.5,28C 32.2853,25.5571 32.1186,23.0571 31,20.5C 30.5724,25.498 29.7391,25.6647 28.5,21C 29.8802,19.6764 30.2135,18.3431 29.5,17C 30.5266,16.4867 31.5266,15.9867 32.5,15.5 Z"/></g>
<g><path style="opacity:1" fill="#49396b" d="M 24.5,14.5 C 27.0209,18.4099 27.0209,22.4099 24.5,26.5C 24.737,29.0635 25.237,29.0635 26,26.5C 28.0229,28.7693 28.8563,31.4359 28.5,34.5C 29.5,34.5 30.5,34.5 31.5,34.5C 31.4142,35.4959 31.7476,36.3292 32.5,37C 30.771,38.7889 30.1043,40.9556 30.5,43.5C 30.1667,43.5 29.8333,43.5 29.5,43.5C 29.3893,42.8826 29.056,42.3826 28.5,42C 25.1832,41.5017 21.8499,41.335 18.5,41.5C 21.0274,40.733 23.0274,39.233 24.5,37C 23.4242,34.1106 22.4242,31.2773 21.5,28.5C 21.7423,24.92 21.909,21.2533 22,17.5C 22.3768,16.0577 23.2101,15.0577 24.5,14.5 Z"/></g>
<g><path style="opacity:1" fill="#54458e" d="M 34.5,14.5 C 34.5,15.1667 34.1667,15.5 33.5,15.5C 33.1667,15.5 32.8333,15.5 32.5,15.5C 31.5266,15.9867 30.5266,16.4867 29.5,17C 30.2135,18.3431 29.8802,19.6764 28.5,21C 29.7391,25.6647 30.5724,25.498 31,20.5C 32.1186,23.0571 32.2853,25.5571 31.5,28C 32.428,28.3879 33.0946,29.0546 33.5,30C 33.3893,31.7215 32.8893,31.8882 32,30.5C 31.51,31.7932 31.3433,33.1266 31.5,34.5C 30.5,34.5 29.5,34.5 28.5,34.5C 28.8563,31.4359 28.0229,28.7693 26,26.5C 25.237,29.0635 24.737,29.0635 24.5,26.5C 27.0209,22.4099 27.0209,18.4099 24.5,14.5C 26.7537,13.6853 29.0871,13.0187 31.5,12.5C 33.0377,12.4534 34.0377,13.1201 34.5,14.5 Z"/></g>
<g><path style="opacity:1" fill="#9ab74e" d="M 18.5,41.5 C 21.8499,41.335 25.1832,41.5017 28.5,42C 29.056,42.3826 29.3893,42.8826 29.5,43.5C 24.8333,43.5 20.1667,43.5 15.5,43.5C 15.9731,42.0937 16.9731,41.427 18.5,41.5 Z"/></g>
<g><path style="opacity:1" fill="#9db84e" d="M 41.5,41.5 C 43.4832,41.1568 44.8166,41.8235 45.5,43.5C 41.8333,43.5 38.1667,43.5 34.5,43.5C 34.6107,42.8826 34.944,42.3826 35.5,42C 37.4727,41.5045 39.4727,41.3379 41.5,41.5 Z"/></g>
<g><path style="opacity:1" fill="#a04b8c" d="M 15.5,43.5 C 20.1667,43.5 24.8333,43.5 29.5,43.5C 29.8333,43.5 30.1667,43.5 30.5,43.5C 31.8333,43.5 33.1667,43.5 34.5,43.5C 38.1667,43.5 41.8333,43.5 45.5,43.5C 48.0726,45.1317 48.7392,47.2984 47.5,50C 36.5,50.6667 25.5,50.6667 14.5,50C 12.9797,47.4485 13.3131,45.2818 15.5,43.5 Z"/></g>
</svg>
