<svg width="32" height="32" viewBox="0 0 32 32" fill="none" xmlns="http://www.w3.org/2000/svg">
<path d="M24.7685 7.23616C20.7809 3.00217 14.2274 2.91092 10.131 7.03241C6.03457 11.1539 5.94631 17.9274 9.93394 22.1614L12.5555 19.5239C9.9838 16.7768 10.0458 12.3949 12.6978 9.72678C15.3497 7.05856 19.5893 7.11249 22.177 9.84354L24.7685 7.23616Z" fill="#E6DAFE"/>
<path d="M7.35407 24.7639C11.3417 28.9979 17.895 29.0891 21.9915 24.9676C26.0879 20.8461 26.1762 14.0726 22.1886 9.83863L19.5673 12.4759C22.139 15.2231 22.077 19.6049 19.4251 22.2731C16.7731 24.9413 12.5335 24.8874 9.94578 22.1564L7.35407 24.7639Z" fill="#E6DAFE"/>
</svg>
