<svg width="32" height="32" viewBox="0 0 32 32" fill="none" xmlns="http://www.w3.org/2000/svg">
<path d="M21.367 15.5267L21.3425 15.3377C22.0972 15.0228 22.1667 13.6184 21.6347 13.0601C21.5448 12.9635 21.5808 12.8328 21.6209 12.6956C21.5203 12.8815 21.4947 13.0417 21.8288 13.6623C22.1389 14.462 21.3561 15.516 21.0003 15.0785C20.9298 15.1904 21.0817 15.5888 21.1318 15.7129L17.1894 18.8296C16.247 18.9251 15.0982 17.217 14.8512 16.5205C14.7322 15.479 11.826 13.9297 14.2341 13.9192C14.0674 13.9279 14.0104 13.7915 14.0104 13.7915C15.0662 13.6935 15.7237 12.7416 15.2317 12.5837C15.4207 12.5487 15.6659 12.7993 15.6659 12.7993C15.7936 12.2813 15.6404 11.7223 15.3944 11.5637C15.148 11.4045 14.9792 11.6765 14.7891 11.6252C14.0125 11.5041 13.5744 12.1697 13.1022 12.373C13.5489 11.7082 13.0396 10.4828 13.0396 10.0049C13.0396 9.52707 13.5277 9.41316 14.037 8.82063C14.5457 8.22886 15.2624 8.45719 15.2624 8.45719C15.6317 8.12261 16.447 7.57145 17.5965 8.13385C18.5581 8.64006 19.0227 8.87758 19.1777 9.35314C19.3327 9.82845 19.5396 9.87008 19.5396 9.87008C19.6285 10.798 19.8862 10.9704 20.2734 11.8747C20.3661 12.2573 20.4489 13.9415 20.4386 14.014L20.7385 14.1376C20.7385 14.1376 20.5454 12.4954 20.8731 12.325C21.2005 12.1547 21.4968 12.1705 21.6217 12.6936C21.7333 12.2816 21.6324 11.8599 21.4646 11.2689C21.2971 10.0754 21.6554 9.64839 20.6652 8.73456C20.5119 8.51517 19.9493 8.20843 19.7156 8.17906C18.8429 6.96411 17.0507 4.56358 15.2016 6.28754C15.041 6.30236 14.676 6.14171 14.2668 6.55086C13.8577 6.95951 13.3722 6.60935 12.7079 7.38348C12.043 8.1576 11.6633 8.87324 11.8604 8.82242C12.0576 8.77108 12.3209 8.61758 12.1746 8.88039C12.0282 9.14371 11.4117 10.9085 11.4441 11.3953C11.6587 12.3268 11.8663 13.5121 12.3631 14.2275C12.5362 14.3897 12.6877 14.476 12.666 14.7245C12.644 14.9735 12.703 16.0222 13.1377 16.5192C13.5729 17.0162 13.8352 17.1194 13.8904 17.2369C14.1782 17.8721 14.8578 18.5658 15.4366 19.1353C15.4366 19.1353 15.7576 19.9605 15.4373 20.2157L9.17283 25.1684C9.56002 25.4576 9.96458 25.7209 10.3852 25.9584L25.3388 14.0252L27.4147 16.592C27.4247 16.3959 27.4298 16.1987 27.4298 16.0008C27.4298 15.553 27.4042 15.1094 27.3534 14.6706L25.4427 12.3059L21.3675 15.5278L21.367 15.5267ZM15.1855 12.8207C15.1342 12.9387 14.9196 13.0169 14.9196 13.0169C14.9896 12.8877 14.9365 12.7076 14.8119 12.6376C14.9227 12.6315 15.2363 12.7028 15.1855 12.821V12.8207ZM14.6819 12.6941C14.8134 12.6923 14.8139 12.8997 14.6819 12.8979C14.5491 12.8997 14.5496 12.692 14.6819 12.6941ZM14.5797 13.1643C13.5839 13.7024 14.1614 12.7939 14.4323 12.7058C14.3039 12.857 14.3887 13.1168 14.5797 13.1643ZM14.5125 12.6016C14.4663 12.547 13.9734 12.7574 14.0089 12.6621C13.98 12.5115 14.6709 12.2826 14.5125 12.6016ZM13.4181 12.7063C13.5078 12.6223 13.9338 12.2818 13.9685 12.4841C13.8306 12.5441 13.6385 12.9839 13.448 12.8846C13.3888 12.8437 13.3566 12.7607 13.4181 12.7063Z" fill="#E6DAFE"/>
<path d="M27.9781 10.9397C27.3233 9.39171 26.3862 8.0013 25.1925 6.8078C23.9987 5.61405 22.6085 4.67697 21.0606 4.02212C19.4574 3.34377 17.7546 3 16 3C14.2454 3 12.5426 3.34377 10.9397 4.02187C9.39171 4.67672 8.0013 5.61405 6.8078 6.80754C5.61405 8.0013 4.67697 9.39145 4.02212 10.9394C3.34377 12.5426 3 14.2454 3 16C3 17.7546 3.34377 19.4574 4.02187 21.0603C4.67672 22.6083 5.61405 23.9987 6.80754 25.1922C6.84841 25.2331 6.88953 25.2737 6.9309 25.314C6.94291 25.3258 6.95517 25.3375 6.96717 25.349C6.99705 25.3779 7.02719 25.407 7.05733 25.4356C7.07035 25.4481 7.08363 25.4604 7.09666 25.4729C7.12705 25.5015 7.15745 25.5298 7.18809 25.5582C7.19984 25.5692 7.21185 25.5799 7.2236 25.5909C7.25782 25.6223 7.29204 25.6532 7.32652 25.6844C7.3347 25.6915 7.34261 25.6989 7.35079 25.7061C7.53085 25.8667 7.71448 26.022 7.9022 26.1717C7.94817 26.2084 7.99466 26.245 8.04114 26.281C8.04267 26.2823 8.0442 26.2835 8.04599 26.2848C8.09248 26.3208 8.13921 26.3566 8.18646 26.3921C8.47354 26.6084 8.76929 26.8125 9.07297 27.004C9.29287 27.1427 9.51711 27.2748 9.74544 27.3999C9.74953 27.4022 9.75336 27.4042 9.75745 27.4065C9.831 27.4469 9.90481 27.4862 9.97914 27.5253C9.98373 27.5276 9.98807 27.5299 9.99267 27.5322C10.1393 27.6086 10.2874 27.6821 10.4371 27.7531C10.4481 27.7582 10.459 27.7636 10.47 27.7687C10.5403 27.8017 10.6107 27.8341 10.6817 27.866C10.694 27.8716 10.7063 27.877 10.7185 27.8824C10.7916 27.9148 10.8649 27.947 10.9387 27.9781C12.5418 28.6562 14.2444 29 15.999 29C17.7536 29 19.4564 28.6562 21.0593 27.9781C22.6073 27.3233 23.9977 26.3862 25.1912 25.1925C26.3849 23.9987 27.3223 22.6085 27.9769 21.0606C27.9993 21.0074 28.0213 20.954 28.0433 20.9007C28.0502 20.8838 28.0568 20.867 28.0634 20.8504C28.0783 20.8136 28.0931 20.7768 28.1074 20.74C28.1153 20.7201 28.1227 20.7002 28.1306 20.6803C28.1436 20.6463 28.1569 20.6123 28.1697 20.5781C28.1773 20.5574 28.185 20.5367 28.1927 20.516C28.2052 20.4821 28.2177 20.4481 28.23 20.4141C28.2374 20.3937 28.2445 20.3735 28.2519 20.3531C28.2644 20.3184 28.2764 20.2834 28.2887 20.2484C28.2953 20.229 28.302 20.2095 28.3086 20.1901C28.3211 20.1531 28.3337 20.1161 28.3459 20.079C28.3515 20.0617 28.3574 20.0443 28.363 20.0269C28.3766 19.9856 28.3898 19.9439 28.4029 19.9026C28.407 19.8898 28.411 19.8768 28.4151 19.864C28.4315 19.8114 28.4476 19.7588 28.4631 19.7061C28.4637 19.7041 28.4644 19.7021 28.4649 19.7C28.5155 19.5294 28.5625 19.358 28.6059 19.1856C28.6074 19.179 28.6092 19.1726 28.6108 19.166C28.6233 19.1159 28.6355 19.0659 28.6475 19.0155C28.6496 19.0066 28.6516 18.9977 28.6539 18.9887C28.6652 18.9405 28.6764 18.8922 28.6871 18.8437C28.6892 18.8342 28.6915 18.8245 28.6935 18.815C28.7042 18.7665 28.7147 18.7177 28.7249 18.669C28.7267 18.6605 28.7285 18.6521 28.7303 18.6434C28.7408 18.5921 28.7512 18.541 28.7612 18.4894C28.7622 18.4838 28.7635 18.4779 28.7645 18.4723C28.7755 18.4153 28.7862 18.3584 28.7962 18.3012C28.8197 18.1699 28.8411 18.0379 28.8605 17.9058C28.8613 17.9012 28.8618 17.8966 28.8626 17.892C28.8713 17.8323 28.8797 17.7722 28.8874 17.7122C28.8884 17.7048 28.8894 17.6974 28.8902 17.69C28.9155 17.4939 28.9367 17.2969 28.953 17.0993C28.9535 17.0936 28.9538 17.0883 28.9543 17.0827C28.9591 17.0229 28.9637 16.9631 28.9678 16.9034C28.9683 16.8952 28.9688 16.8873 28.9694 16.8791C28.9737 16.815 28.9775 16.7506 28.9808 16.6863C28.9867 16.5741 28.9911 16.4615 28.9939 16.3489C28.9939 16.3468 28.9939 16.345 28.9939 16.343C28.9951 16.2919 28.9962 16.2408 28.9969 16.1898C28.9969 16.1831 28.9972 16.1767 28.9972 16.1701C28.998 16.1134 28.9982 16.0567 28.9982 15.9997C28.9982 14.2451 28.6544 12.5424 27.9763 10.9394L27.9781 10.9397ZM27.0722 20.6777C26.4669 22.1087 25.6006 23.3937 24.497 24.4973C23.3934 25.6008 22.1085 26.4672 20.6774 27.0725C19.1959 27.6992 17.6221 28.017 16 28.017C14.3779 28.017 12.8041 27.6992 11.3226 27.0725C9.89153 26.4672 8.6066 25.6008 7.50301 24.4973C6.39941 23.3937 5.53308 22.1087 4.92778 20.6777C4.30102 19.1961 3.9833 17.6223 3.9833 16.0003C3.9833 14.3782 4.30102 12.8044 4.92778 11.3228C5.53308 9.89179 6.39941 8.60686 7.50301 7.50326C8.6066 6.39967 9.89153 5.53334 11.3226 4.92804C12.8041 4.30128 14.3779 3.98356 16 3.98356C17.6221 3.98356 19.1959 4.30128 20.6774 4.92804C22.1085 5.53334 23.3934 6.39967 24.497 7.50326C25.6006 8.60686 26.4669 9.89179 27.0722 11.3228C27.699 12.8044 28.0167 14.3782 28.0167 16.0003C28.0167 17.6223 27.699 19.1961 27.0722 20.6777Z" fill="#E6DAFE"/>
<path d="M18.1898 16.9256C19.594 15.8044 17.558 15.7745 17.0829 15.8723C16.9552 15.9469 16.9074 16.1121 16.6354 16.0536C16.3629 15.9951 15.5722 16.7718 15.5722 16.7718C15.5193 16.3463 16.2692 15.7714 16.4659 15.7127C17.0814 15.7706 17.1041 15.2729 16.8009 14.867C16.7108 14.6816 17.1856 14.7077 17.2903 14.7074C17.9684 14.5736 17.6162 13.883 17.2903 13.6914C17.8026 14.7805 17.1976 14.0967 16.8436 14.3401C16.4306 15.3319 16.5976 14.369 15.9124 14.7179C15.8062 14.8027 15.8539 15.0634 15.6465 14.8349C15.4389 14.6063 15.7586 14.228 15.8807 14.0423C15.9977 13.8648 15.8386 12.8361 15.8233 12.7406C15.8266 13.3152 14.9516 14.3051 15.4711 14.8027C14.982 15.468 15.3114 17.0423 15.3114 17.0423C15.3528 17.0142 15.9977 17.395 16.0562 17.3082C16.9616 18.4833 17.2451 17.6341 17.9817 17.4997C17.6788 17.2287 17.7373 17.207 18.1896 16.9253L18.1898 16.9256ZM17.027 17.2535C16.3961 17.2967 15.9921 17.1299 16.1167 16.9154C16.4993 16.8513 17.8616 16.3908 18.3088 16.2278C18.3576 16.4894 17.7814 17.1547 17.027 17.2535Z" fill="#E6DAFE"/>
<path d="M21.1543 13.6462C21.3062 13.6904 21.45 13.6631 21.5716 13.8551C21.542 13.4679 21.1972 13.4534 20.9809 13.3259C20.8659 13.3747 20.9798 14.0222 20.9147 14.2099C21.3601 14.1442 20.8973 13.6385 21.1545 13.6462H21.1543Z" fill="#E6DAFE"/>
<path d="M21.4176 12.7791C21.5233 12.1388 20.7691 12.5319 20.8762 13.1878C20.8762 13.1878 21.141 12.6851 21.4176 12.7791Z" fill="#E6DAFE"/>
<path d="M18.4273 10.9558C18.6988 11.1118 19.0301 11.3371 19.0301 11.3371C18.529 9.89153 16.9761 11.2771 16.1085 11.3417C16.6658 11.8489 16.4738 11.2939 16.4125 12.1148C17.0385 11.7759 16.8073 12.7265 17.5577 12.6938C17.5577 12.6938 17.3097 12.5886 17.2543 12.4828C17.2543 12.4828 18.2851 12.5916 18.6115 11.9156C18.424 11.45 17.3769 11.5677 17.1345 11.8847C17.2591 10.9627 18.5152 11.3545 18.7402 11.8155C18.7402 11.8155 18.9841 11.2173 17.8151 11.1811C17.8151 11.1811 18.1561 10.7992 18.4271 10.9558H18.4273ZM18.4503 11.9286C18.3878 12.0428 18.2647 12.1322 18.1173 12.1953C18.15 12.1452 18.1689 12.0857 18.1689 12.0216C18.1689 11.9478 18.1436 11.8804 18.1017 11.8262C18.1009 11.8239 18.1004 11.8216 18.0997 11.8191C18.3122 11.8415 18.4503 11.9284 18.4503 11.9284V11.9286ZM17.8402 11.8175C17.8943 11.8175 17.9385 11.8615 17.9385 11.9159C17.9385 11.9703 17.8946 12.0142 17.8402 12.0142C17.7858 12.0142 17.7418 11.9703 17.7418 11.9159C17.7418 11.8615 17.7858 11.8175 17.8402 11.8175ZM17.6118 11.8111C17.5623 11.8673 17.5319 11.9409 17.5319 12.0216C17.5319 12.1409 17.5975 12.2446 17.6946 12.2992C17.4456 12.3219 17.2144 12.279 17.1319 12.1631C17.2384 11.9383 17.5794 11.8216 17.6118 11.8109V11.8111Z" fill="#E6DAFE"/>
<path d="M24.0817 7.91829C23.032 6.86859 21.8096 6.0444 20.4486 5.46872C19.0398 4.87287 17.5429 4.57073 16 4.57073C14.4571 4.57073 12.9602 4.87287 11.5514 5.46872C10.1904 6.0444 8.968 6.86859 7.91829 7.91829C6.86859 8.968 6.0444 10.1904 5.46872 11.5514C4.87287 12.9602 4.57073 14.4571 4.57073 16C4.57073 17.5429 4.87287 19.0398 5.46872 20.4486C6.0444 21.8096 6.86859 23.032 7.91829 24.0817C8.14509 24.3085 8.3798 24.5246 8.62218 24.7299C9.04385 24.3966 9.46527 24.0633 9.88694 23.73C11.1719 22.714 12.4568 21.698 13.742 20.6823C14.0799 20.4149 14.418 20.1477 14.7559 19.8806C14.7996 19.8459 14.8425 19.8083 14.8872 19.7738C14.8872 19.7649 14.887 19.7557 14.8872 19.7473V19.7383C14.8818 19.7107 14.8767 19.6832 14.8709 19.6556C14.8599 19.606 14.8469 19.5567 14.8331 19.508C14.4009 19.0781 13.9826 18.6352 13.6258 18.1393C13.5448 18.0269 13.4679 17.9112 13.4 17.7906C13.3717 17.7403 13.3418 17.6892 13.3185 17.6361C13.316 17.6318 13.3134 17.6269 13.3109 17.6221C13.2179 17.5429 13.0258 17.3871 13.0092 17.3723C12.6203 17.0239 12.3378 16.6331 12.1725 16.1361C12.0453 15.7538 11.9869 15.3329 11.9738 14.9314C11.9728 14.8997 11.9639 14.8479 11.9646 14.8039C11.7989 14.6579 11.6801 14.4548 11.581 14.2615C11.3427 13.7966 11.1841 13.2932 11.0562 12.7883C10.9941 12.5429 10.9389 12.2959 10.884 12.0487C10.8329 11.8175 10.7515 11.5726 10.7533 11.3348C10.7558 10.9979 10.8536 10.6468 10.9428 10.3237C11.0408 9.96841 11.1548 9.61672 11.2791 9.26963C11.2814 9.2635 11.2835 9.25737 11.2858 9.25124C11.1075 9.03159 11.083 8.72128 11.1851 8.44723C11.2876 8.17242 11.4421 7.92263 11.6089 7.68306C11.8328 7.361 12.0734 7.02515 12.3551 6.7511C12.6146 6.49851 12.9191 6.31028 13.2644 6.20147C13.3594 6.17185 13.457 6.15295 13.5543 6.13149C13.603 6.12051 13.6521 6.1057 13.7014 6.09676C13.719 6.09242 13.7361 6.0868 13.7535 6.08118C13.7601 6.0776 13.7665 6.07377 13.7729 6.06969C13.8222 6.02652 13.8705 5.98285 13.9215 5.94122C14.0911 5.8033 14.2788 5.68914 14.4931 5.63295C14.6556 5.59004 14.8047 5.59183 14.9572 5.59566C15.4059 5.24908 15.9185 5.01717 16.5024 4.99674C17.0617 4.97707 17.6236 5.18369 18.0897 5.48124C18.9182 6.01018 19.5465 6.78379 20.1222 7.57069C20.5395 7.70784 20.9229 8.00896 21.2179 8.30855C21.5872 8.68348 21.9223 9.10847 22.0252 9.63843C22.1149 10.0999 22.0817 10.5694 22.1263 11.0352C22.1519 11.2983 22.2689 11.5782 22.3125 11.865C22.3613 12.1845 22.3682 12.4854 22.3036 12.7998C22.3314 12.8396 22.3583 12.8787 22.3823 12.9216C22.4645 13.0685 22.5314 13.234 22.5771 13.3959C22.6006 13.4792 22.6193 13.5652 22.6338 13.6521C23.4074 13.0406 24.1811 12.429 24.9547 11.8173C25.2208 11.6071 25.6772 11.5047 25.9298 11.8173C26.1303 12.0653 26.3305 12.3133 26.531 12.5613C26.721 12.7962 26.9111 13.0315 27.1008 13.2667C26.9575 12.6828 26.7675 12.1102 26.531 11.5514C25.9553 10.1904 25.1312 8.968 24.0815 7.91829H24.0817Z" fill="#E6DAFE"/>
</svg>
