<svg width="32" height="32" viewBox="0 0 32 32" fill="none" xmlns="http://www.w3.org/2000/svg">
<path d="M18.7502 12.4448V9.31732H25.8652V4.38232H6.11516V9.31732H13.2502V12.4448C7.27266 12.7323 2.78516 13.9323 2.78516 15.3698C2.78516 16.8073 7.26766 17.9998 13.2502 18.2948V28.6173H18.7502V18.2948C24.7277 18.0098 29.2152 16.8098 29.2152 15.3698C29.2152 13.9298 24.7327 12.7323 18.7502 12.4448ZM16.0002 17.3598C9.52766 17.3598 4.28016 16.3598 4.28016 15.1548C4.28016 14.1173 8.10266 13.2473 13.2452 13.0148V16.5473C14.1302 16.5873 15.0502 16.6098 15.9952 16.6098C16.9402 16.6098 17.8652 16.5873 18.7452 16.5473V13.0148C23.8877 13.2473 27.7102 14.1173 27.7102 15.1548C27.7202 16.3723 22.4727 17.3598 16.0002 17.3598Z" fill="#E6DAFE"/>
</svg>
