<svg width="32" height="32" viewBox="0 0 32 32" fill="none" xmlns="http://www.w3.org/2000/svg">
<path d="M26.6173 18.7324C26.243 18.363 25.7383 18.1558 25.2123 18.1558C24.6864 18.1558 24.1816 18.363 23.8073 18.7324L19.5273 23.0124L12.5273 16.0124L19.5273 9.01244L23.8023 13.3024C24.174 13.6764 24.6789 13.8874 25.2062 13.889C25.7334 13.8907 26.2396 13.6828 26.6136 13.3112C26.9875 12.9396 27.1986 12.4346 27.2002 11.9074C27.2018 11.3802 26.994 10.8739 26.6223 10.4999L20.9373 4.77744C20.5642 4.40338 20.0582 4.19217 19.5298 4.18994C19.0031 4.1915 18.4982 4.40082 18.1248 4.77244L9.74984 13.1349V8.13494C9.73158 7.62035 9.51432 7.13293 9.14383 6.77534C8.77333 6.41776 8.27851 6.21792 7.76359 6.21792C7.24868 6.21792 6.75386 6.41776 6.38336 6.77534C6.01286 7.13293 5.7956 7.62035 5.77734 8.13494V23.8674C5.7956 24.382 6.01286 24.8695 6.38336 25.227C6.75386 25.5846 7.24868 25.7845 7.76359 25.7845C8.27851 25.7845 8.77333 25.5846 9.14383 25.227C9.51432 24.8695 9.73158 24.382 9.74984 23.8674V18.8674L18.1123 27.2299C18.2967 27.4147 18.5157 27.5612 18.7568 27.6613C18.9979 27.7613 19.2563 27.8127 19.5173 27.8127C19.7783 27.8127 20.0368 27.7613 20.2779 27.6613C20.519 27.5612 20.738 27.4147 20.9223 27.2299L26.6073 21.5449C26.9789 21.1719 27.1883 20.6673 27.1902 20.1407C27.1921 19.6142 26.9862 19.1082 26.6173 18.7324Z" fill="#E6DAFE"/>
<path d="M19.5822 17.9875C20.6799 17.9875 21.5697 17.0976 21.5697 16C21.5697 14.9023 20.6799 14.0125 19.5822 14.0125C18.4846 14.0125 17.5947 14.9023 17.5947 16C17.5947 17.0976 18.4846 17.9875 19.5822 17.9875Z" fill="#E6DAFE"/>
</svg>
