<svg width="32" height="32" viewBox="0 0 32 32" fill="none" xmlns="http://www.w3.org/2000/svg">
<path d="M25.7015 13.0071V21.3758L16.3932 26.7489L7.07982 21.3758V10.6243L16.3932 5.24594L23.5471 9.37833L24.6269 8.75536L16.3932 4L6 10.0013V21.9987L16.3932 28L26.7865 21.9987V12.3842L25.7015 13.0071Z" fill="#E6DAFE"/>
<path d="M13.7869 21.381H12.2295V16.1584H17.421C17.9121 16.1529 18.3814 15.9543 18.7272 15.6055C19.0731 15.2568 19.2678 14.7859 19.2691 14.2946C19.2719 14.0518 19.225 13.8108 19.1313 13.5868C19.0375 13.3626 18.8989 13.1602 18.7239 12.9916C18.5547 12.8176 18.352 12.6797 18.1281 12.586C17.9042 12.4923 17.6636 12.4448 17.421 12.4465H12.2295V10.8579H17.4261C18.3359 10.8634 19.2069 11.2272 19.8503 11.8705C20.4935 12.5139 20.8574 13.3849 20.8628 14.2946C20.8684 14.9911 20.6561 15.6717 20.2555 16.2414C19.8868 16.7865 19.3672 17.2122 18.7603 17.4666C18.1594 17.6572 17.5322 17.7518 16.9018 17.747H13.7869V21.381Z" fill="#E6DAFE"/>
<path d="M20.8271 21.2513H19.01L17.6084 18.8061C18.1629 18.7722 18.7099 18.6603 19.2333 18.4739L20.8271 21.2513Z" fill="#E6DAFE"/>
<path d="M24.6162 11.268L25.6908 11.8651L26.7655 11.268V10.0065L25.6908 9.38354L24.6162 10.0065V11.268Z" fill="#E6DAFE"/>
</svg>
