<svg width="32" height="32" viewBox="0 0 32 32" fill="none" xmlns="http://www.w3.org/2000/svg">
<path d="M9.39424 14.1395H9.40594L9.60486 14.2097L9.79208 14.2799L9.991 14.3384L10.1782 14.4203L10.3771 14.4905L10.5644 14.5608L10.7633 14.631L11.3249 14.8416L11.5239 14.9118L11.7111 14.9937L11.91 15.0522L12.0972 15.1224L12.2961 15.1926L12.4833 15.2745L12.6823 15.3447L12.8695 15.4032L13.0567 15.4734L13.2556 15.5554L13.4545 15.6256V12.8875H9.13681L8.94959 12.9811L8.50495 13.2151L8.0486 13.4608L7.59226 13.6832L7.15932 13.9172L6.70297 14.1629L6.24662 14.3852L5.80198 14.631L5.34563 14.865L4.90099 15.0873L4.45635 15.333L4.0468 15.5437L4 22.2484L4.45635 22.5644L4.90099 22.8803L5.34563 23.1845L5.80198 23.5122L6.24662 23.8281L6.70297 24.144L6.90189 24.2961L7.15932 23.9685L7.59226 23.3834L7.63906 23.3249L7.59226 23.2898L7.15932 22.9739L6.24662 22.342L5.80198 22.0261L5.34563 21.6985L5.22862 21.6283L5.26373 16.1989L5.34563 16.1521L5.80198 15.9298L6.24662 15.7075L7.15932 15.2628L7.59226 15.0288L8.0486 14.8065L8.50495 14.5959L8.94959 14.3618L9.39424 14.1395Z" fill="#E6DAFE"/>
<path d="M17.1404 26.9289L16.766 27.081L16.3447 27.2565L15.9235 27.4203L15.5023 27.5959L15.315 27.6661L15.0927 27.5608L14.6715 27.3384L14.2502 27.1395L13.8407 26.9172L13.4195 26.7066L12.9982 26.5077L12.577 26.2853L11.3132 25.6535L10.892 25.4311L10.0261 24.9982V19.5221H8.80919V25.7471L9.23043 25.946L9.65168 26.1566L10.0729 26.3789L10.4942 26.5779L10.892 26.8002L13.4195 28.0639L13.8407 28.2862L14.2502 28.4851L14.6715 28.7075L15.0927 28.9064L15.2565 29L15.5023 28.883L15.9235 28.7309L16.766 28.3798L17.1755 28.216L17.5968 28.0522L17.1755 26.9991L17.1404 26.9289Z" fill="#E6DAFE"/>
<path d="M24.6175 19.3231L24.6409 21.8974L24.5356 21.991L23.8218 22.4824L22.3942 23.5121L20.9667 24.5184L20.2646 25.0333L19.5509 25.5364L19.1296 25.8407L18.8371 25.6184L18.135 25.0684L17.4212 24.5301L16.7075 23.9802L16.0054 23.4419L15.8767 23.3483V20.5752L16.0054 20.4581L16.7075 19.7093L17.4212 18.9721L19.5275 16.7606H11.0207L12.4365 18.2466L13.1503 18.9838L14.5662 20.4698L14.6715 20.5752V23.9334L15.2799 24.4131L16.0054 24.9631L16.7075 25.5013L17.4212 26.0513L18.135 26.5896L18.8371 27.1395L19.0945 27.3384L19.5509 27.0108L20.2646 26.5193L20.9667 26.0045L21.6805 25.4896L22.3942 24.9982L23.8218 23.9685L24.5356 23.477L25.2493 22.9622L25.8344 22.5292L25.9514 19.3699L25.2493 19.3465L24.6175 19.3231Z" fill="#E6DAFE"/>
<path d="M5.15841 13.3321H5.24032L5.25202 9.89199L5.70837 9.59946L6.28172 9.26013L6.84338 8.92079L7.40503 8.56976L7.96669 8.23043L8.54005 7.87939L9.09 7.54006L9.66336 7.20072L10.225 6.84969L10.7984 6.49865H10.8101L11.3483 6.81458L11.9217 7.13052L12.4833 7.45815L14.1683 8.40594L14.73 8.73358L15.2799 9.04951L15.3033 9.0027L15.865 7.9847L15.3033 7.65707L14.73 7.34114L13.6067 6.70927L13.045 6.38164L11.9217 5.74978L11.3483 5.42215L10.7984 5.10621L10.775 5.09451L10.225 5.42215L9.66336 5.77318L9.09 6.12422L8.54005 6.47525L7.96669 6.81458L7.40503 7.15392L6.84338 7.50495L6.28172 7.84429L5.70837 8.19532L5.15841 8.53466L4.58505 8.87399L4.0468 9.21332L4.0234 13.3204H4.58505L5.15841 13.3321Z" fill="#E6DAFE"/>
<path d="M26.5715 9.71647L26.279 9.47075L25.694 9.0027L25.3897 8.76868L24.8047 8.30063L24.5004 8.0549L24.2781 7.89109L24.1962 7.9847L23.9037 8.34743L23.6112 8.72187L23.5292 8.81548L23.6112 8.89739L24.1962 9.38884L24.8047 9.88029L25.0972 10.1377L25.3897 10.3834L25.694 10.6292L25.8344 10.7462L25.8461 16.2808L25.694 16.3861L25.3897 16.5734L24.8047 16.9478L24.1962 17.3222L22.7336 18.2583L22.4293 18.4455L21.5517 19.0072L21.2475 19.1944L20.955 19.3816L21.2475 19.8497L21.5517 20.3177L21.5985 20.3996L21.8443 20.2475L22.1368 20.072L22.4293 19.8848L22.7336 19.7093L23.0261 19.5103L23.3186 19.3348L23.6112 19.1476L23.9037 18.9721L24.1962 18.7849L24.5004 18.6094L24.8047 18.4104L25.0972 18.2349L25.3897 18.0477L25.694 17.8722L25.9865 17.685L26.279 17.5094L26.5715 17.3105L26.8641 17.135L27.1566 16.9478V10.1845L26.5715 9.71647Z" fill="#E6DAFE"/>
<path d="M13.3492 5.10621L13.6301 5.28173L13.8056 5.18812L14.2385 4.9541L14.6949 4.70837L15.1512 4.47435L15.3267 4.38074L15.6076 4.54455L16.0639 4.80198L16.5086 5.05941L16.9532 5.32853L17.4096 5.59766L17.8659 5.85509L18.3105 6.12421L18.7669 6.39334L19.2115 6.65077L19.6679 6.90819L20.1242 7.18902L20.5689 7.44644L20.721 7.52835V12.8641H17.5266L17.5032 13.4842V15.8713L17.5968 15.8362L17.9946 15.6841L18.3925 15.5203L18.7786 15.3681L19.5743 15.0405L19.9604 14.8884L20.3582 14.7246L20.7561 14.5725L21.1422 14.4086L21.5401 14.2565L21.9262 14.0927V6.84968L21.4816 6.56886L20.5689 6.05401L20.1242 5.77318L19.2115 5.25833L18.7669 4.9892L18.3105 4.72007L17.8659 4.45094L17.4096 4.19352L16.9532 3.92439L16.5086 3.65527L16.0639 3.39784L15.6076 3.14041L15.3618 3L15.1512 3.11701L14.6949 3.36274L14.2385 3.59676L13.8056 3.85419L13.3492 4.09991L12.8929 4.33393L12.4366 4.59136L13.3492 5.10621Z" fill="#E6DAFE"/>
</svg>
