<svg width="32" height="32" viewBox="0 0 32 32" fill="none" xmlns="http://www.w3.org/2000/svg">
<path d="M16.0007 15.6339L11.6018 20.0447L16.0007 24.4563L20.3988 20.0447L16.0007 15.6339ZM12.78 20.0455L16.0011 16.8145L16.0178 16.8311L19.2207 20.0449L16.0011 23.2744L12.78 20.0455Z" fill="#E6DAFE"/>
<path d="M8.39843 8.01038L4 12.4214L8.39917 16.833L12.7972 12.4214L8.39843 8.01038ZM8.39843 15.6516L5.17773 12.4221L8.39898 9.19246L11.6186 12.4221L8.39843 15.6516Z" fill="#E6DAFE"/>
<path d="M23.6017 8.00804L19.8014 11.8209L19.2118 12.4113L19.2035 12.4198L23.6016 16.8314L28 12.4205L23.6017 8.00804ZM23.6017 15.6493L20.382 12.4198L20.3902 12.4113L23.6016 9.19012L26.8223 12.4198L23.6017 15.6493Z" fill="#E6DAFE"/>
<path d="M15.9982 8H8.39614L7.7982 8.59905L15.9975 16.8226H23.5981L24.1962 16.2237L15.9982 8ZM16.3419 15.9877L9.21183 8.83587H15.6521L22.7822 15.9877H16.3419Z" fill="#E6DAFE"/>
</svg>
