<?xml version="1.0" encoding="UTF-8"?>
<!DOCTYPE svg PUBLIC "-//W3C//DTD SVG 1.1//EN" "http://www.w3.org/Graphics/SVG/1.1/DTD/svg11.dtd">
<svg xmlns="http://www.w3.org/2000/svg" version="1.1" width="64px" height="64px" style="shape-rendering:geometricPrecision; text-rendering:geometricPrecision; image-rendering:optimizeQuality; fill-rule:evenodd; clip-rule:evenodd" xmlns:xlink="http://www.w3.org/1999/xlink">
<g><path style="opacity:1" fill="#161616" d="M -0.5,-0.5 C 20.8333,-0.5 42.1667,-0.5 63.5,-0.5C 63.5,20.8333 63.5,42.1667 63.5,63.5C 42.1667,63.5 20.8333,63.5 -0.5,63.5C -0.5,42.1667 -0.5,20.8333 -0.5,-0.5 Z"/></g>
<g><path style="opacity:1" fill="#b8b8b8" d="M 28.5,26.5 C 31.6399,25.3592 34.9733,25.1925 38.5,26C 37.5838,26.3742 36.7504,26.8742 36,27.5C 33.6194,26.565 31.1194,26.2317 28.5,26.5 Z"/></g>
<g><path style="opacity:1" fill="#b1b1b1" d="M 39.5,26.5 C 41.2884,25.3775 43.2884,25.2109 45.5,26C 43.4505,27.3318 41.4505,27.4985 39.5,26.5 Z"/></g>
<g><path style="opacity:1" fill="#b0a8ac" d="M 31.5,29.5 C 33.1475,31.1862 33.3141,32.8529 32,34.5C 31.5065,32.8659 31.3398,31.1992 31.5,29.5 Z"/></g>
<g><path style="opacity:1" fill="#afabb1" d="M 27.5,34.5 C 28.7733,35.0768 28.7733,35.7435 27.5,36.5C 26.537,36.0302 26.537,35.3635 27.5,34.5 Z"/></g>
</svg>
