<svg width="32" height="32" viewBox="0 0 32 32" fill="none" xmlns="http://www.w3.org/2000/svg">
<path fill-rule="evenodd" clip-rule="evenodd" d="M6.21331 4.7246C6.65852 4.2158 7.27304 4 7.89787 4C8.46916 4 9.04746 4.14703 9.53065 4.56982C9.99681 4.97771 10.2711 5.55297 10.4339 6.204L10.4473 6.25763L10.5179 6.82234C12.4123 7.53842 13.4766 9.35006 13.7504 11.6719C13.7505 11.6728 13.7506 11.6738 13.7507 11.6747L15.1795 23.2348C15.7269 23.3138 16.2731 23.3138 16.8205 23.2348L18.2528 11.6459L18.2569 11.6226C18.4761 10.3806 18.8555 9.26626 19.5033 8.38855C20.043 7.65742 20.7465 7.12173 21.6209 6.81057L21.6852 6.29655C21.7737 5.677 22.0085 5.09646 22.442 4.66294C22.8883 4.21665 23.4727 4 24.1021 4C24.727 4 25.3415 4.2158 25.7867 4.7246C26.2179 5.21741 26.3908 5.87153 26.3908 6.56336V7.04806C27.1104 7.39836 27.7137 7.90997 28.1596 8.57888C28.7257 9.42804 29 10.4725 29 11.6444V27.5282H24.5599V8.40548C24.1429 8.34875 23.7034 8.33752 23.2682 8.36238L21.7147 20.272C21.7146 20.2729 21.7145 20.2738 21.7144 20.2747C21.5581 21.5216 21.12 22.5567 20.4345 23.3493C19.8875 23.9818 19.2094 24.4292 18.4583 24.7094L18.2874 25.7349C18.2786 26.018 18.224 26.2917 18.1068 26.5554C17.9799 26.8409 17.8 27.0687 17.6086 27.26L17.5036 27.3651L17.3493 27.4422C17.0666 27.5838 16.6292 27.8028 16 27.8028C15.3708 27.8028 14.9334 27.5838 14.6507 27.4422L14.4964 27.3651L14.3914 27.26C14.2 27.0687 14.0201 26.8409 13.8932 26.5554C13.776 26.2917 13.7214 26.018 13.7126 25.7349L13.5414 24.7078C12.7924 24.4238 12.1361 23.9692 11.6155 23.327C10.9686 22.5292 10.5762 21.4983 10.4229 20.2745C10.4228 20.2737 10.4227 20.2728 10.4226 20.272L8.86313 8.31638C8.68385 8.30324 8.50746 8.30278 8.30985 8.30278C8.06055 8.30278 7.7562 8.34064 7.4401 8.39851V27.5282H3V11.6444C3 10.4725 3.27427 9.42804 3.84037 8.57888C4.28631 7.90997 4.8896 7.39836 5.60916 7.04806V6.56336C5.60916 5.87153 5.78211 5.21741 6.21331 4.7246ZM7.44019 6.54295C7.73347 6.49996 8.03124 6.47184 8.30985 6.47184L8.32406 6.47184C8.41461 6.47183 8.50929 6.47183 8.60875 6.4735C8.50783 6.15166 8.39632 6.01018 8.32496 5.94774C8.25886 5.8899 8.15054 5.83094 7.89787 5.83094C7.69877 5.83094 7.62667 5.88979 7.59124 5.93029C7.54264 5.98582 7.44353 6.15089 7.44019 6.54295ZM10.8193 9.15748L12.2394 20.0449C12.3609 21.0172 12.6551 21.702 13.0377 22.1739C13.0983 22.2487 13.1624 22.3196 13.2298 22.3866L11.9323 11.8886C11.7837 10.6255 11.3889 9.73277 10.8193 9.15748ZM15.4639 25.1058L15.5422 25.5757V25.6514C15.5422 25.7506 15.5577 25.7923 15.5663 25.8117C15.5717 25.8238 15.5811 25.8419 15.6003 25.868C15.7643 25.9446 15.8597 25.9719 16 25.9719C16.1403 25.9719 16.2357 25.9446 16.3997 25.868C16.4189 25.8419 16.4283 25.8238 16.4337 25.8117C16.4423 25.7923 16.4578 25.7506 16.4578 25.6514V25.5757L16.5361 25.1058C16.1787 25.1314 15.8213 25.1314 15.4639 25.1058ZM5.60916 9.28228C5.51917 9.37986 5.43746 9.48404 5.36381 9.59451C5.03731 10.0843 4.83094 10.7564 4.83094 11.6444V25.6972H5.60916V9.28228ZM21.3282 9.07966L19.8986 20.04L19.8979 20.0449C19.7793 20.994 19.4622 21.6746 19.0497 22.1516C18.9607 22.2545 18.8653 22.3502 18.7637 22.4386L20.0641 11.9179C20.2571 10.8369 20.5629 10.0361 20.9764 9.47586C21.0838 9.33041 21.2005 9.19825 21.3282 9.07966ZM23.503 6.52108C23.8504 6.51365 24.2056 6.52545 24.5599 6.56183C24.5596 6.15617 24.4581 5.98671 24.4088 5.93029C24.3733 5.88979 24.3012 5.83094 24.1021 5.83094C23.9076 5.83094 23.8054 5.88894 23.7367 5.95761C23.658 6.03628 23.554 6.20196 23.503 6.52108ZM26.3908 9.28228V25.6972H27.1691V11.6444C27.1691 10.7564 26.9627 10.0843 26.6362 9.59451C26.5625 9.48404 26.4808 9.37986 26.3908 9.28228Z" fill="#E6DAFE"/>
</svg>
