<svg width="32" height="32" viewBox="0 0 32 32" fill="none" xmlns="http://www.w3.org/2000/svg">
<g clip-path="url(#clip0_14366_256)">
<path d="M20.0444 8.46836C20.0444 8.46836 20.0537 8.48233 20.0584 8.49009L20.0646 8.47146C20.0646 8.47146 20.0491 8.47146 20.0429 8.47146C19.9917 8.20605 19.8364 7.98719 19.72 7.75127C19.675 7.56035 19.5664 7.39738 19.4841 7.22198C19.1271 6.45833 18.7624 5.69933 18.3992 4.93878C18.3076 4.74786 18.2129 4.5585 18.1011 4.33034C18.0484 5.21661 18.2346 6.00821 18.6056 6.75789C18.8167 7.18473 19.0681 7.58674 19.4174 7.9189C19.6114 8.11913 19.793 8.33332 20.0429 8.46836H20.0444ZM13.7055 10.3573C13.8327 10.2921 13.8576 10.1695 13.8684 10.0453C13.9197 9.39654 13.2165 8.934 12.6081 9.2227C12.1331 9.44776 11.8491 9.84822 11.6535 10.3216C11.4781 10.6848 11.3027 11.048 11.1258 11.4112C11.7622 10.9751 12.4312 10.6771 13.1933 10.5995C13.3842 10.5793 13.5782 10.5312 13.7055 10.3573ZM11.9748 21.1804C12.0804 22.5339 13.3531 23.7182 14.7314 23.7554C15.9204 23.7865 17.0224 23.4885 18.0468 22.8925C18.2564 22.7714 18.4659 22.6426 18.6522 22.4625C18.6196 22.4547 18.6087 22.4485 18.5994 22.4501C18.5575 22.461 18.5156 22.4718 18.4752 22.4858C17.4275 22.8505 16.4015 22.7869 15.4004 22.3166C14.8121 22.0403 14.3341 21.6228 13.9321 21.1152C13.9181 21.0873 13.9072 21.0563 13.8886 21.0314C13.4866 20.4711 13.2445 19.8518 13.17 19.1642C13.1451 18.9298 13.1638 18.6939 13.1374 18.4456C13.0986 18.4704 13.0753 18.4828 13.0567 18.4983C12.6112 18.8491 12.2977 19.2977 12.1114 19.8301C11.9577 20.2678 11.891 20.7179 11.9748 21.182V21.1804ZM20.7274 9.88081C20.687 9.67593 20.552 9.51295 20.4852 9.32049C20.4464 9.20873 20.3688 9.13578 20.2664 9.07369C19.3599 8.53355 18.6832 7.78231 18.23 6.82929C17.8078 5.94302 17.6557 5.01173 17.7566 4.03543C17.7705 3.89574 17.8419 3.75294 17.7581 3.60704C17.4399 3.05292 16.9619 2.75801 16.327 2.75491C15.6876 2.7518 15.194 3.03895 14.8758 3.60083C14.7516 3.82123 14.6569 4.05871 14.5452 4.28688C14.5172 4.34431 14.5172 4.39863 14.5328 4.45916C14.6011 4.72613 14.6787 4.98845 14.778 5.2461C15.1847 6.31243 15.8288 7.21578 16.6592 7.9903C17.6076 8.87657 18.7655 9.45707 19.8395 10.1602C19.956 10.2456 20.0708 10.3325 20.1872 10.4163C20.6373 10.7391 21.0564 11.0977 21.4802 11.4935C21.4584 11.3181 21.3684 11.1986 21.3079 11.0698C21.117 10.6724 20.9493 10.2626 20.7274 9.87926V9.88081ZM13.7334 17.6943C14.1044 17.5732 14.4846 17.491 14.8758 17.4972C15.4377 17.5065 15.9561 17.3528 16.4233 17.061C17.3111 16.5085 17.7954 15.6983 17.8373 14.649C17.8978 13.1543 16.847 11.8613 15.3771 11.6301C14.6119 11.509 13.8529 11.6084 13.1219 11.8474C10.8945 12.5753 9.51312 14.0964 8.94503 16.3626C8.84104 16.7801 8.7805 17.2085 8.80844 17.6431C8.79292 18.0016 8.83017 18.354 8.89226 18.7063C9.04126 19.5647 9.35945 20.3531 9.84993 21.0749C10.5329 22.0807 11.4409 22.8148 12.5522 23.3022C12.5755 23.3131 12.5941 23.3441 12.619 23.3193C12.6453 23.2914 12.6329 23.2588 12.6112 23.2324C12.5755 23.192 12.5351 23.1548 12.4979 23.116C11.8693 22.4672 11.5651 21.6787 11.5744 20.7862C11.5852 19.7509 11.9997 18.8879 12.8099 18.2314C13.0877 18.0063 13.3826 17.7983 13.7334 17.6959V17.6943Z" fill="#E6DAFE"/>
<path d="M24.3455 17.0844C24.8251 18.8243 24.9167 20.5767 24.4945 22.3384C24.1142 23.9231 23.3381 25.2859 22.1569 26.4159C21.2225 27.3099 20.1329 27.9463 18.9098 28.3498C18.3138 28.547 17.7007 28.6727 17.0737 28.7255C17.0442 28.7286 17.0069 28.7161 16.9883 28.7534H15.5898C15.3368 28.6804 15.0729 28.6789 14.8153 28.6292C13.8824 28.4492 13.0039 28.1387 12.1704 27.6716C10.952 26.9871 9.96949 26.0635 9.20738 24.9025C8.45925 23.7633 8.01844 22.5122 7.8803 21.1541C7.74681 19.8518 7.90824 18.5884 8.35215 17.3591C8.38009 17.283 8.41268 17.2101 8.45304 17.1371C8.42665 17.5065 8.43597 17.8729 8.46701 18.2407C8.54772 19.2046 8.83021 20.1048 9.32069 20.9352C9.9757 22.045 10.8744 22.8972 12.0323 23.4668C13.1902 24.0364 14.4148 24.246 15.6907 24.0799C17.7721 23.8083 19.3677 22.759 20.4589 20.9709C21.1667 19.8115 21.4476 18.5387 21.3514 17.1837C21.4041 17.193 21.4554 17.2085 21.5097 17.2116C21.5563 17.2147 21.592 17.179 21.5578 17.1402C21.4988 17.0719 21.5268 17.0331 21.5858 17.0005C21.654 16.9633 21.6556 17.0487 21.6897 17.0626C21.7456 17.0844 21.7642 17.2241 21.8481 17.1371C21.9319 17.0518 22.0048 17.013 22.1352 16.9959C22.2377 16.9835 22.3153 16.8826 22.4208 17.0037C22.4425 17.0285 22.4938 16.94 22.5636 16.9788C22.6505 17.0254 22.7468 17.1278 22.8539 17.0021C22.8585 16.9959 22.8896 17.0021 22.8958 17.0099C22.9982 17.1558 23.1131 17.0626 23.1876 16.9974C23.3102 16.8903 23.3692 16.926 23.425 17.0518C23.4685 17.1496 23.498 17.1232 23.5337 17.044C23.574 16.9571 23.6656 16.909 23.7293 16.9804C23.8302 17.0921 24.0102 16.864 24.0661 17.0766C24.0816 17.0719 24.1018 17.0719 24.1111 17.0611C24.184 16.985 24.2616 17.0331 24.3377 17.0502C24.3424 17.0595 24.3455 17.0704 24.3501 17.0797L24.3455 17.0844Z" fill="#E6DAFE"/>
<path d="M23.0665 28.755C22.9455 28.4213 22.7654 28.1139 22.6226 27.7896C22.5916 27.7197 22.5947 27.6747 22.6537 27.6235C23.5694 26.8381 24.302 25.9068 24.8856 24.8529C25.148 24.8017 25.418 24.7815 25.6803 24.8048C26.1367 24.8467 26.593 24.8048 27.0478 24.8141C27.3225 24.8203 27.5988 24.797 27.8704 24.856C28.1312 25.4008 28.4137 25.9378 28.6496 26.4935C29.0361 27.4046 28.4959 28.4523 27.5352 28.7038C27.487 28.7162 27.425 28.6976 27.3908 28.7534H23.0665V28.755Z" fill="#E6DAFE"/>
<path d="M5.21835 28.755C5.05227 28.6805 4.87067 28.6526 4.70925 28.5626C3.92541 28.1218 3.6274 27.2029 4.01078 26.3865C4.2405 25.8975 4.47643 25.4102 4.70925 24.9228C4.80703 24.9228 4.88309 24.8436 4.98863 24.8529C5.23232 24.8747 5.47756 24.901 5.71969 24.8529C5.92768 24.811 6.13257 24.8793 6.34987 24.8405C6.57182 24.8002 6.81706 24.8545 7.05609 24.8467C7.28115 24.839 7.52794 24.8079 7.75611 24.8871C8.27453 25.8091 8.89849 26.6519 9.68232 27.3674C9.78011 27.4559 9.73199 27.5211 9.69319 27.6049C9.51159 27.9883 9.33309 28.3732 9.15304 28.7566H5.21835V28.755Z" fill="#E6DAFE"/>
<path d="M8.81001 17.64C8.78207 17.2054 8.84106 16.7785 8.9466 16.3594C9.51469 14.0948 10.8961 12.5722 13.1234 11.8442C13.856 11.6052 14.6135 11.5074 15.3787 11.6269C16.8486 11.8582 17.8994 13.1527 17.8388 14.6459C17.7969 15.6967 17.3127 16.5069 16.4248 17.0579C15.9576 17.3481 15.4377 17.5018 14.8774 17.494C14.4862 17.4878 14.1059 17.5701 13.735 17.6912C13.7257 17.6229 13.6962 17.6043 13.6232 17.6229C13.527 17.6462 13.409 17.7548 13.3392 17.5779C13.3345 17.5686 13.2833 17.5639 13.2631 17.5748C13.0055 17.7051 12.7276 17.4723 12.4715 17.6213C12.4467 17.6353 12.4281 17.5965 12.4079 17.581C12.3132 17.5096 11.9422 17.5251 11.86 17.6105C11.8041 17.6679 11.77 17.6446 11.7094 17.6182C11.6008 17.5748 11.4828 17.4754 11.3711 17.5266C11.236 17.5887 11.115 17.5918 10.9706 17.5856C10.8511 17.581 10.7285 17.5499 10.6183 17.5623C10.4072 17.5872 10.2054 17.553 9.99896 17.5499C9.85771 17.5499 9.71181 17.5049 9.55815 17.5717C9.49606 17.598 9.38276 17.6757 9.29894 17.6167C9.20426 17.5515 9.12976 17.5748 9.04439 17.6213C8.96988 17.6617 8.88917 17.6508 8.81001 17.6368V17.64Z" fill="#E6DAFE"/>
<path d="M24.333 17.0534C24.257 17.0363 24.1794 16.9882 24.1064 17.0643C24.0971 17.0751 24.0769 17.0751 24.0614 17.0798C24.0055 16.8671 23.8255 17.0953 23.7246 16.9835C23.661 16.9122 23.5694 16.9603 23.529 17.0472C23.4933 17.1263 23.4638 17.1527 23.4204 17.0549C23.3645 16.9292 23.3071 16.8935 23.1829 17.0006C23.1084 17.0658 22.9951 17.1589 22.8911 17.013C22.8849 17.0037 22.8538 16.9991 22.8492 17.0053C22.7421 17.131 22.6458 17.0286 22.5589 16.982C22.4891 16.9447 22.4394 17.0317 22.4161 17.0068C22.3106 16.8858 22.2314 16.9867 22.1305 16.9991C21.9986 17.0146 21.9272 17.0534 21.8434 17.1403C21.7596 17.2257 21.7409 17.0875 21.6851 17.0658C21.6509 17.0518 21.6509 16.9665 21.5811 17.0037C21.5221 17.0363 21.4926 17.0751 21.5531 17.1434C21.5873 17.1822 21.55 17.2164 21.505 17.2148C21.4522 17.2117 21.3995 17.1962 21.3467 17.1869C21.2349 16.1268 20.8997 15.1474 20.2974 14.2626C19.8737 13.6418 19.3568 13.1078 18.7857 12.622C17.918 11.8832 16.9743 11.2375 16.133 10.4676C15.3616 9.76297 14.6709 8.98844 14.2084 8.04319C13.735 7.07775 13.6294 6.09369 14.1463 5.10187C14.1727 5.05065 14.1789 4.98701 14.2425 4.93579C14.3558 5.20742 14.4614 5.47439 14.5778 5.73825C15.1521 7.02498 16.0415 8.05095 17.1652 8.886C17.9739 9.48668 18.8493 9.98492 19.6828 10.5468C20.136 10.8526 20.566 11.1894 20.9695 11.5572C21.9893 12.4839 22.8197 13.5564 23.4499 14.7826C23.8069 15.4764 24.094 16.1966 24.3113 16.9447C24.3222 16.9804 24.3237 17.0177 24.3315 17.0549L24.333 17.0534Z" fill="#E6DAFE"/>
<path d="M19.8396 10.1617C18.7655 9.45863 17.6091 8.87812 16.6592 7.99185C15.8288 7.21578 15.1847 6.31398 14.778 5.24765C14.6802 4.99 14.6026 4.72613 14.5328 4.46072C14.5172 4.40018 14.5157 4.34741 14.5452 4.28843C14.6569 4.06026 14.7516 3.82278 14.8758 3.60238C15.1924 3.03895 15.6876 2.7518 16.3271 2.75491C16.9619 2.75801 17.4399 3.05292 17.7581 3.60704C17.8419 3.75294 17.7705 3.89574 17.7566 4.03543C17.6557 5.01173 17.8078 5.94302 18.23 6.82929C18.6832 7.78231 19.3599 8.53355 20.2664 9.07369C20.3688 9.13423 20.4464 9.20873 20.4853 9.32049C20.552 9.51295 20.687 9.67748 20.7274 9.88081C20.7134 10.005 20.6187 9.98946 20.5349 9.99877C20.4527 10.0065 20.3673 9.97394 20.2881 10.036C20.1577 10.1369 20.0181 10.2176 19.8411 10.1617H19.8396Z" fill="#E6DAFE"/>
<path d="M8.81004 17.6399C8.8892 17.6539 8.96836 17.6647 9.04441 17.6244C9.12823 17.5778 9.20428 17.5545 9.29896 17.6197C9.38433 17.6787 9.49609 17.6027 9.55817 17.5747C9.71183 17.508 9.85618 17.5514 9.99898 17.553C10.2054 17.5545 10.4072 17.5887 10.6183 17.5654C10.7285 17.553 10.8511 17.584 10.9706 17.5887C11.115 17.5949 11.2345 17.5918 11.3711 17.5297C11.4828 17.4785 11.6008 17.5778 11.7094 17.6213C11.7715 17.6461 11.8057 17.6694 11.86 17.6135C11.9423 17.5281 12.3117 17.5126 12.4079 17.584C12.4281 17.5995 12.4467 17.6384 12.4716 17.6244C12.7277 17.4754 13.0055 17.7082 13.2631 17.5778C13.2833 17.567 13.3361 17.5701 13.3392 17.5809C13.409 17.7579 13.527 17.6492 13.6232 17.6259C13.6962 17.6089 13.7257 17.6259 13.735 17.6942C13.3827 17.7967 13.0878 18.0047 12.8115 18.2297C12.0028 18.8863 11.5868 19.7493 11.576 20.7846C11.5666 21.677 11.8709 22.464 12.4995 23.1143C12.5367 23.1531 12.5771 23.1904 12.6128 23.2307C12.6361 23.2556 12.6485 23.2897 12.6206 23.3177C12.5957 23.3425 12.5755 23.3114 12.5538 23.3006C11.4425 22.8132 10.5345 22.079 9.85153 21.0733C9.3626 20.3531 9.04441 19.563 8.89385 18.7047C8.83177 18.3523 8.79452 18 8.81004 17.6415V17.6399Z" fill="#E6DAFE"/>
<path d="M13.9321 21.1153C14.3341 21.6229 14.8122 22.0404 15.4004 22.3167C16.4016 22.787 17.4275 22.8506 18.4752 22.4859C18.5156 22.4719 18.5575 22.461 18.5994 22.4502C18.6087 22.4486 18.6196 22.4548 18.6522 22.4626C18.4659 22.6426 18.2564 22.7715 18.0468 22.8925C17.0224 23.487 15.922 23.7866 14.7315 23.7555C13.3547 23.7198 12.0804 22.5355 11.9749 21.1805C12.1844 21.1308 12.3955 21.1696 12.605 21.1634C12.8829 21.1541 13.1607 21.1448 13.4401 21.1557C13.6015 21.1619 13.7722 21.179 13.9321 21.1138V21.1153Z" fill="#E6DAFE"/>
<path d="M7.75609 24.8853C7.52793 24.8062 7.27958 24.8372 7.05607 24.845C6.81704 24.8527 6.5718 24.7984 6.34985 24.8388C6.13255 24.8791 5.92922 24.8093 5.71968 24.8512C5.47754 24.8993 5.2323 24.8729 4.98861 24.8512C4.88307 24.8419 4.80701 24.9195 4.70923 24.921C4.92187 24.4725 5.13452 24.0223 5.34716 23.5738C5.76003 22.7046 6.17445 21.8369 6.58888 20.9677C6.59353 20.9584 6.60129 20.9522 6.63079 20.9165C6.64476 21.185 6.67269 21.4272 6.70684 21.6693C6.83256 22.5851 7.09022 23.462 7.47826 24.3017C7.56828 24.4973 7.66296 24.6913 7.75454 24.8853H7.75609Z" fill="#E6DAFE"/>
<path d="M27.8704 24.8574C27.5988 24.7985 27.3225 24.8202 27.0478 24.8155C26.5914 24.8062 26.1366 24.8481 25.6803 24.8062C25.418 24.7829 25.1495 24.8031 24.8856 24.8543C25.0703 24.4415 25.2752 24.0364 25.4304 23.6111C25.7129 22.835 25.8992 22.0372 25.9659 21.2146C25.9721 21.1292 25.9876 21.0454 26.0047 20.929C26.2096 21.3589 26.4036 21.7609 26.5961 22.1645C26.9034 22.8086 27.2107 23.4527 27.5165 24.0969C27.636 24.3499 27.7524 24.606 27.8704 24.8605V24.8574Z" fill="#E6DAFE"/>
<path d="M13.9321 21.1152C13.7722 21.1804 13.6015 21.1634 13.4401 21.1572C13.1607 21.1463 12.8829 21.1572 12.605 21.1649C12.3955 21.1711 12.1844 21.1323 11.9749 21.182C11.891 20.7179 11.9578 20.2678 12.1114 19.8301C12.2977 19.2977 12.6112 18.8491 13.0567 18.4983C13.0769 18.4828 13.1002 18.4704 13.1374 18.4456C13.1654 18.6955 13.1452 18.9314 13.17 19.1642C13.2445 19.8518 13.4867 20.4711 13.8887 21.0314C13.9073 21.0563 13.9181 21.0873 13.9321 21.1152Z" fill="#E6DAFE"/>
<path d="M11.6536 10.3217C11.8491 9.84825 12.1332 9.44935 12.6081 9.22274C13.2166 8.93404 13.9197 9.39658 13.8685 10.0454C13.8592 10.1695 13.8343 10.2922 13.7055 10.3574C13.6527 10.2984 13.5829 10.3232 13.5223 10.3232C12.8999 10.3217 12.276 10.3217 11.6536 10.3201V10.3217Z" fill="#E6DAFE"/>
<path d="M19.4174 7.91888C19.0666 7.58828 18.8167 7.18472 18.6056 6.75788C18.2346 6.00974 18.0468 5.21815 18.1011 4.33032C18.2129 4.55694 18.3076 4.7463 18.3992 4.93876C18.7624 5.69932 19.1271 6.45831 19.4841 7.22197C19.5664 7.39581 19.6735 7.56034 19.72 7.75125C19.6393 7.84283 19.5089 7.84438 19.4189 7.91888H19.4174Z" fill="#E6DAFE"/>
<path d="M11.6536 10.3217C12.276 10.3217 12.9 10.3217 13.5224 10.3248C13.5845 10.3248 13.6543 10.2999 13.7055 10.3589C13.5782 10.5312 13.3842 10.5809 13.1933 10.6011C12.4312 10.6787 11.7622 10.9767 11.1259 11.4128C11.3012 11.0496 11.4766 10.6864 11.6536 10.3232V10.3217Z" fill="#E6DAFE"/>
<path d="M19.8396 10.1618C20.0165 10.2177 20.1562 10.137 20.2866 10.0361C20.3657 9.97399 20.4511 10.0081 20.5334 9.99882C20.6187 9.99106 20.7134 10.005 20.7258 9.88086C20.9478 10.2642 21.1154 10.6725 21.3063 11.0714C21.3684 11.2002 21.4585 11.3197 21.4786 11.4951C21.0549 11.0993 20.6358 10.7407 20.1857 10.4179C20.0693 10.3341 19.9529 10.2472 19.838 10.1618H19.8396Z" fill="#E6DAFE"/>
<path d="M19.4174 7.91885C19.5074 7.84435 19.6378 7.8428 19.7185 7.75122C19.8333 7.9887 19.9885 8.20755 20.0413 8.47142L20.0444 8.46831C19.7945 8.33328 19.6114 8.11908 19.4189 7.91885H19.4174Z" fill="#E6DAFE"/>
<path d="M20.0413 8.47137C20.0413 8.47137 20.0569 8.47137 20.0631 8.47137L20.0569 8.48999C20.0569 8.48999 20.0476 8.47602 20.0429 8.46826L20.0398 8.47137H20.0413Z" fill="#E6DAFE"/>
<path d="M24.3454 17.0844C24.3408 17.0751 24.3377 17.0642 24.333 17.0549C24.347 17.0611 24.3578 17.0673 24.3454 17.0844Z" fill="#E6DAFE"/>
</g>
<defs>
<clipPath id="clip0_14366_256">
<rect width="24.9306" height="26" fill="white" transform="translate(3.84473 2.75488)"/>
</clipPath>
</defs>
</svg>
