<?xml version="1.0" encoding="UTF-8"?>
<!DOCTYPE svg PUBLIC "-//W3C//DTD SVG 1.1//EN" "http://www.w3.org/Graphics/SVG/1.1/DTD/svg11.dtd">
<svg xmlns="http://www.w3.org/2000/svg" version="1.1" width="64px" height="64px" style="shape-rendering:geometricPrecision; text-rendering:geometricPrecision; image-rendering:optimizeQuality; fill-rule:evenodd; clip-rule:evenodd" xmlns:xlink="http://www.w3.org/1999/xlink">
<g><path style="opacity:1" fill="#fefefe" d="M -0.5,-0.5 C 20.8333,-0.5 42.1667,-0.5 63.5,-0.5C 63.5,20.8333 63.5,42.1667 63.5,63.5C 42.1667,63.5 20.8333,63.5 -0.5,63.5C -0.5,42.1667 -0.5,20.8333 -0.5,-0.5 Z"/></g>
<g><path style="opacity:1" fill="#000000" d="M 32.5,14.5 C 32.5,15.8333 32.5,17.1667 32.5,18.5C 30.2988,18.8584 28.9655,20.1917 28.5,22.5C 29.5,22.8333 30.5,23.1667 31.5,23.5C 33.0296,23.3601 34.0296,22.6935 34.5,21.5C 38.1667,24.1667 41.8333,24.1667 45.5,21.5C 47.7171,23.0799 50.3837,24.0799 53.5,24.5C 54.8333,26.8333 56.1667,29.1667 57.5,31.5C 56.1667,33.8333 54.8333,36.1667 53.5,38.5C 50.8333,39.1667 48.1667,39.8333 45.5,40.5C 46.5401,42.5229 47.5401,44.5229 48.5,46.5C 47.8631,49.1071 46.6965,51.4404 45,53.5C 41.9269,54.6168 38.7603,54.7835 35.5,54C 34.3601,52.0266 33.0267,50.1933 31.5,48.5C 29.9733,50.1933 28.6399,52.0266 27.5,54C 20.4766,56.4306 16.1433,54.0973 14.5,47C 15.3632,44.7735 16.3632,42.6068 17.5,40.5C 14.8333,39.8333 12.1667,39.1667 9.5,38.5C 8.16667,36.1667 6.83333,33.8333 5.5,31.5C 6.83333,29.1667 8.16667,26.8333 9.5,24.5C 12.1667,23.8333 14.8333,23.1667 17.5,22.5C 16.3632,20.3932 15.3632,18.2265 14.5,16C 16.1433,8.90272 20.4766,6.56938 27.5,9C 28.7147,11.3754 30.3814,13.2088 32.5,14.5 Z"/></g>
<g><path style="opacity:1" fill="#b00b04" d="M 45.5,21.5 C 41.8333,24.1667 38.1667,24.1667 34.5,21.5C 33.5987,20.7095 32.9321,19.7095 32.5,18.5C 32.5,17.1667 32.5,15.8333 32.5,14.5C 33.9063,14.0269 34.573,13.0269 34.5,11.5C 34.4142,10.5041 34.7476,9.67076 35.5,9C 38.5,8.33333 41.5,8.33333 44.5,9C 49.0932,13.0841 49.4265,17.2508 45.5,21.5 Z"/></g>
<g><path style="opacity:1" fill="#2d0e09" d="M 34.5,11.5 C 34.573,13.0269 33.9063,14.0269 32.5,14.5C 32.427,12.9731 33.0937,11.9731 34.5,11.5 Z"/></g>
<g><path style="opacity:1" fill="#fdfdfd" d="M 32.5,18.5 C 32.9321,19.7095 33.5987,20.7095 34.5,21.5C 34.0296,22.6935 33.0296,23.3601 31.5,23.5C 30.5,23.1667 29.5,22.8333 28.5,22.5C 28.9655,20.1917 30.2988,18.8584 32.5,18.5 Z"/></g>
<g><path style="opacity:1" fill="#fefefe" d="M 19.5,25.5 C 21.6282,24.3709 23.9615,24.2042 26.5,25C 25.3333,26.8333 24.1667,28.6667 23,30.5C 21.9702,28.6536 20.8036,26.9869 19.5,25.5 Z"/></g>
<g><path style="opacity:1" fill="#fdfdfd" d="M 36.5,25.5 C 38.6282,24.3709 40.9615,24.2042 43.5,25C 42.3333,26.8333 41.1667,28.6667 40,30.5C 38.9702,28.6536 37.8036,26.9869 36.5,25.5 Z"/></g>
<g><path style="opacity:1" fill="#fefefe" d="M 22.5,32.5 C 23.9701,34.1513 25.3034,35.9847 26.5,38C 24.1667,38.6667 21.8333,38.6667 19.5,38C 20.7577,36.2591 21.7577,34.4258 22.5,32.5 Z"/></g>
<g><path style="opacity:1" fill="#fefefe" d="M 39.5,32.5 C 40.9701,34.1513 42.3034,35.9847 43.5,38C 41.1667,38.6667 38.8333,38.6667 36.5,38C 37.7577,36.2591 38.7577,34.4258 39.5,32.5 Z"/></g>
<g><path style="opacity:1" fill="#fdfdfd" d="M 28.5,39.5 C 34.8148,38.84 35.8148,40.5067 31.5,44.5C 29.7377,43.3115 28.7377,41.6449 28.5,39.5 Z"/></g>
</svg>
