<svg width="32" height="32" viewBox="0 0 32 32" fill="none" xmlns="http://www.w3.org/2000/svg">
<path d="M24.4671 13.46H19.5996V18.25H24.4671V13.46Z" fill="#E6DAFE"/>
<path d="M21.5171 10.9424H26.9546V6.1499H21.5171C19.7387 6.15189 18.0338 6.85921 16.7763 8.11668C15.5189 9.37415 14.8116 11.0791 14.8096 12.8574V13.4599H19.5996V12.8574C19.6009 12.3495 19.8034 11.8628 20.1628 11.5039C20.5222 11.145 21.0092 10.9431 21.5171 10.9424Z" fill="#E6DAFE"/>
<path d="M14.8104 20.085C14.8253 20.6113 14.6321 21.1222 14.2726 21.5069C13.9132 21.8916 13.4165 22.1191 12.8904 22.14C12.6311 22.143 12.3738 22.0942 12.1336 21.9964C11.8934 21.8986 11.6751 21.7538 11.4916 21.5706C11.3081 21.3873 11.163 21.1692 11.065 20.9291C10.9669 20.689 10.9177 20.4318 10.9204 20.1725C10.9406 19.6455 11.1682 19.1478 11.5535 18.7877C11.9388 18.4277 12.4508 18.2344 12.9779 18.25H14.8104V13.46H12.9779C9.25042 13.46 6.17542 16.445 6.13042 20.1125C6.11917 21.0038 6.28498 21.8886 6.61825 22.7154C6.95152 23.5422 7.44561 24.2946 8.07187 24.929C8.69813 25.5634 9.4441 26.0671 10.2665 26.4111C11.089 26.755 11.9715 26.9322 12.8629 26.9325H12.9479C16.6154 26.8875 19.6004 23.815 19.6004 20.085V18.25H14.8104V20.085Z" fill="#E6DAFE"/>
</svg>
