<svg width="32" height="32" viewBox="0 0 32 32" fill="none" xmlns="http://www.w3.org/2000/svg">
<path d="M6.55327 14.2043C7.90955 12.8563 9.70787 11.9533 11.7164 11.7247C12.0463 11.6873 12.3827 11.6667 12.723 11.6667H19.0162C19.1123 11.6667 19.2075 11.6685 19.3027 11.6713C19.3102 11.6713 19.3178 11.6713 19.3253 11.6713C20.7909 11.7219 22.1642 12.1313 23.3593 12.8142V10.3702C23.3593 6.30105 20.0378 3 15.9398 3H4V20.3333C4 18.5245 4.55797 16.844 5.51274 15.4548C5.82 15.0061 6.16873 14.5874 6.55327 14.2043Z" fill="#E6DAFE"/>
<path d="M23.3593 12.9622C23.3593 15.9438 21.5789 18.5076 19.018 19.6692C18.0802 20.0945 17.0388 20.3333 15.9398 20.3333L4 20.3333V29H19.0162C23.8343 29 27.7391 25.1191 27.7391 20.3333C27.7391 17.1185 25.9766 14.312 23.3593 12.8151V12.9622Z" fill="#E6DAFE"/>
</svg>
