<svg width="32" height="32" viewBox="0 0 32 32" fill="none" xmlns="http://www.w3.org/2000/svg">
<path d="M24.5642 7.60253C23.5587 6.57685 22.3663 5.728 21.0425 5.11664C20.9869 5.09137 20.9364 5.06611 20.8758 5.04085C20.6181 4.92464 20.3554 4.81348 20.0876 4.71748C19.3347 4.44464 18.5516 4.24253 17.7381 4.12632C17.1672 4.04548 16.5912 4 16 4C9.38105 3.99495 4 9.376 4 15.995C4 21.1486 7.26905 25.5545 11.8417 27.2522C12.3773 27.4493 12.9381 27.6109 13.504 27.7322C14.3074 27.904 15.1461 27.9949 16 27.9949C20.5575 27.9949 24.5288 25.4383 26.56 21.6893C27.4796 19.9966 28 18.0564 28 15.995C28 12.731 26.6863 9.76506 24.5642 7.60253ZM7.57726 22.4118C6.15747 20.5423 5.40968 18.3091 5.40968 15.9596C5.40968 11.9478 7.63284 8.44127 10.9171 6.61727C11.0029 6.56674 11.0888 6.68295 11.0181 6.75369C10.72 7.03664 10.432 7.33979 10.1541 7.65811C8.25432 9.88127 7.15789 12.9078 7.14779 15.9596C7.14779 19.9259 9.80042 24.2004 14.08 24.2004C17.8998 24.2004 21.0122 20.5019 21.0122 15.9596C21.0122 13.8274 20.2947 11.776 19.072 10.2552C19.0265 10.1996 19.0821 10.1238 19.1478 10.144C21.2143 10.7554 22.7604 13.1301 22.7604 15.9596C22.7604 18.4556 21.856 20.9465 20.2745 22.7857C18.6375 24.6905 16.4345 25.7415 14.08 25.7415C11.5992 25.7415 9.22947 24.5238 7.57726 22.4118ZM24.6097 9.51748C26.0244 11.3819 26.7722 13.6101 26.7722 15.9596C26.7722 19.9714 24.5491 23.4779 21.2648 25.3019C21.1789 25.3524 21.0931 25.2362 21.1638 25.1655C21.4619 24.8825 21.7499 24.5794 22.0278 24.2611C23.9276 22.0379 25.024 19.0114 25.0341 15.9596C25.0341 11.9933 22.3815 7.71874 18.1019 7.71874C14.2821 7.71874 11.1697 11.4173 11.1697 15.9596C11.1697 18.0968 11.8872 20.1432 13.1099 21.6691C13.1554 21.7246 13.0998 21.8004 13.0341 21.7802C10.9676 21.1688 9.42147 18.7941 9.42147 15.9646C9.42147 13.4686 10.3259 10.9777 11.9074 9.14358C13.5444 7.23874 15.7474 6.18779 18.1019 6.18779C20.5777 6.18779 22.9524 7.40042 24.6097 9.52253V9.51748ZM19.7642 15.9596C19.7642 18.7891 18.3899 21.2345 16.4194 22.331C16.1768 22.4674 15.8737 22.4522 15.6463 22.2855L15.2269 21.9773C13.4989 20.7141 12.4227 18.4101 12.4227 15.9596C12.4227 13.1301 13.7971 10.6846 15.7676 9.58821C16.0101 9.45179 16.3133 9.46695 16.5406 9.63369L16.96 9.9419C18.688 11.2051 19.7642 13.5091 19.7642 15.9596Z" fill="#E6DAFE"/>
</svg>
