<svg width="32" height="32" viewBox="0 0 32 32" fill="none" xmlns="http://www.w3.org/2000/svg">
<path d="M13.2236 24.6511H11.5657L11.2894 25.0656H12.9472L13.2236 24.6511Z" fill="#E6DAFE"/>
<path d="M13.2236 24.5129H11.5657L11.2894 24.0985H12.9472L13.2236 24.5129Z" fill="#E6DAFE"/>
<path d="M15.7104 24.6511H14.0525L13.7762 25.0656H15.4341L15.7104 24.6511Z" fill="#E6DAFE"/>
<path d="M15.7104 24.5129H14.0525L13.7762 24.0985H15.4341L15.7104 24.5129Z" fill="#E6DAFE"/>
<path d="M21.2366 24.6511H19.5787L19.3024 25.0656H20.9603L21.2366 24.6511Z" fill="#E6DAFE"/>
<path d="M21.2366 24.5129H19.5787L19.3024 24.0985H20.9603L21.2366 24.5129Z" fill="#E6DAFE"/>
<path d="M16.8157 15.1182H15.1578C15.1578 15.1182 15.4341 16.3616 17.2301 16.3616C18.6117 16.3616 19.0262 15.1182 19.0262 15.1182H17.7827C17.4521 15.4078 17.2485 15.5288 16.8157 15.1182Z" fill="#E6DAFE"/>
<path d="M22.2629 15.1182H21.0984C21.0984 15.1182 21.0984 16.2234 22.5886 16.2234C23.6741 16.2234 23.9997 15.1182 23.9997 15.1182H23.0228C22.763 15.3756 22.603 15.4831 22.2629 15.1182Z" fill="#E6DAFE"/>
<path d="M4.10529 18.7102C4.24344 20.5062 6.31579 20.3681 6.31579 18.9865" stroke="#E6DAFE" stroke-width="0.552625"/>
<path d="M3 17.8813L3.96709 16.2234L4.93419 17.8813L3.96709 19.401L3 17.8813Z" fill="#E6DAFE"/>
<path d="M6.91982 8.63367H9.95926C9.95926 8.63367 11.479 8.48704 11.6171 10.5594C11.7553 12.6317 11.0645 13.3225 10.2356 13.4607H6.32287M6.91982 8.63367C6.76813 8.63367 5.88522 6.82917 5.88522 6.82917C5.21762 6.2765 1.9957 11.3881 6.32287 13.4607M6.91982 8.63367C7.5592 6.82917 9.63154 6 11.711 6H19.724C22.7761 6 25.2503 8.47419 25.2503 11.5263V17.8814C25.2503 20.9335 22.7761 23.4077 19.724 23.4077H11.711C8.6589 23.4077 6.18472 20.9335 6.18472 17.8814L6.32287 13.4607M24.511 8.76313H25.8029L26.9082 6.82894C28.8423 7.24341 30.5002 12.0789 26.77 13.7368C26.77 13.7368 25.5195 13.8749 25.3814 13.8749C25.2432 13.8749 25.4206 11.765 25.166 10.5594C25.0003 9.77462 24.511 8.76313 24.511 8.76313Z" stroke="#E6DAFE" stroke-width="0.828938"/>
<path d="M19.7169 17.0525H20.9036C21.1385 17.0525 21.3134 17.0647 21.4281 17.0892C21.5442 17.1121 21.6475 17.1611 21.738 17.2363C21.8298 17.3114 21.906 17.4119 21.9668 17.5376C22.0275 17.6618 22.0579 17.8014 22.0579 17.9566C22.0579 18.1249 22.0201 18.2792 21.9445 18.4197C21.8703 18.5602 21.769 18.6656 21.6408 18.7358C21.8217 18.7995 21.9607 18.9081 22.0579 19.0617C22.1551 19.2152 22.2037 19.3957 22.2037 19.6032C22.2037 19.7665 22.172 19.9258 22.1086 20.081C22.0464 20.2345 21.9607 20.3579 21.8514 20.451C21.7434 20.5425 21.6097 20.5988 21.4504 20.62C21.3505 20.6331 21.1095 20.6413 20.7274 20.6446H19.7169V17.0525ZM20.3163 17.6504V18.481H20.7092C20.9428 18.481 21.0879 18.4769 21.1446 18.4687C21.2472 18.454 21.3275 18.4116 21.3856 18.3413C21.445 18.2694 21.4747 18.1755 21.4747 18.0595C21.4747 17.9485 21.449 17.8586 21.3977 17.79C21.3478 17.7198 21.2729 17.6773 21.173 17.6626C21.1136 17.6544 20.9428 17.6504 20.6606 17.6504H20.3163ZM20.3163 19.0788V20.0393H20.8712C21.0872 20.0393 21.2243 20.032 21.2823 20.0173C21.3714 19.9977 21.4436 19.9503 21.499 19.8752C21.5557 19.7984 21.5841 19.6963 21.5841 19.5689C21.5841 19.4611 21.5625 19.3696 21.5193 19.2945C21.476 19.2193 21.4133 19.1646 21.3309 19.1303C21.2499 19.096 21.0731 19.0788 20.8003 19.0788H20.3163Z" fill="#E6DAFE"/>
</svg>
