<svg width="32" height="32" viewBox="0 0 32 32" fill="none" xmlns="http://www.w3.org/2000/svg">
<path d="M16 3C8.81862 3 3 8.81862 3 16C3 23.1814 8.81862 29 16 29H16.9234C19.0124 28.8566 20.9669 28.22 22.6614 27.2069H16C9.81379 27.2069 4.7931 22.1952 4.7931 16C4.7931 9.80483 9.81379 4.7931 16 4.7931C22.1862 4.7931 27.2069 9.80483 27.2069 16C27.2069 16.6455 27.1531 17.2821 27.0455 17.8917H28.8655C28.9552 17.2731 29 16.6366 29 16C29 8.81862 23.1814 3 16 3Z" fill="#E6DAFE"/>
<path d="M12.2435 16.0001C12.2435 13.929 13.929 12.2435 16.0001 12.2435C18.0711 12.2435 19.7566 13.929 19.7566 16.0001C19.7566 16.6904 19.5683 17.3359 19.2456 17.8918H21.227C21.4421 17.3001 21.5587 16.6635 21.5587 16.0001C21.5587 12.9338 19.0752 10.4504 16.009 10.4504C12.9428 10.4504 10.4594 12.9338 10.4594 16.0001C10.4594 19.0663 12.9428 21.5497 16.009 21.5497H27.7987C28.0676 20.9759 28.3008 20.3752 28.489 19.7566H16.009C13.938 19.7566 12.2525 18.0711 12.2525 16.0001H12.2435Z" fill="#E6DAFE"/>
<path d="M8.52267 16C8.52267 11.8669 11.8668 8.52278 15.9999 8.52278C20.133 8.52278 23.4772 11.8669 23.4772 16C23.4772 16.6545 23.3965 17.2911 23.2351 17.8917H25.082C25.2075 17.2821 25.2792 16.6455 25.2792 16C25.2792 10.8807 21.1282 6.72071 15.9999 6.72071C10.8716 6.72071 6.7206 10.8807 6.7206 16C6.7206 21.1193 10.8716 25.2793 15.9999 25.2793H25.1537C25.7096 24.7235 26.2206 24.1228 26.6778 23.4773H15.9999C11.8668 23.4773 8.52267 20.1331 8.52267 16Z" fill="#E6DAFE"/>
</svg>
