<svg width="32" height="32" viewBox="0 0 32 32" fill="none" xmlns="http://www.w3.org/2000/svg">
<g clip-path="url(#clip0_14366_238)">
<path d="M11.2069 15.993C11.2436 15.8144 11.4268 15.6803 11.3679 15.4714C11.5302 15.4386 11.61 15.3269 11.6937 15.1889C12.4934 13.85 13.2982 12.5138 14.1096 11.1814C14.9511 9.80051 15.8005 8.42614 16.6956 6.96899C17.4677 8.22905 18.1797 9.41159 18.9126 10.5797C19.9098 12.1708 20.8115 13.8224 21.8938 15.361C21.8964 15.5884 22.0979 15.6895 22.2026 15.8525C21.8938 16.1258 21.6255 15.8735 21.3703 15.7605C19.9674 15.1403 18.5697 14.5083 17.1785 13.8619C16.8814 13.7239 16.642 13.7134 16.3305 13.8579C14.9406 14.5057 13.5338 15.1193 12.1322 15.7421C11.8377 15.8735 11.5511 16.039 11.2082 15.993H11.2069Z" fill="#E6DAFE"/>
<path d="M29.0392 13.2101C28.8704 12.4428 28.114 9.33273 25.4233 6.71407C22.675 4.04023 18.4767 2.43461 14.192 3.17041C8.8826 4.08359 4.08882 8.46816 3.42007 14.4321C2.79582 19.99 5.66842 25.2759 10.6153 27.6738C15.6002 30.0902 21.5221 29.131 25.4612 25.2339C26.4258 24.2787 27.2162 23.2249 27.8274 22.0726C28.1676 21.4301 28.7683 20.1661 29.0981 18.4553C29.3154 17.324 29.5261 15.4241 29.0405 13.2088L29.0392 13.2101ZM9.88637 15.5226C10.5826 14.3769 11.2828 13.2325 11.9881 12.092C13.2654 10.0265 14.5506 7.96624 15.8253 5.89943C16.6288 4.59733 16.6563 4.58288 17.4271 5.83505C19.3274 8.92278 21.2132 12.0184 23.0951 15.1166C23.1959 15.2822 23.4668 15.478 23.2692 15.6711C23.1069 15.8301 22.8739 15.608 22.6724 15.5542C22.4133 15.4845 22.2078 15.2007 21.8924 15.3584C21.895 15.5857 22.0966 15.6869 22.2013 15.8498C22.5585 15.9116 23.1304 15.905 23.1802 16.1757C23.2207 16.399 22.658 16.6658 22.3858 16.7932C20.6766 17.5908 17.5174 18.9415 16.5215 19.3659C16.4181 19.2923 16.2663 19.1859 16.0792 19.061C15.0256 18.3568 12.3585 16.8983 11.5236 16.4122C11.36 16.3176 11.1663 16.2571 11.0694 16.0705C11.0629 16.0574 11.076 16.0206 11.0865 16.0167C11.1244 16.0035 11.165 15.9996 11.2042 15.9917C11.2409 15.813 11.4241 15.679 11.3652 15.4701C10.9831 15.6659 10.6088 15.8827 10.1743 15.9457C10.029 15.9667 9.8458 16.0456 9.77382 15.8735C9.73718 15.7854 9.81963 15.6264 9.88244 15.5213L9.88637 15.5226ZM22.8622 19.0308C20.9475 21.6915 19.0237 24.3457 17.1274 27.0195C16.8002 27.4807 16.6445 27.4768 16.316 27.0169C14.2247 24.0803 12.1059 21.1646 10.0028 18.2372C9.91124 18.1098 9.74896 18.0007 9.78298 17.7773C10.7213 18.1295 11.4398 18.8942 12.4305 19.107L11.3168 17.5014C11.2644 17.4502 11.2121 17.3976 11.161 17.3464C11.2618 17.2833 11.343 17.2951 11.3992 17.4068C12.971 18.3082 14.5519 19.1938 16.1079 20.1201C16.5634 20.3907 16.9076 20.4288 17.3839 20.1319C18.7227 19.2976 20.0995 18.5263 21.4632 17.734C21.6582 17.621 21.8662 17.529 22.145 17.3897C21.8388 18.0769 21.2786 18.4711 21.0849 19.0978C21.6699 19.0755 22.056 18.6393 22.5337 18.3923C22.5651 18.3752 22.5978 18.3607 22.6305 18.345C22.9642 18.1965 23.2692 17.9823 23.684 17.8746C23.4105 18.2595 23.1383 18.6458 22.8622 19.0295V19.0308Z" fill="#E6DAFE"/>
<path d="M21.0862 19.0991L21.132 19.0965C21.1202 19.0847 21.1084 19.0769 21.0967 19.0703C21.094 19.0795 21.0901 19.0886 21.0862 19.0991Z" fill="#E6DAFE"/>
<path d="M21.4631 17.7354C20.0995 18.5277 18.7214 19.299 17.3839 20.1333C16.9088 20.4303 16.5633 20.3922 16.1079 20.1215C14.5519 19.1952 12.9709 18.3096 11.3992 17.4082C11.3429 17.2966 11.2618 17.2834 11.161 17.3478C11.2134 17.399 11.2657 17.4516 11.3167 17.5028L12.4305 19.1085C13.7025 20.8783 14.9746 22.6482 16.2453 24.418C16.6877 25.0343 16.6837 25.033 17.1313 24.418C18.4152 22.6482 19.7029 20.8809 20.9881 19.1111C21.0208 19.0651 21.0561 19.0506 21.0954 19.0704C21.2982 18.4607 21.844 18.0665 22.145 17.3912C21.8662 17.5317 21.6581 17.6224 21.4631 17.7354Z" fill="#E6DAFE"/>
<path d="M20.988 19.1108C21.0299 19.0506 21.077 19.0428 21.1307 19.0951C21.0993 19.26 21.0391 19.1475 20.988 19.1108Z" fill="#E6DAFE"/>
</g>
<defs>
<clipPath id="clip0_14366_238">
<rect width="26" height="26" fill="white" transform="translate(3.33496 2.9917)"/>
</clipPath>
</defs>
</svg>
