<?xml version="1.0" encoding="UTF-8"?>
<!DOCTYPE svg PUBLIC "-//W3C//DTD SVG 1.1//EN" "http://www.w3.org/Graphics/SVG/1.1/DTD/svg11.dtd">
<svg xmlns="http://www.w3.org/2000/svg" version="1.1" width="64px" height="64px" style="shape-rendering:geometricPrecision; text-rendering:geometricPrecision; image-rendering:optimizeQuality; fill-rule:evenodd; clip-rule:evenodd" xmlns:xlink="http://www.w3.org/1999/xlink">
<g><path style="opacity:1" fill="#f2aa36" d="M -0.5,-0.5 C 20.8333,-0.5 42.1667,-0.5 63.5,-0.5C 63.5,20.8333 63.5,42.1667 63.5,63.5C 42.1667,63.5 20.8333,63.5 -0.5,63.5C -0.5,42.1667 -0.5,20.8333 -0.5,-0.5 Z"/></g>
<g><path style="opacity:1" fill="#d6c44f" d="M 54.5,25.5 C 54.2089,26.6491 53.3756,27.3158 52,27.5C 49.1333,27.1614 46.6333,26.1614 44.5,24.5C 46.8907,22.3852 48.2241,19.7186 48.5,16.5C 46.8008,16.3398 45.1341,16.5065 43.5,17C 45.9011,17.805 45.7344,18.6383 43,19.5C 42.3603,21.265 42.5269,22.9317 43.5,24.5C 42.561,24.6262 41.561,24.9595 40.5,25.5C 38.6469,24.3857 38.1469,25.0524 39,27.5C 39.3826,26.944 39.8826,26.6107 40.5,26.5C 40.942,30.8466 41.7753,31.18 43,27.5C 43.9809,33.3254 45.3142,33.6587 47,28.5C 48.4737,31.3249 49.9737,31.6582 51.5,29.5C 52.3798,32.1114 53.0465,34.778 53.5,37.5C 52.4897,40.1828 51.4897,42.8495 50.5,45.5C 47.5189,50.2875 43.1856,53.4541 37.5,55C 15.3502,56.1808 5.51689,45.6808 8,23.5C 17.5432,6.54304 30.7099,3.04304 47.5,13C 51.2706,16.3757 53.6039,20.5424 54.5,25.5 Z"/></g>
<g><path style="opacity:1" fill="#998b14" d="M 21.5,22.5 C 21.4729,24.1993 20.8062,25.5326 19.5,26.5C 18.3509,26.7911 17.6842,27.6244 17.5,29C 17.9759,32.613 19.3092,35.7796 21.5,38.5C 20.2223,38.7822 19.2223,39.4489 18.5,40.5C 16.592,33.3103 16.092,25.977 17,18.5C 17.6409,16.1868 18.9743,14.5202 21,13.5C 23.2478,14.9548 25.7478,15.7882 28.5,16C 26.442,17.4896 25.1087,19.4896 24.5,22C 23.552,22.4828 22.552,22.6495 21.5,22.5 Z"/></g>
<g><path style="opacity:1" fill="#2c2801" d="M 21.5,22.5 C 19.102,21.1177 18.9353,19.451 21,17.5C 21.5,18 22,18.5 22.5,19C 21.6634,20.0113 21.33,21.1779 21.5,22.5 Z"/></g>
<g><path style="opacity:1" fill="#948317" d="M 44.5,24.5 C 44.1667,24.5 43.8333,24.5 43.5,24.5C 42.5269,22.9317 42.3603,21.265 43,19.5C 45.7344,18.6383 45.9011,17.805 43.5,17C 45.1341,16.5065 46.8008,16.3398 48.5,16.5C 48.2241,19.7186 46.8907,22.3852 44.5,24.5 Z"/></g>
<g><path style="opacity:1" fill="#1c1701" d="M 28.5,23.5 C 30.4646,23.9483 30.7979,24.9483 29.5,26.5C 27.4807,25.8671 27.1474,24.8671 28.5,23.5 Z"/></g>
<g><path style="opacity:1" fill="#1b1601" d="M 40.5,25.5 C 40.5,25.8333 40.5,26.1667 40.5,26.5C 39.8826,26.6107 39.3826,26.944 39,27.5C 38.1469,25.0524 38.6469,24.3857 40.5,25.5 Z"/></g>
<g><path style="opacity:1" fill="#f1de6d" d="M 36.5,32.5 C 36.5106,34.0174 37.1772,35.1841 38.5,36C 38.2716,36.3988 37.9382,36.5654 37.5,36.5C 35.3146,36.2964 33.3146,35.6298 31.5,34.5C 30.448,34.6495 29.448,34.4828 28.5,34C 27.2367,31.6142 25.4033,29.7808 23,28.5C 24.8062,31.4142 25.9729,34.4142 26.5,37.5C 26.5,38.5 26.5,39.5 26.5,40.5C 24.8333,39.8333 23.1667,39.1667 21.5,38.5C 19.3092,35.7796 17.9759,32.613 17.5,29C 17.6842,27.6244 18.3509,26.7911 19.5,26.5C 21.2624,26.6427 22.9291,26.3094 24.5,25.5C 28.7679,28.263 32.7679,30.5963 36.5,32.5 Z"/></g>
<g><path style="opacity:1" fill="#f0e162" d="M 43.5,24.5 C 43.8333,24.5 44.1667,24.5 44.5,24.5C 46.6333,26.1614 49.1333,27.1614 52,27.5C 53.3756,27.3158 54.2089,26.6491 54.5,25.5C 55.6453,29.3112 55.8119,33.3112 55,37.5C 54.2458,40.6844 52.7458,43.3511 50.5,45.5C 51.4897,42.8495 52.4897,40.1828 53.5,37.5C 53.0465,34.778 52.3798,32.1114 51.5,29.5C 49.9737,31.6582 48.4737,31.3249 47,28.5C 45.3142,33.6587 43.9809,33.3254 43,27.5C 41.7753,31.18 40.942,30.8466 40.5,26.5C 40.5,26.1667 40.5,25.8333 40.5,25.5C 41.561,24.9595 42.561,24.6262 43.5,24.5 Z"/></g>
<g><path style="opacity:1" fill="#fff6be" d="M 31.5,34.5 C 30.8519,36.0858 30.3519,37.7525 30,39.5C 28.8873,38.695 27.7206,38.0283 26.5,37.5C 25.9729,34.4142 24.8062,31.4142 23,28.5C 25.4033,29.7808 27.2367,31.6142 28.5,34C 29.448,34.4828 30.448,34.6495 31.5,34.5 Z"/></g>
<g><path style="opacity:1" fill="#3b3304" d="M 41.5,34.5 C 39.7673,35.0076 39.434,35.841 40.5,37C 39.2506,37.7401 38.2506,37.5735 37.5,36.5C 37.9382,36.5654 38.2716,36.3988 38.5,36C 37.1772,35.1841 36.5106,34.0174 36.5,32.5C 39.4407,29.5935 41.1073,30.2601 41.5,34.5 Z"/></g>
<g><path style="opacity:1" fill="#9d8a1e" d="M 31.5,34.5 C 33.3146,35.6298 35.3146,36.2964 37.5,36.5C 38.2506,37.5735 39.2506,37.7401 40.5,37C 39.434,35.841 39.7673,35.0076 41.5,34.5C 41.9754,37.3126 40.9754,39.3126 38.5,40.5C 35.4299,40.3677 32.4299,40.701 29.5,41.5C 28.391,41.4431 27.391,41.1098 26.5,40.5C 26.5,39.5 26.5,38.5 26.5,37.5C 27.7206,38.0283 28.8873,38.695 30,39.5C 30.3519,37.7525 30.8519,36.0858 31.5,34.5 Z"/></g>
<g><path style="opacity:1" fill="#453c05" d="M 21.5,38.5 C 23.1667,39.1667 24.8333,39.8333 26.5,40.5C 27.391,41.1098 28.391,41.4431 29.5,41.5C 31.0421,44.1073 30.5421,44.7739 28,43.5C 24.713,44.9479 25.0463,45.6146 29,45.5C 31.8791,45.9512 33.7125,44.7845 34.5,42C 35.448,41.5172 36.448,41.3505 37.5,41.5C 37.428,43.3109 36.5947,44.6443 35,45.5C 31.5395,46.2181 28.0395,46.7181 24.5,47C 22.5498,52.78 20.7165,52.6133 19,46.5C 18.5045,44.5273 18.3379,42.5273 18.5,40.5C 19.2223,39.4489 20.2223,38.7822 21.5,38.5 Z"/></g>
<g><path style="opacity:1" fill="#6d5e03" d="M 38.5,40.5 C 38.5,41.1667 38.1667,41.5 37.5,41.5C 36.448,41.3505 35.448,41.5172 34.5,42C 33.7125,44.7845 31.8791,45.9512 29,45.5C 25.0463,45.6146 24.713,44.9479 28,43.5C 30.5421,44.7739 31.0421,44.1073 29.5,41.5C 32.4299,40.701 35.4299,40.3677 38.5,40.5 Z"/></g>
<g><path style="opacity:1" fill="#877708" d="M 20.5,41.5 C 22.8418,41.7748 22.8418,42.6081 20.5,44C 25.3521,43.5339 25.5187,44.3673 21,46.5C 19.2116,44.9769 19.0449,43.3102 20.5,41.5 Z"/></g>
</svg>
