<svg width="32" height="32" viewBox="0 0 32 32" fill="none" xmlns="http://www.w3.org/2000/svg">
<path d="M16.6201 28C13.6583 28 11.2309 27.3587 9.33767 26.0762C7.599 24.8985 6.49135 23.2569 6.01468 21.1519C5.94187 20.8304 6.14739 20.5169 6.46658 20.4344L10.5644 19.3745C10.918 19.283 11.2728 19.5086 11.3715 19.8602C11.5857 20.6233 11.8848 21.245 12.269 21.7252C12.7881 22.3359 13.414 22.7786 14.1468 23.0535C14.9103 23.2976 15.7347 23.4198 16.6201 23.4198C17.9636 23.4198 18.9559 23.1907 19.5973 22.7328C20.2385 22.2442 20.5591 21.6489 20.5591 20.9464C20.5591 20.2443 20.2537 19.7099 19.6431 19.3435C19.0323 18.9465 18.0552 18.6259 16.7117 18.3816L15.4293 18.1526C13.8415 17.8472 12.3911 17.4351 11.0782 16.9161C9.76512 16.3665 8.71173 15.6183 7.91786 14.6716C7.12398 13.7251 6.72706 12.5039 6.72706 11.0077C6.72706 8.74806 7.55146 7.02293 9.20027 5.832C10.8492 4.61066 13.0171 4 15.7041 4C18.2384 4 20.3453 4.56487 22.0247 5.6946C23.5194 6.70022 24.5547 7.98391 25.1302 9.54581C25.2498 9.87028 25.0583 10.2186 24.7279 10.3203L20.6296 11.5813C20.2721 11.6914 19.9018 11.4681 19.7803 11.1142C19.5015 10.3016 19.0588 9.70117 18.4521 9.31293C17.7193 8.82439 16.8033 8.58013 15.7041 8.58013C14.6048 8.58013 13.7651 8.7786 13.185 9.17553C12.6049 9.54193 12.3148 10.061 12.3148 10.7329C12.3148 11.4657 12.6201 12.0152 13.2308 12.3816C13.8415 12.7174 14.6659 12.9772 15.7041 13.1603L16.9865 13.3893C18.6964 13.6945 20.2385 14.1069 21.6125 14.6259C23.017 15.1145 24.1163 15.8321 24.9101 16.7786C25.7346 17.6946 26.1467 18.9465 26.1467 20.5343C26.1467 22.916 25.2765 24.7633 23.5361 26.0762C21.8262 27.3587 19.5209 28 16.6201 28Z" fill="#E6DAFE"/>
</svg>
