<svg width="32" height="32" viewBox="0 0 32 32" fill="none" xmlns="http://www.w3.org/2000/svg">
<path d="M12.7953 5.33007C13.5159 4.99719 14.3394 4.96655 15.1226 5.0216C15.7512 5.06886 16.3883 5.16857 16.9606 5.43705C17.5062 5.68425 17.9677 6.07789 18.29 6.57124C18.7381 7.25622 18.9207 8.06895 19.0021 8.86714C19.0331 9.3553 19.0642 9.84449 19.0326 10.3337C19.1761 10.2329 19.3158 10.126 19.4609 10.0278C20.4187 9.38282 21.5281 8.93725 22.6872 8.79184C22.8189 8.77574 22.9501 8.76016 23.0823 8.75081H23.5176C23.7237 8.75445 23.9298 8.77003 24.1338 8.79807C24.7474 8.88635 25.3336 9.10239 25.853 9.43163C26.4574 9.81437 26.9484 10.3493 27.3231 10.9449C27.662 11.4871 27.9474 12.0838 27.9881 12.7257C28.0374 13.4236 27.8692 14.12 27.5062 14.7245C27.0019 15.5902 26.2213 16.2731 25.3818 16.8241C26.4215 17.5802 27.3017 18.5898 27.7284 19.7956C27.9822 20.5128 28.0593 21.2772 27.9549 22.0287C27.8452 22.802 27.5523 23.5435 27.1518 24.2181C26.8113 24.7894 26.3113 25.2864 25.6929 25.5756C24.9144 25.9532 24.0064 26.0046 23.1589 25.8633C21.9178 25.6592 20.7619 25.1072 19.742 24.4046C19.3415 24.1262 18.9619 23.8203 18.6059 23.4895C18.5052 23.3981 18.4196 23.2896 18.3007 23.2195C17.8655 24.4804 17.0592 25.6083 16.0521 26.5031C15.469 27.0131 14.8057 27.4467 14.0711 27.7173C13.3794 27.9712 12.6181 28.072 11.8862 27.9447C11.1158 27.8196 10.4032 27.4613 9.79817 26.9913C9.34898 26.6366 8.92495 26.2383 8.62031 25.7553C8.192 25.0849 8.00461 24.2815 8.04423 23.4963C8.08117 22.5579 8.39491 21.6486 8.82965 20.8161C8.96189 20.5564 9.11822 20.3113 9.26974 20.0636C8.45808 20.0885 7.63251 20.0236 6.86048 19.764C6.24049 19.5645 5.68101 19.2187 5.23289 18.7575C4.69214 18.1935 4.34949 17.4675 4.1878 16.7176C4.06198 16.2497 3.99988 15.7678 4.00363 15.2843C3.98275 14.3111 4.0411 13.3011 4.46995 12.4047C4.66002 12.0023 4.94163 11.647 5.29392 11.3661C5.60231 11.1501 5.95299 10.9979 6.32455 10.9195C7.03448 10.7746 7.77439 10.8639 8.46612 11.0514C9.47105 11.324 10.4037 11.7997 11.2748 12.3497C11.097 11.4575 10.9428 10.557 10.9214 9.64663C10.8963 8.67707 10.975 7.67738 11.3861 6.78156C11.6667 6.16462 12.156 5.62089 12.7953 5.33007ZM14.3019 6.98669C14.3629 7.33775 14.4727 7.67842 14.5487 8.02533C14.9647 9.791 15.2854 11.5842 15.3181 13.3971C14.5203 13.4792 13.7799 13.837 13.2327 14.4056C12.7032 14.952 12.3772 15.6541 12.307 16.4009C12.307 16.3437 12.3118 16.2871 12.3134 16.2305C11.2373 15.7216 10.1328 15.2179 8.94047 15.0361C8.09295 14.9218 7.20099 14.9795 6.41717 15.3357C6.11361 15.4474 5.83467 15.7548 5.92247 16.0877C6.09112 16.0192 6.24638 15.9246 6.40807 15.8436C6.78231 15.6691 7.18278 15.5523 7.59396 15.4972C8.39223 15.3996 9.20014 15.5263 9.96468 15.7569C10.7678 15.9916 11.5269 16.35 12.2915 16.6823C12.2861 17.3793 12.5924 18.044 13.0057 18.6007C13.4463 19.1834 14.046 19.6726 14.7548 19.9125L14.7072 19.9094C14.5466 20.0444 14.4695 20.248 14.3511 20.4162C13.5191 21.7031 12.7482 23.0486 11.6629 24.1553C11.3744 24.4331 11.0633 24.6876 10.7324 24.9171C10.9803 24.9343 11.2287 24.8854 11.4504 24.7769C11.9023 24.5495 12.2476 24.1735 12.5613 23.7902C13.4683 22.6285 14.0867 21.2897 14.9031 20.0719C14.9256 20.0371 14.9486 19.9971 14.9192 19.9592C15.4225 20.1077 15.9653 20.0859 16.4718 19.9691C17.2358 19.7795 17.9088 19.3397 18.3762 18.7232L18.3409 18.7726C20.4792 19.5843 22.5496 20.6302 24.3121 22.0718C24.6815 22.3616 24.9963 22.709 25.3465 23.019C25.3861 22.9494 25.4616 22.8845 25.4455 22.7968C25.4209 22.6197 25.3679 22.4239 25.2062 22.3174C23.1632 20.7766 20.9729 19.3698 18.5368 18.487C19.1391 17.5413 19.2061 16.3001 18.7221 15.2942C18.8645 15.1384 18.9898 14.9681 19.1242 14.8081C19.9567 13.8375 20.9461 12.9588 22.1368 12.4141C22.8703 12.0687 23.6659 11.8641 24.4797 11.8106C24.7179 11.7924 24.9615 11.833 25.1955 11.7774C24.1172 11.4949 22.9469 11.6429 21.9414 12.1051C21.2909 12.4078 20.6896 12.8015 20.1575 13.2741C19.6033 13.7695 19.0969 14.3127 18.6439 14.8969C18.6161 14.9416 18.5727 14.9888 18.5904 15.046C17.9907 14.0073 16.7759 13.3172 15.5386 13.3842C15.5536 13.1577 15.5258 12.9318 15.5151 12.7054C15.4744 11.9109 15.4342 11.1158 15.3545 10.3233C15.2704 9.57393 15.1542 8.82144 14.9015 8.10634C14.7543 7.71374 14.5798 7.3149 14.3019 6.98669Z" fill="#E6DAFE"/>
</svg>
