<svg width="32" height="32" viewBox="0 0 32 32" fill="none" xmlns="http://www.w3.org/2000/svg">
<path d="M24.3703 16.8474L27.4958 14.5902L24.0346 4H20.1713L24.3703 16.8474Z" fill="#E6DAFE"/>
<path d="M27.7965 15.5116L16.7894 23.4623L19.9389 25.7369L29 19.1926L27.7965 15.5116Z" fill="#E6DAFE"/>
<path d="M16 24.0325L8.13506 18.351L6.93245 22.033L16 28.5818L19.1504 26.3072L16.0009 24.0325H16Z" fill="#E6DAFE"/>
<path d="M10.3282 8.59144H6.46488L3 19.1926L6.1255 21.4499L10.3282 8.59144Z" fill="#E6DAFE"/>
<path d="M8.43664 17.4305L11.5566 19.6841L13.6824 13.181H9.82555L8.43664 17.4305Z" fill="#E6DAFE"/>
<path d="M16 22.8929L19.1163 20.6421L13.5146 16.5971L12.3239 20.2378L16 22.8929Z" fill="#E6DAFE"/>
<path d="M23.5634 17.4305L22.3737 13.7889L16.7747 17.833L19.89 20.0829L23.5634 17.4305Z" fill="#E6DAFE"/>
<path d="M18.9549 15.1293L22.0748 12.8757L20.6749 8.59144H16.818L18.9549 15.1293Z" fill="#E6DAFE"/>
<path d="M11.3261 8.59144L10.1327 12.2413H16.9905L15.798 8.59144H11.3261Z" fill="#E6DAFE"/>
<path d="M20.3622 7.6352L19.1734 4H7.96538L6.77752 7.6352H20.3622Z" fill="#E6DAFE"/>
</svg>
