<?xml version="1.0" encoding="UTF-8"?>
<!DOCTYPE svg PUBLIC "-//W3C//DTD SVG 1.1//EN" "http://www.w3.org/Graphics/SVG/1.1/DTD/svg11.dtd">
<svg xmlns="http://www.w3.org/2000/svg" version="1.1" width="64px" height="64px" style="shape-rendering:geometricPrecision; text-rendering:geometricPrecision; image-rendering:optimizeQuality; fill-rule:evenodd; clip-rule:evenodd" xmlns:xlink="http://www.w3.org/1999/xlink">
<g><path style="opacity:1" fill="#c6f4d2" d="M -0.5,-0.5 C 20.8333,-0.5 42.1667,-0.5 63.5,-0.5C 63.5,20.8333 63.5,42.1667 63.5,63.5C 42.1667,63.5 20.8333,63.5 -0.5,63.5C -0.5,42.1667 -0.5,20.8333 -0.5,-0.5 Z"/></g>
<g><path style="opacity:1" fill="#030404" d="M 43.5,8.5 C 45.1667,8.5 46.8333,8.5 48.5,8.5C 48.5,10.5 48.5,12.5 48.5,14.5C 46.8333,14.5 45.1667,14.5 43.5,14.5C 43.5,12.5 43.5,10.5 43.5,8.5 Z"/></g>
<g><path style="opacity:1" fill="#050605" d="M 47.5,42.5 C 46.1667,42.5 44.8333,42.5 43.5,42.5C 43.7845,40.5853 43.4511,38.9187 42.5,37.5C 40.8333,37.5 39.1667,37.5 37.5,37.5C 38.5,32.5 36.5,30.5 31.5,31.5C 32.5,26.5 30.5,24.5 25.5,25.5C 25.5,23.8333 25.5,22.1667 25.5,20.5C 24.0813,19.5489 22.4147,19.2155 20.5,19.5C 20.5,18.1667 20.5,16.8333 20.5,15.5C 23.9619,14.5184 27.6286,14.185 31.5,14.5C 31.5,18.1667 31.5,21.8333 31.5,25.5C 36.5,24.5 38.5,26.5 37.5,31.5C 41.1667,31.5 44.8333,31.5 48.5,31.5C 48.815,35.3714 48.4816,39.0381 47.5,42.5 Z"/></g>
<g><path style="opacity:1" fill="#161a17" d="M 38.5,17.5 C 43.1225,16.4082 44.9558,18.0748 44,22.5C 39.3252,24.334 37.4919,22.6673 38.5,17.5 Z"/></g>
<g><path style="opacity:1" fill="#4a5b4e" d="M 20.5,15.5 C 20.5,16.8333 20.5,18.1667 20.5,19.5C 22.4147,19.2155 24.0813,19.5489 25.5,20.5C 23.5,20.5 21.5,20.5 19.5,20.5C 18.1667,20.5 16.8333,20.5 15.5,20.5C 16.5676,19.5655 17.901,19.2322 19.5,19.5C 19.2322,17.901 19.5655,16.5676 20.5,15.5 Z"/></g>
<g><path style="opacity:1" fill="#c3f0cf" d="M 19.5,20.5 C 21.5,20.5 23.5,20.5 25.5,20.5C 25.5,22.1667 25.5,23.8333 25.5,25.5C 30.5,24.5 32.5,26.5 31.5,31.5C 36.5,30.5 38.5,32.5 37.5,37.5C 39.1667,37.5 40.8333,37.5 42.5,37.5C 42.5,39.5 42.5,41.5 42.5,43.5C 40.8333,43.5 39.1667,43.5 37.5,43.5C 37.5,45.1667 37.5,46.8333 37.5,48.5C 31.8236,48.6661 26.1569,48.4994 20.5,48C 19.6198,46.6439 19.2865,45.1439 19.5,43.5C 17.8561,43.7135 16.3561,43.3802 15,42.5C 14.3333,37.1667 14.3333,31.8333 15,26.5C 16.3561,25.6198 17.8561,25.2865 19.5,25.5C 19.5,23.8333 19.5,22.1667 19.5,20.5 Z"/></g>
<g><path style="opacity:1" fill="#0a0d0b" d="M 49.5,19.5 C 53.9083,19.062 55.5749,21.062 54.5,25.5C 52.5,25.5 50.5,25.5 48.5,25.5C 48.3253,23.3792 48.6586,21.3792 49.5,19.5 Z"/></g>
<g><path style="opacity:1" fill="#495b4e" d="M 42.5,37.5 C 43.4511,38.9187 43.7845,40.5853 43.5,42.5C 44.8333,42.5 46.1667,42.5 47.5,42.5C 46.4324,43.4345 45.099,43.7678 43.5,43.5C 43.7678,45.099 43.4345,46.4324 42.5,47.5C 42.5,46.1667 42.5,44.8333 42.5,43.5C 42.5,41.5 42.5,39.5 42.5,37.5 Z"/></g>
<g><path style="opacity:1" fill="#000000" d="M 42.5,43.5 C 42.5,44.8333 42.5,46.1667 42.5,47.5C 41.0813,48.4511 39.4147,48.7845 37.5,48.5C 37.5,46.8333 37.5,45.1667 37.5,43.5C 39.1667,43.5 40.8333,43.5 42.5,43.5 Z"/></g>
<g><path style="opacity:1" fill="#060706" d="M 15.5,20.5 C 16.8333,20.5 18.1667,20.5 19.5,20.5C 19.5,22.1667 19.5,23.8333 19.5,25.5C 17.8561,25.2865 16.3561,25.6198 15,26.5C 14.3333,31.8333 14.3333,37.1667 15,42.5C 16.3561,43.3802 17.8561,43.7135 19.5,43.5C 19.2865,45.1439 19.6198,46.6439 20.5,48C 26.1569,48.4994 31.8236,48.6661 37.5,48.5C 37.7394,50.4672 37.4061,52.3005 36.5,54C 31.1667,54.6667 25.8333,54.6667 20.5,54C 19.5939,52.3005 19.2606,50.4672 19.5,48.5C 17.8333,48.5 16.1667,48.5 14.5,48.5C 14.5,46.8333 14.5,45.1667 14.5,43.5C 12.5328,43.7394 10.6995,43.4061 9,42.5C 8.33333,37.1667 8.33333,31.8333 9,26.5C 10.6995,25.5939 12.5328,25.2606 14.5,25.5C 14.2155,23.5853 14.5489,21.9187 15.5,20.5 Z"/></g>
</svg>
