<svg width="32" height="32" viewBox="0 0 32 32" fill="none" xmlns="http://www.w3.org/2000/svg">
<path d="M5.74996 16.1001H26.25C26.6087 16.1001 26.9527 15.9576 27.2063 15.7039C27.46 15.4503 27.6025 15.1063 27.6025 14.7476C27.6025 14.3889 27.46 14.0449 27.2063 13.7912C26.9527 13.5376 26.6087 13.3951 26.25 13.3951H22L19.72 6.89508C19.4497 6.12554 18.9471 5.45892 18.2816 4.98733C17.6161 4.51574 16.8206 4.26245 16.005 4.26245C15.1893 4.26245 14.3938 4.51574 13.7283 4.98733C13.0629 5.45892 12.5603 6.12554 12.29 6.89508L9.99996 13.3951H5.74996C5.39126 13.3951 5.04724 13.5376 4.7936 13.7912C4.53996 14.0449 4.39746 14.3889 4.39746 14.7476C4.39746 15.1063 4.53996 15.4503 4.7936 15.7039C5.04724 15.9576 5.39126 16.1001 5.74996 16.1001ZM14.835 7.78008C14.9198 7.53886 15.0775 7.32993 15.2862 7.18214C15.4948 7.03434 15.7442 6.95496 16 6.95496C16.2557 6.95496 16.5051 7.03434 16.7138 7.18214C16.9224 7.32993 17.0801 7.53886 17.165 7.78008L19.1325 13.3951H12.8675L14.835 7.78008Z" fill="#E6DAFE"/>
<path d="M26.2498 18.5499H5.7498C5.40596 18.5709 5.08306 18.7222 4.847 18.9731C4.61093 19.2239 4.47949 19.5554 4.47949 19.8999C4.47949 20.2444 4.61093 20.5759 4.847 20.8268C5.08306 21.0776 5.40596 21.229 5.7498 21.2499H7.2498L5.6048 25.9499C5.49028 26.2874 5.51357 26.6564 5.66959 26.9767C5.82561 27.2971 6.10176 27.543 6.43804 27.6609C6.77431 27.7788 7.14352 27.7592 7.46545 27.6064C7.78738 27.4536 8.036 27.18 8.1573 26.8449L10.1148 21.2499H21.8848L23.8423 26.8399C23.9353 27.104 24.1078 27.3328 24.3361 27.4949C24.5644 27.6569 24.8373 27.7443 25.1173 27.7449C25.2698 27.745 25.4212 27.7188 25.5648 27.6674C25.9032 27.549 26.1807 27.301 26.3364 26.978C26.492 26.655 26.513 26.2834 26.3948 25.9449L24.7498 21.2499H26.2498C26.6085 21.2499 26.9525 21.1074 27.2062 20.8538C27.4598 20.6001 27.6023 20.2561 27.6023 19.8974C27.6023 19.5387 27.4598 19.1947 27.2062 18.9411C26.9525 18.6874 26.6085 18.5449 26.2498 18.5449V18.5499Z" fill="#E6DAFE"/>
</svg>
