<svg width="32" height="32" viewBox="0 0 32 32" fill="none" xmlns="http://www.w3.org/2000/svg">
<g clip-path="url(#clip0_6_3998)">
<path d="M26.1553 12.333V14.1636V15.9978V17.8319V19.6625V21.4966V23.3308H28.0001V21.4966V19.6625V17.8319V15.9978V14.1636V12.333H26.1553Z" fill="#E6DAFE"/>
<path d="M24.3067 23.3311H22.4619V25.1617H24.3067H26.155V23.3311H24.3067Z" fill="#E6DAFE"/>
<path d="M26.1551 8.66475V6.83415V5H24.3068H22.462H20.6172V6.83415H22.462H24.3068V8.66475V10.4989V12.333H26.1551V10.4989V8.66475Z" fill="#E6DAFE"/>
<path d="M20.6139 25.1616H18.7691H16.9243H15.076H13.2312H11.3864H11.3829H9.53809V26.9958H11.3829H13.2312H15.076H16.9243H18.7691H20.6139H22.4623V25.1616H20.6175H20.6139Z" fill="#E6DAFE"/>
<path d="M16.9246 6.83398H15.0763H13.2315H11.3867V8.66458H13.2315H15.0763H16.9246H18.7694H20.6178V6.83398H18.7694H16.9246Z" fill="#E6DAFE"/>
<path d="M9.53821 5H7.69342H5.84863V6.83415V8.66475V10.4989V12.333H7.69342V10.4989V8.66475V6.83415H9.53821H11.3865V5H9.53821Z" fill="#E6DAFE"/>
<path d="M9.53821 23.9554V23.3311H7.69342H5.84863V25.1617H7.69342H9.53821V23.9554Z" fill="#E6DAFE"/>
<path d="M4 14.1636V15.9978V17.8319V19.6625V21.4966V23.3308H5.84479V21.4966V19.6625V17.8319V15.9978V14.1636V12.333H4V14.1636Z" fill="#E6DAFE"/>
<path d="M13.2386 15.377H11.3867V17.2217H13.2386V15.377Z" fill="#E6DAFE"/>
<path d="M15.101 17.2183H13.8203V18.4919H15.101V17.2183Z" fill="#E6DAFE"/>
<path d="M10.1446 8.59036V7.44092H8.2998V8.09014V8.59036V9.24314H9.52375V8.59036H10.1446Z" fill="#E6DAFE"/>
<path d="M21.3831 15.377H19.5312V17.2217H21.3831V15.377Z" fill="#E6DAFE"/>
<path d="M18.9467 17.2183H17.666V18.4919H18.9467V17.2183Z" fill="#E6DAFE"/>
<path d="M12.5391 22.7878H13.8198V23.3306H15.104V23.955V23.9798H15.7426V24.59H16.3847H17.0269V23.9798H17.6654V23.955V23.3306H18.9497V22.7878H20.2304V18.4951H18.9497V20.9111H17.6654V20.308H16.3847H15.104V20.9111H13.8198V18.4951H12.5391V22.7878Z" fill="#E6DAFE"/>
<path d="M23.6928 9.24314V8.59036V8.09014V7.44092H21.8516V8.59036H22.4724V9.24314H23.6928Z" fill="#E6DAFE"/>
</g>
<defs>
<clipPath id="clip0_6_3998">
<rect width="24" height="21.9956" fill="white" transform="translate(4 5)"/>
</clipPath>
</defs>
</svg>
