<svg width="32" height="32" viewBox="0 0 32 32" fill="none" xmlns="http://www.w3.org/2000/svg">
<path fill-rule="evenodd" clip-rule="evenodd" d="M29 16.0223C29 10.4872 24.5092 6 18.9695 6C18.711 6 18.4547 6.00976 18.2011 6.02896L3 6.71589L13.344 7.72341L13.3381 7.72742L17.0351 8.00447L12.8765 8.06036C11.6431 9.00415 10.6353 10.2276 9.94819 11.636L6.22409 12.085L9.57265 12.509C9.16302 13.6023 8.93904 14.7862 8.93904 16.0223C8.93904 17.2585 9.16302 18.4424 9.57265 19.5357L6.22409 19.9597L9.94819 20.4087C10.6351 21.8167 11.6425 23.0398 12.8754 23.9835L17.0351 24.0402L13.3381 24.3172C13.34 24.3186 13.342 24.3199 13.344 24.3213L3 25.3288L18.2011 26.0157C18.4547 26.0349 18.711 26.0447 18.9695 26.0447C24.5092 26.0447 29 21.5575 29 16.0223ZM15.2081 16.0223C15.2081 18.098 16.8921 19.7807 18.9695 19.7807C21.0469 19.7807 22.7309 18.098 22.7309 16.0223C22.7309 13.9466 21.0469 12.264 18.9695 12.264C16.8921 12.264 15.2081 13.9466 15.2081 16.0223Z" fill="#E6DAFE"/>
</svg>
