<svg width="32" height="32" viewBox="0 0 32 32" fill="none" xmlns="http://www.w3.org/2000/svg">
<g clip-path="url(#clip0_6_4707)">
<path d="M21.0946 22.1693C19.6634 21.132 17.903 20.5203 16.0001 20.5203C14.0971 20.5203 12.3367 21.132 10.9055 22.1693C9.81586 22.9583 8.91605 23.9944 8.29004 25.1954C10.3753 26.9459 13.0648 28 16.0001 28C18.9353 28 21.6254 26.9459 23.7107 25.1954C23.0841 23.9944 22.1849 22.9583 21.0946 22.1693Z" fill="#E6DAFE"/>
<path d="M16 4C9.37274 4 4 9.37274 4 16C4 17.43 4.25016 18.8015 4.70877 20.0734C4.93155 20.6907 5.20348 21.2844 5.5196 21.8494C6.33852 20.6764 7.34972 19.6478 8.50653 18.809C10.6117 17.2819 13.2004 16.3815 16 16.3815C18.7996 16.3815 21.3883 17.2819 23.4935 18.809C24.6509 19.6478 25.6615 20.6764 26.4804 21.8488C26.7971 21.2838 27.0685 20.6901 27.2912 20.0734C27.7498 18.8015 28 17.43 28 16C28 9.37274 22.6279 4 16 4ZM16 14.4816C13.0548 14.4816 10.3192 15.379 8.05103 16.9147C8.0168 16.6148 7.99938 16.3093 7.99938 16C7.99938 11.5812 11.5812 7.99938 16 7.99938C20.4188 7.99938 24.0006 11.5812 24.0006 16C24.0006 16.3093 23.9832 16.6148 23.949 16.9147C21.6808 15.3783 18.9452 14.4816 16 14.4816Z" fill="#E6DAFE"/>
</g>
<defs>
<clipPath id="clip0_6_4707">
<rect width="24" height="24" fill="white" transform="translate(4 4)"/>
</clipPath>
</defs>
</svg>
