<svg width="32" height="32" viewBox="0 0 32 32" fill="none" xmlns="http://www.w3.org/2000/svg">
<path d="M24.6429 20.1901C24.4679 18.1601 22.3929 16.8026 22.3929 16.8026C22.3929 16.8026 25.0379 16.0851 25.3104 12.9501C25.4829 10.9501 24.2229 8.86262 21.0604 7.93262L22.1504 3.81512L19.5554 3.12762L18.4679 7.23512L16.3154 6.66512L17.4029 2.55762L14.8029 1.87012L13.7154 5.97762L9.53535 4.87012L8.84785 7.46262L11.3929 8.13512L8.07285 20.6776L5.52785 20.0001L4.79785 22.7501L8.97785 23.8576L7.89035 27.9726L10.5004 28.6751L11.5904 24.5601L13.7429 25.1301L12.6429 29.2501L15.2504 29.9326L16.3404 25.8176L16.9429 25.9751C22.0229 27.2501 24.9429 23.6901 24.6429 20.1901ZM15.6954 9.27512C15.6954 9.27512 16.7504 9.54762 18.2654 9.95512C19.7029 10.3426 20.7979 11.6126 20.4604 13.0451C20.1229 14.4776 18.6254 15.3901 17.0529 15.0001C15.6104 14.6401 14.3679 14.2901 14.3679 14.2901L15.6954 9.27512ZM15.8129 22.7276C14.3129 22.3626 12.3754 21.8176 12.3754 21.8176L13.7504 16.6101C13.7504 16.6101 15.5004 17.1101 17.0579 17.4851C18.9204 17.9451 20.0579 19.1676 19.6479 20.8051C19.2379 22.4426 17.8354 23.2201 15.8129 22.7276Z" fill="#E6DAFE"/>
</svg>
