<svg width="32" height="32" viewBox="0 0 32 32" fill="none" xmlns="http://www.w3.org/2000/svg">
<path d="M24.4665 7.51565C22.2013 5.2479 19.1918 4 15.9898 4C9.37817 4 4 9.38326 4 16C4 22.6167 9.37817 28 15.9898 28C19.1918 28 22.203 26.7521 24.4665 24.4844C26.7318 22.2166 27.978 19.2045 27.978 16.0008C27.978 12.7972 26.7326 9.78255 24.4665 7.51734V7.51565ZM15.9898 27.1692C9.83681 27.1692 4.82995 22.1581 4.82995 16C4.82995 9.84189 9.83681 4.8308 15.9898 4.8308C22.1428 4.8308 27.1497 9.84189 27.1497 16C27.1497 22.1581 22.1437 27.1692 15.9898 27.1692Z" fill="#E6DAFE"/>
<path d="M19.926 16.2832C19.1579 15.5965 18.1525 15.1387 17.1784 14.6945L17.1716 14.6919C15.4532 13.9069 13.9679 13.2278 14.073 11.6222C14.1188 11.0101 14.563 10.6405 14.9276 10.4413C15.3379 10.2158 15.883 10.081 16.3866 10.081C16.4468 10.081 16.507 10.0835 16.5646 10.0861C18.0312 10.1844 19.1876 10.8058 20.3185 12.0969L20.3854 12.1758L20.4643 12.1088L20.906 11.7248L20.9848 11.6553L20.9153 11.5764C19.6555 10.1318 18.2872 9.40446 16.6146 9.2917C16.5426 9.28492 16.4654 9.28238 16.3815 9.28238C16.3306 9.28238 16.2755 9.28238 16.2187 9.28492H16.1467C15.0497 9.28492 13.8475 9.64522 12.9328 10.2497C11.8409 10.972 11.2288 11.9655 11.2119 13.0481C11.1686 15.6804 13.3211 16.5663 15.2201 17.3513L15.2251 17.3539L15.2446 17.3615C16.9249 18.0575 18.3737 18.6577 18.3432 20.2651C18.3288 21.3256 16.8121 21.9114 15.7703 21.9114H15.6236V21.914C14.0705 21.8682 12.6836 21.1984 11.5001 19.9294L11.428 19.8522L11.3509 19.9217L10.9211 20.3202L10.8439 20.3922L10.916 20.4685C12.2597 21.9157 13.9179 22.693 15.7135 22.7151H15.7948C16.9537 22.7151 18.2143 22.4031 19.1647 21.8775C20.3549 21.2273 21.0484 20.2795 21.1205 19.2088C21.2018 18.0329 20.811 17.075 19.9251 16.2832H19.926ZM20.332 19.146C20.2718 20.0794 19.5784 20.7034 18.9476 21.0806C19.0697 20.8314 19.1375 20.5601 19.1443 20.2719C19.1587 19.302 18.7866 18.5272 18.0041 17.8981C17.32 17.3488 16.4129 16.9766 15.5346 16.6138C13.7085 15.8627 11.9825 15.1522 12.0138 13.0549C12.0232 12.2487 12.5081 11.4857 13.3796 10.9067C13.4084 10.8872 13.4372 10.8685 13.4686 10.849C13.3652 11.0745 13.3075 11.3102 13.2931 11.5569C13.2236 12.5284 13.5712 13.3253 14.3537 13.9925C15.0378 14.5783 15.9644 14.998 16.8588 15.404L16.8757 15.4117C17.8235 15.8483 18.7213 16.2611 19.3715 16.835C20.0913 17.4683 20.3965 18.2033 20.3312 19.146H20.332Z" fill="#E6DAFE"/>
</svg>
