<?xml version="1.0" encoding="UTF-8"?>
<!DOCTYPE svg PUBLIC "-//W3C//DTD SVG 1.1//EN" "http://www.w3.org/Graphics/SVG/1.1/DTD/svg11.dtd">
<svg xmlns="http://www.w3.org/2000/svg" version="1.1" width="64px" height="64px" style="shape-rendering:geometricPrecision; text-rendering:geometricPrecision; image-rendering:optimizeQuality; fill-rule:evenodd; clip-rule:evenodd" xmlns:xlink="http://www.w3.org/1999/xlink">
<g><path style="opacity:0.484" fill="#032521" d="M 44.5,5.5 C 44.9169,4.87605 45.5836,4.54272 46.5,4.5C 47.7133,4.74716 48.38,5.41383 48.5,6.5C 47.2921,5.76589 45.9587,5.43255 44.5,5.5 Z"/></g>
<g><path style="opacity:0.98" fill="#658082" d="M 44.5,5.5 C 45.9587,5.43255 47.2921,5.76589 48.5,6.5C 49.3382,6.84171 49.6716,7.50838 49.5,8.5C 48.8333,8.5 48.1667,8.5 47.5,8.5C 47.44,7.95691 47.1067,7.62358 46.5,7.5C 45.4822,8.19251 44.4822,8.85917 43.5,9.5C 42.7978,8.88432 41.7978,8.88432 40.5,9.5C 41.5,7.83333 42.8333,6.5 44.5,5.5 Z"/></g>
<g><path style="opacity:1" fill="#d8789d" d="M 47.5,8.5 C 47.7949,13.5636 48.4616,18.5636 49.5,23.5C 47.8207,22.0837 46.1541,20.7503 44.5,19.5C 44.5,18.5 44.5,17.5 44.5,16.5C 42.8212,16.7148 41.8212,16.0481 41.5,14.5C 41.5,14.1667 41.5,13.8333 41.5,13.5C 42.9063,13.0269 43.573,12.0269 43.5,10.5C 43.5,10.1667 43.5,9.83333 43.5,9.5C 44.4822,8.85917 45.4822,8.19251 46.5,7.5C 47.1067,7.62358 47.44,7.95691 47.5,8.5 Z"/></g>
<g><path style="opacity:1" fill="#d3dedf" d="M 43.5,9.5 C 43.5,9.83333 43.5,10.1667 43.5,10.5C 42.0937,10.9731 41.427,11.9731 41.5,13.5C 41.5,13.8333 41.5,14.1667 41.5,14.5C 40.8333,14.5 40.5,14.8333 40.5,15.5C 39.5326,16.8062 38.1993,17.4729 36.5,17.5C 36.5,16.8333 36.5,16.1667 36.5,15.5C 36.3284,14.5084 36.6618,13.8417 37.5,13.5C 39.2624,12.7377 40.2624,11.4044 40.5,9.5C 41.7978,8.88432 42.7978,8.88432 43.5,9.5 Z"/></g>
<g><path style="opacity:0.004" fill="#031512" d="M 13.5,11.5 C 15.5,11.5 16.5,12.5 16.5,14.5C 15.1667,13.8333 14.1667,12.8333 13.5,11.5 Z"/></g>
<g><path style="opacity:0.961" fill="#102c29" d="M 40.5,9.5 C 40.2624,11.4044 39.2624,12.7377 37.5,13.5C 37.7376,11.5956 38.7376,10.2623 40.5,9.5 Z"/></g>
<g><path style="opacity:1" fill="#3f4f53" d="M 43.5,10.5 C 43.573,12.0269 42.9063,13.0269 41.5,13.5C 41.427,11.9731 42.0937,10.9731 43.5,10.5 Z"/></g>
<g><path style="opacity:1" fill="#e9b0c7" d="M 47.5,8.5 C 48.1667,8.5 48.8333,8.5 49.5,8.5C 50.3382,8.84171 50.6716,9.50838 50.5,10.5C 50.5,11.5 50.5,12.5 50.5,13.5C 51.3352,17.3397 51.3352,21.0063 50.5,24.5C 49.8333,24.5 49.5,24.1667 49.5,23.5C 48.4616,18.5636 47.7949,13.5636 47.5,8.5 Z"/></g>
<g><path style="opacity:1" fill="#eaa3be" d="M 8.5,12.5 C 9.5,12.5 10.5,12.5 11.5,12.5C 12.6005,13.6049 13.2671,14.9382 13.5,16.5C 12.7066,20.8805 11.7066,25.2138 10.5,29.5C 10.631,30.2389 10.4643,30.9056 10,31.5C 9.72158,30.5842 9.22158,29.9175 8.5,29.5C 7.16667,23.8333 7.16667,18.1667 8.5,12.5 Z"/></g>
<g><path style="opacity:0.008" fill="#041613" d="M 17.5,15.5 C 19.5,15.5 20.5,16.5 20.5,18.5C 19.1667,17.8333 18.1667,16.8333 17.5,15.5 Z"/></g>
<g><path style="opacity:1" fill="#715564" d="M 41.5,14.5 C 41.8212,16.0481 42.8212,16.7148 44.5,16.5C 44.5,17.5 44.5,18.5 44.5,19.5C 42.8664,18.4188 41.533,17.0855 40.5,15.5C 40.5,14.8333 40.8333,14.5 41.5,14.5 Z"/></g>
<g><path style="opacity:0.325" fill="#0d2723" d="M 13.5,11.5 C 12.8333,11.5 12.1667,11.5 11.5,11.5C 11.5,11.8333 11.5,12.1667 11.5,12.5C 10.5,12.5 9.5,12.5 8.5,12.5C 7.02695,15.0169 6.36029,17.8502 6.5,21C 6.36029,24.1498 7.02695,26.9831 8.5,29.5C 8.62867,31.2161 8.962,32.8828 9.5,34.5C 9.16667,34.5 8.83333,34.5 8.5,34.5C 4.57292,25.9727 4.57292,17.4727 8.5,9C 10.9278,8.25301 12.5944,9.08634 13.5,11.5 Z"/></g>
<g><path style="opacity:1" fill="#f7f8f8" d="M 11.5,11.5 C 8.66438,11.7978 8.16438,11.1311 10,9.5C 10.7172,10.0442 11.2172,10.7109 11.5,11.5 Z"/></g>
<g><path style="opacity:1" fill="#f4f0f2" d="M 8.5,12.5 C 7.16667,18.1667 7.16667,23.8333 8.5,29.5C 7.02695,26.9831 6.36029,24.1498 6.5,21C 6.36029,17.8502 7.02695,15.0169 8.5,12.5 Z"/></g>
<g><path style="opacity:1" fill="#addbeb" d="M 11.5,11.5 C 12.1667,11.5 12.8333,11.5 13.5,11.5C 14.1667,12.8333 15.1667,13.8333 16.5,14.5C 17.1667,14.5 17.5,14.8333 17.5,15.5C 18.1667,16.8333 19.1667,17.8333 20.5,18.5C 20.5569,19.609 20.8902,20.609 21.5,21.5C 20.469,22.2485 19.3024,22.9152 18,23.5C 17.6264,21.5087 16.793,19.842 15.5,18.5C 14.8333,17.8333 14.1667,17.1667 13.5,16.5C 13.2671,14.9382 12.6005,13.6049 11.5,12.5C 11.5,12.1667 11.5,11.8333 11.5,11.5 Z"/></g>
<g><path style="opacity:1" fill="#f3f3f4" d="M 50.5,13.5 C 52.2105,17.8807 52.8772,22.5474 52.5,27.5C 51.5987,26.7095 50.9321,25.7095 50.5,24.5C 51.3352,21.0063 51.3352,17.3397 50.5,13.5 Z"/></g>
<g><path style="opacity:1" fill="#875f6f" d="M 13.5,16.5 C 14.1667,17.1667 14.8333,17.8333 15.5,18.5C 15.33,19.8221 15.6634,20.9887 16.5,22C 15.5838,22.3742 14.7504,22.8742 14,23.5C 13.2838,25.8791 12.1172,27.8791 10.5,29.5C 11.7066,25.2138 12.7066,20.8805 13.5,16.5 Z"/></g>
<g><path style="opacity:1" fill="#1e3c3f" d="M 36.5,15.5 C 36.5,16.1667 36.5,16.8333 36.5,17.5C 35.2905,17.9321 34.2905,18.5987 33.5,19.5C 31.3441,17.8823 29.6774,18.2157 28.5,20.5C 27.0695,20.5792 25.7362,20.2458 24.5,19.5C 23.7025,19.9569 23.3691,20.6236 23.5,21.5C 22.8333,21.5 22.1667,21.5 21.5,21.5C 20.8902,20.609 20.5569,19.609 20.5,18.5C 21.1174,18.6107 21.6174,18.944 22,19.5C 26.9958,18.486 31.8292,17.1526 36.5,15.5 Z"/></g>
<g><path style="opacity:1" fill="#f8fafa" d="M 15.5,18.5 C 16.793,19.842 17.6264,21.5087 18,23.5C 19.3024,22.9152 20.469,22.2485 21.5,21.5C 22.1667,21.5 22.8333,21.5 23.5,21.5C 24.5862,21.62 25.2528,22.2867 25.5,23.5C 26,25.5 26.5,27.5 27,29.5C 27.696,26.5219 28.196,23.5219 28.5,20.5C 29.6774,18.2157 31.3441,17.8823 33.5,19.5C 41.8273,20.1616 47.1606,24.4949 49.5,32.5C 49.1822,33.6473 48.5156,34.4806 47.5,35C 48.448,35.4828 49.448,35.6495 50.5,35.5C 50.5,36.8333 50.5,38.1667 50.5,39.5C 50.5,40.1667 50.5,40.8333 50.5,41.5C 47.5733,47.6727 42.5733,51.5061 35.5,53C 32.318,53.4069 29.1514,53.9069 26,54.5C 22.5418,53.7135 19.0418,53.3802 15.5,53.5C 14.1667,52.8333 12.8333,52.1667 11.5,51.5C 11.9175,50.7784 12.5842,50.2784 13.5,50C 11.3808,49.6582 11.0474,48.8249 12.5,47.5C 11.0813,46.5489 9.41467,46.2155 7.5,46.5C 7.62867,44.7839 7.962,43.1172 8.5,41.5C 9.97782,41.762 11.3112,41.4287 12.5,40.5C 10.4411,39.0488 9.44107,37.0488 9.5,34.5C 8.962,32.8828 8.62867,31.2161 8.5,29.5C 9.22158,29.9175 9.72158,30.5842 10,31.5C 10.4643,30.9056 10.631,30.2389 10.5,29.5C 12.1172,27.8791 13.2838,25.8791 14,23.5C 14.7504,22.8742 15.5838,22.3742 16.5,22C 15.6634,20.9887 15.33,19.8221 15.5,18.5 Z"/></g>
<g><path style="opacity:1" fill="#a4aeb3" d="M 28.5,20.5 C 28.196,23.5219 27.696,26.5219 27,29.5C 26.5,27.5 26,25.5 25.5,23.5C 25.2528,22.2867 24.5862,21.62 23.5,21.5C 23.3691,20.6236 23.7025,19.9569 24.5,19.5C 25.7362,20.2458 27.0695,20.5792 28.5,20.5 Z"/></g>
<g><path style="opacity:1" fill="#8ccde3" d="M 40.5,15.5 C 41.533,17.0855 42.8664,18.4188 44.5,19.5C 46.1541,20.7503 47.8207,22.0837 49.5,23.5C 49.5,24.1667 49.8333,24.5 50.5,24.5C 50.9321,25.7095 51.5987,26.7095 52.5,27.5C 52.8333,27.5 53.1667,27.5 53.5,27.5C 52.5,30.1667 51.5,32.8333 50.5,35.5C 49.448,35.6495 48.448,35.4828 47.5,35C 48.5156,34.4806 49.1822,33.6473 49.5,32.5C 47.1606,24.4949 41.8273,20.1616 33.5,19.5C 34.2905,18.5987 35.2905,17.9321 36.5,17.5C 38.1993,17.4729 39.5326,16.8062 40.5,15.5 Z"/></g>
<g><path style="opacity:0.971" fill="#082621" d="M 50.5,10.5 C 51.9265,12.1484 52.7599,14.1484 53,16.5C 53.4986,20.1516 53.6653,23.8183 53.5,27.5C 53.1667,27.5 52.8333,27.5 52.5,27.5C 52.8772,22.5474 52.2105,17.8807 50.5,13.5C 50.5,12.5 50.5,11.5 50.5,10.5 Z"/></g>
<g><path style="opacity:1" fill="#475d62" d="M 53.5,27.5 C 55.5848,29.6845 56.5848,32.3511 56.5,35.5C 54.6119,34.7249 52.6119,34.7249 50.5,35.5C 51.5,32.8333 52.5,30.1667 53.5,27.5 Z"/></g>
<g><path style="opacity:1" fill="#9ad6eb" d="M 56.5,35.5 C 55.9694,38.7794 53.9694,40.1128 50.5,39.5C 50.5,38.1667 50.5,36.8333 50.5,35.5C 52.6119,34.7249 54.6119,34.7249 56.5,35.5 Z"/></g>
<g><path style="opacity:1" fill="#13312c" d="M 39.5,34.5 C 44.2624,35.0925 45.5957,37.5925 43.5,42C 38.6363,41.7743 37.303,39.2743 39.5,34.5 Z"/></g>
<g><path style="opacity:1" fill="#bdc6c4" d="M 40.5,36.5 C 42.337,36.6395 42.6704,37.3061 41.5,38.5C 40.7025,38.0431 40.3691,37.3764 40.5,36.5 Z"/></g>
<g><path style="opacity:1" fill="#9ba5a6" d="M 8.5,34.5 C 8.83333,34.5 9.16667,34.5 9.5,34.5C 9.44107,37.0488 10.4411,39.0488 12.5,40.5C 11.3112,41.4287 9.97782,41.762 8.5,41.5C 8.5,39.8333 8.5,38.1667 8.5,36.5C 8.5,35.8333 8.5,35.1667 8.5,34.5 Z"/></g>
<g><path style="opacity:1" fill="#062722" d="M 19.5,39.5 C 20.6129,40.9464 20.7796,42.6131 20,44.5C 18.2859,45.9255 16.9525,45.5922 16,43.5C 14.8397,39.4985 16.0064,38.1652 19.5,39.5 Z"/></g>
<g><path style="opacity:1" fill="#b8c2c1" d="M 19.5,39.5 C 19.3605,41.337 18.6939,41.6704 17.5,40.5C 17.9569,39.7025 18.6236,39.3691 19.5,39.5 Z"/></g>
<g><path style="opacity:0.624" fill="#1c3838" d="M 56.5,35.5 C 57.4268,37.5762 59.0935,38.7428 61.5,39C 56.1667,40.6667 56.1667,42.3333 61.5,44C 60.2068,44.49 58.8734,44.6567 57.5,44.5C 57.33,45.8221 57.6634,46.9887 58.5,48C 55.9398,48.3838 53.6064,49.2171 51.5,50.5C 51.9528,49.5416 52.6195,48.7083 53.5,48C 52.8333,47.6667 52.1667,47.3333 51.5,47C 53.3839,46.7837 55.0506,46.117 56.5,45C 54.0087,44.3741 54.0087,43.5407 56.5,42.5C 54.5641,42.638 52.5641,42.3047 50.5,41.5C 50.5,40.8333 50.5,40.1667 50.5,39.5C 53.9694,40.1128 55.9694,38.7794 56.5,35.5 Z"/></g>
<g><path style="opacity:1" fill="#8ed2e9" d="M 50.5,41.5 C 52.5641,42.3047 54.5641,42.638 56.5,42.5C 54.0087,43.5407 54.0087,44.3741 56.5,45C 55.0506,46.117 53.3839,46.7837 51.5,47C 52.1667,47.3333 52.8333,47.6667 53.5,48C 52.6195,48.7083 51.9528,49.5416 51.5,50.5C 46.7658,52.7685 41.7658,54.2685 36.5,55C 37.7383,55.69 37.7383,56.19 36.5,56.5C 33.5,56.5 30.5,56.5 27.5,56.5C 23.6836,55.5176 19.6836,54.8509 15.5,54.5C 15.5,54.1667 15.5,53.8333 15.5,53.5C 19.0418,53.3802 22.5418,53.7135 26,54.5C 29.1514,53.9069 32.318,53.4069 35.5,53C 42.5733,51.5061 47.5733,47.6727 50.5,41.5 Z"/></g>
<g><path style="opacity:0.507" fill="#092922" d="M 8.5,36.5 C 8.5,38.1667 8.5,39.8333 8.5,41.5C 7.962,43.1172 7.62867,44.7839 7.5,46.5C 6.87605,46.0831 6.54272,45.4164 6.5,44.5C 6.96443,41.6507 7.6311,38.984 8.5,36.5 Z"/></g>
<g><path style="opacity:1" fill="#284542" d="M 25.5,42.5 C 26.8734,42.3433 28.2068,42.51 29.5,43C 28.5309,46.0748 26.5309,47.0748 23.5,46C 24.5,45.6667 25.5,45.3333 26.5,45C 25.7476,44.3292 25.4142,43.4959 25.5,42.5 Z"/></g>
<g><path style="opacity:0.561" fill="#062522" d="M 7.5,46.5 C 9.41467,46.2155 11.0813,46.5489 12.5,47.5C 11.5,47.5 10.5,47.5 9.5,47.5C 9.22911,49.3797 9.89578,50.713 11.5,51.5C 12.8333,52.1667 14.1667,52.8333 15.5,53.5C 15.5,53.8333 15.5,54.1667 15.5,54.5C 14.2652,54.7214 13.2652,55.3881 12.5,56.5C 12.0604,55.302 11.727,54.1353 11.5,53C 10.2161,52.3162 9.04946,52.4829 8,53.5C 7.64657,52.3284 7.81324,51.1618 8.5,50C 7.61609,48.902 6.61609,48.402 5.5,48.5C 6.24269,47.8182 6.90935,47.1515 7.5,46.5 Z"/></g>
<g><path style="opacity:1" fill="#889699" d="M 12.5,47.5 C 11.0474,48.8249 11.3808,49.6582 13.5,50C 12.5842,50.2784 11.9175,50.7784 11.5,51.5C 9.89578,50.713 9.22911,49.3797 9.5,47.5C 10.5,47.5 11.5,47.5 12.5,47.5 Z"/></g>
<g><path style="opacity:0.894" fill="#16312e" d="M 51.5,50.5 C 53.1128,51.8381 53.6128,53.5048 53,55.5C 48.5924,59.1167 43.759,61.7834 38.5,63.5C 33.8333,63.5 29.1667,63.5 24.5,63.5C 22.0972,62.8692 19.7639,61.8692 17.5,60.5C 16.2528,58.9936 16.2528,57.4936 17.5,56C 16.5842,55.7216 15.9175,55.2216 15.5,54.5C 19.6836,54.8509 23.6836,55.5176 27.5,56.5C 26.7611,56.369 26.0944,56.5357 25.5,57C 27.0175,58.6851 28.6841,60.1851 30.5,61.5C 32.5441,59.7806 34.5441,58.1139 36.5,56.5C 37.7383,56.19 37.7383,55.69 36.5,55C 41.7658,54.2685 46.7658,52.7685 51.5,50.5 Z"/></g>
<g><path style="opacity:1" fill="#f7f9f9" d="M 27.5,56.5 C 30.5,56.5 33.5,56.5 36.5,56.5C 34.5441,58.1139 32.5441,59.7806 30.5,61.5C 28.6841,60.1851 27.0175,58.6851 25.5,57C 26.0944,56.5357 26.7611,56.369 27.5,56.5 Z"/></g>
</svg>
