<?xml version="1.0" encoding="UTF-8"?>
<!DOCTYPE svg PUBLIC "-//W3C//DTD SVG 1.1//EN" "http://www.w3.org/Graphics/SVG/1.1/DTD/svg11.dtd">
<svg xmlns="http://www.w3.org/2000/svg" version="1.1" width="64px" height="64px" style="shape-rendering:geometricPrecision; text-rendering:geometricPrecision; image-rendering:optimizeQuality; fill-rule:evenodd; clip-rule:evenodd" xmlns:xlink="http://www.w3.org/1999/xlink">
<g><path style="opacity:1" fill="#878d71" d="M -0.5,-0.5 C 20.8333,-0.5 42.1667,-0.5 63.5,-0.5C 63.5,20.8333 63.5,42.1667 63.5,63.5C 42.1667,63.5 20.8333,63.5 -0.5,63.5C -0.5,42.1667 -0.5,20.8333 -0.5,-0.5 Z"/></g>
<g><path style="opacity:1" fill="#1e1005" d="M 25.5,15.5 C 26.209,14.596 27.209,14.2627 28.5,14.5C 29.0283,15.7206 29.695,16.8873 30.5,18C 30.1667,18.1667 29.8333,18.3333 29.5,18.5C 28.3578,17.1738 27.0245,16.1738 25.5,15.5 Z"/></g>
<g><path style="opacity:1" fill="#090703" d="M 19.5,16.5 C 20.3287,19.4686 20.4954,22.4686 20,25.5C 19.5831,26.756 18.7498,27.4226 17.5,27.5C 15.4336,28.2481 13.6002,27.5814 12,25.5C 11.5026,22.854 11.3359,20.1873 11.5,17.5C 14.1272,16.9084 16.7938,16.5751 19.5,16.5 Z"/></g>
<g><path style="opacity:1" fill="#a47f3f" d="M 32.5,32.5 C 31.1667,32.5 29.8333,32.5 28.5,32.5C 24.8491,30.6798 21.1824,29.0131 17.5,27.5C 18.7498,27.4226 19.5831,26.756 20,25.5C 20.4954,22.4686 20.3287,19.4686 19.5,16.5C 21.5648,16.4828 23.5648,16.1495 25.5,15.5C 27.0245,16.1738 28.3578,17.1738 29.5,18.5C 29.8333,18.3333 30.1667,18.1667 30.5,18C 29.695,16.8873 29.0283,15.7206 28.5,14.5C 30.1172,13.962 31.7839,13.6287 33.5,13.5C 34.0325,8.20299 34.8658,8.20299 36,13.5C 36.5,12.5 37,11.5 37.5,10.5C 38.5,9.16667 39.5,9.16667 40.5,10.5C 39.7425,14.2725 39.7425,18.1058 40.5,22C 41.3992,28.5034 38.7325,32.0034 32.5,32.5 Z"/></g>
<g><path style="opacity:1" fill="#452e17" d="M 31.5,15.5 C 35.1954,14.8738 36.0288,15.8738 34,18.5C 32.583,17.9221 31.7496,16.9221 31.5,15.5 Z"/></g>
<g><path style="opacity:1" fill="#9aa1a0" d="M 41.5,42.5 C 40.5416,42.9528 39.7083,43.6195 39,44.5C 38.5172,43.552 38.3505,42.552 38.5,41.5C 38.631,40.7611 38.4643,40.0944 38,39.5C 34.108,39.829 30.608,40.829 27.5,42.5C 26.5416,42.0472 25.7083,41.3805 25,40.5C 24.5357,41.0944 24.369,41.7611 24.5,42.5C 23.6554,41.3285 22.9887,39.9952 22.5,38.5C 23.8333,37.5 23.8333,36.5 22.5,35.5C 22.4142,34.5041 22.7476,33.6708 23.5,33C 25.3806,33.096 27.0473,32.9293 28.5,32.5C 29.8333,32.5 31.1667,32.5 32.5,32.5C 35.6348,32.4101 38.8014,32.4101 42,32.5C 44.1277,36.0248 43.9611,39.3582 41.5,42.5 Z"/></g>
<g><path style="opacity:1" fill="#252e24" d="M 22.5,35.5 C 23.8333,36.5 23.8333,37.5 22.5,38.5C 21.1667,37.5 21.1667,36.5 22.5,35.5 Z"/></g>
<g><path style="opacity:1" fill="#273534" d="M 38.5,41.5 C 37.299,42.7504 35.299,43.7504 32.5,44.5C 30.4155,43.6574 28.7488,42.9908 27.5,42.5C 30.608,40.829 34.108,39.829 38,39.5C 38.4643,40.0944 38.631,40.7611 38.5,41.5 Z"/></g>
<g><path style="opacity:1" fill="#8bb4ab" d="M 27.5,42.5 C 28.7488,42.9908 30.4155,43.6574 32.5,44.5C 35.299,43.7504 37.299,42.7504 38.5,41.5C 38.3505,42.552 38.5172,43.552 39,44.5C 39.7083,43.6195 40.5416,42.9528 41.5,42.5C 42.2564,46.8852 42.2564,50.5519 41.5,53.5C 37.3474,52.9802 33.3474,52.9802 29.5,53.5C 28.791,52.596 27.791,52.2627 26.5,52.5C 26.4512,48.9219 25.7846,45.5885 24.5,42.5C 24.369,41.7611 24.5357,41.0944 25,40.5C 25.7083,41.3805 26.5416,42.0472 27.5,42.5 Z"/></g>
<g><path style="opacity:1" fill="#cbd5ba" d="M 28.5,54.5 C 29.1098,55.391 29.4431,56.391 29.5,57.5C 27.0225,57.9492 25.0225,57.2825 23.5,55.5C 24.9653,53.5764 26.632,53.2431 28.5,54.5 Z"/></g>
<g><path style="opacity:1" fill="#6e4d42" d="M 41.5,53.5 C 42.8012,55.456 42.3012,57.1226 40,58.5C 37.0726,54.5476 34.2392,54.5476 31.5,58.5C 30.8165,58.1373 30.1499,57.8039 29.5,57.5C 29.4431,56.391 29.1098,55.391 28.5,54.5C 29.1667,54.5 29.5,54.1667 29.5,53.5C 33.3474,52.9802 37.3474,52.9802 41.5,53.5 Z"/></g>
</svg>
