<svg width="32" height="32" viewBox="0 0 32 32" fill="none" xmlns="http://www.w3.org/2000/svg">
<path d="M25.9282 16.0048H23.4014C22.6462 16.0048 22.0363 16.6341 22.0363 17.4086V21.1844C22.0363 21.9589 21.4264 22.5881 20.6712 22.5881H10.622C9.86687 22.5881 9.25695 23.2174 9.25695 23.9919V26.5962C9.25695 27.3707 9.86687 28 10.622 28H21.2521C22.0072 28 22.6075 27.3707 22.6075 26.5962V24.505C22.6075 23.7305 23.2174 23.1787 23.9725 23.1787H25.9282C26.6833 23.1787 27.2932 22.5494 27.2932 21.7749V17.3893C27.2932 16.6148 26.6833 15.9952 25.9282 15.9952V16.0048Z" fill="#E6DAFE"/>
<path d="M9.25695 10.8253C9.25695 10.0508 9.86688 9.42154 10.622 9.42154H20.6615C21.4167 9.42154 22.0266 8.79225 22.0266 8.01775V5.40379C22.0266 4.62929 21.4167 4 20.6615 4H10.0411C9.286 4 8.67608 4.62929 8.67608 5.40379V7.40782C8.67608 8.18233 8.06615 8.81161 7.31101 8.81161H5.36507C4.60992 8.81161 4 9.4409 4 10.2154V14.6107C4 15.3852 4.60992 15.9855 5.36507 15.9855H7.89189C8.64703 15.9855 9.25695 15.3562 9.25695 14.5817V10.8156V10.8253Z" fill="#E6DAFE"/>
<path d="M14.4558 13.265H16.8858C17.6797 13.265 18.3187 13.9233 18.3187 14.7365V17.2343C18.3187 18.0475 17.6797 18.7059 16.8858 18.7059H14.4558C13.662 18.7059 13.023 18.0475 13.023 17.2343V14.7365C13.023 13.9233 13.662 13.265 14.4558 13.265Z" fill="#E6DAFE"/>
</svg>
