<svg width="32" height="32" viewBox="0 0 32 32" fill="none" xmlns="http://www.w3.org/2000/svg">
<path d="M16.0001 29.6475L4.18262 22.8225V9.17754L16.0001 2.35254L27.8176 9.17754V22.8225L16.0001 29.6475ZM5.56512 22.025L16.0001 28.05L26.4351 22.025V9.97504L16.0001 3.95004L5.56512 9.97504V22.025Z" fill="#E6DAFE"/>
<path d="M12.9178 15.2546L9.79827 14.2367L9.98763 16.7921L12.9178 15.2546Z" fill="#E6DAFE"/>
<path d="M9.48891 14.6386L8.07626 17.5519L9.65968 16.9486L9.48891 14.6386Z" fill="#E6DAFE"/>
<path d="M9.75853 17.2726L8.00012 17.9419L10.0062 20.835L10.598 18.8431L9.75853 17.2726Z" fill="#E6DAFE"/>
<path d="M13.578 17.0509L13.2331 15.4712L10.068 17.1322L10.8102 18.5216C10.8195 18.5207 10.8288 18.5207 10.8381 18.5216C10.844 18.5216 10.8508 18.5233 10.8576 18.525C10.8719 18.5283 10.8863 18.5334 10.8998 18.541L13.5916 19.867L13.2086 17.6449L13.1849 17.5062C13.1748 17.4486 13.1951 17.3894 13.239 17.3505L13.578 17.0509Z" fill="#E6DAFE"/>
<path d="M13.0708 20.8832L14.3668 24.3618L13.693 20.4559L13.0708 20.8832Z" fill="#E6DAFE"/>
<path d="M11.1492 21.9629L12.6278 23.9751L14.1951 24.8695L12.7766 21.0626L11.1492 21.9629Z" fill="#E6DAFE"/>
<path d="M10.1931 22.1381L11.0342 23.0655L11.905 23.5622L10.8195 22.0848L10.1931 22.1381Z" fill="#E6DAFE"/>
<path d="M10.6766 19.7672L10.0705 21.8089L10.7256 21.7531L10.6766 19.7672Z" fill="#E6DAFE"/>
<path d="M11.0604 21.6254L12.5914 20.7784L10.9987 19.1216L11.0604 21.6254Z" fill="#E6DAFE"/>
<path d="M13.4816 20.1903L11.6091 19.2688L12.889 20.5981L13.4816 20.1903Z" fill="#E6DAFE"/>
<path d="M13.5721 17.7617L14.8638 25.2528L15.6036 25.7013L14.699 18.2618L13.5721 17.7617Z" fill="#E6DAFE"/>
<path d="M13.6609 17.4301L14.7743 17.9251L16.0424 15.3189L13.6609 17.4301Z" fill="#E6DAFE"/>
<path d="M16.5682 15.0126L15.1234 17.9809L18.0569 18.0317L16.5682 15.0126Z" fill="#E6DAFE"/>
<path d="M19.4924 17.3556L17.0839 15.2935L18.4036 17.9699L19.4924 17.3556Z" fill="#E6DAFE"/>
<path d="M18.396 20.7055L19.3056 20.2004L19.5812 17.694L18.494 18.3084L18.3232 20.7859C18.3376 20.7521 18.363 20.7233 18.396 20.7055Z" fill="#E6DAFE"/>
<path d="M15.9713 25.9239L16.0973 26L17.6858 25.0989L18.1499 18.3719L15.0465 18.3186L15.9713 25.9239Z" fill="#E6DAFE"/>
<path d="M20.3877 19.9872L18.7856 20.8765L19.3039 21.2759L20.3877 19.9872Z" fill="#E6DAFE"/>
<path d="M18.6098 21.1684L18.166 24.8263L18.1888 24.8136L19.1348 21.572L18.6098 21.1684Z" fill="#E6DAFE"/>
<path d="M19.4357 21.7455L18.6106 24.5742L20.3775 23.5715L21.0327 22.4944L19.4357 21.7455Z" fill="#E6DAFE"/>
<path d="M20.982 23.2296L21.9373 22.6872L21.9939 22.6119L21.3683 22.5933L20.982 23.2296Z" fill="#E6DAFE"/>
<path d="M21.3345 20.4179L21.436 22.2566L22.0726 22.2752L21.3345 20.4179Z" fill="#E6DAFE"/>
<path d="M20.9634 19.8281L19.6006 21.4485L21.091 22.1475L20.9634 19.8281Z" fill="#E6DAFE"/>
<path d="M21.3421 19.5235L22.1004 21.4316L25.0001 17.2871L22.8452 16.512L21.3421 19.5235Z" fill="#E6DAFE"/>
<path d="M23.2138 13.4218L22.9416 16.187L24.9291 16.9021L23.2138 13.4218Z" fill="#E6DAFE"/>
<path d="M21.113 19.2239L22.5358 16.374L18.9691 14.4828L18.6064 16.1515L19.8956 17.2549C19.937 17.2913 19.959 17.3454 19.9539 17.4004V17.4021L19.6674 19.999L21.0183 19.2493C21.0183 19.2493 21.0234 19.2459 21.0259 19.245C21.0327 19.2417 21.0394 19.2383 21.0462 19.2357C21.0521 19.2332 21.0572 19.2315 21.0631 19.2307C21.0665 19.229 21.069 19.2281 21.0715 19.2281C21.0834 19.2256 21.0952 19.2239 21.1079 19.2239H21.113Z" fill="#E6DAFE"/>
<path d="M22.6178 16.0339L22.9095 13.0587L19.2811 14.2637L22.6178 16.0339Z" fill="#E6DAFE"/>
<path d="M18.6284 14.4609L18.6867 14.1918C18.6994 14.1334 18.7417 14.086 18.7983 14.0674L18.915 14.0285L20.2828 13.575L20.6446 10.0981L19.0029 9.37291L18.6284 14.4609Z" fill="#E6DAFE"/>
<path d="M19.9294 9.41264L17.6003 7.31416L18.9572 8.98364L19.9294 9.41264Z" fill="#E6DAFE"/>
<path d="M13.2889 15.0202L13.4039 15.0575C13.4605 15.0761 13.5036 15.1235 13.5163 15.1818L13.868 16.7938L14.0827 16.6042L13.3016 9.42202L11.9092 10.3841L12.6743 14.8188L13.2889 15.0202Z" fill="#E6DAFE"/>
<path d="M13.6271 9.29079L14.393 16.3283L16.4549 14.5015C16.4854 14.4752 16.5251 14.4592 16.5665 14.4592C16.608 14.4592 16.6468 14.4744 16.6773 14.4998L18.1905 15.7952L18.6699 9.29079H13.6271Z" fill="#E6DAFE"/>
<path d="M13.8351 8.34143L12.9897 9.22652L13.3211 8.99721L13.8351 8.34143Z" fill="#E6DAFE"/>
<path d="M18.4965 8.9523L16.0973 6.00004L13.786 8.9523H18.4965Z" fill="#E6DAFE"/>
</svg>
