<svg width="32" height="32" viewBox="0 0 32 32" fill="none" xmlns="http://www.w3.org/2000/svg">
<path d="M9.99947 9.99999C9.99947 6.68607 12.6861 4 15.9995 4C19.3139 4 21.9995 6.68607 21.9995 9.99999H9.99947ZM9.99947 21.9995C9.99947 18.6861 12.6861 15.9995 15.9995 15.9995C12.6861 15.9995 9.99947 13.3139 9.99947 9.99999C6.68608 9.99999 4 12.6861 4 15.9995C4 19.3139 6.68608 21.9995 9.99947 21.9995ZM9.99947 21.9995C9.99947 25.3139 12.6861 27.9995 15.9995 27.9995C19.3139 27.9995 21.9995 25.3139 21.9995 21.9995H9.99947ZM15.9995 15.9995C19.3139 15.9995 21.9995 18.6861 21.9995 21.9995C25.3134 21.9995 28 19.3139 28 15.9995C28 12.6861 25.3134 9.99999 21.9995 9.99999C21.9995 13.3139 19.3139 15.9995 15.9995 15.9995Z" fill="#E6DAFE"/>
</svg>
