<svg width="32" height="32" viewBox="0 0 32 32" fill="none" xmlns="http://www.w3.org/2000/svg">
<path fill-rule="evenodd" clip-rule="evenodd" d="M27.0721 19.4449L26.6366 17.9526L25.2065 17.4548L22.283 15.5881L19.3596 12.7269V10.799L17.4306 8.87114V8H16.4361L14.1338 8.43557L12.7037 10.799L11.6459 12.7269L9.71805 14.5936V15.5881L8.2869 17.0193L7.78911 16.5215L3.93336 18.3882L3 18.8849V20.8139L4.05781 21.3117L5.92346 20.3783L8.34912 20.7516V22.6173L9.78028 23.1151L11.7081 21.2494H13.1393V22.1817L12.6415 23.1151L13.326 24.0484L15.565 23.1151L15.0672 21.8084L15.565 19.4449H16.4983V20.3783L17.9284 20.8761L18.4262 22.3062L19.4218 23.2395L20.4163 22.3062L23.2775 21.3739L22.3452 20.4405L21.3497 18.5126H20.3541L20.8519 19.9427L21.3497 20.4405L20.3541 21.3117H19.3596L18.364 19.4449V18.4504L16.4361 16.5837L17.4306 15.6503L15.5027 13.7847L16.4361 12.8513V10.799L17.4306 9.86565L18.8618 11.2968L18.364 12.7269L19.3596 13.6602L21.2874 16.5215L23.2153 17.4548L25.641 19.8805L27.0721 20.3783V21.3117H28.0055L29 20.3783L27.0721 19.4449Z" fill="#E6DAFE"/>
</svg>
