<svg width="32" height="32" viewBox="0 0 32 32" fill="none" xmlns="http://www.w3.org/2000/svg">
<path d="M15.6877 12.0797C16.2501 12.0797 16.7129 11.7871 16.7754 11.4095L17.331 5.1303C17.331 4.50952 16.6044 4 15.6898 4C14.7765 4 14.0506 4.50952 14.0506 5.1303L14.6048 11.4095C14.6666 11.7871 15.1294 12.0797 15.6898 12.0797H15.6877Z" fill="#E6DAFE"/>
<path d="M12.2941 14.0409C12.5763 13.5547 12.5543 13.0074 12.2577 12.765L7.0965 9.14474C6.56016 8.83436 5.75536 9.20858 5.29871 10.0004C4.84068 10.7907 4.92171 11.6745 5.45733 11.9849L11.1713 14.6458C11.5291 14.7784 12.0159 14.5236 12.2961 14.0374L12.2941 14.0409Z" fill="#E6DAFE"/>
<path d="M19.0841 14.0374C19.3656 14.5236 19.8504 14.7784 20.2082 14.6458L25.9229 11.9849C26.4613 11.6745 26.5382 10.7908 26.0836 10.0004C25.6249 9.20862 24.8187 8.83435 24.2837 9.14474L19.1225 12.765C18.8273 13.0074 18.8053 13.5547 19.0862 14.0409L19.0841 14.0374Z" fill="#E6DAFE"/>
<path d="M15.6877 19.9224C16.2501 19.9224 16.7129 20.2129 16.7754 20.5906L17.331 26.869C17.331 27.4912 16.6044 28 15.6898 28C14.7765 28 14.0506 27.4912 14.0506 26.869L14.6048 20.5906C14.6666 20.2129 15.1294 19.9224 15.6898 19.9224H15.6877Z" fill="#E6DAFE"/>
<path d="M19.0841 17.9612C19.3656 17.4744 19.8504 17.221 20.2082 17.3556L25.9229 20.0138C26.4613 20.3248 26.5382 21.2093 26.0836 22.001C25.6249 22.79 24.8187 23.165 24.2837 22.8553L19.1225 19.2385C18.8273 18.9933 18.8053 18.446 19.0862 17.9606L19.0841 17.9612Z" fill="#E6DAFE"/>
<path d="M12.2941 17.9605C12.5763 18.446 12.5543 18.9933 12.2577 19.2384L7.0965 22.8553C6.56019 23.165 5.75538 22.79 5.29873 22.001C4.84068 21.2093 4.92171 20.3248 5.45733 20.0137L11.1713 17.3555C11.5291 17.2209 12.0159 17.4743 12.2961 17.9612L12.2941 17.9605Z" fill="#E6DAFE"/>
</svg>
