<svg width="32" height="32" viewBox="0 0 32 32" fill="none" xmlns="http://www.w3.org/2000/svg">
<path d="M5.67277 18.0127V14H6.58678V18.0127H5.67277ZM23.4403 16.5135C23.4403 15.5438 22.6879 14.9419 21.8073 14.9419C20.9212 14.9419 20.1744 15.5494 20.1744 16.5135C20.1744 17.4833 20.9268 18.0908 21.8073 18.0908C22.6879 18.0908 23.4403 17.4777 23.4403 16.5135ZM22.5374 16.5135C22.5374 17.0207 22.1975 17.3049 21.8018 17.3049C21.4061 17.3049 21.0661 17.0207 21.0661 16.5135C21.0661 16.0008 21.4061 15.7277 21.8018 15.7277C22.1975 15.7277 22.5374 16.0008 22.5374 16.5135ZM5.30494 16.8591C5.30494 16.4076 5.07086 16.0621 4.65287 15.9061C5.04857 15.6887 5.1879 15.4045 5.1879 15.0701C5.1879 14.4849 4.76433 14 3.81688 14.0056H2V18.0183H3.8949C4.84793 18.0127 5.30494 17.539 5.30494 16.8591ZM4.21815 15.1871C4.21815 15.4602 4.04538 15.6162 3.71099 15.6162H2.95303V14.7803H3.71099C4.01752 14.7803 4.21815 14.914 4.21815 15.1871ZM4.30175 16.7978C4.30175 17.0597 4.11783 17.2325 3.77787 17.2325H2.95303V16.3631H3.77787C4.10669 16.3631 4.30175 16.5303 4.30175 16.7978ZM13.2635 15.7611C13.0127 15.2373 12.5446 14.9475 11.8368 14.9475C11.0008 14.9475 10.254 15.4713 10.254 16.5135C10.254 17.5279 10.9116 18.0908 11.8256 18.0908C12.4666 18.0908 13.0072 17.8344 13.2635 17.2826L12.5279 16.9037C12.3941 17.1489 12.1879 17.3049 11.8591 17.3049C11.4355 17.3049 11.1624 17.004 11.1624 16.5135C11.1624 16.0231 11.4745 15.7277 11.8535 15.7277C12.1489 15.7277 12.3718 15.8615 12.5111 16.1513L13.2635 15.7611ZM26.7341 15.7611C26.4833 15.2373 26.0151 14.9475 25.3073 14.9475C24.4713 14.9475 23.7245 15.4713 23.7245 16.5135C23.7245 17.5279 24.3822 18.0908 25.2962 18.0908C25.9371 18.0908 26.4777 17.8344 26.7341 17.2826L25.9984 16.9037C25.8646 17.1489 25.6584 17.3049 25.3296 17.3049C24.9061 17.3049 24.633 17.004 24.633 16.5135C24.633 16.0231 24.9451 15.7277 25.324 15.7277C25.6194 15.7277 25.8424 15.8615 25.9817 16.1513L26.7341 15.7611ZM19.0709 18.0127L18.3073 16.664H17.7221V18.0127H16.7803V14H18.4801C19.3997 14 20.0406 14.4403 20.0406 15.3041C20.0406 15.8559 19.7675 16.246 19.2826 16.4857L20.1632 18.0127H19.0709ZM17.7277 15.867H18.4299C18.8646 15.867 19.0764 15.6218 19.0764 15.332C19.0764 14.9865 18.8758 14.797 18.4299 14.797H17.7277V15.867ZM10.1035 17.9626V17.3328C10.0645 17.3439 10.0088 17.3551 9.94745 17.3551C9.83041 17.3551 9.76911 17.2938 9.76911 17.1879V16.1457C9.76911 15.3654 9.24522 14.953 8.38137 14.953C7.81847 14.953 7.33917 15.1592 7.03822 15.4268L7.54538 15.9952C7.74602 15.8169 8.01354 15.7054 8.27548 15.7054C8.67675 15.7054 8.86624 15.9061 8.86624 16.2349V16.3296C8.67675 16.285 8.4371 16.2404 8.14729 16.2404C7.4172 16.2404 6.94347 16.5916 6.94347 17.1712C6.94347 17.7675 7.33917 18.0796 7.95223 18.0796C8.37022 18.0796 8.74363 17.9068 8.93869 17.6839C9.05573 17.9793 9.3121 18.0573 9.5629 18.0573C9.73567 18.0629 9.93631 18.035 10.1035 17.9626ZM8.87182 17.0207C8.87182 17.2938 8.60987 17.4721 8.30892 17.4721C8.02468 17.4721 7.88535 17.3272 7.88535 17.1266C7.88535 16.9148 8.0414 16.7588 8.35908 16.7588C8.55414 16.7588 8.72691 16.7922 8.87182 16.8256V17.0207ZM30 18.0127L28.9244 16.1457L29.9331 15.0478H28.9188L27.8543 16.2293V14.0056H26.9459V18.0183H27.8543V17.2938L28.289 16.8312L28.9689 18.0183H30V18.0127ZM16.5406 18.0127L15.465 16.1457L16.4737 15.0478H15.4482L14.3949 16.2293V14.0056H13.4865V18.0183H14.3949V17.2938L14.8296 16.8312L15.5096 18.0183H16.5406V18.0127Z" fill="#E6DAFE"/>
</svg>
