<svg width="32" height="32" viewBox="0 0 32 32" fill="none" xmlns="http://www.w3.org/2000/svg">
<path d="M12.874 14.4361C13.1553 14.7175 13.5141 14.9095 13.9046 14.9869C14.0192 15.0097 14.1353 15.0211 14.2514 15.0236V19.5265H14.3427V15.0251C14.5903 15.0196 14.8364 14.9685 15.0677 14.8728C15.4353 14.7204 15.7499 14.4624 15.9712 14.1315C16.1925 13.8005 16.3106 13.4115 16.3106 13.013C16.3106 12.4791 16.0987 11.9671 15.7211 11.5895C15.3435 11.2119 14.831 11 14.2971 11C13.8991 11 13.5096 11.1181 13.1787 11.3394C12.8477 11.5607 12.5897 11.8748 12.4374 12.243C12.285 12.6106 12.2453 13.0155 12.3227 13.406C12.4006 13.7965 12.5927 14.1548 12.874 14.4361ZM12.6924 14.0843C12.5956 13.9394 12.5202 13.7821 12.4661 13.6184L14.3025 13.0195L13.1707 14.5785C12.9842 14.4441 12.8214 14.2778 12.6924 14.0843ZM16.1905 13.3887C16.1752 13.4656 16.1543 13.5405 16.13 13.6144L14.3025 13.0195L16.135 12.4226C16.2347 12.7337 16.2545 13.0661 16.1905 13.3887ZM15.4368 11.4555L14.3025 13.0195L15.4304 14.5741C15.2061 14.7368 14.9486 14.8504 14.6742 14.905C14.5511 14.9293 14.4271 14.9407 14.3025 14.9407V13.0195V11.0824C14.6826 11.0834 15.0538 11.1965 15.3698 11.4074C15.3927 11.4228 15.4145 11.4391 15.4368 11.4555ZM12.9326 11.647C13.005 11.5746 13.0824 11.5091 13.1643 11.4495L14.3025 13.0195L12.4612 12.4181C12.5545 12.1298 12.7142 11.8649 12.9326 11.647Z" fill="#E6DAFE"/>
<path d="M17.2752 19.0055L17.0966 19.0894C17.1234 19.1216 17.1497 19.1514 17.1755 19.1842L17.3556 19.1127C17.3303 19.077 17.3035 19.0413 17.2752 19.0055Z" fill="#E6DAFE"/>
<path d="M17.4841 19.5568C17.8895 20.052 18.2587 20.4971 18.2587 20.4971H18.3971C18.3971 20.4971 18.0503 20.0396 17.6538 19.5057L17.4841 19.5568Z" fill="#E6DAFE"/>
<path d="M16.7865 19.7697C17.0991 20.1175 17.4459 20.4986 17.4459 20.4986H17.5739C17.5739 20.4986 17.2633 20.1051 16.9606 19.7166C16.9041 19.7329 16.8485 19.7513 16.7865 19.7697Z" fill="#E6DAFE"/>
<path d="M12.4954 18.7798C12.3887 18.7798 12.3123 18.8527 12.227 18.9609C12.225 18.9609 12.1922 19.009 12.1297 19.0854C12.1942 19.1226 12.2612 19.1608 12.3232 19.2C12.3441 19.1727 12.3704 19.1499 12.4006 19.1335C12.4309 19.1172 12.4642 19.1068 12.4984 19.1038C12.5817 19.1053 12.6621 19.1326 12.7301 19.1812C12.8259 19.2447 13.1375 19.4958 13.4119 19.7186C13.4536 19.6982 13.4967 19.6803 13.5399 19.664C13.2853 19.4005 12.9663 19.0814 12.8492 18.9728C12.6979 18.8363 12.6021 18.7798 12.4954 18.7798Z" fill="#E6DAFE"/>
<path d="M13.203 19.9582V20.184C13.5275 20.3993 13.9086 20.5139 14.2981 20.5139C14.6876 20.5139 15.0682 20.3993 15.3932 20.184V19.9582C15.0672 19.7453 14.6866 19.6307 14.2976 19.6282C13.9086 19.6307 13.5285 19.7453 13.203 19.9582Z" fill="#E6DAFE"/>
<path d="M18.3053 18.1992C18.2537 18.1719 18.1966 18.1565 18.1381 18.1541C18.0468 18.1585 17.9585 18.1868 17.882 18.2369C17.7769 18.2999 17.4608 18.4885 17.0663 18.7242C16.7334 18.2836 16.4624 17.9253 16.4342 17.8916C16.3513 17.7923 16.2853 17.7298 16.1558 17.7298C16.005 17.7298 15.9191 17.7988 15.8214 17.9303C15.6641 18.1461 15.1535 19.0884 14.8781 19.6044C14.9124 19.6139 14.9461 19.6248 14.9788 19.6377C15.2775 19.1871 15.7787 18.4409 15.9419 18.2677C16.0253 18.1814 16.0968 18.1238 16.1806 18.1238V18.1268C16.2833 18.1268 16.3339 18.1749 16.4034 18.2513C16.4213 18.2712 16.6222 18.5138 16.8862 18.8314C16.7492 18.9132 16.6058 18.9986 16.461 19.0849C16.4024 19.0085 16.3652 18.9619 16.3652 18.9619C16.2853 18.8537 16.2129 18.7808 16.0987 18.7808C15.9846 18.7808 15.8943 18.8368 15.744 18.9733C15.6269 19.0814 15.3098 19.401 15.0533 19.6645C15.0974 19.6813 15.1391 19.6987 15.1808 19.719C15.4567 19.4933 15.7668 19.2442 15.8626 19.1817C15.9305 19.134 16.0114 19.1068 16.0948 19.1043C16.129 19.1072 16.1623 19.1172 16.1925 19.1335C16.2223 19.1499 16.2481 19.1722 16.2684 19.1995C15.9211 19.4069 15.5758 19.6129 15.2969 19.7786C15.3465 19.8049 15.3951 19.8332 15.4438 19.8639C15.74 19.725 16.0953 19.5583 16.4451 19.3945C16.4629 19.4149 16.4813 19.4347 16.5016 19.4556L16.6932 19.3782C16.6743 19.3534 16.654 19.3285 16.6361 19.3052C17.2211 19.0303 17.7565 18.7793 17.9287 18.6999C18.016 18.6537 18.1128 18.6264 18.2115 18.6195C18.3599 18.6195 18.4556 18.7123 18.5598 18.81C18.8715 19.1058 20.2816 20.4966 20.2816 20.4966H20.4429C20.4429 20.4966 18.7717 18.6741 18.4363 18.3114C18.4011 18.2647 18.3569 18.2265 18.3053 18.1992Z" fill="#E6DAFE"/>
<path d="M18.0567 19.072C18.0135 19.0507 17.9664 19.0388 17.9183 19.0373V19.0403C17.8255 19.0482 17.7347 19.0745 17.6518 19.1182C17.4027 19.2184 16.3017 19.661 15.5013 19.9825V20.1527C16.3731 19.8897 17.6181 19.5121 17.695 19.4913C17.7689 19.4645 17.8458 19.4481 17.9242 19.4427C17.9768 19.4417 18.0294 19.4511 18.0785 19.471C18.1277 19.4903 18.1723 19.5196 18.21 19.5568C18.3847 19.7166 19.0099 20.3041 19.2059 20.4946H19.3572C19.3572 20.4946 18.4308 19.4541 18.1674 19.1623C18.1376 19.1246 18.0994 19.0939 18.0567 19.072Z" fill="#E6DAFE"/>
<path d="M11.709 18.8338C11.9714 18.5163 12.1699 18.2746 12.1893 18.2538C12.2597 18.1774 12.3138 18.1293 12.414 18.1293C12.4974 18.1293 12.5688 18.1863 12.6527 18.2732V18.2702C12.8145 18.4404 13.3166 19.1861 13.6138 19.6402C13.6481 19.6278 13.6828 19.6158 13.717 19.6069C13.4392 19.0909 12.9286 18.1486 12.7713 17.9328C12.674 17.8013 12.5887 17.7323 12.4393 17.7323C12.3098 17.7323 12.2409 17.7943 12.158 17.8941C12.1302 17.9278 11.8603 18.2865 11.5298 18.7272C11.1324 18.49 10.8128 18.2995 10.7057 18.2364C10.6297 18.1868 10.5419 18.158 10.4511 18.1536C10.3931 18.1565 10.3365 18.1719 10.2849 18.1992C10.2333 18.2265 10.1886 18.2642 10.1534 18.3109C9.81648 18.6746 8.14531 20.4971 8.14531 20.4971H8.30906C8.30906 20.4971 9.71972 19.1063 10.0313 18.811C10.1335 18.7128 10.2298 18.62 10.3767 18.62C10.4749 18.6264 10.5707 18.6537 10.6575 18.7004C10.7647 18.749 11.0088 18.8626 11.3165 19.0065C11.2897 19.0418 11.2639 19.078 11.2366 19.1132L11.4157 19.1847C11.4425 19.1524 11.4698 19.1216 11.4951 19.0904C11.641 19.1589 11.7963 19.2318 11.9556 19.3062C11.9362 19.329 11.9183 19.3539 11.899 19.3787L12.094 19.4571C12.1119 19.4352 12.1297 19.4149 12.1471 19.396C12.4959 19.5598 12.8497 19.726 13.1439 19.8639C13.1926 19.8337 13.2397 19.8019 13.2898 19.7786C12.8457 19.5131 12.2309 19.1464 11.708 18.8343L11.709 18.8338Z" fill="#E6DAFE"/>
<path d="M10.6729 19.0408C10.6248 19.0418 10.5776 19.0537 10.5345 19.0755C10.4913 19.0968 10.4536 19.1276 10.4238 19.1653H10.4258C10.1638 19.4566 9.23495 20.4971 9.23495 20.4971H9.38876C9.58575 20.3105 10.2119 19.7195 10.3851 19.5593C10.4223 19.5221 10.467 19.4933 10.5161 19.4734C10.5647 19.4541 10.6173 19.4442 10.6699 19.4452C10.7493 19.4506 10.8272 19.467 10.9021 19.4938C10.9081 19.4953 10.923 19.4997 10.9438 19.5062C10.5444 20.0396 10.2 20.4971 10.2 20.4971H10.3365L11.1115 19.5568L11.0078 19.525C11.1349 19.5632 11.3631 19.6322 11.6385 19.7156C11.3348 20.1041 11.0237 20.4971 11.0237 20.4971H11.1527L11.8092 19.7682H11.8117C12.219 19.8912 12.6954 20.0356 13.0933 20.1562V19.983L10.9438 19.1182C10.8595 19.0745 10.7677 19.0482 10.6729 19.0408Z" fill="#E6DAFE"/>
<path d="M4.71118 13.3475C4.52114 13.3475 4.39114 13.2726 4.34202 13.1391L4.09988 13.1763C4.17282 13.3882 4.39114 13.5127 4.6824 13.5127C5.03271 13.5127 5.24707 13.3658 5.24707 13.1713C5.24856 13.1257 5.23764 13.08 5.21581 13.0398C5.19397 12.9996 5.16172 12.9654 5.12252 12.9416C5.01535 12.8811 4.89775 12.8409 4.77569 12.824C4.55587 12.7754 4.43133 12.7585 4.43133 12.6478C4.43133 12.557 4.52263 12.4945 4.68042 12.4945C4.83821 12.4945 4.94141 12.5565 4.98855 12.6662L5.21382 12.6181C5.13493 12.435 4.94935 12.3343 4.68836 12.3343C4.36831 12.3343 4.16835 12.4782 4.16835 12.6756C4.16885 12.7133 4.17827 12.7501 4.19614 12.7833C4.214 12.8166 4.23931 12.8448 4.27057 12.8662C4.38022 12.9495 4.50923 12.9689 4.64717 12.9987C4.86748 13.0458 4.98161 13.0646 4.98161 13.1892C4.98161 13.274 4.86996 13.3475 4.71118 13.3475Z" fill="#E6DAFE"/>
<path d="M6.64632 13.3266H5.92883V12.9763H6.48953V12.823H5.92883V12.5213H6.63193V12.3591H5.67974V13.4919H6.64632V13.3266Z" fill="#E6DAFE"/>
<path d="M7.91607 13.3237H7.3008V12.3591H7.04179V13.4919H7.91607V13.3237Z" fill="#E6DAFE"/>
<path d="M9.20468 13.3266H8.48719V12.9763H9.04739V12.823H8.48719V12.5213H9.19078V12.3591H8.2386V13.4919H9.20468V13.3266Z" fill="#E6DAFE"/>
<path d="M10.1261 13.5147C10.4129 13.5147 10.6094 13.3738 10.6665 13.1247L10.4318 13.0984C10.3886 13.2626 10.2874 13.3475 10.1281 13.3475C9.9182 13.3475 9.79366 13.2031 9.79366 12.9252C9.79366 12.6474 9.92267 12.4975 10.1281 12.4975C10.2005 12.494 10.272 12.5183 10.3266 12.566C10.3816 12.6131 10.4164 12.6801 10.4238 12.7525L10.664 12.7312C10.6129 12.4767 10.4194 12.3382 10.1281 12.3382C9.77381 12.3382 9.52472 12.5585 9.52472 12.9252C9.52472 13.2919 9.7614 13.5147 10.1261 13.5147Z" fill="#E6DAFE"/>
<path d="M11.2698 13.4919H11.5273V12.5223H11.8876V12.3591H10.9116V12.5223H11.2698V13.4919Z" fill="#E6DAFE"/>
<path d="M17.2965 13.348C17.1075 13.348 16.9765 13.273 16.9279 13.1396L16.6852 13.1768C16.7587 13.3887 16.9765 13.5132 17.2688 13.5132C17.6191 13.5132 17.8329 13.3663 17.8329 13.1718C17.8344 13.1262 17.8235 13.0805 17.8017 13.0403C17.7798 13.0001 17.7476 12.9659 17.7084 12.9421C17.6012 12.8816 17.4841 12.8414 17.362 12.8245C17.1422 12.7759 17.0177 12.759 17.0177 12.6483C17.0177 12.5575 17.1085 12.495 17.2668 12.495C17.4251 12.495 17.5288 12.5536 17.5779 12.6662L17.8022 12.6191C17.7233 12.436 17.5367 12.3352 17.2762 12.3352C16.9562 12.3352 16.7567 12.4791 16.7567 12.6766C16.7567 12.7138 16.7661 12.7506 16.7835 12.7838C16.8009 12.817 16.8257 12.8453 16.8564 12.8672C16.9666 12.9505 17.0951 12.9699 17.2335 12.9996C17.4538 13.0468 17.568 13.0656 17.568 13.1902C17.568 13.275 17.4558 13.348 17.2965 13.348Z" fill="#E6DAFE"/>
<path d="M19.2332 13.3266H18.5152V12.9763H19.0759V12.823H18.5152V12.5213H19.2188V12.3591H18.2671V13.4919H19.2332V13.3266Z" fill="#E6DAFE"/>
<path d="M20.1546 13.5147C20.4414 13.5147 20.6374 13.3738 20.6945 13.1247L20.4603 13.0984C20.4171 13.2626 20.3159 13.3475 20.1566 13.3475C19.9467 13.3475 19.8222 13.2031 19.8222 12.9252C19.8222 12.6474 19.9502 12.4975 20.1566 12.4975C20.229 12.494 20.3 12.5188 20.3551 12.566C20.4101 12.6131 20.4449 12.6801 20.4523 12.752L20.6925 12.7307C20.6424 12.4762 20.4483 12.3377 20.1566 12.3377C19.8023 12.3377 19.5532 12.558 19.5532 12.9247C19.5532 13.2914 19.7899 13.5147 20.1546 13.5147Z" fill="#E6DAFE"/>
<path d="M21.2983 13.4919H21.5558V12.5223H21.9161V12.3591H20.9396V12.5223H21.2983V13.4919Z" fill="#E6DAFE"/>
<path d="M22.7909 13.5127C23.1511 13.5127 23.4002 13.284 23.4002 12.9237C23.4002 12.5635 23.1511 12.3367 22.7909 12.3367C22.4306 12.3367 22.181 12.5615 22.181 12.9237C22.181 13.2859 22.4301 13.5127 22.7909 13.5127ZM22.7909 12.4995C22.9968 12.4995 23.1253 12.6508 23.1253 12.9237C23.1253 13.1966 22.9963 13.3475 22.7909 13.3475C22.5854 13.3475 22.4564 13.1976 22.4564 12.9237C22.4564 12.6498 22.5844 12.4995 22.7909 12.4995Z" fill="#E6DAFE"/>
<path d="M24.0755 13.014H24.4L24.6526 13.4904H24.9195L24.6416 12.9778C24.8128 12.9257 24.9007 12.824 24.9007 12.6821C24.9007 12.4702 24.7235 12.3591 24.3752 12.3591H23.8204V13.4904H24.075L24.0755 13.014ZM24.0775 12.5159H24.3524C24.5394 12.5159 24.6362 12.5749 24.6362 12.687C24.6362 12.7992 24.5384 12.8612 24.3444 12.8612H24.0755L24.0775 12.5159Z" fill="#E6DAFE"/>
<path d="M5.88318 16.1842C5.63658 16.1376 5.0997 16.0403 4.84466 15.9912C4.31622 15.8885 4.02892 15.7758 4.02892 15.4985C4.02892 15.2444 4.40007 15.1129 4.91909 15.1129C5.73284 15.1129 6.02857 15.4627 6.02857 15.6329V15.7059H7.97165V15.6106C7.97165 15.2151 7.73496 14.0198 4.96225 14.0198C3.00578 14.0198 2 14.7358 2 15.6027C2 16.4695 2.68474 16.9151 3.78033 17.1265L5.30214 17.4118C5.95166 17.5358 6.13822 17.7358 6.13822 17.9362C6.13822 18.161 5.96208 18.3907 5.17611 18.3907C4.17182 18.3907 3.95251 18.0117 3.95251 17.768V17.7055H2V17.774C2 18.5763 2.66936 19.5017 4.94042 19.5042C7.07404 19.5042 8.06642 18.8502 8.06642 17.7611C8.06642 16.5315 6.44388 16.2919 5.88318 16.1842Z" fill="#E6DAFE"/>
<path d="M27.0611 15.7818C27.0611 14.9417 26.4974 14.0387 24.8297 14.0387H20.9758V19.53H22.9402V17.5318H23.8691L24.9939 19.53H27.1692L25.839 17.4009C26.0727 17.3383 27.0611 17.0069 27.0611 15.7818ZM24.4233 16.2869H22.9397V15.2846H24.4233C24.9021 15.2846 25.0962 15.5079 25.0962 15.7887C25.0962 16.0696 24.8987 16.2869 24.4233 16.2869Z" fill="#E6DAFE"/>
<path d="M28.8732 17.7517C28.7456 17.7268 28.4693 17.6743 28.3373 17.6485C28.0644 17.5929 27.9165 17.5328 27.9165 17.384C27.9165 17.247 28.1075 17.1766 28.376 17.1766C28.7962 17.1766 28.9486 17.3641 28.9486 17.4554V17.4946H29.9529V17.4435C29.9529 17.2312 29.8313 16.5891 28.3993 16.5891C27.3886 16.5891 26.8695 16.9726 26.8695 17.4386C26.8695 17.9045 27.2238 18.1441 27.7885 18.2568L28.574 18.4111C28.9104 18.4771 29.0056 18.5848 29.0056 18.6924C29.0056 18.812 28.9133 18.9366 28.5075 18.9366C27.9894 18.9366 27.8758 18.7331 27.8758 18.6021V18.5674H26.868V18.6041C26.868 19.0338 27.2139 19.532 28.3859 19.532C29.4879 19.532 30 19.1832 30 18.5982C30 17.9387 29.1614 17.8092 28.8732 17.7517Z" fill="#E6DAFE"/>
<path d="M17.2946 18.2473L16.8619 18.2498L17.0986 18.5609L17.6588 18.2255C17.5377 18.2404 17.4161 18.2478 17.2946 18.2473Z" fill="#E6DAFE"/>
<path d="M16.0303 18.3555C15.9767 18.4111 15.8551 18.5664 15.5887 18.9519L15.6616 18.883C15.8229 18.7366 15.94 18.6582 16.0973 18.6582C16.2545 18.6582 16.3702 18.7683 16.461 18.8874L16.4902 18.9256L16.7001 18.8011C16.4004 18.4399 16.3215 18.3461 16.3111 18.3342C16.2491 18.2627 16.2263 18.2503 16.1791 18.2503H16.1816C16.1479 18.2498 16.1032 18.2811 16.0303 18.3555Z" fill="#E6DAFE"/>
<path d="M17.7808 14.0387H16.1682C16.0079 14.3309 15.7817 14.5815 15.5078 14.7705C15.2339 14.9596 14.9193 15.0822 14.5893 15.1283V19.53H14.7799C14.9267 19.2546 15.539 18.1124 15.7226 17.8608C15.8189 17.7308 15.938 17.6117 16.1583 17.6117L16.1563 17.6073C16.329 17.6073 16.4242 17.6921 16.5101 17.7909V15.3149H17.296C18.283 15.3149 18.9826 15.7505 18.9826 16.7816C18.9826 17.4113 18.7231 17.8281 18.2765 18.0519C18.3733 18.0871 18.4591 18.1471 18.5256 18.226L19.4257 19.2055C20.3724 18.7698 20.9033 17.9209 20.9033 16.7816C20.9033 15.1878 19.8286 14.0387 17.7808 14.0387Z" fill="#E6DAFE"/>
<path d="M17.6548 18.9852C17.7372 18.945 17.8275 18.9222 17.9193 18.9187C17.9843 18.9197 18.0478 18.9346 18.1063 18.9629C18.1649 18.9911 18.2165 19.0313 18.2582 19.0814C18.3311 19.1623 18.4556 19.3013 18.5961 19.4595C18.7246 19.4362 18.8491 19.4079 18.9697 19.3747C18.7548 19.1643 18.5703 18.9847 18.4809 18.8998L18.4735 18.8944C18.3703 18.7971 18.3073 18.7425 18.215 18.7425C18.1341 18.75 18.0552 18.7738 17.9838 18.8125C17.894 18.8537 17.7054 18.9415 17.4638 19.0547L17.4682 19.0611L17.6543 18.9862L17.6548 18.9852Z" fill="#E6DAFE"/>
<path d="M10.0666 18.231C10.0795 18.2171 10.0943 18.2017 10.1112 18.1853V17.5914H11.7923C13.4263 17.5914 14.0381 16.8729 14.0381 15.8101C14.0415 15.5744 14.0048 15.3392 13.9289 15.1159C13.6208 15.0613 13.3285 14.9402 13.072 14.7606C12.8159 14.581 12.6021 14.3473 12.4458 14.0764C12.2295 14.0446 12.0106 14.0297 11.7918 14.0307H8.15424V19.5295H8.87174C9.34857 19.01 9.89141 18.4205 10.0666 18.231ZM10.1112 15.2722H11.3184C11.7893 15.2722 12.0741 15.4434 12.0741 15.8145C12.0741 16.1857 11.8047 16.3544 11.3184 16.3544H10.1112V15.2722Z" fill="#E6DAFE"/>
<path d="M10.1117 18.9073C9.99511 19.0174 9.74553 19.2611 9.47163 19.53H9.93755L10.1117 19.335V18.9073Z" fill="#E6DAFE"/>
<path d="M28.1482 15.5198C28.1859 15.5575 28.2306 15.5873 28.2797 15.6076C28.3288 15.628 28.3814 15.6384 28.4345 15.6384C28.5144 15.6384 28.5928 15.6151 28.6598 15.5704C28.7263 15.5257 28.7784 15.4627 28.8091 15.3888C28.8399 15.3149 28.8478 15.2335 28.8325 15.1546C28.8171 15.0762 28.7784 15.0038 28.7218 14.9472C28.6652 14.8906 28.5933 14.8519 28.5144 14.8365C28.436 14.8212 28.3541 14.8291 28.2807 14.8599C28.2068 14.8906 28.1433 14.9427 28.0991 15.0092C28.0549 15.0757 28.0311 15.1541 28.0311 15.2345C28.0311 15.2876 28.0415 15.3402 28.0619 15.3893C28.0822 15.4384 28.112 15.4831 28.1492 15.5203L28.1482 15.5198ZM28.1294 15.173C28.1413 15.1124 28.171 15.0573 28.2147 15.0137C28.2584 14.97 28.3139 14.9402 28.374 14.9283C28.434 14.9164 28.497 14.9224 28.5541 14.9462C28.6107 14.9695 28.6593 15.0097 28.694 15.0608C28.7283 15.1119 28.7466 15.172 28.7466 15.234C28.7466 15.3164 28.7139 15.3957 28.6553 15.4543C28.5968 15.5128 28.5179 15.5456 28.435 15.5456C28.3735 15.5456 28.3135 15.5272 28.2623 15.493C28.2112 15.4588 28.171 15.4101 28.1477 15.3531C28.1244 15.296 28.1175 15.2335 28.1294 15.173Z" fill="#E6DAFE"/>
<path d="M28.3526 15.2786H28.434L28.5318 15.4578H28.6355L28.5293 15.2747C28.6072 15.2692 28.6484 15.2365 28.6484 15.1556C28.6484 15.04 28.5799 15.0216 28.4792 15.0216H28.2609V15.4573H28.3531L28.3526 15.2786ZM28.3526 15.0911H28.4583C28.501 15.0911 28.5561 15.0871 28.5561 15.1427C28.5561 15.1983 28.5293 15.2087 28.4807 15.2087H28.3526V15.0911Z" fill="#E6DAFE"/>
</svg>
