<svg width="32" height="32" viewBox="0 0 32 32" fill="none" xmlns="http://www.w3.org/2000/svg">
<path fill-rule="evenodd" clip-rule="evenodd" d="M27.0705 19.4251L29 20.3548L28.007 21.2863H27.0705V20.3548L25.64 19.8626L23.2182 17.4392L21.2887 16.5077L19.3592 13.6467L18.3662 12.7153L18.8601 11.2917L17.4296 9.86117L16.4367 10.7926V12.8401L15.5001 13.7698L17.4296 15.6395L16.4367 16.5693L18.3662 18.4321V19.4251L19.3592 21.2863H20.3521L21.3502 20.4164L20.8512 19.9241L20.3521 18.4937H21.3502L22.3432 20.4164L23.2798 21.3546L20.4188 22.2861L19.4207 23.2158L18.4277 22.2861L17.9287 20.8556L16.4999 20.3548V19.4251H15.5616L15.0694 21.7853L15.5616 23.0927L13.3245 24.0242L12.6408 23.0927L13.1399 22.1562V21.2247H11.7094L9.77986 23.0927L8.35108 22.5937V20.7308L5.9225 20.3548L4.05962 21.2863L3 20.7941V18.8697L3.93144 18.3706L7.7888 16.5077L8.28785 17.0016L9.71833 15.5763V14.5782L11.6479 12.7153L12.7024 10.7926L14.1328 8.43068L16.4367 8H17.4296V8.8682L19.3592 10.7926V12.7153L22.2817 15.5763L25.2093 17.4392L26.6381 17.9331L27.0705 19.4251Z" fill="#E6DAFE"/>
</svg>
