<svg width="32" height="32" viewBox="0 0 32 32" fill="none" xmlns="http://www.w3.org/2000/svg">
<path d="M4.91826 17.9544V15.7104H5.40403C6.30382 15.7104 6.9414 16.0278 6.9414 17.0932C6.9414 17.993 6.55775 18.4208 5.70212 18.4208C5.28811 18.4208 4.91826 18.4042 4.91826 17.9544ZM4.91826 13.6238C4.91826 13.3395 4.96518 13.3257 5.33503 13.3257C6.37282 13.3257 6.83652 13.552 6.83652 14.3304C6.83652 15.0369 6.44458 15.4786 5.6414 15.4951H4.91826V13.6238ZM3.68726 13.9439V17.6894C3.68726 18.3546 3.62102 18.418 3 18.4236V18.6333H5.69384C6.78408 18.6333 8.00679 18.4401 8.00679 17.1401C8.00679 16.1962 7.14013 15.7932 6.3811 15.6386V15.6221C7.04628 15.4979 7.6949 15.0949 7.6949 14.3138C7.69214 13.1711 6.29002 13 5.37919 13H3V13.2098C3.61826 13.218 3.68726 13.2788 3.68726 13.9439ZM9.09151 15.8318C9.09151 15.7408 9.00594 15.6497 8.59745 15.6276V15.4454C9.06114 15.3626 9.5138 15.2191 9.96921 15.059V18.0648C9.96921 18.2994 10.0161 18.3435 10.4081 18.3435V18.5257H8.61953V18.3435C9.04182 18.3435 9.08875 18.2994 9.08875 18.0648V15.8318H9.09151ZM10.0851 13.5713C10.0851 13.897 9.80913 14.1427 9.52208 14.1427C9.23503 14.1427 8.95902 13.897 8.95902 13.5713C8.95902 13.2456 9.23503 13 9.52208 13C9.80913 13 10.0851 13.2456 10.0851 13.5713ZM12.9584 15.473C12.9749 15.4924 12.9887 15.5172 13.0025 15.5448L14.3522 18.6195H14.5592L15.6743 15.8926L16.8115 18.6195H17.0405L18.0921 16.0085C18.2136 15.6994 18.3433 15.3958 18.7021 15.335V15.1529H17.5512V15.335H17.5677C17.7885 15.3737 17.9845 15.4068 17.9845 15.5476C17.9845 15.6083 17.9376 15.7214 17.8769 15.8732L17.2669 17.5403L16.5575 15.7904C16.5465 15.7601 16.5299 15.7214 16.5134 15.6828C16.483 15.611 16.4499 15.5365 16.4499 15.5117C16.4499 15.4123 16.6403 15.3599 16.9301 15.3378V15.1556H14.9318V15.3378C15.3735 15.3764 15.5115 15.52 15.5115 15.6469C15.5115 15.7242 15.4673 15.8263 15.4121 15.9588C15.4011 15.9837 15.3928 16.0085 15.3817 16.0333L14.7856 17.51L14.0679 15.8429C14.0514 15.8015 14.0348 15.7628 14.0183 15.727C13.9824 15.6442 13.952 15.5779 13.952 15.5255C13.952 15.4261 14.1507 15.335 14.4709 15.335V15.1529H11.9151V13.8667L10.7062 15.2357V15.4178H11.1036V17.9268C11.1036 18.338 11.4431 18.6333 11.9592 18.6333C12.2766 18.6333 12.7707 18.4125 12.9529 18.1476V17.8743C12.7873 18.0344 12.583 18.2248 12.3456 18.2248C11.9537 18.2248 11.9178 17.9599 11.9178 17.7749V15.4178H12.7514C12.7514 15.4178 12.9197 15.4289 12.9556 15.4703L12.9584 15.473ZM19.0168 15.6276C19.4253 15.6497 19.5108 15.7408 19.5108 15.8318V18.0648C19.5108 18.2994 19.4639 18.3435 19.0416 18.3435V18.5257H20.8301V18.3435C20.4382 18.3435 20.3913 18.2994 20.3913 18.0648V15.059C19.9359 15.2191 19.4832 15.3626 19.0195 15.4454V15.6276H19.0168ZM19.9524 14.1427C20.2367 14.1427 20.5155 13.897 20.5155 13.5713C20.5155 13.2456 20.2395 13 19.9524 13C19.6654 13 19.3894 13.2456 19.3894 13.5713C19.3894 13.897 19.6654 14.1427 19.9524 14.1427ZM23.9822 15.3406C23.5461 15.1805 23.1486 15.059 22.7484 15.059C22.1412 15.059 21.3601 15.3709 21.3601 16.0665C21.3601 16.613 21.8597 16.8917 22.3592 17.1208C22.8588 17.3554 23.3584 17.5459 23.3584 17.9102C23.3584 18.2138 23.1707 18.4567 22.8422 18.4567C22.086 18.4567 21.7106 17.8439 21.5698 17.1981L21.3822 17.2284L21.4512 18.3739C21.7631 18.5091 22.3261 18.6389 22.6601 18.6389C23.4081 18.6389 24.1257 18.4042 24.1257 17.5624C24.1257 16.98 23.604 16.7206 23.1183 16.486C22.5248 16.1989 22.0805 16.0002 22.0805 15.7435C22.0805 15.4565 22.3454 15.2439 22.6187 15.2439C23.259 15.2439 23.593 15.8346 23.789 16.359L23.9766 16.3452V15.3461L23.9822 15.3406ZM27.838 17.3168L27.9456 17.4299C27.6365 18.1724 27.1093 18.6333 26.2482 18.6333C25.1414 18.6333 24.5369 17.9516 24.5369 16.9055C24.5369 15.8594 25.296 15.0563 26.3586 15.0563C27.1949 15.0563 27.9318 15.669 27.9318 16.5191H25.4064C25.3677 17.2478 25.8314 17.9516 26.6374 17.9516C27.1728 17.9516 27.5206 17.7253 27.838 17.314V17.3168ZM25.4091 16.359H26.8195C26.963 16.359 27.0072 16.3369 27.0072 16.1851C27.0072 15.7325 26.6594 15.3847 26.2537 15.3847C25.6216 15.3847 25.4395 15.9174 25.4091 16.359Z" fill="#E6DAFE"/>
<path d="M28.39 15.5724C28.7295 15.5724 29 15.2936 29 14.9459C29 14.5981 28.7295 14.3193 28.39 14.3193C28.0505 14.3193 27.78 14.5981 27.78 14.9459C27.78 15.2936 28.0533 15.5724 28.39 15.5724ZM28.39 15.4123C28.1361 15.4123 27.9318 15.2053 27.9318 14.9459C27.9318 14.6864 28.1361 14.4794 28.39 14.4794C28.6439 14.4794 28.8482 14.6864 28.8482 14.9459C28.8482 15.2053 28.6467 15.4123 28.39 15.4123ZM28.2934 15.2246V15.0314H28.379L28.5059 15.2246H28.6771L28.5308 15.0093C28.6053 14.9873 28.6495 14.921 28.6495 14.8355C28.6495 14.7251 28.5667 14.6505 28.4425 14.6505H28.1471V15.2246H28.2934ZM28.2934 14.772H28.4093C28.4673 14.772 28.4977 14.7968 28.4977 14.8437C28.4977 14.8907 28.4673 14.9155 28.4066 14.9155H28.2934V14.772Z" fill="#E6DAFE"/>
</svg>
