<svg width="32" height="32" viewBox="0 0 32 32" fill="none" xmlns="http://www.w3.org/2000/svg">
<path d="M23.9521 19.0479V16.8043C23.9521 16.2911 24.249 15.9306 24.6901 15.9306C25.1142 15.9306 25.3347 16.2317 25.3347 16.6559V19.0479H26.5604V16.4226C26.5604 15.532 26.026 14.9043 25.1609 14.9043C24.6095 14.9043 24.2236 15.1418 23.9352 15.5744H23.9097V15.023H22.7222V19.0479H23.9521ZM20.3175 14.9127C19.0367 14.9127 18.1799 15.8331 18.1799 17.046C18.1799 18.2505 19.0367 19.1793 20.3175 19.1793C21.5983 19.1793 22.455 18.2505 22.455 17.046C22.455 15.8288 21.5983 14.9127 20.3175 14.9127ZM20.309 18.2675C19.728 18.2675 19.4184 17.7798 19.4184 17.0418C19.4184 16.2954 19.7237 15.8161 20.309 15.8161C20.89 15.8161 21.2124 16.2954 21.2124 17.0418C21.2124 17.7798 20.89 18.2675 20.309 18.2675ZM14.6852 19.0479H18.129V18.0809H16.1781V18.0554L18.0442 15.9646V15.023H14.6852V15.99H16.5726V16.0154L14.6852 18.1233V19.0479ZM13.1118 19.0479H14.346V15.023H13.1118V19.0479ZM10.249 19.0479H11.4747V17.1987C11.4747 16.359 11.9794 15.9858 12.747 16.0918H12.7725V15.0315C12.7089 15.0061 12.641 15.0018 12.5223 15.0018C12.043 15.0018 11.7207 15.2224 11.445 15.6931H11.4196V15.023H10.249V19.0479ZM7.99273 18.276C7.44986 18.276 7.11905 17.9197 7.05544 17.3811H9.95638C9.96486 16.5159 9.73584 15.8246 9.25659 15.392C8.9173 15.0782 8.47198 14.9043 7.90366 14.9043C6.6907 14.9043 5.85095 15.8246 5.85095 17.0291C5.85095 18.242 6.65253 19.1666 7.98425 19.1666C8.48894 19.1666 8.88761 19.0351 9.21842 18.8061C9.57043 18.5601 9.8249 18.2081 9.89276 17.8561H8.71372C8.59921 18.119 8.35322 18.276 7.99273 18.276ZM7.92911 15.7822C8.36171 15.7822 8.65859 16.1045 8.70948 16.5753H7.06392C7.15722 16.1003 7.42017 15.7822 7.92911 15.7822ZM3.39958 19.0479H4.68888L6.08846 15.023H4.85429L4.06543 17.6101H4.04847L3.25962 15.023H2L3.39958 19.0479ZM13.1118 13.5895H14.346V14.6837H13.1118V13.5895Z" fill="#E6DAFE"/>
<path d="M26.5435 15.0188H27.1712L27.7988 16.3675L29.3681 13H30L28.1127 17.0418H27.485L26.5435 15.0188Z" fill="#E6DAFE"/>
</svg>
