<svg width="32" height="32" viewBox="0 0 32 32" fill="none" xmlns="http://www.w3.org/2000/svg">
<path d="M5.88908 11.1412H4V13.0302H5.88908V11.1412Z" fill="#E6DAFE"/>
<path d="M5.84201 20.9832V14.1731H4.04706V20.9765H5.84201V20.9832ZM17.7277 21.0504V19.3832C17.4655 19.3832 17.2437 19.3697 17.0824 19.3429C16.8941 19.316 16.7529 19.2487 16.6588 19.1546C16.5647 19.0605 16.5042 18.9261 16.4706 18.7445C16.4437 18.5765 16.4303 18.3546 16.4303 18.0857V15.7126H17.7277V14.1731H16.4303V11.5244H14.6353V18.1059C14.6353 18.6639 14.6824 19.1345 14.7765 19.5109C14.8706 19.8807 15.0319 20.1832 15.2538 20.4118C15.4756 20.6403 15.7714 20.8017 16.1277 20.9025C16.4908 21.0034 16.9479 21.0504 17.4924 21.0504H17.7277ZM28 20.9832V11H26.205V20.9832H28ZM12.9076 14.8454C12.4101 14.3076 11.7109 14.0387 10.8235 14.0387C10.3933 14.0387 9.99664 14.1261 9.64706 14.3008C9.29075 14.4756 8.99495 14.7176 8.75294 15.0269L8.65882 15.1546V14.1731H6.89075V20.9765H8.67227V17.3529V17.6017C8.67227 17.5613 8.67227 17.521 8.67227 17.4807C8.69243 16.842 8.84706 16.3714 9.14285 16.0689C9.45882 15.7462 9.84201 15.5849 10.279 15.5849C10.7966 15.5849 11.1933 15.7462 11.4555 16.0555C11.7109 16.3647 11.8454 16.8017 11.8454 17.3597V20.9765H13.6538V17.1176C13.6605 16.1496 13.405 15.3832 12.9076 14.8454ZM25.2773 17.5681C25.2773 17.0773 25.1899 16.6202 25.0218 16.1899C24.8471 15.7664 24.605 15.3899 24.3025 15.0672C23.9933 14.7445 23.6235 14.4958 23.1933 14.3143C22.763 14.1328 22.2857 14.0454 21.7681 14.0454C21.2773 14.0454 20.8134 14.1395 20.3832 14.321C19.9529 14.5092 19.5765 14.758 19.2605 15.0739C18.9445 15.3899 18.6891 15.7664 18.5076 16.1966C18.3193 16.6269 18.2319 17.0908 18.2319 17.5815C18.2319 18.0723 18.3193 18.5361 18.4941 18.9664C18.6689 19.3966 18.9176 19.7731 19.2269 20.0891C19.5361 20.405 19.9193 20.6605 20.363 20.842C20.8067 21.0303 21.2975 21.1244 21.8218 21.1244C23.3412 21.1244 24.2824 20.4319 24.8471 19.7866L23.5563 18.805C23.2874 19.1277 22.642 19.5647 21.8353 19.5647C21.3311 19.5647 20.9143 19.4504 20.5983 19.2151C20.2824 18.9866 20.0672 18.6639 19.9529 18.2672L19.9328 18.2067H25.2773V17.5681ZM19.9462 16.9429C19.9462 16.4454 20.5176 15.5782 21.7479 15.5714C22.9782 15.5714 23.5563 16.4387 23.5563 16.9361L19.9462 16.9429Z" fill="#E6DAFE"/>
</svg>
