<svg width="32" height="32" viewBox="0 0 32 32" fill="none" xmlns="http://www.w3.org/2000/svg">
<g clip-path="url(#clip0_6_4601)">
<path d="M28.2347 17.1124V15.2516H27.612V14.6434H28.2347V13.5572H28.9008V14.6434H29.7697V15.2516H28.9008V17.0617C28.9008 17.46 29.0674 17.641 29.3787 17.641C29.5018 17.641 29.5887 17.6265 29.6829 17.583L29.9145 18.1551C29.7624 18.2202 29.6031 18.2493 29.3787 18.2493C28.6329 18.2493 28.2347 17.8365 28.2347 17.1124ZM23.941 16.4173C23.941 15.4108 24.6362 14.5275 25.6789 14.5275C26.736 14.5275 27.4167 15.2732 27.4167 16.4173C27.4167 16.468 27.4094 16.5404 27.4094 16.5404H24.6072C24.6434 17.2935 25.1865 17.6989 25.7367 17.6989C26.1277 17.6989 26.5187 17.5396 26.707 17.0907L27.3008 17.3369C27.0908 17.8437 26.5694 18.3071 25.7513 18.3071C24.6652 18.3071 23.941 17.4889 23.941 16.4173ZM25.6643 15.1357C25.172 15.1357 24.781 15.4688 24.6506 15.9901H26.707C26.6854 15.6787 26.4246 15.1357 25.6643 15.1357ZM20.6757 17.6989H20.6468V18.1912H20.0097V13.0068H20.6757V14.6433L20.6468 15.1357H20.6757C20.8785 14.8099 21.3203 14.5274 21.885 14.5274C22.7828 14.5274 23.5721 15.3311 23.5721 16.4173C23.5721 17.5034 22.7828 18.3071 21.885 18.3071C21.3203 18.3071 20.8785 18.0247 20.6757 17.6989ZM22.9059 16.4173C22.9059 15.6207 22.3701 15.1357 21.7764 15.1357C21.1826 15.1357 20.6468 15.6063 20.6468 16.4173C20.6468 17.2282 21.1826 17.6989 21.7764 17.6989C22.3701 17.6989 22.9059 17.2138 22.9059 16.4173ZM16.1723 17.1195C16.1723 16.3159 16.8964 15.8814 17.7291 15.8814C18.207 15.8814 18.5545 16.019 18.6922 16.0987V15.9974C18.6922 15.4615 18.2649 15.1357 17.7652 15.1357C17.396 15.1357 17.0412 15.3167 16.9182 15.6498L16.31 15.3891C16.433 15.0633 16.8602 14.5274 17.7508 14.5274C18.6198 14.5274 19.3293 15.0489 19.3293 16.0481V18.1913H18.6922V17.699H18.6631C18.4677 17.9957 18.1057 18.3071 17.4974 18.3071C16.7733 18.3071 16.1723 17.8582 16.1723 17.1195ZM18.6922 16.6634C18.6922 16.6634 18.4098 16.4317 17.8449 16.4317C17.1425 16.4317 16.8674 16.8083 16.8674 17.1341C16.8674 17.5107 17.2584 17.699 17.606 17.699C18.1346 17.699 18.6922 17.2427 18.6922 16.6634ZM13.1532 14.6433L13.1242 15.1356H13.1532C13.3414 14.8098 13.7904 14.5274 14.2755 14.5274C15.1806 14.5274 15.6295 15.1428 15.6295 16.0191V18.1913H14.9633V16.1204C14.9633 15.3818 14.5941 15.1356 14.0872 15.1356C13.5079 15.1356 13.1532 15.686 13.1532 16.229V18.1913H12.487V13.0069H13.1532V14.6433ZM9.09136 17.6989H9.06242L9.09136 18.1912V19.7553H8.42521V14.6433H9.06242V15.1357H9.09136C9.29415 14.8099 9.73583 14.5274 10.3006 14.5274C11.1984 14.5274 11.9877 15.3311 11.9877 16.4173C11.9877 17.5034 11.1984 18.3071 10.3006 18.3071C9.73583 18.3071 9.29415 18.0247 9.09136 17.6989ZM11.3216 16.4173C11.3216 15.6207 10.7857 15.1357 10.192 15.1357C9.59819 15.1357 9.06242 15.6063 9.06242 16.4173C9.06242 17.2282 9.59819 17.6989 10.192 17.6989C10.7857 17.6989 11.3216 17.2138 11.3216 16.4173ZM7.04962 18.1913H7.71578V13.0069H7.04962V18.1913ZM3.95803 13.0068L2.00293 18.1913H2.74158L3.24832 16.7866H5.42789L5.92755 18.1913H6.66601L4.71101 13.0068H3.95803ZM4.31995 13.8251H4.34899L5.19616 16.1638H3.47288L4.31995 13.8251Z" fill="#E6DAFE"/>
</g>
<defs>
<clipPath id="clip0_6_4601">
<rect width="28" height="6.78788" fill="white" transform="translate(2 13)"/>
</clipPath>
</defs>
</svg>
