<svg width="32" height="32" viewBox="0 0 32 32" fill="none" xmlns="http://www.w3.org/2000/svg">
<path d="M3.8287 19.3122C4.49161 19.3122 4.9945 19.1398 5.33658 18.7949C5.67866 18.45 5.8499 17.9327 5.8499 17.2429V13.6015H2.58551V14.6442H4.55858V17.3151C4.55858 17.9355 4.2939 18.2455 3.76454 18.2455C3.37433 18.2455 3.02664 18.0398 2.72186 17.6279L2 18.4941C2.20332 18.756 2.46399 18.9581 2.78201 19.0997C3.10003 19.2412 3.44893 19.3122 3.8287 19.3122ZM8.61702 19.2801C9.25867 19.2801 9.69699 19.0796 9.9324 18.6786V19.216H11.1034V16.7537C11.1034 16.112 10.9241 15.632 10.566 15.314C10.2079 14.9959 9.69459 14.8367 9.02607 14.8367C8.67837 14.8367 8.3403 14.882 8.01146 14.9731C7.68261 15.0641 7.40069 15.1924 7.16528 15.3581L7.61444 16.2323C7.76964 16.1092 7.95812 16.0117 8.17989 15.9396C8.40166 15.8674 8.62784 15.8313 8.85763 15.8313C9.18929 15.8313 9.43793 15.9047 9.60355 16.0518C9.76918 16.199 9.85219 16.4088 9.85219 16.6815H8.85763C8.22681 16.6815 7.76001 16.7966 7.45804 17.0264C7.15606 17.2561 7.00487 17.5718 7.00487 17.9728C7.00487 18.2242 7.06903 18.4488 7.19736 18.6465C7.32569 18.8442 7.51137 18.9994 7.7548 19.1117C7.99822 19.224 8.28536 19.2801 8.61702 19.2801ZM8.92982 18.438C8.71046 18.438 8.53801 18.3911 8.41249 18.2976C8.28697 18.2042 8.224 18.0771 8.224 17.9166C8.224 17.5798 8.48066 17.4113 8.99398 17.4113H9.85219V17.8525C9.78281 18.045 9.66491 18.1905 9.49928 18.2896C9.33366 18.3887 9.14357 18.438 8.92982 18.438ZM14.6084 19.2801C15.0628 19.2801 15.4598 19.1839 15.7995 18.9914C16.1392 18.7989 16.3862 18.5314 16.5414 18.1893L15.5709 17.66C15.3515 18.0558 15.0283 18.2535 14.6004 18.2535C14.2744 18.2535 14.0041 18.1464 13.7903 17.9327C13.5766 17.7189 13.4695 17.4274 13.4695 17.0584C13.4695 16.6895 13.5766 16.3979 13.7903 16.1842C14.0041 15.9704 14.2744 15.8634 14.6004 15.8634C15.0227 15.8634 15.3463 16.0611 15.5709 16.4569L16.5414 15.9355C16.3862 15.5826 16.1392 15.3111 15.7995 15.1215C15.4598 14.9318 15.0628 14.8367 14.6084 14.8367C14.1541 14.8367 13.7354 14.9318 13.3692 15.1215C13.0031 15.3111 12.7168 15.5746 12.511 15.9115C12.3053 16.2484 12.2022 16.6305 12.2022 17.0584C12.2022 17.4863 12.3053 17.8685 12.511 18.2054C12.7168 18.5423 13.0031 18.8057 13.3692 18.9954C13.7354 19.1851 14.1484 19.2801 14.6084 19.2801ZM19.501 19.2801C19.9554 19.2801 20.362 19.1851 20.7201 18.9954C21.0783 18.8057 21.359 18.5423 21.5623 18.2054C21.7656 17.8685 21.8671 17.4863 21.8671 17.0584C21.8671 16.6305 21.7656 16.2484 21.5623 15.9115C21.359 15.5746 21.0783 15.3111 20.7201 15.1215C20.362 14.9318 19.9554 14.8367 19.501 14.8367C19.0466 14.8367 18.6388 14.9318 18.2779 15.1215C17.9169 15.3111 17.635 15.5746 17.4317 15.9115C17.2284 16.2484 17.1269 16.6305 17.1269 17.0584C17.1269 17.4863 17.2284 17.8685 17.4317 18.2054C17.635 18.5423 17.9169 18.8057 18.2779 18.9954C18.6388 19.1851 19.0466 19.2801 19.501 19.2801ZM19.501 18.2535C19.1802 18.2535 18.9155 18.1452 18.707 17.9287C18.4984 17.7121 18.3942 17.4222 18.3942 17.0584C18.3942 16.6947 18.4984 16.4048 18.707 16.1882C18.9155 15.9716 19.1802 15.8634 19.501 15.8634C19.8218 15.8634 20.0853 15.9716 20.291 16.1882C20.4968 16.4048 20.5998 16.6947 20.5998 17.0584C20.5998 17.4222 20.4968 17.7121 20.291 17.9287C20.0853 18.1452 19.8218 18.2535 19.501 18.2535ZM25.4924 19.2801C25.8934 19.2801 26.2584 19.1879 26.5872 19.0034C26.9161 18.819 27.1739 18.5595 27.3612 18.2254C27.5485 17.8914 27.6419 17.5024 27.6419 17.0584C27.6419 16.6145 27.5485 16.2255 27.3612 15.8914C27.1739 15.5574 26.9161 15.2979 26.5872 15.1134C26.2584 14.929 25.8934 14.8367 25.4924 14.8367C24.9418 14.8367 24.5087 15.0104 24.1931 15.3581V13.2647H22.9419V19.216H24.1369V18.7187C24.4469 19.0929 24.8989 19.2801 25.4924 19.2801ZM25.2759 18.2535C24.955 18.2535 24.6916 18.1452 24.4858 17.9287C24.2801 17.7121 24.177 17.4222 24.177 17.0584C24.177 16.6947 24.2801 16.4048 24.4858 16.1882C24.6916 15.9716 24.955 15.8634 25.2759 15.8634C25.5967 15.8634 25.8602 15.9716 26.0659 16.1882C26.2716 16.4048 26.3747 16.6947 26.3747 17.0584C26.3747 17.4222 26.2716 17.7121 26.0659 17.9287C25.8602 18.1452 25.5967 18.2535 25.2759 18.2535ZM29.9679 14.9009V19.216H28.7167V14.9009H29.9679ZM30 13V14.2031H28.7167V13H30Z" fill="#E6DAFE"/>
</svg>
