<svg width="32" height="32" viewBox="0 0 32 32" fill="none" xmlns="http://www.w3.org/2000/svg">
<path d="M10.184 18.736V18.76C10.184 18.76 10.2 18.84 10.24 18.872C10.272 18.904 10.32 18.912 10.376 18.912C10.44 18.912 10.488 18.904 10.536 18.88C10.592 18.856 10.624 18.824 10.648 18.784V18.544H10.504C10.304 18.544 10.2 18.608 10.184 18.736Z" fill="#E6DAFE"/>
<path d="M8.968 14.44C8.968 14.44 8.888 14.416 8.848 14.416H8.504V15H8.84C8.936 15 9.016 14.976 9.064 14.928C9.12 14.88 9.144 14.816 9.144 14.728C9.144 14.632 9.12 14.56 9.064 14.504C9.032 14.472 9 14.456 8.968 14.44Z" fill="#E6DAFE"/>
<path d="M16.48 14.888C16.48 14.888 16.4 14.856 16.36 14.856C16.32 14.856 16.28 14.864 16.24 14.888C16.2 14.904 16.176 14.936 16.152 14.968C16.096 15.064 16.064 15.176 16.072 15.288H16.08C16.08 15.424 16.104 15.528 16.152 15.6C16.176 15.632 16.208 15.664 16.24 15.68C16.272 15.696 16.32 15.704 16.36 15.704C16.4 15.704 16.44 15.704 16.48 15.68C16.52 15.664 16.544 15.632 16.568 15.6C16.616 15.528 16.648 15.416 16.648 15.264C16.648 15.16 16.624 15.056 16.568 14.968C16.544 14.936 16.512 14.904 16.48 14.888Z" fill="#E6DAFE"/>
<path d="M13.088 18.056C13.008 18.056 12.944 18.08 12.896 18.136C12.84 18.192 12.808 18.264 12.8 18.344H13.352V18.32C13.352 18.24 13.328 18.168 13.272 18.128C13.232 18.08 13.168 18.056 13.088 18.056Z" fill="#E6DAFE"/>
<path d="M12.264 14.408H11.96V14.976H12.264C12.36 14.976 12.432 14.952 12.488 14.904C12.536 14.856 12.568 14.784 12.568 14.696C12.568 14.616 12.536 14.536 12.488 14.488C12.424 14.432 12.344 14.408 12.264 14.408Z" fill="#E6DAFE"/>
<path d="M10.4 14.416H10.224V15.664H10.4C10.544 15.664 10.656 15.616 10.736 15.52C10.816 15.416 10.856 15.28 10.856 15.096V14.992C10.856 14.8 10.824 14.664 10.744 14.56C10.664 14.464 10.552 14.416 10.4 14.416Z" fill="#E6DAFE"/>
<path d="M4 4V28H28V4H4ZM7.352 15.32C7.272 15.264 7.176 15.224 7.08 15.192C6.952 15.152 6.84 15.112 6.768 15.064C6.56 14.952 6.456 14.792 6.456 14.6C6.456 14.496 6.488 14.408 6.536 14.328C6.6 14.248 6.68 14.184 6.776 14.144C6.888 14.096 7.008 14.08 7.136 14.08C7.264 14.08 7.384 14.104 7.488 14.152C7.584 14.192 7.664 14.264 7.72 14.36C7.776 14.448 7.808 14.552 7.808 14.656H7.432C7.432 14.576 7.408 14.496 7.352 14.456C7.288 14.408 7.208 14.376 7.128 14.384C7.04 14.384 6.968 14.408 6.912 14.448C6.888 14.464 6.864 14.488 6.856 14.52C6.84 14.544 6.832 14.576 6.832 14.608C6.832 14.664 6.864 14.712 6.928 14.752C6.984 14.792 7.072 14.832 7.192 14.872C7.408 14.936 7.568 15.016 7.664 15.112C7.76 15.216 7.808 15.336 7.808 15.48C7.808 15.64 7.752 15.768 7.632 15.864C7.488 15.96 7.32 16.008 7.144 16C7 16 6.872 15.976 6.76 15.92C6.648 15.872 6.56 15.8 6.488 15.704C6.424 15.608 6.4 15.496 6.4 15.384H6.784C6.784 15.592 6.904 15.696 7.144 15.696C7.232 15.696 7.304 15.68 7.352 15.64C7.408 15.6 7.432 15.552 7.432 15.48C7.432 15.408 7.408 15.352 7.352 15.32ZM6.968 17.952C7.032 17.992 7.128 18.032 7.256 18.072C7.44 18.112 7.608 18.192 7.76 18.312C7.808 18.36 7.856 18.416 7.88 18.48C7.904 18.544 7.92 18.616 7.92 18.68C7.92 18.752 7.904 18.832 7.872 18.896C7.84 18.96 7.792 19.024 7.728 19.064C7.6 19.152 7.424 19.2 7.2 19.2C7.048 19.2 6.912 19.176 6.784 19.12C6.656 19.064 6.568 19 6.496 18.904C6.432 18.816 6.4 18.704 6.4 18.584H6.808C6.808 18.792 6.944 18.896 7.2 18.896C7.28 18.896 7.36 18.88 7.432 18.84C7.488 18.8 7.512 18.752 7.512 18.68C7.512 18.608 7.488 18.552 7.432 18.52C7.376 18.472 7.28 18.432 7.136 18.392C6.992 18.344 6.88 18.304 6.8 18.264C6.576 18.152 6.464 17.992 6.464 17.8C6.464 17.704 6.496 17.608 6.552 17.528C6.624 17.448 6.712 17.384 6.816 17.352C7.064 17.256 7.328 17.256 7.576 17.352C7.68 17.392 7.768 17.464 7.832 17.552C7.896 17.64 7.92 17.744 7.92 17.856H7.512C7.512 17.768 7.488 17.704 7.432 17.656C7.368 17.608 7.288 17.584 7.192 17.584C7.112 17.584 7.024 17.592 6.952 17.64C6.896 17.688 6.872 17.736 6.872 17.8C6.872 17.864 6.904 17.912 6.968 17.952ZM9.504 19.2H9.104V18.296C9.104 18.216 9.088 18.152 9.048 18.12C9.008 18.08 8.944 18.056 8.864 18.056C8.752 18.056 8.664 18.104 8.616 18.184V19.2H8.216V17.2H8.616V17.936C8.72 17.816 8.848 17.76 9.008 17.76C9.328 17.76 9.488 17.936 9.504 18.28V19.2ZM9.344 15.16C9.2 15.272 9.016 15.328 8.832 15.32H8.504V16H8.12V14.104H8.84C8.976 14.104 9.096 14.128 9.2 14.184C9.296 14.232 9.384 14.304 9.44 14.4C9.504 14.496 9.528 14.6 9.528 14.72C9.528 14.904 9.472 15.048 9.344 15.16ZM8.416 12.8C6.96 12.8 6.4 11.904 6.4 10.8C6.4 10.536 6.456 10.272 6.552 10.032C6.656 9.792 6.8 9.568 6.992 9.384C7.176 9.2 7.4 9.048 7.648 8.952C7.888 8.856 8.152 8.8 8.416 8.8C9.6 8.8 10.256 9.488 10.4 10.4H9.52C9.36 9.936 8.92 9.6 8.4 9.6C7.736 9.6 7.2 10.144 7.2 10.824C7.2 11.504 7.736 12.048 8.4 12.048C8.768 12.048 9.104 11.872 9.328 11.6H8.4V10.8H10.4V12.8H9.6V12.408C9.376 12.64 9.024 12.8 8.416 12.8ZM11.104 19.2H10.712C10.688 19.152 10.672 19.104 10.664 19.048C10.616 19.096 10.56 19.136 10.496 19.16C10.432 19.184 10.368 19.2 10.296 19.2C10.168 19.2 10.04 19.16 9.936 19.08C9.888 19.048 9.856 19 9.832 18.952C9.808 18.904 9.792 18.848 9.792 18.784C9.792 18.64 9.848 18.52 9.968 18.448C10.08 18.368 10.248 18.328 10.464 18.328H10.648V18.248C10.648 18.248 10.648 18.192 10.64 18.16C10.632 18.136 10.616 18.104 10.592 18.088C10.56 18.056 10.512 18.032 10.432 18.032C10.376 18.032 10.32 18.048 10.272 18.08C10.256 18.096 10.24 18.112 10.232 18.136C10.224 18.16 10.216 18.176 10.216 18.2H9.824C9.824 18.12 9.848 18.04 9.904 17.976C9.96 17.904 10.04 17.848 10.128 17.816C10.224 17.776 10.328 17.76 10.448 17.76C10.632 17.76 10.776 17.8 10.88 17.888C10.992 17.968 11.04 18.096 11.04 18.248V18.856C11.04 18.984 11.064 19.088 11.104 19.152V19.2ZM11.248 15.08C11.248 15.256 11.216 15.408 11.144 15.544C11.072 15.68 10.976 15.784 10.848 15.864C10.72 15.936 10.576 16 10.416 16H9.84V14.104H10.408C10.568 14.104 10.712 14.144 10.84 14.208C10.968 14.28 11.08 14.392 11.144 14.528C11.216 14.664 11.248 14.824 11.248 15V15.08ZM13.6 12V12.8H11.2V8.8H12V12H13.6ZM12.232 18.128H12.088C11.944 18.12 11.84 18.168 11.8 18.264V19.2H11.4V17.784H11.776L11.792 17.952C11.824 17.896 11.872 17.848 11.928 17.816C11.984 17.784 12.048 17.768 12.112 17.76C12.152 17.76 12.192 17.76 12.232 17.776V18.128ZM11.96 15.288V16H11.576V14.104H12.264C12.48 14.104 12.648 14.152 12.768 14.248C12.88 14.352 12.944 14.488 12.944 14.672C12.944 14.8 12.912 14.904 12.864 14.992C12.8 15.08 12.72 15.152 12.616 15.192L13.016 15.96V16H12.608L12.256 15.288H11.96ZM13.736 18.6H12.8C12.808 18.688 12.848 18.76 12.912 18.816C12.976 18.872 13.056 18.896 13.152 18.896C13.312 18.896 13.424 18.848 13.512 18.744L13.704 18.952C13.64 19.032 13.56 19.096 13.464 19.136C13.368 19.176 13.256 19.2 13.128 19.2C12.936 19.208 12.744 19.144 12.6 19.016C12.536 18.952 12.48 18.872 12.448 18.784C12.416 18.696 12.4 18.6 12.4 18.512V18.48C12.4 18.352 12.424 18.224 12.48 18.104C12.536 18 12.616 17.904 12.72 17.848C12.832 17.784 12.96 17.76 13.088 17.76C13.288 17.76 13.448 17.816 13.568 17.936C13.68 18.056 13.736 18.224 13.736 18.448V18.6ZM14.432 18.272C14.496 18.304 14.568 18.328 14.64 18.336C14.728 18.352 14.808 18.376 14.888 18.4C15.096 18.472 15.2 18.6 15.2 18.776C15.2 18.904 15.144 19 15.024 19.08C14.912 19.16 14.76 19.2 14.576 19.2C14.456 19.2 14.344 19.176 14.248 19.136C14.16 19.096 14.08 19.04 14.024 18.968C13.968 18.896 13.944 18.816 13.944 18.736H14.312C14.312 18.736 14.32 18.792 14.336 18.816C14.352 18.84 14.368 18.864 14.392 18.88C14.448 18.92 14.512 18.936 14.584 18.936C14.648 18.936 14.704 18.928 14.76 18.896C14.8 18.872 14.824 18.832 14.824 18.792C14.824 18.744 14.792 18.712 14.744 18.68H14.752C14.696 18.656 14.624 18.632 14.512 18.616C14.168 18.544 13.992 18.4 13.992 18.192C13.992 18.064 14.04 17.96 14.152 17.88C14.256 17.8 14.4 17.76 14.576 17.76C14.736 17.76 14.896 17.8 15.024 17.888C15.136 17.968 15.2 18.072 15.2 18.208H14.8C14.8 18.152 14.784 18.112 14.744 18.072C14.712 18.04 14.656 18.024 14.584 18.024C14.528 18.024 14.472 18.032 14.424 18.064C14.384 18.096 14.368 18.128 14.368 18.176C14.368 18.216 14.392 18.248 14.432 18.272ZM14.432 15.536C14.472 15.584 14.52 15.624 14.576 15.656C14.632 15.68 14.696 15.696 14.752 15.688C14.896 15.688 14.992 15.656 15.056 15.592V15.272H14.712V14.992H15.432V15.736C15.352 15.824 15.256 15.896 15.144 15.936C15.024 15.976 14.888 16 14.728 16C14.568 16 14.432 15.968 14.312 15.896C14.192 15.824 14.096 15.72 14.032 15.592C13.968 15.448 13.936 15.296 13.936 15.112V14.984C13.936 14.8 13.968 14.64 14.024 14.504C14.08 14.368 14.176 14.264 14.296 14.184C14.408 14.112 14.544 14.08 14.704 14.08C14.888 14.072 15.072 14.128 15.216 14.24C15.344 14.36 15.424 14.528 15.432 14.704H15.064C15.048 14.592 15.008 14.512 14.952 14.464C14.896 14.416 14.816 14.392 14.712 14.392C14.584 14.392 14.488 14.44 14.424 14.536C14.352 14.632 14.32 14.784 14.32 14.976V15.096C14.312 15.248 14.352 15.408 14.432 15.536ZM17.008 15.296C17.008 15.504 16.952 15.68 16.832 15.808C16.768 15.872 16.696 15.92 16.616 15.952C16.536 15.984 16.448 16 16.36 16C16.272 16 16.184 15.992 16.104 15.952C16.024 15.92 15.952 15.872 15.888 15.808C15.76 15.664 15.704 15.472 15.712 15.28V15.264C15.712 15.128 15.736 15.008 15.792 14.896C15.84 14.792 15.92 14.704 16.016 14.648C16.12 14.584 16.24 14.56 16.36 14.56C16.544 14.56 16.696 14.616 16.808 14.728C16.928 14.848 16.992 15 17.008 15.2V15.296ZM17.6 16H17.216V14H17.6V16ZM15.872 12.8H14.4V8.8H15.872C16.824 8.8 17.6 9.696 17.6 10.8C17.6 11.904 16.832 12.8 15.872 12.8ZM19.112 16H18.792L18.768 15.824C18.728 15.88 18.672 15.928 18.616 15.952C18.552 15.984 18.488 16 18.416 16C18.344 16 18.264 15.984 18.2 15.952C18.136 15.92 18.072 15.872 18.032 15.808C17.928 15.648 17.872 15.464 17.88 15.272C17.88 15.048 17.928 14.872 18.024 14.752C18.072 14.688 18.128 14.64 18.2 14.608C18.272 14.576 18.344 14.56 18.424 14.56C18.552 14.56 18.664 14.608 18.744 14.712V14H19.112V16ZM25.6 7.2H6.4V6.4H25.6V7.2Z" fill="#E6DAFE"/>
<path d="M18.512 14.856C18.336 14.856 18.248 15.008 18.248 15.296C18.248 15.424 18.272 15.528 18.312 15.592C18.36 15.672 18.424 15.696 18.512 15.696C18.624 15.696 18.704 15.648 18.752 15.552V15.008C18.728 14.96 18.696 14.92 18.656 14.896C18.616 14.872 18.56 14.856 18.512 14.856Z" fill="#E6DAFE"/>
<path d="M15.6 9.6H15.2V12H15.6C16.264 12 16.8 11.464 16.8 10.8C16.8 10.136 16.264 9.6 15.6 9.6Z" fill="#E6DAFE"/>
</svg>
