<svg width="32" height="32" viewBox="0 0 32 32" fill="none" xmlns="http://www.w3.org/2000/svg">
<path d="M17.9818 11.1147C17.8843 11.281 17.6663 11.3269 17.477 11.4015C17.477 11.4818 17.5401 11.5105 17.5516 11.5908H17.999C18.1079 11.5105 18.1538 11.3671 18.2571 11.2868C18.3947 11.2925 18.5037 11.3327 18.6299 11.3441V11.6195C18.8134 11.6711 18.9855 11.8202 18.8478 12.0382C19.0027 12.1988 19.1977 12.0439 19.3354 11.9636C19.473 11.8604 19.6394 11.7915 19.8114 11.7743C19.8631 11.8374 19.8114 11.9292 19.8229 12.0324C19.9778 12.0611 20.1728 11.9407 20.0523 11.7743C20.3219 11.7055 20.4997 11.4761 20.8439 11.5277C20.9012 11.6424 20.8611 11.7858 20.7406 11.8431C20.7291 11.8431 20.7234 11.8546 20.7119 11.8546C20.7349 11.9005 20.7521 11.9464 20.7693 11.998C20.9643 12.0726 21.1077 11.912 21.2454 11.8948C21.4576 11.8718 21.6469 12.0095 21.8476 12.0554C21.8247 12.1815 21.6927 12.1988 21.5895 12.2446C21.6182 12.2848 21.6813 12.2848 21.7042 12.3307C21.9164 12.1873 22.1917 12.1643 22.4212 12.2733C22.2893 12.4167 22.0942 12.4798 21.905 12.4454C21.8533 12.5372 21.7329 12.606 21.773 12.7494C21.8763 12.7609 22.0025 12.6175 22.1745 12.5773C22.4441 12.52 22.794 12.52 22.8915 12.692C22.88 12.7494 22.8341 12.7723 22.8169 12.8239C22.7309 12.7953 22.6506 12.7609 22.5703 12.7207C22.4556 12.7609 22.3466 12.8125 22.2376 12.8641C22.1344 13.0075 22.0426 13.1566 21.9508 13.3115C22.0426 13.409 22.3466 13.495 22.4556 13.3574C22.4212 13.1624 22.5474 12.9788 22.7424 12.9387C22.8112 12.9157 22.8456 13.0476 22.9144 13.0706C22.8972 13.1566 22.7883 13.1451 22.7538 13.214C23.0005 13.3115 23.0349 13.0534 23.2012 12.9845C23.2528 13.0304 23.3331 13.0534 23.3905 13.0993C23.3905 13.3115 23.1553 13.2771 23.1439 13.4721C23.4249 13.6614 23.7748 13.3975 23.8322 13.1394C24.0845 13.1394 24.1361 13.3574 24.0788 13.5868C24.0214 13.5983 23.9641 13.6212 23.9067 13.6441C23.9411 13.8965 24.1132 14.0456 24.4229 13.9768V13.8047C24.6294 13.7187 24.9162 13.5868 25.1571 13.7302C25.1055 13.8793 24.9162 14.017 24.813 14.1604C25.0366 14.212 25.2603 14.2865 25.4726 14.3783V14.5217C25.3349 14.5504 25.0883 14.5619 25.0711 14.4185C24.9908 14.4185 24.9105 14.4185 24.8244 14.4299C24.7384 14.5446 24.8072 14.602 24.8359 14.7339C24.6982 14.7855 24.5778 14.8486 24.4459 14.906C24.4459 14.9576 24.486 15.0207 24.4573 15.0494C24.3484 15.0895 24.2336 15.124 24.2279 15.2673C24.4 15.3018 24.5835 15.2559 24.7154 15.1412C24.8416 15.0551 24.9563 14.992 24.9736 14.8257C25.1055 14.8429 25.2661 14.8372 25.3923 14.8716C25.5184 14.8085 25.6446 14.7339 25.7651 14.6536C25.8224 14.6938 25.8855 14.7225 25.9544 14.7569C25.8855 14.8257 25.7651 14.8429 25.7077 14.9289C25.8454 15.1469 26.4362 14.7741 26.4419 15.187C26.3157 15.2157 26.1838 15.2329 26.0519 15.2444C26.0977 15.405 26.2928 15.4222 26.4247 15.5025C26.7516 15.3821 27.1187 15.4681 27.3596 15.7205C27.2736 15.7663 27.1818 15.795 27.09 15.8237C27.2334 15.8639 27.4227 15.8639 27.5776 15.8983C27.6292 15.9958 27.6923 16.0761 27.7381 16.1851C27.6464 16.2539 27.5145 16.2768 27.5489 16.4718C27.4858 16.4432 27.417 16.4202 27.3481 16.3973C27.2965 16.4546 27.2736 16.5464 27.2047 16.5866C26.9581 16.6152 26.9122 16.4432 26.8032 16.3284C26.8434 16.2654 26.8893 16.208 26.9352 16.1392C26.8434 16.099 26.7459 16.0761 26.6484 16.0646C26.5967 16.1277 26.5795 16.2252 26.5337 16.294C26.5795 16.3915 26.5738 16.4776 26.6197 16.5521C26.7115 16.7127 26.9466 16.7701 26.895 17.011C26.7918 17.0339 26.6828 17.0569 26.5795 17.0683C26.5451 17.0167 26.4935 16.9823 26.505 16.8791C26.4361 16.8676 26.396 16.8275 26.3042 16.8332C26.2297 16.9708 26.2297 17.097 26.0576 17.0798C25.8741 17.0569 25.8454 16.7873 25.7708 16.6496C25.6905 16.7013 25.6159 16.7644 25.5529 16.8389C25.5643 16.902 25.5873 16.9594 25.6274 17.011C25.3636 17.0454 25.0825 16.9594 24.8933 17.0856C24.8359 17.1429 24.813 17.2462 24.7499 17.3035C24.5835 17.3207 24.4229 17.2748 24.291 17.1716C24.3369 17.1314 24.3885 17.097 24.4516 17.0683C24.4516 16.9766 24.4631 16.8848 24.4803 16.793C24.4401 16.6898 24.3312 16.6554 24.2795 16.5636C24.1361 16.7644 23.7289 17.0511 23.6773 16.5751C23.5511 16.5235 23.4479 16.6726 23.3159 16.6898C23.0693 16.7242 22.8456 16.598 22.6391 16.6898C22.4613 16.7701 22.4441 16.9422 22.2663 17.0225C22.2434 17.1888 22.1057 17.315 21.9336 17.3265C21.8304 17.3322 21.7272 17.2576 21.601 17.2978C21.4461 17.3494 21.3314 17.51 21.1823 17.6132C21.0159 17.7624 20.8094 17.8656 20.5915 17.9172C20.3678 17.9459 20.1671 17.8828 19.886 17.9172C19.6738 17.9459 19.5648 18.1294 19.3526 18.2499C18.9798 18.4621 18.4808 18.4621 18.1596 18.594C18.0449 18.8292 17.999 19.093 18.0276 19.3569C18.0334 19.4142 18.0735 19.4773 18.085 19.5462C18.1252 19.7928 18.0965 19.9018 18.3546 19.9362C18.9339 20.0108 19.6222 19.9419 20.2244 19.9935C20.8094 20.0394 21.4633 20.0337 22.0484 20.0796C23.8494 20.2115 25.6561 20.3377 27.3481 20.5556C27.9045 20.6073 28.4551 20.6933 29 20.8137C28.6903 20.831 28.3748 20.8137 28.0651 20.7564C26.4017 20.6073 24.6524 20.5155 22.9087 20.4409C16.7256 20.1714 9.96902 20.2861 4.18745 20.831C4.2104 20.7564 4.3079 20.7679 4.35952 20.7564C5.33459 20.5843 6.38422 20.4868 7.43385 20.3836C8.90792 20.2402 10.4107 20.114 11.9478 20.0394C12.2518 20.028 12.6017 20.0222 12.9114 19.9993C13.6112 19.9419 14.4256 19.9305 15.1082 19.8387C15.2401 19.8215 15.4523 19.7584 15.4695 19.6207C15.4753 19.5519 15.4409 19.4487 15.4409 19.3339C15.4409 19.1561 15.4982 18.9841 15.4523 18.8579C15.3835 18.6743 14.9763 18.6055 14.8329 18.4679C14.5862 18.4564 14.3798 18.5539 14.1274 18.5424C13.9496 18.5309 13.7832 18.4392 13.6112 18.4392C13.399 18.4392 13.2097 18.5539 12.9917 18.5539C12.7279 18.5539 12.4526 18.5195 12.1887 18.508C11.9478 18.5023 11.7069 18.4851 11.4718 18.4506C11.2251 18.4105 10.9785 18.29 10.7089 18.2614C10.4565 18.2327 10.1984 18.3359 9.9346 18.29C9.774 18.2614 9.62488 18.0893 9.44707 18.0606C9.20044 18.0377 8.9538 18.0492 8.7129 18.0893C8.51789 18.1524 8.3917 18.399 8.12213 18.4334C7.80667 18.4793 7.59445 18.3589 7.31913 18.2442C7.24457 18.29 7.19868 18.3646 7.12986 18.4162C6.75704 18.3703 6.79145 17.9 6.32686 17.9287C6.13185 17.9402 6.0114 18.0893 5.82212 18.1467L5.51813 17.9459C5.63284 17.3953 4.99618 17.5501 4.85853 17.7738V18.0491C4.75528 18.0606 4.61189 17.9803 4.51439 17.9918C4.45703 17.9975 4.38247 18.0893 4.29643 18.1065C4.07274 18.1581 3.60815 18.095 3.57947 17.9344C3.53932 17.7165 3.8261 17.6993 3.8261 17.5043C3.8261 17.3666 3.65977 17.3953 3.74007 17.2347C3.568 17.2576 3.39593 17.2175 3.25254 17.12C3.34431 16.9708 3.45902 16.8332 3.59668 16.7185C3.51064 16.6152 3.25827 16.6783 3.10914 16.6439C3.01737 16.4718 3.13209 16.3571 3.21239 16.2424C3.13782 16.1564 2.99443 16.1392 3.00017 16.0015C3.0059 15.8581 3.25254 15.8294 3.39019 15.7434C3.52211 15.6516 3.62536 15.5369 3.70566 15.3993C3.8261 15.4394 3.96376 15.3878 4.02112 15.2673C4.1473 15.2846 4.24481 15.3304 4.36526 15.3534C4.39394 15.3132 4.31937 15.2444 4.3079 15.1928C4.35379 15.101 4.42262 15.0207 4.50865 14.9634C4.58895 15.0379 4.70366 15.0781 4.78396 15.1526C4.91588 15.0781 5.08222 15.0953 5.20267 15.1928C5.32312 15.1412 5.41489 15.0609 5.53534 15.0035C5.46077 14.9175 5.34032 14.8544 5.37474 14.688C5.43783 14.4127 6.08596 14.5389 6.40716 14.3841C6.51614 14.3324 6.53335 14.2464 6.60791 14.1833C6.77424 14.1604 6.94631 14.1604 7.11265 14.1948C7.23883 14.1145 7.35928 14.0284 7.474 13.9252C7.41664 13.8449 7.33634 13.8564 7.22736 13.8793C7.25604 13.822 7.27898 13.7589 7.3134 13.7072C7.53709 13.7072 7.75504 13.6499 7.94432 13.5352C7.85255 13.6786 7.83534 13.8506 7.88696 14.0112C8.0533 13.9539 8.19669 13.8678 8.36303 13.8105C8.36303 13.7417 8.25405 13.6728 8.19096 13.6212V13.3918C8.32288 13.3115 8.54083 13.3057 8.67849 13.1337C8.77026 13.019 8.7932 12.8412 8.96527 12.8641C9.10866 12.8813 9.14881 13.019 9.13734 13.2254H9.44133C9.41266 13.6499 8.70717 13.1451 8.73585 13.6155C9.01116 13.7703 9.34956 13.7359 9.58473 13.5294C9.73959 13.5524 9.9346 13.5466 10.0895 13.5753C10.1468 13.5466 10.1984 13.5008 10.2329 13.4434C9.99769 13.3459 9.71665 13.3 9.6134 13.0706C9.71091 13.0591 9.79695 13.0419 9.83136 12.9673C9.8371 12.8813 9.69944 12.9329 9.68797 12.8698C9.70518 12.7609 9.80842 12.7436 9.88872 12.6978C9.90592 12.4569 9.55031 12.52 9.41266 12.583C9.09719 12.4626 9.40692 11.9464 9.67076 12.021C9.774 12.0496 9.76827 12.193 9.81415 12.3077C9.92313 12.2504 9.99769 12.1529 10.1009 12.0898C10.4107 12.1471 10.1927 12.4282 10.1296 12.5945C10.2501 12.583 10.3705 12.5658 10.491 12.5372C10.4451 12.4511 10.4279 12.3594 10.4336 12.2676C10.5426 12.1988 10.663 12.1643 10.795 12.1643C10.8523 12.0898 10.9039 12.0095 10.9383 11.9177C11.1391 12.0439 11.3054 12.2045 11.5004 12.3364C11.5062 12.3995 11.4832 12.497 11.5119 12.5372C11.5807 12.5544 11.6496 12.5372 11.7127 12.5085C11.7987 12.5716 11.879 12.6347 11.9593 12.7092C12.0396 12.6691 12.1084 12.6175 12.1887 12.5773C12.1199 12.4454 12.0453 12.3135 11.9593 12.1873C11.8331 12.1643 11.7356 12.1127 11.6152 12.084C11.5291 11.9521 11.4373 11.8259 11.3284 11.7112H11.0416C11.0817 11.608 11.1219 11.5105 11.1735 11.4072C11.3513 11.5047 11.7758 11.3556 11.8331 11.5793C12.0224 11.5678 12.2748 11.6195 12.378 11.5219C12.378 11.3671 12.2518 11.3384 12.2748 11.1606C12.3952 11.1032 12.5329 11.0918 12.6648 11.1204C12.6992 11.1893 12.6418 11.2466 12.6533 11.3384C12.8082 11.4015 13.1982 11.2696 13.1695 11.4531C13.1523 11.5564 13.0319 11.5047 12.9229 11.5392C12.9057 11.6481 13.0089 11.6367 13.0089 11.7284C12.8942 11.8661 12.9344 12.1242 12.9516 12.3479C13.0261 12.3479 13.1351 12.2618 13.2384 12.2446C13.0892 12.0267 13.1982 11.8374 13.267 11.5965H13.571C13.6571 11.4531 13.6513 11.2237 13.8291 11.1778C13.9553 11.2294 14.0471 11.3155 14.1733 11.3671C14.0758 11.5392 13.9209 11.6596 13.8119 11.8259C14.0356 12.0955 14.4773 11.7686 14.5862 11.608C14.5346 11.5449 14.4371 11.5277 14.3855 11.4646C14.4945 11.2237 14.896 11.39 15.091 11.4531C15.2057 11.3958 15.2745 11.2925 15.395 11.2352C15.5212 11.3269 15.6703 11.3843 15.8251 11.3958C15.8366 11.4875 15.8251 11.5793 15.7965 11.6711C16.0144 11.694 16.003 11.4933 16.1406 11.4416C16.3069 11.5392 16.5077 11.5793 16.7027 11.5449C16.7773 11.39 16.6453 11.3155 16.5421 11.2868C16.7199 11.1835 16.9035 11.0918 17.087 11C17.1845 11.0344 17.2763 11.086 17.3566 11.1434C17.5286 11.109 17.8154 11.0115 17.9588 11.1319L17.9818 11.1147ZM17.5917 11.9292C17.5803 12.084 17.4483 12.1185 17.3623 12.1988C17.5917 12.3708 18.1137 12.2905 18.2112 12.0668C18.1596 11.9234 18.1596 11.7227 18.0104 11.6768C17.9359 11.8259 17.8384 11.9808 17.5917 11.9234V11.9292ZM15.2975 11.7284C15.2344 11.7973 15.1598 11.8546 15.0795 11.9005C14.9877 11.8546 14.896 11.7973 14.8099 11.7399C14.7296 11.8489 14.5576 11.9177 14.6665 12.1013C14.8558 12.107 15.0107 12.1471 15.2 12.1586C15.3147 12.0611 15.4753 12.0152 15.5154 11.8431C15.4351 11.8145 15.4007 11.7399 15.2975 11.7284ZM10.6688 12.8928C10.7261 12.9215 10.7835 12.9559 10.8408 12.996C10.9383 12.9559 11.0301 12.8928 11.0989 12.8067C11.0703 12.6232 10.8179 12.5888 10.6974 12.5486C10.7147 12.6633 10.7032 12.7838 10.6688 12.8928ZM12.3379 12.8526C12.3608 12.8928 12.3837 12.9329 12.4124 12.9673C12.3665 12.996 12.3034 13.0018 12.2977 13.0706C12.2518 13.3918 11.8618 13.3459 11.5521 13.3V13.4319C11.7299 13.5008 11.9077 13.5638 12.0855 13.6327C12.1486 13.5294 12.2174 13.4319 12.3034 13.3459C12.3837 13.3688 12.464 13.386 12.5501 13.4032C12.5443 13.3344 12.5501 13.2656 12.5615 13.2025C12.9344 13.1796 13.3072 13.1509 13.3531 12.801C13.29 12.6117 12.9286 12.4741 12.9229 12.801C12.7852 12.7207 12.6763 12.6117 12.5329 12.5429C12.4755 12.6519 12.3952 12.7379 12.3436 12.8584L12.3379 12.8526ZM15.4523 12.6806C15.3319 12.7551 15.2 12.8182 15.0623 12.8698C15.0279 12.9788 14.9648 13.0476 14.9304 13.1566C15.0279 13.2828 15.1426 13.386 15.2344 13.518C15.1885 13.69 15.1254 13.8564 15.0336 14.0055C15.2057 13.994 15.286 14.0743 15.4064 14.1087C15.4867 13.9826 15.6818 13.9252 15.6359 13.7187C15.7448 13.6843 15.871 13.604 15.8538 13.4893C15.7621 13.4319 15.6359 13.5868 15.5498 13.4893C15.5498 13.3287 15.676 13.2885 15.7219 13.1738C15.699 13.0591 15.6818 12.9444 15.6818 12.8297C15.5957 12.7895 15.5326 12.7264 15.4523 12.6863V12.6806ZM18.7561 13.2369C18.7733 13.3402 18.8134 13.4262 18.8306 13.5409C18.7217 13.6212 18.6069 13.7015 18.4865 13.7703C18.5897 13.9596 18.7274 14.1087 18.8478 14.2865C18.9454 14.298 19.0429 14.3267 19.1346 14.3611C19.3469 14.2521 19.5476 14.1317 19.5533 13.8162C19.473 13.6843 19.3067 13.6327 19.1633 13.7015V13.3115C19.0371 13.2599 18.9052 13.1165 18.7618 13.2369H18.7561ZM20.1384 13.5983C20.1613 13.3516 19.7483 13.3402 19.691 13.5237C19.7254 13.5466 19.7713 13.5581 19.7942 13.5983C19.7426 13.6384 19.691 13.69 19.6508 13.7417C19.6738 13.7875 19.7025 13.822 19.7254 13.8736C20.0351 13.9596 20.4309 13.9711 20.5743 13.713C20.4252 13.69 20.2818 13.6556 20.1441 13.5983H20.1384ZM13.8578 14.1718C13.7832 14.103 13.7144 14.0227 13.6571 13.9424C13.5882 13.9539 13.5596 14.0055 13.4965 14.0284C13.6054 14.1145 13.7546 14.4299 13.5538 14.4758C13.3645 14.516 13.2785 14.2751 13.1236 14.2292C13.072 14.3095 12.9745 14.3496 12.9344 14.4471C13.0089 14.4816 13.0835 14.516 13.1523 14.5619C13.1122 14.6249 13.0376 14.6594 13.0089 14.7339C13.1867 14.8142 13.3817 14.8314 13.571 14.7913C13.5538 14.8716 13.5538 14.9634 13.5423 15.0494C13.571 15.0953 13.6341 15.1067 13.6743 15.1526C13.9266 14.8945 14.5461 14.9978 14.7813 14.7225C14.6895 14.6823 14.6034 14.6249 14.5346 14.5504C14.6608 14.4701 14.8271 14.4299 14.8788 14.2808C14.7468 14.2177 14.5002 14.2693 14.3167 14.2521C14.2937 14.189 14.2765 14.1202 14.2765 14.0514C14.4543 14.0284 14.4773 13.7761 14.4486 13.5925C14.093 13.6269 14.0012 13.9309 13.8578 14.1833V14.1718ZM10.5254 14.0284C10.5541 13.8277 10.0665 13.7646 9.87725 13.8678C9.92887 13.9653 9.98622 14.0514 10.0493 14.1374C10.2329 14.1259 10.5024 14.1661 10.5254 14.0227V14.0284ZM22.4097 14.3152C22.5072 14.4185 22.599 14.5332 22.6793 14.6479C22.7997 14.5905 22.8055 14.4644 22.9489 14.4471C23.0865 14.4299 23.2528 14.5733 23.379 14.4644C23.3676 14.3554 23.3504 14.2521 23.3217 14.1489C23.184 14.1776 23.0406 14.1776 22.903 14.1604C22.8284 14.0858 22.8284 13.9481 22.7711 13.8564C22.7366 14.0973 22.5588 14.2005 22.3982 14.3152H22.4097ZM17.6491 14.0284V14.189C17.7409 14.189 17.867 14.1374 17.9531 14.1776C17.9416 14.2292 17.9359 14.2808 17.9416 14.3382C18.1022 14.321 18.2628 14.3668 18.389 14.4701C18.4865 14.4299 18.584 14.3841 18.6758 14.3267C18.5611 14.3038 18.4521 14.2693 18.3431 14.2235C18.3833 13.822 17.8785 13.9711 17.6548 14.0342L17.6491 14.0284ZM11.2022 14.3038C11.2825 14.3382 11.3341 14.4013 11.4201 14.4357C11.4775 14.3841 11.5463 14.3496 11.6094 14.3038C11.5865 14.1661 11.6725 14.1374 11.684 14.0342C11.5291 14.0342 11.4144 14.0055 11.2653 14.0055C11.2538 14.1087 11.2309 14.2062 11.2079 14.3095L11.2022 14.3038ZM15.699 14.189C15.676 14.2865 15.5842 14.3267 15.4695 14.3324C15.481 14.2751 15.4466 14.2579 15.4581 14.2005C15.3319 14.1317 15.2114 14.2292 15.0852 14.2464C15.2229 14.4242 15.2917 14.6422 15.286 14.8658C15.6416 14.9003 15.8309 15.101 16.1463 15.1698C16.2897 15.0953 16.4217 15.015 16.565 14.9404C16.7256 14.9806 17.0124 15.0322 17.0526 14.8831C17.0985 14.7167 16.8862 14.6766 16.8346 14.5504C16.8805 14.4988 17.0067 14.5274 17.0927 14.5217C17.1329 14.4357 17.1673 14.3382 17.2074 14.2521C17.0182 14.2407 16.8518 14.3611 16.6912 14.3382C16.5593 14.321 16.502 14.1948 16.3758 14.1776C16.2897 14.2464 16.284 14.3898 16.2611 14.5217C16.3241 14.5733 16.4044 14.6135 16.4618 14.6651C16.3414 14.7454 16.2438 14.8544 16.1177 14.9232C15.9685 14.8601 15.7334 14.8888 15.6875 14.7225C15.7276 14.6995 15.7793 14.688 15.8194 14.6651C15.8194 14.5905 15.7678 14.5733 15.7621 14.5045C15.8366 14.4299 15.9054 14.3496 15.9628 14.2579C15.9341 14.1374 15.8137 14.1259 15.7047 14.1833L15.699 14.189ZM12.0339 14.189C11.7643 14.2349 11.6381 14.5045 11.6438 14.7798C11.8274 14.7913 12.0052 14.7339 12.1486 14.6192C12.1945 14.7511 12.2633 14.8716 12.3493 14.9806C12.4927 14.9576 12.6132 14.9117 12.768 14.8945C12.7967 14.7569 12.8139 14.6192 12.8139 14.4758C12.7451 14.5217 12.6648 14.5619 12.5845 14.5905C12.5386 14.5561 12.4755 14.5446 12.4526 14.4873C12.5099 14.4185 12.5673 14.3496 12.6132 14.2693C12.5386 14.1661 12.2059 14.1546 12.0396 14.1833L12.0339 14.189ZM8.28273 14.2292C8.10492 14.4471 7.36502 14.2923 7.46252 14.7167C7.50841 14.9289 8.19669 14.8773 8.32288 14.7167C8.25978 14.6536 8.20243 14.5848 8.15081 14.516C8.23684 14.4529 8.31141 14.3783 8.38023 14.298C8.34582 14.2751 8.31141 14.2464 8.27699 14.2235L8.28273 14.2292ZM11.0416 14.602C11.1047 14.3439 10.3705 14.2407 10.0952 14.2292C10.0952 14.2808 10.078 14.3267 10.0378 14.3611C9.88298 14.4357 9.71091 14.3611 9.55031 14.3898C9.38971 14.4185 9.25206 14.5561 9.10293 14.5791C9.15455 14.6766 9.21764 14.7683 9.29221 14.8486C9.56178 14.7798 9.76253 14.6364 10.1411 14.6766C10.2329 14.7339 10.3762 14.9347 10.4451 14.9232C10.4565 14.8429 10.4279 14.7225 10.4565 14.6651C10.6114 14.7052 11.0072 14.7741 11.0473 14.6077L11.0416 14.602ZM20.5686 15.3821C20.6144 15.4509 20.6431 15.5369 20.7292 15.5713C20.8209 15.5369 20.907 15.5025 20.9987 15.4681C20.97 15.1985 21.2167 15.1985 21.2855 15.0207C21.2109 14.8716 20.993 14.9289 20.8668 14.992C20.7865 14.9289 20.7578 14.8142 20.6661 14.7626C20.6775 14.9748 20.6431 15.1813 20.5628 15.3821H20.5686ZM8.7129 15.0781C8.63834 15.2788 8.25405 15.1756 8.06477 15.2673C8.00168 15.4452 8.16801 15.4968 8.35155 15.4681C8.4548 15.5312 8.46627 15.6918 8.63834 15.6861V15.4968C8.8735 15.4853 9.1144 15.4738 9.15455 15.2673C9.02836 15.1584 8.8735 15.0953 8.70717 15.0781H8.7129ZM10.0952 15.7663C9.99769 15.6115 10.0665 15.2329 9.77974 15.3935C9.6765 15.686 9.48722 15.8868 9.01689 15.8122C9.08572 15.8811 9.14308 16.0589 9.26353 16.099C9.33236 16.122 9.41266 16.0818 9.48148 16.1105C9.57325 16.1506 9.55031 16.2711 9.67076 16.3571C9.94607 16.5521 10.5082 16.2883 10.6745 16.1564C10.7376 16.1048 10.8351 16.0302 10.8179 15.9843C10.5024 15.9097 10.2386 15.9843 10.1009 15.7663H10.0952ZM4.93309 15.8983C5.00765 16.0531 5.12237 16.2023 5.29444 16.1851C5.4493 16.1736 5.71888 15.9155 5.83933 15.8696C5.55828 15.7663 5.28297 15.6516 5.15105 15.3935C5.08222 15.5656 4.99618 15.7147 4.93309 15.8983ZM4.70366 15.5656C4.6291 15.296 4.2276 15.6058 4.2276 15.6975C4.2276 15.7434 4.37099 15.8122 4.41688 15.8581C4.55454 15.7836 4.75528 15.7549 4.70366 15.5713V15.5656ZM24.377 15.8524C24.1419 15.99 23.9411 16.1851 23.7863 16.4145C24.0272 16.3973 24.2566 16.3629 24.377 16.2252C24.486 16.2539 24.595 16.2711 24.7097 16.2826C24.7671 16.2309 24.9047 16.1105 24.8818 16.0646C24.704 16.0187 24.5319 15.9499 24.377 15.8466V15.8524ZM21.2855 15.9958C21.2454 16.1105 20.9873 16.1851 20.9528 16.3571C20.9184 16.5349 21.0618 16.7242 21.0274 16.8905C20.9758 17.1142 20.4653 17.1544 20.2818 17.0339C20.299 16.9651 20.3104 16.8905 20.3104 16.816C20.1671 16.8045 20.0237 16.7529 19.9491 16.8561C19.9663 16.902 19.9663 16.9536 19.9606 16.9995C19.8516 17.0856 19.6967 17.0626 19.6107 16.9536C19.582 16.9135 19.5648 16.8733 19.5591 16.8217C19.6222 16.8102 19.6795 16.7701 19.7197 16.7185V16.489H19.605C19.5763 16.5349 19.5935 16.6324 19.5304 16.6496C19.4272 16.6496 19.3526 16.6726 19.2608 16.6783V16.5063C19.0715 16.4718 19.0199 16.5808 18.9568 16.6783C19.1117 16.8045 19.2608 16.9422 19.387 17.097C19.3182 17.1314 19.2895 17.2003 19.2149 17.2289C18.7217 16.9192 18.5725 17.6419 18.0678 17.4297C18.0219 17.6304 17.9703 17.8312 17.9244 18.0319C18.1309 17.9975 18.28 17.8828 18.498 17.8427C18.7045 17.8083 18.9396 17.8599 19.1461 17.7968C19.2723 17.7624 19.4042 17.6304 19.5648 17.5788C19.6566 17.5501 19.7426 17.5329 19.8401 17.5215C20.0982 17.4985 20.4768 17.6075 20.7005 17.4928C20.798 17.4412 20.8668 17.2634 20.9586 17.206C21.0045 17.1773 21.0905 17.1773 21.1593 17.1486C21.2224 17.12 21.274 17.0569 21.3314 17.0339C21.5149 16.9479 21.7099 16.8963 21.905 16.8733C21.9623 16.7242 21.9279 16.5636 22.0082 16.4546C22.0598 16.3858 22.1975 16.3973 22.1803 16.2826C22.0197 16.1908 21.8189 16.208 21.6755 16.3227C21.6583 16.3743 21.6526 16.426 21.6469 16.4833C21.578 16.4948 21.5264 16.5235 21.4576 16.5407C21.383 16.4718 21.3543 16.3629 21.383 16.2711C21.4633 16.2252 21.5608 16.1965 21.5264 16.0417C21.4404 16.0302 21.3601 16.013 21.2798 15.9843L21.2855 15.9958ZM22.2663 16.7472C22.4097 16.6726 22.5187 16.4374 22.685 16.403C22.8858 16.3629 23.3561 16.5349 23.5167 16.3743C23.5798 16.3055 23.5798 16.2023 23.5167 16.1334C23.488 16.1048 23.4479 16.0875 23.402 16.0875C23.2242 16.0646 23.0578 16.2137 22.9259 16.2309C22.7309 16.2539 22.6793 16.1048 22.5072 16.1449C22.4843 16.3915 22.3122 16.5751 22.2606 16.7472H22.2663ZM5.94257 16.4145V16.7299C6.08023 16.8045 6.22362 16.8676 6.37275 16.9192C6.4129 16.7873 6.45878 16.6554 6.51614 16.5292C6.31539 16.4776 6.13185 16.2711 5.94257 16.4145ZM7.14706 17.2175C7.16427 17.0913 7.17574 16.9594 7.17574 16.8275C7.28472 16.793 7.35355 16.7299 7.46252 16.7013V16.4718C6.92911 16.4489 6.65379 16.7414 6.78571 17.3035C6.63085 17.2404 6.48172 17.1773 6.32686 17.1142V17.3551C6.54482 17.4297 6.77424 17.4526 7.00367 17.4125C7.03808 17.4698 7.06103 17.5329 7.07823 17.6018C7.25604 17.5501 7.37075 17.6018 7.52562 17.5444C7.65754 17.4985 7.72063 17.3437 7.84108 17.3265C7.96153 17.3092 8.05904 17.3953 8.2139 17.401C8.19096 16.9364 7.41664 17.0225 7.1528 17.2117L7.14706 17.2175ZM12.596 17.1028C12.4583 17.0741 12.3379 17.011 12.2346 16.9135C12.2346 16.8389 12.2174 16.7644 12.1773 16.6955C12.0683 16.5693 11.5406 16.5751 11.489 16.7357C11.7127 16.9192 11.8905 17.1486 12.3092 17.1372C12.3436 17.1945 12.3723 17.2576 12.3952 17.3265C12.5214 17.3265 12.6189 17.3494 12.7566 17.3379C12.9458 17.51 13.1753 17.6362 13.4162 17.7107C13.7603 17.7738 14.1618 17.6591 14.4773 17.7222C14.6551 17.7624 14.7526 17.8828 14.9074 17.923C14.8157 17.6247 14.6149 17.3723 14.3453 17.2175C14.3339 17.3551 14.2192 17.4641 14.0758 17.3781C14.0758 17.3207 14.0872 17.2404 14.0643 17.206C13.8406 17.1544 13.4907 17.2347 13.5596 16.8905C13.462 16.7701 13.181 16.6267 13.0261 16.7472C13.0089 17.0397 13.3187 17.011 13.3531 17.2519C13.3359 17.3207 13.2326 17.3092 13.1351 17.3092C13.0319 17.2576 13.0089 17.12 12.9745 16.9938C12.9401 16.9938 12.9229 17.0167 12.8713 17.0053C12.9344 17.3551 12.6705 17.3322 12.5845 17.0913L12.596 17.1028ZM5.40915 16.6898C5.22561 16.7013 5.1109 16.8676 4.93309 16.8791C4.7897 16.8905 4.62336 16.7242 4.48571 16.8676C4.52012 17.2003 4.87 17.2863 5.17399 17.2978C5.17972 17.2232 5.15678 17.12 5.18546 17.0683C5.39195 17.0856 5.59843 17.0339 5.77624 16.925C5.65005 16.8504 5.52387 16.7758 5.40342 16.6955L5.40915 16.6898ZM8.75879 16.8447C8.78747 17.0167 9.15455 16.9479 9.34956 16.9479C9.40118 16.7586 8.7129 16.5636 8.75879 16.8447ZM16.5765 16.7013C16.5306 16.8217 16.479 16.9422 16.4159 17.0626C16.4561 17.1257 16.479 17.1945 16.4905 17.2634C16.2324 17.3838 15.9399 17.424 15.6588 17.3781C15.699 17.4813 15.8768 17.5788 15.9456 17.7107C16.198 17.7796 16.4503 17.9115 16.7945 17.8427C16.9379 17.6132 17.1386 17.4297 17.2419 17.1544C17.1616 17.1486 17.0813 17.12 17.0124 17.0798C17.0124 16.9422 17.0296 16.7816 16.9551 16.7185C16.8289 16.7013 16.7084 16.6955 16.5823 16.707L16.5765 16.7013ZM10.3935 17.0053C10.3418 17.1945 10.6114 17.3207 10.4508 17.5215C10.2443 17.5788 10.0551 17.4068 9.9346 17.292C9.96328 17.2347 10.0206 17.1429 9.98049 17.0626C9.84283 17.0282 9.69944 17.1142 9.67076 17.2576C9.66503 17.2863 9.65929 17.3207 9.67076 17.3494C9.68223 17.4469 9.81415 17.5329 9.81415 17.6247C9.81415 17.7165 9.73959 17.7624 9.68223 17.814C9.87725 18.0434 10.2214 17.9689 10.5598 17.9746C10.8351 17.9746 11.0817 18.1065 11.3341 18.118C11.6782 18.1352 12.0281 17.9689 12.3551 17.9746C12.4182 17.8771 12.4411 17.7452 12.5271 17.6706C12.6246 17.6706 12.6935 17.6477 12.7967 17.6591C12.6591 17.3265 11.7356 17.8312 11.793 17.3265C11.5406 17.2863 11.3571 17.1659 11.0473 17.1831C11.0703 17.2634 11.2309 17.3207 11.294 17.4125C11.1448 17.4985 10.9728 17.5272 10.8064 17.4985C10.6573 17.3666 10.8867 17.1831 10.8064 16.9938C10.6745 16.9766 10.5368 16.9823 10.4049 17.0053H10.3935ZM5.99993 17.3322C5.97698 17.2519 6.02287 17.1773 5.99993 17.1142C5.93683 16.9422 5.73609 17.0339 5.63858 17.1888C5.68446 17.2175 5.74756 17.2289 5.7705 17.292C5.75329 17.4354 5.56975 17.4182 5.51239 17.5215C5.70167 17.6362 5.93683 17.6419 6.13185 17.5329C6.14905 17.4526 6.02287 17.4068 5.99993 17.3322ZM9.1144 17.4641C8.86203 17.315 8.67275 17.6821 8.39744 17.7222C8.1336 17.7624 8.06477 17.6419 7.82387 17.5903C7.69195 17.7222 7.62886 17.9115 7.50841 18.0491C7.7149 18.095 7.8927 18.2097 8.09919 18.1811C8.30567 18.1524 8.41465 17.9058 8.66128 17.8484C8.8735 17.8025 9.01689 17.8484 9.28073 17.8025C9.22911 17.6706 9.22338 17.5157 9.12014 17.4584L9.1144 17.4641ZM13.3703 17.9689C13.1466 17.9172 12.9688 17.728 12.6361 17.8083C12.573 17.8943 12.5329 18.0147 12.464 18.095C12.2805 18.1122 12.1027 18.1524 11.9306 18.2097C12.3149 18.1983 12.6935 18.3073 13.0663 18.2671C13.2842 18.2442 13.4506 18.1352 13.6685 18.1524C13.984 18.1753 14.2822 18.3187 14.5461 18.1524C14.3224 17.9172 13.7374 18.0492 13.3645 17.9631L13.3703 17.9689Z" fill="#E6DAFE"/>
</svg>
