<svg width="32" height="32" viewBox="0 0 32 32" fill="none" xmlns="http://www.w3.org/2000/svg">
<g clip-path="url(#clip0_6_4529)">
<path d="M4 19.9573H8.66639V20.6253H4V19.9573Z" fill="#E6DAFE"/>
<path d="M4 18.676H8.66639V19.3464H4V18.676Z" fill="#E6DAFE"/>
<path d="M5.33105 17.397H7.33263V18.0673H5.33105V17.397Z" fill="#E6DAFE"/>
<path d="M5.33105 16.1182H7.33263V16.7885H5.33105V16.1182Z" fill="#E6DAFE"/>
<path d="M5.33105 14.8391H7.33263V15.5095H5.33105V14.8391Z" fill="#E6DAFE"/>
<path d="M5.33105 13.5579H7.33263V14.2282H5.33105V13.5579Z" fill="#E6DAFE"/>
<path d="M8.66639 12.2788H4V12.9492H8.66639V12.2788Z" fill="#E6DAFE"/>
<path d="M8.66639 11H4V11.6704H8.66639V11Z" fill="#E6DAFE"/>
<path d="M9.33203 19.3461H16.5087C16.63 19.1393 16.7203 18.9135 16.775 18.6758H9.33203V19.3461Z" fill="#E6DAFE"/>
<path d="M15.9505 16.1182H10.666V16.7885H16.5091C16.357 16.5318 16.1692 16.306 15.9505 16.1182Z" fill="#E6DAFE"/>
<path d="M10.666 14.8391V15.5095H15.9505C16.1739 15.3217 16.3617 15.0958 16.5091 14.8391H10.666Z" fill="#E6DAFE"/>
<path d="M16.5088 12.2788H9.33203V12.9492H16.775C16.7132 12.7115 16.6228 12.4856 16.5088 12.2788Z" fill="#E6DAFE"/>
<path d="M14.3027 11H9.33203V11.6704H16.0167C15.5698 11.2567 14.9636 11 14.3027 11Z" fill="#E6DAFE"/>
<path d="M12.6652 13.5579H10.666V14.2282H12.6652V13.5579Z" fill="#E6DAFE"/>
<path d="M14.666 14.2282H16.7579C16.8174 14.0143 16.8483 13.7885 16.8483 13.5579H14.666V14.2282Z" fill="#E6DAFE"/>
<path d="M10.666 17.397H12.6652V18.0673H10.666V17.397Z" fill="#E6DAFE"/>
<path d="M14.666 17.397V18.0673H16.8483C16.8483 17.8367 16.8174 17.6109 16.7579 17.397H14.666Z" fill="#E6DAFE"/>
<path d="M9.33203 20.6205L14.3027 20.6276C14.9683 20.6276 15.5698 20.3709 16.019 19.9573H9.33203V20.6205Z" fill="#E6DAFE"/>
<path d="M17.334 19.9573H20.6668V20.6253H17.334V19.9573Z" fill="#E6DAFE"/>
<path d="M17.334 18.676H20.6668V19.3464H17.334V18.676Z" fill="#E6DAFE"/>
<path d="M18.665 17.397H20.6666V18.0673H18.665V17.397Z" fill="#E6DAFE"/>
<path d="M18.665 16.1182H20.6666V16.7885H18.665V16.1182Z" fill="#E6DAFE"/>
<path d="M21.5939 12.2788H17.334V12.9492H21.8245L21.5939 12.2788Z" fill="#E6DAFE"/>
<path d="M21.1517 11H17.334V11.6704H21.3823L21.1517 11Z" fill="#E6DAFE"/>
<path d="M24.665 19.9573H28.0002V20.6253H24.665V19.9573Z" fill="#E6DAFE"/>
<path d="M24.665 18.676H28.0002V19.3464H24.665V18.676Z" fill="#E6DAFE"/>
<path d="M24.665 17.397H26.6666V18.0673H24.665V17.397Z" fill="#E6DAFE"/>
<path d="M24.665 16.1182H26.6666V16.7885H24.665V16.1182Z" fill="#E6DAFE"/>
<path d="M24.665 15.5095H26.6666V14.8391H24.665H22.8536L22.6658 15.3811L22.478 14.8391H20.6666H18.665V15.5095H20.6666V14.8938L20.8782 15.5095H24.4535L24.665 14.8938V15.5095Z" fill="#E6DAFE"/>
<path d="M26.6668 13.5579H23.296L23.0654 14.2282H26.6668V13.5579Z" fill="#E6DAFE"/>
<path d="M24.1827 11L23.9521 11.6704H28.0005V11H24.1827Z" fill="#E6DAFE"/>
<path d="M22.6661 20.6205L22.8967 19.9573H22.4355L22.6661 20.6205Z" fill="#E6DAFE"/>
<path d="M22.2236 19.3464H23.1079L23.3456 18.676H21.9883L22.2236 19.3464Z" fill="#E6DAFE"/>
<path d="M21.7744 18.0673H23.5573L23.7926 17.397H21.5391L21.7744 18.0673Z" fill="#E6DAFE"/>
<path d="M21.3273 16.7885H24.0063L24.2346 16.1182H21.0967L21.3273 16.7885Z" fill="#E6DAFE"/>
<path d="M18.665 14.2282H22.2665L22.0359 13.5579H18.665V14.2282Z" fill="#E6DAFE"/>
<path d="M23.5098 12.9492H28.0003V12.2788H23.738L23.5098 12.9492Z" fill="#E6DAFE"/>
</g>
<defs>
<clipPath id="clip0_6_4529">
<rect width="24" height="9.62758" fill="white" transform="translate(4 11)"/>
</clipPath>
</defs>
</svg>
