<svg width="32" height="32" viewBox="0 0 32 32" fill="none" xmlns="http://www.w3.org/2000/svg">
<g opacity="0.999">
<path d="M23.6899 17.6946C23.7192 17.1314 23.7339 16.5583 23.7339 15.9999C23.7339 15.4416 23.7192 14.8685 23.6899 14.3052C24.2678 14.3346 24.836 14.3689 25.3894 14.4032C25.4237 14.9371 25.4433 15.471 25.4433 15.9999C25.4433 16.5289 25.4237 17.0628 25.3894 17.5967C24.8409 17.631 24.2678 17.6652 23.6899 17.6946ZM22.1617 24.635C22.338 24.111 22.5045 23.5575 22.6466 22.9942C21.8041 23.195 20.9274 23.3518 20.0311 23.4742C19.9723 24.0424 19.9086 24.6008 19.8352 25.1395C20.6335 25.0073 21.4123 24.8408 22.1617 24.635ZM19.1739 27.6914C19.3111 26.9812 19.4335 26.2269 19.5413 25.4383C18.9829 25.5216 18.4099 25.5804 17.8368 25.6244C17.7829 26.4571 17.7192 27.2555 17.6507 27.9999C18.1601 27.9314 18.6743 27.8285 19.1739 27.6914ZM8.26618 15.9999C8.26618 15.4416 8.28088 14.8685 8.31026 14.3052C7.7323 14.3346 7.16414 14.3689 6.61067 14.4032C6.57639 14.9371 6.55679 15.471 6.55679 15.9999C6.55679 16.5289 6.57639 17.0628 6.61067 17.5967C7.15924 17.631 7.7323 17.6652 8.31026 17.6946C8.28088 17.1314 8.26618 16.5583 8.26618 15.9999ZM17.827 20.124C17.8417 19.4677 17.8564 18.7967 17.8662 18.1208C17.2441 18.1257 16.6172 18.1306 16.0001 18.1306C15.3878 18.1306 14.7609 18.1257 14.1339 18.1208C14.1437 18.7967 14.1535 19.4677 14.1731 20.124C14.7805 20.1387 15.3927 20.1436 16.0001 20.1436C16.6074 20.1436 17.2197 20.1387 17.827 20.124ZM19.8009 8.75096C19.1984 8.6726 18.5813 8.61872 17.9592 8.57954C18.0082 9.56402 18.0425 10.5877 18.0719 11.6261C18.7282 11.6408 19.3845 11.6701 20.0262 11.6995C19.9723 10.7004 19.8988 9.70607 19.8009 8.75096ZM11.9641 8.52566C12.0229 7.95749 12.0866 7.39913 12.1601 6.86035C11.3666 6.9877 10.5829 7.15913 9.83843 7.35994C9.6621 7.88402 9.49557 8.43749 9.35353 9.00076C10.1911 8.80974 11.0678 8.64811 11.9641 8.52566ZM17.827 11.8759C17.2197 11.8612 16.6074 11.8563 16.0001 11.8563C15.3927 11.8563 14.7805 11.8612 14.1731 11.8759C14.1584 12.5322 14.1437 13.2032 14.1339 13.8791C14.7511 13.8742 15.378 13.8693 16.0001 13.8693C16.6221 13.8693 17.249 13.8742 17.8662 13.8791C17.8564 13.2032 17.8417 12.5322 17.827 11.8759ZM7.15434 22.3575C6.47843 22.1224 5.83679 21.8628 5.24414 21.5787C5.55761 22.1763 5.92006 22.7542 6.33149 23.2979C6.75271 23.5134 7.19353 23.7142 7.65394 23.9003C7.47271 23.4008 7.30128 22.8816 7.15434 22.3575ZM25.6686 8.70198C25.2474 8.48647 24.8066 8.28566 24.3462 8.09953C24.5323 8.59913 24.6988 9.11341 24.8458 9.64239C25.5217 9.87749 26.1633 10.1371 26.756 10.4212C26.4425 9.82362 26.0752 9.24566 25.6686 8.70198Z" fill="#E6DAFE"/>
<path d="M25.4384 19.5412C25.5216 18.978 25.5804 18.4098 25.6245 17.8367C26.4571 17.7829 27.2506 17.7192 28 17.6506C27.9314 18.1649 27.8286 18.6743 27.6914 19.1739C26.9861 19.3061 26.2269 19.4335 25.4384 19.5412ZM24.6351 22.1616C24.8408 21.4122 25.0073 20.6335 25.1347 19.84C24.5959 19.9086 24.0376 19.9771 23.4694 20.0359C23.3518 20.9322 23.1902 21.809 22.9894 22.6514C23.5576 22.5045 24.111 22.338 24.6351 22.1616ZM19.8008 23.249C19.8939 22.2939 19.9722 21.3045 20.0261 20.3004C19.3845 20.3347 18.7282 20.3592 18.0718 20.3739C18.0424 21.4171 18.0082 22.4408 17.9592 23.4204C18.5812 23.3812 19.1984 23.3224 19.8008 23.249ZM11.6261 18.0718C10.578 18.0424 9.55429 18.0082 8.57959 17.9592C8.61878 18.5812 8.67755 19.1984 8.75102 19.8008C9.70612 19.8939 10.6955 19.9722 11.6996 20.0261C11.6702 19.3894 11.6457 18.7331 11.6261 18.0718ZM14.1633 25.6245C13.5902 25.5804 13.0171 25.5216 12.4588 25.4384C12.5665 26.2269 12.6939 26.9812 12.8261 27.6914C13.3257 27.8286 13.84 27.9314 14.3494 28C14.2808 27.2555 14.222 26.4571 14.1633 25.6245ZM24.6351 9.83837C24.111 9.66204 23.5576 9.49551 22.9943 9.35347C23.1951 10.1959 23.3518 11.0727 23.4743 11.969C24.0424 12.0278 24.6008 12.0914 25.1396 12.1649C25.0073 11.3665 24.8408 10.5878 24.6351 9.83837ZM19.1739 4.30857C18.6743 4.17143 18.16 4.06857 17.6506 4C17.7192 4.74449 17.7829 5.54286 17.8367 6.37551C18.4098 6.41959 18.9829 6.47837 19.5412 6.56163C19.4335 5.77306 19.3061 5.01878 19.1739 4.30857ZM6.37551 14.1633C6.41959 13.5902 6.47837 13.0171 6.56163 12.4588C5.77306 12.5665 5.01878 12.6939 4.30857 12.8261C4.17143 13.3257 4.06857 13.8351 4 14.3494C4.74449 14.2808 5.54286 14.222 6.37551 14.1633ZM11.6261 13.9282C11.6408 13.2718 11.6702 12.6155 11.6996 11.9739C10.6955 12.0278 9.70612 12.1061 8.75102 12.1992C8.67265 12.8016 8.61878 13.4188 8.57959 14.0408C9.56408 13.9918 10.5878 13.9527 11.6261 13.9282ZM17.5967 6.61061C17.0629 6.57633 16.529 6.55673 16 6.55673C15.471 6.55673 14.9371 6.57633 14.4033 6.61061C14.369 7.15918 14.3347 7.73224 14.3053 8.3102C14.8686 8.28082 15.4367 8.26612 16 8.26612C16.5633 8.26612 17.1314 8.28082 17.6947 8.3102C17.6653 7.73224 17.631 7.15918 17.5967 6.61061ZM9.64245 24.8457C9.11837 24.6988 8.59918 24.5322 8.09959 24.3461C8.28571 24.8065 8.48653 25.2473 8.70204 25.6686C9.24571 26.08 9.82367 26.4424 10.4212 26.7559C10.1371 26.1584 9.87755 25.5216 9.64245 24.8457ZM23.298 6.33143C22.7543 5.92 22.1763 5.55755 21.5788 5.24408C21.8629 5.83673 22.1273 6.47837 22.3576 7.15429C22.8816 7.30122 23.4008 7.46776 23.9004 7.65388C23.7143 7.19837 23.5086 6.75265 23.298 6.33143Z" fill="#E6DAFE"/>
<path d="M9.00577 22.6465C8.43761 22.4996 7.88904 22.338 7.36496 22.1616C7.15924 21.4122 6.99271 20.6335 6.86537 19.84C7.40414 19.9086 7.96251 19.9771 8.53067 20.0359C8.64822 20.9273 8.80985 21.809 9.00577 22.6465ZM13.8694 16C13.8694 15.3829 13.8743 14.7559 13.8792 14.1339C13.2082 14.1437 12.5372 14.1535 11.876 14.1731C11.8613 14.7804 11.8564 15.3927 11.8564 16C11.8564 16.6073 11.8613 17.2196 11.876 17.8269C12.5372 17.8416 13.2082 17.8563 13.8792 17.8661C13.8743 17.2441 13.8694 16.6171 13.8694 16ZM17.5968 25.3894C17.6311 24.8408 17.6654 24.2678 17.6948 23.6898C17.1315 23.7192 16.5584 23.7339 16.0001 23.7339C15.4417 23.7339 14.8735 23.7192 14.3054 23.6898C14.3348 24.2678 14.369 24.8359 14.4033 25.3894C14.9372 25.4237 15.4711 25.4433 16.0001 25.4433C16.529 25.4433 17.0629 25.4237 17.5968 25.3894ZM23.249 12.1992C22.2939 12.1061 21.3045 12.0278 20.3005 11.9739C20.3348 12.6155 20.3592 13.2718 20.3739 13.9282C21.4172 13.9576 22.4409 13.9918 23.4205 14.0408C23.3813 13.4188 23.3225 12.8016 23.249 12.1992ZM14.1633 6.37551C14.2172 5.54286 14.2809 4.74449 14.3494 4C13.8352 4.06857 13.3258 4.17143 12.8262 4.30857C12.689 5.01388 12.5666 5.77306 12.4588 6.56163C13.0172 6.47837 13.5903 6.41469 14.1633 6.37551ZM25.6686 23.298C26.0801 22.7543 26.4425 22.1812 26.756 21.5788C26.1633 21.8629 25.5217 22.1273 24.8458 22.3576C24.6988 22.8816 24.5323 23.4008 24.3462 23.9004C24.8017 23.7143 25.2474 23.5135 25.6686 23.298ZM7.15434 9.64245C7.30128 9.11837 7.46781 8.59918 7.65394 8.09959C7.19353 8.28571 6.75271 8.48653 6.33149 8.70204C5.92006 9.24571 5.55761 9.81878 5.24414 10.4212C5.84169 10.1371 6.47843 9.87755 7.15434 9.64245Z" fill="#E6DAFE"/>
<path d="M20.2955 20.0311C20.3298 19.3894 20.3543 18.7331 20.369 18.0768C21.4171 18.0474 22.4408 18.0131 23.4155 17.9641C23.3763 18.5862 23.3176 19.2033 23.2441 19.8058C22.2939 19.8988 21.2996 19.9723 20.2955 20.0311ZM20.1241 17.827C20.1388 17.2197 20.1437 16.6074 20.1437 16.0001C20.1437 15.3927 20.1388 14.7805 20.1241 14.1731C19.4629 14.1584 18.7918 14.1437 18.1208 14.1339C18.1257 14.756 18.1306 15.378 18.1306 16.0001C18.1306 16.6172 18.1257 17.2441 18.1208 17.8662C18.7918 17.8564 19.4678 17.8417 20.1241 17.827ZM6.37551 17.8368C5.54286 17.7829 4.74939 17.7192 4 17.6507C4.06857 18.165 4.17143 18.6743 4.30857 19.1739C5.01388 19.3111 5.77306 19.4335 6.56163 19.5413C6.47837 18.9829 6.41469 18.4099 6.37551 17.8368ZM11.9641 23.4743C11.0678 23.3568 10.191 23.1952 9.34857 22.9943C9.49061 23.5625 9.65714 24.1111 9.83347 24.6352C10.5829 24.8409 11.3616 25.0074 12.1551 25.1348C12.0914 24.6009 12.0229 24.0376 11.9641 23.4743ZM13.9282 20.3739C13.2718 20.3592 12.6155 20.3299 11.9739 20.3005C12.0278 21.3045 12.1061 22.2939 12.1992 23.249C12.8016 23.3274 13.4188 23.3862 14.0408 23.4205C13.9918 22.436 13.9527 21.4123 13.9282 20.3739ZM27.6914 12.8262C26.9812 12.689 26.2269 12.5666 25.4384 12.4588C25.5216 13.0172 25.5804 13.5903 25.6245 14.1633C26.4571 14.2172 27.2506 14.2809 28 14.3494C27.9314 13.8401 27.8286 13.3258 27.6914 12.8262ZM22.1616 7.36496C21.4122 7.15924 20.6335 6.99271 19.84 6.86537C19.9135 7.40414 19.9771 7.96251 20.0359 8.53067C20.9322 8.64822 21.809 8.80985 22.6514 9.01067C22.5045 8.44251 22.338 7.88904 22.1616 7.36496ZM8.52571 11.9641C8.64327 11.0678 8.8049 10.1911 9.00571 9.34863C8.44245 9.49067 7.88898 9.6572 7.3649 9.83353C7.15918 10.5829 6.99265 11.3617 6.86531 12.1552C7.40408 12.0915 7.96245 12.0229 8.52571 11.9641ZM13.9282 11.6262C13.9576 10.5829 13.9918 9.55924 14.0408 8.57965C13.4188 8.61883 12.8016 8.67761 12.1992 8.75108C12.1061 9.70618 12.0278 10.6956 11.9739 11.6997C12.6106 11.6703 13.2669 11.6458 13.9282 11.6262ZM23.298 25.6686C23.5135 25.2474 23.7143 24.8066 23.9004 24.3462C23.4008 24.5323 22.8865 24.6988 22.3576 24.8458C22.1224 25.5217 21.8629 26.1633 21.5788 26.756C22.1763 26.4425 22.7543 26.0752 23.298 25.6686ZM9.64245 7.15434C9.87755 6.47843 10.1371 5.83679 10.4212 5.24414C9.82367 5.55761 9.24571 5.92006 8.70204 6.33149C8.48653 6.75271 8.28571 7.19353 8.09959 7.65394C8.59918 7.47271 9.11837 7.30128 9.64245 7.15434Z" fill="#E6DAFE"/>
</g>
</svg>
