<svg width="32" height="32" viewBox="0 0 32 32" fill="none" xmlns="http://www.w3.org/2000/svg">
<path d="M16.2585 3L5 9.5V22.5L16.2585 29L27.5171 22.5V9.5L16.2585 3ZM18.7795 22.0068L16.4603 18.5903H15.1123V22.0068H12.041V17.3847H10.1136V15.1587H16.1192C16.1192 15.1587 16.0172 15.3727 15.7787 15.3727H15.1123V16.1458H17.5178C18.2664 16.1458 18.8734 15.5388 18.8734 14.7903C18.8734 14.416 18.7218 14.0772 18.4763 13.8318C18.2309 13.5863 17.8921 13.4347 17.5178 13.4347H15.1123V14.1921H15.7787C16.0172 14.1921 16.1192 14.406 16.1192 14.406H12.041V12.9334H10.1136V10.8106H18.2694C18.309 10.8106 18.3486 10.8106 18.3877 10.8124C20.3927 10.8747 21.9983 12.5194 21.9983 14.5396C21.9983 15.5692 21.5809 16.5014 20.9063 17.1759C20.5408 17.5415 20.0994 17.8318 19.6079 18.0207L22.3528 22.0068H18.7795Z" fill="#E6DAFE"/>
</svg>
