<svg width="32" height="32" viewBox="0 0 32 32" fill="none" xmlns="http://www.w3.org/2000/svg">
<path d="M14.2666 20.2932H12.1605L13.4778 12.1477H15.5839L14.2666 20.2932Z" fill="#E6DAFE"/>
<path d="M21.9017 12.3468C21.4863 12.182 20.8274 12 20.0127 12C17.9327 12 16.4681 13.1091 16.4591 14.6948C16.4418 15.8648 17.5077 16.5146 18.305 16.9047C19.1198 17.3033 19.3968 17.5635 19.3968 17.9188C19.3885 18.4645 18.7384 18.716 18.132 18.716C17.2911 18.716 16.8405 18.5863 16.1558 18.2827L15.8785 18.1526L15.5838 19.9811C16.0777 20.2061 16.9878 20.4058 17.9327 20.4146C20.1427 20.4146 21.5814 19.3226 21.5985 17.6328C21.6069 16.7055 21.044 15.995 19.8306 15.4144C19.0939 15.0417 18.6428 14.7904 18.6428 14.4091C18.6514 14.0624 19.0243 13.7073 19.8559 13.7073C20.5406 13.6899 21.0437 13.8545 21.4248 14.0192L21.6153 14.1057L21.9017 12.3468Z" fill="#E6DAFE"/>
<path d="M24.701 17.4075C24.8745 16.9396 25.5419 15.1285 25.5419 15.1285C25.5332 15.1459 25.715 14.6519 25.819 14.3486L25.9662 15.0505C25.9662 15.0505 26.3651 17.0003 26.4517 17.4075C26.1225 17.4075 25.117 17.4075 24.701 17.4075ZM27.3008 12.1477H25.6717C25.1693 12.1477 24.7876 12.2948 24.5709 12.8235L21.4424 20.2931H23.6524C23.6524 20.2931 24.0162 19.2877 24.0944 19.0712C24.3368 19.0712 26.4867 19.0712 26.7986 19.0712C26.859 19.3572 27.0499 20.2931 27.0499 20.2931H29L27.3008 12.1477Z" fill="#E6DAFE"/>
<path d="M10.4013 12.1477L8.33865 17.7021L8.11325 16.5756C7.73191 15.2758 6.53595 13.8635 5.20131 13.1613L7.09062 20.2846H9.31785L12.6284 12.1477H10.4013Z" fill="#E6DAFE"/>
<path d="M6.42331 12.1477H3.03467L3 12.3122C5.64335 12.9882 7.39399 14.6176 8.11325 16.576L7.3766 12.8324C7.25532 12.3121 6.88262 12.1648 6.42331 12.1477Z" fill="#E6DAFE"/>
</svg>
