<svg width="32" height="32" viewBox="0 0 32 32" fill="none" xmlns="http://www.w3.org/2000/svg">
<g clip-path="url(#clip0_6_4701)">
<path d="M19.9296 14.2255C19.9296 14.2255 20.0014 14.1174 20.0616 14.0355C20.1721 13.8865 20.3705 13.6795 20.5203 13.5514C20.5667 13.512 20.6199 13.468 20.6199 13.468C20.6199 13.468 20.535 13.4765 20.4879 13.4865C20.3744 13.5089 20.2076 13.6193 20.1242 13.6911C19.9867 13.8085 19.8362 14 19.9041 14.1699C19.9142 14.1946 19.9296 14.2263 19.9296 14.2263M20.6941 14.4309C20.9111 14.4162 21.1149 14.3537 21.3041 14.2487C21.4902 14.1452 21.7628 13.9421 21.735 13.7035C21.7257 13.6263 21.6755 13.5683 21.6122 13.5413C21.5288 13.505 21.4864 13.512 21.3798 13.5429C21.3033 13.5653 21.2686 13.5792 21.196 13.6209C20.9829 13.7444 20.6809 14.0093 20.5165 14.2209C20.4786 14.2703 20.44 14.3259 20.4107 14.3645C20.3914 14.3877 20.3767 14.4093 20.3782 14.4155C20.3844 14.4394 20.6084 14.4371 20.6933 14.4309M20.1404 14.8371C20.118 14.8602 20.0948 14.9182 20.0701 14.9599C20.057 14.9822 20.0323 15.01 20.0169 15.0216C19.9605 15.0633 19.9126 15.0649 19.8578 15.017C19.7813 14.9498 19.7373 14.8448 19.7342 14.7429C19.7327 14.6981 19.7396 14.6494 19.7319 14.6116C19.718 14.5483 19.6547 14.4834 19.6207 14.4232C19.5806 14.3514 19.5481 14.227 19.5443 14.1475C19.5304 13.8973 19.6624 13.6672 19.8338 13.4857C20.006 13.3019 20.2315 13.149 20.4771 13.0456C20.7087 12.9475 21.0485 12.8811 21.3033 12.9691C21.386 12.9977 21.5018 13.068 21.5597 13.1413C21.5721 13.1568 21.5821 13.1738 21.5945 13.1822C21.6053 13.1892 21.6354 13.1923 21.6586 13.1961C21.7396 13.21 21.857 13.2718 21.9049 13.3128C22.0006 13.3954 22.0532 13.4749 22.0779 13.59C22.1265 13.8209 21.9937 14.0741 21.8423 14.2286C21.5829 14.4942 21.3265 14.6811 20.9945 14.8108C20.8493 14.868 20.6215 14.9212 20.4562 14.9058C20.4053 14.9019 20.352 14.888 20.3018 14.8842C20.2763 14.8819 20.1829 14.8587 20.1728 14.851C20.1605 14.8417 20.145 14.8332 20.1412 14.8371M12.2215 15.5197C12.3597 15.5112 12.4447 15.5043 12.5528 15.4579C12.6122 15.4324 12.6809 15.3745 12.647 15.305C12.6261 15.2626 12.5535 15.2479 12.5111 15.251C12.3667 15.261 12.2624 15.3668 12.213 15.5089C12.2115 15.5143 12.2115 15.5189 12.2215 15.5189M12.8254 15.1622C12.9057 15.2626 12.942 15.3807 12.9512 15.5104C12.9605 15.6409 12.9188 15.7668 12.8454 15.8664C12.7203 16.0363 12.5126 16.1205 12.3033 16.1367C12.2748 16.1382 12.1041 16.1436 12.0601 16.1297C12.0524 16.1266 12.047 16.1236 12.0431 16.1251C12.0385 16.1251 12.0091 16.2433 12.0045 16.2842C11.986 16.4286 11.9628 16.5305 11.9466 16.644C11.9327 16.7344 11.9226 16.8309 11.9149 16.9274C11.8678 17.4888 11.884 17.766 11.9304 18.3158C11.9335 18.349 11.935 18.3877 11.9304 18.4108C11.918 18.4765 11.8779 18.5228 11.813 18.5398C11.6192 18.5907 11.4338 18.3992 11.3389 18.2456C11.1172 17.8873 11.1891 17.1544 11.2532 16.7931C11.2794 16.6433 11.3474 16.3104 11.3945 16.1907C11.4199 16.1266 11.4601 15.9992 11.457 15.9931C11.4539 15.9877 11.3528 15.949 11.2601 15.9128C11.2254 15.9004 11.108 15.8394 11.0578 15.8077C10.9543 15.7429 10.884 15.6904 10.8122 15.6093C10.7906 15.5838 10.718 15.4765 10.7072 15.4525C10.6493 15.3212 10.6462 15.207 10.6972 15.0672C10.7103 15.0317 10.7821 14.8803 10.83 14.885C10.8987 14.8911 10.884 15.0054 10.9018 15.0641C10.908 15.0842 10.9273 15.1182 10.9427 15.1367C11.0377 15.2494 11.3582 15.3738 11.4894 15.4131C11.508 15.4193 11.7134 15.4819 11.7435 15.468C11.7512 15.4641 11.7906 15.3946 11.8153 15.3529C11.8284 15.329 11.8439 15.312 11.8601 15.2942C11.9844 15.1599 12.169 15.0332 12.3528 14.9954C12.4338 14.9792 12.5921 14.9923 12.6717 15.0386C12.6902 15.0487 12.7497 15.0726 12.8254 15.1614M10.8879 16.7537C10.8933 16.7537 10.9026 16.7568 10.9103 16.7599C11.0045 16.8008 11.0045 16.9691 10.9813 17.0479C10.9203 17.2556 10.7226 17.4703 10.5659 17.5776C10.4717 17.6402 10.2794 17.7297 10.142 17.756C9.92651 17.7977 9.73578 17.7405 9.62072 17.566C9.51647 17.4085 9.47091 17.2131 9.46242 17.0301C9.43848 16.5043 9.6045 15.7351 9.80913 15.2965C9.83693 15.2378 9.9713 14.9629 10.0972 14.9189C10.2223 14.8749 10.2771 15.0209 10.2894 15.1305C10.3057 15.2711 10.2601 15.4579 10.2246 15.6093C10.162 15.8734 10.0717 16.2865 10.0501 16.4046C10.0277 16.5297 9.97516 16.7977 9.99369 16.9344C10.0037 17.007 10.0169 17.0433 10.0725 17.0386C10.0979 17.0363 10.4508 16.8741 10.6439 16.8016C10.7165 16.7745 10.806 16.746 10.8879 16.7529M8.274 16.5104C8.274 16.5104 8.31415 16.5104 8.35585 16.5104C8.4879 16.5089 8.70875 16.4842 8.70875 16.4842C8.70875 16.4842 8.68404 16.2896 8.66396 16.1653C8.65006 16.0826 8.63925 16.0309 8.62149 15.9653C8.613 15.9359 8.59292 15.8525 8.57207 15.8201C8.56821 15.8131 8.5628 15.8062 8.5628 15.8062C8.5628 15.8062 8.45624 16.0124 8.39601 16.156C8.34813 16.2695 8.32496 16.3544 8.29176 16.4239C8.28404 16.4402 8.27477 16.4618 8.274 16.4811C8.27323 16.4942 8.274 16.5097 8.274 16.5097M7.56666 16.5321C7.56666 16.5321 7.62998 16.39 7.6794 16.2826C7.73114 16.1699 7.99292 15.6448 8.10025 15.4958C8.21995 15.3297 8.44774 15.017 8.45006 15.007C8.45469 14.9722 8.46242 14.9112 8.49485 14.8626C8.51956 14.8232 8.58134 14.807 8.64157 14.8031C8.70798 14.7992 8.7767 14.8479 8.80682 14.9027C8.86396 15.0062 8.96203 15.3019 8.98365 15.373C9.09794 15.766 9.22149 16.5012 9.26242 16.8788C9.27323 16.9776 9.30566 17.4942 9.30875 17.61C9.31107 17.6919 9.30875 17.827 9.26164 17.8942C9.24466 17.9197 9.21145 17.9405 9.17902 17.9405C9.13578 17.939 9.04852 17.8788 9.01068 17.8425C8.90489 17.7429 8.83462 17.6417 8.81222 17.5174C8.79292 17.4093 8.76589 17.0996 8.76589 17.0996L8.30489 17.1182L8.04852 17.122C8.04852 17.122 8.02458 17.1822 8.0045 17.2317C7.96126 17.3382 7.92342 17.4456 7.90643 17.5058C7.87323 17.6263 7.80836 17.8656 7.79292 17.9027C7.76049 17.9807 7.73191 18.027 7.65547 18.0371C7.5713 18.0479 7.51261 18.0541 7.45161 18.0209C7.33655 17.9575 7.28404 17.8247 7.26473 17.6865C7.23076 17.4525 7.32496 17.2633 7.42303 16.9853C7.46396 16.8687 7.40759 16.8294 7.31029 16.6772C7.29794 16.6579 7.28481 16.6371 7.28249 16.6216C7.2794 16.6062 7.29408 16.5653 7.31493 16.549C7.32188 16.5436 7.32342 16.5429 7.33578 16.5421L7.56898 16.5313M4.93809 15.0139C4.93809 15.0139 4.93191 14.8649 4.91956 14.7822C4.90952 14.712 4.89485 14.6595 4.86164 14.6054C4.82535 14.5467 4.79678 14.5097 4.73886 14.5004C4.66782 14.4904 4.62844 14.5382 4.58442 14.6077C4.52574 14.7019 4.46705 14.8772 4.4323 14.9884C4.38211 15.146 4.36126 15.2425 4.33423 15.4216C4.29021 15.7158 4.24543 16.2155 4.29253 16.5552C4.30103 16.6139 4.3157 16.6996 4.3157 16.6996C4.3157 16.6996 4.38674 16.6201 4.43848 16.5645C4.46087 16.5405 4.56589 16.383 4.57516 16.3668C4.59369 16.3351 4.64234 16.2517 4.64852 16.2355C4.65855 16.217 4.735 16.0548 4.74813 16.0162C4.77361 15.9436 4.81068 15.8309 4.83925 15.7413C4.90566 15.5351 4.89408 15.4587 4.93732 15.2294C4.94195 15.2031 4.94659 15.0131 4.94195 15.0131C4.93964 15.0131 4.93732 15.0131 4.93732 15.0131M4.43384 17.1931C4.43384 17.1931 4.46164 17.2417 4.48404 17.2788C4.60682 17.4834 4.80296 17.6 5.03925 17.6116C5.28172 17.6239 5.59292 17.4834 5.77052 17.3599C6.27786 17.007 6.54504 16.3707 6.69022 15.7614C6.86164 15.0463 6.86937 14.2927 6.66473 13.6008C6.54581 13.1992 6.3157 12.6965 6.02921 12.3961C5.94427 12.3066 5.81377 12.1853 5.7767 12.1351C5.73809 12.0834 5.72882 12.0402 5.78751 12.0062C5.85006 11.9707 5.98597 12.0448 6.05392 12.0857C6.38751 12.2888 6.60605 12.4904 6.80373 12.7807C6.85392 12.8541 7.05392 13.1838 7.09099 13.2525C7.31493 13.6757 7.42998 14.0448 7.49176 14.512C7.56975 15.1066 7.51956 15.7815 7.31415 16.3776C7.22458 16.6394 7.08558 16.9081 6.94118 17.1351C6.9072 17.1884 6.69639 17.4718 6.67014 17.4996C6.59755 17.5761 6.4184 17.7313 6.335 17.7985C5.91647 18.1344 5.46473 18.3544 4.96898 18.2934C4.69639 18.2602 4.47245 18.1691 4.25392 17.9915C4.16975 17.9228 4.02844 17.7792 3.97207 17.6772C3.935 17.6116 3.88944 17.5321 3.88327 17.5313C3.87709 17.5297 3.85238 17.546 3.82612 17.5645C3.80296 17.5807 3.70489 17.6263 3.65238 17.6456C3.31184 17.7722 2.93114 17.7429 2.6184 17.5398C2.39137 17.3931 2.19987 17.1143 2.11493 16.861C1.98983 16.4857 1.97979 16.0973 2.03076 15.6981C2.11801 15.0209 2.36126 14.3799 2.72496 13.8116C2.95431 13.4541 3.2516 13.1004 3.60682 12.8471C3.64697 12.8185 3.86319 12.6927 3.9072 12.6718C3.98751 12.634 4.09408 12.5992 4.15508 12.6649C4.18751 12.6989 4.18597 12.7266 4.16203 12.7714C4.12419 12.8409 4.02767 12.9359 3.97438 12.9923C3.92805 13.0425 3.66705 13.3629 3.61299 13.4378C3.55354 13.5182 3.2879 13.9166 3.25315 13.9776C2.91724 14.5583 2.65083 15.4795 2.67709 16.1931C2.68249 16.3405 2.70411 16.5529 2.73732 16.6911C2.78211 16.878 2.8933 17.1305 3.0601 17.2479C3.23539 17.3722 3.39832 17.3653 3.60836 17.2819C3.66396 17.2595 3.7435 17.2232 3.7435 17.2232C3.7435 17.2232 3.68249 17.0664 3.64234 16.9483C3.53191 16.6209 3.4879 16.0981 3.52882 15.7382C3.56203 15.4433 3.62844 15.2178 3.76126 14.9838C3.86782 14.7961 4.01068 14.6124 4.18906 14.4595C4.36126 14.3128 4.63616 14.1846 4.87863 14.1784C5.08018 14.1738 5.2879 14.261 5.39369 14.444C5.57747 14.7622 5.58906 15.2641 5.53732 15.5946C5.45933 16.095 5.20064 16.5645 4.82689 16.8826C4.69253 16.9969 4.43307 17.19 4.43307 17.19M20.4393 15.3421C20.4493 15.3436 20.4647 15.3483 20.4786 15.3529C20.5952 15.3977 20.6431 15.505 20.6717 15.6232C20.7381 15.8981 20.7667 16.5058 20.7775 16.7436C20.786 16.922 20.7898 17.0981 20.7976 17.2741C20.8037 17.4239 20.8161 17.6224 20.7852 17.7629C20.7736 17.8131 20.7404 17.8711 20.6918 17.9019C20.6362 17.9375 20.5103 17.9398 20.4416 17.9259C20.2709 17.8904 20.2153 17.7807 20.1914 17.6124C20.1335 17.21 20.1613 16.4209 20.1952 16.0873C20.206 15.9776 20.2477 15.6255 20.3057 15.478C20.325 15.4278 20.3667 15.3274 20.44 15.3413M15.1891 15.9452C15.1891 15.9452 14.9365 15.9629 14.7636 15.9822C14.5427 16.0062 14.1273 16.0772 13.8879 16.1637C13.8161 16.1892 13.6694 16.2502 13.657 16.3236C13.6439 16.4008 13.691 16.4602 13.7443 16.522C13.7752 16.5575 13.9481 16.7243 13.996 16.7645C14.1991 16.9336 14.6115 17.1961 14.9157 17.3236C15.0192 17.3668 15.1921 17.4286 15.1921 17.4286C15.1921 17.4286 15.179 16.9375 15.1821 16.4533C15.1829 16.1977 15.1891 15.9452 15.1891 15.9452ZM19.8138 16.1405C19.8284 16.2726 19.7945 16.522 19.7883 16.5552C19.7775 16.6309 19.7203 16.8062 19.7111 16.8278C19.6647 16.9336 19.6192 17.0216 19.5713 17.1081C19.4887 17.2572 19.2918 17.4927 19.1752 17.5938C18.7412 17.9691 18.0694 18.183 17.4925 18.2533C17.1018 18.3004 16.6516 18.2934 16.2369 18.217C16.0941 18.1907 15.8825 18.1421 15.8825 18.1421C15.8825 18.1421 15.8825 18.227 15.8763 18.2865C15.8732 18.3135 15.8524 18.3853 15.8408 18.4085C15.8107 18.4711 15.7613 18.5027 15.6894 18.5166C15.603 18.5336 15.5103 18.5382 15.43 18.5043C15.2987 18.4487 15.2508 18.3251 15.2284 18.1838C15.2099 18.0695 15.1906 17.8718 15.1906 17.8718C15.1906 17.8718 15.0925 17.8255 15.0099 17.7846C14.7574 17.6602 14.5172 17.5097 14.308 17.3544C14.2501 17.3112 13.9999 17.1019 13.945 17.0502C13.7906 16.9043 13.6516 16.7575 13.5458 16.5707C13.4632 16.4247 13.44 16.2942 13.5026 16.1398C13.5891 15.9236 13.8987 15.7606 14.1111 15.668C14.267 15.5992 14.7504 15.4409 14.952 15.4124C15.047 15.3985 15.1945 15.373 15.203 15.3668C15.2068 15.3637 15.2091 15.3614 15.2122 15.3583C15.2169 15.3514 15.2246 15.1375 15.223 15.0595C15.2215 14.9822 15.2802 14.4772 15.2987 14.3707C15.3087 14.3128 15.3528 14.0904 15.3976 14.0317C15.4269 13.9923 15.4786 13.9954 15.5203 14.0216C15.7512 14.1645 15.8207 14.6618 15.8377 14.9151C15.8477 15.0687 15.8531 15.3012 15.8531 15.3012C15.8531 15.3012 16.118 15.2934 16.2802 15.2981C16.4385 15.3019 16.6122 15.3274 16.7767 15.3529C16.9867 15.3861 17.3968 15.4757 17.6315 15.5946C17.8254 15.6927 18.006 15.8579 18.0647 16.0324C18.1196 16.1931 18.1111 16.3035 18.0284 16.4479C17.935 16.6116 17.7589 16.7328 17.5798 16.7429C17.5265 16.7467 17.3257 16.7197 17.2647 16.6718C17.24 16.6525 17.2416 16.6185 17.2593 16.5946C17.2663 16.5861 17.3597 16.5375 17.4145 16.5073C17.4423 16.4919 17.4655 16.4765 17.4864 16.4564C17.5327 16.4155 17.5736 16.3707 17.569 16.3189C17.5628 16.251 17.491 16.2093 17.4223 16.1822C17.1018 16.0548 16.4616 15.949 16.1512 15.9305C16.03 15.9236 15.8578 15.9174 15.8578 15.9174L15.8941 17.6263C15.8941 17.6263 16.0369 17.6533 16.1489 17.6718C16.2138 17.6811 16.4864 17.7058 16.5589 17.7081C17.1111 17.7228 17.7273 17.6734 18.2346 17.434C18.457 17.329 18.6609 17.1992 18.8153 17.0232C19.0192 16.7892 19.1257 16.4703 19.0979 16.1367C19.0671 15.7714 18.8099 15.339 18.6053 15.0757C18.064 14.3792 17.1358 13.807 16.3203 13.4718C15.4871 13.129 14.6632 12.9321 13.779 12.8989C13.5512 12.8904 13.0539 12.9019 12.803 12.9714C12.7667 12.9815 12.7304 12.9938 12.6972 13.0008C12.6709 13.007 12.63 13.0247 12.6184 13.034C12.6122 13.0394 12.606 13.0463 12.606 13.0463C12.606 13.0463 12.6215 13.0548 12.6362 13.0618C12.6624 13.0734 12.7752 13.0803 12.8331 13.0904C12.8848 13.1004 12.9389 13.1282 12.9605 13.166C12.9806 13.2023 12.9837 13.2301 12.9589 13.2602C12.9018 13.3297 12.6871 13.3174 12.5937 13.3035C12.4956 13.2873 12.3736 13.2579 12.3512 13.1722C12.3257 13.0718 12.3728 12.973 12.4246 12.8819C12.5281 12.6996 12.6763 12.6046 12.8948 12.5452C13.2037 12.4602 13.5937 12.4008 13.8856 12.39C14.5458 12.3653 15.1705 12.4803 15.8107 12.6749C16.1767 12.7853 16.6562 12.9714 17.0076 13.1405C17.2593 13.2618 17.6562 13.485 17.8786 13.6317C17.9489 13.678 18.3605 13.9799 18.4238 14.0332C18.5574 14.1421 18.7319 14.2989 18.8578 14.4239C19.1018 14.6664 19.406 15.0371 19.5535 15.3313C19.5883 15.4023 19.6169 15.4718 19.6616 15.5529C19.6771 15.5807 19.745 15.7483 19.7566 15.7969C19.7674 15.8448 19.7837 15.9151 19.786 15.9174C19.7891 15.9436 19.8199 16.0865 19.8176 16.1429L19.8138 16.1405ZM22.6586 16.2649C22.6709 16.2664 22.674 16.2664 22.6856 16.268C22.8879 16.2958 23.0856 16.3321 23.2377 16.3992C23.3782 16.4618 23.4609 16.5398 23.5365 16.6803C23.6508 16.8927 23.6586 17.19 23.5551 17.4155C23.4779 17.583 23.308 17.7236 23.1535 17.7985C22.9921 17.8765 22.8346 17.9135 22.6524 17.9344C22.335 17.9691 21.9914 17.9035 21.7057 17.7653C21.5365 17.6826 21.3296 17.5405 21.2254 17.3568C21.1489 17.2224 21.1512 17.0471 21.2447 16.9197C21.3929 16.7166 21.7111 16.6718 21.9512 16.6803C22.1342 16.6873 22.4632 16.7436 22.6369 16.8054C22.6856 16.8232 22.8624 16.8919 22.8933 16.9236C22.9149 16.946 22.9296 16.9776 22.9196 17.0077C22.8794 17.129 22.5852 17.1931 22.5003 17.2054C22.2725 17.2402 22.1543 17.1544 21.8949 17.0517C21.8308 17.0263 21.745 16.9985 21.6794 16.9931C21.562 16.9822 21.4199 17.0139 21.3976 17.1429C21.386 17.2093 21.464 17.2711 21.5226 17.2965C21.6616 17.3568 21.7744 17.3776 21.9118 17.3799C22.3157 17.3861 22.769 17.3197 23.1003 17.0857C23.1458 17.0533 23.1898 17.0062 23.1906 16.9467C23.1906 16.939 23.1798 16.8749 23.1589 16.8687C23.1559 16.8672 23.1528 16.8687 23.1504 16.8687C23.1427 16.8664 23.1304 16.8456 23.1196 16.8317C23.0956 16.8023 22.9999 16.7614 22.9813 16.7537C22.7589 16.661 22.3474 16.6155 22.135 16.5985C21.9126 16.5792 21.5628 16.5498 21.4786 16.5375C21.3921 16.5251 21.2979 16.5081 21.223 16.4741C21.1481 16.4402 21.0748 16.3645 21.0524 16.2803C21.0138 16.129 21.0632 15.9421 21.1474 15.8209C21.3682 15.5035 21.8848 15.383 22.2717 15.3351C22.6454 15.2888 23.2501 15.2888 23.6176 15.4842C23.6748 15.5143 23.7033 15.5429 23.6918 15.6031C23.6678 15.7166 23.5821 15.79 23.4786 15.8224C23.3698 15.8572 23.145 15.8703 23.0462 15.8765C22.603 15.9012 22.0678 15.888 21.6462 16.0039C21.613 16.0131 21.5559 16.0278 21.5373 16.0494C21.4717 16.1212 21.6601 16.1413 21.7003 16.1498C21.7118 16.1521 21.7149 16.1529 21.7273 16.1537L22.6593 16.2641M24.0408 17.9205C23.8616 17.8548 23.8215 17.566 23.813 17.4201C23.7844 16.9444 23.9103 16.2826 24.0701 15.8371C24.1157 15.7104 24.1813 15.5027 24.3234 15.5143C24.4215 15.5228 24.491 15.5985 24.5458 15.6757C24.6856 15.8734 24.8701 16.1413 24.9921 16.3274C25.1288 16.5367 25.2601 16.7467 25.3891 16.9375C25.4045 16.9606 25.4199 16.983 25.4369 16.9969C25.4601 17.0155 25.4817 17.017 25.491 16.9992C25.4956 16.9923 25.4871 16.7521 25.4809 16.7043C25.4709 16.6278 25.4663 16.5653 25.4578 16.4996C25.4338 16.3073 25.3728 16.0371 25.325 15.8541C25.2717 15.6494 25.2076 15.4363 25.1589 15.2386C25.1435 15.1745 25.1288 15.1097 25.1296 15.0479C25.1296 14.9591 25.1867 14.9104 25.2794 14.9436C25.4616 15.0077 25.7026 15.4023 25.7728 15.5398C25.7968 15.5861 25.8918 15.8216 25.9126 15.8873C25.9883 16.1135 26.0338 16.3282 26.0547 16.5745C26.0748 16.8139 26.0578 17.1629 25.9566 17.3992C25.9196 17.4857 25.8431 17.6031 25.7798 17.6618C25.6802 17.7544 25.4817 17.8263 25.345 17.7483C25.1952 17.6633 24.9497 17.2378 24.908 17.1645C24.7651 16.9151 24.5196 16.4286 24.4817 16.3738C24.4732 16.3614 24.4624 16.3498 24.4439 16.3444C24.4292 16.3405 24.4238 16.3699 24.4199 16.39C24.3952 16.5321 24.379 17.1954 24.3782 17.2139C24.3744 17.3259 24.369 17.5992 24.3365 17.7344C24.3157 17.8224 24.2941 17.895 24.213 17.9321C24.1559 17.9583 24.1118 17.9475 24.0423 17.9212M26.5072 17.8788C26.4879 17.8641 26.457 17.8324 26.4338 17.8062C26.43 17.8023 26.3659 17.7066 26.3535 17.6765C26.342 17.651 26.3342 17.6324 26.3257 17.6108C26.267 17.4595 26.2686 17.3112 26.301 17.1483C26.3311 16.9969 26.3597 16.99 26.4369 16.7822C26.4416 16.7707 26.4439 16.7614 26.4462 16.7483C26.4493 16.7197 26.403 16.5282 26.4006 16.4664C26.3976 16.3722 26.4701 16.3058 26.5921 16.2927C26.6037 16.2919 26.6115 16.2919 26.6199 16.2896C26.6686 16.278 26.6995 16.1846 26.7265 16.1097C26.7636 16.0046 26.8215 15.844 26.8215 15.844C26.8215 15.844 26.6671 15.8085 26.5844 15.7768C26.4918 15.7421 26.4223 15.6973 26.3806 15.6124C26.3304 15.5135 26.3636 15.4587 26.4671 15.4263C26.5049 15.4139 26.8045 15.3568 26.8995 15.3429C27.0176 15.3259 27.1288 15.3104 27.2408 15.2965C27.3389 15.285 27.7867 15.2324 27.9296 15.2363C28.1474 15.2425 28.2879 15.3321 28.4153 15.5158C28.484 15.6139 28.5304 15.7305 28.4269 15.7938C28.2686 15.8904 27.7551 15.8973 27.6609 15.8981C27.5111 15.8996 27.3041 15.8973 27.3041 15.8973L27.1999 16.2463C27.1999 16.2463 27.5674 16.2425 27.7744 16.2417C27.8246 16.2417 27.8748 16.2448 27.9033 16.2502C28.0091 16.2734 28.0454 16.3544 28.0493 16.4718C28.0547 16.6085 28.0292 16.6718 27.9203 16.6896C27.864 16.6989 27.2323 16.7019 27.1466 16.712C27.0933 16.7174 27.0369 16.7259 27.0369 16.7259C27.0369 16.7259 26.9914 16.8448 26.9512 16.9653C26.9111 17.0904 26.8771 17.2185 26.8771 17.2185C26.8771 17.2185 26.9095 17.2201 26.9358 17.2201C26.9806 17.2201 27.0254 17.2139 27.0609 17.2077C27.2539 17.1722 27.5404 17.1297 27.7752 17.0927C27.9018 17.0726 27.9651 17.0633 28.0315 17.1475C28.0887 17.2216 28.1188 17.2834 28.1226 17.373C28.1265 17.4572 28.0616 17.5128 27.9837 17.573C27.735 17.7629 27.3103 17.9691 26.9937 18.0039C26.8477 18.0201 26.8115 18.0039 26.684 17.9707C26.6593 17.9645 26.5713 17.9228 26.5721 17.9189C26.5721 17.9189 26.5242 17.8873 26.508 17.8741L26.5072 17.8788ZM30.5018 16.1236C30.3389 16.2602 30.1288 16.5382 30.0284 16.6826C29.8941 16.8741 29.7682 17.0934 29.647 17.2633C29.6207 17.3012 29.5435 17.4378 29.5458 17.4425C29.5512 17.4525 29.63 17.4494 29.7103 17.4355C29.8817 17.407 30.1149 17.2865 30.2393 17.1869C30.4292 17.0348 30.5613 16.8255 30.6238 16.5815C30.6516 16.4703 30.6655 16.2371 30.5867 16.1336C30.5713 16.1135 30.5319 16.0981 30.5018 16.1243M29.2084 18.1212C29.2084 18.1212 29.1566 18.2726 29.1188 18.3915C29.0532 18.5961 28.9095 19.1483 28.8763 19.3197C28.8261 19.5745 28.684 20.2409 28.6763 20.2556C28.6663 20.2749 28.6593 20.2811 28.6354 20.2965C28.5767 20.3313 28.5528 20.3197 28.4817 20.2819C28.3891 20.2332 28.308 20.1838 28.2393 20.0927C28.1003 19.912 28.1335 19.5722 28.1605 19.3722C28.2562 18.6741 28.3528 18.3676 28.6184 17.6734C28.623 17.6618 28.623 17.6587 28.6176 17.6479C28.535 17.4718 28.4902 17.2587 28.4902 17.0865C28.4902 16.5421 28.8037 16.0031 29.1543 15.5707C29.1806 15.5375 29.3528 15.3313 29.4315 15.3359C29.5103 15.3398 29.5226 15.4309 29.5111 15.5073C29.4717 15.7591 29.2948 16.0147 29.1736 16.227C29.0377 16.4641 29.0084 16.5614 28.9412 16.7792C28.9304 16.8131 28.9041 16.9722 28.9049 16.9923C28.908 17.051 28.9203 17.1243 28.9203 17.1243C28.9203 17.1243 29.1412 16.8147 29.2879 16.6232C29.3674 16.5182 29.4254 16.4487 29.4918 16.3738C29.5589 16.2981 29.8184 16.0278 29.8933 15.9568C30.0501 15.807 30.1196 15.7444 30.2894 15.6564C30.4238 15.5869 30.545 15.5699 30.6755 15.6564C30.8833 15.7931 30.9744 16.0819 30.9976 16.3158C31.0246 16.5954 30.9674 16.9104 30.8439 17.1506C30.6972 17.4363 30.4972 17.6425 30.2254 17.8224C29.9474 18.007 29.6207 18.1321 29.301 18.1243C29.2578 18.1236 29.2076 18.1205 29.2076 18.1205" fill="#E6DAFE"/>
</g>
<defs>
<clipPath id="clip0_6_4701">
<rect width="29" height="8.32355" fill="white" transform="translate(2 12)"/>
</clipPath>
</defs>
</svg>
