<svg width="32" height="32" viewBox="0 0 32 32" fill="none" xmlns="http://www.w3.org/2000/svg">
<path fill-rule="evenodd" clip-rule="evenodd" d="M15.9989 5C10.6436 5 6.04558 8.23875 4.024 12.8473C4.0192 12.8569 4 12.8598 4 12.8713C4 12.9116 4.05568 12.9433 4.09599 12.9433C4.11039 12.9433 4.10944 12.951 4.11999 12.9433L4.14399 12.9193C5.07222 12.3779 6.34219 12.0554 7.76767 12.0554C9.42448 12.0554 10.9133 12.5056 11.8473 13.2073C11.8588 13.2159 11.8799 13.2313 11.8953 13.2313C11.9126 13.2313 11.9308 13.2169 11.9433 13.2073C12.8773 12.5065 14.3431 12.0554 15.9989 12.0554C17.6538 12.0554 19.1206 12.5065 20.0546 13.2073C20.0671 13.2169 20.0863 13.2313 20.1026 13.2313C20.1198 13.2313 20.139 13.2169 20.1506 13.2073C21.0846 12.5065 22.5513 12.0554 24.2062 12.0554C25.6394 12.0554 26.9487 12.3971 27.8779 12.9433C27.8875 12.9481 27.9134 12.9433 27.9259 12.9433C27.9662 12.9433 27.9979 12.9116 27.9979 12.8713C27.9979 12.8607 28.0027 12.8569 27.9979 12.8473H27.9739C25.9532 8.23587 21.3543 5 15.9989 5ZM15.9749 12.9193C15.7878 12.9193 15.5996 12.9251 15.423 12.9433C15.3923 12.9462 15.375 12.9827 15.375 13.0153V23.6943C15.375 24.3029 14.8797 24.7982 14.2711 24.7982C13.793 24.7982 13.3908 24.4815 13.2392 24.0543C13.1518 23.7951 12.9032 23.6223 12.6152 23.6223C12.2533 23.6223 11.9433 23.9113 11.9433 24.2703C11.9433 24.3317 11.9519 24.3816 11.9673 24.4383L11.9913 24.4623C12.3081 25.4222 13.2065 26.1181 14.2711 26.1181C15.5996 26.1181 16.6709 25.0238 16.6709 23.6943V13.0393V13.0153C16.6709 12.9836 16.6546 12.9702 16.6229 12.9673C16.4155 12.9433 16.1938 12.9193 15.9749 12.9193Z" fill="#E6DAFE"/>
</svg>
