<svg width="32" height="32" viewBox="0 0 32 32" fill="none" xmlns="http://www.w3.org/2000/svg">
<path d="M13.3001 21.3071C12.4129 21.2594 11.751 20.8944 11.3638 20.2394C11.1041 19.7998 11.025 19.2215 11.1438 18.6307C11.2755 17.976 11.7226 17.386 12.4088 16.9617C12.8031 16.7177 13.1405 16.5662 13.8277 16.3247C14.0005 16.264 14.1496 16.2081 14.1592 16.2003C14.173 16.1894 14.175 16.1506 14.1681 16.0249C14.1483 15.6673 14.208 15.1101 14.309 14.708C14.4789 14.0313 14.8059 13.4855 15.2398 13.1544C15.5513 12.9165 15.9596 12.7376 16.3661 12.6609C16.5906 12.6186 16.9666 12.6188 17.1779 12.6613C18.0831 12.8435 18.5911 13.5412 18.391 14.3274C18.3489 14.4931 18.2158 14.7648 18.1031 14.9151C17.8143 15.3002 17.38 15.6426 16.7667 15.9684C16.6896 16.0094 16.4371 16.1335 16.2058 16.2442C15.9746 16.3549 15.7781 16.4528 15.769 16.4619C15.7562 16.4747 15.7594 16.5123 15.7844 16.6387C15.8994 17.2229 16.0929 17.7165 16.4232 18.2685C16.5545 18.4882 16.7361 18.7652 16.7568 18.7781C16.7867 18.7965 16.9089 18.5991 16.9886 18.4037C17.0871 18.1619 17.1435 17.8421 17.1157 17.6832C17.0957 17.5695 17.0336 17.4493 16.9543 17.3717C16.9179 17.3359 16.8877 17.3019 16.8876 17.2963C16.8874 17.2909 17.1953 17.2878 17.5719 17.2897L18.2566 17.2932L18.2527 17.3801C18.2474 17.4987 18.2033 17.7519 18.1569 17.932C18.026 18.4387 17.7792 18.8719 17.3527 19.3452C17.3024 19.4009 17.2612 19.4557 17.2612 19.4668C17.2612 19.478 17.3319 19.5556 17.4182 19.6393C17.9573 20.162 18.9123 20.7646 19.6899 21.0729C19.7654 21.1029 19.827 21.1335 19.8268 21.1407C19.8265 21.1496 19.3776 21.1553 18.5149 21.1576L17.2035 21.161L17.1289 21.119C16.9765 21.0333 16.6391 20.7607 16.315 20.4612C16.2464 20.3978 16.1814 20.3459 16.1706 20.3459C16.1598 20.3459 16.0835 20.3902 16.0013 20.4444C15.5803 20.7221 15.077 20.9716 14.6514 21.1136C14.1673 21.2752 13.7677 21.3322 13.3001 21.3071ZM14.4043 20.1709C14.6006 20.136 14.8417 20.0647 15.0635 19.9762C15.2865 19.8873 15.5629 19.7513 15.5727 19.7255C15.5766 19.7154 15.5255 19.63 15.4594 19.5356C15.1543 19.1009 14.8283 18.4895 14.6093 17.9411C14.5286 17.739 14.3778 17.2913 14.3489 17.1685C14.3398 17.1294 14.3233 17.0939 14.3122 17.0896C14.2817 17.0779 14.0312 17.2114 13.8147 17.355C13.0454 17.865 12.6766 18.4875 12.7585 19.1381C12.7949 19.4272 12.8864 19.6379 13.0529 19.8159C13.3608 20.1448 13.842 20.2713 14.4043 20.1709ZM15.7101 15.6474C15.9948 15.4807 16.4465 15.076 16.6991 14.7614C17.0224 14.3588 17.1942 13.9831 17.1944 13.6784C17.1944 13.5042 17.1697 13.4262 17.0891 13.3456C17.0089 13.2655 16.9184 13.2324 16.7802 13.2322C16.3702 13.2322 15.9267 13.719 15.7335 14.3812C15.636 14.715 15.6124 14.8947 15.6117 15.3025C15.6112 15.614 15.6163 15.6833 15.6397 15.6833C15.6448 15.6833 15.6765 15.6672 15.7101 15.6474ZM22.4914 21.2993C21.8158 21.2313 21.3705 21.1303 20.8682 20.9314C20.1847 20.6605 19.7579 20.325 19.3974 19.7752C19.2895 19.6106 19.1163 19.2651 19.0464 19.0741C18.7337 18.2232 18.6651 17.152 18.8514 16.0345C19.04 14.9035 19.4697 13.8135 20.0625 12.9614C20.447 12.4089 21.0191 11.827 21.6097 11.3876C22.585 10.6622 23.7076 10.2163 24.9547 10.0595C25.333 10.012 25.5449 9.99974 25.9917 10C26.6676 10.0004 27.1824 10.0519 27.8622 10.1869C28.2958 10.2733 28.9867 10.4597 28.9999 10.4941C29.0067 10.5116 28.569 11.9144 28.5509 11.9333C28.5453 11.9391 28.4781 11.8943 28.4018 11.8332C27.787 11.343 27.1499 11.0447 26.5056 10.9455C26.2998 10.9138 25.913 10.9134 25.7113 10.9447C24.808 11.0846 23.9706 11.6617 23.2271 12.6566C22.9855 12.9798 22.7194 13.4129 22.5125 13.8196C22.2321 14.3708 22.0393 14.858 21.8443 15.5096C21.2231 17.5826 21.1917 19.0309 21.7507 19.815C21.9809 20.138 22.3175 20.3438 22.7445 20.4225C22.9897 20.4677 23.5848 20.4403 23.6441 20.3811C23.6536 20.3718 23.9442 19.4627 24.2897 18.3609C24.8576 16.5512 24.9189 16.3471 24.9254 16.2445C24.934 16.1067 24.9084 15.9836 24.8464 15.865C24.7901 15.7572 24.6414 15.611 24.5188 15.543C24.4659 15.5136 24.4224 15.485 24.4223 15.4796C24.4222 15.4741 25.3748 15.4696 26.5395 15.4696C27.7041 15.4696 28.657 15.4741 28.6568 15.4796C28.6568 15.485 28.6052 15.5132 28.5422 15.542C28.2125 15.6928 27.9736 15.9187 27.8315 16.2143C27.8007 16.2783 27.5342 17.1061 27.1339 18.3809L26.4861 20.4441L26.2989 20.5338C25.5364 20.8997 24.6037 21.1632 23.6732 21.2757C23.5023 21.2965 22.6345 21.3138 22.4915 21.2993H22.4914ZM3.00043 21.1485C2.99614 21.1418 3.02435 21.118 3.06296 21.0958C3.29306 20.9633 3.55138 20.6885 3.66084 20.4594C3.69256 20.3931 6.59718 11.1422 6.66127 10.9031C6.67258 10.8613 6.68207 10.7729 6.6822 10.7068C6.68311 10.5051 6.62045 10.3596 6.4729 10.22C6.4326 10.1819 6.39971 10.1451 6.39971 10.1382C6.39971 10.1199 11.4717 10.1214 11.7043 10.1399C12.2079 10.1798 12.7121 10.3137 13.0976 10.5097C13.756 10.8445 14.1501 11.3525 14.2713 12.0224C14.3051 12.2089 14.3116 12.6236 14.2839 12.8243C14.1711 13.6425 13.8003 14.5104 13.2955 15.1383C12.4778 16.1554 11.1405 16.8058 9.4992 16.9847C8.97893 17.0414 8.32334 17.0557 7.8591 17.0203C7.72494 17.0101 7.61236 17.0045 7.60898 17.0079C7.59247 17.0245 6.54531 20.3844 6.53335 20.4594C6.49643 20.6907 6.61551 20.9507 6.82078 21.0869C6.86134 21.1138 6.89098 21.1415 6.88682 21.1483C6.87642 21.165 3.0107 21.1652 3.0003 21.1484L3.00043 21.1485ZM8.75767 16.1582C9.13897 16.0906 9.47541 15.9494 9.80002 15.721C9.95771 15.6101 10.2817 15.2865 10.4153 15.1065C10.7497 14.6563 10.9956 14.1251 11.194 13.4254C11.3204 12.9795 11.3742 12.6398 11.3741 12.2897C11.3741 12.0198 11.3496 11.8586 11.2818 11.6778C11.181 11.4095 10.9759 11.1974 10.7152 11.0921C10.4914 11.0017 10.3003 10.9779 9.84058 10.9832L9.494 10.9871L8.68838 13.5523C8.24547 14.9632 7.88536 16.1244 7.88835 16.1327C7.89147 16.141 7.94711 16.155 8.01185 16.1639C8.07685 16.1727 8.13887 16.1821 8.14992 16.1848C8.20036 16.1972 8.64938 16.1774 8.75767 16.1582Z" fill="#E6DAFE"/>
</svg>
