<svg width="32" height="32" viewBox="0 0 32 32" fill="none" xmlns="http://www.w3.org/2000/svg">
<g clip-path="url(#clip0_6_4403)">
<path d="M3.51741 12.0388H5.13007V12.1558H5.04294C4.87236 12.1558 4.76026 12.1698 4.70786 12.1978C4.65486 12.2265 4.61952 12.2789 4.60307 12.3556C4.58602 12.433 4.57688 12.6164 4.57688 12.9058V14.0944C4.57688 14.3899 4.56591 14.6129 4.54276 14.767C4.519 14.9211 4.45564 15.071 4.34902 15.2178C4.24301 15.3634 4.10167 15.4768 3.9256 15.5553C3.74892 15.6339 3.54361 15.6729 3.30966 15.6729C3.04708 15.6729 2.8442 15.6242 2.70286 15.5279C2.56091 15.4305 2.49023 15.3141 2.49023 15.1807C2.49023 15.0996 2.51521 15.032 2.56639 14.9766C2.61757 14.9217 2.67971 14.8949 2.75403 14.8949C2.82836 14.8949 2.89355 14.9193 2.94412 14.9686C2.99529 15.018 3.02088 15.0789 3.02088 15.1508C3.02088 15.1935 3.01052 15.2373 2.98981 15.2842C2.97092 15.3251 2.96179 15.3555 2.96179 15.3756C2.96179 15.4298 2.99407 15.4731 3.05865 15.5036C3.12384 15.5334 3.20365 15.5499 3.29991 15.5499C3.49426 15.5499 3.65814 15.4877 3.79096 15.364C3.92377 15.2398 4.00419 15.0935 4.03161 14.9248C4.05841 14.7566 4.07243 14.4782 4.07243 14.0907V12.9039C4.07243 12.6273 4.0639 12.4488 4.04806 12.3684C4.03161 12.288 3.99749 12.2326 3.94449 12.2021C3.8927 12.1716 3.77756 12.1558 3.60149 12.1558H3.51924V12.0388H3.51741Z" fill="#E6DAFE"/>
<path d="M6.55595 13.7514H6.80574C7.00679 13.7514 7.16885 13.7319 7.29191 13.6911C7.41498 13.6515 7.51855 13.5662 7.60019 13.4377C7.68244 13.3085 7.72386 13.1501 7.72386 12.9619C7.72386 12.6737 7.65319 12.4623 7.51185 12.327C7.37051 12.1918 7.14143 12.1248 6.82341 12.1248C6.70705 12.1248 6.61749 12.1284 6.55595 12.1357V13.752V13.7514ZM6.55595 13.8769V14.6117C6.55595 14.8871 6.56266 15.0668 6.57545 15.1521C6.58824 15.2368 6.62297 15.3007 6.67963 15.3416C6.73629 15.3836 6.84291 15.4037 7.00009 15.4037H7.11584V15.5207H5.51172V15.4037H5.60493C5.7548 15.4037 5.85838 15.3842 5.91625 15.3476C5.97352 15.3093 6.01069 15.2502 6.02653 15.1704C6.04176 15.0918 6.04968 14.9066 6.04968 14.6147V12.9058C6.04968 12.628 6.04176 12.4495 6.02653 12.3691C6.01129 12.288 5.97657 12.2332 5.92295 12.2021C5.86995 12.1717 5.7542 12.1558 5.57752 12.1558H5.51233V12.0389L5.95037 12.0212C6.30068 12.0072 6.57362 12.0005 6.7698 12.0005C7.13047 12.0005 7.40828 12.0285 7.60323 12.0846C7.7988 12.1418 7.95781 12.2411 8.08271 12.3855C8.2076 12.5287 8.26974 12.7103 8.26974 12.9296C8.26974 13.1197 8.22649 13.2872 8.1418 13.4328C8.05712 13.5784 7.93527 13.6887 7.77687 13.7636C7.61786 13.8392 7.33883 13.8769 6.93916 13.8769H6.55595Z" fill="#E6DAFE"/>
<path d="M11.1754 14.9188L12.4414 12.0383H13.5161V12.1553H13.3876C13.2158 12.1553 13.103 12.1693 13.05 12.1973C12.997 12.2266 12.9617 12.2784 12.944 12.3551C12.9258 12.4325 12.9172 12.6159 12.9172 12.9053V14.6136C12.9172 14.8877 12.9239 15.0669 12.9379 15.1521C12.9513 15.2362 12.9861 15.2996 13.0415 15.3404C13.0976 15.3818 13.2048 15.4025 13.3626 15.4025H13.5167V15.5195H11.8425V15.4025H11.9668C12.1149 15.4025 12.2178 15.3831 12.2757 15.3465C12.333 15.3081 12.3701 15.2496 12.3866 15.1698C12.403 15.09 12.4109 14.9054 12.4109 14.6136V12.3984L11.0396 15.5195H10.9147L9.52925 12.3984V14.4381C9.52925 14.7172 9.53778 14.9072 9.55484 15.0084C9.5719 15.1089 9.6249 15.1972 9.71385 15.2734C9.8028 15.3495 9.92891 15.3922 10.0898 15.4025V15.5195H8.83594V15.4025C8.9852 15.3946 9.10766 15.3538 9.20148 15.2813C9.29591 15.2082 9.35318 15.1186 9.37329 15.0132C9.39461 14.9066 9.40497 14.7098 9.40497 14.4217V12.9053C9.40497 12.6281 9.39644 12.449 9.3806 12.3685C9.36415 12.2875 9.32942 12.2327 9.27703 12.2016C9.22524 12.1711 9.11009 12.1553 8.9322 12.1553H8.83655V12.0383H9.89845L11.176 14.9188H11.1754Z" fill="#E6DAFE"/>
<path d="M14.169 14.1719C14.169 14.6026 14.2543 14.9255 14.4255 15.1418C14.596 15.3569 14.8525 15.4647 15.1943 15.4647C15.4947 15.4647 15.7317 15.3569 15.9053 15.1418C16.0795 14.9255 16.1667 14.6039 16.1667 14.1762C16.1667 13.7485 16.0808 13.4408 15.9096 13.2191C15.7378 12.9979 15.4892 12.8864 15.1632 12.8864C14.8373 12.8864 14.5967 12.9949 14.4261 13.2118C14.2543 13.428 14.1696 13.7479 14.1696 14.1719M13.7139 14.1579C13.7139 13.7448 13.8522 13.4134 14.1281 13.163C14.4041 12.9132 14.7484 12.7883 15.1608 12.7883C15.5769 12.7883 15.9248 12.912 16.205 13.1594C16.4841 13.4067 16.6236 13.7442 16.6236 14.1719C16.6236 14.5996 16.4896 14.9219 16.2227 15.1784C15.9546 15.4355 15.6031 15.5634 15.1675 15.5634C14.7319 15.5634 14.3944 15.4355 14.1233 15.1784C13.8509 14.9219 13.7151 14.5813 13.7151 14.1579" fill="#E6DAFE"/>
<path d="M17.7844 14.1342C17.8819 14.1311 17.9818 14.1275 18.086 14.1226C18.1895 14.1177 18.2797 14.1031 18.3565 14.0787C18.4332 14.0544 18.4954 14.0202 18.5423 13.9751C18.5898 13.9295 18.627 13.8691 18.6538 13.796C18.6812 13.7223 18.6952 13.6315 18.6952 13.5231C18.6952 13.3348 18.6489 13.1837 18.5557 13.071C18.4631 12.9577 18.2608 12.9011 17.9495 12.9011C17.9014 12.9011 17.8459 12.9035 17.7838 12.909V14.1348L17.7844 14.1342ZM19.7955 15.5147H19.079C18.9529 15.4245 18.758 15.1924 18.4972 14.8153C18.4131 14.6953 18.326 14.5801 18.2359 14.4699C18.1451 14.3596 18.0829 14.292 18.0494 14.2676C18.0147 14.2432 17.9629 14.231 17.8904 14.231H17.7844V14.8202C17.7844 15.0297 17.7893 15.1668 17.799 15.2308C17.8088 15.2954 17.8356 15.3441 17.8788 15.3752C17.9221 15.4069 18.0043 15.4221 18.125 15.4221H18.2547V15.5135H16.9717V15.4221H17.0582C17.1733 15.4221 17.2525 15.4081 17.297 15.3788C17.3415 15.3496 17.3695 15.3045 17.3805 15.243C17.3927 15.1821 17.3994 15.0401 17.3994 14.8159V13.503C17.3994 13.2898 17.3927 13.1521 17.3805 13.0899C17.3689 13.0284 17.3415 12.9857 17.3007 12.962C17.2592 12.9382 17.1697 12.9273 17.032 12.9273H16.9857V12.8353L17.3677 12.817C17.623 12.806 17.8252 12.8005 17.9739 12.8005C18.2291 12.8005 18.4363 12.8243 18.5959 12.8712C18.7549 12.9193 18.8841 12.9967 18.9828 13.1052C19.0809 13.213 19.1296 13.3428 19.1296 13.4926C19.1296 13.6681 19.0656 13.8174 18.9383 13.9416C18.8104 14.0653 18.6227 14.1427 18.3748 14.1732C18.4869 14.2262 18.6666 14.4205 18.9145 14.755C19.1168 15.0261 19.274 15.2028 19.3891 15.2881C19.5043 15.3715 19.6395 15.4166 19.7961 15.4215V15.5129L19.7955 15.5147Z" fill="#E6DAFE"/>
<path d="M21.6482 14.3716H22.8052V14.4624C22.6778 14.4624 22.5907 14.4764 22.5456 14.502C22.4993 14.5276 22.4695 14.5702 22.4549 14.6305C22.4408 14.6909 22.4335 14.8365 22.4335 15.0674V15.3531C22.4025 15.3476 22.3732 15.3452 22.3488 15.3452C22.2477 15.3452 22.1149 15.3763 21.951 15.4378C21.7274 15.5219 21.5203 15.5639 21.3296 15.5639C20.947 15.5639 20.6284 15.4372 20.3749 15.185C20.1215 14.9333 19.9941 14.6141 19.9941 14.2272C19.9941 13.8404 20.116 13.5083 20.3585 13.2208C20.6016 12.9326 20.9305 12.7888 21.3473 12.7888C21.7061 12.7888 22.0022 12.9198 22.2374 13.1824C22.2824 13.0892 22.3092 12.988 22.3208 12.8802H22.4122V13.7764H22.3208C22.2831 13.5028 22.1783 13.286 22.0083 13.1257C21.8377 12.9667 21.6312 12.8863 21.3869 12.8863C21.1426 12.8863 20.9165 12.9801 20.7301 13.1665C20.5431 13.3524 20.4505 13.6838 20.4505 14.1602C20.4505 14.6366 20.54 14.9699 20.7191 15.1685C20.8989 15.3659 21.1212 15.4646 21.3875 15.4646C21.5239 15.4646 21.6482 15.4366 21.7591 15.3805C21.8706 15.3251 21.9474 15.2568 21.987 15.1764C22.0278 15.0954 22.0485 14.9943 22.0485 14.8712C22.0485 14.728 22.0381 14.6318 22.0192 14.5842C22.0004 14.5361 21.9705 14.5038 21.9309 14.4868C21.8913 14.4703 21.8182 14.4618 21.7122 14.4618H21.6482V14.371V14.3716Z" fill="#E6DAFE"/>
<path d="M24.7062 14.4277L24.2396 13.2957L23.7723 14.4277H24.7062ZM24.7464 14.5264H23.7314L23.6614 14.6964C23.559 14.9431 23.5079 15.1033 23.5079 15.1783C23.5079 15.2593 23.5347 15.3196 23.5895 15.3617C23.6443 15.4037 23.715 15.4238 23.8015 15.4238V15.5152H22.9961V15.4238C23.1149 15.4049 23.2032 15.3635 23.2623 15.2983C23.3202 15.2325 23.3909 15.096 23.4725 14.8858C23.481 14.8663 23.5133 14.7896 23.57 14.6562L24.3516 12.8022H24.4296L25.3209 14.9267L25.4428 15.2063C25.4708 15.2691 25.5086 15.319 25.5543 15.3543C25.6012 15.3921 25.6713 15.4141 25.7645 15.4232V15.5146H24.7135V15.4232C24.8421 15.4232 24.9292 15.4134 24.9743 15.3946C25.0194 15.3751 25.0425 15.3373 25.0425 15.2812C25.0425 15.2526 25.0121 15.1661 24.9518 15.0223L24.7477 14.5264H24.7464Z" fill="#E6DAFE"/>
<path d="M28.5072 15.5774L26.6082 13.0661V14.9237C26.6082 15.0778 26.6155 15.1796 26.6307 15.2283C26.6459 15.2764 26.6886 15.3215 26.7593 15.3623C26.8305 15.4031 26.9366 15.4239 27.0785 15.4239V15.5152H26.083V15.4239C26.2097 15.4147 26.3066 15.3916 26.373 15.3538C26.44 15.3166 26.479 15.2758 26.4918 15.2326C26.5046 15.1893 26.5101 15.0863 26.5101 14.9249V13.5054C26.5101 13.3001 26.5003 13.1624 26.4814 13.0923C26.4626 13.0235 26.4321 12.9784 26.3907 12.9583C26.3486 12.9388 26.2554 12.929 26.1116 12.929V12.837H26.9104L28.4944 14.9322V13.3305C28.4944 13.2123 28.4822 13.1295 28.4578 13.0819C28.4341 13.0344 28.3835 12.9973 28.3092 12.9692C28.2336 12.9412 28.1441 12.9284 28.0387 12.9284V12.8364H29.0061V12.9284C28.894 12.937 28.8057 12.9589 28.7417 12.993C28.6778 13.0265 28.6357 13.0679 28.6187 13.1161C28.601 13.1648 28.5919 13.2458 28.5919 13.3604V15.5768H28.5078L28.5072 15.5774Z" fill="#E6DAFE"/>
<path d="M26.7327 18.1119C26.7327 18.5426 26.8186 18.8655 26.9898 19.0818C27.1604 19.2968 27.4169 19.4047 27.758 19.4047C28.0578 19.4047 28.2954 19.2968 28.469 19.0818C28.6433 18.8655 28.7304 18.5438 28.7304 18.1161C28.7304 17.6884 28.6451 17.3808 28.4727 17.159C28.3021 16.9378 28.0523 16.8264 27.727 16.8264C27.4016 16.8264 27.1604 16.9348 26.9898 17.1517C26.8186 17.368 26.7327 17.6878 26.7327 18.1119ZM26.277 18.0978C26.277 17.6848 26.4153 17.3534 26.6913 17.103C26.9672 16.8532 27.3127 16.7283 27.7245 16.7283C28.1364 16.7283 28.4885 16.8519 28.7675 17.0993C29.0466 17.3466 29.1855 17.6842 29.1855 18.1119C29.1855 18.5395 29.0514 18.8618 28.784 19.1183C28.5171 19.3754 28.1656 19.5034 27.7294 19.5034C27.2932 19.5034 26.9569 19.3754 26.6852 19.1183C26.4128 18.8618 26.2764 18.5213 26.2764 18.0978" fill="#E6DAFE"/>
<path d="M5.03742 18.1632H5.1544V19.3859H5.03742C5.00696 19.247 4.95091 19.1245 4.86988 19.0173C4.56526 19.3621 4.17596 19.5333 3.70319 19.5333C3.203 19.5333 2.79421 19.3743 2.47679 19.0563C2.15938 18.7383 2.00098 18.3179 2.00098 17.7952C2.00098 17.4516 2.07409 17.1281 2.2203 16.8247C2.36652 16.5206 2.57122 16.2958 2.83381 16.149C3.09578 16.0022 3.38334 15.9285 3.69588 15.9285C3.9542 15.9285 4.18936 15.9815 4.39955 16.0881C4.60974 16.1941 4.76692 16.3117 4.87049 16.4414C4.94543 16.2964 4.99173 16.1466 5.00574 15.9912H5.12272L5.15379 17.3072H5.03681C4.96005 16.8405 4.80408 16.5139 4.5677 16.33C4.33253 16.146 4.0663 16.054 3.76899 16.054C3.40649 16.054 3.11832 16.2014 2.90448 16.4981C2.69063 16.7942 2.58463 17.2176 2.58463 17.7684C2.58463 18.2905 2.69977 18.6908 2.93372 18.9698C3.16828 19.2476 3.45888 19.3865 3.80493 19.3865C3.99075 19.3865 4.18083 19.342 4.37518 19.2506C4.56892 19.1599 4.72306 19.0063 4.83576 18.7907C4.94969 18.5744 5.0161 18.366 5.03681 18.1638" fill="#E6DAFE"/>
<path d="M7.97317 18.1022H6.57862V18.7498C6.57862 18.9606 6.58471 19.0995 6.59446 19.1641C6.60482 19.2293 6.63284 19.278 6.67488 19.3097C6.71874 19.3414 6.80099 19.3566 6.92223 19.3566H6.99229V19.448H5.7793V19.3566H5.84936C5.96451 19.3566 6.04371 19.3426 6.08818 19.3133C6.13326 19.2847 6.1619 19.2396 6.17469 19.1787C6.18627 19.1172 6.19297 18.9746 6.19297 18.7504V17.4381C6.19297 17.2243 6.18627 17.0872 6.17469 17.025C6.16251 16.9635 6.13509 16.9215 6.09427 16.8971C6.05467 16.874 5.96572 16.8618 5.82925 16.8618H5.7793V16.771H6.99229V16.8618H6.94233C6.81013 16.8618 6.72362 16.8727 6.6828 16.8947C6.64137 16.9166 6.61334 16.9568 6.59994 17.0159C6.58532 17.0756 6.57923 17.2163 6.57923 17.4387V17.9694H7.97377V17.4387C7.97377 17.2249 7.96829 17.0878 7.95672 17.0257C7.94453 16.9641 7.91833 16.9221 7.87873 16.8977C7.83913 16.8746 7.75201 16.8624 7.61737 16.8624H7.5467V16.7716H8.75908V16.8624H8.7207C8.58789 16.8624 8.50198 16.8733 8.46238 16.8953C8.42157 16.9172 8.39415 16.9574 8.38075 17.0165C8.36673 17.0762 8.36003 17.217 8.36003 17.4393V18.7516C8.36003 18.9618 8.36552 19.1001 8.37526 19.1653C8.3844 19.2305 8.41121 19.2786 8.45385 19.3103C8.49833 19.342 8.57875 19.3572 8.69877 19.3572H8.75908V19.4486H7.5467V19.3572H7.63869C7.7514 19.3572 7.82939 19.3432 7.87264 19.314C7.91651 19.2847 7.94453 19.2396 7.95672 19.1787C7.96829 19.1172 7.97377 18.9746 7.97377 18.7504V18.1028L7.97317 18.1022Z" fill="#E6DAFE"/>
<path d="M10.7344 18.3617L10.2684 17.2291L9.80046 18.3617H10.7344ZM10.774 18.4597H9.76025L9.68897 18.6303C9.58662 18.8758 9.53544 19.0367 9.53544 19.1116C9.53544 19.192 9.56225 19.2536 9.61708 19.2944C9.67191 19.3358 9.74258 19.3565 9.82909 19.3565V19.4473H9.02246V19.3565C9.14187 19.3383 9.23021 19.2962 9.28931 19.231C9.34719 19.1658 9.41725 19.0275 9.5001 18.818C9.50863 18.7985 9.54031 18.7217 9.59636 18.5889L10.378 16.7344H10.4566L11.3479 18.8588L11.4692 19.139C11.4966 19.2018 11.5344 19.2524 11.5813 19.2883C11.6276 19.3242 11.6976 19.3468 11.7915 19.3559V19.4467H10.7405V19.3559C10.8685 19.3559 10.9562 19.3462 11.0013 19.3279C11.0464 19.3084 11.0695 19.27 11.0695 19.2146C11.0695 19.1853 11.039 19.0988 10.9781 18.9551L10.7734 18.4597H10.774Z" fill="#E6DAFE"/>
<path d="M12.1344 19.42V18.5573H12.2325C12.344 19.1184 12.6102 19.3987 13.0282 19.3987C13.2158 19.3987 13.3626 19.3445 13.465 19.2384C13.5685 19.1312 13.6197 19.0112 13.6197 18.8784C13.6197 18.7456 13.5752 18.6316 13.4845 18.5409C13.3943 18.4513 13.2286 18.3557 12.9879 18.2533C12.7729 18.1613 12.6114 18.0803 12.503 18.0114C12.3939 17.9426 12.3086 17.853 12.2471 17.7422C12.1862 17.6313 12.1563 17.5137 12.1563 17.3888C12.1563 17.1981 12.2221 17.0397 12.3556 16.9124C12.4884 16.7856 12.6559 16.7217 12.86 16.7217C12.9739 16.7217 13.0805 16.74 13.1811 16.7771C13.2816 16.8137 13.3839 16.8904 13.4893 17.0056C13.5509 16.9337 13.585 16.8551 13.5929 16.771H13.6764V17.4717H13.5929C13.5423 17.27 13.4534 17.1104 13.3249 16.994C13.1975 16.8783 13.0489 16.8204 12.8801 16.8204C12.7113 16.8204 12.6023 16.863 12.5267 16.9483C12.4524 17.0336 12.4146 17.1274 12.4146 17.2292C12.4146 17.3522 12.4622 17.4558 12.556 17.5399C12.648 17.6258 12.8155 17.7239 13.0568 17.8317C13.2871 17.9353 13.4552 18.0181 13.56 18.0809C13.6648 18.1436 13.7489 18.2302 13.8129 18.3404C13.875 18.4519 13.9079 18.5786 13.9079 18.7236C13.9079 18.9527 13.8317 19.1385 13.6776 19.2817C13.5253 19.4255 13.3212 19.4968 13.0653 19.4968C12.7711 19.4968 12.5249 19.3834 12.3287 19.1592C12.2855 19.2208 12.2532 19.3073 12.2319 19.42H12.1338H12.1344Z" fill="#E6DAFE"/>
<path d="M16.5388 18.6133H16.6301L16.5717 19.4474H14.3662V19.3566H14.4217C14.5526 19.3566 14.6385 19.3389 14.6769 19.303C14.7159 19.2677 14.7397 19.222 14.7506 19.1683C14.7604 19.1141 14.7659 18.9746 14.7659 18.7504V17.4381C14.7659 17.2334 14.7604 17.0994 14.7494 17.0348C14.7378 16.9702 14.7116 16.9251 14.6727 16.8995C14.6312 16.8733 14.5459 16.8606 14.4156 16.8606V16.7698H16.3213L16.3852 17.4345H16.2945C16.2518 17.2486 16.2006 17.1164 16.1397 17.0391C16.0794 16.9605 16.0075 16.9111 15.9234 16.891C15.84 16.8703 15.7059 16.8606 15.5201 16.8606H15.1521V17.9822H15.4342C15.564 17.9822 15.6541 17.9712 15.7053 17.9493C15.7571 17.9267 15.7912 17.8932 15.8071 17.8475C15.8241 17.8018 15.8314 17.7135 15.8314 17.5825H15.9222V18.4933H15.8314C15.8314 18.3453 15.8192 18.246 15.7943 18.1948C15.7693 18.1448 15.734 18.1113 15.6858 18.0961C15.6377 18.0815 15.5573 18.0735 15.4433 18.0735H15.1515V18.7065C15.1515 19.0233 15.171 19.2098 15.2124 19.2652C15.2533 19.3213 15.3629 19.3493 15.5414 19.3493H15.7394C15.8802 19.3493 15.9959 19.3328 16.0867 19.3006C16.1763 19.2677 16.2628 19.1958 16.3444 19.0831C16.426 18.971 16.4912 18.8144 16.5381 18.6139" fill="#E6DAFE"/>
<path d="M19.1795 17.1926C19.5371 16.9842 19.715 16.7594 19.715 16.5169C19.715 16.3732 19.676 16.2562 19.5962 16.1666C19.5164 16.0777 19.4104 16.0338 19.2794 16.0338C19.1484 16.0338 19.0467 16.0765 18.9681 16.1618C18.8901 16.2464 18.8517 16.3531 18.8517 16.4798C18.8517 16.654 18.9614 16.8916 19.1795 17.1926ZM18.912 17.5167C18.7238 17.6312 18.5782 17.7647 18.4764 17.9176C18.3729 18.0711 18.3217 18.2192 18.3217 18.3617C18.3217 18.5817 18.4106 18.7906 18.5885 18.9856C18.7664 19.1824 18.9669 19.2804 19.1917 19.2804C19.4421 19.2804 19.673 19.1568 19.8844 18.9094C19.5079 18.3355 19.1838 17.8719 18.912 17.5161M20.0665 17.2626H21.2186V17.3875C21.0736 17.4265 20.9469 17.496 20.8391 17.5959C20.7306 17.6952 20.6191 17.8835 20.504 18.1601C20.4077 18.3885 20.3188 18.5548 20.2384 18.6627C20.4297 18.9374 20.5807 19.1105 20.6898 19.1848C20.7995 19.2585 20.9152 19.2951 21.0389 19.2951C21.2077 19.2951 21.3374 19.214 21.4282 19.0538H21.5525C21.5153 19.2012 21.4349 19.3194 21.3124 19.4096C21.1894 19.4998 21.0474 19.5449 20.8866 19.5449C20.5363 19.5449 20.2292 19.3706 19.9636 19.0197C19.6486 19.37 19.3154 19.5449 18.9632 19.5449C18.7908 19.5449 18.6275 19.5034 18.4703 19.4206C18.3125 19.3377 18.1852 19.2207 18.0865 19.0709C17.9872 18.9216 17.9385 18.7474 17.9385 18.5512C17.9385 18.3264 18 18.1375 18.1231 17.9846C18.2455 17.8323 18.4813 17.6392 18.8298 17.407C18.6196 17.1152 18.5148 16.852 18.5148 16.6169C18.5148 16.4304 18.5861 16.2653 18.7293 16.1191C18.873 15.9735 19.0528 15.9004 19.2697 15.9004C19.4622 15.9004 19.6364 15.9552 19.793 16.0643C19.9477 16.1733 20.0257 16.3165 20.0257 16.4926C20.0257 16.7686 19.768 17.0348 19.2538 17.2937C19.5737 17.7245 19.8734 18.1412 20.1573 18.5433C20.2585 18.4007 20.3395 18.2527 20.3986 18.1004C20.4565 17.948 20.4875 17.8298 20.4875 17.7433C20.4875 17.5386 20.3468 17.4198 20.0647 17.3882V17.2633L20.0665 17.2626Z" fill="#E6DAFE"/>
<path d="M25.5045 18.1516H25.6214V19.3743H25.5045C25.474 19.236 25.4173 19.1129 25.3369 19.0063C25.0323 19.3505 24.6424 19.5223 24.1702 19.5223C23.67 19.5223 23.2606 19.3633 22.9432 19.0459C22.6258 18.7279 22.4668 18.3069 22.4668 17.7842C22.4668 17.4406 22.5405 17.1165 22.6867 16.8137C22.8323 16.5103 23.0377 16.2849 23.2996 16.138C23.561 15.9912 23.8486 15.9175 24.1617 15.9175C24.4206 15.9175 24.6552 15.9699 24.8654 16.0771C25.0749 16.1831 25.2327 16.3013 25.3363 16.4305C25.4112 16.2855 25.4569 16.1356 25.4728 15.9796H25.5885L25.6202 17.2956H25.5032C25.4265 16.8289 25.2705 16.503 25.0341 16.3184C24.7984 16.1338 24.5321 16.0418 24.236 16.0418C23.8729 16.0418 23.5854 16.1898 23.3709 16.4865C23.1571 16.782 23.0511 17.2054 23.0511 17.7574C23.0511 18.2795 23.168 18.6798 23.4008 18.9582C23.6341 19.2354 23.9241 19.3749 24.272 19.3749C24.4578 19.3749 24.6479 19.3298 24.8422 19.2384C25.036 19.1483 25.1907 18.9954 25.3028 18.7791C25.4167 18.5628 25.4837 18.3538 25.5039 18.1522" fill="#E6DAFE"/>
<path d="M29.4102 19.2329C29.4102 19.1524 29.4388 19.0836 29.4973 19.0263C29.5545 18.9685 29.6234 18.9404 29.7038 18.9404C29.7842 18.9404 29.8555 18.9685 29.9134 19.0263C29.9707 19.0836 29.9999 19.1524 29.9999 19.2329C29.9999 19.3133 29.9707 19.3846 29.9122 19.4424C29.8537 19.4997 29.7836 19.529 29.7044 19.529C29.6252 19.529 29.5527 19.4991 29.4961 19.4394C29.4394 19.3797 29.4108 19.3108 29.4108 19.2329" fill="#E6DAFE"/>
</g>
<defs>
<clipPath id="clip0_6_4403">
<rect width="28" height="7.54542" fill="white" transform="translate(2 12)"/>
</clipPath>
</defs>
</svg>
