<svg width="32" height="32" viewBox="0 0 32 32" fill="none" xmlns="http://www.w3.org/2000/svg">
<path d="M9.19744 16.357L7.6344 14.0028H7.17209L5.60904 16.3556H6.19243L6.47587 15.9249H8.32236L8.60993 16.3556H9.19607L9.19744 16.357ZM6.80197 15.4378L7.40187 14.5325L8.00177 15.4378H6.80197Z" fill="#E6DAFE"/>
<path d="M12.0828 15.5589C12.3001 15.4447 12.4364 15.2149 12.4364 14.9659V14.6783C12.4364 14.3055 12.1364 14.0028 11.7663 14.0028H9.45474V16.3556H9.93907V15.6387H11.5943L11.9741 16.3556H12.5038L12.0828 15.5589ZM11.9548 14.9631C11.9548 15.0677 11.8722 15.1516 11.7663 15.1516H9.93907V14.4912H11.769C11.8709 14.4912 11.9534 14.5738 11.9534 14.6756V14.9631H11.9548Z" fill="#E6DAFE"/>
<path d="M14.2416 14.0028L12.6785 16.3556H13.2619L13.5454 15.9249H15.3918L15.6794 16.3556H16.2656L14.7039 14.0028H14.2416ZM13.8687 15.4378L14.4714 14.5325L15.0671 15.4378H13.8687Z" fill="#E6DAFE"/>
<path d="M15.7083 14.4912H16.9934V16.357H17.4777V14.4912H18.7628V14.0028H15.7083V14.4912Z" fill="#E6DAFE"/>
<path d="M21.6743 14.9343H19.5884V14.0028H19.1041V16.357H19.5884V15.4227H21.6743V16.357H22.1586V14.0028H21.6743V14.9343Z" fill="#E6DAFE"/>
<path d="M25.1086 14H23.2525C22.8824 14 22.5824 14.3055 22.5824 14.6756V15.68C22.5824 16.0529 22.8824 16.3556 23.2525 16.3556H25.1086C25.4787 16.3556 25.7787 16.0529 25.7787 15.68V14.6756C25.7787 14.3027 25.4787 14 25.1086 14ZM25.293 15.68C25.293 15.7846 25.2104 15.8685 25.1086 15.8685H23.2525C23.1507 15.8685 23.0681 15.7859 23.0681 15.68V14.6756C23.0681 14.5738 23.1479 14.4912 23.2525 14.4912H25.1086C25.2104 14.4912 25.293 14.5738 25.293 14.6756V15.68Z" fill="#E6DAFE"/>
<path d="M26.6868 14.6728L28.836 16.357H29.257V14.0028H28.7686V15.6841L26.6194 14.0028H26.2025V16.357H26.6868V14.6728Z" fill="#E6DAFE"/>
<path d="M5.34762 16.3597V14.0028H4.9142L3.67725 15.4695L2.43754 14.0028H2.00688V16.357H2.4912V14.8586L3.48875 16.0116H3.86575L4.86054 14.8613V16.3597H5.34762Z" fill="#E6DAFE"/>
<path d="M2.87096 17.0958C2.84206 17.0766 2.80767 17.0669 2.76914 17.0669H2V17.8127H2.77189C2.81042 17.8127 2.84206 17.803 2.87096 17.7838C2.89985 17.7673 2.92462 17.7425 2.94388 17.7109C2.96314 17.6792 2.97278 17.6434 2.97278 17.6063V17.2774C2.97278 17.2389 2.96314 17.2045 2.94388 17.1729C2.92737 17.1412 2.9026 17.1151 2.87096 17.0958ZM2.84757 17.6063C2.84757 17.6283 2.84069 17.6448 2.82555 17.66C2.81317 17.6765 2.79391 17.682 2.77189 17.682H2.13071V17.1976H2.77189C2.79391 17.1976 2.81042 17.2045 2.82555 17.2197C2.84206 17.2362 2.84757 17.2513 2.84757 17.2733V17.6063Z" fill="#E6DAFE"/>
<path d="M4.13956 17.0669H4.0116V17.8099H4.13956V17.0669Z" fill="#E6DAFE"/>
<path d="M6.05346 17.0931C6.02457 17.0738 5.99017 17.0642 5.95165 17.0642H5.38752C5.34899 17.0642 5.31459 17.0738 5.2857 17.0931C5.25681 17.1123 5.23204 17.1371 5.21278 17.1701C5.19351 17.199 5.18388 17.2334 5.18388 17.2719V17.6035C5.18388 17.6421 5.19351 17.6765 5.21278 17.7081C5.23204 17.737 5.25405 17.7618 5.2857 17.781C5.31459 17.8003 5.34899 17.8099 5.38752 17.8099H5.95165C5.99017 17.8099 6.02457 17.803 6.05346 17.781C6.08236 17.7645 6.10713 17.7398 6.12639 17.7081C6.14565 17.6765 6.15528 17.6407 6.15528 17.6035V17.3738H5.6517V17.5045H6.02732V17.6063C6.02732 17.6283 6.02044 17.6448 6.00531 17.66C5.99292 17.6765 5.97366 17.682 5.95165 17.682H5.38752C5.3655 17.682 5.34899 17.6751 5.33386 17.66C5.31735 17.6476 5.31184 17.6283 5.31184 17.6063V17.2719C5.31184 17.2499 5.31872 17.2334 5.33386 17.2183C5.34624 17.2018 5.3655 17.1963 5.38752 17.1963H5.95165C5.97366 17.1963 5.99017 17.2031 6.00531 17.2183C6.02044 17.2334 6.02732 17.2499 6.02732 17.2719V17.2912H6.15528V17.2719C6.15528 17.2375 6.14565 17.2018 6.12639 17.1701C6.10988 17.1385 6.08511 17.1123 6.05346 17.0931Z" fill="#E6DAFE"/>
<path d="M7.31931 17.0669H7.19135V17.8099H7.31931V17.0669Z" fill="#E6DAFE"/>
<path d="M8.33612 17.199H8.7599V17.8099H8.88786V17.199H9.31165V17.0669H8.33612V17.199Z" fill="#E6DAFE"/>
<path d="M10.5582 17.0669L10.0643 17.8099H10.2211L10.3133 17.6696H10.938L11.0343 17.8099H11.187L10.6958 17.0669H10.5582ZM10.3986 17.543L10.6257 17.2018L10.8527 17.543H10.3986Z" fill="#E6DAFE"/>
<path d="M12.3057 17.0669H12.1777V17.8099H13.0101V17.6833H12.3057V17.0669Z" fill="#E6DAFE"/>
<path d="M16.0784 17.3765H15.3602V17.0669H15.2336V17.8099H15.3602V17.5045H16.0784V17.8099H16.2091V17.0669H16.0784V17.3765Z" fill="#E6DAFE"/>
<path d="M18.1671 17.0931C18.1382 17.0738 18.1038 17.0642 18.0653 17.0642H17.453C17.4144 17.0642 17.3828 17.0738 17.3512 17.0931C17.3223 17.1123 17.2975 17.1371 17.2782 17.1701C17.259 17.2018 17.2493 17.2375 17.2493 17.2747V17.6063C17.2493 17.6448 17.259 17.6792 17.2782 17.7109C17.2975 17.7398 17.3195 17.7645 17.3512 17.7838C17.38 17.803 17.4144 17.8127 17.453 17.8127H18.0653C18.1038 17.8127 18.1382 17.803 18.1671 17.7838C18.196 17.7673 18.2207 17.7425 18.24 17.7109C18.2593 17.6792 18.2689 17.6434 18.2689 17.6063V17.2747C18.2689 17.2362 18.2593 17.2018 18.24 17.1701C18.2235 17.1385 18.1987 17.1123 18.1671 17.0931ZM18.1409 17.6063C18.1409 17.6283 18.1341 17.6448 18.1189 17.66C18.1065 17.6765 18.0873 17.682 18.0653 17.682H17.453C17.431 17.682 17.4144 17.6751 17.3993 17.66C17.3842 17.6476 17.3773 17.6283 17.3773 17.6063V17.2747C17.3773 17.2527 17.3842 17.2362 17.3993 17.221C17.4117 17.2045 17.431 17.199 17.453 17.199H18.0653C18.0873 17.199 18.1038 17.2059 18.1189 17.221C18.1354 17.2375 18.1409 17.2527 18.1409 17.2747V17.6063Z" fill="#E6DAFE"/>
<path d="M19.4426 17.0669H19.3118V17.8099H20.147V17.6833H19.4426V17.0669Z" fill="#E6DAFE"/>
<path d="M22.0403 17.0958C22.0114 17.0766 21.977 17.0669 21.9385 17.0669H21.1707V17.8127H21.9385C21.977 17.8127 22.0086 17.803 22.0403 17.7838C22.0692 17.7673 22.094 17.7425 22.1132 17.7109C22.1325 17.6792 22.1421 17.6434 22.1421 17.6063V17.2774C22.1421 17.2389 22.1325 17.2045 22.1132 17.1729C22.0967 17.1412 22.0719 17.1151 22.0403 17.0958ZM22.0155 17.6063C22.0155 17.6283 22.0086 17.6448 21.9935 17.66C21.9811 17.6765 21.9619 17.682 21.9399 17.682H21.2987V17.1976H21.9399C21.9619 17.1976 21.9784 17.2045 21.9935 17.2197C22.01 17.2362 22.0155 17.2513 22.0155 17.2733V17.6063Z" fill="#E6DAFE"/>
<path d="M23.3075 17.0669H23.1796V17.8099H23.3075V17.0669Z" fill="#E6DAFE"/>
<path d="M25.2008 17.6379L24.4743 17.0669H24.356V17.8099H24.4839V17.2403L25.2132 17.8099H25.3315V17.0669H25.2008V17.6379Z" fill="#E6DAFE"/>
<path d="M27.2413 17.0931C27.2124 17.0738 27.178 17.0642 27.1395 17.0642H26.5753C26.5368 17.0642 26.5052 17.0738 26.4735 17.0931C26.4446 17.1123 26.4199 17.1371 26.4006 17.1701C26.3813 17.199 26.3717 17.2334 26.3717 17.2719V17.6035C26.3717 17.6421 26.3813 17.6765 26.4006 17.7081C26.4199 17.737 26.4419 17.7618 26.4735 17.781C26.5024 17.8003 26.5368 17.8099 26.5753 17.8099H27.1395C27.178 17.8099 27.2124 17.803 27.2413 17.781C27.2702 17.7645 27.2949 17.7398 27.3142 17.7081C27.3335 17.6765 27.3431 17.6407 27.3431 17.6035V17.3738H26.8395V17.5045H27.2151V17.6063C27.2151 17.6283 27.2083 17.6448 27.1931 17.66C27.1807 17.6765 27.1615 17.682 27.1395 17.682H26.5753C26.5533 17.682 26.5368 17.6751 26.5217 17.66C26.5052 17.6476 26.4997 17.6283 26.4997 17.6063V17.2719C26.4997 17.2499 26.5065 17.2334 26.5217 17.2183C26.5382 17.2018 26.5533 17.1963 26.5753 17.1963H27.1395C27.1615 17.1963 27.178 17.2031 27.1931 17.2183C27.2096 17.2348 27.2151 17.2499 27.2151 17.2719V17.2912H27.3431V17.2719C27.3431 17.2375 27.3335 17.2018 27.3142 17.1701C27.2977 17.1385 27.2729 17.1123 27.2413 17.0931Z" fill="#E6DAFE"/>
<path d="M29.1896 17.0931C29.1607 17.0766 29.129 17.0669 29.0933 17.0669H28.5443C28.5085 17.0669 28.4769 17.0766 28.448 17.0931C28.4191 17.1096 28.3943 17.1316 28.3778 17.1605C28.3613 17.1894 28.3516 17.221 28.3516 17.2568V17.3201C28.3516 17.3559 28.3585 17.3875 28.3778 17.4164C28.3971 17.4453 28.4191 17.4673 28.448 17.4838C28.4769 17.5003 28.5085 17.51 28.5443 17.51H29.0933C29.1125 17.51 29.1249 17.5127 29.1373 17.5265C29.1497 17.5361 29.1566 17.5526 29.1566 17.5678V17.6283C29.1566 17.6448 29.1497 17.66 29.1373 17.6696C29.1249 17.6792 29.1084 17.6861 29.0933 17.6861H28.5443C28.525 17.6861 28.5126 17.6833 28.4989 17.6696C28.4865 17.66 28.4796 17.6434 28.4796 17.6283V17.609H28.3516V17.6256C28.3516 17.66 28.3613 17.693 28.3778 17.7219C28.3971 17.7508 28.4191 17.7728 28.448 17.7893C28.4769 17.8058 28.5085 17.8154 28.5443 17.8154H29.0933C29.129 17.8154 29.1607 17.8086 29.1896 17.7865C29.2185 17.77 29.2432 17.748 29.2598 17.7191C29.2763 17.693 29.2859 17.6613 29.2859 17.6269V17.5664C29.2859 17.532 29.2763 17.499 29.2598 17.4701C29.2405 17.4412 29.2185 17.4192 29.1896 17.4027C29.1607 17.3861 29.129 17.3765 29.0933 17.3765H28.5443C28.525 17.3765 28.5126 17.3738 28.4989 17.36C28.4865 17.3504 28.4796 17.3339 28.4796 17.3187V17.2582C28.4796 17.2417 28.4865 17.2293 28.4989 17.2169C28.5113 17.2073 28.525 17.2004 28.5443 17.2004H29.0933C29.1125 17.2004 29.1249 17.2031 29.1373 17.2169C29.1497 17.2265 29.1566 17.243 29.1566 17.2582V17.2747H29.2845V17.2582C29.2845 17.2238 29.2749 17.1908 29.2584 17.1619C29.2391 17.133 29.2171 17.111 29.1882 17.0944L29.1896 17.0931Z" fill="#E6DAFE"/>
<path d="M29.9587 14.1527C29.9326 14.1046 29.8954 14.0702 29.8473 14.0413C29.7991 14.0151 29.7455 14 29.6849 14.0028C29.6271 14.0028 29.5735 14.0151 29.5253 14.044C29.4772 14.0729 29.4428 14.1114 29.4139 14.1582C29.385 14.2064 29.3726 14.2573 29.3726 14.3151C29.3726 14.3729 29.385 14.4238 29.4139 14.4719C29.44 14.5201 29.4772 14.5586 29.5253 14.5861C29.5735 14.615 29.6271 14.6274 29.6849 14.6274C29.7427 14.6274 29.7964 14.615 29.8445 14.5861C29.8927 14.5572 29.9312 14.5187 29.9587 14.4719C29.9876 14.4238 30 14.3701 30 14.3123C30 14.2518 29.9876 14.2009 29.9587 14.1527ZM29.9133 14.4472C29.8885 14.4885 29.8555 14.5201 29.8184 14.5435C29.7771 14.5696 29.7358 14.5779 29.6849 14.5779C29.634 14.5779 29.5927 14.5655 29.5515 14.5435C29.5129 14.5215 29.4813 14.4898 29.4593 14.4472C29.4373 14.4059 29.4235 14.3605 29.4235 14.3137C29.4235 14.2669 29.4359 14.2215 29.4593 14.1802C29.4854 14.139 29.5129 14.1073 29.5556 14.0839C29.5941 14.0619 29.6381 14.0495 29.689 14.0495C29.74 14.0495 29.7854 14.0619 29.8225 14.0839C29.861 14.1101 29.8927 14.1376 29.9147 14.1802C29.9367 14.2215 29.9505 14.2669 29.9505 14.3137C29.9505 14.3605 29.9381 14.4059 29.9147 14.4472H29.9133Z" fill="#E6DAFE"/>
<path d="M29.828 14.3288C29.8404 14.3096 29.8473 14.2876 29.8445 14.2614C29.8445 14.2229 29.8321 14.194 29.806 14.172C29.7771 14.15 29.7427 14.1403 29.6973 14.1403H29.5501V14.4912H29.6271V14.3866H29.7069L29.7771 14.4912H29.8542L29.7771 14.3701C29.7991 14.3605 29.8156 14.3481 29.828 14.3288ZM29.7551 14.3068C29.7427 14.3165 29.7234 14.3233 29.6973 14.3233H29.6299V14.2023H29.6973C29.7234 14.2023 29.7427 14.2091 29.7551 14.2188C29.7675 14.2284 29.7743 14.2449 29.7743 14.2628C29.7743 14.2807 29.7675 14.2972 29.7551 14.3068Z" fill="#E6DAFE"/>
</svg>
