<svg width="32" height="32" viewBox="0 0 32 32" fill="none" xmlns="http://www.w3.org/2000/svg">
<g clip-path="url(#clip0_6_4726)">
<path d="M8.45167 23.1113V21.7682L8.42536 21.7798C8.12264 21.9263 7.79332 22.0099 7.45735 22.0255C7.10816 22.0528 6.76114 21.9505 6.48263 21.7381C6.28373 21.5846 6.13585 21.3746 6.05837 21.1356C5.97286 20.8752 5.96299 20.5958 6.0299 20.33C6.09201 20.0582 6.24428 19.8153 6.46195 19.641C6.65498 19.4796 6.89086 19.3779 7.14076 19.3483C7.58245 19.2993 8.02872 19.383 8.42267 19.5887L8.45167 19.6037V18.253L8.39045 18.2367C7.99602 18.11 7.58191 18.0558 7.16815 18.0766C6.79131 18.0863 6.42019 18.1712 6.07663 18.3263C5.72977 18.4852 5.42396 18.7214 5.18273 19.017C4.81612 19.4809 4.61265 20.0527 4.60382 20.644C4.59498 21.2352 4.78127 21.8129 5.13386 22.2875C5.49065 22.7439 5.99154 23.066 6.55486 23.2013C7.14855 23.3458 7.77071 23.3237 8.35313 23.1385L8.45167 23.1113" fill="#E6DAFE"/>
<path d="M21.7427 23.1113V21.7682L21.7164 21.7798C21.4137 21.9263 21.0843 22.0099 20.7484 22.0255C20.3992 22.0528 20.0522 21.9505 19.7736 21.7381C19.5747 21.5846 19.4269 21.3746 19.3494 21.1356C19.2639 20.8752 19.254 20.5958 19.3209 20.33C19.383 20.0582 19.5353 19.8153 19.753 19.641C19.946 19.4796 20.1819 19.3779 20.4318 19.3483C20.8735 19.2993 21.3197 19.383 21.7137 19.5887L21.7427 19.6037V18.253L21.6815 18.2367C21.287 18.11 20.8729 18.0558 20.4592 18.0766C20.0823 18.0863 19.7112 18.1712 19.3676 18.3263C19.0208 18.4852 18.715 18.7214 18.4737 19.017C18.1071 19.4809 17.9037 20.0527 17.8948 20.644C17.886 21.2352 18.0723 21.8129 18.4249 22.2875C18.7817 22.7439 19.2826 23.066 19.8459 23.2013C20.4396 23.3458 21.0617 23.3237 21.6441 23.1385L21.7427 23.1113" fill="#E6DAFE"/>
<path fill-rule="evenodd" clip-rule="evenodd" d="M13.1945 21.9964L13.1894 23.1532L13.274 23.1677C13.5396 23.2174 13.8075 23.2518 14.0769 23.2711C14.3127 23.2929 14.5498 23.2975 14.7863 23.2848C15.0124 23.2687 15.2361 23.2262 15.4522 23.1591C15.7062 23.0873 15.9418 22.9618 16.1431 22.791C16.3243 22.6363 16.4628 22.4377 16.5454 22.2142C16.6894 21.84 16.6865 21.4252 16.5373 21.0531C16.4588 20.86 16.3352 20.6886 16.1767 20.5531C16.0235 20.4151 15.8434 20.3102 15.6477 20.2452L14.775 19.9213C14.6708 19.877 14.5861 19.7964 14.5368 19.6944C14.5179 19.6525 14.5089 19.6068 14.5105 19.5609C14.5122 19.515 14.5245 19.47 14.5465 19.4297C14.5622 19.401 14.5818 19.3747 14.6048 19.3515C14.6421 19.3134 14.6857 19.2819 14.7337 19.2583C14.8311 19.21 14.9364 19.1797 15.0446 19.1679C15.2293 19.1412 15.4169 19.1432 15.601 19.1738C15.8185 19.1974 16.0341 19.2358 16.246 19.2892L16.2911 19.2992V18.2321L16.2078 18.2141C15.9916 18.1623 15.7724 18.1233 15.5516 18.0973C15.2653 18.059 14.9754 18.0578 14.6888 18.0935C14.3258 18.1268 13.9805 18.2657 13.6956 18.4931C13.5024 18.6447 13.3555 18.8472 13.2713 19.0779C13.1447 19.4293 13.1444 19.8138 13.2705 20.1654C13.3355 20.3399 13.4397 20.4976 13.5755 20.6256C13.6929 20.739 13.8258 20.8351 13.9703 20.9116C14.1604 21.0137 14.3618 21.0929 14.5704 21.1474C14.6394 21.1681 14.7079 21.1898 14.7761 21.2126L14.8795 21.2505L14.909 21.2626C15.011 21.2991 15.104 21.3566 15.1824 21.4312C15.2366 21.4822 15.2785 21.5448 15.3045 21.6146C15.3206 21.6782 15.3209 21.7448 15.3053 21.8087C15.2727 21.9116 15.2009 21.9976 15.1056 22.0483C15.0017 22.1023 14.889 22.1375 14.7729 22.1522C14.6024 22.1792 14.4296 22.188 14.2573 22.1782C14.0314 22.1613 13.8066 22.1313 13.5841 22.0885C13.4679 22.0644 13.3521 22.0375 13.2375 22.0072L13.1945 21.9964ZM10.2021 23.1999H11.4722V18.1623H10.2021V23.1999ZM24.906 19.6498C25.0417 19.5393 25.198 19.4567 25.3658 19.4069C25.5337 19.3571 25.7097 19.3411 25.8838 19.3597C26.0579 19.3784 26.2265 19.4313 26.38 19.5156C26.5335 19.5998 26.6688 19.7136 26.778 19.8504C26.8872 19.9872 26.9683 20.1443 27.0164 20.3126C27.0646 20.4809 27.0789 20.6571 27.0586 20.831C27.0382 21.0049 26.9836 21.173 26.8979 21.3257C26.8122 21.4783 26.6971 21.6125 26.5592 21.7204C26.2841 21.933 25.9364 22.029 25.5911 21.9875C25.2459 21.9461 24.9308 21.7705 24.7138 21.4988C24.4968 21.2271 24.3953 20.881 24.4313 20.5351C24.4672 20.1893 24.6377 19.8711 24.906 19.6498ZM23.062 20.6834C23.0681 21.0766 23.1616 21.4635 23.3357 21.8161C23.5098 22.1687 23.7602 22.4781 24.0687 22.722C24.3773 22.9658 24.7362 23.1379 25.1195 23.2258C25.5028 23.3137 25.9008 23.3153 26.2848 23.2303C26.8005 23.1332 27.2745 22.8815 27.6437 22.5086C28.013 22.1357 28.26 21.6593 28.352 21.1426C28.444 20.626 28.3766 20.0936 28.1588 19.6161C27.941 19.1387 27.583 18.7388 27.1325 18.4697C26.7324 18.2221 26.2739 18.0847 25.8036 18.0715C25.3332 18.0583 24.8677 18.1697 24.4543 18.3945C24.041 18.6193 23.6944 18.9494 23.4498 19.3514C23.2053 19.7534 23.0714 20.2129 23.0618 20.6834" fill="#E6DAFE"/>
<path d="M2 14.1139C2.00904 14.2321 2.0512 14.3453 2.12163 14.4406C2.19206 14.5359 2.28792 14.6094 2.39822 14.6527C2.50852 14.696 2.62879 14.7073 2.74524 14.6854C2.86169 14.6635 2.96961 14.6092 3.05662 14.5288C3.17316 14.4206 3.24458 14.2724 3.2564 14.1139V12.7176C3.253 12.5533 3.18532 12.3968 3.06788 12.2818C2.95044 12.1667 2.79259 12.1023 2.6282 12.1023C2.4638 12.1023 2.30596 12.1667 2.18852 12.2818C2.07108 12.3968 2.0034 12.5533 2 12.7176V14.1139Z" fill="#E6DAFE"/>
<path d="M5.47754 14.1139C5.48958 14.2724 5.56099 14.4204 5.67748 14.5285C5.79397 14.6366 5.94697 14.6967 6.10587 14.6969C6.26479 14.6968 6.41782 14.6367 6.5343 14.5286C6.65077 14.4205 6.72208 14.2724 6.73394 14.1139V10.9838C6.72811 10.8211 6.65937 10.667 6.5422 10.5539C6.42503 10.4409 6.26856 10.3777 6.10574 10.3777C5.94292 10.3777 5.78645 10.4409 5.66928 10.5539C5.5521 10.667 5.48337 10.8211 5.47754 10.9838V14.1142" fill="#E6DAFE"/>
<path d="M8.93652 15.3746C8.94791 15.5334 9.01902 15.682 9.13555 15.7905C9.25208 15.8989 9.40538 15.9592 9.56459 15.9592C9.7238 15.9592 9.87709 15.8989 9.99363 15.7905C10.1102 15.682 10.1813 15.5334 10.1927 15.3746V8.60389C10.1845 8.44281 10.1148 8.29103 9.99787 8.17992C9.88098 8.0688 9.72587 8.00684 9.56459 8.00684C9.40331 8.00684 9.2482 8.0688 9.13131 8.17992C9.01442 8.29103 8.94468 8.44281 8.93652 8.60389V15.3746Z" fill="#E6DAFE"/>
<path d="M12.4248 14.1139C12.4368 14.2724 12.5083 14.4204 12.6247 14.5285C12.7412 14.6366 12.8942 14.6967 13.0531 14.6969C13.2121 14.6968 13.3651 14.6367 13.4816 14.5286C13.598 14.4205 13.6693 14.2724 13.6812 14.1139V10.9838C13.6754 10.8211 13.6066 10.667 13.4895 10.5539C13.3723 10.4409 13.2158 10.3777 13.053 10.3777C12.8902 10.3777 12.7337 10.4409 12.6165 10.5539C12.4994 10.667 12.4306 10.8211 12.4248 10.9838V14.1142" fill="#E6DAFE"/>
<path d="M15.8955 14.1139C15.9045 14.2321 15.9467 14.3453 16.0171 14.4406C16.0876 14.5359 16.1834 14.6094 16.2937 14.6527C16.404 14.696 16.5243 14.7073 16.6407 14.6854C16.7572 14.6635 16.8651 14.6092 16.9521 14.5288C17.0687 14.4206 17.1401 14.2724 17.1519 14.1139V12.7176C17.1485 12.5533 17.0808 12.3968 16.9634 12.2818C16.8459 12.1667 16.6881 12.1023 16.5237 12.1023C16.3593 12.1023 16.2015 12.1667 16.084 12.2818C15.9666 12.3968 15.8989 12.5533 15.8955 12.7176V14.1139Z" fill="#E6DAFE"/>
<path d="M19.373 14.1139C19.3851 14.2724 19.4565 14.4204 19.573 14.5285C19.6895 14.6366 19.8425 14.6967 20.0014 14.6969C20.1603 14.6968 20.3133 14.6367 20.4298 14.5286C20.5463 14.4205 20.6176 14.2724 20.6294 14.1139V10.9838C20.6236 10.8211 20.5549 10.667 20.4377 10.5539C20.3205 10.4409 20.1641 10.3777 20.0012 10.3777C19.8384 10.3777 19.682 10.4409 19.5648 10.5539C19.4476 10.667 19.3789 10.8211 19.373 10.9838V14.1142" fill="#E6DAFE"/>
<path d="M22.832 15.3746C22.8434 15.5334 22.9145 15.682 23.0311 15.7905C23.1476 15.8989 23.3009 15.9592 23.4601 15.9592C23.6193 15.9592 23.7726 15.8989 23.8891 15.7905C24.0057 15.682 24.0768 15.5334 24.0882 15.3746V8.60389C24.08 8.44281 24.0103 8.29103 23.8934 8.17992C23.7765 8.0688 23.6214 8.00684 23.4601 8.00684C23.2988 8.00684 23.1437 8.0688 23.0268 8.17992C22.9099 8.29103 22.8402 8.44281 22.832 8.60389V15.3746Z" fill="#E6DAFE"/>
<path d="M26.3213 14.1139C26.3333 14.2724 26.4047 14.4204 26.5212 14.5285C26.6377 14.6366 26.7907 14.6967 26.9496 14.6969C27.1085 14.6968 27.2616 14.6367 27.378 14.5286C27.4945 14.4205 27.5658 14.2724 27.5777 14.1139V10.9838C27.5719 10.8211 27.5031 10.667 27.3859 10.5539C27.2688 10.4409 27.1123 10.3777 26.9495 10.3777C26.7867 10.3777 26.6302 10.4409 26.513 10.5539C26.3959 10.667 26.3271 10.8211 26.3213 10.9838V14.1142" fill="#E6DAFE"/>
<path d="M29.7578 14.1139C29.7669 14.2321 29.809 14.3453 29.8794 14.4406C29.9499 14.5359 30.0457 14.6094 30.156 14.6527C30.2663 14.696 30.3866 14.7073 30.5031 14.6854C30.6195 14.6635 30.7274 14.6092 30.8144 14.5288C30.931 14.4206 31.0024 14.2724 31.0142 14.1139V12.7176C31.0108 12.5533 30.9431 12.3968 30.8257 12.2818C30.7083 12.1667 30.5504 12.1023 30.386 12.1023C30.2216 12.1023 30.0638 12.1667 29.9463 12.2818C29.8289 12.3968 29.7612 12.5533 29.7578 12.7176V14.1139Z" fill="#E6DAFE"/>
</g>
<defs>
<clipPath id="clip0_6_4726">
<rect width="29" height="15.3056" fill="white" transform="translate(2 8)"/>
</clipPath>
</defs>
</svg>
