<svg width="32" height="32" viewBox="0 0 32 32" fill="none" xmlns="http://www.w3.org/2000/svg">
<mask id="mask0_15_230" style="mask-type:luminance" maskUnits="userSpaceOnUse" x="2" y="13" width="28" height="7">
<path d="M2 13H30V19.3002H2V13Z" fill="white"/>
</mask>
<g mask="url(#mask0_15_230)">
<path d="M16.4974 15.8921C16.4974 16.0751 16.3748 16.7144 15.6237 16.717C14.8724 16.7144 14.7499 16.0751 14.7499 15.8921V14.6009C14.7499 14.4179 14.8724 13.779 15.6237 13.7762C16.3748 13.779 16.4974 14.4179 16.4974 14.6009V15.8921ZM17.1781 13.7797C16.9913 13.4193 16.604 13.0118 15.8058 13.0085V13.0082H15.8007H15.7966V13.0085C15.2701 13.0106 14.9217 13.2259 14.6928 13.4502V13.1446C14.6928 13.1142 14.6683 13.0895 14.6377 13.0895H13.9226C13.8922 13.0895 13.8677 13.1142 13.8677 13.1446V19.1351C13.8677 19.1655 13.8922 19.1903 13.9226 19.1903H14.6935C14.7239 19.1903 14.7484 19.1655 14.7484 19.1351V17.0948C14.9781 17.2936 15.3106 17.4826 15.7966 17.4842H15.8007H15.8058C16.604 17.4813 16.9913 17.0737 17.1781 16.7133C17.374 16.3352 17.3821 15.9364 17.3821 15.8557V14.6365C17.3821 14.5565 17.374 14.1575 17.1781 13.7797Z" fill="#E6DAFE"/>
<path d="M6.47563 15.8884C6.47563 16.0715 6.59864 16.7101 7.34978 16.7133C8.10076 16.7101 8.22409 16.0715 8.22409 15.8884V14.5974C8.22409 14.4145 8.10076 13.7747 7.34978 13.7721C6.59864 13.7747 6.47563 14.4145 6.47563 14.5974V15.8884ZM5.59424 14.6366C5.59424 14.5564 5.60306 14.1576 5.81947 13.7795C6.02706 13.4192 6.45783 13.0118 7.34458 13.0086V13.0083H7.34978H7.35403V13.0086C8.2411 13.0118 8.67171 13.4192 8.87867 13.7795C9.09587 14.1576 9.10469 14.5564 9.10469 14.6366V15.8557C9.10469 15.9365 9.09587 16.3353 8.87867 16.7133C8.67171 17.0737 8.2411 17.4813 7.35403 17.4843H7.34978H7.34458C6.45783 17.4813 6.02706 17.0737 5.81947 16.7133C5.60306 16.3353 5.59424 15.9365 5.59424 15.8557V14.6366Z" fill="#E6DAFE"/>
<path d="M13.1994 13.1446C13.1994 13.1148 13.176 13.0894 13.1443 13.0894H12.3747C12.3431 13.0894 12.3196 13.1148 12.3196 13.1446L12.3165 15.8921C12.3165 16.0748 12.1952 16.7138 11.4444 16.7169C10.692 16.7138 10.5693 16.0748 10.5693 15.8921V13.1446C10.5693 13.1148 10.5441 13.0894 10.514 13.0894H9.73954C9.70977 13.0894 9.68457 13.1148 9.68457 13.1446V15.8558C9.68457 15.9363 9.69229 16.3361 9.88917 16.7138C10.0749 17.0743 10.4637 17.4819 11.2617 17.4835H11.2665H11.2697C11.5341 17.4835 11.7513 17.4284 11.9339 17.3466C12.1149 17.2647 12.2598 17.1562 12.3747 17.0428V17.3472C12.3747 17.3776 12.3993 17.4022 12.4297 17.4022H13.1449C13.1753 17.4022 13.1999 17.3776 13.1999 17.3472L13.1994 13.1446Z" fill="#E6DAFE"/>
<path d="M20.4126 15.963C20.4126 16.1347 20.2931 16.7359 19.5618 16.7387C18.8302 16.7359 18.7108 16.1347 18.7108 15.963V15.8931C18.7108 15.7211 18.8302 15.1202 19.5618 15.1177C20.2931 15.1202 20.4126 15.7211 20.4126 15.8931V15.963ZM21.2291 14.5945C21.2286 14.251 21.0571 13.4463 20.2768 13.1262C19.5232 12.8172 18.5311 13.1563 18.2082 13.2873L18.1491 13.3111C18.1209 13.3226 18.1074 13.3549 18.1189 13.3831L18.3389 14.0073C18.3487 14.0342 18.3773 14.0493 18.4044 14.0419C18.4134 14.0396 18.4265 14.0327 18.4302 14.0306C18.7292 13.8794 19.5027 13.6249 19.9784 13.8418C20.4461 14.055 20.4054 14.5529 20.408 14.6061V14.7283C20.1811 14.5631 19.8646 14.4058 19.4176 14.4042H19.4134H19.4096C18.6103 14.4072 18.2236 14.792 18.036 15.1328C17.8409 15.4897 17.8325 15.8665 17.8325 15.9429V15.9443C17.8325 16.0196 17.8409 16.3969 18.036 16.7539C18.2236 17.0944 18.6103 17.479 19.4096 17.4825H19.4134H19.4176C19.8831 17.4807 20.2072 17.3133 20.4354 17.1366V17.3472C20.4354 17.3774 20.46 17.4023 20.4904 17.4023H21.174C21.2044 17.4023 21.2291 17.3774 21.2291 17.3472L21.2299 14.6238C21.2299 14.6138 21.2299 14.6042 21.2291 14.5945Z" fill="#E6DAFE"/>
<path d="M28.6336 14.6076C28.6336 14.7755 28.5109 15.3862 27.7596 15.3888C27.0078 15.3862 26.8856 14.7755 26.8856 14.6076V14.5527C26.8856 14.3843 27.0078 13.7735 27.7596 13.771C28.5109 13.7735 28.6336 14.3843 28.6336 14.5527V14.6076ZM29.9418 13.0293C29.4895 13.0165 29.1962 13.2033 29.0075 13.4093C28.7538 13.1885 28.3628 13.0105 27.765 13.0086V13.0083H27.7596H27.7549V13.0086C26.8683 13.0118 26.4377 13.3996 26.2298 13.7436C26.0137 14.1046 26.0039 14.4845 26.0039 14.5608V14.6024C26.0039 14.6794 26.0137 15.0597 26.2306 15.4196C26.323 15.5739 26.4613 15.7363 26.665 15.8697C26.3312 16.0615 26.0365 16.4005 26.0365 17.0124L26.0364 17.3419C26.0364 17.3725 26.0611 17.397 26.0915 17.397L28.6315 17.3969C28.9366 17.3969 29.0904 17.5978 29.1335 17.7869C29.1872 18.0237 29.0962 18.3441 28.7002 18.5615L28.6738 18.5767C28.6479 18.5917 28.6386 18.6246 28.653 18.6509L28.9925 19.2715C29.0074 19.2986 29.0415 19.3082 29.0683 19.2929C29.0683 19.2929 29.2436 19.1856 29.3003 19.1475C29.3575 19.1091 29.4077 19.0648 29.4551 19.0206C29.8908 18.6141 29.9818 18.0546 29.8839 17.6182C29.7509 17.0258 29.248 16.6697 28.6315 16.6697H26.8795C26.9759 16.1403 27.5934 16.1502 27.6675 16.1532C27.6675 16.1532 27.7631 16.1546 27.765 16.1546C28.6514 16.152 29.0815 15.7637 29.289 15.4196C29.5055 15.0597 29.5153 14.6794 29.5153 14.6024V14.5608C29.5153 14.4955 29.5077 14.2142 29.3743 13.9105C29.4904 13.83 29.6711 13.7555 29.9365 13.7697L29.9432 13.7699C29.9738 13.7703 29.9988 13.7461 29.9995 13.7157L30.0003 13.0942V13.0939V13.091C30.0003 13.0581 29.9787 13.0293 29.9418 13.0293Z" fill="#E6DAFE"/>
<path d="M5.30365 16.5551L4.62134 16.2136C4.59409 16.2 4.56102 16.2111 4.54747 16.2383L4.54275 16.2476L4.54243 16.2478C4.43675 16.4739 4.21325 16.7113 3.7557 16.7133C3.00472 16.7099 2.88155 16.0715 2.88155 15.8885V14.5973C2.88155 14.4146 3.00472 13.7749 3.7557 13.7721C4.21971 13.774 4.44273 14.0181 4.54669 14.2479C4.55551 14.2708 4.57756 14.2876 4.60433 14.2876C4.6141 14.2876 4.62276 14.2846 4.6319 14.2802C4.63253 14.2805 5.30066 13.9317 5.30066 13.9317C5.32759 13.9176 5.33814 13.8844 5.32397 13.8573L5.32334 13.8561L5.32318 13.8554C5.31121 13.8302 5.29908 13.805 5.28459 13.7797C5.07748 13.4193 4.64686 13.0118 3.75979 13.0085V13.0082H3.75491H3.75019V13.0085C2.86391 13.0118 2.43298 13.4193 2.22618 13.7797C2.00882 14.1575 2 14.5565 2 14.6365V15.8557C2 15.9364 2.00882 16.3352 2.22618 16.7133C2.43298 17.0737 2.86391 17.4813 3.75019 17.4842H3.75979C4.64686 17.4813 5.07748 17.0737 5.28459 16.7133C5.28554 16.7119 5.32791 16.6291 5.32791 16.6291C5.34161 16.6018 5.33074 16.5688 5.30365 16.5551Z" fill="#E6DAFE"/>
<path d="M25.2239 13.7767C25.0365 13.4162 24.649 13.009 23.8505 13.0062V13.0056C23.8491 13.0056 23.8484 13.0062 23.8454 13.0062C23.845 13.0062 23.8436 13.0056 23.8415 13.0056V13.0062C23.3165 13.0076 22.97 13.2217 22.7407 13.4441L22.7412 13.1445C22.7412 13.1143 22.7166 13.0895 22.6862 13.0895H21.9711C21.9406 13.0895 21.916 13.1143 21.916 13.1445V17.347C21.916 17.3774 21.9406 17.4023 21.9711 17.4023H22.7413C22.7719 17.4023 22.7965 17.3774 22.7965 17.347V14.5532C22.8149 14.3292 22.9691 13.7756 23.6683 13.7729C24.42 13.7758 24.5424 14.4151 24.5424 14.5981V17.347C24.5424 17.3774 24.5671 17.4023 24.5975 17.4023H25.3715C25.4021 17.4023 25.4266 17.3774 25.4266 17.347V14.6342C25.4266 14.5537 25.4191 14.1549 25.2239 13.7767Z" fill="#E6DAFE"/>
</g>
</svg>
