<svg width="32" height="32" viewBox="0 0 32 32" fill="none" xmlns="http://www.w3.org/2000/svg">
<path fill-rule="evenodd" clip-rule="evenodd" d="M28.2783 16.9208H29.38V13H28.2783V16.9208Z" fill="#E6DAFE"/>
<path fill-rule="evenodd" clip-rule="evenodd" d="M31 13V16.9208H29.8984V13H31Z" fill="#E6DAFE"/>
<path fill-rule="evenodd" clip-rule="evenodd" d="M4.34906 14.5228H3.45805V13H2V16.9208H3.45805V14.9767H4.34906V16.9208H5.80726V13H4.34906V14.5228Z" fill="#E6DAFE"/>
<path fill-rule="evenodd" clip-rule="evenodd" d="M11.1941 14.458L11.105 14.1989H9.90606V16.9208H11.105V15.2844C11.105 14.9279 11.3319 14.7336 11.5262 14.7336C11.6882 14.7336 11.8988 14.7659 11.8988 15.1224V16.9208H13.0977V15.1549C13.0977 14.1665 11.9881 13.7778 11.1941 14.458Z" fill="#E6DAFE"/>
<path fill-rule="evenodd" clip-rule="evenodd" d="M23.5071 15.7785L22.9482 14.1989H22.13L21.571 15.8433L20.9877 14.1989H19.3839L18.8086 15.584L17.9986 14.1989H16.6296L18.2416 16.9532L18.031 17.4715C17.958 17.6336 17.7835 17.6416 17.7493 17.4877C17.7493 17.2093 17.5236 16.9838 17.2452 16.9838C16.9668 16.9838 16.7411 17.2093 16.7411 17.4877C16.7431 17.7794 17.0347 18.1601 17.6097 18.1357C18.185 18.1115 18.4279 17.6336 18.5089 17.4311L19.8412 14.2095L20.8015 16.9208H21.6763L22.2109 15.3572L22.7618 16.9208H23.588L24.5196 14.1989H24.0417L23.5071 15.7785Z" fill="#E6DAFE"/>
<path fill-rule="evenodd" clip-rule="evenodd" d="M7.87277 14.0605C6.95544 14.0605 6.2119 14.7426 6.2119 15.584C6.2119 16.4257 6.95544 17.1078 7.87277 17.1078C8.79028 17.1078 9.53399 16.4257 9.53399 15.584C9.53399 14.7426 8.79028 14.0605 7.87277 14.0605ZM8.28604 16.2968C8.28604 16.5251 8.10105 16.7101 7.87277 16.7101C7.64481 16.7101 7.45982 16.5251 7.45982 16.2968V14.8713C7.45982 14.6432 7.64481 14.4584 7.87277 14.4584C8.10105 14.4584 8.28604 14.6432 8.28604 14.8713V16.2968Z" fill="#E6DAFE"/>
<path fill-rule="evenodd" clip-rule="evenodd" d="M16.7627 15.8027C16.7714 15.739 16.7759 15.65 16.7759 15.584C16.7759 14.7426 16.0323 14.0605 15.1149 14.0605C14.1974 14.0605 13.4537 14.7426 13.4537 15.584C13.4537 16.4257 14.1974 17.1078 15.1149 17.1078C15.7452 17.1078 16.2935 16.7856 16.5751 16.3111L16.2081 16.1753C15.9864 16.5142 15.5798 16.7411 15.1149 16.7411C14.8866 16.7411 14.7017 16.5251 14.7017 16.2968V15.8029L16.7627 15.8027ZM14.7017 14.8713C14.7017 14.6432 14.8866 14.4584 15.1149 14.4584C15.343 14.4584 15.528 14.6432 15.528 14.8713V15.414H14.7017V14.8713Z" fill="#E6DAFE"/>
<path fill-rule="evenodd" clip-rule="evenodd" d="M27.8603 15.8027C27.8693 15.739 27.8738 15.65 27.8738 15.584C27.8738 14.7426 27.1301 14.0605 26.2126 14.0605C25.2952 14.0605 24.5516 14.7426 24.5516 15.584C24.5516 16.4257 25.2952 17.1078 26.2126 17.1078C26.8431 17.1078 27.3914 16.7856 27.6729 16.3111L27.306 16.1753C27.0842 16.5142 26.6776 16.7411 26.2126 16.7411C25.9844 16.7411 25.7995 16.5251 25.7995 16.2968V15.8029L27.8603 15.8027ZM25.7995 14.8713C25.7995 14.6432 25.9844 14.4584 26.2126 14.4584C26.4409 14.4584 26.6259 14.6432 26.6259 14.8713V15.414H25.7995V14.8713Z" fill="#E6DAFE"/>
</svg>
