<svg width="32" height="32" viewBox="0 0 32 32" fill="none" xmlns="http://www.w3.org/2000/svg">
<g clip-path="url(#clip0_6_4617)">
<path d="M18.6919 12.8756C18.6919 11.511 19.6157 10.1876 20.1197 10.4369C20.6942 10.7249 19.6891 12.0101 18.6919 12.8756ZM12.4103 13.3727C12.4103 12.2756 13.4927 10.191 14.154 10.4114C14.9357 10.672 13.5064 12.7747 12.4103 13.3727ZM11.3127 21.2193C10.815 21.2418 10.482 20.9234 10.482 20.392C10.482 18.9642 12.4632 17.6002 13.9595 16.8679C13.694 18.8614 13.0206 21.1424 11.3127 21.2193ZM20.4532 16.5667C19.3233 16.5667 18.4598 17.3979 18.4598 18.3946C18.4598 19.2258 18.9593 19.8904 19.622 19.8904C19.8567 19.8904 20.0888 19.7567 20.0888 19.4599C20.0888 19.0255 19.5158 18.9211 19.5589 18.2751C19.5878 17.849 19.9894 17.5639 20.3881 17.5639C21.185 17.5639 21.5577 18.3363 21.5577 19.1332C21.5254 20.3641 20.6193 21.2188 19.5574 21.2188C18.1605 21.2188 17.2632 19.8904 17.2632 18.4607C17.2632 16.3321 18.6601 15.5014 19.3918 15.303C19.3987 15.303 21.303 15.6415 21.2438 14.802C21.2163 14.4327 20.6673 14.2906 20.2705 14.2754C19.8292 14.2583 19.3835 14.417 19.3835 14.417C19.1523 14.2994 18.9917 14.0697 18.8922 13.8052C20.2553 12.7737 21.2193 11.7775 21.2193 10.647C21.2193 10.049 20.8196 9.51706 20.055 9.51706C18.6919 9.51706 17.6614 11.2456 17.6614 12.808C17.6614 13.073 17.6614 13.3399 17.73 13.5721C16.865 14.2029 16.2219 14.5962 15.0596 15.2942C15.0596 15.1487 15.09 14.7731 15.1879 14.2872C15.5861 13.8547 16.1332 13.2067 16.1332 12.7076C16.1332 12.4754 16.0015 12.2751 15.7331 12.2751C15.0694 12.2751 14.5718 13.2733 14.4385 13.9713C14.1393 14.3386 13.5407 14.8039 13.0411 14.8039C12.6429 14.8039 12.5092 14.438 12.4754 14.3043C13.7391 13.8718 15.3016 12.1433 15.3016 10.5809C15.3016 10.2493 15.1683 9.51706 14.1716 9.51706C12.6758 9.51706 11.414 11.7451 11.414 13.4717C10.8807 13.4717 10.6823 12.9074 10.6823 12.4749C10.6823 12.0424 10.8483 11.6114 10.8483 11.4777C10.8483 11.344 10.7817 11.1789 10.5814 11.1789C10.0838 11.1789 9.78449 11.8436 9.78449 12.6082C9.81878 13.672 10.5162 14.3386 11.4464 14.4038C11.5796 15.0361 12.1438 15.6346 12.8413 15.6346C13.2743 15.6346 13.8057 15.5014 14.1716 15.1698C14.1393 15.402 14.1069 15.6023 14.0727 15.8007C12.6091 16.5667 11.5453 17.0981 10.5814 17.9621C9.81878 18.6611 9.38629 19.5912 9.38629 20.3215C9.38629 21.3202 10.0171 22.2503 11.3131 22.2503C12.8413 22.2503 14.006 21.0209 14.5718 19.3247C14.8367 18.5278 14.943 17.367 15.0111 16.3017C16.5383 15.4362 17.2632 14.9376 18.0616 14.3714C18.161 14.5375 18.2614 14.6702 18.3931 14.7696C17.6957 15.1355 16.0338 16.1665 16.0338 18.5925C16.0338 20.321 17.1961 22.2498 19.4913 22.2498C21.3858 22.2498 22.6818 20.6869 22.6818 19.1905C22.6813 17.8289 21.9167 16.5667 20.4532 16.5667ZM26.1687 19.4222C26.1638 19.4325 26.1451 19.4462 26.1074 19.434C26.078 19.4237 26.0717 19.41 26.0717 19.3909C26.0731 19.3722 26.4733 18.1889 26.4699 16.8331C26.4664 15.3677 25.8718 14.4699 25.1092 14.4699C24.6424 14.4699 24.3104 14.8034 24.3104 15.303C24.3104 16.2003 25.4065 16.2674 25.4065 18.2281C25.4065 19.025 25.2405 19.7896 24.976 20.6202C23.7447 24.7747 19.8224 26.7035 16.0015 26.7035C14.2387 26.7035 12.9868 26.3411 12.6145 26.174C12.5993 26.1652 12.5851 26.1363 12.5974 26.1069C12.6057 26.0849 12.6317 26.0678 12.6469 26.0746C12.7977 26.1329 13.8728 26.4713 15.2031 26.4713C16.6651 26.4713 17.5301 25.8733 17.5301 25.1411C17.5301 24.6762 17.1642 24.3104 16.6994 24.3104C15.8016 24.3104 15.7336 25.4403 13.8062 25.4403C12.9755 25.4403 12.2438 25.2743 11.3802 25.0073C7.25714 23.7447 5.29453 19.8567 5.296 16.001C5.29747 14.1221 5.82449 12.6258 5.83282 12.6121C5.83967 12.6023 5.86318 12.5915 5.89208 12.6023C5.92147 12.6121 5.92784 12.6361 5.92637 12.6449C5.87886 12.8007 5.52963 13.8728 5.52963 15.2031C5.52963 16.6666 6.12767 17.5301 6.89224 17.5301C7.32327 17.5301 7.68914 17.1985 7.68914 16.7332C7.68914 15.8344 6.59151 15.735 6.59151 13.8067C6.59151 12.9755 6.75902 12.2438 7.024 11.3802C8.28767 7.25812 12.1776 5.32637 16.0005 5.29649C17.777 5.28278 19.3311 5.81469 19.3909 5.8622C19.4011 5.87102 19.4114 5.89355 19.4011 5.92049C19.3869 5.95282 19.3664 5.95624 19.3566 5.95429C19.338 5.95282 18.327 5.53012 16.7969 5.53012C15.3677 5.52865 14.4699 6.12718 14.4699 6.89273C14.4699 7.32376 14.8034 7.68963 15.3006 7.68963C16.1984 7.68963 16.265 6.59347 18.1938 6.59347C19.0225 6.59347 19.7548 6.75755 20.6183 7.02449C24.7747 8.28767 26.6658 12.21 26.7016 16.0005C26.7211 17.9416 26.174 19.41 26.1687 19.4222ZM16.001 4.56571C9.68506 4.56571 4.5662 9.6831 4.5662 16.0005C4.5662 22.3179 9.68506 27.4338 16.001 27.4338C22.3169 27.4338 27.4343 22.3164 27.4343 16.0005C27.4343 9.68457 22.3154 4.56571 16.001 4.56571ZM16.001 28C9.3858 28 4 22.6485 4 16.001C4 9.35347 9.3858 4 16.001 4C22.6162 4 28 9.38384 28 16.001C28 22.6181 22.6142 28 16.001 28Z" fill="#E6DAFE"/>
</g>
<defs>
<clipPath id="clip0_6_4617">
<rect width="24" height="24" fill="white" transform="translate(4 4)"/>
</clipPath>
</defs>
</svg>
