<svg width="32" height="32" viewBox="0 0 32 32" fill="none" xmlns="http://www.w3.org/2000/svg">
<path d="M10.8713 21.5026C11.4193 20.993 11.5136 20.3631 11.5136 19.7973V17.4223H8.5347V20.6444C8.5347 21.1069 8.19941 21.4802 7.78575 21.4802C7.37241 21.4802 7.06411 21.1069 7.06411 20.6444V11.5142C7.06411 11.0534 7.37208 10.6794 7.78575 10.6794C8.19941 10.6794 8.5347 11.0534 8.5347 11.5142V14.7585H11.5094V11.3929C11.5094 9.53368 10.418 8.00358 7.76071 8C5.03156 8 4 9.53726 4 11.3965V20.9306C4 22.7729 5.31417 24.1671 6.99452 24.1671H7.91713L10.8713 21.5026Z" fill="#E6DAFE"/>
<path d="M22.6126 21.8773V11.3994H20.5566V8.31348H27.9964V11.3994H25.9307V24.1488H25.0487L22.6126 21.8773Z" fill="#E6DAFE"/>
<path d="M23.9455 24.1716L16.7001 17.4109L9.19238 24.1716H23.9455Z" fill="#E6DAFE"/>
<path d="M15.8991 15.5893L16.7011 11.0243L17.4988 15.5893H15.8991ZM18.7671 8.32935H14.6171L12.1992 20.4102L16.7021 16.3626L21.3961 20.7435L18.7671 8.32935Z" fill="#E6DAFE"/>
</svg>
