<svg width="32" height="32" viewBox="0 0 32 32" fill="none" xmlns="http://www.w3.org/2000/svg">
<path fill-rule="evenodd" clip-rule="evenodd" d="M6.18373 9.4383C6.28636 9.4383 6.38791 9.4454 6.48672 9.45905C7.04193 9.46233 7.59496 9.67578 8.01806 10.0989L13.4031 15.4834L24.2475 4.63956C25.1003 3.78681 26.4831 3.78681 27.3359 4.63956C28.1602 5.46392 28.1875 6.78344 27.4183 7.64055L27.3364 7.7279L13.4031 21.6601L8.36746 16.625V25.8163C8.36746 27.0228 7.39024 28 6.18373 28C4.97722 28 4 27.0228 4 25.8163V11.622C4 10.4155 4.97722 9.4383 6.18373 9.4383ZM20.378 23.6325C21.5845 23.6325 22.5617 24.6098 22.5617 25.8163C22.5617 27.0228 21.5845 28 20.378 28C19.1715 28 18.1942 27.0228 18.1942 25.8163C18.1942 24.6098 19.1715 23.6325 20.378 23.6325ZM20.378 18.1732C21.5845 18.1732 22.5617 19.1504 22.5617 20.3569C22.5617 21.5635 21.5845 22.5407 20.378 22.5407C19.1715 22.5407 18.1942 21.5635 18.1942 20.3569C18.1942 19.1504 19.1715 18.1732 20.378 18.1732Z" fill="#E6DAFE"/>
</svg>
