<svg width="32" height="32" viewBox="0 0 32 32" fill="none" xmlns="http://www.w3.org/2000/svg">
<path d="M28 16C28 9.38383 22.6173 4 16 4C9.3827 4 4 9.3827 4 16C4 22.6173 9.3827 28 16 28C22.6173 28 28 22.6173 28 16ZM14.9797 4.72893L5.94512 21.1873C5.11338 19.5848 4.67976 17.8055 4.68093 16C4.68093 10.1027 9.21525 5.24744 14.9797 4.73005V4.72893ZM15.6584 15.7996L6.90233 20.8558L15.6584 4.90698V15.7996ZM15.6584 27.3085C13.7882 27.2516 11.9613 26.732 10.3411 25.7962C8.72093 24.8604 7.35802 23.5374 6.37433 21.9459L15.6584 16.5877V27.3085ZM18.6874 10.1222C18.6846 11.1072 18.474 12.0804 18.0694 12.9784C17.6648 13.8764 17.0752 14.6789 16.3394 15.3336V4.90977C17.0805 5.56037 17.6735 6.36226 18.0786 7.26141C18.4836 8.16055 18.6912 9.13608 18.6874 10.1222ZM25.6212 10.048L18.0305 14.4294C18.8972 13.1599 19.3625 11.6593 19.3662 10.1222C19.3699 9.12311 19.1761 8.1331 18.7957 7.20921C18.4153 6.28531 17.856 5.44579 17.1498 4.73898C18.8734 4.91758 20.5331 5.48902 22.0013 6.40939C23.4695 7.32975 24.7071 8.57452 25.619 10.048H25.6212ZM25.9634 21.3621L16.677 16L25.9634 10.6363C26.8521 12.2841 27.3174 14.1269 27.3174 15.9992C27.3174 17.8714 26.8521 19.7142 25.9634 21.3621ZM25.6206 21.9503C24.6366 23.5407 23.2739 24.8624 21.6543 25.7974C20.0347 26.7324 18.2086 27.2516 16.3394 27.3085V16.5888L25.6206 21.9503Z" fill="#E6DAFE"/>
</svg>
