<svg width="32" height="32" viewBox="0 0 32 32" fill="none" xmlns="http://www.w3.org/2000/svg">
<path d="M5.18217 19.4457C5.1376 19.5523 5.10271 19.6143 5.01356 19.6143C4.92442 19.6143 4.88953 19.5523 4.84496 19.4457L2.62015 14.064C2.38953 13.5058 2 13.7364 2 13.5407C2 13.4884 2.03488 13.4438 2.10659 13.4438C2.57558 13.4438 3.04651 13.4612 3.5155 13.4612C3.98449 13.4612 4.42054 13.4438 4.87209 13.4438C5.00581 13.4438 5.06783 13.4612 5.06783 13.5329C5.06783 13.7015 4.52713 13.6047 4.52713 14.0291C4.52713 14.1977 4.6686 14.5601 5.76744 17.3353H5.78488C6.5562 15.376 6.84883 14.7907 6.84883 14.3837C6.84883 13.4981 6.08721 13.7713 6.08721 13.5407C6.08721 13.469 6.12209 13.4438 6.23837 13.4438C6.54845 13.4438 6.91279 13.4612 7.14341 13.4612C7.55038 13.4612 7.82558 13.4438 8.1279 13.4438C8.20736 13.4438 8.26938 13.4612 8.26938 13.5155C8.26938 13.7461 7.62209 13.4806 7.11628 14.7209L5.18411 19.4457H5.18217ZM9.25193 15.9515C9.25193 15.6686 9.16279 15.5872 8.98643 15.5872C8.70348 15.5872 8.49031 15.7384 8.49031 16.0039C8.49031 16.2074 8.52519 16.4302 8.52519 16.6415C8.52519 17.0407 8.25 17.3236 7.77131 17.3236C7.29263 17.3236 7.08914 17.1105 7.08914 16.7829C7.08914 16.0736 8.39341 15.374 9.54457 15.374C10.5194 15.374 10.8663 15.7733 10.8663 16.4903V18.876C10.8663 18.9826 10.9205 19.0446 11.0174 19.0446C11.2577 19.0446 11.2926 18.7248 11.4244 18.7248C11.469 18.7248 11.5039 18.7694 11.5039 18.8043C11.5039 18.8934 11.2015 19.5407 10.2539 19.5407C9.67829 19.5407 9.42054 19.3275 9.31395 18.9729C8.83527 19.3546 8.4186 19.5407 7.9748 19.5407C7.23062 19.5407 6.92829 19.1163 6.92829 18.7345C6.92829 18.0426 7.44186 17.8295 9.25193 17.1919V15.9515ZM9.25193 17.3798C8.70155 17.6008 8.54263 17.8585 8.54263 18.2577C8.54263 18.843 8.67635 18.9942 8.90697 18.9942C9.05814 18.9942 9.17248 18.8876 9.25193 18.8081V17.3798ZM21.2849 15.376C22.4205 15.376 23.0504 16.1376 23.0504 16.7151C23.0504 17.2209 22.7481 17.4515 22.3585 17.4515C21.9942 17.4515 21.6841 17.1938 21.6841 16.7151C21.6841 16.4322 21.7384 16.1395 21.7384 15.9612C21.7384 15.6686 21.5601 15.5349 21.2946 15.5349C20.8701 15.5349 20.5329 16.1027 20.5329 16.7752C20.5329 17.9632 21.2422 18.5833 21.9167 18.5833C22.8217 18.5833 22.7771 18.0077 22.9709 18.0077C23.0329 18.0077 23.0504 18.0426 23.0504 18.0969C23.0504 18.3275 22.5174 19.5426 21.0639 19.5426C20.1066 19.5426 19.095 18.843 19.095 17.5484C19.095 16.2539 20.1763 15.376 21.2849 15.376ZM25.2306 18.9496C25.2306 19.3837 25.7442 19.2151 25.7442 19.4012C25.7442 19.4457 25.7267 19.4903 25.6473 19.4903C25.3101 19.4903 24.9283 19.4729 24.4767 19.4729C24.0252 19.4729 23.6434 19.4903 23.3062 19.4903C23.2267 19.4903 23.2093 19.4457 23.2093 19.4012C23.2093 19.2151 23.7229 19.3837 23.7229 18.9496V14.0465C23.7229 13.6027 23.1725 13.719 23.1725 13.5504C23.1725 13.3469 23.7054 13.5775 25.2287 13V18.9496H25.2306ZM25.531 17.3081C26.3294 16.626 26.5232 16.4477 26.5232 16.1473C26.5232 15.5349 26.0097 15.7035 26.0097 15.5097C26.0097 15.4477 26.0542 15.4302 26.1337 15.4302C26.3023 15.4302 26.6667 15.4477 27.0291 15.4477C27.4632 15.4477 27.7732 15.4302 27.9515 15.4302C28.0581 15.4302 28.093 15.4651 28.093 15.5194C28.093 15.6957 27.4806 15.5097 26.6124 16.4767L28.031 18.9593C28.2868 19.4031 28.6163 19.1996 28.6163 19.4031C28.6163 19.4748 28.5717 19.4922 28.3953 19.4922C28.0504 19.4922 27.6957 19.4748 27.2791 19.4748C26.9147 19.4748 26.5601 19.4922 26.1977 19.4922C26.1085 19.4922 26.0562 19.4748 26.0562 19.3953C26.0562 19.2539 26.3585 19.3411 26.3585 19.0853C26.3585 18.9515 26.2694 18.7926 26.1899 18.6337L25.5329 17.312L25.531 17.3081ZM18.6589 14.8372C18.6783 14.8915 18.7558 14.876 18.7558 14.8198L18.7442 13.4729C18.7442 13.4729 18.7442 13.4671 18.7422 13.4612C18.7364 13.4516 18.7267 13.4438 18.7151 13.4438C17.6337 13.4535 16.5446 13.4612 15.4108 13.4612C14.7636 13.4612 14.2577 13.4438 13.9128 13.4438C13.8159 13.4438 13.7791 13.4709 13.7791 13.5504C13.7791 13.8333 14.5232 13.4961 14.5232 14.1182V14.8023C14.5232 14.8585 14.5775 14.8973 14.6298 14.8779C14.7849 14.8198 14.9515 14.7888 15.126 14.7888C15.5271 14.7888 15.8915 14.9574 16.1608 15.2287C16.2112 15.2791 16.2984 15.2422 16.2984 15.1705V13.7384C16.2984 13.6938 16.3353 13.655 16.3818 13.657C16.7926 13.6705 17.3605 13.7364 17.7074 13.907C18.031 14.0659 18.2267 14.1609 18.4089 14.3818C18.5465 14.5484 18.6163 14.7132 18.6608 14.8353L18.6589 14.8372ZM14.3411 19.4903C14.2616 19.4903 14.2442 19.4457 14.2442 19.4012C14.2442 19.2151 14.688 19.3837 14.688 18.9496V16.4593C14.688 16.0698 14.4845 15.9283 14.2713 15.9283C14.0407 15.9283 13.7926 16.0969 13.6066 16.2733V18.9515C13.6066 19.3857 14.0504 19.2171 14.0504 19.4031C14.0504 19.4477 14.0329 19.4922 13.9535 19.4922C13.688 19.4922 13.3062 19.4748 12.8546 19.4748C12.4031 19.4748 12.0213 19.4922 11.6841 19.4922C11.6046 19.4922 11.5872 19.4477 11.5872 19.4031C11.5872 19.2171 12.1008 19.3857 12.1008 18.9515V16.4167C12.1008 15.814 11.5155 15.9205 11.5155 15.7519C11.5155 15.6105 12.0736 15.7694 13.6085 15.3798V15.9922C14.2287 15.5136 14.5833 15.3798 15.0717 15.3798C15.9574 15.3798 16.1977 15.9302 16.1977 16.7015V18.9535C16.1977 19.1841 16.343 19.2442 16.4787 19.2791C16.8527 19.3043 17.3314 19.1802 17.6318 19.0329C17.9554 18.8721 18.1492 18.7752 18.3314 18.5543C18.469 18.3857 18.5387 18.2229 18.5814 18.0988C18.6008 18.0446 18.6783 18.0601 18.6783 18.1163L18.6725 19.4632C18.6725 19.4632 18.6725 19.469 18.6705 19.4748C18.6647 19.4845 18.655 19.4922 18.6434 19.4922H14.345V19.4942L14.3411 19.4903Z" fill="#E6DAFE"/>
<path d="M17.6434 17.314C17.6589 17.4225 17.6589 17.5233 17.7481 17.5233C17.7965 17.5233 17.8275 17.5097 17.8275 17.436V15.2248C17.8275 15.1512 17.7946 15.1376 17.7481 15.1376C17.6609 15.1376 17.6609 15.2384 17.6434 15.3469C17.5814 15.7519 17.1919 16.0969 16.6647 16.1861C16.6454 16.1899 16.6357 16.2054 16.6376 16.2229C16.6434 16.2888 16.6473 16.314 16.6531 16.3663C16.6531 16.3779 16.6647 16.3895 16.6802 16.3915C17.1861 16.4884 17.5698 16.8353 17.6434 17.3159V17.314Z" fill="#E6DAFE"/>
<path d="M28.6163 14.1337C28.6163 13.75 28.9205 13.4438 29.3081 13.4438C29.6957 13.4438 30 13.75 30 14.1337C30 14.5174 29.6938 14.8236 29.3081 14.8236C28.9225 14.8236 28.6163 14.5194 28.6163 14.1337ZM28.7287 14.1337C28.7287 14.4593 28.9923 14.7112 29.3081 14.7112C29.624 14.7112 29.8876 14.4593 29.8876 14.1337C29.8876 13.8081 29.624 13.5562 29.3081 13.5562C28.9923 13.5562 28.7287 13.8062 28.7287 14.1337ZM29.624 14.5252H29.4961L29.2985 14.1667H29.155V14.5252H29.0426V13.75H29.3682C29.5097 13.75 29.6357 13.7926 29.6357 13.9554C29.6357 14.1085 29.5329 14.1647 29.4283 14.1667L29.624 14.5252ZM29.1531 13.8624V14.0562H29.2733C29.3779 14.0562 29.5233 14.0737 29.5233 13.969C29.5233 13.8702 29.4399 13.8643 29.3469 13.8643H29.155L29.1531 13.8624Z" fill="#E6DAFE"/>
</svg>
