<svg width="32" height="32" viewBox="0 0 32 32" fill="none" xmlns="http://www.w3.org/2000/svg">
<g clip-path="url(#clip0_6_4041)">
<path d="M15.1706 24.4607C14.9945 23.6642 14.9091 22.8504 14.9173 22.0344C14.9271 21.2184 15.0282 20.4062 15.2215 19.6126C15.4156 18.8206 15.6989 18.0518 16.066 17.3242C16.4347 16.5951 16.885 15.911 17.4073 15.2853C17.8704 15.5273 18.3147 15.8031 18.7373 16.1088C19.1607 16.4153 19.5609 16.7502 19.9363 17.1136C20.3109 17.4778 20.6609 17.8667 20.9793 18.2788C21.2985 18.6925 21.5885 19.1286 21.8448 19.5819C21.8725 19.4822 21.898 19.3818 21.922 19.2807C21.9459 19.1795 21.9662 19.0776 21.9842 18.9764C22.0036 18.8738 22.0201 18.7711 22.0351 18.6685C22.0493 18.5658 22.0613 18.4632 22.0718 18.3605C22.2179 17.0642 22.2224 15.7581 22.0861 14.461C21.9497 13.1647 21.6724 11.8871 21.2588 10.6515C20.8467 9.41437 20.3004 8.22669 19.632 7.10796C18.9621 5.98922 18.1739 4.94766 17.2777 3.99902C9.75524 8.22744 9.08535 16.8132 9.08535 16.8132C8.94448 17.7011 8.97819 18.6078 9.18501 19.483C9.39182 20.3582 9.76648 21.1847 10.291 21.916C10.8148 22.6466 11.4772 23.2686 12.2385 23.7444C13.0013 24.2217 13.851 24.5454 14.7367 24.6983H15.2305C15.2305 24.6196 15.2305 24.5409 15.1713 24.4607H15.1706Z" fill="#E6DAFE"/>
<path d="M23.1281 22.7272C23.0606 22.4514 22.9842 22.1787 22.8973 21.9082C22.8096 21.6376 22.7122 21.3709 22.6043 21.1071C22.4971 20.8441 22.3802 20.5856 22.2536 20.3316C22.1277 20.0776 21.9921 19.828 21.8467 19.583C21.6639 20.3136 21.3597 21.0097 20.946 21.6406C20.5339 22.2708 20.0184 22.8283 19.4204 23.2884C18.824 23.75 18.1541 24.1074 17.4392 24.3479C16.7244 24.587 15.9743 24.7069 15.2197 24.6986C15.3381 25.2209 15.5547 25.7177 15.8574 26.1605C16.1601 26.6026 16.5453 26.984 16.9904 27.2823C17.434 27.582 17.933 27.7933 18.4583 27.9057C18.9821 28.0196 19.5223 28.0309 20.0528 27.9409C20.6006 27.8076 21.1169 27.5678 21.5725 27.2313C22.0258 26.8949 22.4072 26.4715 22.6942 25.9845C22.9812 25.4989 23.167 24.9601 23.242 24.4011C23.3154 23.8421 23.2787 23.2727 23.1281 22.7279V22.7272Z" fill="#E6DAFE"/>
</g>
<defs>
<clipPath id="clip0_6_4041">
<rect width="14.2783" height="24" fill="white" transform="translate(9 4)"/>
</clipPath>
</defs>
</svg>
