<svg width="32" height="32" viewBox="0 0 32 32" fill="none" xmlns="http://www.w3.org/2000/svg">
<path d="M6 4L19.2007 4.03304L19.7653 4.17445C22.5028 4.86008 24.5106 6.60856 25.4931 9.16244C25.7296 9.77722 25.9466 10.7733 25.9864 11.4274L26.0189 11.9609H22.0302L21.9992 11.7055C21.8961 10.8568 21.6284 10.1806 21.1487 9.55714C20.6688 8.93356 19.9469 8.42798 19.1469 8.15537L18.7168 8.00877L10.0328 7.97826V24.0055H14.0118V27.9846H6V4Z" fill="#E6DAFE"/>
<path d="M17.0227 24.0219L17.7352 23.9857C18.127 23.9658 18.6009 23.9135 18.7881 23.8696C19.9375 23.5998 21.0507 22.7208 21.569 21.6737C22.0026 20.7978 21.987 20.9359 22.0095 17.7816L22.0295 14.9721H26.0089L25.9683 21.0751L25.8292 21.6396C25.4382 23.2264 24.7597 24.4404 23.6359 25.5643C22.7237 26.4765 21.7158 27.1114 20.5263 27.5231C19.6381 27.8305 19.0534 27.9326 17.9772 27.9683L17.0227 28V24.0219Z" fill="#E6DAFE"/>
</svg>
