<svg width="32" height="32" viewBox="0 0 32 32" fill="none" xmlns="http://www.w3.org/2000/svg">
<path d="M16.2617 3L5 9.5025V22.4875L16.2617 28.99L27.5233 22.4875V9.5025L16.2617 3ZM15.6104 21.1449H7.27437L11.4324 13.9611L15.6104 16.3857V21.1449ZM16.2617 15.2636L12.0836 12.8389L16.2617 5.58497L20.4397 12.8389L16.2617 15.2636ZM21.0709 13.9611L25.2289 21.1449H16.8929V16.3657L21.0709 13.9611ZM17.5141 5.20424L25.5696 9.8632L21.5418 12.1877L17.5141 5.20424ZM10.9615 12.2077L6.9237 9.85318L14.9892 5.20424L10.9615 12.2077ZM10.3102 13.3098L6.28247 20.2933V10.9854L10.3102 13.3098ZM15.6104 22.4173V27.1264L7.45472 22.4173H15.6104ZM16.8929 22.4173H25.0486L16.8929 27.1464V22.4173ZM22.1931 13.3098L26.2208 10.9854V20.2933L22.1931 13.3098Z" fill="#E6DAFE"/>
</svg>
