<svg width="32" height="32" viewBox="0 0 32 32" fill="none" xmlns="http://www.w3.org/2000/svg">
<path d="M24.4277 23.7566C14.5218 28.4709 8.37417 24.5266 4.43885 22.1309C4.19533 21.9799 3.78144 22.1662 4.14055 22.5786C5.4516 24.1683 9.74819 27.9999 15.3565 27.9999C20.9686 27.9999 24.3074 24.9376 24.725 24.4034C25.1399 23.8738 24.8468 23.5816 24.4276 23.7566H24.4277ZM27.2097 22.2202C26.9437 21.8738 25.5921 21.8092 24.7416 21.9137C23.8897 22.0152 22.611 22.5358 22.7222 22.8484C22.7792 22.9655 22.8957 22.913 23.4809 22.8604C24.0677 22.8018 25.7116 22.5944 26.0541 23.0421C26.3983 23.493 25.5298 25.6409 25.3712 25.9873C25.218 26.3337 25.4298 26.423 25.7176 26.1923C26.0015 25.9617 26.5155 25.3644 26.8604 24.5192C27.2029 23.6694 27.4119 22.4839 27.2097 22.2202Z" fill="#E6DAFE"/>
<path fill-rule="evenodd" clip-rule="evenodd" d="M17.7658 14.1371C17.7658 15.3741 17.797 16.4057 17.1718 17.5042C16.6672 18.3974 15.8678 18.9466 14.9747 18.9466C13.7555 18.9466 13.0455 18.0177 13.0455 16.6468C13.0455 13.9406 15.4703 13.4494 17.7658 13.4494V14.1371ZM20.9676 21.8761C20.7577 22.0636 20.4541 22.0771 20.2174 21.952C19.1635 21.0768 18.9759 20.6704 18.3954 19.8353C16.6538 21.6127 15.4213 22.144 13.1617 22.144C10.4912 22.144 8.41016 20.4962 8.41016 17.1961C8.41016 14.6194 9.80799 12.8644 11.7951 12.007C13.5189 11.2478 15.9259 11.1138 17.7658 10.904V10.4931C17.7658 9.73839 17.8238 8.84528 17.3817 8.19333C16.9932 7.60831 16.2519 7.36714 15.5998 7.36714C14.3897 7.36714 13.309 7.98784 13.0455 9.27395C12.9919 9.55982 12.782 9.84118 12.4963 9.85454L9.41491 9.52414C9.15595 9.46597 8.87017 9.25616 8.94162 8.85864C9.65164 5.12542 13.0231 4 16.0419 4C17.587 4 19.6055 4.41088 20.8247 5.58092C22.3698 7.02328 22.2224 8.94797 22.2224 11.0424V15.9903C22.2224 17.4774 22.8387 18.1294 23.4192 18.9332C23.6246 19.219 23.6693 19.563 23.4102 19.7772C22.7627 20.3175 21.6106 21.3224 20.9765 21.8851L20.9675 21.8761" fill="#E6DAFE"/>
<path d="M24.4277 23.7566C14.5218 28.4709 8.37417 24.5266 4.43885 22.1309C4.19533 21.9799 3.78144 22.1662 4.14055 22.5786C5.4516 24.1683 9.74819 27.9999 15.3565 27.9999C20.9686 27.9999 24.3074 24.9376 24.725 24.4034C25.1399 23.8738 24.8468 23.5816 24.4276 23.7566H24.4277ZM27.2097 22.2202C26.9437 21.8738 25.5921 21.8092 24.7416 21.9137C23.8897 22.0152 22.611 22.5358 22.7222 22.8484C22.7792 22.9655 22.8957 22.913 23.4809 22.8604C24.0677 22.8018 25.7116 22.5944 26.0541 23.0421C26.3983 23.493 25.5298 25.6409 25.3712 25.9873C25.218 26.3337 25.4298 26.423 25.7176 26.1923C26.0015 25.9617 26.5155 25.3644 26.8604 24.5192C27.2029 23.6694 27.4119 22.4839 27.2097 22.2202Z" fill="#E6DAFE"/>
<path fill-rule="evenodd" clip-rule="evenodd" d="M17.7658 14.1371C17.7658 15.3741 17.797 16.4057 17.1718 17.5042C16.6672 18.3974 15.8678 18.9466 14.9747 18.9466C13.7555 18.9466 13.0455 18.0177 13.0455 16.6468C13.0455 13.9406 15.4703 13.4494 17.7658 13.4494V14.1371ZM20.9676 21.8761C20.7577 22.0636 20.4541 22.0771 20.2174 21.952C19.1635 21.0768 18.9759 20.6704 18.3954 19.8353C16.6538 21.6127 15.4213 22.144 13.1617 22.144C10.4912 22.144 8.41016 20.4962 8.41016 17.1961C8.41016 14.6194 9.80799 12.8644 11.7951 12.007C13.5189 11.2478 15.9259 11.1138 17.7658 10.904V10.4931C17.7658 9.73839 17.8238 8.84528 17.3817 8.19333C16.9932 7.60831 16.2519 7.36714 15.5998 7.36714C14.3897 7.36714 13.309 7.98784 13.0455 9.27395C12.9919 9.55982 12.782 9.84118 12.4963 9.85454L9.41491 9.52414C9.15595 9.46597 8.87017 9.25616 8.94162 8.85864C9.65164 5.12542 13.0231 4 16.0419 4C17.587 4 19.6055 4.41088 20.8247 5.58092C22.3698 7.02328 22.2224 8.94797 22.2224 11.0424V15.9903C22.2224 17.4774 22.8387 18.1294 23.4192 18.9332C23.6246 19.219 23.6693 19.563 23.4102 19.7772C22.7627 20.3175 21.6106 21.3224 20.9765 21.8851L20.9675 21.8761" fill="#E6DAFE"/>
</svg>
