<svg width="32" height="32" viewBox="0 0 32 32" fill="none" xmlns="http://www.w3.org/2000/svg">
<path d="M11 9.87232V19.998C11 23.8429 11.6877 24.779 12.541 24.9353C12.6459 24.954 12.7508 24.9623 12.858 24.9623C13.4051 24.9623 14.6819 24.6868 15.3935 22.1228C15.7106 20.9828 15.7908 18.6699 15.7908 17.133V7.3053L11 9.87232Z" fill="#E6DAFE"/>
<path d="M19.874 5.11862L20.9847 5.36708L20.9825 17.3459C20.9825 17.3556 20.9817 17.3564 20.9817 17.3609V17.4347C20.9817 17.4347 20.9817 17.4452 20.981 17.4482V17.4931L20.9795 17.5209V17.5805C20.9795 17.5805 20.9787 17.5992 20.9787 17.6093V17.6685L20.978 17.6955V17.7262L20.9772 17.7562L20.9765 17.784V17.8139C20.9757 17.8237 20.9757 17.8327 20.9757 17.8439C20.9757 17.8552 20.975 17.8612 20.975 17.8709C20.975 17.8806 20.975 17.8833 20.9742 17.8881V17.9016C20.9735 17.9114 20.9735 17.9204 20.9735 17.9316C20.9735 17.9428 20.9727 17.9503 20.9727 17.9586C20.9727 17.9668 20.972 17.9691 20.972 17.9758V17.9882L20.9712 18.0182C20.9712 18.0182 20.9705 18.0354 20.9705 18.0444C20.9705 18.0534 20.9705 18.0568 20.9697 18.0631V18.1051L20.969 18.1313C20.969 18.1313 20.9682 18.1426 20.9682 18.1501V18.1613C20.9682 18.1711 20.9675 18.1801 20.9664 18.1902V18.1999L20.9656 18.2262C20.9656 18.2262 20.9656 18.2374 20.9649 18.2449V18.2554C20.9649 18.2659 20.9641 18.2741 20.963 18.2861V18.3521C20.9629 18.362 20.9623 18.3718 20.9611 18.3817V18.3914L20.9604 18.4162C20.9604 18.4162 20.9604 18.4296 20.9596 18.4349V18.4454C20.9596 18.4551 20.9589 18.4641 20.9577 18.4754V18.4851L20.957 18.5098C20.957 18.5098 20.9562 18.5211 20.9562 18.5286V18.5391L20.9544 18.569C20.9544 18.569 20.9536 18.5863 20.9536 18.5953C20.9536 18.6043 20.9529 18.6088 20.9529 18.614C20.9529 18.6238 20.9521 18.6238 20.9521 18.6245L20.9514 18.6545C20.9514 18.6545 20.9506 18.6545 20.9506 18.6642C20.9506 18.674 20.9506 18.6803 20.9499 18.689C20.9491 18.6976 20.9491 18.7013 20.9491 18.7077V18.7182L20.9472 18.7489V18.7587L20.9454 18.7827V18.8029L20.9446 18.8134C20.9446 18.8231 20.9439 18.8321 20.9427 18.8422V18.852C20.9427 18.8617 20.942 18.867 20.9409 18.876C20.9397 18.885 20.9409 18.8883 20.9401 18.8962L20.9394 18.9059C20.9394 18.9164 20.9386 18.9262 20.9375 18.9367V18.9464C20.9375 18.9562 20.9367 18.9625 20.9356 18.9704L20.9349 18.9914C20.9341 18.9914 20.9341 19.0011 20.9341 19.0011C20.934 19.011 20.9334 19.0209 20.9323 19.0307V19.0405L20.9304 19.063L20.9296 19.084L20.9289 19.0937L20.9281 19.1237V19.1334L20.9274 19.1559C20.9255 19.1656 20.9255 19.1701 20.9255 19.1784C20.9255 19.1784 20.9255 19.1881 20.9236 19.1881L20.9229 19.2181C20.921 19.2181 20.921 19.2279 20.921 19.2279C20.921 19.2376 20.921 19.2428 20.9191 19.2503L20.9184 19.2728C20.9176 19.2728 20.9176 19.2826 20.9176 19.2826L20.9169 19.3125C20.9169 19.3125 20.9169 19.3223 20.9161 19.3223L20.9154 19.3448L20.9135 19.3673C20.9135 19.3673 20.9135 19.377 20.9128 19.377L20.9109 19.4077V19.4175L20.9101 19.44L20.9083 19.4624C20.9083 19.4624 20.9075 19.4624 20.9075 19.4722C20.9075 19.4819 20.9068 19.4909 20.9056 19.501V19.5108L20.9019 19.5558V19.5655L20.9 19.5962V19.606L20.8963 19.6509V19.6607L20.8944 19.6907L20.8937 19.7004L20.8899 19.7454V19.7551L20.888 19.7851V19.7948L20.8862 19.8158C20.8843 19.8256 20.8843 19.8308 20.8843 19.8398V19.8496C20.8843 19.8593 20.8824 19.8698 20.8824 19.8795C20.8824 19.8893 20.8824 19.8893 20.8817 19.8893C20.8817 19.899 20.8809 19.9028 20.8798 19.9095L20.879 19.9335C20.879 19.9335 20.8783 19.9335 20.8783 19.9432C20.8783 19.953 20.8764 19.9635 20.8764 19.9732L20.8757 19.983L20.8738 20.004C20.8738 20.0137 20.8719 20.0189 20.8719 20.0279L20.8712 20.0377L20.8693 20.0684C20.8685 20.0684 20.8674 20.0782 20.8674 20.0782C20.8674 20.0879 20.8655 20.0916 20.8655 20.0984L20.8637 20.1231C20.8637 20.1231 20.8629 20.1231 20.8629 20.1329C20.8629 20.1426 20.861 20.1516 20.861 20.1617C20.8603 20.1617 20.8603 20.1715 20.8603 20.1722L20.8584 20.1925L20.8566 20.2172V20.2269C20.8547 20.2367 20.8547 20.2472 20.8536 20.2569L20.8528 20.2674L20.8509 20.2861L20.8491 20.3109C20.8491 20.3109 20.8483 20.3109 20.8483 20.3206C20.8483 20.3304 20.8464 20.3394 20.8453 20.3506L20.8446 20.3611L20.8427 20.3798L20.8408 20.4061C20.8392 20.4159 20.838 20.4258 20.8371 20.4357C20.8371 20.4454 20.8371 20.4454 20.8363 20.4462L20.8344 20.4649L20.8326 20.4911C20.8311 20.501 20.8298 20.5108 20.8288 20.5207C20.8288 20.5305 20.8281 20.5305 20.8281 20.5312L20.8262 20.55L20.8243 20.5762C20.8243 20.5762 20.8213 20.5949 20.8206 20.6051L20.8198 20.6163L20.818 20.635L20.815 20.6613C20.8133 20.6714 20.8124 20.6817 20.8123 20.692L20.8105 20.7032C20.8097 20.713 20.8086 20.7145 20.8086 20.7205C20.8067 20.7302 20.8067 20.7392 20.8056 20.7482C20.8045 20.7572 20.803 20.7669 20.8018 20.7759C20.8007 20.7849 20.8011 20.7857 20.8 20.7894C20.7992 20.7992 20.7981 20.8007 20.7981 20.8067L20.7951 20.8329L20.7921 20.8636C20.7921 20.8636 20.7902 20.8734 20.7902 20.876L20.7872 20.8932C20.7872 20.903 20.7865 20.912 20.7853 20.921C20.7842 20.93 20.7835 20.9397 20.7816 20.9498C20.7797 20.9599 20.7809 20.9596 20.7797 20.9622C20.779 20.9719 20.7779 20.9734 20.7779 20.9794C20.776 20.9892 20.776 20.9982 20.7749 21.0064L20.7711 21.0371C20.7711 21.0371 20.7692 21.0469 20.7692 21.0506L20.7674 21.0667C20.7655 21.0765 20.7655 21.0855 20.7644 21.0956C20.7626 21.1051 20.7614 21.1148 20.7606 21.1244C20.7587 21.1342 20.7587 21.1342 20.7587 21.1387C20.758 21.1484 20.7569 21.1492 20.7569 21.1537C20.7551 21.1632 20.7539 21.1729 20.7531 21.1825L20.7486 21.214C20.7486 21.214 20.7479 21.2238 20.7468 21.2283C20.746 21.238 20.7449 21.2387 20.7449 21.2432C20.743 21.253 20.7419 21.262 20.7411 21.2721L20.7363 21.3028C20.7355 21.3126 20.7344 21.3126 20.7344 21.3163C20.7336 21.3261 20.7325 21.3268 20.7325 21.3313L20.7276 21.3602C20.7276 21.3602 20.7228 21.3789 20.722 21.389C20.7213 21.3991 20.7201 21.3995 20.7201 21.404C20.7194 21.4138 20.7183 21.4145 20.7183 21.4183L20.7134 21.4482C20.7134 21.4482 20.7104 21.467 20.7085 21.4782C20.7085 21.488 20.7067 21.488 20.7067 21.4925C20.7067 21.5022 20.7059 21.5022 20.7048 21.5074L20.6999 21.5363C20.6999 21.5363 20.6969 21.5565 20.695 21.5663C20.695 21.576 20.6943 21.5768 20.6932 21.5813C20.6924 21.5813 20.6913 21.5918 20.6913 21.5955L20.6857 21.6255V21.6266L20.6808 21.6543C20.6808 21.6543 20.6789 21.6648 20.6778 21.6705C20.677 21.6802 20.6759 21.6802 20.6759 21.6847C20.674 21.6944 20.674 21.7034 20.6722 21.7136C20.6703 21.7237 20.6684 21.7323 20.6666 21.7424C20.6647 21.7525 20.6647 21.7522 20.6647 21.7574C20.6639 21.7671 20.6628 21.7671 20.6617 21.7709C20.6598 21.7806 20.6587 21.7896 20.6579 21.8009C20.6572 21.8121 20.6542 21.8196 20.6516 21.8279C20.6508 21.8376 20.6497 21.8383 20.6486 21.8451C20.6486 21.8548 20.6467 21.8548 20.6467 21.8586L20.6411 21.8874L20.6362 21.9182L20.6332 21.9332C20.6325 21.9429 20.6313 21.9429 20.6313 21.9466L20.6257 21.9766L20.6201 22.0036C20.6193 22.0134 20.6182 22.0149 20.6171 22.0208C20.6163 22.0306 20.6152 22.0306 20.6152 22.0343L20.6103 22.0621C20.6078 22.0712 20.6057 22.0805 20.604 22.0898C20.6032 22.0995 20.6021 22.1003 20.601 22.107C20.6002 22.107 20.5991 22.1168 20.5991 22.1194L20.5935 22.1494C20.5916 22.1591 20.5886 22.1666 20.5879 22.1756C20.5871 22.1846 20.586 22.1869 20.5841 22.1929C20.5834 22.2026 20.5822 22.2026 20.5822 22.2052C20.5792 22.2157 20.5785 22.224 20.5766 22.2341C20.5729 22.2438 20.5717 22.2528 20.5699 22.2611C20.568 22.2693 20.568 22.2723 20.5661 22.2798C20.5654 22.2798 20.5642 22.2895 20.5642 22.291L20.5586 22.321C20.557 22.3297 20.5551 22.3383 20.553 22.3469C20.5511 22.3566 20.5511 22.3592 20.5493 22.3656C20.5485 22.3754 20.5474 22.3754 20.5474 22.3769C20.5455 22.3873 20.5425 22.3956 20.5399 22.4068C20.5382 22.4155 20.5363 22.4241 20.5343 22.4327L20.5305 22.4514C20.5298 22.4514 20.5286 22.4612 20.5275 22.4627C20.5256 22.4724 20.5227 22.4814 20.5219 22.4915C20.5212 22.4915 20.5212 22.4915 20.52 22.5013C20.5189 22.511 20.5163 22.5185 20.5144 22.5275C20.5125 22.5365 20.5125 22.538 20.5107 22.5462C20.5099 22.5462 20.5088 22.556 20.5088 22.5567L20.502 22.5867C20.502 22.5867 20.4983 22.6055 20.4957 22.6129L20.4908 22.6317C20.49 22.6317 20.4889 22.6414 20.4889 22.6422L20.4822 22.671C20.4822 22.671 20.4766 22.6898 20.4758 22.6973C20.4739 22.707 20.4728 22.7108 20.4702 22.716C20.4694 22.7257 20.4683 22.7257 20.4683 22.7265C20.4676 22.7362 20.4646 22.7452 20.4627 22.7565C20.4589 22.7662 20.4571 22.7737 20.4552 22.7827C20.4533 22.7917 20.4533 22.7951 20.4503 22.8014C20.4496 22.8014 20.4485 22.8112 20.4485 22.8119L20.4398 22.8419V22.8517L20.4342 22.8756C20.4342 22.8756 20.4305 22.888 20.4286 22.8959L20.4173 22.939L20.4061 22.9839L20.3949 23.0282L20.3825 23.0731L20.3701 23.1174C20.3701 23.1174 20.3626 23.1473 20.3578 23.1616L20.3454 23.2058L20.3323 23.2508C20.3323 23.2508 20.3225 23.2815 20.3192 23.295L20.3068 23.34L20.2929 23.3842C20.2929 23.3842 20.2832 23.413 20.2791 23.4284C20.2749 23.4438 20.2689 23.4584 20.2652 23.4726L20.2513 23.5176L20.2363 23.5607L20.2214 23.6057L20.2064 23.6499L20.1914 23.6948C20.1914 23.6948 20.1801 23.7248 20.1753 23.7391C20.1704 23.7533 20.1651 23.769 20.1591 23.784L20.1292 23.8725L20.1119 23.9167L20.0939 23.9617C20.0939 23.9617 20.0827 23.9916 20.0778 24.0059L20.0598 24.0501L20.0411 24.0943L20.0231 24.1393C20.0171 24.1541 20.0108 24.1689 20.0044 24.1835L19.9864 24.2277L19.9662 24.272L19.9474 24.3162C19.9474 24.3162 19.9335 24.3462 19.9272 24.3611L19.9069 24.4054C19.9013 24.4204 19.8931 24.4361 19.886 24.4496C19.8803 24.4646 19.8721 24.4803 19.865 24.4938L19.8447 24.5388C19.844 24.5388 19.8429 24.5388 19.8429 24.5485L19.8219 24.5867L19.7994 24.631L19.7762 24.6752C19.7691 24.6903 19.7614 24.705 19.7529 24.7194L19.7304 24.7644L19.7072 24.8086C18.9592 26.1832 17.7982 27.0657 16.6875 27.2594L15.1548 27.0758C16.7362 27.0616 17.8799 25.8212 18.5103 24.8093C18.5215 24.7951 18.5305 24.7786 18.5395 24.7651L18.565 24.7202C18.5747 24.7059 18.5837 24.6902 18.592 24.6759C18.6002 24.6617 18.6099 24.646 18.6182 24.6317C18.6264 24.6175 18.6354 24.601 18.6437 24.5875L18.6692 24.5425C18.6778 24.5283 18.6853 24.5125 18.6931 24.4975C18.701 24.4826 18.7092 24.4687 18.7179 24.4533C18.7261 24.4389 18.7339 24.4241 18.7411 24.4091C18.7486 24.3949 18.7572 24.3791 18.7643 24.3649L18.7883 24.3199C18.7958 24.3057 18.8033 24.2911 18.8101 24.2757C18.8168 24.2603 18.825 24.2457 18.8318 24.2315L18.8535 24.1873C18.86 24.1721 18.8672 24.1574 18.8753 24.143C18.8783 24.1333 18.8828 24.1243 18.8865 24.1168C18.8895 24.1071 18.8921 24.1033 18.8962 24.0981C18.9019 24.0838 18.9094 24.0681 18.915 24.0538C18.9206 24.0396 18.9274 24.0239 18.9345 24.0096C18.9416 23.9954 18.9476 23.9796 18.954 23.9654C18.9603 23.9512 18.9652 23.9354 18.9719 23.9204L18.9899 23.8762C18.9956 23.8612 19.0023 23.8462 19.0087 23.832C19.015 23.8178 19.0199 23.8013 19.0267 23.7878C19.0323 23.7728 19.0379 23.757 19.0439 23.7428C19.0499 23.7286 19.0551 23.7128 19.06 23.6986C19.0649 23.6843 19.0713 23.6686 19.0773 23.6536C19.0829 23.6401 19.0885 23.6236 19.0922 23.6094C19.096 23.5952 19.1035 23.5805 19.1084 23.5644C19.114 23.5502 19.1196 23.5356 19.1245 23.5213C19.1293 23.5071 19.1357 23.4914 19.1395 23.4764C19.1451 23.4621 19.1496 23.4464 19.1544 23.4321C19.1593 23.4179 19.1646 23.4022 19.1694 23.3879C19.1743 23.3737 19.1792 23.3572 19.1844 23.3437L19.1983 23.2987C19.2039 23.2845 19.208 23.2688 19.2122 23.2545C19.2171 23.2396 19.2218 23.2246 19.226 23.2095C19.2309 23.1953 19.2358 23.1796 19.2399 23.1653C19.244 23.1511 19.2496 23.1353 19.2538 23.1211L19.2661 23.0769C19.2699 23.0619 19.2747 23.0469 19.2792 23.0319L19.2916 22.9877C19.2965 22.9735 19.3013 22.9577 19.304 22.9427C19.309 22.9286 19.3134 22.9142 19.3171 22.8996C19.319 22.8899 19.3208 22.8854 19.3227 22.8794C19.3246 22.8696 19.3265 22.8622 19.3295 22.8554C19.3295 22.8554 19.3295 22.8457 19.3302 22.8457C19.3321 22.8352 19.3351 22.8269 19.3377 22.8157C19.3384 22.8059 19.3396 22.8059 19.3396 22.8052C19.3414 22.7954 19.3426 22.7917 19.3452 22.7865C19.3471 22.7767 19.3489 22.7703 19.3508 22.7602C19.3557 22.7505 19.3583 22.7415 19.3606 22.7302C19.3628 22.719 19.3624 22.7205 19.3624 22.7197C19.3643 22.71 19.3662 22.7074 19.3681 22.701C19.3688 22.6913 19.3718 22.6823 19.3737 22.6748C19.3774 22.665 19.3804 22.656 19.3823 22.6459C19.383 22.6459 19.3842 22.6362 19.3853 22.6354C19.3856 22.6289 19.3869 22.6225 19.389 22.6163C19.3909 22.6066 19.3939 22.6002 19.3947 22.5901C19.3985 22.5801 19.4013 22.5698 19.4033 22.5594C19.404 22.5594 19.4052 22.5496 19.4063 22.5489C19.4082 22.5391 19.4082 22.5365 19.41 22.5301C19.4119 22.5204 19.4149 22.5114 19.4156 22.5039C19.4156 22.5039 19.4164 22.5039 19.4164 22.4942C19.4183 22.4844 19.4213 22.4754 19.4231 22.4653C19.425 22.4552 19.425 22.4556 19.425 22.4541C19.4269 22.4443 19.4269 22.4417 19.4299 22.4353C19.4318 22.4256 19.4336 22.4181 19.4355 22.4091C19.4374 22.4001 19.44 22.3903 19.443 22.3791C19.443 22.3791 19.4438 22.3694 19.4449 22.3679C19.4468 22.3581 19.4479 22.3566 19.4497 22.3491C19.4514 22.3405 19.4533 22.3318 19.4554 22.3233C19.458 22.3128 19.461 22.303 19.4617 22.2933C19.4625 22.2835 19.4636 22.2835 19.4636 22.282C19.4655 22.2723 19.4666 22.2697 19.4674 22.2633L19.473 22.2363C19.4757 22.2268 19.4779 22.2172 19.4797 22.2075C19.4805 22.1977 19.4816 22.1977 19.4816 22.1951C19.4835 22.1854 19.4846 22.1839 19.4854 22.1779C19.487 22.1692 19.4889 22.1606 19.491 22.152L19.4966 22.122C19.4985 22.1123 19.4985 22.1123 19.4996 22.1097C19.5003 22.0999 19.5015 22.0984 19.5015 22.0924C19.5033 22.0827 19.5063 22.0737 19.5071 22.0647C19.5078 22.0557 19.5108 22.046 19.5135 22.037C19.5142 22.0272 19.5153 22.0272 19.5153 22.0235C19.5172 22.0137 19.5172 22.0122 19.5191 22.0062C19.521 21.9965 19.5221 21.989 19.524 21.9792C19.5258 21.9695 19.5284 21.9605 19.5303 21.9493C19.5322 21.938 19.5311 21.9395 19.5322 21.9358C19.5329 21.926 19.5341 21.9253 19.5352 21.9208C19.5371 21.911 19.5389 21.9021 19.5408 21.8908C19.5427 21.8796 19.5446 21.8706 19.5464 21.8608C19.5483 21.8511 19.5483 21.8511 19.5483 21.8473C19.5502 21.8376 19.5513 21.8368 19.5513 21.8301C19.5532 21.8204 19.5551 21.8114 19.5562 21.8031L19.5618 21.7731C19.5625 21.7634 19.5637 21.7634 19.5637 21.7596C19.5644 21.7499 19.5655 21.7492 19.5655 21.7447C19.5674 21.7349 19.5685 21.7259 19.5712 21.7158L19.576 21.6869L19.579 21.6727C19.579 21.663 19.5798 21.6622 19.5809 21.6566C19.5828 21.6468 19.5839 21.6379 19.5858 21.6289V21.6277C19.5877 21.6172 19.5888 21.6075 19.5907 21.5978C19.5925 21.588 19.5925 21.5873 19.5937 21.5835C19.5944 21.5738 19.5955 21.573 19.5955 21.5685C19.5974 21.5588 19.5974 21.5498 19.5993 21.5385C19.6011 21.5273 19.603 21.5198 19.6049 21.5097C19.6068 21.4996 19.6068 21.4999 19.6068 21.4947C19.6075 21.485 19.6075 21.485 19.6086 21.4805C19.6105 21.4707 19.6116 21.4617 19.6135 21.4505C19.6154 21.4392 19.6165 21.4317 19.6173 21.4205C19.618 21.4093 19.6191 21.41 19.6203 21.4063C19.6203 21.3965 19.6221 21.3965 19.6221 21.3913C19.624 21.3815 19.6259 21.3725 19.627 21.3624V21.3613C19.6289 21.3515 19.63 21.3426 19.6319 21.3324C19.6338 21.3223 19.6338 21.3219 19.6338 21.3174C19.6345 21.3077 19.6345 21.3077 19.6345 21.304C19.6364 21.2935 19.6375 21.2852 19.6394 21.274C19.6412 21.2627 19.6424 21.2537 19.6442 21.244L19.6472 21.229C19.6472 21.2193 19.6472 21.2193 19.648 21.2155C19.6499 21.205 19.651 21.1968 19.6529 21.1848C19.6547 21.175 19.6559 21.166 19.6577 21.1559C19.6596 21.1458 19.6596 21.1462 19.6596 21.1409C19.6604 21.1312 19.6604 21.1312 19.6615 21.1267C19.6634 21.117 19.6645 21.108 19.6664 21.0978C19.6682 21.0877 19.6682 21.0791 19.6694 21.069C19.6705 21.0589 19.6712 21.0592 19.6712 21.0529C19.672 21.0529 19.672 21.0431 19.6731 21.0394C19.675 21.0296 19.675 21.0206 19.6768 21.0094C19.6787 20.9982 19.6787 20.9922 19.6806 20.9824C19.6825 20.9727 19.6825 20.9719 19.6825 20.9652C19.6832 20.9554 19.6832 20.9554 19.6843 20.9528C19.6851 20.9431 19.6862 20.9341 19.6873 20.924C19.6885 20.9138 19.69 20.9052 19.6911 20.8962C19.6922 20.8872 19.693 20.885 19.693 20.879C19.6937 20.879 19.6937 20.8692 19.6948 20.8666C19.6956 20.8561 19.6967 20.8464 19.6978 20.8359C19.6993 20.8269 19.7006 20.8179 19.7016 20.8089C19.7023 20.7992 19.7035 20.7984 19.7035 20.7917C19.7042 20.7819 19.7042 20.7819 19.7053 20.7782C19.7061 20.7684 19.7072 20.7594 19.7083 20.7505C19.7095 20.7415 19.7102 20.7317 19.7113 20.7227C19.7124 20.7137 19.7132 20.7122 19.7132 20.7055C19.7139 20.6957 19.7139 20.6957 19.7151 20.6942C19.7151 20.6837 19.7169 20.674 19.7169 20.6635C19.7184 20.6549 19.7197 20.6463 19.7207 20.6377C19.7207 20.6279 19.7226 20.6253 19.7226 20.6189C19.7233 20.6092 19.7244 20.6092 19.7244 20.6077C19.7261 20.5981 19.7273 20.5885 19.7282 20.5788C19.7289 20.5691 19.7301 20.5601 19.7312 20.5526C19.7319 20.5428 19.7319 20.5413 19.7331 20.5338C19.7331 20.5338 19.7338 20.5241 19.7349 20.5234C19.7357 20.5136 19.7368 20.5046 19.7379 20.4934C19.7391 20.4821 19.7398 20.4761 19.7398 20.4671C19.7398 20.4582 19.7417 20.4559 19.7417 20.4484C19.7417 20.4387 19.7424 20.4387 19.7424 20.4379C19.7432 20.4282 19.7443 20.4177 19.7443 20.4079C19.7451 20.4079 19.7451 20.4079 19.7451 20.3982C19.7451 20.3884 19.7469 20.381 19.7469 20.372C19.7469 20.363 19.7488 20.3596 19.7488 20.3532L19.7495 20.3427C19.7503 20.333 19.7514 20.324 19.7525 20.3127C19.7533 20.3127 19.7533 20.3127 19.7533 20.303C19.7533 20.2933 19.754 20.2858 19.7552 20.2783C19.7559 20.2685 19.757 20.2659 19.757 20.2595V20.249C19.7589 20.2385 19.7589 20.2288 19.76 20.2191L19.7608 20.2093C19.7615 20.1996 19.7615 20.1921 19.7627 20.1846C19.7627 20.1748 19.7634 20.1722 19.7645 20.1643L19.7653 20.1539C19.766 20.1441 19.7672 20.1351 19.7683 20.125C19.7683 20.125 19.7683 20.1153 19.769 20.1153C19.769 20.1055 19.7709 20.0991 19.7709 20.0905C19.7709 20.0819 19.7728 20.0782 19.7728 20.0703L19.7735 20.0605C19.7736 20.0503 19.7742 20.04 19.7754 20.0298V20.0201C19.7762 20.0103 19.7773 20.0028 19.7773 19.9961C19.778 19.9863 19.7792 19.9818 19.7792 19.9751C19.7792 19.9751 19.7792 19.9654 19.7799 19.9654C19.7799 19.9549 19.7818 19.9466 19.7818 19.9354V19.9256C19.7825 19.9159 19.7836 19.9106 19.7836 19.9016C19.7836 19.8927 19.7844 19.8893 19.7844 19.8814L19.7851 19.8717C19.7859 19.8619 19.787 19.8529 19.787 19.8417C19.787 19.8417 19.7878 19.8417 19.7878 19.8319C19.7878 19.8222 19.7885 19.8158 19.7885 19.808C19.7893 19.7982 19.7904 19.7945 19.7904 19.787V19.7772C19.7911 19.7675 19.7923 19.757 19.7923 19.7473C19.7923 19.7473 19.793 19.7473 19.793 19.7375C19.793 19.7278 19.7938 19.7225 19.7949 19.715C19.7949 19.7053 19.7956 19.7015 19.7968 19.6925V19.6828C19.7986 19.6723 19.7986 19.6641 19.7998 19.6528V19.6431C19.7998 19.6333 19.8005 19.6281 19.8005 19.6206C19.8013 19.6108 19.8024 19.6071 19.8024 19.5981L19.8031 19.5884C19.8039 19.5786 19.805 19.5681 19.805 19.5584V19.5486C19.8058 19.5389 19.8069 19.5336 19.8069 19.5262C19.8076 19.5164 19.8088 19.5119 19.8088 19.5037V19.4939C19.8095 19.4842 19.8095 19.4752 19.8106 19.4651C19.8114 19.4651 19.8114 19.4553 19.8114 19.4553C19.8114 19.4456 19.8121 19.4403 19.8133 19.4328C19.8133 19.4231 19.814 19.4194 19.8151 19.4104V19.4006C19.8159 19.3901 19.817 19.3804 19.817 19.3699L19.8178 19.3601C19.8185 19.3504 19.8185 19.3459 19.8196 19.3377C19.8204 19.3279 19.8204 19.3227 19.8204 19.3152C19.8211 19.3152 19.8211 19.3054 19.8211 19.3054C19.8219 19.2949 19.823 19.2867 19.823 19.2754V19.2657C19.8237 19.256 19.8237 19.2515 19.8249 19.2432C19.8249 19.2335 19.8256 19.229 19.8256 19.2207L19.8264 19.211C19.8265 19.2011 19.8271 19.1912 19.8282 19.1814V19.1716C19.8282 19.1619 19.829 19.1574 19.8301 19.1492C19.8301 19.1394 19.8301 19.1349 19.8309 19.1267C19.8309 19.1267 19.8316 19.1267 19.8316 19.1169C19.8316 19.107 19.8323 19.0971 19.8335 19.0873V19.0776C19.8342 19.0678 19.8342 19.0633 19.8354 19.0566C19.8354 19.0469 19.8361 19.0416 19.8361 19.0341V19.0244C19.8362 19.0145 19.8368 19.0046 19.838 18.9948V18.985C19.8387 18.9753 19.8387 18.9708 19.8399 18.964C19.8399 18.9543 19.8399 18.949 19.8406 18.94V18.9303C19.8414 18.9198 19.8414 18.9101 19.8425 18.8996V18.8898C19.8432 18.8801 19.8432 18.8763 19.8432 18.8696C19.844 18.8599 19.844 18.8535 19.8451 18.8456V18.8359C19.8459 18.8261 19.8459 18.8171 19.8459 18.807V18.7965C19.8466 18.7868 19.8466 18.783 19.8477 18.7763C19.8477 18.7665 19.8477 18.7602 19.8485 18.7523V18.7426C19.8492 18.7321 19.8492 18.7223 19.8504 18.7118V18.7013C19.8511 18.6916 19.8511 18.6878 19.8511 18.6826C19.8511 18.6729 19.8519 18.6654 19.8519 18.6579L19.8526 18.6481C19.8526 18.6384 19.8526 18.6294 19.8534 18.6181V18.5893C19.8534 18.5795 19.8541 18.572 19.8541 18.5631V18.5533C19.8549 18.5436 19.8549 18.5346 19.856 18.5233V18.5136C19.8552 18.5027 19.8552 18.5027 19.8552 18.4933C19.8552 18.4836 19.856 18.4772 19.856 18.4686C19.8567 18.4686 19.8567 18.4686 19.8567 18.4589V18.4289C19.8575 18.4289 19.8575 18.4191 19.8575 18.4184C19.8575 18.4087 19.8582 18.4049 19.8582 18.3997V18.3652C19.8582 18.3547 19.859 18.3449 19.859 18.3352V18.324C19.859 18.3142 19.859 18.3127 19.8597 18.3052V18.2696C19.8597 18.2591 19.8597 18.2494 19.8605 18.2389V18.2284C19.8612 18.2187 19.8612 18.216 19.8612 18.2097C19.8612 18.1999 19.8612 18.1909 19.862 18.1834C19.862 18.1737 19.8627 18.1632 19.8627 18.1546V18.1246C19.8635 18.1149 19.8635 18.1059 19.8635 18.0984C19.8642 18.0879 19.8642 18.0781 19.8642 18.0676V18.0377C19.865 18.0279 19.865 18.0189 19.865 18.0114C19.8657 18.0009 19.8657 17.9927 19.8657 17.9814V17.9691C19.8657 17.9593 19.8657 17.9578 19.8665 17.9518C19.8665 17.9421 19.8665 17.9331 19.8672 17.9249V17.8649C19.868 17.8552 19.868 17.8462 19.868 17.8387C19.868 17.8289 19.8687 17.8184 19.8687 17.8087V17.7514C19.8687 17.7409 19.8687 17.7326 19.8695 17.7214V17.6906C19.8695 17.6809 19.8702 17.6719 19.8702 17.6637V17.5763C19.8702 17.5659 19.8702 17.5576 19.871 17.5475V5.11787L17.8129 6.22075L18.9019 6.46359V17.1072C18.9011 17.1169 18.9011 17.1259 18.9011 17.1371V17.4321C18.9011 17.4321 18.9004 17.4426 18.9004 17.4456V17.4909C18.8996 17.5006 18.8996 17.5096 18.8996 17.5186V17.5778C18.8996 17.5876 18.8996 17.5966 18.8989 17.6067V17.6356C18.8989 17.6453 18.8981 17.6558 18.8981 17.6655V17.7528C18.8974 17.7626 18.8974 17.7716 18.8974 17.7806V17.8106C18.8966 17.8203 18.8966 17.8293 18.8966 17.8405V17.8656C18.8966 17.8754 18.8959 17.878 18.8959 17.8829V17.8964C18.8951 17.9061 18.8951 17.9151 18.8951 17.9264V17.9533C18.8944 17.9631 18.8944 17.9638 18.8944 17.9706V17.9829C18.8936 17.9934 18.8936 18.0017 18.8936 18.0129C18.8936 18.0242 18.8936 18.0302 18.8929 18.0392V18.0579C18.8929 18.0676 18.8921 18.0676 18.8921 18.0691V18.0999C18.8921 18.1096 18.8914 18.1171 18.8914 18.1261V18.1936C18.8895 18.2033 18.8895 18.2108 18.8895 18.2198C18.8895 18.2288 18.8895 18.2322 18.8888 18.2385V18.2891C18.888 18.2989 18.888 18.3064 18.888 18.3153V18.3442C18.8873 18.3539 18.8873 18.3629 18.8861 18.3742V18.4087C18.8869 18.4184 18.8869 18.4221 18.8869 18.4274C18.8861 18.4274 18.8861 18.4371 18.8861 18.4379C18.8861 18.4476 18.8861 18.4566 18.8854 18.4679V18.4776C18.8854 18.4874 18.8846 18.4937 18.8846 18.5023C18.8846 18.511 18.8846 18.5136 18.8839 18.5211V18.5308C18.8831 18.5413 18.8831 18.5511 18.8831 18.5608C18.8831 18.5705 18.8824 18.578 18.8813 18.587V18.6159C18.8805 18.6264 18.8805 18.6346 18.8794 18.6459V18.6556C18.8794 18.6654 18.8794 18.6717 18.8786 18.6803C18.8779 18.689 18.8786 18.6927 18.8779 18.6991V18.7489C18.8771 18.7587 18.8771 18.765 18.8771 18.7729C18.8771 18.7827 18.8764 18.7864 18.8764 18.7931C18.8764 18.8029 18.8756 18.8029 18.8756 18.8036C18.8756 18.8134 18.8749 18.8224 18.8749 18.8325C18.8749 18.8325 18.8749 18.8422 18.8741 18.8422C18.8741 18.852 18.8741 18.8572 18.8734 18.8662C18.8726 18.8752 18.8726 18.8786 18.8726 18.8865V18.8962C18.8719 18.9067 18.8708 18.9164 18.8708 18.9269V18.9367C18.8708 18.9447 18.8702 18.9527 18.8689 18.9607V18.9899C18.8681 19.0004 18.8681 19.0086 18.867 19.0199V19.0296C18.8663 19.0394 18.8663 19.0446 18.8663 19.0521C18.8655 19.0618 18.8655 19.0663 18.8644 19.0731V19.0828C18.8643 19.0927 18.8637 19.1026 18.8625 19.1124V19.1222C18.8625 19.1319 18.8625 19.1372 18.8618 19.1447C18.861 19.1544 18.861 19.1589 18.861 19.1671C18.861 19.1671 18.861 19.1769 18.8603 19.1769C18.8603 19.1874 18.8595 19.1971 18.8595 19.2069C18.8595 19.2069 18.8595 19.2166 18.8588 19.2166C18.8588 19.2264 18.858 19.2316 18.858 19.2391C18.858 19.2488 18.8573 19.2526 18.8562 19.2616V19.2713C18.8562 19.2818 18.8554 19.2901 18.8554 19.3013C18.8554 19.3013 18.8554 19.311 18.8547 19.311C18.8547 19.3208 18.8539 19.326 18.8539 19.3335C18.8532 19.3433 18.852 19.3478 18.852 19.356V19.3646C18.8513 19.3744 18.8502 19.3849 18.8502 19.3954C18.8494 19.3954 18.8494 19.4051 18.8494 19.4051C18.8494 19.4149 18.8494 19.4193 18.8487 19.4276C18.8487 19.4373 18.8479 19.4418 18.8479 19.4501C18.8479 19.4501 18.8472 19.4501 18.8472 19.4598C18.8472 19.4696 18.8464 19.4786 18.8453 19.4887C18.8445 19.4887 18.8445 19.4984 18.8445 19.4984C18.8445 19.5082 18.8438 19.5127 18.8438 19.5209C18.843 19.5307 18.843 19.5359 18.8419 19.5434C18.8419 19.5434 18.8419 19.5531 18.8412 19.5531C18.8412 19.5629 18.8412 19.5734 18.8393 19.5831V19.5929C18.8385 19.6026 18.8385 19.6071 18.8374 19.6153V19.6378C18.8367 19.6378 18.8367 19.6378 18.8367 19.6476C18.8366 19.6575 18.8359 19.6673 18.8348 19.6772V19.6869C18.834 19.6967 18.8329 19.7012 18.8329 19.7094C18.8322 19.7191 18.831 19.7255 18.831 19.7319C18.8303 19.7319 18.8303 19.7416 18.8303 19.7416C18.8295 19.7521 18.8284 19.7604 18.8284 19.7716C18.8284 19.7716 18.8284 19.7814 18.8277 19.7814C18.8258 19.7911 18.8258 19.7956 18.8258 19.8023C18.8258 19.8121 18.8258 19.8173 18.825 19.8263C18.825 19.8263 18.825 19.8361 18.8243 19.8361C18.8243 19.846 18.8236 19.8559 18.8224 19.8657L18.8217 19.8754C18.8209 19.8852 18.8209 19.8889 18.8198 19.8957C18.8191 19.9054 18.8179 19.9118 18.8179 19.9196V19.9294C18.8172 19.9391 18.8172 19.9481 18.8161 19.9594L18.8153 19.9691C18.8153 19.9788 18.8146 19.9826 18.8134 19.9901C18.8134 19.9998 18.8127 20.0051 18.8116 20.0141V20.0238C18.8108 20.0336 18.8097 20.0441 18.8097 20.0545C18.8089 20.0545 18.8089 20.0643 18.8089 20.0643C18.8082 20.074 18.8082 20.0785 18.8071 20.0845C18.8063 20.0943 18.8063 20.1018 18.8063 20.1093C18.8063 20.1093 18.8044 20.1093 18.8044 20.119C18.8044 20.1287 18.8026 20.1377 18.8026 20.1479V20.1584C18.8007 20.1681 18.8007 20.1718 18.8007 20.1786C18.7999 20.1883 18.7988 20.1936 18.7988 20.2033V20.2131C18.7969 20.2236 18.7969 20.2333 18.7958 20.2438C18.7958 20.2438 18.7951 20.2535 18.7939 20.2543C18.7939 20.264 18.7932 20.2678 18.7921 20.273C18.7921 20.2828 18.7913 20.2903 18.7902 20.2978L18.7894 20.3075C18.7894 20.318 18.7876 20.3262 18.7876 20.3375L18.7868 20.348C18.7868 20.3577 18.7861 20.3603 18.7861 20.3667C18.7842 20.3765 18.7842 20.3839 18.7831 20.3929C18.782 20.4019 18.7812 20.4117 18.7801 20.4229C18.779 20.4342 18.7801 20.4327 18.7793 20.4334C18.7786 20.4432 18.7786 20.4458 18.7775 20.4522C18.7756 20.4619 18.7756 20.4709 18.7756 20.4784C18.7737 20.4881 18.7737 20.4986 18.7726 20.5084C18.7715 20.5181 18.7718 20.5181 18.7707 20.5189C18.7707 20.5286 18.77 20.5323 18.7688 20.5376C18.7681 20.5473 18.767 20.5548 18.767 20.5638C18.767 20.5728 18.7651 20.5826 18.7632 20.5927C18.7632 20.6024 18.7625 20.6024 18.7613 20.6039C18.7613 20.6137 18.7606 20.6163 18.7595 20.6227C18.7576 20.6324 18.7576 20.6414 18.7565 20.6489C18.7546 20.6586 18.7535 20.6691 18.7535 20.6796C18.7535 20.6901 18.7527 20.6894 18.7527 20.6909C18.7508 20.7006 18.7508 20.7021 18.7508 20.7081C18.7501 20.7178 18.749 20.7268 18.7478 20.7358C18.7463 20.745 18.745 20.7543 18.7441 20.7636C18.7441 20.7733 18.7434 20.7733 18.7434 20.7771C18.7426 20.7868 18.7415 20.7883 18.7415 20.7943C18.7396 20.804 18.7396 20.813 18.7385 20.8213C18.7369 20.8315 18.7356 20.8417 18.7347 20.852C18.7347 20.8618 18.7347 20.8618 18.734 20.8644C18.7332 20.8741 18.7321 20.8756 18.7321 20.8816C18.7314 20.8914 18.7302 20.9004 18.7291 20.9093C18.728 20.9183 18.7272 20.9281 18.7261 20.9382C18.725 20.9483 18.7254 20.9479 18.7254 20.9506C18.7246 20.9603 18.7235 20.9618 18.7235 20.9678C18.7216 20.9783 18.7205 20.9865 18.7197 20.9948C18.719 21.0047 18.7177 21.0146 18.716 21.0244C18.7152 21.0341 18.7141 21.0341 18.7141 21.0379C18.7122 21.0476 18.7122 21.0491 18.7111 21.054C18.7104 21.0637 18.7092 21.0727 18.7081 21.0829H18.7074C18.7066 21.0933 18.7055 21.1016 18.7044 21.1117C18.7033 21.1218 18.7025 21.1215 18.7025 21.1259C18.7018 21.1357 18.7006 21.1364 18.7006 21.1409C18.6988 21.1514 18.6988 21.1597 18.6969 21.1698C18.695 21.1799 18.695 21.19 18.6939 21.2013C18.6931 21.211 18.692 21.211 18.692 21.2148C18.6913 21.2245 18.6901 21.2253 18.6901 21.2298C18.6894 21.2395 18.6883 21.2485 18.6871 21.2586C18.686 21.2687 18.6853 21.2788 18.6834 21.2893C18.6815 21.2998 18.6815 21.2991 18.6815 21.3028C18.6808 21.3126 18.6796 21.3133 18.6796 21.3178C18.6789 21.3276 18.6778 21.3366 18.6766 21.3467V21.3478C18.6748 21.3583 18.6729 21.3665 18.671 21.3767C18.671 21.3864 18.6703 21.3871 18.6692 21.3916C18.6684 21.4014 18.6673 21.4014 18.6673 21.4059C18.6652 21.4157 18.6636 21.4256 18.6624 21.4355C18.6605 21.446 18.6594 21.4542 18.6568 21.4655C18.6568 21.4752 18.6549 21.476 18.6549 21.4797L18.6519 21.4947C18.65 21.5044 18.65 21.5134 18.6482 21.5236C18.6463 21.5337 18.6452 21.5438 18.6425 21.5535C18.6418 21.5633 18.6418 21.564 18.6407 21.5685C18.6399 21.5685 18.6388 21.5783 18.6377 21.5828C18.6358 21.5925 18.6347 21.603 18.6328 21.6127C18.6309 21.6225 18.6298 21.6315 18.6279 21.6405C18.6261 21.6495 18.6272 21.6502 18.6261 21.6566C18.6253 21.6663 18.6242 21.6663 18.6242 21.6708C18.6223 21.6806 18.6212 21.6896 18.6193 21.6997C18.6174 21.7098 18.6167 21.7184 18.6148 21.7285C18.6129 21.7387 18.6129 21.7383 18.6129 21.7435L18.6099 21.757L18.6043 21.787C18.6024 21.7967 18.6013 21.8057 18.5987 21.814C18.5979 21.8237 18.5968 21.8245 18.5957 21.8312C18.595 21.841 18.5938 21.841 18.5938 21.8447L18.5882 21.8736L18.5826 21.9036C18.5818 21.9133 18.5807 21.914 18.5796 21.9185C18.5788 21.9283 18.5777 21.9283 18.5777 21.932L18.5721 21.962C18.5702 21.9718 18.5691 21.9807 18.5665 21.989C18.5638 21.9972 18.5646 22.0002 18.5635 22.0062C18.5635 22.016 18.5627 22.016 18.5616 22.0197C18.5597 22.0295 18.5586 22.0385 18.556 22.0475C18.5534 22.0564 18.553 22.0662 18.5504 22.0752C18.5496 22.0849 18.5485 22.0857 18.5474 22.0924C18.5455 22.0924 18.5455 22.1022 18.5444 22.1048C18.5425 22.1153 18.5395 22.1235 18.5376 22.1348C18.5352 22.1433 18.5331 22.1519 18.5312 22.1606C18.5294 22.1704 18.5282 22.1719 18.5264 22.1779C18.5256 22.1876 18.5245 22.1876 18.5234 22.1902C18.5226 22.2007 18.5196 22.209 18.5178 22.2191C18.514 22.2288 18.5129 22.2378 18.5103 22.2461C18.5076 22.2543 18.5073 22.2566 18.5065 22.2648C18.5058 22.2648 18.5046 22.2745 18.5035 22.276L18.4979 22.306C18.4955 22.3146 18.4934 22.3232 18.4915 22.3319C18.4896 22.3416 18.4885 22.3443 18.4866 22.3506C18.4866 22.3604 18.4859 22.3604 18.4848 22.3619L18.4773 22.3918C18.4747 22.4016 18.4735 22.4106 18.4717 22.4181C18.4698 22.4278 18.4679 22.4293 18.466 22.4368C18.466 22.4368 18.4642 22.4466 18.4642 22.4481C18.4623 22.4578 18.4585 22.4668 18.4567 22.4769C18.4567 22.4769 18.4548 22.4769 18.4548 22.4867C18.4548 22.4964 18.451 22.5039 18.4492 22.5129C18.4473 22.5219 18.4454 22.5234 18.4436 22.5316C18.4436 22.5316 18.4428 22.5414 18.4417 22.5421C18.4398 22.5526 18.4379 22.5624 18.4349 22.5728C18.4319 22.5833 18.4282 22.5916 18.4274 22.5991C18.4256 22.6088 18.4237 22.6114 18.4218 22.6178C18.4211 22.6178 18.4199 22.6276 18.4199 22.6283C18.4181 22.6388 18.4143 22.647 18.4125 22.6572C18.4087 22.6669 18.4068 22.6759 18.405 22.6834C18.4031 22.6931 18.4012 22.6969 18.3993 22.7021C18.3975 22.7119 18.3975 22.7119 18.3963 22.7126C18.3945 22.7224 18.3915 22.7314 18.3896 22.7426C18.3858 22.7524 18.384 22.7598 18.381 22.7688C18.3802 22.7786 18.3772 22.7812 18.3753 22.7876C18.3735 22.7876 18.3735 22.7973 18.3724 22.7981C18.3705 22.8078 18.3667 22.8168 18.3626 22.8281C18.3619 22.8281 18.3619 22.8281 18.3619 22.8378C18.36 22.8475 18.3562 22.8528 18.3532 22.8618C18.3502 22.8708 18.3495 22.8741 18.3476 22.882C18.3427 22.8963 18.339 22.912 18.3338 22.9251C18.3289 22.9401 18.3251 22.9558 18.3206 22.9701C18.3161 22.9843 18.3109 23.0008 18.3075 23.0143C18.3019 23.0285 18.2978 23.0443 18.2925 23.0593C18.2888 23.0728 18.2839 23.0893 18.2787 23.1035C18.274 23.1184 18.2689 23.1331 18.2633 23.1477L18.2483 23.1919C18.2428 23.2068 18.2377 23.2218 18.2329 23.2369C18.2273 23.2511 18.2217 23.2676 18.2168 23.2811C18.212 23.2946 18.2067 23.3111 18.2018 23.3261C18.1962 23.3396 18.1917 23.3561 18.1857 23.3703L18.1719 23.4104C18.1711 23.4104 18.1711 23.4104 18.17 23.4202C18.1639 23.435 18.1577 23.4497 18.1513 23.4644C18.1456 23.4794 18.1389 23.4944 18.1333 23.5093C18.1276 23.5243 18.1201 23.5393 18.1145 23.5524C18.1089 23.5674 18.1022 23.5824 18.095 23.5974C18.0879 23.6124 18.0838 23.6281 18.0771 23.6416C18.0716 23.657 18.0651 23.6721 18.0576 23.6866C18.0519 23.7008 18.0437 23.7166 18.0373 23.7308C18.031 23.7451 18.0235 23.7608 18.0163 23.7758C18.0092 23.7908 18.0032 23.8058 17.9954 23.82L17.9751 23.8642C17.9684 23.8785 17.9613 23.895 17.9541 23.9084L17.9324 23.9534C17.9238 23.9677 17.9174 23.9834 17.9084 23.9976L17.8852 24.0419C17.8777 24.0561 17.8702 24.0726 17.8619 24.0861C17.8537 24.0996 17.847 24.1161 17.8395 24.131C17.832 24.146 17.8233 24.161 17.8155 24.1753C17.8067 24.1897 17.7984 24.2044 17.7907 24.2195C17.781 24.2337 17.7728 24.2495 17.7645 24.2637C17.7563 24.2779 17.7458 24.2937 17.7383 24.3079C17.7308 24.3222 17.7203 24.3379 17.712 24.3529C17.7038 24.3679 17.6948 24.3829 17.6866 24.3971C17.6783 24.4114 17.6678 24.4278 17.6588 24.4413C17.6487 24.4563 17.6386 24.4713 17.6304 24.4856C17.6221 24.4998 17.6109 24.5163 17.6011 24.5305C17.5914 24.5448 17.5816 24.5605 17.5719 24.5755L17.5434 24.6197L17.5123 24.6639C17.5026 24.6782 17.4913 24.6939 17.4805 24.7082C17.4694 24.723 17.4585 24.738 17.4479 24.7531L17.4152 24.7973C16.8737 25.5244 16.1838 26.0498 15.4029 26.2409L14.0661 26.0797C14.9595 25.9621 15.6738 25.4314 16.2086 24.7973C16.2198 24.7831 16.2318 24.7674 16.2442 24.7531L16.2816 24.7082C16.293 24.6932 16.3046 24.6785 16.3165 24.6639C16.3277 24.6497 16.3397 24.634 16.3502 24.6197C16.3607 24.6055 16.3734 24.589 16.3839 24.5755L16.4177 24.5305C16.4288 24.5157 16.4396 24.5007 16.4503 24.4856C16.4611 24.4711 16.4715 24.4564 16.4814 24.4413C16.4926 24.4278 16.5024 24.4114 16.5125 24.3971C16.5226 24.3829 16.5327 24.3671 16.5425 24.3529C16.5522 24.3387 16.5634 24.3229 16.5724 24.3079C16.5814 24.2929 16.5919 24.2791 16.6017 24.2637C16.6114 24.2483 16.6204 24.2337 16.6302 24.2195C16.6399 24.2052 16.6489 24.1895 16.6579 24.1753C16.6669 24.161 16.6766 24.1453 16.6856 24.131C16.6946 24.1168 16.7036 24.1011 16.7118 24.0861C16.7216 24.0726 16.7298 24.0561 16.7381 24.0419L16.7636 23.9976C16.7728 23.9833 16.7813 23.9686 16.789 23.9534C16.7977 23.9384 16.8063 23.9234 16.8138 23.9084C16.8235 23.8942 16.831 23.8785 16.8393 23.8642L16.8625 23.82C16.8711 23.8058 16.8786 23.7893 16.8865 23.7758L16.9097 23.7308C16.9172 23.7166 16.9247 23.7001 16.9314 23.6866C16.9394 23.6718 16.9469 23.6568 16.9539 23.6416L16.9757 23.5974C16.9824 23.5832 16.9907 23.5674 16.9967 23.5524C17.0035 23.5379 17.0107 23.5235 17.0184 23.5093C17.024 23.4944 17.0315 23.4794 17.0386 23.4644C17.0457 23.4494 17.051 23.4344 17.0581 23.4202C17.0652 23.4059 17.0712 23.3902 17.0783 23.3759C17.0855 23.3617 17.0907 23.3452 17.0971 23.3317C17.1027 23.3167 17.1083 23.3017 17.1151 23.2867C17.1218 23.2718 17.1282 23.256 17.1338 23.2425L17.1511 23.1976C17.1567 23.1841 17.1623 23.1676 17.1683 23.1533L17.1863 23.1091C17.1919 23.0949 17.1975 23.0791 17.2013 23.0649C17.2068 23.05 17.2119 23.035 17.2166 23.0199C17.2223 23.0057 17.2279 22.9899 17.2316 22.9757L17.2466 22.9307C17.2515 22.9165 17.2579 22.9019 17.2616 22.8876C17.2635 22.8779 17.2653 22.8741 17.2672 22.8674C17.2691 22.8577 17.2721 22.8502 17.274 22.8434C17.2747 22.8434 17.2758 22.8337 17.2758 22.8337C17.2777 22.8232 17.2815 22.8149 17.2845 22.8037C17.2852 22.8037 17.2863 22.7939 17.2875 22.7939C17.2893 22.7842 17.2912 22.7805 17.2931 22.7752C17.295 22.7655 17.298 22.7591 17.2998 22.749C17.3047 22.7385 17.3073 22.7287 17.3096 22.719C17.3118 22.7093 17.3114 22.7093 17.3126 22.7085C17.3133 22.6988 17.3156 22.6988 17.3163 22.6935C17.3189 22.6838 17.3219 22.6748 17.3249 22.6665C17.3279 22.6583 17.3313 22.6478 17.3324 22.6377C17.3343 22.6377 17.3354 22.6279 17.3362 22.6272C17.338 22.6174 17.3399 22.6137 17.3418 22.6084C17.3437 22.5987 17.3455 22.5923 17.3485 22.5822C17.3529 22.5724 17.3558 22.5621 17.3572 22.5515C17.359 22.5515 17.3602 22.5417 17.3609 22.541C17.3628 22.5313 17.3647 22.5286 17.3658 22.5223C17.3677 22.5125 17.3714 22.5035 17.3733 22.496C17.3733 22.496 17.374 22.496 17.3751 22.4863C17.3763 22.4765 17.38 22.4675 17.3826 22.4574C17.3834 22.4477 17.3845 22.4477 17.3856 22.4462C17.3875 22.4364 17.3886 22.4338 17.3905 22.4274C17.3924 22.4177 17.3943 22.4102 17.3961 22.4012C17.3999 22.3907 17.4018 22.3825 17.4036 22.3712C17.4044 22.3712 17.4055 22.3615 17.4066 22.36C17.4085 22.3502 17.4096 22.3487 17.4115 22.3413C17.4132 22.3326 17.415 22.324 17.4171 22.3154C17.4197 22.3049 17.4227 22.2967 17.4246 22.2854C17.4265 22.2742 17.4265 22.2757 17.4276 22.2742C17.4295 22.2644 17.4306 22.2618 17.4325 22.2554L17.4381 22.2285C17.4419 22.218 17.4449 22.2097 17.4456 22.1996C17.4464 22.1895 17.4475 22.1899 17.4493 22.1872C17.4501 22.1775 17.4512 22.176 17.4523 22.17C17.4542 22.1603 17.4572 22.1513 17.4591 22.1438L17.4647 22.1138C17.4655 22.104 17.4666 22.104 17.4677 22.1014C17.4685 22.0917 17.4696 22.0902 17.4707 22.0842L17.4763 22.0564C17.4782 22.0467 17.4812 22.0377 17.482 22.0287C17.4827 22.0197 17.4838 22.019 17.4838 22.0152C17.4857 22.0055 17.4868 22.004 17.4887 21.998C17.4906 21.9882 17.4917 21.9792 17.4943 21.971C17.4969 21.9628 17.4992 21.9523 17.4999 21.941C17.5007 21.9298 17.5018 21.9313 17.5018 21.9275C17.5037 21.9178 17.5048 21.917 17.5048 21.9125C17.5067 21.9028 17.5097 21.8938 17.5116 21.8826L17.5172 21.8526C17.5179 21.8428 17.5191 21.8428 17.5191 21.8391C17.5198 21.8293 17.5209 21.8286 17.522 21.8219L17.5277 21.7949C17.5295 21.7851 17.5307 21.7746 17.5333 21.7649C17.534 21.7551 17.5352 21.7552 17.5352 21.7507C17.5359 21.7409 17.537 21.7402 17.537 21.7357L17.5427 21.7068C17.5445 21.6963 17.5464 21.6881 17.5483 21.678C17.5502 21.6678 17.5502 21.6682 17.5513 21.6645C17.552 21.6547 17.5532 21.654 17.5532 21.6483L17.5588 21.6206C17.5603 21.6094 17.5625 21.5996 17.5633 21.5899C17.564 21.5801 17.5651 21.5794 17.5663 21.5756C17.567 21.5659 17.5681 21.5652 17.5681 21.5607C17.57 21.5509 17.5711 21.5419 17.573 21.5307C17.5749 21.5194 17.5749 21.5119 17.5779 21.5018C17.5779 21.4921 17.5798 21.4913 17.5798 21.4868C17.5805 21.4771 17.5816 21.4771 17.5816 21.4726C17.5835 21.4628 17.5835 21.4539 17.5854 21.4426C17.5873 21.4314 17.5884 21.4239 17.5903 21.4126C17.5921 21.4014 17.5921 21.4021 17.5933 21.3984C17.594 21.3886 17.594 21.3886 17.5951 21.3834C17.597 21.3737 17.5981 21.3647 17.6 21.3545H17.6007C17.6026 21.3448 17.6037 21.3358 17.6056 21.3257C17.6075 21.3156 17.6075 21.3152 17.6075 21.3107C17.6075 21.301 17.6082 21.301 17.6094 21.2965C17.6112 21.286 17.6124 21.2777 17.6142 21.2665C17.6161 21.2552 17.6161 21.2455 17.618 21.2365C17.618 21.2268 17.6187 21.226 17.6199 21.2215C17.6206 21.2118 17.6217 21.211 17.6217 21.208C17.6225 21.1975 17.6236 21.1893 17.6247 21.1773C17.6259 21.1653 17.6277 21.1586 17.6296 21.1473C17.6296 21.1376 17.6315 21.1376 17.6315 21.1323C17.6322 21.1226 17.6333 21.1226 17.6333 21.1188C17.6341 21.1092 17.6354 21.0995 17.6371 21.09C17.639 21.0802 17.6401 21.0712 17.642 21.0611C17.642 21.0514 17.6438 21.0514 17.6438 21.045C17.6446 21.045 17.6446 21.0353 17.6457 21.0315C17.6476 21.0218 17.6487 21.0128 17.6495 21.0015C17.6502 20.9903 17.6521 20.9843 17.654 20.9746C17.6558 20.9648 17.6558 20.9641 17.6558 20.9573C17.6566 20.9573 17.6577 20.9476 17.6577 20.9449C17.6585 20.9352 17.6596 20.9262 17.6607 20.9161C17.6618 20.906 17.6626 20.8974 17.6645 20.8884C17.6645 20.8786 17.6652 20.8771 17.6663 20.8711C17.6671 20.8711 17.6671 20.8614 17.6671 20.8588C17.669 20.8483 17.669 20.8385 17.6701 20.828C17.6712 20.8175 17.6727 20.8093 17.6738 20.8018C17.6746 20.792 17.6757 20.7913 17.6757 20.7846C17.6757 20.7748 17.6764 20.7748 17.6776 20.7711C17.6783 20.7613 17.6794 20.7523 17.6806 20.7433C17.6824 20.7328 17.6824 20.7246 17.6824 20.7156C17.6843 20.7059 17.6843 20.7051 17.6843 20.6984C17.6851 20.6886 17.6851 20.6886 17.6862 20.6871C17.6869 20.6766 17.6881 20.6669 17.6899 20.6564C17.6918 20.6459 17.6918 20.6392 17.6918 20.6302C17.6918 20.6212 17.6926 20.6178 17.6937 20.6114C17.6937 20.6017 17.6937 20.6017 17.6944 20.6002C17.6952 20.5897 17.6963 20.5814 17.6963 20.5713C17.6963 20.5612 17.6989 20.5526 17.6989 20.5443C17.6989 20.5361 17.7008 20.5331 17.7008 20.5256L17.7016 20.5151C17.7023 20.5054 17.7034 20.4964 17.7046 20.4851C17.7057 20.4739 17.7053 20.4679 17.7064 20.4589C17.7075 20.4499 17.7072 20.4477 17.7083 20.4402C17.7083 20.4304 17.709 20.4304 17.7102 20.4297C17.7102 20.4199 17.712 20.4094 17.712 20.3997C17.7127 20.391 17.7136 20.3824 17.7147 20.3738C17.7154 20.3641 17.7154 20.3615 17.7165 20.3551V20.3446C17.7184 20.3341 17.7184 20.3244 17.7195 20.3146V20.3015C17.7203 20.2918 17.7214 20.2843 17.7214 20.2768C17.7214 20.267 17.7222 20.2644 17.7222 20.258C17.7222 20.2483 17.7222 20.2483 17.7229 20.2475C17.7229 20.237 17.7248 20.2273 17.7248 20.2168V20.2071C17.7255 20.1973 17.7267 20.1898 17.7267 20.1823C17.7267 20.1726 17.7274 20.17 17.7285 20.1621C17.7285 20.1621 17.7285 20.1524 17.7293 20.1516C17.73 20.1419 17.7312 20.1329 17.7312 20.1228V20.113C17.7319 20.1033 17.733 20.0969 17.733 20.0883C17.733 20.0797 17.7338 20.0759 17.7349 20.068L17.7357 20.0583C17.7364 20.0478 17.7375 20.0381 17.7375 20.0276V20.0178C17.7375 20.0081 17.7394 20.0017 17.7394 19.9938C17.7402 19.9841 17.7402 19.9796 17.7413 19.9729V19.9631C17.7432 19.9534 17.7432 19.9444 17.7432 19.9331C17.7432 19.9331 17.7439 19.9331 17.7439 19.9234C17.7439 19.9136 17.7446 19.9084 17.7458 19.8994C17.7469 19.8904 17.7458 19.8859 17.7465 19.8792C17.7473 19.8792 17.7473 19.8694 17.7473 19.8694C17.748 19.8597 17.7491 19.8507 17.7491 19.8394L17.7499 19.8297C17.7506 19.82 17.7506 19.8136 17.7518 19.8057V19.7847C17.7525 19.7847 17.7525 19.775 17.7525 19.775C17.7533 19.7645 17.7544 19.7547 17.7544 19.745V19.7353C17.7551 19.7255 17.7563 19.7203 17.7563 19.7128C17.7563 19.703 17.7581 19.6985 17.7581 19.6903V19.6805C17.7589 19.6701 17.76 19.6618 17.76 19.6506V19.6408C17.76 19.6311 17.76 19.6258 17.7608 19.6183C17.7615 19.6086 17.7615 19.6049 17.7615 19.5959C17.7623 19.5959 17.7623 19.5861 17.7623 19.5861C17.763 19.5764 17.763 19.5659 17.7641 19.5561L17.7649 19.5464C17.7649 19.5366 17.7649 19.5314 17.7656 19.5239C17.7664 19.5142 17.7664 19.5104 17.7664 19.5014L17.7671 19.4917C17.7679 19.4819 17.7679 19.4729 17.7679 19.4628C17.7686 19.4628 17.7686 19.4531 17.7686 19.4531C17.7694 19.4433 17.7694 19.4381 17.7694 19.4306C17.7701 19.4208 17.7713 19.4164 17.7713 19.4081V19.3984C17.772 19.3879 17.772 19.3781 17.772 19.3676L17.7728 19.3579C17.7728 19.3481 17.7746 19.3437 17.7746 19.3354C17.7746 19.3257 17.7746 19.3204 17.7754 19.3129V19.3032C17.7754 19.2934 17.7773 19.2844 17.7773 19.2732V19.2635C17.778 19.2537 17.778 19.2492 17.7791 19.241C17.7791 19.2312 17.7791 19.2267 17.7799 19.2185V19.2087C17.7806 19.199 17.7806 19.19 17.7806 19.1788C17.7806 19.1788 17.7806 19.169 17.7814 19.169C17.7814 19.1593 17.7821 19.1548 17.7821 19.1465C17.7821 19.1368 17.7821 19.1323 17.7829 19.1241V19.1143C17.7836 19.1038 17.7836 19.0941 17.7836 19.0843C17.7844 19.0843 17.7844 19.0746 17.7844 19.0746C17.7851 19.0648 17.7851 19.0611 17.7851 19.0536V19.0311C17.7851 19.0311 17.7859 19.0311 17.7859 19.0214C17.7859 19.0116 17.7859 19.0026 17.7866 18.9914V18.9816C17.7874 18.9719 17.7874 18.9674 17.7874 18.9607C17.7881 18.9509 17.7881 18.9457 17.7892 18.9367V18.9269C17.7892 18.9164 17.79 18.9067 17.79 18.8962L17.7907 18.8865V18.8329C17.7915 18.8231 17.7915 18.8141 17.7915 18.804V18.7935C17.7922 18.7838 17.7922 18.78 17.7922 18.7733C17.793 18.7635 17.793 18.7572 17.793 18.7493V18.7396C17.793 18.7298 17.7937 18.7193 17.7937 18.7096L17.7945 18.6991V18.6803C17.7945 18.6706 17.7952 18.6631 17.7952 18.6556V18.6459C17.796 18.6361 17.796 18.6271 17.796 18.6159V18.6151C17.7967 18.6054 17.7967 18.6017 17.7967 18.5964C17.7975 18.5867 17.7975 18.5792 17.7975 18.5702C17.7976 18.5603 17.7982 18.5504 17.7994 18.5406V18.4769C17.8001 18.4664 17.8001 18.4566 17.8012 18.4469V18.3922C17.8012 18.3922 17.802 18.3922 17.802 18.3824V18.297L17.8027 18.2872V18.2565L17.8035 18.246V18.1936C17.8042 18.1838 17.8042 18.1733 17.8042 18.1647C17.8042 18.1561 17.8042 18.155 17.805 18.1535V18.0673C17.805 18.0575 17.805 18.056 17.8057 18.0485V17.9931C17.8057 17.9833 17.8065 17.9833 17.8065 17.9807V17.8934C17.8065 17.8836 17.8072 17.8829 17.8072 17.8761V17.8499C17.8072 17.8394 17.8072 17.8297 17.808 17.8199V17.5441C17.808 17.5344 17.8087 17.5336 17.8087 17.528V6.22787L15.7817 7.31164L16.849 7.55073L16.8483 16.9614C16.8483 16.9711 16.8475 16.9801 16.8475 16.9914V17.109C16.8468 17.1188 16.8468 17.1278 16.8468 17.139V17.2271C16.846 17.2368 16.846 17.2458 16.846 17.2571V17.3605C16.8453 17.3702 16.8453 17.3702 16.8453 17.3747V17.4347C16.8445 17.4347 16.8445 17.4452 16.8445 17.4482V17.4931C16.8445 17.5036 16.8438 17.5119 16.8438 17.5209V17.5516C16.8438 17.5614 16.843 17.5703 16.843 17.5805V17.6378C16.8423 17.6475 16.8423 17.658 16.8423 17.6678V17.6948C16.8415 17.7045 16.8415 17.706 16.8415 17.712V17.7551C16.8415 17.7648 16.8415 17.7738 16.8408 17.7828V17.8128C16.84 17.8226 16.84 17.8315 16.84 17.8428C16.84 17.854 16.8393 17.86 16.8393 17.869V17.8997C16.8385 17.9095 16.8385 17.9185 16.8385 17.9297C16.8385 17.941 16.8378 17.9485 16.8378 17.9567V17.974C16.8378 17.9837 16.8378 17.9837 16.837 17.9863V18.0163C16.837 18.026 16.8363 18.0335 16.8363 18.0425V18.1025C16.8355 18.1122 16.8355 18.1197 16.8355 18.1287V18.1475C16.8355 18.1572 16.8355 18.1572 16.8348 18.1587V18.1969C16.834 18.2067 16.834 18.2142 16.834 18.2232C16.834 18.2322 16.8333 18.2344 16.8333 18.2419V18.2524C16.8325 18.2629 16.8325 18.2711 16.8325 18.2831V18.2929C16.8318 18.3026 16.8318 18.3101 16.8318 18.3191C16.8318 18.3281 16.831 18.3303 16.831 18.3378V18.3491C16.8303 18.3588 16.8303 18.3678 16.8303 18.3791V18.3888C16.8295 18.3985 16.8295 18.4049 16.8295 18.4135C16.8295 18.4221 16.8288 18.427 16.8288 18.4323V18.4428C16.828 18.4525 16.828 18.4615 16.828 18.4727V18.4825C16.8273 18.4922 16.8273 18.4986 16.8273 18.5072C16.8273 18.5158 16.8265 18.5196 16.8265 18.526V18.5357C16.8258 18.5462 16.8258 18.5559 16.8258 18.5657V18.5919C16.825 18.6017 16.825 18.6054 16.825 18.6106V18.6211C16.8243 18.6309 16.8243 18.6399 16.8231 18.6511V18.6609C16.8231 18.6706 16.8224 18.677 16.8224 18.6856C16.8224 18.6942 16.8216 18.698 16.8216 18.7043C16.8216 18.7141 16.8216 18.7141 16.8209 18.7148C16.8209 18.7246 16.8209 18.7351 16.8201 18.7456V18.7553C16.8201 18.765 16.8194 18.7714 16.8194 18.7793C16.8186 18.789 16.8186 18.7928 16.8186 18.7995C16.8186 18.7995 16.8186 18.8093 16.8179 18.81C16.8179 18.8198 16.8179 18.8287 16.8172 18.8389V18.8726C16.8164 18.8823 16.8164 18.885 16.8164 18.8928L16.8157 18.9026C16.8157 18.9131 16.8149 18.9228 16.8149 18.9333V18.943C16.8142 18.9528 16.8142 18.9592 16.8142 18.967C16.8134 18.9768 16.8134 18.9805 16.8134 18.988L16.8127 18.9978C16.8127 19.0083 16.8119 19.0165 16.8119 19.0277C16.8119 19.0277 16.8119 19.0375 16.8112 19.0375C16.8112 19.0472 16.8104 19.0525 16.8104 19.06C16.8104 19.0697 16.8097 19.0735 16.8097 19.081C16.8089 19.081 16.8089 19.0907 16.8089 19.0907C16.8088 19.1006 16.8082 19.1105 16.807 19.1203V19.13C16.807 19.1398 16.8063 19.145 16.8063 19.1525C16.8063 19.1623 16.8063 19.1668 16.8044 19.175V19.1848C16.8037 19.1953 16.8037 19.205 16.8025 19.2147V19.2245C16.8025 19.2342 16.8025 19.2395 16.8018 19.247C16.8018 19.2567 16.801 19.2605 16.801 19.2695C16.801 19.2695 16.801 19.2792 16.8003 19.2792C16.8003 19.2889 16.7995 19.2979 16.7995 19.3092C16.7988 19.3092 16.7988 19.3189 16.7988 19.3189C16.7988 19.3287 16.798 19.3339 16.798 19.3414C16.7973 19.3511 16.7973 19.3556 16.7962 19.3639V19.3646C16.7954 19.3751 16.7954 19.3849 16.7943 19.3954V19.4051C16.7943 19.4149 16.7943 19.4193 16.7935 19.4276C16.7935 19.4373 16.7928 19.4418 16.7917 19.4501V19.4598C16.7909 19.4696 16.7898 19.4786 16.7898 19.4887C16.789 19.4887 16.789 19.4984 16.789 19.4984C16.7883 19.5082 16.7883 19.5127 16.7872 19.5209C16.7872 19.5307 16.7864 19.5351 16.7864 19.5434C16.7857 19.5434 16.7857 19.5531 16.7857 19.5531C16.7849 19.5629 16.7849 19.5734 16.7849 19.5839V19.5936C16.7849 19.6034 16.7842 19.6078 16.783 19.6161C16.783 19.6258 16.7823 19.6303 16.7823 19.6386C16.7815 19.6386 16.7815 19.6386 16.7815 19.6483C16.7815 19.6581 16.7808 19.6671 16.7797 19.6783L16.7789 19.688C16.7789 19.6978 16.7782 19.7023 16.7771 19.7105C16.7771 19.7203 16.7763 19.7266 16.7763 19.733L16.7756 19.7428C16.7748 19.7525 16.7748 19.7615 16.7748 19.7727V19.7825C16.7748 19.7922 16.7741 19.7967 16.7741 19.8035C16.7733 19.8132 16.7722 19.8185 16.7722 19.8275V19.8372C16.7714 19.8469 16.7703 19.8559 16.7703 19.8672C16.7703 19.8784 16.7696 19.8769 16.7696 19.8769C16.7688 19.8867 16.7688 19.8904 16.7677 19.8972C16.7677 19.9069 16.7669 19.9133 16.7669 19.9211C16.7662 19.9211 16.7662 19.9211 16.7662 19.9309C16.7662 19.9406 16.7643 19.9496 16.7643 19.9609C16.7643 19.9609 16.7643 19.9706 16.7636 19.9706C16.7636 19.9803 16.7628 19.9841 16.7617 19.9916C16.7617 20.0013 16.7609 20.0066 16.7598 20.0156V20.0253C16.7591 20.0358 16.7579 20.0456 16.7579 20.056C16.7572 20.056 16.7572 20.0658 16.7572 20.0658C16.7564 20.0755 16.7553 20.08 16.7553 20.086C16.7546 20.0958 16.7534 20.1033 16.7534 20.1108V20.1205C16.7527 20.1302 16.7516 20.1392 16.7516 20.1494L16.7508 20.1599C16.7501 20.1696 16.7501 20.1733 16.7489 20.1801C16.7482 20.1898 16.7471 20.1951 16.7471 20.2048V20.2146C16.7463 20.2251 16.7452 20.2348 16.7441 20.2453V20.2558C16.7433 20.2655 16.7422 20.2693 16.7422 20.2745C16.7415 20.2843 16.7403 20.2918 16.7403 20.2993C16.7396 20.2993 16.7396 20.2993 16.7396 20.309C16.7396 20.3187 16.7377 20.3277 16.7377 20.339C16.737 20.339 16.737 20.3487 16.737 20.3495C16.737 20.3592 16.7362 20.3618 16.7351 20.3682C16.7343 20.378 16.7332 20.3854 16.7332 20.3944C16.7332 20.4034 16.7306 20.4132 16.7306 20.4244L16.7298 20.4349C16.7298 20.4447 16.7291 20.4473 16.728 20.4537C16.7272 20.4634 16.7261 20.4724 16.7261 20.4799C16.7242 20.4896 16.7242 20.5001 16.7231 20.5099C16.722 20.5196 16.7223 20.5196 16.7223 20.5204C16.7216 20.5301 16.7216 20.5338 16.7205 20.5391C16.7197 20.5488 16.7186 20.5563 16.7186 20.5653C16.7186 20.5743 16.716 20.5841 16.7148 20.5942C16.7137 20.6043 16.7141 20.6039 16.713 20.6054C16.7122 20.6152 16.7111 20.6178 16.7111 20.6242C16.7111 20.6339 16.7092 20.6429 16.7092 20.6504C16.7085 20.6609 16.7073 20.6706 16.7062 20.6811C16.7051 20.6916 16.7055 20.6909 16.7044 20.6924C16.7036 20.7021 16.7025 20.7036 16.7025 20.7096C16.7006 20.7193 16.7006 20.7283 16.6995 20.7373C16.6984 20.7463 16.6969 20.7561 16.6969 20.7651C16.6969 20.7741 16.6961 20.7748 16.695 20.7786C16.6942 20.7883 16.6931 20.7898 16.6931 20.7958C16.6924 20.8055 16.6912 20.813 16.6912 20.822C16.6905 20.8325 16.6886 20.8423 16.6886 20.8528C16.6886 20.8633 16.6879 20.8625 16.6867 20.8651C16.686 20.8749 16.6849 20.8764 16.6849 20.8824C16.683 20.8921 16.683 20.9011 16.6819 20.9101C16.6807 20.9191 16.6789 20.9288 16.677 20.939C16.677 20.9487 16.6762 20.9487 16.6751 20.9513C16.6744 20.9611 16.6744 20.9626 16.6732 20.9686C16.6714 20.9783 16.6714 20.9873 16.6695 20.9955C16.6676 21.006 16.6665 21.0158 16.6658 21.0263C16.665 21.0368 16.6639 21.036 16.6639 21.0398C16.6631 21.0495 16.662 21.051 16.662 21.0559C16.6613 21.0656 16.6601 21.0746 16.659 21.0847C16.6579 21.0948 16.6571 21.1035 16.6553 21.1136C16.6534 21.1237 16.6534 21.1233 16.6534 21.1271C16.6526 21.1368 16.6515 21.1376 16.6515 21.1421C16.6508 21.1518 16.6496 21.1608 16.6485 21.1709C16.6461 21.181 16.6446 21.1913 16.644 21.2016C16.6433 21.2114 16.6421 21.2114 16.6421 21.2151C16.6414 21.2249 16.6403 21.2256 16.6403 21.2301C16.6384 21.2399 16.6373 21.2489 16.6354 21.259C16.6335 21.2691 16.6317 21.2792 16.6305 21.2897C16.6294 21.3002 16.6287 21.2995 16.6287 21.304C16.6287 21.3137 16.6279 21.3144 16.6268 21.3189C16.6249 21.3287 16.6238 21.3377 16.6219 21.3478V21.3489C16.6189 21.3594 16.617 21.3677 16.6163 21.3778C16.6155 21.3879 16.6144 21.3883 16.6144 21.3928C16.6137 21.4025 16.6125 21.4025 16.6125 21.407C16.6107 21.4168 16.6095 21.4272 16.6077 21.437C16.6058 21.4467 16.6047 21.4557 16.6039 21.467C16.6032 21.4782 16.602 21.4775 16.6009 21.4812C16.6002 21.491 16.599 21.4917 16.599 21.4962C16.5972 21.5067 16.5961 21.5149 16.5934 21.5251L16.5878 21.555L16.5848 21.57C16.5841 21.5798 16.5829 21.5798 16.5818 21.5843C16.5811 21.594 16.5788 21.603 16.5769 21.6142L16.5713 21.642C16.5706 21.6517 16.5694 21.6525 16.5683 21.6581C16.5683 21.6678 16.5664 21.6678 16.5664 21.6716C16.5646 21.6813 16.5634 21.6903 16.5608 21.7004C16.5582 21.7106 16.5571 21.7192 16.556 21.7293L16.553 21.7443C16.5522 21.754 16.5511 21.754 16.55 21.7585C16.5481 21.7683 16.547 21.7773 16.5443 21.7885C16.5417 21.7997 16.5398 21.8072 16.538 21.8155C16.5361 21.8237 16.5361 21.826 16.535 21.8327C16.5342 21.8425 16.5331 21.8425 16.532 21.8462C16.5301 21.856 16.5271 21.865 16.5252 21.8751C16.5233 21.8852 16.5215 21.8953 16.5196 21.9058C16.5177 21.9163 16.5177 21.9163 16.5166 21.9208C16.5159 21.9305 16.5147 21.9305 16.5136 21.9343C16.5117 21.944 16.5087 21.9545 16.508 21.9643C16.5072 21.974 16.5031 21.983 16.5024 21.9912C16.5016 21.9995 16.5005 22.0025 16.4986 22.0085C16.4979 22.0182 16.4967 22.0182 16.4967 22.022C16.4937 22.0317 16.4911 22.0407 16.4892 22.0497C16.4874 22.0587 16.4847 22.0684 16.4818 22.0774C16.481 22.0872 16.4788 22.0879 16.478 22.0947C16.4773 22.0947 16.4761 22.1044 16.475 22.107L16.4675 22.137C16.4649 22.1468 16.4619 22.1543 16.46 22.1632C16.4581 22.1722 16.4581 22.1745 16.4563 22.1805C16.4544 22.1902 16.4544 22.1902 16.4533 22.1929C16.4514 22.2033 16.4476 22.2116 16.4458 22.2217C16.4426 22.2305 16.4401 22.2395 16.4383 22.2487C16.4364 22.2584 16.4353 22.2599 16.4334 22.2674C16.4315 22.2674 16.4315 22.2772 16.4315 22.2787C16.4297 22.2787 16.4297 22.2884 16.4285 22.2899C16.4267 22.2997 16.4248 22.3012 16.4229 22.3072C16.4192 22.3169 16.4165 22.3259 16.4135 22.3334C16.4128 22.3431 16.4098 22.3458 16.4087 22.3521C16.4068 22.3619 16.4068 22.3619 16.4049 22.3634C16.4019 22.3739 16.3993 22.3821 16.3963 22.3933C16.3933 22.4046 16.3907 22.4121 16.3877 22.4196C16.3858 22.4293 16.3839 22.4319 16.3828 22.4383C16.3809 22.4383 16.3809 22.4481 16.3791 22.4496L16.3705 22.4784C16.3697 22.4784 16.3686 22.4784 16.3686 22.4882C16.3656 22.4979 16.363 22.5054 16.3611 22.5144C16.3592 22.5234 16.3562 22.5249 16.3543 22.5316C16.3536 22.5316 16.3525 22.5414 16.3513 22.5421L16.3427 22.5728C16.3378 22.5826 16.3352 22.5916 16.333 22.5991C16.3311 22.6088 16.3281 22.6114 16.3262 22.6178C16.3262 22.6178 16.3244 22.6276 16.3232 22.6283C16.3202 22.6381 16.3165 22.6478 16.3124 22.6572C16.3086 22.6669 16.306 22.6759 16.3019 22.6841C16.3 22.6939 16.2981 22.6976 16.2963 22.7029C16.2944 22.7126 16.2944 22.7126 16.2933 22.7134C16.2895 22.7231 16.2865 22.7321 16.2831 22.7434C16.2798 22.7546 16.2764 22.7606 16.2734 22.7696C16.2704 22.7786 16.2685 22.782 16.2659 22.7883C16.2659 22.7883 16.264 22.7981 16.2629 22.7988C16.2588 22.8085 16.2552 22.8184 16.252 22.8284C16.2513 22.8284 16.2502 22.8284 16.2502 22.8382C16.2472 22.8479 16.2445 22.8532 16.2415 22.8622C16.2385 22.8711 16.2359 22.8745 16.2329 22.8824C16.2282 22.8969 16.2231 22.9113 16.2176 22.9255C16.2119 22.9405 16.2063 22.9562 16.2003 22.9705L16.1823 23.0147C16.1767 23.0297 16.17 23.0447 16.1643 23.0596C16.1587 23.0731 16.1531 23.0896 16.1464 23.1039C16.1396 23.1181 16.1332 23.1338 16.1261 23.1481C16.119 23.1623 16.1149 23.1788 16.1074 23.1923C16.1018 23.2073 16.095 23.223 16.0879 23.2373C16.0808 23.2515 16.0748 23.2673 16.0684 23.2815C16.062 23.2957 16.0545 23.3115 16.0474 23.3265C16.041 23.3414 16.0343 23.3561 16.0272 23.3707C16.0204 23.3849 16.0122 23.3995 16.0054 23.4149C15.9977 23.4295 15.9902 23.4442 15.983 23.4591C15.9761 23.4743 15.9689 23.4893 15.9612 23.5041L15.938 23.5472L15.9148 23.5922C15.9073 23.6064 15.8998 23.6221 15.8908 23.6364C15.8829 23.6515 15.8746 23.6665 15.866 23.6814C15.8574 23.6956 15.8499 23.7121 15.8413 23.7256C15.8327 23.7391 15.8233 23.7563 15.8158 23.7705C15.8061 23.784 15.7978 23.8005 15.7888 23.8148L15.7619 23.859C15.7532 23.8732 15.7439 23.889 15.7341 23.9032L15.7064 23.9482L15.6772 23.9924L15.6472 24.0366C15.6371 24.0509 15.6277 24.0666 15.618 24.0808L15.5854 24.1258C15.5752 24.1393 15.5644 24.1558 15.5535 24.17C15.5426 24.1843 15.531 24.2 15.5198 24.2142C15.5085 24.2285 15.4973 24.245 15.486 24.2585C15.4748 24.2735 15.4621 24.2884 15.4504 24.3027C15.4388 24.3169 15.4265 24.3334 15.4141 24.3477L15.3766 24.3919L15.338 24.4361C15.3242 24.4522 15.311 24.4661 15.2968 24.4803L15.2556 24.5253C15.2406 24.5395 15.2271 24.5553 15.2121 24.5703L15.1679 24.6145C15.1518 24.6287 15.136 24.6445 15.1207 24.6587C15.1053 24.6729 15.0888 24.6887 15.072 24.7029C15.0551 24.7172 15.0393 24.7336 15.0225 24.7479C15.0056 24.7621 14.9876 24.7779 14.97 24.7921C14.7208 24.9956 14.4791 25.1286 14.2662 25.2073L12.8621 25.0394C12.7542 25.0393 12.6465 25.0303 12.5402 25.0125C12.7264 25.5783 13.1675 25.9748 13.6393 26.0513C13.8057 26.5084 14.2434 26.9083 14.7111 27.0174C15.0809 27.6439 15.7229 27.9681 16.4229 27.9973C17.3759 28.0374 18.1505 27.6226 18.8936 27.1279C19.6926 26.5733 20.3053 25.7844 20.7647 24.7917C20.7704 24.7775 20.7779 24.7617 20.785 24.7475C20.7921 24.7333 20.7973 24.7168 20.8037 24.7025C20.8101 24.6883 20.8168 24.6726 20.8239 24.6583C20.8311 24.6441 20.8363 24.6283 20.8434 24.6141C20.8495 24.5992 20.856 24.5844 20.8629 24.5699C20.8685 24.5549 20.876 24.5391 20.8824 24.5249C20.8888 24.5107 20.8948 24.4949 20.9011 24.4799C20.9075 24.4649 20.9135 24.4511 20.9199 24.4357C20.9255 24.4222 20.9311 24.4057 20.936 24.3915C20.9409 24.3773 20.9472 24.3615 20.9547 24.3473C20.9622 24.333 20.966 24.3173 20.9727 24.3023L20.99 24.2581L21.0079 24.2139C21.0136 24.1996 21.0192 24.1839 21.0229 24.1696C21.0267 24.1554 21.0342 24.1389 21.0402 24.1254C21.0439 24.1104 21.0503 24.0954 21.0552 24.0805L21.0713 24.0362C21.0762 24.022 21.0825 24.0063 21.0874 23.992C21.0923 23.9778 21.0975 23.962 21.1035 23.9478C21.1095 23.9336 21.1136 23.9178 21.1185 23.9028C21.1241 23.8893 21.1282 23.8728 21.1335 23.8586C21.1387 23.8444 21.1432 23.8286 21.1485 23.8144C21.1537 23.8001 21.1582 23.7837 21.1623 23.7702L21.1773 23.7252C21.1822 23.711 21.1871 23.6952 21.1912 23.681L21.2062 23.636C21.2111 23.6218 21.2148 23.606 21.2201 23.5918C21.2253 23.5775 21.2287 23.5618 21.2332 23.5468C21.238 23.5333 21.2418 23.518 21.2463 23.5037C21.2508 23.4895 21.2538 23.4737 21.2587 23.4588C21.2635 23.4438 21.2688 23.4288 21.2725 23.4145C21.2763 23.4003 21.28 23.3846 21.2849 23.3703C21.2887 23.3554 21.2931 23.3407 21.298 23.3261C21.3018 23.3111 21.3066 23.2954 21.3104 23.2811L21.3216 23.2369C21.3254 23.2227 21.3291 23.2069 21.334 23.1919C21.337 23.1784 21.3407 23.162 21.3452 23.1477C21.3497 23.1335 21.352 23.1189 21.3565 23.1035C21.361 23.0881 21.3662 23.0735 21.3688 23.0593L21.3801 23.0143C21.3831 23.0001 21.3876 22.9843 21.3913 22.9701C21.3951 22.9558 21.3981 22.9401 21.4014 22.9251C21.4052 22.9116 21.4082 22.8963 21.4127 22.882C21.4145 22.8723 21.4145 22.8685 21.4164 22.8618C21.418 22.8537 21.4198 22.8457 21.422 22.8378C21.4228 22.8378 21.4228 22.8281 21.4239 22.8281C21.4258 22.8176 21.4288 22.8093 21.4295 22.7981C21.4303 22.7868 21.4314 22.7883 21.4325 22.7876C21.4344 22.7778 21.4355 22.7741 21.4374 22.7688C21.4393 22.7591 21.4412 22.7527 21.443 22.7426C21.4468 22.7321 21.4487 22.7239 21.4516 22.7126C21.4524 22.7029 21.4535 22.7029 21.4535 22.7021C21.4554 22.6924 21.4573 22.6898 21.4591 22.6834C21.4608 22.6747 21.4627 22.6661 21.4648 22.6575C21.4674 22.6478 21.4711 22.6388 21.4711 22.6287C21.473 22.6287 21.473 22.6189 21.4741 22.6182C21.476 22.6084 21.476 22.6047 21.4779 22.5995C21.4798 22.5897 21.4809 22.5822 21.4828 22.5732C21.4865 22.5635 21.4895 22.553 21.4902 22.5432C21.4921 22.5432 21.4921 22.5335 21.4932 22.5327C21.494 22.523 21.4951 22.5204 21.4962 22.514C21.4979 22.5054 21.4998 22.4967 21.5019 22.4882C21.5019 22.4882 21.5026 22.4882 21.5026 22.4784C21.5045 22.4687 21.5075 22.4597 21.5082 22.4496C21.509 22.4394 21.5101 22.4398 21.5101 22.4383C21.512 22.4286 21.5131 22.4259 21.5131 22.4196L21.5187 22.3926C21.5214 22.3829 21.5244 22.3739 21.5251 22.3626C21.5259 22.3626 21.527 22.3529 21.527 22.3514C21.5288 22.3416 21.53 22.3401 21.5307 22.3341C21.5326 22.3244 21.5337 22.3154 21.5363 22.3072C21.539 22.2989 21.5401 22.2869 21.5427 22.2772C21.5435 22.2674 21.5446 22.2674 21.5446 22.2659C21.5465 22.2562 21.5465 22.2536 21.5483 22.2472C21.5502 22.2375 21.5513 22.23 21.5532 22.2202C21.5551 22.2105 21.557 22.2015 21.56 22.1914C21.5607 22.1816 21.5618 22.1816 21.5618 22.179C21.5637 22.1692 21.5637 22.1677 21.5648 22.1618C21.5665 22.1531 21.5684 22.1445 21.5704 22.1359L21.5761 22.1059C21.5768 22.0962 21.5779 22.0962 21.5791 22.0935C21.5798 22.0838 21.5809 22.0823 21.5821 22.0763L21.5877 22.0486C21.5892 22.0388 21.5914 22.0298 21.5933 22.0208C21.5952 22.0119 21.5952 22.0111 21.5963 22.0074C21.5963 21.9976 21.5982 21.9961 21.5982 21.9901L21.6038 21.9631L21.6094 21.9332C21.6102 21.9234 21.6113 21.9234 21.6113 21.9197C21.612 21.9099 21.6132 21.9092 21.6143 21.9047C21.6162 21.8949 21.6173 21.8859 21.6192 21.8747C21.6207 21.865 21.6218 21.856 21.6237 21.8458C21.6255 21.8357 21.6255 21.8361 21.6267 21.8316C21.6267 21.8219 21.6285 21.8211 21.6285 21.8144C21.6304 21.8046 21.6315 21.7956 21.6334 21.7874C21.6353 21.7791 21.6364 21.7671 21.6383 21.7574C21.6401 21.7477 21.6401 21.7477 21.6401 21.7439C21.6409 21.7342 21.642 21.7334 21.6431 21.7289C21.645 21.7192 21.6461 21.7102 21.648 21.7001C21.6499 21.6899 21.6518 21.6813 21.6529 21.6712C21.654 21.6611 21.6548 21.6615 21.6548 21.6577C21.6566 21.648 21.6566 21.6472 21.6578 21.6416C21.6596 21.6319 21.6608 21.6229 21.6626 21.6139V21.6127C21.6645 21.6023 21.6656 21.5925 21.6675 21.5828C21.6694 21.573 21.6683 21.5723 21.6694 21.5685L21.6724 21.5535C21.6742 21.5438 21.6754 21.5348 21.6772 21.5236C21.678 21.5138 21.6791 21.5048 21.6821 21.4947C21.6821 21.485 21.6829 21.485 21.684 21.4797C21.6859 21.47 21.6859 21.4692 21.6859 21.4655C21.6876 21.4557 21.6888 21.4458 21.6896 21.4359C21.6915 21.4261 21.6926 21.4171 21.6934 21.4059C21.6941 21.3946 21.6952 21.3961 21.6952 21.3916L21.6982 21.3767C21.7001 21.3669 21.7001 21.3579 21.7012 21.3478V21.3467L21.7069 21.3178C21.7069 21.3081 21.7087 21.3073 21.7087 21.3028C21.7106 21.2931 21.7106 21.2931 21.7106 21.2893C21.7125 21.2788 21.7136 21.2706 21.7162 21.2594C21.717 21.2489 21.7181 21.2406 21.7192 21.2305C21.7203 21.2204 21.7211 21.22 21.7211 21.2155C21.7218 21.2058 21.723 21.2058 21.723 21.2013C21.7248 21.1915 21.7248 21.181 21.7267 21.1705C21.7286 21.1601 21.7286 21.1518 21.7305 21.1406C21.7323 21.1293 21.7323 21.1308 21.7323 21.1256C21.7323 21.1158 21.7331 21.1158 21.7331 21.1121C21.735 21.1023 21.7361 21.0933 21.738 21.0832C21.7398 21.0731 21.7398 21.0645 21.741 21.0544C21.7421 21.0443 21.7428 21.0446 21.744 21.0383C21.744 21.0383 21.744 21.0285 21.7447 21.0248C21.7464 21.015 21.7477 21.0051 21.7484 20.9952C21.7492 20.9854 21.7503 20.9779 21.7514 20.9682C21.7526 20.9584 21.7533 20.9577 21.7544 20.9509C21.7544 20.9412 21.7552 20.9412 21.7563 20.9386C21.7571 20.9288 21.7582 20.9198 21.7593 20.9097C21.7604 20.8996 21.7612 20.891 21.7631 20.882C21.7649 20.873 21.7649 20.8707 21.7649 20.8647C21.7657 20.8647 21.7657 20.855 21.7668 20.8524C21.7687 20.8419 21.7687 20.8321 21.7706 20.8217C21.7724 20.8112 21.7724 20.8029 21.7736 20.7954C21.7743 20.7857 21.7754 20.7849 21.7754 20.7782C21.7762 20.7684 21.7762 20.7684 21.7773 20.7647C21.7781 20.7549 21.7792 20.746 21.7803 20.737C21.7814 20.728 21.7822 20.7182 21.7833 20.7092C21.7844 20.7002 21.7852 20.6987 21.7852 20.692C21.7859 20.6822 21.787 20.6822 21.787 20.6807C21.7889 20.6703 21.7889 20.6605 21.79 20.65C21.7912 20.6395 21.7919 20.6328 21.793 20.6238C21.7942 20.6148 21.7949 20.6114 21.7949 20.6051C21.7949 20.5953 21.7957 20.5953 21.7968 20.5938C21.7968 20.5833 21.7987 20.5751 21.7987 20.565C21.7987 20.5548 21.8013 20.5462 21.8024 20.5387C21.8032 20.529 21.8032 20.5275 21.8043 20.52L21.805 20.5095C21.8058 20.4996 21.807 20.4897 21.8088 20.4799C21.8107 20.4701 21.8107 20.4626 21.8118 20.4537C21.8129 20.4447 21.8125 20.4424 21.8125 20.4349C21.8125 20.4252 21.8133 20.4252 21.8144 20.4244C21.8152 20.4147 21.8163 20.4042 21.8174 20.3944C21.8185 20.3847 21.8193 20.3772 21.8193 20.3682C21.8193 20.3592 21.82 20.3558 21.8211 20.3495C21.8211 20.3397 21.8212 20.3397 21.8219 20.339C21.8226 20.3292 21.8238 20.3202 21.8249 20.309V20.2993C21.8256 20.2895 21.8268 20.282 21.8268 20.2745C21.8275 20.2648 21.8275 20.2622 21.8286 20.2558V20.2453C21.8305 20.2355 21.8305 20.2251 21.8316 20.2146C21.8316 20.2146 21.8324 20.2146 21.8324 20.2048C21.8324 20.1951 21.8343 20.1876 21.8343 20.1801C21.835 20.1703 21.8361 20.1677 21.8361 20.1599C21.8369 20.1599 21.838 20.1501 21.838 20.1494C21.8388 20.1396 21.8399 20.1306 21.841 20.1205V20.1108C21.8429 20.101 21.8429 20.0946 21.8429 20.086C21.8429 20.0774 21.8448 20.0737 21.8448 20.0658L21.8455 20.056C21.8463 20.0456 21.8474 20.0358 21.8474 20.0253C21.8474 20.0242 21.8481 20.0253 21.8481 20.0156C21.8481 20.0058 21.8489 19.9983 21.85 19.9916C21.85 19.9818 21.8508 19.9781 21.8519 19.9706V19.9609C21.8526 19.9504 21.8538 19.9421 21.8538 19.9309V19.9211C21.8545 19.9114 21.8545 19.9061 21.8545 19.8972C21.8564 19.8874 21.8564 19.8837 21.8564 19.8769C21.8583 19.8769 21.8583 19.8672 21.8583 19.8672C21.8583 19.8574 21.8582 19.8484 21.8601 19.8372V19.8275C21.8609 19.8177 21.862 19.8113 21.862 19.8035C21.8627 19.7937 21.8627 19.79 21.8639 19.7825C21.8646 19.7825 21.8646 19.7727 21.8646 19.7727C21.8654 19.763 21.8665 19.7525 21.8665 19.7428C21.8672 19.7428 21.8672 19.7428 21.8672 19.733C21.8672 19.7233 21.8691 19.718 21.8691 19.7105C21.8699 19.7008 21.871 19.697 21.871 19.688C21.8717 19.688 21.8717 19.6783 21.8729 19.6783C21.8729 19.6678 21.8747 19.6596 21.8747 19.6483V19.6386C21.8747 19.6288 21.8755 19.6236 21.8766 19.6161C21.8766 19.6063 21.8774 19.6026 21.8785 19.5936V19.5839C21.8792 19.5741 21.8804 19.5636 21.8804 19.5539V19.5441C21.8811 19.5344 21.8822 19.5292 21.8822 19.5217C21.8822 19.5119 21.8822 19.5074 21.883 19.4992V19.4894C21.8837 19.4797 21.8849 19.4707 21.8849 19.4606C21.8856 19.4606 21.8856 19.4508 21.8867 19.4508C21.8867 19.4411 21.8875 19.4358 21.8875 19.4283C21.8882 19.4186 21.8894 19.4149 21.8894 19.4059C21.8901 19.4059 21.8901 19.3961 21.8901 19.3961C21.892 19.3856 21.892 19.3759 21.892 19.3654C21.8927 19.3654 21.8927 19.3556 21.8927 19.3556C21.8935 19.3459 21.8935 19.3414 21.8946 19.3332C21.8954 19.3234 21.8953 19.3182 21.8965 19.3107L21.8972 19.3009C21.8972 19.2904 21.8991 19.2822 21.8991 19.271L21.8998 19.2612C21.9006 19.2515 21.9006 19.247 21.9017 19.2387C21.9025 19.229 21.9025 19.2245 21.9036 19.2162L21.9043 19.2065C21.9044 19.1966 21.9051 19.1867 21.9062 19.1769V19.1671C21.907 19.1574 21.907 19.1529 21.9081 19.1447C21.9081 19.1349 21.9088 19.1304 21.91 19.1222V19.1124C21.9107 19.1019 21.9107 19.0922 21.9107 19.0825V19.0727C21.9115 19.063 21.9126 19.0592 21.9126 19.0517C21.9126 19.042 21.9133 19.0367 21.9145 19.0292V19.0195C21.9152 19.0098 21.9163 19.0008 21.9163 18.9895C21.9163 18.9895 21.9163 18.9798 21.9171 18.9798C21.9171 18.97 21.9178 18.9655 21.9178 18.9588C21.9186 18.949 21.9197 18.9438 21.9197 18.9348V18.9251C21.9205 18.9146 21.9205 18.9048 21.9205 18.8943L21.9212 18.8846C21.922 18.8748 21.922 18.8703 21.922 18.8643C21.9238 18.8546 21.9238 18.8482 21.9238 18.8404V18.8306C21.9246 18.8209 21.9257 18.8119 21.9257 18.8018L21.9265 18.7913C21.9272 18.7815 21.9272 18.7778 21.9283 18.771C21.9283 18.7613 21.9291 18.7549 21.9291 18.7471V18.7373C21.9291 18.7268 21.9298 18.7171 21.9298 18.7066V18.6961C21.9306 18.6863 21.9306 18.6826 21.9317 18.6774C21.9317 18.6676 21.9317 18.6601 21.9325 18.6526V18.6429C21.9332 18.6331 21.9332 18.6241 21.9332 18.6129L21.9339 18.6024C21.9347 18.5927 21.9347 18.5889 21.9347 18.5837C21.9347 18.5739 21.9354 18.5664 21.9366 18.5574V18.5477C21.9367 18.5378 21.9373 18.5279 21.9384 18.5181V18.5083C21.9384 18.4986 21.9384 18.4948 21.9392 18.4896C21.9399 18.4799 21.9399 18.4735 21.9399 18.4649V18.4551C21.9407 18.4446 21.9418 18.4349 21.9418 18.4251V18.4147C21.9426 18.4049 21.9426 18.4023 21.9437 18.3959C21.9437 18.3862 21.9437 18.3787 21.9444 18.3712V18.3614C21.9452 18.3517 21.9452 18.3412 21.9452 18.3315L21.9459 18.3202C21.9467 18.3105 21.9467 18.309 21.9467 18.3015C21.9467 18.2917 21.9474 18.2842 21.9474 18.2752V18.2404L21.9482 18.2299C21.9482 18.2202 21.9482 18.2175 21.9489 18.2112V18.1849C21.9497 18.1752 21.9497 18.1647 21.9508 18.1561V18.1448C21.9508 18.1351 21.9508 18.1325 21.9516 18.1261C21.9516 18.1164 21.9523 18.1089 21.9523 18.0999C21.9523 18.0894 21.9531 18.0796 21.9531 18.0691V18.0579C21.9538 18.0482 21.9538 18.0467 21.9538 18.0392C21.9538 18.0294 21.9546 18.0204 21.9546 18.0129C21.9553 18.0024 21.9553 17.9942 21.9553 17.9829V17.953C21.9561 17.9432 21.9561 17.9342 21.9561 17.926C21.9561 17.9155 21.9568 17.9057 21.9568 17.896C21.9568 17.8863 21.9576 17.8863 21.9576 17.8825V17.8653C21.9576 17.8555 21.9583 17.8465 21.9583 17.839C21.9583 17.8285 21.9591 17.8188 21.9591 17.8091V17.7791C21.9591 17.7693 21.9591 17.7603 21.9598 17.7514C21.9598 17.7409 21.9606 17.7326 21.9606 17.7214V17.6906C21.9606 17.6809 21.9606 17.6719 21.9613 17.6637V17.6337C21.9621 17.6239 21.9621 17.6239 21.9621 17.6202V17.5475C21.9621 17.5377 21.9628 17.537 21.9628 17.5332V17.489C21.9636 17.4785 21.9636 17.468 21.9636 17.4583C21.9636 17.4486 21.9636 17.4486 21.9643 17.4441V17.3406C21.9643 17.3309 21.9643 17.3219 21.9651 17.3118V17.2226C21.9651 17.2121 21.9651 17.2023 21.9658 17.1919V17.0165C21.9658 17.0067 21.9666 17.006 21.9666 17.0004V4L19.8766 5.12049" fill="#E6DAFE"/>
</svg>
