<svg width="32" height="32" viewBox="0 0 32 32" fill="none" xmlns="http://www.w3.org/2000/svg">
<path d="M16.0013 27.8976L19.3589 9.01448C22.5592 9.01448 23.5687 9.36542 23.7145 10.7978C23.7145 10.7978 25.8613 9.99735 26.9442 8.37157C22.7187 6.41359 18.4731 6.32529 18.4731 6.32529L15.9957 9.3427L16.0013 9.34232L13.5239 6.32482C13.5239 6.32482 9.27825 6.41321 5.05338 8.37119C6.13525 9.99697 8.28298 10.7975 8.28298 10.7975C8.42959 9.36494 9.43782 9.01401 12.6167 9.01174L16.0013 27.8976Z" fill="#E6DAFE"/>
<path d="M16 5.45372C19.4157 5.4276 23.3253 5.98211 27.3276 7.72648C27.8625 6.76368 28 6.33816 28 6.33816C23.6249 4.60723 19.5277 4.01486 15.9995 4C12.4715 4.01486 8.3745 4.60733 4 6.33816C4 6.33816 4.19515 6.86229 4.67197 7.72648C8.67348 5.98211 12.5838 5.4276 15.9995 5.45372H16Z" fill="#E6DAFE"/>
</svg>
