<svg width="32" height="32" viewBox="0 0 32 32" fill="none" xmlns="http://www.w3.org/2000/svg">
<path d="M5.86799 20.2192C5.0933 20.1886 4.45949 19.9776 3.9639 19.5857C3.86931 19.5109 3.64394 19.2864 3.56832 19.1917C3.36736 18.9402 3.23072 18.6954 3.13959 18.4238C2.85916 17.5878 3.00349 16.4907 3.55241 15.2867C4.0224 14.2559 4.74761 13.2336 6.01285 11.8177C6.19923 11.6093 6.75425 11 6.75783 11C6.75916 11 6.72891 11.0522 6.69084 11.1157C6.36186 11.6641 6.08037 12.3102 5.92703 12.8695C5.68069 13.7669 5.7104 14.537 6.01405 15.1342C6.2235 15.5456 6.5826 15.902 6.98639 16.099C7.6933 16.4437 8.72826 16.4723 9.99217 16.1824C10.0792 16.1624 14.3912 15.0231 19.5745 13.6506C24.7578 12.2779 28.9993 11.1558 29 11.1567C29.0015 11.1579 16.9578 16.2874 10.7057 18.9485C9.71559 19.3699 9.45082 19.4763 8.98534 19.6389C7.79544 20.0548 6.72957 20.2533 5.86799 20.2192Z" fill="#E6DAFE"/>
</svg>
