<svg width="32" height="32" viewBox="0 0 32 32" fill="none" xmlns="http://www.w3.org/2000/svg">
<path d="M9.19049 11.7716C9.13023 11.6793 9.06227 11.5934 8.98534 11.5152C8.59044 11.1023 7.1057 9.49321 7.1057 9.49321C6.84926 9.22909 6.46462 8.81751 6.17869 8.46748C5.96073 8.21233 5.80687 7.91103 5.72609 7.58536C5.3876 6.11472 5.14527 4.62357 5.00039 3.12088C4.99526 3.05933 5.04142 3.00548 5.10296 3.00035C5.13502 2.99779 5.16707 3.00933 5.19015 3.03112L11.0278 8.39184L11.1086 8.46492C11.2227 8.58544 11.3189 8.68161 11.424 8.79828C11.692 9.10728 11.9151 9.45218 12.0869 9.82401C12.3331 10.3343 12.5421 10.8626 12.7113 11.4036L13.6832 14.9847C13.6998 15.0424 13.7255 15.1373 13.7422 15.195L13.9768 16.0258C13.9922 16.0835 14.0178 16.1784 14.0345 16.2361L14.5474 18.0478C14.5627 18.1055 14.5897 18.1991 14.6063 18.2568L15.0936 19.9518C15.1102 20.0082 15.1372 20.1031 15.1538 20.1608L15.5385 21.4891C15.5551 21.5468 15.5821 21.6417 15.6 21.6994L15.7987 22.3764C15.8154 22.4341 15.8359 22.5046 15.8423 22.5392C15.8487 22.5738 15.8667 22.5982 15.8821 22.5982C15.8975 22.5982 15.9257 22.552 15.9475 22.4969L21.6775 7.65459C21.7031 7.59562 21.7608 7.55587 21.8262 7.5533H27.2933C27.3305 7.54818 27.3651 7.5751 27.369 7.61228C27.3702 7.62639 27.369 7.64049 27.3613 7.65331L18.7708 28.8987C18.7439 28.9577 18.6862 28.9962 18.6221 29H13.1819C13.1177 28.9962 13.0613 28.9564 13.0383 28.8961L9.68156 18.8953C9.52642 18.4491 9.33794 18.017 9.11484 17.6003C8.9238 17.2375 8.69814 16.8938 8.44171 16.5746C7.98911 16.0092 7.34931 15.1886 6.93132 14.6513C6.65438 14.2923 6.47744 13.8654 6.41846 13.4153L5.89918 9.97274C5.90688 9.90992 5.96457 9.86632 6.02612 9.87401C6.0492 9.87658 6.07099 9.88684 6.08894 9.90222L6.99543 10.8472L7.14416 11.0062L10.1098 14.2116C10.1495 14.2552 10.1688 14.2449 10.1508 14.1872C10.147 14.1923 9.59052 12.3909 9.19177 11.7716H9.19049Z" fill="#E6DAFE"/>
</svg>
