<svg width="32" height="32" viewBox="0 0 32 32" fill="none" xmlns="http://www.w3.org/2000/svg">
<path d="M13.0831 14.289C12.8701 14.289 12.7189 14.3722 12.6191 14.5241C12.5532 14.6236 12.51 14.7519 12.4874 14.9059H13.6449C13.6336 14.757 13.6048 14.6246 13.5379 14.5241C13.4371 14.3722 13.2961 14.289 13.0831 14.289Z" fill="#E6DAFE"/>
<path d="M19.6031 14.3013C19.3891 14.3013 19.2379 14.3742 19.1381 14.5261C19.0383 14.679 18.9868 14.8966 18.9868 15.1738C18.9868 15.4509 19.0373 15.6705 19.1381 15.8245C19.2379 15.9774 19.3902 16.0513 19.6031 16.0513C19.8161 16.0513 19.9694 15.9764 20.0703 15.8235C20.1721 15.6685 20.2236 15.4503 20.2236 15.1742C20.2236 14.8971 20.1721 14.679 20.0703 14.5261C19.9694 14.3752 19.8172 14.3013 19.6031 14.3013Z" fill="#E6DAFE"/>
<path d="M9.89255 15.2641C9.74645 15.2415 9.59932 15.2292 9.45219 15.2271C9.12089 15.223 8.97994 15.3441 8.98096 15.3441C8.88322 15.4129 8.83589 15.5155 8.83589 15.6572C8.83589 15.7475 8.85236 15.8183 8.88425 15.8676C8.90586 15.9004 8.91409 15.9127 8.97788 15.9641C8.97788 15.9641 9.12295 16.079 9.45322 16.0595C9.68575 16.0452 9.89152 16.001 9.89152 16.001V15.2651L9.89255 15.2641Z" fill="#E6DAFE"/>
<path d="M23.9605 8.64805C23.1199 8.64805 22.2896 8.82459 21.522 9.16637C20.6577 7.63707 19.0527 6.61069 17.2007 6.61069C15.8117 6.61069 14.5544 7.19162 13.6511 8.12973V8.13486C12.6644 6.8365 11.0902 6 9.33079 6C6.32645 6 3.888 8.42225 3.888 11.4193C3.888 12.1603 4.03924 12.8942 4.33556 13.5747C2.9404 14.3958 2 15.9148 2 17.6596C2 20.2564 4.08863 22.3707 6.67112 22.3707C6.99419 22.3707 7.31623 22.3379 7.6321 22.2712C8.34203 24.1905 10.1837 25.5556 12.3547 25.5556C14.5256 25.5556 16.2181 24.2931 16.9846 22.497C17.5876 22.7905 18.2491 22.9414 18.9189 22.9403C20.5651 22.9403 22.0107 22.0269 22.767 20.6823C23.1559 20.7593 23.553 20.8004 23.9605 20.8004C27.294 20.8004 30 18.0805 30 14.7242C30 11.368 27.294 8.64805 23.9605 8.64805ZM8.01896 15.6941C8.01896 16.1847 7.66194 16.4896 7.08782 16.4896C6.80591 16.4896 6.53634 16.4454 6.25031 16.2946C6.19681 16.2638 6.14331 16.2361 6.09084 16.1981C6.08466 16.1899 6.061 16.1806 6.07849 16.1344L6.19167 15.8193C6.20916 15.766 6.25031 15.7834 6.26677 15.7937C6.29764 15.8122 6.3213 15.8296 6.36143 15.8532C6.69582 16.0636 7.00448 16.0657 7.1012 16.0657C7.35019 16.0657 7.50555 15.9333 7.50555 15.7557V15.7465C7.50555 15.5535 7.26685 15.4796 6.99111 15.3955L6.9304 15.377C6.55177 15.2692 6.14639 15.1132 6.14639 14.6349V14.6257C6.14639 14.172 6.51371 13.8549 7.03946 13.8549H7.09708C7.40575 13.8549 7.70412 13.9442 7.92019 14.0755C7.93974 14.0868 7.95929 14.1094 7.94797 14.1402C7.93768 14.1689 7.84199 14.4255 7.83068 14.4543C7.8101 14.5076 7.75454 14.4717 7.75454 14.4717C7.56625 14.3681 7.27199 14.2859 7.02506 14.2859C6.80282 14.2859 6.65878 14.404 6.65878 14.5641V14.5733C6.65878 14.7601 6.90468 14.8402 7.18968 14.9326L7.23907 14.949C7.61564 15.067 8.01896 15.2323 8.01896 15.6859V15.6941ZM10.3741 16.3254C10.3741 16.3254 10.3144 16.3418 10.2599 16.3541C10.1241 16.3839 9.98824 16.4095 9.8514 16.4331C9.69089 16.4598 9.52524 16.4742 9.35856 16.4742C9.19189 16.4742 9.05607 16.4598 8.92849 16.43C8.79988 16.4013 8.68876 16.3531 8.59822 16.2874C8.50768 16.2217 8.43463 16.1344 8.38627 16.0339C8.33688 15.9322 8.31219 15.8081 8.31219 15.6644C8.31219 15.5207 8.341 15.3975 8.39862 15.2908C8.45521 15.185 8.53649 15.0937 8.63423 15.0239C8.73198 14.9541 8.84618 14.9007 8.97273 14.8669C9.09826 14.833 9.23304 14.8156 9.37194 14.8156C9.4738 14.8156 9.5592 14.8176 9.62505 14.8227L9.6271 14.8268C9.6271 14.8268 9.75571 14.8381 9.89461 14.8587V14.7899C9.89461 14.5744 9.84934 14.4717 9.76086 14.404C9.67032 14.3342 9.5345 14.2993 9.35959 14.2993C9.35959 14.2993 8.9645 14.2942 8.65275 14.4635C8.63835 14.4717 8.626 14.4768 8.626 14.4768C8.626 14.4768 8.5869 14.4902 8.5725 14.4502L8.45726 14.1422C8.43977 14.0971 8.47167 14.0776 8.47167 14.0776C8.61777 13.9637 8.97171 13.8949 8.97171 13.8949C9.089 13.8713 9.28551 13.8549 9.40692 13.8549C9.73102 13.8549 9.98104 13.9298 10.1518 14.0786C10.3237 14.2274 10.4101 14.4686 10.4101 14.793V16.271C10.4101 16.271 10.4142 16.3151 10.3741 16.3254ZM11.4626 16.3777C11.4626 16.4044 11.4431 16.427 11.4163 16.427H10.9863C10.9585 16.427 10.94 16.4054 10.94 16.3777V12.9219C10.94 12.8952 10.9595 12.8726 10.9863 12.8726H11.4163C11.4431 12.8726 11.4626 12.8942 11.4626 12.9219V16.3777ZM14.1521 15.2641C14.148 15.3062 14.1048 15.3062 14.1048 15.3062H12.4792C12.4884 15.5515 12.5481 15.7249 12.6675 15.844C12.7847 15.96 12.972 16.0349 13.223 16.0349C13.6089 16.0359 13.7735 15.9579 13.8898 15.9148C13.8898 15.9148 13.935 15.8984 13.9505 15.9435L14.0564 16.2402C14.078 16.2905 14.0606 16.3079 14.0431 16.3171C13.9422 16.3736 13.6953 16.4773 13.2261 16.4793C12.9977 16.4793 12.8002 16.4475 12.6366 16.3839C12.472 16.3202 12.3351 16.2299 12.2281 16.1139C12.1221 15.999 12.0429 15.8604 11.9935 15.7023C11.9441 15.5453 11.9195 15.3718 11.9195 15.185C11.9195 14.9982 11.9431 14.8279 11.9904 14.6688C12.0378 14.5076 12.1119 14.367 12.2106 14.248C12.3094 14.1289 12.4349 14.0335 12.5841 13.9637C12.7333 13.8939 12.9175 13.86 13.1202 13.86C13.2796 13.86 13.4381 13.8918 13.5852 13.9544C13.6871 13.9975 13.7889 14.0766 13.8939 14.1884C13.9597 14.2593 14.0606 14.4142 14.1017 14.5672C14.2056 14.9315 14.1542 15.2466 14.1521 15.2641ZM15.4928 16.4885C15.2108 16.4885 14.9413 16.4444 14.6553 16.2935C14.6017 16.2627 14.5482 16.235 14.4958 16.1971C14.4896 16.1888 14.4659 16.1796 14.4834 16.1334L14.5956 15.8183C14.612 15.767 14.6604 15.7855 14.6707 15.7927C14.7015 15.8122 14.7252 15.8286 14.7653 15.8522C15.0987 16.0626 15.4084 16.0647 15.5051 16.0647C15.7541 16.0647 15.9095 15.9322 15.9095 15.7547V15.7454C15.9095 15.5525 15.6718 15.4786 15.395 15.3944L15.3343 15.376C14.9557 15.2682 14.5503 15.1122 14.5503 14.6339V14.6246C14.5503 14.171 14.9176 13.8538 15.4434 13.8538H15.501C15.8097 13.8538 16.108 13.9431 16.3241 14.0745C16.3436 14.0858 16.3632 14.1094 16.3519 14.1392C16.3426 14.1679 16.2469 14.4245 16.2356 14.4532C16.215 14.5066 16.1595 14.4707 16.1595 14.4707C15.9702 14.367 15.6769 14.2849 15.43 14.2849C15.2078 14.2849 15.0637 14.4029 15.0637 14.5631V14.5723C15.0637 14.7591 15.3096 14.8392 15.5946 14.9315L15.644 14.948C16.0216 15.066 16.4239 15.2312 16.4239 15.6849V15.6941C16.4239 16.1847 16.0669 16.4885 15.4928 16.4885ZM18.3335 14.2993C18.3242 14.3475 18.279 14.3465 18.279 14.3465H17.744L17.3787 16.4105C17.3406 16.624 17.2923 16.8067 17.2357 16.9545C17.1791 17.1033 17.1194 17.2121 17.0248 17.3168C16.9373 17.4133 16.8385 17.4852 16.7254 17.5262C16.6122 17.5673 16.4764 17.5878 16.3272 17.5878C16.2562 17.5878 16.1801 17.5868 16.0895 17.5652C16.0247 17.5498 15.9887 17.5385 15.9414 17.5221C15.9208 17.5149 15.9053 17.4893 15.9167 17.4574C15.928 17.4246 16.0237 17.1629 16.037 17.128C16.0535 17.0859 16.0957 17.1023 16.0957 17.1023C16.1245 17.1146 16.1451 17.1228 16.1831 17.1311C16.2222 17.1382 16.2737 17.1454 16.3138 17.1454C16.3848 17.1454 16.4486 17.1372 16.5052 17.1177C16.5731 17.0951 16.6122 17.0561 16.6533 17.0038C16.6966 16.9494 16.7305 16.8745 16.7665 16.7739C16.8025 16.6723 16.8355 16.5378 16.8643 16.3746L17.2285 14.3485H16.8694C16.8262 14.3485 16.8118 14.329 16.8169 14.2962L16.8776 13.9596C16.8869 13.9103 16.9322 13.9123 16.9322 13.9123H17.3005L17.3201 13.8025C17.3756 13.4772 17.4847 13.2308 17.6462 13.0687C17.8088 12.9055 18.0403 12.8223 18.3335 12.8223C18.4076 12.8223 18.4817 12.8275 18.5537 12.8398C18.6082 12.849 18.6617 12.8624 18.7142 12.8778C18.7255 12.8819 18.7564 12.8973 18.744 12.9342L18.6195 13.2739C18.6092 13.2996 18.602 13.315 18.5496 13.2986C18.5362 13.2945 18.5166 13.2893 18.4662 13.278C18.4302 13.2709 18.3819 13.2647 18.3325 13.2647C18.2738 13.2647 18.2152 13.2719 18.1586 13.2893C18.1072 13.3057 18.0608 13.3355 18.0228 13.3735C17.9827 13.4145 17.9343 13.473 17.9086 13.5459C17.8489 13.7173 17.8252 13.899 17.8232 13.9113H18.3417C18.3849 13.9113 18.3994 13.9308 18.3952 13.9637L18.3345 14.3003L18.3335 14.2993ZM20.702 15.6869C20.6547 15.846 20.5816 15.9856 20.4839 16.1026C20.3861 16.2196 20.2616 16.313 20.1155 16.3797C19.9694 16.4465 19.7966 16.4803 19.6021 16.4803C19.4077 16.4803 19.2348 16.4465 19.0877 16.3797C18.9416 16.313 18.8171 16.2196 18.7193 16.1026C18.6216 15.9856 18.5485 15.846 18.5012 15.6869C18.4539 15.5289 18.4302 15.3565 18.4302 15.1727C18.4302 14.989 18.4539 14.8166 18.5012 14.6585C18.5485 14.4994 18.6216 14.3598 18.7193 14.2428C18.8171 14.1258 18.9416 14.0314 19.0877 13.9637C19.2348 13.8959 19.4066 13.861 19.6021 13.861C19.7976 13.861 19.9705 13.8959 20.1166 13.9637C20.2637 14.0314 20.3872 14.1258 20.4849 14.2428C20.5826 14.3598 20.6557 14.4994 20.703 14.6585C20.7493 14.8166 20.773 14.99 20.773 15.1727C20.773 15.3554 20.7493 15.5289 20.702 15.6869ZM22.6908 13.9883V13.9811C22.6764 14.0252 22.5972 14.2469 22.5694 14.3208C22.5591 14.3485 22.5416 14.3681 22.5097 14.365C22.5097 14.365 22.4171 14.3434 22.3317 14.3434C22.2577 14.3434 22.1846 14.3537 22.1136 14.3742C22.0385 14.3978 21.9696 14.4389 21.913 14.4943C21.8543 14.5518 21.806 14.6318 21.771 14.7324C21.735 14.834 21.7175 14.9952 21.7175 15.1573V16.3685C21.7175 16.3951 21.6959 16.4177 21.6681 16.4177H21.2422C21.2154 16.4177 21.1928 16.3962 21.1928 16.3685V13.9565C21.1928 13.9298 21.2123 13.9072 21.2391 13.9072H21.6547C21.6825 13.9072 21.701 13.9288 21.701 13.9565V14.1535C21.7628 14.0694 21.8739 13.9965 21.9747 13.9513C22.0766 13.9062 22.1898 13.8713 22.3935 13.8846C22.4994 13.8908 22.6373 13.9205 22.6651 13.9308C22.6877 13.9401 22.6991 13.9667 22.6888 13.9883H22.6908ZM24.7414 16.3531C24.5603 16.4249 24.3082 16.4742 24.0623 16.4742C23.6466 16.4742 23.3277 16.3551 23.1157 16.119C22.9038 15.884 22.7968 15.5628 22.7968 15.1666C22.7968 14.9828 22.8235 14.8094 22.875 14.6513C22.9275 14.4922 23.0057 14.3527 23.1085 14.2356C23.2114 14.1186 23.3411 14.0242 23.4944 13.9565C23.6477 13.8887 23.8267 13.8538 24.0284 13.8538C24.1642 13.8538 24.2846 13.862 24.3885 13.8774C24.4996 13.8939 24.6467 13.9339 24.7085 13.9585C24.7198 13.9626 24.7506 13.978 24.7383 14.015C24.693 14.1422 24.6622 14.2254 24.62 14.3414C24.6025 14.3906 24.5644 14.3742 24.5644 14.3742C24.406 14.3249 24.2547 14.3013 24.0572 14.3013C23.8205 14.3013 23.6415 14.3814 23.5252 14.5354C23.4069 14.6914 23.3421 14.8946 23.3411 15.1655C23.34 15.4632 23.4141 15.6828 23.5468 15.8193C23.6785 15.9559 23.8637 16.0246 24.0952 16.0246C24.1889 16.0246 24.2774 16.0185 24.3576 16.0061C24.4368 15.9938 24.5109 15.9692 24.5809 15.9425C24.5809 15.9425 24.6261 15.9251 24.6416 15.9713L24.7599 16.2956C24.7753 16.3356 24.7404 16.352 24.7404 16.352L24.7414 16.3531ZM27.1469 15.2631C27.1428 15.3051 27.0996 15.3051 27.0996 15.3051H25.4739C25.4832 15.5504 25.5429 15.7239 25.6622 15.843C25.7795 15.9589 25.9658 16.0339 26.2178 16.0339C26.6037 16.0349 26.7683 15.9569 26.8845 15.9138C26.8845 15.9138 26.9298 15.8974 26.9452 15.9425L27.0512 16.2391C27.0728 16.2894 27.0553 16.3069 27.0378 16.3161C26.937 16.3726 26.6901 16.4762 26.2209 16.4783C25.9935 16.4783 25.795 16.4465 25.6314 16.3828C25.4667 16.3192 25.3299 16.2289 25.2229 16.1129C25.1159 15.9979 25.0367 15.8594 24.9873 15.7013C24.9389 15.5443 24.9142 15.3708 24.9142 15.184C24.9142 14.9972 24.9379 14.8268 24.9852 14.6678C25.0326 14.5066 25.1066 14.366 25.2054 14.2469C25.3042 14.1279 25.4297 14.0324 25.5789 13.9626C25.7281 13.8928 25.9122 13.859 26.1149 13.859C26.2744 13.859 26.4329 13.8908 26.58 13.9534C26.6819 13.9965 26.7837 14.0755 26.8887 14.1874C26.9545 14.2582 27.0553 14.4132 27.0965 14.5661H27.0986C27.2025 14.9305 27.149 15.2456 27.1469 15.2631Z" fill="#E6DAFE"/>
<path d="M26.0779 14.289C25.8649 14.289 25.7137 14.3722 25.6139 14.5241C25.547 14.6236 25.5048 14.7519 25.4822 14.9059H26.6397C26.6283 14.757 26.5995 14.6246 26.5327 14.5241C26.4318 14.3722 26.2909 14.289 26.0779 14.289Z" fill="#E6DAFE"/>
</svg>
