<svg width="32" height="32" viewBox="0 0 32 32" fill="none" xmlns="http://www.w3.org/2000/svg">
<path d="M18.1047 11.1394C18.0014 11.3199 17.7677 11.3699 17.5636 11.4491C17.5673 11.5378 17.6286 11.5694 17.6417 11.6503H18.1213C18.2385 11.5665 18.2859 11.4124 18.4 11.3251C18.5456 11.3341 18.6624 11.3724 18.8022 11.3868V11.6809C18.9975 11.7395 19.1852 11.8969 19.034 12.1301C19.2035 12.3 19.4123 12.1377 19.5601 12.052C19.708 11.9384 19.8849 11.8687 20.0706 11.8508C20.1291 11.9164 20.0676 12.0154 20.086 12.1295C20.2522 12.1611 20.4599 12.0332 20.3334 11.8508C20.6232 11.7786 20.8175 11.5315 21.1842 11.588C21.2009 11.6201 21.2105 11.6554 21.2124 11.6915C21.2143 11.7276 21.2085 11.7638 21.1953 11.7975C21.1821 11.8312 21.1619 11.8616 21.136 11.8869C21.11 11.9121 21.079 11.9315 21.045 11.9438C21.0687 11.9939 21.0894 12.0454 21.1069 12.098C21.3151 12.1812 21.473 12.0067 21.6173 11.9899C21.8433 11.9639 22.0497 12.1143 22.267 12.1599C22.2407 12.2935 22.1018 12.3142 21.9888 12.3611C22.0169 12.4052 22.088 12.4062 22.1124 12.454C22.2254 12.3788 22.3558 12.3336 22.4912 12.3228C22.6266 12.3119 22.7625 12.3358 22.8861 12.3921C22.8166 12.4678 22.729 12.5245 22.6316 12.557C22.5342 12.5895 22.4301 12.5967 22.3291 12.5778C22.2737 12.6755 22.1454 12.7536 22.1899 12.9026C22.303 12.918 22.4399 12.7575 22.6228 12.7169C22.9157 12.6522 23.2926 12.6542 23.3965 12.8405C23.385 12.9012 23.3358 12.9248 23.3184 12.9797C23.2288 12.9484 23.1409 12.9123 23.0552 12.8715C22.9337 12.916 22.8149 12.9677 22.6996 13.0262C22.5914 13.1812 22.4871 13.3398 22.3899 13.5058C22.4875 13.6083 22.814 13.7036 22.9314 13.5523C22.9142 13.4519 22.9369 13.3487 22.9947 13.2648C23.0524 13.1809 23.1407 13.1229 23.2407 13.1031C23.3149 13.0797 23.3498 13.218 23.4264 13.2424C23.4102 13.3343 23.2897 13.3222 23.2565 13.397C23.5231 13.5023 23.5582 13.2228 23.7361 13.1494C23.7925 13.2016 23.8808 13.2213 23.9368 13.273C23.9407 13.4986 23.683 13.463 23.674 13.6753C23.9757 13.8788 24.351 13.5972 24.4161 13.3195C24.6848 13.3146 24.7463 13.5517 24.6789 13.7991C24.6152 13.8141 24.553 13.8349 24.4932 13.8614C24.5287 14.1324 24.7148 14.291 25.0501 14.217V14.0317C25.2751 13.9397 25.5817 13.7946 25.839 13.9536C25.7826 14.1149 25.5801 14.2613 25.468 14.4179C25.7113 14.4752 25.9493 14.5529 26.1796 14.6501V14.8048C26.0298 14.8341 25.7658 14.8489 25.7467 14.6966C25.6588 14.6961 25.571 14.7012 25.4838 14.7118C25.3915 14.8339 25.467 14.8968 25.4993 15.037C25.3538 15.0926 25.2202 15.16 25.0814 15.2227C25.08 15.2793 25.122 15.3439 25.0968 15.3773C24.9818 15.4222 24.8564 15.4568 24.8492 15.6091C24.9416 15.6286 25.0373 15.6262 25.1287 15.6021C25.22 15.578 25.3045 15.5329 25.3753 15.4703C25.5098 15.3773 25.6322 15.3094 25.6535 15.1295C25.7972 15.151 25.9685 15.1448 26.1027 15.176C26.2406 15.1054 26.3748 15.0279 26.5049 14.9438C26.5696 14.984 26.6366 15.0201 26.7057 15.052C26.6328 15.1287 26.5016 15.1469 26.4428 15.2379C26.5922 15.4722 27.23 15.0741 27.2318 15.5162C27.0938 15.5442 26.9544 15.5649 26.8142 15.5781C26.8646 15.7538 27.0757 15.7704 27.2163 15.8563C27.3882 15.7921 27.5751 15.7798 27.7539 15.8211C27.9327 15.8623 28.0954 15.9551 28.2218 16.0881C28.1284 16.135 28.0302 16.1714 27.9289 16.1967C28.0863 16.2403 28.2861 16.2418 28.455 16.2748C28.5075 16.382 28.5805 16.4687 28.6249 16.5845C28.5272 16.6572 28.3854 16.6851 28.4237 16.8935C28.3537 16.862 28.2813 16.8359 28.2074 16.8153C28.1529 16.8796 28.1292 16.9739 28.0527 17.0165C27.785 17.0471 27.7348 16.8603 27.6194 16.7382C27.6619 16.6673 27.7141 16.606 27.7586 16.5371C27.66 16.496 27.5559 16.4697 27.4497 16.459C27.3911 16.5242 27.3765 16.6333 27.3257 16.7066C27.3722 16.8124 27.3708 16.9019 27.4184 16.9848C27.5161 17.1553 27.7719 17.2204 27.7125 17.4799C27.6004 17.5074 27.4868 17.5281 27.3722 17.5418C27.3345 17.4861 27.2765 17.4518 27.294 17.3406C27.2189 17.3287 27.1769 17.2836 27.0781 17.2942C26.9949 17.4398 27 17.5795 26.8148 17.5574C26.618 17.5336 26.585 17.2418 26.5055 17.093C26.4169 17.1459 26.3383 17.2139 26.2733 17.2942C26.2862 17.3608 26.3128 17.4241 26.3514 17.4799C26.0669 17.5176 25.7656 17.4213 25.5625 17.558C25.4983 17.6226 25.4791 17.7324 25.4079 17.7902C25.2311 17.8081 25.0542 17.7583 24.9128 17.6507C24.9632 17.6055 25.0206 17.569 25.0829 17.5426C25.0832 17.4437 25.0935 17.3452 25.1136 17.2485C25.0675 17.1403 24.9556 17.0975 24.8972 17.0011C24.7429 17.2141 24.3049 17.5262 24.2475 17.0165C24.1108 16.9634 24.0015 17.1204 23.8607 17.1401C23.5969 17.177 23.3545 17.0425 23.1335 17.1401C22.9435 17.2239 22.9251 17.4096 22.7312 17.4959C22.7182 17.5826 22.6758 17.6623 22.6111 17.7214C22.5463 17.7805 22.4632 17.8156 22.3756 17.8206C22.2631 17.8282 22.1546 17.7449 22.0198 17.79C21.8556 17.8445 21.7292 18.0202 21.5707 18.1303C21.3903 18.2918 21.1715 18.4042 20.9352 18.4566C20.6925 18.4857 20.4765 18.4176 20.177 18.4566C19.9495 18.4863 19.829 18.6865 19.6048 18.8124C19.2041 19.038 18.664 19.0384 18.3207 19.1835C18.1962 19.4377 18.1479 19.7225 18.1814 20.0036C18.1891 20.0655 18.2312 20.1343 18.2433 20.2048C18.2885 20.4705 18.2578 20.5873 18.5363 20.6223C19.1588 20.7004 19.9032 20.6314 20.5476 20.6842C21.1766 20.7355 21.8825 20.7301 22.5125 20.7769C24.4526 20.9216 26.3948 21.0556 28.2208 21.2874C28.8192 21.3426 29.4134 21.4357 30 21.566C29.6636 21.582 29.3264 21.5613 28.9945 21.5041C27.2062 21.3409 25.3204 21.2466 23.4406 21.1638C16.7856 20.8709 9.51076 20.9982 3.2828 21.5817C3.30486 21.5022 3.41168 21.5141 3.4685 21.5036C4.52124 21.3173 5.64584 21.2134 6.77923 21.1013C8.36546 20.9451 9.98177 20.8084 11.6369 20.7303C11.964 20.715 12.3399 20.7107 12.6735 20.6842C13.4294 20.6223 14.304 20.6106 15.0404 20.5141C15.1855 20.4946 15.4101 20.425 15.4273 20.2819C15.4359 20.2087 15.3989 20.0981 15.3962 19.9726C15.3923 19.78 15.4593 19.593 15.4116 19.4617C15.3404 19.2665 14.8969 19.1913 14.7465 19.0442C14.4808 19.0341 14.2583 19.1376 13.9883 19.1223C13.7973 19.1112 13.6186 19.0116 13.4313 19.0142C13.2009 19.0171 12.997 19.1362 12.7662 19.1378C12.4823 19.1397 12.1888 19.1038 11.8998 19.0913C11.6411 19.0847 11.3829 19.064 11.1265 19.0292C10.8593 18.9874 10.5942 18.8587 10.3063 18.8285C10.0329 18.7992 9.75427 18.9075 9.47093 18.8591C9.29771 18.8298 9.13896 18.6443 8.94485 18.6117C8.68158 18.5877 8.41631 18.5982 8.15574 18.6427C7.94855 18.7078 7.80775 18.9747 7.52148 19.0138C7.18287 19.0603 6.954 18.9306 6.65503 18.8122C6.57224 18.8587 6.52732 18.9429 6.4539 18.9982C6.05026 18.9474 6.08951 18.4395 5.58745 18.4721C5.37909 18.4854 5.24748 18.6478 5.04595 18.7039L4.72121 18.4871C4.84325 17.8929 4.15666 18.0634 4.00962 18.3014V18.5955C3.89811 18.6051 3.74482 18.5203 3.63859 18.5334C3.57864 18.541 3.49877 18.6373 3.4068 18.657C3.16563 18.7095 2.6665 18.6441 2.63311 18.4717C2.58859 18.2399 2.90162 18.2161 2.89634 18.0073C2.89244 17.8575 2.71766 17.8913 2.80339 17.7144C2.61868 17.742 2.4304 17.6978 2.27732 17.5908C2.37663 17.4273 2.50195 17.281 2.64834 17.1579C2.55832 17.0468 2.28591 17.1176 2.12227 17.0798C2.02131 16.8935 2.14472 16.7695 2.23084 16.6464C2.1496 16.5529 1.99338 16.5357 2.00022 16.3846C2.00647 16.2283 2.26892 16.1965 2.41811 16.1063C2.55754 16.0094 2.67367 15.8826 2.75809 15.7353C2.82207 15.7571 2.89179 15.755 2.95435 15.7294C3.01692 15.7038 3.06811 15.6564 3.09845 15.596C3.23241 15.6171 3.34177 15.6622 3.46948 15.6888C3.49955 15.6429 3.42066 15.5738 3.40777 15.5189C3.4576 15.4193 3.53208 15.334 3.62414 15.2713C3.71084 15.3494 3.83387 15.392 3.91823 15.4728C3.98878 15.4335 4.06971 15.4168 4.15006 15.4251C4.2304 15.4333 4.30627 15.4661 4.36736 15.5189C4.49664 15.4625 4.5972 15.3773 4.72316 15.3178C4.64134 15.2254 4.51206 15.1578 4.55307 14.9774C4.62103 14.678 5.3209 14.8147 5.66615 14.6527C5.78488 14.597 5.79913 14.5048 5.88252 14.4359C6.0625 14.4088 6.24587 14.414 6.42402 14.4513C6.56284 14.3675 6.69249 14.2693 6.81086 14.1584C6.75091 14.0709 6.66343 14.0856 6.54763 14.1119C6.58102 14.0522 6.60621 13.985 6.64058 13.9262C6.88058 13.9307 7.11683 13.8662 7.32132 13.7405C7.27329 13.8155 7.24278 13.9003 7.23206 13.9887C7.22134 14.077 7.23069 14.1667 7.25941 14.251C7.4379 14.1867 7.59139 14.0987 7.76987 14.0346C7.77553 13.9584 7.6527 13.8862 7.58455 13.8335V13.5837C7.72827 13.4956 7.96144 13.4941 8.11024 13.3054C8.20983 13.1795 8.23326 12.9914 8.41995 13.0125C8.57304 13.0283 8.61717 13.1814 8.60526 13.399H8.93001C8.90189 13.8563 8.14246 13.3156 8.17214 13.8169C8.31538 13.8972 8.47992 13.9314 8.64329 13.9147C8.80667 13.8981 8.96094 13.8315 9.08506 13.7239C9.25417 13.7507 9.4596 13.7415 9.62656 13.7704C9.68872 13.7373 9.74182 13.6895 9.78122 13.6312C9.53029 13.5259 9.22351 13.4769 9.11572 13.2289C9.21765 13.2174 9.31099 13.1976 9.3479 13.1203C9.35474 13.026 9.20847 13.0848 9.19324 13.0125C9.21277 12.8975 9.32544 12.8758 9.41 12.8266C9.42718 12.5648 9.04854 12.6356 8.89955 12.703C8.55781 12.5732 8.89291 12.0195 9.17781 12.0994C9.28854 12.1307 9.28561 12.2838 9.33247 12.4091C9.44964 12.3451 9.52912 12.2443 9.64218 12.1769C9.97689 12.2406 9.73885 12.5407 9.67284 12.7184C9.80325 12.7058 9.93268 12.6846 10.0603 12.6548C10.0118 12.5652 9.9904 12.4634 9.99856 12.3619C10.114 12.2887 10.2484 12.2511 10.385 12.2537C10.4486 12.1737 10.5007 12.0852 10.5399 11.9908C10.7576 12.1238 10.9326 12.2996 11.1435 12.44C11.1501 12.5109 11.1277 12.6104 11.1587 12.6569C11.2324 12.6725 11.3091 12.6615 11.3755 12.6259C11.4685 12.6913 11.5565 12.7636 11.6387 12.8422C11.7231 12.7977 11.7963 12.7423 11.8861 12.703C11.8114 12.5587 11.7287 12.4188 11.6383 12.2838C11.5053 12.257 11.3975 12.2047 11.2673 12.1752C11.1769 12.0318 11.0734 11.8972 10.958 11.7731H10.6483C10.6887 11.6624 10.7351 11.554 10.7875 11.4484C10.9818 11.5528 11.4385 11.3952 11.4991 11.6337C11.702 11.6198 11.973 11.6749 12.0867 11.572C12.0867 11.4068 11.9531 11.3753 11.9785 11.1847C12.1089 11.124 12.2558 11.1081 12.3962 11.1394C12.4321 11.214 12.3718 11.2779 12.3809 11.3716C12.5458 11.4368 12.9697 11.2949 12.9377 11.4956C12.9201 11.6052 12.7877 11.5491 12.6748 11.5884C12.6563 11.7044 12.7682 11.6909 12.7676 11.7891C12.6436 11.9395 12.6844 12.2133 12.7059 12.4546C12.7859 12.4574 12.9047 12.365 13.0152 12.346C12.8525 12.1144 12.972 11.9075 13.0463 11.6503H13.371C13.462 11.4985 13.4544 11.2486 13.6493 11.2011C13.7877 11.2537 13.8818 11.3501 14.0203 11.4023C13.9141 11.5899 13.7494 11.7192 13.6334 11.8973C13.8729 12.1845 14.3521 11.8342 14.4688 11.6651C14.4161 11.5942 14.3079 11.5784 14.2525 11.5105C14.3712 11.2519 14.8041 11.4323 15.0103 11.4952C15.1357 11.4343 15.2076 11.3208 15.3355 11.263C15.4698 11.3646 15.6313 11.4237 15.7995 11.4329C15.8107 11.532 15.8001 11.6324 15.7684 11.727C16.0027 11.754 15.991 11.5374 16.1394 11.4794C16.321 11.5866 16.5351 11.6251 16.7426 11.588C16.8208 11.4232 16.678 11.3433 16.5726 11.3093C16.7626 11.2002 16.9604 11.0992 17.1605 11C17.2646 11.0383 17.3632 11.0903 17.4535 11.1547C17.6382 11.1199 17.9498 11.0145 18.1047 11.1394ZM17.6872 12.0213C17.6761 12.1908 17.531 12.2254 17.4396 12.3142C17.6849 12.4995 18.2463 12.4144 18.3525 12.175C18.2955 12.0207 18.2994 11.8053 18.1358 11.7575C18.0559 11.9201 17.951 12.0869 17.6872 12.0213ZM15.2119 11.8045C15.1451 11.879 15.0665 11.942 14.9793 11.9908C14.8786 11.9395 14.7808 11.8828 14.6864 11.8207C14.5997 11.9356 14.412 12.0147 14.5317 12.2076C14.7348 12.2158 14.9041 12.2584 15.1043 12.2693C15.2283 12.1668 15.4005 12.1119 15.4446 11.9293C15.3575 11.8977 15.3191 11.8161 15.2119 11.8045ZM10.2304 13.0578C10.2947 13.0895 10.3568 13.1256 10.4161 13.166C10.5241 13.1234 10.6198 13.0544 10.6943 12.9653C10.6637 12.7686 10.3917 12.7309 10.2614 12.6866C10.2788 12.8111 10.2682 12.938 10.2304 13.0578ZM12.0251 13.0117C12.0482 13.0548 12.0743 13.0961 12.1033 13.1354C12.055 13.1644 11.9882 13.1744 11.9796 13.2435C11.9328 13.5888 11.5086 13.5423 11.1753 13.4911V13.6312C11.3655 13.7038 11.5594 13.7727 11.7475 13.8475C11.8138 13.7367 11.8916 13.6331 11.9796 13.5386C12.0661 13.564 12.1538 13.5846 12.2425 13.6003C12.2359 13.5278 12.2411 13.4548 12.2579 13.3839C12.6602 13.358 13.0586 13.3275 13.1087 12.9502C13.0421 12.7491 12.6496 12.5968 12.6448 12.9502C12.4993 12.8616 12.3809 12.7483 12.2259 12.671C12.1656 12.7913 12.0763 12.8821 12.0251 13.0117ZM15.382 12.8258C15.2498 12.9065 15.1099 12.9739 14.9645 13.027C14.9301 13.1424 14.8592 13.2209 14.8252 13.3367C14.9275 13.4712 15.0545 13.5814 15.1498 13.7231C15.1027 13.9078 15.0299 14.0849 14.9334 14.2492C15.1181 14.2348 15.2025 14.3205 15.3357 14.3578C15.4198 14.2232 15.6307 14.158 15.5831 13.9399C15.7003 13.904 15.837 13.8173 15.8153 13.6923C15.7186 13.6316 15.5778 13.7942 15.4901 13.6923C15.4915 13.5181 15.6233 13.4749 15.6758 13.3523C15.649 13.2303 15.6336 13.1061 15.6298 12.9813C15.5401 12.9371 15.4716 12.8704 15.382 12.8258ZM18.9403 13.4294C18.9614 13.5419 19.003 13.6349 19.0184 13.7542C18.8997 13.8419 18.776 13.9244 18.6474 14.0016C18.7575 14.2061 18.9096 14.3689 19.0342 14.5589C19.1397 14.5742 19.2434 14.6004 19.3435 14.637C19.5747 14.5226 19.7868 14.3894 19.7927 14.0491C19.751 13.9796 19.6848 13.9283 19.6071 13.9051C19.5294 13.882 19.446 13.8888 19.373 13.9241V13.5062C19.2342 13.4476 19.0965 13.2992 18.9403 13.4294ZM20.4244 13.8163C20.4472 13.5531 20.0063 13.537 19.9446 13.7382C19.9837 13.7612 20.0299 13.7772 20.0532 13.8163C19.9947 13.8604 19.9426 13.9125 19.8985 13.9709C19.921 14.0203 19.9571 14.0576 19.9766 14.1102C20.3117 14.2008 20.7382 14.2166 20.8895 13.9401C20.7306 13.9172 20.5737 13.8755 20.4244 13.8163ZM13.6649 14.4345C13.5853 14.3587 13.5128 14.2759 13.4481 14.1871C13.3729 14.1996 13.3433 14.257 13.278 14.2799C13.3952 14.3746 13.5577 14.7122 13.3401 14.7595C13.1361 14.8036 13.0439 14.5408 12.8762 14.4966C12.8205 14.5853 12.7176 14.6269 12.675 14.7284C12.7553 14.7638 12.8328 14.8052 12.9068 14.8524C12.8643 14.9227 12.7834 14.9559 12.7522 15.0381C12.9416 15.1228 13.1531 15.1444 13.3558 15.0998C13.3394 15.1869 13.3362 15.2861 13.3247 15.3785C13.3571 15.4287 13.4263 15.4418 13.4639 15.4867C13.7383 15.2094 14.4034 15.3221 14.6551 15.0227C14.5559 14.979 14.4664 14.9158 14.3919 14.837C14.5268 14.7503 14.7075 14.7087 14.7629 14.5441C14.6192 14.4765 14.3528 14.5302 14.1593 14.513C14.1333 14.4431 14.1178 14.3696 14.1134 14.2951C14.306 14.2687 14.3271 13.9963 14.2991 13.7997C13.9139 13.8376 13.8151 14.1619 13.6649 14.4345ZM10.0759 14.2799C10.106 14.0639 9.58048 13.9979 9.37973 14.1098C9.43349 14.2124 9.49561 14.3103 9.56544 14.4027C9.7656 14.3908 10.0536 14.4345 10.0759 14.2799ZM22.87 14.5892C22.9741 14.7023 23.0719 14.8211 23.163 14.945C23.2897 14.8813 23.3012 14.7458 23.4559 14.7282C23.6016 14.712 23.7839 14.8612 23.9199 14.744C23.9105 14.6287 23.8898 14.5146 23.8581 14.4033C23.7101 14.4313 23.5586 14.4365 23.409 14.4187C23.3309 14.3406 23.328 14.1908 23.2698 14.094C23.2307 14.3535 23.0413 14.4636 22.8677 14.589L22.87 14.5892ZM17.7489 14.2799V14.45C17.8485 14.4457 17.9821 14.3945 18.074 14.4345C18.0605 14.4902 18.0553 14.5475 18.0586 14.6046C18.1438 14.5943 18.2302 14.6014 18.3127 14.6253C18.3951 14.6493 18.4718 14.6897 18.5382 14.744C18.6463 14.7028 18.7499 14.6509 18.8475 14.589C18.7261 14.563 18.607 14.5267 18.4917 14.4804C18.5343 14.0471 17.993 14.2072 17.7489 14.2799ZM10.8029 14.5728C10.8886 14.6107 10.9437 14.6792 11.0347 14.712C11.0956 14.6595 11.1698 14.6204 11.2358 14.5728C11.2118 14.425 11.3024 14.3922 11.3139 14.2799C11.1484 14.2851 11.022 14.2518 10.8648 14.2488C10.8515 14.3583 10.8307 14.466 10.8029 14.5728ZM15.6458 14.4492C15.6184 14.556 15.5245 14.5962 15.3982 14.6038C15.4103 14.5402 15.3743 14.5247 15.3827 14.4646C15.246 14.3918 15.1179 14.4929 14.9805 14.5111C15.129 14.7002 15.2058 14.9359 15.1972 15.1762C15.5802 15.2106 15.7817 15.4271 16.1256 15.5009C16.2779 15.4215 16.4238 15.3351 16.5747 15.2533C16.7466 15.2969 17.0539 15.3533 17.1008 15.1916C17.1525 15.0126 16.9223 14.971 16.8686 14.8358C16.9161 14.7798 17.0533 14.8141 17.1473 14.8048C17.1908 14.7091 17.2291 14.6081 17.2709 14.5119C17.0645 14.4999 16.885 14.6279 16.7141 14.6046C16.5749 14.5851 16.5116 14.4505 16.3734 14.4345C16.282 14.5082 16.2734 14.6644 16.2498 14.8056C16.3148 14.8641 16.4015 14.9014 16.4665 14.9602C16.3363 15.0465 16.234 15.161 16.0955 15.2389C15.9346 15.1727 15.6809 15.1998 15.6315 15.0221C15.6723 14.9958 15.7292 14.9862 15.7708 14.9602C15.7717 14.8821 15.7161 14.8602 15.7089 14.7901C15.7917 14.7116 15.8645 14.6232 15.9256 14.5269C15.8936 14.399 15.7653 14.3867 15.6473 14.4488L15.6458 14.4492ZM11.7012 14.4492C11.4083 14.497 11.278 14.7876 11.2833 15.0834C11.4786 15.0957 11.6716 15.0351 11.8248 14.9133C11.8723 15.0547 11.9458 15.1859 12.0416 15.3002C12.1978 15.2758 12.3274 15.2254 12.4907 15.2072C12.5241 15.0599 12.5397 14.9091 12.5372 14.7581C12.4602 14.8097 12.377 14.8512 12.2896 14.8817C12.2411 14.8477 12.1724 14.8335 12.1503 14.7735C12.2148 14.7023 12.2718 14.6246 12.3204 14.5417C12.238 14.4277 11.8812 14.4197 11.7012 14.4492ZM7.66325 14.4957C7.4709 14.7321 6.67749 14.5607 6.78138 15.0217C6.83313 15.2512 7.57049 15.1975 7.70972 15.0217C7.64175 14.9549 7.57962 14.8824 7.52402 14.805C7.61522 14.7374 7.69826 14.6595 7.77143 14.5728C7.73238 14.5511 7.70015 14.5212 7.66325 14.4957ZM10.6336 14.8977C10.6992 14.6177 9.91108 14.5103 9.6125 14.4957C9.6153 14.5223 9.61105 14.5491 9.60018 14.5736C9.58932 14.598 9.57222 14.6191 9.5506 14.6349C9.38344 14.713 9.19578 14.6335 9.02452 14.6659C8.85034 14.6983 8.70095 14.8456 8.54492 14.8671C8.60299 14.9706 8.67031 15.0686 8.74606 15.16C9.03585 15.0838 9.25124 14.9327 9.65859 14.9743C9.75623 15.0385 9.9142 15.252 9.98372 15.2375C9.99368 15.1494 9.9642 15.0211 9.99915 14.9588C10.1671 14.9991 10.592 15.075 10.6336 14.8977ZM20.8903 15.7331C20.9376 15.8099 20.9735 15.8977 21.0604 15.9343C21.1581 15.8983 21.2537 15.8595 21.3533 15.8261C21.325 15.5349 21.5902 15.5369 21.663 15.3465C21.5832 15.1879 21.3467 15.2488 21.2139 15.3154C21.1245 15.2502 21.0938 15.1262 20.9975 15.068C21.0117 15.2947 20.9746 15.5216 20.889 15.732L20.8903 15.7331ZM8.12644 15.4082C8.0456 15.6265 7.63435 15.5144 7.43028 15.6093C7.36506 15.798 7.53847 15.8558 7.73999 15.8261C7.85071 15.8954 7.86106 16.0659 8.04931 16.0583V15.8573C8.30317 15.8431 8.56074 15.8323 8.60604 15.6097C8.47088 15.4946 8.30329 15.4239 8.12644 15.4082ZM9.61172 16.1502C9.50412 15.9864 9.5836 15.5781 9.27135 15.7476C9.16258 16.0618 8.95578 16.2781 8.45119 16.1967C8.52383 16.2694 8.58417 16.4635 8.71442 16.506C8.78668 16.5299 8.87475 16.4898 8.94661 16.5213C9.04718 16.5662 9.02081 16.6935 9.14774 16.7847C9.44261 16.9972 10.0501 16.7119 10.2304 16.5677C10.2987 16.5136 10.4061 16.4328 10.385 16.3824C10.047 16.3033 9.7613 16.3783 9.61172 16.1502ZM4.05785 16.2891C4.13596 16.4562 4.25938 16.6146 4.44469 16.5984C4.61126 16.5841 4.90438 16.3074 5.03228 16.2584C4.72765 16.1454 4.43083 16.0241 4.29023 15.7476C4.21895 15.9346 4.12249 16.0961 4.05785 16.2891ZM3.80946 15.9354C3.73135 15.6476 3.2949 15.9762 3.2992 16.0747C3.30115 16.125 3.45191 16.1957 3.49994 16.2447C3.64777 16.1666 3.86316 16.1317 3.80946 15.9354ZM24.9892 16.2446C24.735 16.3954 24.5182 16.6017 24.3549 16.8482C24.6131 16.8286 24.8589 16.795 24.9892 16.647C25.1057 16.6783 25.2248 16.699 25.345 16.7089C25.4083 16.6503 25.5576 16.5222 25.5307 16.4767C25.3386 16.4297 25.1557 16.3512 24.9892 16.2446ZM21.6632 16.3996C21.6173 16.5256 21.344 16.6044 21.3074 16.7864C21.2684 16.9778 21.4232 17.1844 21.3855 17.3586C21.333 17.597 20.7802 17.6406 20.5812 17.5133C20.6002 17.4374 20.6106 17.3597 20.6123 17.2815C20.4592 17.2672 20.3053 17.2163 20.2254 17.3276C20.2409 17.3775 20.2462 17.4302 20.2408 17.4822C20.2029 17.5118 20.1576 17.5307 20.1099 17.5369C20.0621 17.5431 20.0136 17.5364 19.9693 17.5174C19.925 17.4984 19.8867 17.4679 19.8582 17.4291C19.8298 17.3902 19.8123 17.3444 19.8075 17.2965C19.8755 17.2823 19.9359 17.2439 19.9776 17.1883V16.9409H19.854C19.8214 16.9907 19.8415 17.0932 19.7759 17.111C19.6657 17.109 19.5833 17.1348 19.483 17.1417V16.9563C19.2766 16.9198 19.2217 17.0344 19.1582 17.1417C19.3269 17.2763 19.4824 17.4267 19.6226 17.5908C19.5503 17.6267 19.5154 17.7003 19.4369 17.73C18.9065 17.3949 18.7483 18.1723 18.1992 17.9468C18.1481 18.1637 18.0938 18.3776 18.0446 18.5965C18.2668 18.5605 18.4294 18.436 18.6632 18.3953C18.8848 18.3563 19.1358 18.4139 19.3594 18.3489C19.4961 18.3098 19.6343 18.1721 19.8085 18.1167C19.9043 18.0868 20.0028 18.0661 20.1026 18.055C20.3779 18.0282 20.7905 18.1497 21.0309 18.0239C21.1352 17.9692 21.209 17.7749 21.3092 17.7146C21.3596 17.6843 21.4494 17.6865 21.5256 17.6525C21.5939 17.6222 21.65 17.5566 21.7113 17.5289C21.9068 17.4383 22.116 17.3808 22.3303 17.3588C22.3901 17.1985 22.3543 17.0251 22.4385 16.9097C22.4926 16.836 22.6396 16.8497 22.6242 16.724C22.5396 16.6767 22.4429 16.6559 22.3464 16.6641C22.2499 16.6723 22.1581 16.7092 22.0827 16.77C22.067 16.8258 22.0567 16.8829 22.0516 16.9405C21.9794 16.9558 21.923 16.9866 21.8509 17.0022C21.8121 16.9654 21.7842 16.9185 21.7704 16.8668C21.7567 16.8151 21.7575 16.7606 21.7728 16.7093C21.8595 16.6619 21.962 16.6312 21.9274 16.4617C21.8379 16.4505 21.7484 16.4294 21.6632 16.3996ZM22.7152 17.2039C22.8693 17.1258 22.9849 16.8698 23.1643 16.8329C23.3774 16.7884 23.8869 16.9765 24.0626 16.8019C24.0874 16.7767 24.1044 16.7448 24.1113 16.7101C24.1183 16.6754 24.115 16.6395 24.1018 16.6066C24.0887 16.5738 24.0662 16.5455 24.0372 16.5252C24.0082 16.505 23.974 16.4936 23.9386 16.4926C23.7494 16.4681 23.5676 16.6304 23.4281 16.6472C23.2194 16.6722 23.161 16.5093 22.979 16.5545C22.9536 16.823 22.7703 17.0169 22.7152 17.2039ZM5.14027 16.8482V17.1885C5.28999 17.2664 5.44504 17.3336 5.60425 17.3897C5.64816 17.2476 5.69979 17.1081 5.75891 16.9718C5.54254 16.9181 5.34433 16.6921 5.14027 16.8482ZM6.43964 17.7146C6.4595 17.5762 6.46988 17.4365 6.47069 17.2967C6.5861 17.2627 6.6646 17.1918 6.78001 17.1579V16.9101C6.20297 16.8853 5.9081 17.1977 6.05319 17.8083C5.88857 17.7404 5.72473 17.6716 5.55777 17.6072V17.8687C5.79073 17.9519 6.04133 17.9732 6.28498 17.9304C6.3191 17.9941 6.34532 18.0618 6.36309 18.1319C6.55173 18.0733 6.6771 18.1266 6.84269 18.07C6.98525 18.0208 7.05535 17.8564 7.18306 17.8382C7.31507 17.8187 7.41739 17.914 7.58533 17.9163C7.55838 17.4131 6.72436 17.5057 6.43964 17.7146ZM12.304 17.5906C12.1583 17.5624 12.0239 17.4925 11.9172 17.3895C11.9185 17.308 11.8972 17.2277 11.8555 17.1577C11.74 17.0247 11.1671 17.0261 11.1134 17.2038C11.3542 17.4014 11.5463 17.6472 11.9953 17.6371C12.0315 17.7015 12.0625 17.7688 12.088 17.8382C12.2269 17.8335 12.3288 17.8652 12.4749 17.8534C12.6807 18.0367 12.9233 18.1738 13.1865 18.2557C13.5589 18.3223 13.9894 18.1971 14.3312 18.2711C14.5222 18.3119 14.628 18.4469 14.7955 18.4875C14.6992 18.1667 14.4831 17.8953 14.1919 17.7296C14.1814 17.8757 14.0552 17.994 13.899 17.8997C13.8934 17.8384 13.9133 17.7513 13.8836 17.714C13.6458 17.6576 13.265 17.7451 13.3421 17.3736C13.2398 17.2457 12.9357 17.0891 12.7695 17.219C12.7496 17.5367 13.0851 17.5 13.1242 17.7609C13.1035 17.8376 12.9916 17.824 12.8924 17.8226C12.7813 17.764 12.7557 17.6195 12.7223 17.4822C12.686 17.4871 12.6637 17.5066 12.6137 17.4976C12.6803 17.8755 12.395 17.8511 12.304 17.5906ZM4.56889 17.1415C4.37361 17.1526 4.2461 17.3311 4.05844 17.3426C3.90221 17.3526 3.7251 17.1737 3.57884 17.3272C3.61477 17.6834 3.99146 17.7802 4.32089 17.7915C4.3285 17.7115 4.30448 17.5992 4.33631 17.5439C4.55909 17.564 4.78223 17.5096 4.97077 17.3893C4.83408 17.3092 4.69641 17.2305 4.56889 17.1415ZM8.17351 17.3119C8.20358 17.4969 8.59687 17.424 8.80777 17.4201C8.86342 17.2147 8.1243 17.005 8.17351 17.3119ZM16.5899 17.1573C16.541 17.2894 16.4842 17.4184 16.4199 17.5437C16.4611 17.6095 16.4878 17.6835 16.498 17.7605C16.2184 17.8931 15.9047 17.9363 15.5997 17.8841C15.6458 17.9979 15.8371 18.1009 15.909 18.2399C16.1777 18.3137 16.4529 18.4563 16.8219 18.3791C16.9793 18.1292 17.193 17.9345 17.3015 17.6371C17.2146 17.628 17.1305 17.6015 17.0541 17.559C17.0518 17.4115 17.0756 17.2383 16.9922 17.1721C16.8589 17.1542 16.7242 17.1495 16.5899 17.1573ZM9.93666 17.4822C9.87808 17.689 10.171 17.8212 9.99876 18.0395C9.77907 18.1036 9.57208 17.9165 9.44183 17.7919C9.47288 17.731 9.5342 17.6316 9.48831 17.5443C9.44424 17.534 9.39831 17.5345 9.35449 17.5458C9.31067 17.5572 9.27026 17.579 9.23676 17.6094C9.20326 17.6399 9.17767 17.678 9.16219 17.7206C9.14672 17.7631 9.14183 17.8088 9.14794 17.8536C9.15809 17.9579 9.30416 18.0489 9.30221 18.1477C9.30025 18.2465 9.2198 18.2977 9.16297 18.3485C9.37407 18.5945 9.7408 18.518 10.1067 18.5189C10.4051 18.5189 10.668 18.6584 10.9421 18.6736C11.3104 18.6931 11.6904 18.5152 12.0406 18.5189C12.1062 18.4141 12.1353 18.2733 12.2263 18.1938C12.3311 18.1958 12.4057 18.1674 12.5192 18.1784C12.3735 17.8175 11.3794 18.3608 11.4362 17.8226C11.1628 17.7771 10.9675 17.6527 10.6318 17.6679C10.6553 17.7531 10.8314 17.8189 10.8947 17.9155C10.7349 18.0051 10.5494 18.0378 10.3686 18.0083C10.2097 17.8675 10.4528 17.6697 10.3686 17.4672C10.2245 17.4481 10.0791 17.453 9.93666 17.4822ZM5.20256 17.8384C5.17854 17.7527 5.22658 17.6709 5.20256 17.6062C5.13363 17.4189 4.91804 17.5195 4.81611 17.6843C4.8663 17.7164 4.93621 17.7292 4.95534 17.7929C4.93581 17.9491 4.74054 17.928 4.67707 18.0405C4.77632 18.102 4.89022 18.1359 5.00697 18.1386C5.12371 18.1413 5.23905 18.1127 5.34101 18.0557C5.35683 17.9704 5.226 17.9206 5.20256 17.8384ZM8.55976 17.9772C8.28774 17.815 8.0868 18.21 7.78608 18.2559C7.50507 18.2989 7.4256 18.1672 7.16744 18.1165C7.02821 18.2559 6.95771 18.4637 6.82707 18.6119C7.04734 18.6588 7.24028 18.7851 7.46133 18.7511C7.68238 18.7171 7.80287 18.4524 8.06474 18.3959C8.29302 18.3457 8.44767 18.3912 8.72985 18.3494C8.67127 18.2086 8.66717 18.0413 8.55976 17.9772ZM13.1388 18.5189C12.8998 18.4633 12.7051 18.2623 12.3499 18.3485C12.28 18.4438 12.2398 18.5683 12.1642 18.6578C11.9694 18.6781 11.7774 18.7196 11.5916 18.7814C12.0076 18.7669 12.4137 18.8859 12.8139 18.8433C13.0482 18.8185 13.23 18.7006 13.4636 18.7197C13.8035 18.7474 14.1248 18.8988 14.4073 18.7197C14.1693 18.4649 13.5391 18.6111 13.1388 18.5189Z" fill="#E6DAFE"/>
</svg>
