<svg width="32" height="32" viewBox="0 0 32 32" fill="none" xmlns="http://www.w3.org/2000/svg">
<g clip-path="url(#clip0_6_4378)">
<path d="M21.6146 11.9209C21.6146 11.9209 21.09 12.1293 20.4796 12.8011C19.867 13.4752 19.5137 14.2279 19.7768 14.428C19.8777 14.5043 20.1102 14.5173 20.534 14.1371C20.8644 13.8417 21.2009 13.4538 21.4288 12.8981C21.7018 12.2331 21.6146 11.9278 21.6146 11.9209ZM24.9554 13.1294C24.277 12.782 23.7814 12.3583 23.2659 12.0934C22.7741 11.8415 22.4552 11.7354 22.0575 11.7888C21.9917 11.798 21.8938 11.8301 21.8938 11.8301C21.8938 11.8301 22.0988 12.5286 21.2835 13.7027C20.4575 14.8913 19.7087 14.8852 19.4953 14.557C19.272 14.2127 19.5603 13.5088 20.0406 12.8836C20.5439 12.2293 21.4296 11.6865 21.4296 11.6865C21.4296 11.6865 21.1473 11.5148 20.4544 11.9064C19.7791 12.2873 18.6135 13.1958 17.5359 14.7287C16.459 16.2617 16.2426 17.1045 16.0873 17.7687C15.9313 18.4328 16.0735 19.1436 16.8108 19.1436C17.5489 19.1443 18.407 18.0213 18.6487 17.6305C19.0992 16.9037 19.3928 15.7884 18.7802 15.9418C18.4781 16.0174 18.2341 16.351 18.0797 16.6724C17.9213 17.0022 17.8571 17.3175 17.8571 17.3175C17.8571 17.3175 17.6016 17.4083 17.259 17.6648C16.9164 17.9206 16.6923 18.1649 16.6923 18.1649C16.6923 18.1649 16.6946 17.6343 17.119 16.7755C17.5427 15.9166 18.3206 15.5242 18.7611 15.4876C19.158 15.4555 19.6751 15.7922 19.2368 17.0343C18.7993 18.2763 17.5076 19.7825 16.15 19.8016C14.8972 19.8192 14.0781 18.2229 15.8211 15.4402C17.7492 12.3622 20.0131 11.4178 20.7481 11.3132C21.4831 11.2086 21.7217 11.5316 21.7217 11.5316C21.7217 11.5316 22.3374 11.2483 23.1183 11.3018C24.0154 11.3621 24.7099 11.9957 25.6246 12.4416C25.3867 12.6698 25.1596 12.9072 24.9546 13.1309M28.9852 12.095C28.3634 12.4927 27.503 12.8538 26.6762 12.7744C26.4674 12.9904 26.2433 13.2401 26.0185 13.5126C27.4525 13.7958 28.7083 12.9095 29.3753 12.1545C29.7928 11.6835 29.9986 11.2628 29.9986 11.2628C29.9986 11.2628 29.6001 11.7003 28.9844 12.095M27.0754 16.1266C27.0938 16.0945 27.1014 16.067 27.1014 16.067C27.1014 16.067 27.0854 15.9464 26.9699 15.9418C26.8338 15.9349 26.6464 15.9617 26.1584 16.5006C25.672 17.0381 25.3768 17.5045 25.1198 17.971C24.8399 18.4809 24.7267 18.8611 24.8881 18.9588C24.9332 18.9863 25.0013 18.9901 25.0571 18.9764C25.1665 18.9504 25.2888 18.8489 25.477 18.6321C25.5649 18.5305 25.6621 18.3863 25.7791 18.2267C26.1026 17.7877 26.9141 16.406 27.0747 16.1266M22.0009 16.7136C22.0819 16.5006 22.186 16.083 21.9703 15.9197C21.7385 15.7456 21.1473 16.154 21.1443 16.5731C21.1405 17.0022 21.5603 17.1961 21.6613 17.2236C21.7187 17.2388 21.7385 17.2366 21.7661 17.1908C21.7837 17.1602 21.9183 16.9281 22.0009 16.7144M21.5542 17.4946C21.5389 17.49 21.3477 17.4022 21.1481 17.2358C20.9492 17.0701 20.8498 16.8816 20.8422 16.8663C20.8338 16.8526 20.8261 16.8632 20.8169 16.8755C20.8078 16.8877 20.7726 16.919 20.4559 17.3816C20.1401 17.8442 19.6567 18.797 20.0949 18.9603C20.3756 19.0642 20.8422 18.5741 21.0984 18.2488C21.3347 17.9465 21.5557 17.5625 21.5688 17.5351C21.5818 17.5076 21.5703 17.5007 21.555 17.4946M26.5225 18.5977C26.4032 18.7878 26.2686 19.152 26.6609 18.9252C27.1389 18.6496 27.8204 17.6175 27.8204 17.6175H28.1286C28.1286 17.6175 27.7217 18.2588 27.1917 18.8443C26.7068 19.3802 26.1156 19.868 25.6988 19.8192C25.2123 19.7627 25.3653 19.1252 25.3653 19.1252C25.3653 19.1252 24.6663 19.865 24.1867 19.8123C23.5366 19.7406 23.7347 18.9382 23.7347 18.9382C23.7347 18.9382 22.999 19.8413 22.498 19.8116C21.7125 19.7665 21.9099 18.8092 22.1278 18.1397C22.2449 17.7801 22.3535 17.4976 22.3535 17.4976C22.3535 17.4976 22.2754 17.5183 22.1079 17.5427C22.02 17.5549 21.8609 17.5641 21.8609 17.5641C21.8609 17.5641 21.5336 18.1404 21.272 18.487C21.0104 18.8344 19.8976 20.0268 19.2429 19.7879C18.638 19.5665 18.8376 18.642 19.1902 17.9068C19.7041 16.835 21.1512 15.2952 21.9856 15.4975C22.8506 15.7074 22.0055 17.2824 22.0055 17.2824C22.0055 17.2824 22.0055 17.2885 22.0146 17.2923C22.0322 17.2992 22.0774 17.3037 22.1814 17.2831C22.3481 17.2511 22.498 17.1892 22.498 17.1892C22.498 17.1892 23.3676 15.3715 24.3282 14.1829C25.2888 12.9943 27.2047 10.9475 27.9565 11.443C28.1401 11.5652 28.0567 11.9843 27.8089 12.4935C27.6988 12.5278 27.5856 12.5584 27.4693 12.582C27.6353 12.2812 27.7447 12.0285 27.7775 11.8514C27.8907 11.2376 26.4536 12.5316 25.4265 13.9249C24.3993 15.3181 23.7829 16.58 23.7829 16.58C23.7829 16.58 23.9894 16.4632 24.3129 16.2037C24.6502 15.9326 25.1144 15.5074 25.6169 14.9891C25.9557 14.6394 26.3542 14.2005 26.7267 13.7103C26.8383 13.7042 26.947 13.6943 27.0533 13.6768C26.6372 14.2348 26.2005 14.7455 25.8288 15.1211C25.4204 15.5349 24.976 15.9792 24.5905 16.3037C23.9772 16.8174 23.5045 17.1091 23.5045 17.1091C23.5045 17.1091 22.6066 18.9168 23.0953 19.0329C23.3821 19.1016 23.9496 18.2298 23.9496 18.2298C23.9496 18.2298 24.6892 17.1022 25.1359 16.5953C25.7447 15.9044 26.2686 15.5059 26.7917 15.4975C27.0969 15.4914 27.2766 15.8166 27.2766 15.8166L27.4204 15.5945H28.3037C28.3037 15.5945 26.654 18.3885 26.5225 18.5993M28.9844 12.098C28.3626 12.4958 27.5022 12.8568 26.6754 12.7775C26.4666 12.9935 26.2426 13.2431 26.0177 13.5157C27.4517 13.7989 28.7076 12.9126 29.3745 12.1576C29.7921 11.6865 29.9978 11.2659 29.9978 11.2659C29.9978 11.2659 29.5993 11.7033 28.9837 12.098M16.5814 13.4683H15.7416L15.2666 14.234H16.1064L16.5814 13.4683ZM12.6043 16.1197C12.9623 15.6311 13.9481 13.9172 13.9481 13.9172C13.9481 13.9172 13.932 13.7966 13.8166 13.792C13.6804 13.7852 13.454 13.831 13.0005 14.3959C12.547 14.9601 12.1974 15.4105 11.9412 15.8777C11.6605 16.3876 11.5382 16.748 11.6995 16.8457C11.7447 16.8724 11.8127 16.877 11.8686 16.8632C11.9733 16.8373 12.1102 16.7319 12.2984 16.5159C12.3871 16.4151 12.4873 16.2792 12.6043 16.1197ZM8.09724 13.8027C7.86474 13.6271 7.2743 14.0371 7.27124 14.4554C7.26818 14.8845 7.80432 15.0074 7.87391 15.0104C7.87391 15.0104 7.93433 15.0265 7.95804 14.9761C7.97258 14.944 8.046 14.8097 8.12783 14.5967C8.2089 14.3837 8.31215 13.9661 8.09648 13.8027M7.74619 15.2807C7.73089 15.2746 7.50833 15.2112 7.29112 15.0723C7.07391 14.9341 6.97372 14.728 6.96607 14.7127C6.95766 14.699 6.94848 14.7097 6.94084 14.7219C6.93166 14.7341 6.885 14.7929 6.56913 15.2555C6.25326 15.7174 5.78519 16.6648 6.2242 16.8266C6.50489 16.9304 6.97602 16.4388 7.23147 16.1136C7.4678 15.8113 7.75001 15.3471 7.76225 15.3204C7.77296 15.2929 7.76149 15.286 7.74695 15.2815M14.6097 15.5662H14.9171C14.9171 15.5662 13.3753 17.7908 12.5034 17.6893C12.0169 17.6328 12.1615 17.0335 12.1615 17.0335C12.1615 17.0335 11.477 17.832 10.8514 17.6725C10.2823 17.5267 10.6494 16.5831 10.6494 16.5831C10.5844 16.609 9.35384 17.9946 8.48806 17.6618C7.58252 17.3129 8.05288 16.1525 8.22497 15.8044C8.37105 15.5105 8.53242 15.2242 8.53242 15.2242C8.53242 15.2242 8.39399 15.2631 8.3068 15.283C8.22038 15.3028 8.08959 15.328 8.08959 15.328C8.08959 15.328 7.66129 16.0227 7.39973 16.3693C7.13816 16.7167 6.02535 17.9076 5.3699 17.6702C4.71445 17.432 4.87659 16.5174 5.24523 15.7906C5.84256 14.6119 7.25976 13.1622 8.11254 13.3806C8.97449 13.5997 8.26091 14.9959 8.26091 14.9959C8.26091 14.9959 8.43223 15.0181 8.84294 14.7379C9.43567 14.3348 10.2158 13.2508 11.0617 13.3783C11.4586 13.4378 11.8288 13.8447 11.3225 14.6173C11.1603 14.8654 10.8888 15.0875 10.68 14.8677C10.5508 14.7326 10.664 14.4829 10.8001 14.3127C10.9921 14.0714 11.2567 14.105 11.2567 14.105C11.2567 14.105 11.3959 13.7852 11.041 13.7913C10.7535 13.7974 10.0246 14.4661 9.61388 15.1425C9.23682 15.7632 8.6655 16.8205 9.23911 17.0518C9.76454 17.264 10.7657 16.0785 11.2292 15.457C11.6927 14.8364 12.7473 13.4271 13.633 13.3706C13.9382 13.3508 14.1194 13.6287 14.1194 13.6287L14.2219 13.4668H15.106C15.106 13.4668 13.438 16.2464 13.3072 16.4571C13.2047 16.622 13.0686 16.9915 13.4456 16.7846C13.8242 16.577 14.6089 15.5685 14.6089 15.5685M14.1263 20.0223C13.4571 19.5512 12.641 19.3443 11.8999 19.3741C11.1504 19.4039 10.8139 19.9619 10.8139 19.9619C10.4758 19.3734 9.80814 19.0123 8.77563 19.0207C7.10757 19.0397 5.45097 19.8077 4.1416 19.807C2.88347 19.8062 1.96722 19.0176 1.99781 17.6167C2.05212 15.1608 4.13166 12.9485 5.68653 11.953C6.57984 11.3804 7.32783 11.2109 7.81732 11.2659C8.17449 11.3048 8.60279 11.7171 8.33204 12.324C7.93433 13.2126 7.38443 13.1378 7.40508 12.7133C7.41655 12.4377 7.60011 12.2637 7.73854 12.169C7.82649 12.1087 7.98099 12.0911 8.06282 12.0896C8.1416 12.0232 8.20126 11.5377 7.56187 11.6972C6.92095 11.8568 6.15078 12.4843 5.41655 13.2928C4.68156 14.1005 3.53816 15.6341 3.25518 17.2419C3.12286 17.9878 3.21082 19.3474 4.98061 19.3329C6.48041 19.3207 8.69686 18.3351 10.732 18.3534C11.5221 18.3611 12.2089 18.5733 12.745 18.9039C13.272 19.2275 13.9022 19.6993 14.1263 20.0223Z" fill="#E6DAFE"/>
<path d="M24.5629 22.0071H24.0535L23.499 22.9973L22.9369 22.0064H22.416L23.2635 23.421V24.1233H23.7254V23.4118L24.5629 22.0071ZM21.6 22.0056V23.4401L20.5843 22.0049H20.1055V24.121H20.5552V22.6629L21.5854 24.121H22.0505V22.0049L21.6 22.0056ZM18.2577 23.25L18.5736 22.4125L18.8887 23.2507H18.2577V23.25ZM19.2137 24.1203H19.7002L18.8596 22.0041H18.2914L17.447 24.1195H17.9304L18.1071 23.6492H19.0378L19.2145 24.1203H19.2137ZM16.6853 22.937H16.0703V22.4102H16.6853C16.777 22.4102 16.8489 22.4331 16.9002 22.4782C16.9507 22.5232 16.9767 22.5881 16.9767 22.6721C16.9767 22.7561 16.9514 22.8217 16.8994 22.8667C16.8497 22.9133 16.777 22.9362 16.6853 22.9362M16.6975 22.0018H15.6076L15.6069 24.1172H16.0696V23.3446H16.6975C16.8581 23.3446 16.995 23.3149 17.1067 23.2569C17.2183 23.1981 17.3025 23.1179 17.3591 23.0164C17.4164 22.9148 17.4447 22.8003 17.4447 22.6728C17.4447 22.5453 17.4172 22.4308 17.3591 22.3285C17.3025 22.227 17.2183 22.1468 17.1067 22.0896C16.995 22.0316 16.8581 22.0026 16.6975 22.0026M14.992 22.001H14.3709L13.7484 23.4706L13.1136 22.0003H12.4925V24.1165H12.9392V22.6026L13.5839 24.0867H13.8929L14.5445 22.5637V24.1157H14.9912V22.0003L14.992 22.001ZM10.8566 23.7355C10.7311 23.7355 10.6187 23.7065 10.5193 23.6485C10.4199 23.5905 10.3419 23.5103 10.286 23.4072C10.2302 23.3042 10.2027 23.1881 10.2027 23.0561C10.2027 22.924 10.2302 22.8072 10.2868 22.7049C10.3426 22.6018 10.4206 22.5217 10.5201 22.4644C10.6187 22.4072 10.7311 22.3774 10.8573 22.3774C10.9835 22.3774 11.0952 22.4072 11.1946 22.4644C11.2941 22.5224 11.3721 22.6018 11.4264 22.7057C11.4822 22.808 11.5097 22.9255 11.5097 23.0568C11.5097 23.1881 11.4822 23.3049 11.4264 23.408C11.3705 23.5111 11.2925 23.5912 11.1931 23.6485C11.0944 23.7073 10.982 23.7355 10.8558 23.7355M10.8558 24.1531C11.0738 24.1531 11.2696 24.1065 11.4409 24.0142C11.613 23.921 11.7468 23.7912 11.8447 23.6248C11.9419 23.4584 11.9908 23.2698 11.9908 23.0584C11.9908 22.8469 11.9426 22.6583 11.8455 22.4911C11.7484 22.3247 11.6145 22.1949 11.4417 22.1018C11.2703 22.0087 11.0753 21.9621 10.8566 21.9621C10.6378 21.9621 10.4443 22.0087 10.2715 22.101C10.0994 22.1942 9.9648 22.3247 9.86767 22.4904C9.76977 22.6576 9.72159 22.8454 9.72159 23.0576C9.72159 23.2698 9.76977 23.4576 9.86767 23.6248C9.9648 23.792 10.0986 23.921 10.2707 24.0142C10.4436 24.1065 10.6371 24.1531 10.8558 24.1531ZM8.62943 24.1523C8.80228 24.1523 8.96289 24.1249 9.11432 24.0691C9.26423 24.0134 9.38736 23.9302 9.4845 23.818L9.19616 23.5034C9.04243 23.6584 8.85811 23.7347 8.64014 23.7347C8.50247 23.7347 8.37857 23.705 8.26767 23.6447C8.15601 23.5851 8.07111 23.5042 8.0084 23.4004C7.94721 23.2973 7.91585 23.182 7.91585 23.0545C7.91585 22.9271 7.94721 22.8125 8.00993 22.7087C8.07264 22.6057 8.1583 22.5247 8.26767 22.4644C8.37704 22.4049 8.49864 22.3743 8.63402 22.3743C8.73803 22.3743 8.83516 22.3942 8.92465 22.4316C9.01413 22.4698 9.10056 22.5308 9.18239 22.6133L9.47073 22.2934C9.37666 22.1835 9.25581 22.1003 9.10744 22.0438C8.95907 21.9865 8.79769 21.9575 8.62254 21.9575C8.39692 21.9575 8.19348 22.0049 8.01298 22.1003C7.83249 22.1949 7.691 22.3262 7.58928 22.4942C7.48679 22.6622 7.43555 22.8484 7.43555 23.0545C7.43555 23.2607 7.48602 23.4469 7.58775 23.6149C7.68947 23.7821 7.83172 23.9134 8.01298 24.0088C8.19425 24.1042 8.39998 24.1523 8.62943 24.1523Z" fill="#E6DAFE"/>
<path d="M17.5887 10.1185H19.3646L19.3065 9.71616H18.0522V9.22757H18.8973V8.8222H18.0522V8.40385H19.2767L19.3356 8.00153H17.5895L17.5887 10.1177V10.1185ZM14.9646 10.1169H15.4266V9.17948L16.5111 9.18024V10.1177H16.973L16.9746 8.00153H16.5118V8.76876H15.4281V8.00076H14.9661L14.9646 10.1169ZM12.6357 8.41377H13.3424L13.3417 10.1162H13.8044V8.41453H14.5126V8H12.6357V8.41453V8.41377Z" fill="#E6DAFE"/>
</g>
<defs>
<clipPath id="clip0_6_4378">
<rect width="28" height="16.1538" fill="white" transform="translate(2 8)"/>
</clipPath>
</defs>
</svg>
