<svg width="32" height="32" viewBox="0 0 32 32" fill="none" xmlns="http://www.w3.org/2000/svg">
<path d="M21.6746 5.02133C21.8082 5.16236 21.9492 5.29385 22.0828 5.4317C22.3904 5.21962 22.7382 5.05102 23.1157 5.02345C23.4561 4.98845 23.7986 5.07647 24.1114 5.2122C24.2301 5.26204 24.3404 5.34262 24.474 5.35535C24.6055 5.34793 24.7031 5.23234 24.7487 5.1157C24.7868 5.03511 24.7508 4.93968 24.6882 4.88135C24.3956 4.58657 24.1008 4.29708 23.8113 4.00229C24.3542 3.99911 24.8982 4.00017 25.4411 4.00017H21.2579C21.735 4.00017 22.2122 4.00017 22.6894 4.00229C22.3543 4.34268 22.0118 4.67988 21.6735 5.02027L21.6746 5.02133Z" fill="#E6DAFE"/>
<path d="M11.1333 26.0351C11.1555 25.8665 10.9848 25.6979 10.8162 25.7329C10.6752 25.7605 10.5596 25.8718 10.4132 25.8718C10.3199 25.8644 10.2489 25.7965 10.1863 25.7361C8.90325 24.4562 7.62336 23.1731 6.34346 21.8932C6.25757 21.8073 6.15471 21.7246 6.12396 21.6005C6.11866 21.4542 6.22258 21.3365 6.25969 21.2029C6.30741 21.0343 6.14835 20.8498 5.97763 20.8625C5.85887 20.8699 5.75389 20.9378 5.6733 21.0216C5.11871 21.5836 4.55458 22.1382 4 22.7002V23.5145C4.10074 23.4743 4.19617 23.4117 4.30751 23.4138C4.44112 23.4393 4.52383 23.557 4.61715 23.646C5.88538 24.909 7.14724 26.174 8.41229 27.4359C8.48227 27.5143 8.57347 27.5917 8.58619 27.7031C8.58089 27.8102 8.52469 27.9056 8.47909 28H9.30408L10.9137 26.3893C11.0145 26.2938 11.1173 26.1825 11.1333 26.0362V26.0351Z" fill="#E6DAFE"/>
<path d="M27.1452 7.23648C27.0699 7.15801 26.9458 7.11772 26.8429 7.16544C26.7751 7.19831 26.7093 7.25133 26.6796 7.3245C26.6415 7.47083 26.7072 7.61398 26.7655 7.74547C26.9416 8.11873 27.02 8.5397 26.967 8.95007C26.932 9.23002 26.8313 9.50466 26.6796 9.74431C26.6393 9.80263 26.6012 9.86307 26.5662 9.92351C26.7125 10.0497 26.8355 10.2003 26.985 10.3243C27.318 9.98184 27.6605 9.64675 27.9977 9.30637V8.08904C27.7103 7.80697 27.4304 7.51961 27.1462 7.23754L27.1452 7.23648Z" fill="#E6DAFE"/>
<path d="M27.7909 16.1671C27.7008 16.1088 27.6319 16.0239 27.5566 15.9508C26.7401 15.1396 25.931 14.3199 25.1124 13.5108C24.7868 13.8364 24.4677 14.164 24.1368 14.4811C24.3107 14.6772 24.5048 14.8512 24.6861 15.041C25.3414 15.6963 25.9968 16.3516 26.6542 17.0069C26.7093 17.0652 26.7751 17.1151 26.8048 17.1914C26.8143 17.2741 26.7571 17.3452 26.7348 17.4205C26.7019 17.5085 26.773 17.6145 26.8663 17.6167C26.949 17.6315 27.02 17.5764 27.0731 17.5212C27.3806 17.2116 27.6902 16.9041 27.9977 16.5966V16.1332C27.932 16.1554 27.8588 16.201 27.7909 16.1682V16.1671Z" fill="#E6DAFE"/>
<path d="M14.4873 24.1434C14.1617 24.4562 13.85 24.7807 13.5276 25.0956C13.4597 25.1666 13.3845 25.2345 13.3516 25.3299C13.3367 25.4232 13.4216 25.5113 13.5128 25.5166C13.5934 25.506 13.6612 25.4529 13.7418 25.436C13.8118 25.4307 13.868 25.4869 13.9178 25.5314C14.5074 26.1263 15.1002 26.7159 15.6919 27.3086C15.8403 27.4645 16.0015 27.6055 16.1404 27.7667C16.203 27.8378 16.1606 27.9279 16.1256 27.9989H16.5921C16.8848 27.7063 17.1764 27.4168 17.4691 27.1241C16.4744 26.1316 15.4798 25.138 14.4883 24.1434H14.4873Z" fill="#E6DAFE"/>
<path d="M13.991 7.59914C13.903 7.61186 13.8447 7.7126 13.8775 7.79531C13.9178 7.91619 14.009 8.01693 14.0292 8.14842C14.0567 8.264 14.0271 8.38277 13.9942 8.49411C14.0695 8.56197 14.1426 8.63726 14.2158 8.71043C14.3547 8.63514 14.5254 8.63938 14.6665 8.70512C14.7619 8.74012 14.8425 8.82389 14.9485 8.82389C15.0291 8.83131 15.1044 8.75602 15.0949 8.67755C15.0896 8.59909 15.0217 8.55137 14.974 8.49835C14.6993 8.22901 14.4268 7.95437 14.1554 7.68185C14.1098 7.63943 14.0567 7.58853 13.9921 7.59914H13.991Z" fill="#E6DAFE"/>
<path d="M13.1469 7.32874C13.4195 7.1824 13.7567 7.19725 14.0292 7.33086C14.1002 7.35631 14.1681 7.40933 14.2455 7.39872C14.3388 7.36585 14.4141 7.23012 14.3314 7.14953C14.0769 6.89504 13.8245 6.64054 13.5647 6.38817C13.2922 6.67342 13.0059 6.94275 12.7334 7.23012C12.8044 7.29586 12.867 7.37115 12.9423 7.43159C13.0176 7.41887 13.0759 7.35843 13.1469 7.32874Z" fill="#E6DAFE"/>
<path d="M11.6444 8.68498C11.743 8.67967 11.8204 8.58954 11.9211 8.61181C11.9943 8.64998 12.0441 8.71785 12.1046 8.77299C12.762 9.43255 13.4205 10.0911 14.0801 10.7485C14.1236 10.7941 14.1755 10.8514 14.1458 10.9171C14.1204 11.0051 14.0324 11.1112 14.1129 11.197C14.1787 11.2904 14.3144 11.2575 14.3823 11.1822C14.7131 10.8545 15.0429 10.5258 15.3706 10.1939C14.7958 9.62448 14.2264 9.04975 13.6549 8.48032C13.289 8.11979 12.9317 7.74971 12.5616 7.3913C12.2414 7.72108 11.9137 8.04132 11.5913 8.36686C11.5489 8.40928 11.5129 8.46229 11.5086 8.52274C11.498 8.60121 11.5691 8.67649 11.6444 8.68392V8.68498Z" fill="#E6DAFE"/>
<path d="M23.9173 6.28107C24.0562 6.51012 24.1665 6.77309 24.1495 7.04667C24.1421 7.16756 24.0891 7.27572 24.0488 7.38918C24.1803 7.54294 24.3383 7.67655 24.4772 7.825C24.596 7.77198 24.7211 7.71896 24.8526 7.72214C25.1071 7.70942 25.3489 7.81015 25.5631 7.93634C25.6638 7.99148 25.7698 8.0551 25.8854 8.05192C26.0243 8.03708 26.1548 7.90771 26.142 7.76456C26.1198 7.62565 26.0063 7.53551 25.9098 7.4422C25.4051 6.93745 24.9014 6.43271 24.3977 5.92796C24.315 5.84419 24.2238 5.74133 24.0976 5.73179C23.9841 5.71694 23.8887 5.80283 23.8378 5.89509C23.7901 6.02552 23.8452 6.16761 23.9163 6.28107H23.9173Z" fill="#E6DAFE"/>
<path d="M15.3292 9.80687C15.3801 9.89488 15.4681 9.95533 15.5339 10.0306C15.8244 9.74431 16.1139 9.45588 16.4002 9.16639C16.1436 8.90978 15.8838 8.6521 15.6293 8.39549C15.5689 8.3255 15.4406 8.33505 15.395 8.41776C15.3419 8.49835 15.4024 8.59166 15.43 8.67225C15.5286 8.88433 15.5657 9.1261 15.5233 9.35514C15.501 9.52163 15.4119 9.66478 15.3292 9.80581V9.80687Z" fill="#E6DAFE"/>
<path d="M21.3947 5.37338C21.3724 5.3352 21.3321 5.35853 21.3088 5.38398C20.7012 5.9937 20.0914 6.60343 19.4817 7.21315C19.3831 7.31389 19.3227 7.47719 19.3884 7.61398C19.4361 7.69245 19.5146 7.76774 19.61 7.76562C19.7765 7.78364 19.8995 7.63201 20.0639 7.62989C20.1752 7.62247 20.2558 7.71048 20.3279 7.78046C21.6311 9.08368 22.9312 10.3858 24.2344 11.6869C24.2969 11.7548 24.3733 11.828 24.368 11.9266C24.3659 12.0825 24.2344 12.2012 24.2291 12.355C24.2164 12.5109 24.3701 12.6498 24.5239 12.6371C24.6341 12.6296 24.7328 12.566 24.8134 12.4907C25.4284 11.8736 26.0445 11.2564 26.6606 10.6414C24.9067 8.88433 23.1507 7.12938 21.3936 5.37444L21.3947 5.37338Z" fill="#E6DAFE"/>
<path d="M23.8272 12.7293C23.684 12.7548 23.5674 12.8682 23.4168 12.8682C23.3161 12.8682 23.245 12.7855 23.1751 12.7219C21.892 11.4346 20.6047 10.1515 19.3163 8.8663C19.2431 8.78783 19.153 8.71255 19.1275 8.60227C19.118 8.44321 19.2431 8.32232 19.2665 8.17069C19.2993 7.9989 19.1222 7.8356 18.9536 7.86105C18.8582 7.87378 18.7723 7.92362 18.7044 7.99254C18.082 8.61287 17.4648 9.23532 16.8392 9.85459C17.3355 10.7994 17.8572 11.7315 18.3535 12.6773L18.3884 12.672C18.3736 12.6901 18.3609 12.707 18.346 12.7251C18.3185 12.6954 18.2856 12.672 18.2559 12.6498C17.3111 12.1885 16.3652 11.7378 15.4236 11.2766C14.8192 11.8768 14.2169 12.4812 13.6114 13.0835C13.5456 13.1492 13.4831 13.2245 13.4576 13.3157C13.4195 13.4493 13.5053 13.5956 13.6294 13.6508C13.7323 13.6837 13.8436 13.6434 13.9263 13.5776C14.0069 13.5193 14.0822 13.4292 14.1935 13.444C14.5265 13.4843 14.8181 13.6561 15.1129 13.8014C16.9824 14.726 18.8529 15.6592 20.7255 16.5806C20.7913 16.5128 20.857 16.4449 20.9249 16.3813C20.9122 16.3516 20.8995 16.323 20.8846 16.2986C19.9493 14.5627 19.0067 12.8311 18.0725 11.0942C19.2039 12.2235 20.3332 13.3549 21.4646 14.4832C21.5198 14.5436 21.5781 14.6115 21.5855 14.6953C21.5908 14.8713 21.4265 15.0028 21.4445 15.1788C21.4625 15.3124 21.5929 15.428 21.7297 15.4206C21.8527 15.4206 21.9588 15.3453 22.0426 15.2615C22.6905 14.6168 23.3352 13.9657 23.9831 13.321C24.0615 13.2425 24.1294 13.145 24.1389 13.0315C24.1591 12.865 23.9958 12.7017 23.8293 12.7293H23.8272Z" fill="#E6DAFE"/>
<path d="M10.1556 10.0656C10.2743 10.161 10.392 9.98714 10.5161 10.0274C10.584 10.0677 10.6349 10.1282 10.6921 10.1833C10.9615 10.4526 11.2319 10.7252 11.5033 10.9924C11.392 11.1005 11.2838 11.2119 11.1735 11.32C11.2435 11.3985 11.3199 11.4717 11.3952 11.5438C11.5054 11.4356 11.6147 11.3264 11.7228 11.2161C12.0325 11.5215 12.3379 11.8312 12.6454 12.1355C12.6782 12.1705 12.7132 12.2034 12.7387 12.2458C12.7663 12.3571 12.6485 12.4472 12.6729 12.5586C12.691 12.6063 12.7313 12.6445 12.779 12.6646C12.8649 12.6848 12.9402 12.6243 12.9985 12.566C13.3261 12.2405 13.6538 11.9139 13.9815 11.5862C14.0271 11.5385 14.0801 11.4876 14.0928 11.4197C14.1225 11.3285 14.0345 11.2257 13.939 11.2363C13.8606 11.2543 13.7927 11.3063 13.7121 11.3147C13.6464 11.2999 13.5987 11.2469 13.5531 11.2034C12.8797 10.5332 12.2095 9.85989 11.5373 9.1876C11.497 9.14201 11.4418 9.09429 11.4514 9.02642C11.4694 8.94053 11.5341 8.86736 11.5171 8.77935C11.5065 8.69876 11.4164 8.65317 11.3432 8.66907C11.27 8.6871 11.2149 8.74224 11.164 8.79526C10.8342 9.12822 10.4991 9.45588 10.1683 9.79096C10.0898 9.86095 10.0601 9.99774 10.1556 10.0656Z" fill="#E6DAFE"/>
<path d="M12.3029 14.69C11.8798 14.8257 11.4864 15.0505 11.1513 15.3379C11.1513 15.3453 11.1534 15.3601 11.1534 15.3686C11.2541 15.48 11.3655 15.5775 11.4662 15.6857C11.4991 15.7111 11.532 15.7737 11.5818 15.7461C11.708 15.7005 11.8384 15.6528 11.972 15.6708C12.1353 15.6836 12.2795 15.7769 12.393 15.8925C13.6379 17.1395 14.8881 18.3876 16.133 19.6346C16.3016 19.7958 16.3695 20.046 16.3016 20.2676C16.2889 20.3334 16.2465 20.3906 16.2465 20.4596C16.3726 20.6006 16.5158 20.7289 16.6473 20.8678C16.9527 20.5052 17.1944 20.0842 17.3281 19.6282C17.4638 19.1669 17.4839 18.6728 17.3938 18.202C17.2305 17.3431 16.7459 16.5711 16.1394 15.9561C15.519 15.3188 14.7428 14.8045 13.8659 14.6179C13.3495 14.5118 12.8044 14.5299 12.3039 14.691L12.3029 14.69Z" fill="#E6DAFE"/>
<path d="M22.6374 21.5931C22.5293 21.573 22.4434 21.679 22.3352 21.6684C22.2822 21.6589 22.2451 21.6133 22.2048 21.5804C21.6375 21.0131 21.0712 20.4468 20.506 19.8795C20.2091 19.59 19.9239 19.2868 19.6217 19.0047C19.2887 19.3377 18.9536 19.6727 18.6186 20.0057C18.5634 20.064 18.4977 20.1319 18.5051 20.2199C18.4998 20.3005 18.5761 20.3684 18.6535 20.3758C18.7543 20.3631 18.8402 20.2729 18.9483 20.3026C19.012 20.3355 19.0565 20.3959 19.1095 20.4437C19.838 21.1753 20.5686 21.9049 21.2992 22.6334C21.4 22.7415 21.208 22.8677 21.2791 22.9865C21.3268 23.0819 21.4731 23.1254 21.5516 23.0395C21.9068 22.6896 22.2568 22.3343 22.612 21.9833C22.6724 21.9176 22.7562 21.8497 22.7562 21.7511C22.7636 21.6779 22.7032 21.6154 22.6374 21.5921V21.5931Z" fill="#E6DAFE"/>
<path d="M18.9505 22.8274C19.1031 22.75 19.2834 22.7489 19.4372 22.8253C19.5485 22.8656 19.6386 22.9642 19.7627 22.9515C19.838 22.9441 19.873 22.8688 19.9059 22.8126C19.8709 22.6864 19.7595 22.6111 19.6736 22.5231C19.4117 22.2559 19.1445 21.9939 18.8794 21.7267C18.8444 21.6917 18.8062 21.6589 18.7564 21.6461C18.6482 21.6281 18.5528 21.749 18.5931 21.8529C18.6355 21.9738 18.7214 22.0798 18.7522 22.2081C18.7925 22.3343 18.767 22.4701 18.7119 22.5888C18.7925 22.6673 18.8709 22.7479 18.9515 22.8285L18.9505 22.8274Z" fill="#E6DAFE"/>
<path d="M18.8847 23.1095C18.3174 22.5528 17.7607 21.9855 17.1966 21.4288C16.8488 21.7787 16.4956 22.1244 16.1478 22.4775C16.0673 22.5528 16.0376 22.7044 16.1425 22.7723C16.2655 22.8603 16.3822 22.697 16.5105 22.7224C16.6388 22.7977 16.73 22.9186 16.8382 23.0193L18.6758 24.857C18.7511 24.9355 18.8391 25.0055 18.89 25.1041C18.9049 25.2197 18.7819 25.313 18.819 25.4317C18.8391 25.5017 18.9176 25.525 18.9801 25.5473C19.0427 25.5197 19.1116 25.489 19.1594 25.436C19.4976 25.0903 19.8454 24.7531 20.1826 24.4053C19.7468 23.9769 19.3184 23.5411 18.8847 23.1095Z" fill="#E6DAFE"/>
<path d="M23.3861 15.2371C23.5801 15.4513 23.7943 15.6475 23.9958 15.8575C23.8293 15.8193 23.6628 15.779 23.4921 15.7843C23.0457 15.762 22.6099 15.9455 22.2748 16.2328C22.3501 16.3081 22.4285 16.3866 22.507 16.4598C22.5876 16.4322 22.6756 16.4067 22.7636 16.4173C22.8569 16.4248 22.9354 16.4852 23.0001 16.551C23.6628 17.2137 24.3256 17.8764 24.9904 18.5392C25.0732 18.6219 25.1665 18.7078 25.1919 18.8287C25.2142 18.922 25.1696 19.0121 25.1569 19.1054C25.2195 19.1913 25.3054 19.2592 25.3785 19.3345C25.6479 19.0121 25.8324 18.6039 25.8292 18.1776C25.8398 17.7291 25.6606 17.3007 25.4061 16.9401C25.1824 16.6284 24.9056 16.359 24.5875 16.1438C24.6098 16.0833 24.6331 16.0155 24.6002 15.955C24.5398 15.8288 24.4412 15.726 24.3733 15.6051C24.2429 15.393 24.157 15.1438 24.1898 14.8925C24.1114 14.8172 24.0382 14.7366 23.9555 14.6688C23.7668 14.8596 23.5748 15.0494 23.3861 15.2382V15.2371Z" fill="#E6DAFE"/>
<path d="M25.8653 12.7569C25.6765 12.9456 25.4899 13.1376 25.2958 13.3242C25.3637 13.4122 25.4443 13.4907 25.5281 13.566C25.8409 13.5129 26.1357 13.6741 26.3849 13.8459C26.4782 13.9085 26.5715 14.005 26.6924 13.9869C26.8239 13.9668 26.8938 13.7802 26.7952 13.6868C26.4877 13.374 26.1781 13.0644 25.8653 12.7569Z" fill="#E6DAFE"/>
<path d="M16.3323 21.1764C16.1966 21.0407 16.0598 20.907 15.9241 20.7703C15.7756 20.8254 15.6166 20.8816 15.4554 20.8561C15.2741 20.8286 15.1299 20.7077 15.0122 20.5794C13.7853 19.3525 12.5574 18.1278 11.3326 16.8998C11.1735 16.7439 11.0877 16.5064 11.1534 16.2901C11.1661 16.2095 11.2319 16.1342 11.2064 16.0536C11.0802 15.92 10.9445 15.7938 10.8162 15.6634C10.5564 15.9783 10.3369 16.3315 10.199 16.7164C10.0029 17.2402 9.96682 17.8202 10.0782 18.3674C10.2415 19.1913 10.7059 19.9304 11.2806 20.5327C11.9031 21.1806 12.6814 21.7119 13.5658 21.9059C14.1479 22.0342 14.7683 21.9992 15.3229 21.785C15.6908 21.6408 16.0365 21.4372 16.3334 21.1774L16.3323 21.1764Z" fill="#E6DAFE"/>
<path d="M24.9756 19.2815C24.877 19.3122 24.7741 19.3472 24.6734 19.3196C24.562 19.2899 24.4868 19.1988 24.4093 19.1235C23.7445 18.4607 23.0839 17.7959 22.419 17.1331C22.3586 17.0727 22.3002 17.0048 22.2854 16.9189C22.2599 16.8235 22.3034 16.728 22.331 16.6368C22.2557 16.5616 22.1772 16.4852 22.1041 16.4099C21.8517 16.6973 21.6831 17.0631 21.6523 17.4459C21.6173 17.8118 21.7181 18.1744 21.8793 18.4968C21.6226 18.2476 21.2568 18.0906 20.8942 18.1511C20.4509 18.2062 20.1052 18.5212 19.803 18.8266C19.8815 18.9018 19.9568 18.9803 20.0352 19.0556C20.1137 19.01 20.1964 18.9623 20.2897 18.9729C20.4488 18.9824 20.5665 19.1012 20.6778 19.2051C20.8666 19.3939 21.0553 19.5826 21.242 19.7724C21.3321 19.8679 21.436 19.9591 21.4837 20.0852C21.524 20.2082 21.4816 20.3344 21.4159 20.4405C21.4943 20.5158 21.5717 20.5942 21.6481 20.6695C21.857 20.4553 22.0691 20.2337 22.2048 19.9612C22.3437 19.6844 22.3639 19.3536 22.2758 19.0588C22.4625 19.2783 22.6862 19.467 22.9312 19.6229C23.2684 19.835 23.6671 19.9781 24.0732 19.9601C24.4921 19.9601 24.8876 19.7756 25.2046 19.5137C25.1315 19.4331 25.053 19.3578 24.9777 19.2815H24.9756Z" fill="#E6DAFE"/>
<path d="M20.2134 22.5104C20.1476 22.6005 20.2187 22.7118 20.2516 22.803C20.4329 23.1858 20.3947 23.6672 20.1254 24.0002C20.2007 24.0787 20.2791 24.154 20.3523 24.2324C20.6693 23.9376 20.9673 23.6195 21.277 23.3173C21.0076 23.0406 20.7298 22.768 20.4583 22.4934C20.3958 22.4181 20.2664 22.4308 20.2144 22.5114L20.2134 22.5104Z" fill="#E6DAFE"/>
<path d="M9.37724 15.6549C9.37724 15.7355 9.31468 15.8013 9.30938 15.8819C9.30196 15.9571 9.37724 16.0335 9.45571 16.025C9.5257 16.0303 9.5872 15.9826 9.63492 15.9349C9.9753 15.5945 10.3125 15.2541 10.655 14.9148C10.6974 14.8692 10.7356 14.814 10.7356 14.7483C10.7377 14.6529 10.6327 14.5723 10.5416 14.6126C10.4504 14.6454 10.3401 14.7239 10.2563 14.6306C9.96152 14.3464 9.67627 14.0506 9.38467 13.7611C8.85235 13.2319 8.32215 12.7007 7.79196 12.1684C7.51202 12.4483 7.23525 12.7282 6.95319 13.005C6.92562 13.0347 6.90229 13.0655 6.8779 13.0983C7.6838 13.8947 8.48015 14.7006 9.28499 15.5001C9.32528 15.5457 9.38361 15.5881 9.3783 15.656L9.37724 15.6549Z" fill="#E6DAFE"/>
<path d="M8.17264 12.2161C8.40911 12.1885 8.64133 12.2659 8.84069 12.39C8.95945 12.4557 9.05701 12.5543 9.18107 12.6095C9.30514 12.6646 9.44511 12.5289 9.41542 12.4048C9.38997 12.3391 9.33483 12.2935 9.28923 12.2436C9.02413 11.9839 8.7654 11.7166 8.5003 11.46C8.34866 11.6085 8.20339 11.7601 8.05175 11.9064C8.021 11.9361 7.98813 11.9648 7.96904 12.0051C8.02949 12.0803 8.10477 12.1461 8.17264 12.2171V12.2161Z" fill="#E6DAFE"/>
<path d="M8.82478 11.5099C8.91279 11.5003 8.98808 11.4314 9.07927 11.4367C9.16304 11.4664 9.215 11.5396 9.27863 11.5979C9.93713 12.2585 10.5967 12.9181 11.2573 13.5766C11.2881 13.6094 11.3156 13.6444 11.3284 13.6868C11.3337 13.7855 11.2425 13.8639 11.2573 13.9636C11.2669 14.0495 11.3655 14.0993 11.4461 14.0771C11.5192 14.0548 11.5723 13.9944 11.6253 13.9435C11.9508 13.6137 12.2806 13.2881 12.6083 12.9584C12.6835 12.8926 12.7143 12.7548 12.6263 12.6837C12.4906 12.583 12.3294 12.8173 12.2032 12.6816C11.5054 11.986 10.8098 11.2882 10.111 10.5905C10.0782 10.5555 10.0357 10.5173 10.0379 10.4643C10.04 10.3636 10.1333 10.2756 10.0983 10.1716C10.0633 10.0858 9.94985 10.0561 9.87457 10.1038C9.83215 10.1292 9.79928 10.1621 9.76323 10.1939C9.43769 10.5216 9.11002 10.8492 8.78342 11.1769C8.7304 11.2299 8.67526 11.2925 8.68269 11.3709C8.68481 11.4441 8.75055 11.512 8.8269 11.5099H8.82478Z" fill="#E6DAFE"/>
<path d="M18.6557 18.5127C18.7712 18.5 18.8677 18.4225 18.9505 18.3462C19.2633 18.0387 19.575 17.7291 19.8825 17.4162C19.9759 17.3208 20.0639 17.2042 20.0713 17.0663C20.0617 16.9613 19.9949 16.8701 19.8974 16.8298C19.8019 16.7991 19.7033 16.8351 19.6121 16.8648C19.4329 16.9285 19.2315 16.9285 19.0523 16.8595C18.7956 16.763 18.5645 16.6103 18.3768 16.411C18.0311 16.0653 17.6865 15.7228 17.344 15.375C17.3132 15.3474 17.2814 15.3198 17.2453 15.3018C16.8371 15.1025 16.4341 14.8989 16.028 14.7016C15.9199 14.6465 15.8138 14.5882 15.6982 14.55C15.799 14.6688 15.9146 14.7695 16.0206 14.8798C16.7056 15.568 17.3917 16.2509 18.0746 16.9359C18.2559 17.1554 18.4203 17.4099 18.4606 17.6972C18.4881 17.869 18.4224 18.0344 18.3747 18.1988C18.3238 18.36 18.4881 18.536 18.6546 18.5116L18.6557 18.5127Z" fill="#E6DAFE"/>
<path d="M18.2697 20.3599C17.9643 20.6494 17.6727 20.9548 17.3726 21.2495C17.4511 21.3248 17.5263 21.4033 17.6016 21.4807C17.7427 21.398 17.8837 21.3068 18.0449 21.2739C18.2994 21.2082 18.5666 21.2633 18.7978 21.3768C18.8561 21.4022 18.9165 21.4425 18.9823 21.4351C19.0756 21.3948 19.171 21.2612 19.0809 21.1732C18.8115 20.9007 18.539 20.6313 18.2697 20.3588V20.3599Z" fill="#E6DAFE"/>
<path d="M13.482 23.0596C13.3431 23.0925 13.2296 23.2007 13.0844 23.2007C12.9985 23.1932 12.9306 23.1349 12.8702 23.0777L8.98914 19.1966C8.90855 19.116 8.80781 19.0302 8.79721 18.9093C8.80251 18.7704 8.89583 18.6569 8.93294 18.5286C8.98066 18.36 8.82266 18.1787 8.64875 18.1882C8.54272 18.1956 8.44516 18.2508 8.36881 18.3239C7.74106 18.957 7.10907 19.5837 6.47919 20.2167C6.39118 20.3026 6.29044 20.3928 6.25757 20.5189C6.19183 20.6981 6.36573 20.9145 6.55766 20.8816C6.70612 20.854 6.83018 20.73 6.98818 20.7406C7.10376 20.7681 7.18223 20.8667 7.26494 20.9442C7.80892 21.486 8.34654 22.03 8.89264 22.5666C8.89264 22.5772 8.89052 22.5994 8.89052 22.61C8.68587 22.8051 8.48651 23.0056 8.29034 23.2102C8.42607 23.3491 8.56286 23.4849 8.69859 23.6206C8.90007 23.4265 9.09412 23.2219 9.29559 23.0278C9.32847 22.9928 9.35816 23.0427 9.38148 23.0607C9.95834 23.6407 10.5405 24.2176 11.1205 24.7997C11.1788 24.8655 11.252 24.9355 11.2563 25.0288C11.2541 25.1847 11.1279 25.3055 11.112 25.4572C11.0993 25.6109 11.2404 25.7552 11.392 25.7498C11.515 25.7498 11.621 25.6767 11.7069 25.594L13.6602 23.6407C13.7386 23.5601 13.8012 23.4573 13.8065 23.3438C13.8139 23.1773 13.6474 23.0268 13.481 23.0596H13.482Z" fill="#E6DAFE"/>
<path d="M6.98818 14.62C7.02848 14.6582 7.07089 14.7101 7.13452 14.7101C7.24586 14.7228 7.35402 14.6073 7.32114 14.4959C7.29145 14.4132 7.23313 14.3443 7.18541 14.2711C7.02211 14.0421 6.8832 13.7674 6.9235 13.4748C6.84821 13.409 6.78989 13.303 6.69657 13.268C6.51313 13.4366 6.34346 13.6211 6.16214 13.7918C6.43678 14.0686 6.71354 14.3411 6.98924 14.6179L6.98818 14.62Z" fill="#E6DAFE"/>
<path d="M16.9951 23.8125C16.625 23.5676 16.1786 23.4064 15.73 23.4446C15.3292 23.47 14.9517 23.6683 14.6739 23.9535C14.7195 24.0543 14.8202 24.1147 14.8934 24.1953C14.9719 24.1497 15.0546 24.102 15.1479 24.1126C15.3197 24.1253 15.4501 24.2483 15.5657 24.3618L17.2666 26.0627C17.3705 26.1655 17.4733 26.2896 17.4988 26.4412C17.5136 26.542 17.4606 26.6332 17.4161 26.718C17.4914 26.7954 17.5677 26.8717 17.6451 26.947C17.9823 26.6119 18.1689 26.1337 18.1615 25.6597C18.1594 25.244 18.0078 24.8411 17.7607 24.5103C17.5539 24.2303 17.2846 24.0066 16.9951 23.8125Z" fill="#E6DAFE"/>
</svg>
