<svg width="32" height="32" viewBox="0 0 32 32" fill="none" xmlns="http://www.w3.org/2000/svg">
<path fill-rule="evenodd" clip-rule="evenodd" d="M7.0393 14.8917C8.01199 15.8255 8.94576 16.609 8.94576 18.2519C8.94576 20.0434 8.04913 21.2761 5.99234 21.2761C4.53331 21.2761 3.15032 20.6783 3.03714 18.3633L3 17.5056L4.98251 17.3924L5.01965 17.9159C5.09393 18.9611 5.46885 19.2971 5.99234 19.2971C6.43977 19.2971 6.66437 19.0354 6.66437 18.4765C6.66437 17.7284 5.84201 17.0564 5.01965 16.3844C3.82236 15.3392 3.15032 14.4425 3.15032 12.8756C3.15032 11.2698 4.0841 10 6.02948 10C7.52564 10 8.68402 10.672 8.79721 12.8756L8.83435 13.4716L6.92612 13.5848V13.0613C6.92612 12.3893 6.70151 11.9047 6.10375 11.9047C5.76773 11.9047 5.43172 12.1275 5.43172 12.6882C5.39281 13.5105 5.84201 13.8076 7.0393 14.8917ZM27.5311 21.1275L26.5585 16.7204H26.3728V21.1275H23.9039V10.2246H27.0819C28.8027 10.2246 29.924 11.3069 29.924 13.3602C29.924 14.5928 29.4765 15.6009 28.7284 16.1615L30 21.1275H27.5311ZM26.371 15.302H26.5956C27.0077 15.302 27.4551 15.0774 27.4551 13.6962C27.4551 12.2779 27.0819 12.0533 26.6699 12.0533H26.371V15.302ZM16.6105 10.2246H19.7514C21.9585 10.2246 23.0798 11.979 23.0798 15.6752C23.0798 19.3714 21.9585 21.1275 19.7514 21.1275H16.6105V10.2246ZM19.4525 12.0533H19.0794V19.3342H19.4525C20.1635 19.3342 20.5756 18.6994 20.5756 15.6752C20.5756 12.651 20.1635 12.0533 19.4525 12.0533ZM12.2741 17.3924V21.1275H9.80527V10.2246H13.0204C14.7783 10.2246 15.9014 11.2698 15.9014 13.8094C15.9014 16.2729 14.7783 17.3924 12.8347 17.3924H12.2741ZM12.6473 12.0533H12.3113V15.6009H12.6473C13.0222 15.6009 13.4325 15.3392 13.4325 13.8094C13.4325 12.315 13.0222 12.0533 12.6473 12.0533Z" fill="#E6DAFE"/>
</svg>
