<svg width="32" height="32" viewBox="0 0 32 32" fill="none" xmlns="http://www.w3.org/2000/svg">
<path d="M29.2463 11C28.773 11 28.4928 11.3316 28.4928 11.6929C28.4928 12.0542 28.7476 12.3858 29.2463 12.3858C29.7449 12.3858 30 12.057 30 11.6929C30 11.3288 29.7195 11 29.2463 11ZM4.41703 11.0989L2 16.9178H3.36821L3.84116 15.7862H5.98661L6.45956 16.9178H7.82666L5.40487 11.0989H4.41703ZM26.6516 11.0989V12.6451C26.4421 12.5893 26.2262 12.5607 26.0095 12.5599C25.1769 12.5599 24.7254 12.956 24.5277 13.1449C24.1224 13.5676 23.8967 14.1318 23.8987 14.718C23.8917 16.1167 24.6544 16.6711 25.0337 16.8455C25.2887 16.9652 25.5692 17.0207 25.8506 17.0078C26.1681 16.9859 26.4704 16.8643 26.7148 16.6602L26.7534 16.9186H27.9387V11.0989H26.6516ZM21.9859 12.5596C21.7731 12.5591 21.5804 12.5913 21.4442 12.6384C21.2093 12.7141 20.9942 12.8408 20.8138 13.0095L20.7615 12.6608H19.5762V16.9175H20.8739V13.9813C20.9822 13.8863 21.0999 13.8031 21.2255 13.733C21.4526 13.6063 21.7272 13.5995 21.9602 13.7153C22.1873 13.8431 22.2922 14.1431 22.2922 14.5072V16.9217H23.5899V14.418C23.591 13.5014 23.254 13.0936 23.0535 12.9173C22.7517 12.6518 22.3403 12.5602 21.9854 12.5593L21.9859 12.5596ZM12.8467 12.5602C12.3483 12.5767 11.8636 12.7289 11.4452 13.0008C11.1577 12.7037 10.4526 12.4324 9.87282 12.6364C9.63817 12.7124 9.42281 12.8391 9.24242 13.0075L9.19711 12.66H8.00481V16.9167H9.30283V13.9696C9.40491 13.8731 9.5207 13.7927 9.64656 13.731C9.79172 13.6607 10.1503 13.5331 10.4101 13.7518C10.6076 13.9211 10.6193 14.3199 10.6193 14.4326V16.9156H11.9033V14.3653C11.9014 14.2103 11.8871 14.0559 11.8608 13.9031C11.9819 13.826 12.1095 13.7596 12.2423 13.7052C12.5388 13.5735 12.8744 13.6388 12.9851 13.7162C13.2232 13.8824 13.2469 14.2597 13.2469 14.4309V16.9139H14.531V14.3855C14.531 13.9202 14.4658 13.3344 14.0488 12.956C13.6318 12.5776 12.9821 12.5599 12.8467 12.5599V12.5602ZM15.0117 12.6602V15.1777C15.0117 15.65 15.0956 16.1677 15.4198 16.5279C15.7437 16.8884 16.2653 17.0338 16.7455 16.9999C16.9673 16.984 17.1835 16.924 17.3815 16.8228C17.5227 16.7544 17.6517 16.6636 17.7635 16.5534L17.8189 16.9186H19.0042V12.6619L19.0081 12.66H17.7101V15.6091C17.6036 15.6895 17.4903 15.7604 17.3714 15.8207C17.1432 15.9252 16.8842 15.9404 16.6454 15.8633C16.3489 15.7503 16.3086 15.2693 16.3086 15.0664V12.6602H15.0117ZM28.6013 12.6602V16.9181H29.8904V12.6602H28.6013ZM4.91095 12.8682L5.60233 14.6829H4.21957L4.91095 12.8682ZM26.1018 13.6365C26.1219 13.636 26.1423 13.636 26.1625 13.6365C26.3308 13.6385 26.4978 13.6682 26.6564 13.7246L26.6513 15.6312C26.5677 15.7324 26.4586 15.8095 26.3353 15.854C25.887 16.0382 25.3139 15.8313 25.1934 15.0622C25.1405 14.7925 25.162 14.5136 25.2557 14.2555C25.3833 13.8942 25.7194 13.6483 26.1018 13.6365Z" fill="#E6DAFE"/>
<path d="M29.8915 18.0138H2.05034V19.1098H29.8915V18.0138Z" fill="#E6DAFE"/>
<path d="M10.0518 20.1755C10.0043 20.1755 9.95673 20.1803 9.91002 20.1895C9.71843 20.2181 9.53272 20.333 9.4972 20.5371C9.4684 20.6736 9.51427 20.8152 9.61775 20.9082C9.7327 20.9892 9.86219 21.0473 9.99896 21.0795C10.0583 21.096 10.1153 21.1196 10.169 21.1496C10.223 21.1798 10.244 21.2474 10.2166 21.3032C10.188 21.3556 10.1089 21.3685 10.0546 21.3685C9.98581 21.3716 9.91729 21.3556 9.85716 21.322C9.80933 21.2956 9.76682 21.2606 9.73186 21.2182L9.47399 21.4181C9.53412 21.496 9.61215 21.5585 9.70137 21.6003C10.0244 21.7606 10.614 21.6695 10.6081 21.2191C10.6106 21.0854 10.5469 20.959 10.4381 20.8816C10.3147 20.8101 10.1816 20.7569 10.0429 20.7232C9.98274 20.7089 9.92764 20.6789 9.88289 20.636C9.85156 20.5912 9.86219 20.5295 9.90694 20.4981C9.9103 20.4956 9.91393 20.4937 9.91757 20.4917C9.97658 20.4645 10.0431 20.4581 10.1064 20.4738C10.1726 20.4883 10.2331 20.5228 10.2792 20.5727C10.2951 20.5895 10.3094 20.6075 10.3226 20.6262L10.5804 20.4283C10.558 20.3953 10.5323 20.3647 10.5032 20.3372C10.376 20.233 10.2168 20.1758 10.0524 20.1755H10.0518ZM9.7313 21.2185L9.73801 21.2132L9.72822 21.2152C9.72822 21.2152 9.73018 21.2174 9.7313 21.2185ZM11.3082 20.1755C11.2606 20.1755 11.2131 20.1803 11.1666 20.1895C10.9751 20.2181 10.7893 20.333 10.7538 20.5371C10.7247 20.6736 10.7706 20.8152 10.8741 20.9082C10.989 20.9892 11.1185 21.0475 11.2556 21.0795C11.3149 21.096 11.3716 21.1196 11.4253 21.1496C11.4793 21.1798 11.5003 21.2474 11.4729 21.3032C11.4444 21.3567 11.3652 21.3685 11.311 21.3685C11.2422 21.3716 11.1736 21.3556 11.1135 21.322C11.0654 21.2956 11.0226 21.26 10.9876 21.2177L10.7303 21.417C10.7905 21.4949 10.8685 21.5574 10.9577 21.5992C11.2807 21.7595 11.8703 21.6684 11.8645 21.218C11.867 21.0843 11.8032 20.9578 11.6944 20.8805C11.5711 20.809 11.4379 20.7557 11.2992 20.7221C11.2391 20.7078 11.1837 20.6778 11.1392 20.6349C11.1076 20.5904 11.1183 20.5284 11.163 20.497C11.1664 20.4945 11.17 20.4923 11.1739 20.4903C11.2329 20.4631 11.2995 20.4569 11.3627 20.4726C11.429 20.4872 11.4894 20.5217 11.5355 20.5716C11.5515 20.5884 11.5657 20.6061 11.5789 20.6251L11.8368 20.4272C11.8144 20.3944 11.7887 20.3642 11.7598 20.3372C11.6326 20.233 11.4732 20.1758 11.3087 20.1755H11.3082ZM10.9874 21.218L10.9946 21.2124L10.9848 21.2152C10.9848 21.2152 10.9865 21.2168 10.9874 21.218ZM21.9784 20.1814C21.9518 20.1825 21.9255 20.1845 21.8995 20.1878C21.6937 20.2103 21.5135 20.3364 21.4215 20.5222C21.3527 20.67 21.3231 20.8331 21.3354 20.9957C21.3387 21.1529 21.3885 21.3054 21.4789 21.4341C21.6319 21.6359 21.8573 21.6956 22.111 21.6796C22.2693 21.674 22.4256 21.6446 22.5752 21.5925V20.8581H22.0103V21.1431L22.0125 21.149H22.2167V21.359C22.1277 21.3772 22.0354 21.3738 21.9482 21.3489C21.888 21.3242 21.7079 21.2351 21.7317 20.8679C21.7309 20.758 21.7714 20.652 21.8453 20.5707C21.928 20.49 22.057 20.4808 22.1504 20.5492C22.1895 20.5848 22.2211 20.6282 22.2424 20.6767L22.5635 20.5124C22.5414 20.4631 22.5131 20.4169 22.4793 20.3748C22.359 20.2257 22.1644 20.1747 21.9784 20.1814ZM8.44112 20.2066L7.88399 21.644L8.27527 21.6471L8.37399 21.3996H8.85589L8.94874 21.6471H9.36156L8.80051 20.2066H8.44084H8.44112ZM12.0938 20.2066V21.644H13.1605V21.3124H12.4789V21.0778H12.9974V20.774H12.4789V20.5363H13.116V20.2066H12.0938ZM13.2732 20.2066V20.5363H13.6754V21.644H14.0636V20.5363H14.4588V20.2066H13.2732ZM15.0847 20.2066V21.644L15.4542 21.6451V20.9385L15.7507 21.6541H15.9076L16.194 20.9424V21.6451H16.5662V20.2069H16.171L15.8371 21.0632L15.4796 20.2069H15.0845L15.0847 20.2066ZM17.3043 20.2066L16.7472 21.644L17.1393 21.6471L17.238 21.3996H17.7191L17.8119 21.6471H18.2247L17.6637 20.2066H17.3043ZM18.4018 20.2066V21.644L18.7782 21.6451V20.8325L19.2859 21.6451H19.6366V20.2069H19.2582V20.9682L18.7908 20.2069H18.4018V20.2066ZM20.3705 20.2066L19.8122 21.644L20.2043 21.6471L20.3031 21.3996H20.7852L20.8781 21.6471H21.2909L20.7299 20.2066H20.3702H20.3705ZM22.8527 20.2066V21.644H23.9202V21.3124H23.2389V21.0778H23.7575V20.774H23.2389V20.5363H23.876V20.2066H22.8527ZM24.1605 20.2066V21.644L24.5378 21.6451V20.9385L24.8342 21.6541H24.9875L25.2739 20.9424V21.6451H25.6462V20.2069H25.251L24.9131 21.0632L24.5557 20.2069H24.1605V20.2066ZM25.9689 20.2066V21.644H27.0367V21.3124H26.3543V21.0778H26.8729V20.774H26.3543V20.5363H26.9914V20.2066H25.9689ZM27.2778 20.2066V21.644L27.6543 21.6451V20.8325L28.1622 21.6451H28.5126V20.2069H28.1342V20.9682L27.6672 20.2069H27.2778V20.2066ZM28.7042 20.2066V20.5363H29.1061V21.644H29.4946V20.5363H29.8898V20.2066H28.7042ZM8.61312 20.6649L8.76835 21.1025H8.45818L8.6134 20.6649H8.61312ZM17.4763 20.6649L17.6313 21.1025H17.3214L17.4766 20.6649H17.4763ZM20.5422 20.6649L20.6974 21.1025H20.3873L20.5425 20.6649H20.5422Z" fill="#E6DAFE"/>
</svg>
