<svg width="32" height="32" viewBox="0 0 32 32" fill="none" xmlns="http://www.w3.org/2000/svg">
<path d="M19.6794 4.53023C17.0529 3.71874 13.7772 3.84858 11.2778 4.85482C8.13193 6.02336 5.21329 8.84463 3.97983 11.958C2.68145 15.0065 2.68145 18.8016 3.94737 21.8176C5.01853 24.6064 7.38537 27.1058 10.0768 28.4663C10.4014 28.6286 10.7584 28.7909 11.1155 28.9208L13.9043 20.2595H20.1311L18.7678 19.3831H14.1018L15.9195 13.5134L12.8385 18.477L13.7799 19.1262H12.449L11.2805 21.0088L6.28445 23.6353L6.18707 23.6678C6.15461 23.6678 6.18707 23.6353 6.18707 23.6353L12.4463 18.3147L4.46672 19.256V19.1911L12.1867 16.9216L4.43426 14.6522C4.4018 14.6522 4.4018 14.6197 4.43426 14.5872L12.4139 15.4312L6.15461 10.3053L6.18707 10.2728L13.2254 14.1328L9.49523 7.02961C9.49523 7.02961 9.52769 6.99715 9.52769 7.02961L14.4588 13.4187L13.8745 5.1145C13.8745 5.08204 13.907 5.1145 13.9395 5.1145L16.0142 13.0941L18.381 5.34172H18.4459L17.4397 13.3213L22.6305 7.25682C22.6521 7.25682 22.6629 7.26764 22.6629 7.28928L18.7056 14.2951L25.8737 10.6624C25.8737 10.6299 25.9386 10.6624 25.9386 10.6624L19.5495 15.4961L27.7239 14.9768V15.0092L19.7768 16.9865L27.4318 19.678L27.4967 19.7104C27.4967 19.7104 27.4967 19.7429 27.4642 19.7429L19.3223 18.5094L25.614 23.9274C25.614 23.9599 25.614 23.9924 25.5816 23.9924L20.7803 21.3334L24.2183 27.0408V27.0733C26.2281 25.4828 27.6887 23.2458 28.4028 20.9114C29.5389 17.4085 29.0196 13.4836 27.1694 10.4027C25.5194 7.54896 22.6629 5.40663 19.6794 4.53023Z" fill="#E6DAFE"/>
</svg>
