<svg width="32" height="32" viewBox="0 0 32 32" fill="none" xmlns="http://www.w3.org/2000/svg">
<path d="M15.7579 14.1793H11.1267V12.7403C11.1267 11.8326 11.0828 11.2645 10.9949 11.0359C10.9071 10.8073 10.6984 10.693 10.3689 10.693C10.0824 10.693 9.88809 10.791 9.78591 10.9871C9.68277 11.1832 9.6312 11.6858 9.6312 12.495V20.1018C9.6312 20.8134 9.68277 21.2821 9.78591 21.5078C9.88809 21.7326 10.0934 21.845 10.4019 21.845C10.739 21.845 10.9682 21.7178 11.0895 21.4634C11.2098 21.2089 11.27 20.713 11.27 19.9756V18.0946H10.336V15.6872H15.7579V24.1951H12.8428L12.4145 23.0588C12.0994 23.5485 11.7016 23.9158 11.2213 24.1606C10.7409 24.4055 10.1741 24.5279 9.5209 24.5279C8.74354 24.5279 8.01584 24.3596 7.3378 24.0229C6.65976 23.6872 6.14455 23.2711 5.79216 22.7747C5.43977 22.2792 5.21965 21.7589 5.13179 21.2137C5.04393 20.6685 5 19.8507 5 18.7604V14.0516C5 12.5375 5.09168 11.4376 5.27504 10.7518C5.45839 10.0669 5.98459 9.43902 6.85363 8.868C7.72266 8.29699 8.84668 8.01148 10.2257 8.01148C11.5818 8.01148 12.7072 8.25921 13.602 8.75466C14.4969 9.25107 15.0799 9.84026 15.3511 10.5222C15.6223 11.2042 15.7579 12.1946 15.7579 13.4935V14.1793Z" fill="#E6DAFE"/>
<path d="M26.6147 13.3228H22.3129V12.1478C22.3129 11.5997 22.258 11.2506 22.1482 11.1004C22.0384 10.9503 21.855 10.8752 21.5981 10.8752C21.3193 10.8752 21.1087 10.9766 20.9664 11.1793C20.8232 11.3811 20.7515 11.6877 20.7515 12.099C20.7515 12.6279 20.8322 13.0263 20.9936 13.2941C21.1474 13.5619 21.5838 13.8847 22.3029 14.2625C24.3638 15.3529 25.6616 16.2472 26.1964 16.9454C26.7321 17.6437 27 18.7694 27 20.3228C27 21.4524 26.8515 22.2845 26.5545 22.8192C26.2575 23.3548 25.6836 23.8039 24.8327 24.1664C23.9818 24.5279 22.9919 24.7087 21.8631 24.7087C20.6236 24.7087 19.5654 24.5002 18.6888 24.0831C17.8121 23.6652 17.2381 23.1329 16.9669 22.4863C16.6957 21.8407 16.5601 20.9239 16.5601 19.736V18.6987H20.8618V20.6269C20.8618 21.2209 20.922 21.6025 21.0423 21.7718C21.1636 21.9421 21.3785 22.0272 21.6869 22.0272C21.9944 22.0272 22.2236 21.9196 22.3745 21.7044C22.5245 21.4882 22.5994 21.1683 22.5994 20.7446C22.5994 19.811 22.4567 19.2008 22.1711 18.9139C21.877 18.626 21.1545 18.1463 20.0038 17.4749C18.8521 16.7948 17.9453 16.3027 17.5714 15.9957C17.1971 15.6886 16.8872 15.2644 16.6418 14.7231C16.3954 14.1817 16.2722 13.4897 16.2722 12.647C16.2722 11.4333 16.4469 10.3529 16.795 9.79196C17.1436 9.23051 17.7066 8.79148 18.4839 8.47489C19.2618 8.15782 20.3447 8 21.4448 8C22.6472 8 23.6719 8.17312 24.5189 8.51937C25.366 8.86465 25.9271 9.30033 26.2021 9.82639C26.4771 10.3515 26.6147 11.4361 26.6147 12.6958V13.3228Z" fill="#E6DAFE"/>
</svg>
