<svg width="32" height="32" viewBox="0 0 32 32" fill="none" xmlns="http://www.w3.org/2000/svg">
<g clip-path="url(#clip0_6_4592)">
<path d="M4.45768 13.0796H6.11072V15.7872C5.55874 15.8991 5.13604 15.9557 4.67266 15.9557C2.85984 15.9557 2.2207 14.9171 2.2207 13.2074C2.2207 11.3699 3.10678 10.3313 4.87312 10.3313C5.09682 10.3313 5.51952 10.3473 6.04681 10.4272V12.1601H5.66333L5.44689 11.4977C5.23917 10.8673 4.99223 10.555 4.60003 10.555C3.92168 10.555 3.56144 11.473 3.56144 13.1914C3.56144 14.9171 3.70524 15.732 4.59132 15.732C4.71188 15.732 4.85424 15.716 4.99078 15.6768V13.6621L4.45623 13.2946V13.0796H4.45768ZM6.07876 20.3483C6.07876 21.4348 5.33649 22.058 4.02626 22.058C3.66748 22.058 3.14019 22.0028 2.64486 21.9215V19.7978H3.02834L3.18812 20.3004C3.54691 21.4581 3.80257 21.8416 4.25868 21.8416C4.73803 21.8416 5.08084 21.4189 5.08084 20.8596C5.08084 20.405 4.86586 20.0854 4.40248 19.837L3.60356 19.4056C2.98767 19.0788 2.65212 18.5674 2.65212 17.9443C2.65212 17.0016 3.42635 16.4351 4.69736 16.4351C4.98497 16.4351 5.32052 16.4597 5.85507 16.5309V18.2639H5.47158L5.2566 17.6015C5.04017 16.8984 4.80921 16.6428 4.38651 16.6428C3.91442 16.6428 3.63552 16.9464 3.63552 17.385C3.63552 17.7758 3.85195 18.0561 4.27466 18.2958L5.08084 18.7505C5.7592 19.134 6.07876 19.6453 6.07876 20.3483ZM9.61 21.6033L9.76978 21.843V21.9636H8.54816L8.49151 21.5002C8.36368 21.8517 8.02813 22.0595 7.59671 22.0595C6.95758 22.0595 6.55812 21.66 6.55812 21.0049C6.55812 20.3657 6.91691 19.943 8.01942 19.5116L8.49005 19.3286V18.7301C8.49005 18.2028 8.39418 17.9879 8.09931 17.9879C7.85963 17.9879 7.72454 18.1157 7.49213 18.6982L7.22921 19.3504H6.87042V18.0474C7.34106 17.9036 7.81315 17.8077 8.21987 17.8077C9.12193 17.8077 9.61 18.2392 9.61 19.0221V21.6033ZM10.0719 13.8306C10.0719 15.1887 9.34563 15.9557 8.41016 15.9557C7.47615 15.9557 6.74986 15.1887 6.74986 13.8306C6.74986 12.4724 7.47615 11.7054 8.41161 11.7054C9.34563 11.7054 10.0719 12.4724 10.0719 13.8306ZM8.49151 20.9323V19.5508L8.34044 19.6148C7.86835 19.8065 7.69258 20.2379 7.69258 20.8683C7.69258 21.3404 7.80443 21.6106 8.06735 21.6106C8.33027 21.6106 8.49151 21.355 8.49151 20.9323ZM8.89823 13.8306C8.89823 12.2966 8.7704 11.8899 8.41161 11.8899C8.05283 11.8899 7.925 12.2966 7.925 13.8306C7.925 15.3645 8.05283 15.7712 8.41161 15.7712C8.7704 15.7712 8.89823 15.3645 8.89823 13.8306ZM12.9088 20.9715L13.0526 21.0441C12.797 21.7791 12.4701 22.058 11.8383 22.058C10.8084 22.058 10.2332 21.2838 10.2332 19.9329C10.2332 18.5834 10.9042 17.8077 11.998 17.8077C12.2929 17.8077 12.6851 17.8557 13.0207 17.9908V19.3489H12.6459L12.4948 18.8376C12.2944 18.1593 12.184 17.9835 11.9835 17.9835C11.6639 17.9835 11.4083 18.3989 11.4083 19.9808C11.4083 21.2504 11.6 21.7137 12.0867 21.7137C12.4135 21.7152 12.6924 21.5075 12.9088 20.9715ZM12.0213 15.8598H10.5832V15.7407L10.743 15.501V11.0431L10.5832 10.8034V10.6828L11.8615 10.587V15.4996L12.0213 15.7393V15.8598ZM13.9866 15.9557C13.1078 15.9557 12.5805 15.1568 12.5805 13.7914C12.5805 12.4332 13.1311 11.7069 13.9779 11.7069C14.4093 11.7069 14.649 11.8739 14.7521 12.2095V11.0431L14.5924 10.8034V10.6828L15.8706 10.587V15.4996L16.0304 15.7393V15.8584H14.8959L14.8088 15.2512C14.6824 15.7712 14.4427 15.9557 13.9866 15.9557ZM16.7901 21.6033L16.9499 21.843V21.9636H15.5118V21.843L15.6716 21.6033V18.7272C15.6716 18.3844 15.5685 18.1767 15.3201 18.1767C15.0238 18.1767 14.8088 18.4251 14.8088 18.9117V21.6033L14.9686 21.843V21.9636H13.5305V21.843L13.6903 21.6033V17.1454L13.5305 16.9057V16.7866L14.8088 16.6907V18.3437C14.9526 18.0009 15.2794 17.8092 15.7428 17.8092C16.3979 17.8092 16.7887 18.2246 16.7887 19.0308V21.6033H16.7901ZM13.7557 13.8059C13.7557 15.2439 13.8835 15.6826 14.235 15.6826C14.6737 15.6826 14.7536 15.0522 14.7536 13.7899C14.7536 12.5683 14.6664 11.9611 14.2423 11.9611C13.8835 11.9611 13.7557 12.3925 13.7557 13.8059ZM21.7754 15.4996L21.9352 15.7393V15.8584H20.4971V15.7393L20.6569 15.4996V12.5363C20.6569 12.2487 20.561 12.0729 20.3373 12.0729C20.0584 12.0729 19.8347 12.3213 19.8347 12.7992V15.4996L19.9945 15.7393V15.8584H18.5565V15.7393L18.7162 15.4996V12.5363C18.7162 12.2487 18.6204 12.0729 18.3967 12.0729C18.1178 12.0729 17.8941 12.3213 17.8941 12.7992V15.4996L18.0539 15.7393V15.8584H16.6158V15.7393L16.7756 15.4996V12.2487L16.6158 12.057V11.9379L17.7663 11.8013H17.8621L17.8941 12.2487C18.0292 11.8972 18.3647 11.7054 18.8208 11.7054C19.3074 11.7054 19.627 11.9451 19.7708 12.3765C19.8899 11.9611 20.2661 11.7054 20.7455 11.7054C21.3759 11.7054 21.7754 12.1209 21.7754 12.9271V15.4996ZM20.2821 20.7884C20.2821 21.4828 19.8347 22.058 18.7569 22.058C18.478 22.058 18.1018 22.026 17.5193 21.9215V20.4369H17.8461L17.9493 20.7565C18.2049 21.5714 18.4519 21.875 18.8441 21.875C19.2116 21.875 19.4512 21.6106 19.4512 21.2039C19.4512 20.8683 19.2827 20.6374 18.8847 20.4209L18.1977 20.0534C17.759 19.8138 17.5193 19.439 17.5193 18.9756C17.5193 18.2493 18.0873 17.8092 19.0285 17.8092C19.3002 17.8092 19.6517 17.8484 20.0352 17.9283V19.0947H19.7084L19.5399 18.6706C19.3481 18.1593 19.1651 17.9922 18.8615 17.9922C18.5347 17.9922 18.3429 18.184 18.3429 18.5035C18.3429 18.7752 18.5027 18.9582 18.8935 19.1819L19.5718 19.5654C20.0337 19.8297 20.2821 20.2045 20.2821 20.7884ZM25.4504 15.4996L25.6102 15.7393V15.8584H24.3886L24.3334 15.395C24.2056 15.7465 23.87 15.9543 23.4386 15.9543C22.7995 15.9543 22.4 15.5548 22.4 14.8997C22.4 14.2605 22.7588 13.8378 23.8613 13.4064L24.3319 13.2234V12.6249C24.3319 12.0976 24.2361 11.8827 23.9412 11.8827C23.7015 11.8827 23.5664 12.0105 23.334 12.593L23.0711 13.2481H22.7108V11.9466C23.1829 11.8028 23.6536 11.7069 24.0603 11.7069C24.9623 11.7069 25.4504 12.1383 25.4504 12.9213V15.4996ZM24.3319 14.8285V13.4471L24.1809 13.511C23.7102 13.7027 23.5345 14.1342 23.5345 14.7646C23.5345 15.2367 23.6463 15.5083 23.9092 15.5083C24.1721 15.5083 24.3319 15.2527 24.3319 14.8285ZM29.5554 15.7393V15.8584H28.1174V15.7393L28.2771 15.4996V12.6235C28.2771 12.2792 28.174 12.0729 27.9256 12.0729C27.6293 12.0729 27.4143 12.3213 27.4143 12.808V15.4996L27.5741 15.7393V15.8584H26.136V15.7393L26.2958 15.4996V12.2487L26.136 12.057V11.9379L27.2865 11.8013H27.3824L27.4143 12.2487C27.5494 11.8972 27.8777 11.7054 28.3483 11.7054C29.0034 11.7054 29.3942 12.1209 29.3942 12.9271V15.4996L29.5554 15.7393Z" fill="#E6DAFE"/>
</g>
<defs>
<clipPath id="clip0_6_4592">
<rect width="28" height="12.3528" fill="white" transform="translate(2 10)"/>
</clipPath>
</defs>
</svg>
