<svg width="32" height="32" viewBox="0 0 32 32" fill="none" xmlns="http://www.w3.org/2000/svg">
<path d="M6.59229 17.8528C6.59229 18.5374 6.79344 19.0629 7.05634 19.3809C7.40103 19.7973 7.91515 19.9738 8.43928 19.9738C9.11531 19.9738 9.73376 19.8485 10.9256 18.6172C11.8804 17.6303 13.0054 16.245 13.7624 15.3765L15.0444 13.9052C15.9349 12.8834 16.9656 11.7475 18.1474 10.9776C19.1123 10.3491 20.153 10 21.2004 10C22.959 10 24.634 10.7612 25.916 12.1889C27.319 13.7525 28 15.7219 28 17.7543C28 18.9626 27.6812 19.8503 27.1387 20.5517C26.6146 21.23 25.593 21.9077 23.8745 21.9077V19.9738C25.3459 19.9738 25.7132 18.9638 25.7132 17.808C25.7132 16.1608 25.199 14.3329 24.0665 13.0268C23.2628 12.1004 22.2212 11.5343 21.0752 11.5343C19.8359 11.5343 18.8385 12.2325 17.7176 13.4775C17.1217 14.139 16.5099 14.9451 15.8231 15.8547L15.0669 16.8553C13.5479 18.8672 13.1632 19.3254 12.4037 20.0816C11.0725 21.4058 9.93573 21.9077 8.43928 21.9077C6.66407 21.9077 5.54152 21.3335 4.84629 20.4682C4.27876 19.7631 4 18.8379 4 17.7836L6.59229 17.8528Z" fill="#E6DAFE"/>
<path d="M6.04394 12.3254C7.23242 10.957 8.94754 10 10.9147 10C12.054 10 13.1865 10.2519 14.3692 10.9732C15.6628 11.7618 17.0416 13.0605 18.7617 15.2007L19.3785 15.9688C20.8674 17.8217 21.7145 18.7749 22.2103 19.2244C22.8479 19.8017 23.2945 19.9738 23.8745 19.9738C25.3459 19.9738 25.7132 18.9638 25.7132 17.808L28 17.7543C28 18.9626 27.6812 19.8503 27.1387 20.5517C26.6146 21.23 25.593 21.9077 23.8745 21.9077C22.8062 21.9077 21.8598 21.7344 20.8132 20.9968C20.0086 20.4308 19.068 19.4252 18.3444 18.5212L16.1919 15.8354C15.112 14.4875 14.1213 13.4825 13.5479 13.0274C12.9311 12.538 12.1383 11.947 10.873 11.947C9.84892 11.947 8.97926 12.4838 8.25148 13.3049L6.04394 12.3254Z" fill="#E6DAFE"/>
<path d="M10.873 11.947C9.84892 11.947 8.97926 12.4838 8.25148 13.3049C7.2224 14.4651 6.59229 16.1932 6.59229 17.8528C6.59229 18.5374 6.79344 19.0629 7.05634 19.3809L4.84629 20.4682C4.27876 19.7631 4 18.8379 4 17.7836C4 15.8666 4.70439 13.8684 6.04394 12.3254C7.23242 10.957 8.94754 10 10.9147 10L10.873 11.947Z" fill="#E6DAFE"/>
</svg>
