<svg width="32" height="32" viewBox="0 0 32 32" fill="none" xmlns="http://www.w3.org/2000/svg">
<path fill-rule="evenodd" clip-rule="evenodd" d="M7.31772 5.29127C8.26787 4.59775 9.37048 3.90015 10.6011 4.01981C10.5725 4.91459 10.3356 5.7849 10.2267 6.67016C9.76661 9.54623 10.2607 12.4454 10.5616 15.3093C11.9024 14.545 13.4774 14.2146 15.0115 14.39C15.9712 14.4852 16.8805 14.8891 17.5979 15.5309C17.4781 14.7748 17.0588 14.1316 16.679 13.4857C17.1446 13.26 17.602 12.9377 18.1301 12.9023C18.4514 13.2477 18.5998 13.7142 18.6746 14.1711C18.7931 14.8959 18.8666 15.6288 18.8815 16.3632C19.7364 16.1864 20.6062 16.1089 21.4788 16.0871C21.2814 15.5772 20.9997 15.1053 20.8295 14.5845C20.3653 13.2001 20.2537 11.6948 20.5327 10.2602C20.9084 8.36045 22.0465 6.66472 23.5234 5.43541C24.5076 4.67526 25.6579 3.93278 26.9551 4.00485C26.9728 5.27631 26.5631 6.50018 26.4855 7.76347C26.3221 10.135 26.6216 12.5053 26.917 14.8551C27.3322 14.473 27.7746 14.1221 28.2034 13.7563V14.8564C27.8195 15.2304 27.3771 15.5472 27.0436 15.9688C27.0041 16.593 27.0912 17.2185 27.1021 17.8427C27.2777 19.9858 26.9878 22.1615 26.2867 24.1918C25.8825 25.33 25.3788 26.4818 24.5076 27.3426C24.0312 27.8294 23.3124 28.153 22.6345 27.9259C21.8572 27.6485 21.5196 26.7796 21.4502 26.0194C21.2243 23.3881 22.2779 20.8384 23.665 18.6572C23.081 18.1228 22.6318 17.4578 22.0505 16.9248C21.016 16.5902 19.912 16.9234 18.8856 17.1464C18.808 17.6387 18.7604 18.1405 18.5957 18.6137C18.4922 18.8789 18.3166 19.2188 17.9749 19.1536C17.6823 18.6341 17.7966 18.0113 17.7503 17.4415C16.2965 17.6224 14.6712 17.7244 13.3889 16.8853C12.8743 16.5753 12.677 15.9688 12.6933 15.3949C12.0045 15.6112 11.2912 15.8355 10.714 16.287C10.5888 16.7453 10.714 17.2443 10.7072 17.7176C10.8542 20.2088 10.548 22.7612 9.56242 25.0689C9.11865 26.0425 8.59729 27.0516 7.69751 27.6812C7.20746 28.0388 6.50777 28.1122 5.9728 27.8104C5.5195 27.5411 5.2595 27.0393 5.13971 26.5416C4.91239 25.6047 5.01176 24.6269 5.17647 23.6887C5.43919 22.2472 5.90474 20.833 6.62892 19.5547C6.80861 19.2311 7.02641 18.9265 7.16526 18.5824C6.53636 17.859 5.83668 17.1899 5.32076 16.374C4.40464 15.0115 3.96904 13.3606 4.00171 11.7261C3.96223 9.20219 5.35479 6.81294 7.31772 5.29127ZM7.83635 5.94808C6.05311 8.09256 5.52495 11.0788 6.01772 13.7781C6.24641 15.2331 6.9107 16.6011 7.83499 17.7393C8.11677 17.4089 8.40808 17.0866 8.70891 16.7711C8.48295 15.4738 8.24881 14.1752 8.12902 12.8629C7.96295 10.7742 8.33457 8.66777 9.07101 6.71367C9.30242 6.07726 9.58012 5.45717 9.78975 4.8126C8.97844 4.77181 8.34818 5.40006 7.83635 5.94808ZM23.6405 6.75447C22.2452 8.93974 21.9743 11.6839 22.4916 14.186C22.7652 15.5187 23.4336 16.7317 24.2462 17.8087C24.5049 17.4524 24.8125 17.1315 25.0385 16.7534C25.0085 15.6152 24.6519 14.507 24.5825 13.3688C24.3361 11.2243 24.6219 9.02677 25.3597 7.0006C25.6061 6.25812 25.9764 5.5578 26.1574 4.79357C25.0262 4.90915 24.2054 5.84473 23.6405 6.75447ZM14.6617 15.4806C14.3663 15.773 14.614 16.253 14.953 16.3849C15.7629 16.7575 16.7131 16.7602 17.5707 16.5671C17.1146 16.0218 16.5252 15.5649 15.8215 15.399C15.4444 15.3106 14.9979 15.2331 14.6617 15.4806ZM7.73154 19.5602C6.76233 21.2681 6.11165 23.2113 6.1484 25.1913C6.15385 25.7502 6.41793 26.5144 7.09583 26.4927C7.93981 26.3961 8.39991 25.5516 8.69122 24.8445C9.52567 22.6348 9.28472 20.2102 8.91446 17.9311C8.44483 18.4152 8.07729 18.9849 7.73154 19.5602ZM23.081 22.0079C22.6753 23.1515 22.4072 24.3917 22.6073 25.6047C22.6794 26.0684 23.0388 26.5702 23.5683 26.4845C24.3851 26.3363 24.8166 25.5122 25.1011 24.8119C25.9056 22.6253 25.7028 20.2306 25.308 17.98C24.3633 19.1957 23.6092 20.5624 23.081 22.0079Z" fill="#E6DAFE"/>
</svg>
