<svg width="32" height="32" viewBox="0 0 32 32" fill="none" xmlns="http://www.w3.org/2000/svg">
<path d="M16.9202 13.1038C18.2589 11.9487 19.6625 11.9718 20.8563 12.572C21.9663 13.1683 22.3642 14.0268 22.3821 15.2792L22.3816 18.3528C22.3816 18.3528 22.3705 19.2199 21.4982 19.2199C20.6697 19.2199 20.6307 18.3582 20.6307 18.3582L20.6191 15.3216C20.6191 15.3216 20.569 13.9108 19.185 13.9108C17.7941 13.9108 17.6834 15.3141 17.6834 15.3141V18.3034C17.6834 18.3034 17.6834 19.2092 16.8027 19.2092C15.9425 19.2092 15.9246 18.3034 15.9246 18.3034L15.9241 15.3227C15.9241 15.3227 15.8977 13.9108 14.4273 13.9108C12.9642 13.9108 13.0016 15.3436 13.0016 15.3436V18.4092C13.0016 18.4092 12.8993 19.2156 12.1277 19.2156C11.3276 19.2156 11.2465 18.4017 11.2465 18.4017L11.2412 15.3082C11.2412 14.1676 11.4573 13.0361 13.049 12.3952C13.7721 12.104 14.6207 12.1099 15.3818 12.2867C15.8893 12.4747 16.3273 12.7272 16.7542 13.1038L16.8348 13.1758L16.9202 13.1038Z" fill="#E6DAFE"/>
<path d="M8.42743 18.3342C8.42743 17.4451 7.56254 17.4418 7.56254 17.4418H4.44553C4.26107 17.4418 4.23946 17.2984 4.28373 17.1308C4.66479 16.1669 5.50913 15.0876 6.41198 14.6159C7.15881 14.2269 8.01528 13.8224 8.90336 13.8815C9.08942 13.8965 9.08942 13.9841 9.08942 14.2817V18.2912C9.08942 18.2912 9.13422 19.2019 9.99911 19.2019C10.8893 19.2019 10.8187 18.3213 10.8187 18.3213L10.815 13.2867C10.8266 12.981 10.7718 12.6872 10.5931 12.4518C10.4603 12.3288 10.2816 12.1993 10.0798 12.1703C9.01826 12.0806 7.99947 12.1784 7.02283 12.4685C5.2124 13.0063 3.48208 14.5058 2.59399 16.29C2.29199 16.8976 2.0116 17.6949 2 18.4298C2.0116 18.7823 2.15601 19.1938 2.55077 19.1938L7.57677 19.2196C7.57677 19.2196 8.42743 19.2524 8.42743 18.3342Z" fill="#E6DAFE"/>
<path d="M29.2023 16.1513C30.0819 16.2448 29.9723 17.0862 29.9723 17.0862C29.4974 18.6087 28.0981 19.5393 26.4474 19.5393C24.405 19.5393 22.749 17.8507 22.749 15.7688C22.749 13.6875 24.4045 12 26.4474 12C28.1055 12 29.509 12.8247 29.9781 14.3575C29.9781 14.3575 30.2016 15.2805 29.2286 15.3949C28.5082 15.3949 28.3969 14.7959 28.3969 14.7959C28.1181 13.9733 27.3523 13.6714 26.4505 13.6714C25.3137 13.6714 24.3924 14.6105 24.3924 15.7694C24.3924 16.9287 25.3137 17.8684 26.4505 17.8684C27.3413 17.8684 28.0992 17.4655 28.3864 16.6585C28.3864 16.658 28.563 16.1368 29.2023 16.1513Z" fill="#E6DAFE"/>
</svg>
