<svg width="32" height="32" viewBox="0 0 32 32" fill="none" xmlns="http://www.w3.org/2000/svg">
<path fill-rule="evenodd" clip-rule="evenodd" d="M31 20.9779C31 20.9779 20.1505 21.269 16.5155 21.5662L16.2198 21.009C15.5195 21.7036 14.7023 22.2681 13.8064 22.6767C12.9102 23.0852 11.9494 23.331 10.9679 23.4031C9.98658 23.4752 9.00043 23.3722 8.0547 23.0989C7.10917 22.8257 6.21897 22.3864 5.42565 21.8015C4.58166 24.0676 4.58166 25.6527 5.61047 26.0429C7.2802 26.6744 10.3236 23.9191 10.3236 23.9191C8.33361 26.8973 5.05601 28.7301 3.54651 27.7209C2.16649 26.7797 2.41913 23.9935 4.01489 20.5197C2.75132 19.0419 2.03942 17.1677 2.0016 15.2195C1.9636 13.2714 2.60227 11.3708 3.80753 9.84447C5.0126 8.31815 6.70934 7.26141 8.60563 6.85586C10.5021 6.45031 12.4798 6.72124 14.1989 7.6222C14.5946 7.28593 14.9973 6.95809 15.4064 6.63848C15.8157 6.31906 16.2314 6.00807 16.6534 5.70588C17.0754 5.40368 17.5037 5.11029 17.9378 4.82588C18.3718 4.54148 18.8116 4.26606 19.2571 4C17.7292 5.30651 16.2813 6.67481 14.9443 8.05565C15.7699 8.60574 16.4911 9.29944 17.0745 10.1038C17.658 10.9081 18.0941 11.8104 18.3628 12.7685C18.6315 13.7266 18.7282 14.7251 18.6484 15.7172C18.5687 16.7094 18.3136 17.6794 17.8955 18.5817C23.7916 20.9594 30.9754 20.4641 31 20.9779ZM2.99819 15.0462C2.99744 15.4472 3.0293 15.8477 3.09358 16.2435C3.15786 16.6395 3.25418 17.0293 3.38181 17.4094C3.50943 17.7893 3.66779 18.1582 3.85541 18.5122C4.04303 18.8663 4.25896 19.2042 4.50154 19.5229C5.06756 18.4673 5.68015 17.4375 6.33784 16.4369C6.99533 15.4364 7.69717 14.4659 8.44112 13.5283C9.18506 12.5908 9.97037 11.6872 10.7946 10.8201C11.6189 9.95325 12.4815 9.12381 13.3795 8.33425C12.2615 7.82385 11.034 7.60329 9.80921 7.69279C8.58439 7.78248 7.40149 8.17922 6.36876 8.84689C5.33604 9.51457 4.48645 10.432 3.89752 11.515C3.30877 12.5979 2.99949 13.8121 2.99819 15.0462ZM10.3359 22.4207C10.8377 22.4209 11.3381 22.3692 11.8292 22.2664C12.3203 22.1636 12.7995 22.0105 13.2595 21.809C13.7195 21.6077 14.1576 21.3593 14.5669 21.0678C14.9762 20.7762 15.3546 20.4433 15.6961 20.0739L13.4842 15.9007C13.743 16.1351 14.0107 16.3592 14.2869 16.5727C14.563 16.7861 14.8473 16.9887 15.139 17.1799C15.4308 17.371 15.73 17.5508 16.0358 17.7185C16.3415 17.8863 16.6536 18.0421 16.9714 18.1855C17.3496 17.3778 17.5788 16.5077 17.6477 15.6176C17.7167 14.7275 17.6243 13.8323 17.375 12.9756C17.1257 12.1186 16.7236 11.3144 16.1885 10.602C15.6533 9.88941 14.9937 9.28053 14.2421 8.80477C10.2066 13.1267 7.24928 17.5476 5.7953 20.8418C6.11575 21.0958 6.45689 21.3226 6.81498 21.5196C7.17307 21.7165 7.547 21.8828 7.93286 22.017C8.31871 22.1511 8.715 22.2526 9.11762 22.3202C9.52024 22.3878 9.9277 22.4215 10.3359 22.4207Z" fill="#E6DAFE"/>
</svg>
