<svg width="32" height="32" viewBox="0 0 32 32" fill="none" xmlns="http://www.w3.org/2000/svg">
<g clip-path="url(#clip0_6_4925)">
<path d="M21.9681 15.7829H18.0529V17.3561H20.1906C19.6831 18.3014 18.4348 18.6909 17.4018 18.2268C16.3688 17.7624 15.9432 16.62 16.4502 15.6747C16.7995 15.0241 17.5219 14.6106 18.3142 14.6085C18.9432 14.5993 19.5336 14.8852 19.8796 15.3656H21.7496C21.4403 14.1483 19.9762 13 18.3138 13C16.6513 13 15.1269 13.9655 14.7942 15.3913V15.3942V13.2472C12.8152 13.2472 11.5094 15.2806 11.2034 16.4811H11.2025C10.8965 15.2806 9.5897 13.2472 7.61252 13.2472V19.7002H9.32927V15.9859C9.32927 15.9859 10.3218 16.7863 10.3218 19.7002H12.0854C12.0854 16.7863 13.0779 15.9859 13.0779 15.9859V19.7002H14.7952V17.4558C15.206 19.0812 16.6177 20 18.3147 20C20.0116 20 21.554 19.1056 21.9667 17.3683V19.7006C21.9667 19.6981 25.518 19.704 25.4591 19.7006V18.1666H23.6301V17.3548H25.4587V15.7829H23.6301C23.6241 15.7829 23.6301 14.9163 23.6301 14.9163H25.4587V13.344H21.9681V15.7833V15.7829ZM29.2234 16.017C27.7381 14.0615 26.2883 13.3453 25.8843 13.3453V19.6998H27.7055V16.6966C27.7055 16.6966 28.9727 17.946 29.2244 19.7002H31.0005V13.344H29.2239V16.0174L29.2234 16.017ZM4.23885 14.0241C3.25602 14.702 2.65601 15.7075 2.18023 16.6213C1.704 17.5371 1.23467 18.9107 1 19.7141H2.7784C2.90034 19.2652 3.2054 18.2892 3.25372 18.106H5.48074V19.7061H7.20623V13.2337C5.57415 13.0943 4.69346 13.7108 4.23885 14.0241ZM5.48212 16.628H3.97934C4.33686 16.1316 4.92951 15.4768 5.48212 15.1243V16.628Z" fill="#E6DAFE"/>
</g>
<defs>
<clipPath id="clip0_6_4925">
<rect width="30" height="7" fill="white" transform="translate(1 13)"/>
</clipPath>
</defs>
</svg>
