<svg width="32" height="32" viewBox="0 0 32 32" fill="none" xmlns="http://www.w3.org/2000/svg">
<path d="M23.5127 8.99238L21.6456 16.4302L19.7732 8.99238H14.3651V11.7389C13.708 9.33546 11.2972 8.73265 9.14307 8.69841C6.51655 8.66481 3.60632 9.77933 3.50538 13.1804H7.13804C7.13804 12.1537 8.098 11.5658 9.00452 11.5806C10.1175 11.5716 10.6295 12.0368 10.6552 12.7611C10.617 13.3897 10.2383 13.8271 9.01375 13.8271H7.79187V16.2952H8.90093C9.53101 16.2952 10.4078 16.6312 10.4421 17.5099C10.4844 18.5572 9.74081 19.0172 8.82572 19.0263C7.19214 18.9668 6.77055 17.7379 6.77055 16.6809H3C3.01583 17.3929 2.99208 22.0338 8.90159 21.9996C11.7326 22.0248 13.7931 20.8592 14.3743 19.2524V21.7153H18.011V13.6908L20.0219 21.7153H23.2713L25.2895 13.6998V21.7224H29V8.99238H23.5127ZM14.377 16.4128C13.9138 15.4747 13.262 15.0644 12.8951 14.9345C13.6651 14.5992 14.0682 14.1444 14.377 13.2379V16.4128Z" fill="#E6DAFE"/>
</svg>
