<svg width="32" height="32" viewBox="0 0 32 32" fill="none" xmlns="http://www.w3.org/2000/svg">
<path d="M2 14.2214V13.1071H3.38419V14.2214H2ZM2 19.2782V14.7116H3.38419V19.2765L2 19.2782ZM26.6257 17.3575H23.518C23.5751 17.8426 23.9287 18.2146 24.6099 18.2146C25.0264 18.2259 25.4285 18.0579 25.7177 17.7517L26.5459 18.6157C26.1209 19.1042 25.4473 19.4017 24.6141 19.4017C23.0275 19.4017 22.0943 18.4683 22.0943 16.9641C22.0943 15.5747 22.9947 14.5642 24.4209 14.5642C25.8471 14.5642 26.6761 15.4513 26.6761 16.7738C26.6805 16.9697 26.6636 17.1654 26.6257 17.3575ZM25.2978 16.4832C25.2667 16.0093 24.9576 15.6716 24.4259 15.6716C23.8943 15.6716 23.586 16.0058 23.5205 16.4832H25.2978ZM28.9817 19.3974C28.298 19.3974 27.4622 19.2148 26.8449 18.6148L27.6344 17.7492C27.9987 18.0982 28.4786 18.2941 28.9783 18.2977C29.4604 18.2977 29.6704 18.17 29.6704 17.9746C29.6704 17.8263 29.5654 17.7423 29.3017 17.6617C29.0715 17.5915 28.7087 17.5298 28.403 17.438C27.7386 17.2401 27.0784 16.9581 27.0784 16.0007C27.0767 15.1145 27.7856 14.5711 28.9691 14.5711C29.6242 14.5711 30.3633 14.7073 30.9849 15.2696L30.1869 16.1138C29.8384 15.771 29.3521 15.6476 28.9581 15.6476C28.602 15.6476 28.4046 15.7753 28.4046 15.9527C28.4046 16.1001 28.5096 16.1867 28.7784 16.2758C29.0119 16.3521 29.3983 16.4267 29.7023 16.515C30.3398 16.6984 31 16.9752 31 17.8863C31.0034 18.9054 30.1592 19.3982 28.9817 19.3982V19.3974ZM7.66779 14.8908C7.31695 14.474 6.79988 14.242 6.26176 14.2599C5.67802 14.2599 5.37313 14.4742 5.37313 14.7793C5.37313 15.1925 5.83424 15.3356 6.717 15.5884C7.68627 15.867 8.78741 16.1815 8.78741 17.4852C8.78741 18.7888 7.72575 19.3914 6.38271 19.3914C5.24966 19.3914 4.3249 19.0614 3.73024 18.242L4.76334 17.3678C5.15727 17.9086 5.75613 18.1289 6.36592 18.1289C7.09077 18.1289 7.35534 17.8717 7.35534 17.5932C7.35534 17.1886 6.93538 17.0901 5.91824 16.8012C4.87169 16.5038 3.9629 16.0924 3.9629 14.8299C3.9629 13.7217 4.85238 13 6.30712 13C7.23103 13 8.07852 13.2503 8.68998 14.0285L7.66779 14.8908ZM21.5702 14.6242C21.8346 14.6136 22.0901 14.7228 22.2682 14.9225L21.713 16.1138C21.5751 16.0083 21.4066 15.9528 21.2342 15.9561C20.8814 15.9561 20.5791 16.2664 20.5791 16.8304V19.2765H19.1831V14.7116H20.5556V15.3519C20.8008 14.9139 21.1141 14.6242 21.5702 14.6242ZM13.5069 16.1995V19.2765H12.1286V16.6967C12.1286 16.2013 11.8682 15.8978 11.408 15.8978C10.9477 15.8978 10.6344 16.1901 10.6344 16.7138V19.2765H9.25357V13.1054H10.6344V15.3253C10.9575 14.8769 11.4724 14.6147 12.0178 14.6208C12.8602 14.6208 13.5069 15.183 13.5069 16.1995ZM18.7321 18.218V19.1857C18.4737 19.2866 18.1991 19.3378 17.9224 19.3365C17.5419 19.3365 17.1598 19.2148 16.9809 18.7648C16.6818 19.1077 16.1233 19.3708 15.49 19.3708C14.5661 19.3708 13.9722 18.8891 13.9722 17.972C13.9722 17.0746 14.6845 16.5381 15.7848 16.5381C16.1501 16.5387 16.5139 16.5848 16.8683 16.6752V16.5261C16.8683 16.0118 16.5777 15.7084 15.9755 15.7084C15.5695 15.7209 15.1808 15.879 14.8777 16.155L14.1218 15.2807C14.5728 14.8642 15.3052 14.5539 16.1502 14.5539C17.452 14.5539 18.2382 15.1933 18.2382 16.3907V17.99C18.2382 18.1614 18.3222 18.2471 18.5045 18.2471C18.582 18.2468 18.6593 18.237 18.7346 18.218H18.7321ZM16.8691 17.4355C16.6162 17.3715 16.357 17.3373 16.0964 17.3335C15.621 17.3335 15.3858 17.5718 15.3858 17.8983C15.3858 18.2077 15.5941 18.4314 16.0208 18.4314C16.4727 18.4314 16.8691 18.1554 16.8691 17.7372V17.4355Z" fill="#E6DAFE"/>
</svg>
