<svg width="32" height="32" viewBox="0 0 32 32" fill="none" xmlns="http://www.w3.org/2000/svg">
<path d="M12.6838 28C9.11185 27.9794 6.15723 20.6879 6.15723 16.9745C6.15723 10.9087 10.7076 9.58074 12.4613 9.58074C13.2516 9.58074 14.0955 9.8911 14.8398 10.1657C15.3603 10.3573 15.8986 10.5551 16.198 10.5551C16.3772 10.5551 16.7995 10.3869 17.1724 10.2392C17.9675 9.9227 18.957 9.52927 20.1091 9.52927C20.1112 9.52927 20.114 9.52927 20.116 9.52927C20.9763 9.52927 23.5849 9.71809 25.1532 12.0733L25.5206 12.6253L24.9919 13.0243C24.2366 13.5942 22.8585 14.6338 22.8585 16.693C22.8585 19.132 24.4192 20.07 25.169 20.5211C25.5 20.7202 25.8426 20.9255 25.8426 21.3746C25.8426 21.6678 23.5025 27.9636 20.1043 27.9636C19.2728 27.9636 18.685 27.7137 18.1666 27.4933C17.642 27.2701 17.1895 27.0779 16.4417 27.0779C16.0627 27.0779 15.5834 27.2571 15.076 27.4473C14.3826 27.7061 13.5977 28 12.7071 28H12.6838Z" fill="#E6DAFE"/>
<path d="M20.4692 4C20.5577 7.19106 18.2756 9.40488 15.9961 9.26603C15.6205 6.71945 18.2753 4 20.4692 4Z" fill="#E6DAFE"/>
</svg>
