<svg width="32" height="32" viewBox="0 0 32 32" fill="none" xmlns="http://www.w3.org/2000/svg">
<path d="M6.45208 14.8367C6.45208 14.8367 8.62202 11.6351 12.9547 11.3039V10.1424C8.15571 10.5278 4 14.5923 4 14.5923C4 14.5923 6.35373 21.3965 12.9547 22.0195V20.7848C8.11058 20.1754 6.45208 14.8367 6.45208 14.8367ZM12.9547 18.3295V19.4602C9.29362 18.8075 8.2774 15.0018 8.2774 15.0018C8.2774 15.0018 10.0352 13.0545 12.9547 12.7387V13.9794C12.9525 13.9794 12.9509 13.9787 12.9491 13.9787C11.4168 13.7948 10.2198 15.2263 10.2198 15.2263C10.2198 15.2263 10.8907 17.636 12.9547 18.3295ZM12.9547 8V10.1424C13.0955 10.1316 13.2364 10.1224 13.3781 10.1176C18.834 9.9337 22.3889 14.5923 22.3889 14.5923C22.3889 14.5923 18.3059 19.557 14.0523 19.557C13.6624 19.557 13.2975 19.5208 12.9547 19.4601V20.7848C13.2478 20.8221 13.5517 20.844 13.8689 20.844C17.8272 20.844 20.6898 18.8224 23.4616 16.4298C23.9211 16.7979 25.8026 17.6933 26.1893 18.0852C23.5539 20.2917 17.4117 22.0704 13.9295 22.0704C13.5939 22.0704 13.2715 22.05 12.9547 22.0195V23.881H28V8H12.9547ZM12.9547 12.7387V11.3039C13.0941 11.2942 13.2346 11.2867 13.3781 11.2822C17.3014 11.159 19.8754 14.6537 19.8754 14.6537C19.8754 14.6537 17.0952 18.5148 14.1144 18.5148C13.6854 18.5148 13.3008 18.4459 12.9547 18.3295V13.9794C14.482 14.1639 14.7893 14.8386 15.7076 16.3694L17.7499 14.6473C17.7499 14.6473 16.259 12.6921 13.7459 12.6921C13.4728 12.692 13.2114 12.7112 12.9547 12.7387Z" fill="#E6DAFE"/>
</svg>
