<svg width="32" height="32" viewBox="0 0 32 32" fill="none" xmlns="http://www.w3.org/2000/svg">
<path d="M14.0251 23.3773L12.8424 19.7918H7.7388L6.55614 23.3773H4L8.92145 9.50939H11.7176L16.639 23.3802H14.0251V23.3773ZM10.2573 11.9585L8.31711 17.8805H12.2583L10.3267 11.9585H10.2573Z" fill="#E6DAFE"/>
<path d="M23.4342 24.6959H22.107V23.4467C20.6728 23.3571 19.5364 22.9581 18.7036 22.2496C17.8708 21.5412 17.4516 20.6217 17.4458 19.4853H19.7908C19.8342 20.0376 20.0655 20.4945 20.479 20.8559C20.8925 21.2173 21.4361 21.4371 22.107 21.5152V17.3137L21.1846 17.0824C20.0684 16.8135 19.2183 16.3595 18.6313 15.7176C18.0443 15.0757 17.7523 14.2747 17.7523 13.3147C17.7523 12.1812 18.1369 11.2617 18.906 10.5619C19.6752 9.85928 20.7422 9.44867 22.107 9.32723V8H23.4342V9.32723C24.7296 9.44289 25.7648 9.85639 26.5426 10.5706C27.3205 11.2848 27.7224 12.1841 27.7484 13.2655H25.4525C25.441 12.7537 25.2472 12.3142 24.8713 11.9499C24.4954 11.5855 24.0183 11.3629 23.4342 11.2877V15.2752L24.3855 15.4776C25.6029 15.7667 26.5108 16.2236 27.1065 16.8511C27.7022 17.4786 28 18.2998 28 19.3118C28 20.5089 27.6039 21.466 26.8087 22.1802C26.0135 22.8945 24.8887 23.3108 23.4342 23.4236V24.6959ZM20.1176 13.1239C20.1176 13.6039 20.2882 14.0029 20.6265 14.321C20.9648 14.639 21.4593 14.8646 22.107 14.9976V11.279C21.5316 11.3108 21.0545 11.4988 20.6786 11.8458C20.3027 12.1928 20.1176 12.6178 20.1176 13.1239ZM25.6636 19.5634C25.6636 19.0313 25.4814 18.6034 25.12 18.2795C24.7586 17.9557 24.1947 17.7186 23.4342 17.5624V21.5325C24.1398 21.4892 24.6863 21.2925 25.0766 20.9455C25.467 20.5986 25.6636 20.1388 25.6636 19.5605V19.5634Z" fill="#E6DAFE"/>
</svg>
