<svg width="32" height="32" viewBox="0 0 32 32" fill="none" xmlns="http://www.w3.org/2000/svg">
<path d="M14.5412 19.7118C15.1254 21.2429 16.0698 22.4166 17.3746 23.228C18.6793 24.0394 20.2177 24.45 21.9849 24.45C23.5039 24.45 24.6041 24.3582 25.2857 24.1795V27.6957C24.4678 27.8986 23.3578 28 21.9703 28C18.9714 28 16.4204 27.2852 14.3221 25.8507C12.2238 24.4162 10.8314 22.3731 10.1401 19.7166H7V17.3065H9.73604C9.70196 16.8911 9.68736 16.4564 9.68736 16.0072C9.68736 15.5581 9.70196 15.1234 9.73604 14.708H7V12.2978H10.1255C10.5783 10.5204 11.367 9.00865 12.4964 7.75287C13.6259 6.50191 14.989 5.56007 16.6005 4.93701C18.2071 4.30912 19.9986 4 21.9752 4C23.3676 4 24.463 4.12075 25.2614 4.36708V7.84947C24.3461 7.65627 23.2702 7.55967 22.0434 7.55967C20.2615 7.55967 18.7134 7.97021 17.3989 8.78647C16.0844 9.60273 15.1254 10.7764 14.5363 12.293H23.241V14.7032H13.9667C13.9229 15.0799 13.9034 15.5098 13.9034 16.0024C13.9034 16.3115 13.9229 16.7462 13.9667 17.3017H23.241V19.7118H14.5412Z" fill="#E6DAFE"/>
</svg>
