<svg width="32" height="32" viewBox="0 0 32 32" fill="none" xmlns="http://www.w3.org/2000/svg">
<path d="M12.9953 24.5296H25.2857V28H7V24.7053C8.48384 24.4564 9.69789 23.8218 10.6472 22.8066C11.5964 21.7913 12.066 20.615 12.066 19.2874C12.066 18.7553 11.9961 18.194 11.8512 17.5985H7.04996V14.6113H10.837C10.1725 12.9127 9.83778 11.5558 9.83778 10.5406C9.83778 8.48566 10.6272 6.8798 12.2109 5.72788C13.7947 4.57596 16.008 4 18.8557 4C19.85 4 20.8392 4.07809 21.8134 4.23429C22.7877 4.39048 23.5671 4.59548 24.1566 4.84442V8.21721C23.657 7.97804 22.9475 7.77791 22.0333 7.61683C21.114 7.45576 20.2047 7.37278 19.3104 7.37278C17.6817 7.37278 16.4176 7.69005 15.5084 8.3197C14.5991 8.94936 14.1444 9.8377 14.1444 10.975C14.1444 11.8829 14.4292 13.0933 14.9938 14.6113H22.2031V17.5985H15.958C16.0679 18.1159 16.1229 18.5991 16.1229 19.0433C16.1229 20.2099 15.8281 21.2642 15.2336 22.2062C14.639 23.1483 13.8946 23.8902 13.0003 24.4271V24.5247L12.9953 24.5296Z" fill="#E6DAFE"/>
</svg>
