<svg width="32" height="32" viewBox="0 0 32 32" fill="none" xmlns="http://www.w3.org/2000/svg">
<path d="M3 21.2977V11.1087H4.56652L9.57097 18.2476H9.63405V11.1087H11.3667V21.2977H9.81489L4.80413 14.1525H4.74104V21.2977H3Z" fill="#E6DAFE"/>
<path d="M12.6178 21.2977V20.0828L17.9713 12.6975V12.6487H12.765V11.1087H20.1518V12.3237L14.8256 19.7089V19.7578H20.2843V21.2977H12.6178Z" fill="#E6DAFE"/>
<path d="M25.6798 22.2642H24.7147V21.3466C23.6717 21.2807 22.8454 20.9876 22.2398 20.4672C21.6342 19.9468 21.3293 19.2714 21.3251 18.4366H23.0304C23.0619 18.8423 23.2302 19.1779 23.5308 19.4434C23.8315 19.7089 24.2268 19.8704 24.7147 19.9277V16.8415L24.0439 16.6716C23.2323 16.474 22.6141 16.1406 22.1872 15.669C21.7604 15.1975 21.548 14.6091 21.548 13.904C21.548 13.0713 21.8277 12.3959 22.387 11.8819C22.9463 11.3658 23.7222 11.0641 24.7147 10.9749V10H25.6798V10.9749C26.6218 11.0599 27.3746 11.3636 27.9402 11.8883C28.5059 12.4129 28.7981 13.0735 28.8171 13.8679H27.1475C27.1391 13.4919 26.9982 13.1691 26.7249 12.9014C26.4515 12.6338 26.1046 12.4702 25.6798 12.415V15.3441L26.3716 15.4927C27.2569 15.7051 27.9171 16.0407 28.3503 16.5017C28.7834 16.9626 29 17.5658 29 18.3092C29 19.1886 28.7119 19.8916 28.1337 20.4162C27.5554 20.9409 26.7375 21.2467 25.6798 21.3296V22.2642ZM23.268 13.7638C23.268 14.1164 23.3921 14.4095 23.6381 14.6431C23.8841 14.8768 24.2437 15.0425 24.7147 15.1402V12.4086C24.2962 12.432 23.9493 12.5701 23.6759 12.825C23.4026 13.0798 23.268 13.3921 23.268 13.7638ZM27.301 18.494C27.301 18.1032 27.1685 17.7888 26.9057 17.5509C26.6429 17.313 26.2328 17.1389 25.6798 17.0242V19.9405C26.1929 19.9086 26.5903 19.7642 26.8742 19.5093C27.158 19.2544 27.301 18.9167 27.301 18.4919V18.494Z" fill="#E6DAFE"/>
</svg>
