<svg width="32" height="32" viewBox="0 0 32 32" fill="none" xmlns="http://www.w3.org/2000/svg">
<path d="M12.7514 29C12.2486 29 11.698 28.9641 11.0994 28.8923C10.5009 28.8444 9.96225 28.7606 9.48343 28.6409V17.6519L6 18.837V15.7127L9.48343 14.5276V12.3011L6 13.4862V10.3619L9.48343 9.17679V3H14.7265V7.38122L20.3287 5.44199V8.5663L14.7265 10.5055V12.732L20.3287 10.7928V13.8812L14.7265 15.8204V24.6188C16.2348 24.3554 17.4079 23.8527 18.2459 23.1105C19.1077 22.3683 19.7063 21.3987 20.0414 20.2017C20.4006 19.0046 20.5801 17.628 20.5801 16.0718H25.5C25.5 17.7238 25.2845 19.3278 24.8536 20.884C24.4227 22.4162 23.7164 23.7928 22.7348 25.0138C21.7772 26.2348 20.4724 27.2044 18.8204 27.9227C17.1924 28.6409 15.1694 29 12.7514 29Z" fill="#E6DAFE"/>
</svg>
