<svg width="32" height="32" viewBox="0 0 32 32" fill="none" xmlns="http://www.w3.org/2000/svg">
<path d="M7.80165 18.095L13.8243 11.0795H18.1574L11.7577 18.3195L18.4299 27.9091H14.0832L9.028 20.7169L7.76077 22.0684V27.9091H4V5H7.76077V18.095H7.8062H7.80165Z" fill="#E6DAFE"/>
<path d="M19.3066 27.9043V11.0795H22.913V14.0165H22.9902C23.2627 12.9898 23.7305 12.197 24.4027 11.6335C25.0704 11.0747 25.8789 10.7929 26.8236 10.7929C27.1552 10.7929 27.5458 10.8455 28 10.9505V14.5228C27.6276 14.3747 27.1189 14.2983 26.4739 14.2983C25.4065 14.2983 24.5708 14.6374 23.9667 15.3155C23.3626 15.9937 23.0583 16.925 23.0583 18.1093V27.9043H19.2975H19.3066Z" fill="#E6DAFE"/>
</svg>
