<svg width="32" height="32" viewBox="0 0 32 32" fill="none" xmlns="http://www.w3.org/2000/svg">
<path d="M4 19.1305H6.55071C6.63359 19.7998 6.98043 20.3408 7.59125 20.7503C8.20207 21.1598 8.96022 21.3646 9.86571 21.3646C10.7712 21.3646 11.4741 21.169 12.0327 20.7747C12.5914 20.3805 12.8738 19.8793 12.8738 19.2711C12.8738 18.7423 12.6712 18.3144 12.263 17.9874C11.8547 17.6604 11.1886 17.3853 10.2647 17.1683L8.35555 16.7221C7.00192 16.4104 5.99821 15.9275 5.34135 15.2704C4.68449 14.6133 4.35606 13.7605 4.35606 12.7092C4.35606 11.4164 4.86558 10.365 5.88771 9.56119C6.90677 8.75433 8.22355 8.3509 9.83502 8.3509C11.4465 8.3509 12.7571 8.74822 13.7486 9.54591C14.7369 10.3405 15.2495 11.3858 15.2833 12.6786H12.7725C12.7111 11.994 12.4164 11.4592 11.8854 11.0679C11.3544 10.6798 10.6638 10.4842 9.81354 10.4842C8.9633 10.4842 8.31258 10.6706 7.79998 11.0435C7.28738 11.4164 7.02954 11.9084 7.02954 12.5166C7.02954 13.0056 7.22906 13.3999 7.62502 13.7055C8.02098 14.0112 8.67477 14.2709 9.58026 14.4879L11.2746 14.873C12.7633 15.2123 13.8468 15.7074 14.519 16.3553C15.1912 17.0063 15.5288 17.8774 15.5288 18.9654C15.5288 20.353 15.007 21.4563 13.9634 22.2723C12.9198 23.0884 11.5079 23.4979 9.72452 23.4979C7.94117 23.4979 6.65814 23.1067 5.6268 22.3243C4.59547 21.5419 4.05525 20.4783 4 19.1305Z" fill="#E6DAFE"/>
<path d="M23.1533 24.6471H21.7445V23.3267C20.222 23.232 19.0157 22.8102 18.1317 22.0614C17.2477 21.3126 16.8027 20.3407 16.7965 19.1396H19.2858C19.3319 19.7234 19.5774 20.2063 20.0164 20.5883C20.4553 20.9703 21.0324 21.2026 21.7445 21.2851V16.8443L20.7653 16.5998C19.5805 16.3156 18.6781 15.8358 18.055 15.1573C17.4319 14.4788 17.1219 13.6322 17.1219 12.6175C17.1219 11.4194 17.5301 10.4475 18.3466 9.70787C19.1631 8.96519 20.2957 8.5312 21.7445 8.40284V7H23.1533V8.40284C24.5285 8.52509 25.6273 8.96214 26.453 9.71704C27.2787 10.4719 27.7053 11.4225 27.733 12.5655H25.2958C25.2835 12.0246 25.0779 11.56 24.6789 11.1749C24.2798 10.7898 23.7734 10.5545 23.1533 10.475V14.6896L24.1632 14.9036C25.4554 15.2092 26.4192 15.6921 27.0515 16.3553C27.6838 17.0185 28 17.8865 28 18.9562C28 20.2215 27.5795 21.2332 26.7354 21.9881C25.8913 22.743 24.6973 23.1831 23.1533 23.3023V24.6471ZM19.6327 12.4158C19.6327 12.9231 19.8138 13.3449 20.1729 13.6811C20.532 14.0173 21.0569 14.2556 21.7445 14.3962V10.4658C21.1336 10.4995 20.6272 10.6981 20.2282 11.0649C19.8291 11.4316 19.6327 11.8809 19.6327 12.4158ZM25.5199 19.2221C25.5199 18.6598 25.3265 18.2074 24.9428 17.8651C24.5591 17.5228 23.9606 17.2722 23.1533 17.1072V21.3035C23.9023 21.2576 24.4824 21.0498 24.8968 20.683C25.3112 20.3163 25.5199 19.8303 25.5199 19.2191V19.2221Z" fill="#E6DAFE"/>
</svg>
