<svg width="32" height="32" viewBox="0 0 32 32" fill="none" xmlns="http://www.w3.org/2000/svg">
<path d="M6.68369 18.0653V23.7491H4V8.64372H9.95855C11.5725 8.64372 12.8424 9.06568 13.7652 9.90644C14.6879 10.7472 15.1477 11.8934 15.1477 13.3451C15.1477 14.3559 14.8974 15.247 14.4001 16.0185C13.8997 16.79 13.2084 17.3347 12.3201 17.6559L15.5949 23.7491H12.539L9.58634 18.0653H6.68369ZM6.68369 10.8322V15.9933H9.70833C10.5622 15.9933 11.2222 15.7666 11.6945 15.3131C12.1668 14.8597 12.4014 14.2236 12.4014 13.408C12.4014 12.5925 12.1543 11.9847 11.6632 11.525C11.1722 11.0652 10.5028 10.8354 9.65515 10.8354H6.68056L6.68369 10.8322Z" fill="#E6DAFE"/>
<path d="M23.0611 25.1818H21.6254V23.8215C20.074 23.7239 18.8448 23.2893 17.944 22.5178C17.0431 21.7464 16.5896 20.745 16.5833 19.5075H19.12C19.167 20.1089 19.4172 20.6065 19.8645 21.0001C20.3117 21.3937 20.8998 21.633 21.6254 21.718V17.1427L20.6277 16.8907C19.4203 16.5979 18.5007 16.1035 17.8658 15.4044C17.2308 14.7054 16.9149 13.8331 16.9149 12.7877C16.9149 11.5533 17.3309 10.552 18.1629 9.78993C18.9949 9.02475 20.1491 8.57761 21.6254 8.44536V7H23.0611V8.44536C24.4624 8.57132 25.5822 9.02161 26.4236 9.79939C27.265 10.5772 27.6997 11.5565 27.7279 12.7342H25.2444C25.2319 12.1768 25.0223 11.6982 24.6157 11.3014C24.209 10.9046 23.693 10.6622 23.0611 10.5803V14.9227L24.0902 15.1431C25.407 15.458 26.3892 15.9555 27.0335 16.6388C27.6778 17.3221 28 18.2164 28 19.3185C28 20.6222 27.5715 21.6645 26.7113 22.4423C25.8512 23.22 24.6344 23.6735 23.0611 23.7963V25.1818ZM19.4735 12.5799C19.4735 13.1026 19.658 13.5371 20.024 13.8835C20.3899 14.2299 20.9248 14.4755 21.6254 14.6204V10.5709C21.003 10.6055 20.4869 10.8102 20.0803 11.188C19.6737 11.5659 19.4735 12.0288 19.4735 12.5799ZM25.4727 19.5925C25.4727 19.0131 25.2756 18.5471 24.8847 18.1944C24.4937 17.8417 23.8838 17.5835 23.0611 17.4135V21.7369C23.8243 21.6897 24.4155 21.4756 24.8377 21.0977C25.26 20.7198 25.4727 20.2191 25.4727 19.5893V19.5925Z" fill="#E6DAFE"/>
</svg>
