<svg width="32" height="32" viewBox="0 0 32 32" fill="none" xmlns="http://www.w3.org/2000/svg">
<path d="M9.57026 20.6774V14.483H9.52859L7.01724 20.6046H5.95726L3.44592 14.483H3.40425V20.6774H2V11.9481H3.80106L6.46279 18.5356H6.51171L9.17344 11.9481H10.9691V20.6774H9.57026Z" fill="#E6DAFE"/>
<path d="M16.3342 18.7612H17.7385C17.6424 19.3709 17.3344 19.864 16.8162 20.2407C16.298 20.6174 15.6638 20.8066 14.9137 20.8066C13.9588 20.8066 13.2068 20.5118 12.6614 19.9204C12.116 19.329 11.8424 18.5228 11.8424 17.4983C11.8424 16.4738 12.1142 15.6677 12.6578 15.0544C13.2014 14.4411 13.9334 14.1354 14.8539 14.1354C15.7743 14.1354 16.4737 14.4266 17.0046 15.0089C17.5337 15.5912 17.8001 16.3701 17.8001 17.3473V17.8368H13.3373V17.9278C13.3373 18.4446 13.4822 18.8595 13.774 19.1743C14.0657 19.4891 14.4552 19.6456 14.9463 19.6456C15.2924 19.6456 15.5895 19.5656 15.8414 19.4072C16.0914 19.2471 16.2581 19.0324 16.3378 18.7631L16.3342 18.7612ZM14.8593 15.3019C14.4426 15.3019 14.0929 15.4457 13.8138 15.735C13.5348 16.0225 13.379 16.3937 13.3463 16.845H16.327C16.3107 16.3901 16.1675 16.0189 15.8993 15.7314C15.6294 15.4456 15.2833 15.3019 14.8575 15.3019H14.8593Z" fill="#E6DAFE"/>
<path d="M20.9057 18.3791H20.8749L19.5504 20.6774H17.9541L20.0142 17.4783L17.9722 14.2664H19.6591L20.9474 16.5175H20.9782L22.2484 14.2664H23.8918L21.8389 17.4365L23.8682 20.6793H22.2302L20.9057 18.3809V18.3791Z" fill="#E6DAFE"/>
<path d="M28.139 21.5072H27.3073V20.7211C26.4086 20.6647 25.6965 20.4136 25.1746 19.9677C24.6528 19.5219 24.3901 18.9432 24.3864 18.2281H25.8559C25.8831 18.5756 26.0281 18.8631 26.2872 19.0906C26.5463 19.3181 26.8869 19.4564 27.3073 19.5055V16.8614L26.7293 16.7158C26.0299 16.5466 25.4972 16.2609 25.1293 15.8569C24.7615 15.4529 24.5785 14.9489 24.5785 14.3447C24.5785 13.6314 24.8195 13.0527 25.3015 12.6123C25.7834 12.1701 26.452 11.9117 27.3073 11.8353V11H28.139V11.8353C28.9507 11.9081 29.5994 12.1683 30.0868 12.6178C30.5742 13.0672 30.826 13.6332 30.8424 14.3138H29.4037C29.3964 13.9917 29.275 13.7151 29.0395 13.4858C28.8039 13.2565 28.505 13.1164 28.139 13.0691V15.5785L28.7351 15.7059C29.4979 15.8879 30.0668 16.1754 30.4401 16.5703C30.8134 16.9651 31 17.482 31 18.1189C31 18.8722 30.7518 19.4746 30.2535 19.9241C29.7552 20.3735 29.0504 20.6356 28.139 20.7066V21.5072ZM26.0607 14.2246C26.0607 14.5267 26.1676 14.7778 26.3796 14.978C26.5916 15.1782 26.9014 15.3201 27.3073 15.4038V13.0636C26.9467 13.0836 26.6477 13.2019 26.4122 13.4203C26.1766 13.6386 26.0607 13.9061 26.0607 14.2246ZM29.536 18.2772C29.536 17.9424 29.4218 17.673 29.1953 17.4692C28.9688 17.2654 28.6155 17.1162 28.139 17.0179V19.5164C28.5811 19.4891 28.9235 19.3654 29.1681 19.147C29.4127 18.9287 29.536 18.6393 29.536 18.2754V18.2772Z" fill="#E6DAFE"/>
</svg>
