<svg width="32" height="32" viewBox="0 0 32 32" fill="none" xmlns="http://www.w3.org/2000/svg">
<path d="M11.3767 21.0885H9.60821V16.7502H4.77682V21.0885H3V11.0882H4.77682V15.2451H9.60821V11.0882H11.3767V21.0885Z" fill="#E6DAFE"/>
<path d="M14.6198 21.0885H12.8429V11.0882H14.6198V15.7663H14.6819L18.6476 11.0882H20.6916L16.8646 15.5224L20.9878 21.0864H18.8257L15.5972 16.7211L14.6198 17.8718V21.0885Z" fill="#E6DAFE"/>
<path d="M25.7301 22.037H24.7795V21.1364C23.7524 21.0718 22.9385 20.7841 22.3421 20.2734C21.7457 19.7626 21.4454 19.0997 21.4413 18.2804H23.1207C23.1518 18.6786 23.3175 19.0059 23.6136 19.2686C23.9098 19.5291 24.2991 19.6876 24.7795 19.7439V16.7148L24.1189 16.548C23.3196 16.3542 22.7107 16.0269 22.2903 15.5641C21.8699 15.1013 21.6608 14.5238 21.6608 13.8317C21.6608 13.0145 21.9362 12.3515 22.4871 11.847C23.0379 11.3405 23.8021 11.0444 24.7795 10.9569V10H25.7301V10.9569C26.6578 11.0403 27.3992 11.3384 27.9563 11.8533C28.5133 12.3682 28.8012 13.0165 28.8198 13.7962H27.1755C27.1673 13.4272 27.0285 13.1104 26.7593 12.8477C26.4901 12.585 26.1484 12.4245 25.7301 12.3703V15.2451L26.4114 15.391C27.2832 15.5995 27.9335 15.9289 28.3601 16.3813C28.7867 16.8336 29 17.4257 29 18.1553C29 19.0184 28.7163 19.7084 28.1468 20.2233C27.5773 20.7383 26.7717 21.0385 25.7301 21.1198V22.037ZM23.3548 13.6941C23.3548 14.0401 23.4769 14.3278 23.7192 14.5571C23.9615 14.7865 24.3156 14.9491 24.7795 15.045V12.364C24.3674 12.387 24.0257 12.5225 23.7565 12.7726C23.4873 13.0228 23.3548 13.3293 23.3548 13.6941ZM27.3267 18.3367C27.3267 17.9531 27.1963 17.6446 26.9374 17.4111C26.6785 17.1776 26.2747 17.0067 25.7301 16.8941V19.7564C26.2354 19.723 26.6268 19.5833 26.9063 19.3332C27.1859 19.083 27.3267 18.7516 27.3267 18.3346V18.3367Z" fill="#E6DAFE"/>
</svg>
