<svg width="32" height="32" viewBox="0 0 32 32" fill="none" xmlns="http://www.w3.org/2000/svg">
<path d="M19.8846 24.5721H13.3129V28H9.07339V24.5721H6V21.7798H9.07339V19.0525H6V15.7598H9.07339V4H17.7451C20.0328 4 21.8858 4.71059 23.3039 6.12677C24.722 7.54795 25.4286 9.35946 25.4286 11.5663C25.4286 13.7731 24.7022 15.5696 23.2446 16.9808C21.787 18.392 19.8945 19.1026 17.5623 19.1026H13.3079V21.7798H19.8797V24.5721H19.8846ZM13.3129 15.7248H16.5148C18.0169 15.7248 19.1583 15.3595 19.9488 14.6339C20.7345 13.9083 21.1298 12.8974 21.1298 11.5963C21.1298 10.2952 20.7345 9.31943 19.9488 8.59382C19.1583 7.86822 18.0218 7.50292 16.5345 7.50292H13.3129V15.7248Z" fill="#E6DAFE"/>
</svg>
