<svg width="32" height="32" viewBox="0 0 32 32" fill="none" xmlns="http://www.w3.org/2000/svg">
<path d="M11.2323 18.9693V28H7V4H16.3969C18.9422 4 20.9449 4.67041 22.4001 6.00624C23.8552 7.34208 24.5803 9.16322 24.5803 11.4697C24.5803 13.0757 24.1857 14.4915 23.4014 15.7173C22.6122 16.9431 21.522 17.8086 20.1211 18.3189L25.2857 28H20.4664L15.8099 18.9693H11.2323ZM11.2323 7.47716V15.6773H16.0023C17.3489 15.6773 18.3897 15.3171 19.1346 14.5966C19.8794 13.8762 20.2494 12.8655 20.2494 11.5697C20.2494 10.2739 19.8597 9.30831 19.0853 8.57786C18.3108 7.8474 17.2552 7.48217 15.9184 7.48217H11.2274L11.2323 7.47716Z" fill="#E6DAFE"/>
</svg>
