<svg width="32" height="32" viewBox="0 0 32 32" fill="none" xmlns="http://www.w3.org/2000/svg">
<path d="M6.65053 11L7.9451 13.4975L9.23909 11H11.889L9.14039 15.5396L11.8276 20.0054H9.17711L7.94452 17.5944L6.68726 20.0054H4.03673L6.73603 15.5396L4 11H6.65053Z" fill="#E6DAFE"/>
<path d="M15.1927 11H18.0153L20.7519 20.0048H18.2988L17.7686 18.43H15.3401L14.8225 20.0048H12.3694L15.1927 11ZM17.2883 16.4004L16.6347 13.9894L15.883 16.4004H17.2883Z" fill="#E6DAFE"/>
<path d="M20.8873 11H23.2785V16.0682C23.2785 17.2245 23.3032 17.926 24.4744 17.926C25.5715 17.926 25.5962 17.1758 25.5962 16.0682V11H28V16.0682C28 20.0415 25.9663 20.0661 24.4744 20.0661C22.7982 20.0661 20.8873 20.1646 20.8873 16.0682V11Z" fill="#E6DAFE"/>
</svg>
