<svg width="32" height="32" viewBox="0 0 32 32" fill="none" xmlns="http://www.w3.org/2000/svg">
<path d="M16 3C8.83 3 3 8.83 3 16C3 23.17 8.83 29 16 29C23.17 29 29 23.17 29 16C29 8.83 23.17 3 16 3ZM28.05 15.55L26.97 16.33L27.38 17.59L26.3 16.81L25.22 17.59L25.63 16.33L24.55 15.55H25.88L26.29 14.28L26.7 15.55H28.05ZM24.54 10.36L24.95 9.09L25.36 10.36H26.69L25.61 11.14L26.02 12.4L24.95 11.62L23.87 12.4L24.28 11.13L23.2 10.35H24.53L24.54 10.36ZM20.59 6.66L21 5.38998L21.41 6.66H22.74L21.66 7.44L22.07 8.70999L20.99 7.92999L19.91 8.70999L20.32 7.44L19.24 6.66H20.59ZM15.53 5.04999L15.94 3.78L16.35 5.04999H17.68L16.6 5.82999L17.01 7.09L15.94 6.31L14.86 7.09L15.27 5.82999L14.19 5.04999H15.53ZM10.22 6.66L10.63 5.38998L11.04 6.66H12.37L11.29 7.44L11.7 8.70999L10.63 7.92999L9.55 8.70999L9.96 7.44L8.88 6.66H10.22ZM6.51 10.36L6.92 9.09L7.33 10.36H8.66L7.58 11.14L7.99 12.41L6.91 11.63L5.83 12.41L6.24 11.14L5.17 10.36H6.51ZM5.28 15.79L5.69 14.52L6.1 15.79H7.43L6.35 16.57L6.76 17.84L5.68 17.06L4.6 17.84L5.01 16.57L3.93 15.79H5.28ZM9.82 27.11C8.14 26.17 6.7 24.87 5.6 23.31V19.01H3.64C3.56 18.7 3.5 18.38 3.45 18.05H8.15C8.46 19.24 9.04 20.33 9.81 21.24V27.1L9.82 27.11ZM18.11 28.53C17.42 28.65 16.72 28.72 16 28.72C15.28 28.72 14.58 28.65 13.89 28.53V23.83C14.56 24.01 15.27 24.12 16 24.12C16.73 24.12 17.43 24.01 18.11 23.83V28.53ZM16 23.85C11.67 23.85 8.14 20.33 8.14 15.99C8.14 11.65 11.66 8.13 16 8.13C20.34 8.13 23.86 11.65 23.86 15.99C23.86 20.33 20.34 23.85 16 23.85ZM26.4 19.01V23.31C25.3 24.87 23.86 26.18 22.18 27.11V21.25C22.96 20.34 23.53 19.25 23.84 18.06H28.54C28.49 18.38 28.42 18.7 28.35 19.02H26.4V19.01Z" fill="#E6DAFE"/>
<path d="M13.64 15.91V15.89C13.97 15.83 14.23 15.7 14.43 15.47C14.63 15.25 14.73 14.98 14.73 14.65C14.73 14.24 14.56 13.91 14.23 13.65C13.9 13.39 13.48 13.26 12.96 13.26C12.44 13.26 11.98 13.4 11.64 13.68C11.3 13.96 11.12 14.34 11.1 14.81H11.97C11.99 14.57 12.08 14.37 12.25 14.22C12.42 14.07 12.64 14 12.91 14C13.2 14 13.42 14.07 13.58 14.21C13.74 14.35 13.82 14.53 13.82 14.77C13.82 15.01 13.74 15.2 13.57 15.35C13.4 15.5 13.18 15.57 12.92 15.57H12.29V16.28H12.94C13.26 16.28 13.52 16.36 13.71 16.51C13.9 16.66 13.99 16.87 13.99 17.14C13.99 17.38 13.89 17.58 13.7 17.73C13.51 17.88 13.26 17.96 12.96 17.96C12.66 17.96 12.4 17.89 12.21 17.74C12.02 17.59 11.92 17.4 11.89 17.16H11C11.02 17.63 11.21 18.01 11.56 18.3C11.91 18.59 12.37 18.73 12.95 18.73C13.53 18.73 14 18.59 14.38 18.3C14.76 18.01 14.94 17.64 14.94 17.18C14.94 16.82 14.82 16.52 14.59 16.29C14.36 16.06 14.04 15.94 13.65 15.91H13.64Z" fill="#E6DAFE"/>
<path d="M18.3101 17.34H18.2801L16.6801 13.38H15.5901V18.63H16.4401V14.9H16.4601L17.9801 18.58H18.6201L20.1401 14.9H20.1601V18.63H21.0001V13.38H19.9201L18.3101 17.34Z" fill="#E6DAFE"/>
</svg>
