<svg width="32" height="32" viewBox="0 0 32 32" fill="none" xmlns="http://www.w3.org/2000/svg">
<path d="M16 3C8.83 3 3 8.83 3 16C3 23.17 8.83 29 16 29C23.17 29 29 23.17 29 16C29 8.83 23.17 3 16 3ZM28.05 15.55L26.97 16.33L27.38 17.59L26.3 16.81L25.22 17.59L25.63 16.33L24.55 15.55H25.88L26.29 14.28L26.7 15.55H28.05ZM24.54 10.36L24.95 9.09L25.36 10.36H26.69L25.61 11.14L26.02 12.4L24.95 11.62L23.87 12.4L24.28 11.13L23.2 10.35H24.53L24.54 10.36ZM20.59 6.65997L21 5.38998L21.41 6.65997H22.74L21.66 7.44L22.07 8.70999L20.99 7.92999L19.91 8.70999L20.32 7.44L19.24 6.65997H20.59ZM15.53 5.04999L15.94 3.78L16.35 5.04999H17.68L16.6 5.82999L17.01 7.09L15.94 6.31L14.86 7.09L15.27 5.82999L14.19 5.04999H15.53ZM10.22 6.65997L10.63 5.38998L11.04 6.65997H12.37L11.29 7.44L11.7 8.70999L10.63 7.92999L9.55 8.70999L9.96 7.44L8.88 6.65997H10.22ZM6.51 10.36L6.92 9.09L7.33 10.36H8.66L7.58 11.14L7.99 12.41L6.91 11.63L5.83 12.41L6.24 11.14L5.17 10.36H6.51ZM5.28 15.79L5.69 14.52L6.1 15.79H7.43L6.35 16.57L6.76 17.84L5.68 17.06L4.6 17.84L5.01 16.57L3.93 15.79H5.28ZM9.82 27.11C8.14 26.17 6.7 24.87 5.6 23.31V19.01H3.65C3.57 18.7 3.51 18.38 3.46 18.05H8.16C8.47 19.24 9.05 20.33 9.82 21.24V27.11ZM18.11 28.53C17.42 28.65 16.72 28.72 16 28.72C15.28 28.72 14.58 28.65 13.89 28.53V23.83C14.56 24.01 15.27 24.12 16 24.12C16.73 24.12 17.43 24.01 18.11 23.83V28.53ZM16 23.85C11.67 23.85 8.14 20.33 8.14 15.99C8.14 11.65 11.66 8.12997 16 8.12997C20.34 8.12997 23.86 11.65 23.86 15.99C23.86 20.33 20.34 23.85 16 23.85ZM26.4 19.01V23.31C25.3 24.87 23.86 26.18 22.18 27.11V21.25C22.96 20.34 23.53 19.25 23.84 18.06H28.54C28.49 18.38 28.42 18.7 28.35 19.02H26.4V19.01Z" fill="#E6DAFE"/>
<path d="M12.0799 15.9099V15.89C12.4099 15.83 12.6699 15.7 12.8699 15.47C13.0699 15.25 13.1699 14.98 13.1699 14.65C13.1699 14.24 12.9999 13.91 12.6699 13.65C12.3399 13.39 11.9199 13.2599 11.3999 13.2599C10.8799 13.2599 10.4199 13.4 10.0799 13.68C9.73994 13.96 9.55994 14.34 9.53994 14.81H10.4099C10.4299 14.57 10.5199 14.37 10.6899 14.22C10.8599 14.07 11.0799 14 11.3499 14C11.6399 14 11.8599 14.07 12.0199 14.21C12.1799 14.35 12.2599 14.53 12.2599 14.77C12.2599 15.01 12.1799 15.1999 12.0099 15.3499C11.8399 15.4999 11.6199 15.5699 11.3599 15.5699H10.7299V16.28H11.3799C11.6999 16.28 11.9599 16.3599 12.1499 16.5099C12.3399 16.6599 12.4299 16.87 12.4299 17.14C12.4299 17.38 12.3299 17.5799 12.1399 17.7299C11.9499 17.8799 11.6999 17.96 11.3999 17.96C11.0999 17.96 10.8399 17.89 10.6499 17.74C10.4599 17.59 10.3599 17.3999 10.3299 17.1599H9.43994C9.45994 17.6299 9.64994 18.01 9.99994 18.3C10.3499 18.59 10.8099 18.7299 11.3899 18.7299C11.9699 18.7299 12.4399 18.59 12.8199 18.3C13.1999 18.01 13.3799 17.64 13.3799 17.18C13.3799 16.82 13.2599 16.5199 13.0299 16.2899C12.7999 16.0599 12.4799 15.9399 12.0899 15.9099H12.0799Z" fill="#E6DAFE"/>
<path d="M15.9199 13.27C15.2799 13.27 14.7799 13.51 14.4099 14C14.0399 14.49 13.8599 15.15 13.8599 15.99C13.8599 16.83 14.0399 17.5 14.4099 17.99C14.7799 18.48 15.2799 18.72 15.9199 18.72C16.5599 18.72 17.0599 18.4699 17.4199 17.9799C17.7799 17.4899 17.9699 16.8199 17.9699 15.9799C17.9699 15.1399 17.7899 14.48 17.4199 13.99C17.0599 13.5 16.5599 13.2599 15.9199 13.2599V13.27ZM16.7299 17.44C16.5399 17.79 16.2699 17.96 15.9199 17.96C15.5699 17.96 15.2999 17.79 15.0999 17.44C14.8999 17.09 14.8099 16.61 14.8099 15.99C14.8099 15.37 14.9099 14.9 15.1099 14.56C15.3099 14.21 15.5799 14.0399 15.9199 14.0399C16.2599 14.0399 16.5299 14.21 16.7299 14.56C16.9199 14.91 17.0199 15.38 17.0199 16C17.0199 16.62 16.9199 17.1 16.7299 17.45V17.44Z" fill="#E6DAFE"/>
<path d="M21.55 13.3799L20.28 15.6599H20.26L18.99 13.3799H17.96L19.8 16.56V18.6299H20.73V16.56L22.57 13.3799H21.55Z" fill="#E6DAFE"/>
</svg>
