<svg width="32" height="32" viewBox="0 0 32 32" fill="none" xmlns="http://www.w3.org/2000/svg">
<path d="M16 3C8.83 3 3 8.83 3 16C3 23.17 8.83 29 16 29C23.17 29 29 23.17 29 16C29 8.83 23.17 3 16 3ZM28.05 15.55L26.97 16.33L27.38 17.59L26.3 16.81L25.22 17.59L25.63 16.33L24.55 15.55H25.88L26.29 14.28L26.7 15.55H28.05ZM24.54 10.36L24.95 9.09L25.36 10.36H26.69L25.61 11.14L26.02 12.4L24.95 11.62L23.87 12.4L24.28 11.13L23.2 10.35H24.53L24.54 10.36ZM20.59 6.66L21 5.39L21.41 6.66H22.74L21.66 7.44L22.07 8.71L20.99 7.93L19.91 8.71L20.32 7.44L19.24 6.66H20.59ZM15.53 5.05L15.94 3.78L16.35 5.05H17.68L16.6 5.83L17.01 7.09L15.94 6.31L14.86 7.09L15.27 5.83L14.19 5.05H15.53ZM10.22 6.66L10.63 5.39L11.04 6.66H12.37L11.29 7.44L11.7 8.71L10.63 7.93L9.55 8.71L9.96 7.44L8.88 6.66H10.22ZM6.51 10.36L6.92 9.09L7.33 10.36H8.66L7.58 11.14L7.99 12.41L6.91 11.63L5.83 12.41L6.24 11.14L5.17 10.36H6.51ZM5.28 15.79L5.69 14.52L6.1 15.79H7.43L6.35 16.57L6.76 17.84L5.68 17.06L4.6 17.84L5.01 16.57L3.93 15.79H5.28ZM9.82 27.11C8.14 26.17 6.7 24.87 5.6 23.31V19.01H3.64C3.56 18.7 3.5 18.38 3.45 18.05H8.15C8.46 19.24 9.04 20.33 9.81 21.24V27.1L9.82 27.11ZM18.11 28.53C17.42 28.65 16.72 28.72 16 28.72C15.28 28.72 14.58 28.65 13.89 28.53V23.83C14.56 24.01 15.27 24.12 16 24.12C16.73 24.12 17.43 24.01 18.11 23.83V28.53ZM16 23.85C11.67 23.85 8.14 20.33 8.14 15.99C8.14 11.65 11.66 8.13 16 8.13C20.34 8.13 23.86 11.65 23.86 15.99C23.86 20.33 20.34 23.85 16 23.85ZM26.4 19.01V23.31C25.3 24.87 23.86 26.18 22.18 27.11V21.25C22.96 20.34 23.53 19.25 23.84 18.06H28.54C28.49 18.38 28.42 18.7 28.35 19.02H26.4V19.01Z" fill="#E6DAFE"/>
<path d="M9.98999 14.34V15.22L11.35 14.27H11.37V18.62H12.29V13.38H11.37L9.98999 14.34Z" fill="#E6DAFE"/>
<path d="M15.3598 13.27C14.7198 13.27 14.2198 13.51 13.8498 14C13.4798 14.49 13.2998 15.15 13.2998 15.99C13.2998 16.83 13.4798 17.5 13.8498 17.99C14.2198 18.48 14.7198 18.72 15.3598 18.72C15.9998 18.72 16.4998 18.47 16.8598 17.98C17.2198 17.49 17.4098 16.82 17.4098 15.98C17.4098 15.14 17.2298 14.48 16.8598 13.99C16.4998 13.5 15.9998 13.26 15.3598 13.26V13.27ZM16.1698 17.44C15.9798 17.79 15.7098 17.96 15.3598 17.96C15.0098 17.96 14.7398 17.79 14.5398 17.44C14.3398 17.09 14.2498 16.61 14.2498 15.99C14.2498 15.37 14.3498 14.9 14.5498 14.56C14.7498 14.21 15.0198 14.04 15.3598 14.04C15.6998 14.04 15.9698 14.21 16.1698 14.56C16.3598 14.91 16.4598 15.38 16.4598 16C16.4598 16.62 16.3598 17.1 16.1698 17.45V17.44Z" fill="#E6DAFE"/>
<path d="M20.9799 13.38L19.7099 15.66H19.6899L18.4199 13.38H17.3899L19.2299 16.55V18.62H20.1599V16.55L21.9999 13.38H20.9799Z" fill="#E6DAFE"/>
</svg>
