<svg width="32" height="32" viewBox="0 0 32 32" fill="none" xmlns="http://www.w3.org/2000/svg">
<path d="M16 3C8.83 3 3 8.83 3 16C3 23.17 8.83 29 16 29C23.17 29 29 23.17 29 16C29 8.83 23.17 3 16 3ZM28.05 15.55L26.97 16.33L27.38 17.59L26.3 16.81L25.22 17.59L25.63 16.33L24.55 15.55H25.88L26.29 14.28L26.7 15.55H28.05ZM24.54 10.36L24.95 9.09003L25.36 10.36H26.69L25.61 11.14L26.02 12.4L24.95 11.62L23.87 12.4L24.28 11.13L23.2 10.35H24.53L24.54 10.36ZM20.59 6.65997L21 5.39001L21.41 6.65997H22.74L21.66 7.44L22.07 8.71002L20.99 7.92999L19.91 8.71002L20.32 7.44L19.24 6.65997H20.59ZM15.53 5.04999L15.94 3.78003L16.35 5.04999H17.68L16.6 5.83002L17.01 7.09003L15.94 6.31L14.86 7.09003L15.27 5.83002L14.19 5.04999H15.53ZM10.22 6.65997L10.63 5.39001L11.04 6.65997H12.37L11.29 7.44L11.7 8.71002L10.63 7.92999L9.55 8.71002L9.96 7.44L8.88 6.65997H10.22ZM6.51 10.36L6.92 9.09003L7.33 10.36H8.66L7.58 11.14L7.99 12.41L6.91 11.63L5.83 12.41L6.24 11.14L5.17 10.36H6.51ZM5.28 15.79L5.69 14.52L6.1 15.79H7.43L6.35 16.57L6.76 17.84L5.68 17.06L4.6 17.84L5.01 16.57L3.93 15.79H5.28ZM9.82 27.11C8.14 26.17 6.7 24.87 5.6 23.31V19.01H3.64C3.56 18.7 3.5 18.38 3.45 18.05H8.15C8.46 19.24 9.04 20.33 9.81 21.24V27.1L9.82 27.11ZM18.11 28.53C17.42 28.65 16.72 28.72 16 28.72C15.28 28.72 14.58 28.65 13.89 28.53V23.83C14.56 24.01 15.27 24.12 16 24.12C16.73 24.12 17.43 24.01 18.11 23.83V28.53ZM16 23.85C11.67 23.85 8.14 20.33 8.14 15.99C8.14 11.65 11.66 8.13 16 8.13C20.34 8.13 23.86 11.65 23.86 15.99C23.86 20.33 20.34 23.85 16 23.85ZM26.4 19.01V23.31C25.3 24.87 23.86 26.18 22.18 27.11V21.25C22.96 20.34 23.53 19.25 23.84 18.06H28.54C28.49 18.38 28.42 18.7 28.35 19.02H26.4V19.01Z" fill="#E6DAFE"/>
<path d="M11.74 14.1399H14.47V14.1599L12.17 18.6199H13.15L15.39 14.1499V13.3699H11.74V14.1399Z" fill="#E6DAFE"/>
<path d="M17.9599 15.6599H17.9399L16.6699 13.3699H15.6399L17.4799 16.5499V18.6199H18.4099V16.5499L20.2499 13.3699H19.2299L17.9599 15.6599Z" fill="#E6DAFE"/>
</svg>
