<svg width="32" height="32" viewBox="0 0 32 32" fill="none" xmlns="http://www.w3.org/2000/svg">
<path d="M16 3C8.83 3 3 8.83 3 16C3 23.17 8.83 29 16 29C23.17 29 29 23.17 29 16C29 8.83 23.17 3 16 3ZM28.05 15.55L26.97 16.33L27.38 17.59L26.3 16.81L25.22 17.59L25.63 16.33L24.55 15.55H25.88L26.29 14.28L26.7 15.55H28.05ZM24.54 10.36L24.95 9.09003L25.36 10.36H26.69L25.61 11.14L26.02 12.4L24.95 11.6201L23.87 12.4L24.28 11.13L23.2 10.35H24.53L24.54 10.36ZM20.59 6.66003L21 5.39001L21.41 6.66003H22.74L21.66 7.44L22.07 8.71002L20.99 7.93005L19.91 8.71002L20.32 7.44L19.24 6.66003H20.59ZM15.53 5.05005L15.94 3.78003L16.35 5.05005H17.68L16.6 5.83002L17.01 7.09003L15.94 6.31L14.86 7.09003L15.27 5.83002L14.19 5.05005H15.53ZM10.22 6.66003L10.63 5.39001L11.04 6.66003H12.37L11.29 7.44L11.7 8.71002L10.63 7.93005L9.55 8.71002L9.96 7.44L8.88 6.66003H10.22ZM6.51 10.36L6.92 9.09003L7.33 10.36H8.66L7.58 11.14L7.99 12.41L6.91 11.63L5.83 12.41L6.24 11.14L5.17 10.36H6.51ZM5.28 15.79L5.69 14.52L6.1 15.79H7.43L6.35 16.57L6.76 17.84L5.68 17.06L4.6 17.84L5.01 16.57L3.93 15.79H5.28ZM9.82 27.11C8.14 26.17 6.7 24.87 5.6 23.31V19.01H3.65C3.57 18.7 3.51 18.38 3.46 18.05H8.16C8.47 19.24 9.05 20.3301 9.82 21.2401V27.11ZM18.11 28.53C17.42 28.65 16.72 28.72 16 28.72C15.28 28.72 14.58 28.65 13.89 28.53V23.83C14.56 24.01 15.27 24.1201 16 24.1201C16.73 24.1201 17.43 24.01 18.11 23.83V28.53ZM16 23.85C11.67 23.85 8.14 20.3301 8.14 15.9901C8.14 11.6501 11.66 8.13 16 8.13C20.34 8.13 23.86 11.6501 23.86 15.9901C23.86 20.3301 20.34 23.85 16 23.85ZM26.4 19.01V23.31C25.3 24.87 23.86 26.18 22.18 27.11V21.25C22.96 20.34 23.53 19.25 23.84 18.06H28.54C28.49 18.38 28.42 18.7 28.35 19.02H26.4V19.01Z" fill="#E6DAFE"/>
<path d="M13.29 15.16C12.96 15.16 12.67 15.24 12.42 15.39C12.17 15.54 11.98 15.75 11.87 16.01H11.85C11.85 15.38 11.96 14.89 12.17 14.54C12.39 14.19 12.69 14.02 13.09 14.02C13.32 14.02 13.51 14.08 13.68 14.2C13.85 14.32 13.97 14.4801 14.03 14.6801H14.96C14.88 14.2601 14.67 13.91 14.33 13.65C13.99 13.39 13.58 13.26 13.1 13.26C12.43 13.26 11.91 13.51 11.53 14C11.15 14.49 10.96 15.18 10.96 16.05C10.96 16.7 11.08 17.2501 11.34 17.6801C11.52 18.0201 11.76 18.28 12.05 18.46C12.34 18.64 12.69 18.73 13.07 18.73C13.64 18.73 14.11 18.56 14.48 18.21C14.85 17.87 15.03 17.43 15.03 16.89C15.03 16.39 14.86 15.98 14.54 15.65C14.21 15.32 13.79 15.16 13.3 15.16H13.29ZM13.8 17.66C13.6 17.86 13.35 17.96 13.06 17.96C12.77 17.96 12.52 17.86 12.32 17.66C12.12 17.46 12.02 17.21 12.02 16.92C12.02 16.63 12.12 16.39 12.32 16.19C12.52 16 12.77 15.9 13.07 15.9C13.37 15.9 13.62 16 13.81 16.19C14.01 16.38 14.1 16.63 14.1 16.92C14.1 17.21 14 17.45 13.8 17.65V17.66Z" fill="#E6DAFE"/>
<path d="M18.3499 17.3301H18.3199L16.7199 13.3701H15.6299V18.6201H16.4799V14.9001H16.4999L18.0199 18.5801H18.6599L20.1799 14.9001H20.1999V18.6201H21.0499V13.3701H19.9599L18.3499 17.3301Z" fill="#E6DAFE"/>
</svg>
