<svg width="32" height="32" viewBox="0 0 32 32" fill="none" xmlns="http://www.w3.org/2000/svg">
<path d="M16 3C8.83 3 3 8.83 3 16C3 23.17 8.83 29 16 29C23.17 29 29 23.17 29 16C29 8.83 23.17 3 16 3ZM28.05 15.55L26.97 16.33L27.38 17.59L26.3 16.81L25.22 17.59L25.63 16.33L24.55 15.55H25.88L26.29 14.28L26.7 15.55H28.05ZM24.54 10.36L24.95 9.09L25.36 10.36H26.69L25.61 11.14L26.02 12.4L24.95 11.62L23.87 12.4L24.28 11.13L23.2 10.35H24.53L24.54 10.36ZM20.59 6.66L21 5.39L21.41 6.66H22.74L21.66 7.44L22.07 8.71L20.99 7.93L19.91 8.71L20.32 7.44L19.24 6.66H20.59ZM15.53 5.05L15.94 3.78L16.35 5.05H17.68L16.6 5.83L17.01 7.09L15.94 6.31L14.86 7.09L15.27 5.83L14.19 5.05H15.53ZM10.22 6.66L10.63 5.39L11.04 6.66H12.37L11.29 7.44L11.7 8.71L10.63 7.93L9.55 8.71L9.96 7.44L8.88 6.66H10.22ZM6.51 10.36L6.92 9.09L7.33 10.36H8.66L7.58 11.14L7.99 12.41L6.91 11.63L5.83 12.41L6.24 11.14L5.17 10.36H6.51ZM5.28 15.79L5.69 14.52L6.1 15.79H7.43L6.35 16.57L6.76 17.84L5.68 17.06L4.6 17.84L5.01 16.57L3.93 15.79H5.28ZM9.82 27.11C8.14 26.17 6.7 24.87 5.6 23.31V19.01H3.64C3.56 18.7 3.5 18.38 3.45 18.05H8.15C8.46 19.24 9.04 20.33 9.81 21.24V27.1L9.82 27.11ZM18.11 28.53C17.42 28.65 16.72 28.72 16 28.72C15.28 28.72 14.58 28.65 13.89 28.53V23.83C14.56 24.01 15.27 24.12 16 24.12C16.73 24.12 17.43 24.01 18.11 23.83V28.53ZM16 23.85C11.67 23.85 8.14 20.33 8.14 15.99C8.14 11.65 11.66 8.13 16 8.13C20.34 8.13 23.86 11.65 23.86 15.99C23.86 20.33 20.34 23.85 16 23.85ZM26.4 19.01V23.31C25.3 24.87 23.86 26.18 22.18 27.11V21.25C22.96 20.34 23.53 19.25 23.84 18.06H28.54C28.49 18.38 28.42 18.7 28.35 19.02H26.4V19.01Z" fill="#E6DAFE"/>
<path d="M11.57 14.34V15.22L12.93 14.27H12.95V18.62H13.87V13.38H12.94L11.57 14.34Z" fill="#E6DAFE"/>
<path d="M17.74 17.34H17.71L16.1 13.38H15.01V18.62H15.86V14.9H15.89L17.4 18.58H18.04L19.56 14.9H19.59V18.62H20.43V13.38H19.35L17.74 17.34Z" fill="#E6DAFE"/>
</svg>
