<svg width="32" height="32" viewBox="0 0 32 32" fill="none" xmlns="http://www.w3.org/2000/svg">
<path d="M16 3C8.83 3 3 8.83 3 16C3 23.17 8.83 29 16 29C23.17 29 29 23.17 29 16C29 8.83 23.17 3 16 3ZM28.05 15.55L26.97 16.33L27.38 17.59L26.3 16.81L25.22 17.59L25.63 16.33L24.55 15.55H25.88L26.29 14.28L26.7 15.55H28.05ZM24.54 10.36L24.95 9.09L25.36 10.36H26.69L25.61 11.14L26.02 12.4L24.95 11.62L23.87 12.4L24.28 11.13L23.2 10.35H24.53L24.54 10.36ZM20.59 6.66L21 5.39L21.41 6.66H22.74L21.66 7.44L22.07 8.71001L20.99 7.93001L19.91 8.71001L20.32 7.44L19.24 6.66H20.59ZM15.53 5.05L15.94 3.78L16.35 5.05H17.68L16.6 5.83L17.01 7.09L15.94 6.31L14.86 7.09L15.27 5.83L14.19 5.05H15.53ZM10.22 6.66L10.63 5.39L11.04 6.66H12.37L11.29 7.44L11.7 8.71001L10.63 7.93001L9.55 8.71001L9.96 7.44L8.88 6.66H10.22ZM6.51 10.36L6.92 9.09L7.33 10.36H8.66L7.58 11.14L7.99 12.41L6.91 11.63L5.83 12.41L6.24 11.14L5.17 10.36H6.51ZM5.28 15.79L5.69 14.52L6.1 15.79H7.43L6.35 16.57L6.76 17.84L5.68 17.06L4.6 17.84L5.01 16.57L3.93 15.79H5.28ZM9.82 27.11C8.14 26.17 6.7 24.87 5.6 23.31V19.01H3.64C3.56 18.7 3.5 18.38 3.45 18.05H8.15C8.46 19.24 9.04 20.33 9.81 21.24V27.1L9.82 27.11ZM18.11 28.53C17.42 28.65 16.72 28.72 16 28.72C15.28 28.72 14.58 28.65 13.89 28.53V23.83C14.56 24.01 15.27 24.12 16 24.12C16.73 24.12 17.43 24.01 18.11 23.83V28.53ZM16 23.85C11.67 23.85 8.14 20.33 8.14 15.99C8.14 11.65 11.66 8.13 16 8.13C20.34 8.13 23.86 11.65 23.86 15.99C23.86 20.33 20.34 23.85 16 23.85ZM26.4 19.01V23.31C25.3 24.87 23.86 26.18 22.18 27.11V21.25C22.96 20.34 23.53 19.25 23.84 18.06H28.54C28.49 18.38 28.42 18.7 28.35 19.02H26.4V19.01Z" fill="#E6DAFE"/>
<path d="M13.03 17.8899L14.33 16.6099C14.71 16.2299 14.98 15.9099 15.14 15.6499C15.3 15.3899 15.39 15.1099 15.39 14.8199C15.39 14.3899 15.22 14.0399 14.88 13.7499C14.54 13.4599 14.11 13.3199 13.59 13.3199C13.07 13.3199 12.6 13.4799 12.25 13.7899C11.9 14.0999 11.73 14.4999 11.73 14.9899L12.61 14.9999C12.61 14.7299 12.7 14.5099 12.88 14.3399C13.06 14.1699 13.29 14.0799 13.56 14.0799C13.82 14.0799 14.04 14.1599 14.21 14.3099C14.38 14.4599 14.47 14.6399 14.47 14.8599C14.47 15.0599 14.42 15.2399 14.31 15.4099C14.21 15.5799 14 15.8199 13.71 16.1299L11.78 18.0499V18.6799H15.47V17.9099H13.03V17.8899Z" fill="#E6DAFE"/>
<path d="M17.9799 15.71H17.9499L16.6799 13.42H15.6499L17.4899 16.6V18.67H18.4299V16.6L20.2699 13.42H19.2499L17.9799 15.71Z" fill="#E6DAFE"/>
</svg>
