<svg width="32" height="32" viewBox="0 0 32 32" fill="none" xmlns="http://www.w3.org/2000/svg">
<path d="M23.3357 21.6948L23.0384 22.887C23.3756 22.9709 24.4146 23.3134 24.583 22.6394C24.7582 21.9361 23.673 21.7792 23.3357 21.6953V21.6948Z" fill="#110F23"/>
<path d="M22.8889 23.4886L22.5611 24.803C22.966 24.9037 24.2143 25.3044 24.3989 24.5628C24.5919 23.7896 23.2938 23.5893 22.8889 23.4886Z" fill="#110F23"/>
<path d="M12.197 13.9212C12.5531 13.8971 14.0684 13.7445 14.9464 12.8717C14.9852 12.8334 15.0508 12.8497 15.0686 12.9011C15.0996 12.9887 15.1148 13.0773 15.1221 13.1455C15.1279 13.1953 15.1688 13.2378 15.2191 13.2394C15.2726 13.2409 15.3156 13.2027 15.3235 13.1528C15.3508 12.9755 15.388 12.4998 15.0345 12.3682C14.6642 12.2297 14.2153 12.4337 14.0862 12.4993C14.0652 12.5098 14.0542 12.5344 14.0605 12.5575C14.0668 12.5832 14.092 12.5995 14.1182 12.5953C14.21 12.5801 14.423 12.5502 14.6154 12.5643C14.6768 12.5685 14.7062 12.642 14.6658 12.6881C14.4015 12.9892 13.6913 13.6002 12.187 13.7518C12.1451 13.756 12.1094 13.788 12.1068 13.83C12.1036 13.8835 12.1472 13.9249 12.197 13.9212Z" fill="#110F23"/>
<path d="M12.0396 11.8007C12.4545 11.8007 12.7902 11.2374 12.7902 10.5424C12.7902 9.84744 12.4545 9.28413 12.0396 9.28413C11.6248 9.28413 11.2896 9.84744 11.2896 10.5424C11.2896 11.2374 11.6253 11.8007 12.0396 11.8007ZM11.8797 9.66912C12.0297 9.66912 12.1514 9.7908 12.1514 9.9408C12.1514 10.0908 12.0297 10.213 11.8797 10.213C11.7297 10.213 11.6075 10.0913 11.6075 9.9408C11.6075 9.79027 11.7291 9.66912 11.8797 9.66912Z" fill="#110F23"/>
<path d="M11.298 19.2706C11.748 19.2706 12.1126 18.7156 12.1126 18.0307C12.1126 17.3457 11.748 16.7902 11.298 16.7902C10.848 16.7902 10.484 17.3457 10.484 18.0307C10.484 18.7156 10.8485 19.2706 11.298 19.2706ZM11.298 17.1012C11.4632 17.1012 11.5964 17.5256 11.5964 18.0485C11.5964 18.5714 11.4632 18.9957 11.298 18.9957C11.1328 18.9957 11.0001 18.5719 11.0001 18.0485C11.0001 17.525 11.1333 17.1012 11.298 17.1012Z" fill="#110F23"/>
<path d="M8.92046 17.1747V17.4815H9.24774V18.7361C9.24774 18.8284 9.17274 18.9034 9.08043 18.9034H8.92046V19.2307H10.0555V18.9034H9.91595C9.82364 18.9034 9.74864 18.8284 9.74864 18.7361V16.8605H9.40824C9.22781 17.2544 8.92046 17.1747 8.92046 17.1747Z" fill="#110F23"/>
<path d="M28.9122 23.336C28.8818 21.9292 28.3248 20.5996 27.3434 19.5916C26.4009 18.6233 25.1516 18.0375 23.813 17.9326C24.1241 15.4779 22.249 14.3083 21.9579 14.1426C21.8934 14.0293 21.8142 13.9364 21.7161 13.863C21.7853 13.7266 21.8708 13.4927 21.7958 13.2693C21.7324 13.0799 21.5734 12.943 21.3232 12.8633C21.308 12.8586 21.2918 12.8544 21.276 12.8502C21.3788 12.7196 21.5535 12.5182 21.8032 12.2989C23.1039 11.7713 25.9168 12.2428 25.9451 12.2481L26.1234 12.2785L26.0967 12.0996C25.8303 10.3106 24.6795 8.92223 22.7688 8.08513C21.7124 7.62253 20.7106 7.44787 20.2354 7.38703C21.9867 5.83819 25.2035 5.99449 25.237 5.99606L25.6278 6.01757L25.3288 5.76528C23.726 4.41155 21.8299 3.54456 19.6936 3.1879C17.988 2.90362 16.1276 2.94191 14.1628 3.30277C11.1076 3.86398 8.73688 5.04515 8.33616 5.25232C6.58801 4.43463 4.67622 4.83063 4.59492 4.84794L4.52936 4.8621L4.50261 4.92346C4.47848 4.97854 3.93038 6.27142 4.75647 7.87324C4.57657 8.21626 3.85433 9.8144 4.89703 11.6926C4.37673 11.7356 4.04787 11.9113 4.00486 12.1799C3.92934 12.6451 4.7465 13.0348 5.55318 13.1659C5.5579 13.167 5.56262 13.1675 5.56734 13.168C6.14796 13.9905 6.99817 14.6361 7.90922 14.944C8.39438 15.1076 8.92622 15.2241 9.49898 15.2917C9.30019 15.3657 9.1098 15.4617 8.93199 15.5771C8.34456 15.6694 7.24154 15.9442 6.26545 16.7593C5.82802 17.1243 5.62451 17.6048 5.69322 18.1114C5.76245 18.6239 6.10967 19.0938 6.61004 19.3676C6.49728 19.5748 6.4679 19.7667 6.52612 19.9388C6.56389 20.051 6.63312 20.1365 6.70603 20.2C6.4936 20.2876 6.32472 20.3778 6.2151 20.4418C6.08869 20.1313 5.89515 19.9839 5.74462 19.9147C5.49234 19.7977 5.17712 19.8092 4.87973 19.9461C4.66206 20.0463 4.59387 20.2047 4.57552 20.3196C4.52254 20.6448 4.77955 21.0754 5.33866 21.6004C5.93397 22.159 6.93366 22.2424 7.47914 22.2424C7.49487 22.2424 7.50956 22.2424 7.52477 22.2424C7.23105 22.6195 6.78627 23.4697 6.81932 25.1428C6.82351 25.3726 6.83715 25.6112 6.85918 25.8514C6.85918 25.8525 6.85918 25.853 6.85918 25.8541C6.86075 25.8698 6.8618 25.8861 6.86338 25.9018C6.69921 25.9317 6.39133 25.9957 6.06404 26.1037C5.4037 26.3214 5.00193 26.6051 4.86976 26.9461C4.81783 27.0803 4.83567 27.2136 4.92168 27.3321C5.32188 27.8833 7.21741 28.036 8.49876 28.036C8.76048 28.036 8.99703 28.0297 9.18952 28.0187C9.70405 27.9903 10.4221 27.9615 11.266 27.9358C11.6153 27.9248 11.972 27.9153 12.3213 27.9064C12.3218 27.9064 12.3229 27.9064 12.3234 27.9064C12.3244 27.9064 12.326 27.9064 12.3271 27.9064C13.5507 27.8765 14.7109 27.8597 15.1483 27.866C15.6188 27.8708 16.6348 27.5896 16.8425 26.9062C17.0229 26.3125 16.5577 25.6343 15.4599 24.889C15.5165 24.8302 15.5485 24.7699 15.5553 24.7065C15.5611 24.6514 15.5512 24.5696 15.4688 24.4919C15.1074 24.1489 15.0691 23.9554 14.9983 23.6045C14.9768 23.497 14.9522 23.3748 14.9149 23.2321C14.7807 22.716 13.7978 22.6704 13.1935 22.6924C13.6404 22.2649 13.8166 21.7724 13.8864 21.4457C15.2653 23.3973 16.8949 23.6234 16.9668 23.6328L17.5338 23.7036L17.0544 23.3926C16.1323 22.7947 15.1992 20.9699 14.9737 20.5089C15.2852 20.2933 15.5931 19.8323 15.7048 19.6545C17.5248 19.6865 18.492 20.1544 18.7941 20.3316C18.1375 21.2904 17.8033 22.4097 17.829 23.5793C17.8951 26.5936 20.3676 29.0005 23.3677 29C23.4087 29 23.4501 29 23.491 28.9984C26.5462 28.9313 28.9772 26.3911 28.9101 23.3365L28.9122 23.336ZM9.51681 21.1661C9.60335 21.0428 9.63167 20.8981 9.63797 20.7837C9.78588 20.8241 9.93903 20.8535 10.0943 20.874C10.1808 21.0151 10.43 21.4619 10.463 21.9796H10.388C10.2836 21.8354 10.1195 21.7467 9.9385 21.7404L9.44023 21.7236C9.41663 21.5999 9.35736 21.496 9.26505 21.4184C9.24931 21.4053 9.23306 21.3932 9.21575 21.3817C9.34215 21.3413 9.44338 21.2689 9.51628 21.1656L9.51681 21.1661ZM25.5491 24.975C25.2271 25.896 24.4613 25.9736 23.4433 25.7812L23.1962 26.7714L22.5993 26.6225L22.8432 25.6453C22.6885 25.607 22.5301 25.5661 22.3675 25.5221L22.1226 26.5034L21.5262 26.3544L21.7733 25.3621C21.6338 25.3264 21.4921 25.2887 21.3474 25.2525L20.5706 25.0589L20.8669 24.3755C20.8669 24.3755 21.307 24.4925 21.3007 24.4841C21.4696 24.526 21.5446 24.4159 21.5745 24.3425L21.9647 22.7768C21.9867 22.7821 22.0077 22.7873 22.0276 22.7926C22.004 22.7831 21.982 22.7768 21.9658 22.7726L22.2443 21.6549C22.2516 21.528 22.2081 21.368 21.9663 21.3077C21.9757 21.3014 21.5325 21.1997 21.5325 21.1997L21.6914 20.5619L22.5149 20.7675V20.7706C22.6382 20.8016 22.7656 20.8304 22.8957 20.8603L23.1406 19.8795L23.7375 20.0285L23.4978 20.9899C23.6578 21.0266 23.8193 21.0633 23.9762 21.1026L24.2143 20.1475L24.8112 20.2965L24.5667 21.2773C25.3204 21.5369 25.8717 21.9261 25.7636 22.6504C25.6855 23.1807 25.3913 23.4372 25.001 23.5269C25.5365 23.8059 25.8093 24.2334 25.5497 24.975H25.5491ZM11.0698 23.5856C11.042 23.4115 11.0022 23.2573 10.9665 23.1403C11.0347 23.208 11.1511 23.3307 11.2734 23.486C11.1978 23.5195 11.1302 23.5526 11.0698 23.5856ZM11.8729 21.41H12.4377C12.4446 21.5862 12.4042 21.9518 12.0066 22.2251C11.9578 22.0562 11.8875 21.7593 11.8729 21.41ZM9.83046 22.8807C9.32274 22.9646 9.0007 23.1309 8.83077 23.2442C8.78566 23.1141 8.76573 22.9872 8.7694 22.866C9.04056 22.6216 9.56192 22.545 9.8955 22.5298C9.85196 22.6483 9.83046 22.7663 9.83046 22.8807ZM10.0681 24.4788L10.0591 24.4741L10.0544 24.4731C9.65632 24.3073 9.32956 24.0514 9.0841 23.7125C9.0285 23.636 8.9813 23.561 8.94091 23.4875C9.06679 23.3973 9.36261 23.2248 9.8698 23.1398C9.95581 23.4125 10.1777 23.6517 10.5328 23.851C10.5532 23.8625 10.5752 23.8678 10.5967 23.8678C10.6424 23.8678 10.687 23.8437 10.7111 23.8007C10.7468 23.7377 10.7242 23.6575 10.6613 23.6223C10.3885 23.4692 10.2128 23.2961 10.1362 23.1062C10.3078 23.091 10.4887 23.0873 10.6759 23.0942C10.7184 23.2148 10.7971 23.4666 10.8281 23.7529C10.7829 23.7965 10.7599 23.8321 10.7483 23.8589C10.6162 24.1159 10.5506 24.3729 10.5506 24.6252C10.3807 24.589 10.2191 24.5402 10.0691 24.4783L10.0681 24.4788ZM10.0277 22.2644C9.82679 22.2644 9.28393 22.2859 8.86643 22.4894C9.00962 22.2057 9.26872 22.0336 9.35264 21.9833L9.92854 22.0027C10.0135 22.0058 10.0917 22.0415 10.1483 22.1008C10.1132 22.1422 10.0707 22.1978 10.0277 22.2644ZM7.11671 26.6287C7.22738 26.5558 7.52319 26.4384 7.9858 26.3691C8.44841 26.2999 8.76573 26.3251 8.89266 26.3623C8.78199 26.4352 8.48617 26.5527 8.02409 26.6225C7.56096 26.6917 7.24364 26.6665 7.11671 26.6293V26.6287ZM7.10569 25.6427C7.09415 25.4885 7.08681 25.3369 7.08314 25.188C7.48228 24.7295 8.21396 24.621 8.76573 24.6131C9.371 24.6037 9.8892 24.7065 9.97732 24.7248C10.163 24.8003 10.3639 24.8575 10.5747 24.8974C10.5988 25.0212 10.6377 25.1303 10.6807 25.2226C10.0628 25.1109 8.59736 24.9608 7.10517 25.6432L7.10569 25.6427ZM6.64361 10.3436C6.64361 10.4611 6.54815 10.5566 6.43014 10.5566C6.31213 10.5566 6.21667 10.4611 6.21667 10.3436C6.21667 10.3216 6.21982 10.3001 6.22611 10.2802C6.25338 10.1931 6.33416 10.1302 6.43014 10.1302C6.51144 10.1302 6.58172 10.1753 6.61791 10.2419C6.63417 10.2718 6.64361 10.3064 6.64361 10.3436ZM19.7256 17.2749C21.0872 17.2324 22.1499 17.6882 22.6607 17.9619C21.6296 18.0952 20.6493 18.5184 19.8463 19.1809C19.7115 18.2593 19.2761 17.7369 18.9903 17.4862C19.2184 17.4364 19.4613 17.3661 19.7256 17.2743V17.2749ZM14.3747 5.67192C14.8509 5.29428 15.688 5.06718 16.159 4.9628C16.266 4.93867 16.3783 4.96175 16.4675 5.02574C16.5577 5.09025 16.6133 5.18624 16.6248 5.29586C16.704 6.04274 16.4816 6.50797 16.2807 6.76655C16.2608 6.79225 16.2325 6.80746 16.2 6.80956C16.168 6.81165 16.137 6.80012 16.1139 6.77704C15.5459 6.20533 14.7607 5.83294 14.3742 5.67245L14.3747 5.67192ZM14.9852 17.4569C14.9763 17.4479 14.114 16.5631 14.4581 16.0995C14.5499 15.9762 14.6558 15.9143 14.7828 15.9106C14.787 15.9106 14.7917 15.9106 14.7964 15.9106C15.0733 15.9106 15.3697 16.1666 15.4992 16.3051C15.4908 16.4776 15.5019 16.9696 15.8648 17.3079C16.0909 17.5177 16.3473 17.6756 16.6295 17.7794C16.4575 18.0417 16.0379 18.594 15.5496 18.6181C15.4363 18.6239 15.345 18.5898 15.27 18.5148C15.0429 18.2887 15.0146 17.7459 15.023 17.556L15.0256 17.4983L14.9847 17.4574L14.9852 17.4569ZM17.7289 17.546C17.7315 17.5612 17.731 17.5759 17.7252 17.5859C17.7079 17.6168 17.6261 17.6535 17.453 17.6562C17.2505 17.6588 17.0523 17.6331 16.864 17.5796C16.5571 17.492 16.2813 17.3357 16.0431 17.1149C15.7793 16.8694 15.7568 16.4981 15.7599 16.3449C15.8742 16.2988 15.9471 16.3077 15.987 16.3224V16.3832H16.0489C16.2356 16.647 16.458 16.7656 16.6175 16.8185C16.6904 16.8421 16.7564 16.8904 16.8089 16.9581C17.1645 17.417 17.5526 17.5219 17.7294 17.5455L17.7289 17.546ZM21.3196 15.3332C21.2687 15.3736 21.211 15.4108 21.1649 15.4407C21.1439 15.4538 21.126 15.4659 21.1119 15.4758C20.7222 15.748 20.2722 15.9285 19.8101 15.9977C19.4849 16.0465 18.8801 16.0895 18.4815 15.8356C18.4028 15.7853 18.3551 15.7323 18.3394 15.6778C18.2785 15.4659 18.5313 15.2692 18.61 15.2141C18.6457 15.1889 18.6824 15.1664 18.7165 15.1485C18.985 15.0064 19.3296 14.933 19.7707 14.9241C19.7943 14.9241 19.8185 14.9235 19.8421 14.9235C20.1311 14.9235 20.4122 14.9555 20.6792 15.0195C20.8355 15.0568 20.9876 15.1008 21.1313 15.1501C21.1428 15.1538 21.1565 15.1585 21.1722 15.1632C21.2892 15.201 21.3652 15.2325 21.3998 15.2571C21.3888 15.2723 21.3657 15.2975 21.3201 15.3337L21.3196 15.3332ZM18.2649 15.03C18.2875 15.0552 18.3095 15.0793 18.332 15.1008C18.1165 15.298 18.0252 15.5325 18.0876 15.7486C18.1207 15.8661 18.2056 15.9694 18.3404 16.0559C18.6341 16.2432 19.0081 16.2961 19.3354 16.2961C19.5326 16.2961 19.713 16.2773 19.8489 16.2568C20.3508 16.1818 20.8391 15.9856 21.2614 15.6909C21.2734 15.6825 21.2892 15.6725 21.307 15.661C21.3096 15.6594 21.3128 15.6573 21.3154 15.6552C21.3406 15.897 21.286 16.336 20.6592 16.6156C20.2722 16.7886 19.9548 16.9166 19.6606 17.0194C19.283 17.1521 18.952 17.2381 18.6494 17.2832C18.3777 17.3236 18.1259 17.3289 17.8993 17.2995L17.8925 17.289L17.818 17.2901C17.8002 17.289 17.3984 17.2911 17.0161 16.7976C16.9316 16.6879 16.8215 16.6087 16.6993 16.5694C16.5755 16.528 16.3987 16.4325 16.2498 16.2127V16.121H16.1931C16.1601 16.0617 16.1302 15.9972 16.1045 15.9285C15.9152 15.4302 16.5241 14.9859 16.7533 14.8401C16.9232 15.0012 17.1194 15.0825 17.3318 15.0825C17.4834 15.0825 17.6434 15.0405 17.8081 14.9571C17.8951 15.0127 18.0032 15.0415 18.1254 15.0415C18.17 15.0415 18.2172 15.0374 18.2654 15.0295L18.2649 15.03ZM17.6318 14.751C17.3334 14.8837 17.0843 14.8296 16.8734 14.5873C16.6605 14.344 16.5577 13.9973 16.5236 13.8588C16.4911 13.7277 16.5566 13.5808 16.6175 13.4812C16.8094 13.1654 17.2448 12.8423 17.5867 12.761C17.8978 12.6876 18.267 12.996 18.4663 13.21C18.3284 13.2955 18.2072 13.391 18.1055 13.4959C17.6025 14.0104 17.5096 14.4719 17.6324 14.751H17.6318ZM4.78112 12.1227C4.79895 12.011 5.0056 11.9465 5.28726 11.9475C5.39688 11.9517 5.50965 11.9622 5.62399 11.9769C6.05722 12.0488 6.38818 12.2287 6.36353 12.3797C6.33888 12.5318 5.96491 12.5979 5.52748 12.5266C5.09057 12.4558 4.75647 12.2748 4.78112 12.1227ZM7.11985 12.2628C6.85131 12.0257 6.35514 11.8274 5.78606 11.7351C5.5836 11.7026 5.38482 11.6853 5.1939 11.6832C5.17659 11.6538 5.15928 11.6239 5.14197 11.5935C4.83409 10.4826 4.95211 8.60596 5.49811 8.19371C5.62032 8.10139 5.68116 8.12028 5.70109 8.12657C5.90197 8.19003 6.07191 8.72135 6.23608 9.23483C6.28853 9.39848 6.34255 9.56737 6.40129 9.7352C6.40654 9.74989 6.41441 9.763 6.42385 9.77402C6.31265 9.88521 6.22191 10.0546 6.16422 10.2608C6.12016 10.4171 6.09551 10.5938 6.09551 10.7811C6.09551 11.4167 6.37874 11.9313 6.72805 11.9313C7.05377 11.9313 7.32179 11.4834 7.3564 10.9069C7.37633 10.9075 7.39679 10.9043 7.41567 10.8954C7.63229 10.7936 7.88457 10.5094 8.28476 9.91406C8.52603 9.5553 9.18428 8.64058 10.0764 7.89789C10.8716 7.23545 11.597 6.93648 12.1744 7.03247C13.3907 7.23492 14.0385 8.03898 13.9976 9.29515C13.963 10.3583 12.7881 11.8379 12.6208 12.0435C11.9715 12.3184 11.3856 12.4862 10.8317 12.5549C9.90074 12.6703 8.9215 12.5565 8.00049 12.2266C7.68684 12.1138 7.37791 12.1274 7.11933 12.2622L7.11985 12.2628ZM11.3693 27.6704C11.1254 26.5857 10.431 26.0649 9.96997 25.8326C10.2317 25.7812 10.5543 25.7208 10.7635 25.693C10.923 25.7266 12.015 26.0146 12.1818 27.6478C11.9117 27.6547 11.6389 27.662 11.3688 27.6704H11.3693ZM11.0872 23.8809C11.1538 23.8353 11.2608 23.7744 11.4312 23.7026C11.5466 23.8767 11.6316 24.044 11.684 24.2019C11.34 24.1626 11.1443 24.023 11.0504 23.9302C11.0662 23.9171 11.0788 23.8998 11.0866 23.8809H11.0872ZM13.0037 23.9559C12.9958 23.9591 12.9879 23.9622 12.9801 23.9653C12.8851 23.8557 12.7745 23.6475 12.6633 23.3711C13.5922 23.2531 13.9263 23.3344 13.9913 23.3863C13.9698 23.4288 13.8329 23.6181 13.0042 23.9559H13.0037ZM21.7455 14.2989C21.7554 14.3177 21.7638 14.3371 21.7727 14.3571C21.8834 14.6172 21.6799 14.8989 21.5504 15.0426C21.4628 14.9807 21.3442 14.9424 21.253 14.9125C21.2393 14.9083 21.2267 14.9041 21.2168 14.901C21.0652 14.8485 20.9052 14.8024 20.7405 14.763C20.4306 14.6891 20.1027 14.6539 19.7665 14.6608C19.283 14.6702 18.8995 14.7536 18.5948 14.9157C18.5791 14.9241 18.5633 14.9335 18.5476 14.9429C18.5062 14.9052 18.4611 14.8601 18.4223 14.8081C18.3525 14.7148 18.3242 14.6298 18.3373 14.5553C18.352 14.4709 18.4217 14.3875 18.5439 14.3078C19.0842 13.9532 19.7875 13.9254 20.5323 13.8966C20.9923 13.8787 21.2844 13.9175 21.479 14.0219C21.596 14.0849 21.681 14.173 21.746 14.2994L21.7455 14.2989ZM21.5472 13.3521C21.5897 13.478 21.5378 13.6333 21.4864 13.7376C21.2582 13.6485 20.9592 13.617 20.5213 13.6343C19.7739 13.6637 19.0008 13.6941 18.3997 14.0885C18.2146 14.2097 18.1065 14.3513 18.0782 14.5097C18.0624 14.5983 18.0729 14.6886 18.1076 14.7798C18.0247 14.7772 17.9586 14.7531 17.9145 14.709C17.7588 14.5527 17.8579 14.1252 18.2932 13.68C18.4097 13.5604 18.557 13.4534 18.7307 13.3616C18.8203 13.3139 18.919 13.2703 19.0233 13.231H19.0658L19.0805 13.21C19.7508 12.9735 20.5386 12.9624 21.0301 13.0595C21.1072 13.0747 21.179 13.0925 21.244 13.1135C21.4098 13.1665 21.5121 13.2467 21.5477 13.3527L21.5472 13.3521ZM20.9949 12.7867C20.5769 12.718 19.9548 12.7091 19.337 12.8602C20.7133 11.0522 22.2333 10.1669 23.1055 10.1102C23.3216 10.0961 23.4858 10.137 23.567 10.2251C23.6499 10.3148 23.6845 10.4003 23.6725 10.4863C23.6284 10.8015 23.0142 11.1739 22.42 11.5342L22.3166 11.5966C22.0801 11.7409 21.8546 11.9056 21.6469 12.086L21.6427 12.0897C21.2975 12.3907 21.0851 12.6609 20.9944 12.7862L20.9949 12.7867ZM7.99367 14.6954C7.20587 14.4295 6.46633 13.8945 5.92557 13.2084C6.01159 13.2142 6.09656 13.2179 6.18048 13.2179C6.77211 13.2179 7.2793 13.0668 7.3349 12.7212C7.34486 12.6593 7.34224 12.5722 7.29084 12.472C7.51795 12.3745 7.74873 12.4159 7.91237 12.4747C8.87168 12.8187 9.89235 12.9367 10.8642 12.8166C11.4512 12.7437 12.069 12.5659 12.753 12.2743C12.754 12.2743 12.7545 12.2732 12.7556 12.2732C13.0094 12.1647 13.2664 12.0435 13.5418 11.9035C14.4529 11.4398 15.2658 11.5652 15.6849 11.8138C15.891 11.936 16.0106 12.0944 16.041 12.2837C16.1564 13.0149 15.5774 13.7807 14.9905 14.1829C14.221 14.7101 13.2969 14.8858 12.4944 14.988C11.8325 15.0725 11.191 15.1108 10.5873 15.1013C9.61909 15.0867 8.74632 14.9503 7.99314 14.6964L7.99367 14.6954ZM10.5852 15.3641C12.1834 15.3725 13.5329 16.6066 13.5329 18.059C13.5329 18.7639 13.2224 19.4185 12.6591 19.9021C12.1021 20.3799 11.3625 20.6432 10.5763 20.6432C10.442 20.6432 10.3114 20.6358 10.1866 20.6217C9.96211 20.597 9.74496 20.5493 9.54041 20.4801C9.20421 20.3668 8.90577 20.1974 8.65296 19.9776C8.65086 19.9755 8.64824 19.9739 8.64614 19.9718C8.45418 19.8024 8.29263 19.6057 8.1657 19.387C8.04769 19.183 7.96062 18.9611 7.90608 18.7267C7.86097 18.5316 7.83789 18.327 7.83789 18.1188C7.83789 17.6756 7.94122 17.2366 8.13581 16.849C8.34718 16.4273 8.66345 16.069 9.05001 15.8126C9.49111 15.5194 10.0156 15.3641 10.5669 15.3641H10.5852ZM7.57669 18.1188C7.57669 18.2871 7.59033 18.4534 7.6176 18.6149C6.95464 18.5525 6.81617 18.2237 6.82299 17.9478C6.83663 17.3824 7.42301 17.1054 7.79016 16.9869C7.65065 17.3436 7.57669 17.7296 7.57669 18.1188ZM5.51856 21.4089C4.84983 20.7816 4.81783 20.4675 4.83462 20.3615C4.84721 20.2844 4.89808 20.2267 4.98987 20.1842C5.21698 20.0799 5.45248 20.0678 5.63448 20.1528C5.81543 20.2367 5.94446 20.4129 6.01789 20.6767L6.06771 20.8551L6.21929 20.7486C6.22244 20.7465 6.54973 20.5189 7.048 20.3516C7.55152 20.1821 8.04402 20.1323 8.5124 20.2016C8.76311 20.4135 9.05315 20.5808 9.37572 20.6993C9.37887 20.7806 9.37152 20.9154 9.30019 21.0156C9.24931 21.0874 9.17274 21.131 9.06627 21.1488C9.0327 21.1546 9.00018 21.1598 8.96818 21.1651C8.78671 21.1944 8.62988 21.2196 8.47568 21.2804C8.19822 21.3901 7.98423 21.5983 7.76761 21.9707C7.46078 21.989 6.17419 22.0242 5.51804 21.4089H5.51856ZM14.6627 23.2982C14.6978 23.4335 14.7214 23.5515 14.7424 23.6559C14.8153 24.0188 14.8677 24.2816 15.2894 24.6818C15.2905 24.6829 15.291 24.6834 15.2921 24.6844C15.2826 24.6991 15.2543 24.7332 15.173 24.783C15.1709 24.7841 15.1683 24.7857 15.1662 24.7872C14.4492 25.2199 11.973 25.6343 11.0961 25.3852C11.0851 25.3731 11.0704 25.3558 11.0531 25.3338C10.9802 25.2399 10.8532 25.0421 10.8197 24.7678C10.7955 24.568 10.8244 24.3613 10.9046 24.1515C11.0636 24.2932 11.3615 24.471 11.855 24.4757C11.8561 24.4757 11.8571 24.4757 11.8582 24.4757C11.8592 24.4757 11.8597 24.4757 11.8603 24.4757C11.8666 24.4757 11.8729 24.4757 11.8791 24.4757C12.2112 24.4757 12.5862 24.397 12.9948 24.2412C13.0304 24.2276 13.0661 24.2134 13.1028 24.1987C14.22 23.7435 14.2918 23.4781 14.2483 23.3181C14.221 23.2164 14.1387 22.9137 12.6056 23.1136C12.6853 23.0711 12.7614 23.026 12.8332 22.9782C13.5507 22.909 14.5745 22.9625 14.6621 23.2982H14.6627Z" fill="#110F23"/>
</svg>
