<svg width="32" height="32" viewBox="0 0 32 32" fill="none" xmlns="http://www.w3.org/2000/svg">
<path fill-rule="evenodd" clip-rule="evenodd" d="M24.7936 16C24.7936 10.7349 20.5254 6.46668 15.2603 6.46668V3C16.1577 3 17.034 3.09094 17.8802 3.26411C23.8041 4.47632 28.2603 9.71775 28.2603 16C28.2603 23.1797 22.44 29 15.2603 29C9.59998 29 4.78462 25.3825 3 20.3333H6.76644C8.34438 23.4201 11.5555 25.5333 15.2603 25.5333C20.5254 25.5333 24.7936 21.2651 24.7936 16ZM3.7597 9.93332C5.93935 14.0568 10.2717 16.8667 15.2603 16.8667V13.4C10.9878 13.4 7.37172 10.5894 6.16015 6.71628C5.20353 7.6541 4.39125 8.73859 3.7597 9.93332ZM7.62655 5.47622C8.36827 9.01179 11.5043 11.6667 15.2603 11.6667C17.6535 11.6667 19.5936 13.6068 19.5936 16C19.5936 18.3932 17.6535 20.3333 15.2603 20.3333H8.77377C10.173 22.4237 12.5559 23.8 15.2603 23.8C19.5681 23.8 23.0603 20.3078 23.0603 16C23.0603 11.6922 19.5681 8.2 15.2603 8.2C12.867 8.2 10.927 6.25991 10.927 3.86667V3.73973C9.73791 4.15999 8.62827 4.74834 7.62655 5.47622Z" fill="#110F23"/>
</svg>
