<svg width="32" height="32" viewBox="0 0 32 32" fill="none" xmlns="http://www.w3.org/2000/svg">
<g clip-path="url(#clip0_4_1665)">
<path d="M14.7607 22.7414C14.7607 22.7414 14.7767 22.7446 14.7863 22.7446C14.7991 22.7542 14.8183 22.7638 14.8408 22.767C14.9368 22.7958 15.0393 22.8086 15.1418 22.8086C15.3404 22.8086 15.5421 22.7542 15.6926 22.6645C15.8752 22.5973 16.0321 22.4852 16.1538 22.3347C16.2755 22.4852 16.4292 22.5973 16.6054 22.6581C16.8616 22.767 17.1242 22.8054 17.374 22.7734H17.4701C17.4861 22.7734 17.5021 22.7734 17.5213 22.767C18.1106 22.6421 18.4917 22.1265 18.4148 21.5693C18.3956 21.4412 18.2739 21.3451 18.1426 21.3675C18.0113 21.3867 17.9184 21.5084 17.9376 21.6397C17.9825 21.9408 17.7711 22.2194 17.4541 22.293H17.374C17.374 22.293 17.3612 22.293 17.358 22.293H17.3516H17.3388C17.1594 22.3187 16.9769 22.293 16.7815 22.2098C16.5701 22.1329 16.4196 21.9343 16.3972 21.7198C16.4004 21.6653 16.4004 21.6077 16.3972 21.5532C16.3972 21.5212 16.3844 21.4892 16.3652 21.4572V21.4315C16.9929 21.3195 17.4541 20.8487 17.4541 20.4836C17.4541 20.1185 16.9448 19.8911 16.093 19.8911C14.9689 19.8911 14.7319 20.2146 14.7319 20.4836C14.7319 20.8647 15.2315 21.3515 15.8848 21.4412V21.5725C15.8848 21.6109 15.8944 21.6493 15.9168 21.6845C15.9168 21.6942 15.9168 21.7038 15.9168 21.7038C15.8944 21.9376 15.7343 22.1361 15.4941 22.2258C15.3596 22.3026 15.2091 22.3315 15.0617 22.3123C15.0201 22.277 14.9657 22.2578 14.9112 22.2578H14.8504C14.5333 22.1841 14.3252 21.9087 14.3508 21.5853C14.354 21.5212 14.3348 21.4604 14.2931 21.4123C14.2515 21.3643 14.1938 21.3355 14.1298 21.3291C14.0657 21.3227 14.0017 21.3451 13.9537 21.3835C13.9056 21.4251 13.8768 21.486 13.8704 21.55C13.8288 22.1233 14.197 22.6101 14.7639 22.7318L14.7607 22.7414ZM15.6958 20.4195C15.7983 20.4099 15.9617 20.4099 16.093 20.4099C16.1858 20.4099 16.2787 20.4035 16.3588 20.3971C16.4164 20.3939 16.4837 20.3907 16.5285 20.3875C16.4613 20.4388 16.2979 20.506 16.093 20.506C15.9264 20.506 15.7791 20.4612 15.6958 20.4195Z" fill="#110F23"/>
<path d="M27.0612 5.66533C26.7922 5.23618 26.4815 4.84868 26.1389 4.52201C25.9947 4.3843 25.841 4.2498 25.6873 4.1281L25.6232 4.08006C25.4919 4 25.319 3.97758 25.1749 4.02562C24.8674 4.1281 24.7073 4.40032 24.7618 4.72057C25.1076 6.30264 24.9411 7.54203 24.2558 8.5028C23.4839 9.59807 21.8122 10.6741 20.877 10.6741H20.8418C20.8194 10.6741 20.797 10.6741 20.7714 10.6805C20.3646 10.2962 19.9387 9.98879 19.4999 9.77101C18.8594 9.43474 18.1645 9.22337 17.4919 9.15932L17.4183 8.51561C17.4087 8.44195 17.367 8.3747 17.303 8.33627C16.9475 8.12169 16.5504 8.01281 16.1212 8.01281H16.0572C15.6409 8.01281 15.2245 8.1281 14.8754 8.33627C14.8114 8.3747 14.7698 8.43875 14.7602 8.51561L14.6929 9.15292C13.8762 9.21377 13.1461 9.43154 12.5216 9.80304C12.0188 10.0528 11.596 10.3539 11.2309 10.719C11.2053 10.7094 11.1829 10.7062 11.1541 10.7062C11.1445 10.7062 11.1317 10.7062 11.122 10.7062C10.1613 10.7062 8.52477 9.65892 7.73373 8.53803C6.87224 7.2602 6.99714 5.76781 7.25015 4.74619C7.30459 4.58606 7.26936 4.41633 7.14446 4.23058C6.92348 3.95516 6.54879 3.96157 6.32781 4.1281C3.80739 6.12329 3.25015 9.7518 5.0628 12.3907C5.4439 12.9768 5.95951 13.5372 6.64166 14.1041C6.92669 14.3571 7.26616 14.5717 7.68569 14.7606C7.73694 14.7766 7.79778 14.7958 7.85543 14.8118C7.90347 14.8247 7.95471 14.8407 7.99634 14.8535L8.07 15.2154C7.95791 15.2826 7.85863 15.3435 7.78818 15.3915C7.72092 15.4363 7.68249 15.51 7.68249 15.5901C7.68249 15.7502 7.68569 15.8847 7.6889 16.016C7.6953 16.2466 7.70171 16.4484 7.68249 16.727C7.67609 16.8263 7.73373 16.9223 7.8234 16.964L8.03157 17.0536C7.46152 18.0592 7.09322 19.1161 6.93309 20.1889C6.92669 20.2018 6.91388 20.221 6.91388 20.2498V20.2914C6.88826 20.5861 6.86584 20.8903 6.86904 21.1913C6.86904 21.3227 6.87224 21.4315 6.88185 21.534C7.11564 24.695 10.7634 26.9079 15.9611 27.0392C18.1613 27.0392 20.2109 26.5941 21.8859 25.7518C22.8338 25.2842 23.6152 24.7046 24.2045 24.0288C24.9315 23.209 25.3414 22.3058 25.4247 21.3419C25.4407 21.1561 25.4407 20.9576 25.4247 20.7334C25.4183 20.554 25.3959 20.3587 25.3574 20.0993C25.3542 20.0737 25.3414 20.0544 25.3318 20.0352C25.1172 18.9656 24.7489 17.9504 24.2333 17.0184L24.3646 16.9544C24.4511 16.9095 24.5023 16.8199 24.4959 16.7238C24.4799 16.5092 24.4799 16.3427 24.4799 16.1601C24.4799 15.9776 24.4799 15.7854 24.4639 15.5388C24.4607 15.4812 24.4351 15.4267 24.3935 15.3851C24.3102 15.3018 24.2141 15.241 24.1116 15.1801L24.1821 14.7894L24.291 14.7478C24.6945 14.5652 25.0244 14.3539 25.2998 14.1105C25.8666 13.6621 26.3951 13.1017 26.9171 12.3939C27.3654 11.7406 27.6793 11.02 27.849 10.2514C28.2013 8.69815 27.9131 7.02642 27.058 5.66533H27.0612ZM26.5264 12.0897L26.4943 12.1633C26.014 12.8102 25.524 13.3259 24.9923 13.7454C24.7457 13.9664 24.4511 14.1489 24.102 14.309L23.8682 14.3987C23.8426 14.4051 23.817 14.4115 23.785 14.4147C23.769 14.4147 23.7529 14.4147 23.7369 14.4147C23.6825 14.4115 23.6216 14.3987 23.5288 14.3827C23.4487 14.3667 23.3526 14.3475 23.2341 14.3315L23.0164 14.2674C22.6064 14.1841 22.1997 13.9632 21.873 13.6397C21.1557 12.9127 20.9059 12.1409 21.0692 11.1417C22.1805 11.02 23.8298 9.93114 24.6401 8.78142C25.4087 7.70536 25.6008 6.34427 25.2261 4.6309C25.2133 4.55404 25.2421 4.5092 25.3222 4.48038C25.3318 4.48038 25.3638 4.48679 25.3863 4.506C27.0644 5.82866 27.8458 8.04483 27.3815 10.1489C27.2213 10.8471 26.9331 11.5004 26.5232 12.0929L26.5264 12.0897ZM6.79218 4.60848C6.51035 5.73578 6.37585 7.3787 7.33982 8.80704C8.18209 10.0048 9.8154 11.0745 10.9427 11.1737C11.0003 11.526 11.0068 11.8367 10.9651 12.1217L11.0452 12.1345L10.9619 12.1505C10.9523 12.2178 10.9363 12.285 10.9171 12.3491L10.8979 12.4259C10.8915 12.4516 10.8883 12.474 10.8786 12.4964L10.869 12.5188C10.869 12.5188 10.8594 12.538 10.8562 12.5476C10.7185 12.9383 10.4783 13.2874 10.1132 13.6237C9.78337 13.9536 9.37665 14.1777 8.96352 14.261L8.73613 14.3026C8.5632 14.3603 8.39346 14.3859 8.20451 14.3859H8.11484C8.0732 14.3731 8.02837 14.3603 7.98353 14.3475L7.9419 14.3347C7.90347 14.3251 7.86824 14.3122 7.85543 14.309C7.49674 14.1457 7.20211 13.96 6.94911 13.7358C6.29899 13.1946 5.8122 12.6661 5.45671 12.1185C3.79138 9.68775 4.30059 6.34427 6.62565 4.5092C6.65447 4.48679 6.73133 4.47718 6.76336 4.51561C6.80499 4.57646 6.79858 4.59567 6.79538 4.61169L6.79218 4.60848ZM11.4263 12.2882C11.4423 12.2082 11.4519 12.1217 11.4583 12.0384V12.0032C11.4647 11.9744 11.4679 11.9456 11.4679 11.9167C11.4743 11.811 11.4743 11.7054 11.4679 11.5997V11.5356C11.4583 11.4267 11.4487 11.3114 11.4327 11.1962C11.4423 11.1897 11.4487 11.1801 11.4583 11.1737C11.8074 10.7958 12.2269 10.4852 12.7489 10.2258C13.303 9.89912 13.9371 9.70056 14.6321 9.63651L14.267 13.2266C13.5752 13.3259 12.7521 13.454 11.6857 13.6269C11.3462 13.6877 10.9587 13.7998 10.5264 13.9632C10.9235 13.5468 11.1893 13.1145 11.3366 12.6437C11.3494 12.6053 11.359 12.5668 11.3686 12.5284L11.3847 12.4676C11.3975 12.4099 11.4135 12.3523 11.4231 12.2946L11.4263 12.2882ZM17.3895 13.1946C16.8386 13.1721 16.2718 13.1721 15.7369 13.1721C15.3558 13.1721 15.042 13.1785 14.757 13.1913L15.1413 9.40272L15.2213 8.69495C15.4711 8.57005 15.7722 8.49639 16.054 8.49639H16.118C16.4159 8.49639 16.6977 8.56365 16.9507 8.69495L17.0212 9.28743C17.0052 9.32586 16.9987 9.36429 17.0019 9.40272L17.3863 13.1978L17.3895 13.1946ZM21.4663 13.9023C21.066 13.7614 20.7009 13.6653 20.3871 13.6205C19.3014 13.4476 18.4943 13.3291 17.8795 13.2362L17.54 9.63971C18.1164 9.70696 18.7153 9.89912 19.2822 10.197C19.7241 10.4179 20.1533 10.735 20.5568 11.1353C20.4063 12.2338 20.6849 13.0889 21.4695 13.9023H21.4663ZM19.4039 18.245C19.4039 18.4564 19.2758 18.6133 19.1637 18.6133C19.0516 18.6133 18.9235 18.4564 18.9235 18.245C18.9235 18.0336 19.0516 17.8767 19.1637 17.8767C19.2758 17.8767 19.4039 18.0336 19.4039 18.245ZM12.8706 18.245C12.8706 18.0336 12.9987 17.8767 13.1108 17.8767C13.2229 17.8767 13.351 18.0336 13.351 18.245C13.351 18.4564 13.2229 18.6133 13.1108 18.6133C12.9987 18.6133 12.8706 18.4564 12.8706 18.245ZM21.7289 20.6917C21.6457 20.7654 21.5496 20.8359 21.4407 20.8967C21.4119 20.807 21.3831 20.7238 21.351 20.6501C21.2357 20.3843 21.0916 20.1473 20.9923 20C20.8258 19.731 20.6401 19.478 20.4255 19.2314C20.4543 19.2314 20.4831 19.225 20.5088 19.225C20.7297 19.225 20.9187 19.225 21.1365 19.257C21.3222 19.2826 21.4983 19.3595 21.7129 19.5004C21.8955 19.6221 22.0492 19.7758 22.1709 19.9584L22.3086 19.8783C22.1741 19.6093 22.046 19.4171 21.9019 19.2762C21.7097 19.1161 21.508 18.9496 21.2742 18.8503C21.034 18.7478 20.8034 18.6837 20.5568 18.6549C20.5056 18.6421 20.4575 18.6357 20.4095 18.6293C20.4191 18.5524 20.4255 18.482 20.4255 18.4115C20.4255 17.771 20.086 17.2234 19.5992 17.0857L19.5608 17.0761L18.4783 17.8863L18.4719 17.9151C18.4399 18.0753 18.4047 18.2418 18.4047 18.4115C18.4047 19.1193 18.8915 19.7406 19.4455 19.7406C19.5768 19.7406 19.7081 19.7022 19.833 19.6253C20.1084 19.8751 20.339 20.1121 20.5408 20.3587C20.6817 20.4996 20.8098 20.6789 20.9091 20.8807C20.9411 20.948 20.9731 21.0184 21.0052 21.0953C20.9827 21.1049 20.9603 21.1113 20.9475 21.1177C20.6881 21.1305 20.4063 21.0152 20.1853 20.7942C18.8274 19.5388 17.5784 19.004 16.1405 19.0328C14.6769 19.0648 13.2293 19.6733 12.1725 20.6982C11.8266 21.0152 11.5384 21.217 11.2918 21.1625C11.3174 21.0825 11.3494 21.0088 11.3847 20.9415C11.4647 20.7526 11.5768 20.5701 11.7241 20.3843C11.9259 20.1377 12.1629 19.8943 12.4415 19.6445C12.5632 19.7086 12.6881 19.7438 12.813 19.7438C13.3799 19.7438 13.8218 19.1609 13.8218 18.4147C13.8218 18.245 13.7866 18.0721 13.7193 17.9055L13.7097 17.8831L12.6337 17.0761L12.5952 17.0889C12.1341 17.2298 11.801 17.787 11.801 18.4147C11.801 18.4884 11.8074 18.562 11.8202 18.6453C11.8042 18.6453 11.785 18.6517 11.7658 18.6581C11.516 18.719 11.2758 18.7862 11.0676 18.9239L10.7794 19.1161C10.6801 19.1833 10.5744 19.2538 10.5104 19.3499C10.347 19.5132 10.2477 19.7022 10.1421 19.952L10.283 20.0256C10.4367 19.779 10.6801 19.5676 10.9459 19.4524L11.2341 19.3563C11.4071 19.2986 11.612 19.2954 11.7946 19.2954C11.5704 19.5516 11.3718 19.8271 11.2021 20.0737C11.0708 20.301 10.9747 20.5316 10.8786 20.7526C10.8562 20.807 10.837 20.8647 10.8178 20.9319C10.7089 20.8679 10.6032 20.8006 10.4911 20.7302C10.0364 20.4419 9.52397 20.1121 8.8162 20.0032C8.34542 19.9199 7.89386 19.9103 7.4455 19.9744C7.61524 19.0584 7.9451 18.1617 8.42869 17.3066L8.61764 17.3867C8.67529 17.4091 8.73293 17.4123 8.79058 17.3899C8.84502 17.4091 8.90587 17.4059 8.95711 17.3899C9.93069 17.012 10.9491 16.727 11.9899 16.538C13.2485 16.3042 14.5968 16.1889 16.1084 16.1889C17.0692 16.1889 18.0364 16.2498 19.0612 16.3747C19.3975 16.4227 19.7369 16.4772 20.07 16.538C21.1076 16.727 22.1292 17.0152 23.0996 17.3899C23.1541 17.4123 23.2117 17.4123 23.2662 17.3899C23.3206 17.4091 23.3815 17.4091 23.4391 17.3867L23.7882 17.2394C24.2365 18.0464 24.5696 18.9303 24.7842 19.8719C23.6953 19.7982 22.6385 20.0801 21.7129 20.6982L21.7289 20.6917ZM8.79698 17.3227V17.3323L8.78417 17.3066L8.79698 17.3227ZM23.8843 16.6117C23.8843 16.6117 23.8586 16.6213 23.849 16.6309C23.8202 16.6309 23.7914 16.6405 23.7658 16.6533L23.532 16.7718L23.279 16.8679C22.3214 16.5092 21.3286 16.2338 20.3262 16.0544C19.9419 15.9936 19.5544 15.9359 19.1413 15.8879C18.0844 15.7406 17.0436 15.6669 15.9579 15.6669C14.315 15.7054 12.9795 15.8271 11.7562 16.0544C10.7634 16.2338 9.78017 16.506 8.82581 16.8615C8.74574 16.8231 8.66248 16.791 8.59842 16.775L8.17248 16.5861C8.18209 16.3651 8.17569 16.1857 8.17248 15.9936C8.17248 15.9071 8.16608 15.8174 8.16608 15.7182C8.24935 15.6669 8.34862 15.6061 8.46712 15.5356C9.08842 15.1673 10.6545 14.2962 11.8074 14.1265C12.8963 13.9504 13.7257 13.8255 14.3374 13.7358L14.4975 13.7134C14.6929 13.7134 14.8947 13.7038 15.0996 13.6974C15.3206 13.6877 15.5448 13.6813 15.7818 13.6813C16.4223 13.6525 17.0276 13.6813 17.6329 13.7134C18.2574 13.803 19.042 13.9215 20.3486 14.1297C21.5272 14.2994 23.0996 15.1705 23.7177 15.5388C23.7465 15.5548 23.7818 15.5677 23.8234 15.5709C23.8875 15.6093 23.9451 15.6413 23.9899 15.6733C23.9995 15.8591 23.9995 16.0128 23.9995 16.1601C23.9995 16.301 23.9995 16.4387 24.006 16.5957L23.9963 16.6021C23.9547 16.5957 23.9131 16.6021 23.8811 16.6149L23.8843 16.6117ZM23.5512 14.8727C23.5928 14.8791 23.6345 14.8855 23.6761 14.8887L23.6665 14.9399C23.628 14.9175 23.5896 14.8951 23.5512 14.8727ZM8.49594 14.8855L8.55359 14.8759C8.57601 14.8727 8.59522 14.8695 8.61764 14.8663C8.57921 14.8887 8.54078 14.9111 8.50555 14.9303L8.49594 14.8823V14.8855ZM7.38465 20.458C7.8202 20.3779 8.26856 20.3811 8.74895 20.4676C9.36063 20.5636 9.80899 20.8487 10.2445 21.1273C10.4207 21.2394 10.584 21.3355 10.7377 21.4187L10.7249 21.5116V22.229C10.7409 22.3411 10.757 22.4596 10.773 22.5813C10.789 22.703 10.805 22.8215 10.821 22.9335V22.9432C10.8851 23.1962 10.9491 23.4171 11.0164 23.6541C11.0324 23.7054 11.058 23.763 11.0836 23.8207C11.106 23.8751 11.1317 23.9295 11.1445 23.9744L11.1541 23.9936C11.1829 24.0352 11.2053 24.0865 11.2277 24.1409C11.2501 24.1921 11.2694 24.2402 11.2982 24.2882C11.3014 24.2946 11.3078 24.3042 11.311 24.3106L11.4455 24.221C11.4007 24.1537 11.3718 24.0608 11.3462 23.9808L11.3302 23.9263C11.3142 23.8655 11.3078 23.811 11.3014 23.7598C11.2918 23.7022 11.2854 23.6413 11.2694 23.5837C11.2533 23.4716 11.2373 23.3531 11.2213 23.2314C11.2053 23.1097 11.1893 22.9912 11.1733 22.8887V21.8639C11.1733 21.7934 11.1733 21.7038 11.1893 21.6205C11.7369 21.7486 12.2365 21.297 12.5088 21.044C13.4823 20.0993 14.8114 19.542 16.1597 19.51C17.4631 19.4748 18.6032 19.9776 19.8586 21.1369C20.1853 21.4604 20.6048 21.6301 21.0116 21.5917C21.0276 21.5917 21.0436 21.5885 21.0596 21.5821C21.0884 21.5725 21.1204 21.5628 21.1493 21.5532C21.1749 21.7422 21.2005 21.9343 21.2005 22.1201C21.2005 22.3731 21.2005 22.5941 21.1685 22.8247C21.1685 22.9656 21.1429 23.1065 21.114 23.257C21.098 23.3339 21.0852 23.4107 21.0788 23.4716C21.0628 23.5196 21.0468 23.5773 21.0308 23.6349C21.0148 23.6893 20.9987 23.7438 20.9827 23.7918C20.9667 23.8367 20.9443 23.8911 20.9219 23.9456C20.8963 24.0032 20.8706 24.0608 20.8546 24.1121L20.6657 24.6789L20.9987 24.1825C21.066 24.0833 21.1301 23.9552 21.1653 23.8527C21.2197 23.7662 21.2517 23.6669 21.2774 23.5805L21.2966 23.5196C21.3606 23.2954 21.4247 23.0681 21.4599 22.8375C21.4759 22.7254 21.4919 22.6037 21.508 22.4852C21.524 22.3667 21.54 22.245 21.556 22.1329C21.588 21.8735 21.588 21.6429 21.556 21.3835C21.7417 21.2874 21.9019 21.1817 22.0236 21.0729C22.8722 20.506 23.8939 20.2498 24.9059 20.3523C24.9251 20.4772 24.9379 20.5957 24.9475 20.7142C24.9571 20.9127 24.9475 21.0857 24.9219 21.249V21.2714C24.8418 22.3026 24.3454 23.2826 23.4807 24.0993C23.1156 24.4419 22.6897 24.7558 22.2157 25.0376C20.6048 25.9792 18.4271 26.4948 16.0764 26.4948C16.0412 26.4948 16.0092 26.4948 15.9739 26.4948C11.042 26.3699 7.58321 24.3363 7.36864 21.4315C7.36224 21.3515 7.35903 21.2714 7.35583 21.1913C7.35583 20.9608 7.36864 20.7334 7.39106 20.4644L7.38465 20.458Z" fill="#110F23"/>
</g>
<defs>
<clipPath id="clip0_4_1665">
<rect width="24" height="23.0392" fill="white" transform="translate(4 4)"/>
</clipPath>
</defs>
</svg>
