<svg width="32" height="32" viewBox="0 0 32 32" fill="none" xmlns="http://www.w3.org/2000/svg">
<path fill-rule="evenodd" clip-rule="evenodd" d="M16.0305 15.5379C19.2308 15.5379 21.8977 14.9973 22.5608 14.2693C22.0058 13.6494 20.0093 13.1737 17.4577 13.044V14.5792C17.0108 14.6081 16.5279 14.6081 16.0377 14.6081C15.5476 14.6081 15.0791 14.5936 14.6106 14.5648V13.0512C12.059 13.1881 10.0624 13.671 9.50743 14.2765C10.1561 15.0045 12.8375 15.5451 16.0377 15.5451L16.0305 15.5379ZM21.7103 8.34444V10.4491H17.4433V11.9051C20.4417 12.0565 22.6906 12.6908 22.705 13.4692V15.0622C22.6906 15.8334 20.4489 16.4677 17.4433 16.6263V20.2013H14.6106V16.6407C11.6121 16.4893 9.36328 15.855 9.34886 15.0766V13.4692C9.36328 12.698 11.6049 12.0637 14.6106 11.9051V10.4491H10.3435V8.34444H21.7175H21.7103ZM8.66412 5H23.642C23.9952 5 24.3196 5.1874 24.507 5.49734L28.8677 12.9863C29.0984 13.3755 29.0191 13.8657 28.6947 14.1756L16.6864 25.9028C16.2972 26.292 15.6629 26.292 15.2809 25.9028L3.29427 14.19C2.96992 13.8657 2.90505 13.3683 3.14291 12.9647L7.81359 5.4613C8.00099 5.1802 8.32535 5 8.66412 5Z" fill="#110F23"/>
</svg>
