<svg width="32" height="32" viewBox="0 0 32 32" fill="none" xmlns="http://www.w3.org/2000/svg">
<path d="M3.55043 23.1605L8.00428 17.1094C8.48806 16.4518 9.20457 16.0579 9.9675 15.9711C10.1412 15.951 10.2963 15.8502 10.3831 15.6982C10.4715 15.5462 10.4808 15.3617 10.4111 15.2004C10.1055 14.4964 10.0869 13.679 10.4157 12.9316L13.4288 6.04934C13.8754 5.02739 14.885 4.36832 16 4.36832C17.1149 4.36832 18.1245 5.02894 18.5711 6.04934L21.5843 12.9316C21.9115 13.679 21.8944 14.4964 21.5889 15.2004C21.5191 15.3617 21.53 15.5462 21.6168 15.6982C21.7052 15.8502 21.8587 15.951 22.0324 15.9711C22.7954 16.0579 23.5118 16.4518 23.9957 17.1094L28.4495 23.1605C29.1101 24.0583 29.1768 25.2617 28.6201 26.2278C28.0618 27.1924 26.9856 27.7367 25.8783 27.6142L18.4114 26.7831C17.6004 26.6931 16.9009 26.2697 16.4451 25.6526C16.3412 25.5114 16.1752 25.4277 16 25.4277C15.8247 25.4277 15.6603 25.5114 15.5549 25.6526C15.099 26.2697 14.3995 26.6931 13.5885 26.7831L6.1216 27.6142C5.01437 27.7383 3.93815 27.1939 3.37983 26.2278C2.82316 25.2617 2.88985 24.0583 3.55043 23.1605ZM19.6365 13.7954L16.6188 6.90536C16.5102 6.65879 16.2667 6.49906 15.9984 6.49906C15.7301 6.49906 15.4867 6.65879 15.3782 6.90536L12.3603 13.7954C12.2657 14.0125 12.2859 14.2637 12.4162 14.4622C12.5464 14.6608 12.7667 14.7801 13.0055 14.7801H18.993C19.2302 14.7801 19.4519 14.6608 19.5822 14.4622C19.7125 14.2637 19.7326 14.0125 19.638 13.7954H19.6365ZM18.0873 24.2848C18.1943 24.4972 18.4021 24.6398 18.6378 24.6662L26.1125 25.4975C26.3792 25.5269 26.6397 25.3967 26.7747 25.164C26.9096 24.9314 26.8925 24.6414 26.7328 24.4244L22.2743 18.3671C22.1332 18.1763 21.9068 18.0678 21.6695 18.0817C21.4323 18.0941 21.2183 18.226 21.0989 18.4321L21.0942 18.4399L18.109 23.6101L18.1043 23.6179C17.9849 23.8242 17.9787 24.0754 18.0857 24.2863L18.0873 24.2848ZM15.3859 21.9462C15.513 22.1648 15.7456 22.3013 16 22.3013C16.2528 22.3013 16.4869 22.1664 16.6141 21.9478L18.9077 17.9763C19.0348 17.7576 19.0348 17.4862 18.9077 17.2675C18.7805 17.0489 18.5479 16.9124 18.2935 16.9124H13.7079C13.4551 16.9124 13.221 17.0458 13.0938 17.266C12.9667 17.4862 12.9667 17.756 13.0938 17.9747L15.3859 21.9462ZM5.22374 25.164C5.35867 25.3967 5.61766 25.5285 5.88587 25.499L13.3605 24.6677C13.5963 24.6414 13.8041 24.4988 13.9111 24.2863C14.0181 24.0738 14.0119 23.8226 13.8925 23.6179L13.8878 23.6101L10.9026 18.4399L10.8979 18.4321C10.7785 18.226 10.5646 18.0941 10.3273 18.0817C10.09 18.0693 9.86359 18.1763 9.72246 18.3671L5.26406 24.4244C5.10432 24.6414 5.08881 24.9314 5.22219 25.164H5.22374Z" fill="#110F23"/>
</svg>
