<svg width="32" height="32" viewBox="0 0 32 32" fill="none" xmlns="http://www.w3.org/2000/svg">
<g clip-path="url(#clip0_14366_146)">
<path d="M16 28.2979C22.792 28.2979 28.298 22.7919 28.298 15.9999C28.298 9.20791 22.792 3.7019 16 3.7019C9.20803 3.7019 3.70203 9.20791 3.70203 15.9999C3.70203 22.7919 9.20803 28.2979 16 28.2979Z" stroke="#110F23" stroke-width="1.3"/>
<mask id="mask0_14366_146" style="mask-type:luminance" maskUnits="userSpaceOnUse" x="10" y="6" width="12" height="20">
<path d="M21.7204 6.63989H10.228V25.3599H21.7204V6.63989Z" fill="white"/>
</mask>
<g mask="url(#mask0_14366_146)">
<path d="M15.9725 6.63989L15.847 7.06637V19.4417L15.9725 19.5669L21.717 16.1714L15.9725 6.63989Z" fill="#110F23"/>
<path d="M15.9725 6.63989L10.228 16.1714L15.9725 19.567V13.5604V6.63989Z" fill="#110F23"/>
<path d="M15.9725 20.6546L15.9017 20.7408V25.1491L15.9725 25.3557L21.7203 17.2607L15.9725 20.6546Z" fill="#110F23"/>
<path d="M15.9725 25.3557V20.6546L10.228 17.2607L15.9725 25.3557Z" fill="#110F23"/>
<path d="M15.9724 19.5668L21.7168 16.1713L15.9724 13.5603V19.5668Z" fill="#110F23"/>
<path d="M10.228 16.1713L15.9724 19.5668V13.5603L10.228 16.1713Z" fill="#110F23"/>
</g>
</g>
<defs>
<clipPath id="clip0_14366_146">
<rect width="26" height="26" fill="white" transform="translate(3 3)"/>
</clipPath>
</defs>
</svg>
