<svg width="32" height="32" viewBox="0 0 32 32" fill="none" xmlns="http://www.w3.org/2000/svg">
<path d="M19.9857 4.11651C20.9038 4.2573 21.5523 4.4428 21.9315 4.67279C22.3108 4.90278 22.7137 5.35519 23.1404 6.03002C22.9104 6.21965 22.71 6.32926 22.5394 6.35907C22.3688 6.38888 22.0859 6.36365 21.6903 6.2834L21.2191 6.07129C20.7646 5.86653 20.2285 6.06143 20.0155 6.50903C19.9718 6.60112 19.9468 6.70096 19.9419 6.80277C19.937 6.90459 19.9523 7.00637 19.987 7.10223C20.0217 7.19808 20.075 7.28612 20.1439 7.36125C20.2128 7.43639 20.2958 7.49713 20.3883 7.53996C20.4216 7.55556 20.4558 7.56863 20.4908 7.5794L21.1198 7.77248C21.2973 7.91143 21.3762 8.10703 21.356 8.35857C21.3358 8.61011 21.2182 8.85477 21.0029 9.09233L21.3436 10.0187C20.9327 10.1088 20.439 10.1356 19.8623 10.0985C18.9979 10.043 18.5748 9.78161 18.5677 9.74217C18.5633 9.71694 18.155 9.49682 17.3428 9.08247C16.8694 8.98556 16.3874 8.93685 15.9041 8.93709C11.9595 8.93709 8.76166 12.1377 8.76166 16.0858C8.76166 20.0339 11.9595 23.2344 15.9044 23.2344C18.5512 23.2344 20.8618 21.7931 22.0957 19.6519L20.19 19.6521C19.0371 19.6521 18.0224 18.8977 17.6996 17.8005L17.3162 16.4978C17.2972 16.4328 17.2913 16.3646 17.2988 16.2973C17.3062 16.23 17.327 16.1648 17.3597 16.1055C17.3925 16.0462 17.4367 15.9939 17.4898 15.9518C17.5428 15.9097 17.6037 15.8784 17.6688 15.8599C17.7161 15.8461 17.7651 15.8393 17.8142 15.8393H26.2841C26.9851 15.8393 27.5753 16.3591 27.6581 17.0491C27.6815 17.2451 27.6934 17.4471 27.6934 17.6549C27.6934 18.2036 27.5856 18.7521 27.3699 19.3008C25.9681 24.319 21.3656 28 15.9041 28C9.32963 28 4 22.6658 4 16.0855C4 9.84719 8.79078 4.72828 14.8913 4.21396C14.9486 4.20502 15.006 4.19607 15.0635 4.18667L15.2855 4.15113C15.3962 4.13302 15.5072 4.11467 15.6177 4.09587C16.4031 3.9615 17.8592 3.96838 19.9859 4.11651H19.9857ZM23.4768 6.44804C23.8097 6.70577 24.0241 6.92315 24.1202 7.09994C24.2112 7.26687 24.3 7.54753 24.3864 7.94239L24.4018 8.01324L26.6544 10.0299C26.7785 10.1412 26.8631 10.289 26.8952 10.4509L26.9023 10.4918L26.9243 10.644C26.9288 10.6754 26.9232 10.7074 26.9082 10.7353C26.8932 10.7632 26.8697 10.7856 26.8411 10.7992L26.8227 10.8066L26.704 10.846L26.5944 10.8316C24.3089 10.5291 22.9164 10.2716 22.4172 10.0588C21.9724 9.86943 21.8767 9.44247 22.131 8.77819C22.2023 8.59231 22.206 8.38733 22.1416 8.19898L22.1255 8.15587L22.0067 7.86144C21.9695 7.7692 21.9164 7.68416 21.8499 7.61013L21.8155 7.57413L21.4078 7.16941C21.2656 7.14075 21.1081 7.18547 20.966 7.15657C20.9332 7.15015 20.8561 7.12516 20.7348 7.08182C20.6987 7.06917 20.6657 7.04908 20.6379 7.02284C20.6101 6.9966 20.5881 6.96481 20.5733 6.92953C20.5586 6.89424 20.5514 6.85625 20.5523 6.81802C20.5532 6.77979 20.5621 6.74217 20.5784 6.7076C20.616 6.62902 20.6785 6.56512 20.7563 6.52591C20.8341 6.48669 20.9226 6.47439 21.0081 6.49091C21.1432 6.51683 21.2402 6.53953 21.2991 6.55902C21.3954 6.59066 21.5248 6.65807 21.6866 6.7608C22.1723 6.85596 22.5289 6.88348 22.7563 6.84381C22.9833 6.80414 23.2236 6.67206 23.4768 6.44804Z" fill="#110F23"/>
</svg>
