<svg width="32" height="32" viewBox="0 0 32 32" fill="none" xmlns="http://www.w3.org/2000/svg">
<path d="M15.9406 12.1866L15.2843 14.8155C16.0269 14.9993 18.3183 15.7569 18.6895 14.268C19.0758 12.7154 16.6832 12.3704 15.9406 12.1866Z" fill="#110F23"/>
<path d="M14.9543 16.1394L14.2305 19.0383C15.123 19.2596 17.8757 20.1446 18.2845 18.5095C18.7083 16.8032 15.8468 16.3644 14.9543 16.1394Z" fill="#110F23"/>
<path d="M18.8996 4.35986C12.4716 2.75476 5.96123 6.67001 4.35988 13.0979C2.75477 19.5258 6.67003 26.04 13.0942 27.6414C19.5259 29.2427 26.0363 25.3312 27.6376 18.9033C29.2427 12.4754 25.3312 5.96122 18.8996 4.35986ZM21.2922 14.2905C21.1197 15.4606 20.4709 16.0269 19.6121 16.2256C20.7934 16.8407 21.3935 17.782 20.8234 19.4208C20.1146 21.4497 18.4233 21.6222 16.1806 21.1984L15.6369 23.3811L14.3205 23.0511L14.8568 20.8984C14.5155 20.8122 14.1668 20.7222 13.8067 20.6247L13.2667 22.7886L11.9504 22.4585L12.4942 20.2721C12.1866 20.1934 11.8754 20.1109 11.5566 20.0284L9.84273 19.6008L10.4953 18.0932C10.4953 18.0932 11.4666 18.352 11.4516 18.3333C11.8229 18.427 11.9879 18.1833 12.0554 18.022L12.9179 14.5718V14.5605L13.533 12.0966C13.548 11.8153 13.4542 11.4628 12.9179 11.3316C12.9367 11.3166 11.9616 11.0953 11.9616 11.0953L12.3104 9.68896L14.1255 10.1427V10.1502C14.3955 10.2177 14.6768 10.2815 14.9656 10.349L15.5056 8.18511L16.8219 8.51513L16.2931 10.634C16.6457 10.7165 17.0019 10.7953 17.347 10.8815L17.872 8.7739L19.1883 9.10392L18.6483 11.2678C20.3097 11.8416 21.5247 12.7004 21.2885 14.2943L21.2922 14.2905Z" fill="#110F23"/>
</svg>
