<svg width="32" height="32" viewBox="0 0 32 32" fill="none" xmlns="http://www.w3.org/2000/svg">
<g clip-path="url(#clip0_14366_356)">
<path d="M15.65 28.9999C13.3086 26.9224 10.9791 24.8567 8.64949 22.7888C7.17615 21.4814 5.70927 20.1663 4.22623 18.8707C3.9796 18.6553 3.93759 18.4937 4.08622 18.1965C5.71896 14.9192 7.33339 11.6321 8.96398 8.35373C9.0706 8.1394 9.24185 7.93477 9.43032 7.78507C11.3819 6.23956 13.3485 4.71345 15.2957 3.16256C15.5746 2.94069 15.7588 2.95793 16.041 3.13779C17.6996 4.19864 19.3754 5.23472 21.0329 6.29772C21.244 6.43342 21.4432 6.6499 21.5509 6.875C23.4756 10.9041 25.3819 14.9418 27.3032 18.9719C27.44 19.2584 27.4389 19.4286 27.1697 19.6461C23.4163 22.6941 19.6726 25.7538 15.9257 28.8093C15.8439 28.8761 15.7513 28.9288 15.65 28.9978V28.9999ZM25.733 19.057L25.8374 18.9665C24.0873 15.2746 22.3372 11.5826 20.5752 7.86692C19.1051 8.64882 17.7071 9.40488 16.2941 10.134C15.9656 10.3042 15.8407 10.525 15.7965 10.8772C15.5714 12.6833 15.3215 14.4851 15.0835 16.2891C14.9586 17.2358 14.8401 18.1836 14.7152 19.1604C14.895 19.1378 15.0017 19.1324 15.1051 19.1098C17.2192 18.6477 19.3312 18.176 21.4486 17.7323C21.7265 17.6741 22.0571 17.6924 22.3242 17.7861C23.468 18.1868 24.5978 18.6294 25.733 19.057ZM13.3657 19.2681C13.7534 16.3462 14.139 13.4426 14.5267 10.5293C13.1072 10.1232 11.7631 9.75599 10.4319 9.34457C10.069 9.23256 9.92898 9.33057 9.7782 9.63967C8.42871 12.3957 7.06522 15.1464 5.70819 17.8992C5.65003 18.0166 5.6188 18.1469 5.57464 18.2719C5.60372 18.2988 5.6328 18.3257 5.66188 18.3537C6.98444 17.463 8.30593 16.5724 9.67157 15.6526C10.9058 16.861 12.1142 18.0435 13.3657 19.2681ZM11.0663 8.17063C12.3156 8.5282 13.4777 8.8793 14.6516 9.18302C14.8951 9.24656 15.2214 9.20779 15.4465 9.09363C16.6743 8.47112 17.8827 7.81091 19.0965 7.16148C19.2289 7.0904 19.3528 7.00316 19.5316 6.89223C18.3016 6.11894 17.1428 5.37688 15.9645 4.66821C15.8428 4.59497 15.5585 4.65636 15.4271 4.75653C14.4707 5.47812 13.5326 6.22448 12.5903 6.96439C12.1013 7.3478 11.6156 7.73552 11.0663 8.16956V8.17063ZM15.7157 27.2412C16.0722 27.0861 16.1358 26.8631 16.0528 26.5024C15.8611 25.6698 15.733 24.8233 15.5736 23.9843C15.2763 22.413 14.9747 20.8427 14.6646 19.2132C14.2305 19.308 13.8374 19.3941 13.4088 19.4878C13.4411 19.7032 13.4626 19.8755 13.4949 20.0457C13.831 21.8303 14.2176 23.6074 14.4847 25.4027C14.6107 26.246 15.0071 26.8039 15.7157 27.2423V27.2412Z" fill="#110F23"/>
</g>
<defs>
<clipPath id="clip0_14366_356">
<rect width="23.3926" height="26" fill="white" transform="translate(4 3)"/>
</clipPath>
</defs>
</svg>
