<svg width="32" height="32" viewBox="0 0 32 32" fill="none" xmlns="http://www.w3.org/2000/svg">
<g clip-path="url(#clip0_4_1111)">
<path d="M15.9997 29.295C15.7339 29.2948 15.4755 29.207 15.2647 29.045C15.2647 29.045 14.3422 28.35 11.7922 26.9525C7.88971 24.815 6.09471 22.25 5.59721 18.1C5.21221 14.8875 4.96221 8.17749 4.95221 7.89249C4.9451 7.72104 4.97469 7.55005 5.03901 7.39096C5.10332 7.23187 5.20088 7.08835 5.32514 6.97001C5.4494 6.85166 5.5975 6.76122 5.75954 6.70474C5.92157 6.64826 6.0938 6.62704 6.26471 6.64249C6.28971 6.64249 8.89971 6.86249 11.1447 6.23249C12.6233 5.80607 14.0072 5.10185 15.2222 4.15749C15.4401 3.97478 15.7154 3.87463 15.9997 3.87463C16.2841 3.87463 16.5593 3.97478 16.7772 4.15749C17.991 5.10781 19.3749 5.81798 20.8547 6.24999C23.1047 6.87999 25.7097 6.65999 25.7372 6.65999C25.908 6.6445 26.0801 6.66571 26.242 6.72222C26.404 6.77872 26.5519 6.8692 26.676 6.98759C26.8001 7.10598 26.8974 7.24953 26.9614 7.40862C27.0254 7.56772 27.0547 7.73866 27.0472 7.90999C27.0472 8.19499 26.7972 14.91 26.4022 18.1175C25.9022 22.2675 24.1097 24.8325 20.2097 26.9675C17.6597 28.365 16.7422 29.0575 16.7322 29.065C16.5196 29.2195 16.2624 29.3002 15.9997 29.295V29.295ZM7.41221 9.09749C7.49971 11.25 7.71721 15.53 7.99971 17.815C8.34971 20.735 9.27221 22.815 12.9572 24.8375C14.4572 25.655 15.4222 26.25 16.0097 26.6325C16.5972 26.25 17.5697 25.655 19.0622 24.8375C22.7497 22.82 23.6597 20.735 23.9997 17.815C24.2822 15.53 24.4997 11.25 24.5872 9.09749C23.1083 9.11143 21.634 8.93071 20.2022 8.55999C18.705 8.12873 17.2863 7.46115 15.9997 6.58249C14.7131 7.46115 13.2944 8.12873 11.7972 8.55999C10.3654 8.93071 8.89112 9.11143 7.41221 9.09749V9.09749Z" fill="#110F23"/>
</g>
<defs>
<clipPath id="clip0_4_1111">
<rect width="32" height="32" fill="white"/>
</clipPath>
</defs>
</svg>
