<svg width="32" height="32" viewBox="0 0 32 32" fill="none" xmlns="http://www.w3.org/2000/svg">
<path d="M27.6367 16.2587L28 15.8999H27.9958L27.6389 15.5348C26.1183 13.9764 23.9662 10.0751 26.7117 6.47218L26.9271 6.18846L25.8902 4.75313L25.5185 4.88039C24.9588 5.07024 24.378 5.17246 23.8374 5.17246C22.2703 5.17246 21.2418 5.02225 19.9789 4.19402L19.6832 4L19.3918 4.20028C18.2724 4.96801 17.1954 5.32476 15.9979 5.32476C14.8004 5.32476 13.7233 4.96801 12.604 4.20028L12.3126 4L12.0169 4.19402C10.7518 5.02017 9.72545 5.17246 8.1584 5.17246C7.61774 5.17246 7.03696 5.07232 6.4773 4.88039L6.1056 4.75313L5.06864 6.18846L5.28405 6.47218C8.02745 10.0751 5.87751 13.9743 4.35692 15.5348L4 15.8999L4.36325 16.2587C4.55966 16.4506 4.90602 16.8074 5.19113 17.1057V17.1516C5.19113 17.1829 5.19113 17.2079 5.18268 17.258V17.2914C5.03907 19.8908 5.72545 22.0292 7.21859 23.6502C8.80042 25.3693 11.2735 26.3957 14.1964 26.5542C14.9208 27.2051 15.6558 27.7455 15.6895 27.7705L16.0021 28L16.3147 27.7705C16.3464 27.7455 17.0792 27.2072 17.8015 26.5542C20.7244 26.3957 23.1975 25.3693 24.7793 23.6502C26.2724 22.0292 26.9567 19.8908 26.8173 17.2914V17.258C26.8089 17.2079 26.8068 17.1829 26.8068 17.1516V17.1057C27.094 16.8074 27.4403 16.4527 27.6367 16.2587ZM26.2936 17.3185C26.6061 23.1099 22.5216 25.8449 17.5861 26.0473C16.8321 26.7441 16 27.3554 16 27.3554C16 27.3554 15.1658 26.7441 14.4097 26.0473C9.47413 25.8449 5.38965 23.1099 5.70011 17.3185C5.71911 17.1662 5.70222 17.1766 5.72967 16.9159C5.44667 16.6196 4.97782 16.1377 4.73073 15.8936C6.50053 14.0786 8.56811 9.92698 5.70011 6.16342L6.30623 5.37065C6.87856 5.56676 7.51637 5.68985 8.1584 5.68985C9.80359 5.68985 10.925 5.52921 12.3062 4.62587C13.3981 5.37483 14.5808 5.84214 15.9979 5.84214C17.415 5.84214 18.5977 5.37274 19.6895 4.62587C21.0707 5.52921 22.1922 5.68985 23.8374 5.68985C24.4773 5.68985 25.1151 5.56676 25.6895 5.37065L26.2957 6.16342C23.4277 9.92698 25.4931 14.0807 27.265 15.8936C27.018 16.1377 26.5491 16.6196 26.2661 16.9159H26.264C26.2914 17.1766 26.2745 17.1662 26.2936 17.3185Z" fill="#110F23"/>
<path d="M25.4594 17.2204C25.4509 17.1725 25.4446 17.1307 25.4383 17.0431L25.4319 16.9722H6.56602L6.55969 17.0431C6.55335 17.1307 6.5449 17.1746 6.53857 17.2204C6.53223 17.2601 6.5259 17.3039 6.51745 17.3853C6.4034 19.6134 6.96518 21.4159 8.19221 22.7427C9.59876 24.2656 11.8754 25.1335 14.7814 25.2524H14.8913C15.3749 25.2566 15.8332 25.2587 16.264 25.2587C16.6019 25.2587 16.9208 25.2587 17.2228 25.2524C20.1246 25.1335 22.4034 24.2656 23.8078 22.7427C25.0328 21.4138 25.5966 19.6113 25.4805 17.3811C25.472 17.306 25.4657 17.2622 25.4594 17.2204ZM20.0866 24.6808V17.1266H22.811V23.4228C22.057 23.9757 21.1405 24.3971 20.0866 24.6808ZM9.18482 17.1266H11.9092V24.6787C10.8532 24.3929 9.93878 23.9694 9.18482 23.4166V17.1266ZM15.8395 19.5654C15.7698 19.6154 15.7086 19.6801 15.6558 19.7656C15.4382 20.1057 15.4066 20.6773 15.9113 21.0424C15.8796 21.3282 15.4953 21.6078 15.2292 21.5744C14.6568 21.5014 14.3865 20.9777 14.3781 20.3331C14.3717 19.8533 14.509 19.436 14.6167 18.9791C14.9525 18.7559 15.3474 18.6141 15.7719 18.5786C15.4868 18.8853 15.546 19.3338 15.8395 19.5654ZM16.0064 18.5661C17.3094 18.5765 18.3696 19.5841 18.4478 20.8547C18.2154 20.4145 17.7909 19.9951 17.3833 19.7719C16.9525 19.5341 16.3865 19.3171 15.9789 19.484C15.6706 19.2942 15.6178 18.8185 16.0064 18.5661ZM14.6505 21.4701C14.4879 21.7559 14.1901 21.9228 13.8247 21.9228C13.7804 21.9228 13.7381 21.9207 13.6959 21.9145C13.5797 21.6328 13.5164 21.3241 13.5164 21.0007C13.5164 20.2371 13.8712 19.557 14.4266 19.1106H14.4309C14.3844 19.29 14.34 19.4465 14.3041 19.605C14.1774 20.1787 14.1795 21.0445 14.6505 21.4701ZM13.8268 22.0688C14.2323 22.0688 14.5766 21.8853 14.7688 21.5598H14.7709C14.8913 21.6412 15.037 21.6933 15.2102 21.7163C15.5523 21.7601 16.0296 21.4242 16.0592 21.0424C16.5301 20.7128 16.8934 21.0111 17.0032 21.2698C17.2186 21.7809 16.7645 22.1481 16.1774 22.4944C15.7234 22.7615 14.9335 22.8887 14.4182 22.8846C14.1457 22.6634 13.9219 22.3839 13.7677 22.0688H13.8268ZM15.9852 20.9131C15.5671 20.6022 15.5924 20.1287 15.7783 19.8387C16.0655 19.3901 16.716 19.5695 17.3115 19.8971C17.7952 20.1641 18.2999 20.7211 18.4414 21.226C18.4182 21.4889 18.3506 21.7371 18.2492 21.9687C18.0824 21.4534 17.5375 21.3783 17.2038 21.4951C17.1996 21.4054 17.1785 21.3115 17.1362 21.2114C17.0053 20.9026 16.5534 20.525 15.9852 20.9131ZM16.2535 22.6175C16.6695 22.3734 17.1109 22.0668 17.1933 21.6579C17.4953 21.5077 18.0739 21.5786 18.1479 22.1794C17.7276 22.9305 16.9187 23.4395 15.9874 23.4395C15.4784 23.4395 15.0053 23.2872 14.6104 23.0243C15.132 23.0014 15.8226 22.87 16.2535 22.6175ZM17.3601 18.7976C16.961 18.5535 16.49 18.4096 15.9874 18.4096C15.4847 18.4096 15.0306 18.5473 14.6357 18.7851V17.1266H17.3601V18.7976ZM17.2207 25.0981C16.5386 25.1064 15.7572 25.1043 14.8955 25.0981H14.7878C14.7371 25.096 14.6864 25.0918 14.6357 25.0897V23.2225C15.0306 23.4583 15.4932 23.596 15.9874 23.596C16.4815 23.596 16.9588 23.4541 17.358 23.21V25.0897C17.3115 25.0918 17.2672 25.096 17.2207 25.0981Z" fill="#110F23"/>
<path d="M7.1911 13.6404H7.18899L7.14042 13.751H24.8553L24.8067 13.6425C24.038 11.8984 23.4614 9.24473 25.0855 6.49925L25.1721 6.35112L25.0031 6.38242C24.6103 6.45752 24.2196 6.49507 23.8374 6.49507C22.2555 6.49507 21.0792 6.34904 19.7423 5.60217L19.7022 5.57922L19.6621 5.60217C18.4878 6.30314 17.2883 6.64528 15.9957 6.64737C14.7054 6.64737 13.5079 6.30523 12.3337 5.60217L12.2935 5.57922L12.2534 5.60217C10.9166 6.34904 9.73809 6.49507 8.15837 6.49507C7.78878 6.49507 7.39807 6.45961 6.9968 6.38868L6.82996 6.35947L6.91655 6.50342C8.53851 9.24473 7.95984 11.8984 7.1911 13.6404ZM7.13408 6.56809C7.48677 6.62233 7.83313 6.64946 8.16048 6.64946C9.0665 6.64946 9.84369 6.60147 10.5934 6.42414V8.7482H7.96196C7.81623 8.03889 7.55224 7.30662 7.13408 6.56809ZM24.868 6.56392C23.3453 9.25724 23.8711 11.8504 24.6188 13.5945H23.4319V6.64528C23.5649 6.64737 23.7001 6.64946 23.8395 6.64946C24.1774 6.64946 24.5216 6.62025 24.868 6.56392ZM21.5628 6.45752C21.8669 6.52219 22.1774 6.56809 22.4984 6.5973V13.5945H21.5628V6.45752ZM20.6293 6.18423V13.5924H19.6937V5.76489C19.6937 5.76489 19.7022 5.76072 19.7064 5.75863C20.0211 5.93179 20.3252 6.07157 20.6293 6.18631V6.18423ZM16.0443 6.79966C16.3315 6.79966 16.6124 6.77672 16.8912 6.74125V13.5924H16.0464V6.80175H16.0443V6.79966ZM17.8247 6.55766C18.1394 6.47213 18.4519 6.36573 18.7603 6.2343V13.5924H17.8247V6.55766ZM8.03165 11.3143H10.5934V13.5945H7.38118C7.66206 12.9394 7.91127 12.1675 8.03165 11.3143ZM15.888 13.5945H13.1932V11.3143H15.888V13.5945ZM15.888 6.79966V8.74612H13.1932V6.21552C14.0612 6.59104 14.9503 6.78297 15.888 6.79966Z" fill="#110F23"/>
<path d="M13.7614 14.6815V14.1704H12.0085V16.5695H12.5365V15.5806H13.2524V15.0716H12.5365V14.6815H13.7614Z" fill="#110F23"/>
<path d="M15.8163 14.6502C16.0084 14.6502 16.1415 14.7295 16.2281 14.8922L16.2386 14.9131L16.7265 14.6899L16.7159 14.6669C16.5449 14.3164 16.2365 14.1329 15.8226 14.1329C15.1848 14.1329 14.7413 14.6419 14.7413 15.37C14.7413 16.0981 15.1595 16.6071 15.8057 16.6071C16.2281 16.6071 16.5322 16.4235 16.7096 16.0626L16.7202 16.0418L16.2767 15.7831L16.264 15.8039C16.1373 16.0125 16.0169 16.0897 15.8205 16.0897C15.4995 16.0897 15.2819 15.7997 15.2819 15.37C15.2819 14.9402 15.4868 14.6502 15.8163 14.6502Z" fill="#110F23"/>
<path d="M19.8902 14.8129H19.8881C19.8881 14.4102 19.5966 14.1682 19.1088 14.1682H17.9915V16.5674H19.0982C19.6431 16.5674 19.9704 16.2732 19.9704 15.783C19.9704 15.5556 19.8585 15.3678 19.6642 15.2656C19.8078 15.1634 19.8902 15.0006 19.8902 14.8129ZM18.509 14.6543L19.0876 14.6522C19.3242 14.6522 19.3537 14.7586 19.3537 14.8525C19.3537 14.984 19.2735 15.0486 19.1109 15.0486H18.509V14.6543ZM19.1151 16.0709H18.509V15.5139H19.1151C19.3284 15.5139 19.4298 15.6015 19.4298 15.7913C19.4298 15.9812 19.3221 16.0709 19.1151 16.0709Z" fill="#110F23"/>
</svg>
