<svg width="32" height="32" viewBox="0 0 32 32" fill="none" xmlns="http://www.w3.org/2000/svg">
<g clip-path="url(#clip0_14366_210)">
<path d="M6.8646 6.43237C4.49791 6.43237 2.57996 8.35099 2.57996 10.717C2.57996 13.083 4.49791 15.0017 6.8646 15.0017C9.23129 15.0017 11.1492 13.0837 11.1492 10.717C11.1492 8.35033 9.23129 6.43237 6.8646 6.43237ZM10.1939 10.744C10.1939 10.8019 10.1899 10.8591 10.1814 10.9164C10.161 11.0552 10.1176 11.1861 10.0504 11.3092C9.96294 11.4691 9.84253 11.6013 9.69976 11.7138C9.69844 11.7151 9.69647 11.7158 9.69252 11.7171V11.0796C9.68791 11.0835 9.68594 11.0881 9.68396 11.0927C9.6583 11.148 9.63462 11.2039 9.60764 11.2579C9.52934 11.4112 9.43065 11.5493 9.30695 11.6684C9.13457 11.8342 8.9306 11.9454 8.70426 12.0171C8.70163 12.0178 8.69834 12.0171 8.69439 12.0185V11.0585C8.68978 11.0631 8.68847 11.0684 8.68649 11.0736C8.61938 11.3052 8.49898 11.5046 8.32462 11.6697C8.06275 11.9185 7.74956 12.0461 7.38965 12.0606C7.25082 12.0665 7.11331 12.0507 6.97843 12.0152C6.72643 11.9487 6.50864 11.8244 6.32639 11.6382C6.16848 11.477 6.05794 11.2875 5.99543 11.0697C5.99412 11.0657 5.9928 11.0618 5.99149 11.0572C5.99083 11.0572 5.99017 11.0572 5.98885 11.0572V11.7059C5.98885 11.8198 5.98885 11.9336 5.98885 12.0474C5.98885 12.054 5.98688 12.0599 5.98556 12.0665H5.94543C5.94082 12.0658 5.93687 12.0645 5.93227 12.0639C5.85068 12.0606 5.76975 12.0487 5.69014 12.0297C5.37563 11.9553 5.11377 11.7948 4.90782 11.5454C4.79794 11.4131 4.71438 11.2651 4.64924 11.1065C4.64727 11.1013 4.64464 11.0967 4.64266 11.0921C4.64201 11.0921 4.64069 11.0921 4.64003 11.0921V11.929C4.6328 11.9257 4.62753 11.9237 4.62293 11.9211C4.58871 11.9013 4.5545 11.8829 4.52094 11.8625C4.32816 11.7434 4.16762 11.5914 4.04392 11.4006C3.96891 11.2855 3.91101 11.1618 3.86495 11.0328C3.86232 11.0263 3.86035 11.0197 3.85772 11.0138H3.85508V11.5414C3.84785 11.5362 3.84324 11.5335 3.83929 11.5303C3.78863 11.4921 3.74718 11.4447 3.71231 11.3927C3.65309 11.3052 3.61427 11.2085 3.58664 11.1065C3.56032 11.0085 3.54519 10.9091 3.53992 10.8078C3.53926 10.7933 3.53663 10.7789 3.53466 10.7644V10.6789C3.53597 10.6749 3.53729 10.671 3.53729 10.6677C3.53926 10.642 3.54124 10.617 3.54321 10.5913C3.54979 10.5005 3.56558 10.4111 3.58993 10.3236C3.61953 10.2176 3.66099 10.1176 3.72283 10.0255C3.75639 9.97549 3.79587 9.92944 3.84127 9.88996C3.84522 9.88667 3.84851 9.88141 3.85574 9.88206C3.85574 10.0584 3.85574 10.2347 3.85574 10.4111C3.85574 10.4111 3.85574 10.4124 3.8564 10.4124C3.8564 10.4124 3.85772 10.4124 3.85837 10.4124C3.86561 10.3946 3.87285 10.3769 3.88009 10.3591C3.93536 10.2235 4.00049 10.0933 4.08274 9.9722C4.22157 9.76889 4.39988 9.61098 4.62293 9.50505C4.62753 9.50242 4.6328 9.50045 4.6374 9.49847C4.63872 9.50045 4.63872 9.50045 4.63872 9.5011C4.63872 9.50176 4.63872 9.50308 4.63872 9.50439C4.63872 9.79258 4.63872 10.0801 4.63872 10.3683C4.63872 10.3696 4.63872 10.3703 4.63872 10.3716C4.63872 10.3729 4.63872 10.3736 4.63872 10.3749C4.63872 10.3749 4.63872 10.3755 4.63937 10.3762C4.63937 10.3762 4.64069 10.3762 4.64135 10.3762C4.64332 10.3709 4.64595 10.365 4.64793 10.3591C4.69991 10.2262 4.76307 10.0992 4.84334 9.9801C4.94467 9.83009 5.06705 9.70047 5.21707 9.59782C5.4263 9.45505 5.6579 9.37872 5.91121 9.3682C5.91648 9.3682 5.92108 9.36688 5.92635 9.36556H5.97569C5.97964 9.36688 5.98359 9.3682 5.98885 9.37017V10.3729C5.99083 10.369 5.99149 10.3683 5.99149 10.3676C5.9928 10.363 5.99412 10.3591 5.99543 10.3545C6.06189 10.1235 6.18229 9.92483 6.356 9.75903C6.60997 9.51755 6.91329 9.38925 7.26267 9.3682C7.26793 9.3682 7.27254 9.36622 7.27714 9.36556H7.40281C7.40742 9.36622 7.41137 9.3682 7.41597 9.3682C7.49887 9.3728 7.58046 9.38333 7.66139 9.40241C7.92194 9.46294 8.14828 9.58532 8.33909 9.7735C8.50556 9.93799 8.62136 10.1327 8.68649 10.3578C8.68781 10.3624 8.68913 10.3663 8.6911 10.3703C8.69242 10.3703 8.69307 10.3703 8.69439 10.3696V9.4057C8.70031 9.40767 8.70426 9.40833 8.70887 9.41031C8.77861 9.43268 8.84704 9.45965 8.91415 9.49124C9.13786 9.59585 9.32472 9.74587 9.46947 9.94654C9.55961 10.0716 9.62935 10.2078 9.68396 10.3512C9.68594 10.3565 9.68791 10.3611 9.68989 10.3663C9.6912 10.3663 9.69186 10.3663 9.69318 10.3657V9.67415C9.6991 9.67875 9.70239 9.68139 9.70633 9.68402C9.75371 9.72415 9.79911 9.76692 9.84188 9.81232C9.97478 9.95378 10.0741 10.1143 10.1327 10.2999C10.1735 10.4295 10.1939 10.5617 10.1939 10.6979C10.1939 10.7032 10.1952 10.7085 10.1959 10.7144V10.7269C10.1952 10.7328 10.1939 10.7387 10.1939 10.7447V10.744Z" fill="#110F23"/>
<path d="M16.6057 4.01587C13.6284 4.01587 10.9058 5.10282 8.81084 6.90037C9.38458 7.19382 9.88397 7.61163 10.2715 8.12023C12.0039 6.72404 14.2068 5.88777 16.6057 5.88777C22.1852 5.88777 26.708 10.4106 26.708 15.9901C26.708 21.5696 22.1852 26.0924 16.6057 26.0924C11.0262 26.0924 6.50337 21.5696 6.50337 15.9901C6.50337 15.6526 6.52048 15.3183 6.55272 14.9893C5.89344 14.942 5.27561 14.7452 4.73214 14.4327C4.66568 14.9426 4.63147 15.4618 4.63147 15.9894C4.63147 22.6026 9.99254 27.9637 16.6057 27.9637C23.2189 27.9637 28.5799 22.6026 28.5799 15.9894C28.5799 9.37628 23.2189 4.01587 16.6057 4.01587Z" fill="#110F23"/>
<path d="M18.9665 7.32327C16.0563 6.54359 13.0566 7.42197 10.8841 9.2511C11.0518 9.7097 11.1426 10.2045 11.1426 10.7203C11.1426 12.7804 9.68723 14.5003 7.74887 14.9089C7.39094 17.95 8.73187 21.0306 11.0222 22.9196C11.6197 23.4124 13.8061 25.0816 16.8149 24.9316C21.0739 24.7198 25.5329 20.9365 25.5217 15.9037C25.5132 11.9816 22.7925 8.34706 18.9665 7.32261V7.32327ZM15.0055 22.0471C14.9805 22.4827 14.7884 22.6202 14.3851 22.4663C11.9171 21.5227 10.3932 19.7785 9.90699 17.1618C9.29837 13.8858 11.2966 10.6828 14.3048 9.6393C14.8535 9.44914 15.0049 9.55902 15.0062 10.1834C15.043 10.5157 14.9068 10.7565 14.5351 10.9131C12.2138 11.8908 10.836 14.1095 11.1097 16.6078C11.3413 18.7231 12.4888 20.2469 14.4423 21.1326C14.9489 21.3622 15.0371 21.4892 15.0049 22.0465L15.0055 22.0471ZM17.2446 19.9265C17.2735 20.5463 17.0255 20.7338 16.4188 20.6187C16.1293 20.5641 15.9701 20.4075 15.9852 20.0989C15.9912 19.9792 15.976 19.8588 15.9879 19.7397C16.0102 19.5067 15.9379 19.3982 15.6845 19.333C14.8239 19.1113 14.2318 18.6014 14.0357 17.6895C13.9732 17.3973 14.0824 17.2585 14.339 17.1914C14.8568 17.0558 15.1529 17.2059 15.3536 17.7059C15.5806 18.2737 16.08 18.3764 16.5938 18.3915C17.0432 18.4047 17.4703 18.2889 17.7223 17.8539C17.9749 17.4184 17.8308 16.8986 17.3485 16.7374C16.8129 16.5584 16.2471 16.4709 15.6957 16.3387C14.6358 16.0847 14.191 15.5656 14.1357 14.6635C14.0712 13.6029 14.7923 12.9199 15.6556 12.7034C15.9398 12.6324 15.9938 12.5034 15.9787 12.2652C15.974 12.1988 15.9773 12.1323 15.9787 12.0659C15.9826 11.5342 16.0392 11.4796 16.5846 11.479C17.1735 11.479 17.2663 11.5507 17.2373 12.1494C17.2196 12.512 17.3222 12.6804 17.6867 12.7955C18.3085 12.9916 18.6901 13.4634 18.8829 14.0878C18.9816 14.4075 18.8618 14.5687 18.546 14.622C18.0387 14.7076 17.8282 14.6266 17.588 14.1634C17.2426 13.4963 16.0359 13.5068 15.622 13.9424C15.2595 14.324 15.401 14.9787 15.9188 15.1458C16.4182 15.307 16.9511 15.3603 17.465 15.4813C18.219 15.659 18.8862 15.9564 19.0809 16.815C19.3336 17.927 18.8178 18.9034 17.7196 19.2653C17.3413 19.3896 17.2281 19.5495 17.2459 19.9265H17.2446ZM18.9632 22.4663C18.3782 22.6761 18.2203 22.5617 18.2236 21.8879C18.169 21.5273 18.3842 21.3332 18.7322 21.1832C20.7219 20.3239 21.8707 18.7797 22.1148 16.6578C22.3984 14.1891 21.0456 11.9744 18.8217 10.996C18.2802 10.7578 18.2026 10.648 18.2243 10.0643C18.242 9.59061 18.4111 9.46954 18.8599 9.6314C20.8259 10.3387 22.1977 11.6744 22.9662 13.6075C24.3683 17.1335 22.5273 21.1859 18.9632 22.4663Z" fill="#110F23"/>
</g>
<defs>
<clipPath id="clip0_14366_210">
<rect width="26" height="23.9485" fill="white" transform="translate(2.57996 4.01587)"/>
</clipPath>
</defs>
</svg>
