<svg width="32" height="32" viewBox="0 0 32 32" fill="none" xmlns="http://www.w3.org/2000/svg">
<path d="M16 3C8.8214 3 3 8.8214 3 16C3 23.1786 8.8214 29 16 29C23.1786 29 29 23.1786 29 16C29 8.8214 23.1786 3 16 3ZM10.0226 8.2728C11.489 7.1002 13.2648 6.3748 15.168 6.1694C18.2568 5.8366 21.6108 7.2146 23.6336 9.6456C23.9924 10.0772 24.0262 10.059 22.8744 10.059C21.7226 10.059 21.7876 10.0954 21.239 9.4818C20.4876 8.642 20.3888 8.642 19.5698 9.4818C19.185 9.877 19.0342 10.0096 18.9302 10.0408C18.6728 10.1162 8.395 10.0746 8.382 9.9992C8.356 9.8562 9.3492 8.811 10.0226 8.2728ZM22.8588 23.1188C19.0836 26.7068 13.27 26.7172 9.4064 23.1422C9.019 22.7834 8.9904 22.7106 9.2244 22.6482C9.4974 22.5754 9.6664 22.4454 10.0356 22.0242C10.2332 21.798 10.4464 21.5822 10.5088 21.5432C10.8234 21.3508 11.021 21.447 11.567 22.058C11.8036 22.3232 12.0506 22.5676 12.1156 22.604C12.2274 22.6638 12.5628 22.669 17.69 22.6872C22.6508 22.7028 23.1474 22.7106 23.1578 22.7652C23.1656 22.8016 23.0434 22.9446 22.8588 23.1188ZM24.9362 20.2146C24.8192 20.3004 14.986 20.277 14.7962 20.1912C14.6922 20.1444 14.5076 19.9676 14.2008 19.6244C13.491 18.8314 13.4078 18.834 12.5862 19.653C12.295 19.9442 12.009 20.199 11.9518 20.2198C11.8374 20.2614 7.4382 20.277 7.329 20.2354C7.1392 20.1626 6.4242 17.9942 6.5438 17.8512C6.5802 17.807 7.0612 17.7966 9.851 17.7888L13.1166 17.7784L13.3064 17.677C13.4416 17.6042 13.608 17.4508 13.8914 17.131C14.1098 16.8866 14.3282 16.663 14.3776 16.637C14.6818 16.4706 14.8794 16.572 15.4176 17.1726C16.0494 17.8772 15.3214 17.7966 20.901 17.7966C25.0454 17.7966 25.6538 17.8044 25.6928 17.8512C25.8098 17.9916 25.1468 20.0586 24.9362 20.2146ZM25.841 15.0978C25.763 15.1914 18.5194 15.1758 18.314 15.0822C18.2126 15.0354 18.028 14.8612 17.729 14.5258C17.0166 13.7276 16.884 13.7276 16.1352 14.5258C15.467 15.2382 16.169 15.1524 10.9248 15.1524C7.082 15.1524 6.4372 15.1446 6.3982 15.1004C6.289 14.9678 6.7154 12.9086 6.8844 12.7682C6.9182 12.7396 8.2962 12.724 11.7464 12.7162L16.559 12.7058L16.7696 12.6018C16.9386 12.5186 17.0556 12.412 17.3546 12.0714C17.56 11.8374 17.7784 11.6138 17.8382 11.5774C18.1502 11.385 18.3426 11.4812 18.9016 12.1026C19.5178 12.7864 19.12 12.7188 22.5104 12.7214C25.1338 12.7214 25.3184 12.7266 25.373 12.7864C25.5524 12.9892 25.9502 14.96 25.841 15.0952V15.0978Z" fill="#110F23"/>
</svg>
