<svg width="32" height="32" viewBox="0 0 32 32" fill="none" xmlns="http://www.w3.org/2000/svg">
<path d="M23.5934 15.0159C23.5934 16.1252 23.3388 17.1435 22.8296 18.0709C22.3205 18.9802 21.5385 19.7167 20.4838 20.2804C19.4291 20.8442 18.1198 21.1261 16.5558 21.1261H13.6644V28H9V8.85118H16.5558C18.0834 8.85118 19.3745 9.11486 20.4292 9.64223C21.4839 10.1696 22.275 10.897 22.8024 11.8244C23.3297 12.7519 23.5934 13.8157 23.5934 15.0159ZM16.2012 17.4163C17.0923 17.4163 17.7561 17.2072 18.1925 16.7889C18.6289 16.3707 18.8471 15.7796 18.8471 15.0159C18.8471 14.2521 18.6289 13.6611 18.1925 13.2429C17.7561 12.8246 17.0923 12.6155 16.2012 12.6155H13.6644V17.4163H16.2012Z" fill="#110F23"/>
<path d="M23.5935 4H9V7.08171H23.5935V4Z" fill="#110F23"/>
</svg>
