<svg width="32" height="32" viewBox="0 0 32 32" fill="none" xmlns="http://www.w3.org/2000/svg">
<path fill-rule="evenodd" clip-rule="evenodd" d="M5 23.8575L5.38228 24.3482L7.44461 27H24.5554L27 23.8575L20.8888 16L26.6177 8.63405L27 8.14329L24.5554 5H7.44461L7.05475 5.50062L5 8.14253L11.1112 16L5 23.8575ZM12.3695 22.2858C11.8575 22.2858 11.5693 21.6972 11.8841 21.2929L13.5558 19.1433L16.0004 22.2858H12.3695ZM20.4997 15.4994L25.8395 8.63405H15.9458C15.6257 8.63405 15.4459 9.00193 15.6424 9.25452L15.9996 9.71418H19.6305C20.1425 9.71418 20.4307 10.3035 20.1159 10.7071L18.4442 12.8567L20.499 15.4986L20.4997 15.4994ZM5.77897 8.14253L17.8139 23.617L17.9004 23.7278C18.0968 23.9803 17.9171 24.3482 17.597 24.3482H6.16125L7.84206 26.5092H23.3941L7.44461 6.002L5.77897 8.14253Z" fill="#110F23"/>
</svg>
