<svg width="32" height="32" viewBox="0 0 32 32" fill="none" xmlns="http://www.w3.org/2000/svg">
<path d="M23.0992 9.90592C22.3629 10.9282 21.628 11.9505 20.8904 12.9755C22.1497 13.0735 23.368 12.6683 24.7413 12.7292C24.1056 13.6429 23.5203 14.4984 22.9204 15.3459C22.3854 16.1007 21.7578 16.8039 21.9193 17.846C21.9763 18.2142 22.0041 18.4883 22.4834 18.5426C22.9456 18.5942 23.3905 18.7929 23.8474 18.9081C24.1957 18.9955 24.3718 19.1266 24.1454 19.5053C23.7627 20.1462 23.5428 20.8931 22.8648 21.4281C22.5271 21.0666 22.1908 20.6931 21.8372 20.3343C21.1751 19.6602 20.7209 19.651 20.0363 20.3488C19.4059 20.9924 19.1543 21.8624 18.7676 22.649C18.3796 23.4383 18.0274 24.2434 17.642 25.0777C17.1084 23.8872 16.5853 22.7192 16.0066 21.4254C15.4385 22.6874 14.9115 23.8594 14.3712 25.0605C13.7183 23.6806 13.0801 22.3339 12.4444 20.9858C12.2643 20.6031 11.9995 20.3065 11.6353 20.0813C11.103 19.7516 10.6541 19.7092 10.2197 20.2641C9.89793 20.6759 9.49801 21.0282 9.1259 21.4148C8.41479 20.8322 8.14729 20.0204 7.77783 19.2815C7.61892 18.9637 7.98441 18.9703 8.13935 18.9173C8.60548 18.7611 9.08088 18.6008 9.56555 18.5346C10.0118 18.4737 10.0343 18.2102 10.0913 17.8685C10.2634 16.825 9.63441 16.1166 9.10206 15.3604C8.51013 14.5196 7.9182 13.6773 7.26006 12.7398C8.61872 12.6431 9.85026 13.0708 11.1228 12.9821C10.3905 11.9638 9.65559 10.9415 8.83722 9.80263C9.71121 9.88871 10.4475 10.0185 11.1824 10.0198C12.2882 10.0198 13.4018 10.5323 14.5049 9.93903C15.0532 9.64372 15.3379 9.30472 15.085 8.66776C14.975 8.391 14.9459 8.0798 14.8188 7.81363C14.5129 7.16873 14.8956 7.01512 15.4041 6.93699C15.5325 6.91713 15.6663 6.92772 15.7987 6.9264C17.3931 6.9105 17.4169 6.94891 17.0528 8.41616C16.9667 8.76311 16.6131 9.11403 16.9336 9.48614C17.2991 9.90989 17.7904 10.1959 18.3439 10.2025C19.1464 10.2131 19.9648 10.1986 20.7487 10.0503C21.4982 9.90857 22.2636 10.0595 22.9853 9.73377C23.0237 9.79204 23.0621 9.84898 23.1005 9.90725L23.0992 9.90592ZM14.8108 16.592C14.4718 17.0766 14.1752 17.5454 13.8296 17.9758C13.6826 18.1585 13.676 18.1996 13.8812 18.3148C14.6493 18.7465 15.1326 19.4219 15.4849 20.2164C15.6438 20.5739 15.7034 20.9898 15.9973 21.2824C16.0543 21.2467 16.0808 21.24 16.0874 21.2255C16.5986 20.0853 17.0011 18.8683 18.2353 18.2459C18.4869 18.1188 18.2035 18.0685 18.1704 17.9877C17.9493 17.4607 17.4024 17.1349 17.2501 16.5708C17.7626 16.4357 18.2221 16.6291 18.6935 16.6688C18.9861 16.6926 19.1517 16.6648 19.1821 16.2728C19.2457 15.4505 19.5264 14.7049 20.0945 14.0574C20.317 13.8031 20.6547 13.5608 20.6666 13.1397C20.362 13.1397 20.0469 13.0828 19.7635 13.1503C18.8153 13.3781 17.8963 13.2986 17.0872 12.7835C16.7323 12.557 16.7402 12.7994 16.6859 12.9411C16.4926 13.4522 16.3271 13.9726 16.0053 14.5063C15.6769 13.9965 15.5219 13.4919 15.3432 13.0007C15.2492 12.7424 15.2227 12.565 14.8625 12.8166C14.3871 13.149 13.8031 13.2271 13.2085 13.2589C12.5782 13.292 11.977 12.9795 11.34 13.1476C11.3572 13.3251 11.4367 13.4681 11.5559 13.6019C12.2657 14.4043 12.8285 15.2797 12.8417 16.4013C12.8457 16.7244 13.0628 16.6608 13.2509 16.6661C13.7488 16.6781 14.2242 16.4079 14.8122 16.592H14.8108Z" fill="#110F23"/>
<path d="M16 29C8.83192 29 3 23.1681 3 16C3 8.83192 8.83192 3 16 3C23.1681 3 29 8.83192 29 16C29 23.1681 23.1681 29 16 29ZM16 4.58908C9.70857 4.58908 4.58908 9.70857 4.58908 16C4.58908 22.2914 9.70857 27.4109 16 27.4109C22.2914 27.4109 27.4109 22.2914 27.4109 16C27.4109 9.70857 22.2914 4.58908 16 4.58908Z" fill="#110F23"/>
</svg>
