<svg width="32" height="32" viewBox="0 0 32 32" fill="none" xmlns="http://www.w3.org/2000/svg">
<path d="M27.3748 20.25L19.4773 6.54501C18.6473 5.14001 17.3423 4.42751 15.9973 4.42751C15.2739 4.45288 14.5698 4.66784 13.9556 5.05086C13.3413 5.43389 12.8385 5.97154 12.4973 6.61001C12.4273 6.75001 4.62483 20.25 4.62483 20.25C4.36941 20.6932 4.20379 21.1824 4.13742 21.6896C4.07105 22.1968 4.10523 22.7122 4.23802 23.2062C4.37081 23.7002 4.5996 24.1632 4.91133 24.5688C5.22306 24.9744 5.61162 25.3146 6.05483 25.57C6.49804 25.8254 6.98722 25.9911 7.49444 26.0574C8.00166 26.1238 8.51698 26.0896 9.01099 25.9568C9.505 25.824 9.96802 25.5952 10.3736 25.2835C10.7792 24.9718 11.1194 24.5832 11.3748 24.14L15.9998 16.095L20.6373 24.1275C20.8801 24.592 21.2143 25.0026 21.6197 25.3347C22.0252 25.6669 22.4936 25.9136 22.9968 26.0602C23.5 26.2068 24.0276 26.2502 24.548 26.1878C25.0684 26.1253 25.5708 25.9584 26.0251 25.697C26.4794 25.4355 26.8761 25.085 27.1915 24.6664C27.5069 24.2478 27.7345 23.7698 27.8605 23.2611C27.9866 22.7523 28.0086 22.2234 27.9251 21.706C27.8416 21.1885 27.6545 20.6933 27.3748 20.25ZM12.8198 7.46501C13.0698 6.62751 14.1873 5.02251 15.9998 5.02251C17.9048 5.02251 18.9748 6.77251 19.1798 7.46501C19.298 7.88221 19.3298 8.31918 19.273 8.74908C19.2163 9.17899 19.0723 9.59276 18.8498 9.96501L15.9998 14.9025L13.1498 9.96501C12.9263 9.59321 12.7816 9.17941 12.7249 8.74932C12.6681 8.31923 12.7004 7.88207 12.8198 7.46501V7.46501Z" fill="#110F23"/>
</svg>
