<svg width="32" height="32" viewBox="0 0 32 32" fill="none" xmlns="http://www.w3.org/2000/svg">
<path d="M25.2952 8.51456C24.463 8.67907 23.6694 8.91133 23.0162 9.05649C21.5259 9.39036 20.1323 10.5323 19.8275 12.6226C19.5565 14.4903 20.1855 15.2936 19.9097 17.4661C19.4259 21.2597 15.7872 22.5661 14.0888 23.3597C13.1065 23.8145 10.721 24.8597 8.88232 25.6581C10.8759 27.129 13.3339 28 16.0001 28C22.6291 28 28 22.629 28 16C28 13.1742 27.0226 10.5758 25.3871 8.52907C25.3581 8.52423 25.3291 8.5194 25.2952 8.51456Z" fill="#110F23"/>
<path d="M14.65 14.2387C15.5742 12.2403 15.2403 12.2355 15.9419 10.358C16.8274 7.97741 19.5806 8.65483 20.3403 8.75644C21.5935 8.9258 21.9226 8.48064 24.5645 8.05483C24.6951 8.03548 24.8209 8.01612 24.9468 8.0016C22.75 5.54838 19.5564 4 16 4C11.2242 4 7.10161 6.78709 5.17097 10.8274C9.12903 11.8097 13.4016 13.9435 14.65 14.2387ZM12.0274 6.09032C12.3758 6.14354 14.0693 8.24838 14.3887 13.6532C14.3887 13.6532 12.2113 13.1306 11.7419 12.008C11.3548 11.0839 11.8581 9.86934 12.0274 6.09032ZM25.3677 8.50483C25.3726 8.51451 25.3822 8.5194 25.3871 8.52907C25.358 8.52423 25.3242 8.52418 25.2951 8.51935C25.3193 8.50967 25.3435 8.50967 25.3677 8.50483ZM4 16C4 15.0419 4.11129 14.1129 4.32419 13.2226C4.75968 13.5855 5.22419 13.9871 5.71774 14.4468C8.84354 17.3451 13.929 19.6338 15.7822 17.5048C15.7871 17.5096 15.7919 17.5096 15.7919 17.5145C15.4532 17.9596 14.1613 19.3677 11.6935 18.9322L7.79354 24.7532C5.46129 22.5661 4 19.4548 4 16Z" fill="#110F23"/>
</svg>
