<svg width="32" height="32" viewBox="0 0 32 32" fill="none" xmlns="http://www.w3.org/2000/svg">
<path d="M29.3346 14C29.4323 13.9362 29.5078 13.8437 29.5509 13.7353C29.5939 13.6268 29.6023 13.5077 29.5749 13.3943C29.5475 13.2808 29.4856 13.1787 29.3979 13.1018C29.3101 13.0249 29.2006 12.9772 29.0846 12.965C28.6426 11.4738 27.8989 10.0893 26.8996 8.89749C27 8.78044 27.0646 8.63693 27.0856 8.48414C27.1065 8.33135 27.0831 8.17574 27.0179 8.03595C26.9528 7.89616 26.8487 7.77811 26.7182 7.69591C26.5877 7.61372 26.4363 7.57087 26.2821 7.57249C26.1006 7.57103 25.9241 7.63193 25.7821 7.74499C24.1659 6.27959 22.1758 5.28977 20.0321 4.88499C19.3617 4.54438 18.6591 4.27136 17.9346 4.06999C17.9442 4.00958 17.9501 3.94863 17.9521 3.88749C17.9559 3.55081 17.8323 3.22513 17.6062 2.97569C17.38 2.72626 17.0679 2.57149 16.7325 2.54241C16.397 2.51332 16.063 2.61206 15.7973 2.81884C15.5316 3.02563 15.3538 3.32518 15.2996 3.65749C15.1546 3.65749 15.0071 3.65749 14.8596 3.65749C12.5737 3.65635 10.3403 4.34275 8.44958 5.62749C8.35007 5.48573 8.20786 5.37947 8.04371 5.32423C7.87955 5.26898 7.70204 5.26764 7.53707 5.3204C7.3721 5.37316 7.2283 5.47725 7.12666 5.6175C7.02503 5.75774 6.97086 5.92679 6.97208 6.09999C6.97187 6.29513 7.043 6.48363 7.17208 6.62999C5.98961 7.69713 5.03837 8.99526 4.37706 10.4443C3.71576 11.8933 3.35841 13.4625 3.32708 15.055C3.07252 15.1412 2.8494 15.3012 2.68619 15.5147C2.52298 15.7282 2.42708 15.9855 2.41071 16.2537C2.39435 16.522 2.45827 16.789 2.59432 17.0208C2.73037 17.2525 2.93238 17.4385 3.17458 17.555C3.18281 20.3086 4.17499 22.9686 5.97208 25.055C5.89199 25.1308 5.83667 25.2291 5.81337 25.3369C5.79006 25.4447 5.79985 25.557 5.84147 25.6591C5.88308 25.7613 5.95457 25.8485 6.04657 25.9093C6.13857 25.9701 6.2468 26.0017 6.35708 26C6.49028 25.9995 6.61857 25.9497 6.71708 25.86C8.67583 27.763 11.2432 28.9139 13.9671 29.11C16.4393 29.7381 19.0496 29.5343 21.3944 28.5302C23.7393 27.5261 25.6881 25.7776 26.9396 23.555C27.1585 23.6296 27.3963 23.6273 27.6138 23.5486C27.8313 23.47 28.0155 23.3195 28.1361 23.1221C28.2566 22.9247 28.3063 22.6921 28.277 22.4627C28.2476 22.2333 28.1409 22.0207 27.9746 21.86C29.3803 19.4968 29.8646 16.6981 29.3346 14ZM29.2921 16.1375C29.2928 18.0913 28.7696 20.0096 27.7771 21.6925C28.2846 20.25 28.4994 18.7208 28.4088 17.1944C28.3182 15.6679 27.9241 14.1748 27.2496 12.8025C26.8083 11.1975 26.0287 9.70539 24.9633 8.42647C23.8978 7.14756 22.571 6.11137 21.0721 5.38749C22.7573 5.87742 24.3089 6.7443 25.6096 7.92249C25.504 8.07579 25.4546 8.26086 25.4697 8.4464C25.4849 8.63193 25.5637 8.80653 25.6928 8.94063C25.8219 9.07474 25.9934 9.16012 26.1782 9.18233C26.3631 9.20453 26.5499 9.1622 26.7071 9.06249C27.6747 10.2172 28.3969 11.5569 28.8296 13C28.7194 13.0386 28.6239 13.1106 28.5567 13.2061C28.4895 13.3016 28.4538 13.4157 28.4546 13.5325C28.4546 13.683 28.5144 13.8273 28.6208 13.9338C28.7272 14.0402 28.8716 14.1 29.0221 14.1C29.0462 14.1013 29.0704 14.1013 29.0946 14.1C29.2242 14.7706 29.2903 15.452 29.2921 16.135V16.1375ZM17.2121 28.62C17.18 28.4817 17.0984 28.36 16.9827 28.2779C16.867 28.1958 16.7252 28.1589 16.5841 28.1743C16.443 28.1897 16.3125 28.2563 16.2172 28.3615C16.1219 28.4666 16.0685 28.6031 16.0671 28.745C16.066 28.7658 16.066 28.7867 16.0671 28.8075C15.6461 28.8535 15.223 28.8769 14.7996 28.8775C14.5296 28.8775 14.2621 28.865 13.9996 28.8475C11.2848 28.1449 8.92488 26.465 7.37208 24.13C8.30511 24.9345 9.36099 25.5844 10.4996 26.055C12.2158 27.0297 14.1559 27.5415 16.1296 27.54C16.2646 27.54 16.3971 27.54 16.5296 27.54C17.9044 27.6826 19.2935 27.5844 20.6346 27.25V27.25C19.5757 27.8895 18.4197 28.3522 17.2121 28.62V28.62ZM16.2796 29.1875C15.9896 29.1875 15.7046 29.1475 15.4221 29.1125C15.6721 29.1125 15.9221 29.075 16.1546 29.0475C16.188 29.1009 16.2303 29.1482 16.2796 29.1875V29.1875ZM3.82708 17.6875C4.14331 17.6727 4.44424 17.547 4.67708 17.3325C4.81069 18.4386 5.10285 19.5197 5.54458 20.5425C5.57458 20.6725 5.60708 20.7925 5.64208 20.93C5.5881 20.8516 5.51558 20.7877 5.43096 20.7441C5.34635 20.7005 5.25226 20.6785 5.15708 20.68C5.08169 20.6798 5.00699 20.6943 4.93708 20.7225C4.42374 19.7683 4.04993 18.7454 3.82708 17.685V17.6875ZM27.4096 15.9025C27.4107 18.2666 26.6759 20.5725 25.3071 22.5C26.056 20.9398 26.4431 19.2306 26.4396 17.5C26.4396 17.3225 26.4396 17.1475 26.4246 16.97C26.6098 16.9348 26.7766 16.8352 26.8953 16.6887C27.0141 16.5423 27.0771 16.3585 27.0732 16.17C27.0693 15.9815 26.9987 15.8005 26.8741 15.6591C26.7494 15.5176 26.5786 15.425 26.3921 15.3975C26.3921 15.355 26.3921 15.31 26.3921 15.265C26.3931 13.5795 26.0289 11.9138 25.3246 10.3825C25.9937 11.137 26.5588 11.9778 27.0046 12.8825C27.2732 13.8658 27.4094 14.8806 27.4096 15.9V15.9025ZM5.78208 20.46C5.23304 18.1301 5.44147 15.6858 6.37708 13.4825C5.94857 15.2376 5.95052 17.0702 6.38275 18.8244C6.81499 20.5786 7.66471 22.2024 8.85958 23.5575C8.74723 23.6997 8.68721 23.8763 8.68958 24.0575C8.6912 24.1622 8.71345 24.2656 8.75504 24.3617C8.79663 24.4579 8.85675 24.5449 8.93197 24.6178C9.00719 24.6907 9.09603 24.748 9.19342 24.7866C9.29081 24.8251 9.39484 24.8441 9.49958 24.8425C9.67571 24.8417 9.84647 24.7818 9.98458 24.6725C10.8073 25.3927 11.7261 25.9951 12.7146 26.4625C11.9956 26.3208 11.2922 26.109 10.6146 25.83C8.46566 24.6094 6.77015 22.7253 5.78208 20.46V20.46ZM8.78208 24.875C8.09949 24.4356 7.46662 23.9235 6.89458 23.3475C6.61743 22.8509 6.37921 22.3335 6.18208 21.8C6.86447 22.9683 7.74513 24.0089 8.78458 24.875H8.78208ZM4.84458 15.525C4.91416 13.3233 5.62012 11.1889 6.87708 9.37999C8.04008 8.24869 9.43103 7.37849 10.9571 6.82749C9.11378 8.11587 7.68562 9.91323 6.84708 12C5.56902 14.1421 5.02645 16.6434 5.30208 19.1225C5.10331 18.4498 4.9669 17.7602 4.89458 17.0625C5.04634 16.8307 5.12297 16.5578 5.11402 16.2808C5.10508 16.0039 5.01099 15.7365 4.84458 15.515V15.525ZM16.6121 5.22499C16.9122 5.22356 17.2031 5.12046 17.4371 4.93249C17.5571 4.93249 17.6871 4.93249 17.7996 4.93249C18.3921 4.93297 18.9838 4.9781 19.5696 5.06749C19.8446 5.15499 20.1121 5.25499 20.3771 5.36499C20.7781 5.59065 21.1647 5.84113 21.5346 6.11499C21.4009 6.05856 21.2572 6.02965 21.1121 6.02999C20.8819 6.02983 20.6575 6.10221 20.4708 6.23684C20.2841 6.37148 20.1446 6.56153 20.0721 6.77999C19.4382 6.59696 18.7901 6.46734 18.1346 6.39249C16.3606 5.85968 14.4843 5.76192 12.6646 6.10749C13.717 5.59251 14.8415 5.24017 15.9996 5.06249C16.1875 5.16559 16.3977 5.22136 16.6121 5.22499V5.22499ZM14.8621 26.6725C14.4771 26.6725 14.0946 26.6525 13.7196 26.615C12.4107 26.1316 11.2004 25.415 10.1471 24.5C10.2291 24.3809 10.2773 24.2418 10.2863 24.0974C10.2954 23.9531 10.2651 23.809 10.1986 23.6806C10.132 23.5522 10.0319 23.4443 9.90873 23.3685C9.78561 23.2926 9.64418 23.2516 9.49958 23.25C9.34036 23.2499 9.18467 23.2969 9.05208 23.385C7.71917 21.8707 6.83015 20.0179 6.48299 18.0307C6.13584 16.0435 6.34401 13.999 7.08458 12.1225C7.89879 10.7532 8.99052 9.56955 10.2896 8.64749C10.3636 8.74388 10.466 8.81458 10.5824 8.84962C10.6988 8.88465 10.8232 8.88224 10.9381 8.84274C11.0531 8.80323 11.1527 8.72862 11.2229 8.62944C11.2932 8.53026 11.3305 8.41152 11.3296 8.28999C11.3284 8.20294 11.307 8.11736 11.2671 8.03999C12.964 7.08111 14.8804 6.57811 16.8296 6.57999C17.2472 6.58071 17.6645 6.60407 18.0796 6.64999C18.7646 6.85657 19.4284 7.12779 20.0621 7.45999C20.1314 7.68299 20.2702 7.878 20.4582 8.01652C20.6462 8.15505 20.8735 8.22985 21.1071 8.22999C21.1726 8.22972 21.2379 8.22302 21.3021 8.20999C23.7573 9.91649 25.4421 12.5209 25.9921 15.46C25.8364 15.516 25.7022 15.6192 25.6082 15.7553C25.5142 15.8914 25.4651 16.0535 25.4679 16.2189C25.4706 16.3843 25.5251 16.5447 25.6236 16.6776C25.722 16.8105 25.8596 16.9092 26.0171 16.96C25.628 19.6469 24.2876 22.105 22.2396 23.8874C20.1916 25.6698 17.572 26.658 14.8571 26.6725H14.8621ZM19.4621 6.87999C19.6521 6.92499 19.8396 6.97499 20.0271 7.02999C20.0271 7.05999 20.0271 7.08999 20.0271 7.12249C20.0271 7.15499 20.0271 7.13499 20.0271 7.14249C19.8321 7.04999 19.6471 6.96249 19.4571 6.87999H19.4621ZM21.6046 8.10249C21.7479 8.0311 21.8734 7.92861 21.9721 7.80249C22.9918 8.31972 23.9281 8.98716 24.7496 9.78249C25.6106 11.3523 26.0893 13.103 26.1471 14.8925C25.5025 12.1536 23.8869 9.74119 21.5996 8.10249H21.6046ZM22.1046 7.60249C22.1938 7.42172 22.2299 7.21933 22.2087 7.01885C22.1874 6.81838 22.1097 6.62805 21.9846 6.46999C22.8828 7.20956 23.6627 8.08215 24.2971 9.05749C23.6232 8.48691 22.8869 7.9946 22.1021 7.58999L22.1046 7.60249ZM14.8071 6.15749C15.4489 6.15895 16.0895 6.21415 16.7221 6.32249C14.7522 6.33462 12.8183 6.85102 11.1046 7.82249C11.0029 7.74165 10.8769 7.69759 10.7471 7.69749C10.5926 7.69749 10.4444 7.75886 10.3352 7.8681C10.2259 7.97734 10.1646 8.1255 10.1646 8.27999C10.1656 8.32286 10.1706 8.36555 10.1796 8.40749C9.26457 9.05305 8.44633 9.82583 7.74958 10.7025C8.73081 8.98936 10.139 7.5596 11.8371 6.55249C12.8054 6.29088 13.804 6.15806 14.8071 6.15749V6.15749ZM13.6521 26.86C14.0071 26.99 14.3696 27.11 14.7371 27.2025C13.9507 27.1047 13.1771 26.9228 12.4296 26.66C12.8332 26.7485 13.2413 26.8153 13.6521 26.86V26.86ZM14.6521 26.9175H14.8596C16.7347 26.919 18.5812 26.457 20.2346 25.5725C20.1439 25.7586 20.0969 25.963 20.0971 26.17C20.0969 26.2934 20.1137 26.4162 20.1471 26.535C18.9943 26.9855 17.7739 27.239 16.5371 27.285C15.8989 27.2146 15.2676 27.0916 14.6496 26.9175H14.6521ZM20.2371 26.775C20.2855 26.8745 20.346 26.9677 20.4171 27.0525C19.7052 27.2156 18.9794 27.3111 18.2496 27.3375C18.9271 27.2113 19.5916 27.023 20.2346 26.775H20.2371ZM22.6396 25.5C22.9346 25.295 23.2196 25.0775 23.4946 24.8475C23.2515 25.1356 22.9936 25.411 22.7221 25.6725C22.6989 25.6126 22.6704 25.5549 22.6371 25.5H22.6396ZM22.4971 25.295C22.3709 25.1456 22.2141 25.0252 22.0372 24.9419C21.8603 24.8587 21.6676 24.8145 21.4721 24.8125C23.9352 23.0686 25.6263 20.4375 26.1896 17.4725C26.1896 17.4875 26.1896 17.5025 26.1896 17.5175C26.1908 19.6985 25.5595 21.8331 24.3721 23.6625C23.8096 24.2736 23.1816 24.821 22.4996 25.295H22.4971ZM24.9396 9.62749C24.2359 8.3604 23.3035 7.23472 22.1896 6.30749C24.1774 7.59438 25.7159 9.4675 26.5921 11.6675C26.1192 10.9272 25.564 10.2428 24.9371 9.62749H24.9396ZM17.7996 4.67249H17.6871C17.7009 4.65778 17.7135 4.64188 17.7246 4.62499L18.0396 4.67749L17.7996 4.67249ZM15.6996 4.85999C14.3062 5.10666 12.9684 5.60115 11.7496 6.31999C10.2734 6.72238 8.8911 7.41223 7.68208 8.34999C8.65981 7.23201 9.84949 6.31899 11.1823 5.66373C12.5152 5.00847 13.9647 4.62397 15.4471 4.53249C15.5131 4.65452 15.5983 4.76511 15.6996 4.85999V4.85999ZM4.60208 15.275C4.36325 15.0852 4.06711 14.9821 3.76208 14.9825H3.71458C4.1047 13.2842 4.88153 11.6989 5.98458 10.35C5.16503 11.8691 4.69285 13.5513 4.60208 15.275V15.275ZM5.73958 21.275C5.88695 21.7529 6.06567 22.2206 6.27458 22.675C6.00619 22.3654 5.75578 22.0407 5.52458 21.7025C5.59147 21.6502 5.64623 21.584 5.68508 21.5084C5.72392 21.4329 5.74593 21.3498 5.74958 21.265L5.73958 21.275ZM22.7971 25.955C23.4703 25.3187 24.0653 24.6045 24.5696 23.8275C25.7592 22.5356 26.6425 20.9922 27.1536 19.312C27.6648 17.6318 27.7907 15.858 27.5221 14.1225C28.388 16.5463 28.3951 19.1941 27.5421 21.6225C27.4525 21.5975 27.3601 21.584 27.2671 21.5825C27.0596 21.5813 26.8567 21.6437 26.6858 21.7613C26.5149 21.879 26.3842 22.0461 26.3112 22.2404C26.2382 22.4346 26.2264 22.6465 26.2776 22.8476C26.3287 23.0486 26.4402 23.2292 26.5971 23.365C25.5503 24.5776 24.262 25.5585 22.8146 26.245C22.8146 26.23 22.8146 26.2125 22.8146 26.1975C22.8165 26.113 22.8106 26.0284 22.7971 25.945V25.955ZM18.5471 4.53249C18.3146 4.48249 18.0821 4.43749 17.8471 4.40249C17.8471 4.37499 17.8621 4.34749 17.8721 4.31999C18.1021 4.37499 18.3271 4.44499 18.5496 4.52249L18.5471 4.53249ZM7.35708 6.78249C7.48521 6.86037 7.63214 6.90185 7.78208 6.90249C7.8891 6.90249 7.99508 6.88141 8.09396 6.84045C8.19284 6.79949 8.28269 6.73946 8.35837 6.66378C8.43405 6.5881 8.49408 6.49826 8.53504 6.39937C8.576 6.30049 8.59708 6.19452 8.59708 6.08749C8.59706 6.00256 8.58355 5.91818 8.55708 5.83749C10.412 4.56879 12.6073 3.89078 14.8546 3.89249C14.9946 3.89249 15.1346 3.89249 15.2721 3.89249C15.2764 4.02335 15.2992 4.15295 15.3396 4.27749C13.6201 4.3973 11.9495 4.90211 10.4514 5.75459C8.95323 6.60707 7.66591 7.78542 6.68458 9.20249C5.22327 10.6278 4.16276 12.4126 3.60958 14.3775C3.83788 11.4575 5.18059 8.73717 7.35958 6.77999L7.35708 6.78249ZM6.85708 25.6475C6.88305 25.584 6.89663 25.5161 6.89708 25.4475C6.89708 25.3029 6.83966 25.1643 6.73745 25.0621C6.63524 24.9599 6.49662 24.9025 6.35208 24.9025C6.29582 24.9035 6.24009 24.9136 6.18708 24.9325C4.43133 22.9079 3.45301 20.3247 3.42708 17.645L3.56708 17.6725C3.79804 18.7845 4.19053 19.8567 4.73208 20.855C4.65433 20.9376 4.60251 21.0412 4.58304 21.153C4.56357 21.2647 4.5773 21.3797 4.62254 21.4838C4.66777 21.5878 4.74252 21.6763 4.83753 21.7383C4.93254 21.8002 5.04364 21.833 5.15708 21.8325C5.20867 21.8317 5.25995 21.8241 5.30958 21.81C5.71854 22.4152 6.18305 22.981 6.69708 23.5C8.01875 25.8623 10.1229 27.6897 12.6471 28.6675C10.465 28.2465 8.45392 27.1957 6.86208 25.645L6.85708 25.6475ZM16.9996 29.1975C17.1028 29.1173 17.176 29.0045 17.2071 28.8775C18.5081 28.6043 19.7521 28.1087 20.8846 27.4125C21.0628 27.4938 21.2562 27.5364 21.4521 27.5375C21.7536 27.5372 22.0465 27.4369 22.2849 27.2523C22.5233 27.0678 22.6938 26.8093 22.7696 26.5175C24.1498 25.886 25.3952 24.9938 26.4371 23.89C25.4303 25.4905 24.0397 26.8142 22.3917 27.7411C20.7436 28.6679 18.8902 29.1685 16.9996 29.1975V29.1975Z" fill="#110F23"/>
</svg>
