<svg width="32" height="32" viewBox="0 0 32 32" fill="none" xmlns="http://www.w3.org/2000/svg">
<g clip-path="url(#clip0_4_1605)">
<path d="M27.2414 11.8336C24.9356 5.61726 18.0243 2.4459 11.8142 4.75177C11.2078 4.97289 10.6329 5.25717 10.0896 5.56673C12.8566 4.93498 15.4594 5.65517 15.4657 5.6678C15.4657 5.6678 10.2412 7.01974 7.09509 8.58647C6.94979 8.63701 6.52021 8.84548 6.25487 8.98447C6.12221 9.16767 6.00849 9.36351 5.88214 9.55304C6.11589 9.46459 6.53284 9.31929 7.07614 9.17399C9.88741 8.4538 12.4397 8.35272 13.9622 8.57383C12.2565 9.12977 8.96506 10.3743 7.76474 10.8734C6.31805 11.4672 5.02929 12.0232 4.61233 12.2C4.57443 12.3138 4.54284 12.4275 4.51126 12.5475C4.90294 12.4338 5.21249 12.3643 5.62944 12.2443C6.93716 11.8842 10.6202 11.0376 12.8566 11.284C12.8566 11.284 10.974 12.0042 9.00928 12.8634C7.1709 13.6594 4.65024 14.7586 4.04376 15.0303C4.03113 15.1566 4.01218 15.283 4.00586 15.4156C4.50494 15.2514 5.01665 15.0745 5.52205 14.9355C8.27014 14.1774 10.7782 13.83 12.4965 13.7731C10.7276 14.6702 8.71236 15.7252 6.23592 16.7739C5.55995 17.0582 4.80186 17.3614 4.10062 17.6141C4.11326 17.7215 4.12589 17.8289 4.14484 17.9426C4.83976 17.7026 5.5031 17.5004 6.21697 17.2919C8.0743 16.7486 11.1193 16.1927 12.6797 16.1169C12.6797 16.1169 7.1709 19.0798 4.68814 20.0337C4.7071 20.0905 4.71973 20.1411 4.73868 20.1979C4.75764 20.2548 4.78291 20.299 4.80818 20.3559C7.30357 19.4588 13.4189 18.1132 13.4189 18.1132C12.1933 19.0734 9.51468 20.6338 7.75843 21.4362C7.08246 21.7457 6.45071 22.0237 5.76211 22.289C5.81897 22.3838 5.87583 22.4722 5.939 22.5607C6.63392 22.3017 7.40465 22.0363 8.10589 21.8089C10.6581 20.9876 12.8819 20.4696 14.8087 20.0021C13.4694 21.0824 11.3341 22.4533 8.7629 23.6662C8.28909 23.8873 7.79001 24.0958 7.30357 24.2917C7.39201 24.3864 7.48677 24.4685 7.57522 24.557C8.20696 24.3675 10.8287 23.5525 12.7555 22.9587C14.8024 22.3269 16.7039 21.6446 16.7039 21.6446C15.1688 23.2872 11.8269 25.0561 10.6013 25.631C10.2096 25.8142 9.92531 25.9721 9.55258 26.13C9.65366 26.1932 9.74842 26.2627 9.85582 26.3259C10.298 26.1932 11.631 25.7699 13.1093 25.2772C14.3475 24.8665 17.6579 23.6662 19.3067 22.9776C18.2959 24.14 16.2996 25.732 13.6968 27.0145C13.1914 27.2609 12.7808 27.4251 12.5471 27.5072C12.7618 27.5704 12.983 27.6399 13.2041 27.6968C13.4884 27.6273 13.9558 27.5072 14.0948 27.4504C17.5063 26.5849 22.3454 24.2095 22.3454 24.2095C22.3454 24.2222 20.8419 26.4775 18.3338 27.7915C18.953 27.6715 19.5657 27.5136 20.1722 27.2861C26.3886 24.9803 29.5663 18.0753 27.2604 11.8526V11.8273L27.2414 11.8336Z" fill="#110F23"/>
</g>
<defs>
<clipPath id="clip0_4_1605">
<rect width="24" height="23.7915" fill="white" transform="translate(4 4)"/>
</clipPath>
</defs>
</svg>
