<svg width="32" height="32" viewBox="0 0 32 32" fill="none" xmlns="http://www.w3.org/2000/svg">
<g clip-path="url(#clip0_4_1279)">
<path d="M24.4663 15.4663C24.4663 15.4663 24.4663 15.3693 24.4663 15.3046C24.4663 15.1914 24.4501 15.0782 24.4501 14.9811C24.4501 14.9164 24.434 14.8518 24.434 14.7871C24.4178 14.69 24.4178 14.593 24.4016 14.496C24.4016 14.4313 24.3854 14.3666 24.3693 14.2857C24.3531 14.1887 24.3531 14.1078 24.3369 14.0108C24.3208 13.9461 24.3208 13.8652 24.3046 13.8005L24.2561 13.5418C24.2561 13.5418 24.2237 13.3962 24.2075 13.3315L24.159 13.0889L24.1105 12.8787C24.1105 12.8787 24.062 12.717 24.0458 12.6361C24.0296 12.5714 24.0135 12.4906 23.9811 12.4259C23.965 12.345 23.9326 12.2803 23.9164 12.1995C23.9003 12.1348 23.8679 12.0539 23.8518 11.9892C23.8194 11.9084 23.8032 11.8437 23.7709 11.779C23.7385 11.7143 23.7224 11.6334 23.69 11.5687C23.6577 11.504 23.6415 11.4232 23.6092 11.3585C23.5768 11.2938 23.5445 11.2129 23.5283 11.1482L23.4313 10.9542C23.4313 10.9542 23.3666 10.8248 23.3342 10.7439L23.2372 10.5499C23.2372 10.5499 23.1725 10.4205 23.124 10.3558C23.0916 10.2911 23.0593 10.2264 23.0108 10.1779C22.9784 10.1132 22.9299 10.0485 22.8976 9.98383C22.8652 9.91914 22.8167 9.87062 22.7844 9.80593C22.6712 9.62803 22.5418 9.45013 22.4124 9.27224C22.3154 9.14286 22.2183 9.02965 22.1213 8.91644H22.1051C21.0863 7.73585 19.8086 6.89488 18.3208 6.45822C18.1105 6.39353 17.9164 6.34501 17.7062 6.2965H17.69C17.69 6.2965 17.5445 6.26415 17.4636 6.24798V4H13.9542V6.32884C13.841 6.32884 13.7278 6.37736 13.6146 6.39353H13.5984C11.9326 6.79784 10.4771 7.65499 9.34501 8.98113C8.85984 9.77358 8.61725 10.7439 8.61725 11.8437C8.61725 15.6119 11.4636 16.8086 14.2453 17.4879C14.7628 17.6173 15.2642 17.7143 15.7655 17.7951C17.5121 18.1186 19.0162 18.3774 19.0162 19.9461C19.0162 20.9164 17.9488 22.1294 15.717 22.1294C14.3908 22.1294 13.3073 21.6766 12.4987 20.8679H12.531C11.6092 19.8976 11.0593 18.442 10.9623 16.566C9.21563 15.4987 8.34232 13.9137 8.34232 11.8437C8.34232 11.2291 8.40701 10.6631 8.55256 10.1294L8.35849 10.469C8.35849 10.469 8.30997 10.566 8.27763 10.6146C8.24528 10.6954 8.19677 10.7601 8.16442 10.841C8.13208 10.8895 8.1159 10.9542 8.08356 11.0027C8.03504 11.0836 8.0027 11.1482 7.97035 11.2291C7.97035 11.2938 7.92183 11.3423 7.90566 11.3908C7.85714 11.4879 7.8248 11.5687 7.79245 11.6658C7.79245 11.7143 7.76011 11.7466 7.74394 11.7951L7.59838 12.1833C7.59838 12.1833 7.56604 12.2642 7.54987 12.3127C7.53369 12.4097 7.50135 12.5067 7.469 12.6038C7.45283 12.6523 7.43666 12.717 7.42049 12.7655C7.40431 12.8625 7.37197 12.9434 7.3558 13.0404C7.3558 13.0889 7.3558 13.1536 7.32345 13.2022C7.30728 13.2992 7.27493 13.3962 7.25876 13.4933C7.25876 13.5256 7.25876 13.5741 7.22642 13.6226C7.19407 13.7682 7.16173 13.9137 7.14555 14.0593C7.12938 14.0593 7.12938 14.1078 7.12938 14.1402L7.08086 14.496C7.08086 14.496 7.06469 14.593 7.06469 14.6415C7.04852 14.7385 7.04852 14.8518 7.03235 14.9488C7.03235 14.9973 7.01617 15.062 7.01617 15.1105C7.01617 15.2237 7.01617 15.3208 7.01617 15.434V15.5795C7 15.7412 7 15.8868 7 16.0485C7 16.2102 7.01617 16.372 7.01617 16.5337C7.01617 16.5984 7.01617 16.6469 7.01617 16.6954C7.01617 16.8086 7.03235 16.9057 7.03235 17.0189C7.03235 17.0836 7.04852 17.1482 7.04852 17.2129C7.06469 17.31 7.06469 17.3908 7.08086 17.4879C7.09704 17.5687 7.09704 17.6334 7.11321 17.6981C7.11321 17.7951 7.12938 17.876 7.14555 17.9569C7.16173 18.0216 7.16173 18.1024 7.1779 18.1671L7.22642 18.4097C7.22642 18.4097 7.25876 18.5553 7.27493 18.6361L7.32345 18.8464L7.37197 19.0728L7.42049 19.2668C7.42049 19.2668 7.469 19.4286 7.48518 19.5094C7.48518 19.5418 7.50135 19.558 7.50135 19.5741C7.56604 19.8005 7.6469 20.027 7.72776 20.2372C7.72776 20.2534 7.74394 20.2857 7.74394 20.3019C7.77628 20.3989 7.8248 20.496 7.85714 20.593C7.87332 20.6415 7.88949 20.6739 7.90566 20.7062C7.95418 20.8032 7.98652 20.8841 8.03504 20.9811C8.05121 21.0135 8.06739 21.062 8.08356 21.0943C8.1159 21.1914 8.16442 21.2884 8.21294 21.3693L8.26146 21.4663C8.30997 21.5472 8.35849 21.6442 8.40701 21.7251L8.45553 21.8221C8.50404 21.9191 8.56873 22.0162 8.61725 22.097C8.61725 22.1132 8.6496 22.1456 8.66577 22.1617C8.73046 22.2426 8.79515 22.3396 8.85984 22.4367C9.00539 22.6469 9.15094 22.8571 9.32884 23.0512V23.0836C9.7655 23.6011 10.2345 24.0377 10.752 24.4259C10.9299 24.5553 11.1078 24.6685 11.2695 24.7817H11.2857C11.4636 24.8949 11.6577 24.9919 11.8356 25.0889C11.8356 25.0889 11.8518 25.0889 11.8518 25.1051C12.0458 25.2022 12.2237 25.283 12.4178 25.3639C12.4178 25.3639 12.4286 25.3693 12.4501 25.3801C12.6442 25.4609 12.8383 25.5256 13.0323 25.5903C13.0485 25.5903 13.0647 25.5903 13.0647 25.6065C13.1617 25.6388 13.2426 25.655 13.3396 25.6873H13.372C13.469 25.7197 13.566 25.7358 13.6792 25.7682C13.6792 25.7682 13.7116 25.7682 13.7278 25.7844L13.9865 25.8329V28.1617H17.496V25.8329C17.496 25.8329 17.6253 25.8167 17.69 25.8005H17.7224C17.965 25.752 18.2075 25.6873 18.434 25.6065C18.5472 25.5741 18.6765 25.5256 18.7898 25.4933C20.0836 25.0081 21.2156 24.2156 22.1375 23.1321C22.4933 22.7116 22.7844 22.2911 23.0593 21.8059C23.2049 21.2884 23.2695 20.7224 23.2695 20.1078C23.2857 16.0485 20.2129 14.9488 17.5445 14.4151C17.3504 14.3827 17.1725 14.3342 16.9946 14.3019C14.6334 13.8167 12.9191 13.4933 12.9191 11.8437C12.9191 10.8248 13.9218 10 15.7332 10C17.3504 10 18.628 10.6631 19.4528 11.8922H19.469C20.0189 12.717 20.3585 13.7358 20.4879 14.965C20.9407 15.1752 21.3127 15.4178 21.6685 15.6765C22.9623 16.6792 23.6253 18.1509 23.6253 20.027C23.6253 20.2372 23.6253 20.4636 23.593 20.6739C23.6577 20.5283 23.7224 20.3666 23.7709 20.221C23.7871 20.1725 23.8032 20.1402 23.8194 20.0916C23.8518 19.9784 23.9003 19.8652 23.9326 19.752L23.9811 19.5903C23.9811 19.5903 24.0296 19.4447 24.0458 19.3801C24.0782 19.283 24.0943 19.2022 24.1267 19.1051L24.1752 18.8949L24.2237 18.6523C24.2237 18.6523 24.2237 18.5391 24.2561 18.4906C24.2722 18.3774 24.3046 18.248 24.3208 18.1348C24.3208 18.0863 24.3369 18.0377 24.3369 17.9892L24.3854 17.6011C24.3854 17.6011 24.3854 17.5526 24.4016 17.5202C24.4178 17.3908 24.434 17.2776 24.434 17.1482C24.434 17.1159 24.434 17.0836 24.4501 17.0512C24.4663 16.9057 24.4663 16.7601 24.4825 16.6146V16.5175C24.4825 16.372 24.4987 16.2102 24.4987 16.0647C24.4987 15.903 24.4987 15.7412 24.4825 15.5633L24.4663 15.4663Z" fill="#110F23"/>
</g>
<defs>
<clipPath id="clip0_4_1279">
<rect width="17.4825" height="24" fill="white" transform="translate(7 4)"/>
</clipPath>
</defs>
</svg>
