<svg width="32" height="32" viewBox="0 0 32 32" fill="none" xmlns="http://www.w3.org/2000/svg">
<g clip-path="url(#clip0_14366_219)">
<path d="M9.99109 13.0149L16 10.2223V2.60522L9.99109 13.0149Z" fill="#2B2937"/>
<path d="M16 10.2224V16.2987L22.0089 13.015L16 10.2224Z" fill="#2B2937"/>
<path d="M16 10.2224V16.2987L9.99109 13.015L16 10.2224Z" fill="#110F23"/>
<path d="M22.0089 13.0149L16 10.2223V2.60522L22.0089 13.0149Z" fill="#110F23"/>
<path d="M16.0001 18.6386V25.1097L9.87561 15.2971L16.0001 18.6386Z" fill="#2B2937"/>
<path d="M16 18.6386V25.1097L22.1244 15.2971L16 18.6386Z" fill="#110F23"/>
<path d="M23.1355 16.7705L24.5222 20.6705L27.5651 15.5957L23.1355 16.7705Z" fill="#110F23"/>
<path d="M24.5222 20.6705L27.5652 19.7653V15.5957L24.5222 20.6705Z" fill="#2B2937"/>
<path d="M27.5651 19.7654L23.1355 27.1609L19.7748 28.6054L24.5222 20.6706L27.5651 19.7654Z" fill="#110F23"/>
<path d="M4.43481 19.7654L8.86444 27.1609L12.2252 28.6054L7.47778 20.6706L4.43481 19.7654Z" fill="#2B2937"/>
<path d="M16 28.6053L8.86445 16.7705L7.47778 20.6705L12.2252 28.6053H16Z" fill="#110F23"/>
<path d="M8.86444 16.7705L7.47778 20.6705L4.43481 15.5957L8.86444 16.7705Z" fill="#2B2937"/>
<path d="M7.47778 20.6705L4.43481 19.7653V15.5957L7.47778 20.6705Z" fill="#110F23"/>
<path d="M16 28.6053L23.1356 16.7705L24.5222 20.6705L19.7748 28.6053H16Z" fill="#2B2937"/>
</g>
<defs>
<clipPath id="clip0_14366_219">
<rect width="26" height="26" fill="white" transform="translate(3 3)"/>
</clipPath>
</defs>
</svg>
