<svg width="32" height="32" viewBox="0 0 32 32" fill="none" xmlns="http://www.w3.org/2000/svg">
<path d="M7.77469 20.35V9.67502L15.9997 17.9325L24.2497 9.68252V20.35H28.1047C28.7341 18.4351 28.9005 16.3982 28.5903 14.4064C28.28 12.4147 27.5019 10.5249 26.3199 8.89213C25.1378 7.25934 23.5855 5.93008 21.7902 5.01343C19.995 4.09677 18.0079 3.61884 15.9922 3.61884C13.9764 3.61884 11.9894 4.09677 10.1942 5.01343C8.39889 5.93008 6.84654 7.25934 5.66449 8.89213C4.48244 10.5249 3.70437 12.4147 3.39412 14.4064C3.08386 16.3982 3.25027 18.4351 3.87969 20.35H7.77469Z" fill="#110F23"/>
<path d="M21.552 23.055V16.21L15.9995 21.75L10.4795 16.22V23.055H5.14453C6.28613 24.9079 7.88299 26.4376 9.78308 27.4987C11.6832 28.5598 13.8232 29.1169 15.9995 29.1169C18.1758 29.1169 20.3159 28.5598 22.216 27.4987C24.1161 26.4376 25.7129 24.9079 26.8545 23.055H21.552Z" fill="#110F23"/>
</svg>
