<svg width="32" height="32" viewBox="0 0 32 32" fill="none" xmlns="http://www.w3.org/2000/svg">
<path d="M27.273 24.9838C24.746 24.9838 22.7016 22.9355 22.7016 20.4124V13.567H28.5976V9.58526H22.7016V3L18.1839 5.41213V9.58526H9.61559C3.64297 9.58526 2.07325 16.7829 6.66759 19.4629L11.3384 22.6024C12.3721 23.3681 11.9509 24.976 10.496 24.976H4.14081V28.9961H10.4963C16.5072 28.9961 18.0385 21.7984 13.4443 19.1184L8.81164 15.9789C7.77794 15.2132 8.16082 13.567 9.61573 13.567H18.184V20.4661C18.184 25.6729 21.7828 29 27.2194 29H28.5977V24.9838H27.273Z" fill="#110F23"/>
</svg>
