<svg width="32" height="32" viewBox="0 0 32 32" fill="none" xmlns="http://www.w3.org/2000/svg">
<path d="M15.282 19.595C15.073 18.676 14.955 17.652 14.938 16.588C14.106 17.085 13.347 17.616 12.703 18.139C13.213 18.509 13.771 18.854 14.363 19.159C14.668 19.32 14.977 19.46 15.282 19.595Z" fill="#110F23"/>
<path d="M19.927 21.133C19.822 21.142 19.713 21.146 19.609 21.15C19.518 21.154 19.422 21.154 19.33 21.154C18.463 21.154 17.535 21.015 16.598 20.753C16.563 20.744 16.524 20.749 16.493 20.762C16.484 20.766 16.48 20.766 16.476 20.771C16.402 20.806 16.367 20.897 16.398 20.971C16.903 22.195 17.579 22.901 18.259 22.914C18.887 22.927 19.531 22.352 20.054 21.319C20.097 21.232 20.028 21.132 19.928 21.132L19.927 21.133Z" fill="#110F23"/>
<path d="M15.778 21.225C15.743 21.146 15.656 21.107 15.578 21.138C14.702 21.473 13.866 21.718 13.116 21.866C12.763 21.936 12.436 21.979 12.14 21.997C12.127 22.001 12.105 22.001 12.088 22.001C11.996 22.005 11.962 22.132 12.04 22.184C13.208 22.938 14.572 23.343 16.001 23.343C16.319 23.343 16.637 23.321 16.947 23.282C17.052 23.269 17.091 23.143 17.008 23.073C16.533 22.676 16.119 22.053 15.779 21.226L15.778 21.225Z" fill="#110F23"/>
<path d="M14.907 20.689C14.929 20.68 15.107 20.615 15.134 20.606C15.156 20.597 15.504 20.467 15.522 20.458C15.831 20.336 16.141 20.21 16.455 20.066C16.472 20.057 16.76 19.931 16.83 19.896C17.161 19.739 17.497 19.569 17.832 19.395C19.07 18.741 20.194 18.005 21.104 17.273C21.139 16.894 21.156 16.502 21.165 16.105C21.174 15.482 21.152 14.867 21.095 14.279C21.082 14.201 21.06 14.022 21.047 13.904C21.021 13.677 20.99 13.455 20.951 13.237C20.812 12.461 20.615 11.747 20.363 11.128C19.858 9.90401 19.182 9.19801 18.502 9.18501H18.485C17.906 9.18501 17.313 9.68201 16.816 10.571C16.759 10.667 16.807 10.789 16.907 10.828C17.395 11.015 17.874 11.229 18.349 11.477C19.055 11.847 19.713 12.266 20.31 12.719C20.471 12.841 20.589 13.028 20.624 13.233C20.654 13.394 20.681 13.564 20.702 13.734C20.732 13.978 20.58 14.205 20.34 14.261C19.063 14.575 17.577 15.154 16.087 15.939C16.004 15.983 15.904 15.917 15.908 15.826C15.912 15.673 15.921 15.486 15.925 15.395C15.929 15.317 15.977 15.247 16.047 15.212C17.55 14.45 19.045 13.879 20.33 13.587C19.65 13.021 18.879 12.506 18.034 12.066C17.598 11.839 17.158 11.643 16.714 11.469C16.697 11.465 16.574 11.417 16.553 11.408C16.501 11.391 16.108 11.255 15.878 11.181C15.852 11.172 15.721 11.133 15.704 11.129C14.798 10.868 13.909 10.728 13.076 10.728C12.993 10.728 12.902 10.728 12.819 10.732C11.464 10.78 10.444 11.203 9.895 11.926C9.83 12.022 9.764 12.122 9.703 12.222L9.699 12.226C9.22 13.145 9.42 14.357 10.261 15.647C10.688 16.305 11.254 16.937 11.926 17.521C12.061 17.634 12.262 17.643 12.401 17.53C13.076 16.998 13.848 16.467 14.693 15.966C14.85 15.875 14.946 15.709 14.954 15.526C15.015 14.101 15.255 12.755 15.643 11.617C15.678 11.521 15.782 11.469 15.874 11.499C15.97 11.529 16.066 11.56 16.157 11.59C16.257 11.625 16.305 11.729 16.275 11.825C15.918 12.875 15.691 14.117 15.626 15.442C15.617 15.629 15.609 15.747 15.609 16.004V16.522C15.626 17.616 15.748 18.666 15.971 19.594C15.971 19.603 15.975 19.62 15.98 19.638C16.019 19.795 15.941 19.952 15.793 20.013C15.658 20.07 15.527 20.122 15.392 20.174C15.235 20.235 15.057 20.231 14.9 20.161C14.621 20.03 14.342 19.895 14.063 19.747C13.427 19.42 12.834 19.05 12.281 18.645C12.006 18.444 11.745 18.24 11.501 18.026C10.778 17.399 10.172 16.719 9.71 16.013C9.37 15.49 9.122 14.967 8.969 14.466C8.943 14.392 8.838 14.396 8.821 14.47C8.712 14.967 8.66 15.485 8.66 16.004C8.66 17.464 9.083 18.858 9.871 20.043C9.945 20.161 10.115 20.148 10.172 20.021C10.368 19.585 10.725 19.102 11.231 18.583C11.235 18.579 11.248 18.566 11.27 18.544C11.362 18.452 11.51 18.448 11.61 18.527C11.654 18.562 11.693 18.592 11.732 18.623C11.85 18.719 11.858 18.893 11.754 18.998C10.739 20.026 10.538 20.702 10.695 20.989C10.848 21.281 11.54 21.499 13.018 21.216C13.602 21.103 14.242 20.924 14.909 20.689H14.907Z" fill="#110F23"/>
<path d="M11.8 10.166C12.114 10.109 12.441 10.074 12.793 10.061C13.743 10.031 14.771 10.17 15.817 10.462C15.974 10.506 16.139 10.44 16.214 10.296C16.532 9.72101 16.885 9.27601 17.268 8.97601C17.355 8.91101 17.316 8.77601 17.211 8.75801C16.815 8.69701 16.409 8.66201 16 8.66201C14.449 8.66201 12.976 9.13701 11.738 10.022C11.668 10.074 11.712 10.188 11.799 10.166H11.8Z" fill="#110F23"/>
<path d="M20.973 10.885C21.234 11.53 21.444 12.266 21.587 13.068C21.617 13.242 21.779 13.373 21.962 13.369C22.223 13.365 22.463 13.378 22.672 13.417C22.772 13.434 22.846 13.334 22.811 13.247C22.449 12.349 21.9 11.521 21.194 10.816C21.146 10.768 21.098 10.725 21.055 10.681C20.994 10.616 20.894 10.69 20.929 10.773C20.942 10.817 20.959 10.851 20.973 10.886V10.885Z" fill="#110F23"/>
<path d="M21.814 16.484C21.81 16.545 21.892 16.58 21.94 16.536C21.979 16.497 22.018 16.458 22.053 16.423C22.153 16.323 22.249 16.223 22.332 16.131C22.384 16.07 22.393 15.983 22.354 15.913C22.293 15.8 22.223 15.686 22.149 15.573C22.092 15.49 22.031 15.403 21.975 15.32C21.923 15.25 21.818 15.29 21.818 15.372C21.827 15.616 21.827 15.86 21.822 16.117C21.822 16.243 21.818 16.361 21.813 16.483L21.814 16.484Z" fill="#110F23"/>
<path d="M21.273 20.885C21.177 20.916 21.073 20.946 20.972 20.972C20.95 20.981 20.928 20.998 20.92 21.02C20.872 21.12 20.833 21.22 20.789 21.316C20.78 21.342 20.767 21.364 20.759 21.386C20.724 21.464 20.824 21.534 20.89 21.477C20.99 21.386 21.099 21.285 21.195 21.189C21.252 21.132 21.313 21.071 21.365 21.015C21.422 20.958 21.361 20.858 21.274 20.884L21.273 20.885Z" fill="#110F23"/>
<path d="M23.269 16.031C23.256 16.048 23.247 16.061 23.243 16.066C23.217 16.101 23.213 16.144 23.23 16.179C23.239 16.196 23.247 16.218 23.256 16.236C23.273 16.28 23.343 16.266 23.343 16.219C23.343 16.158 23.343 16.101 23.347 16.04C23.347 15.997 23.299 15.992 23.268 16.031H23.269Z" fill="#110F23"/>
<path d="M16 4C9.373 4 4 9.373 4 16C4 22.627 9.373 28 16 28C22.627 28 28 22.627 28 16C28 9.373 22.627 4 16 4ZM23.465 18.924C23.426 19.028 23.387 19.133 23.339 19.229C22.942 20.122 22.376 20.95 21.666 21.66C20.154 23.172 18.145 24.004 16.006 24.004C13.867 24.004 11.858 23.172 10.346 21.66C8.834 20.148 8.002 18.139 8.002 16C8.002 14.523 8.399 13.115 9.139 11.882C9.204 11.756 9.283 11.638 9.366 11.525C9.649 11.107 9.972 10.71 10.342 10.34C11.854 8.828 13.863 8 16.002 8C18.141 8 20.15 8.832 21.662 10.344C22.773 11.455 23.518 12.832 23.832 14.335C23.836 14.352 23.854 14.418 23.858 14.444C23.963 14.958 24.015 15.468 24.015 16.004C24.015 17.019 23.828 18.008 23.466 18.924H23.465Z" fill="#110F23"/>
<path d="M22.519 16.885C22.327 17.077 22.118 17.273 21.896 17.464C21.791 17.556 21.726 17.678 21.709 17.817C21.618 18.553 21.487 19.251 21.304 19.895C21.269 20.026 21.4 20.135 21.522 20.078C22.045 19.83 22.446 19.477 22.69 19.028C22.694 19.015 22.738 18.924 22.747 18.91C22.782 18.836 22.808 18.762 22.839 18.688C23.013 18.178 23 17.59 22.813 16.958C22.774 16.832 22.613 16.792 22.521 16.884L22.519 16.885Z" fill="#110F23"/>
<path d="M22.049 14.022H22.045C21.94 14.026 21.884 14.148 21.953 14.227C22.232 14.549 22.485 14.876 22.702 15.216C22.711 15.229 22.719 15.246 22.728 15.26C22.789 15.351 22.933 15.347 22.985 15.251C23.212 14.841 23.238 14.549 23.155 14.384C23.051 14.188 22.706 14.022 22.048 14.022H22.049Z" fill="#110F23"/>
<path d="M20.829 18.305C20.032 18.884 19.117 19.451 18.14 19.969C18.001 20.043 17.861 20.117 17.722 20.187C17.652 20.222 17.665 20.331 17.744 20.344C18.38 20.462 19.003 20.514 19.592 20.492C19.832 20.483 20.063 20.462 20.28 20.431C20.38 20.418 20.463 20.348 20.502 20.244C20.698 19.678 20.846 19.05 20.96 18.383C20.973 18.313 20.886 18.261 20.829 18.305Z" fill="#110F23"/>
</svg>
