<svg width="32" height="32" viewBox="0 0 32 32" fill="none" xmlns="http://www.w3.org/2000/svg">
<g clip-path="url(#clip0_4_1290)">
<path d="M26.9389 13.5364C26.3097 12.6553 25.6473 12.1306 25.2024 11.8464C25.068 11.7606 24.9465 11.6911 24.8391 11.6357C24.6717 11.3333 24.488 11.0342 24.2861 10.7398C22.1087 7.55562 19.7199 6.0054 16.984 6H16.9699C15.8146 6 14.76 6.26265 13.8796 6.51989C13.6264 6.59348 13.3698 6.67383 13.122 6.7508C12.4867 6.94863 11.8864 7.13566 11.38 7.2187C11.035 7.27542 10.7643 7.40573 10.5766 7.60558C10.399 7.79463 10.293 8.04648 10.2619 8.35503C10.2039 8.93231 10.4091 9.70607 10.8541 10.5926C11.7446 12.3656 13.4515 14.3176 15.2009 15.5653C15.3805 15.6936 15.55 15.8354 15.7107 15.9873C15.7086 15.9873 15.7066 15.988 15.7039 15.9886C14.3434 16.1831 13.6338 17.6455 13.3468 18.4355C13.2719 18.6414 13.4758 18.8264 13.6838 18.7562C14.5082 18.478 16.1698 18.0338 17.1427 18.5638C17.3243 19.4327 17.248 20.2848 16.9199 20.9512C16.4959 21.8114 15.7134 22.2935 14.6574 22.3441C13.415 22.4035 11.8783 21.8715 10.0925 20.7615L10.0574 20.7412C10.0472 20.7358 10.0358 20.7291 10.025 20.723C11.3449 19.1323 10.5401 16.7293 10.2181 15.9373C10.1748 15.8313 10.029 15.8327 9.97161 15.9306C9.21743 17.208 7.66992 17.1128 7.6976 18.634C7.6976 18.6326 7.69625 18.6313 7.69557 18.6306C6.51266 17.6692 5.63492 18.948 4.16302 18.7562C4.04959 18.7413 3.9598 18.8561 4.01651 18.9547C4.44795 19.7055 5.87529 21.8634 7.98455 21.7452L7.92311 21.7871L8.38426 22.2955C10.3261 24.4379 12.6379 25.7214 15.0692 26.0063C15.4203 26.0475 15.7721 26.0677 16.1232 26.0677C18.1622 26.0677 20.1898 25.3818 21.9264 24.0888C23.9202 22.6034 25.3043 20.509 25.8228 18.1904C25.9943 17.4227 26.0666 16.6537 26.0423 15.8914C26.0902 15.8766 26.1388 15.8644 26.1895 15.8583C26.7782 15.7827 27.4021 16.285 27.7208 16.5902C27.7545 16.6226 27.7978 16.6395 27.841 16.6395C27.8639 16.6395 27.8869 16.6348 27.9085 16.6253C27.9665 16.5997 28.001 16.543 27.999 16.4781C27.9794 15.9063 27.816 14.7639 26.9376 13.5337L26.9389 13.5364ZM15.2097 24.8234C13.2145 24.5898 11.295 23.5743 9.63064 21.8796C11.5583 23.0504 13.2685 23.6081 14.7161 23.5385C16.188 23.4676 17.3824 22.7175 17.9914 21.4806C18.5019 20.4442 18.5727 19.1093 18.1845 17.8191C17.7916 16.5133 16.9786 15.3681 15.895 14.5951C14.4123 13.5377 12.9681 11.9355 12.118 10.4258C12.118 10.4258 12.116 10.4218 12.1126 10.4164C12.1086 10.4089 12.1038 10.4015 12.0998 10.3941C12.039 10.2813 11.8716 9.89512 12.3861 9.82153C17.2129 9.13217 27.0348 18.3018 21.0358 23.2637C19.283 24.506 17.2231 25.059 15.2097 24.8234ZM20.9008 10.2266C20.8002 10.492 20.1297 10.5514 19.7948 10.5257C19.4599 10.5001 18.8894 10.4447 18.4539 10.2266C18.0178 10.0086 17.5823 9.72093 17.4148 9.48596C17.2474 9.25167 16.9118 8.6143 17.9509 8.6143C18.99 8.6143 20.578 9.79114 20.9008 10.2266Z" fill="#110F23"/>
</g>
<defs>
<clipPath id="clip0_4_1290">
<rect width="24" height="20.0698" fill="white" transform="translate(4 6)"/>
</clipPath>
</defs>
</svg>
