<svg width="32" height="32" viewBox="0 0 32 32" fill="none" xmlns="http://www.w3.org/2000/svg">
<path d="M19.3205 9.93344L6.22535 22.9745C5.28503 21.6534 4.622 20.1555 4.27622 18.5712C3.93044 16.9869 3.90907 15.3489 4.21342 13.7561C4.51777 12.1633 5.14152 10.6487 6.04706 9.30343C6.95261 7.95821 8.1212 6.81031 9.48237 5.92892C10.8435 5.04753 12.3691 4.45092 13.9671 4.17506C15.5651 3.8992 17.2023 3.9498 18.7802 4.3238C20.3581 4.69781 21.8439 5.38749 23.1481 6.35124C24.4522 7.31499 25.5477 8.53287 26.3685 9.93144H19.3225L19.3205 9.93344Z" fill="#110F23"/>
<path d="M20.6236 13.1418L8.4172 25.3022C8.09202 25.0367 7.78068 24.7548 7.48441 24.4574L20.1252 11.8587H27.2732C27.4274 12.2791 27.5575 12.7075 27.6616 13.1398L20.6236 13.1418ZM22.7294 18.2922H27.7777C27.4678 19.8717 26.8437 21.3727 25.9425 22.7063C25.0413 24.0399 23.8813 25.1789 22.5314 26.0555C21.1815 26.9321 19.6692 27.5285 18.0843 27.8093C16.4994 28.0901 14.8743 28.0496 13.3054 27.6902L22.7294 18.2922Z" fill="#110F23"/>
<path d="M28 15.9802C28 16.1084 28 16.2365 27.994 16.3646H21.9268L11.2378 27.0136C10.8285 26.8382 10.4295 26.6397 10.0427 26.4191L21.4264 15.0695H27.966C27.988 15.3697 28 15.674 28 15.9802Z" fill="#110F23"/>
</svg>
