<svg width="32" height="32" viewBox="0 0 32 32" fill="none" xmlns="http://www.w3.org/2000/svg">
<path d="M28.9736 7.29113C28.9516 7.26619 28.9203 7.25227 28.8872 7.25227H25.5666C25.5434 7.25227 25.5202 7.25923 25.4999 7.27315L19.4236 11.5206L16.1006 6.0551C16.1006 6.0551 16.0972 6.04988 16.0954 6.04756C16.0943 6.0464 16.0937 6.04524 16.0925 6.0435C16.0856 6.0348 16.078 6.02726 16.0687 6.02088C16.0676 6.0203 16.0664 6.01914 16.0653 6.01856C16.056 6.01218 16.0455 6.00754 16.0345 6.00406C16.0339 6.00406 16.0334 6.00348 16.0328 6.00348C16.0322 6.00348 16.031 6.00348 16.0305 6.00348C16.0264 6.00232 16.0229 6.00174 16.0189 6.00116C16.0165 6.00116 16.0142 6.00058 16.0119 6C16.0084 6 16.0049 6 16.0009 6C15.998 6 15.9957 6 15.9928 6C15.9899 6 15.9864 6.00058 15.9835 6.00116C15.98 6.00116 15.9771 6.00232 15.9736 6.0029C15.9724 6.0029 15.9713 6.0029 15.9707 6.00348C15.9701 6.00348 15.9695 6.00406 15.9684 6.00464C15.9574 6.00812 15.9475 6.01276 15.9376 6.01914C15.9365 6.01972 15.9353 6.02088 15.9342 6.02146C15.9255 6.02784 15.9173 6.03538 15.9104 6.04408C15.9092 6.04524 15.9086 6.0464 15.9075 6.04756C15.9057 6.04988 15.9034 6.0522 15.9023 6.0551L12.5793 11.5212L6.50303 7.27373C6.48331 7.25981 6.45953 7.25343 6.43632 7.25343H3.1157C3.08264 7.25343 3.05132 7.26735 3.02928 7.29229C3.00724 7.31723 2.9968 7.34971 3.00086 7.38277L3.68819 13.2827C3.69167 13.3135 3.70733 13.3407 3.73111 13.3599L7.23849 16.148L7.03607 16.1904C6.98792 16.2002 6.9508 16.2403 6.94442 16.289L6.47113 19.9779C6.46707 20.0081 6.47577 20.0388 6.49433 20.0632L10.5701 25.3866C10.5916 25.415 10.6252 25.4319 10.6606 25.4319H10.6618C10.6972 25.4319 10.7302 25.4156 10.7523 25.3884L13.1994 22.338L15.9057 26.176C15.9057 26.176 15.9057 26.176 15.9063 26.1766C15.9075 26.1783 15.9092 26.1795 15.9104 26.1807C15.9162 26.1882 15.9226 26.1946 15.9295 26.1998C15.9324 26.2021 15.9347 26.2033 15.9376 26.2056C15.9446 26.2102 15.9521 26.2137 15.9597 26.2166C15.9614 26.2172 15.9632 26.2189 15.9649 26.2195C15.9661 26.2195 15.9672 26.2195 15.9684 26.2195C15.9788 26.2224 15.9893 26.2242 15.9997 26.2242C16.0107 26.2242 16.0212 26.2224 16.031 26.2195C16.0322 26.2195 16.0334 26.2195 16.0345 26.2195C16.0363 26.2189 16.038 26.2178 16.0397 26.2166C16.0479 26.2137 16.0548 26.2102 16.0618 26.2056C16.0647 26.2039 16.0676 26.2021 16.0699 26.2004C16.0769 26.1946 16.0838 26.1882 16.0896 26.1807C16.0908 26.1795 16.0919 26.1783 16.0931 26.1766C16.0931 26.1766 16.0931 26.1766 16.0937 26.1754L18.8001 22.3375L21.2472 25.3878C21.2692 25.415 21.3023 25.4313 21.3376 25.4313H21.3388C21.3748 25.4313 21.4078 25.4139 21.4299 25.386L25.5057 20.0626C25.5242 20.0382 25.5324 20.0075 25.5289 19.9773L25.0556 16.2884C25.0492 16.2391 25.0127 16.1997 24.9639 16.1898L24.7615 16.1475L28.2689 13.3593C28.2927 13.3402 28.3083 13.3123 28.3118 13.2822L28.9991 7.38219C29.0032 7.34913 28.9928 7.31665 28.9707 7.29171L28.9736 7.29113ZM28.2811 11.5676L27.0456 13.2271L24.4489 14.3482L27.1611 10.3908L28.3553 10.9342L28.2817 11.5682L28.2811 11.5676ZM24.4982 16.329L24.2726 16.655L23.8428 16.7078L22.5255 16.3789L23.3874 16.0976L24.4982 16.329ZM24.3242 17.0198C24.3393 17.054 24.3694 17.0784 24.4054 17.0865L24.9413 17.2037L25.015 17.7796L22.9698 18.9478L24.3155 17.0013L24.3236 17.0198H24.3242ZM22.9489 22.4877L21.1016 20.5405L21.5673 20.5968L22.9489 21.4906V22.4877ZM20.9682 24.005L20.8754 23.6135L20.9682 23.6622V24.005ZM21.09 23.4639L20.8046 23.3148L20.4891 21.9848L20.6776 20.4303L22.8648 22.7359L21.0906 23.4644L21.09 23.4639ZM20.775 20.196C20.757 20.1775 20.7338 20.1659 20.7101 20.1618L20.7234 20.0504L21.1236 20.3091L20.8516 20.2761L20.775 20.1954V20.196ZM20.1306 20.475L20.4775 20.1531L20.4607 20.2935L20.1399 20.5139L20.1306 20.475ZM20.423 20.6003L20.3342 21.3329L20.1973 20.7557L20.423 20.6009V20.6003ZM20.6463 19.7239L21.315 18.7755L21.6352 18.9362L22.054 19.8068L21.3916 20.2059L20.6468 19.7239H20.6463ZM16.0015 20.9274L10.1363 17.4195L11.1362 17.1335L15.9423 19.9669C15.9423 19.9669 15.9423 19.9669 15.9429 19.9669C15.9429 19.9669 15.9429 19.9669 15.9434 19.9669C15.9492 19.9704 15.9556 19.9721 15.962 19.9744C15.9649 19.9756 15.9684 19.9773 15.9713 19.9785C15.9811 19.9814 15.991 19.9826 16.0015 19.9826C16.0119 19.9826 16.0218 19.9814 16.0316 19.9785C16.0345 19.9779 16.0374 19.9756 16.0409 19.975C16.0473 19.9727 16.0537 19.971 16.0595 19.9675C16.0595 19.9675 16.0595 19.9675 16.06 19.9675C16.06 19.9675 16.06 19.9675 16.0606 19.9675L20.8667 17.1341L21.8666 17.42L16.0015 20.928V20.9274ZM11.0347 23.6622L11.1275 23.6135L11.0347 24.005V23.6622ZM11.1983 23.3148L10.9129 23.4639L9.63804 22.9401L10.6293 21.1641L11.3259 20.4298L11.5144 21.9842L11.1989 23.3148H11.1983ZM7.06101 17.2037L7.59695 17.0865C7.63291 17.0784 7.66365 17.054 7.67815 17.0198L7.68627 17.0013L9.03192 18.9478L6.98676 17.7796L7.06043 17.2037H7.06101ZM8.61546 16.0976L9.47738 16.3789L8.16015 16.7078L7.73035 16.655L7.50472 16.329L8.61546 16.0976ZM3.64816 10.9342L4.84243 10.3908L7.55461 14.3482L4.95785 13.2271L3.72241 11.5682L3.64874 10.9342H3.64816ZM6.3586 7.48427L6.36614 7.50283L6.347 7.48427H6.3586ZM10.667 14.6661L10.3538 13.9399L10.8607 14.3477L10.667 14.6661ZM10.9819 14.1481L10.1566 13.484L8.91533 10.6065L11.3555 13.5333L10.9814 14.1481H10.9819ZM11.4831 13.3233L9.73316 11.2248L11.6136 13.1087L11.4831 13.3233ZM8.3939 9.98068L10.5197 14.9091L10.0789 15.6347L9.65544 14.9555L7.03201 8.52019L8.39448 9.98126L8.3939 9.98068ZM8.53542 17.8208L9.79697 17.5128L10.5527 18.5841L10.2285 18.7471C10.2053 18.7587 10.1873 18.7773 10.1757 18.8005L9.78073 19.6224L8.53542 17.8208ZM9.81901 17.2686L8.3939 17.6161L7.9061 16.9102L8.15203 16.9404C8.16595 16.9421 8.18045 16.9415 8.19437 16.938L9.89151 16.5146L10.3068 16.6503L10.6084 17.0424L9.81843 17.2681L9.81901 17.2686ZM10.8491 16.9746L10.8352 16.956L10.8607 16.9711L10.8491 16.9746ZM6.58713 8.04515L9.44373 15.0524C9.44605 15.0588 9.44895 15.0646 9.45243 15.0698L9.72446 15.506L8.06908 14.7461L7.98092 14.5628C7.9786 14.5576 7.97512 14.5524 7.97164 14.5478L4.98569 10.1901L3.96544 7.48427H6.01581L6.58713 8.04457V8.04515ZM4.88129 13.5182L5.6475 14.5866L4.66726 13.8071L4.88129 13.5182ZM5.2206 13.5936L7.79067 14.7032L7.87826 14.8853C7.88986 14.9097 7.90958 14.9288 7.93452 14.9404L9.52726 15.6713L8.62822 15.8586L6.29886 15.0976L5.2206 13.5942V13.5936ZM9.92399 15.825L9.94371 15.8563L9.74824 16.1782C9.7407 16.191 9.73548 16.2043 9.73316 16.2188L9.07194 16.003L9.92399 15.8256V15.825ZM9.33759 19.3892L9.39733 19.475L7.69729 18.4519L9.33759 19.3892ZM10.3677 18.9368L10.6879 18.7761L11.3566 19.7245L10.6113 20.2065L9.94893 19.808L10.3677 18.9374V18.9368ZM11.1513 20.2766L10.8793 20.3097L11.2795 20.051L11.2928 20.1624C11.2685 20.1664 11.2459 20.1775 11.2279 20.1966L11.1513 20.2772V20.2766ZM11.5254 20.1531L11.8723 20.475L11.863 20.5139L11.5428 20.294L11.526 20.1537L11.5254 20.1531ZM10.435 20.5968L10.9007 20.5405L9.05338 22.4877V21.4906L10.435 20.5968ZM9.98373 21.8444L9.42169 22.8513L9.13864 22.7353L9.98373 21.8444ZM11.8056 20.7557L11.6687 21.3329L11.58 20.6003L11.8056 20.7552V20.7557ZM10.2569 17.7622L15.8854 21.1281V25.7433L10.2569 17.7622ZM25.6559 7.48427L25.6368 7.50283L25.6443 7.48427H25.6559ZM20.3887 13.1087L22.2692 11.2248L20.5198 13.3233L20.3893 13.1087H20.3887ZM23.087 10.6059L21.8457 13.4834L21.021 14.1476L20.6468 13.5327L23.087 10.6059ZM21.6491 13.9399L21.3359 14.6661L21.1422 14.3477L21.6491 13.9399ZM23.609 9.98068L24.9715 8.51961L22.348 14.9549L21.9246 15.6341L21.4838 14.9085L23.6096 9.9801L23.609 9.98068ZM23.6084 17.6167L22.188 17.2704L21.3933 17.0436L21.6949 16.6515L22.1102 16.5158L23.8074 16.9392C23.8213 16.9427 23.8352 16.9438 23.8497 16.9415L24.0956 16.9114L23.6078 17.6172L23.6084 17.6167ZM21.1538 16.9746L21.1422 16.9711L21.1677 16.956L21.1538 16.9746ZM22.2054 17.5128L23.4669 17.8208L22.2216 19.6224L21.8266 18.8005C21.8156 18.7773 21.797 18.7587 21.7738 18.7471L21.4496 18.5841L22.2048 17.5128H22.2054ZM22.6653 19.3892L24.3056 18.4525L22.6061 19.4756L22.6659 19.3898L22.6653 19.3892ZM22.2703 16.2188C22.268 16.2049 22.2628 16.191 22.2552 16.1782L22.0598 15.8563L22.0795 15.825L22.9315 16.0025L22.2703 16.2182V16.2188ZM22.4756 15.6707L24.0684 14.9399C24.0927 14.9288 24.113 14.9091 24.1246 14.8848L24.2122 14.7026L26.7823 13.5931L25.704 15.0965L23.3747 15.8575L22.4756 15.6701V15.6707ZM27.1216 13.5182L27.3356 13.8071L26.3554 14.5866L27.1216 13.5182ZM27.0166 10.1907L24.0307 14.5483C24.0272 14.5536 24.0243 14.5582 24.0214 14.5634L23.9332 14.7467L22.2779 15.5065L22.5499 15.0704C22.5534 15.0646 22.5563 15.0588 22.5586 15.053L25.4152 8.04631L25.9865 7.48543H28.0369L27.016 10.1918L27.0166 10.1907ZM25.3102 7.68902L25.218 7.91581L24.8537 8.30616L20.2646 12.9046L19.5442 11.7196L25.3102 7.68902ZM16.1175 6.52898L21.996 16.1979L16.1175 19.6636V6.52898ZM15.8854 19.6641L10.0069 16.1985L15.8854 6.52898V19.6636V19.6641ZM12.4581 11.7196L11.7377 12.9046L7.14743 8.305L6.78492 7.91639L6.69211 7.68902L12.4581 11.7196ZM3.71777 7.48427L4.73628 10.1837L3.62032 10.6918L3.24621 7.48427H3.71777ZM3.77577 12.0287L4.7386 13.3216L4.48571 13.6632L3.91323 13.2079L3.77577 12.0287ZM6.80406 15.506L8.17233 15.9532L7.53372 16.086L6.80406 15.506ZM7.25764 16.3806L7.5314 16.7768L7.48964 16.8719L7.09233 16.9589L7.16425 16.3998L7.25821 16.3801L7.25764 16.3806ZM6.92586 18.2587L10.395 20.3468L8.87473 21.3305C8.84167 21.352 8.82195 21.3885 8.82195 21.428V22.7214L6.70777 19.9599L6.92586 18.2587ZM10.6647 25.1273L9.05396 23.0236V22.9517L10.8027 23.6698V24.9557L10.6647 25.1273ZM11.1502 24.5218L12.0544 20.7128L13.0613 22.1408L11.1507 24.5224L11.1502 24.5218ZM16.1175 21.1281L21.746 17.7622L16.1175 25.7433V21.1281ZM19.9485 20.7128L20.8522 24.5218L18.9416 22.1402L19.9485 20.7128ZM21.3382 25.1273L21.2002 24.9557V23.6698L22.9489 22.9517V23.0236L21.3382 25.1273ZM23.181 22.7208V21.4274C23.181 21.388 23.1612 21.3514 23.1282 21.33L21.6079 20.3462L25.077 18.2582L25.2951 19.9594L23.181 22.7208ZM24.9106 16.9589L24.5133 16.8719L24.4715 16.7768L24.7453 16.3806L24.8392 16.4004L24.9112 16.9595L24.9106 16.9589ZM23.8306 15.9532L25.1988 15.506L24.4692 16.086L23.8306 15.9532ZM27.5172 13.6627L27.2643 13.321L28.2271 12.0282L28.0897 13.2073L27.5172 13.6627ZM28.3832 10.6918L27.2672 10.1837L28.2857 7.48427H28.7573L28.3837 10.6918H28.3832Z" fill="#110F23"/>
</svg>
