<svg width="32" height="32" viewBox="0 0 32 32" fill="none" xmlns="http://www.w3.org/2000/svg">
<g clip-path="url(#clip0_14366_127)">
<path fill-rule="evenodd" clip-rule="evenodd" d="M15.6963 28.9498C22.5751 29.0921 28.9518 23.5312 28.9552 15.9733H28.9541C28.9619 8.77175 23.1612 2.93744 15.9855 2.92848C8.78951 2.91951 2.96193 8.72356 2.95521 15.9083C2.94848 23.0437 8.69762 28.8052 15.6963 28.9498ZM19.6286 22.8921C19.6425 22.8857 19.6561 22.8806 19.6689 22.8759C19.6962 22.8657 19.7196 22.8569 19.733 22.8398C19.9565 22.5516 20.1761 22.2601 20.3958 21.9686C20.8953 21.3055 21.3948 20.6425 21.9397 20.019C22.4126 19.4766 22.4911 18.9319 22.3611 18.2797C22.2834 17.8873 22.2224 17.4917 22.156 17.0615C22.1267 16.8712 22.0963 16.6741 22.063 16.4675C22.1218 16.4183 22.1883 16.3606 22.2609 16.2977C22.4426 16.1402 22.6623 15.9499 22.8945 15.7761C23.9181 15.0095 24.4978 13.9811 24.6338 12.6908C24.6874 12.1816 24.7472 11.673 24.8096 11.1422C24.8347 10.9288 24.8603 10.7118 24.886 10.4898C24.7114 10.4898 24.5452 10.4925 24.3849 10.4951C24.0421 10.5008 23.7261 10.506 23.4123 10.483C23.1331 10.4624 22.8779 10.4909 22.6365 10.5644C22.365 10.6464 22.111 10.7853 21.8602 10.9749C21.2402 11.444 20.5986 11.8855 19.957 12.327C19.7217 12.4889 19.4865 12.6507 19.2523 12.814C19.0337 12.967 18.8119 13.1156 18.5785 13.272C18.4777 13.3396 18.3747 13.4086 18.2689 13.48C17.4835 12.1826 16.7317 10.9411 15.9317 9.62123C15.931 9.62232 15.9304 9.6234 15.9297 9.62448C15.9292 9.62374 15.9288 9.62299 15.9283 9.62224C15.4896 10.3471 15.0624 11.0533 14.6355 11.7589C14.2888 12.3321 13.9422 12.9051 13.5898 13.4874C13.2388 13.2421 12.8861 13.007 12.5364 12.7738C11.7475 12.2479 10.9738 11.7321 10.2699 11.133C9.48054 10.4609 8.63646 10.4777 7.74464 10.4954C7.49445 10.5004 7.24051 10.5054 6.98296 10.4954C6.98301 10.4958 6.98306 10.4961 6.9831 10.4965C6.98195 10.4965 6.98079 10.4964 6.97964 10.4964C7.02086 10.8357 7.06067 11.1699 7.10003 11.5004C7.21799 12.4908 7.33185 13.4468 7.46714 14.3997C7.49068 14.5678 7.6868 14.7326 7.83697 14.857C8.34549 15.2785 8.86013 15.6915 9.38044 16.1091C9.56418 16.2565 9.74864 16.4045 9.93378 16.5537C9.90513 16.5922 9.87445 16.6264 9.84583 16.6584C9.78939 16.7214 9.74098 16.7755 9.73205 16.835C9.61662 17.6083 9.5124 18.3827 9.41714 19.1593C9.40705 19.24 9.45188 19.3442 9.50455 19.4137C10.2023 20.3323 10.9041 21.2487 11.6193 22.1827C11.8151 22.4383 12.0119 22.6953 12.2099 22.954C12.2106 22.953 12.2112 22.9521 12.2119 22.9512C12.2123 22.9518 12.2128 22.9524 12.2132 22.953C12.4304 22.6521 12.6374 22.3658 12.8415 22.0836C13.0503 21.7949 13.2559 21.5105 13.4662 21.2192C12.8895 20.8473 12.9984 20.3837 13.1216 19.8595C13.135 19.8024 13.1486 19.7445 13.1615 19.6859C13.6421 20.3331 14.112 20.9656 14.5787 21.5938C15.0308 22.2024 15.4799 22.8069 15.9328 23.4168C15.9335 23.4159 15.9342 23.415 15.9349 23.4141C15.9353 23.4146 15.9357 23.4152 15.9362 23.4158C16.3579 22.8489 16.7739 22.2894 17.1952 21.7226C17.6999 21.0437 18.2123 20.3545 18.7516 19.6298C18.7657 19.8034 18.8036 19.9697 18.8394 20.1268C18.946 20.5941 19.034 20.9803 18.4219 21.2382C18.8443 21.8186 19.2353 22.3564 19.6253 22.8931C19.6242 22.8936 19.6232 22.8941 19.6221 22.8946L19.6255 22.8934C19.6254 22.8933 19.6253 22.8932 19.6253 22.8931C19.6263 22.8926 19.6273 22.8922 19.6283 22.8917C19.6284 22.8919 19.6285 22.892 19.6286 22.8921Z" fill="#110F23"/>
<path d="M11.9028 17.5634C11.9667 17.3572 12.0183 17.1879 12.0844 16.9739C13.2398 17.6474 14.3863 18.2974 15.5126 18.9822C15.7961 19.1547 15.9889 19.1447 16.2634 18.9777C17.4099 18.2817 18.5709 17.6127 19.5527 17.0366C19.8384 17.2159 20.0357 17.3717 20.2587 17.4748C21.0096 17.8211 21.0129 17.8144 20.6117 18.684C21.0297 18.4801 21.3424 18.3265 21.6551 18.1741C21.6741 18.2055 21.6932 18.238 21.7122 18.2694C21.0577 18.6639 20.419 19.0886 19.7387 19.4327C19.5639 19.5212 19.2613 19.3587 18.9195 19.2915C19.3218 18.749 19.6703 18.2795 20.0189 17.811C19.9976 17.7819 19.9763 17.7528 19.9561 17.7236C19.8194 17.7886 19.6771 17.8424 19.5482 17.9186C18.5194 18.5215 17.485 19.1166 16.4696 19.742C16.1615 19.9314 15.9261 19.956 15.6067 19.7622C14.3829 19.0158 13.1423 18.2963 11.9028 17.5634Z" fill="#110F23"/>
<path d="M12.9597 19.2948C11.7605 19.6983 11.2159 18.7065 10.4314 18.2997C10.7048 18.4229 10.9783 18.5462 11.4333 18.7513C11.3223 18.284 11.2517 17.9825 11.1778 17.6698C11.4098 17.4916 11.5812 17.4289 11.793 17.7528C12.1371 18.2761 12.5473 18.7558 12.9608 19.2948H12.9597Z" fill="#110F23"/>
<path d="M20.5019 15.9755L21.4041 15.8847C21.4377 15.9362 21.4713 15.9867 21.506 16.0382C21.3368 16.1716 21.1754 16.3161 20.9961 16.4349C20.9076 16.4932 20.7888 16.5235 20.6801 16.5324C20.4985 16.5481 20.3148 16.538 20.1321 16.538C20.1881 16.3643 20.2363 16.1884 20.3024 16.018C20.3282 15.953 20.3932 15.9026 20.4403 15.8455C20.4616 15.888 20.4817 15.9318 20.503 15.9743L20.5019 15.9755Z" fill="#110F23"/>
<path d="M11.8614 16.3956C11.7426 16.4797 11.617 16.6343 11.5352 16.6142C11.1957 16.529 10.8673 16.399 10.5423 16.2656C10.4773 16.2387 10.4089 16.1233 10.4112 16.0527C10.4145 15.981 10.5199 15.8465 10.5546 15.8543C10.9379 15.9429 11.3178 16.0493 11.6933 16.1648C11.7482 16.1816 11.7773 16.2768 11.8602 16.3956H11.8614Z" fill="#110F23"/>
</g>
<defs>
<clipPath id="clip0_14366_127">
<rect width="26" height="26" fill="white" transform="translate(3 3)"/>
</clipPath>
</defs>
</svg>
