<svg width="32" height="32" viewBox="0 0 32 32" fill="none" xmlns="http://www.w3.org/2000/svg">
<path d="M26.8701 14.9146C28.1224 14.2779 28.9051 13.155 28.7227 11.2859C28.4755 8.73065 26.2686 7.87379 23.4815 7.63015V6H21.3205V7.53717C20.752 7.53717 20.1729 7.54776 19.5962 7.55953V6H17.4387V7.67017H14.0878V9.67813H15.8827V21.8884H14.0878V23.8975H17.4376V25.4994H19.5962V23.934C20.1882 23.9469 20.7614 23.9516 21.3217 23.9505V25.4994H23.4803V23.9022C27.1114 23.6939 29.6525 22.7805 29.9679 19.3755C30.2233 16.633 28.931 15.409 26.8701 14.9146ZM19.648 10.096C20.8662 10.096 24.6961 9.70756 24.6973 12.2499C24.6961 14.6875 20.8674 14.4026 19.648 14.4026V10.096ZM19.6468 21.3258V16.5765C21.111 16.5765 25.7013 16.1564 25.7013 18.9494C25.7025 21.6294 21.111 21.3246 19.6468 21.3258Z" fill="#110F23"/>
<path d="M12.5624 14.1178H9.04202V17.6394H12.5624V14.1178Z" fill="#110F23"/>
<path d="M9.04202 17.6394L5.52041 17.6394V21.1598H9.042L9.04202 17.6394Z" fill="#110F23"/>
<path d="M9.042 10.5974H5.52041V14.1178L9.04202 14.1178L9.042 10.5974Z" fill="#110F23"/>
<path d="M5.52041 14.1178L2 14.1178V17.6394L5.52041 17.6394V14.1178Z" fill="#110F23"/>
</svg>
