<svg width="32" height="32" viewBox="0 0 32 32" fill="none" xmlns="http://www.w3.org/2000/svg">
<g clip-path="url(#clip0_4_1293)">
<path d="M20.0224 14.0464H18.9424L18.6016 15.6592H19.6336C19.888 15.6592 20.104 15.592 20.2912 15.4528C20.4832 15.3136 20.608 15.1168 20.6704 14.8576C20.6896 14.7568 20.6992 14.6656 20.6992 14.5888C20.6992 14.416 20.6464 14.2816 20.5456 14.1904C20.4448 14.0944 20.2672 14.0464 20.0224 14.0464Z" fill="#110F23"/>
<path d="M16 4C9.37264 4 4 9.37264 4 16C4 22.6274 9.37264 28 16 28C22.6274 28 28 22.6274 28 16C28 9.37264 22.6274 4 16 4ZM15.9856 15.1792C15.8944 15.712 15.7888 16.2352 15.6592 16.7392C15.448 17.56 15.088 18.1792 14.5696 18.5872C14.056 18.9904 13.3648 19.1872 12.5008 19.1872C11.7856 19.1872 11.2 19.0192 10.744 18.6832C10.2928 18.3424 10.0672 17.8528 10.0672 17.224C10.0672 17.0896 10.0816 16.9312 10.1104 16.7392C10.1872 16.3072 10.2976 15.7888 10.4416 15.1792C10.8496 13.528 11.9056 12.7024 13.6048 12.7024C14.0656 12.7024 14.4832 12.7792 14.848 12.9376C15.2128 13.0864 15.5008 13.3168 15.712 13.624C15.9232 13.9264 16.0288 14.2864 16.0288 14.704C16.0288 14.8288 16.0144 14.9872 15.9856 15.1792ZM22.3408 14.8768C22.192 15.568 21.8896 16.0768 21.4288 16.408C20.9776 16.7392 20.3584 16.9024 19.5712 16.9024H18.3568L17.944 18.8752C17.9296 18.9424 17.9008 18.9952 17.8432 19.0384C17.7904 19.0816 17.7328 19.1008 17.6704 19.1008H16.4464C16.3792 19.1008 16.3312 19.0816 16.2928 19.0384C16.264 18.9904 16.2544 18.9376 16.264 18.8752L17.5072 13.0192C17.5168 12.952 17.5504 12.8992 17.608 12.856C17.6608 12.8128 17.7184 12.7936 17.7808 12.7936H20.176C20.8432 12.7936 21.376 12.9328 21.7792 13.2064C22.1872 13.4848 22.3936 13.8832 22.3936 14.4064C22.3936 14.5552 22.3744 14.7136 22.3408 14.8768Z" fill="#110F23"/>
<path d="M13.4995 13.9936C13.1635 13.9936 12.8755 14.0944 12.6355 14.2912C12.4003 14.488 12.2323 14.7904 12.1315 15.2032C12.0211 15.6064 11.9155 16.096 11.8051 16.6816C11.7811 16.8016 11.7667 16.9264 11.7667 17.0608C11.7619 17.6176 12.0547 17.8912 12.6307 17.8912C12.9667 17.8912 13.2499 17.7904 13.4851 17.5936C13.7251 17.3968 13.8979 17.0944 13.9987 16.6816C14.1379 16.1152 14.2435 15.6256 14.3155 15.2032C14.3395 15.0784 14.3539 14.9488 14.3539 14.8144C14.3539 14.2672 14.0707 13.9936 13.4995 13.9936Z" fill="#110F23"/>
</g>
<defs>
<clipPath id="clip0_4_1293">
<rect width="24" height="24" fill="white" transform="translate(4 4)"/>
</clipPath>
</defs>
</svg>
