<svg width="32" height="32" viewBox="0 0 32 32" fill="none" xmlns="http://www.w3.org/2000/svg">
<path d="M5.28961 16.9512L4 19.4535H11.2201L14.8557 27.1832C14.8628 27.1991 14.8698 27.215 14.8778 27.2301C14.8875 27.2504 14.8972 27.2698 14.9087 27.2892C14.9113 27.2954 14.9149 27.3007 14.9184 27.3069C14.9299 27.3272 14.9414 27.3467 14.9546 27.3661C14.9643 27.3811 14.9749 27.397 14.9855 27.412C14.9891 27.4173 14.9926 27.4226 14.997 27.4279C15.0138 27.4509 15.0315 27.4738 15.0509 27.4968C15.0686 27.518 15.0871 27.5392 15.1074 27.5595C15.1101 27.5631 15.1145 27.5675 15.118 27.571C15.1375 27.5913 15.1578 27.6108 15.179 27.6293C15.1799 27.6311 15.1816 27.632 15.1825 27.6328C15.2055 27.6532 15.2293 27.6735 15.2541 27.692C15.2761 27.7097 15.2982 27.7256 15.3221 27.7415C15.3283 27.7459 15.3344 27.7503 15.3415 27.7547C15.3618 27.768 15.3821 27.7803 15.4042 27.7927C15.4095 27.7962 15.4157 27.7998 15.4219 27.8024C15.4413 27.8139 15.4607 27.8236 15.4811 27.8333C15.4943 27.8404 15.5076 27.8466 15.5208 27.8519C15.5261 27.8545 15.5314 27.8572 15.5376 27.859C15.5614 27.8704 15.5853 27.8802 15.6091 27.8881C15.6118 27.8899 15.6144 27.8908 15.6171 27.8908C15.6392 27.8996 15.6604 27.9067 15.6825 27.9128C15.6913 27.9164 15.701 27.919 15.7107 27.9217C15.7372 27.9287 15.7637 27.9349 15.7911 27.9411C15.8185 27.9473 15.8459 27.9517 15.8741 27.9552C15.8794 27.957 15.8856 27.9579 15.8909 27.9579C15.9183 27.9623 15.9457 27.965 15.9739 27.9667C16.004 27.9694 16.0349 27.9703 16.0649 27.9703H16.0667C16.0967 27.9703 16.1276 27.9694 16.1577 27.9667C16.1859 27.965 16.2133 27.9623 16.2407 27.9579C16.2469 27.9579 16.2522 27.957 16.2575 27.9552C16.2857 27.9517 16.3131 27.9473 16.3405 27.9411C16.3679 27.9349 16.3944 27.9287 16.4209 27.9217C16.4306 27.919 16.4394 27.9164 16.4492 27.9128C16.4712 27.9067 16.4924 27.8996 16.5145 27.8908C16.5172 27.8908 16.5198 27.8908 16.5225 27.8881C16.5463 27.8802 16.5702 27.8704 16.594 27.859C16.5993 27.8572 16.6055 27.8554 16.6108 27.8519C16.624 27.8466 16.6373 27.8404 16.6505 27.8333C16.6709 27.8236 16.6903 27.8139 16.7097 27.8024C16.7159 27.7998 16.7221 27.7962 16.7274 27.7927C16.7477 27.7812 16.7671 27.7697 16.7866 27.7565C16.7998 27.7494 16.8122 27.7406 16.8237 27.7318C16.836 27.7238 16.8484 27.715 16.8599 27.7053C16.8705 27.6982 16.8811 27.6903 16.8917 27.6805C16.9111 27.6664 16.9306 27.6505 16.9482 27.6328C16.95 27.6328 16.9509 27.6311 16.9526 27.6293C16.9738 27.6108 16.9941 27.5913 17.0136 27.571C17.0189 27.5666 17.0224 27.5622 17.0259 27.5578C17.041 27.5427 17.0542 27.5277 17.0675 27.5127C17.0798 27.4995 17.0913 27.4853 17.1019 27.4712C17.109 27.4632 17.1152 27.4553 17.1205 27.4473C17.1355 27.4288 17.1487 27.4094 17.162 27.389C17.1664 27.3837 17.1708 27.3776 17.1743 27.3714C17.1876 27.3519 17.2 27.3316 17.2114 27.3104C17.2167 27.3025 17.2212 27.2954 17.2247 27.2875C17.2353 27.2689 17.2459 27.2495 17.2547 27.2301C17.2627 27.2142 17.2697 27.1991 17.2768 27.1832L20.9124 19.4535H26.8658L28 16.9512H5.28961ZM16.0667 23.5317L14.1482 19.4535H17.9843L16.0667 23.5317Z" fill="#110F23"/>
<path d="M4 14.2545H26.8658L28 11.753H24.534L26.8208 6.88956C27.1326 6.22709 26.8482 5.43831 26.1857 5.12651C25.5241 4.8147 24.7345 5.09912 24.4235 5.7616L21.6058 11.753H10.5267L7.70895 5.7616C7.39715 5.09912 6.60837 4.8147 5.9459 5.12651C5.28343 5.43831 4.99901 6.22709 5.31081 6.88956L7.59854 11.753H5.28961L4 14.2545Z" fill="#110F23"/>
</svg>
