<svg width="32" height="32" viewBox="0 0 32 32" fill="none" xmlns="http://www.w3.org/2000/svg">
<g clip-path="url(#clip0_4_1415)">
<path d="M15.9997 16.02C13.1914 16.0167 10.4991 14.8996 8.51335 12.9139C6.52759 10.9281 5.41053 8.23578 5.40723 5.42749H8.74973C8.74973 7.35031 9.51356 9.19438 10.8732 10.554C12.2328 11.9137 14.0769 12.6775 15.9997 12.6775C17.9225 12.6775 19.7666 11.9137 21.1263 10.554C22.4859 9.19438 23.2497 7.35031 23.2497 5.42749H26.5922C26.5889 8.23578 25.4719 10.9281 23.4861 12.9139C21.5003 14.8996 18.808 16.0167 15.9997 16.02Z" fill="#110F23"/>
<path d="M26.44 18.04H5.5625V21.3825H26.44V18.04Z" fill="#110F23"/>
<path d="M15.9996 10.4775C17.3721 10.4775 18.4846 9.36493 18.4846 7.99251C18.4846 6.62008 17.3721 5.50751 15.9996 5.50751C14.6272 5.50751 13.5146 6.62008 13.5146 7.99251C13.5146 9.36493 14.6272 10.4775 15.9996 10.4775Z" fill="#110F23"/>
<path d="M15.9996 28.075C17.3721 28.075 18.4846 26.9624 18.4846 25.59C18.4846 24.2176 17.3721 23.105 15.9996 23.105C14.6272 23.105 13.5146 24.2176 13.5146 25.59C13.5146 26.9624 14.6272 28.075 15.9996 28.075Z" fill="#110F23"/>
</g>
<defs>
<clipPath id="clip0_4_1415">
<rect width="32" height="32" fill="white"/>
</clipPath>
</defs>
</svg>
