<svg width="32" height="32" viewBox="0 0 32 32" fill="none" xmlns="http://www.w3.org/2000/svg">
<path fill-rule="evenodd" clip-rule="evenodd" d="M28.0251 16.3756C27.6186 15.9284 27.1714 15.5625 26.7242 15.2373C25.8297 10.9278 22.5367 7.47209 18.3085 6.41505C19.2029 5.56129 19.5282 4.74818 19.2842 3.12197C19.2842 3.04066 19.2436 3 19.1623 3C19.1216 3 19.0809 3.04066 19.0403 3.08131C18.4305 4.5449 16.1131 5.11408 14.7308 5.52063C13.1859 5.96784 11.6817 6.57767 10.2181 7.30947C5.25812 9.87076 2.85945 15.6438 4.52632 20.9697L4.56698 21.0103C5.33943 23.409 6.88433 25.4418 8.9171 26.8647C14.3649 30.6863 21.1137 29.0601 25.3825 24.5067C25.4638 24.4254 25.3825 24.2628 25.2606 24.3034C25.0166 24.4254 24.732 24.5067 24.4881 24.5474C26.033 22.5959 26.9274 20.1566 26.9274 17.4733V17.4327C26.9274 17.0668 26.9274 16.7009 26.8868 16.335C27.212 16.3756 27.5779 16.4569 27.9032 16.4976C27.9845 16.5382 28.0251 16.4976 28.0658 16.4163C28.0658 16.4569 28.0658 16.4163 28.0251 16.3756ZM25.7891 14.7088C24.3661 14.0176 22.6993 13.8143 21.1137 14.1802C20.4632 14.3429 19.8127 14.5868 19.2436 14.912C18.959 15.0746 18.6744 15.2373 18.3492 15.3592C18.1459 15.4405 17.9426 15.5219 17.7393 15.5625C17.3734 15.6438 16.9669 15.7251 16.5603 15.7251C15.2593 15.7658 14.0397 15.1153 13.3079 14.0583C12.0882 12.2288 12.6574 10.0334 14.4869 8.81372C15.5033 8.20389 16.601 7.75668 17.5767 7.02488C21.6016 7.83799 24.7727 10.8465 25.7891 14.7088ZM26.1956 17.514C26.1956 20.2785 25.1386 22.8398 23.3904 24.71C23.1871 24.71 22.9432 24.6693 22.7399 24.6287C21.0731 24.3034 19.8127 23.0431 19.4875 21.3762C19.1216 19.5061 20.0973 17.5953 21.8455 16.7822C22.0081 16.7009 22.1708 16.6602 22.3334 16.5789C23.4311 16.213 24.8134 16.1723 26.1956 16.2943C26.155 16.7009 26.1956 17.1074 26.1956 17.514Z" fill="#110F23"/>
</svg>
