<svg width="32" height="32" viewBox="0 0 32 32" fill="none" xmlns="http://www.w3.org/2000/svg">
<path fill-rule="evenodd" clip-rule="evenodd" d="M23.112 18.2106C17.9552 18.2106 13.7759 14.0324 13.7759 8.88256C13.7759 6.18623 11.6008 4 8.88799 4C6.19958 4 4 6.18623 4 8.88256C4 11.579 6.17511 13.7652 8.88799 13.7652H8.91238C14.0447 13.7652 18.1996 17.9433 18.224 23.0931V23.1174C18.224 25.8138 20.3991 28 23.112 28C25.8249 28 28 25.8138 28 23.1174C27.9755 20.3968 25.8004 18.2106 23.112 18.2106Z" fill="#110F23"/>
<path fill-rule="evenodd" clip-rule="evenodd" d="M8.91241 18.2109C6.224 18.2109 4.02441 20.3972 4.02441 23.0935C4.02441 25.7899 6.19953 27.9761 8.91241 27.9761C11.6252 27.9761 13.8004 25.7899 13.8004 23.0935C13.7759 20.3972 11.6008 18.2109 8.91241 18.2109Z" fill="#110F23"/>
<path fill-rule="evenodd" clip-rule="evenodd" d="M23.1121 4C25.8117 4 28.0001 6.18597 28.0001 8.88256C28.0001 11.5791 25.8117 13.7652 23.1121 13.7652C20.4125 13.7652 18.2241 11.5791 18.2241 8.88256C18.2241 6.18597 20.4125 4 23.1121 4Z" fill="#110F23"/>
</svg>
