<svg width="32" height="32" viewBox="0 0 32 32" fill="none" xmlns="http://www.w3.org/2000/svg">
<path d="M27.2654 9.62748C27.2647 8.34403 26.7545 7.11334 25.847 6.20581C24.9395 5.29828 23.7088 4.78814 22.4254 4.78748H22.3979C21.1148 4.78814 19.8845 5.29793 18.9771 6.20493C18.0696 7.11192 17.5592 8.34196 17.5579 9.62498V14.89C17.0379 14.9325 16.4954 14.97 15.9304 15.0075L14.4304 15.1125V9.61248C14.4257 8.33336 13.9152 7.10803 13.0103 6.20402C12.1053 5.30002 10.8795 4.79077 9.60035 4.78748H9.57285C8.29027 4.7888 7.0606 5.29889 6.15368 6.20581C5.24676 7.11273 4.73668 8.3424 4.73535 9.62498V22.375C4.73668 23.6576 5.24676 24.8872 6.15368 25.7941C7.0606 26.7011 8.29027 27.2112 9.57285 27.2125H9.60035C10.8834 27.2118 12.1137 26.702 13.0211 25.795C13.9286 24.888 14.439 23.658 14.4404 22.375V17.125C14.9604 17.0816 15.5012 17.0425 16.0629 17.0075C16.5629 16.9725 17.0629 16.94 17.5629 16.9025V22.375C17.5642 23.658 18.0746 24.888 18.9821 25.795C19.8895 26.702 21.1198 27.2118 22.4029 27.2125H22.4304C23.7121 27.2098 24.9404 26.6992 25.8463 25.7924C26.7521 24.8856 27.2615 23.6567 27.2629 22.375V9.70248C27.2654 9.67748 27.2654 9.65248 27.2654 9.62748ZM9.57285 6.78748H9.60035C10.3531 6.78748 11.0751 7.08635 11.6077 7.61841C12.1402 8.15047 12.4397 8.87219 12.4404 9.62498V15.3075C11.1027 15.4438 9.79078 15.7669 8.54285 16.2675C7.88421 16.548 7.27415 16.9311 6.73535 17.4025V9.62498C6.73601 8.87263 7.03518 8.15128 7.56717 7.61929C8.09916 7.0873 8.8205 6.78814 9.57285 6.78748V6.78748ZM12.4404 22.375C12.4397 23.1278 12.1402 23.8495 11.6077 24.3815C11.0751 24.9136 10.3531 25.2125 9.60035 25.2125H9.57285C8.8205 25.2118 8.09916 24.9127 7.56717 24.3807C7.03518 23.8487 6.73601 23.1273 6.73535 22.375C6.73535 18.8925 8.83535 17.815 12.4404 17.33V22.375ZM19.5579 9.62498C19.5592 8.8724 19.8589 8.15106 20.3913 7.61914C20.9237 7.08722 21.6453 6.78814 22.3979 6.78748H22.4254C23.1777 6.78814 23.899 7.0873 24.431 7.61929C24.963 8.15128 25.2622 8.87263 25.2629 9.62498V9.70998C25.2304 13.1325 23.1354 14.1975 19.5579 14.68V9.62498ZM22.4254 25.2125H22.3979C21.6453 25.2118 20.9237 24.9127 20.3913 24.3808C19.8589 23.8489 19.5592 23.1276 19.5579 22.375V16.7025C20.8953 16.5698 22.2074 16.2491 23.4554 15.75C24.114 15.4694 24.7241 15.0864 25.2629 14.615V22.375C25.2622 23.1273 24.963 23.8487 24.431 24.3807C23.899 24.9127 23.1777 25.2118 22.4254 25.2125V25.2125Z" fill="#110F23"/>
</svg>
