<svg width="32" height="32" viewBox="0 0 32 32" fill="none" xmlns="http://www.w3.org/2000/svg">
<g clip-path="url(#clip0_4_1309)">
<path d="M26.9704 29.68H5.11035V13C5.11035 10.1012 6.2619 7.3211 8.31167 5.27133C10.3614 3.22156 13.1415 2.07001 16.0404 2.07001C18.9392 2.07001 21.7193 3.22156 23.769 5.27133C25.8188 7.3211 26.9704 10.1012 26.9704 13V29.68ZM5.61035 29.18H26.4704V13C26.4704 10.2338 25.3715 7.58089 23.4155 5.62488C21.4595 3.66888 18.8066 2.57001 16.0404 2.57001C13.2741 2.57001 10.6212 3.66888 8.66523 5.62488C6.70922 7.58089 5.61035 10.2338 5.61035 13V29.18Z" fill="#110F23"/>
<path d="M16.04 3.88251C14.853 3.88218 13.6775 4.1157 12.5807 4.56973C11.484 5.02376 10.4874 5.6894 9.64791 6.52865C8.80843 7.36789 8.14251 8.36429 7.68818 9.46093C7.23384 10.5576 7 11.733 7 12.92V27.8225H25.075V12.92C25.0753 11.7333 24.8419 10.5582 24.388 9.46169C23.9341 8.36523 23.2686 7.36892 22.4296 6.52968C21.5906 5.69044 20.5945 5.0247 19.4981 4.5705C18.4018 4.11629 17.2267 3.88251 16.04 3.88251V3.88251ZM11 26.8225V24.98C11.8786 25.8146 12.9314 26.4439 14.0825 26.8225H11ZM19.575 26.47C18.724 26.7047 17.8452 26.8233 16.9625 26.8225C14.7844 26.8225 12.6955 25.9573 11.1554 24.4171C9.61524 22.877 8.75 20.7881 8.75 18.61V13.42C8.74893 11.3203 9.48207 9.28623 10.8225 7.67001C15.585 8.20001 19.5725 10.7825 19.5725 15.67L19.575 26.47Z" fill="#110F23"/>
<path d="M10.3672 16.75C10.2843 16.75 10.2048 16.7171 10.1462 16.6585C10.0876 16.5999 10.0547 16.5204 10.0547 16.4375V14.72C10.0572 14.6609 10.0765 14.6038 10.1102 14.5552C10.1439 14.5066 10.1907 14.4686 10.2451 14.4456C10.2996 14.4226 10.3595 14.4154 10.4178 14.4251C10.4761 14.4347 10.5305 14.4607 10.5747 14.5L11.9072 15.685V15.03C11.9072 14.9471 11.9401 14.8676 11.9987 14.809C12.0573 14.7504 12.1368 14.7175 12.2197 14.7175C12.3026 14.7175 12.3821 14.7504 12.4407 14.809C12.4993 14.8676 12.5322 14.9471 12.5322 15.03V16.3675C12.5321 16.4278 12.5146 16.4868 12.4818 16.5373C12.449 16.5879 12.4022 16.6279 12.3472 16.6525C12.2924 16.6769 12.2317 16.6852 12.1724 16.6763C12.113 16.6675 12.0575 16.6419 12.0122 16.6025L10.6797 15.4175V16.4175C10.6824 16.4602 10.6764 16.503 10.6619 16.5432C10.6474 16.5835 10.6248 16.6203 10.5955 16.6515C10.5662 16.6827 10.5309 16.7075 10.4916 16.7244C10.4523 16.7414 10.41 16.7501 10.3672 16.75Z" fill="#110F23"/>
<path d="M16.9849 16.3425C16.902 16.3425 16.8225 16.3096 16.7639 16.251C16.7053 16.1924 16.6724 16.1129 16.6724 16.03C16.6777 15.9481 16.6661 15.866 16.6384 15.7888C16.6107 15.7116 16.5675 15.6408 16.5114 15.581C16.4553 15.5211 16.3875 15.4734 16.3122 15.4408C16.2369 15.4081 16.1557 15.3913 16.0736 15.3913C15.9916 15.3913 15.9104 15.4081 15.8351 15.4408C15.7598 15.4734 15.692 15.5211 15.6359 15.581C15.5798 15.6408 15.5365 15.7116 15.5088 15.7888C15.4811 15.866 15.4696 15.9481 15.4749 16.03C15.4749 16.1129 15.442 16.1924 15.3834 16.251C15.3247 16.3096 15.2453 16.3425 15.1624 16.3425C15.0795 16.3425 15 16.3096 14.9414 16.251C14.8828 16.1924 14.8499 16.1129 14.8499 16.03C14.8424 15.8647 14.8685 15.6995 14.9266 15.5445C14.9848 15.3895 15.0737 15.2479 15.1881 15.1283C15.3025 15.0086 15.4399 14.9134 15.5921 14.8483C15.7443 14.7832 15.9081 14.7497 16.0736 14.7497C16.2392 14.7497 16.403 14.7832 16.5552 14.8483C16.7074 14.9134 16.8448 15.0086 16.9592 15.1283C17.0736 15.2479 17.1625 15.3895 17.2206 15.5445C17.2787 15.6995 17.3049 15.8647 17.2974 16.03C17.2974 16.1129 17.2645 16.1924 17.2059 16.251C17.1472 16.3096 17.0678 16.3425 16.9849 16.3425Z" fill="#110F23"/>
<path d="M13.9275 20.15C13.4937 20.15 13.0776 19.9778 12.7705 19.6713C12.4635 19.3647 12.2907 18.9489 12.29 18.515C12.29 18.4321 12.323 18.3526 12.3816 18.294C12.4402 18.2354 12.5197 18.2025 12.6025 18.2025C12.6854 18.2025 12.7649 18.2354 12.8235 18.294C12.8821 18.3526 12.915 18.4321 12.915 18.515C12.915 18.7832 13.0216 19.0404 13.2112 19.2301C13.4009 19.4197 13.6581 19.5263 13.9263 19.5263C14.1945 19.5263 14.4517 19.4197 14.6414 19.2301C14.831 19.0404 14.9375 18.7832 14.9375 18.515C14.9375 18.4321 14.9705 18.3526 15.0291 18.294C15.0877 18.2354 15.1672 18.2025 15.25 18.2025C15.3329 18.2025 15.4124 18.2354 15.471 18.294C15.5296 18.3526 15.5625 18.4321 15.5625 18.515C15.5619 18.9484 15.3894 19.3639 15.0829 19.6704C14.7764 19.9769 14.361 20.1494 13.9275 20.15V20.15Z" fill="#110F23"/>
<path d="M16.0725 12.4825C15.621 12.4833 15.1786 12.6098 14.7949 12.8478C14.4113 13.0858 14.1014 13.4259 13.9 13.83C13.6545 13.4464 13.2732 13.1696 12.8325 13.055C12.7526 13.0396 12.6698 13.056 12.6018 13.1007C12.5338 13.1454 12.4859 13.2149 12.4683 13.2943C12.4507 13.3738 12.4648 13.457 12.5076 13.5262C12.5504 13.5954 12.6185 13.6452 12.6975 13.665C13.1975 13.7775 13.6425 14.3875 13.6425 14.975V17.78C13.6425 17.8629 13.6754 17.9423 13.734 18.001C13.7926 18.0596 13.8721 18.0925 13.955 18.0925C14.0379 18.0925 14.1173 18.0596 14.176 18.001C14.2346 17.9423 14.2675 17.8629 14.2675 17.78V14.9125C14.2675 14.4338 14.4577 13.9747 14.7962 13.6362C15.1347 13.2977 15.5938 13.1075 16.0725 13.1075C16.5512 13.1075 17.0103 13.2977 17.3488 13.6362C17.6873 13.9747 17.8775 14.4338 17.8775 14.9125C17.8775 14.9954 17.9104 15.0748 17.969 15.1335C18.0276 15.1921 18.1071 15.225 18.19 15.225C18.2729 15.225 18.3523 15.1921 18.411 15.1335C18.4696 15.0748 18.5025 14.9954 18.5025 14.9125C18.5018 14.2682 18.2456 13.6505 17.79 13.1949C17.3345 12.7394 16.7168 12.4831 16.0725 12.4825V12.4825Z" fill="#110F23"/>
</g>
<defs>
<clipPath id="clip0_4_1309">
<rect width="32" height="32" fill="white"/>
</clipPath>
</defs>
</svg>
