<svg width="32" height="32" viewBox="0 0 32 32" fill="none" xmlns="http://www.w3.org/2000/svg">
<path fill-rule="evenodd" clip-rule="evenodd" d="M25.3619 11.1466C25.6145 11.0123 25.8766 11.0547 26.2131 11.1612L26.161 11.3258C25.8293 11.2208 25.6287 11.2003 25.4428 11.299C25.2479 11.4025 25.0513 11.6455 24.7644 12.1332C24.5359 12.5216 24.3509 12.8191 24.1992 12.9965C24.1246 13.0839 24.0491 13.1531 23.9719 13.1838C23.9312 13.2001 23.887 13.2068 23.8419 13.1971C23.7968 13.1874 23.7589 13.1631 23.7278 13.1308L23.8519 13.0109C23.8646 13.0239 23.8733 13.0273 23.8782 13.0283C23.883 13.0293 23.8919 13.0298 23.908 13.0234C23.9442 13.009 23.9969 12.9676 24.068 12.8843C24.208 12.7206 24.3854 12.4368 24.6155 12.0456C24.9003 11.5617 25.1182 11.2759 25.3619 11.1466Z" fill="#110F23"/>
<path d="M4.80675 18.4416C4.80675 18.4416 4.28886 21.7355 8.03909 21.7355C11.7894 21.7355 13.9154 15.7151 15.4941 12.5057C17.0751 9.29355 19.8395 7 22.4835 7C25.1275 7 27.0356 9.16693 27.5943 10.3626C28.1531 11.5581 28.0646 13.0811 27.7488 14.0523C27.4331 15.0236 26.286 16.6337 25.8953 16.1796C25.5046 15.7257 26.386 15.1133 26.386 12.9596C26.386 10.8059 25.5319 10.9986 25.1593 11.3391C24.6142 11.9224 24.1462 13.4453 23.7464 13.1497C23.3807 12.8778 24.6142 10.1461 22.6017 10.1962C20.7276 10.2438 18.3494 16.1664 18.965 16.8791C19.5806 17.5944 21.0547 15.3351 21.534 15.8919C22.0133 16.4489 18.8037 20.9881 15.7349 22.7486C12.6661 24.509 10.3265 24.121 8.79092 23.9257C7.25542 23.7304 4.71817 22.9232 4.15029 20.8276C3.58242 18.7319 4.80675 18.4416 4.80675 18.4416Z" fill="#110F23"/>
<path d="M4.80675 18.4416C4.80675 18.4416 4.28886 21.7355 8.03909 21.7355C11.7894 21.7355 13.9154 15.7151 15.4941 12.5057C17.0751 9.29355 19.8395 7 22.4835 7C25.1275 7 27.0356 9.16693 27.5943 10.3626C28.1531 11.5581 28.0646 13.0811 27.7488 14.0523C27.4331 15.0236 26.286 16.6337 25.8953 16.1796C25.5046 15.7257 26.386 15.1133 26.386 12.9596C26.386 10.8059 25.5319 10.9986 25.1593 11.3391C24.6142 11.9224 24.1462 13.4453 23.7464 13.1497C23.3807 12.8778 24.6142 10.1461 22.6017 10.1962C20.7276 10.2438 18.3494 16.1664 18.965 16.8791C19.5806 17.5944 21.0547 15.3351 21.534 15.8919C22.0133 16.4489 18.8037 20.9881 15.7349 22.7486C12.6661 24.509 10.3265 24.121 8.79092 23.9257C7.25542 23.7304 4.71817 22.9232 4.15029 20.8276C3.58242 18.7319 4.80675 18.4416 4.80675 18.4416Z" fill="#110F23"/>
<path d="M8.04128 21.7355C11.7938 21.7355 13.9176 15.7151 15.4963 12.5057C17.075 9.29355 19.8395 7 22.4835 7C25.1276 7 26.4131 8.75782 26.4131 8.75782C26.4131 8.75782 24.5513 7.43302 21.9155 9.19326C19.2799 10.9536 18.3243 16.1084 18.9672 16.8791C19.5714 17.6049 21.0569 15.3351 21.5362 15.8919C22.0155 16.4488 19.56 20.4237 15.9984 22.7542C13.3495 24.4875 10.58 24.5924 8.8145 24.3398C7.04891 24.0871 4.70783 22.9734 4.13995 20.8778C4.01353 20.4113 4.00484 19.9908 4.00484 19.9908C4.00484 19.9908 4.28878 21.7355 8.04128 21.7355Z" fill="#110F23"/>
<path d="M25.0612 17.4463C25.2613 17.4463 25.4236 17.2723 25.4236 17.0578C25.4236 16.8432 25.2613 16.6693 25.0612 16.6693C24.861 16.6693 24.6987 16.8432 24.6987 17.0578C24.6987 17.2723 24.861 17.4463 25.0612 17.4463Z" fill="#110F23"/>
</svg>
