<svg width="32" height="32" viewBox="0 0 32 32" fill="none" xmlns="http://www.w3.org/2000/svg">
<g clip-path="url(#clip0_13991_865)">
<path d="M29.2239 15.4354C28.9739 14.4294 28.5993 13.7024 28.3026 13.2222C26.9591 11.0516 24.4152 9.47829 24.0791 9.29576C23.7429 9.11323 23.523 8.88818 23.3446 8.55216C23.1111 8.1114 21.6753 5.9335 20.2571 4.78232C19.6989 4.32911 18.7963 3.75248 17.404 3.41335C16.268 3.25468 15.4224 3.40402 14.9131 3.53884C11.7519 4.37578 9.59499 7.8179 9.3377 8.28459C9.04928 8.80625 8.69654 9.16198 8.17054 9.44303C6.53446 10.3163 5.13076 11.4654 4.16695 13.0863C3.72292 13.8331 3.54862 14.474 3.48948 14.7032C3.39922 15.0548 3.14193 16.1873 3.45317 17.5967C3.50608 17.8342 3.71773 18.6182 4.24269 19.5568C5.19612 21.2597 6.69008 22.5001 8.49008 23.4729C8.7951 23.6378 8.99326 23.8421 9.15614 24.147C9.28582 24.3886 11.2072 27.7011 13.7936 28.8512C15.5656 29.6394 17.3158 29.265 17.5565 29.2101C20.5133 28.537 22.581 25.4952 22.9493 24.8553C23.162 24.4851 23.3975 24.1698 23.6662 23.8929C24.1486 23.3961 24.6165 23.1379 24.7545 23.0591C25.4859 22.639 28.3991 20.6551 29.1264 17.8477C29.2581 17.3405 29.3909 16.5243 29.2218 15.4385L29.2239 15.4354ZM7.85515 12.154C7.25965 15.0102 7.26276 17.7834 7.88835 20.6654C4.31323 17.9171 4.92949 14.222 7.85515 12.154ZM20.4448 7.88946C20.4448 7.88946 20.4396 7.90813 20.4376 7.91746C20.4334 7.90398 20.4293 7.89153 20.4241 7.87805C20.4313 7.88116 20.4386 7.88427 20.4448 7.88946ZM12.5787 7.24957C13.6525 6.13988 14.8996 5.37554 16.5108 5.50621C18.1904 5.64103 19.4727 6.47797 20.4054 7.86664C19.9365 7.95791 19.5039 7.74945 19.0536 7.6893C16.8967 7.39788 14.7502 7.4238 12.6109 7.84486C12.4646 7.8739 12.3142 7.95583 12.1482 7.85627C12.1669 7.56692 12.4086 7.42484 12.5787 7.24957ZM9.68213 13.6236C10.8068 14.6015 10.9893 17.7315 9.70392 19.1523C9.39476 17.2835 9.38853 15.4696 9.68213 13.6236ZM16.6072 27.2334C14.6381 27.3838 13.2593 26.3332 12.1005 24.8543C14.8716 25.3884 17.6291 25.3915 20.4075 24.8636C19.4437 26.1589 18.261 27.1069 16.6062 27.2334H16.6072ZM21.6825 22.2584C19.3015 23.1265 16.85 23.3474 14.3175 23.0601C14.3383 22.9917 14.3373 22.9242 14.3663 22.9076C15.3415 22.3269 16.2763 21.6756 17.3397 21.2493C18.1095 20.9403 18.899 20.8231 19.7248 20.9185C20.1585 20.9683 20.6835 21.0181 20.7893 20.4663C20.8951 19.9187 20.3774 19.759 19.9717 19.6315C18.3118 19.1108 16.7286 19.3566 15.2191 20.177C14.5365 20.5483 13.8694 20.9475 13.1826 21.3105C12.4543 21.6963 11.6803 21.9224 10.8441 21.8737C10.6159 21.8602 10.4053 21.8477 10.3015 21.575C10.2009 21.3116 10.3274 21.1622 10.482 20.9828C12.8402 18.2366 12.8443 14.4657 10.4955 11.7651C10.1054 11.316 10.2787 10.6855 10.8721 10.4666C12.5092 9.86202 14.2096 9.59756 15.9484 9.554C16.7006 9.53533 17.4486 9.56956 18.2018 9.76142C16.5087 10.7633 14.9566 12.1021 12.78 11.8107C12.7458 11.8066 12.7115 11.8014 12.6773 11.7993C12.2831 11.7786 11.8536 11.7848 11.7405 12.2422C11.6232 12.7171 12.0279 12.9152 12.3879 13.0418C13.7625 13.524 15.1309 13.4877 16.4879 12.9412C17.4393 12.5585 18.2838 11.9818 19.1833 11.5048C19.9572 11.0941 20.7664 10.8141 21.6587 10.8587C21.8807 10.8701 22.1017 10.8659 22.2199 11.1314C22.3455 11.4114 22.2106 11.5743 22.0425 11.7682C19.6989 14.4574 19.6916 18.2604 22.0187 20.9506C22.4191 21.4132 22.2677 22.0458 21.6836 22.2584H21.6825ZM22.8372 19.1928C21.6473 17.8477 21.64 14.9967 22.8248 13.523C23.1371 15.4385 23.1464 17.2617 22.8372 19.1928ZM24.74 20.5317C25.2794 17.7554 25.2566 15.0019 24.7379 12.2235C26.0472 13.1662 26.9726 14.3609 27.1106 16.0027C27.2766 17.9804 26.2412 19.3826 24.7389 20.5317H24.74Z" fill="#110F23"/>
</g>
<defs>
<clipPath id="clip0_13991_865">
<rect width="26" height="26" fill="white" transform="translate(3.30481 3.34497)"/>
</clipPath>
</defs>
</svg>
