<svg width="32" height="32" viewBox="0 0 32 32" fill="none" xmlns="http://www.w3.org/2000/svg">
<path d="M6.78496 18.5636L6.88988 20.4749C6.89674 20.605 6.94554 20.7275 7.02787 20.8279C7.6034 21.5246 10.1837 23.9557 15.9984 23.9557C21.8131 23.9557 24.3622 21.556 24.9591 20.8409C25.049 20.7329 25.1009 20.5989 25.1092 20.458L25.2133 18.5649C25.9055 18.185 26.6202 17.7558 26.6202 17.7558C27.7438 17.1471 28.9977 18.0215 29 19.3041C29.0038 21.3792 27.3824 23.5116 25.1954 24.8555C22.7294 26.3708 19.0484 26.9994 16 26.9994C12.9516 26.9994 9.27057 26.3708 6.80458 24.8555C4.61758 23.5116 2.9962 21.3799 3.00001 19.3041C3.00229 18.0215 4.25625 17.1471 5.37986 17.7558C5.37986 17.7558 6.09327 18.184 6.78496 18.5636Z" fill="#100E21"/>
<path d="M15.9992 5C20.7536 5 22.0427 5.11103 23.9758 5.33308H23.975C24.8661 5.43568 25.5804 6.09878 25.5141 6.99695L24.802 16.6972C24.5792 16.7617 24.3362 16.8433 24.0637 16.9347C22.6354 17.4141 20.3963 18.1655 15.9992 18.1655C11.6021 18.1655 9.36309 17.4141 7.93477 16.9347C7.66199 16.8432 7.41875 16.7616 7.19573 16.697L6.48366 6.99695C6.41811 6.09878 7.13008 5.4196 8.02271 5.33308C9.93223 5.14778 11.9203 5 15.9992 5ZM7.53693 21.345L7.53943 21.3791L7.58856 21.3904C7.57099 21.3751 7.55377 21.36 7.53693 21.345ZM24.4141 21.3893L24.4583 21.3791L24.4606 21.3481C24.4454 21.3617 24.4298 21.3754 24.4141 21.3893Z" fill="#100E21"/>
</svg>
