<svg width="32" height="32" viewBox="0 0 32 32" fill="none" xmlns="http://www.w3.org/2000/svg">
<path d="M20.3333 5.16667V3H11.6667V5.16667H20.3333Z" fill="#110F23"/>
<path d="M11.6667 26.8333V29H20.3333V26.8333H11.6667Z" fill="#110F23"/>
<path d="M7.33333 9.5H5.16667V11.6667H7.33333V9.5Z" fill="#110F23"/>
<path d="M26.8333 9.5H24.6667V11.6667H26.8333V9.5Z" fill="#110F23"/>
<path d="M22.5 24.6667H20.3333V26.8333H22.5V24.6667Z" fill="#110F23"/>
<path d="M7.33333 20.3333H5.16667V22.5H7.33333V20.3333Z" fill="#110F23"/>
<path d="M9.5 7.33333H7.33333V9.5H9.5V7.33333Z" fill="#110F23"/>
<path d="M24.6667 7.33333H22.5V9.5H24.6667V7.33333Z" fill="#110F23"/>
<path d="M24.6667 22.5H22.5V24.6667H24.6667V22.5Z" fill="#110F23"/>
<path d="M9.5 22.5H7.33333V24.6667H9.5V22.5Z" fill="#110F23"/>
<path d="M11.6667 5.16667H9.5V7.33333H11.6667V5.16667Z" fill="#110F23"/>
<path d="M22.5 5.16667H20.3333V7.33333H22.5V5.16667Z" fill="#110F23"/>
<path d="M26.8333 20.3333H24.6667V22.5H26.8333V20.3333Z" fill="#110F23"/>
<path d="M11.6667 24.6667H9.5V26.8333H11.6667V24.6667Z" fill="#110F23"/>
<path d="M26.8333 11.6667V20.3333H29V11.6667H26.8333Z" fill="#110F23"/>
<path d="M5.16667 11.6667H3V20.3333H5.16667V11.6667Z" fill="#110F23"/>
<path d="M11.6667 11.6667V9.5H9.5V22.5H11.6667V13.8333H13.8333V11.6667H11.6667Z" fill="#110F23"/>
<path d="M20.3333 11.6667H18.1667V13.8333H20.3333V22.5H22.5V9.5H20.3333V11.6667Z" fill="#110F23"/>
<path d="M13.8333 13.8333V16H18.1667V13.8333H13.8333Z" fill="#110F23"/>
</svg>
