<svg width="32" height="32" viewBox="0 0 32 32" fill="none" xmlns="http://www.w3.org/2000/svg">
<path d="M14.1798 15.4062C14.1961 15.43 14.2224 15.4429 14.2491 15.4429C14.265 15.4429 14.2812 15.4383 14.2958 15.4288C14.3342 15.4029 14.3443 15.3511 14.3184 15.3127C13.8064 14.5525 12.923 14.4273 12.8859 14.4223C12.84 14.416 12.7982 14.4482 12.7924 14.4941C12.7866 14.54 12.8183 14.5817 12.8642 14.5879C12.8725 14.5892 13.7112 14.7098 14.1803 15.4062H14.1798Z" fill="#100E21"/>
<path d="M13.0578 15.4429C13.3941 15.4258 13.9629 15.4701 14.0584 15.6608C14.073 15.69 14.1026 15.7071 14.1331 15.7071C14.1456 15.7071 14.1586 15.7042 14.1702 15.6983C14.2116 15.6779 14.2282 15.6274 14.2074 15.5865C14.1294 15.4308 13.9061 15.3315 13.5439 15.2923C13.2898 15.2648 13.059 15.276 13.0494 15.2764C13.0035 15.2789 12.9681 15.3182 12.9702 15.3641C12.9723 15.41 13.0119 15.445 13.0578 15.4434V15.4429Z" fill="#100E21"/>
<path d="M13.1621 16.4682C13.1834 16.4682 13.2043 16.4603 13.2205 16.4444C13.2243 16.4406 13.6107 16.0668 14.106 15.9937C14.1515 15.9871 14.1832 15.9445 14.1765 15.899C14.1698 15.8535 14.1269 15.8218 14.0818 15.8285C13.5331 15.909 13.1208 16.3084 13.1037 16.3251C13.0707 16.3572 13.0703 16.4102 13.1024 16.4431C13.1187 16.4598 13.1404 16.4682 13.1621 16.4682Z" fill="#100E21"/>
<path d="M21.3436 15.7259C21.3628 15.6837 21.344 15.6345 21.3019 15.6153C20.7056 15.3449 20.1506 15.6228 20.1273 15.6349C20.0864 15.6557 20.0701 15.7058 20.091 15.7471C20.1056 15.7759 20.1352 15.7926 20.1652 15.7926C20.1778 15.7926 20.1907 15.7897 20.2028 15.7834C20.2078 15.7809 20.7115 15.531 21.2326 15.7676C21.2744 15.7864 21.324 15.768 21.3432 15.7259H21.3436Z" fill="#100E21"/>
<path d="M21.511 14.9827C21.5569 14.9827 21.5944 14.9455 21.5944 14.8996C21.5944 14.8537 21.5573 14.8162 21.5114 14.8158C21.5072 14.8158 21.5026 14.8158 21.4984 14.8158C20.4957 14.8158 20.0814 15.3349 20.0643 15.357C20.0359 15.3933 20.0426 15.4459 20.0789 15.4742C20.0939 15.4859 20.1122 15.4918 20.1298 15.4918C20.1548 15.4918 20.1794 15.4805 20.1957 15.4596C20.1995 15.455 20.5763 14.9827 21.4984 14.9827C21.5026 14.9827 21.5068 14.9831 21.511 14.9827Z" fill="#100E21"/>
<path d="M20.262 15.8898C20.2174 15.8777 20.1719 15.9044 20.1598 15.9487C20.1477 15.9933 20.1744 16.0388 20.2187 16.0509C20.4152 16.1035 20.9518 16.3 21.0762 16.5717C21.0903 16.6021 21.1204 16.6205 21.1521 16.6205C21.1638 16.6205 21.1755 16.618 21.1867 16.613C21.2285 16.5938 21.2472 16.5441 21.228 16.5024C21.0457 16.1039 20.2938 15.8986 20.262 15.8898Z" fill="#100E21"/>
<path d="M15.8606 13.2694C15.8953 13.2927 15.9362 13.3052 15.977 13.3052C15.9925 13.3052 16.0079 13.3036 16.0234 13.2998C16.078 13.2869 16.1256 13.2518 16.1531 13.203C16.2353 13.0586 16.3426 12.7557 16.1377 12.3493C16.0067 12.0897 15.8435 11.937 15.6532 11.8957C15.493 11.8606 15.3503 11.917 15.2702 11.9808C15.1951 12.0409 15.0386 12.1661 15.029 12.3426C15.0232 12.4465 15.0691 12.5475 15.1646 12.643C15.4813 12.9597 15.7154 13.1705 15.8606 13.2689V13.2694Z" fill="#100E21"/>
<path d="M18.5408 13.3599C18.5612 13.3682 18.5825 13.3724 18.6042 13.3724C18.6284 13.3724 18.6526 13.3674 18.6752 13.357C18.8596 13.2714 19.1638 13.0807 19.3286 12.9748C19.4158 12.9184 19.4634 12.8199 19.453 12.7173C19.4179 12.3768 19.2556 12.2232 19.1254 12.1544C19.0223 12.0997 18.8959 12.1081 18.7957 12.1753C18.247 12.5458 18.3685 13.0595 18.4465 13.2631C18.4632 13.3069 18.4978 13.3424 18.5412 13.3599H18.5408Z" fill="#100E21"/>
<path d="M13.1738 13.6211C13.1813 13.6674 13.2168 13.7037 13.2631 13.7121C13.3887 13.7346 13.7121 13.788 13.9967 13.7918C14.2654 13.7951 14.8245 13.8026 15.0532 14.0325C15.1634 14.1431 15.5356 14.4874 15.9015 14.4874C15.922 14.4874 15.9428 14.4861 15.9633 14.484C16.0134 14.4786 16.0555 14.4461 16.0743 14.3989C16.0931 14.3518 16.0839 14.2984 16.0509 14.26C15.9579 14.1515 15.7697 13.9332 15.629 13.7718L15.6157 13.7563C15.4192 13.5306 15.1746 13.2493 14.2441 13.3123C13.6274 13.3541 13.3524 13.4413 13.2305 13.5072C13.1897 13.5293 13.1667 13.5752 13.1742 13.6211H13.1738Z" fill="#100E21"/>
<path d="M18.2516 14.532C18.3096 14.5462 18.3651 14.5525 18.4189 14.5525C18.6601 14.5525 18.8654 14.4219 19.0841 14.2654C19.3491 14.0755 19.4972 14.0538 19.7421 14.0179L19.7513 14.0167C19.9203 13.9921 20.527 14 21.0382 14.0154C21.0849 14.0167 21.1279 13.9896 21.1463 13.9458C21.1646 13.9015 21.1533 13.8515 21.1179 13.8189C20.8183 13.5423 19.745 13.488 19.5331 13.4801C19.0086 13.4605 18.3722 14.1285 18.1894 14.3342C18.1611 14.3664 18.1519 14.4098 18.1644 14.4507C18.1773 14.4916 18.2099 14.522 18.2512 14.5324L18.2516 14.532Z" fill="#100E21"/>
<path d="M16.6326 15.8264C16.6927 15.8298 16.7578 15.8348 16.8383 15.8427C16.9022 15.8489 16.941 15.8577 16.9631 15.8857C16.9685 15.8923 16.9735 15.8994 16.9785 15.9065C16.9914 15.9241 17.0061 15.9445 17.0257 15.9633C17.0449 15.9816 17.0674 15.9958 17.0912 16.0067V16.4715C17.054 16.5228 16.9284 16.6768 16.6727 16.8295C16.3835 17.0019 15.8644 17.2076 15.0323 17.2076C14.4361 17.2076 14.0451 17.0874 13.9011 16.86C13.7738 16.6585 13.8811 16.426 13.8823 16.424C13.9024 16.3826 13.8853 16.3326 13.8435 16.3125C13.8022 16.2925 13.7521 16.3096 13.7321 16.3513C13.7259 16.3643 13.5827 16.6664 13.7588 16.9472C13.9366 17.231 14.3651 17.3745 15.0323 17.3745C16.3664 17.3745 16.9602 16.8767 17.1617 16.6497C17.3111 16.8855 17.7534 17.3758 18.8404 17.3758C18.8713 17.3758 18.903 17.3758 18.9347 17.3745C20.4323 17.3365 20.4795 16.6697 20.4807 16.6418C20.4828 16.5963 20.4477 16.5583 20.4023 16.5554C20.3564 16.5525 20.3175 16.5875 20.3138 16.633C20.3134 16.6384 20.2562 17.1742 18.9301 17.208C17.657 17.241 17.3057 16.5859 17.2577 16.4803V16.0238C17.2606 16.023 17.2635 16.0225 17.2664 16.0217C17.3294 16.0029 17.3703 15.9595 17.4029 15.9249C17.4129 15.914 17.4229 15.9036 17.4338 15.894C17.4834 15.8498 17.5414 15.8277 17.6119 15.8268C17.6382 15.8268 17.6683 15.8256 17.6996 15.8185C17.7605 15.8051 17.806 15.7688 17.8281 15.7158C17.8527 15.657 17.8439 15.5844 17.8043 15.5214C17.7117 15.3737 17.5222 15.2906 17.2414 15.2752C16.9668 15.2602 16.6238 15.3265 16.4832 15.5577C16.4469 15.6174 16.4419 15.6812 16.4694 15.7338C16.4982 15.7889 16.5575 15.8227 16.6318 15.8264H16.6326Z" fill="#100E21"/>
<path d="M19.7058 25.2013C19.685 25.0586 19.5819 24.6409 19.0824 24.3547C18.5963 24.0759 18.204 23.5735 18.1248 23.468C18.1248 23.4763 18.1256 23.4847 18.1256 23.4938C18.1277 23.5765 18.1269 23.6562 18.1231 23.7338C18.3 23.9437 18.6184 24.2808 18.9994 24.4995C19.4292 24.7457 19.5205 25.0958 19.5393 25.2159C19.4696 25.2714 19.3407 25.3933 19.3369 25.5343C19.3353 25.5915 19.3541 25.6749 19.4513 25.748C19.5026 25.7868 19.5585 25.8064 19.6136 25.8064C19.6499 25.8064 19.6854 25.798 19.7192 25.7805C19.8172 25.7304 19.8815 25.6136 19.879 25.4901C19.8765 25.3695 19.8139 25.2664 19.7058 25.2013Z" fill="#100E21"/>
<path d="M18.1177 23.8243C18.1168 23.836 18.116 23.8481 18.1152 23.8598C18.1081 23.9374 18.0972 24.01 18.0839 24.078C18.1936 24.2879 18.3113 24.6843 18.0764 25.223C18.0004 25.2543 17.8318 25.3378 17.7722 25.4855C17.7384 25.5681 17.7446 25.6587 17.7901 25.7467C17.8414 25.846 17.9345 25.9044 18.0405 25.9044C18.0434 25.9044 18.0467 25.9044 18.0497 25.9044C18.1682 25.9007 18.2762 25.8264 18.3251 25.715C18.3822 25.5844 18.3493 25.4267 18.2353 25.276C18.5771 24.4782 18.2203 23.9516 18.1181 23.8243H18.1177Z" fill="#100E21"/>
<path d="M22.3622 19.8552C22.3451 19.8331 22.3267 19.8114 22.3079 19.7897C22.2908 19.8097 22.2741 19.8302 22.257 19.8498C21.2218 21.0298 19.6491 21.3582 18.3943 21.5122L17.0883 21.5998L17.0277 21.682L16.9919 21.7313V21.7321C16.9919 21.7321 16.9818 21.7459 16.9697 21.7667C16.9539 21.7947 16.9339 21.8368 16.9234 21.8836C16.9764 21.8903 17.0282 21.8999 17.0791 21.9115C17.0849 21.9128 17.0908 21.9145 17.0966 21.9157C17.115 21.9203 17.1329 21.9249 17.1508 21.9299C17.1667 21.9345 17.1817 21.9391 17.1967 21.9437C17.2059 21.9466 17.2151 21.9491 17.2243 21.952C17.8285 22.1569 17.9645 22.8679 17.9704 22.898C17.9762 22.9293 17.9633 22.9614 17.9378 22.9802L17.9299 22.986C17.9345 22.9931 17.9382 22.9998 17.9424 23.0069C17.9474 23.0152 17.952 23.0236 17.9566 23.0319C17.9608 23.0398 17.9649 23.0474 17.9687 23.0549C17.9716 23.0607 17.9745 23.067 17.9775 23.0728C17.9825 23.0837 17.9871 23.0945 17.9912 23.1049C17.9933 23.1108 17.9954 23.1162 17.9975 23.1216C18.0004 23.1287 18.0029 23.1362 18.005 23.1429C18.0058 23.1458 18.0075 23.1496 18.0083 23.1525C18.0088 23.1533 18.0096 23.1542 18.01 23.1546C18.3755 22.7014 18.4169 21.8055 18.4173 21.7964C18.4194 21.7505 18.4557 21.7142 18.5041 21.7162C18.55 21.7183 18.5859 21.7571 18.5842 21.803C18.5825 21.8444 18.5379 22.8095 18.1085 23.2961C18.3063 23.2948 18.8946 23.2777 19.5773 23.1337C20.0555 22.4102 19.7125 21.6236 19.7092 21.6157C19.6904 21.5735 19.7092 21.5243 19.7509 21.5055C19.793 21.4867 19.8423 21.5055 19.861 21.5473C19.8765 21.5811 20.204 22.3271 19.8018 23.0824C20.3063 22.9581 20.8433 22.7615 21.3023 22.4511C21.3612 22.4114 21.4179 22.371 21.473 22.3305C21.8748 21.5598 21.5731 20.8416 21.5698 20.8345C21.5514 20.7924 21.571 20.7432 21.6132 20.7248C21.6553 20.7064 21.7046 20.7256 21.7229 20.7678C21.7354 20.7962 21.9891 21.3949 21.7467 22.1147C22.2696 21.6695 22.5792 21.1951 22.6309 20.7473C22.6647 20.4552 22.5913 20.1786 22.4127 19.9228C22.3964 19.8999 22.3793 19.8769 22.3618 19.8544L22.3622 19.8552Z" fill="#100E21"/>
<path d="M15.6633 22.4123C15.6633 22.4123 15.6641 22.4106 15.6641 22.4102C15.6541 22.4144 15.6436 22.4169 15.6332 22.4169C15.6082 22.4169 15.5836 22.4056 15.5673 22.3843C15.4054 22.1748 15.4108 21.8348 15.4242 21.6762C15.4279 21.6328 15.4321 21.6027 15.4333 21.5932C15.4333 21.5919 15.4333 21.5906 15.4338 21.5902C15.4404 21.5473 15.4788 21.518 15.521 21.5205C15.0762 21.4713 14.6272 21.3991 14.1753 21.3044C12.6839 20.9914 11.6549 20.3551 11.0298 19.3578C10.9894 19.2935 10.9506 19.228 10.9126 19.1621C10.9001 19.1671 10.8729 19.1784 10.8375 19.198C10.8162 19.2097 10.792 19.2243 10.7661 19.2418C10.5738 19.3728 10.295 19.6774 10.5045 20.275C10.5662 20.4515 10.6714 20.6393 10.8041 20.8279C10.686 20.2116 10.948 19.8335 11.0632 19.7021C11.0899 19.6716 11.1087 19.6541 11.1129 19.6503C11.1162 19.6474 11.12 19.6449 11.1237 19.6424C11.1575 19.6211 11.203 19.6261 11.2305 19.657C11.261 19.6908 11.2581 19.743 11.2251 19.7738C11.2251 19.7738 11.2247 19.7747 11.2243 19.7747C11.2201 19.7784 11.1976 19.7993 11.1675 19.8368C11.0411 19.9937 10.774 20.4456 11.0912 21.1913C11.3933 21.5372 11.7571 21.8635 12.0826 22.1035C11.7555 21.4079 11.967 20.772 12.025 20.623C12.0317 20.6059 12.0367 20.595 12.038 20.5913C12.0455 20.5746 12.058 20.5616 12.073 20.5529C12.0951 20.5404 12.1231 20.5379 12.1481 20.5491C12.1819 20.5642 12.2003 20.5992 12.1965 20.6343C12.1957 20.6426 12.1936 20.6509 12.1903 20.6593C12.1894 20.661 12.1807 20.6814 12.1686 20.7169C12.0985 20.9209 11.9095 21.6365 12.4089 22.328C12.822 22.5934 13.3411 22.8592 13.9528 23.0382C13.3778 22.3175 13.5251 21.4442 13.5322 21.4037C13.5389 21.367 13.5685 21.3403 13.604 21.3361C13.6119 21.3353 13.6203 21.3349 13.629 21.3361C13.6428 21.3386 13.6549 21.3445 13.6653 21.3528C13.6887 21.3712 13.7021 21.4016 13.6962 21.4329C13.6941 21.4459 13.531 22.4327 14.2512 23.1166C14.6293 23.2047 15.0386 23.2572 15.4767 23.2572C15.4842 23.2109 15.4968 23.1654 15.516 23.1216C15.516 23.1191 15.516 23.1166 15.516 23.1141C15.516 23.1133 15.516 23.1129 15.516 23.112C15.516 23.0987 15.516 23.0853 15.5168 23.0724C15.5168 23.072 15.5168 23.0711 15.5168 23.0707C15.5176 23.0574 15.5185 23.0444 15.5201 23.0315C15.5247 22.9914 15.5335 22.9531 15.5456 22.9172L15.5723 22.7165C15.5723 22.7165 15.5723 22.7165 15.5723 22.716C15.5756 22.6906 15.5802 22.6655 15.5852 22.6409C15.5861 22.6359 15.5873 22.6313 15.5881 22.6263C15.5936 22.6025 15.5994 22.5792 15.6061 22.5562C15.6073 22.5525 15.6086 22.5487 15.6098 22.5454C15.6161 22.5258 15.6228 22.507 15.6299 22.4882C15.632 22.4828 15.634 22.4769 15.6361 22.4715C15.6445 22.4515 15.6532 22.4319 15.6628 22.4127L15.6633 22.4123Z" fill="#100E21"/>
<path d="M15.5986 21.6161C15.5986 21.6161 15.594 21.6474 15.5902 21.6954C15.5794 21.8339 15.5744 22.1206 15.6991 22.2825C15.7083 22.2942 15.7133 22.3079 15.7154 22.3213C15.7238 22.3088 15.7321 22.2963 15.7413 22.2842C15.7471 22.2762 15.7534 22.2683 15.7596 22.2604C15.7672 22.2508 15.7751 22.2412 15.7834 22.2316C15.7943 22.2191 15.8055 22.2065 15.8172 22.1944C15.8247 22.1869 15.8318 22.179 15.8398 22.1719C15.8489 22.1632 15.8581 22.1548 15.8673 22.1465C15.8736 22.141 15.8798 22.136 15.8861 22.1306C15.9036 22.1156 15.9224 22.1014 15.9412 22.0876C15.9466 22.0839 15.952 22.0801 15.9574 22.0764C15.97 22.068 15.9821 22.0597 15.995 22.0513C16.1097 21.98 16.2454 21.9282 16.3989 21.8982C16.3997 21.8857 16.4002 21.8727 16.4014 21.861C16.4014 21.8585 16.4018 21.8565 16.4023 21.8544C16.4039 21.8414 16.4056 21.8289 16.4077 21.8168C16.4081 21.8135 16.4089 21.8101 16.4093 21.8072C16.4119 21.7939 16.4148 21.7809 16.4181 21.7688C16.4181 21.7688 16.4181 21.7684 16.4181 21.768C16.4194 21.7634 16.4206 21.7601 16.4219 21.7555C16.4244 21.7475 16.4265 21.7392 16.429 21.7321C16.429 21.7317 16.429 21.7309 16.4294 21.7304C16.4373 21.7075 16.4456 21.6883 16.4536 21.6724C16.4573 21.6649 16.4611 21.6582 16.4644 21.6524V21.5906L16.4886 21.5915C16.1719 21.5798 15.8523 21.5573 15.5306 21.5218C15.5731 21.5297 15.6019 21.569 15.5977 21.6119C15.5977 21.6136 15.5977 21.6149 15.5977 21.6165L15.5986 21.6161Z" fill="#100E21"/>
<path d="M17.9587 23.5014C17.9587 23.5014 17.9587 23.4997 17.9587 23.4989C17.9587 23.4976 17.9587 23.4968 17.9587 23.4959C17.957 23.4504 17.9554 23.4125 17.9533 23.387L17.9516 23.3662C17.8969 23.2719 17.5677 22.7549 16.8809 22.7269C16.8462 22.7256 16.8116 22.7248 16.7778 22.7248C16.3509 22.7248 15.985 22.835 15.7855 23.0261C15.6883 23.1195 15.6366 23.2285 15.6366 23.3407C15.6516 23.652 15.7667 24.4177 16.5137 24.7227C16.807 24.8429 16.9614 24.8187 17.0394 24.777C17.1074 24.7407 17.1312 24.6835 17.1375 24.6651V24.6514L16.9697 24.497L16.9464 24.4753C16.7211 24.2679 16.6309 23.9733 16.5975 23.8164C16.5587 23.6349 16.5441 23.387 16.6309 23.286C16.6927 23.2143 16.6856 23.1759 16.6309 23.0887C16.6046 23.0465 16.6038 22.9973 16.6284 22.9531C16.6735 22.8717 16.7974 22.8283 16.8913 22.8283H16.8926C16.9831 22.8283 17.0553 22.8667 17.0916 22.9326C17.1521 23.0432 17.0916 23.1559 17.0211 23.2865C16.9668 23.3874 16.8992 23.5135 16.8558 23.68C16.8229 23.8064 16.9051 24.0655 17.0757 24.373L17.188 24.575L17.2489 24.5963C17.3282 24.6247 17.4183 24.6293 17.516 24.6096C17.8202 24.5487 17.919 24.1594 17.9487 23.8435C17.9587 23.7359 17.962 23.6203 17.9587 23.5005V23.5014Z" fill="#100E21"/>
<path d="M16.6251 22.3075C16.9184 22.3075 17.2118 22.3664 17.4342 22.4761C17.5356 22.5258 17.6265 22.5804 17.7067 22.6388C17.7067 22.6388 17.7067 22.6388 17.7071 22.6388C17.6578 22.5329 17.5865 22.4144 17.4867 22.313C17.4859 22.3121 17.4851 22.3113 17.4842 22.3105C17.4755 22.3017 17.4663 22.2929 17.4571 22.2842C17.455 22.2821 17.4525 22.28 17.4504 22.2779C17.4417 22.27 17.4329 22.2625 17.4237 22.2545C17.4208 22.252 17.4175 22.2495 17.4146 22.247C17.4058 22.2399 17.3966 22.2328 17.3874 22.2257C17.3841 22.2232 17.3803 22.2203 17.377 22.2178C17.3678 22.2111 17.3582 22.2045 17.3486 22.1982C17.3449 22.1957 17.3411 22.1932 17.3369 22.1907C17.3269 22.1844 17.3173 22.1782 17.3069 22.1723C17.3031 22.1702 17.2994 22.1682 17.2956 22.1661C17.2848 22.1602 17.2739 22.1544 17.2631 22.149C17.2602 22.1477 17.2572 22.1465 17.2547 22.1452C17.228 22.1323 17.2001 22.1206 17.1709 22.1106C17.1634 22.1081 17.1554 22.106 17.1479 22.1035C17.1333 22.0989 17.1183 22.0943 17.1033 22.0901C17.0912 22.0868 17.0787 22.0835 17.0661 22.0805C17.0536 22.0772 17.0407 22.0743 17.0282 22.0718C17.0156 22.0689 17.0031 22.0663 16.9906 22.0638C16.9702 22.0601 16.9493 22.0563 16.9284 22.0534C16.9213 22.0522 16.9138 22.0513 16.9067 22.0501C16.8809 22.0467 16.855 22.0438 16.8287 22.0417C16.8279 22.0417 16.8275 22.0417 16.8266 22.0417C16.8254 22.0417 16.8237 22.0417 16.8224 22.0417C16.7995 22.0396 16.7765 22.0384 16.7532 22.0376C16.7457 22.0376 16.7386 22.0371 16.7311 22.0367C16.7148 22.0367 16.6989 22.0367 16.6827 22.0367C16.6789 22.0367 16.6751 22.0367 16.6714 22.0367C16.6651 22.0367 16.6589 22.0367 16.6526 22.0367C16.5996 22.0384 16.5466 22.043 16.4945 22.0505C16.4815 22.0522 16.4682 22.0547 16.4544 22.0568C16.4544 22.0568 16.454 22.0568 16.4536 22.0568C16.4127 22.0638 16.3685 22.0739 16.3226 22.0872C16.3196 22.088 16.3167 22.0889 16.3138 22.0901C16.2946 22.096 16.275 22.1027 16.2554 22.1097C16.2429 22.1143 16.2303 22.1189 16.2178 22.1239C16.212 22.1264 16.2057 22.1289 16.1999 22.1319C16.1823 22.1394 16.1652 22.1473 16.1481 22.1561C16.1469 22.1569 16.1452 22.1573 16.144 22.1581C16.1231 22.169 16.1031 22.1803 16.083 22.1928C16.083 22.1928 16.0822 22.1932 16.0818 22.1936C16.0734 22.199 16.0651 22.2049 16.0567 22.2107C16.0455 22.2182 16.0338 22.2262 16.0229 22.2345C16.0146 22.2408 16.0063 22.2474 15.9983 22.2541C15.9871 22.2633 15.9758 22.2729 15.9654 22.2829C15.9587 22.2892 15.952 22.2954 15.9453 22.3017C15.9282 22.3188 15.9115 22.3367 15.8961 22.3555C15.8961 22.3559 15.8953 22.3564 15.8948 22.3568C15.8794 22.376 15.8652 22.396 15.8519 22.4169C15.8502 22.4194 15.8485 22.4223 15.8469 22.4248C15.8335 22.4461 15.821 22.4682 15.8101 22.4911C15.8101 22.4916 15.8097 22.492 15.8093 22.4924C15.8085 22.4941 15.8076 22.4957 15.8064 22.4974C15.8064 22.4974 15.8068 22.4974 15.8072 22.4974C16.03 22.368 16.3276 22.3071 16.6255 22.3071L16.6251 22.3075Z" fill="#100E21"/>
<path d="M16.6585 21.8694C16.6714 21.8694 16.6843 21.8694 16.6973 21.8694C16.7156 21.8694 16.734 21.8694 16.7523 21.8694C16.7536 21.8694 16.7553 21.8694 16.7565 21.8694C16.7565 21.8686 16.7565 21.8681 16.7569 21.8677C16.7599 21.851 16.764 21.8348 16.7686 21.8189C16.769 21.8168 16.7699 21.8147 16.7703 21.8122C16.7749 21.7972 16.7799 21.7826 16.7853 21.7688C16.7857 21.7676 16.7861 21.7663 16.7866 21.7651C16.7649 21.7651 16.7444 21.7642 16.7231 21.7638C16.681 21.763 16.6384 21.7621 16.5971 21.7613C16.5971 21.7613 16.5971 21.7617 16.5971 21.7622C16.5959 21.7647 16.5946 21.768 16.5938 21.7709C16.5921 21.7755 16.5904 21.7801 16.5884 21.7851C16.5871 21.7889 16.5859 21.7926 16.5846 21.7968C16.5829 21.8026 16.5808 21.8089 16.5792 21.8156C16.5779 21.8197 16.5771 21.8243 16.5763 21.8289C16.5746 21.8364 16.5733 21.8448 16.5717 21.8531C16.5708 21.8577 16.57 21.8619 16.5696 21.8669C16.5696 21.8694 16.5687 21.8715 16.5683 21.874C16.5683 21.874 16.5683 21.874 16.5687 21.874C16.5808 21.8731 16.5934 21.8727 16.6055 21.8719C16.623 21.8711 16.6409 21.8694 16.6589 21.869L16.6585 21.8694Z" fill="#100E21"/>
<path d="M12.845 12.8671C12.9201 12.8825 12.9952 12.8992 13.0682 12.9234C13.1179 12.9401 13.2239 12.9656 13.2264 13.0328C13.2218 12.9209 13.2001 12.7982 13.1483 12.6985C13.0924 12.5909 12.9839 12.5099 12.8583 12.5249C12.7765 12.5349 12.6964 12.5892 12.6777 12.6731C12.6509 12.7912 12.7457 12.8471 12.845 12.8671Z" fill="#100E21"/>
<path d="M12.2433 13.4926C12.5925 13.5435 12.6943 13.2502 12.9055 13.2785C12.9055 13.2785 12.7194 13.1066 12.4093 13.1066C12.0993 13.1066 12.0217 13.4605 12.2433 13.4926Z" fill="#100E21"/>
<path d="M21.4567 13.3949C21.5531 13.3762 21.6516 13.3657 21.7501 13.3566C21.8798 13.344 22.0067 13.2952 21.98 13.1725C21.9612 13.0853 21.8606 13.0232 21.7551 13.006C21.5932 12.9798 21.4467 13.0532 21.367 13.1584C21.2931 13.256 21.2568 13.3795 21.2435 13.493C21.2514 13.425 21.3908 13.4075 21.4563 13.3949H21.4567Z" fill="#100E21"/>
<path d="M21.4041 13.7196C21.6345 13.7259 21.6925 14.0563 22.0747 14.0622C22.3163 14.0659 22.2946 13.6745 21.9637 13.6215C21.6328 13.5681 21.4045 13.72 21.4045 13.72L21.4041 13.7196Z" fill="#100E21"/>
<path d="M24.4853 7.51471C22.2187 5.24807 19.2051 4 16 4C12.7949 4 9.78135 5.24807 7.51471 7.51471C5.24807 9.78135 4 12.7945 4 16C4 19.2055 5.24807 22.2187 7.51471 24.4853C9.78135 26.7519 12.7945 28 16 28C19.2055 28 22.2187 26.7519 24.4853 24.4853C26.7519 22.2187 28 19.2055 28 16C28 12.7945 26.7519 9.78135 24.4853 7.51471ZM16 27.687C13.7934 27.687 11.6804 27.0787 9.85145 25.9428C9.7513 25.5798 9.50511 24.8108 9.22429 24.8108C9.13707 24.8108 9.02525 24.8696 8.8479 25.2452C8.46025 24.9439 8.08846 24.6167 7.73586 24.2641C6.89714 23.4254 6.20238 22.482 5.66242 21.463C5.09493 19.0649 4.98894 15.642 5.00814 14.1953C5.18798 14.9072 5.50261 15.0515 5.97663 15.0515C6 15.0515 6.02253 15.0507 6.04465 15.0494C6.11225 15.4392 6.58168 15.6219 7.50845 15.6219C8.58168 15.6219 8.76528 15.1104 8.797 14.9368C8.84457 14.9151 8.88713 14.8888 8.92468 14.8579C8.98769 14.8759 9.10453 14.9038 9.23889 14.9097C9.21135 15.1479 9.14918 15.8218 9.20426 16.6318C9.26726 17.5627 9.50303 18.8696 10.2641 19.8227C10.2662 19.7813 10.2708 19.7417 10.2775 19.7042C10.2842 19.667 10.2929 19.632 10.3034 19.5986C10.3806 19.3465 10.5529 19.188 10.6864 19.0983C10.7123 19.0812 10.7365 19.0661 10.7586 19.0536C10.7887 19.0369 10.8137 19.0244 10.832 19.0165C10.2712 17.9704 10.0392 16.769 10.1765 15.5919C10.3497 14.1089 11.0607 12.6868 12.1794 11.5877C13.1246 10.6589 14.3117 10.0033 15.5744 9.70248C15.5648 9.7609 15.5598 9.82057 15.5598 9.88024C15.5598 10.5921 16.2383 11.1709 17.072 11.1709C17.9057 11.1709 18.5842 10.5917 18.5842 9.88024C18.5842 9.82975 18.5804 9.77884 18.5738 9.72877C19.1817 9.89944 19.7667 10.1728 20.3125 10.547C21.5427 11.3895 22.5329 12.7019 23.1004 14.2429C23.8343 16.2353 23.5827 18.1949 22.4164 19.6603C22.4356 19.6816 22.454 19.7029 22.4715 19.7246C22.4899 19.7471 22.5078 19.7697 22.5245 19.7926C22.7019 20.0317 22.7957 20.2892 22.8058 20.5608C22.807 20.59 22.807 20.6192 22.8058 20.6489C22.8049 20.6777 22.8033 20.7069 22.8003 20.7361C23.0945 20.8475 24.8709 21.5464 25.7371 22.4703C25.3111 23.1087 24.8191 23.7096 24.2641 24.2646C22.0568 26.4719 19.1221 27.6875 16 27.6875V27.687ZM10.0801 11.4968C10.1882 11.9979 10.4031 12.6743 10.8149 13.1029C10.6572 13.387 10.5203 13.6804 10.4048 13.9804C10.0413 13.5443 9.7342 12.6877 9.55393 11.5944C9.38494 10.57 9.35698 9.48008 9.48425 8.88254C9.55435 8.55289 9.64573 8.48571 9.68162 8.47236C10.1143 8.30962 10.893 8.51116 11.7943 8.74484C12.1473 8.83622 12.5124 8.93094 12.8871 9.01189C13.8928 9.22846 14.4231 9.64615 14.613 9.82558C14.1114 10.0184 13.629 10.2671 13.1776 10.5658C12.9873 10.3956 12.2729 9.7947 11.3824 9.52139C10.7836 9.33778 10.4402 9.26935 10.2262 9.40371C10.058 9.50928 10.0038 9.72919 9.96954 9.95118C9.92364 10.2529 9.93991 10.8475 10.0797 11.4968H10.0801ZM8.41269 12.2207C8.49739 12.252 8.56624 12.2512 8.63301 12.2504C8.74776 12.2487 8.87711 12.247 9.16921 12.4185C9.59733 12.6701 9.90444 13.5944 9.80054 14.3201C9.77676 14.4874 9.71041 14.6021 9.59775 14.6706C9.42708 14.7745 9.18882 14.7465 9.04778 14.716C9.35114 14.2395 9.06113 13.3369 9.04611 13.2902C9.03192 13.2464 8.98477 13.2226 8.94096 13.2368C8.89714 13.251 8.87336 13.2981 8.88754 13.342C8.8888 13.3453 8.99228 13.6645 9.0144 14.0096C9.04235 14.4452 8.93344 14.7115 8.69059 14.7999C8.69059 14.7999 8.68976 14.7999 8.68934 14.7999C8.68934 14.7999 8.68892 14.7999 8.6885 14.7999C8.23075 14.9664 7.93324 14.8583 7.8043 14.7861C7.91321 14.6622 7.9879 14.507 8.01085 14.3338C8.06343 13.9332 8.04423 13.5927 7.95368 13.3211C7.93908 13.2773 7.89193 13.2535 7.84811 13.2681C7.8043 13.2827 7.78051 13.3299 7.79512 13.3737C7.87774 13.6211 7.89443 13.937 7.84519 14.3121C7.80013 14.6555 7.50344 14.9147 7.15502 14.9147C6.77112 14.9147 6.459 14.6025 6.459 14.2187V13.4233C6.459 13.3774 6.42145 13.3399 6.37555 13.3399C6.32965 13.3399 6.29209 13.3774 6.29209 13.4233V14.2187C6.29209 14.4219 6.36303 14.6084 6.4807 14.7561C6.38932 14.8078 6.2149 14.8834 5.97538 14.8834C5.60568 14.8834 5.30941 14.8212 5.1425 14.0413C5.1329 13.9962 5.08867 13.9675 5.04361 13.9771C5.03109 13.9796 5.02024 13.985 5.01106 13.9921C5.01356 13.8836 5.01732 13.7905 5.02149 13.7163C5.07866 12.6939 5.62946 12.2646 6.14897 12.2925C6.53912 12.3134 6.58168 12.2971 6.77196 12.1936C6.85583 12.1481 6.971 12.0855 7.17505 11.9992C7.65032 11.798 8.01001 12.0013 8.24786 12.136C8.31045 12.1715 8.3647 12.2024 8.41185 12.2195L8.41269 12.2207ZM16.1957 9.62278C16.1957 9.60943 16.1965 9.59649 16.1974 9.58356C16.1986 9.58356 16.1999 9.58356 16.2007 9.58314C16.2892 9.57062 16.3793 9.55977 16.469 9.55018C16.6664 9.52973 16.8629 9.51972 17.0586 9.51972C17.357 9.51972 17.6532 9.54392 17.9453 9.59065C17.9458 9.6015 17.9466 9.61235 17.9466 9.62278C17.9466 10.0234 17.5539 10.3493 17.0711 10.3493C16.5884 10.3493 16.1957 10.0234 16.1957 9.62278ZM23.9608 10.8458C23.9165 10.2708 23.8748 9.91029 23.6678 9.75422C23.5022 9.62946 23.2581 9.64824 22.8917 9.72293C22.1285 9.87857 21.1417 10.4957 20.8383 10.7315C20.6977 10.6176 20.5537 10.5099 20.4064 10.4089C20.0405 10.1581 19.6574 9.95118 19.2618 9.78886C19.4738 9.64114 20.1193 9.34279 21.0995 9.01565C22.2454 8.63301 23.1963 8.43188 23.5806 8.49072C23.9649 8.54955 24.1289 8.58752 24.2036 8.73232C24.2892 8.89798 24.2825 9.23138 24.2712 9.83643C24.2671 10.0484 24.2625 10.2888 24.2608 10.5708C24.2504 12.1778 23.5084 13.6862 23.2489 14.1648C23.168 13.9466 23.0782 13.7325 22.981 13.5239C23.1488 13.2673 24.0384 11.8535 23.9612 10.8467L23.9608 10.8458Z" fill="#100E21"/>
</svg>
