<svg width="32" height="32" viewBox="0 0 32 32" fill="none" xmlns="http://www.w3.org/2000/svg">
<path fill-rule="evenodd" clip-rule="evenodd" d="M15.9942 9.52035C16.3058 9.52035 16.6056 9.47089 16.8858 9.37955C17.3235 9.28276 17.7756 9.26171 18.2216 9.31778C18.726 9.3812 19.2126 9.54206 19.6531 9.791C20.0935 10.04 20.4791 10.3721 20.7874 10.7681C21.0705 11.1318 21.2833 11.5426 21.4156 11.9805C21.4765 12.2477 21.5794 12.5106 21.7267 12.7603C22.5054 14.0805 24.23 14.5328 25.5787 13.7706C26.9274 13.0084 27.3895 11.3203 26.6108 10.0001C25.9608 8.89814 24.6517 8.40084 23.4524 8.70986L23.4511 8.70514C22.9607 8.83706 22.4483 8.87233 21.9439 8.80891C21.4394 8.74548 20.9528 8.58462 20.5124 8.33566C20.0719 8.0867 19.6864 7.75459 19.3781 7.35861C19.0698 6.96264 18.8449 6.51068 18.7165 6.02896L18.7143 6.02956C18.3871 4.85972 17.2932 4 15.9942 4C14.6954 4 13.6017 4.85952 13.2743 6.02914L13.2736 6.02896C13.1452 6.51068 12.9204 6.96264 12.6121 7.35861C12.3038 7.75459 11.9182 8.0867 11.4778 8.33566C11.0373 8.58462 10.5508 8.74548 10.0463 8.80891C9.54183 8.87233 9.02952 8.83706 8.53908 8.70514L8.53803 8.70908C7.33828 8.39936 6.02849 8.89661 5.37826 9.99898C4.59958 11.3191 5.06168 13.0072 6.41041 13.7694C7.09966 14.159 7.88709 14.2313 8.59626 14.0327C9.06926 13.9131 9.5614 13.8829 10.0463 13.9439C10.5508 14.0073 11.0373 14.1681 11.4778 14.4171C11.9182 14.6661 12.3038 14.9982 12.6121 15.3942C12.9049 15.7703 13.1225 16.1969 13.2536 16.6516C13.553 17.8611 14.6665 18.7594 15.9942 18.7594C17.5516 18.7594 18.8141 17.5236 18.8141 15.9992C18.8141 14.4748 17.5516 13.239 15.9942 13.239C15.7119 13.239 15.4393 13.2796 15.1821 13.3552C14.7203 13.4672 14.241 13.4944 13.7686 13.435C13.2641 13.3716 12.7775 13.2107 12.3371 12.9617C11.8966 12.7128 11.5111 12.3807 11.2028 11.9847C11.1388 11.9025 11.0784 11.8179 11.0218 11.7311C10.9666 11.6223 10.9376 11.5021 10.9376 11.3797C10.9376 11.2505 10.9699 11.1236 11.0313 11.0101C11.0847 10.9289 11.1414 10.8498 11.2012 10.7726C11.5092 10.3759 11.8946 10.0431 12.3352 9.79346C12.7757 9.54385 13.2625 9.38243 13.7674 9.31858C14.2122 9.26231 14.6632 9.2828 15.0999 9.37865C15.3809 9.47057 15.6816 9.52035 15.9942 9.52035ZM26.6126 22.0004C27.3913 20.6802 26.9291 18.9921 25.5804 18.2299C24.2317 17.4677 22.5071 17.92 21.7284 19.2402C21.604 19.4512 21.5112 19.6716 21.4487 19.8961L21.4472 19.8957C21.3188 20.3774 21.0939 20.8294 20.7857 21.2254C20.4774 21.6213 20.0919 21.9534 19.6514 22.2024C19.2109 22.4514 18.7244 22.6123 18.2199 22.6756C17.7475 22.7351 17.2682 22.7079 16.8064 22.5959C16.5492 22.5203 16.2766 22.4797 15.9942 22.4797C15.7119 22.4797 15.4393 22.5203 15.1821 22.5959C14.7203 22.7079 14.241 22.7351 13.7686 22.6756C13.2641 22.6123 12.7775 22.4514 12.3371 22.2024C11.8966 21.9534 11.5111 21.6213 11.2028 21.2254C11.0294 21.0026 10.8823 20.7621 10.764 20.5085C10.7243 20.1349 10.6059 19.7632 10.4023 19.4165C9.62366 18.0902 7.89404 17.633 6.53913 18.3952C5.18421 19.1574 4.71709 20.8504 5.49577 22.1767C6.27446 23.5029 8.00408 23.9601 9.359 23.1979C9.38336 23.1842 9.40743 23.1702 9.43122 23.1559C9.63622 23.1493 9.8419 23.1588 10.0463 23.1845C10.5508 23.248 11.0373 23.4088 11.4778 23.6578C11.9182 23.9067 12.3038 24.2388 12.6121 24.6348C12.9049 25.0109 13.1225 25.4376 13.2536 25.8923C13.5531 27.1018 14.6665 28 15.9942 28C17.322 28 18.4354 27.1018 18.7349 25.8922C18.8661 25.4375 19.0836 25.0109 19.3764 24.6348C19.6847 24.2388 20.0702 23.9067 20.5107 23.6578C20.9512 23.4088 21.4377 23.248 21.9422 23.1845C22.4216 23.1242 22.908 23.1531 23.3761 23.2694C24.5963 23.621 25.9485 23.1263 26.6126 22.0004Z" fill="#110F23"/>
</svg>
