<svg width="32" height="32" viewBox="0 0 32 32" fill="none" xmlns="http://www.w3.org/2000/svg">
<path d="M28.5154 12.3525H26.1404C25.387 10.2577 24.006 8.44624 22.1856 7.16493C20.3652 5.88363 18.194 5.19486 15.9679 5.1925H7.35285V12.3525H4.48535V14.655H7.35285V17.345H4.48535V19.6475H7.35285V26.8075H15.9679C18.194 26.8052 20.3652 26.1164 22.1856 24.8351C24.006 23.5538 25.387 21.7423 26.1404 19.6475H28.5154V17.345H26.6904C26.8037 16.4519 26.8037 15.5481 26.6904 14.655H28.5154V12.3525ZM9.65785 7.5H15.9679C17.5759 7.50117 19.1507 7.9575 20.5102 8.81622C21.8698 9.67494 22.9584 10.901 23.6504 12.3525H9.65035L9.65785 7.5ZM15.9679 24.5H9.65785V19.6475H23.6579C22.9654 21.1002 21.8755 22.327 20.5146 23.1858C19.1536 24.0446 17.5771 24.5003 15.9679 24.5V24.5ZM24.4679 16C24.4675 16.4505 24.4316 16.9002 24.3604 17.345H9.65785V14.655H24.3654C24.4366 15.0998 24.4725 15.5495 24.4729 16H24.4679Z" fill="#110F23"/>
</svg>
