<svg width="32" height="32" viewBox="0 0 32 32" fill="none" xmlns="http://www.w3.org/2000/svg">
<path d="M28.7774 22.9105C28.766 22.8906 28.7525 22.8713 28.7354 22.8521L28.7269 22.8435C28.7147 22.8314 28.7026 22.8214 28.6884 22.8115L28.6513 22.7872C28.2687 22.5664 27.9289 22.3348 27.6396 22.1004C27.3796 21.8881 27.1544 21.6701 26.9706 21.4506C26.8402 21.2946 26.7462 21.1222 26.645 20.9291C26.526 20.7011 26.3864 20.4888 26.2788 20.3292C26.0344 19.968 25.7537 19.5961 25.3683 19.123C25.3269 19.0724 25.2842 19.0204 25.2407 18.9684C25.3846 18.9527 25.53 18.9306 25.6768 18.9043C26.1783 18.8117 26.8808 18.6236 27.1929 18.0571C27.2492 17.9538 27.2456 17.8313 27.1851 17.7344C27.1281 17.6346 27.0276 17.5784 26.9143 17.5784L26.858 17.5712C26.754 17.5556 26.6521 17.537 26.5681 17.5214C26.2382 17.458 25.8969 17.371 25.5528 17.2649C24.4534 16.9236 23.4973 16.427 22.7122 15.7901C22.1643 15.3455 21.7005 14.8296 21.3328 14.2561C21.3984 13.8742 21.4853 12.9437 20.9167 12.3481C20.8013 12.227 20.6524 12.1237 20.4878 12.0474C20.4914 11.6207 20.3589 11.2146 20.1074 10.8911C20.0304 10.7921 19.9143 10.661 19.7675 10.5491C19.7675 10.5334 19.7682 10.5178 19.7682 10.5014C19.7711 10.361 19.7632 10.2235 19.7554 10.0903L19.754 10.0696C19.7454 9.91359 19.7347 9.77181 19.7219 9.63786C19.7347 9.54596 19.7433 9.45618 19.749 9.36997C19.7604 9.16265 19.7611 8.89191 19.6699 8.63898C19.6122 8.47796 19.5189 8.34829 19.3999 8.25781L20.8092 8.00345C21.1925 7.93363 21.5765 7.86452 21.9598 7.79541C22.3381 7.72701 22.7164 7.65862 23.0948 7.59022C23.3904 7.53607 23.6598 7.43348 23.8956 7.28599C24.2953 7.03449 24.581 6.65261 24.7847 6.34838C25.0427 5.96293 25.2258 5.56039 25.3291 5.15285C25.4666 4.60853 25.4701 4.14969 25.3412 3.78847C25.2293 3.47641 25.0106 3.24129 24.7085 3.10948C24.3622 2.95844 23.9312 2.96414 23.5572 3.12373C23.4866 3.15366 23.4161 3.18358 23.3463 3.21422L21.5238 3.99865C20.6439 4.37768 19.7632 4.75672 18.8826 5.13575L17.9999 5.51621C17.7662 5.61667 17.5325 5.71713 17.2988 5.8183C17.2048 5.65728 17.0893 5.52334 16.9981 5.42929C16.7609 5.18705 16.4609 5.00181 16.1083 4.87855C15.8197 4.77738 15.497 4.71753 15.1479 4.70115C14.1547 4.65555 13.1779 4.90919 12.3963 5.41504C11.7244 5.84965 11.158 6.47306 10.7583 7.21831C10.4035 7.88162 10.2111 8.55704 10.2019 9.17119C10.2019 9.18901 10.2019 9.20611 10.2019 9.22392C10.1691 9.25527 10.1406 9.28448 10.1135 9.31369C10.1078 9.31939 10.1021 9.32651 10.0957 9.33364C9.77011 9.45476 9.50436 9.62433 9.30558 9.83807C9.09113 10.0689 8.94863 10.3532 8.88237 10.6831C8.87026 10.7415 8.86029 10.8035 8.85316 10.8683C8.81041 11.2523 8.85886 11.6613 9.00278 12.1166C8.70924 13.2772 8.14639 14.4314 7.28359 15.6419C6.71575 16.4377 6.0617 17.1929 5.33925 17.8876C5.21101 18.0123 5.07207 18.1441 4.92958 18.2645C4.8277 18.3507 4.79492 18.4903 4.84622 18.6193C4.89752 18.749 5.02006 18.8316 5.15472 18.8231C5.34566 18.8124 5.56582 18.7974 5.79595 18.7675C5.36062 19.2028 4.89538 19.6039 4.4109 19.9609C4.02332 20.2466 3.61863 20.508 3.20682 20.7368C3.11206 20.7681 3.0401 20.845 3.01374 20.9469C2.98881 21.0296 2.99807 21.1201 3.03939 21.197C3.08143 21.2747 3.15125 21.3295 3.23461 21.3516C3.58301 21.4457 3.93568 21.4998 4.26556 21.5447C5.10057 21.6573 5.93203 21.6843 6.7357 21.6259C7.11616 21.5981 7.49448 21.5504 7.86425 21.4834C7.77448 21.6722 7.66903 21.8767 7.53936 22.1111C7.03707 23.0224 6.45569 23.7933 5.81162 24.4017C5.34709 24.8406 4.8448 25.1904 4.32113 25.4419C4.20713 25.4953 4.14016 25.6136 4.14729 25.7447C4.14942 25.8744 4.22851 25.9834 4.34891 26.0269C4.86546 26.2862 5.45325 26.3952 5.90923 26.4607C7.22659 26.6524 8.62232 26.5177 10.058 26.0618C11.0419 25.7504 12.0486 25.2809 13.0532 24.6667C13.641 25.2467 14.32 25.734 14.8557 26.0995C16.535 27.2473 18.3647 28.0688 20.2933 28.5419C21.533 28.8461 22.8091 29 24.0936 29C24.2768 29 24.4606 28.9971 24.6437 28.9907C24.7306 28.9879 24.8104 28.9516 24.8695 28.8889C24.9244 28.8304 24.955 28.7521 24.9564 28.6715C24.9607 28.596 24.9386 28.5241 24.893 28.4671C24.8104 28.3082 24.7363 28.1308 24.6722 27.9384C24.5739 27.6456 24.4962 27.3114 24.4413 26.9445C24.39 26.6018 24.3879 26.2605 24.3858 25.8993C24.3843 25.6899 24.3829 25.4733 24.3715 25.2567C24.3437 24.7729 24.2846 24.2749 24.1955 23.7776C24.1856 23.7206 24.1756 23.6671 24.1656 23.6166C24.3223 23.6607 24.4919 23.7013 24.6814 23.7412C25.5193 23.9179 26.3308 23.9507 27.0924 23.8389C27.6275 23.7612 28.1455 23.6016 28.6314 23.3636L28.6706 23.3508L28.6934 23.328C28.823 23.2347 28.8594 23.053 28.7781 22.9105H28.7774ZM24.4492 28.534C23.0335 28.3132 21.6541 27.8843 20.3674 27.253C19.1918 26.6766 18.0961 25.9421 17.1036 25.0892C16.2614 24.3661 15.4913 23.5603 14.7966 22.6946C14.2964 22.0705 13.8348 21.4136 13.4222 20.7282C13.2968 20.5202 13.1757 20.3086 13.061 20.0941C13.0076 19.9944 12.962 19.8896 12.9064 19.792C12.9043 19.7877 12.9021 19.7835 12.9 19.7792C12.8622 19.698 12.7212 19.7172 12.7048 19.8048C12.6599 20.0428 12.5915 20.2779 12.5203 20.5088C12.345 21.0737 12.1234 21.6138 11.8491 22.1375C11.4879 22.8257 11.0405 23.4705 10.4918 24.0227C9.86701 24.6518 9.1125 25.1484 8.27463 25.4433C7.22231 25.8138 6.08521 25.8658 4.98729 25.7084C4.92245 25.6991 4.85833 25.6884 4.7935 25.6777C4.84907 25.6471 4.90393 25.6158 4.95808 25.5837H4.95879C5.50098 25.2609 5.9876 24.8527 6.4215 24.3939C6.43076 24.3839 6.43931 24.3739 6.44857 24.3647C6.5248 24.2834 6.59961 24.2001 6.673 24.116C6.68297 24.1046 6.69295 24.0925 6.70292 24.0811C6.77346 23.9992 6.84257 23.9158 6.91025 23.831C6.92806 23.8089 6.94516 23.7868 6.96226 23.7648C6.9872 23.7327 7.01285 23.7006 7.03778 23.6679C7.08409 23.6073 7.12898 23.5453 7.17387 23.484C7.19809 23.4513 7.22231 23.4178 7.24583 23.385C7.27646 23.3415 7.30639 23.2981 7.33702 23.2539C7.38761 23.1805 7.43677 23.1064 7.48593 23.0323C7.49519 23.0181 7.50516 23.0031 7.51443 22.9889C7.58639 22.8763 7.65692 22.7616 7.72674 22.6447C7.76379 22.5821 7.79942 22.5194 7.83504 22.4559C7.8614 22.4103 7.88776 22.3655 7.91341 22.3191C7.93407 22.2814 7.95402 22.2451 7.97397 22.2087C7.98751 22.1831 8.00176 22.1581 8.01529 22.1325C8.02384 22.1161 8.03239 22.1004 8.04094 22.084C8.13641 21.9009 8.22619 21.715 8.31097 21.5269C8.37866 21.3773 8.44492 21.2269 8.5012 21.0723C8.5012 21.0723 8.5012 21.0723 8.5012 21.0716C8.52614 21.0139 8.54965 20.9562 8.57245 20.8978C8.78334 20.3734 8.94436 19.8248 9.08828 19.2797C9.11036 19.1971 9.00991 19.1016 8.93153 19.1593C8.57886 19.4173 8.19484 19.6388 7.8101 19.844C6.96867 20.2936 6.07025 20.6534 5.13263 20.8415C4.65314 20.9377 4.16296 20.9833 3.6742 20.9626C3.69415 20.9505 3.7141 20.9377 3.73405 20.9256C3.81171 20.8792 3.88866 20.8315 3.96489 20.7831C4.01334 20.7524 4.06108 20.7218 4.10881 20.6912C4.15298 20.6627 4.19645 20.6327 4.24062 20.6035C4.95594 20.1247 5.62281 19.5662 6.21915 18.9477C6.23198 18.9342 6.24551 18.9207 6.25905 18.9071C6.30251 18.8622 6.34312 18.8188 6.38302 18.7767C6.46709 18.6863 6.54974 18.5951 6.63025 18.5024C6.69437 18.4291 6.75778 18.355 6.81763 18.278C6.8903 18.1989 6.96012 18.1177 7.02852 18.0351C7.47595 17.4893 7.82293 16.8581 8.07158 16.2004C8.09295 16.1442 8.11362 16.0879 8.13214 16.0302C8.17204 15.9055 8.00461 15.8585 7.93692 15.9475C7.93407 15.9511 7.93122 15.9546 7.92837 15.9582C7.92267 15.966 7.91626 15.9739 7.91056 15.9817C7.87565 16.0266 7.84003 16.0715 7.8044 16.1157C7.67901 16.2724 7.55076 16.4263 7.41967 16.5781C7.0442 17.0127 6.64949 17.4337 6.21773 17.8128C5.9819 18.0201 5.73325 18.2153 5.4618 18.3742C5.4618 18.3742 5.4618 18.3742 5.46108 18.3742C5.45752 18.3742 5.45396 18.3742 5.4504 18.3749C5.70831 18.1398 5.95411 17.8904 6.19208 17.6354C6.26546 17.557 6.33814 17.4772 6.41081 17.3981C6.61956 17.168 6.82333 16.9321 7.02068 16.6906C7.02211 16.6892 7.02353 16.6871 7.02496 16.6856C7.10689 16.5852 7.1874 16.4826 7.2672 16.38C7.29712 16.3415 7.32705 16.3023 7.35697 16.2631C7.40542 16.1997 7.45315 16.1349 7.50018 16.0708C7.54221 16.0131 7.58496 15.9561 7.627 15.8976C7.69183 15.8072 7.75595 15.7152 7.81865 15.6226C7.84929 15.5785 7.87921 15.5336 7.90842 15.4887C7.97896 15.3832 8.04878 15.2771 8.11575 15.1688C8.11647 15.1674 8.11718 15.1659 8.1186 15.1645C8.28318 14.9009 8.4385 14.6309 8.58385 14.3559C8.86029 13.8308 9.09683 13.2836 9.27637 12.7179C9.27922 12.7079 9.28278 12.6986 9.28563 12.6887C9.30558 12.6245 9.32482 12.5604 9.34334 12.4956C9.34762 12.4821 9.35189 12.4678 9.35545 12.4543C9.38467 12.5248 9.4153 12.5939 9.44665 12.6623C9.5008 12.7806 9.55922 12.8981 9.62477 13.0114C9.62904 13.0278 9.63759 13.0421 9.65042 13.0542C9.69245 13.1097 9.76441 13.1026 9.80716 13.0649C9.81144 13.0613 9.815 13.0577 9.81856 13.0535C9.82141 13.0506 9.82426 13.0478 9.82711 13.0442C10.3052 12.4044 10.717 11.6741 10.8581 10.8783C10.9286 10.48 10.9364 10.0547 10.8139 9.66423C10.7918 9.59369 10.7661 9.52031 10.7298 9.45547C10.712 9.42412 10.6814 9.40774 10.6479 9.40489C10.6571 9.39776 10.6664 9.38921 10.6757 9.38209C11.0761 9.0686 11.5798 8.79928 12.0507 8.56631C12.1947 8.49506 12.34 8.42666 12.4868 8.35969C12.278 8.71379 12.2053 9.17404 12.2053 9.55308C12.2053 9.583 12.2053 9.61221 12.2068 9.64214C11.718 9.79675 11.3717 10.3218 11.2065 10.77C11.0426 11.2146 10.9379 11.766 11.1195 12.2213C11.2385 12.5177 11.4743 12.7371 11.765 12.8611C11.9375 12.9345 12.1298 12.9851 12.3179 12.99C12.3528 12.9908 12.3949 12.9701 12.4105 12.9373C12.7532 12.2013 13.3595 11.6029 14.2117 11.5943C14.4845 11.5915 14.7617 11.6442 15.0139 11.7511C15.1122 11.7924 15.2098 11.8437 15.296 11.9064C15.3566 11.9505 15.3972 11.9954 15.4321 12.0467C15.5012 12.15 15.5725 12.2533 15.6444 12.3559C15.6523 12.3666 15.6594 12.378 15.6672 12.3887C16.0128 12.8725 16.4047 13.3285 16.9297 13.6241C17.2945 13.8293 17.732 13.9505 18.1509 13.8828C18.2977 13.8593 18.4281 13.803 18.5435 13.7253C18.5599 13.721 18.5756 13.7125 18.5905 13.6968C18.5955 13.6911 18.6005 13.6854 18.6062 13.6804C18.718 13.5935 18.8157 13.4852 18.8976 13.362C19.0565 13.124 19.1548 12.8483 19.3279 12.6196C19.5217 12.3631 19.7982 12.3004 20.1052 12.3709C20.7999 12.5312 20.9744 13.2387 20.9438 13.865C20.9367 14.0117 20.9075 14.1414 20.8932 14.2846C20.8932 14.2875 20.8932 14.2896 20.8925 14.2924C20.8897 14.3224 20.8968 14.353 20.9089 14.3829C20.9381 14.457 21.0001 14.5297 21.0393 14.5881C21.1048 14.6864 21.1732 14.7833 21.2438 14.8781C21.2815 14.928 21.3214 14.9764 21.3606 15.0256C21.3841 15.0555 21.4069 15.0854 21.4311 15.1153C21.4725 15.1666 21.5159 15.2158 21.5594 15.2657C21.585 15.2956 21.6114 15.3255 21.6378 15.3547C21.6598 15.3797 21.6805 15.4053 21.7033 15.4295C21.7275 15.4559 21.7532 15.4801 21.7774 15.5058C21.7995 15.5293 21.8223 15.5521 21.8451 15.5749C21.8893 15.6205 21.9349 15.6654 21.9805 15.7095C22.0189 15.7466 22.0581 15.7829 22.098 15.8193C22.1294 15.8485 22.1607 15.8777 22.1928 15.9062C22.6765 16.3344 23.2173 16.6985 23.7887 16.9984C23.9868 17.1024 24.1905 17.2 24.3972 17.2919C25.0405 17.5762 25.7202 17.7971 26.4099 17.9275C25.5521 18.1149 24.6259 18.0522 23.8856 17.5442C23.8607 17.5271 23.8364 17.51 23.8122 17.4914C23.7901 17.4751 23.8058 17.4865 23.803 17.4843C23.7958 17.4786 23.7887 17.4729 23.7816 17.4672C23.7673 17.4551 23.7531 17.4437 23.7395 17.4309C23.6555 17.3518 23.4973 17.4587 23.5714 17.5606C23.8265 17.9089 24.0872 18.2545 24.3622 18.5879C24.4043 18.6385 24.4456 18.6898 24.4884 18.7404C24.4933 18.7461 24.4983 18.7525 24.5033 18.7589C24.5119 18.7689 24.5204 18.7782 24.529 18.7881C25.0035 19.3246 25.458 19.8868 25.8649 20.4767C25.9368 20.5807 26.0066 20.6855 26.0736 20.7923C26.1299 20.8821 26.184 20.9726 26.2353 21.0652C26.2938 21.1714 26.3472 21.2761 26.4063 21.3787C26.4562 21.4656 26.5089 21.5504 26.5716 21.6316C26.5716 21.6316 26.573 21.633 26.573 21.6338C26.8758 22.0256 27.2634 22.3484 27.6603 22.6412C27.8085 22.7502 27.9595 22.8564 28.1141 22.9568C28.112 22.9568 28.1099 22.9568 28.1084 22.9568C26.8994 22.8998 25.7309 22.5229 24.7206 21.8432C23.9989 21.3573 23.3534 20.7225 22.8582 20.0236C22.762 19.8882 22.6673 19.7493 22.5882 19.6032C22.5212 19.4792 22.3509 19.5882 22.4037 19.7108C22.4436 19.8041 22.4585 19.8397 22.5006 19.9402C22.5875 20.1497 22.6737 20.3599 22.7578 20.57C22.9836 21.1364 23.2009 21.7064 23.389 22.2864C23.4816 22.5728 23.57 22.8628 23.6284 23.1592C23.6419 23.2097 23.6541 23.2618 23.6669 23.313C23.8172 23.9222 23.8999 24.5549 23.9405 25.1783C23.9419 25.1982 23.9426 25.2182 23.9433 25.2374C23.9455 25.2766 23.9476 25.3165 23.949 25.3557C23.9504 25.3863 23.9512 25.417 23.9519 25.4476C23.9618 25.8024 23.954 26.1572 23.9732 26.5113C23.9804 26.6424 23.9903 26.7735 24.0074 26.9046C24.063 27.3293 24.1606 27.7475 24.3038 28.1514C24.3494 28.2804 24.3986 28.4094 24.4549 28.5355C24.4542 28.5355 24.4527 28.5355 24.452 28.5355L24.4492 28.534ZM9.62121 10.1245C9.63261 10.1124 9.64472 10.101 9.65612 10.0896C9.67607 10.0703 9.69673 10.0511 9.71739 10.0333C9.73805 10.0155 9.75871 9.99909 9.78009 9.9827C9.79932 9.96845 9.81856 9.9542 9.8378 9.94066C9.85917 9.9257 9.88055 9.91217 9.90263 9.89863C9.91118 9.89364 9.91973 9.88865 9.92828 9.88367C10.0551 9.80814 10.1919 9.74901 10.3337 9.7027C10.4135 9.67634 10.494 9.65354 10.5752 9.6343C10.5816 9.6514 10.588 9.6685 10.5944 9.6856C10.6386 9.81527 10.6678 9.96133 10.6807 10.0824C10.7362 10.6168 10.6094 11.1554 10.4035 11.6463C10.2325 12.0546 10.0024 12.4357 9.74518 12.7955C9.60054 12.5291 9.49154 12.2526 9.40461 11.9612C9.32411 11.6919 9.26497 11.3962 9.26711 11.1063C9.26711 11.0892 9.26711 11.0721 9.26782 11.055C9.26782 11.0471 9.26853 11.04 9.26924 11.0329C9.28136 10.7465 9.35617 10.4686 9.53357 10.2314C9.53927 10.2235 9.5464 10.2164 9.55281 10.2086C9.5749 10.1801 9.59841 10.1523 9.62263 10.1266L9.62121 10.1245ZM11.1309 7.42493C11.1737 7.34513 11.2186 7.26747 11.2656 7.18981C11.2663 7.18839 11.2677 7.18625 11.2684 7.18482C11.3126 7.11215 11.3589 7.04162 11.4067 6.97179C11.4124 6.96396 11.4181 6.95541 11.4238 6.94686C11.4672 6.88416 11.5128 6.82289 11.5591 6.76304C11.5712 6.74737 11.5834 6.73098 11.5962 6.7153C11.6375 6.66329 11.6795 6.61271 11.723 6.56284C11.7429 6.54004 11.7629 6.51652 11.7836 6.49373C11.8213 6.45169 11.8605 6.41037 11.9004 6.36976C11.9275 6.34197 11.9546 6.31418 11.9823 6.28711C12.0187 6.25149 12.0557 6.21729 12.0935 6.18309C12.1284 6.15174 12.1633 6.12039 12.1996 6.09047C12.2346 6.06126 12.2695 6.03204 12.3051 6.00355C12.3222 5.99001 12.3393 5.97505 12.3564 5.96151C12.4276 5.90665 12.501 5.85606 12.5751 5.8069C12.5958 5.79337 12.6164 5.77912 12.6371 5.76558C12.6449 5.76059 12.6528 5.75632 12.6599 5.75133C12.9499 5.57036 13.2598 5.43072 13.5825 5.32883C13.1458 5.64873 12.8366 6.1097 12.6756 6.6291C12.5288 7.10289 12.5032 7.60732 12.5388 8.09964C12.0165 8.33262 11.5014 8.58626 11.0162 8.88763C10.8873 8.96814 10.7547 9.0515 10.6286 9.14341C10.6286 9.14341 10.6279 9.14341 10.6272 9.14412C10.6343 8.79501 10.712 8.44519 10.8274 8.11317C10.8317 8.10177 10.8353 8.09037 10.8395 8.07898C10.8609 8.01984 10.883 7.9607 10.9065 7.90299C10.9122 7.88875 10.9179 7.87378 10.9236 7.85882C10.95 7.7947 10.9778 7.73129 11.007 7.6693C11.0084 7.66574 11.0105 7.66218 11.012 7.65933C11.049 7.58025 11.0882 7.50187 11.1295 7.42493H11.1309ZM16.7509 5.7898C16.7616 5.80192 16.7723 5.81403 16.7823 5.82614C16.8328 5.88741 16.8784 5.95225 16.9212 6.02492C16.949 6.07265 16.9739 6.12253 16.9967 6.17311C16.9967 6.17383 16.9974 6.17525 16.9981 6.17739C16.7082 6.30207 16.4182 6.42747 16.1275 6.55215C15.4656 6.83714 14.8037 7.12213 14.1418 7.40711C14.129 7.40996 14.1176 7.41495 14.1084 7.42136C14.0243 7.4577 13.9395 7.49404 13.8554 7.53037C13.646 7.62086 13.4365 7.71063 13.227 7.80111C13.1088 7.83745 12.9898 7.88162 12.885 7.94361C12.8779 7.94788 12.8715 7.95287 12.8644 7.95714C12.8622 7.95786 12.8608 7.95857 12.8587 7.95928C12.8216 7.97495 12.7846 7.99134 12.7475 8.00773C12.7076 7.28813 12.8131 6.53647 13.2541 5.94655C13.4002 5.75133 13.5826 5.58176 13.7806 5.44995C13.8647 5.39438 13.953 5.3438 14.0435 5.29962C14.129 5.25759 14.1611 5.24405 14.2508 5.21199C14.3257 5.18491 14.404 5.15998 14.4824 5.14573C14.5757 5.13647 14.6691 5.12934 14.7631 5.12507C14.8379 5.12222 14.9142 5.12079 14.9904 5.1215C15.534 5.1272 16.0997 5.2412 16.5279 5.57962C16.5357 5.58532 16.5429 5.59174 16.5507 5.59744C16.5607 5.60527 16.5707 5.61311 16.5806 5.62095C16.587 5.62665 16.5927 5.63235 16.5992 5.63805C16.6184 5.65515 16.6369 5.67225 16.6547 5.68934C16.6668 5.70074 16.6797 5.71214 16.6911 5.72426C16.7124 5.74563 16.7317 5.767 16.7509 5.78909V5.7898ZM18.2514 5.86889C19.1619 5.47703 20.0725 5.08446 20.9837 4.6926C21.5423 4.45249 22.1009 4.21168 22.6587 3.97158C22.6573 3.97229 22.6566 3.97371 22.6552 3.97443C22.5405 4.07987 22.4265 4.18532 22.3125 4.29076C21.7382 4.82298 21.1689 5.3609 20.6104 5.9095C20.3289 6.18594 20.0504 6.46451 19.7775 6.7495C19.6585 6.87419 19.541 6.99958 19.4255 7.12783C19.3578 7.20335 19.2944 7.27958 19.2004 7.32376C19.1106 7.3665 19.013 7.36793 18.9154 7.3722C18.4851 7.39144 18.0533 7.39002 17.6223 7.39287C17.1934 7.39571 16.7652 7.40569 16.3363 7.41068C15.7812 7.41709 15.2262 7.41495 14.6712 7.40925C14.9626 7.28386 15.2533 7.15846 15.5447 7.03307C16.0555 6.81291 16.5671 6.59276 17.0779 6.37261C17.4691 6.20446 17.8595 6.03632 18.2507 5.86818L18.2514 5.86889ZM20.0582 12.0909C20.0582 12.1066 20.0582 12.1215 20.0575 12.1372C20.0575 12.1372 20.0575 12.1372 20.0568 12.1372C19.8644 12.1073 19.6692 12.1237 19.4982 12.202C19.2339 12.3239 19.0835 12.5768 18.951 12.829C18.9503 12.8162 18.9496 12.8034 18.9482 12.7913C18.9375 12.6958 18.832 12.6153 18.7729 12.5426C18.6888 12.4393 18.6105 12.331 18.5385 12.2191C18.4088 12.0175 18.2991 11.8024 18.2179 11.5772C17.9863 10.9346 17.9842 10.2306 18.1908 9.58087C18.2329 9.44977 18.2642 9.35715 18.3176 9.25099C18.5912 9.20468 18.867 9.26667 19.0657 9.44407C19.1719 9.53883 19.241 9.61863 19.2994 9.74972C19.3008 9.75328 19.3037 9.75542 19.3051 9.75827C19.3073 9.78178 19.3087 9.80529 19.3108 9.82881C19.3122 9.84448 19.3137 9.86087 19.3144 9.87654C19.3144 9.88295 19.3158 9.89008 19.3158 9.89649C19.2709 9.87512 19.2239 9.85873 19.1776 9.85089C19.0273 9.82524 18.8784 9.85374 18.738 9.90932C18.6204 9.95563 18.5086 10.0155 18.4174 10.1052C18.24 10.2798 18.1937 10.5299 18.1922 10.7693C18.1922 10.8362 18.1844 10.9118 18.2492 10.9524C18.2635 10.9616 18.2799 10.968 18.2956 10.9752C18.3746 11.0108 18.4566 11.0379 18.5421 11.0543C18.8662 11.1148 19.1747 11.0279 19.4384 10.8419C19.4996 10.8797 19.5559 10.9246 19.6093 10.9737C19.6642 11.0243 19.7148 11.0806 19.764 11.1419C19.9086 11.3236 19.9955 11.5316 20.0347 11.7511C20.0383 11.7703 20.0404 11.7902 20.0432 11.8102C20.0461 11.8323 20.0497 11.8537 20.0518 11.8757C20.0554 11.9106 20.0568 11.9456 20.0582 11.9812C20.0582 11.9897 20.0589 11.999 20.0596 12.0075C20.0596 12.0353 20.0589 12.0631 20.0582 12.0909ZM15.8176 11.03C15.7371 11.1519 15.6801 11.2958 15.6387 11.4347C15.5953 11.5779 15.5718 11.7261 15.5696 11.875C15.4065 11.6677 15.1236 11.5501 14.88 11.4768C14.4924 11.3592 14.0685 11.3449 13.6773 11.4554C13.1686 11.5993 12.7582 11.9505 12.469 12.3866C12.387 12.5098 12.3165 12.6388 12.2524 12.772C12.1555 12.7635 12.0621 12.7414 11.9538 12.7065C11.708 12.626 11.4879 12.4728 11.3618 12.2427C11.1552 11.8651 11.2385 11.3856 11.3546 10.9944C11.4615 10.6332 11.6482 10.2862 11.9432 10.044C12.0657 9.94351 12.2018 9.85802 12.3443 9.82596C12.3863 9.81669 12.4269 9.76753 12.4226 9.72265C12.3735 9.19684 12.4996 8.49435 12.9463 8.1602C12.9549 8.15378 12.9634 8.1488 12.972 8.1431C13.0674 8.10177 13.1629 8.05974 13.2591 8.01842C13.5049 7.93577 13.7628 7.88518 14.0193 7.85383C14.1169 7.84172 14.2152 7.83317 14.3128 7.82605C14.1347 7.903 13.968 8.00417 13.8191 8.13526C13.5612 8.36325 13.3809 8.68173 13.3204 9.02158C13.3075 9.09567 13.2954 9.17262 13.2976 9.24814C13.2997 9.32224 13.3895 9.39064 13.4586 9.34076C13.7015 9.16264 13.9758 9.02086 14.2601 8.92183C14.6691 8.78005 15.083 8.75654 15.5126 8.76224C15.7029 8.76509 15.8931 8.77292 16.0826 8.78575C16.2394 8.79643 16.3925 8.82208 16.5293 8.72519C16.5457 8.71379 16.5614 8.70025 16.5764 8.686L16.5778 8.68743C16.6505 8.75012 16.7146 8.82351 16.7687 8.90331C16.9782 9.21394 17.0359 9.58799 17.0245 9.95563C17.0103 10.4102 17.0879 10.8655 17.2112 11.3022C17.3252 11.7055 17.4762 12.1087 17.6871 12.4721C17.732 12.5504 17.7868 12.6217 17.8339 12.6986C17.9058 12.8169 17.8631 12.9259 17.8189 13.0442C17.7434 13.2472 17.6636 13.456 17.551 13.6427C17.0851 13.5344 16.6775 13.2337 16.3469 12.8924C16.1517 12.6901 15.9886 12.4692 15.8297 12.2434C15.725 11.8772 15.7941 11.4518 16.0007 11.139C16.0769 11.0236 15.8917 10.9168 15.8161 11.0315L15.8176 11.03ZM14.486 7.98493C14.855 7.84742 15.2519 7.81109 15.6437 7.81679C15.6858 7.81821 15.7285 7.81892 15.7706 7.82035C16.1268 7.82961 16.483 7.83816 16.84 7.84457C16.7196 8.06045 16.6013 8.27989 16.4666 8.48651C16.374 8.62829 16.2023 8.57984 16.0591 8.57058C15.8667 8.55776 15.6737 8.54992 15.4813 8.54849C15.0652 8.54422 14.657 8.56702 14.2587 8.6974C14.0079 8.78005 13.7628 8.89119 13.5377 9.03084C13.5427 9.0059 13.5491 8.98025 13.5555 8.95532C13.564 8.92325 13.574 8.89191 13.5847 8.86056C13.5897 8.8456 13.5954 8.82992 13.6011 8.81496C13.6096 8.79287 13.6146 8.78076 13.6167 8.77506C13.7799 8.39816 14.1005 8.12956 14.486 7.98635V7.98493ZM17.9899 13.1974C18.0291 13.0955 18.079 12.9908 18.0889 12.881C18.1003 12.7621 18.0619 12.6502 17.9942 12.5533C17.7633 12.2227 17.6073 11.8408 17.484 11.4589C17.3359 11.0008 17.2318 10.5171 17.2382 10.0333C17.2439 9.62433 17.2119 9.22178 16.9981 8.86198C16.924 8.7373 16.8257 8.60692 16.7075 8.51216C16.7523 8.4345 16.7915 8.35328 16.8307 8.28488C16.9148 8.13882 16.9996 7.99277 17.0836 7.84742C17.3416 7.85098 17.6002 7.85383 17.8581 7.85455C18.0476 7.85455 18.2371 7.85455 18.4266 7.85027C18.4509 7.87663 18.4744 7.90442 18.4965 7.93221C18.5015 7.93791 18.5057 7.94432 18.5107 7.95002C18.5121 7.95216 18.5136 7.95429 18.5157 7.95572C18.5271 7.97068 18.5385 7.98564 18.5499 8.0006C18.572 8.03053 18.5941 8.06116 18.6162 8.0918C18.6703 8.16803 18.723 8.24569 18.7743 8.32335C18.7793 8.33048 18.7843 8.3376 18.7886 8.34473C18.6069 8.3946 18.4551 8.52213 18.3454 8.68173C18.2592 8.80641 18.1915 8.95389 18.1523 9.10208C18.1495 9.10778 18.1474 9.1142 18.1459 9.12061C18.0234 9.35288 17.9464 9.61863 17.8944 9.87369C17.7733 10.4715 17.8111 11.0977 18.0255 11.6705C18.1858 12.0987 18.4338 12.4828 18.7351 12.8248C18.7444 13.0869 18.6233 13.352 18.4459 13.5379C18.2706 13.6591 18.059 13.6933 17.8474 13.6833C17.8246 13.6819 17.8018 13.6797 17.7783 13.6776C17.8617 13.5237 17.9272 13.3584 17.9899 13.1967V13.1974ZM19.3343 10.6567C19.3343 10.6567 19.3336 10.6567 19.3329 10.6581C19.261 10.7123 19.184 10.7579 19.1021 10.7914C19.1441 10.7066 19.174 10.6147 19.1854 10.5163C19.184 10.5163 19.1826 10.5163 19.1812 10.5163C19.169 10.5142 19.1584 10.5114 19.147 10.5078C19.1391 10.5057 19.132 10.5035 19.1249 10.5007C19.1163 10.4971 19.1078 10.4928 19.0999 10.4886C19.0914 10.4843 19.0835 10.48 19.0757 10.475C19.0679 10.47 19.0607 10.4643 19.0536 10.4586C19.0465 10.4529 19.0394 10.4479 19.0337 10.4422C19.0251 10.4344 19.018 10.4259 19.0109 10.4166C19.008 10.413 19.0045 10.4095 19.0023 10.4059C19.0023 10.4059 19.0023 10.4059 19.0023 10.4066C19.0023 10.4088 19.0023 10.4116 19.0016 10.4137C19.0009 10.4202 19.0002 10.4266 18.998 10.433C18.9973 10.4373 18.9952 10.4415 18.9938 10.4458C18.9923 10.4508 18.9902 10.4565 18.9881 10.4608C18.9859 10.465 18.9831 10.47 18.9809 10.4743C18.9788 10.4786 18.976 10.4829 18.9731 10.4864C18.9695 10.4907 18.966 10.495 18.9624 10.4992C18.9596 10.5028 18.9567 10.5057 18.9539 10.5085C18.9496 10.5128 18.9439 10.5171 18.9389 10.5206C18.9361 10.5228 18.9339 10.5249 18.9311 10.527C18.924 10.5313 18.9168 10.5356 18.909 10.5391C18.9076 10.5391 18.9061 10.5406 18.9047 10.5413C18.8855 10.5491 18.8648 10.5534 18.8434 10.5534C18.7551 10.5534 18.6838 10.4821 18.6838 10.3938C18.6838 10.3496 18.7017 10.3097 18.7309 10.2812C18.7601 10.252 18.8 10.2342 18.8434 10.2342C18.8513 10.2342 18.8591 10.2356 18.867 10.2363C18.8684 10.2363 18.8705 10.2363 18.8719 10.2363C18.8784 10.2378 18.8848 10.2399 18.8912 10.2413C18.8947 10.242 18.8976 10.2435 18.9012 10.2442C18.9069 10.2463 18.9118 10.2492 18.9168 10.2513C18.9204 10.2534 18.924 10.2549 18.9275 10.257C18.9318 10.2599 18.9361 10.2627 18.9396 10.2656C18.9418 10.2677 18.9446 10.2691 18.9468 10.2713C18.9468 10.2713 18.9475 10.2713 18.9482 10.272C18.946 10.2591 18.9439 10.2463 18.9439 10.2328C18.9439 10.2143 18.946 10.1964 18.9496 10.1793C18.9496 10.1765 18.9503 10.1744 18.951 10.1715C18.9581 10.138 18.9717 10.106 18.9902 10.0782C18.9923 10.0753 18.9938 10.0725 18.9959 10.0696C18.9988 10.0653 19.0023 10.0618 19.0052 10.0582C19.0436 10.0539 19.0828 10.0532 19.1149 10.0575C19.1213 10.0582 19.1284 10.0589 19.1341 10.0596C19.1584 10.0646 19.1833 10.071 19.2061 10.0803C19.2068 10.0803 19.2068 10.0803 19.2075 10.0803C19.2132 10.0824 19.2182 10.0853 19.2239 10.0881C19.2353 10.0938 19.2467 10.1003 19.2574 10.1074C19.2617 10.1102 19.2745 10.1195 19.2773 10.1209C19.2837 10.1259 19.2902 10.1316 19.2959 10.1366C19.308 10.148 19.3194 10.1608 19.3308 10.1729C19.3322 10.1744 19.3322 10.1744 19.3336 10.1758C19.3336 10.1758 19.3336 10.1765 19.3343 10.1772C19.3407 10.2812 19.3464 10.3881 19.345 10.4914C19.3443 10.5477 19.3407 10.6026 19.335 10.6546L19.3343 10.6567ZM19.0401 8.54422C19.0921 8.55704 19.0992 8.55989 19.1427 8.58911C19.1462 8.59124 19.1477 8.59195 19.1477 8.59267C19.1484 8.59338 19.1505 8.59552 19.1548 8.59979C19.1619 8.6062 19.169 8.61262 19.1755 8.61974C19.1975 8.64254 19.1926 8.63613 19.2054 8.65537C19.2175 8.67389 19.2289 8.69241 19.2389 8.71165C19.2531 8.73944 19.2517 8.73659 19.2602 8.75796C19.2631 8.7658 19.2652 8.77292 19.2674 8.78076C19.2695 8.78646 19.2709 8.79216 19.2731 8.79786C19.2773 8.80997 19.2809 8.8228 19.2845 8.83491C19.2894 8.85272 19.2937 8.87053 19.298 8.88906C19.2987 8.89262 19.2994 8.89618 19.3001 8.89903C19.3044 8.91755 19.3073 8.93679 19.3108 8.95532C19.3115 8.96102 19.3122 8.966 19.313 8.9717C19.3151 8.9888 19.3172 9.00519 19.3194 9.02229C19.3201 9.02941 19.3208 9.03725 19.3215 9.04437C19.3229 9.06076 19.3244 9.07715 19.3251 9.09425C19.3251 9.09995 19.3251 9.10565 19.3258 9.11135C19.3286 9.17689 19.3279 9.24458 19.3251 9.3144C19.3251 9.31511 19.3251 9.31654 19.3251 9.31725C19.3251 9.31725 19.3251 9.31868 19.3251 9.31939C19.3244 9.33791 19.3229 9.35644 19.3215 9.37496C19.3215 9.38209 19.3208 9.3885 19.3201 9.39562C19.1662 9.22178 18.9546 9.09211 18.7373 9.0458C18.6261 9.02229 18.5143 9.0173 18.4024 9.02656C18.4031 9.02443 18.4038 9.02229 18.4053 9.02015C18.4067 9.01588 18.4088 9.0116 18.4103 9.00733C18.4103 9.00733 18.4103 9.00733 18.4103 9.00661C18.4103 9.00519 18.411 9.00448 18.4117 9.00305C18.4288 8.96387 18.448 8.92468 18.4687 8.88763C18.562 8.71949 18.7002 8.56488 18.8976 8.54137C18.9183 8.53852 18.9468 8.53852 18.971 8.53923C18.9717 8.53923 18.9731 8.53923 18.9738 8.53923C19.008 8.53994 19.018 8.54066 19.0401 8.54636V8.54422ZM22.9893 7.17485C22.8739 7.19836 22.7578 7.2176 22.6416 7.23826C22.2255 7.31378 21.8095 7.38859 21.3934 7.46411C20.5463 7.61729 19.6991 7.77047 18.8513 7.92366C18.8228 7.92864 18.7943 7.93434 18.7651 7.93933C18.7651 7.93933 18.7651 7.93933 18.7651 7.93862C18.7416 7.90656 18.7173 7.8745 18.6924 7.84243C18.7116 7.84172 18.7316 7.84101 18.7508 7.8403C19.0643 7.8232 19.4284 7.81037 19.6927 7.61943C19.8965 7.47195 20.0668 7.26676 20.2449 7.08935C20.4237 6.91052 20.5997 6.72742 20.7764 6.54645C21.3079 6.00212 21.8458 5.46278 22.4108 4.95336C22.6808 4.7097 22.9573 4.47031 23.2501 4.25443C23.4538 4.1041 23.6854 3.92455 23.9341 3.85758C24.3865 3.73503 24.6422 4.20099 24.6829 4.58359C24.7627 5.33952 24.3309 6.07194 23.8322 6.60131C23.6605 6.7837 23.4731 6.949 23.2764 7.10431C23.2764 7.10431 23.275 7.10503 23.2743 7.10574C23.2686 7.10788 23.2622 7.10859 23.2565 7.11073C23.213 7.12426 23.1689 7.13638 23.1247 7.14706C23.1154 7.1492 23.1062 7.15134 23.0969 7.15347C23.0606 7.16202 23.0242 7.16986 22.9879 7.17699L22.9893 7.17485Z" fill="#110F23"/>
<path d="M14.7254 13.5764C14.8408 13.3199 15.4763 13.6206 15.4763 13.6206C14.3919 12.6231 13.9103 13.9754 13.9103 13.9754C13.9103 13.9754 14.0734 13.7524 14.2986 13.6648C14.4247 13.6156 14.5152 13.7567 14.5715 13.8942C14.6691 14.1328 14.7938 14.3608 14.9605 14.5582C16.4681 16.3472 18.5449 15.0633 18.5449 15.0633C15.6224 16.1491 14.6092 13.8329 14.7254 13.5764Z" fill="#110F23"/>
<path d="M16.2928 10.7458C16.4481 10.5883 16.5179 10.3781 16.5386 10.1601C16.5593 9.94351 16.5279 9.72763 16.3427 9.58941C16.2436 9.51531 16.1161 9.48895 15.9971 9.46117C15.8603 9.42982 15.7214 9.40702 15.581 9.39206C15.3103 9.36356 15.0388 9.37139 14.7695 9.41058C14.5501 9.44264 14.3335 9.4975 14.1247 9.57445C14.0072 9.61791 13.891 9.66778 13.7792 9.72478C13.6851 9.77252 13.6046 9.83664 13.611 9.95348C13.6175 10.086 13.7322 10.1359 13.8348 10.19C13.9573 10.2541 14.0813 10.3161 14.2067 10.376C14.4318 10.4836 14.6612 10.5833 14.8949 10.6702C15.1172 10.7529 15.3452 10.8255 15.5775 10.8733C15.8283 10.9246 16.0662 10.9417 16.2743 10.7643C16.2807 10.7586 16.2857 10.7522 16.2914 10.7458H16.2928ZM14.0706 10.0696C14.0514 10.0596 14.0321 10.0511 14.0136 10.0411C13.9616 10.0148 13.911 9.98555 13.8583 9.9599C13.8184 9.93995 13.8241 9.95348 13.8469 9.9314C13.8725 9.90646 13.9274 9.89007 13.9594 9.87511C14.0029 9.85445 14.0471 9.83593 14.092 9.81811C14.077 9.88152 14.0685 9.94707 14.0685 10.0148C14.0685 10.0333 14.0699 10.0518 14.0713 10.0703L14.0706 10.0696ZM14.9612 10.21C14.8607 10.21 14.7788 10.128 14.7788 10.0276C14.7788 9.92712 14.8607 9.84519 14.9612 9.84519C15.0616 9.84519 15.1436 9.92712 15.1436 10.0276C15.1436 10.128 15.0623 10.21 14.9612 10.21ZM15.6238 10.6645C15.5867 10.6567 15.5504 10.6481 15.5133 10.6396C15.638 10.5227 15.7271 10.3696 15.7641 10.1964C15.747 10.2007 15.7292 10.205 15.7114 10.2071C15.6979 10.2093 15.6836 10.21 15.6701 10.21C15.4685 10.21 15.3053 10.0468 15.3053 9.8459C15.3053 9.74758 15.3445 9.65852 15.4072 9.59297C15.5019 9.59796 15.596 9.60722 15.6893 9.62076C15.7848 9.6343 15.8788 9.65211 15.9729 9.6742C15.98 9.67562 15.9879 9.67776 15.995 9.67918C16.094 9.70198 16.1987 9.72407 16.2657 9.806C16.3277 9.88224 16.3327 9.97058 16.3305 10.0646C16.3256 10.2663 16.275 10.4693 16.1239 10.6125C15.9793 10.7365 15.7933 10.6994 15.6231 10.6638L15.6238 10.6645Z" fill="#110F23"/>
</svg>
