<svg width="166" height="165" viewBox="0 0 166 165" fill="none" xmlns="http://www.w3.org/2000/svg">
<path d="M87.1416 65.0472H92.6697V67.8022H95.4247V70.5753H98.1978V76.1034H100.953V89.8965H98.1978V95.4247H95.4247V98.1978H92.6697V100.953H87.1416V103.708H73.3303V106.481H92.6697V103.708H98.1978V100.953H100.953V98.1978H103.726V95.4247H106.481V89.8965H109.236V76.1034H106.481V70.5753H103.726V67.8022H100.953V65.0472H98.1978V62.2922H92.6697V59.519H73.3303V62.2922H87.1416V65.0472Z" fill="#F19ED2"/>
<path d="M98.1978 76.1035H95.4247V89.8966H98.1978V76.1035Z" fill="#F19ED2"/>
<path d="M95.4247 89.8965H92.6697V92.6696H95.4247V89.8965Z" fill="#F19ED2"/>
<path d="M95.4247 73.3303H92.6697V76.1034H95.4247V73.3303Z" fill="#F19ED2"/>
<path d="M92.6697 92.6697H89.9147V95.4247H92.6697V92.6697Z" fill="#F19ED2"/>
<path d="M92.6697 70.5752H89.9147V73.3302H92.6697V70.5752Z" fill="#F19ED2"/>
<path d="M89.9146 95.4246H87.1415V98.1977H89.9146V95.4246Z" fill="#F19ED2"/>
<path d="M89.9146 67.8022H87.1415V70.5754H89.9146V67.8022Z" fill="#F19ED2"/>
<path d="M87.1416 98.1978H73.3303V100.953H87.1416V98.1978Z" fill="#F19ED2"/>
<path d="M87.1416 84.3865H84.3866V89.8965H87.1416V84.3865Z" fill="#F19ED2"/>
<path d="M87.1416 76.1035H84.3866V78.8585H87.1416V76.1035Z" fill="#F19ED2"/>
<path d="M87.1416 65.0471H73.3303V67.8021H87.1416V65.0471Z" fill="#F19ED2"/>
<path d="M78.8584 92.6696V95.4246H81.6134V92.6696H84.3865V89.8964H81.6134V84.3864H84.3865V81.6133H81.6134V76.1033H84.3865V73.3302H81.6134V70.5752H78.8584V73.3302H76.1034V76.1033H78.8584V81.6133H76.1034V84.3864H78.8584V89.8964H76.1034V92.6696H78.8584Z" fill="#F19ED2"/>
<path d="M76.1034 87.1416H73.3303V89.8966H76.1034V87.1416Z" fill="#F19ED2"/>
<path d="M76.1034 76.1035H73.3303V81.6135H76.1034V76.1035Z" fill="#F19ED2"/>
<path d="M73.3303 100.953H67.8203V103.708H73.3303V100.953Z" fill="#F19ED2"/>
<path d="M73.3303 95.4246H70.5753V98.1977H73.3303V95.4246Z" fill="#F19ED2"/>
<path d="M73.3303 67.8022H70.5753V70.5754H73.3303V67.8022Z" fill="#F19ED2"/>
<path d="M73.3303 62.2922H67.8203V65.0472H73.3303V62.2922Z" fill="#F19ED2"/>
<path d="M70.5753 92.6697H67.8203V95.4247H70.5753V92.6697Z" fill="#F19ED2"/>
<path d="M70.5753 70.5752H67.8203V73.3302H70.5753V70.5752Z" fill="#F19ED2"/>
<path d="M67.8202 98.1978H65.0471V100.953H67.8202V98.1978Z" fill="#F19ED2"/>
<path d="M67.8202 89.8965H65.0471V92.6696H67.8202V89.8965Z" fill="#F19ED2"/>
<path d="M67.8202 73.3303H65.0471V76.1034H67.8202V73.3303Z" fill="#F19ED2"/>
<path d="M67.8202 65.0471H65.0471V67.8021H67.8202V65.0471Z" fill="#F19ED2"/>
<path d="M65.0471 95.4246H62.2921V98.1977H65.0471V95.4246Z" fill="#F19ED2"/>
<path d="M65.0471 76.1035H62.2921V89.8966H65.0471V76.1035Z" fill="#F19ED2"/>
<path d="M65.0471 67.8022H62.2921V70.5754H65.0471V67.8022Z" fill="#F19ED2"/>
<path d="M62.2922 89.8965H59.519V95.4246H62.2922V89.8965Z" fill="#F19ED2"/>
<path d="M62.2922 70.5752H59.519V76.1033H62.2922V70.5752Z" fill="#F19ED2"/>
<path d="M59.519 76.1035H56.764V89.8966H59.519V76.1035Z" fill="#F19ED2"/>
<g filter="url(#filter0_d_1118_1525)">
<path d="M144.875 82.5001C144.874 95.5666 140.737 108.298 133.056 118.868C125.376 129.439 114.546 137.307 102.119 141.344C89.6914 145.382 76.3051 145.381 63.8782 141.343C51.4512 137.305 40.6217 129.437 32.9415 118.866C25.2614 108.294 21.1249 95.5632 21.125 82.4966C21.1251 69.4301 25.2617 56.699 32.942 46.1279C40.6223 35.5569 51.452 27.6885 63.879 23.6506C76.306 19.6127 89.6923 19.6125 102.119 23.6501" stroke="#F19ED2" stroke-width="4" stroke-linecap="round" stroke-linejoin="round"/>
</g>
<g filter="url(#filter1_d_1118_1525)">
<path d="M83 20.625C96.0665 20.6256 108.797 24.7628 119.368 32.4436C129.939 40.1243 137.807 50.9543 141.844 63.3815C145.882 75.8086 145.881 89.1949 141.843 101.622C137.805 114.049 129.937 124.878 119.365 132.558C108.794 140.239 96.063 144.375 82.9965 144.375C69.93 144.375 57.1989 140.238 46.6278 132.558C36.0567 124.878 28.1884 114.048 24.1505 101.621C20.1126 89.194 20.1124 75.8077 24.15 63.3806" stroke="#F19ED2" stroke-width="4" stroke-linecap="round" stroke-linejoin="round"/>
</g>
<defs>
<filter id="filter0_d_1118_1525" x="13.025" y="12.5221" width="139.95" height="139.95" filterUnits="userSpaceOnUse" color-interpolation-filters="sRGB">
<feFlood flood-opacity="0" result="BackgroundImageFix"/>
<feColorMatrix in="SourceAlpha" type="matrix" values="0 0 0 0 0 0 0 0 0 0 0 0 0 0 0 0 0 0 127 0" result="hardAlpha"/>
<feOffset/>
<feGaussianBlur stdDeviation="3.05"/>
<feColorMatrix type="matrix" values="0 0 0 0 0.945098 0 0 0 0 0.619608 0 0 0 0 0.823529 0 0 0 0.2 0"/>
<feBlend mode="normal" in2="BackgroundImageFix" result="effect1_dropShadow_1118_1525"/>
<feBlend mode="normal" in="SourceGraphic" in2="effect1_dropShadow_1118_1525" result="shape"/>
</filter>
<filter id="filter1_d_1118_1525" x="13.0219" y="12.525" width="139.95" height="139.95" filterUnits="userSpaceOnUse" color-interpolation-filters="sRGB">
<feFlood flood-opacity="0" result="BackgroundImageFix"/>
<feColorMatrix in="SourceAlpha" type="matrix" values="0 0 0 0 0 0 0 0 0 0 0 0 0 0 0 0 0 0 127 0" result="hardAlpha"/>
<feOffset/>
<feGaussianBlur stdDeviation="3.05"/>
<feColorMatrix type="matrix" values="0 0 0 0 0.945098 0 0 0 0 0.619608 0 0 0 0 0.823529 0 0 0 0.2 0"/>
<feBlend mode="normal" in2="BackgroundImageFix" result="effect1_dropShadow_1118_1525"/>
<feBlend mode="normal" in="SourceGraphic" in2="effect1_dropShadow_1118_1525" result="shape"/>
</filter>
</defs>
</svg>
