<svg width="36" height="36" viewBox="0 0 36 36" fill="none" xmlns="http://www.w3.org/2000/svg">
<path d="M18 35.5C27.6652 35.5 35.5 27.6652 35.5 18C35.5 8.33475 27.6652 0.5 18 0.5C8.33475 0.5 0.5 8.33475 0.5 18C0.5 27.6652 8.33475 35.5 18 35.5ZM26.2355 15.487C25.931 17.3298 24.9667 18.2292 23.6612 18.5477C25.3972 19.519 26.2338 20.9942 25.3395 23.5825C24.2283 26.827 21.7397 27.121 18.4445 26.4928L17.594 29.9175L15.6795 29.4432L16.5283 26.0185C16.3113 25.9613 16.0937 25.9082 15.8755 25.8592C15.5745 25.7892 15.263 25.7175 14.955 25.6282L14.1062 29.053L12.1952 28.5805L13.044 25.154L9.236 24.118L10.181 21.696C10.181 21.696 11.6195 22.0915 11.5985 22.067C12.1305 22.1965 12.3912 21.822 12.498 21.563L13.856 16.0732L14.8465 12.1707C14.8885 11.749 14.7555 11.196 13.9768 10.986C14.0293 10.9563 12.5767 10.6395 12.5767 10.6395L13.142 8.3435L17.0672 9.3165L17.8985 5.96175L19.876 6.45175L19.0448 9.8065C19.554 9.9185 20.0492 10.0515 20.5603 10.1827L21.3898 6.828L23.3147 7.304L22.4608 10.7463C24.888 11.6388 26.6362 12.9565 26.2355 15.487ZM17.3105 16.1695C18.4603 16.516 21.8692 17.5397 22.4432 15.2595C22.9787 13.0895 20.0247 12.428 18.6528 12.12C18.4894 12.085 18.3523 12.0529 18.2415 12.0238L17.2142 16.1415L17.3105 16.1695ZM15.536 22.8545L15.7023 22.9053C17.1198 23.3253 21.1377 24.5205 21.6838 22.2577C22.2437 20.0772 18.6318 19.2285 17.013 18.847C16.8345 18.8062 16.684 18.77 16.5615 18.7385L15.536 22.8545Z" fill="#6B7280"/>
<path d="M26.4824 15.5261L26.4822 15.5278C26.324 16.4847 25.9909 17.2175 25.5102 17.7555C25.1566 18.1512 24.7312 18.4326 24.2558 18.6212C24.925 19.0784 25.4403 19.6447 25.7199 20.3687C26.0622 21.2548 26.0351 22.3345 25.576 23.6635M26.4824 15.5261L25.3395 23.5825M26.4824 15.5261C26.6944 14.1874 26.336 13.1486 25.5934 12.334C24.9045 11.5783 23.8975 11.0288 22.757 10.5905L23.5574 7.3642L23.6176 7.12137L23.3748 7.06131L21.4498 6.58531L21.2071 6.5253L21.1471 6.76799L20.3782 9.87755M26.4824 15.5261L20.3782 9.87755M25.576 23.6635C25.5759 23.6637 25.5759 23.6639 25.5758 23.6641L25.3395 23.5825M25.576 23.6635C25.576 23.6635 25.576 23.6635 25.576 23.6635L25.3395 23.5825M25.576 23.6635C24.9999 25.3456 24.0502 26.2968 22.7918 26.7265C21.6129 27.1291 20.1953 27.062 18.6304 26.7814M25.3395 23.5825C24.2283 26.827 21.7397 27.121 18.4445 26.4928M18.6304 26.7814L18.6871 26.553L18.4445 26.4928M18.6304 26.7814L17.8366 29.9778L17.7764 30.2202L17.5339 30.1602L15.6194 29.6859L15.3767 29.6258L15.4368 29.3831L16.2259 26.1991C16.0911 26.1655 15.956 26.1336 15.8207 26.1032L15.8189 26.1028L15.784 26.0946C15.5743 26.0459 15.3559 25.9951 15.136 25.9374L14.3489 29.1131L14.2888 29.3557L14.0462 29.2957L12.1352 28.8232L11.8924 28.7632L11.9526 28.5204L12.7426 25.3311L9.17037 24.3592L8.90201 24.2862L9.0031 24.0271L9.9481 21.6051L10.03 21.3952L10.2473 21.4549L10.181 21.696L10.2473 21.455L10.2473 21.455L10.2475 21.455L10.2483 21.4552L10.2514 21.4561L10.2633 21.4594L10.3088 21.4718L10.4712 21.5162C10.6056 21.5529 10.7844 21.6014 10.9624 21.6492C11.0454 21.6715 11.1281 21.6936 11.2059 21.7141L11.6576 21.8241C11.8506 21.8711 11.9717 21.8258 12.0568 21.7614C12.148 21.6924 12.2155 21.5865 12.26 21.4839L13.6133 16.0132L13.6137 16.0117L14.5994 12.1282C14.6139 11.9561 14.591 11.7766 14.5029 11.6239C14.4155 11.4725 14.2472 11.3179 13.9117 11.2274L13.3236 11.0688L13.3287 11.0659C13.2993 11.059 13.2696 11.052 13.2398 11.0451C13.0626 11.0039 12.8835 10.9635 12.7485 10.9335L12.5853 10.8973L12.5396 10.8873L12.5275 10.8846L12.5245 10.884L12.5237 10.8838L12.5235 10.8838L12.5235 10.8838L12.5767 10.6395L12.5235 10.8838L12.2726 10.8291L12.334 10.5797L12.8992 8.28374L12.9591 8.0406L13.2022 8.10084L16.8847 9.01369L17.6558 5.90162L17.716 5.65896L17.9586 5.71909L19.9361 6.20909L20.1788 6.26922L20.1187 6.51188L19.3487 9.61918M18.6304 26.7814C18.5532 26.7676 18.4756 26.7532 18.3977 26.7383L18.4445 26.4928M18.4445 26.4928L19.3487 9.61918M20.3782 9.87755C20.3631 9.87363 20.3479 9.86971 20.3328 9.86579C20.0056 9.78103 19.6793 9.69649 19.3487 9.61918M20.3782 9.87755L19.3487 9.61918M9.236 24.118L9.4786 24.184L9.4689 24.2089L9.236 24.118ZM9.236 24.118L9.32739 23.8838L9.30163 23.8768L9.236 24.118ZM12.1952 28.5805L12.4379 28.6405L12.4379 28.6406L12.1952 28.5805ZM12.1952 28.5805L12.2554 28.3378L12.2553 28.3378L12.1952 28.5805ZM15.7396 29.2006L16.5282 26.0185L15.9222 29.5034L15.6795 29.4432L15.7396 29.2006ZM14.955 25.6282L14.8948 25.8711L15.1961 25.6947C15.1157 25.6735 15.0352 25.6515 14.955 25.6282ZM23.6612 18.5477C23.7637 18.6051 23.8631 18.6642 23.9591 18.7251L23.6612 18.5477ZM17.5147 15.9698L18.4239 12.3255C18.4789 12.338 18.5373 12.3509 18.5992 12.3642C19.2918 12.5197 20.3355 12.7556 21.1406 13.2093C21.5413 13.4351 21.8629 13.7043 22.0554 14.0254C22.243 14.3382 22.3192 14.7182 22.2007 15.1991C22.0748 15.6986 21.8009 16.0042 21.4447 16.191C21.078 16.3832 20.609 16.4564 20.0961 16.4496C19.1422 16.4368 18.1194 16.1503 17.5147 15.9698ZM21.4416 22.1956L21.4407 22.1991C21.3253 22.6776 21.0336 22.9691 20.6214 23.1421C20.1963 23.3204 19.6424 23.3713 19.0335 23.3379C17.8523 23.2732 16.5623 22.8991 15.8361 22.6842L16.7438 19.0409C16.8099 19.0567 16.8808 19.0732 16.9565 19.0905C17.7714 19.2826 19.0479 19.5842 20.0511 20.1001C20.5527 20.358 20.9633 20.6585 21.2156 21.0056C21.4605 21.3424 21.5616 21.7283 21.4416 22.1956ZM35.25 18C35.25 27.5272 27.5272 35.25 18 35.25C8.47282 35.25 0.75 27.5272 0.75 18C0.75 8.47282 8.47282 0.75 18 0.75C27.5272 0.75 35.25 8.47282 35.25 18ZM16.5283 26.0185C16.3113 25.9613 16.0937 25.9082 15.8755 25.8592L16.5283 26.0185Z" stroke="url(#paint0_linear_1118_9849)" stroke-opacity="0.2" stroke-width="0.5"/>
<defs>
<linearGradient id="paint0_linear_1118_9849" x1="18" y1="0.5" x2="18" y2="35.5" gradientUnits="userSpaceOnUse">
<stop stop-color="white"/>
<stop offset="1" stop-color="#999999"/>
</linearGradient>
</defs>
</svg>
