<svg width="117" height="42" viewBox="0 0 117 42" fill="none" xmlns="http://www.w3.org/2000/svg">
<mask id="path-1-inside-1_1118_9400" fill="white">
<path d="M49.0203 19.3957C49.0203 19.5614 48.886 19.6957 48.7203 19.6957H46.1901C46.0245 19.6957 45.8901 19.5614 45.8901 19.3957V0.576977C45.8901 0.411291 46.0245 0.276978 46.1901 0.276978H61.0382C61.2039 0.276978 61.3382 0.411292 61.3382 0.576978V2.78835C61.3382 2.95404 61.2039 3.08835 61.0382 3.08835H49.3203C49.1546 3.08835 49.0203 3.22267 49.0203 3.38835V8.81686C49.0203 8.98255 49.1546 9.11686 49.3203 9.11686H60.6034C60.7691 9.11686 60.9034 9.25118 60.9034 9.41686V11.5993C60.9034 11.7649 60.7691 11.8993 60.6034 11.8993H49.3203C49.1546 11.8993 49.0203 12.0336 49.0203 12.1993V19.3957Z"/>
<path d="M65.9257 19.3957C65.9257 19.5614 65.7914 19.6957 65.6257 19.6957H63.0955C62.9298 19.6957 62.7955 19.5614 62.7955 19.3957V0.576977C62.7955 0.411291 62.9298 0.276978 63.0955 0.276978H65.6257C65.7914 0.276978 65.9257 0.411292 65.9257 0.576978V19.3957Z"/>
<path d="M72.1863 19.9856C69.201 19.9856 67.3171 18.5944 67.3171 16.2178C67.3171 13.986 69.1141 12.8267 71.9544 12.5079L78.2363 11.8408C78.3889 11.8246 78.5046 11.6959 78.5046 11.5425V10.9718C78.5046 8.59516 77.4612 7.75465 74.7078 7.75465C72.0414 7.75465 70.7371 8.62415 70.7371 10.7399C70.7371 10.804 70.6852 10.8559 70.6212 10.8559H67.7519C67.6878 10.8559 67.6359 10.804 67.6359 10.7399C67.6359 7.46482 70.3604 5.00124 74.9397 5.00124C79.5191 5.00124 81.5769 7.4938 81.5769 10.9428V19.3957C81.5769 19.5614 81.4426 19.6957 81.2769 19.6957H79.0075C78.8418 19.6957 78.7075 19.5614 78.7075 19.3957V16.2186C78.7075 16.1541 78.6552 16.1018 78.5907 16.1018C78.5396 16.1018 78.4944 16.1355 78.4784 16.1842C77.6991 18.5691 75.4243 19.9856 72.1863 19.9856ZM70.4473 16.0149C70.4473 17.1742 71.2299 17.7249 73.0268 17.7249C76.1696 17.7249 78.3249 16.604 78.4939 14.0037C78.5055 13.825 78.3489 13.6848 78.171 13.7049L72.8529 14.3049C71.2299 14.5077 70.4473 14.8845 70.4473 16.0149Z"/>
<path d="M90.3126 19.9856C85.6753 19.9856 83.0378 18.1596 83.0378 14.8266C83.0378 14.7785 83.0767 14.7396 83.1248 14.7396H85.9361C86.0642 14.7396 86.168 14.8434 86.168 14.9715C86.168 16.8554 87.2983 17.464 90.3126 17.464C93.124 17.464 93.9645 16.8844 93.9645 15.6091C93.9645 14.4208 93.2689 14.044 91.2111 13.7542L87.2694 13.2325C84.5449 12.8847 82.8929 11.7254 82.8929 9.31974C82.8929 6.7982 85.1826 5.00124 89.617 5.00124C94.0224 5.00124 96.6889 6.76922 96.6889 10.1892C96.6889 10.2373 96.65 10.2762 96.602 10.2762H93.7616C93.6656 10.2762 93.5877 10.1983 93.5877 10.1023C93.5877 8.39228 92.7182 7.4938 89.53 7.4938C86.8926 7.4938 85.9651 8.07347 85.9651 9.43568C85.9651 10.566 86.5448 10.9718 88.7185 11.2616L92.0516 11.7254C95.4716 12.1601 97.0367 13.3194 97.0367 15.6961C97.0367 18.3915 94.3702 19.9856 90.3126 19.9856Z"/>
<path d="M101.556 19.3957C101.556 19.5614 101.422 19.6957 101.256 19.6957H98.7256C98.5599 19.6957 98.4256 19.5614 98.4256 19.3957V0.576977C98.4256 0.411291 98.5599 0.276978 98.7256 0.276978H101.256C101.422 0.276978 101.556 0.411292 101.556 0.576978V9.60087C101.556 9.6537 101.599 9.69653 101.651 9.69653C101.697 9.69653 101.736 9.66448 101.746 9.61997C102.26 7.21476 104.029 5.00124 107.671 5.00124C111.642 5.00124 113.584 7.60973 113.584 11.1167V19.3957C113.584 19.5614 113.45 19.6957 113.284 19.6957H110.783C110.617 19.6957 110.483 19.5614 110.483 19.3957V11.8703C110.483 8.97195 109.178 7.81262 106.193 7.81262C102.773 7.81262 101.556 9.66754 101.556 12.7108V19.3957Z"/>
<path d="M54.9039 41.4332H46.364C46.1984 41.4332 46.064 41.2988 46.064 41.1332V22.3144C46.064 22.1487 46.1984 22.0144 46.364 22.0144H54.9039C60.9324 22.0144 64.7292 25.7243 64.7292 31.7238C64.7292 37.7233 60.9324 41.4332 54.9039 41.4332ZM54.9039 24.8258H49.4652C49.2996 24.8258 49.1652 24.9601 49.1652 25.1258V38.3218C49.1652 38.4875 49.2996 38.6218 49.4652 38.6218H54.9039C59.3963 38.6218 61.4251 36.7089 61.4251 31.7238C61.4251 26.7387 59.3963 24.8258 54.9039 24.8258Z"/>
<path d="M71.9017 41.723C67.844 41.723 65.8732 39.0275 65.8732 35.6945V27.3285C65.8732 27.1628 66.0075 27.0285 66.1732 27.0285H68.6744C68.8401 27.0285 68.9744 27.1628 68.9744 27.3285V34.854C68.9744 37.5494 70.2207 38.9116 73.2639 38.9116C76.452 38.9116 77.9302 37.2886 77.9302 34.1584V27.3285C77.9302 27.1628 78.0645 27.0285 78.2302 27.0285H80.7314C80.8971 27.0285 81.0314 27.1628 81.0314 27.3285V41.1332C81.0314 41.2988 80.8971 41.4332 80.7314 41.4332H78.4621C78.2964 41.4332 78.1621 41.2988 78.1621 41.1332V37.0649C78.1621 37.0123 78.1195 36.9697 78.0669 36.9697C78.0212 36.9697 77.9821 37.0021 77.973 37.0469C77.4838 39.4531 75.5723 41.723 71.9017 41.723Z"/>
<path d="M89.9616 41.723C85.2374 41.723 82.1362 39.0565 82.1362 34.2453C82.1362 29.7529 85.2084 26.7387 89.9037 26.7387C94.3671 26.7387 97.4103 29.2022 97.4103 33.5787C97.4103 34.0027 97.3912 34.3501 97.3373 34.6988C97.3155 34.8401 97.1914 34.9409 97.0484 34.9409H85.3762C85.2056 34.9409 85.0688 35.0837 85.0822 35.2537C85.2862 37.834 86.6688 39.2015 89.8747 39.2015C92.8889 39.2015 94.1352 38.216 94.1352 36.506C94.1352 36.378 94.239 36.2741 94.3671 36.2741H97.0046C97.1486 36.2741 97.2654 36.3909 97.2654 36.535C97.2654 39.6072 94.2511 41.723 89.9616 41.723ZM89.8457 29.2022C86.7921 29.2022 85.3869 30.5051 85.121 32.8816C85.1017 33.0542 85.2397 33.2019 85.4133 33.2019H94.3961C94.4281 33.2019 94.454 33.176 94.454 33.144C94.454 30.4775 92.9179 29.2022 89.8457 29.2022Z"/>
<path d="M101.726 41.1332C101.726 41.2988 101.591 41.4332 101.426 41.4332H98.8955C98.7298 41.4332 98.5955 41.2988 98.5955 41.1332V22.3144C98.5955 22.1487 98.7298 22.0144 98.8955 22.0144H101.426C101.591 22.0144 101.726 22.1487 101.726 22.3144V41.1332Z"/>
<path d="M110.276 41.723C105.639 41.723 103.001 39.897 103.001 36.564C103.001 36.516 103.04 36.477 103.088 36.477H105.899C106.028 36.477 106.131 36.5808 106.131 36.7089C106.131 38.5928 107.262 39.2015 110.276 39.2015C113.087 39.2015 113.928 38.6218 113.928 37.3465C113.928 36.1582 113.232 35.7814 111.174 35.4916L107.233 34.9699C104.508 34.6221 102.856 33.4628 102.856 31.0572C102.856 28.5356 105.146 26.7387 109.58 26.7387C113.986 26.7387 116.652 28.5066 116.652 31.9267C116.652 31.9747 116.613 32.0136 116.565 32.0136H113.725C113.629 32.0136 113.551 31.9358 113.551 31.8397C113.551 30.1297 112.682 29.2312 109.493 29.2312C106.856 29.2312 105.928 29.8109 105.928 31.1731C105.928 32.3034 106.508 32.7092 108.682 32.999L112.015 33.4628C115.435 33.8975 117 35.0569 117 37.4335C117 40.1289 114.334 41.723 110.276 41.723Z"/>
</mask>
<path d="M49.0203 19.3957C49.0203 19.5614 48.886 19.6957 48.7203 19.6957H46.1901C46.0245 19.6957 45.8901 19.5614 45.8901 19.3957V0.576977C45.8901 0.411291 46.0245 0.276978 46.1901 0.276978H61.0382C61.2039 0.276978 61.3382 0.411292 61.3382 0.576978V2.78835C61.3382 2.95404 61.2039 3.08835 61.0382 3.08835H49.3203C49.1546 3.08835 49.0203 3.22267 49.0203 3.38835V8.81686C49.0203 8.98255 49.1546 9.11686 49.3203 9.11686H60.6034C60.7691 9.11686 60.9034 9.25118 60.9034 9.41686V11.5993C60.9034 11.7649 60.7691 11.8993 60.6034 11.8993H49.3203C49.1546 11.8993 49.0203 12.0336 49.0203 12.1993V19.3957Z" fill="#E6E1D4"/>
<path d="M65.9257 19.3957C65.9257 19.5614 65.7914 19.6957 65.6257 19.6957H63.0955C62.9298 19.6957 62.7955 19.5614 62.7955 19.3957V0.576977C62.7955 0.411291 62.9298 0.276978 63.0955 0.276978H65.6257C65.7914 0.276978 65.9257 0.411292 65.9257 0.576978V19.3957Z" fill="#E6E1D4"/>
<path d="M72.1863 19.9856C69.201 19.9856 67.3171 18.5944 67.3171 16.2178C67.3171 13.986 69.1141 12.8267 71.9544 12.5079L78.2363 11.8408C78.3889 11.8246 78.5046 11.6959 78.5046 11.5425V10.9718C78.5046 8.59516 77.4612 7.75465 74.7078 7.75465C72.0414 7.75465 70.7371 8.62415 70.7371 10.7399C70.7371 10.804 70.6852 10.8559 70.6212 10.8559H67.7519C67.6878 10.8559 67.6359 10.804 67.6359 10.7399C67.6359 7.46482 70.3604 5.00124 74.9397 5.00124C79.5191 5.00124 81.5769 7.4938 81.5769 10.9428V19.3957C81.5769 19.5614 81.4426 19.6957 81.2769 19.6957H79.0075C78.8418 19.6957 78.7075 19.5614 78.7075 19.3957V16.2186C78.7075 16.1541 78.6552 16.1018 78.5907 16.1018C78.5396 16.1018 78.4944 16.1355 78.4784 16.1842C77.6991 18.5691 75.4243 19.9856 72.1863 19.9856ZM70.4473 16.0149C70.4473 17.1742 71.2299 17.7249 73.0268 17.7249C76.1696 17.7249 78.3249 16.604 78.4939 14.0037C78.5055 13.825 78.3489 13.6848 78.171 13.7049L72.8529 14.3049C71.2299 14.5077 70.4473 14.8845 70.4473 16.0149Z" fill="#E6E1D4"/>
<path d="M90.3126 19.9856C85.6753 19.9856 83.0378 18.1596 83.0378 14.8266C83.0378 14.7785 83.0767 14.7396 83.1248 14.7396H85.9361C86.0642 14.7396 86.168 14.8434 86.168 14.9715C86.168 16.8554 87.2983 17.464 90.3126 17.464C93.124 17.464 93.9645 16.8844 93.9645 15.6091C93.9645 14.4208 93.2689 14.044 91.2111 13.7542L87.2694 13.2325C84.5449 12.8847 82.8929 11.7254 82.8929 9.31974C82.8929 6.7982 85.1826 5.00124 89.617 5.00124C94.0224 5.00124 96.6889 6.76922 96.6889 10.1892C96.6889 10.2373 96.65 10.2762 96.602 10.2762H93.7616C93.6656 10.2762 93.5877 10.1983 93.5877 10.1023C93.5877 8.39228 92.7182 7.4938 89.53 7.4938C86.8926 7.4938 85.9651 8.07347 85.9651 9.43568C85.9651 10.566 86.5448 10.9718 88.7185 11.2616L92.0516 11.7254C95.4716 12.1601 97.0367 13.3194 97.0367 15.6961C97.0367 18.3915 94.3702 19.9856 90.3126 19.9856Z" fill="#E6E1D4"/>
<path d="M101.556 19.3957C101.556 19.5614 101.422 19.6957 101.256 19.6957H98.7256C98.5599 19.6957 98.4256 19.5614 98.4256 19.3957V0.576977C98.4256 0.411291 98.5599 0.276978 98.7256 0.276978H101.256C101.422 0.276978 101.556 0.411292 101.556 0.576978V9.60087C101.556 9.6537 101.599 9.69653 101.651 9.69653C101.697 9.69653 101.736 9.66448 101.746 9.61997C102.26 7.21476 104.029 5.00124 107.671 5.00124C111.642 5.00124 113.584 7.60973 113.584 11.1167V19.3957C113.584 19.5614 113.45 19.6957 113.284 19.6957H110.783C110.617 19.6957 110.483 19.5614 110.483 19.3957V11.8703C110.483 8.97195 109.178 7.81262 106.193 7.81262C102.773 7.81262 101.556 9.66754 101.556 12.7108V19.3957Z" fill="#E6E1D4"/>
<path d="M54.9039 41.4332H46.364C46.1984 41.4332 46.064 41.2988 46.064 41.1332V22.3144C46.064 22.1487 46.1984 22.0144 46.364 22.0144H54.9039C60.9324 22.0144 64.7292 25.7243 64.7292 31.7238C64.7292 37.7233 60.9324 41.4332 54.9039 41.4332ZM54.9039 24.8258H49.4652C49.2996 24.8258 49.1652 24.9601 49.1652 25.1258V38.3218C49.1652 38.4875 49.2996 38.6218 49.4652 38.6218H54.9039C59.3963 38.6218 61.4251 36.7089 61.4251 31.7238C61.4251 26.7387 59.3963 24.8258 54.9039 24.8258Z" fill="#E6E1D4"/>
<path d="M71.9017 41.723C67.844 41.723 65.8732 39.0275 65.8732 35.6945V27.3285C65.8732 27.1628 66.0075 27.0285 66.1732 27.0285H68.6744C68.8401 27.0285 68.9744 27.1628 68.9744 27.3285V34.854C68.9744 37.5494 70.2207 38.9116 73.2639 38.9116C76.452 38.9116 77.9302 37.2886 77.9302 34.1584V27.3285C77.9302 27.1628 78.0645 27.0285 78.2302 27.0285H80.7314C80.8971 27.0285 81.0314 27.1628 81.0314 27.3285V41.1332C81.0314 41.2988 80.8971 41.4332 80.7314 41.4332H78.4621C78.2964 41.4332 78.1621 41.2988 78.1621 41.1332V37.0649C78.1621 37.0123 78.1195 36.9697 78.0669 36.9697C78.0212 36.9697 77.9821 37.0021 77.973 37.0469C77.4838 39.4531 75.5723 41.723 71.9017 41.723Z" fill="#E6E1D4"/>
<path d="M89.9616 41.723C85.2374 41.723 82.1362 39.0565 82.1362 34.2453C82.1362 29.7529 85.2084 26.7387 89.9037 26.7387C94.3671 26.7387 97.4103 29.2022 97.4103 33.5787C97.4103 34.0027 97.3912 34.3501 97.3373 34.6988C97.3155 34.8401 97.1914 34.9409 97.0484 34.9409H85.3762C85.2056 34.9409 85.0688 35.0837 85.0822 35.2537C85.2862 37.834 86.6688 39.2015 89.8747 39.2015C92.8889 39.2015 94.1352 38.216 94.1352 36.506C94.1352 36.378 94.239 36.2741 94.3671 36.2741H97.0046C97.1486 36.2741 97.2654 36.3909 97.2654 36.535C97.2654 39.6072 94.2511 41.723 89.9616 41.723ZM89.8457 29.2022C86.7921 29.2022 85.3869 30.5051 85.121 32.8816C85.1017 33.0542 85.2397 33.2019 85.4133 33.2019H94.3961C94.4281 33.2019 94.454 33.176 94.454 33.144C94.454 30.4775 92.9179 29.2022 89.8457 29.2022Z" fill="#E6E1D4"/>
<path d="M101.726 41.1332C101.726 41.2988 101.591 41.4332 101.426 41.4332H98.8955C98.7298 41.4332 98.5955 41.2988 98.5955 41.1332V22.3144C98.5955 22.1487 98.7298 22.0144 98.8955 22.0144H101.426C101.591 22.0144 101.726 22.1487 101.726 22.3144V41.1332Z" fill="#E6E1D4"/>
<path d="M110.276 41.723C105.639 41.723 103.001 39.897 103.001 36.564C103.001 36.516 103.04 36.477 103.088 36.477H105.899C106.028 36.477 106.131 36.5808 106.131 36.7089C106.131 38.5928 107.262 39.2015 110.276 39.2015C113.087 39.2015 113.928 38.6218 113.928 37.3465C113.928 36.1582 113.232 35.7814 111.174 35.4916L107.233 34.9699C104.508 34.6221 102.856 33.4628 102.856 31.0572C102.856 28.5356 105.146 26.7387 109.58 26.7387C113.986 26.7387 116.652 28.5066 116.652 31.9267C116.652 31.9747 116.613 32.0136 116.565 32.0136H113.725C113.629 32.0136 113.551 31.9358 113.551 31.8397C113.551 30.1297 112.682 29.2312 109.493 29.2312C106.856 29.2312 105.928 29.8109 105.928 31.1731C105.928 32.3034 106.508 32.7092 108.682 32.999L112.015 33.4628C115.435 33.8975 117 35.0569 117 37.4335C117 40.1289 114.334 41.723 110.276 41.723Z" fill="#E6E1D4"/>
<path d="M49.0203 19.3957C49.0203 19.5614 48.886 19.6957 48.7203 19.6957H46.1901C46.0245 19.6957 45.8901 19.5614 45.8901 19.3957V0.576977C45.8901 0.411291 46.0245 0.276978 46.1901 0.276978H61.0382C61.2039 0.276978 61.3382 0.411292 61.3382 0.576978V2.78835C61.3382 2.95404 61.2039 3.08835 61.0382 3.08835H49.3203C49.1546 3.08835 49.0203 3.22267 49.0203 3.38835V8.81686C49.0203 8.98255 49.1546 9.11686 49.3203 9.11686H60.6034C60.7691 9.11686 60.9034 9.25118 60.9034 9.41686V11.5993C60.9034 11.7649 60.7691 11.8993 60.6034 11.8993H49.3203C49.1546 11.8993 49.0203 12.0336 49.0203 12.1993V19.3957Z" stroke="url(#paint0_linear_1118_9400)" stroke-width="0.4" mask="url(#path-1-inside-1_1118_9400)"/>
<path d="M65.9257 19.3957C65.9257 19.5614 65.7914 19.6957 65.6257 19.6957H63.0955C62.9298 19.6957 62.7955 19.5614 62.7955 19.3957V0.576977C62.7955 0.411291 62.9298 0.276978 63.0955 0.276978H65.6257C65.7914 0.276978 65.9257 0.411292 65.9257 0.576978V19.3957Z" stroke="url(#paint1_linear_1118_9400)" stroke-width="0.4" mask="url(#path-1-inside-1_1118_9400)"/>
<path d="M72.1863 19.9856C69.201 19.9856 67.3171 18.5944 67.3171 16.2178C67.3171 13.986 69.1141 12.8267 71.9544 12.5079L78.2363 11.8408C78.3889 11.8246 78.5046 11.6959 78.5046 11.5425V10.9718C78.5046 8.59516 77.4612 7.75465 74.7078 7.75465C72.0414 7.75465 70.7371 8.62415 70.7371 10.7399C70.7371 10.804 70.6852 10.8559 70.6212 10.8559H67.7519C67.6878 10.8559 67.6359 10.804 67.6359 10.7399C67.6359 7.46482 70.3604 5.00124 74.9397 5.00124C79.5191 5.00124 81.5769 7.4938 81.5769 10.9428V19.3957C81.5769 19.5614 81.4426 19.6957 81.2769 19.6957H79.0075C78.8418 19.6957 78.7075 19.5614 78.7075 19.3957V16.2186C78.7075 16.1541 78.6552 16.1018 78.5907 16.1018C78.5396 16.1018 78.4944 16.1355 78.4784 16.1842C77.6991 18.5691 75.4243 19.9856 72.1863 19.9856ZM70.4473 16.0149C70.4473 17.1742 71.2299 17.7249 73.0268 17.7249C76.1696 17.7249 78.3249 16.604 78.4939 14.0037C78.5055 13.825 78.3489 13.6848 78.171 13.7049L72.8529 14.3049C71.2299 14.5077 70.4473 14.8845 70.4473 16.0149Z" stroke="url(#paint2_linear_1118_9400)" stroke-width="0.4" mask="url(#path-1-inside-1_1118_9400)"/>
<path d="M90.3126 19.9856C85.6753 19.9856 83.0378 18.1596 83.0378 14.8266C83.0378 14.7785 83.0767 14.7396 83.1248 14.7396H85.9361C86.0642 14.7396 86.168 14.8434 86.168 14.9715C86.168 16.8554 87.2983 17.464 90.3126 17.464C93.124 17.464 93.9645 16.8844 93.9645 15.6091C93.9645 14.4208 93.2689 14.044 91.2111 13.7542L87.2694 13.2325C84.5449 12.8847 82.8929 11.7254 82.8929 9.31974C82.8929 6.7982 85.1826 5.00124 89.617 5.00124C94.0224 5.00124 96.6889 6.76922 96.6889 10.1892C96.6889 10.2373 96.65 10.2762 96.602 10.2762H93.7616C93.6656 10.2762 93.5877 10.1983 93.5877 10.1023C93.5877 8.39228 92.7182 7.4938 89.53 7.4938C86.8926 7.4938 85.9651 8.07347 85.9651 9.43568C85.9651 10.566 86.5448 10.9718 88.7185 11.2616L92.0516 11.7254C95.4716 12.1601 97.0367 13.3194 97.0367 15.6961C97.0367 18.3915 94.3702 19.9856 90.3126 19.9856Z" stroke="url(#paint3_linear_1118_9400)" stroke-width="0.4" mask="url(#path-1-inside-1_1118_9400)"/>
<path d="M101.556 19.3957C101.556 19.5614 101.422 19.6957 101.256 19.6957H98.7256C98.5599 19.6957 98.4256 19.5614 98.4256 19.3957V0.576977C98.4256 0.411291 98.5599 0.276978 98.7256 0.276978H101.256C101.422 0.276978 101.556 0.411292 101.556 0.576978V9.60087C101.556 9.6537 101.599 9.69653 101.651 9.69653C101.697 9.69653 101.736 9.66448 101.746 9.61997C102.26 7.21476 104.029 5.00124 107.671 5.00124C111.642 5.00124 113.584 7.60973 113.584 11.1167V19.3957C113.584 19.5614 113.45 19.6957 113.284 19.6957H110.783C110.617 19.6957 110.483 19.5614 110.483 19.3957V11.8703C110.483 8.97195 109.178 7.81262 106.193 7.81262C102.773 7.81262 101.556 9.66754 101.556 12.7108V19.3957Z" stroke="url(#paint4_linear_1118_9400)" stroke-width="0.4" mask="url(#path-1-inside-1_1118_9400)"/>
<path d="M54.9039 41.4332H46.364C46.1984 41.4332 46.064 41.2988 46.064 41.1332V22.3144C46.064 22.1487 46.1984 22.0144 46.364 22.0144H54.9039C60.9324 22.0144 64.7292 25.7243 64.7292 31.7238C64.7292 37.7233 60.9324 41.4332 54.9039 41.4332ZM54.9039 24.8258H49.4652C49.2996 24.8258 49.1652 24.9601 49.1652 25.1258V38.3218C49.1652 38.4875 49.2996 38.6218 49.4652 38.6218H54.9039C59.3963 38.6218 61.4251 36.7089 61.4251 31.7238C61.4251 26.7387 59.3963 24.8258 54.9039 24.8258Z" stroke="url(#paint5_linear_1118_9400)" stroke-width="0.4" mask="url(#path-1-inside-1_1118_9400)"/>
<path d="M71.9017 41.723C67.844 41.723 65.8732 39.0275 65.8732 35.6945V27.3285C65.8732 27.1628 66.0075 27.0285 66.1732 27.0285H68.6744C68.8401 27.0285 68.9744 27.1628 68.9744 27.3285V34.854C68.9744 37.5494 70.2207 38.9116 73.2639 38.9116C76.452 38.9116 77.9302 37.2886 77.9302 34.1584V27.3285C77.9302 27.1628 78.0645 27.0285 78.2302 27.0285H80.7314C80.8971 27.0285 81.0314 27.1628 81.0314 27.3285V41.1332C81.0314 41.2988 80.8971 41.4332 80.7314 41.4332H78.4621C78.2964 41.4332 78.1621 41.2988 78.1621 41.1332V37.0649C78.1621 37.0123 78.1195 36.9697 78.0669 36.9697C78.0212 36.9697 77.9821 37.0021 77.973 37.0469C77.4838 39.4531 75.5723 41.723 71.9017 41.723Z" stroke="url(#paint6_linear_1118_9400)" stroke-width="0.4" mask="url(#path-1-inside-1_1118_9400)"/>
<path d="M89.9616 41.723C85.2374 41.723 82.1362 39.0565 82.1362 34.2453C82.1362 29.7529 85.2084 26.7387 89.9037 26.7387C94.3671 26.7387 97.4103 29.2022 97.4103 33.5787C97.4103 34.0027 97.3912 34.3501 97.3373 34.6988C97.3155 34.8401 97.1914 34.9409 97.0484 34.9409H85.3762C85.2056 34.9409 85.0688 35.0837 85.0822 35.2537C85.2862 37.834 86.6688 39.2015 89.8747 39.2015C92.8889 39.2015 94.1352 38.216 94.1352 36.506C94.1352 36.378 94.239 36.2741 94.3671 36.2741H97.0046C97.1486 36.2741 97.2654 36.3909 97.2654 36.535C97.2654 39.6072 94.2511 41.723 89.9616 41.723ZM89.8457 29.2022C86.7921 29.2022 85.3869 30.5051 85.121 32.8816C85.1017 33.0542 85.2397 33.2019 85.4133 33.2019H94.3961C94.4281 33.2019 94.454 33.176 94.454 33.144C94.454 30.4775 92.9179 29.2022 89.8457 29.2022Z" stroke="url(#paint7_linear_1118_9400)" stroke-width="0.4" mask="url(#path-1-inside-1_1118_9400)"/>
<path d="M101.726 41.1332C101.726 41.2988 101.591 41.4332 101.426 41.4332H98.8955C98.7298 41.4332 98.5955 41.2988 98.5955 41.1332V22.3144C98.5955 22.1487 98.7298 22.0144 98.8955 22.0144H101.426C101.591 22.0144 101.726 22.1487 101.726 22.3144V41.1332Z" stroke="url(#paint8_linear_1118_9400)" stroke-width="0.4" mask="url(#path-1-inside-1_1118_9400)"/>
<path d="M110.276 41.723C105.639 41.723 103.001 39.897 103.001 36.564C103.001 36.516 103.04 36.477 103.088 36.477H105.899C106.028 36.477 106.131 36.5808 106.131 36.7089C106.131 38.5928 107.262 39.2015 110.276 39.2015C113.087 39.2015 113.928 38.6218 113.928 37.3465C113.928 36.1582 113.232 35.7814 111.174 35.4916L107.233 34.9699C104.508 34.6221 102.856 33.4628 102.856 31.0572C102.856 28.5356 105.146 26.7387 109.58 26.7387C113.986 26.7387 116.652 28.5066 116.652 31.9267C116.652 31.9747 116.613 32.0136 116.565 32.0136H113.725C113.629 32.0136 113.551 31.9358 113.551 31.8397C113.551 30.1297 112.682 29.2312 109.493 29.2312C106.856 29.2312 105.928 29.8109 105.928 31.1731C105.928 32.3034 106.508 32.7092 108.682 32.999L112.015 33.4628C115.435 33.8975 117 35.0569 117 37.4335C117 40.1289 114.334 41.723 110.276 41.723Z" stroke="url(#paint9_linear_1118_9400)" stroke-width="0.4" mask="url(#path-1-inside-1_1118_9400)"/>
<circle cx="31.3984" cy="34.0907" r="4.68054" fill="#F19ED2" stroke="#F19ED2" stroke-width="0.3" stroke-linejoin="round"/>
<path d="M17.5117 15.0741C17.5117 16.2615 18.4742 17.2241 19.6617 17.2241H27.4688C28.9812 17.2241 29.8546 18.9401 28.9645 20.1628L17.2325 36.2795C16.1783 37.7277 13.8868 36.982 13.8868 35.1907V26.5394C13.8868 25.352 12.9243 24.3895 11.7368 24.3895H3.92966C2.41731 24.3895 1.54392 22.6734 2.43398 21.4507L14.166 5.33401C15.2202 3.8858 17.5117 4.6315 17.5117 6.42278V15.0741Z" fill="#F19ED2" stroke="#F19ED2" stroke-width="0.3" stroke-linejoin="round"/>
<defs>
<linearGradient id="paint0_linear_1118_9400" x1="81.8777" y1="51.0942" x2="81.8777" y2="14.8652" gradientUnits="userSpaceOnUse">
<stop stop-color="white" stop-opacity="0.1"/>
<stop offset="1" stop-color="white" stop-opacity="0"/>
</linearGradient>
<linearGradient id="paint1_linear_1118_9400" x1="81.8777" y1="51.0942" x2="81.8777" y2="14.8652" gradientUnits="userSpaceOnUse">
<stop stop-color="white" stop-opacity="0.1"/>
<stop offset="1" stop-color="white" stop-opacity="0"/>
</linearGradient>
<linearGradient id="paint2_linear_1118_9400" x1="81.8777" y1="51.0942" x2="81.8777" y2="14.8652" gradientUnits="userSpaceOnUse">
<stop stop-color="white" stop-opacity="0.1"/>
<stop offset="1" stop-color="white" stop-opacity="0"/>
</linearGradient>
<linearGradient id="paint3_linear_1118_9400" x1="81.8777" y1="51.0942" x2="81.8777" y2="14.8652" gradientUnits="userSpaceOnUse">
<stop stop-color="white" stop-opacity="0.1"/>
<stop offset="1" stop-color="white" stop-opacity="0"/>
</linearGradient>
<linearGradient id="paint4_linear_1118_9400" x1="81.8777" y1="51.0942" x2="81.8777" y2="14.8652" gradientUnits="userSpaceOnUse">
<stop stop-color="white" stop-opacity="0.1"/>
<stop offset="1" stop-color="white" stop-opacity="0"/>
</linearGradient>
<linearGradient id="paint5_linear_1118_9400" x1="81.8777" y1="51.0942" x2="81.8777" y2="14.8652" gradientUnits="userSpaceOnUse">
<stop stop-color="white" stop-opacity="0.1"/>
<stop offset="1" stop-color="white" stop-opacity="0"/>
</linearGradient>
<linearGradient id="paint6_linear_1118_9400" x1="81.8777" y1="51.0942" x2="81.8777" y2="14.8652" gradientUnits="userSpaceOnUse">
<stop stop-color="white" stop-opacity="0.1"/>
<stop offset="1" stop-color="white" stop-opacity="0"/>
</linearGradient>
<linearGradient id="paint7_linear_1118_9400" x1="81.8777" y1="51.0942" x2="81.8777" y2="14.8652" gradientUnits="userSpaceOnUse">
<stop stop-color="white" stop-opacity="0.1"/>
<stop offset="1" stop-color="white" stop-opacity="0"/>
</linearGradient>
<linearGradient id="paint8_linear_1118_9400" x1="81.8777" y1="51.0942" x2="81.8777" y2="14.8652" gradientUnits="userSpaceOnUse">
<stop stop-color="white" stop-opacity="0.1"/>
<stop offset="1" stop-color="white" stop-opacity="0"/>
</linearGradient>
<linearGradient id="paint9_linear_1118_9400" x1="81.8777" y1="51.0942" x2="81.8777" y2="14.8652" gradientUnits="userSpaceOnUse">
<stop stop-color="white" stop-opacity="0.1"/>
<stop offset="1" stop-color="white" stop-opacity="0"/>
</linearGradient>
</defs>
</svg>
