<svg width="30" height="30" viewBox="0 0 30 30" fill="none" xmlns="http://www.w3.org/2000/svg">
<path d="M25.6346 28.6464L25.6331 28.6448L21.3675 24.4157L21.0139 24.0652L20.6619 24.4172L18.4744 26.6047C18.31 26.7691 18.1013 26.8593 17.8071 26.8593C17.513 26.8593 17.3043 26.7691 17.1399 26.6047C16.6792 26.1441 16.4478 25.5806 16.4478 24.8801C16.4478 24.1797 16.6792 23.6162 17.1399 23.1556L23.3013 16.9941C23.7619 16.5335 24.3254 16.302 25.0259 16.302C25.7264 16.302 26.2898 16.5335 26.7505 16.9941C26.9149 17.1585 27.005 17.3672 27.005 17.6614C27.005 17.9555 26.9149 18.1642 26.7505 18.3287L24.563 20.5162L24.2109 20.8682L24.5614 21.2217L28.7906 25.4874L28.7921 25.4889C28.9963 25.6931 29.0832 25.9086 29.0832 26.1562C29.0832 26.4038 28.9963 26.6192 28.7921 26.8234L26.9692 28.6464C26.765 28.8506 26.5495 28.9374 26.3019 28.9374C26.0543 28.9374 25.8389 28.8506 25.6346 28.6464ZM28.7933 6.18685L28.7921 6.18803L12.6775 22.3026L12.2825 22.6976L12.7187 23.0466L12.8785 23.1744C13.3267 23.6315 13.5519 24.1892 13.5519 24.8801C13.5519 25.5806 13.3205 26.1441 12.8598 26.6047C12.6954 26.7691 12.4867 26.8593 12.1925 26.8593C11.8984 26.8593 11.6897 26.7691 11.5253 26.6047L9.33777 24.4172L8.98573 24.0652L8.63218 24.4157L4.36655 28.6448L4.36503 28.6464C4.16082 28.8506 3.94537 28.9374 3.69775 28.9374C3.45014 28.9374 3.23468 28.8506 3.03047 28.6464L1.20756 26.8234C1.00335 26.6192 0.916504 26.4038 0.916504 26.1562C0.916504 25.9086 1.00335 25.6931 1.20756 25.4889L1.20907 25.4874L5.43824 21.2217L5.78876 20.8682L5.43672 20.5162L3.24922 18.3287C3.08479 18.1642 2.99463 17.9555 2.99463 17.6614C2.99463 17.3672 3.08479 17.1585 3.24922 16.9941C3.70986 16.5335 4.27332 16.302 4.9738 16.302C5.66474 16.302 6.22239 16.5272 6.67952 16.9754L6.80732 17.1352L7.1563 17.5714L7.55131 17.1764L23.2648 1.46285C23.4852 1.24249 23.7399 1.07256 24.0327 0.951603C24.3241 0.831196 24.6295 0.770752 24.953 0.770752H28.1248C28.4118 0.770752 28.6293 0.862521 28.8111 1.04431C28.9928 1.22603 29.0838 1.44261 29.0832 1.72791V1.72909V5.48429C29.0832 5.6145 29.0591 5.74029 29.0094 5.86485L29.4738 6.05013L29.0094 5.86486C28.963 5.98125 28.8928 6.08802 28.7933 6.18685ZM6.73418 1.4622L6.73483 1.46285L12.0577 6.78576C12.2585 6.98652 12.3488 7.20707 12.3488 7.472C12.3488 7.73687 12.2586 7.95663 12.0583 8.15619L12.0577 8.15678L8.30253 11.912C8.10151 12.113 7.88135 12.203 7.61775 12.203C7.35427 12.203 7.13342 12.1131 6.93131 11.9118C6.93118 11.9117 6.93105 11.9115 6.93093 11.9114L1.6086 6.58907C1.38801 6.36848 1.21807 6.11404 1.09717 5.82227C0.977074 5.53244 0.916504 5.22671 0.916504 4.90096V1.72909C0.916504 1.44209 1.00824 1.2255 1.18944 1.04492C1.37153 0.863459 1.58913 0.771544 1.87547 0.770752H5.04671C5.37132 0.770752 5.67724 0.831259 5.96847 0.951603C6.26103 1.07249 6.51502 1.24224 6.73418 1.4622Z" fill="#6B7280" stroke="url(#paint0_linear_1118_9864)"/>
<defs>
<linearGradient id="paint0_linear_1118_9864" x1="14.9998" y1="0.270752" x2="14.9998" y2="29.4374" gradientUnits="userSpaceOnUse">
<stop stop-color="white" stop-opacity="0.1"/>
<stop offset="1" stop-color="white" stop-opacity="0.05"/>
</linearGradient>
</defs>
</svg>
