<svg width="36" height="36" viewBox="0 0 36 36" fill="none" xmlns="http://www.w3.org/2000/svg">
<path d="M28.6346 31.6465L28.6331 31.645L24.3675 27.4158L24.0139 27.0653L23.6619 27.4173L21.4744 29.6048C21.31 29.7693 21.1013 29.8594 20.8071 29.8594C20.513 29.8594 20.3043 29.7693 20.1399 29.6048C19.6792 29.1442 19.4478 28.5807 19.4478 27.8802C19.4478 27.1798 19.6792 26.6163 20.1399 26.1557L26.3013 19.9942C26.7619 19.5336 27.3254 19.3021 28.0259 19.3021C28.7264 19.3021 29.2898 19.5336 29.7505 19.9942C29.9149 20.1586 30.005 20.3674 30.005 20.6615C30.005 20.9556 29.9149 21.1643 29.7505 21.3288L27.563 23.5163L27.2109 23.8683L27.5614 24.2219L31.7906 28.4875L31.7921 28.489C31.9963 28.6932 32.0832 28.9087 32.0832 29.1563C32.0832 29.4039 31.9963 29.6194 31.7921 29.8236L29.9692 31.6465C29.765 31.8507 29.5495 31.9375 29.3019 31.9375C29.0543 31.9375 28.8389 31.8507 28.6346 31.6465ZM31.7933 9.18697L31.7921 9.18815L15.6775 25.3027L15.2825 25.6977L15.7187 26.0467L15.8785 26.1745C16.3267 26.6317 16.5519 27.1893 16.5519 27.8802C16.5519 28.5807 16.3205 29.1442 15.8598 29.6048C15.6954 29.7693 15.4867 29.8594 15.1925 29.8594C14.8984 29.8594 14.6897 29.7693 14.5253 29.6048L12.3378 27.4173L11.9857 27.0653L11.6322 27.4158L7.36655 31.645L7.36503 31.6465C7.16082 31.8507 6.94537 31.9375 6.69775 31.9375C6.45014 31.9375 6.23468 31.8507 6.03047 31.6465L4.20756 29.8236C4.00335 29.6194 3.9165 29.4039 3.9165 29.1563C3.9165 28.9087 4.00335 28.6932 4.20756 28.489L4.20907 28.4875L8.43824 24.2219L8.78876 23.8683L8.43672 23.5163L6.24922 21.3288C6.08479 21.1643 5.99463 20.9556 5.99463 20.6615C5.99463 20.3674 6.08479 20.1586 6.24922 19.9942C6.70986 19.5336 7.27332 19.3021 7.9738 19.3021C8.66474 19.3021 9.22239 19.5273 9.67952 19.9756L9.80732 20.1353L10.1563 20.5715L10.5513 20.1765L26.2648 4.46297C26.4852 4.24261 26.7399 4.07269 27.0327 3.95173C27.3241 3.83132 27.6295 3.77087 27.953 3.77087H31.1248C31.4118 3.77087 31.6293 3.86264 31.8111 4.04443C31.9928 4.22615 32.0838 4.44273 32.0832 4.72803V4.72921V8.48442C32.0832 8.61462 32.0591 8.74041 32.0094 8.86498L32.4738 9.05025L32.0094 8.86498C31.963 8.98137 31.8928 9.08815 31.7933 9.18697ZM9.73418 4.46232L9.73483 4.46297L15.0577 9.78589C15.2585 9.98665 15.3488 10.2072 15.3488 10.4721C15.3488 10.737 15.2586 10.9567 15.0583 11.1563L15.0577 11.1569L11.3025 14.9121C11.1015 15.1131 10.8814 15.2032 10.6178 15.2032C10.3543 15.2032 10.1334 15.1132 9.93131 14.9119C9.93118 14.9118 9.93105 14.9117 9.93093 14.9115L4.6086 9.5892C4.38801 9.36861 4.21807 9.11416 4.09717 8.82239C3.97707 8.53256 3.9165 8.22683 3.9165 7.90108V4.72921C3.9165 4.44221 4.00824 4.22562 4.18944 4.04504C4.37153 3.86358 4.58913 3.77167 4.87547 3.77087H8.04671C8.37132 3.77087 8.67724 3.83138 8.96847 3.95173C9.26103 4.07262 9.51502 4.24236 9.73418 4.46232Z" fill="#F3EFE0" stroke="url(#paint0_linear_1118_10430)"/>
<defs>
<linearGradient id="paint0_linear_1118_10430" x1="17.9998" y1="3.27087" x2="17.9998" y2="32.4375" gradientUnits="userSpaceOnUse">
<stop stop-color="white" stop-opacity="0.1"/>
<stop offset="1" stop-color="white" stop-opacity="0.05"/>
</linearGradient>
</defs>
</svg>
