<svg width="26" height="26" viewBox="0 0 26 26" fill="none" xmlns="http://www.w3.org/2000/svg">
<path d="M13 26C20.2042 26 26 20.2042 26 13C26 5.79579 20.2042 0 13 0C5.79579 0 0 5.79579 0 13C0 20.2042 5.79579 26 13 26Z" fill="#2775CA"/>
<path d="M16.5752 15.0584C16.5752 13.1626 15.4377 12.5126 13.1627 12.2418C11.5377 12.0251 11.2127 11.5918 11.2127 10.8334C11.2127 10.075 11.7544 9.58761 12.8377 9.58761C13.8127 9.58761 14.3544 9.91261 14.6252 10.7251C14.6794 10.8876 14.8419 10.9959 15.0044 10.9959H15.871C16.0877 10.9959 16.2502 10.8334 16.2502 10.6168V10.5626C16.0335 9.3709 15.0585 8.45011 13.8127 8.34182V7.04182C13.8127 6.82511 13.6502 6.66261 13.3794 6.6084H12.5669C12.3502 6.6084 12.1877 6.7709 12.1335 7.04182V8.28761C10.5085 8.50432 9.47939 9.58761 9.47939 10.9418C9.47939 12.7293 10.5627 13.4334 12.8377 13.7043C14.3544 13.9751 14.8419 14.3001 14.8419 15.1668C14.8419 16.0335 14.0835 16.6293 13.0544 16.6293C11.646 16.6293 11.1585 16.0334 10.996 15.2209C10.9419 15.0043 10.7794 14.8959 10.6169 14.8959H9.69597C9.47939 14.8959 9.31689 15.0584 9.31689 15.2751V15.3293C9.53347 16.6834 10.4002 17.6584 12.1877 17.9293V19.2293C12.1877 19.4459 12.3502 19.6084 12.621 19.6626H13.4335C13.6502 19.6626 13.8127 19.5001 13.8669 19.2293V17.9293C15.4919 17.6584 16.5752 16.5209 16.5752 15.0584V15.0584Z" fill="white"/>
<path fill-rule="evenodd" clip-rule="evenodd" d="M5.41679 10.3456C3.84587 14.5165 6.01258 19.229 10.2376 20.7456C10.4001 20.854 10.5626 21.0706 10.5626 21.2331V21.9915C10.5626 22.0998 10.5626 22.154 10.5084 22.2081C10.4543 22.4248 10.2376 22.5331 10.0209 22.4248C6.98758 21.4498 4.65837 19.1206 3.68337 16.0873C2.05837 10.9415 4.87508 5.47058 10.0209 3.84558C10.0751 3.7915 10.1834 3.7915 10.2376 3.7915C10.4543 3.84558 10.5626 4.00808 10.5626 4.22479V4.98308C10.5626 5.254 10.4543 5.4165 10.2376 5.52479C8.01679 6.33729 6.22929 8.07058 5.41679 10.3456ZM15.4918 4.06229C15.5459 3.84558 15.7626 3.73729 15.9793 3.84558C18.9584 4.82058 21.3418 7.14979 22.3168 10.2373C23.9418 15.3831 21.1251 20.854 15.9793 22.479C15.9251 22.5331 15.8168 22.5331 15.7626 22.5331C15.5459 22.479 15.4376 22.3165 15.4376 22.0998V21.3415C15.4376 21.0706 15.5459 20.9081 15.7626 20.7998C17.9834 19.9873 19.7709 18.254 20.5834 15.979C22.1543 11.8081 19.9876 7.09558 15.7626 5.579C15.6001 5.47058 15.4376 5.254 15.4376 5.03729V4.279C15.4376 4.17058 15.4376 4.1165 15.4918 4.06229Z" fill="white"/>
</svg>
