<svg width="22" height="23" viewBox="0 0 22 23" fill="none" xmlns="http://www.w3.org/2000/svg">
<path d="M12.5718 4.69014H14.6686V5.73514H15.7136V6.78701H16.7655V8.88389H17.8105V14.1158H16.7655V16.2126H15.7136V17.2645H14.6686V18.3095H12.5718V19.3545H7.33301V20.4064H14.6686V19.3545H16.7655V18.3095H17.8105V17.2645H18.8624V16.2126H19.9074V14.1158H20.9524V8.88389H19.9074V6.78701H18.8624V5.73514H17.8105V4.69014H16.7655V3.64514H14.6686V2.59326H7.33301V3.64514H12.5718V4.69014Z" fill="#B5BAC2"/>
<path d="M16.7648 8.88379H15.7129V14.1157H16.7648V8.88379Z" fill="#B5BAC2"/>
<path d="M15.713 14.1157H14.668V15.1676H15.713V14.1157Z" fill="#B5BAC2"/>
<path d="M15.713 7.83203H14.668V8.88391H15.713V7.83203Z" fill="#B5BAC2"/>
<path d="M14.668 15.1675H13.623V16.2125H14.668V15.1675Z" fill="#B5BAC2"/>
<path d="M14.668 6.78711H13.623V7.83211H14.668V6.78711Z" fill="#B5BAC2"/>
<path d="M13.6232 16.2124H12.5713V17.2643H13.6232V16.2124Z" fill="#B5BAC2"/>
<path d="M13.6232 5.73535H12.5713V6.78723H13.6232V5.73535Z" fill="#B5BAC2"/>
<path d="M12.5718 17.2646H7.33301V18.3096H12.5718V17.2646Z" fill="#B5BAC2"/>
<path d="M12.5714 12.0259H11.5264V14.1159H12.5714V12.0259Z" fill="#B5BAC2"/>
<path d="M12.5714 8.88379H11.5264V9.92879H12.5714V8.88379Z" fill="#B5BAC2"/>
<path d="M12.5718 4.68994H7.33301V5.73494H12.5718V4.68994Z" fill="#B5BAC2"/>
<path d="M9.42977 15.1677V16.2127H10.4748V15.1677H11.5266V14.1159H10.4748V12.0259H11.5266V10.974H10.4748V8.88398H11.5266V7.83211H10.4748V6.78711H9.42977V7.83211H8.38477V8.88398H9.42977V10.974H8.38477V12.0259H9.42977V14.1159H8.38477V15.1677H9.42977Z" fill="#B5BAC2"/>
<path d="M8.38488 13.0708H7.33301V14.1158H8.38488V13.0708Z" fill="#B5BAC2"/>
<path d="M8.38488 8.88379H7.33301V10.9738H8.38488V8.88379Z" fill="#B5BAC2"/>
<path d="M7.33219 18.3096H5.24219V19.3546H7.33219V18.3096Z" fill="#B5BAC2"/>
<path d="M7.33211 16.2124H6.28711V17.2643H7.33211V16.2124Z" fill="#B5BAC2"/>
<path d="M7.33211 5.73535H6.28711V6.78723H7.33211V5.73535Z" fill="#B5BAC2"/>
<path d="M7.33219 3.64502H5.24219V4.69002H7.33219V3.64502Z" fill="#B5BAC2"/>
<path d="M6.28719 15.1675H5.24219V16.2125H6.28719V15.1675Z" fill="#B5BAC2"/>
<path d="M6.28719 6.78711H5.24219V7.83211H6.28719V6.78711Z" fill="#B5BAC2"/>
<path d="M5.2423 17.2646H4.19043V18.3096H5.2423V17.2646Z" fill="#B5BAC2"/>
<path d="M5.2423 14.1157H4.19043V15.1676H5.2423V14.1157Z" fill="#B5BAC2"/>
<path d="M5.2423 7.83203H4.19043V8.88391H5.2423V7.83203Z" fill="#B5BAC2"/>
<path d="M5.2423 4.68994H4.19043V5.73494H5.2423V4.68994Z" fill="#B5BAC2"/>
<path d="M4.19051 16.2124H3.14551V17.2643H4.19051V16.2124Z" fill="#B5BAC2"/>
<path d="M4.19051 8.88379H3.14551V14.1157H4.19051V8.88379Z" fill="#B5BAC2"/>
<path d="M4.19051 5.73535H3.14551V6.78723H4.19051V5.73535Z" fill="#B5BAC2"/>
<path d="M3.14562 14.1157H2.09375V16.2126H3.14562V14.1157Z" fill="#B5BAC2"/>
<path d="M3.14562 6.78711H2.09375V8.88398H3.14562V6.78711Z" fill="#B5BAC2"/>
<path d="M2.09383 8.88379H1.04883V14.1157H2.09383V8.88379Z" fill="#B5BAC2"/>
</svg>
