<svg width="14" height="15" viewBox="0 0 14 15" fill="none" xmlns="http://www.w3.org/2000/svg">
<path d="M7 5H7.875V4.16667H7M5.25 6.66667H6.125V5.83333H7V5H6.125V4.16667H5.25V3.33333H6.125V4.16667H7V3.33333H7.875V4.16667H8.75V5H9.625V4.16667H10.5V2.5H11.375V1.66667H2.625V2.5H3.5V3.33333H4.375V5H5.25M6.125 7.5H7V6.66667H6.125M7 8.33333H7.875V7.5H7M14 15H0V12.5H0.875V11.6667H1.75V10H2.625V8.33333H3.5V6.66667H2.625V5H1.75V3.33333H0.875V2.5H0V0H14V2.5H13.125V3.33333H12.25V5H11.375V6.66667H10.5V8.33333H11.375V10H12.25V11.6667H13.125V12.5H14M8.75 6.66667V5H7.875V5.83333H7V6.66667M11.375 13.3333V12.5H10.5V10.8333H9.625V9.16667H8.75V8.33333H7.875V10H8.75V11.6667H9.625V12.5H4.375V11.6667H5.25V10H6.125V9.16667H7V8.33333H5.25V9.16667H4.375V10.8333H3.5V12.5H2.625V13.3333H11.375Z" fill="#B5BAC2"/>
</svg>
